<svg width="100" height="100" viewBox="0 0 100 100" fill="none" xmlns="http://www.w3.org/2000/svg">
<g clip-path="url(#clip0_1124_17866)">
<path d="M50 100C77.6142 100 100 77.6142 100 50C100 22.3858 77.6142 0 50 0C22.3858 0 0 22.3858 0 50C0 77.6142 22.3858 100 50 100Z" fill="#EC1C24"/>
<path d="M50 2.53333C76.1714 2.53333 97.4667 23.8286 97.4667 50C97.4667 76.1714 76.1714 97.4667 50 97.4667C23.8286 97.4667 2.53333 76.1714 2.53333 50C2.53333 23.8286 23.8286 2.53333 50 2.53333ZM50 0C22.3857 0 0 22.3857 0 50C0 77.6143 22.3857 100 50 100C77.6143 100 100 77.6143 100 50C100 22.3857 77.6143 0 50 0Z" fill="white"/>
<path d="M32.8381 33.5572C32.3572 33.5572 31.9619 33.9476 31.9619 34.4333C31.9619 34.9191 32.3524 35.3095 32.8381 35.3095C33.3191 35.3095 33.7143 34.9191 33.7143 34.4333C33.7143 33.9524 33.3238 33.5572 32.8381 33.5572Z" fill="white"/>
<path d="M51.3809 54.7381L50.4571 46.9048C50.438 46.7238 50.4666 46.7238 50.6571 46.6238C50.8285 46.5381 50.9475 46.1143 50.6809 45.8619L46.638 42.0905C46.2333 41.6857 45.8904 41.9952 46.0285 42.5286L46.1761 43.1143C46.2809 43.5191 46.3761 43.9762 46.1952 44.3667C44.3285 48.4476 46.1952 44.3667 44.3285 48.4476C44.1618 48.8143 44.0571 48.8143 43.5999 48.8143C43.2475 48.8143 43.119 49.2095 43.2856 49.3667C43.2856 49.3667 44.738 50.7095 44.938 50.9095C45.138 51.1095 45.4094 50.7286 45.2285 50.2952C45.1079 50.0127 45.1587 49.6254 45.3809 49.1333L48.3618 51.9143L48.438 52.5476C48.4714 52.8286 48.4333 52.8952 47.9714 52.8952C47.619 52.8952 47.4952 53.2905 47.6571 53.4476C47.6571 53.4476 51.4761 57 51.6761 57.2L51.6571 57.1714C51.8571 57.3714 52.1285 56.9905 51.9475 56.5571C51.7666 56.1333 51.4761 55.5048 51.3856 54.7381H51.3809ZM45.7904 48.2429L47.3618 44.8048C47.5142 44.9619 47.5475 45.1048 47.5999 45.4905L48.1856 50.481L45.7856 48.2429H45.7904Z" fill="white"/>
<path d="M37.9571 34.4191C35.8047 34.4191 34.0571 36.0333 34.0571 39.2714C34.0571 42.5095 35.8047 44.1238 37.9571 44.1238C39.6905 44.1238 40.9238 43.3857 41.6667 40.9905C41.7333 40.6238 41.6667 40.181 40.7667 40.3191C39.9857 40.4381 39.9667 40.6905 39.9905 41.0524C40.0762 42.2238 39.8 42.7905 38.9619 42.7905C37.9286 42.7905 37.4476 41.7333 37.5619 37.7714C37.5809 37.0286 37.9667 36.3619 38.7047 36.3619C39.4428 36.3619 39.7762 37.2762 39.9286 38.2095C39.9905 38.5667 40.1333 38.8238 40.9143 38.9429C41.6952 39.0619 41.8238 38.7571 41.8143 38.4333C41.3619 35.6381 39.9143 34.4238 37.9524 34.4238L37.9571 34.4191Z" fill="white"/>
<path d="M43.8334 43.8571C43.8334 43.3762 43.443 42.981 42.9572 42.981C42.4715 42.981 42.0811 43.3714 42.0811 43.8571C42.0811 44.3381 42.4715 44.7333 42.9572 44.7333C43.4382 44.7333 43.8334 44.3429 43.8334 43.8571Z" fill="white"/>
<path d="M62.4861 61.2095C62.0051 61.2095 61.6099 61.6 61.6099 62.0857C61.6099 62.5667 62.0003 62.9619 62.4861 62.9619C62.9718 62.9619 63.3622 62.5714 63.3622 62.0857C63.3622 61.6048 62.9718 61.2095 62.4861 61.2095Z" fill="white"/>
<path d="M60.1097 55.4571C60.3192 55.3952 60.4573 55.0095 60.1382 54.6857L56.7049 51.4762C56.3002 51.0714 55.924 51.5857 56.1716 52.081C56.4144 52.5714 56.7192 53.2143 56.7192 53.8048V60.2143C56.7192 60.5333 56.4478 60.5905 56.2382 60.6524C56.0287 60.7143 55.8906 61.1 56.2097 61.4238L59.643 64.6333C60.0478 65.0381 60.424 64.5238 60.1763 64.0286C59.9335 63.5381 59.6287 62.8952 59.6287 62.3048V55.8952C59.6287 55.5762 59.9002 55.5191 60.1097 55.4571Z" fill="white"/>
<path d="M53.9192 53.2143C53.4382 53.2143 53.043 53.6048 53.043 54.0905C53.043 54.5714 53.4334 54.9667 53.9192 54.9667C54.4001 54.9667 54.7953 54.5762 54.7953 54.0905C54.7953 53.6095 54.4049 53.2143 53.9192 53.2143Z" fill="white"/>
<path d="M74.6287 33.2524L74.543 31.6762H72.962C70.5525 31.6762 68.362 30.4524 67.1049 28.4048L66.0001 26.6048L64.5049 28.1C62.7239 29.881 60.3572 30.8619 57.843 30.8619C55.3239 30.8619 52.9572 29.881 51.1763 28.1L49.9953 26.9191L48.8191 28.1C47.0382 29.881 44.6715 30.8619 42.1525 30.8619C39.6334 30.8619 37.2715 29.881 35.4906 28.1L33.9953 26.6048L32.8906 28.4048C31.6334 30.4524 29.4477 31.6762 27.0334 31.6762H25.4525L25.3668 33.2524C24.7239 45.1714 27.4572 55.5143 33.5001 63.9952C38.5382 71.0714 44.8287 75.3238 49.2144 77.6476L49.9953 78.0619L50.7763 77.6476C55.162 75.3238 61.4525 71.0714 66.4906 64C72.5334 55.5191 75.2715 45.1762 74.6239 33.2571L74.6287 33.2524ZM50.0001 76.1095C45.7763 73.8714 39.743 69.781 34.9096 62.9952C30.5477 56.8714 27.9763 49.7191 27.2334 41.6572L58.1572 70.5571C55.2239 73.0667 52.3382 74.8714 50.0049 76.1095H50.0001ZM65.0906 62.9952C63.3191 65.481 61.3858 67.6048 59.443 69.4048L27.062 39.1381C26.9763 37.2714 26.9858 35.3571 27.0906 33.3952C30.062 33.3762 32.7572 31.8762 34.3239 29.3619C36.3049 31.3191 38.8906 32.4429 41.6572 32.5667L68.3858 57.5095C67.4334 59.419 66.3382 61.2476 65.0906 62.9952ZM69.1525 55.8714L44.0191 32.4191C46.2715 32.0429 48.3477 30.9857 50.0001 29.3476C52.1001 31.4286 54.8858 32.5762 57.843 32.5762C60.7953 32.5762 63.5763 31.4333 65.6763 29.3619C67.243 31.8762 69.943 33.381 72.9096 33.3952C73.3525 41.7333 72.0906 49.2571 69.1525 55.8714Z" fill="white"/>
<path d="M30.7046 11.3429L31.1094 12.0762L28.8951 13.3L29.2427 13.9333L31.2094 12.8476L31.6094 13.5762L29.6427 14.6619L30.1284 15.5381L29.2665 16.0143L27.6284 13.0476L30.7046 11.3476V11.3429Z" fill="white"/>
<path d="M36.3001 12.6238L35.762 12.1524L33.8286 12.9381L33.7715 13.6524L32.7905 14.0524L33.1334 10.2571L34.3905 9.74762L37.281 12.2286L36.3048 12.6238H36.3001ZM33.8953 12.1143L35.1334 11.6095L34.0143 10.6333L33.8953 12.1143Z" fill="white"/>
<path d="M41.3476 10.1762L40.7619 7.81906L41.7095 7.58572L42.5238 10.8762L41.1286 11.2238L38.6048 9.34763L39.1905 11.7048L38.2381 11.9429L37.4238 8.65239L38.8238 8.30477L41.3476 10.181V10.1762Z" fill="white"/>
<path d="M46.1187 6.96191L50.1996 6.79524L50.2329 7.62858L48.6853 7.69048L48.7901 10.2429L47.8091 10.281L47.7044 7.72858L46.152 7.79048L46.1187 6.95715V6.96191Z" fill="white"/>
<path d="M51.3903 8.49525C51.4855 7.3762 52.3141 6.78096 53.7379 6.90477C55.1569 7.02858 55.876 7.75715 55.7807 8.87144C55.6855 9.99049 54.8522 10.5952 53.4331 10.4714C52.0093 10.3476 51.295 9.61906 51.3903 8.49525ZM54.7569 8.78572C54.8093 8.20001 54.5045 7.80953 53.6664 7.73811C52.8331 7.66668 52.4665 7.99049 52.4188 8.58572C52.3665 9.18096 52.676 9.57144 53.5045 9.64287C54.3379 9.7143 54.7093 9.38096 54.7617 8.79049L54.7569 8.78572Z" fill="white"/>
<path d="M61.619 8.36191L59.6285 9.37619L60.8761 11.6714L59.6714 11.4L58.8047 9.8L57.8571 10.281L57.7047 10.9524L56.7476 10.7333L57.4952 7.42381L58.4571 7.6381L58.1237 9.12381L60.1904 8.03334L61.6285 8.35715L61.619 8.36191Z" fill="white"/>
<path d="M66.3286 9.99524L66.0667 10.7191L63.6858 9.85715L63.5 10.3667L65.7905 11.1952L65.5286 11.9191L63.2381 11.0905L63.0524 11.6L65.4334 12.4571L65.1715 13.181L61.8667 11.9857L63.0191 8.79524L66.3238 9.99048L66.3286 9.99524Z" fill="white"/>
<path d="M69.7616 14.3524L70.8759 12.1905L71.7473 12.6381L70.1902 15.6524L68.9092 14.9905L68.2473 11.9095L67.133 14.0714L66.2568 13.6191L67.814 10.6048L69.0997 11.2667L69.7616 14.3476V14.3524Z" fill="white"/>
<path d="M27.395 85.4762C27.2474 85.719 27.395 86.0238 28.1569 86.4857C28.8569 86.9048 29.095 86.9 29.2045 86.719C29.3331 86.5095 29.2236 86.3905 28.395 85.8143C27.2665 85.0238 26.8903 84.4762 27.276 83.8333C27.6426 83.2286 28.4617 83.3476 29.4665 83.9524C30.5855 84.6238 31.0236 85.3524 30.6617 86.0143L29.7807 85.4857C29.9331 85.2286 29.7141 84.9619 29.0617 84.5714C28.4426 84.2 28.2426 84.219 28.1474 84.3762C28.0379 84.5571 28.1474 84.6952 28.895 85.2333C29.9141 85.9571 30.5617 86.4476 30.1045 87.2095C29.6569 87.9524 28.8379 87.7571 27.8045 87.1333C26.6284 86.4238 26.0903 85.7381 26.5093 84.9476L27.3903 85.4809L27.395 85.4762Z" fill="white"/>
<path d="M31.5236 87.1905C31.9712 86.1571 32.9426 85.8619 34.2569 86.4286C35.5664 86.9952 36.014 87.9143 35.5712 88.9429C35.1236 89.9762 34.1426 90.281 32.8331 89.7143C31.5188 89.1476 31.0759 88.2286 31.5236 87.1905ZM34.6283 88.5381C34.8616 87.9952 34.695 87.5333 33.9236 87.1952C33.1569 86.8619 32.7045 87.0571 32.4712 87.6C32.2331 88.1476 32.4045 88.6143 33.1664 88.9476C33.9331 89.281 34.395 89.081 34.6283 88.5333V88.5381Z" fill="white"/>
<path d="M39.295 88.2143C40.495 88.5524 41.0331 89.2571 40.895 90.1238L39.8902 89.8429C39.9093 89.5238 39.6759 89.1857 39.0712 89.0191C38.3712 88.8238 37.9378 89.0714 37.7759 89.6429C37.614 90.2191 37.8616 90.6619 38.5569 90.8571C39.1616 91.0238 39.5378 90.8571 39.6854 90.5667L40.6902 90.8476C40.3569 91.6667 39.5331 91.9952 38.3283 91.6619C37.0188 91.2952 36.4712 90.4857 36.7807 89.3667C37.095 88.2524 37.9807 87.8476 39.2902 88.2143H39.295Z" fill="white"/>
<path d="M43.3948 89.2286L42.7948 92.5619L41.8281 92.3857L42.4281 89.0524L43.3948 89.2286Z" fill="white"/>
<path d="M44.4189 91.1476C44.5094 90.0286 45.3332 89.4333 46.757 89.5476C48.176 89.6619 48.8999 90.3905 48.8046 91.5048C48.7141 92.6238 47.8856 93.2286 46.4618 93.1143C45.0379 93 44.3189 92.2714 44.4141 91.1476H44.4189ZM47.7856 91.4238C47.8332 90.8381 47.5284 90.4524 46.6903 90.381C45.857 90.3143 45.4951 90.6429 45.4427 91.2333C45.3951 91.8286 45.7046 92.2143 46.5332 92.2857C47.3665 92.3524 47.7379 92.019 47.7856 91.4238Z" fill="white"/>
<path d="M51.1188 92.0476C51.1331 92.3333 51.4235 92.5048 52.314 92.4571C53.1283 92.4143 53.3235 92.2762 53.3093 92.0619C53.295 91.8143 53.1426 91.781 52.1331 91.7667C50.7569 91.7429 50.1331 91.5 50.095 90.7476C50.0569 90.0429 50.8045 89.681 51.9759 89.6238C53.2807 89.5571 54.0521 89.9095 54.1188 90.6619L53.095 90.7143C53.0807 90.4143 52.7474 90.3191 51.9854 90.3571C51.2664 90.3952 51.1093 90.5238 51.1188 90.7048C51.1283 90.9143 51.295 90.9714 52.2188 91C53.4664 91.0286 54.2807 91.0714 54.3283 91.9619C54.3712 92.8286 53.5854 93.1238 52.3807 93.1857C51.0093 93.2571 50.1759 92.9857 50.0854 92.0952L51.114 92.0429L51.1188 92.0476Z" fill="white"/>
<path d="M55.7426 92.0381L56.6806 91.9L56.7854 92.6286L55.8473 92.7667L55.7378 92.0381H55.7426Z" fill="white"/>
<path d="M59.4808 88.5381C60.6951 88.2429 61.5094 88.5952 61.8141 89.419L60.7999 89.6667C60.6618 89.3762 60.2903 89.2 59.6808 89.3476C58.9761 89.5191 58.7189 89.9476 58.857 90.5286C58.9999 91.1095 59.4332 91.3762 60.1332 91.2048C60.7427 91.0571 60.9903 90.7238 60.9761 90.3952L61.9903 90.1476C62.0999 91.0238 61.5427 91.719 60.3284 92.0143C59.0046 92.3381 58.1284 91.9 57.8522 90.7714C57.576 89.6476 58.1522 88.8619 59.4761 88.5381H59.4808Z" fill="white"/>
<path d="M63.1522 89.3905C62.7379 88.3429 63.2189 87.4429 64.5474 86.919C65.8712 86.3952 66.8427 86.7286 67.2522 87.7714C67.6665 88.8191 67.1855 89.7286 65.8617 90.2524C64.5331 90.7762 63.5665 90.4429 63.1522 89.3905ZM66.2998 88.1476C66.0855 87.6 65.6379 87.3857 64.857 87.6952C64.0808 88 63.8951 88.4571 64.1141 89.0095C64.3331 89.5667 64.7855 89.7762 65.557 89.4714C66.3331 89.1667 66.5189 88.7 66.2998 88.1476Z" fill="white"/>
<path d="M69.3381 88.6905L67.6333 85.7571L68.9571 84.9857L71.1095 86.3381L70.9952 83.8L72.319 83.0286L74.0238 85.9619L73.1762 86.4524L71.9428 84.3286L72.0762 87.0952L71.2904 87.5524L68.9524 86.0714L70.1904 88.1952L69.3381 88.6905Z" fill="white"/>
<path d="M23.019 81.8381C13.9952 74.181 8.2666 62.7571 8.2666 50C8.2666 37.2429 14.2999 25.2143 23.738 17.5619" stroke="white" stroke-miterlimit="10"/>
<path d="M76.2666 17.5667C85.7047 25.219 91.7333 36.9048 91.7333 50C91.7333 63.0952 86.0047 74.1857 76.9809 81.8429" stroke="white" stroke-miterlimit="10"/>
</g>
<defs>
<clipPath id="clip0_1124_17866">
<rect width="100" height="100" fill="white"/>
</clipPath>
</defs>
</svg>
