<svg width="100" height="100" viewBox="0 0 100 100" fill="none" xmlns="http://www.w3.org/2000/svg">
<g clip-path="url(#clip0_1124_15531)">
<path d="M50 100C77.6142 100 100 77.6142 100 50C100 22.3858 77.6142 0 50 0C22.3858 0 0 22.3858 0 50C0 77.6142 22.3858 100 50 100Z" fill="#005596"/>
<path d="M50 98.7333C76.9147 98.7333 98.7333 76.9147 98.7333 50C98.7333 23.0853 76.9147 1.26666 50 1.26666C23.0853 1.26666 1.26666 23.0853 1.26666 50C1.26666 76.9147 23.0853 98.7333 50 98.7333Z" fill="#005596"/>
<path d="M50 2.53333C76.1714 2.53333 97.4667 23.8286 97.4667 50C97.4667 76.1714 76.1714 97.4667 50 97.4667C23.8286 97.4667 2.53333 76.1714 2.53333 50C2.53333 23.8286 23.8286 2.53333 50 2.53333ZM50 0C22.3857 0 0 22.3857 0 50C0 77.6143 22.3857 100 50 100C77.6143 100 100 77.6143 100 50C100 22.3857 77.6143 0 50 0Z" fill="#005596"/>
<path d="M50 100C77.6142 100 100 77.6142 100 50C100 22.3858 77.6142 0 50 0C22.3858 0 0 22.3858 0 50C0 77.6142 22.3858 100 50 100Z" fill="black"/>
<path d="M50 2.53333C76.1714 2.53333 97.4667 23.8286 97.4667 50C97.4667 76.1714 76.1714 97.4667 50 97.4667C23.8286 97.4667 2.53333 76.1714 2.53333 50C2.53333 23.8286 23.8286 2.53333 50 2.53333ZM50 0C22.3857 0 0 22.3857 0 50C0 77.6143 22.3857 100 50 100C77.6143 100 100 77.6143 100 50C100 22.3857 77.6143 0 50 0Z" fill="white"/>
<path d="M49.8143 76.8476C49.6667 76.8 46.1619 75.6048 42.081 72.8286C39.681 71.1952 37.5857 69.3571 35.8524 67.3571C33.6762 64.8476 32.0667 62.081 31.0714 59.1333C30.0476 56.1 29.4572 52.6476 29.3238 48.8667C29.2143 45.8524 29.3905 42.6286 29.8476 39.2762C30.6238 33.5762 31.9667 29.419 31.981 29.3762L32.0572 29.1429L32.2714 29.0286C32.3524 28.9857 34.3191 27.9667 37.4952 26.9381C39.3572 26.3333 41.2476 25.8524 43.1191 25.5048C45.2524 25.1095 47.3619 24.8905 49.3952 24.8524L50.6143 24.8476C52.6524 24.8905 54.7572 25.1095 56.8905 25.5048C58.7619 25.8524 60.6524 26.3333 62.5143 26.9381C65.6905 27.9667 67.6572 28.9857 67.7381 29.0286L67.9524 29.1429L68.0286 29.3762C68.0429 29.419 69.3857 33.5762 70.1619 39.2762C70.6191 42.6286 70.7952 45.8524 70.6857 48.8667C70.5476 52.6476 69.9619 56.1 68.9381 59.1333C67.9429 62.081 66.3333 64.8476 64.1571 67.3571C62.4238 69.3571 60.3286 71.2 57.9286 72.8286C53.8476 75.6048 50.3429 76.7952 50.1952 76.8476L50.0048 76.9095L49.8143 76.8476Z" fill="black"/>
<path d="M50.019 25.4524C59.5905 25.4619 67.4667 29.5667 67.4667 29.5667C67.4667 29.5667 72.7857 45.8952 68.3762 58.9524C64.119 71.5476 50.0048 76.2905 50.0048 76.2905C50.0048 76.2905 35.8905 71.5476 31.6333 58.9524C27.2238 45.8952 32.5429 29.5667 32.5429 29.5667C32.5429 29.5667 40.419 25.4619 49.9905 25.4524C49.9905 25.4524 50 25.4524 50.0048 25.4524C50.0095 25.4524 50.0143 25.4524 50.019 25.4524ZM50.019 24.2619H50.0048H49.9905H48.8V24.2857C46.9143 24.3524 44.9714 24.5667 43.0095 24.9286C41.1143 25.2809 39.1952 25.7667 37.3095 26.3809C34.0857 27.4286 32.0762 28.4667 31.9952 28.5095L31.5667 28.7333L31.4143 29.1952C31.4 29.2381 31.0619 30.2762 30.6286 32.0333C30.2286 33.6429 29.6667 36.1952 29.2571 39.2C28.7952 42.5857 28.619 45.8476 28.7286 48.8905C28.8667 52.7286 29.4667 56.2381 30.5095 59.3286C31.5286 62.3476 33.1762 65.1809 35.4048 67.7524C37.1714 69.7905 39.3095 71.6667 41.7524 73.3286C45.9 76.1476 49.481 77.3667 49.6333 77.419L50.0143 77.5476L50.3952 77.419C50.5476 77.3667 54.1286 76.1476 58.2762 73.3286C60.719 71.6667 62.8524 69.7905 64.6238 67.7524C66.8524 65.1857 68.4952 62.3524 69.519 59.3286C70.5619 56.2429 71.1619 52.7286 71.3 48.8905C71.4095 45.8429 71.2333 42.5809 70.7714 39.2C70.3619 36.1952 69.8 33.6429 69.4 32.0333C68.9667 30.2762 68.6286 29.2381 68.6143 29.1952L68.4619 28.7333L68.0333 28.5095C67.9476 28.4667 65.9381 27.4238 62.719 26.3809C60.8333 25.7667 58.9143 25.2809 57.019 24.9286C55.0571 24.5667 53.1143 24.3476 51.2286 24.2857V24.2667H50.0381L50.019 24.2619Z" fill="#DBA513"/>
<path d="M65.0524 31.6476C61.6381 30.0619 57.681 29.3095 54.6952 28.9476C51.9905 28.6238 50.0143 28.6238 50.0143 28.6238C50.0143 28.6238 48.0381 28.6238 45.3333 28.9476C42.3476 29.3048 38.3952 30.0619 34.9762 31.6476C34.9762 31.6476 31.5381 44.5095 33.3952 54.5381C33.7667 56.5524 34.3524 58.4476 35.2238 60.1048C36.5905 62.7095 38.2571 64.8333 39.9714 66.5429C44.7762 71.3381 50.0095 72.9095 50.0095 72.9095C50.0095 72.9095 55.2476 71.3381 60.0476 66.5429C61.7619 64.8333 63.4286 62.7095 64.7952 60.1048C65.6667 58.4476 66.2524 56.5476 66.6238 54.5381C68.481 44.5095 65.0429 31.6476 65.0429 31.6476H65.0524Z" fill="white"/>
<path d="M64.2524 40.3857C61.8381 33.5524 57.9 27.9809 57.9 27.9809L50.0143 26.1V26.0905H50H49.9857V26.1L42.1 27.9809C42.1 27.9809 38.1619 33.5524 35.7476 40.3857C33.3333 47.219 32.6667 52.6048 32.6667 52.6048V57.3571L35.0428 63.7429L43.5095 71.8381L50.0143 73.9905L56.4905 71.8381L64.9571 63.7429L67.3333 57.3571V52.6048C67.3333 52.6048 66.6667 47.219 64.2524 40.3857Z" fill="black"/>
<path d="M65.3667 54.1286C62.8238 57.7048 58.2 60.5476 58.1286 60.5905C61.1714 57.619 64.1047 52.7905 64.1047 52.7905C63.9571 48.819 62.3571 42.2429 58.6 34.4476C57.3381 31.8286 55.9524 30.0952 54.6667 28.9524C52.3048 26.8476 50.2857 26.7286 50.019 26.7238C50.019 26.7238 50.0143 26.7238 50.0048 26.7238C49.9952 26.7238 49.9905 26.7238 49.9905 26.7238C49.719 26.7286 47.7048 26.8476 45.3428 28.9524C44.0571 30.0952 42.6714 31.8286 41.4095 34.4476C37.6524 42.2476 36.0524 48.819 35.9048 52.7905C35.9048 52.7905 38.8381 57.619 41.8809 60.5905C41.8095 60.5476 37.1809 57.7048 34.6428 54.1286L33.4095 54.5381C33.7809 56.5524 34.3667 58.4476 35.2381 60.1048C36.6048 62.7095 38.2714 64.8333 39.9857 66.5429C41.5048 66.1048 44.2286 65.0333 44.2619 63C44.3 60.4381 39.9524 56.2762 39.0238 53.0857C39.0238 53.0857 43.1143 37.4571 49.9619 37.4524H49.9857H50.0095H50.0333H50.0571C56.9 37.4571 60.9952 53.0857 60.9952 53.0857C60.0667 56.281 55.7238 60.4381 55.7571 63C55.7857 65.0333 58.5095 66.1048 60.0333 66.5429C61.7476 64.8333 63.4143 62.7095 64.7809 60.1048C65.6524 58.4476 66.2381 56.5476 66.6095 54.5381L65.3762 54.1286H65.3667Z" fill="white"/>
<path d="M44.1048 47.4286C44.1048 47.4286 44.681 48.6809 44.9476 48.7809C45.4286 48.9619 48.4952 48.9619 48.4952 48.9619C48.4952 48.9619 46.4333 47.3429 45.5762 47.2286C44.7191 47.1143 44.1095 47.4286 44.1095 47.4286H44.1048Z" fill="white"/>
<path d="M55.9 47.4286C55.9 47.4286 55.3238 48.6809 55.0571 48.7809C54.5762 48.9619 51.5095 48.9619 51.5095 48.9619C51.5095 48.9619 53.5714 47.3429 54.4286 47.2286C55.2857 47.1143 55.8952 47.4286 55.8952 47.4286H55.9Z" fill="white"/>
<path d="M30.7095 11.3381L31.1143 12.0714L28.9 13.2952L29.2476 13.9286L31.2143 12.8429L31.6143 13.5714L29.6476 14.6572L30.1333 15.5333L29.2714 16.0095L27.6333 13.0429L30.7095 11.3429V11.3381Z" fill="white"/>
<path d="M36.3 12.6238L35.7619 12.1524L33.8286 12.9381L33.7714 13.6524L32.7905 14.0524L33.1333 10.2571L34.3905 9.74762L37.2809 12.2286L36.3048 12.6238H36.3ZM33.8952 12.1143L35.1333 11.6095L34.0143 10.6333L33.8952 12.1143Z" fill="white"/>
<path d="M41.3476 10.1762L40.7619 7.81906L41.7095 7.58572L42.5238 10.8762L41.1286 11.2238L38.6048 9.34763L39.1905 11.7048L38.2381 11.9429L37.4238 8.65239L38.8238 8.30477L41.3476 10.181V10.1762Z" fill="white"/>
<path d="M46.119 6.96191L50.2 6.79524L50.2333 7.62858L48.6857 7.69048L48.7905 10.2429L47.8095 10.281L47.7048 7.72858L46.1524 7.79048L46.119 6.95715V6.96191Z" fill="white"/>
<path d="M51.3905 8.49525C51.4857 7.3762 52.3143 6.78096 53.7381 6.90477C55.1571 7.02858 55.8762 7.75715 55.7809 8.87144C55.6857 9.99049 54.8524 10.5952 53.4333 10.4714C52.0095 10.3476 51.2952 9.61906 51.3905 8.49525ZM54.7571 8.78572C54.8095 8.20001 54.5048 7.80953 53.6667 7.73811C52.8333 7.66668 52.4667 7.99049 52.419 8.58572C52.3667 9.18096 52.6762 9.57144 53.5048 9.64287C54.3381 9.7143 54.7095 9.38096 54.7619 8.79049L54.7571 8.78572Z" fill="white"/>
<path d="M61.6238 8.36667L59.6333 9.38095L60.881 11.6762L59.6762 11.4048L58.8095 9.80476L57.8619 10.2857L57.7095 10.9571L56.7524 10.7381L57.5 7.42857L58.4619 7.64286L58.1286 9.12857L60.1952 8.0381L61.6333 8.36191L61.6238 8.36667Z" fill="white"/>
<path d="M66.3286 9.99524L66.0667 10.7191L63.6857 9.85715L63.5 10.3667L65.7905 11.1952L65.5286 11.9191L63.2381 11.0905L63.0524 11.6L65.4333 12.4619L65.1714 13.1857L61.8667 11.9905L63.019 8.8L66.3238 9.99524H66.3286Z" fill="white"/>
<path d="M69.7619 14.3524L70.8762 12.1905L71.7476 12.6381L70.1905 15.6524L68.9095 14.9905L68.2476 11.9095L67.1333 14.0714L66.2571 13.6191L67.8143 10.6048L69.1 11.2667L69.7619 14.3476V14.3524Z" fill="white"/>
<path d="M27.3952 85.4762C27.2476 85.719 27.3952 86.0238 28.1571 86.4857C28.8571 86.9048 29.0952 86.9 29.2048 86.719C29.3333 86.5095 29.2238 86.3905 28.3952 85.8143C27.2667 85.0238 26.8905 84.4762 27.2762 83.8333C27.6429 83.2286 28.4619 83.3476 29.4667 83.9524C30.5857 84.6238 31.0238 85.3524 30.6619 86.0143L29.7809 85.4857C29.9333 85.2286 29.7143 84.9619 29.0619 84.5714C28.4429 84.2 28.2429 84.219 28.1476 84.3762C28.0381 84.5571 28.1476 84.6952 28.8952 85.2333C29.9143 85.9571 30.5619 86.4476 30.1048 87.2095C29.6571 87.9524 28.8381 87.7571 27.8048 87.1333C26.6286 86.4238 26.0905 85.7381 26.5095 84.9476L27.3905 85.4809L27.3952 85.4762Z" fill="white"/>
<path d="M31.5238 87.1905C31.9714 86.1571 32.9428 85.8619 34.2571 86.4286C35.5667 86.9952 36.0143 87.9143 35.5714 88.9429C35.1238 89.9762 34.1428 90.281 32.8333 89.7143C31.519 89.1476 31.0762 88.2286 31.5238 87.1905ZM34.6286 88.5381C34.8619 87.9952 34.6952 87.5333 33.9238 87.1952C33.1571 86.8619 32.7047 87.0571 32.4714 87.6C32.2333 88.1476 32.4047 88.6143 33.1667 88.9476C33.9333 89.281 34.3952 89.081 34.6286 88.5333V88.5381Z" fill="white"/>
<path d="M39.3048 88.219C40.5048 88.5571 41.0429 89.2619 40.9048 90.1286L39.9 89.8476C39.9191 89.5286 39.6857 89.1905 39.081 89.0238C38.381 88.8286 37.9476 89.0762 37.7857 89.6476C37.6238 90.2238 37.8714 90.6667 38.5667 90.8619C39.1714 91.0286 39.5476 90.8619 39.6952 90.5714L40.7 90.8524C40.3667 91.6714 39.5429 92 38.3381 91.6667C37.0286 91.3 36.481 90.4905 36.7905 89.3714C37.1048 88.2571 37.9905 87.8524 39.3 88.219H39.3048Z" fill="white"/>
<path d="M43.3952 89.2286L42.7952 92.5619L41.8286 92.3857L42.4286 89.0524L43.3952 89.2286Z" fill="white"/>
<path d="M44.4191 91.1476C44.5095 90.0286 45.3333 89.4333 46.7572 89.5476C48.1762 89.6619 48.9 90.3905 48.8048 91.5048C48.7143 92.6238 47.8857 93.2286 46.4619 93.1143C45.0381 93 44.3191 92.2714 44.4143 91.1476H44.4191ZM47.7857 91.4238C47.8333 90.8381 47.5286 90.4524 46.6905 90.381C45.8572 90.3143 45.4952 90.6429 45.4429 91.2333C45.3952 91.8286 45.7048 92.2143 46.5333 92.2857C47.3667 92.3524 47.7381 92.019 47.7857 91.4238Z" fill="white"/>
<path d="M51.1191 92.0476C51.1333 92.3333 51.4238 92.5048 52.3143 92.4571C53.1286 92.4143 53.3238 92.2762 53.3095 92.0619C53.2952 91.8143 53.1429 91.781 52.1333 91.7667C50.7572 91.7429 50.1333 91.5 50.0952 90.7476C50.0572 90.0429 50.8048 89.681 51.9762 89.6238C53.281 89.5571 54.0524 89.9095 54.1191 90.6619L53.0952 90.7143C53.081 90.4143 52.7476 90.3191 51.9857 90.3571C51.2667 90.3952 51.1095 90.5238 51.1191 90.7048C51.1286 90.9143 51.2952 90.9714 52.2191 91C53.4667 91.0286 54.281 91.0714 54.3286 91.9619C54.3714 92.8286 53.5857 93.1238 52.381 93.1857C51.0095 93.2571 50.1762 92.9857 50.0857 92.0952L51.1143 92.0429L51.1191 92.0476Z" fill="white"/>
<path d="M55.7429 92.0429L56.681 91.9048L56.7857 92.6333L55.8476 92.7714L55.7381 92.0429H55.7429Z" fill="white"/>
<path d="M59.481 88.5381C60.6953 88.2429 61.5095 88.5952 61.8143 89.419L60.8 89.6667C60.6619 89.3762 60.2905 89.2 59.681 89.3476C58.9762 89.5191 58.7191 89.9476 58.8572 90.5286C59 91.1095 59.4333 91.3762 60.1333 91.2048C60.7429 91.0571 60.9905 90.7238 60.9762 90.3952L61.9905 90.1476C62.1 91.0238 61.5429 91.719 60.3286 92.0143C59.0048 92.3381 58.1286 91.9 57.8524 90.7714C57.5762 89.6476 58.1524 88.8619 59.4762 88.5381H59.481Z" fill="white"/>
<path d="M63.1524 89.3952C62.7381 88.3476 63.219 87.4476 64.5476 86.9238C65.8714 86.4 66.8429 86.7333 67.2524 87.7762C67.6667 88.8238 67.1857 89.7333 65.8619 90.2571C64.5333 90.7809 63.5667 90.4476 63.1524 89.3952ZM66.3 88.1524C66.0857 87.6048 65.6381 87.3905 64.8571 87.7C64.081 88.0048 63.8952 88.4619 64.1143 89.0143C64.3333 89.5714 64.7857 89.7809 65.5571 89.4762C66.3333 89.1714 66.519 88.7048 66.3 88.1524Z" fill="white"/>
<path d="M69.3381 88.6905L67.6333 85.7571L68.9571 84.9857L71.1095 86.3381L70.9952 83.8L72.319 83.0286L74.0238 85.9619L73.1762 86.4524L71.9429 84.3286L72.0762 87.0952L71.2905 87.5524L68.9524 86.0714L70.1905 88.1952L69.3381 88.6905Z" fill="white"/>
<path d="M23.019 81.8381C13.9952 74.181 8.26666 62.7571 8.26666 50C8.26666 37.2429 14.3 25.2143 23.7381 17.5619" stroke="white" stroke-miterlimit="10"/>
<path d="M76.2667 17.5667C85.7048 25.219 91.7333 36.9048 91.7333 50C91.7333 63.0952 86.0048 74.1857 76.9809 81.8429" stroke="white" stroke-miterlimit="10"/>
</g>
<defs>
<clipPath id="clip0_1124_15531">
<rect width="100" height="100" fill="white"/>
</clipPath>
</defs>
</svg>
