<svg width="100" height="100" viewBox="0 0 100 100" fill="none" xmlns="http://www.w3.org/2000/svg">
<g clip-path="url(#clip0_1124_13975)">
<path d="M50 100C77.6142 100 100 77.6142 100 50C100 22.3858 77.6142 0 50 0C22.3858 0 0 22.3858 0 50C0 77.6142 22.3858 100 50 100Z" fill="#005596"/>
<path d="M98.1071 57.8132C102.419 31.2463 84.3786 6.2136 57.8117 1.90118C31.2447 -2.41125 6.21207 15.6296 1.89964 42.1966C-2.41278 68.7635 15.6281 93.7962 42.195 98.1086C68.762 102.421 93.7946 84.3802 98.1071 57.8132Z" fill="#005596"/>
<path d="M50 2.53333C76.1714 2.53333 97.4667 23.8286 97.4667 50C97.4667 76.1714 76.1714 97.4667 50 97.4667C23.8286 97.4667 2.53333 76.1714 2.53333 50C2.53333 23.8286 23.8286 2.53333 50 2.53333ZM50 0C22.3857 0 0 22.3857 0 50C0 77.6143 22.3857 100 50 100C77.6143 100 100 77.6143 100 50C100 22.3857 77.6143 0 50 0Z" fill="#005596"/>
<path d="M50 100C77.6142 100 100 77.6142 100 50C100 22.3858 77.6142 0 50 0C22.3858 0 0 22.3858 0 50C0 77.6142 22.3858 100 50 100Z" fill="white"/>
<path d="M50 2.53333C76.1714 2.53333 97.4667 23.8286 97.4667 50C97.4667 76.1714 76.1714 97.4667 50 97.4667C23.8286 97.4667 2.53333 76.1714 2.53333 50C2.53333 23.8286 23.8286 2.53333 50 2.53333ZM50 0C22.3857 0 0 22.3857 0 50C0 77.6143 22.3857 100 50 100C77.6143 100 100 77.6143 100 50C100 22.3857 77.6143 0 50 0Z" fill="#29347B"/>
<path d="M22.8809 55.0238C22.8809 54.9809 22.9094 54.9524 22.9523 54.9524H24.019C24.438 54.9524 24.6618 55.1762 24.6618 55.5952V56.6809C24.6618 57.0952 24.438 57.3238 24.019 57.3238H23.4856V58.4476C23.4856 58.4905 23.4618 58.519 23.4142 58.519H22.9523C22.9094 58.519 22.8809 58.4905 22.8809 58.4476V55.0286V55.0238ZM23.8761 56.7333C23.9951 56.7333 24.0523 56.6667 24.0523 56.5571V55.719C24.0523 55.6048 23.9951 55.5429 23.8761 55.5429H23.4856V56.7381H23.8761V56.7333Z" fill="#4D4D4D"/>
<path d="M26.7856 56.6809C26.7856 56.9809 26.6761 57.1762 26.4618 57.2667L26.7713 58.4333C26.7856 58.4857 26.757 58.5143 26.7094 58.5143H26.2475C26.2046 58.5143 26.1808 58.4905 26.1713 58.4524L25.8713 57.319H25.5618V58.4429C25.5618 58.4857 25.5332 58.5143 25.4904 58.5143H25.0285C24.9856 58.5143 24.957 58.4857 24.957 58.4429V55.0238C24.957 54.9809 24.9856 54.9524 25.0285 54.9524H26.1475C26.5666 54.9524 26.7904 55.1762 26.7904 55.5952V56.6809H26.7856ZM25.9999 56.7333C26.1142 56.7333 26.1761 56.6714 26.1761 56.5571V55.719C26.1761 55.6048 26.1142 55.5429 25.9999 55.5429H25.557V56.7381H25.9999V56.7333Z" fill="#4D4D4D"/>
<path d="M27.0808 55.5952C27.0808 55.1762 27.3046 54.9524 27.7237 54.9524H28.2237C28.6427 54.9524 28.8665 55.1762 28.8665 55.5952V57.8762C28.8665 58.2952 28.6427 58.519 28.2237 58.519H27.7237C27.3046 58.519 27.0808 58.2952 27.0808 57.8762V55.5952ZM28.1094 57.9429C28.2237 57.9429 28.2856 57.8857 28.2856 57.7667V55.7095C28.2856 55.5952 28.2237 55.5333 28.1094 55.5333H27.8522C27.738 55.5333 27.676 55.5952 27.676 55.7095V57.7667C27.676 57.8857 27.738 57.9429 27.8522 57.9429H28.1094Z" fill="#4D4D4D"/>
<path d="M30.9714 55.4714C30.9714 55.5143 30.9428 55.5429 30.9 55.5429H29.7952V56.4381H30.6333C30.6761 56.4381 30.7047 56.4667 30.7047 56.5095V56.9571C30.7047 57.0048 30.6761 57.0286 30.6333 57.0286H29.7952V58.4476C29.7952 58.4905 29.7666 58.519 29.7238 58.519H29.2619C29.2142 58.519 29.1904 58.4905 29.1904 58.4476V55.0286C29.1904 54.9857 29.2142 54.9571 29.2619 54.9571H30.9C30.9428 54.9571 30.9714 54.9857 30.9714 55.0286V55.4762V55.4714Z" fill="#4D4D4D"/>
<path d="M33.0237 55.4714C33.0237 55.5143 33.0047 55.5476 32.9523 55.5476H31.838V56.4381H32.6904C32.7333 56.4381 32.7618 56.4667 32.7618 56.5143V56.9571C32.7618 57.0048 32.7333 57.0333 32.6904 57.0333H31.838V57.9333H32.9523C33.0047 57.9333 33.0237 57.9571 33.0237 58.0048V58.4524C33.0237 58.4952 33.0047 58.5238 32.9523 58.5238H31.3142C31.2761 58.5238 31.2476 58.4952 31.2476 58.4524V55.0333C31.2476 54.9905 31.2761 54.9619 31.3142 54.9619H32.9523C33.0047 54.9619 33.0237 54.9905 33.0237 55.0333V55.4809V55.4714Z" fill="#4D4D4D"/>
<path d="M34.4095 54.9524C34.8285 54.9524 35.0523 55.1762 35.0523 55.5952V56.0667C35.0523 56.1095 35.0285 56.1381 34.9809 56.1381H34.519C34.4761 56.1381 34.4476 56.1095 34.4476 56.0667V55.719C34.4476 55.6048 34.3904 55.5429 34.2714 55.5429H34.0571C33.9476 55.5429 33.8809 55.6048 33.8809 55.719V56.3333L34.9428 56.6809C35.019 56.7143 35.0571 56.7619 35.0571 56.8476V57.8762C35.0571 58.2952 34.8333 58.519 34.4142 58.519H33.9142C33.4999 58.519 33.2714 58.2952 33.2714 57.8762V57.4095C33.2714 57.3619 33.2999 57.3381 33.3428 57.3381H33.8047C33.8523 57.3381 33.8761 57.3619 33.8761 57.4095V57.7524C33.8761 57.8714 33.9428 57.9286 34.0523 57.9286H34.2666C34.3809 57.9286 34.4428 57.8714 34.4428 57.7524V57.1619L33.3856 56.8143C33.3047 56.7857 33.2666 56.7333 33.2666 56.6476V55.5952C33.2666 55.1762 33.4952 54.9524 33.9095 54.9524H34.4095Z" fill="#4D4D4D"/>
<path d="M36.4903 54.9524C36.9093 54.9524 37.1331 55.1762 37.1331 55.5952V56.0667C37.1331 56.1095 37.1093 56.1381 37.0617 56.1381H36.5998C36.5569 56.1381 36.5284 56.1095 36.5284 56.0667V55.719C36.5284 55.6048 36.4712 55.5429 36.3522 55.5429H36.1379C36.0284 55.5429 35.9617 55.6048 35.9617 55.719V56.3333L37.0236 56.6809C37.0998 56.7143 37.1379 56.7619 37.1379 56.8476V57.8762C37.1379 58.2952 36.9141 58.519 36.495 58.519H35.995C35.5807 58.519 35.3522 58.2952 35.3522 57.8762V57.4095C35.3522 57.3619 35.3807 57.3381 35.4236 57.3381H35.8855C35.9331 57.3381 35.9569 57.3619 35.9569 57.4095V57.7524C35.9569 57.8714 36.0236 57.9286 36.1331 57.9286H36.3474C36.4617 57.9286 36.5236 57.8714 36.5236 57.7524V57.1619L35.4665 56.8143C35.3855 56.7857 35.3474 56.7333 35.3474 56.6476V55.5952C35.3474 55.1762 35.576 54.9524 35.9903 54.9524H36.4903Z" fill="#4D4D4D"/>
<path d="M38.0143 54.9524C38.0571 54.9524 38.0857 54.9809 38.0857 55.0238V58.4429C38.0857 58.4857 38.0571 58.5143 38.0143 58.5143H37.5524C37.5048 58.5143 37.481 58.4857 37.481 58.4429V55.0238C37.481 54.9809 37.5048 54.9524 37.5524 54.9524H38.0143Z" fill="#4D4D4D"/>
<path d="M38.438 55.5952C38.438 55.1762 38.6618 54.9524 39.0808 54.9524H39.5808C39.9999 54.9524 40.2237 55.1762 40.2237 55.5952V57.8762C40.2237 58.2952 39.9999 58.519 39.5808 58.519H39.0808C38.6618 58.519 38.438 58.2952 38.438 57.8762V55.5952ZM39.4666 57.9429C39.5808 57.9429 39.6427 57.8857 39.6427 57.7667V55.7095C39.6427 55.5952 39.5808 55.5333 39.4666 55.5333H39.2094C39.0951 55.5333 39.0332 55.5952 39.0332 55.7095V57.7667C39.0332 57.8857 39.0951 57.9429 39.2094 57.9429H39.4666Z" fill="#4D4D4D"/>
<path d="M42.3524 54.9524C42.3952 54.9524 42.4238 54.9809 42.4238 55.0238V58.4429C42.4238 58.4857 42.3952 58.5143 42.3524 58.5143H41.9095C41.8714 58.5143 41.8429 58.4952 41.8286 58.4571L41.1476 56.5571H41.1238V58.4476C41.1238 58.4905 41.1 58.519 41.0524 58.519H40.5905C40.5476 58.519 40.519 58.4905 40.519 58.4476V55.0286C40.519 54.9857 40.5476 54.9571 40.5905 54.9571H41.0333C41.0714 54.9571 41.1 54.9762 41.1143 55.0143L41.7905 56.9095H41.819V55.0286C41.819 54.9857 41.8429 54.9571 41.8905 54.9571H42.3524V54.9524Z" fill="#4D4D4D"/>
<path d="M44.3238 58.519C44.2857 58.519 44.2618 58.4952 44.2523 58.4571L44.1285 57.8048H43.338L43.219 58.4571C43.2095 58.4952 43.1857 58.519 43.1476 58.519H42.6714C42.6237 58.519 42.5999 58.4905 42.6142 58.4429L43.3523 55.019C43.3618 54.9762 43.3857 54.9571 43.4285 54.9571H44.0476C44.0857 54.9571 44.1142 54.9762 44.1238 55.019L44.8618 58.4429C44.8714 58.4905 44.8523 58.519 44.7999 58.519H44.3285H44.3238ZM43.7333 55.7333L43.4476 57.2857H44.019L43.7333 55.7333Z" fill="#4D4D4D"/>
<path d="M45.6524 57.9286H46.7143C46.7619 57.9286 46.7857 57.9571 46.7857 58V58.4476C46.7857 58.4952 46.7619 58.519 46.7143 58.519H45.119C45.0762 58.519 45.0476 58.4952 45.0476 58.4476V55.0286C45.0476 54.9857 45.0762 54.9571 45.119 54.9571H45.5809C45.6286 54.9571 45.6524 54.9857 45.6524 55.0286V57.9333V57.9286Z" fill="#4D4D4D"/>
<path d="M49.8903 55.4714C49.8903 55.5143 49.8618 55.5429 49.8189 55.5429H48.7141V56.4381H49.5522C49.5951 56.4381 49.6237 56.4667 49.6237 56.5095V56.9571C49.6237 57.0048 49.5951 57.0286 49.5522 57.0286H48.7141V58.4476C48.7141 58.4905 48.6856 58.519 48.6427 58.519H48.1808C48.1332 58.519 48.1094 58.4905 48.1094 58.4476V55.0286C48.1094 54.9857 48.1332 54.9571 48.1808 54.9571H49.8189C49.8618 54.9571 49.8903 54.9857 49.8903 55.0286V55.4762V55.4714Z" fill="#4D4D4D"/>
<path d="M50.7238 54.9524C50.7666 54.9524 50.7952 54.9809 50.7952 55.0238V58.4429C50.7952 58.4857 50.7666 58.5143 50.7238 58.5143H50.2619C50.2142 58.5143 50.1904 58.4857 50.1904 58.4429V55.0238C50.1904 54.9809 50.2142 54.9524 50.2619 54.9524H50.7238Z" fill="#4D4D4D"/>
<path d="M51.0951 55.5952C51.0951 55.1762 51.3189 54.9524 51.738 54.9524H52.3237C52.7379 54.9524 52.9665 55.1762 52.9665 55.5952V56.0571C52.9665 56.1 52.938 56.1286 52.8951 56.1286H52.4475C52.3999 56.1286 52.376 56.1 52.376 56.0571V55.719C52.376 55.6048 52.3141 55.5429 52.1999 55.5429H51.8808C51.7618 55.5429 51.7046 55.6048 51.7046 55.719V57.7476C51.7046 57.8667 51.7665 57.9238 51.8808 57.9238H52.1999C52.3141 57.9238 52.376 57.8667 52.376 57.7476V57.1524H52.1427C52.0951 57.1524 52.0713 57.1238 52.0713 57.0809V56.6333C52.0713 56.5857 52.0951 56.5619 52.1427 56.5619H52.8903C52.9332 56.5619 52.9618 56.5857 52.9618 56.6333V57.8714C52.9618 58.2905 52.7332 58.5143 52.3189 58.5143H51.7332C51.3141 58.5143 51.0903 58.2905 51.0903 57.8714V55.5905L51.0951 55.5952Z" fill="#4D4D4D"/>
<path d="M54.4474 55.0238C54.4474 54.9809 54.476 54.9524 54.5189 54.9524H54.976C55.0284 54.9524 55.0522 54.9809 55.0522 55.0238V58.4429C55.0522 58.4857 55.0284 58.5143 54.976 58.5143H54.5189C54.476 58.5143 54.4474 58.4857 54.4474 58.4429V57.0286H53.876V58.4429C53.876 58.4857 53.8474 58.5143 53.8046 58.5143H53.3474C53.295 58.5143 53.2712 58.4857 53.2712 58.4429V55.0238C53.2712 54.9809 53.295 54.9524 53.3474 54.9524H53.8046C53.8474 54.9524 53.876 54.9809 53.876 55.0238V56.4381H54.4474V55.0238Z" fill="#4D4D4D"/>
<path d="M57.0285 54.9524C57.0761 54.9524 57.0999 54.9809 57.0999 55.0238V55.4714C57.0999 55.5143 57.0761 55.5429 57.0285 55.5429H56.5142V58.4476C56.5142 58.4952 56.4904 58.519 56.4428 58.519H55.9809C55.938 58.519 55.9094 58.4952 55.9094 58.4476V55.5429H55.3952C55.3523 55.5429 55.3237 55.5143 55.3237 55.4714V55.0238C55.3237 54.9809 55.3523 54.9524 55.3952 54.9524H57.0333H57.0285Z" fill="#4D4D4D"/>
<path d="M59.1475 55.4714C59.1475 55.5143 59.1285 55.5476 59.0761 55.5476H57.9618V56.4381H58.8142C58.8571 56.4381 58.8856 56.4667 58.8856 56.5143V56.9571C58.8856 57.0048 58.8571 57.0333 58.8142 57.0333H57.9618V57.9333H59.0761C59.1285 57.9333 59.1475 57.9571 59.1475 58.0048V58.4524C59.1475 58.4952 59.1285 58.5238 59.0761 58.5238H57.438C57.3999 58.5238 57.3713 58.4952 57.3713 58.4524V55.0333C57.3713 54.9905 57.3999 54.9619 57.438 54.9619H59.0761C59.1285 54.9619 59.1475 54.9905 59.1475 55.0333V55.4809V55.4714Z" fill="#4D4D4D"/>
<path d="M61.2475 56.6809C61.2475 56.9809 61.138 57.1762 60.9237 57.2667L61.2332 58.4333C61.2475 58.4857 61.2189 58.5143 61.1713 58.5143H60.7094C60.6666 58.5143 60.6428 58.4905 60.6332 58.4524L60.3332 57.319H60.0237V58.4429C60.0237 58.4857 59.9951 58.5143 59.9523 58.5143H59.4904C59.4475 58.5143 59.4189 58.4857 59.4189 58.4429V55.0238C59.4189 54.9809 59.4475 54.9524 59.4904 54.9524H60.6094C61.0285 54.9524 61.2523 55.1762 61.2523 55.5952V56.6809H61.2475ZM60.4618 56.7333C60.5761 56.7333 60.638 56.6714 60.638 56.5571V55.719C60.638 55.6048 60.5761 55.5429 60.4618 55.5429H60.0189V56.7381H60.4618V56.7333Z" fill="#4D4D4D"/>
<path d="M62.657 54.9524C63.0761 54.9524 63.2999 55.1762 63.2999 55.5952V56.0667C63.2999 56.1095 63.2761 56.1381 63.2284 56.1381H62.7665C62.7237 56.1381 62.6951 56.1095 62.6951 56.0667V55.719C62.6951 55.6048 62.638 55.5429 62.5189 55.5429H62.3046C62.1951 55.5429 62.1284 55.6048 62.1284 55.719V56.3333L63.1904 56.6809C63.2665 56.7143 63.3046 56.7619 63.3046 56.8476V57.8762C63.3046 58.2952 63.0808 58.519 62.6618 58.519H62.1618C61.7475 58.519 61.5189 58.2952 61.5189 57.8762V57.4095C61.5189 57.3619 61.5475 57.3381 61.5904 57.3381H62.0523C62.0999 57.3381 62.1237 57.3619 62.1237 57.4095V57.7524C62.1237 57.8714 62.1904 57.9286 62.2999 57.9286H62.5142C62.6284 57.9286 62.6904 57.8714 62.6904 57.7524V57.1619L61.6332 56.8143C61.5523 56.7857 61.5142 56.7333 61.5142 56.6476V55.5952C61.5142 55.1762 61.7427 54.9524 62.157 54.9524H62.657Z" fill="#4D4D4D"/>
<path d="M65.438 57.9286H66.4999C66.5475 57.9286 66.5714 57.9571 66.5714 58V58.4476C66.5714 58.4952 66.5475 58.519 66.4999 58.519H64.9047C64.8618 58.519 64.8333 58.4952 64.8333 58.4476V55.0286C64.8333 54.9857 64.8618 54.9571 64.9047 54.9571H65.3666C65.4142 54.9571 65.438 54.9857 65.438 55.0286V57.9333V57.9286Z" fill="#4D4D4D"/>
<path d="M68.5379 55.4714C68.5379 55.5143 68.5189 55.5476 68.4665 55.5476H67.3522V56.4381H68.2046C68.2474 56.4381 68.276 56.4667 68.276 56.5143V56.9571C68.276 57.0048 68.2474 57.0333 68.2046 57.0333H67.3522V57.9333H68.4665C68.5189 57.9333 68.5379 57.9571 68.5379 58.0048V58.4524C68.5379 58.4952 68.5189 58.5238 68.4665 58.5238H66.8284C66.7903 58.5238 66.7617 58.4952 66.7617 58.4524V55.0333C66.7617 54.9905 66.7903 54.9619 66.8284 54.9619H68.4665C68.5189 54.9619 68.5379 54.9905 68.5379 55.0333V55.4809V55.4714Z" fill="#4D4D4D"/>
<path d="M70.4522 58.519C70.4141 58.519 70.3903 58.4952 70.3807 58.4571L70.2569 57.8048H69.4665L69.3474 58.4571C69.3379 58.4952 69.3141 58.519 69.276 58.519H68.7998C68.7522 58.519 68.7284 58.4905 68.7426 58.4429L69.4807 55.019C69.4903 54.9762 69.5141 54.9571 69.5569 54.9571H70.176C70.2141 54.9571 70.2426 54.9762 70.2522 55.019L70.9903 58.4429C70.9998 58.4905 70.9807 58.519 70.9284 58.519H70.4569H70.4522ZM69.8617 55.7333L69.576 57.2857H70.1474L69.8617 55.7333Z" fill="#4D4D4D"/>
<path d="M71.0856 55.5952C71.0856 55.1762 71.3094 54.9524 71.7284 54.9524H72.3141C72.7284 54.9524 72.957 55.1762 72.957 55.5952V56.0571C72.957 56.1 72.9284 56.1286 72.8856 56.1286H72.4379C72.3903 56.1286 72.3665 56.1 72.3665 56.0571V55.719C72.3665 55.6048 72.3046 55.5429 72.1903 55.5429H71.8713C71.7522 55.5429 71.6951 55.6048 71.6951 55.719V57.7476C71.6951 57.8667 71.757 57.9238 71.8713 57.9238H72.1903C72.3046 57.9238 72.3665 57.8667 72.3665 57.7476V57.1524H72.1332C72.0856 57.1524 72.0618 57.1238 72.0618 57.0809V56.6333C72.0618 56.5857 72.0856 56.5619 72.1332 56.5619H72.8808C72.9237 56.5619 72.9522 56.5857 72.9522 56.6333V57.8714C72.9522 58.2905 72.7237 58.5143 72.3094 58.5143H71.7237C71.3046 58.5143 71.0808 58.2905 71.0808 57.8714V55.5905L71.0856 55.5952Z" fill="#4D4D4D"/>
<path d="M74.9474 54.9524C74.9951 54.9524 75.0379 54.9905 75.0379 55.0429V57.8762C75.0379 58.2952 74.8141 58.519 74.3951 58.519H73.8951C73.476 58.519 73.2522 58.2952 73.2522 57.8762V55.0429C73.2522 54.9952 73.2903 54.9524 73.3427 54.9524H73.7712C73.8189 54.9524 73.8617 54.9905 73.8617 55.0429V57.7524C73.8617 57.8714 73.9236 57.9286 74.0379 57.9286H74.2712C74.3855 57.9286 74.4474 57.8714 74.4474 57.7524V55.0429C74.4474 54.9952 74.4855 54.9524 74.5379 54.9524H74.9474Z" fill="#4D4D4D"/>
<path d="M77.119 55.4714C77.119 55.5143 77.0999 55.5476 77.0475 55.5476H75.9333V56.4381H76.7856C76.8285 56.4381 76.8571 56.4667 76.8571 56.5143V56.9571C76.8571 57.0048 76.8285 57.0333 76.7856 57.0333H75.9333V57.9333H77.0475C77.0999 57.9333 77.119 57.9571 77.119 58.0048V58.4524C77.119 58.4952 77.0999 58.5238 77.0475 58.5238H75.4094C75.3713 58.5238 75.3428 58.4952 75.3428 58.4524V55.0333C75.3428 54.9905 75.3713 54.9619 75.4094 54.9619H77.0475C77.0999 54.9619 77.119 54.9905 77.119 55.0333V55.4809V55.4714Z" fill="#4D4D4D"/>
<path d="M27.3 47.619L30.6905 50.9857H36.0381C38.2762 50.9857 40.0905 49.1714 40.0905 46.9333C40.0905 44.6952 38.2762 42.881 36.0381 42.881H22.8762V53.6667H27.2953V46.2476H35.3381C35.7143 46.2476 36.0238 46.5524 36.0238 46.9333C36.0238 47.3143 35.7191 47.619 35.3381 47.619H27.2953" fill="#EC2024"/>
<path d="M45.9667 46.2476H58.7571V42.881H41.5476V53.6714H45.9667V46.2476Z" fill="#EC2024"/>
<path d="M45.9666 47.619L49.357 50.9857H58.757V47.619H45.9666Z" fill="#EC2024"/>
<path d="M60.4954 50.3L63.8858 53.6667H77.1192V50.3H64.9144V42.8857H60.4954V50.3Z" fill="#EC2024"/>
<path d="M72.9619 30.9381L50.1524 23.9619L27.3381 30.9381V40.6095H29.6048V32.6143L50.1524 26.3286L70.7 32.6143V48.0238H72.9619V30.9381Z" fill="#29347B"/>
<path d="M66.8 60.8C63.4905 66.2 58.0143 70.9571 50.1524 75.2667C42.2905 70.9571 36.8143 66.2 33.5048 60.8H30.8857C33.9096 66.2857 39.4619 72.0905 49.6143 77.5524L50.1524 77.8429L50.6905 77.5524C60.8429 72.0857 66.3953 66.2857 69.4191 60.8H66.8Z" fill="#29347B"/>
<path d="M44.2192 41.1524L41.4573 35.5048L45.462 37.1333C45.443 37.2381 45.4335 37.3476 45.4335 37.4571C45.4335 38.4524 46.2382 39.2619 47.2382 39.2619C48.2382 39.2619 49.043 38.4571 49.043 37.4571C49.043 36.4571 48.3858 35.8143 47.5239 35.6809L50.1525 33.0524L52.7811 35.6809C51.9192 35.819 51.262 36.5619 51.262 37.4571C51.262 38.4524 52.0668 39.2619 53.0668 39.2619C54.062 39.2619 54.8716 38.4571 54.8716 37.4571C54.8716 37.3476 54.862 37.2381 54.843 37.1333L58.8478 35.5048L56.0858 41.1524H44.2239H44.2192Z" fill="#29347B"/>
<path d="M30.7095 11.3381L31.1143 12.0714L28.9 13.2952L29.2476 13.9286L31.2143 12.8429L31.6143 13.5714L29.6476 14.6571L30.1333 15.5333L29.2714 16.0095L27.6333 13.0429L30.7095 11.3429V11.3381Z" fill="#29347B"/>
<path d="M36.3001 12.6238L35.762 12.1524L33.8286 12.9381L33.7715 13.6524L32.7905 14.0524L33.1334 10.2571L34.3905 9.7476L37.281 12.2286L36.3048 12.6238H36.3001ZM33.8953 12.1143L35.1334 11.6095L34.0143 10.6333L33.8953 12.1143Z" fill="#29347B"/>
<path d="M41.3476 10.1762L40.7619 7.81904L41.7095 7.58571L42.5238 10.8762L41.1286 11.2238L38.6048 9.34761L39.1905 11.7048L38.2381 11.9429L37.4238 8.65238L38.8238 8.30476L41.3476 10.1809V10.1762Z" fill="#29347B"/>
<path d="M46.1189 6.96189L50.1998 6.79523L50.2332 7.62856L48.6856 7.69046L48.7903 10.2428L47.8094 10.2809L47.7046 7.72856L46.1522 7.79047L46.1189 6.95713V6.96189Z" fill="#29347B"/>
<path d="M51.3905 8.49523C51.4857 7.37619 52.3143 6.78095 53.7381 6.90476C55.1572 7.02857 55.8762 7.75714 55.781 8.87142C55.6857 9.99047 54.8524 10.5952 53.4334 10.4714C52.0096 10.3476 51.2953 9.61904 51.3905 8.49523ZM54.7572 8.78571C54.8096 8.2 54.5048 7.80952 53.6667 7.73809C52.8334 7.66666 52.4667 7.99047 52.4191 8.58571C52.3667 9.18095 52.6762 9.57142 53.5048 9.64285C54.3381 9.71428 54.7096 9.38095 54.7619 8.79047L54.7572 8.78571Z" fill="#29347B"/>
<path d="M61.6239 8.36665L59.6334 9.38094L60.881 11.6762L59.6763 11.4047L58.8096 9.80475L57.862 10.2857L57.7096 10.9571L56.7524 10.7381L57.5001 7.42856L58.462 7.64284L58.1286 9.12856L60.1953 8.03808L61.6334 8.36189L61.6239 8.36665Z" fill="#29347B"/>
<path d="M66.3286 9.99523L66.0667 10.719L63.6858 9.85713L63.5 10.3667L65.7905 11.1952L65.5286 11.919L63.2381 11.0905L63.0524 11.6L65.4334 12.4619L65.1715 13.1857L61.8667 11.9905L63.0191 8.79999L66.3238 9.99523H66.3286Z" fill="#29347B"/>
<path d="M69.7618 14.3524L70.8761 12.1905L71.7476 12.6381L70.1904 15.6524L68.9095 14.9905L68.2476 11.9095L67.1333 14.0714L66.2571 13.619L67.8142 10.6048L69.0999 11.2667L69.7618 14.3476V14.3524Z" fill="#29347B"/>
<path d="M27.3953 85.4762C27.2476 85.719 27.3953 86.0238 28.1572 86.4857C28.8572 86.9047 29.0953 86.9 29.2048 86.719C29.3334 86.5095 29.2238 86.3905 28.3953 85.8143C27.2667 85.0238 26.8905 84.4762 27.2762 83.8333C27.6429 83.2286 28.4619 83.3476 29.4667 83.9524C30.5857 84.6238 31.0238 85.3524 30.6619 86.0143L29.781 85.4857C29.9334 85.2286 29.7143 84.9619 29.0619 84.5714C28.4429 84.2 28.2429 84.219 28.1476 84.3762C28.0381 84.5571 28.1476 84.6952 28.8953 85.2333C29.9143 85.9571 30.5619 86.4476 30.1048 87.2095C29.6572 87.9524 28.8381 87.7571 27.8048 87.1333C26.6286 86.4238 26.0905 85.7381 26.5096 84.9476L27.3905 85.4809L27.3953 85.4762Z" fill="#29347B"/>
<path d="M31.5238 87.1905C31.9714 86.1571 32.9428 85.8619 34.2571 86.4286C35.5667 86.9952 36.0143 87.9143 35.5714 88.9428C35.1238 89.9762 34.1428 90.2809 32.8333 89.7143C31.519 89.1476 31.0762 88.2286 31.5238 87.1905ZM34.6286 88.5381C34.8619 87.9952 34.6952 87.5333 33.9238 87.1952C33.1571 86.8619 32.7047 87.0571 32.4714 87.6C32.2333 88.1476 32.4047 88.6143 33.1667 88.9476C33.9333 89.2809 34.3952 89.0809 34.6286 88.5333V88.5381Z" fill="#29347B"/>
<path d="M39.3047 88.219C40.5047 88.5571 41.0428 89.2619 40.9047 90.1286L39.9 89.8476C39.919 89.5286 39.6857 89.1905 39.0809 89.0238C38.3809 88.8286 37.9476 89.0762 37.7857 89.6476C37.6238 90.2238 37.8714 90.6667 38.5666 90.8619C39.1714 91.0286 39.5476 90.8619 39.6952 90.5714L40.7 90.8524C40.3666 91.6714 39.5428 92 38.3381 91.6667C37.0285 91.3 36.4809 90.4905 36.7905 89.3714C37.1047 88.2571 37.9905 87.8524 39.3 88.219H39.3047Z" fill="#29347B"/>
<path d="M43.3953 89.2286L42.7953 92.5619L41.8286 92.3857L42.4286 89.0524L43.3953 89.2286Z" fill="#29347B"/>
<path d="M44.4191 91.1476C44.5096 90.0286 45.3334 89.4333 46.7572 89.5476C48.1763 89.6619 48.9001 90.3905 48.8096 91.5047C48.7191 92.6238 47.8906 93.2286 46.4715 93.1143C45.0477 93 44.3287 92.2714 44.4239 91.1476H44.4191ZM47.7858 91.4238C47.8334 90.8381 47.5287 90.4524 46.6906 90.3809C45.8572 90.3143 45.4953 90.6428 45.443 91.2333C45.3953 91.8286 45.7049 92.2143 46.5334 92.2857C47.3668 92.3524 47.7382 92.019 47.7858 91.4238Z" fill="#29347B"/>
<path d="M51.119 92.0476C51.1333 92.3333 51.4238 92.5048 52.3143 92.4571C53.1286 92.4143 53.3238 92.2762 53.3095 92.0619C53.2952 91.8143 53.1428 91.7809 52.1333 91.7667C50.7571 91.7428 50.1333 91.5 50.0952 90.7476C50.0571 90.0428 50.8047 89.6809 51.9762 89.6238C53.2809 89.5571 54.0524 89.9095 54.119 90.6619L53.0952 90.7143C53.0809 90.4143 52.7476 90.319 51.9857 90.3571C51.2666 90.3952 51.1095 90.5238 51.119 90.7047C51.1285 90.9143 51.2952 90.9714 52.219 91C53.4666 91.0286 54.2809 91.0714 54.3285 91.9619C54.3714 92.8286 53.5857 93.1238 52.3809 93.1857C51.0095 93.2571 50.1762 92.9857 50.0857 92.0952L51.1143 92.0428L51.119 92.0476Z" fill="#29347B"/>
<path d="M55.7428 92.0428L56.6809 91.9047L56.7857 92.6333L55.8476 92.7714L55.738 92.0428H55.7428Z" fill="#29347B"/>
<path d="M59.4811 88.5381C60.6953 88.2428 61.5096 88.5952 61.8144 89.419L60.8001 89.6667C60.662 89.3762 60.2906 89.2 59.6811 89.3476C58.9763 89.519 58.7192 89.9476 58.8572 90.5286C59.0001 91.1095 59.4334 91.3762 60.1334 91.2047C60.743 91.0571 60.9906 90.7238 60.9763 90.3952L61.9906 90.1476C62.1001 91.0238 61.543 91.719 60.3287 92.0143C59.0049 92.3381 58.1287 91.9 57.8525 90.7714C57.5763 89.6476 58.1525 88.8619 59.4763 88.5381H59.4811Z" fill="#29347B"/>
<path d="M63.1524 89.3905C62.7382 88.3428 63.2191 87.4428 64.5477 86.919C65.8715 86.3952 66.8429 86.7286 67.2524 87.7714C67.6667 88.819 67.1858 89.7286 65.862 90.2524C64.5334 90.7762 63.5667 90.4428 63.1524 89.3905ZM66.3001 88.1476C66.0858 87.6 65.6382 87.3857 64.8572 87.6952C64.081 88 63.8953 88.4571 64.1143 89.0095C64.3334 89.5667 64.7858 89.7762 65.5572 89.4714C66.3334 89.1667 66.5191 88.7 66.3001 88.1476Z" fill="#29347B"/>
<path d="M69.3381 88.6905L67.6333 85.7571L68.9571 84.9857L71.1095 86.3381L70.9952 83.8L72.319 83.0286L74.0238 85.9619L73.1762 86.4524L71.9428 84.3286L72.0762 87.0952L71.2904 87.5524L68.9524 86.0714L70.1904 88.1952L69.3381 88.6905Z" fill="#29347B"/>
<path d="M23.019 81.8381C13.9952 74.1809 8.2666 62.7571 8.2666 50C8.2666 37.2428 14.2999 25.2143 23.738 17.5619" stroke="#EC2024" stroke-miterlimit="10"/>
<path d="M76.2666 17.5667C85.7047 25.219 91.7333 36.9047 91.7333 50C91.7333 63.0952 86.0047 74.1857 76.9809 81.8428" stroke="#EC2024" stroke-miterlimit="10"/>
</g>
<defs>
<clipPath id="clip0_1124_13975">
<rect width="100" height="100" fill="white"/>
</clipPath>
</defs>
</svg>
