<svg xmlns="http://www.w3.org/2000/svg" width="64" height="64" viewBox="0 0 64 64"><g transform="translate(-479 -7217.403)"><circle cx="32" cy="32" r="32" transform="translate(479 7217.403)" fill="#f5f5f5"/><g transform="translate(453.999 7185.625)"><g transform="translate(31.07 38)"><path d="M2147.34,340.53Z" transform="translate(-2100.393 -333.819)" fill="#ff0210"/><path d="M1151.977,49.177l4.277,10.953c16.407-7.89,14.585-13.665,13.676-15.213l-.031-.052-.007-.011c-.03-.048-.061-.1-.093-.143h0a5.031,5.031,0,0,1-.511,3.647A25.74,25.74,0,0,0,1148.628,38q-.506,0-1.008.02Z" transform="translate(-1122.85 -38)" fill="#ff0210"/><path d="M1715.216,452.53h0c1.855,7.488-5.045,15.432-14.006,22.275l5.44,13.933a25.821,25.821,0,0,0,8.407-25.439A16.928,16.928,0,0,0,1715.216,452.53Z" transform="translate(-1664.16 -443.334)" fill="#ff0210"/><path d="M304.677,1686.511l-5.193-13.3c-4.864,3.157-9.837,5.931-14.041,8.117-6.218,3.234-10.75,5.183-10.752,5.183a66.371,66.371,0,0,0,6.932-1.8,25.826,25.826,0,0,0,23.364,1.8Z" transform="translate(-269.286 -1636.934)" fill="#ff0210"/><path d="M40.209,78.892c3.755-1.343,7.174-2.677,10.288-4C69.911,66.681,77.467,59.1,80.376,54.111a25.71,25.71,0,0,0-1.435-2.741C76.172,59.723,58.42,67.862,58.42,67.862l-1.572-4.027-1.016-2.6L51.743,71.706q-.807.352-1.642.706-4,1.694-8.7,3.419L51.468,50.057,55.824,38.9A25.777,25.777,0,0,0,38.642,82.906Z" transform="translate(-31.07 -38.88)" fill="#ff0210"/></g></g></g></svg>