<svg xmlns="http://www.w3.org/2000/svg" id="Layer_2" viewBox="0 0 210 210"><g id="Layer_1-2"><g><g><g><circle cx="105" cy="105" r="105" fill="#005596"></circle><g><circle cx="105" cy="105" r="102.34" fill="#005596"></circle><path d="M105,5.32c54.96,0,99.68,44.72,99.68,99.68s-44.72,99.68-99.68,99.68S5.32,159.96,5.32,105,50.04,5.32,105,5.32M105,0C47.01,0,0,47.01,0,105s47.01,105,105,105,105-47.01,105-105S162.99,0,105,0h0Z" fill="#005596"></path></g></g><g><circle cx="105" cy="105" r="105" fill="#00019e"></circle><path d="M105,5.32c54.96,0,99.68,44.72,99.68,99.68s-44.72,99.68-99.68,99.68S5.32,159.96,5.32,105,50.04,5.32,105,5.32M105,0C47.01,0,0,47.01,0,105s47.01,105,105,105,105-47.01,105-105S162.99,0,105,0h0Z" fill="#fff"></path></g></g><g><path d="M64.16,128.21l-.31-.51c-.07-.11-.08-.23-.03-.35l1.28-3.28h0s-2.34,1.43-2.34,1.43c-.13,.08-.22,.05-.29-.07l-.34-.56c-.08-.14-.09-.22,.05-.31l3.81-2.36c.16-.1,.23-.04,.31,.08l.31,.51c.07,.12,.07,.2,.03,.33l-1.3,3.29h0s2.36-1.45,2.36-1.45c.13-.08,.22-.04,.29,.08l.36,.59c.1,.16,.02,.22-.08,.28l-3.8,2.35c-.16,.1-.23,.05-.29-.06Zm5.76,.74l-.23-.3-2.74,2.12,.22,.28c.07,.09,.04,.19-.04,.25l-.3,.23c-.07,.05-.16,.05-.22-.02l-1.1-1.45c-.06-.08-.05-.19,.02-.24l.3-.23c.1-.08,.19-.06,.25,.03l.2,.26,2.74-2.12-.23-.3c-.07-.09-.04-.19,.04-.25l.3-.23c.07-.05,.16-.05,.22,.02l1.15,1.51c.06,.08,.05,.19-.02,.24l-.3,.23c-.1,.08-.19,.06-.25-.03Zm.03,6.38l-1.82-1.98c-.1-.11-.13-.19,.01-.32l3.29-3.05c.09-.09,.19-.09,.28,.01l.48,.53c.11,.12,.11,.19-.01,.3l-2.75,2.55,1.22,1.33c.09,.1,.08,.2-.02,.29l-.39,.37c-.11,.11-.21,.07-.29-.02Zm4.13,3.88c-.36-.29-.73-.71-.99-1.13-.07-.1-.06-.16-.02-.21,.02-.03,.06-.05,.1-.08l.51-.33c.06-.04,.13-.07,.2-.01,.03,.02,.05,.05,.08,.1,.18,.32,.44,.64,.72,.87,.23,.19,.62,.3,.84,.03,.17-.21,.09-.45-.02-.66l-.46-.94c-.26-.52-.25-1.08,.12-1.54,.57-.71,1.59-.53,2.23,0,.4,.32,.68,.67,.9,1.1,.06,.11,.06,.18,.02,.23-.02,.02-.05,.04-.09,.06l-.52,.29c-.08,.05-.14,.05-.19,.01-.03-.02-.05-.06-.08-.11-.14-.28-.38-.6-.6-.78-.22-.18-.53-.3-.74-.04-.14,.18-.01,.47,.08,.64l.4,.8c.27,.55,.31,1.08-.09,1.58-.64,.79-1.64,.74-2.4,.13Zm6.06,4.17l-.66-.43c-.14-.09-.15-.19-.12-.32l.21-.84-.21-.14-1.04-.68-.21-.14-.7,.56c-.07,.06-.16,.1-.27,.03l-.67-.44c-.06-.04-.07-.1-.03-.16,.02-.02,.03-.05,.06-.06l3.88-2.89c.09-.07,.19-.09,.3-.02l.61,.4c.12,.08,.15,.17,.13,.27l-1.02,4.73s-.02,.08-.04,.1c-.05,.07-.12,.09-.2,.04Zm.02-3.89c.04-.16,.08-.29,.12-.41h-.01c-.1,.08-.21,.18-.33,.27l-1.13,.92,.97,.64,.39-1.42Zm5.94,2.32c-.08,.12-.18,.11-.31,.04l-1.1-.58-1.76,3.39c-.07,.14-.1,.15-.23,.09l-.71-.37c-.13-.07-.13-.09-.07-.23l1.77-3.4-1.14-.6c-.13-.07-.14-.15-.08-.28l.24-.47c.06-.11,.14-.13,.25-.07l3.05,1.6,.32,.17c.11,.06,.13,.13,.09,.21,0,0,0,.01-.01,.03l-.31,.47Zm3.01,1.22l-.35-.14-1.29,3.22,.33,.13c.1,.04,.13,.14,.09,.23l-.14,.35c-.03,.08-.11,.13-.2,.09l-1.68-.68c-.1-.04-.13-.14-.11-.21l.14-.35c.05-.12,.13-.14,.23-.1l.3,.12,1.29-3.22-.35-.14c-.1-.04-.13-.14-.09-.24l.14-.35c.03-.08,.11-.13,.2-.09l1.75,.71c.1,.04,.13,.14,.11,.21l-.14,.36c-.05,.12-.13,.15-.23,.1Zm1.67,5.1c-.44-.13-.95-.38-1.34-.67-.1-.07-.12-.12-.1-.19,.01-.03,.04-.07,.06-.11l.35-.49c.04-.06,.09-.11,.18-.09,.03,.01,.07,.03,.11,.06,.29,.23,.65,.43,.99,.53,.28,.09,.69,.04,.79-.29,.08-.26-.09-.45-.27-.61l-.78-.7c-.43-.38-.64-.9-.46-1.47,.26-.87,1.27-1.1,2.06-.86,.49,.15,.88,.36,1.25,.67,.09,.08,.12,.14,.1,.2,0,.03-.03,.06-.06,.09l-.37,.47c-.06,.08-.11,.1-.17,.08-.03,0-.07-.04-.11-.07-.24-.21-.58-.41-.85-.5-.27-.08-.61-.07-.7,.25-.07,.22,.16,.44,.31,.56l.67,.59c.46,.41,.7,.88,.51,1.5-.29,.98-1.24,1.31-2.17,1.03Zm10.15,1.88l-.6-.07c-.13-.02-.23-.08-.29-.19l-1.74-3.06h-.01s-.34,2.74-.34,2.74c-.02,.16-.1,.2-.24,.18l-.65-.08c-.16-.02-.23-.06-.21-.23l.55-4.46c.02-.18,.11-.21,.26-.19l.59,.07c.14,.02,.2,.07,.27,.18l1.74,3.08h.01s.34-2.76,.34-2.76c.02-.15,.1-.19,.24-.18l.68,.09c.18,.02,.18,.12,.17,.24l-.55,4.45c-.02,.18-.1,.21-.23,.19Zm4.38-4.06h-.38s-.05,3.47-.05,3.47h.35c.11,0,.17,.09,.17,.19v.38c0,.09-.07,.16-.16,.16l-1.81-.03c-.11,0-.18-.08-.17-.16v-.38c0-.13,.08-.18,.18-.18h.33s.05-3.47,.05-3.47h-.37c-.11,0-.17-.09-.17-.19v-.38c0-.09,.06-.16,.16-.16l1.89,.03c.11,0,.17,.08,.17,.16v.38c0,.13-.08,.18-.18,.18Zm3.5,4.14c-.46,.04-1.02-.01-1.49-.14-.12-.03-.15-.07-.16-.14,0-.04,0-.08,.02-.12l.14-.59c.02-.07,.05-.14,.14-.15,.04,0,.07,0,.12,.02,.36,.11,.76,.16,1.12,.13,.3-.02,.66-.21,.63-.56-.02-.27-.24-.39-.47-.47l-.98-.36c-.54-.2-.92-.61-.97-1.2-.07-.91,.79-1.49,1.61-1.55,.51-.04,.95,.02,1.41,.17,.12,.04,.16,.09,.17,.15,0,.03,0,.06-.02,.11l-.17,.57c-.03,.1-.07,.13-.13,.14-.04,0-.08,0-.13-.03-.3-.1-.69-.17-.97-.15-.28,.02-.59,.15-.56,.49,.02,.23,.31,.35,.49,.41l.84,.3c.58,.21,.97,.56,1.02,1.21,.08,1.02-.68,1.68-1.65,1.75Zm4.78-4.98l-.38,.07,.59,3.42,.35-.06c.11-.02,.18,.05,.2,.15l.06,.37c.01,.08-.03,.17-.13,.19l-1.79,.31c-.1,.02-.19-.05-.2-.12l-.07-.38c-.02-.13,.04-.19,.14-.21l.32-.06-.59-3.42-.37,.06c-.11,.02-.18-.05-.2-.15l-.06-.37c-.01-.08,.03-.17,.13-.19l1.86-.33c.1-.02,.19,.05,.2,.12l.07,.38c.02,.13-.04,.19-.14,.21Zm7.06,2.54c-1.35,.45-2.42-.25-2.91-1.7-.48-1.44-.01-2.72,1.32-3.17,1.4-.47,2.45,.33,2.91,1.7,.51,1.51-.06,2.75-1.32,3.17Zm-1.31-3.95c-.58,.2-.8,.85-.47,1.84,.36,1.06,.87,1.4,1.51,1.19,.59-.2,.81-.81,.46-1.85-.36-1.08-.86-1.4-1.5-1.18Zm5.52,.41c-.08,.04-.29,.12-.36,.14l.61,1.33c.05,.11,.04,.19-.11,.26l-.64,.3c-.12,.05-.21,.04-.28-.11l-1.88-4.07c-.07-.16-.05-.22,.1-.29l1-.47c.74-.35,1.32-.46,1.81-.25,.35,.15,.63,.45,.79,.79,.48,1.04-.05,1.9-1.03,2.36Zm-1.05-2.18l-.31,.15,.65,1.4c.09-.03,.3-.13,.35-.15,.48-.22,.62-.58,.4-1.05-.23-.49-.6-.56-1.08-.34Zm5.92-3.41c.06,.13,0,.21-.13,.28l-1.07,.64,1.95,3.28c.08,.13,.08,.17-.04,.24l-.69,.41c-.13,.08-.15,.07-.23-.06l-1.96-3.29-1.11,.67c-.12,.07-.21,.04-.28-.08l-.27-.45c-.06-.1-.04-.18,.07-.25l2.95-1.77,.31-.19c.11-.07,.18-.04,.23,.04,0,0,0,.01,.01,.02l.24,.51Zm2.61-1.94l-.31,.23,2.06,2.8,.28-.21c.09-.07,.19-.03,.24,.05l.22,.3c.05,.07,.05,.16-.03,.22l-1.46,1.08c-.09,.06-.19,.04-.23-.02l-.23-.31c-.08-.1-.05-.19,.03-.25l.26-.19-2.06-2.8-.3,.22c-.09,.07-.19,.03-.25-.05l-.22-.3c-.05-.07-.05-.17,.03-.22l1.52-1.13c.09-.06,.19-.04,.23,.02l.23,.31c.08,.1,.05,.19-.03,.25Zm7.78-1.27l-.52,.48c-.13,.13-.23,.09-.37-.06l-1.7-1.74h0s.95,2.62,.95,2.62c.05,.14,0,.22-.07,.28l-.19,.18c-.1,.09-.17,.13-.32,.07l-2.63-1.05h-.01s1.66,1.88,1.66,1.88c.13,.15,.08,.22-.03,.33l-.43,.39c-.12,.11-.21,.12-.32,.01,0,0,0-.01-.01-.02l-2.88-3.41c-.11-.13-.09-.22,0-.32l.37-.35c.12-.11,.2-.11,.34-.06l3.31,1.29h.01s-1.13-3.33-1.13-3.33c-.04-.13-.03-.23,.08-.34l.36-.34c.1-.1,.17-.09,.26,0l3.23,3.17s0,0,.01,.02c.09,.1,.09,.19,0,.28Zm2.71-2.97c-.93,1.12-1.96,1.12-3.11,.16l-1.94-1.62c-.11-.09-.08-.19,0-.29l.45-.54c.09-.1,.16-.14,.27-.04l1.87,1.56c.85,.71,1.34,.62,1.76,.11,.4-.48,.39-.98-.45-1.69l-1.88-1.57c-.11-.09-.09-.18,0-.28l.45-.54c.09-.1,.16-.13,.27-.04l1.93,1.61c1.22,1.02,1.25,2.1,.38,3.15Zm5.19-7.65l-.37,.6c-.1,.16-.2,.14-.37,.04l-2.09-1.22h0s1.6,2.28,1.6,2.28c.09,.12,.05,.21,0,.29l-.14,.22c-.07,.11-.13,.17-.29,.15l-2.81-.32h0s2.09,1.38,2.09,1.38c.17,.11,.14,.19,.06,.32l-.31,.49c-.09,.14-.18,.17-.3,.1,0,0-.01,0-.02-.01l-3.67-2.53c-.14-.1-.15-.19-.08-.31l.27-.43c.09-.14,.17-.16,.31-.15l3.53,.37h0s-1.96-2.92-1.96-2.92c-.07-.11-.09-.22,0-.35l.26-.42c.08-.12,.14-.14,.25-.07l3.94,2.2s.01,0,.02,.01c.11,.07,.13,.16,.07,.27Z" fill="#fff"></path><path d="M154.6,118.39s-.06-.09-.11-.11l-6.18-2.43c.11-.43,.34-1.05,.76-1.68l3.19,1.44c.1,.05,.21,.07,.32,.07,.29,0,.56-.16,.7-.42,.09-.14,.33-.54,.54-1.08,.32-.85,.39-1.6,.21-2.24-.19-.66-.66-1.18-1.35-1.49l-8.51-3.99s-.03-.02-.05-.03h-.01c-.42-.2-1.37-.46-2.46,.34,.01-.37,.02-.75,.02-1.12,0-2.09-.35-4.83-.69-6.61-.39-2.2-1.15-4.84-1.68-6.36l-.46-1.39v-.03c-.34-.9-.65-1.82-.93-2.73-.92-3-1.47-5.78-1.47-7.42,0-2.81,2.45-7.19,5.69-10.18l1.52-1.4h0s-15.42-14.26-15.42-14.26l-1.22,.81c-2.82,1.88-6.48,2.92-10.29,2.92-4,0-7.78-1.12-10.65-3.17l-1.08-.77-1.08,.77c-2.87,2.04-6.65,3.17-10.65,3.17s-7.46-1.04-10.29-2.92l-1.22-.81-13.93,12.88-1.49,1.38h0s1.52,1.4,1.52,1.4c3.24,2.99,5.69,7.37,5.69,10.18,0,1.64-.55,4.42-1.47,7.42-.28,.92-.59,1.84-.92,2.73l-.47,1.41c-.54,1.53-1.29,4.17-1.68,6.36-.34,1.79-.69,4.53-.69,6.62,0,.37,0,.75,.02,1.12-1.09-.8-2.04-.54-2.46-.35h-.01s-.04,.02-.05,.03l-8.51,3.99c-.69,.31-1.16,.82-1.35,1.49-.19,.64-.12,1.4,.21,2.24,.2,.54,.45,.94,.54,1.08,.14,.26,.41,.42,.7,.42,.11,0,.22-.02,.32-.07l3.19-1.44c.42,.63,.65,1.25,.76,1.68l-6.18,2.43c-.05,.02-.09,.06-.11,.11-.02,.05-.02,.11,0,.16l.37,.95c3.86,9.89,10.43,18.34,18.98,24.45,7.95,5.67,17.26,8.99,26.92,9.6l3.18,3.23s.09,.06,.14,.06,.1-.02,.14-.06l3.18-3.23h0c9.67-.61,18.98-3.92,26.92-9.6,8.56-6.1,15.12-14.56,18.98-24.45l.37-.95c.02-.05,.02-.11,0-.16Zm-9.78-7.47c.31-.82,.41-1.68,.28-2.4,0-.05-.02-.11-.03-.16l-.09-.4,7.28,3.42c.43,.19,.69,.47,.8,.85,.23,.79-.25,1.81-.47,2.22l-.09,.17-7.76-3.5,.07-.18Zm-3.35-1.83c.57-.92,1.18-1.44,1.72-1.44h0l.38,.09c.26,.13,.46,.48,.54,.95,.11,.62,0,1.34-.31,2.05l-.06,.15s0,.01-.01,.03c-.15,.41,.03,.86,.43,1.04l.69,.31,3.05,1.37-.78,1.75-4.55-1.79c-.13-.05-.27-.08-.4-.08-.36,0-.68,.18-.89,.5l-.02,.03c-.13,.22-.51,.71-.85,.78-.03,0-.05,0-.07,0s-.05,0-.07,0c.58-1.87,.98-3.79,1.19-5.73Zm-1.15,7.02c.12,0,.24-.02,.36-.05,.66-.16,1.22-.89,1.49-1.29,.03-.03,.07-.06,.11-.06,.02,0,.04,0,.05,.01l.38,.16,.32,.12c-.35,.87-.88,2.12-1.36,3.11l-2.28-.84h0c.1-.28,.35-.98,.44-1.26,.16,.06,.33,.09,.49,.09Zm.85,3c-3.06,5.9-7.44,10.97-12.84,14.83-6.22,4.44-13.45,6.97-21.04,7.41l2.32-2.36c8.65-.99,16.65-4.8,22.53-10.74,2.93-2.95,5.23-6.32,6.84-9.95l2.19,.81Zm-70.3-19.73c.39-2.19,1.14-4.76,1.61-6.09l.45-1.37c.35-.95,.67-1.9,.95-2.84,.97-3.16,1.55-6.12,1.55-7.98,0-3.56-2.87-8.41-6.27-11.56l-.03-.03,12.82-11.86c3.02,2.01,6.98,3.23,11.32,3.23s8.66-1.33,11.72-3.51c3.06,2.18,7.19,3.51,11.72,3.51s8.3-1.22,11.32-3.23l12.83,11.86-.03,.03c-3.39,3.15-6.27,8-6.27,11.56,0,1.86,.59,4.83,1.55,7.98,.29,.94,.61,1.89,.95,2.84l.45,1.37c.47,1.33,1.22,3.91,1.61,6.09h0c.34,1.79,.66,4.39,.66,6.26,0,16.36-13.6,29.83-31.05,31.53l-3.74,3.8-3.74-3.8c-17.46-1.7-31.05-15.17-31.05-31.53,0-1.88,.31-4.48,.66-6.26Zm31.86,41.97c-7.59-.43-14.82-2.97-21.04-7.41-5.41-3.86-9.79-8.93-12.84-14.83l2.19-.81c1.61,3.63,3.91,7,6.84,9.95,5.89,5.93,13.89,9.74,22.54,10.74l2.32,2.36Zm-32.1-24.06h0l-2.28,.84c-.48-1-1.01-2.24-1.36-3.11l.32-.12,.37-.16s.03-.01,.05-.01c.05,0,.09,.02,.11,.06,.27,.4,.83,1.12,1.49,1.29,.12,.03,.24,.05,.36,.05,.17,0,.33-.03,.49-.09,.09,.28,.35,.99,.44,1.26Zm-4.78-5.34c.39-.18,.58-.63,.43-1.04,0-.01,0-.02-.01-.03l-.06-.15c-.31-.7-.42-1.43-.31-2.05,.08-.47,.28-.82,.54-.95l.04-.02c.11-.05,.23-.07,.34-.07,.54,0,1.15,.52,1.72,1.44,.22,1.95,.62,3.87,1.19,5.73-.05,.01-.09,.01-.14,0-.33-.07-.72-.57-.85-.78l-.02-.03c-.21-.32-.53-.5-.89-.5-.14,0-.27,.03-.41,.08l-4.55,1.79c-.14-.49-.38-1.11-.78-1.75l3.74-1.68Zm-8.35,2.65l-.09-.17c-.22-.4-.69-1.43-.47-2.22,.11-.38,.37-.65,.8-.85l7.28-3.42-.09,.4c-.01,.05-.02,.1-.03,.16-.13,.73-.02,1.58,.28,2.4l.07,.18-7.76,3.5Zm95.6,4.66c-3.79,9.6-10.19,17.81-18.5,23.74-7.88,5.63-17.12,8.88-26.72,9.41h-.05s-2.82,2.87-2.82,2.87l-2.82-2.87h-.05c-9.6-.53-18.84-3.78-26.72-9.41-8.32-5.93-14.71-14.14-18.5-23.74l-.1-.25,9.1-3.59,.1,.24c3.09,7.77,8.28,14.41,15.02,19.22,6.73,4.8,14.65,7.45,22.91,7.67h.1s.96,.98,.96,.98l.97-.98h.1c8.26-.22,16.18-2.88,22.91-7.67,6.74-4.81,11.93-11.45,15.02-19.22l.1-.24,9.1,3.59-.1,.25Z" fill="#fff"></path><g><path d="M92.4,75.76c-.38-.09-.9,.03-1.39,.35-.49,.32-.84,.76-.96,1.17,.38,.09,.9-.03,1.39-.34,.49-.32,.84-.76,.96-1.17Z" fill="#fff"></path><path d="M90.37,68.66c.05-.43-.1-.99-.42-1.51-.32-.52-.75-.87-1.12-.97-.05,.43,.1,.99,.42,1.51,.32,.52,.75,.87,1.12,.97Z" fill="#fff"></path><path d="M90.4,70.51c-.06,.38,.05,.9,.31,1.38,.27,.48,.63,.82,.97,.93,.06-.38-.04-.9-.31-1.38-.27-.49-.63-.82-.97-.93Z" fill="#fff"></path><path d="M91.14,69.3c.24-.34,.38-.9,.35-1.54-.03-.63-.23-1.18-.51-1.48-.24,.34-.38,.9-.35,1.54,.03,.63,.23,1.18,.51,1.48Z" fill="#fff"></path><path d="M91.87,72.28c.36-.15,.75-.55,1.02-1.11,.27-.56,.36-1.14,.27-1.56-.36,.15-.75,.55-1.02,1.11-.27,.56-.36,1.14-.26,1.56Z" fill="#fff"></path><path d="M89.99,69.84c.4,.36,.84,.54,1.19,.52-.06-.38-.31-.83-.71-1.19-.4-.36-.84-.54-1.19-.52,.06,.38,.31,.83,.71,1.19Z" fill="#fff"></path><path d="M91.6,71.1c.3-.27,.56-.78,.65-1.41,.1-.63,.02-1.21-.19-1.57-.3,.27-.56,.78-.65,1.41-.1,.63-.02,1.21,.19,1.57Z" fill="#fff"></path><path d="M93.38,73.94c-.38-.09-.9,.03-1.39,.35-.49,.32-.84,.76-.96,1.17,.38,.09,.9-.03,1.39-.35,.49-.32,.84-.76,.96-1.17Z" fill="#fff"></path><path d="M92.63,73.43c.36-.49,.55-1.04,.54-1.47-.38,.06-.83,.37-1.2,.86-.36,.49-.55,1.04-.54,1.47,.38-.06,.83-.37,1.2-.86Z" fill="#fff"></path><path d="M90.41,75.78c.3-.27,.55-.79,.64-1.41,.09-.63,0-1.21-.2-1.57-.3,.27-.55,.79-.64,1.41-.09,.63,0,1.21,.2,1.57Z" fill="#fff"></path><path d="M90.33,77.58c-.56,.11-1.02,.4-1.26,.74,.33,.23,.85,.31,1.41,.2,.56-.11,1.02-.4,1.26-.74-.33-.22-.85-.31-1.41-.2Z" fill="#fff"></path><path d="M80.08,75.45c-.12-.41-.47-.85-.96-1.17-.49-.32-1.01-.43-1.39-.35,.12,.41,.47,.85,.96,1.17,.49,.32,1.01,.43,1.39,.35Z" fill="#fff"></path><path d="M81.05,77.27c-.12-.41-.47-.85-.96-1.17-.49-.32-1.01-.43-1.39-.35,.12,.41,.47,.85,.96,1.17,.49,.32,1.01,.43,1.39,.34Z" fill="#fff"></path><path d="M82.03,78.31c-.24-.34-.7-.62-1.26-.74-.56-.11-1.08-.02-1.41,.2,.24,.34,.7,.62,1.26,.74,.56,.11,1.08,.02,1.41-.2Z" fill="#fff"></path><path d="M89.83,76.91c.26-.56,.34-1.15,.24-1.56-.36,.15-.74,.56-1,1.13-.26,.56-.34,1.15-.24,1.56,.36-.15,.74-.56,1-1.13Z" fill="#fff"></path><path d="M80.79,79.36c.32,.25,.83,.37,1.4,.3,.57-.07,1.04-.32,1.3-.65-.32-.25-.83-.37-1.4-.3-.57,.07-1.04,.32-1.3,.65Z" fill="#fff"></path><path d="M83.52,78.77c.47,.35,.99,.5,1.37,.44-.1-.42-.42-.88-.89-1.23-.48-.35-.99-.5-1.37-.44,.1,.42,.42,.88,.9,1.23Z" fill="#fff"></path><path d="M81.03,75.35c-.1,.42-.02,1,.24,1.56,.26,.57,.64,.97,1,1.13,.1-.42,.02-1-.24-1.56-.26-.56-.64-.97-1-1.13Z" fill="#fff"></path><path d="M81.86,67.68c.32-.52,.47-1.09,.42-1.51-.38,.1-.8,.45-1.12,.97-.32,.52-.47,1.09-.42,1.51,.37-.1,.8-.45,1.12-.97Z" fill="#fff"></path><path d="M81.11,69.84c.4-.36,.65-.81,.71-1.19-.35-.02-.79,.16-1.19,.52-.4,.36-.65,.81-.71,1.19,.35,.02,.79-.16,1.19-.52Z" fill="#fff"></path><path d="M88.91,79.66c.57,.07,1.08-.05,1.4-.3-.26-.32-.74-.57-1.3-.65-.57-.07-1.08,.05-1.4,.3,.26,.32,.73,.57,1.3,.65Z" fill="#fff"></path><path d="M83.83,79.45c-.56,.14-1.01,.45-1.23,.8,.34,.21,.86,.27,1.42,.13,.54-.13,.97-.43,1.21-.76,.07,.06,.14,.13,.2,.19-.62,.36-1.16,.84-1.62,1.45,.18,.29,.28,.44,.46,.73,.36-.8,.79-1.47,1.31-2.03,.5,.55,.88,1.21,1.23,2.02,.18-.29,.28-.44,.46-.73-.47-.61-.95-1.08-1.55-1.44,.07-.07,.13-.13,.2-.19,.23,.33,.67,.62,1.2,.75,.56,.14,1.08,.08,1.42-.13-.22-.35-.68-.66-1.23-.8-.46-.12-.91-.09-1.24,.04-.32,.13-.5,.24-.5,.24-.14-.08-.29-.15-.45-.21,0,0-.02,0-.03-.01,0,0,0,0-.01,0,0,0,0,0,0,0-.33-.14-.78-.17-1.26-.05Z" fill="#fff"></path><path d="M79.23,72.28c.09-.42,0-1-.26-1.56-.27-.56-.66-.96-1.02-1.11-.09,.42,0,1,.26,1.56,.27,.56,.66,.96,1.02,1.11Z" fill="#fff"></path><path d="M87.58,78.77c.47-.35,.8-.82,.9-1.23-.38-.06-.89,.09-1.37,.44-.47,.35-.8,.82-.9,1.23,.38,.06,.89-.09,1.37-.44Z" fill="#fff"></path><path d="M80.7,75.78c.21-.36,.29-.94,.2-1.57-.09-.63-.34-1.14-.64-1.41-.21,.36-.29,.95-.2,1.57,.09,.63,.34,1.14,.64,1.41Z" fill="#fff"></path><path d="M77.93,71.96c-.01,.43,.18,.98,.54,1.47,.36,.49,.82,.8,1.2,.86,.01-.43-.18-.98-.54-1.47-.36-.49-.81-.8-1.2-.86Z" fill="#fff"></path><path d="M80.39,71.89c.27-.49,.37-1,.31-1.38-.33,.11-.7,.45-.97,.93-.27,.48-.37,1-.31,1.38,.33-.11,.7-.45,.97-.93Z" fill="#fff"></path><path d="M80.47,67.82c.03-.63-.11-1.2-.35-1.54-.27,.3-.47,.85-.51,1.48-.03,.63,.11,1.2,.35,1.54,.27-.3,.47-.85,.51-1.48Z" fill="#fff"></path><path d="M79.5,71.1c.2-.36,.29-.95,.19-1.57-.1-.63-.35-1.14-.65-1.41-.2,.37-.29,.95-.19,1.57,.1,.63,.35,1.14,.65,1.41Z" fill="#fff"></path><path d="M91.44,76.93c-.49,.32-1.01,.43-1.39,.34,.12-.41,.47-.85,.96-1.17,.49-.32,1.01-.43,1.39-.35-.12,.41-.47,.85-.96,1.17Z" fill="#fff"></path><path d="M91.75,77.78c-.24,.34-.7,.62-1.26,.74-.56,.11-1.08,.02-1.41-.2,.24-.34,.7-.62,1.26-.74,.56-.11,1.08-.02,1.41,.2Z" fill="#fff"></path><path d="M91.67,72.82c-.33-.11-.7-.45-.97-.93-.27-.49-.37-1-.31-1.38,.33,.11,.7,.45,.97,.93,.27,.48,.37,1,.31,1.38Z" fill="#fff"></path><path d="M91.97,72.82c.36-.49,.81-.8,1.2-.86,.01,.43-.18,.98-.54,1.47-.36,.49-.81,.8-1.2,.86-.01-.43,.18-.98,.54-1.47Z" fill="#fff"></path><path d="M90.85,72.79c.21,.36,.29,.95,.2,1.57-.09,.63-.34,1.14-.64,1.41-.21-.36-.29-.94-.2-1.57,.09-.63,.34-1.14,.64-1.41Z" fill="#fff"></path><path d="M91.03,75.45c.12-.41,.47-.85,.96-1.17,.49-.32,1.01-.43,1.39-.35-.12,.41-.47,.85-.96,1.17-.49,.32-1.01,.43-1.39,.35Z" fill="#fff"></path><path d="M93.15,69.61c.09,.42,0,1-.27,1.56-.27,.56-.66,.96-1.02,1.11-.09-.42,0-1,.26-1.56,.27-.56,.66-.96,1.02-1.11Z" fill="#fff"></path><path d="M92.06,68.12c.2,.37,.29,.95,.19,1.57-.1,.63-.35,1.14-.65,1.41-.2-.36-.29-.95-.19-1.57,.1-.63,.35-1.14,.65-1.41Z" fill="#fff"></path><path d="M90.98,66.28c.27,.3,.47,.85,.51,1.48,.03,.63-.11,1.2-.35,1.54-.27-.3-.47-.85-.51-1.48-.03-.63,.11-1.2,.35-1.54Z" fill="#fff"></path><path d="M91.18,70.36c-.35,.02-.79-.16-1.19-.52-.4-.36-.65-.81-.71-1.19,.35-.02,.79,.16,1.19,.52,.4,.36,.65,.81,.71,1.19Z" fill="#fff"></path><path d="M88.82,66.17c.37,.1,.8,.45,1.12,.97,.32,.52,.47,1.09,.42,1.51-.37-.1-.8-.45-1.12-.97-.32-.52-.47-1.09-.42-1.51Z" fill="#fff"></path><path d="M89.07,76.48c.26-.56,.64-.97,1-1.13,.1,.42,.02,1-.24,1.56-.26,.57-.64,.97-1,1.13-.1-.42-.02-1,.24-1.56Z" fill="#fff"></path><path d="M89.01,78.72c.57,.07,1.04,.32,1.3,.65-.32,.25-.83,.37-1.4,.3-.57-.07-1.04-.32-1.3-.65,.32-.25,.83-.37,1.4-.3Z" fill="#fff"></path><path d="M87.11,77.98c.47-.35,.99-.5,1.37-.44-.1,.42-.42,.88-.9,1.23-.47,.35-.99,.5-1.37,.44,.1-.42,.42-.88,.9-1.23Z" fill="#fff"></path><path d="M85.1,79.5s.02,0,.03,.01c.16,.07,.3,.14,.45,.21,0,0,.19-.11,.5-.24,.33-.13,.77-.16,1.24-.04,.56,.14,1.01,.45,1.23,.8-.34,.21-.86,.27-1.42,.13-.53-.13-.97-.42-1.2-.75-.07,.06-.14,.13-.2,.19,.59,.35,1.08,.82,1.55,1.44-.18,.29-.28,.44-.46,.73-.36-.81-.73-1.47-1.23-2.02-.52,.55-.96,1.22-1.31,2.03-.18-.29-.28-.44-.46-.73,.47-.61,1-1.09,1.62-1.45-.07-.07-.13-.13-.2-.19-.23,.33-.67,.63-1.21,.76-.56,.14-1.08,.08-1.42-.13,.22-.35,.68-.66,1.23-.8,.47-.12,.93-.09,1.26,.05,0,0,0,0,0,0,0,0,0,0,.01,0Z" fill="#fff"></path><path d="M83.99,77.98c.47,.35,.8,.82,.89,1.23-.38,.06-.89-.09-1.37-.44-.47-.35-.8-.82-.9-1.23,.38-.06,.89,.09,1.37,.44Z" fill="#fff"></path><path d="M83.49,79.02c-.26,.32-.73,.57-1.3,.65-.57,.07-1.08-.05-1.4-.3,.26-.32,.73-.57,1.3-.65,.57-.07,1.08,.05,1.4,.3Z" fill="#fff"></path><path d="M82.27,78.04c-.36-.15-.74-.56-1-1.13-.26-.56-.34-1.15-.24-1.56,.36,.15,.74,.56,1,1.13,.26,.56,.34,1.15,.24,1.56Z" fill="#fff"></path><path d="M81.15,67.14c.32-.52,.75-.87,1.12-.97,.05,.43-.1,.99-.42,1.51-.32,.52-.75,.87-1.12,.97-.05-.43,.1-.99,.42-1.51Z" fill="#fff"></path><path d="M80.63,69.18c.4-.36,.84-.54,1.19-.52-.06,.38-.31,.83-.71,1.19-.4,.36-.84,.54-1.19,.52,.06-.38,.31-.83,.71-1.19Z" fill="#fff"></path><path d="M79.43,72.82c-.06-.38,.04-.9,.31-1.38,.27-.49,.63-.82,.97-.93,.06,.38-.05,.9-.31,1.38-.27,.48-.63,.82-.97,.93Z" fill="#fff"></path><path d="M79.67,74.29c-.38-.06-.83-.37-1.2-.86-.36-.49-.55-1.04-.54-1.47,.38,.06,.83,.37,1.2,.86,.36,.49,.55,1.04,.54,1.47Z" fill="#fff"></path><path d="M80.25,72.79c.3,.27,.55,.79,.64,1.41,.09,.63,0,1.21-.2,1.57-.3-.27-.55-.79-.64-1.41-.09-.63,0-1.21,.2-1.57Z" fill="#fff"></path><path d="M79.62,67.76c.03-.63,.23-1.18,.51-1.48,.24,.34,.38,.9,.35,1.54-.03,.63-.23,1.18-.51,1.48-.24-.34-.38-.9-.35-1.54Z" fill="#fff"></path><path d="M79.04,68.12c.3,.27,.56,.78,.65,1.41,.1,.63,.02,1.21-.19,1.57-.3-.27-.56-.78-.65-1.41-.1-.63-.02-1.21,.19-1.57Z" fill="#fff"></path><path d="M77.95,69.61c.36,.15,.75,.55,1.02,1.11,.27,.56,.36,1.14,.26,1.56-.36-.15-.75-.55-1.02-1.11-.27-.56-.36-1.14-.26-1.56Z" fill="#fff"></path><path d="M77.72,73.94c.38-.09,.9,.03,1.39,.35,.49,.32,.84,.76,.96,1.17-.38,.09-.9-.03-1.39-.35-.49-.32-.84-.76-.96-1.17Z" fill="#fff"></path><path d="M78.7,75.76c.38-.09,.9,.03,1.39,.35,.49,.32,.84,.76,.96,1.17-.38,.09-.9-.03-1.39-.34-.49-.32-.84-.76-.96-1.17Z" fill="#fff"></path><path d="M79.36,77.78c.33-.22,.85-.31,1.41-.2,.56,.11,1.02,.4,1.26,.74-.33,.23-.85,.31-1.41,.2-.56-.11-1.02-.4-1.26-.74Z" fill="#fff"></path></g><g><path d="M99.46,132.75c-.09,0-.28-.02-.48-.02-.14,0-.31,0-.5,.02h-.06s0-.06,0-.06c.07-.46,.11-.95,.11-1.48v-2.75c0-.76-.06-.84-.32-.84-.07,0-.17,.02-.31,.05l-.43,.1c-.13,.03-.21,.06-.3,.1h-.03s-.12-.08-.12-.08l.02-.04c.06-.11,.14-.31,.18-.48v-.03s.04,0,.04,0c.22-.02,.37-.04,.63-.1l.91-.2c.17-.03,.35-.08,.51-.13h.03s.1,.1,.1,.1v.02c-.08,.51-.11,1.08-.11,1.42v2.96c0,.6,.05,1.08,.16,1.38l.02,.07h-.07Z" fill="#fff"></path><path d="M105.89,132.81v.05s-.05,0-.05,0c0,0-.69,0-1.09,.04h-.03s-.08-.15-.08-.15l2.97-5.06h-1.86c-.29,0-.66,.03-.98,.26l-.02,.02-.15-.06,.02-.05c.1-.27,.18-.73,.21-.91v-.04s.05,0,.05,0c.22,.02,.45,.02,.69,.02h2.14c.28,0,.4,0,.65-.02h.05s0,.04,0,.04c0,.08,.06,.46,.09,.54v.03s0,.02,0,.02c-.46,.52-1,1.47-1.48,2.33-.77,1.4-1.06,2.17-1.13,2.94Z" fill="#fff"></path><path d="M102.85,129.49c.55-.31,1.07-.69,1.07-1.45,0-.81-.68-1.41-1.61-1.41s-1.71,.69-1.71,1.57c0,.73,.49,1.14,.99,1.44-.79,.47-1.28,.92-1.28,1.7,0,.92,.74,1.56,1.8,1.56,1.17,0,2.01-.74,2.01-1.75,0-.83-.6-1.29-1.26-1.67Zm-1.5-1.45c0-.55,.42-.96,.97-.96s.98,.42,.98,.98c0,.63-.46,.95-.92,1.21-.52-.3-1.03-.63-1.03-1.24Zm.83,4.44c-.68,0-1.17-.49-1.17-1.15,0-.71,.55-1.15,1.12-1.42,.78,.43,1.27,.78,1.27,1.43s-.53,1.15-1.22,1.15Z" fill="#fff"></path><path d="M111.03,129.61c.55-.31,1.07-.69,1.07-1.44,0-.82-.68-1.41-1.61-1.41s-1.71,.69-1.71,1.57c0,.73,.49,1.14,.99,1.44-.79,.47-1.28,.92-1.28,1.7,0,.92,.74,1.56,1.79,1.56,1.17,0,2.02-.74,2.02-1.75,0-.83-.6-1.29-1.26-1.67Zm-1.44-1.45c0-.55,.42-.96,.97-.96s.98,.42,.98,.98c0,.63-.46,.95-.92,1.21-.52-.3-1.03-.63-1.03-1.24Zm.83,4.44c-.68,0-1.17-.49-1.17-1.15,0-.71,.55-1.15,1.12-1.42,.78,.42,1.27,.78,1.27,1.43s-.53,1.15-1.22,1.15Z" fill="#fff"></path></g><g><path d="M87.14,120.53c-.11,.38-.44,1.6-.47,1.7-1.77-.06-2.95-.07-3.99-.07-1.31,0-2.16,0-2.87,.02,.13-.83,.22-1.8,.22-2.99v-4.95c0-.8-.03-2.33-.32-3.04,.54,.03,.9,.03,1.29,.03h2.97c1.06,0,1.48-.03,2.64-.05-.21,.76-.43,1.55-.52,1.86-.08,.3-.24,.08-.27,.03-.49-.71-1.44-.79-2.34-.79-.28,0-.62,.02-1.01,.03-.02,.27-.06,1.02-.06,1.7v1.61h1.31c.96,0,1.93-.07,2.3-.13,.16-.02,.13,.11,.13,.11-.12,.42-.28,1-.38,1.37-1.01-.09-1.56-.12-2.26-.12h-1.12v2.24c0,1.45,.16,1.92,1.88,1.92,.98,0,1.5,0,2.56-.8,.19-.14,.42-.06,.31,.32Z" fill="#fff"></path><path d="M91.88,120.54c-.24,.57-.35,.98-.49,1.61-.16-.01-.52-.01-.89-.01-.32,0-.71,.01-1.01,.03-.11-.7-.24-1.14-.47-1.83l-1.04-3.19c-.32-.95-.7-1.99-1.39-2.8,1.04,.03,1.87-.01,2.86-.09,.06,.77,.24,1.52,.46,2.26l.59,2.01c.14,.47,.44,1.53,.44,1.53,.11-.35,.24-.68,.35-.98l.92-2.37c.16-.41,.36-1.04,.43-1.69,0-.22,.02-.43,0-.7,.22,.02,.63,.02,.97,.02s.83-.04,1.07-.07c.22-.03,.19,.11,.11,.2-.54,.69-.98,1.63-1.39,2.59l-1.5,3.49Z" fill="#fff"></path><path d="M104.58,122.17c-.26-.02-.77-.03-1.26-.03s-.99,.02-1.3,.03c.14-.93,.19-1.69,.19-2.84v-1.92c0-.77-.06-2.14-.34-2.99,.61,0,1.55-.03,2.19-.06l-.03,1.82,.58-.75c.72-.94,1.22-1.25,1.97-1.25,.27,0,.4,.02,.69,.15-.23,.81-.46,1.66-.6,2.16-.03,.11-.13,.25-.27,.09-.31-.34-.36-.47-.73-.47-.45,0-.82,.24-1.09,.69-.22,.37-.32,.67-.32,1.44v1.29c0,1.37,.1,1.95,.32,2.63Z" fill="#fff"></path><path d="M113.41,114.48c-.06,.22-.24,.88-.32,1.15-.62-.07-1-.08-1.42-.08h-.71c-.03,.53-.05,1.17-.05,1.62v1.82c0,1.22,.13,2.12,1.19,2.12,.34,0,.61-.08,1.03-.29,.07-.03,.23-.03,.17,.19-.1,.35-.19,.68-.3,1.08-.96,.25-1.35,.32-1.87,.32-1.37,0-2.26-.6-2.26-2.56v-2.44c0-.79,0-1.35-.03-1.88-.42,0-.87,.05-1.09,.09-.05,0-.15-.01-.11-.18,.01-.05,.21-.77,.29-1.03,.2,.02,.59,.03,.97,.03,0-.63-.03-.96-.06-1.45,.56-.16,1.58-.62,2.02-.9,.16-.1,.25,.04,.23,.22-.01,.19-.13,.72-.15,2.13h1.11c.39,0,.82-.02,1.22-.11,.06-.01,.15,.02,.11,.14Z" fill="#fff"></path><path d="M128.99,122.14c-.52,0-1.03,.02-1.31,.03,.15-.87,.19-1.89,.19-3.05v-1.4c0-.94-.07-2.02-1.39-2.02-.47,0-.94,.19-1.29,.53-.4,.4-.52,.74-.52,1.74v1.15c0,1.47,.1,2.36,.32,3.05-.24-.02-.78-.03-1.28-.03-.53,0-1.03,.02-1.31,.03,.15-.87,.19-1.89,.19-3.05v-1.97c0-.77-.06-1.95-.34-2.81,.71,0,1.7,0,2.38-.07l-.05,1.39,.65-.55c.79-.66,1.44-.94,2.25-.94,1.84,0,2.47,1.03,2.47,2.86v2.08c0,1.47,.1,2.36,.32,3.05-.26-.02-.79-.03-1.29-.03Z" fill="#fff"></path><path d="M100.96,118.09c.27,0,.27-.68,.27-.83,0-1.89-1.21-3.06-3.16-3.06-2.26,0-3.82,1.7-3.82,4.16s1.55,4.08,3.98,4.08c.84,0,1.74-.23,2.47-.47,.13-.47,.17-.61,.32-1.16,.07-.26-.07-.34-.2-.25-.56,.39-.96,.52-1.64,.52-1.69,0-2.7-1.07-2.73-2.95,.52-.03,1.67-.05,2.49-.05h2.02Zm-4.53-.93c.08-1.29,.51-2.05,1.52-2.05,.71,0,1.25,.54,1.25,1.28,0,.5-.27,.71-.95,.72l-1.82,.05Z" fill="#fff"></path><path d="M117.9,114.18c-2.82,0-4.32,1.8-4.32,4.29s1.46,3.95,3.95,3.95c2.61,0,4.29-1.69,4.29-4.35,0-2.47-1.41-3.89-3.91-3.89Zm-.21,7.35c-1.2,0-1.87-1.17-1.87-3.38,0-1.88,.51-3.07,1.82-3.07,1.24,0,1.92,1.19,1.92,3.38,0,2.02-.65,3.07-1.87,3.07Z" fill="#fff"></path></g><path d="M113.74,81.28l-7.93-16.68c.29-.62-.29-1.42-.9-1.42s-1.1,.8-.81,1.43l-7.87,16.76c-1.57,.84-1.91,1.91-1.59,2.62,0,0,.19,.5,.89,.71,0,1.09,.02,11.46,.03,13.46,0,.03,0,.09-.01,.09-.32-.05-.68,.16-.68,.71,0,.84,0,1.33,0,2.15,0,.2,0,.78,0,.84,0,.67,.68,.88,.68,.88,0,0,15.03,5.37,15.53,5.56,.72,.27,1.36,.5,1.98,.74,.21,.08,.22,.2,.23,.57v.76s.38,.02,.58,.02c1.45,0,1.27-.74,1.31-2.96,.05-2.33,.05-3.03-.62-3.18-.05-6.12,.08-16.85,.05-19.87,.49-.19,.92-.57,.98-1.16,.06-.54-.53-1.37-1.87-2.03Zm-8.72-14.83c.27,.57,.56,1.2,.87,1.87-.28,.02-.82,.06-1.16,.14-.2,.04-.24,.12-.24,.19,0,.06,.08,.17,.29,.17,.44,0,1.05,.04,1.37,.06,.1,.2,.19,.4,.28,.61-.23,.07-.55,.17-.64,.2-.14,.06-.29,.11-.28,.22,0,.09,.16,.11,.29,.12,.27,.03,.68,.06,.92,.05,.16,.34,.27,.58,.43,.93,.1,.22-.2,.26-.46,.28-.3,.02-1.08,.02-1.45,.07-.15,.02-.2,.1-.2,.18,0,.08,.11,.15,.25,.15,.53,.03,1.18,.08,1.53,.15,.29,.06,.61,.13,.81,.2,.1,.21,.2,.43,.3,.64,.06,.12-.11,.18-.23,.19-.2,.02-1.08-.04-1.55,0-.21,.02-.25,.07-.25,.18,0,.08,.04,.12,.24,.16,.38,.06,1.13,.09,1.37,.13,.25,.04,.58,.13,.85,.24,.16,.35,.26,.57,.42,.91,.07,.14-.02,.19-.11,.19-.14,.01-1.74,.03-1.87,.04-.16,.01-.35,.06-.37,.19-.02,.1,.12,.25,.49,.28,.37,.02,1.77,.1,2.49,.62,.2,.42,.39,.83,.57,1.21-.55-.05-2.44-.21-3.31-.19-.75,.02-1.05,0-1.08,.15-.03,.15,.13,.22,.6,.27,.45,.04,2.92,.19,4.23,.7,.26,.55,.48,1.04,.68,1.45-.69-.14-2.28-.38-3.25-.4-.37,0-.52,.07-.52,.23s.34,.18,.56,.2c1.21,.12,2.92,.53,3.59,.79,.07,.15,.13,.27,.17,.36-2.2-.46-5.33-.68-6.71-.68s-4.32,.2-6.52,.72c.63-1.33,4.52-9.67,6.63-14.19Zm-5.88,36.7c0,.07-.05,.1-.12,.08-.68-.24-1.02-.36-1.7-.59-.07-.02-.12-.1-.12-.16v-2.84c0-.07,.05-.1,.12-.07,.68,.26,1.02,.38,1.7,.63,.07,.02,.12,.1,.12,.16,0,1.11,0,1.67,0,2.79Zm2.85,1.01c0,.07-.06,.1-.12,.08-.68-.24-1.02-.36-1.7-.61-.07-.02-.12-.1-.12-.16,0-1.12,0-1.68,0-2.78,0-.06,.05-.1,.12-.07,.68,.25,1.02,.37,1.71,.61,.07,.02,.12,.09,.12,.16,0,1.09,0,1.66,0,2.78Zm2.85,1.01c0,.06-.05,.1-.12,.07-.68-.24-1.02-.36-1.7-.6-.07-.02-.12-.1-.12-.16,0-1.12,0-1.69,0-2.79,0-.06,.06-.1,.12-.07,.68,.23,1.02,.35,1.71,.57,.07,.02,.12,.09,.12,.16,0,1.12,0,1.7,0,2.82Zm2.84,1c0,.07-.06,.1-.12,.08-.68-.24-1.02-.36-1.7-.6-.07-.02-.12-.1-.12-.16,0-1.12,0-1.71,0-2.84,0-.07,.06-.1,.12-.08,.68,.22,1.02,.33,1.7,.54,.07,.02,.12,.09,.12,.16,0,1.17,0,1.77,0,2.9Zm2.84,.99c0,.07-.05,.1-.12,.08-.68-.23-1.02-.35-1.7-.59-.07-.02-.12-.1-.12-.16,0-1.13,0-1.74,.01-2.93,0-.07,.05-.11,.12-.09,.68,.21,1.02,.31,1.7,.51,.07,.02,.12,.1,.12,.17,0,1.24,0,1.87,0,3.01Zm-8.46-6.71c-3.36-1.17-4.88-1.78-4.91-2.76-.02-.6-.1-3.12-.04-3.76l-.06-9.37c0-.28,.45-.44,.86-.54,.4-.1,2.87-.65,7.01-.65s7.04,.5,7.78,.8c.16,.07,.36,.14,.48,.24v.81c-.69-.1-3.37-.47-4.51-.54-.53-.04-1.21-.06-1.88-.08,0-.07-.03-.14-.08-.19-.05-.06-.13-.1-.21-.1-1.46-.06-1.98-.06-3.46,0-.08,0-.16,.04-.21,.1-.05,.06-.08,.14-.08,.22l.19,3.57c-.06,0-.11,0-.16,.01-.73,.06-3.64,.47-3.84,.52-.27,.07-.33,.14-.31,.24,.04,.16,.25,.1,.46,.08,1.45-.16,2.75-.25,3.88-.3l.03,.57c0,.16,.14,.29,.3,.29h.01c1.24-.05,1.66-.05,2.9,0,.16,0,.31-.12,.32-.29l.03-.57c.47,.02,.72,.05,.72,.05,2.08,.18,4.8,.58,5.97,1.29v.84c-.68-.15-2.43-.51-3.07-.56-.81-.06-1.19-.02-1.32,0-.14,.02-.25,.1-.23,.2,.02,.1,.13,.16,.31,.18,.17,.02,2.75,.12,4.34,1.2v.85c-.9-.18-3.93-.77-6.03-.87-2.75-.13-6.17,.2-6.44,.24-.27,.04-.4,.12-.38,.26,.02,.14,.07,.21,.44,.18,.27-.02,5.26-.2,7.88,.18,2.13,.31,3.6,.66,4.55,1.12v1.07c-.83-.17-2.69-.53-3.63-.61-1.96-.17-3.21-.13-3.42-.13-.19,0-.27,.09-.27,.21,0,.15,.15,.15,.28,.15,.26,0,1.71,.05,3.31,.3,1.05,.16,2.67,.42,3.75,.98v1.09c-.55-.06-1.66-.19-2.12-.2-.63-.02-1.16,0-1.36,.04-.13,.03-.2,.12-.18,.2,.02,.08,.09,.14,.22,.14s1.08,.06,1.79,.18c.56,.1,1.23,.29,1.68,.52,0,0,0,1.06,0,1.42,0,.04-1.21-.38-2.4-.45-1.08-.07-2.11-.05-2.93,.01-.07,0-.3,.05-.3,.24,0,.21,.25,.18,.37,.18,.62,.02,1.13,0,2.21,.11,1.58,.16,3.06,.66,3.06,.69,0,.43,0,.83,0,1.35,0,.02-.68-.19-1.73-.33-.44-.06-1.19-.14-1.48-.11-.19,.02-.38,.05-.38,.23-.01,.25,.43,.26,.59,.28,.17,.02,.63,.05,1.45,.19,.66,.11,1.56,.36,1.56,.38,0,1.12,0,2.02,0,2.02-3.35-.93-7.78-2.31-11.3-3.61Zm7.27-13.6c.14,0,2.75,.07,3.89,1.03v1.08c-.71-.18-2.41-.55-4.39-.75-.53-.05-1.05-.08-1.56-.11,0,0-.26,0-.67-.01l.17-3.03c.77,.05,1.58,.13,2.28,.22,1.13,.15,3.24,.53,4.16,.91v.78c-.44-.1-1.41-.31-2.08-.4-.9-.12-1.6-.12-1.75-.1-.16,.02-.34,.03-.34,.2,0,.14,.15,.18,.31,.18Zm-3.19-1.76l-.21,3.91s-1.11-.02-2,0l-.23-3.89s1.51-.08,2.43-.02Zm7.22,23.06c0,.07-.06,.1-.12,.08-.68-.24-1.02-.36-1.7-.59-.07-.02-.12-.1-.12-.16,0-1.14,0-1.78,0-3.05,0-.07,.05-.12,.12-.1,.68,.2,1.02,.3,1.69,.5,.07,.02,.12,.1,.12,.18v3.15Zm.51-24.64c-.16,.28-.52,.17-.89,0-.34-.16-3.23-1.2-8.07-1.2s-7.48,.95-7.83,1.03c-.35,.09-.83,.36-1.1-.14-.18-.33,.05-.65,.59-.87,.54-.23,4.45-1.08,8.34-1.12,3.89-.04,7.61,.81,8.66,1.48,.27,.17,.46,.53,.3,.82Z" fill="#fff"></path><g><path d="M117.59,75.11c.49,.32,1.01,.43,1.39,.35-.12-.41-.47-.85-.96-1.17-.49-.32-1.01-.43-1.39-.35,.12,.41,.47,.85,.96,1.17Z" fill="#fff"></path><path d="M119.93,75.35c-.1,.42-.02,1,.24,1.56,.26,.57,.64,.97,1,1.13,.1-.42,.02-1-.24-1.56-.26-.56-.64-.97-1-1.13Z" fill="#fff"></path><path d="M118.13,72.28c.09-.42,0-1-.26-1.56-.27-.56-.66-.96-1.02-1.11-.09,.42,0,1,.26,1.56,.27,.56,.66,.96,1.02,1.11Z" fill="#fff"></path><path d="M120.75,67.68c.32-.52,.47-1.09,.42-1.51-.37,.1-.8,.45-1.12,.97-.32,.52-.47,1.09-.42,1.51,.37-.1,.8-.45,1.12-.97Z" fill="#fff"></path><path d="M120.01,69.84c.4-.36,.65-.81,.71-1.19-.35-.02-.79,.16-1.19,.52-.4,.36-.65,.81-.71,1.19,.35,.02,.79-.16,1.19-.52Z" fill="#fff"></path><path d="M118.4,71.1c.2-.36,.29-.95,.19-1.57-.1-.63-.35-1.14-.65-1.41-.2,.37-.29,.95-.19,1.57,.1,.63,.35,1.14,.65,1.41Z" fill="#fff"></path><path d="M119.37,67.82c.03-.63-.11-1.2-.35-1.54-.27,.3-.47,.85-.51,1.48-.03,.63,.11,1.2,.35,1.54,.27-.3,.47-.85,.51-1.48Z" fill="#fff"></path><path d="M128.89,69.84c.4,.36,.84,.54,1.19,.52-.06-.38-.31-.83-.71-1.19-.4-.36-.84-.54-1.19-.52,.06,.38,.31,.83,.71,1.19Z" fill="#fff"></path><path d="M127.81,79.66c.57,.07,1.08-.05,1.4-.3-.26-.32-.73-.57-1.3-.65-.57-.07-1.08,.05-1.4,.3,.26,.32,.74,.57,1.3,.65Z" fill="#fff"></path><path d="M129.27,68.66c.05-.43-.1-.99-.42-1.51-.32-.52-.75-.87-1.12-.97-.05,.43,.1,.99,.42,1.51,.32,.52,.75,.87,1.12,.97Z" fill="#fff"></path><path d="M128.73,76.91c.26-.56,.34-1.15,.24-1.56-.36,.15-.74,.56-1,1.13-.26,.56-.34,1.15-.24,1.56,.36-.15,.74-.56,1-1.13Z" fill="#fff"></path><path d="M130.04,69.3c.24-.34,.38-.9,.35-1.54-.03-.63-.23-1.18-.51-1.48-.24,.34-.38,.9-.35,1.54,.03,.63,.23,1.18,.51,1.48Z" fill="#fff"></path><path d="M130.5,71.1c.3-.27,.56-.78,.65-1.41,.1-.63,.02-1.21-.19-1.57-.3,.27-.56,.78-.65,1.41-.1,.63-.02,1.21,.19,1.57Z" fill="#fff"></path><path d="M130.57,72.82c.06-.38-.04-.9-.31-1.38-.27-.49-.63-.82-.97-.93-.06,.38,.05,.9,.31,1.38,.27,.48,.63,.82,.97,.93Z" fill="#fff"></path><path d="M130.76,72.28c.36-.15,.75-.55,1.02-1.11,.27-.56,.36-1.14,.27-1.56-.36,.15-.75,.55-1.02,1.11-.27,.56-.36,1.14-.26,1.56Z" fill="#fff"></path><path d="M129.11,74.21c-.09,.63,0,1.21,.2,1.57,.3-.27,.55-.79,.64-1.41,.09-.63,0-1.21-.2-1.57-.3,.27-.55,.79-.64,1.41Z" fill="#fff"></path><path d="M116.83,71.96c-.01,.43,.18,.98,.54,1.47,.36,.49,.81,.8,1.2,.86,.01-.43-.18-.98-.54-1.47-.36-.49-.81-.8-1.2-.86Z" fill="#fff"></path><path d="M119.52,78.51c.56,.11,1.08,.02,1.41-.2-.24-.34-.7-.62-1.26-.74-.56-.11-1.08-.02-1.41,.2,.24,.34,.7,.62,1.26,.74Z" fill="#fff"></path><path d="M126.48,78.77c.48-.35,.8-.82,.9-1.23-.38-.06-.89,.09-1.37,.44-.47,.35-.8,.82-.9,1.23,.38,.06,.89-.09,1.37-.44Z" fill="#fff"></path><path d="M117.6,75.76c.12,.41,.47,.85,.96,1.17,.49,.32,1.01,.43,1.39,.34-.12-.41-.47-.85-.96-1.17-.49-.32-1.01-.43-1.39-.35Z" fill="#fff"></path><path d="M119.29,71.89c.27-.49,.37-1,.31-1.38-.33,.11-.7,.45-.97,.93-.27,.48-.37,1-.31,1.38,.33-.11,.7-.45,.97-.93Z" fill="#fff"></path><path d="M119.59,75.78c.21-.36,.29-.94,.2-1.57-.09-.63-.34-1.14-.64-1.41-.21,.36-.29,.95-.2,1.57,.09,.63,.34,1.14,.64,1.41Z" fill="#fff"></path><path d="M119.69,79.36c.32,.25,.83,.37,1.4,.3,.57-.07,1.04-.32,1.3-.65-.32-.25-.83-.37-1.4-.3-.57,.07-1.04,.32-1.3,.65Z" fill="#fff"></path><path d="M122.69,79.45c-.56,.14-1.01,.45-1.23,.8,.34,.21,.86,.27,1.42,.13,.53-.13,.97-.42,1.2-.75,.07,.06,.14,.13,.2,.19-.59,.35-1.08,.82-1.55,1.44,.18,.29,.28,.44,.46,.73,.36-.81,.73-1.47,1.23-2.02,.52,.55,.96,1.22,1.31,2.03,.18-.29,.28-.44,.46-.73-.47-.61-1-1.09-1.62-1.45,.07-.07,.13-.13,.2-.19,.23,.33,.67,.63,1.21,.76,.56,.14,1.08,.08,1.42-.13-.22-.35-.68-.66-1.23-.8-.47-.12-.93-.09-1.26,.05,0,0,0,0,0,0,0,0,0,0-.01,0,0,0-.02,0-.03,.01-.16,.07-.3,.14-.45,.21,0,0-.19-.11-.5-.24-.33-.13-.77-.16-1.24-.04Z" fill="#fff"></path><path d="M122.41,78.77c.47,.35,.99,.5,1.37,.44-.1-.42-.42-.88-.89-1.23-.47-.35-.99-.5-1.37-.44,.1,.42,.42,.88,.9,1.23Z" fill="#fff"></path><path d="M131.53,73.43c.36-.49,.55-1.04,.54-1.47-.38,.06-.83,.37-1.2,.86-.36,.49-.55,1.04-.54,1.47,.38-.06,.83-.37,1.2-.86Z" fill="#fff"></path><path d="M129.91,76.1c-.49,.32-.84,.76-.96,1.17,.38,.09,.9-.03,1.39-.34,.49-.32,.84-.76,.96-1.17-.38-.09-.9,.03-1.39,.35Z" fill="#fff"></path><path d="M130.89,74.28c-.49,.32-.84,.76-.96,1.17,.38,.09,.9-.03,1.39-.35,.49-.32,.84-.76,.96-1.17-.38-.09-.9,.03-1.39,.35Z" fill="#fff"></path><path d="M129.23,77.58c-.56,.11-1.02,.4-1.26,.74,.33,.23,.85,.31,1.41,.2,.56-.11,1.02-.4,1.26-.74-.33-.22-.85-.31-1.41-.2Z" fill="#fff"></path><path d="M132.05,69.61c.09,.42,0,1-.27,1.56-.27,.56-.65,.96-1.02,1.11-.09-.42,0-1,.26-1.56,.27-.56,.66-.96,1.02-1.11Z" fill="#fff"></path><path d="M129.61,71.89c-.27-.49-.37-1-.31-1.38,.33,.11,.7,.45,.97,.93,.27,.48,.37,1,.31,1.38-.33-.11-.7-.45-.97-.93Z" fill="#fff"></path><path d="M129.95,74.37c-.09,.63-.34,1.14-.64,1.41-.21-.36-.29-.94-.2-1.57,.09-.63,.34-1.14,.64-1.41,.21,.36,.29,.95,.2,1.57Z" fill="#fff"></path><path d="M130.87,72.82c.36-.49,.82-.8,1.2-.86,.01,.43-.18,.98-.54,1.47-.36,.49-.82,.8-1.2,.86-.01-.43,.18-.98,.54-1.47Z" fill="#fff"></path><path d="M130.96,68.12c.2,.37,.29,.95,.19,1.57-.1,.63-.35,1.14-.65,1.41-.2-.36-.29-.95-.19-1.57,.1-.63,.35-1.14,.65-1.41Z" fill="#fff"></path><path d="M129.88,66.28c.27,.3,.47,.85,.51,1.48,.03,.63-.11,1.2-.35,1.54-.27-.3-.47-.85-.51-1.48-.03-.63,.11-1.2,.35-1.54Z" fill="#fff"></path><path d="M130.08,70.36c-.35,.02-.79-.16-1.19-.52-.4-.36-.65-.81-.71-1.19,.35-.02,.79,.16,1.19,.52,.4,.36,.65,.81,.71,1.19Z" fill="#fff"></path><path d="M127.72,66.17c.38,.1,.8,.45,1.12,.97,.32,.52,.47,1.09,.42,1.51-.37-.1-.8-.45-1.12-.97-.32-.52-.47-1.09-.42-1.51Z" fill="#fff"></path><path d="M127.97,76.48c.26-.56,.64-.97,1-1.13,.1,.42,.02,1-.24,1.56-.26,.57-.64,.97-1,1.13-.1-.42-.02-1,.24-1.56Z" fill="#fff"></path><path d="M127.91,78.72c.57,.07,1.04,.32,1.3,.65-.32,.25-.83,.37-1.4,.3-.57-.07-1.04-.32-1.3-.65,.31-.25,.83-.37,1.4-.3Z" fill="#fff"></path><path d="M126.01,77.98c.47-.35,.99-.5,1.37-.44-.1,.42-.42,.88-.9,1.23-.47,.35-.99,.5-1.37,.44,.1-.42,.42-.88,.9-1.23Z" fill="#fff"></path><path d="M124.43,79.73c.14-.08,.29-.15,.45-.21,0,0,.02,0,.03-.01,0,0,0,0,.01,0,0,0,0,0,0,0,.33-.14,.78-.17,1.26-.05,.56,.14,1.01,.45,1.23,.8-.34,.21-.86,.27-1.42,.13-.54-.13-.98-.43-1.21-.76-.07,.06-.14,.13-.2,.19,.62,.36,1.16,.84,1.62,1.45-.18,.29-.28,.44-.46,.73-.36-.8-.79-1.47-1.31-2.03-.5,.55-.88,1.21-1.23,2.02-.18-.29-.28-.44-.46-.73,.47-.61,.95-1.08,1.55-1.44-.07-.07-.13-.13-.2-.19-.23,.33-.67,.62-1.2,.75-.56,.14-1.08,.08-1.42-.13,.22-.35,.68-.66,1.23-.8,.46-.12,.91-.09,1.24,.04,.32,.13,.5,.24,.5,.24Z" fill="#fff"></path><path d="M122.89,77.98c.47,.35,.8,.82,.89,1.23-.38,.06-.89-.09-1.37-.44-.47-.35-.8-.82-.9-1.23,.38-.06,.89,.09,1.37,.44Z" fill="#fff"></path><path d="M122.39,79.02c-.26,.32-.73,.57-1.3,.65-.57,.07-1.08-.05-1.4-.3,.26-.32,.73-.57,1.3-.65,.57-.07,1.08,.05,1.4,.3Z" fill="#fff"></path><path d="M118.33,72.82c-.06-.38,.05-.9,.31-1.38,.27-.49,.63-.82,.97-.93,.06,.38-.05,.9-.31,1.38-.27,.48-.63,.82-.97,.93Z" fill="#fff"></path><path d="M118.57,74.29c-.38-.06-.83-.37-1.2-.86-.36-.49-.55-1.04-.54-1.47,.38,.06,.83,.37,1.2,.86,.36,.49,.55,1.04,.54,1.47Z" fill="#fff"></path><path d="M119.15,72.79c.3,.27,.55,.79,.64,1.41,.09,.63,0,1.21-.2,1.57-.3-.27-.55-.79-.64-1.41-.09-.63,0-1.21,.2-1.57Z" fill="#fff"></path><path d="M119.95,77.27c-.38,.09-.9-.03-1.39-.34-.49-.32-.84-.76-.96-1.17,.38-.09,.9,.03,1.39,.35,.49,.32,.84,.76,.96,1.17Z" fill="#fff"></path><path d="M119.67,77.58c.56,.11,1.03,.4,1.26,.74-.33,.23-.85,.31-1.41,.2-.56-.11-1.02-.4-1.26-.74,.33-.22,.85-.31,1.41-.2Z" fill="#fff"></path><path d="M121.17,78.04c-.36-.15-.74-.56-1-1.13-.26-.56-.34-1.15-.24-1.56,.36,.15,.74,.56,1,1.13,.26,.56,.34,1.15,.24,1.56Z" fill="#fff"></path><path d="M120.05,67.14c.32-.52,.75-.87,1.12-.97,.05,.43-.1,.99-.42,1.51-.32,.52-.75,.87-1.12,.97-.05-.43,.1-.99,.42-1.51Z" fill="#fff"></path><path d="M119.52,69.18c.4-.36,.84-.54,1.19-.52-.06,.38-.31,.83-.71,1.19-.4,.36-.84,.54-1.19,.52,.06-.38,.31-.83,.71-1.19Z" fill="#fff"></path><path d="M118.51,67.76c.03-.63,.23-1.18,.51-1.48,.24,.34,.38,.9,.35,1.54-.03,.63-.23,1.18-.51,1.48-.24-.34-.38-.9-.35-1.54Z" fill="#fff"></path><path d="M117.94,68.12c.3,.27,.56,.78,.65,1.41,.1,.63,.02,1.21-.19,1.57-.3-.27-.56-.78-.65-1.41-.1-.63-.02-1.21,.19-1.57Z" fill="#fff"></path><path d="M116.85,69.61c.36,.15,.75,.55,1.02,1.11,.27,.56,.36,1.14,.26,1.56-.36-.15-.75-.55-1.02-1.11-.27-.56-.36-1.14-.26-1.56Z" fill="#fff"></path><path d="M129.38,78.51c-.56,.11-1.08,.02-1.41-.2,.24-.34,.7-.62,1.26-.74,.56-.11,1.08-.02,1.41,.2-.24,.34-.7,.62-1.26,.74Z" fill="#fff"></path><path d="M130.34,76.93c-.49,.32-1.01,.43-1.39,.34,.12-.41,.47-.85,.96-1.17,.49-.32,1.01-.43,1.39-.35-.12,.41-.47,.85-.96,1.17Z" fill="#fff"></path><path d="M131.31,75.11c-.49,.32-1.01,.43-1.39,.35,.12-.41,.47-.85,.96-1.17,.49-.32,1.01-.43,1.39-.35-.12,.41-.47,.85-.96,1.17Z" fill="#fff"></path><path d="M118.01,74.28c.49,.32,.84,.76,.96,1.17-.38,.09-.9-.03-1.39-.35-.49-.32-.84-.76-.96-1.17,.38-.09,.9,.03,1.39,.35Z" fill="#fff"></path></g></g><g><g><g><path d="M64.49,23.81l.85,1.54-4.65,2.57,.73,1.33,4.13-2.28,.84,1.53-4.13,2.28,1.02,1.84-1.81,1-3.44-6.23,6.46-3.57Z" fill="#fff"></path><path d="M76.23,26.51l-1.13-.99-4.06,1.65-.12,1.5-2.06,.84,.72-7.97,2.64-1.07,6.07,5.21-2.05,.83Zm-5.05-1.07l2.6-1.06-2.35-2.05-.25,3.1Z" fill="#fff"></path><path d="M86.83,21.37l-1.23-4.95,1.99-.49,1.71,6.91-2.93,.73-5.3-3.94,1.23,4.95-2,.5-1.71-6.91,2.94-.73,5.3,3.94Z" fill="#fff"></path><path d="M96.85,14.62l8.57-.35,.07,1.75-3.25,.13,.22,5.36-2.06,.08-.22-5.36-3.26,.13-.07-1.75Z" fill="#fff"></path><path d="M107.92,17.84c.2-2.35,1.94-3.6,4.93-3.34,2.98,.26,4.49,1.79,4.29,4.13-.2,2.35-1.95,3.61-4.93,3.36-2.99-.26-4.49-1.79-4.29-4.15Zm7.07,.61c.11-1.23-.53-2.05-2.29-2.2-1.75-.15-2.52,.53-2.62,1.78-.11,1.25,.54,2.07,2.28,2.22,1.75,.15,2.53-.55,2.64-1.79Z" fill="#fff"></path><path d="M129.4,17.57l-4.19,2.13,2.62,4.82-2.53-.57-1.82-3.36-1.99,1.01-.32,1.41-2.01-.45,1.57-6.95,2.02,.46-.7,3.12,4.34-2.29,3.02,.68Z" fill="#fff"></path><path d="M139.29,20.99l-.55,1.52-5-1.81-.39,1.07,4.81,1.74-.55,1.52-4.81-1.74-.39,1.07,5,1.81-.55,1.52-6.94-2.51,2.42-6.7,6.94,2.51Z" fill="#fff"></path><path d="M146.5,30.14l2.34-4.54,1.83,.94-3.27,6.33-2.69-1.39-1.39-6.47-2.34,4.54-1.84-.95,3.27-6.33,2.7,1.39,1.39,6.47Z" fill="#fff"></path></g><g><path d="M57.53,179.5c-.31,.51,0,1.15,1.6,2.12,1.47,.88,1.97,.87,2.2,.49,.27-.44,.04-.69-1.7-1.9-2.37-1.66-3.16-2.81-2.35-4.16,.77-1.27,2.49-1.02,4.6,.25,2.35,1.41,3.27,2.94,2.51,4.33l-1.85-1.11c.32-.54-.14-1.1-1.51-1.92-1.3-.78-1.72-.74-1.92-.41-.23,.38,0,.67,1.57,1.8,2.14,1.52,3.5,2.55,2.54,4.15-.94,1.56-2.66,1.15-4.83-.16-2.47-1.49-3.6-2.93-2.72-4.59l1.85,1.12Z" fill="#fff"></path><path d="M66.2,183.1c.94-2.17,2.98-2.79,5.74-1.6,2.75,1.19,3.69,3.12,2.76,5.28-.94,2.17-3,2.81-5.75,1.62-2.76-1.19-3.69-3.12-2.75-5.3Zm6.52,2.83c.49-1.14,.14-2.11-1.48-2.82-1.61-.7-2.56-.29-3.05,.85-.5,1.15-.14,2.13,1.46,2.83,1.61,.7,2.58,.28,3.07-.87Z" fill="#fff"></path><path d="M82.52,185.25c2.52,.71,3.65,2.19,3.36,4.01l-2.11-.59c.04-.67-.45-1.38-1.72-1.73-1.47-.41-2.38,.11-2.72,1.31-.34,1.21,.18,2.14,1.64,2.55,1.27,.35,2.06,0,2.37-.61l2.11,.59c-.7,1.72-2.43,2.41-4.96,1.71-2.75-.77-3.9-2.47-3.25-4.82,.66-2.34,2.52-3.19,5.27-2.42Z" fill="#fff"></path><path d="M91.13,187.38l-1.26,7-2.03-.37,1.26-7,2.03,.37Z" fill="#fff"></path><path d="M93.28,191.41c.19-2.35,1.92-3.6,4.91-3.36,2.98,.24,4.5,1.77,4.3,4.11-.19,2.35-1.93,3.62-4.92,3.38-2.99-.24-4.5-1.77-4.3-4.13Zm7.07,.58c.1-1.23-.54-2.04-2.3-2.19-1.75-.14-2.51,.55-2.62,1.79-.1,1.25,.55,2.06,2.29,2.21,1.75,.14,2.53-.56,2.63-1.81Z" fill="#fff"></path><path d="M107.35,193.3c.03,.6,.64,.96,2.51,.86,1.71-.09,2.12-.38,2.09-.83-.03-.52-.35-.59-2.47-.62-2.89-.05-4.2-.56-4.28-2.14-.08-1.48,1.49-2.24,3.95-2.36,2.74-.14,4.36,.6,4.5,2.18l-2.15,.11c-.03-.63-.73-.83-2.33-.75-1.51,.08-1.84,.35-1.82,.73,.02,.44,.37,.56,2.31,.62,2.62,.06,4.33,.15,4.43,2.02,.09,1.82-1.56,2.44-4.09,2.57-2.88,.15-4.63-.42-4.82-2.29l2.16-.11Z" fill="#fff"></path><path d="M117.06,193.29l1.97-.29,.22,1.53-1.97,.29-.23-1.53Z" fill="#fff"></path><path d="M124.91,185.93c2.55-.62,4.26,.12,4.9,1.85l-2.13,.52c-.29-.61-1.07-.98-2.35-.67-1.48,.36-2.02,1.26-1.73,2.48,.3,1.22,1.21,1.78,2.68,1.42,1.28-.31,1.8-1.01,1.77-1.7l2.13-.52c.23,1.84-.94,3.3-3.49,3.92-2.78,.68-4.62-.24-5.2-2.61-.58-2.36,.63-4.01,3.41-4.69Z" fill="#fff"></path><path d="M132.62,187.73c-.87-2.2,.14-4.08,2.93-5.19,2.78-1.1,4.82-.4,5.68,1.79,.87,2.2-.14,4.11-2.92,5.21-2.79,1.1-4.82,.4-5.69-1.81Zm6.61-2.61c-.45-1.15-1.39-1.6-3.03-.95-1.63,.64-2.02,1.6-1.56,2.76,.46,1.17,1.41,1.61,3.03,.97,1.63-.64,2.02-1.62,1.56-2.78Z" fill="#fff"></path><path d="M145.6,186.26l-3.58-6.16,2.78-1.62,4.52,2.84-.24-5.33,2.78-1.62,3.58,6.16-1.78,1.03-2.59-4.46,.28,5.81-1.65,.96-4.91-3.11,2.6,4.46-1.79,1.04Z" fill="#fff"></path></g></g><path d="M48.34,171.86c-18.95-16.08-30.98-40.07-30.98-66.86S30.03,52.95,49.85,36.88" fill="none" stroke="#fff" stroke-miterlimit="10" stroke-width="2.22"></path><path d="M160.16,36.89c19.82,16.07,32.48,40.61,32.48,68.11s-12.03,50.79-30.98,66.87" fill="none" stroke="#fff" stroke-miterlimit="10" stroke-width="2.22"></path></g></g></g></svg>