<svg width="100" height="100" viewBox="0 0 100 100" fill="none" xmlns="http://www.w3.org/2000/svg">
<g clip-path="url(#clip0_1124_12864)">
<path d="M50 100C77.6142 100 100 77.6142 100 50C100 22.3858 77.6142 0 50 0C22.3858 0 0 22.3858 0 50C0 77.6142 22.3858 100 50 100Z" fill="white"/>
<path d="M50 2.53333C76.1714 2.53333 97.4667 23.8286 97.4667 50C97.4667 76.1714 76.1714 97.4667 50 97.4667C23.8286 97.4667 2.53333 76.1714 2.53333 50C2.53333 23.8286 23.8286 2.53333 50 2.53333ZM50 0C22.3857 0 0 22.3857 0 50C0 77.6143 22.3857 100 50 100C77.6143 100 100 77.6143 100 50C100 22.3857 77.6143 0 50 0Z" fill="#231F20"/>
<path fill-rule="evenodd" clip-rule="evenodd" d="M53.505 30.2905L50.0574 28.2238L46.5812 30.2905L47.486 26.3524L44.4336 23.6857L48.4622 23.3191L50.0574 19.5952L51.6336 23.3191L55.6669 23.6857L52.6336 26.3524L53.505 30.2905Z" fill="#FFD300"/>
<path d="M50.0001 80.4048C60.5096 72.8952 72.4477 58.3429 69.5667 38.3476C56.9762 42.7 50.0001 32.1905 50.0001 32.1905C50.0001 32.1905 43.0191 42.6952 30.4334 38.3476C27.5524 58.3429 39.4905 72.8952 50.0001 80.4048Z" fill="#231F20"/>
<path fill-rule="evenodd" clip-rule="evenodd" d="M56.5571 49.3048H58.0762V44.5905L59.4 49.3048H60.6333L61.9381 44.5905L61.9524 49.3048H63.4762V43.0952H61.0952L60.0238 47.2333L58.9381 43.0952H56.5571V49.3048Z" fill="white"/>
<path fill-rule="evenodd" clip-rule="evenodd" d="M40.7716 45C40.5811 44.5857 39.9859 44.3762 39.4382 44.3762C38.4001 44.3762 38.0002 45.2952 38.0002 46.2143C38.0002 47.1333 38.4001 48.0524 39.4382 48.0524C40.0573 48.0524 40.6382 47.7619 40.7954 47.2619L42.1573 48.0952C41.6954 48.9524 40.6335 49.4333 39.5097 49.4333C37.6382 49.4333 36.3906 48.0048 36.3906 46.2095C36.3906 44.4143 37.6382 42.9857 39.5097 42.9857C40.4478 42.9857 41.5859 43.4048 42.1097 44.1762L40.7716 44.9952V45Z" fill="white"/>
<path fill-rule="evenodd" clip-rule="evenodd" d="M50.2097 43.1238H48.5716L46.2573 49.3095H47.9097L48.3002 48.2H50.4573L50.8383 49.3095H52.5192L50.2049 43.1238H50.2097ZM48.6764 47.0048L49.3764 44.8381L50.0764 47.0048H48.6764Z" fill="white"/>
<path d="M68.2812 40.4048C66.6431 40.7571 65.1098 40.9095 63.6907 40.9095C54.6098 40.9095 50.0002 34.6762 50.0002 34.6762C50.0002 34.6762 45.3907 40.9095 36.3098 40.9095C34.886 40.9095 33.3574 40.7571 31.7193 40.4048C29.7431 57.6 39.8431 71.2667 50.0002 78.5619C60.1574 71.2667 70.2574 57.6 68.2812 40.4048ZM33.0098 51.7857H39.2812V66.4C38.4717 65.2191 37.7241 64.0143 37.0526 62.7857C35.1002 59.2191 33.7526 55.5429 33.0098 51.7857ZM40.4145 67.9762V51.7857H46.0764V74.2524C44.0002 72.3286 42.0907 70.2143 40.4145 67.9762ZM47.2098 75.2667V51.7857H52.8574V75.2143C51.9336 76.0191 50.9812 76.7857 50.0002 77.5095C49.0431 76.8 48.1098 76.0524 47.205 75.2667H47.2098ZM53.9907 74.1952V51.7857H59.6574V67.8952C57.9764 70.1429 56.0669 72.2619 53.9907 74.1952ZM60.786 66.3095V51.7857H66.9955C66.2479 55.5476 64.905 59.2238 62.9526 62.7857C62.3002 63.981 61.5717 65.1571 60.786 66.3048V66.3095ZM67.205 50.6571H32.8002C32.3002 47.6238 32.1812 44.5381 32.4669 41.4143C33.7669 41.6429 35.0574 41.7571 36.3098 41.7571C43.8098 41.7571 48.3622 37.7381 50.0002 35.981C51.6336 37.7429 56.1907 41.7571 63.6907 41.7571C64.9431 41.7571 66.2336 41.6429 67.5336 41.4143C67.8145 44.5381 67.7002 47.6238 67.2002 50.6571H67.205Z" fill="white"/>
<path d="M30.7095 11.3381L31.1143 12.0714L28.9 13.2952L29.2476 13.9286L31.2143 12.8429L31.6143 13.5714L29.6476 14.6572L30.1333 15.5333L29.2714 16.0095L27.6333 13.0429L30.7095 11.3429V11.3381Z" fill="black"/>
<path d="M36.3001 12.6238L35.762 12.1524L33.8286 12.9381L33.7715 13.6524L32.7905 14.0524L33.1334 10.2571L34.3905 9.74762L37.281 12.2286L36.3048 12.6238H36.3001ZM33.8953 12.1143L35.1334 11.6095L34.0143 10.6333L33.8953 12.1143Z" fill="black"/>
<path d="M41.3476 10.1762L40.7619 7.81906L41.7095 7.58572L42.5238 10.8762L41.1286 11.2238L38.6048 9.34763L39.1905 11.7048L38.2381 11.9429L37.4238 8.65239L38.8238 8.30477L41.3476 10.181V10.1762Z" fill="black"/>
<path d="M46.1191 6.96191L50.2001 6.79524L50.2334 7.62858L48.6858 7.69048L48.7906 10.2429L47.8096 10.281L47.7049 7.72858L46.1525 7.79048L46.1191 6.95715V6.96191Z" fill="black"/>
<path d="M51.3903 8.49525C51.4855 7.3762 52.3141 6.78096 53.7379 6.90477C55.1569 7.02858 55.876 7.75715 55.7807 8.87144C55.6855 9.99049 54.8522 10.5952 53.4331 10.4714C52.0093 10.3476 51.295 9.61906 51.3903 8.49525ZM54.7569 8.78572C54.8093 8.20001 54.5045 7.80953 53.6664 7.73811C52.8331 7.66668 52.4665 7.99049 52.4188 8.58572C52.3665 9.18096 52.676 9.57144 53.5045 9.64287C54.3379 9.7143 54.7093 9.38096 54.7617 8.79049L54.7569 8.78572Z" fill="black"/>
<path d="M61.6239 8.36667L59.6334 9.38095L60.881 11.6762L59.6763 11.4048L58.8096 9.80476L57.862 10.2857L57.7096 10.9571L56.7524 10.7381L57.5001 7.42857L58.462 7.64286L58.1286 9.12857L60.1953 8.0381L61.6334 8.36191L61.6239 8.36667Z" fill="black"/>
<path d="M66.3286 9.99524L66.0667 10.7191L63.6858 9.85715L63.5 10.3667L65.7905 11.1952L65.5286 11.9191L63.2381 11.0905L63.0524 11.6L65.4334 12.4619L65.1715 13.1857L61.8667 11.9905L63.0191 8.8L66.3238 9.99524H66.3286Z" fill="black"/>
<path d="M69.7621 14.3524L70.8764 12.1905L71.7478 12.6381L70.1907 15.6524L68.9097 14.9905L68.2478 11.9095L67.1335 14.0714L66.2573 13.6191L67.8145 10.6048L69.1002 11.2667L69.7621 14.3476V14.3524Z" fill="black"/>
<path d="M27.395 85.4762C27.2474 85.719 27.395 86.0238 28.1569 86.4857C28.8569 86.9048 29.095 86.9 29.2045 86.719C29.3331 86.5095 29.2236 86.3905 28.395 85.8143C27.2665 85.0238 26.8903 84.4762 27.276 83.8333C27.6426 83.2286 28.4617 83.3476 29.4665 83.9524C30.5855 84.6238 31.0236 85.3524 30.6617 86.0143L29.7807 85.4857C29.9331 85.2286 29.7141 84.9619 29.0617 84.5714C28.4426 84.2 28.2426 84.219 28.1474 84.3762C28.0379 84.5571 28.1474 84.6952 28.895 85.2333C29.9141 85.9571 30.5617 86.4476 30.1045 87.2095C29.6569 87.9524 28.8379 87.7571 27.8045 87.1333C26.6284 86.4238 26.0903 85.7381 26.5093 84.9476L27.3903 85.4809L27.395 85.4762Z" fill="black"/>
<path d="M31.5236 87.1905C31.9712 86.1571 32.9426 85.8619 34.2569 86.4286C35.5664 86.9952 36.014 87.9143 35.5712 88.9429C35.1236 89.9762 34.1426 90.281 32.8331 89.7143C31.5188 89.1476 31.0759 88.2286 31.5236 87.1905ZM34.6283 88.5381C34.8616 87.9952 34.695 87.5333 33.9236 87.1952C33.1569 86.8619 32.7045 87.0571 32.4712 87.6C32.2331 88.1476 32.4045 88.6143 33.1664 88.9476C33.9331 89.281 34.395 89.081 34.6283 88.5333V88.5381Z" fill="black"/>
<path d="M39.3047 88.219C40.5047 88.5571 41.0428 89.2619 40.9047 90.1286L39.9 89.8476C39.919 89.5286 39.6857 89.1905 39.0809 89.0238C38.3809 88.8286 37.9476 89.0762 37.7857 89.6476C37.6238 90.2238 37.8714 90.6667 38.5666 90.8619C39.1714 91.0286 39.5476 90.8619 39.6952 90.5714L40.7 90.8524C40.3666 91.6714 39.5428 92 38.3381 91.6667C37.0285 91.3 36.4809 90.4905 36.7905 89.3714C37.1047 88.2571 37.9905 87.8524 39.3 88.219H39.3047Z" fill="black"/>
<path d="M43.3948 89.2286L42.7948 92.5619L41.8281 92.3857L42.4281 89.0524L43.3948 89.2286Z" fill="black"/>
<path d="M44.4187 91.1476C44.5091 90.0286 45.3329 89.4333 46.7567 89.5476C48.1758 89.6619 48.8996 90.3905 48.8091 91.5048C48.7187 92.6238 47.8901 93.2286 46.471 93.1143C45.0472 93 44.3282 92.2714 44.4234 91.1476H44.4187ZM47.7853 91.4238C47.8329 90.8381 47.5282 90.4524 46.6901 90.381C45.8567 90.3143 45.4948 90.6429 45.4425 91.2333C45.3948 91.8286 45.7044 92.2143 46.5329 92.2857C47.3663 92.3524 47.7377 92.019 47.7853 91.4238Z" fill="black"/>
<path d="M51.1187 92.0476C51.1329 92.3333 51.4234 92.5048 52.3139 92.4571C53.1282 92.4143 53.3234 92.2762 53.3091 92.0619C53.2949 91.8143 53.1425 91.781 52.1329 91.7667C50.7568 91.7429 50.1329 91.5 50.0949 90.7476C50.0568 90.0429 50.8044 89.681 51.9758 89.6238C53.2806 89.5571 54.052 89.9095 54.1187 90.6619L53.0949 90.7143C53.0806 90.4143 52.7472 90.3191 51.9853 90.3571C51.2663 90.3952 51.1091 90.5238 51.1187 90.7048C51.1282 90.9143 51.2949 90.9714 52.2187 91C53.4663 91.0286 54.2806 91.0714 54.3282 91.9619C54.3758 92.8286 53.5853 93.1238 52.3806 93.1857C51.0091 93.2571 50.1758 92.9857 50.0806 92.0952L51.1091 92.0429L51.1187 92.0476Z" fill="black"/>
<path d="M55.7426 92.0429L56.6806 91.9048L56.7854 92.6333L55.8473 92.7714L55.7378 92.0429H55.7426Z" fill="black"/>
<path d="M59.4808 88.5381C60.6951 88.2429 61.5094 88.5952 61.8141 89.419L60.7999 89.6667C60.6618 89.3762 60.2903 89.2 59.6808 89.3476C58.9761 89.5191 58.7189 89.9476 58.857 90.5286C58.9999 91.1095 59.4332 91.3762 60.1332 91.2048C60.7427 91.0571 60.9903 90.7238 60.9761 90.3952L61.9903 90.1476C62.0999 91.0238 61.5427 91.719 60.3284 92.0143C59.0046 92.3381 58.1284 91.9 57.8522 90.7714C57.576 89.6476 58.1522 88.8619 59.4761 88.5381H59.4808Z" fill="black"/>
<path d="M63.1522 89.3952C62.7379 88.3476 63.2189 87.4476 64.5474 86.9238C65.8712 86.4 66.8427 86.7333 67.2522 87.7762C67.6665 88.8238 67.1855 89.7333 65.8617 90.2571C64.5331 90.7809 63.5665 90.4476 63.1522 89.3952ZM66.2998 88.1524C66.0855 87.6048 65.6379 87.3905 64.857 87.7C64.0808 88.0048 63.8951 88.4619 64.1141 89.0143C64.3331 89.5714 64.7855 89.7809 65.557 89.4762C66.3331 89.1714 66.5189 88.7048 66.2998 88.1524Z" fill="black"/>
<path d="M69.3381 88.6905L67.6333 85.7571L68.9571 84.9857L71.1095 86.3381L70.9952 83.8L72.319 83.0286L74.0238 85.9619L73.1762 86.4524L71.9428 84.3286L72.0762 87.0952L71.2904 87.5524L68.9524 86.0714L70.1904 88.1952L69.3381 88.6905Z" fill="black"/>
<path d="M23.019 81.8381C13.9952 74.181 8.2666 62.7571 8.2666 50C8.2666 37.2429 14.2999 25.2143 23.738 17.5619" stroke="black" stroke-miterlimit="10"/>
<path d="M76.2666 17.5667C85.7047 25.219 91.7333 36.9048 91.7333 50C91.7333 63.0952 86.0047 74.1857 76.9809 81.8429" stroke="black" stroke-miterlimit="10"/>
</g>
<defs>
<clipPath id="clip0_1124_12864">
<rect width="100" height="100" fill="white"/>
</clipPath>
</defs>
</svg>
