<svg xmlns="http://www.w3.org/2000/svg" id="Layer_2" viewBox="0 0 210 210"><g id="Layer_1-2"><g><g><path d="M175.48,34.52c-9.16-9.16-19.82-16.34-31.69-21.36-12.29-5.2-25.34-7.83-38.8-7.83s-26.51,2.63-38.8,7.83c-11.87,5.02-22.53,12.21-31.69,21.36-9.16,9.16-16.34,19.82-21.36,31.69-5.2,12.29-7.83,25.34-7.83,38.8s2.63,26.51,7.83,38.8c5.02,11.87,12.21,22.53,21.36,31.69,9.16,9.16,19.82,16.34,31.69,21.36,12.29,5.2,25.34,7.83,38.8,7.83s26.51-2.63,38.8-7.83c11.87-5.02,22.53-12.21,31.69-21.36,9.16-9.16,16.34-19.82,21.36-31.69,5.2-12.29,7.83-25.34,7.83-38.8s-2.63-26.51-7.83-38.8c-5.02-11.87-12.21-22.53-21.36-31.69Z" fill="#fff"></path><path d="M206.69,78.76c-.43-1.68-.9-3.34-1.41-4.98-.51-1.64-1.06-3.27-1.65-4.88-.29-.8-.6-1.6-.91-2.4-.63-1.59-1.29-3.16-1.99-4.71-.35-.78-.71-1.55-1.08-2.31-.74-1.53-1.51-3.04-2.32-4.53-.4-.74-.82-1.48-1.24-2.22-.84-1.47-1.72-2.91-2.63-4.33-.91-1.42-1.85-2.82-2.83-4.19-.49-.69-.98-1.37-1.49-2.04-1.01-1.35-2.05-2.67-3.12-3.97-1.6-1.94-3.28-3.83-5.02-5.65-3.48-3.65-7.21-7.04-11.18-10.16-1.98-1.56-4.02-3.05-6.12-4.46-2.09-1.42-4.24-2.76-6.44-4.02-3.66-2.11-7.47-4-11.39-5.66C133.31,2.94,119.5,0,105,0s-28.31,2.94-40.87,8.25c-3.93,1.66-7.73,3.55-11.39,5.66-2.2,1.26-4.35,2.61-6.44,4.02-2.09,1.42-4.14,2.9-6.12,4.46-3.97,3.12-7.7,6.51-11.18,10.16-1.74,1.82-3.41,3.71-5.02,5.65-1.07,1.3-2.11,2.62-3.12,3.97-.5,.67-1,1.35-1.49,2.04-.98,1.37-1.92,2.77-2.83,4.19s-1.79,2.86-2.63,4.33c-.42,.73-.83,1.47-1.24,2.22-.81,1.49-1.58,3-2.32,4.53-.37,.77-.73,1.54-1.08,2.31-.7,1.55-1.37,3.12-1.99,4.71-.31,.79-.62,1.59-.91,2.4-.59,1.61-1.14,3.23-1.65,4.88-.51,1.64-.98,3.31-1.41,4.98-2.16,8.39-3.31,17.18-3.31,26.24s1.15,17.85,3.31,26.24c.43,1.68,.9,3.34,1.41,4.98,.51,1.64,1.06,3.27,1.65,4.88,.88,2.41,1.85,4.78,2.9,7.11,1.05,2.33,2.19,4.61,3.4,6.84,1.21,2.23,2.5,4.41,3.87,6.54,.91,1.42,1.85,2.82,2.83,4.19,.49,.69,.98,1.37,1.49,2.04,1.51,2.02,3.09,3.99,4.74,5.89,1.1,1.27,2.23,2.51,3.39,3.73,3.48,3.65,7.21,7.04,11.18,10.16,1.98,1.56,4.02,3.05,6.12,4.46,5.59,3.77,11.55,7.02,17.84,9.68,12.56,5.31,26.37,8.25,40.87,8.25s28.31-2.94,40.87-8.25c6.28-2.66,12.25-5.91,17.84-9.68,2.09-1.42,4.14-2.9,6.12-4.46,3.97-3.12,7.7-6.51,11.18-10.16,1.16-1.22,2.29-2.46,3.39-3.73,1.65-1.91,3.23-3.87,4.74-5.89,.5-.67,1-1.35,1.49-2.04,.98-1.37,1.92-2.77,2.83-4.19,1.37-2.13,2.66-4.31,3.87-6.54,1.21-2.23,2.35-4.51,3.4-6.84,1.05-2.33,2.02-4.7,2.9-7.11,.59-1.61,1.14-3.23,1.65-4.88,.51-1.64,.98-3.31,1.41-4.98,2.16-8.39,3.31-17.18,3.31-26.24s-1.15-17.85-3.31-26.24Zm-9.85,65.04c-5.02,11.87-12.21,22.53-21.36,31.69-9.16,9.16-19.82,16.34-31.69,21.36-12.29,5.2-25.34,7.83-38.8,7.83s-26.51-2.63-38.8-7.83c-11.87-5.02-22.53-12.21-31.69-21.36-9.16-9.16-16.34-19.82-21.36-31.69-5.2-12.29-7.83-25.34-7.83-38.8s2.63-26.51,7.83-38.8c5.02-11.87,12.21-22.53,21.36-31.69,9.16-9.16,19.82-16.34,31.69-21.36,12.29-5.2,25.34-7.83,38.8-7.83s26.51,2.63,38.8,7.83c11.87,5.02,22.53,12.21,31.69,21.36,9.16,9.16,16.34,19.82,21.36,31.69,5.2,12.29,7.83,25.34,7.83,38.8s-2.63,26.51-7.83,38.8Z" fill="#f48120"></path></g><g><path d="M105,34.69c38.83,0,70.31,31.48,70.31,70.31s-31.48,70.31-70.31,70.31-70.31-31.48-70.31-70.31S66.17,34.69,105,34.69" fill="#231f20" fill-rule="evenodd"></path><path d="M105,34.69c38.83,0,70.31,31.48,70.31,70.31s-31.48,70.31-70.31,70.31-70.31-31.48-70.31-70.31S66.17,34.69,105,34.69" fill="#231f20" fill-rule="evenodd"></path><path d="M105,36.28c37.95,0,68.72,30.77,68.72,68.72s-30.77,68.72-68.72,68.72-68.72-30.77-68.72-68.72S67.05,36.28,105,36.28" fill="#fff" fill-rule="evenodd"></path><path d="M105,53.13c28.65,0,51.87,23.22,51.87,51.87s-23.22,51.87-51.87,51.87-51.87-23.22-51.87-51.87,23.22-51.87,51.87-51.87" fill="#231f20" fill-rule="evenodd"></path><path d="M105,54.88c27.68,0,50.12,22.44,50.12,50.12s-22.44,50.12-50.12,50.12-50.12-22.44-50.12-50.12,22.44-50.12,50.12-50.12" fill="#f48120" fill-rule="evenodd"></path><path d="M104.46,116.64c-10.23,.52-18.37,8.94-18.37,19.25s8.67,19.28,19.37,19.28,19.37-8.63,19.37-19.28c0-10.04-7.71-18.28-17.56-19.19l-1.46,1.53-1.34-1.59Z" fill="#fff" fill-rule="evenodd"></path><path d="M164.82,141.22c-35.07-38.24-84.06-39.55-119.29,.08,21.36-33.79,41.35-69.19,59.33-105.82,1.24-.9,.9-.35,1.92-.07,18.49,37.31,38.01,72.22,58.18,105.63-.07,.04-.11,.11-.13,.18" fill="#231f20" fill-rule="evenodd"></path><path d="M158.41,133.19c-33.25-30.55-74.24-30.93-107.49,1.21,20.31-32.12,37.99-63.07,55.01-97.94,17.69,35.84,33.14,64.73,52.48,96.73" fill="#439142" fill-rule="evenodd"></path><path d="M105.8,71.63c-19.92,15.59-17.55,43.17-.66,55.88,17.9-10.86,20.22-42.72,.66-55.88" fill="#231f20" fill-rule="evenodd"></path><path d="M115.63,90.1c1.64,4.13,1.8,8.17,1.39,13.18-5.76-3.97-10.6-5.9-16.36-9.87,.13-5.06,1.13-9.72,4.63-11.69,2.2,1.51,4.89,4.86,5.41,8.3,2.09,.11,2.83-.03,4.93,.08" fill="#fff100" fill-rule="evenodd"></path><path d="M108.14,115.45c10.14,1.32,17.97,9.95,17.97,20.41,0,11.37-9.26,20.58-20.68,20.58s-20.68-9.21-20.68-20.58c0-10.75,8.28-19.58,18.84-20.5,.26,.43,.54,.85,.84,1.25-10.23,.52-18.37,8.94-18.37,19.25s8.67,19.28,19.37,19.28,19.37-8.63,19.37-19.28c0-10.04-7.71-18.28-17.56-19.19,.32-.39,.62-.8,.9-1.21" fill="#231f20" fill-rule="evenodd"></path><path d="M112.1,142.45c0-.24-.03-.41-.09-.49-.06-.08-.15-.12-.28-.12s-.22,.04-.27,.12c-.06,.08-.08,.24-.08,.49v.83c0,.28,.03,.45,.09,.53,.06,.08,.16,.12,.29,.12s.23-.04,.27-.12c.05-.08,.07-.26,.07-.54v-.82Zm-.04-2.65c0-.22-.02-.36-.07-.43-.05-.07-.13-.1-.26-.1s-.21,.04-.26,.11c-.04,.08-.07,.22-.07,.42v.48c0,.19,.03,.33,.08,.4,.05,.07,.14,.11,.26,.11,.13,0,.21-.04,.26-.11,.04-.07,.07-.22,.07-.45v-.44Zm1.07,1.37c.28,.09,.5,.24,.65,.42,.15,.19,.23,.64,.23,1.34,0,.52-.06,.89-.18,1.14-.12,.24-.35,.44-.7,.6-.35,.16-.81,.23-1.4,.23s-1.02-.08-1.35-.22c-.33-.15-.57-.35-.71-.6-.14-.25-.22-.66-.22-1.23,0-.39,.04-.72,.11-1,.07-.28,.29-.51,.67-.68-.24-.1-.42-.25-.53-.45-.12-.21-.18-.47-.18-.79,0-.55,.18-.96,.55-1.24,.37-.27,.91-.41,1.64-.41,.84,0,1.43,.15,1.75,.44,.32,.29,.48,.71,.48,1.25,0,.34-.05,.59-.16,.75-.11,.15-.32,.3-.65,.45Zm-6.51,1.41v-2.71l-.84,2.71h.84Zm1.91-4.17v4.17h.54v1.09h-.54v1.12h-1.91v-1.12h-2.27v-1.09l1.65-4.17h2.53Zm-7.24,2.7c0,.27,.04,.43,.12,.5,.08,.06,.17,.09,.26,.09,.13,0,.23-.04,.29-.12,.06-.08,.09-.24,.09-.47v-1.16c0-.28-.03-.46-.09-.55-.06-.09-.16-.13-.29-.13-.08,0-.17,.03-.26,.1-.09,.07-.13,.25-.13,.54v1.19Zm-1.91,1.99h1.91c0,.3,0,.48,.01,.56,0,.08,.05,.14,.12,.2,.07,.05,.16,.08,.28,.08,.1,0,.18-.02,.24-.07,.06-.05,.1-.11,.11-.19,0-.08,.01-.24,.01-.48v-1.02c-.09,.17-.24,.3-.43,.38-.19,.09-.42,.13-.7,.13-.35,0-.66-.08-.93-.24-.27-.16-.44-.35-.51-.57-.07-.22-.11-.52-.11-.89v-.51c0-.45,.02-.78,.06-1,.04-.22,.15-.42,.33-.61,.18-.19,.42-.33,.73-.43,.31-.1,.68-.15,1.09-.15,.51,0,.93,.06,1.26,.18,.33,.12,.58,.29,.76,.51,.18,.22,.28,.46,.31,.7,.03,.24,.04,.72,.04,1.42v.89c0,.76-.01,1.27-.04,1.52-.02,.26-.13,.5-.33,.73-.19,.23-.46,.4-.79,.51-.33,.11-.71,.17-1.15,.17-.54,0-.98-.07-1.32-.22-.34-.15-.59-.35-.74-.61-.15-.26-.22-.59-.22-.99Zm-.74-4.69v6.38h-1.91v-3.42c0-.49-.01-.79-.04-.89-.03-.1-.11-.17-.23-.23-.13-.05-.41-.08-.85-.08h-.19v-.74c.92-.17,1.63-.51,2.11-1.02h1.13Z" fill="#231f20"></path><path d="M95.47,109.85c-1.64-4.13-1.84-8.88-1.43-13.9,5.76,3.97,11.52,7.94,17.28,11.91-.94,4.08-2.67,7.61-5.51,10.37-1.98-2.12-3.55-4.61-4.06-8.05-2.09-.11-4.18-.22-6.27-.33" fill="#fff100" fill-rule="evenodd"></path><path d="M98.91,126.64c.19-.2,.47-.29,.74-.31,.38-.03,.75,.1,1.06,.3,.43,.27,.78,.64,1.13,1,.26,.26,.52,.52,.83,.72-.16,.25-.31,.51-.47,.75-.48-.31-.87-.74-1.28-1.14-.25-.24-.5-.48-.8-.65-.17-.09-.38-.14-.56-.06-.05,.17-.02,.35,0,.53,.08,.56,.27,1.11,.29,1.68,.01,.3-.09,.63-.35,.81-.24,.17-.55,.15-.83,.11-.57-.09-1.07-.39-1.5-.76-.58-.49-1.06-1.08-1.63-1.58-.25-.22-.53-.43-.84-.56,.19,.41,.42,.81,.55,1.24,.08,.28,.11,.6-.04,.86-.15,.28-.47,.41-.77,.45-.46,.07-.92-.12-1.31-.35-.51-.29-.97-.69-1.51-.93,.11-.27,.21-.55,.32-.83,.52,.21,.97,.56,1.44,.86,.21,.13,.43,.26,.67,.33,.13,.04,.27,.04,.39,0-.02-.14-.06-.26-.11-.39-.16-.4-.38-.77-.54-1.17-.08-.21-.15-.44-.09-.66,.05-.21,.23-.37,.44-.41,.23-.04,.45,.02,.67,.08,.67,.2,1.22,.67,1.71,1.15,.49,.48,.94,1.02,1.51,1.42,.28,.2,.6,.35,.95,.36,0-.27-.06-.53-.12-.79-.09-.42-.2-.85-.19-1.28,0-.28,.07-.58,.27-.8m3.63,7.11c.11-.18,.31-.29,.52-.3,.59-.04,1.17,.13,1.69,.38,.95,.46,1.73,1.18,2.67,1.66,.29,.15,.61,.26,.93,.31,.07-.44,0-.9,.14-1.32,.07-.22,.22-.42,.43-.5,.21-.09,.43-.04,.64-.02,.82,.13,1.55,.54,2.24,.97,.63,.39,1.25,.82,1.96,1.07,.21,.07,.43,.12,.65,.14-.12-.37-.28-.73-.41-1.1-.07-.22-.14-.45-.11-.68,.02-.21,.14-.41,.33-.5,.16-.09,.35-.08,.53-.08,.71,.02,1.39,.22,2.04,.5,1.18,.51,2.24,1.27,3.43,1.76-.11,.28-.22,.55-.33,.83-1.11-.45-2.09-1.13-3.17-1.64-.6-.29-1.25-.52-1.92-.55,.12,.39,.3,.75,.42,1.14,.07,.23,.14,.47,.09,.72-.04,.19-.17,.37-.35,.45-.18,.09-.39,.07-.59,.06-.7-.05-1.36-.34-1.96-.68-.74-.41-1.42-.93-2.2-1.27-.29-.13-.6-.23-.92-.26-.08,.47,0,.96-.17,1.41-.1,.27-.37,.48-.66,.47-.55-.02-1.09-.22-1.58-.48-.91-.47-1.67-1.17-2.59-1.62-.31-.14-.63-.25-.97-.27,.14,.53,.4,1.02,.51,1.56,.05,.23,.06,.47-.05,.69-.1,.2-.3,.33-.52,.35-.56,.05-1.12-.08-1.64-.31-.96-.42-1.77-1.12-2.71-1.58-.32-.16-.67-.28-1.02-.32,.1,.45,.28,.88,.33,1.34,.03,.24,0,.49-.16,.68-.1,.13-.26,.21-.42,.24-.51,.08-1.03,0-1.51-.17-.63-.22-1.21-.56-1.81-.86-.41-.21-.84-.4-1.3-.49-.17-.03-.35-.05-.53-.02-.17,.06-.28,.22-.38,.36-.27,.42-.46,.89-.79,1.28-.22-.19-.45-.39-.67-.58,.35-.44,.53-.99,.89-1.43,.23-.28,.55-.49,.92-.52,.48-.03,.97,.07,1.42,.24,.61,.22,1.17,.56,1.75,.85,.53,.26,1.1,.52,1.7,.49-.08-.47-.28-.91-.34-1.39-.03-.23,0-.47,.14-.66,.12-.16,.31-.24,.51-.25,.53,0,1.04,.13,1.52,.35,.88,.4,1.63,1.02,2.48,1.47,.41,.22,.85,.39,1.32,.41-.14-.55-.41-1.05-.52-1.6-.05-.23-.05-.5,.08-.7Zm.22,11.95c.16-.21,.43-.32,.69-.3,.71,.01,1.36,.37,1.93,.77,.49,.35,.95,.75,1.46,1.07,.29,.18,.61,.33,.95,.38,.04-.43-.04-.88,.06-1.3,.05-.23,.18-.46,.39-.58,.16-.09,.34-.11,.52-.11,.5-.01,.98,.16,1.42,.38,.46,.23,.89,.52,1.36,.74,.28,.13,.59,.24,.9,.23,.15-.16,.22-.36,.33-.55,.13-.25,.29-.51,.53-.67,.23-.16,.52-.18,.79-.21,1.1-.1,2.16,.26,3.25,.35-.02,.3-.05,.59-.07,.89-.71-.05-1.4-.23-2.1-.32-.45-.06-.91-.08-1.35,.02-.06,.01-.09,.07-.12,.11-.14,.2-.22,.42-.34,.63-.12,.22-.29,.44-.52,.56-.17,.09-.37,.11-.56,.09-.54-.03-1.04-.25-1.5-.51-.44-.23-.86-.51-1.32-.69-.24-.09-.49-.16-.75-.13-.07,.44,.03,.9-.06,1.34-.04,.19-.13,.39-.29,.51-.14,.12-.33,.16-.51,.15-.53-.03-1.03-.24-1.48-.52-.53-.33-1.01-.74-1.51-1.1-.42-.3-.89-.58-1.42-.6-.1,.44-.05,.89-.12,1.34-.04,.31-.16,.63-.43,.81-.24,.16-.54,.13-.81,.12-.75-.07-1.44-.43-2.07-.82-.68-.41-1.33-.89-2.1-1.1,.05,.34,.13,.72-.05,1.04-.16,.28-.5,.37-.8,.42-.7,.09-1.35-.22-2.04-.3,.02-.3,.05-.59,.07-.89,.43,.04,.85,.17,1.27,.26,.24,.05,.48,.08,.72,.01-.01-.33-.13-.66-.08-.99,.03-.2,.16-.4,.36-.47,.2-.08,.41-.03,.61,.01,.82,.17,1.54,.64,2.25,1.08,.52,.32,1.06,.66,1.67,.8,.17,.04,.34,.06,.52,.06,.09-.3,.07-.62,.09-.94,.02-.36,.05-.74,.27-1.04Zm7.03,2.57c.48-.1,.97,.03,1.42,.22,.45,.18,.87,.42,1.34,.54-.07,.29-.13,.58-.2,.86-.6-.14-1.14-.48-1.72-.68-.23-.08-.49-.13-.74-.06,.02,.25,.12,.48,.2,.72,.09,.29,.21,.59,.16,.9-.03,.22-.18,.41-.38,.5-.16,.07-.34,.06-.51,.06-.56-.02-1.09-.2-1.59-.44-.57-.27-1.1-.61-1.66-.89-.37-.19-.77-.35-1.18-.41,.15,.29,.33,.58,.45,.88,.09,.22,.15,.47,.08,.71-.07,.21-.25,.37-.47,.43-.5,.15-1.04,.07-1.53-.11-.8-.29-1.5-.82-2.33-1.01-.27-.08-.53-.19-.81-.25-.12-.03-.25-.05-.38,0,0,.24,.14,.46,.25,.66,.17,0,.33-.04,.5-.01-.04,.29-.07,.59-.11,.88-.27,0-.55,.07-.8-.05-.2-.09-.32-.29-.42-.47-.17-.3-.31-.62-.31-.96,0-.24,.08-.49,.25-.66,.23-.22,.55-.31,.86-.29,.48,.02,.91,.25,1.36,.36,.73,.2,1.37,.62,2.06,.92,.3,.13,.63,.23,.96,.2-.13-.3-.3-.57-.45-.86-.1-.21-.2-.43-.2-.66,0-.21,.12-.41,.3-.5,.17-.1,.37-.08,.56-.08,.58,.02,1.14,.22,1.66,.48,.56,.27,1.08,.61,1.64,.89,.4,.2,.82,.36,1.27,.39-.11-.37-.27-.73-.33-1.12-.03-.24,0-.51,.15-.71,.15-.2,.4-.28,.63-.34Zm5.76-22.24c.3-.14,.65-.17,.97-.09,.33,.08,.62,.26,.88,.47,.36,.28,.67,.62,.99,.94,.21,.2,.42,.41,.67,.57-.16,.25-.31,.5-.47,.75-.63-.4-1.09-1.01-1.65-1.49-.17-.15-.36-.28-.57-.36-.13-.05-.29-.06-.42,0-.06,.25,0,.5,.04,.75,.08,.45,.22,.9,.24,1.36,.02,.27-.03,.57-.21,.78-.15,.17-.38,.26-.6,.25-.55,0-1.08-.21-1.52-.52-.8-.56-1.38-1.36-2.13-1.98-.21-.17-.43-.32-.68-.42,.2,.43,.44,.84,.56,1.3,.07,.27,.08,.57-.07,.82-.15,.26-.45,.38-.73,.43-.46,.07-.91-.1-1.3-.32-.53-.29-.99-.71-1.55-.95,.11-.28,.21-.55,.32-.83,.55,.22,1.01,.59,1.5,.9,.2,.12,.41,.25,.64,.3,.12,.03,.24,.03,.35-.01,0-.13-.06-.26-.11-.38-.15-.38-.36-.74-.53-1.12-.1-.24-.19-.52-.09-.78,.09-.24,.34-.38,.59-.37,.54,.03,1.04,.27,1.47,.59,.75,.55,1.31,1.3,2.02,1.9,.34,.28,.73,.53,1.18,.54,0-.39-.12-.76-.19-1.14-.08-.4-.16-.81-.09-1.22,.05-.29,.22-.56,.49-.69Z" fill="#282828"></path><path d="M124.43,132.55c-1.16-.48-2.2-1.11-3.35-1.59-.65-.27-1.34-.48-2.07-.54-.13,.44-.07,.91-.28,1.34-.11,.24-.35,.45-.66,.53-.43,.11-.89,.09-1.32,0-.59-.12-1.13-.35-1.68-.55-.4-.14-.83-.28-1.27-.25-.04,.25,.01,.51,.01,.76,0,.22-.03,.46-.2,.65-.15,.17-.41,.26-.67,.25-.43-.01-.86-.08-1.26-.19-1.07-.29-1.99-.82-2.98-1.23-.55-.22-1.14-.42-1.77-.44-.03,.3,.02,.6,.02,.9,0,.26-.02,.54-.21,.76-.16,.19-.45,.3-.74,.29-.83,0-1.61-.29-2.3-.63-.66-.32-1.26-.7-1.94-1-.44-.19-.93-.34-1.44-.33-.16,.23-.18,.5-.25,.76-.09,.38-.16,.79-.5,1.09-.21,.19-.52,.29-.84,.29-.66,.02-1.3-.15-1.88-.38-.67-.27-1.27-.62-1.91-.92-.44-.2-.91-.38-1.43-.42-.02,.43,.13,.86,.05,1.29-.08,.34-.12,.27-.42,.34-.75,.13-1.55,.09-2.28-.1-1.07-.28-1.99-.82-2.79-1.44,.25-.2,.51-.39,.76-.59,.5,.38,1.04,.73,1.65,.99,.61,.26,1.32,.42,2.02,.37-.02-.35-.11-.71-.04-1.07,.05-.23,.22-.46,.5-.56,.23-.09,.5-.07,.75-.05,.63,.06,1.21,.27,1.75,.52,.66,.3,1.26,.66,1.93,.93,.42,.17,.89,.3,1.37,.27,.1-.13,.14-.28,.18-.42,.1-.37,.13-.75,.32-1.1,.11-.22,.31-.43,.59-.53,.28-.11,.6-.08,.91-.06,.63,.06,1.21,.27,1.74,.52,.67,.31,1.27,.69,1.94,1,.43,.2,.9,.37,1.41,.41,.03-.29-.02-.58-.03-.88,0-.25,.01-.51,.17-.73,.14-.2,.41-.33,.7-.34,.83-.02,1.63,.2,2.36,.49,.75,.3,1.44,.67,2.19,.97,.46,.18,.95,.34,1.47,.39,0-.41-.12-.86,.12-1.25,.11-.18,.33-.32,.58-.37,.51-.09,1.04-.03,1.52,.11,.62,.17,1.18,.43,1.79,.61,.31,.09,.64,.15,.96,.09,.08-.14,.1-.3,.12-.45,.04-.32,.05-.64,.18-.94,.1-.21,.29-.41,.57-.49,.24-.07,.49-.04,.74-.01,.59,.06,1.17,.21,1.71,.4,1.07,.38,2.02,.92,3.02,1.4l.39,1.14Z" fill="#282828"></path><path d="M140.19,149.01l.42-.33c.83-.66,1.12-.28,1.63,.37,.47,.61,.85,1.1,.12,1.67l-.52,.41-1.65-2.13Zm3.87,9.43l2.13-1.68-3.12-4.03,.39-.31c.6-.47,.99-.41,1.41,.13l1.16,1.5c.48,.62,1.13,1.46,1.61,1.57l2.11-1.66c-.48-.11-1.11-.97-1.59-1.59l-1.28-1.65c-.61-.78-1.52-.95-2.39-.51l-.02-.02c.86-1.25,.46-2.08-.39-3.18-1.3-1.68-2.55-1.63-4.45-.13l-2.82,2.22,7.23,9.34Zm-10.36,2.57c1.03,1.83,2.84,2.32,4.71,1.25,1.87-1.07,2.39-2.88,1.36-4.72l-2.63-4.69c-1.13-2.01-2.95-2.25-4.71-1.25-1.75,1-2.49,2.7-1.36,4.72l2.63,4.69Zm-.39-6.24c-.2-.35-.53-.94,.15-1.33,.68-.39,1.01,.21,1.21,.56l2.86,5.1c.15,.27,.53,.94-.15,1.33-.68,.39-1.05-.28-1.21-.56l-2.86-5.1Zm-7.53,13.03l2.52-.99-1.69-4.38,1.43-.56c2.26-.89,2.01-2.73,1.38-4.35-1.11-2.89-2.43-2.91-5.2-1.83l-2.7,1.06,4.26,11.05Zm-.98-10.07l.29-.11c.85-.33,1.27-.5,1.79,.84,.38,1,.42,1.44-.39,1.76l-.63,.25-1.06-2.74Zm-10.01,8.64l.29,1.24c.28,1.2,1.46,2.67,4.07,2.06,2.75-.65,3.16-2.68,2.9-3.79-.54-2.33-1.88-2.6-3.06-3.24-1.26-.56-2.56-1.09-2.72-1.78-.12-.53,.14-.95,.7-1.08,.74-.17,.99,.5,1.12,1.08l.14,.62,2.46-.58-.24-1.04c-.41-1.78-1.67-2.67-3.96-2.13-2.11,.49-3.14,1.76-2.62,4.03,.41,1.76,1.61,2.15,2.88,2.78,1.22,.52,2.42,.95,2.66,1.97,.12,.51-.11,.97-.71,1.11-.74,.17-1.02-.37-1.16-.99l-.2-.85-2.55,.6Zm-6.34-5.54h.03s1.06,5.73,1.06,5.73l-1.35,.1,.26-5.84Zm-3.2,10.29l2.7-.21,.12-2.12,1.89-.14,.41,2.08,2.83-.22-3.09-11.65-3.58,.27-1.28,11.99Zm-6.08-5.17l-.35,4.68,2.7,.21,.36-4.87,2.72-6.79-2.74-.21-1.09,3.93h-.03s-.45-4.05-.45-4.05l-2.79-.21,1.66,7.31Zm-12.94,2.35l2.55,.58,1.6-7.15h.03s.54,7.64,.54,7.64l2.87,.65,2.59-11.56-2.55-.58-1.52,6.82h-.03s-.6-7.31-.6-7.31l-2.88-.66-2.59,11.56Zm-2.79-11.74h.03s-1.51,5.65-1.51,5.65l-1.26-.5,2.74-5.15Zm-7.3,7.87l2.52,.99,1.02-1.86,1.77,.7-.53,2.05,2.64,1.04,2.22-11.85-3.34-1.32-6.31,10.24Zm-7.05-4.13l4.9,2.83,1.13-1.98-2.55-1.48,4.72-8.3-2.35-1.36-5.84,10.28Zm.56-12l.02,.02-3.01,4.98-1.07-.83,4.06-4.17Zm-9.2,5.49l2.14,1.67,1.5-1.5,1.5,1.17-1.08,1.82,2.25,1.75,5.43-10.75-2.84-2.21-8.9,8.04Z" fill="#231f20"></path></g><g><g><g><path d="M64.49,23.81l.85,1.54-4.65,2.57,.73,1.33,4.13-2.28,.84,1.53-4.13,2.28,1.02,1.84-1.81,1-3.44-6.23,6.46-3.57Z" fill="#231f20"></path><path d="M76.23,26.51l-1.13-.99-4.06,1.65-.12,1.5-2.06,.84,.72-7.97,2.64-1.07,6.07,5.21-2.05,.83Zm-5.05-1.07l2.6-1.06-2.35-2.05-.25,3.11Z" fill="#231f20"></path><path d="M86.83,21.37l-1.23-4.95,1.99-.49,1.71,6.91-2.93,.73-5.3-3.94,1.23,4.95-2,.5-1.71-6.91,2.94-.73,5.3,3.94Z" fill="#231f20"></path><path d="M96.85,14.62l8.57-.35,.07,1.75-3.25,.13,.22,5.36-2.06,.08-.22-5.36-3.26,.13-.07-1.75Z" fill="#231f20"></path><path d="M107.92,17.84c.2-2.35,1.94-3.6,4.93-3.34,2.98,.26,4.49,1.79,4.29,4.13-.2,2.35-1.95,3.62-4.93,3.36-2.99-.26-4.49-1.79-4.29-4.15Zm7.07,.61c.11-1.23-.53-2.05-2.29-2.2-1.75-.15-2.52,.53-2.62,1.78-.11,1.25,.54,2.07,2.28,2.22,1.75,.15,2.53-.55,2.64-1.79Z" fill="#231f20"></path><path d="M129.41,17.57l-4.18,2.13,2.62,4.82-2.53-.57-1.82-3.36-1.99,1.01-.32,1.41-2.01-.46,1.57-6.95,2.02,.45-.7,3.12,4.34-2.29,3.02,.68Z" fill="#231f20"></path><path d="M139.29,20.99l-.55,1.52-5-1.81-.39,1.07,4.81,1.74-.55,1.52-4.81-1.74-.39,1.07,5,1.81-.55,1.52-6.94-2.51,2.42-6.7,6.94,2.51Z" fill="#231f20"></path><path d="M146.5,30.14l2.34-4.54,1.83,.94-3.27,6.33-2.69-1.39-1.39-6.47-2.34,4.54-1.84-.95,3.27-6.33,2.7,1.39,1.39,6.47Z" fill="#231f20"></path></g><g><path d="M57.53,179.5c-.31,.51,0,1.15,1.6,2.12,1.47,.88,1.97,.87,2.2,.49,.27-.44,.04-.69-1.7-1.9-2.37-1.66-3.16-2.81-2.35-4.16,.77-1.27,2.49-1.02,4.6,.25,2.35,1.41,3.27,2.94,2.51,4.33l-1.85-1.11c.32-.54-.14-1.1-1.51-1.92-1.3-.78-1.72-.74-1.92-.41-.23,.38,0,.67,1.57,1.8,2.14,1.52,3.5,2.55,2.54,4.15-.94,1.56-2.66,1.15-4.83-.16-2.47-1.49-3.6-2.93-2.72-4.59l1.85,1.12Z" fill="#231f20"></path><path d="M66.2,183.1c.94-2.17,2.98-2.79,5.74-1.6,2.75,1.19,3.69,3.12,2.76,5.28-.94,2.17-3,2.81-5.75,1.62-2.76-1.19-3.69-3.12-2.75-5.3Zm6.52,2.83c.49-1.14,.14-2.11-1.48-2.82-1.61-.7-2.56-.29-3.05,.85-.5,1.15-.14,2.13,1.46,2.83,1.61,.7,2.58,.28,3.07-.87Z" fill="#231f20"></path><path d="M82.54,185.26c2.52,.71,3.65,2.19,3.36,4.01l-2.11-.59c.04-.67-.45-1.38-1.72-1.73-1.47-.41-2.38,.11-2.72,1.31-.34,1.21,.18,2.14,1.64,2.55,1.27,.35,2.06,0,2.37-.61l2.11,.59c-.7,1.72-2.43,2.41-4.96,1.71-2.75-.77-3.9-2.47-3.25-4.82,.66-2.34,2.52-3.19,5.27-2.42Z" fill="#231f20"></path><path d="M91.13,187.38l-1.26,7-2.03-.37,1.26-7,2.03,.37Z" fill="#231f20"></path><path d="M93.28,191.41c.19-2.35,1.92-3.6,4.91-3.36,2.98,.24,4.5,1.77,4.31,4.11-.19,2.35-1.93,3.62-4.91,3.38-2.99-.24-4.5-1.77-4.3-4.13Zm7.07,.58c.1-1.23-.54-2.04-2.3-2.19-1.75-.14-2.51,.55-2.62,1.79-.1,1.25,.55,2.06,2.29,2.21,1.75,.14,2.53-.56,2.63-1.81Z" fill="#231f20"></path><path d="M107.35,193.3c.03,.6,.64,.96,2.51,.86,1.71-.09,2.12-.38,2.09-.83-.03-.52-.35-.59-2.47-.62-2.89-.05-4.2-.56-4.28-2.14-.08-1.48,1.49-2.24,3.95-2.36,2.74-.14,4.36,.6,4.5,2.18l-2.15,.11c-.03-.63-.73-.83-2.33-.75-1.51,.08-1.84,.35-1.82,.73,.02,.44,.37,.56,2.31,.62,2.62,.06,4.33,.15,4.43,2.02,.09,1.82-1.56,2.44-4.09,2.57-2.88,.15-4.63-.42-4.82-2.29l2.16-.11Z" fill="#231f20"></path><path d="M117.06,193.29l1.97-.29,.22,1.53-1.97,.29-.23-1.53Z" fill="#231f20"></path><path d="M124.91,185.93c2.55-.62,4.26,.12,4.9,1.85l-2.13,.52c-.29-.61-1.07-.98-2.35-.67-1.48,.36-2.02,1.26-1.73,2.48,.3,1.22,1.21,1.78,2.68,1.42,1.28-.31,1.8-1.01,1.77-1.7l2.13-.52c.23,1.84-.94,3.3-3.49,3.92-2.78,.68-4.62-.24-5.2-2.61-.58-2.36,.63-4.01,3.41-4.69Z" fill="#231f20"></path><path d="M132.62,187.72c-.87-2.2,.14-4.09,2.93-5.19,2.78-1.1,4.82-.4,5.68,1.79,.87,2.2-.14,4.11-2.92,5.21-2.79,1.1-4.82,.4-5.69-1.81Zm6.61-2.61c-.45-1.15-1.39-1.6-3.03-.95-1.63,.64-2.02,1.6-1.56,2.76,.46,1.17,1.41,1.61,3.03,.97,1.63-.64,2.02-1.62,1.56-2.78Z" fill="#231f20"></path><path d="M145.61,186.25l-3.58-6.16,2.78-1.62,4.52,2.84-.24-5.33,2.78-1.62,3.58,6.16-1.78,1.03-2.59-4.46,.28,5.81-1.65,.96-4.91-3.11,2.6,4.46-1.79,1.04Z" fill="#231f20"></path></g></g><path d="M48.34,171.86c-18.95-16.08-30.98-40.07-30.98-66.86S30.03,52.95,49.85,36.88" fill="none" stroke="#439142" stroke-miterlimit="10" stroke-width="2.22"></path><path d="M160.16,36.89c19.82,16.07,32.48,40.61,32.48,68.11s-12.03,50.79-30.98,66.87" fill="none" stroke="#439142" stroke-miterlimit="10" stroke-width="2.22"></path></g></g></g></svg>