<svg width="100" height="100" viewBox="0 0 100 100" fill="none" xmlns="http://www.w3.org/2000/svg">
<g clip-path="url(#clip0_1124_13599)">
<path d="M50 100C77.6142 100 100 77.6142 100 50C100 22.3858 77.6142 0 50 0C22.3858 0 0 22.3858 0 50C0 77.6142 22.3858 100 50 100Z" fill="#005596"/>
<path d="M49.9999 98.7333C76.9146 98.7333 98.7333 76.9147 98.7333 50C98.7333 23.0853 76.9146 1.26666 49.9999 1.26666C23.0853 1.26666 1.2666 23.0853 1.2666 50C1.2666 76.9147 23.0853 98.7333 49.9999 98.7333Z" fill="#005596"/>
<path d="M50 2.53333C76.1714 2.53333 97.4667 23.8286 97.4667 50C97.4667 76.1714 76.1714 97.4667 50 97.4667C23.8286 97.4667 2.53333 76.1714 2.53333 50C2.53333 23.8286 23.8286 2.53333 50 2.53333ZM50 0C22.3857 0 0 22.3857 0 50C0 77.6143 22.3857 100 50 100C77.6143 100 100 77.6143 100 50C100 22.3857 77.6143 0 50 0Z" fill="#005596"/>
<path d="M50 100C77.6142 100 100 77.6142 100 50C100 22.3858 77.6142 0 50 0C22.3858 0 0 22.3858 0 50C0 77.6142 22.3858 100 50 100Z" fill="#193076"/>
<path d="M50 2.53333C76.1714 2.53333 97.4667 23.8286 97.4667 50C97.4667 76.1714 76.1714 97.4667 50 97.4667C23.8286 97.4667 2.53333 76.1714 2.53333 50C2.53333 23.8286 23.8286 2.53333 50 2.53333ZM50 0C22.3857 0 0 22.3857 0 50C0 77.6143 22.3857 100 50 100C77.6143 100 100 77.6143 100 50C100 22.3857 77.6143 0 50 0Z" fill="#FFE003"/>
<path d="M71.6666 32.2667L71.5809 31.9619L71.3809 31.7143C68.0428 27.5381 58.6523 23.0619 49.9999 23.0619C41.3475 23.0619 31.9571 27.5333 28.619 31.7143L28.419 31.9619L28.3333 32.2667C26.0856 40.1476 25.4428 63.8429 49.1618 78.6714L50.0047 79.1952L50.8475 78.6714C74.5666 63.8429 73.9237 40.1476 71.6761 32.2667H71.6666Z" fill="#0060A4"/>
<path d="M50.0094 42.6524H33.857C33.857 42.6524 33.8379 37.1476 34.5855 36.0238C36.757 33.1 43.5522 30.1143 50.0094 30.1143C56.4665 30.1143 63.2617 33.1 65.4332 36.0238C66.1808 37.1476 66.1617 42.6524 66.1617 42.6524H50.0094Z" fill="#0060A4"/>
<path d="M56.3617 44.9L64.4855 53.8762C64.9046 52.6714 65.2236 51.4952 65.4665 50.3524L60.5284 44.8952H56.3569L56.3617 44.9Z" fill="#0060A4"/>
<path d="M63.6903 44.9L65.9379 47.3857C66.0332 46.519 66.0808 45.6905 66.0951 44.9H63.6855H63.6903Z" fill="#0060A4"/>
<path d="M55.6094 63.7571V66.9048C56.1475 66.4286 56.657 65.9429 57.1427 65.4571L55.6094 63.7619V63.7571Z" fill="#0060A4"/>
<path d="M55.6094 55.6571V60.2619L58.7475 63.7238C59.4522 62.9095 60.0951 62.081 60.6808 61.2571L55.6094 55.6571Z" fill="#0060A4"/>
<path d="M55.6094 47.5619V52.1667L61.9999 59.2238C62.576 58.2476 63.0856 57.2714 63.5237 56.3L55.6141 47.5619H55.6094Z" fill="#0060A4"/>
<path d="M43.657 44.9L35.5332 53.8762C35.1142 52.6714 34.7951 51.4952 34.5522 50.3524L39.4903 44.8952H43.6618L43.657 44.9Z" fill="#0060A4"/>
<path d="M36.3285 44.9L34.0761 47.3857C33.9856 46.519 33.9332 45.6905 33.9189 44.9H36.3285Z" fill="#0060A4"/>
<path d="M44.4093 63.7571V66.9048C43.8712 66.4286 43.3617 65.9429 42.876 65.4571L44.4093 63.7619V63.7571Z" fill="#0060A4"/>
<path d="M44.4094 55.6571V60.2619L41.2761 63.7238C40.5713 62.9095 39.9237 62.081 39.3428 61.2571L44.4142 55.6571H44.4094Z" fill="#0060A4"/>
<path d="M44.4093 47.5619V52.1667L38.0236 59.2238C37.4426 58.2476 36.9379 57.2714 36.4998 56.3L44.4093 47.5619Z" fill="#0060A4"/>
<path d="M70.1429 32.7C67.1476 28.9524 58.1524 24.6429 50 24.6429C41.8476 24.6429 32.8524 28.9524 29.8572 32.7C28.0619 38.9952 26.2667 62.4857 50 77.3238C73.7334 62.4857 71.9429 38.9952 70.1429 32.7ZM33.9143 44.9H36.3238L34.0715 47.3857C33.981 46.5191 33.9286 45.6905 33.9143 44.9ZM34.5429 50.3571L39.481 44.9H43.6524L35.5286 53.8762C35.1095 52.6714 34.7905 51.4952 34.5476 50.3524L34.5429 50.3571ZM44.4 66.9048C43.8619 66.4286 43.3524 65.9429 42.8667 65.4571L44.4 63.7619V66.9048ZM44.4 60.2667L41.2667 63.7286C40.5619 62.9143 39.9143 62.0857 39.3334 61.2619L44.4048 55.6619V60.2667H44.4ZM44.4 52.1714L38.0143 59.2286C37.4334 58.2524 36.9286 57.2762 36.4905 56.3048L44.4 47.5667V52.1714ZM55.6 66.9048V63.7619L57.1334 65.4571C56.6476 65.9429 56.1381 66.4286 55.6 66.9048ZM58.7381 63.7333L55.6 60.2714V55.6667L60.6715 61.2667C60.0857 62.0952 59.4429 62.919 58.7381 63.7333ZM61.9905 59.2286L55.6 52.1714V47.5667L63.5095 56.3048C63.0715 57.2762 62.5667 58.2476 61.9857 59.2286H61.9905ZM64.481 53.881L56.3572 44.9048H60.5286L65.4667 50.3619C65.2238 51.5048 64.9048 52.681 64.4857 53.8857L64.481 53.881ZM65.9334 47.3905L63.6857 44.9048H66.0953C66.081 45.6952 66.0334 46.5238 65.9381 47.3905H65.9334ZM50.0048 42.6571H33.8524C33.8524 42.6571 33.8334 37.1524 34.581 36.0286C36.7524 33.1048 43.5476 30.1191 50.0048 30.1191C56.4619 30.1191 63.2572 33.1048 65.4286 36.0286C66.1762 37.1524 66.1572 42.6571 66.1572 42.6571" fill="#FFE003"/>
<path d="M50 77.6238L49.8667 77.5381C39.619 71.1333 32.9714 62.4952 30.1095 51.8714C27.8143 43.3476 28.719 35.7667 29.6143 32.6286L29.6286 32.581L29.6619 32.5429C32.7429 28.6857 41.8571 24.3905 50.0048 24.3905C58.1524 24.3905 67.2667 28.6857 70.3476 32.5429L70.381 32.581L70.3952 32.6286C71.2905 35.7667 72.1952 43.3524 69.9 51.8714C67.0381 62.4952 60.3905 71.1286 50.1429 77.5381L50.0095 77.6238H50ZM30.0857 32.819C27.9571 40.3619 27.4286 62.8238 50 77.0238C72.5714 62.8238 72.0429 40.3619 69.9143 32.819C66.8762 29.0619 57.9762 24.9 50 24.9C42.0238 24.9 33.1286 29.0667 30.0857 32.819Z" fill="#FFF04B"/>
<path d="M46.6333 68.7238L47.7952 69.8095C48.4952 70.3095 49.2285 70.8 50 71.281C50.7809 70.7905 51.5238 70.2905 52.2381 69.7857L53.3762 68.7238V44.9048H46.6381V68.7238H46.6333Z" fill="white"/>
<path d="M54.5473 35.1C54.4426 33.981 53.9473 32.9905 53.0759 32.3524C52.1997 31.7143 51.095 31.5524 49.9997 31.8048C48.9045 31.5571 47.8092 31.7191 46.9331 32.3571C46.0569 32.9952 45.5616 33.9952 45.4616 35.1143C44.8902 36.081 44.7045 37.1714 45.0378 38.2C45.3712 39.2286 46.1712 40.0095 47.2045 40.4524C47.9426 41.2952 48.9283 41.8095 50.0092 41.8095C51.0902 41.8095 52.0807 41.2905 52.8188 40.4429C53.8521 40 54.6426 39.2238 54.9759 38.1952C55.314 37.1667 55.1235 36.0667 54.5473 35.1Z" fill="white"/>
<path d="M50.0046 32.781L50.4665 31.7952L50.0046 30.4333L49.5427 31.7952L50.0046 32.781Z" fill="white"/>
<path d="M46.3903 35.4095L45.5951 34.6667H44.1189L45.3094 35.5429L46.3903 35.4095Z" fill="white"/>
<path d="M47.7712 39.6571L46.8188 40.1857L46.3474 41.619L47.5665 40.7286L47.7712 39.6571Z" fill="white"/>
<path d="M52.2427 39.6571L52.4474 40.7238L53.657 41.6048L53.1951 40.181L52.2427 39.6571Z" fill="white"/>
<path d="M53.6235 35.4048L54.6997 35.5429L55.8807 34.6714L54.4188 34.6619L53.6235 35.4048Z" fill="white"/>
<path d="M50.0046 32.7762C50.0046 32.7762 50.2093 32.7095 50.2093 32.3333C50.2093 31.9571 50.0046 31.0191 50.0046 31.0191C50.0046 31.0191 49.7998 31.9571 49.7998 32.3333C49.7998 32.7095 50.0046 32.7762 50.0046 32.7762Z" fill="#0060A9"/>
<path d="M52.2333 39.6238C52.2333 39.6238 52.1047 39.7952 52.3238 40.1C52.5476 40.4048 53.2666 41.0429 53.2666 41.0429C53.2666 41.0429 52.8809 40.1619 52.6619 39.8571C52.4381 39.5524 52.2333 39.6238 52.2333 39.6238Z" fill="#0060A9"/>
<path d="M53.6093 35.3905C53.6093 35.3905 53.7331 35.5667 54.0902 35.4476C54.4473 35.3333 55.2759 34.8476 55.2759 34.8476C55.2759 34.8476 54.3188 34.9429 53.9616 35.0571C53.6045 35.1714 53.6045 35.3905 53.6045 35.3905H53.6093Z" fill="#0060A9"/>
<path d="M46.8474 36.5905C46.8474 34.8429 48.2617 33.4286 50.0046 33.4286C51.7474 33.4286 53.1617 34.8429 53.1617 36.5905C53.1617 38.3381 51.7474 39.7476 50.0046 39.7476C48.2617 39.7476 46.8474 38.3333 46.8474 36.5905Z" fill="#0060A9"/>
<path d="M52.0998 35.8857C52.0998 35.8857 52.1807 36.1048 52.4093 36.0571C52.7664 35.9857 52.3045 35.8143 53.4141 35.4524C53.7712 35.3381 54.1855 35.3714 54.3569 35.7476C54.5522 36.1714 54.3664 36.5286 54.1664 36.7C53.8903 36.9429 53.6569 37.7476 53.6569 37.7476C53.6569 37.7476 53.3712 38.5381 53.4522 38.8905C53.5093 39.1476 53.4522 39.5429 53.0474 39.7714C52.6903 39.9714 52.3331 39.7571 52.1141 39.4524C51.4284 38.5095 51.8998 38.6571 51.6522 38.3857C51.495 38.2143 51.3045 38.3429 51.3045 38.3429C51.3045 38.3429 51.1236 38.4857 51.2379 38.6905C51.4188 39.0095 51.4284 38.5095 52.1141 39.4571C52.3331 39.7619 52.4283 40.1667 52.1236 40.4429C51.7807 40.7571 51.3855 40.6905 51.1617 40.5571C50.8474 40.3714 50.0093 40.3952 50.0093 40.3952C50.0093 40.3952 49.176 40.3714 48.8569 40.5571C48.6331 40.6905 48.2379 40.7571 47.895 40.4429C47.5903 40.1667 47.6855 39.7571 47.9045 39.4571C48.5903 38.5143 48.6045 39.0095 48.7807 38.6905C48.895 38.4857 48.7141 38.3476 48.7141 38.3476C48.7141 38.3476 48.5188 38.219 48.3617 38.3905C48.1141 38.6571 48.5855 38.5143 47.8998 39.4571C47.6807 39.7619 47.3236 39.9762 46.9664 39.7714C46.5617 39.5429 46.4998 39.1429 46.5569 38.8905C46.6379 38.5333 46.3569 37.7429 46.3569 37.7429C46.3569 37.7429 46.1236 36.9381 45.8474 36.6952C45.6522 36.5238 45.4664 36.1667 45.6569 35.7429C45.8283 35.3667 46.2426 35.3333 46.5998 35.4476C47.7093 35.8095 47.2474 35.9809 47.6045 36.0524C47.8331 36.1 47.9141 35.8809 47.9141 35.8809C47.9141 35.8809 47.976 35.6571 47.7617 35.5619C47.4284 35.4095 47.7045 35.8048 46.5998 35.4476C46.2426 35.3333 45.9284 35.0571 46.0093 34.6571C46.0998 34.2 46.4617 34.019 46.7188 33.9952C47.0855 33.9619 47.7474 33.4476 47.7474 33.4476C47.7474 33.4476 48.4379 32.9762 48.5855 32.6429C48.6903 32.4 48.9712 32.1143 49.4331 32.1667C49.8426 32.2143 50.0045 32.6 50.0045 32.9714C50.0045 34.1381 49.7045 33.7571 49.7474 34.119C49.776 34.3524 50.0045 34.3571 50.0045 34.3571C50.0045 34.3571 50.2379 34.3476 50.2617 34.1143C50.3045 33.7524 50.0045 34.1333 50.0045 32.9667C50.0045 32.5905 50.1664 32.2095 50.576 32.1619C51.0379 32.1095 51.3188 32.3952 51.4236 32.6381C51.5664 32.9762 52.2617 33.4476 52.2617 33.4476C52.2617 33.4476 52.9236 33.9619 53.2855 33.9952C53.5474 34.019 53.9045 34.2 53.995 34.6571C54.076 35.0619 53.7617 35.3333 53.4045 35.4476C52.295 35.8095 52.576 35.4095 52.2426 35.5619C52.0331 35.6571 52.095 35.8809 52.095 35.8809L52.0998 35.8857Z" fill="white"/>
<path d="M51.5712 40.7619C51.3998 40.7619 51.2379 40.7095 51.1188 40.6381C50.8807 40.4952 50.2379 40.481 50.014 40.4905C49.7807 40.4857 49.1426 40.4952 48.9045 40.6381C48.6426 40.7952 48.2093 40.8524 47.8379 40.5143C47.6188 40.3143 47.5855 40.0667 47.6426 39.8286C47.4379 39.9571 47.1855 40 46.9283 39.8571C46.4902 39.6095 46.414 39.1762 46.4807 38.881C46.5426 38.6095 46.3569 37.9952 46.2807 37.7857C46.214 37.5619 46.0045 36.9571 45.795 36.7762C45.5664 36.5762 45.3759 36.1809 45.5855 35.7238C45.7093 35.4571 45.9331 35.3429 46.1759 35.3238C45.9712 35.1476 45.8759 34.9095 45.9283 34.6524C46.0283 34.1571 46.414 33.9524 46.714 33.9238C46.995 33.9 47.5188 33.5333 47.695 33.3952C47.8855 33.2667 48.395 32.881 48.5045 32.6238C48.6236 32.3429 48.9331 32.0381 49.4426 32.1C49.6998 32.1286 49.8998 32.2905 50.0045 32.5381C50.0998 32.3095 50.2759 32.1286 50.5664 32.0952C51.0664 32.0381 51.3855 32.3429 51.5045 32.619C51.614 32.8762 52.1236 33.2619 52.3093 33.3905C52.495 33.5333 53.0188 33.8952 53.295 33.9238C53.5998 33.9524 53.9855 34.1571 54.0855 34.6524C54.1426 34.9429 54.0283 35.1667 53.8426 35.3238C54.114 35.3476 54.3283 35.4857 54.4379 35.7238C54.6474 36.1809 54.4569 36.5762 54.2283 36.7762C54.0236 36.9571 53.814 37.5429 53.7474 37.7714V37.7905C53.6664 38.0048 53.4807 38.6143 53.5426 38.8857C53.6093 39.181 53.5331 39.6143 53.095 39.8619C52.8379 40.0048 52.5902 39.9667 52.3807 39.8381C52.4426 40.1 52.3807 40.3524 52.1855 40.5286C51.9855 40.7095 51.7712 40.7762 51.5712 40.7762V40.7619ZM50.1188 40.3143C50.3617 40.3143 50.9379 40.3333 51.2045 40.4905C51.414 40.6143 51.7664 40.6619 52.0664 40.3857C52.3378 40.1381 52.2331 39.7714 52.0426 39.5143C51.6331 38.9476 51.4855 38.9286 51.395 38.919C51.3093 38.9048 51.2379 38.8857 51.1569 38.7429C51.0379 38.5333 51.1617 38.3524 51.2426 38.2857C51.3379 38.2238 51.5474 38.1571 51.7093 38.3381C51.8188 38.4571 51.8188 38.5286 51.8045 38.6143C51.7902 38.7 51.7664 38.8476 52.1759 39.4095C52.3664 39.6667 52.6759 39.881 52.9998 39.7C53.3569 39.5 53.4188 39.1476 53.3664 38.9143C53.2855 38.5524 53.5379 37.819 53.5712 37.7286C53.5807 37.6905 53.814 36.8952 54.1093 36.6381C54.2902 36.4762 54.4474 36.1571 54.2759 35.7857C54.1236 35.4524 53.7426 35.4381 53.4379 35.5381C52.7759 35.7524 52.7045 35.8905 52.6664 35.9714C52.6283 36.0524 52.5855 36.1095 52.4236 36.1429C52.1807 36.1952 52.0521 36.019 52.014 35.919C51.9855 35.8095 51.9902 35.5905 52.2093 35.4905C52.3569 35.4238 52.4236 35.4429 52.5045 35.481C52.5855 35.519 52.7188 35.5857 53.3807 35.3714C53.6855 35.2714 53.9855 35.0381 53.914 34.681C53.8331 34.281 53.5236 34.1143 53.2807 34.0905C52.895 34.0571 52.2379 33.5476 52.2093 33.5286C52.1855 33.5095 51.495 33.0429 51.3426 32.6857C51.2474 32.4619 50.9902 32.219 50.5855 32.2619C50.2236 32.3048 50.0902 32.6619 50.0902 32.981C50.0902 33.681 50.195 33.7905 50.2617 33.8524C50.3236 33.9143 50.3664 33.9714 50.3474 34.1333C50.3188 34.3762 50.114 34.4476 50.0093 34.4524C49.895 34.4524 49.6902 34.381 49.6617 34.1381C49.6426 33.9762 49.6855 33.919 49.7474 33.8524C49.8093 33.7857 49.9188 33.6762 49.9188 32.9762C49.9188 32.6571 49.7902 32.3 49.4236 32.2571C49.014 32.2095 48.7617 32.4524 48.6664 32.6809C48.514 33.0381 47.8283 33.5048 47.7998 33.5238C47.7759 33.5429 47.1188 34.0524 46.7331 34.0857C46.4902 34.1095 46.1807 34.2762 46.0998 34.6762C46.0283 35.0381 46.3283 35.2714 46.6331 35.3667C47.295 35.5809 47.4331 35.5143 47.514 35.4762C47.5902 35.4381 47.6617 35.419 47.8093 35.4857C48.0283 35.5857 48.0379 35.8048 48.0093 35.9095C47.9712 36.0143 47.8426 36.1905 47.5998 36.1429C47.4379 36.1095 47.395 36.0524 47.3569 35.9714C47.314 35.8905 47.2474 35.7524 46.5855 35.5381C46.2807 35.4381 45.8998 35.4524 45.7474 35.7857C45.5759 36.1571 45.7331 36.4762 45.914 36.6381C46.195 36.8857 46.4236 37.6381 46.4474 37.719C46.4617 37.7524 46.7379 38.5381 46.6521 38.9143C46.5998 39.1524 46.6617 39.5 47.0188 39.7C47.3426 39.881 47.6521 39.6667 47.8426 39.4095C48.2521 38.8429 48.2283 38.7 48.214 38.6143C48.1998 38.5286 48.1998 38.4571 48.3093 38.3381C48.4712 38.1571 48.6855 38.2238 48.7712 38.281C48.8617 38.3476 48.9855 38.5286 48.8664 38.7381C48.7855 38.881 48.7188 38.9 48.6283 38.9143C48.5379 38.9286 48.3902 38.9476 47.9807 39.5095C47.7902 39.7667 47.6855 40.1333 47.9569 40.381C48.2569 40.6571 48.6093 40.6095 48.8188 40.4857C49.1521 40.2905 49.9807 40.3095 50.014 40.3143C50.0188 40.3143 50.0617 40.3143 50.1236 40.3143H50.1188ZM48.5569 38.3905C48.514 38.3905 48.4664 38.4048 48.4236 38.4524C48.3617 38.519 48.3617 38.5381 48.3712 38.5857C48.3807 38.6429 48.3902 38.7143 48.3521 38.8381C48.4617 38.7619 48.5379 38.7524 48.595 38.7429C48.6474 38.7381 48.6617 38.7333 48.7045 38.6524C48.7807 38.5143 48.6664 38.4238 48.6569 38.419C48.6474 38.4143 48.6045 38.3905 48.5569 38.3905ZM51.4569 38.3905C51.4045 38.3905 51.3617 38.4143 51.3474 38.4238C51.3426 38.4286 51.2331 38.5238 51.3093 38.6571C51.3569 38.7381 51.3664 38.7381 51.4188 38.7476C51.4759 38.7571 51.5521 38.7667 51.6569 38.8429C51.6188 38.7143 51.6283 38.6429 51.6379 38.5857C51.6474 38.5381 51.6474 38.5238 51.5855 38.4524C51.5426 38.4048 51.495 38.3905 51.4569 38.3905ZM47.3283 35.7C47.4379 35.781 47.4712 35.8476 47.495 35.9048C47.5188 35.9524 47.5236 35.9667 47.6188 35.9857C47.7759 36.019 47.8283 35.8762 47.8283 35.8667C47.8283 35.8571 47.8617 35.719 47.7236 35.6524C47.6379 35.6143 47.6236 35.619 47.5759 35.6429C47.5236 35.6667 47.4569 35.7 47.3283 35.7ZM52.1759 35.8619C52.1902 35.8952 52.2474 36.0048 52.3902 35.9762C52.4807 35.9571 52.4902 35.9429 52.514 35.8952C52.5426 35.8429 52.5759 35.7762 52.6807 35.6952C52.5474 35.6952 52.4807 35.6619 52.4283 35.6381C52.3807 35.6143 52.3664 35.6095 52.2807 35.6476C52.1474 35.7095 52.1712 35.8381 52.1807 35.8619H52.1759ZM49.9998 33.7524C49.9569 33.8809 49.9045 33.9333 49.8617 33.9762C49.8236 34.0143 49.814 34.0286 49.8236 34.119C49.8426 34.2667 49.9759 34.2809 49.9998 34.2809C50.0188 34.2809 50.1521 34.2619 50.1664 34.1143C50.1759 34.019 50.1664 34.0095 50.1283 33.9714C50.0855 33.9286 50.0379 33.8762 49.995 33.7524H49.9998Z" fill="#0060A9"/>
<path d="M50.0096 35.881L50.6524 36.3238L50.4048 37.1619H49.5429L49.3381 36.3238L50.0096 35.881Z" fill="#FFDF1C"/>
<path d="M50.4333 37.2H49.5142L49.5047 37.1714L49.2952 36.3048L50.0095 35.8333L50.6952 36.3048L50.6856 36.3333L50.4333 37.2ZM49.5714 37.1238H50.3761L50.6047 36.3381L50.0047 35.9286L49.3761 36.3429L49.5666 37.1286L49.5714 37.1238Z" fill="#0060A9"/>
<path d="M49.3238 36.3571L48.6809 36.0714L48.7142 36.0048L49.3523 36.2857L49.3238 36.3571Z" fill="#0060A9"/>
<path d="M50.0474 35.1333H49.9712V35.881H50.0474V35.1333Z" fill="#0060A9"/>
<path d="M50.6475 36.4143L50.6284 36.3381L51.3046 36.1476L51.3284 36.219L50.6475 36.4143Z" fill="#0060A9"/>
<path d="M49.1759 37.7143L49.114 37.6714L49.4997 37.1333L49.5616 37.1762L49.1759 37.7143Z" fill="#0060A9"/>
<path d="M50.7809 37.719L50.3237 37.1857L50.3809 37.1381L50.838 37.6714L50.7809 37.719Z" fill="#0060A9"/>
<path d="M49.4572 34.9905L50.0048 35.1429L50.5762 34.9857L50.5905 34.7762C50.5905 34.7762 50.1953 34.6428 49.9857 34.6524C49.8476 34.6524 49.4429 34.7429 49.4429 34.7429L49.4524 34.9905H49.4572Z" fill="#FFDF1C"/>
<path d="M50.0094 35.1809L49.4237 35.019L49.4094 34.7095H49.4428C49.4428 34.7095 49.8523 34.6143 49.9951 34.6095C50.2094 34.6048 50.5951 34.7333 50.6094 34.7381L50.638 34.7476L50.6189 35.0095L50.0142 35.1762L50.0094 35.1809ZM49.4951 34.9619L50.0094 35.1048L50.5428 34.9571L50.5523 34.8048C50.4618 34.7762 50.1761 34.6905 50.0047 34.6905C50.0047 34.6905 49.9951 34.6905 49.9904 34.6905C49.8809 34.6905 49.5809 34.7524 49.4856 34.7762L49.4951 34.9667V34.9619Z" fill="#0060A9"/>
<path d="M51.3427 35.6095L51.3284 36.1952L51.6427 36.6952L51.8903 36.6333C51.8903 36.6333 51.9046 36.1762 51.8474 36.0476C51.795 35.919 51.5903 35.5143 51.5903 35.5143L51.3379 35.6048L51.3427 35.6095Z" fill="#FFDF1C"/>
<path d="M51.6236 36.7381L51.2903 36.2048V36.1952L51.3093 35.5857L51.6189 35.4762L51.6331 35.5048C51.6331 35.5048 51.8331 35.9095 51.8903 36.0381C51.9474 36.1714 51.9331 36.5905 51.9331 36.6381V36.6667L51.6284 36.7381H51.6236ZM51.3617 36.181L51.657 36.6476L51.8522 36.6C51.8522 36.4571 51.8522 36.1524 51.8141 36.0619C51.7712 35.9571 51.6236 35.6571 51.576 35.5619L51.3808 35.6333L51.3665 36.181H51.3617Z" fill="#0060A9"/>
<path d="M51.3713 37.4952L50.8284 37.719L50.4951 38.1714L50.6237 38.3762C50.6237 38.3762 51.0761 38.1952 51.1713 38.0952C51.2713 37.9857 51.5665 37.6905 51.5665 37.6905L51.3761 37.4952H51.3713Z" fill="#FFDF1C"/>
<path d="M50.6094 38.419L50.4475 38.1667L50.8047 37.6857H50.8142L51.3761 37.4476L51.6142 37.6905L51.5904 37.719C51.5904 37.719 51.2999 38.0143 51.1951 38.1238C51.0999 38.2286 50.6808 38.3952 50.638 38.4143L50.6094 38.4238V38.419ZM50.5427 38.1667L50.6427 38.3238C50.7808 38.2667 51.0761 38.1381 51.1427 38.0667C51.2285 37.9762 51.438 37.7619 51.5094 37.6857L51.3618 37.5333L50.8523 37.7429L50.538 38.1667H50.5427Z" fill="#0060A9"/>
<path d="M49.4999 38.1571L49.1237 37.7191L48.6237 37.4714L48.438 37.6714C48.438 37.6714 48.7523 38.0572 48.8713 38.1191C48.9951 38.1857 49.3713 38.3572 49.3713 38.3572L49.4999 38.1524V38.1571Z" fill="#FFDF1C"/>
<path d="M49.3856 38.4095L49.357 38.3952C49.357 38.3952 48.9761 38.219 48.857 38.1571C48.7285 38.0905 48.4428 37.7381 48.4094 37.7L48.3904 37.6762L48.619 37.4286L49.157 37.7L49.5523 38.1619L49.3904 38.4143L49.3856 38.4095ZM48.4856 37.6762C48.5856 37.7952 48.7999 38.0429 48.8904 38.0905C48.9904 38.1429 49.2666 38.2714 49.357 38.3143L49.4523 38.1619L49.0999 37.7476L48.6285 37.5143L48.4856 37.6714V37.6762Z" fill="#0060A9"/>
<path d="M48.3284 36.4905L48.6951 36.0381L48.7522 35.4476L48.5618 35.3571C48.5618 35.3571 48.2856 35.7191 48.2427 35.8524C48.1903 36.0143 48.0999 36.4095 48.0999 36.4095L48.3237 36.4857L48.3284 36.4905Z" fill="#FFDF1C"/>
<path d="M48.3426 36.5333L48.0569 36.4333L48.0664 36.4C48.0664 36.4 48.1569 36.0048 48.2093 35.8381C48.2521 35.7 48.5236 35.3429 48.5378 35.3286L48.5569 35.3048L48.7997 35.419V35.4476L48.7378 36.0476L48.3426 36.5286V36.5333ZM48.1474 36.3857L48.314 36.4429L48.6569 36.019L48.7093 35.4667L48.5712 35.4C48.4855 35.5143 48.3045 35.7667 48.2759 35.8619C48.2331 35.9952 48.1664 36.2857 48.1426 36.381L48.1474 36.3857Z" fill="#0060A9"/>
<path d="M50.0094 38.5286C48.9237 38.5286 48.0427 37.6476 48.0427 36.5619C48.0427 35.4762 48.9237 34.5952 50.0094 34.5952C51.0951 34.5952 51.9761 35.4762 51.9761 36.5619C51.9761 37.6476 51.0951 38.5286 50.0094 38.5286ZM50.0094 34.7381C49.0046 34.7381 48.1856 35.5571 48.1856 36.5619C48.1856 37.5667 49.0046 38.3857 50.0094 38.3857C51.0142 38.3857 51.8332 37.5667 51.8332 36.5619C51.8332 35.5571 51.0142 34.7381 50.0094 34.7381Z" fill="#0060A9"/>
<path d="M47.2713 32.7714L48.2618 32.281L47.5046 33.0857L46.5046 33.5571L47.2713 32.7714Z" fill="#0060A9"/>
<path d="M49.9807 41.2L48.895 41.019L49.9807 40.8143L51.0664 41.0143L49.9807 41.2Z" fill="#0060A9"/>
<path d="M54.4237 38L53.9094 38.9762L54.0523 37.881L54.5809 36.9095L54.4237 38Z" fill="#0060A9"/>
<path d="M52.7474 32.7857L53.5189 33.5714L52.5189 33.1L51.7617 32.3L52.7474 32.7857Z" fill="#0060A9"/>
<path d="M45.5664 37.9714L45.4045 36.881L45.9331 37.8476L46.076 38.9476L45.5664 37.9714Z" fill="#0060A9"/>
<path d="M46.4095 35.3905C46.4095 35.3905 46.4095 35.1762 46.0523 35.0571C45.6952 34.9429 44.738 34.8476 44.738 34.8476C44.738 34.8476 45.5666 35.3333 45.9238 35.4476C46.2809 35.5619 46.4047 35.3905 46.4047 35.3905H46.4095Z" fill="#0060A9"/>
<path d="M47.7855 39.6238C47.7855 39.6238 47.5808 39.5571 47.3617 39.8619C47.1379 40.1667 46.7522 41.0476 46.7522 41.0476C46.7522 41.0476 47.4712 40.4095 47.6903 40.1048C47.9093 39.8 47.7855 39.6286 47.7855 39.6286V39.6238Z" fill="#0060A9"/>
<path d="M52.7427 49.819C52.7427 49.7571 52.657 49.7857 52.6237 49.819C52.5904 49.8524 51.9713 50.4381 51.5475 50.4524C51.1237 50.4667 50.4856 50.4524 49.6951 50.0429C49.9523 49.6095 50.4904 48.6619 50.7332 47.7476C51.4951 47.6143 52.0999 47.2143 52.338 46.9048C52.6046 46.5571 52.7094 46.0857 52.5046 45.8809C52.1046 45.4809 51.0665 45.5286 50.4761 46.6571C50.3523 46.8952 50.238 47.1476 50.1332 47.4048C49.8808 47.3762 49.6237 47.2476 49.5761 47.2048C49.5189 47.1571 49.4808 47.1333 49.4904 47.1952C49.4999 47.2571 49.4808 47.3286 49.4808 47.3286C49.4808 47.3286 49.4427 47.4143 49.5046 47.4381C49.6808 47.5381 49.8665 47.5952 50.0475 47.6143C49.6856 48.519 49.4094 49.4476 49.1427 49.9143C48.8665 49.7952 48.4427 49.7667 48.1284 49.8571C47.8142 49.9524 47.2427 50.2286 47.2951 50.7238C47.3523 51.219 48.2618 51.1857 48.3427 51.181C48.4189 51.1714 48.9856 51.0952 49.3951 50.4905C50.0094 50.9 50.5189 51.1286 50.9713 51.119C51.4284 51.1095 52.2523 50.9857 52.7427 50.0571C52.7665 50.0095 52.7523 49.8667 52.7523 49.8048L52.7427 49.819ZM51.1808 46.319C51.2999 46.1762 51.6284 45.9238 51.8951 46.1762C52.1618 46.4286 51.8332 46.8762 51.7618 46.9381C51.3475 47.2905 50.7856 47.3857 50.7856 47.3857C50.8713 47.119 51.0618 46.4571 51.1761 46.3143L51.1808 46.319ZM47.9761 50.7476C47.8904 50.7476 47.4951 50.6476 47.7475 50.2905C47.9999 49.9381 48.4856 49.9667 48.8189 50.2048C48.457 50.8238 48.0618 50.7476 47.9761 50.7476Z" fill="#0060A9"/>
<path d="M52.4379 52.6857C52.4855 52.6238 52.5236 52.4952 52.4617 52.4952C52.3998 52.4952 52.0903 52.4524 51.9665 52.4381C51.8379 52.4238 51.8474 52.4476 51.8046 52.5095C51.7617 52.5714 51.5426 52.9857 51.395 53.2857C51.2474 53.5857 50.5665 55.0238 50.1379 55.9619C49.7093 56.9 49.0522 56.981 48.7855 56.9571C48.5188 56.9333 48.4046 56.6429 48.5903 56.1429C48.7807 55.6476 50.1855 53.3619 50.2093 53.0857C50.2379 52.8095 50.1665 52.4905 49.6046 52.3524C48.8855 52.1762 48.4188 52.7667 48.395 52.8C48.3712 52.8381 48.2855 52.9143 48.3093 52.9524C48.3331 52.9905 48.3522 53.0333 48.3903 53.0571C48.4284 53.0857 48.4379 53.1429 48.5046 53.0381C48.7188 52.6857 49.1141 52.4762 49.3855 52.5905C49.6569 52.7048 49.4855 53.1524 49.395 53.3333C49.3046 53.5143 48.4665 55.0048 48.0236 55.6857C47.8712 55.9143 47.3046 57.2333 48.4093 57.3905C49.4046 57.5286 49.9093 56.8381 50.0569 56.6143C50.0665 57.0524 50.5331 57.4333 50.8617 57.4762C51.3093 57.5381 51.6522 57.3667 51.8046 57.0714C51.9855 56.719 51.8236 56.3619 51.8046 56.3238C51.7903 56.2857 51.7331 56.2667 51.6712 56.2905C51.6093 56.3095 51.5474 56.3429 51.5474 56.3429C51.5474 56.3429 51.5188 56.3571 51.5284 56.3857C51.5379 56.419 51.5903 56.5429 51.5617 56.6952C51.5046 56.9905 51.1236 56.9619 50.9998 56.9286C50.9284 56.9095 50.576 56.7667 50.7665 56.181C50.9522 55.5952 52.3903 52.7381 52.4379 52.6762V52.6857Z" fill="#0060A9"/>
<path d="M51.6809 64.0048C51.5714 63.9667 50.9238 63.7571 50.0381 64.3191C49.1714 64.8667 48.2142 65.7857 48.0047 67.2333C47.7952 68.681 48.8 69.1952 48.9142 69.2238C49.0285 69.2571 49.9952 69.6286 50.6619 68.781C51.0571 68.281 51.0571 68.1476 51.0904 68.0667C51.119 67.9857 50.9761 67.8905 50.9142 67.9857C50.8476 68.081 50.4809 68.6286 50.2047 68.7714C49.9333 68.9143 49.3619 68.9857 49.119 68.6429C48.8619 68.2714 48.8142 67.7381 48.9428 67.2048C49.0714 66.6762 49.4809 65.4381 50.2523 64.7809C51.0238 64.1238 51.5047 64.1619 51.6666 64.2762C51.8285 64.3905 51.919 64.7857 51.7952 65.0286C51.7476 65.119 51.9047 65.2381 51.9762 65.1238C52.2619 64.6714 51.9619 64.1048 51.6857 64.0048H51.6809Z" fill="#0060A9"/>
<path d="M52.7951 58.4571C52.7713 58.4095 52.7094 58.4048 52.6713 58.4762C52.6332 58.5429 52.5284 58.7143 52.3189 58.7524C51.6808 58.8809 51.1808 58.819 50.4665 58.7762C49.7522 58.7333 48.8189 58.7952 48.5522 59.1333C48.2856 59.4714 48.3951 59.7095 48.4475 59.8095C48.5284 59.9524 48.6903 60.0762 48.9189 60.1381C49.1475 60.2048 49.3189 60.1476 49.3999 60.0905C49.4761 60.0381 49.3427 59.9714 49.2951 59.9429C49.2475 59.9143 48.9427 59.8429 48.9332 59.7C48.9332 59.6381 48.9665 59.4571 49.1522 59.3714C49.3427 59.2857 49.7856 59.2381 50.1665 59.2857C50.1522 59.6571 49.9284 60.6286 49.7665 60.9809C49.5237 60.9809 48.7475 61.0238 48.5713 61.4857C48.4856 61.7143 48.557 61.9095 48.6332 61.9762C48.7142 62.0381 48.7665 62.0333 48.7665 61.9524C48.7665 61.8714 48.7761 61.7143 48.8522 61.6286C48.9284 61.5429 49.238 61.4095 49.6522 61.4857C49.5189 61.9571 49.1189 63.1476 48.6903 63.3667C48.2665 63.5857 47.9951 63.4238 47.9618 63.3714C47.8856 63.2667 47.8618 63.1667 47.8618 63.1143C47.8618 63.0619 47.7094 62.8857 47.6618 63.1286C47.6142 63.3714 47.8427 63.7381 48.2046 63.8286C48.8427 63.9905 49.2142 63.6143 49.3284 63.519C49.4475 63.4238 50.0761 62.7952 50.4046 61.5571C50.6713 61.5905 51.057 61.581 51.2046 61.519C51.5522 61.3714 51.6808 61.1429 51.7046 61C51.7284 60.8571 51.7189 60.7429 51.6856 60.6714C51.6522 60.6 51.5475 60.5 51.5284 60.5857C51.5142 60.6714 51.5284 60.8238 51.3808 60.9333C51.338 60.9667 51.1094 61.1476 50.5427 61.0524C50.6522 60.7048 50.9189 59.3238 50.9189 59.3238C51.2189 59.3476 51.8761 59.3 52.0761 59.2476C52.2713 59.1905 52.6284 59.0333 52.7427 58.8C52.8284 58.6286 52.8142 58.5143 52.7856 58.4667L52.7951 58.4571Z" fill="#0060A9"/>
<path d="M59.5712 77.2476C59.5712 76.4762 60.1474 75.8857 60.8998 75.8857C61.6522 75.8857 62.2189 76.481 62.2189 77.2476C62.2189 78.0143 61.6427 78.6286 60.8998 78.6286C60.157 78.6286 59.5712 78.0333 59.5712 77.2476ZM59.2808 77.2476C59.2808 78.1714 60.0189 78.8667 60.9046 78.8667C61.7903 78.8667 62.5189 78.1762 62.5189 77.2476C62.5189 76.3191 61.7808 75.6476 60.9046 75.6476C60.0284 75.6476 59.2808 76.3381 59.2808 77.2476ZM60.276 78.1952H60.5665V77.3857H60.876L61.3855 78.1952H61.6998L61.1617 77.3667C61.4379 77.3381 61.6522 77.1952 61.6522 76.8571C61.6522 76.4952 61.4427 76.3191 60.995 76.3191H60.2712V78.2L60.276 78.1952ZM60.5665 76.5524H60.9522C61.1522 76.5524 61.3665 76.5905 61.3665 76.8381C61.3665 77.1333 61.1284 77.1476 60.8712 77.1476H60.5665V76.5524Z" fill="#0060A3"/>
<path d="M30.7095 11.3381L31.1143 12.0714L28.9 13.2952L29.2476 13.9286L31.2143 12.8429L31.6143 13.5714L29.6476 14.6572L30.1333 15.5333L29.2714 16.0095L27.6333 13.0429L30.7095 11.3429V11.3381Z" fill="white"/>
<path d="M36.3001 12.6238L35.762 12.1524L33.8286 12.9381L33.7715 13.6524L32.7905 14.0524L33.1334 10.2571L34.3905 9.74762L37.281 12.2286L36.3048 12.6238H36.3001ZM33.8953 12.1143L35.1334 11.6095L34.0143 10.6333L33.8953 12.1095V12.1143Z" fill="white"/>
<path d="M41.3476 10.1762L40.7619 7.81906L41.7095 7.58572L42.5238 10.8762L41.1286 11.2238L38.6048 9.34763L39.1905 11.7048L38.2381 11.9429L37.4238 8.65239L38.8238 8.30477L41.3476 10.181V10.1762Z" fill="white"/>
<path d="M46.1189 6.96191L50.1998 6.79524L50.2332 7.62858L48.6856 7.69048L48.7903 10.2429L47.8094 10.281L47.7046 7.72858L46.1522 7.79048L46.1189 6.95715V6.96191Z" fill="white"/>
<path d="M51.3905 8.49525C51.4857 7.3762 52.3143 6.78096 53.7381 6.90477C55.1572 7.02858 55.8762 7.75715 55.781 8.87144C55.6857 9.99049 54.8524 10.5905 53.4334 10.4714C52.0096 10.3476 51.2953 9.61906 51.3905 8.49525ZM54.7572 8.78572C54.8096 8.20001 54.5048 7.80953 53.6667 7.73811C52.8334 7.66668 52.4667 7.99049 52.4191 8.58572C52.3667 9.18096 52.6762 9.57144 53.5048 9.64287C54.3381 9.7143 54.7096 9.38096 54.7619 8.79049L54.7572 8.78572Z" fill="white"/>
<path d="M61.6191 8.36667L59.6239 9.38095L60.8715 11.6762L59.6667 11.4048L58.8001 9.80476L57.8524 10.2857L57.7001 10.9571L56.7429 10.7429L57.4905 7.43333L58.4524 7.65238L58.1191 9.1381L60.1858 8.04762L61.6239 8.37143L61.6191 8.36667Z" fill="white"/>
<path d="M66.3286 9.99524L66.0667 10.7191L63.6858 9.85715L63.5 10.3667L65.7905 11.1952L65.5286 11.9191L63.2381 11.0905L63.0524 11.6L65.4334 12.4619L65.1715 13.1857L61.8667 11.9905L63.0191 8.8L66.3238 9.99524H66.3286Z" fill="white"/>
<path d="M69.7618 14.3524L70.8761 12.1905L71.7476 12.6381L70.1904 15.6524L68.9095 14.9905L68.2476 11.9095L67.1333 14.0714L66.2571 13.6191L67.8142 10.6048L69.0999 11.2667L69.7618 14.3476V14.3524Z" fill="white"/>
<path d="M27.3953 85.4762C27.2476 85.719 27.3953 86.0238 28.1572 86.4857C28.8572 86.9048 29.0953 86.9 29.2048 86.719C29.3334 86.5095 29.2238 86.3905 28.3953 85.8143C27.2667 85.0238 26.8905 84.4762 27.2762 83.8333C27.6429 83.2286 28.4619 83.3476 29.4667 83.9524C30.5857 84.6238 31.0238 85.3524 30.6619 86.0143L29.781 85.4857C29.9334 85.2286 29.7143 84.9619 29.0619 84.5714C28.4429 84.2 28.2429 84.219 28.1476 84.3762C28.0381 84.5571 28.1476 84.6952 28.8953 85.2333C29.9143 85.9571 30.5619 86.4476 30.1048 87.2095C29.6572 87.9524 28.8381 87.7571 27.8048 87.1333C26.6286 86.4238 26.0905 85.7381 26.5096 84.9476L27.3905 85.4809L27.3953 85.4762Z" fill="white"/>
<path d="M31.5238 87.1905C31.9714 86.1571 32.9428 85.8619 34.2571 86.4286C35.5667 86.9952 36.0143 87.9143 35.5714 88.9429C35.1238 89.9762 34.1428 90.281 32.8333 89.7143C31.519 89.1476 31.0762 88.2286 31.5238 87.1905ZM34.6286 88.5381C34.8619 87.9952 34.6952 87.5333 33.9238 87.1952C33.1571 86.8619 32.7047 87.0571 32.4714 87.6C32.2333 88.1476 32.4047 88.6143 33.1667 88.9476C33.9333 89.281 34.3952 89.081 34.6286 88.5333V88.5381Z" fill="white"/>
<path d="M39.2952 88.2143C40.4952 88.5524 41.0333 89.2571 40.8952 90.1238L39.8905 89.8429C39.9095 89.5238 39.6762 89.1857 39.0714 89.0191C38.3714 88.8238 37.9381 89.0714 37.7762 89.6429C37.6143 90.2191 37.8619 90.6619 38.5571 90.8571C39.1619 91.0238 39.5381 90.8571 39.6857 90.5667L40.6905 90.8476C40.3571 91.6667 39.5333 91.9952 38.3286 91.6619C37.019 91.2952 36.4714 90.4857 36.7809 89.3667C37.0952 88.2524 37.9809 87.8476 39.2905 88.2143H39.2952Z" fill="white"/>
<path d="M43.3953 89.2286L42.7953 92.5619L41.8286 92.3857L42.4286 89.0524L43.3953 89.2286Z" fill="white"/>
<path d="M44.4191 91.1476C44.5096 90.0286 45.3334 89.4333 46.7572 89.5476C48.1763 89.6619 48.9001 90.3905 48.8049 91.5048C48.7144 92.6238 47.8858 93.2286 46.462 93.1143C45.0382 93 44.3191 92.2714 44.4144 91.1476H44.4191ZM47.7858 91.4238C47.8334 90.8381 47.5287 90.4524 46.6906 90.381C45.8572 90.3143 45.4953 90.6429 45.443 91.2333C45.3953 91.8286 45.7049 92.2143 46.5334 92.2857C47.3668 92.3524 47.7382 92.019 47.7858 91.4238Z" fill="white"/>
<path d="M51.119 92.0476C51.1333 92.3333 51.4238 92.5048 52.3143 92.4571C53.1286 92.4143 53.3238 92.2762 53.3095 92.0619C53.2952 91.8143 53.1428 91.781 52.1333 91.7667C50.7571 91.7429 50.1333 91.5 50.0952 90.7476C50.0571 90.0429 50.8047 89.681 51.9762 89.6238C53.2809 89.5571 54.0524 89.9095 54.119 90.6619L53.0952 90.7143C53.0809 90.4143 52.7476 90.3191 51.9857 90.3571C51.2666 90.3952 51.1095 90.5238 51.119 90.7048C51.1285 90.9143 51.2952 90.9714 52.219 91C53.4666 91.0286 54.2809 91.0714 54.3285 91.9619C54.3714 92.8286 53.5857 93.1238 52.3809 93.1857C51.0095 93.2571 50.1762 92.9857 50.0857 92.0952L51.1143 92.0429L51.119 92.0476Z" fill="white"/>
<path d="M55.7428 92.0429L56.6809 91.9048L56.7857 92.6333L55.8476 92.7714L55.738 92.0429H55.7428Z" fill="white"/>
<path d="M59.4811 88.5381C60.6953 88.2429 61.5096 88.5952 61.8144 89.419L60.8001 89.6667C60.662 89.3762 60.2906 89.2 59.6811 89.3476C58.9763 89.5191 58.7192 89.9476 58.8572 90.5286C59.0001 91.1095 59.4334 91.3762 60.1334 91.2048C60.743 91.0571 60.9906 90.7238 60.9763 90.3952L61.9906 90.1476C62.1001 91.0238 61.543 91.719 60.3287 92.0143C59.0049 92.3381 58.1287 91.9 57.8525 90.7714C57.5763 89.6476 58.1525 88.8619 59.4763 88.5381H59.4811Z" fill="white"/>
<path d="M63.1524 89.3952C62.7382 88.3476 63.2191 87.4524 64.5477 86.9238C65.8715 86.4 66.8429 86.7333 67.2524 87.7762C67.6667 88.8238 67.1858 89.7333 65.862 90.2571C64.5334 90.7809 63.5667 90.4476 63.1524 89.3952ZM66.3001 88.1524C66.0858 87.6048 65.6382 87.3905 64.8572 87.7C64.081 88.0048 63.8953 88.4619 64.1143 89.0143C64.3334 89.5714 64.7858 89.7809 65.5572 89.4762C66.3334 89.1714 66.5191 88.7048 66.3001 88.1524Z" fill="white"/>
<path d="M69.3334 88.6952L67.6287 85.7619L68.9525 84.9905L71.1049 86.3429L70.9906 83.8048L72.3144 83.0333L74.0191 85.9667L73.1715 86.4571L71.9382 84.3333L72.0715 87.1L71.2858 87.5571L68.9477 86.0762L70.1858 88.2L69.3334 88.6952Z" fill="white"/>
<path d="M23.019 81.8381C13.9952 74.181 8.2666 62.7571 8.2666 50C8.2666 37.2429 14.2999 25.2143 23.738 17.5619" stroke="#FFE003" stroke-miterlimit="10"/>
<path d="M76.2666 17.5667C85.7047 25.219 91.7333 36.9048 91.7333 50C91.7333 63.0952 86.0047 74.1857 76.9809 81.8429" stroke="#FFE003" stroke-miterlimit="10"/>
</g>
<defs>
<clipPath id="clip0_1124_13599">
<rect width="100" height="100" fill="white"/>
</clipPath>
</defs>
</svg>
