<svg xmlns="http://www.w3.org/2000/svg" width="64" height="64" viewBox="0 0 64 64"><g transform="translate(0 -22)"><circle cx="32" cy="32" r="32" transform="translate(0 22)" fill="#d6131b"/><g transform="translate(16.169 34.976)"><g transform="translate(0)"><path d="M15.829-284.611a23.291,23.291,0,0,1,6.6-4.192l.974-.519a24.506,24.506,0,0,0,7.029-5.458,7.7,7.7,0,0,0,1.217-4.494v-24.346l-1.176-.158a121.8,121.8,0,0,0-14.649-.879,121.8,121.8,0,0,0-14.649.879L0-323.628v24.346a7.7,7.7,0,0,0,1.217,4.494,24.507,24.507,0,0,0,7.029,5.458l.974.519a23.291,23.291,0,0,1,6.605,4.2" transform="translate(0.003 324.658)" fill="#d4b943"/><path d="M10.986-289.777a6.415,6.415,0,0,0,.959,3.688,20.514,20.514,0,0,0,6.527,5.127c2.727,1.461,3.822,2.031,6.985,3.878,3.165-1.848,4.258-2.413,6.985-3.878a20.509,20.509,0,0,0,6.527-5.127,6.415,6.415,0,0,0,.959-3.689v-23.034a121.63,121.63,0,0,0-14.471-.867,121.534,121.534,0,0,0-14.448.864l-.023,23.037" transform="translate(-9.626 315.024)" fill="#fff"/><path d="M24.259-308.494c-4.382.185-7.771.555-8.962.7v22.564a5.892,5.892,0,0,0,.855,3.372,19.43,19.43,0,0,0,6.35,4.976l.974.519.791.424v-32.548" transform="translate(-13.404 310.481)" fill="#e41d25"/><path d="M168.612-308.492v32.548l.794-.426.974-.516a19.426,19.426,0,0,0,6.35-4.977,5.891,5.891,0,0,0,.857-3.372V-307.8c-1.193-.141-4.587-.511-8.962-.7" transform="translate(-147.804 310.479)" fill="#e41d25"/><path d="M38.206-205.156h1.125v-2.593h2.323v-1.032H39.331v-1.444h2.693v-1.032H38.206v6.1" transform="translate(-33.486 225.239)" fill="#fff"/><path d="M113.968-208.885a.752.752,0,0,1-.351.3,2.657,2.657,0,0,1-.889.095h-.616v-1.731h.543a4.941,4.941,0,0,1,.808.041.762.762,0,0,1,.453.27.835.835,0,0,1,.178.55.879.879,0,0,1-.127.475Zm.161-2.276a5.984,5.984,0,0,0-1.337-.092H111v6.1h1.125v-2.3h.73a5.863,5.863,0,0,0,1.166-.088,1.566,1.566,0,0,0,.582-.29,1.637,1.637,0,0,0,.472-.6,2.147,2.147,0,0,0,.185-.945,2.02,2.02,0,0,0-.324-1.188,1.461,1.461,0,0,0-.8-.6" transform="translate(-97.289 225.236)" fill="#e41d25"/><path d="M191.233-210.225v-1.032h-3.815v6.1h1.125v-2.593h2.323v-1.032h-2.323v-1.444h2.693" transform="translate(-164.289 225.239)" fill="#fff"/></g></g></g></svg>