<svg xmlns="http://www.w3.org/2000/svg" width="64" height="64" viewBox="0 0 64 64"><g transform="translate(-8528.947 -692.496)"><circle cx="32" cy="32" r="32" transform="translate(8528.947 692.496)" fill="#ec6500"/><g transform="translate(8538.894 704.613)"><path d="M118.3,284.814h-.258a31.874,31.874,0,0,1-17.037-14.153c-3.837-6.744-5.314-15.028-4.775-24.109l.024-.375c.281.024.563.055.852.055a5.483,5.483,0,0,0,5.463-5.463v-.375h31.221v.375a5.483,5.483,0,0,0,5.462,5.463c.281,0,.563-.031.852-.055l.015.375c.547,9.081-.93,17.365-4.767,24.109A31.883,31.883,0,0,1,118.3,284.814Z" transform="translate(-96.125 -240.394)" fill="#222221" fill-rule="evenodd"/><path d="M159.944,362.2a18.364,18.364,0,0,0,7.065-5.47c.3-.383.594-.781.867-1.188H152.02c.273.406.563.805.86,1.188a18.484,18.484,0,0,0,7.065,5.47Z" transform="translate(-137.893 -326.436)" fill="#fff" fill-rule="evenodd"/><path d="M141.607,255.28a57.085,57.085,0,0,0-.008-6.119h-.156a6.21,6.21,0,0,1-6.189-5.83H105.486a6.225,6.225,0,0,1-6.19,5.83H99.14a57.085,57.085,0,0,0-.008,6.119Z" transform="translate(-98.314 -242.589)" fill="#fff" fill-rule="evenodd"/><path d="M138.093,308.456a39.581,39.581,0,0,0,3.837-14.942H99.549a39.432,39.432,0,0,0,3.837,14.942Z" transform="translate(-98.684 -280.088)" fill="#ec6500" fill-rule="evenodd"/><path d="M133.212,370.122a31.16,31.16,0,0,0,16.536-13.786c.148-.258.3-.531.438-.8H142.02c-.359.57-.75,1.117-1.157,1.641a19.174,19.174,0,0,1-7.5,5.76l-.148.062-.149-.062a19.206,19.206,0,0,1-7.495-5.76,18.783,18.783,0,0,1-1.157-1.641h-8.167c.141.266.289.539.438.8a31.169,31.169,0,0,0,16.529,13.786Z" transform="translate(-111.161 -326.436)" fill="#fff" fill-rule="evenodd"/><path d="M193.718,358.2v1.93h.211v.5h-.211v.516h-.742v-.516h-.883v-.5l.641-1.93Z" transform="translate(-167.837 -328.423)" fill="#ec6500" fill-rule="evenodd"/><path d="M185.091,358.2v.469h-.922v.672a.572.572,0,0,1,.446-.2.638.638,0,0,1,.469.172,1.031,1.031,0,0,1,.156.656v.25a2.266,2.266,0,0,1-.031.461.686.686,0,0,1-.133.273.656.656,0,0,1-.273.188,1.183,1.183,0,0,1-.43.07,1.281,1.281,0,0,1-.508-.1.611.611,0,0,1-.312-.3,1.222,1.222,0,0,1-.078-.3h.735c.008.047.008.094.016.125a.137.137,0,0,0,.141.125.111.111,0,0,0,.086-.039.108.108,0,0,0,.039-.07c0-.031.008-.149.008-.352v-.414a.487.487,0,0,0-.039-.227.125.125,0,0,0-.109-.062.168.168,0,0,0-.094.031.326.326,0,0,0-.039.071.609.609,0,0,0-.016.164h-.734l.031-1.657Z" transform="translate(-161.391 -328.423)" fill="#ec6500" fill-rule="evenodd"/><path d="M175.149,360.342a.429.429,0,0,0,.008.117.111.111,0,0,0,.047.094.135.135,0,0,0,.1.039.129.129,0,0,0,.094-.039.186.186,0,0,0,.047-.086v-.7a.409.409,0,0,1-.164.18.565.565,0,0,1-.273.062.63.63,0,0,1-.359-.109.543.543,0,0,1-.2-.266,1.9,1.9,0,0,1-.039-.414v-.234a3.321,3.321,0,0,1,.024-.461.583.583,0,0,1,.133-.281.626.626,0,0,1,.281-.2,1.19,1.19,0,0,1,.422-.07,1.3,1.3,0,0,1,.492.078.686.686,0,0,1,.3.234.726.726,0,0,1,.117.328c.008.109.016.328.016.656v.406c0,.352,0,.586-.016.7a.614.614,0,0,1-.125.336.716.716,0,0,1-.3.242,1.331,1.331,0,0,1-.445.078,1.1,1.1,0,0,1-.516-.1.672.672,0,0,1-.289-.281.969.969,0,0,1-.078-.32Z" transform="translate(-154.621 -328.262)" fill="#ec6500" fill-rule="evenodd"/><path d="M168.514,358.2v2.946h-.743v-2.126l-.508-.008v-.344a1.347,1.347,0,0,0,.813-.469Z" transform="translate(-149.284 -328.423)" fill="#ec6500" fill-rule="evenodd"/><path d="M194.616,362.115v-1.258l-.328,1.258Z" transform="translate(-169.477 -330.41)" fill="#fff" fill-rule="evenodd"/><path d="M177.344,360.619a.371.371,0,0,0,.047.235.141.141,0,0,0,.1.039.124.124,0,0,0,.117-.055.452.452,0,0,0,.031-.219v-.531a.638.638,0,0,0-.031-.258.124.124,0,0,0-.117-.055.135.135,0,0,0-.094.047c-.039.031-.055.109-.055.25v.547Z" transform="translate(-156.816 -329.601)" fill="#fff" fill-rule="evenodd"/><path d="M149.784,374.281l-2.446,3.993-.946-.789.492-.68-.336-.273-.586.586-.961-.8,3.454-3.157,1.329,1.117Z" transform="translate(-132.648 -339.606)" fill="#ec6500" fill-rule="evenodd"/><path d="M161.091,381.048l.766.477a5.94,5.94,0,0,1,.961.7,1.007,1.007,0,0,1,.258.469.879.879,0,0,1-.047.453,7.207,7.207,0,0,1-.438.774l-.86,1.375a3.4,3.4,0,0,1-.492.672.6.6,0,0,1-.344.172.9.9,0,0,1-.4-.047,4.32,4.32,0,0,1-.57-.3l-1.29-.8,2.454-3.931Z" transform="translate(-142.837 -345.498)" fill="#ec6500" fill-rule="evenodd"/><path d="M179.719,388.777l.7,4.634H179.18l-.062-.836h-.43l-.07.836h-1.243l.61-4.634Z" transform="translate(-156.839 -351.273)" fill="#ec6500" fill-rule="evenodd"/><path d="M192.333,380.738l2.454,3.923-.891.563-1.649-1.454,1.118,1.79-.86.531-2.454-3.931.852-.531,1.68,1.407-1.1-1.766.852-.531Z" transform="translate(-166.311 -345.266)" fill="#ec6500" fill-rule="evenodd"/><path d="M202.821,374.281l2.454,3.993.946-.789-.492-.68.328-.273.594.586.953-.8-3.446-3.157-1.336,1.117Z" transform="translate(-175.854 -339.606)" fill="#ec6500" fill-rule="evenodd"/><path d="M153.484,380.246c.289-.445.656-.977,1.11-1.61-.664.6-1.141,1.047-1.43,1.344l.32.266Z" transform="translate(-138.747 -343.695)" fill="#fff" fill-rule="evenodd"/><path d="M165.967,386.242l-1.61,2.579c.141.094.25.125.32.086a1.421,1.421,0,0,0,.352-.453l.954-1.524a2.755,2.755,0,0,0,.2-.352.239.239,0,0,0-.008-.164.769.769,0,0,0-.211-.172Z" transform="translate(-147.111 -349.379)" fill="#fff" fill-rule="evenodd"/><path d="M182.921,394.8q-.094-.786-.188-1.946c-.117.891-.2,1.532-.227,1.946Z" transform="translate(-160.674 -354.323)" fill="#fff" fill-rule="evenodd"/><path d="M209.064,380.246c-.289-.445-.664-.977-1.11-1.61.664.6,1.141,1.047,1.422,1.344l-.312.266Z" transform="translate(-179.689 -343.695)" fill="#fff" fill-rule="evenodd"/><path d="M152.6,310.9c3.22-4.072,6.862-5.626,10.41-3.954a4.585,4.585,0,0,0-2.47-2.313,2.373,2.373,0,0,0,.078-.453,2.151,2.151,0,0,0-.375-1.375,2.242,2.242,0,0,0-1.086-.805,1.873,1.873,0,0,0-.281-.07v-.18a1.839,1.839,0,0,0-.508-1.188,1.937,1.937,0,0,0-1.2-.563,1.547,1.547,0,0,0-.266-.023c-.024-.07-.047-.141-.078-.211a1.6,1.6,0,0,0-.789-.781,2.491,2.491,0,0,0-1.133-.219,2.377,2.377,0,0,0-.664.117,1.9,1.9,0,0,0-.6-.492,2.2,2.2,0,0,0-2.18.031,1.966,1.966,0,0,0-.5.453,2.691,2.691,0,0,0-.657-.109,2.492,2.492,0,0,0-1.133.219,1.565,1.565,0,0,0-.867.993,2.108,2.108,0,0,0-1.469.586,1.912,1.912,0,0,0-.508,1.368,2.215,2.215,0,0,0-1.36.875,2.153,2.153,0,0,0-.375,1.375,1.911,1.911,0,0,0,.078.453,4.573,4.573,0,0,0-2.477,2.313c3.556-1.672,7.2-.117,10.41,3.954Z" transform="translate(-130.546 -283.529)" fill="#222221" fill-rule="evenodd"/><path d="M168.86,306.275c-1.672-.446-3.845-.109-6.221,1.7-.172-.664-.664-.844-1.133-1.375-.461.531-.961.711-1.126,1.375-2.376-1.805-4.548-2.141-6.229-1.7a2.323,2.323,0,0,1-.039-.3,1.542,1.542,0,0,1,.258-.977,1.6,1.6,0,0,1,.782-.578,2.727,2.727,0,0,1,.75-.109,4.029,4.029,0,0,1-.047-.688,1.18,1.18,0,0,1,.328-.8,1.833,1.833,0,0,1,1.586-.375c.016-.508.055-.828.571-1.079a1.756,1.756,0,0,1,.844-.156,2.311,2.311,0,0,1,.938.266,1.6,1.6,0,0,1,.563-.7,1.47,1.47,0,0,1,.766-.211,1.587,1.587,0,0,1,.805.188,1.816,1.816,0,0,1,.656.719,2.357,2.357,0,0,1,.922-.258,1.756,1.756,0,0,1,.844.156c.532.258.555.578.57,1.079a1.839,1.839,0,0,1,1.587.375,1.631,1.631,0,0,1,.273,1.485,2.785,2.785,0,0,1,.758.109,1.549,1.549,0,0,1,.774.578,1.5,1.5,0,0,1,.266.977,2.416,2.416,0,0,1-.047.3Z" transform="translate(-139.454 -285.354)" fill="#fff" fill-rule="evenodd"/><path d="M233.875,265.284l.7.563a6.111,6.111,0,0,1,.9.821.831.831,0,0,1,.188.6,1.586,1.586,0,0,1-.422.836,1.367,1.367,0,0,1-.594.508.75.75,0,0,1-.578-.172.962.962,0,0,1,.235.516.8.8,0,0,1-.055.328,4.545,4.545,0,0,1-.43.578l-.813,1.008-.922-.743,1.024-1.266a1.113,1.113,0,0,0,.258-.422c.008-.07-.055-.164-.187-.274l-1.391,1.712-.984-.8,3.071-3.8Z" transform="translate(-196.764 -258.993)" fill="#ec6500" fill-rule="evenodd"/><path d="M222.315,261.032a9.1,9.1,0,0,1-.453.938,1.171,1.171,0,0,1-.422.43,1.157,1.157,0,0,1-.61.149,1.807,1.807,0,0,1-.719-.164,1.862,1.862,0,0,1-.594-.406,1.189,1.189,0,0,1-.3-.555,1.15,1.15,0,0,1,.023-.609,8.547,8.547,0,0,1,.4-.977l.336-.766c.2-.445.352-.758.461-.938a1.1,1.1,0,0,1,.422-.422,1.141,1.141,0,0,1,.609-.156,1.7,1.7,0,0,1,.719.172,1.741,1.741,0,0,1,.594.406,1.118,1.118,0,0,1,.3.555,1.209,1.209,0,0,1-.023.6c-.062.2-.2.516-.4.977l-.344.766Z" transform="translate(-188.08 -253.217)" fill="#ec6500" fill-rule="evenodd"/><path d="M242.777,271l-.688.844a.559.559,0,0,0,.274.149c.062,0,.172-.078.3-.242l.172-.211a.443.443,0,0,0,.125-.289.529.529,0,0,0-.188-.25Z" transform="translate(-205.197 -263.267)" fill="#fff" fill-rule="evenodd"/><path d="M206.32,251.587l1.243.312a2.924,2.924,0,0,1,.758.274.959.959,0,0,1,.352.328.89.89,0,0,1,.094.406,3.344,3.344,0,0,1-.117.672l-.1.414a1.9,1.9,0,0,1-.258.641.705.705,0,0,1-.43.235,1.648,1.648,0,0,1-.68-.055l-.328-.086-.477,1.915-1.235-.3,1.18-4.751Z" transform="translate(-177.587 -248.758)" fill="#ec6500" fill-rule="evenodd"/><path d="M194.87,251.227l-1.172-.141.047-.359a.792.792,0,0,0-.008-.328.166.166,0,0,0-.141-.086.2.2,0,0,0-.188.07.53.53,0,0,0-.094.273.9.9,0,0,0,.024.375.993.993,0,0,0,.32.344,3.689,3.689,0,0,1,.961.946,1.957,1.957,0,0,1,.094,1.063,1.913,1.913,0,0,1-.219.75.923.923,0,0,1-.516.352,1.831,1.831,0,0,1-.836.071,1.778,1.778,0,0,1-.836-.3.976.976,0,0,1-.414-.547,2.782,2.782,0,0,1-.008-.86l.039-.313,1.172.141-.07.594a.678.678,0,0,0,.008.352.169.169,0,0,0,.164.1.22.22,0,0,0,.2-.078.565.565,0,0,0,.094-.281.879.879,0,0,0-.047-.578,4.062,4.062,0,0,0-.539-.508,5.9,5.9,0,0,1-.563-.532,1.068,1.068,0,0,1-.211-.422,1.6,1.6,0,0,1-.016-.649,1.651,1.651,0,0,1,.242-.8.948.948,0,0,1,.508-.352,1.805,1.805,0,0,1,.781-.047,2.032,2.032,0,0,1,.821.258.9.9,0,0,1,.406.461,2.15,2.15,0,0,1,.016.836l-.024.188Z" transform="translate(-167.66 -247.171)" fill="#ec6500" fill-rule="evenodd"/><path d="M225.22,261.737a1.777,1.777,0,0,0,.148-.414.15.15,0,0,0-.1-.149.17.17,0,0,0-.172.008,1.052,1.052,0,0,0-.234.391l-.93,2.087a2.319,2.319,0,0,0-.18.492.159.159,0,0,0,.1.164.164.164,0,0,0,.2-.039,3.152,3.152,0,0,0,.258-.484l.907-2.055Z" transform="translate(-191.493 -255.908)" fill="#fff" fill-rule="evenodd"/><path d="M179.542,248.835l.727,4.884h-1.305l-.063-.875h-.453l-.078.875h-1.305l.649-4.884Z" transform="translate(-156.608 -246.701)" fill="#ec6500" fill-rule="evenodd"/><path d="M164.7,249.175l.594,4.861-1.11.133-.922-2.126.266,2.2-1.055.133-.594-4.853,1.055-.133.977,2.1-.266-2.188,1.055-.133Z" transform="translate(-145.263 -246.955)" fill="#ec6500" fill-rule="evenodd"/><path d="M213.013,256.039l-.3,1.2a.2.2,0,0,0,.086.023.277.277,0,0,0,.258-.023.6.6,0,0,0,.156-.328l.094-.391a.474.474,0,0,0,0-.336.469.469,0,0,0-.3-.149Z" transform="translate(-183.248 -252.085)" fill="#fff" fill-rule="evenodd"/><path d="M149.566,252.205l1.891,4.564-1.266.32-.274-.844-.445.117.141.867-1.274.32-.555-4.9,1.782-.445Z" transform="translate(-134.727 -249.22)" fill="#ec6500" fill-rule="evenodd"/><path d="M182.914,255.188c-.07-.555-.133-1.235-.2-2.055-.125.938-.211,1.625-.242,2.055Z" transform="translate(-160.651 -249.913)" fill="#fff" fill-rule="evenodd"/><path d="M129.913,258.886l.867-.391a6.164,6.164,0,0,1,1.172-.43,1.01,1.01,0,0,1,.563.055.833.833,0,0,1,.367.3,5.927,5.927,0,0,1,.422.836l.7,1.563a3.6,3.6,0,0,1,.3.828.636.636,0,0,1-.055.406.869.869,0,0,1-.273.32,4.255,4.255,0,0,1-.6.321l-1.469.649-1.985-4.462Z" transform="translate(-121.373 -253.587)" fill="#ec6500" fill-rule="evenodd"/><path d="M153.234,259.16c-.2-.523-.43-1.172-.688-1.946.1.938.188,1.625.266,2.048l.422-.1Z" transform="translate(-138.286 -252.963)" fill="#fff" fill-rule="evenodd"/><path d="M117.552,266.861l3.642,3.345-1.016.821-.6-.649-.352.289.492.735-1.024.828-2.571-4.212,1.43-1.157Z" transform="translate(-111.068 -260.171)" fill="#ec6500" fill-rule="evenodd"/><path d="M135.849,262.1l1.305,2.938c.172-.071.258-.149.266-.235a1.691,1.691,0,0,0-.188-.578l-.774-1.735a1.934,1.934,0,0,0-.188-.375.177.177,0,0,0-.149-.086.6.6,0,0,0-.273.07Z" transform="translate(-125.809 -256.563)" fill="#fff" fill-rule="evenodd"/><path d="M123.258,273.865c-.4-.391-.883-.883-1.446-1.469.492.8.86,1.383,1.11,1.743l.336-.274Z" transform="translate(-115.32 -264.307)" fill="#fff" fill-rule="evenodd"/></g></g></svg>