<svg xmlns="http://www.w3.org/2000/svg" width="64" height="64" viewBox="0 0 64 64"><circle cx="32" cy="32" r="32" fill="#aa151b"/><g transform="translate(18.012 7.568)"><path d="M113.984,421.094l-.1-.024a31.206,31.206,0,0,1-6.895-2.773c-4.576-2.548-7-5.789-7-9.371V384.789a1.851,1.851,0,0,1,1.868-1.832h24.24a1.851,1.851,0,0,1,1.868,1.832v24.145c0,3.651-2.419,6.914-7,9.431a30.3,30.3,0,0,1-6.9,2.706ZM101.2,384.237v24.51c0,3.246,2.149,6.092,6.374,8.466a30.085,30.085,0,0,0,6.41,2.61c1.156-.3,12.782-3.475,12.782-11.069V384.237Z" transform="translate(-99.999 -373.748)" fill="#f1bf00"/><path d="M469.98,56.347h2.777l.857-2.641.86,2.641h2.777L475,57.981l.86,2.641-2.247-1.634-2.247,1.634.86-2.641Z" transform="translate(-459.627 -53.706)" fill="#f1bf00"/><path d="M358.277,1438.635l-.356.313-.32-.255a.28.28,0,0,0,.1-.191v-.991a.206.206,0,0,0-.038-.138.528.528,0,0,0-.1-.072l-.112.091-.05-.052.339-.289.112.067a.264.264,0,0,1,.091.081.386.386,0,0,1,.034.117.955.955,0,0,1,.012.153v1.1a.564.564,0,0,0,.041.054c.033.039.057.058.076.058s.031-.017.065-.048l.053-.052Z" transform="translate(-350.196 -1398.356)" fill="#f1bf00"/><path d="M394.914,1438.148a1.162,1.162,0,0,1-.155.585,1.7,1.7,0,0,1-.478.509l-.518-.258.22-.22.432.239a.954.954,0,0,0,.239-.685v-.1l-.6.423a.527.527,0,0,1-.365-.506.634.634,0,0,1,.134-.385,1.782,1.782,0,0,1,.442-.387.968.968,0,0,1,.478.3.748.748,0,0,1,.174.493m-.279,0a.713.713,0,0,0-.177-.346.87.87,0,0,0-.368-.2.378.378,0,0,0-.179.339.45.45,0,0,0,.11.3.318.318,0,0,0,.239.132h.036a.136.136,0,0,0,.048-.024Z" transform="translate(-385.471 -1398.647)" fill="#f1bf00"/><path d="M761,1437.9a1.011,1.011,0,0,1-.143.53,1.76,1.76,0,0,1-.454.478.876.876,0,0,1-.478-.332.953.953,0,0,1-.172-.563,1.02,1.02,0,0,1,.156-.549,1.5,1.5,0,0,1,.454-.454,1.232,1.232,0,0,1,.477.368.88.88,0,0,1,.153.53m-.212.127a.715.715,0,0,0-.174-.478.917.917,0,0,0-.478-.277.787.787,0,0,0-.143.238.771.771,0,0,0-.043.253.956.956,0,0,0,.177.573.751.751,0,0,0,.478.3.924.924,0,0,0,.184-.614" transform="translate(-741.293 -1398.311)" fill="#f1bf00"/><path d="M811.642,1437.807a1.164,1.164,0,0,1-.155.589,1.735,1.735,0,0,1-.478.511l-.523-.26.225-.222.435.239a.954.954,0,0,0,.239-.69v-.1l-.607.425a.533.533,0,0,1-.368-.511.637.637,0,0,1,.136-.387,1.8,1.8,0,0,1,.447-.389.989.989,0,0,1,.478.305.75.75,0,0,1,.174.495m-.282,0a.7.7,0,0,0-.177-.349.875.875,0,0,0-.368-.2.386.386,0,0,0-.182.342.454.454,0,0,0,.113.3.315.315,0,0,0,.238.131h.038a.141.141,0,0,0,.048-.024Z" transform="translate(-790.531 -1398.313)" fill="#f1bf00"/><path d="M483.278,1350.815a3.458,3.458,0,1,1-3.458-3.458,3.458,3.458,0,0,1,3.458,3.458m-3.458-3.076a3.076,3.076,0,1,0,3.076,3.076,3.077,3.077,0,0,0-3.076-3.076" transform="translate(-465.832 -1311.171)" fill="#f1bf00"/><path d="M540.174,1413.563v.411h-.322v-1.29h.822a.646.646,0,0,1,.413.115.391.391,0,0,1,.141.322h0a.447.447,0,0,1-.069.251.371.371,0,0,1-.169.132l.3.458H540.9l-.239-.411Zm.478-.6h-.478v.327h.478a.4.4,0,0,0,.2-.038.129.129,0,0,0,.062-.119h0a.134.134,0,0,0-.057-.122.356.356,0,0,0-.186-.035" transform="translate(-527.546 -1374.673)" fill="#f1bf00"/><path d="M616.039,1413.974v-1.29h1.333v.275h-.994v.239h.9v.265h-.9v.5Z" transform="translate(-601.602 -1374.671)" fill="#f1bf00"/><path d="M616.039,1484.482v-1.29h1.333v.275h-.994v.239h.9v.265h-.9v.506Z" transform="translate(-601.602 -1443.206)" fill="#f1bf00"/><path d="M539.852,1483.192h1.388v.275h-1.046v.222h.915v.265h-.915v.239h1.058v.275h-1.4Z" transform="translate(-527.546 -1443.206)" fill="#f1bf00"/><path d="M562.549,1228.677a1.015,1.015,0,0,0-.49.291v-.055a.878.878,0,0,0-.041-.239.478.478,0,0,0,.506-.442.43.43,0,0,0-.322-.427.4.4,0,0,1,.014-.077.259.259,0,0,1,.024-.074.782.782,0,0,0-.086.029.37.37,0,0,0-.081.052.309.309,0,0,0-.024-.062.379.379,0,0,0-.062-.069.292.292,0,0,0-.072.057.4.4,0,0,0-.052.079.245.245,0,0,0-.079-.05.287.287,0,0,0-.129,0l.067.072a.321.321,0,0,1,.024.053.385.385,0,0,0-.315.42.492.492,0,0,0,.509.442,1.2,1.2,0,0,1,.014.239s0,.021,0,.033a2.4,2.4,0,0,0-.532-.294,2.648,2.648,0,0,0-.552-.014,2.059,2.059,0,0,1,.177.148,1,1,0,0,0,.33.191,1.121,1.121,0,0,0,.578-.014,1.227,1.227,0,0,1-.064.251l.081-.031a.444.444,0,0,1,.074-.019s.012-.093.017-.187l.084-.012c.038,0,.267.019.478.017a.66.66,0,0,0,.4-.16,1.58,1.58,0,0,1,.15-.086,1.346,1.346,0,0,0-.618-.057m-.716-.437a.239.239,0,1,1,.165.394.547.547,0,0,1-.165-.394" transform="translate(-547.972 -1194.776)" fill="#f1bf00"/><path d="M614.051,1020.554h-.282l-.055.076a.31.31,0,0,1,.213.124h0v-.014a.311.311,0,0,1,.21-.119h0l-.06-.077Z" transform="translate(-599.342 -993.51)" fill="#f1bf00"/><path d="M561.451,975.367a.186.186,0,0,0-.186.184.272.272,0,0,0,.031.1l.062.127a.126.126,0,0,1,.122-.074.15.15,0,0,1,.141.1h.217a.144.144,0,0,1,.139-.1.126.126,0,0,1,.122.074l.06-.127a.27.27,0,0,0,.031-.1.186.186,0,0,0-.358-.069h0a.852.852,0,0,0,.067-.32.227.227,0,1,0-.344,0,.86.86,0,0,0,.067.32h0a.187.187,0,0,0-.172-.115" transform="translate(-548.359 -949.026)" fill="#f1bf00"/><path d="M605.1,975.776a.127.127,0,0,1,.122-.074.151.151,0,0,1,.141.1h.217a.143.143,0,0,1,.139-.1.128.128,0,0,1,.122.074l.06-.127a.27.27,0,0,0,.031-.1.186.186,0,0,0-.358-.069h0a.855.855,0,0,0,.067-.32.227.227,0,1,0-.344,0,.853.853,0,0,0,.067.32h0a.186.186,0,0,0-.358.069.264.264,0,0,0,.031.1Z" transform="translate(-590.878 -949.028)" fill="#f1bf00"/><path d="M612.376,1013.492h-.542v.134h.542v-.134Z" transform="translate(-597.517 -986.646)" fill="#f1bf00"/><path d="M583.492,1018.761h0a.186.186,0,0,0-.358.069.264.264,0,0,0,.031.1l.06.126a.127.127,0,0,1,.122-.074.15.15,0,0,1,.141.1h.217a.144.144,0,0,1,.139-.1.127.127,0,0,1,.122.074l.06-.127a.268.268,0,0,0,.031-.1.186.186,0,0,0-.359-.069h0a.858.858,0,0,0,.067-.32.225.225,0,1,0-.344,0,.857.857,0,0,0,.067.32" transform="translate(-569.617 -991.094)" fill="#f1bf00"/><path d="M592.181,1063.837H591.9l-.055.077a.313.313,0,0,1,.213.124h0l.012-.014a.309.309,0,0,1,.21-.119h0l-.06-.077Z" transform="translate(-578.083 -1035.582)" fill="#f1bf00"/><path d="M568.246,1013.626h.389v-.134H568.1v.134Z" transform="translate(-554.996 -986.646)" fill="#f1bf00"/><path d="M589.967,1056.775h0v.134h.542v-.134Z" transform="translate(-576.257 -1028.719)" fill="#f1bf00"/><path d="M570.419,1020.625l-.06-.077h-.327l-.055.077a.309.309,0,0,1,.213.124h0v-.014a.311.311,0,0,1,.21-.119Z" transform="translate(-556.823 -993.504)" fill="#f1bf00"/><path d="M702.623,797.813a1.353,1.353,0,0,1,.614.478.479.479,0,0,1,.442-.072c.019-.021-.043-.115-.084-.117h0l-.052.038h0V798.1a.06.06,0,0,0-.1.033h0l.031.029h0a.238.238,0,0,1-.1-.017.046.046,0,0,1,0-.045h0a.042.042,0,0,1-.033-.014c-.026-.031,0-.052.019-.074s.012,0,.014,0v.043a.06.06,0,0,0,.076-.077h-.043l.057-.029h0a.057.057,0,0,0-.014-.062.058.058,0,0,0-.062-.012h0l-.029.057h0v-.043a.06.06,0,0,0-.076.076h.043v.014a.068.068,0,0,1-.093.026.055.055,0,0,1-.019-.057h0a.055.055,0,0,1-.052,0c-.045-.033-.012-.074,0-.1s0,0,.014,0l.017.041a.06.06,0,0,0,.065-.086h-.043l.052-.036h0a.057.057,0,0,0-.086-.064h0l-.021.06h0l-.017-.041a.06.06,0,0,0-.064.086h.043v.014c0,.014-.055.072-.1.038a.054.054,0,0,1-.021-.05h0a.055.055,0,0,1-.062,0c-.038-.029-.017-.065,0-.1s0-.012.012,0a.251.251,0,0,1,.021.038h0a.06.06,0,0,0,.055-.093h-.05l.048-.043h0a.061.061,0,0,0-.093-.057h0a.144.144,0,0,1-.012.062h0l-.021-.038h0a.06.06,0,0,0-.055.093h.05v.014c0,.014-.031.055-.067.036a.043.043,0,0,1-.021-.029h0a.046.046,0,0,1-.048,0c-.026-.014-.033-.062-.041-.086s0-.017,0-.012l.036.024h0a.06.06,0,0,0,0-.107h0l-.038.019h0l.024-.06h0c-.014-.038-.119-.077-.136-.05a.477.477,0,0,1,.045.444" transform="translate(-685.715 -776.551)" fill="#f1bf00"/><path d="M648.162,916.623a.478.478,0,0,0-.578.626.263.263,0,0,1,.033-.117.239.239,0,0,1,.074-.084.24.24,0,0,0-.022.139.259.259,0,0,0,.072.153.274.274,0,0,1,.019-.089.026.026,0,0,1,.024-.017.026.026,0,0,1,.024.019.266.266,0,0,1-.334.337.251.251,0,0,1-.069-.033.978.978,0,0,0-.177-.081.342.342,0,0,0-.239.014.184.184,0,0,0-.1.141.165.165,0,0,1,.16-.05.043.043,0,0,1,.034.036.117.117,0,0,0,.129.088h.036a.372.372,0,0,1,.071-.024.031.031,0,1,1,0,.062.524.524,0,0,0-.1.031.339.339,0,0,0-.155.167.183.183,0,0,0,.024.169.163.163,0,0,1,.081-.146.043.043,0,0,1,.048,0,.117.117,0,0,0,.155-.024l.019-.028a.338.338,0,0,1,.05-.093.031.031,0,0,1,.043-.017.031.031,0,0,1,.017.033.279.279,0,0,0-.017.086.416.416,0,0,0,.069.217.184.184,0,0,0,.16.065.165.165,0,0,1-.086-.143.043.043,0,0,1,.029-.041.116.116,0,0,0,.055-.145.287.287,0,0,1-.017-.031.316.316,0,0,1-.014-.04.031.031,0,0,1,.009-.036.03.03,0,0,1,.037,0,.478.478,0,0,0,.619-.093.482.482,0,0,1-.212-.067.344.344,0,0,0,.26-.16.136.136,0,1,1,0-.258.045.045,0,0,0,.065-.033.477.477,0,0,0-.318-.528" transform="translate(-631.604 -892.461)" fill="#f1bf00"/><path d="M654.191,829.357h0a.249.249,0,0,0,.205.1h.526a4.636,4.636,0,0,1-.478-.112.253.253,0,0,1-.1-.067.251.251,0,0,0-.337-.029.256.256,0,0,1,.072.012.24.24,0,0,1,.129.1" transform="translate(-638.493 -807.505)" fill="#f1bf00"/><path d="M669.732,817.245a.154.154,0,0,0,.038.115h0a.155.155,0,1,1,.132.2h-.012a.1.1,0,0,1-.067-.107.154.154,0,0,0-.041.062c-.024.074-.019.148-.045.205s-.055.038-.072.083a.66.66,0,0,1,.308-.024,2.8,2.8,0,0,1,.282-.1.047.047,0,0,0,.027-.025.045.045,0,0,0,0-.037.155.155,0,0,1,.029-.148.013.013,0,0,1,.022.014v.026a.155.155,0,0,0,0,.107h0a.149.149,0,0,0,.017.031c.012.019.024.036.038.057a.012.012,0,0,1,0,.019.97.97,0,0,0-.16.052.045.045,0,0,0-.029.052.1.1,0,0,1-.019.069.092.092,0,0,1-.072.036,2.156,2.156,0,0,0-.4.048.261.261,0,0,0-.167.239.478.478,0,0,1,.294.043l.069.038-.062.05a.311.311,0,0,0-.11.258.358.358,0,0,1,.294,0l.062.033-.048.05a.239.239,0,0,0-.041.258.362.362,0,0,1,.317-.072h.038v.052a.266.266,0,0,0,.074.194.414.414,0,0,1,.294-.148.322.322,0,0,0,.191-.239c-.2.091-.174-.036-.131-.076a1.085,1.085,0,0,0,.193-.427v-.029a.045.045,0,0,0-.021-.052.209.209,0,0,1-.038-.079c.119.086.239-.06.217-.139-.072.1-.107.043-.107,0a1.577,1.577,0,0,0-.048-.578.155.155,0,0,0,.191-.1.145.145,0,0,0,0-.026.155.155,0,0,1-.181-.038.826.826,0,0,0-.081-.1,1.193,1.193,0,0,0-.456-.3h0a.215.215,0,0,1-.155.057h-.239a.1.1,0,0,0-.119.05,1.229,1.229,0,0,1-.215.11.045.045,0,0,0-.017.081.21.21,0,0,1,.033.129m.361-.194h.076l.205.055a.181.181,0,0,1-.265.031H670.1Z" transform="translate(-653.59 -795.481)" fill="#f1bf00"/><path d="M617.63,821.694a.117.117,0,0,0,.155.024l.029-.021.048-.029h0a.034.034,0,0,1,.048.033h0a.18.18,0,0,0,.115.225h.048a.9.9,0,0,0,.124.146.041.041,0,0,1-.031,0,.163.163,0,0,1-.138-.091.184.184,0,0,0,.057.162.343.343,0,0,0,.213.077.238.238,0,0,1-.2,0,.277.277,0,0,0,.15.11h0a2.29,2.29,0,0,0,.4.057c.1.017.1.105.186.088a.981.981,0,0,0,.193-.1.429.429,0,0,1,.065-.112.332.332,0,0,0-.208,0l-.072.028V822.2a.459.459,0,0,1,.026-.193.912.912,0,0,1-.215-.036l-.081-.033h0a.616.616,0,0,1-.179-.136h0v-.017h0l-.029-.05a.614.614,0,0,1-.067-.239.291.291,0,0,1-.019-.115c0-.06.019-.062.033-.153a.339.339,0,0,0-.059-.22.185.185,0,0,0-.139-.069h-.017a.165.165,0,0,1,.081.146.044.044,0,0,1-.029.038.117.117,0,0,0-.062.143.228.228,0,0,1,.015.034.264.264,0,0,1,.017.057h0a.03.03,0,0,1-.016.02.03.03,0,0,1-.025,0h-.014l-.029-.029c-.038-.045-.029-.06-.079-.134a.339.339,0,0,0-.191-.122.184.184,0,0,0-.151.043l-.012.012a.165.165,0,0,1,.158.052.043.043,0,0,1,0,.048.117.117,0,0,0,.052.148l.034.014a.291.291,0,0,1,.076.055h0a.031.031,0,0,1-.017.057h0a.521.521,0,0,0-.105,0,.341.341,0,0,0-.2.112.184.184,0,0,0-.034.153v.017a.164.164,0,0,1,.122-.114.043.043,0,0,1,.045.019" transform="translate(-602.976 -799.453)" fill="#f1bf00"/><path d="M675.58,840.611c-.2.425.138.876.3,1.258a1.591,1.591,0,0,1,.107.685.335.335,0,0,1-.019.079.322.322,0,0,1-.325.222.03.03,0,0,1-.029-.028.479.479,0,0,0-.165-.323,3.019,3.019,0,0,1-.425-.366.313.313,0,0,1-.062-.329.312.312,0,0,0-.268.143l-.024.043-.043-.021a.31.31,0,0,1-.169-.275.239.239,0,0,0-.225.091l-.048.045-.041-.05a.373.373,0,0,1-.041-.062h-.1a.691.691,0,0,1-.146.215c.239.134.463.218.692.349a.623.623,0,0,1,.265.673,1.54,1.54,0,0,0-.067.561.478.478,0,0,0,.148.289.259.259,0,0,1-.019-.119.24.24,0,0,1,.031-.108.238.238,0,0,0,.038.134.255.255,0,0,0,.129.11.2.2,0,0,1,0-.138.187.187,0,0,1,.122-.122.318.318,0,0,0,.217-.239.319.319,0,0,1,0,.2.315.315,0,0,1-.036.074.186.186,0,0,1,.05.194.265.265,0,0,1-.115.184.442.442,0,0,1-.289-.038.338.338,0,0,0-.239.014.184.184,0,0,0-.1.141.164.164,0,0,1,.16-.05.043.043,0,0,1,.033.036.117.117,0,0,0,.129.088h.036a.372.372,0,0,1,.072-.024.031.031,0,1,1,0,.062.541.541,0,0,0-.1.031.342.342,0,0,0-.155.167.183.183,0,0,0,.024.169.162.162,0,0,1,.081-.146.043.043,0,0,1,.048,0,.117.117,0,0,0,.155-.024l.019-.028q.023-.048.05-.093a.031.031,0,0,1,.018-.018.032.032,0,0,1,.025,0,.031.031,0,0,1,.017.033.335.335,0,0,1-.053.129.339.339,0,0,0-.036.225.183.183,0,0,0,.115.129.163.163,0,0,1-.014-.167.043.043,0,0,1,.043-.024.118.118,0,0,0,.117-.105c0-.043-.038-.081-.033-.1a.033.033,0,0,1,.033-.026.179.179,0,0,0,.2-.239c-.1-.213.263-.373.268-.478a.172.172,0,0,0-.112-.217.167.167,0,0,0-.081,0,.084.084,0,0,1-.1-.065.587.587,0,0,0-.11-.239h0a.478.478,0,0,0,.024-.053.511.511,0,0,0,.542-.351.532.532,0,0,0,.031-.177,1.725,1.725,0,0,0-.127-.716c-.165-.394-.564-.867-.239-1.273a.284.284,0,0,1,.4-.077.592.592,0,0,1,.2.354.37.37,0,0,0,.315.286.343.343,0,0,1-.112-.2.043.043,0,0,1,.072-.041.334.334,0,0,0,.573-.06.239.239,0,0,1-.239.024c-.124-.038-.143-.22-.222-.323a.657.657,0,0,0-.33-.253.7.7,0,0,0-.883.368" transform="translate(-657.812 -818.197)" fill="#f1bf00"/><path d="M624,878.689a.184.184,0,0,0,.146.057h.017a.162.162,0,0,1-.093-.138.043.043,0,0,1,.026-.041.117.117,0,0,0,.048-.151.292.292,0,0,1-.017-.031.285.285,0,0,1-.022-.052h0a.031.031,0,0,1,.038-.043h0a.179.179,0,0,0,.239-.079.2.2,0,0,0,.017-.045.872.872,0,0,0,.162-.1.04.04,0,0,1,0,.033.162.162,0,0,1-.112.124.184.184,0,0,0,.17-.031.34.34,0,0,0,.107-.2.239.239,0,0,1-.021.2.275.275,0,0,0,.153-.205h0a.031.031,0,0,1,.052-.024.306.306,0,0,0,.088,0,.331.331,0,0,1,.031-.267.238.238,0,0,0-.189.041l-.06.045-.024-.069a.4.4,0,0,1-.017-.181c-.272.208-.284.327-.54.411a.617.617,0,0,1-.255.029.289.289,0,0,1-.117,0c-.057,0-.06-.028-.146-.055a.341.341,0,0,0-.227.024.184.184,0,0,0-.091.126.122.122,0,0,0,0,.017.163.163,0,0,1,.157-.057.043.043,0,0,1,.034.036.117.117,0,0,0,.134.084h.107a.033.033,0,0,1,.016.018.031.031,0,0,1,0,.024.034.034,0,0,1-.012.012h0l-.034.024c-.05.031-.064.019-.146.057a.341.341,0,0,0-.15.172.184.184,0,0,0,.019.155v.014a.163.163,0,0,1,.076-.148.043.043,0,0,1,.05,0,.117.117,0,0,0,.155-.029l.019-.031a.282.282,0,0,1,.064-.067h0a.036.036,0,0,1,.055.033h0a.545.545,0,0,0-.017.105.342.342,0,0,0,.079.213" transform="translate(-608.742 -854.489)" fill="#f1bf00"/><path d="M378.616,776.147a3.709,3.709,0,0,0,1.994,3.344,8.6,8.6,0,0,0,4.213.955c2.988,0,6.181-1.13,6.181-4.3V765.3H378.619Zm2.369,3.035-.155-.084a4.394,4.394,0,0,1-.521-.351v-6.233h.673Zm.566.2v-6.868h.673v6.854a2.151,2.151,0,0,1-.356.031,3.084,3.084,0,0,1-.318-.017m3.269.621a9.387,9.387,0,0,1-2.89-.423,2.83,2.83,0,0,0,2.1-1.082,3.757,3.757,0,0,0,.767-1.533,3.583,3.583,0,0,0,.755,1.559,2.952,2.952,0,0,0,2.18,1.053,9.455,9.455,0,0,1-2.911.423m-2.03-.8V772.51h.076a2.374,2.374,0,0,0,.6,1.51V778.8a2.958,2.958,0,0,1-.674.4m1.24-.984v-3.761a1.71,1.71,0,0,0,.681.181v1.524a3.379,3.379,0,0,1-.681,2.056m6.527-2.068a3.248,3.248,0,0,1-1.76,2.964,5,5,0,0,1-.454.239,2.351,2.351,0,0,1-.5.055,2.779,2.779,0,0,1-2.149-.991,3.51,3.51,0,0,1-.8-2.247v-1.524a1.726,1.726,0,0,0,.745-.22v.695a.478.478,0,0,0,0,.9v.478a2.088,2.088,0,0,0,.107.659.466.466,0,0,0,.478.786,2.083,2.083,0,0,0,1.049.6.466.466,0,0,0,.917,0,2.08,2.08,0,0,0,1.053-.6.46.46,0,0,0,.17.033.477.477,0,0,0,.3-.821,2.094,2.094,0,0,0,.105-.654v-.478a.477.477,0,0,0,0-.9v-1.3a.478.478,0,1,0-.575-.58h-1.063a.466.466,0,0,0-.891,0h-.683a2.489,2.489,0,0,0,.134-.716h3.821Zm-4.3.917a.461.461,0,0,0-.2-.046H386a1.823,1.823,0,0,1-.084-.549v-.478a.478.478,0,0,0,.315-.313h.989a.546.546,0,0,0,.088.186Zm.06.423a.256.256,0,1,1-.074-.182.255.255,0,0,1,.074.182m.136-.239,1.048-1.194a.543.543,0,0,0,.1.038V778a.477.477,0,0,0-.3.263,1.821,1.821,0,0,1-.872-.5.463.463,0,0,0,.019-.523m.979-1.672a.308.308,0,1,1,.308.308.308.308,0,0,1-.308-.308m.3,2.627a.256.256,0,1,1-.181.076.258.258,0,0,1,.181-.076m.131-.191V776.1a.533.533,0,0,0,.107-.038l1.049,1.194a.464.464,0,0,0,.017.521,1.815,1.815,0,0,1-.877.5.478.478,0,0,0-.3-.265m.31-2.111a.543.543,0,0,0,.091-.188h.977a.477.477,0,0,0,.315.313v.478a1.84,1.84,0,0,1-.084.547h-.06a.462.462,0,0,0-.2.045Zm1.24,1.345a.256.256,0,1,1-.181.076.258.258,0,0,1,.181-.076m.017-1.672a.256.256,0,1,1,.074.182.255.255,0,0,1-.074-.182m0-2.195a.256.256,0,1,1,.074.182.255.255,0,0,1-.074-.182m.06.423.067.024v1.3a.478.478,0,0,0-.315.313h-.977a.544.544,0,0,0-.072-.165ZM388,775.1a.548.548,0,0,0-.136-.052v-1.218a.478.478,0,0,0,.315-.313h1.063a.483.483,0,0,0,.053.115Zm-.268-1.461a.258.258,0,1,1,.256-.258.256.256,0,0,1-.256.258m-.131.191v1.22a.537.537,0,0,0-.131.052l-1.146-1.3a2.274,2.274,0,0,0,.167-.289h.793a.477.477,0,0,0,.315.313m-.32,1.454a.549.549,0,0,0-.069.16h-.991a.478.478,0,0,0-.315-.313v-.872a2.026,2.026,0,0,0,.253-.239Zm-1.247.291a.255.255,0,1,1-.074-.182.255.255,0,0,1,.074.182m-1.132-9.811h5.662v6.57h-3.821a2.1,2.1,0,0,0-1.836-2.123Zm1.5,6.665a1.617,1.617,0,1,1-1.593-1.884,1.758,1.758,0,0,1,1.593,1.884m-7.332-6.666h5.65v4.444a1.782,1.782,0,0,0-1.1.478h-.478v-1.758h.208v-.762h-.229v-.5h.155v-.451h-.131v.177h-.131v-.177h-.265v.177h-.131v-.177h-.131v.442h.155v.5h-.458v-1.1h.174v-.53h-.131v.177H382v-.177h-.265v.177h-.22v-.177h-.131v.53h.177v1.1H381.1v-.5h.155v-.442h-.131v.177h-.131v-.177h-.265v.177H380.6v-.177h-.131v.442h.155v.5h-.208v.762h.208v1.758h-.37v.881h1.28v-.623a.358.358,0,0,1,.716,0v.623h.793a2.489,2.489,0,0,0-.153.771h-3.831Zm3.554,3.382v.478h-.387v-.478a.193.193,0,0,1,.387,0m-1.094,0v.478h-.387v-.478a.193.193,0,0,1,.387,0m-2.46,3.382h.685V778.2a3.167,3.167,0,0,1-.685-2.044Z" transform="translate(-370.819 -745.399)" fill="#f1bf00"/><path d="M258.553,795.91a.122.122,0,0,0-.122-.122h-1.619a.123.123,0,1,0-.055.239h0a.279.279,0,0,1,.122.239.272.272,0,0,1-.117.239h0a.148.148,0,0,0-.069.129.134.134,0,0,0,.122.143h1.617a.134.134,0,0,0,.122-.143.148.148,0,0,0-.072-.131h0a.267.267,0,0,1-.115-.239.258.258,0,0,1,.11-.239h0a.122.122,0,0,0,.079-.115" transform="translate(-252.308 -775.032)" fill="#f1bf00"/><rect width="2.352" height="0.669" transform="translate(4.132 32.398)" fill="#f1bf00"/><path d="M263.8,840.684a7.788,7.788,0,0,1,.955-.065v-1.763h-1.493v1.932c.177-.043.358-.079.544-.105" transform="translate(-258.683 -816.895)" fill="#f1bf00"/><path d="M259.054,1060.321c-.5.272-1,.513-1.433.7v2.481a1.3,1.3,0,0,1-.15.685.074.074,0,0,0,.053.115h1.7c.053,0,.072-.064.041-.115a1.26,1.26,0,0,1-.146-.685v-3.215l-.062.034" transform="translate(-253.052 -1032.121)" fill="#f1bf00"/><path d="M323.431,981.365v.776a3.643,3.643,0,0,0,.58-.478l.1-.1a1.351,1.351,0,0,0-.676-.212" transform="translate(-317.179 -955.418)" fill="#f1bf00"/><path d="M229.556,1247.312a1.378,1.378,0,0,1-.528.031,2.368,2.368,0,0,1-.425-.129,1.861,1.861,0,0,0-.716-.155,1.915,1.915,0,0,0-.738.158,2.4,2.4,0,0,1-.428.128,1.312,1.312,0,0,1-.511-.03.859.859,0,0,0-.158-.024v.239a.931.931,0,0,1,.11.02,1.921,1.921,0,0,0,.4.05,1.093,1.093,0,0,0,.205-.019,2.584,2.584,0,0,0,.478-.141,1.678,1.678,0,0,1,.654-.141,1.618,1.618,0,0,1,.638.141,2.562,2.562,0,0,0,.466.141,1.6,1.6,0,0,0,.619-.033l.093-.017v-.239a.763.763,0,0,0-.141.021" transform="translate(-222.518 -1213.679)" fill="#f1bf00"/><path d="M229.557,1266.427a1.373,1.373,0,0,1-.528.031,2.361,2.361,0,0,1-.425-.129,1.861,1.861,0,0,0-.716-.155,1.9,1.9,0,0,0-.738.158,2.376,2.376,0,0,1-.428.128,1.309,1.309,0,0,1-.511-.031.838.838,0,0,0-.158-.024v.239a.838.838,0,0,1,.11.019,1.954,1.954,0,0,0,.4.05,1.074,1.074,0,0,0,.205-.019,2.563,2.563,0,0,0,.478-.141,1.67,1.67,0,0,1,.654-.141,1.618,1.618,0,0,1,.638.141,2.562,2.562,0,0,0,.466.141,1.593,1.593,0,0,0,.619-.033l.093-.017v-.239a.763.763,0,0,0-.141.021" transform="translate(-222.518 -1232.259)" fill="#f1bf00"/><path d="M229.556,1284.228a1.379,1.379,0,0,1-.528.034,2.412,2.412,0,0,1-.425-.129,1.852,1.852,0,0,0-.717-.155,1.891,1.891,0,0,0-.738.157,2.375,2.375,0,0,1-.428.129,1.312,1.312,0,0,1-.511-.03.838.838,0,0,0-.158-.024v.239a.982.982,0,0,1,.11.019,1.888,1.888,0,0,0,.4.05,1.073,1.073,0,0,0,.205-.019,2.583,2.583,0,0,0,.478-.14,1.675,1.675,0,0,1,.654-.144,1.622,1.622,0,0,1,.638.141,2.546,2.546,0,0,0,.466.141,1.61,1.61,0,0,0,.619-.034l.093-.017v-.239a.785.785,0,0,0-.141.021" transform="translate(-222.518 -1249.56)" fill="#f1bf00"/><path d="M264.75,955.45a5.424,5.424,0,0,0-.642.046,4.375,4.375,0,0,0-.853.193v2.126a10.244,10.244,0,0,0,1.259-.63l.239-.141Z" transform="translate(-258.689 -930.228)" fill="#f1bf00"/><path d="M239.256,1000.029l-.043.177a12.084,12.084,0,0,0,3.186-1.686l-.1-.829a6.238,6.238,0,0,1-1.046.731,8.612,8.612,0,0,1-1.813.831c-.036.169-.117.5-.182.778" transform="translate(-235.316 -971.285)" fill="#f1bf00"/><path d="M245.744,930.643l-.06.024.1.239.062-.031a.122.122,0,0,0,.045-.158.114.114,0,0,0-.146-.079" transform="translate(-241.607 -906.107)" fill="#f1bf00"/><path d="M207.448,909.388a3.5,3.5,0,0,0-2.118.91.313.313,0,0,0-.076.227c.019.055.217.506.387.884a.658.658,0,0,1,.055-.088,3.252,3.252,0,0,1,2-.869,6.986,6.986,0,0,1,.855-.05,4.677,4.677,0,0,1,1.347.146v-1.1a5.622,5.622,0,0,0-1.4-.119,7.808,7.808,0,0,0-1.053.062m-.654.683c-.033.076-.119.139-.279.2l.117.294-.2.079-.279-.7.3-.119c.22-.086.3,0,.334.074a.206.206,0,0,1,0,.162m.339.337v-.012l-.162-.717H207l.072-.012.069-.019h.036v.014l.139.611c.1-.024.186-.05.267-.074h.014l.026.115Zm1.259-.829c-.091.217-.184.442-.263.671H208c-.112-.21-.239-.43-.4-.69v-.019h.021l.222-.017h0a3.586,3.586,0,0,0,.179.344l.072.131c.057-.143.129-.327.184-.511h0a.84.84,0,0,0,.112,0h.024Zm.182.6a.837.837,0,0,0,.048-.126h.045a.153.153,0,0,0,.15.119c.067,0,.139-.017.143-.083s-.062-.1-.139-.139-.217-.107-.2-.255.117-.225.327-.206a.391.391,0,0,1,.2.072h0a.959.959,0,0,0-.05.1h-.036a.136.136,0,0,0-.124-.1c-.084,0-.129.019-.134.079s.06.086.136.127.239.119.215.265-.143.213-.318.213h-.053a.46.46,0,0,1-.205-.067h0Z" transform="translate(-202.304 -885.394)" fill="#f1bf00"/><path d="M224.472,972.987v-.955a2.8,2.8,0,0,1-.339-.024,1.469,1.469,0,0,0-.478.368.428.428,0,0,0-.038.06l-.065.124v.014c.041.239.384.382.919.423" transform="translate(-220.095 -946.314)" fill="#f1bf00"/><path d="M591.035,485.928h.15v-.239h.179v-.153h-.179v-.21h-.15v.21h-.179v.153h.179Z" transform="translate(-577.122 -473.251)" fill="#f1bf00"/><path d="M390.48,540.446a.036.036,0,0,1-.014.041.416.416,0,0,0-.2.239.033.033,0,0,0,.045.045.416.416,0,0,1,.578.318.033.033,0,0,0,.021.027.033.033,0,0,0,.034-.006.26.26,0,0,1,.389.32.036.036,0,0,0,.012.043,2.15,2.15,0,0,1,.977,1.588.036.036,0,0,0,.043.029,14.782,14.782,0,0,1,7.47,0,.034.034,0,0,0,.028-.005.035.035,0,0,0,.015-.024,2.149,2.149,0,0,1,.977-1.588.036.036,0,0,0,.012-.043.26.26,0,0,1,.389-.32.034.034,0,0,0,.034.006.033.033,0,0,0,.021-.027.416.416,0,0,1,.578-.318.033.033,0,0,0,.045-.045.416.416,0,0,0-.193-.239.036.036,0,0,1-.014-.04,2.532,2.532,0,0,0,.239-.76c.16-1.314-1.082-2-2.895-1.729-.4-.671-1.433-.9-2.746-.611-.017-.122,0-.342-.213-.342s-.205.213-.213.342c-1.318-.289-2.35-.06-2.746.611-1.813-.27-3.054.416-2.895,1.729a2.529,2.529,0,0,0,.239.759m2.257,2.085a.181.181,0,1,1,.181-.181.181.181,0,0,1-.181.181m1.54-.4-.461.3a.033.033,0,0,1-.038,0l-.511-.2a.031.031,0,0,1-.019-.029.031.031,0,0,1,.019-.029l.459-.3h.033l.513.2a.031.031,0,0,1,0,.057m.645.174a.212.212,0,1,1,.21-.213.21.21,0,0,1-.21.213m1.715-.239-.511.263a.031.031,0,0,1-.038,0l-.511-.263a.033.033,0,0,1,0-.06l.509-.26h.038l.509.26a.033.033,0,0,1,0,.06m.652.239a.213.213,0,1,1,.21-.213.21.21,0,0,1-.21.213m1.653-.069-.511.2a.033.033,0,0,1-.038,0l-.461-.3a.031.031,0,0,1,0-.057l.513-.2h.033l.456.3a.032.032,0,0,1,0,.057m.53.3a.181.181,0,1,1,.181-.181.181.181,0,0,1-.181.181m-.537-2.338a.22.22,0,0,1,.2-.184.029.029,0,0,0,.019-.05.324.324,0,0,0-.117-.072c-.062-.019-.112-.076-.091-.124a2.032,2.032,0,0,0,.17-1.708c1.12-.115,1.939.136,2.243.8a1.88,1.88,0,0,1,.019,1.306.038.038,0,0,0,0,.036,2.177,2.177,0,0,1,.105.2.034.034,0,0,1,0,.031.033.033,0,0,1-.024.019.418.418,0,0,0-.15.062.036.036,0,0,1-.05,0,.716.716,0,0,0-.141-.225c-.033-.033-.067,0-.088.031a.717.717,0,0,0-.189.435.033.033,0,0,1-.06.024.315.315,0,0,0-.361-.107.037.037,0,0,0-.021.026.4.4,0,0,0,0,.158.031.031,0,0,1-.01.036.031.031,0,0,1-.038,0,.253.253,0,0,0-.344.062.032.032,0,0,0,0,.033.315.315,0,0,0,.215.179.033.033,0,0,1,.025.02.033.033,0,0,1,0,.032.267.267,0,0,0-.048.1.036.036,0,0,0,.053.038.259.259,0,0,1,.215-.021.325.325,0,1,1-.638.115.172.172,0,1,0-.239-.083c-.287.239-.879.155-.807-.268a.21.21,0,0,1,.251-.182.22.22,0,0,1,.181.2.029.029,0,0,0,.05.019.329.329,0,0,0,.084-.17.053.053,0,0,1,.017-.048c.017-.012.024,0,.036,0a.325.325,0,0,0,.289-.1.031.031,0,0,0,0-.038.325.325,0,0,0-.239-.188c-.014,0-.026,0-.033-.014s0-.033,0-.05a.328.328,0,0,0-.022-.186.029.029,0,0,0-.052,0,.22.22,0,0,1-.418-.127m-.043.306a.22.22,0,1,1-.158-.115.222.222,0,0,1,.158.115m-2.474-1.433a.088.088,0,0,0,.091-.091.133.133,0,0,0,0-.043,2.476,2.476,0,0,1-.143-.809c0-.225-.014-.444-.024-.678,1.06-.2,1.868-.093,2.235.387a1.671,1.671,0,0,1-.017,1.629.033.033,0,0,0,.012.045,2.145,2.145,0,0,1,.191.141c.052.055-.057.172-.136.174a.32.32,0,0,0-.134.029.029.029,0,0,0,0,.052.22.22,0,1,1-.308.217.029.029,0,0,0-.05-.019.326.326,0,0,0-.084.169.053.053,0,0,1-.017.048c-.017.012-.024,0-.036,0a.324.324,0,0,0-.289.1.031.031,0,0,0,0,.041.325.325,0,0,0,.239.189c.014,0,.026,0,.033.014s0,.033,0,.05a.328.328,0,0,0,.021.186.029.029,0,0,0,.053,0,.22.22,0,0,1,.416.126c-.062.411-.7.325-.9-.031a.172.172,0,1,0-.2-.031c-.3.38-1.156.294-1.063-.205a.26.26,0,0,1,.506,0,.034.034,0,0,0,.062,0,.385.385,0,0,0,.065-.212c0-.052,0-.067.05-.067a.38.38,0,0,0,.315-.167.038.038,0,0,0,0-.048.38.38,0,0,0-.315-.169c-.06,0-.05-.014-.05-.067a.386.386,0,0,0-.065-.213.033.033,0,0,0-.062,0,.258.258,0,1,1-.315-.313.034.034,0,0,0,0-.062.382.382,0,0,0-.148-.06.153.153,0,0,1-.134-.16.165.165,0,0,1,.2-.16m-.057,1.177a.26.26,0,1,1-.257-.217.261.261,0,0,1,.257.217m-2.72-2.412c.368-.478,1.175-.59,2.235-.387,0,.134-.014.444-.024.678a2.672,2.672,0,0,1-.143.81.129.129,0,0,0,0,.043.089.089,0,0,0,.091.091.165.165,0,0,1,.2.16.153.153,0,0,1-.134.16.375.375,0,0,0-.148.06.033.033,0,0,0,0,.062.258.258,0,1,1-.315.313.033.033,0,0,0-.062,0,.384.384,0,0,0-.062.213c0,.052,0,.067-.052.067a.38.38,0,0,0-.315.17.038.038,0,0,0,0,.048.38.38,0,0,0,.315.167c.06,0,.052.014.052.067a.384.384,0,0,0,.064.213.033.033,0,0,0,.062,0,.26.26,0,0,1,.5,0c.093.5-.762.585-1.063.205a.172.172,0,1,0-.2.031c-.2.356-.836.442-.9.031a.21.21,0,0,1,.177-.255.22.22,0,0,1,.239.129.029.029,0,0,0,.053,0,.329.329,0,0,0,.024-.186c0-.017-.012-.033,0-.05s.022,0,.033-.014a.325.325,0,0,0,.239-.189.031.031,0,0,0,0-.041.325.325,0,0,0-.289-.1h-.036c-.012,0-.012-.031-.017-.048a.329.329,0,0,0-.084-.17.029.029,0,0,0-.05.019.22.22,0,1,1-.308-.217.029.029,0,0,0,0-.053.32.32,0,0,0-.134-.029c-.081,0-.189-.12-.136-.174a2.144,2.144,0,0,1,.191-.141.034.034,0,0,0,.012-.045,1.672,1.672,0,0,1-.017-1.629m-.325,2.673a.222.222,0,1,1,.015.239.222.222,0,0,1-.015-.239m-2.591-.107a2.165,2.165,0,0,1,.105-.2.038.038,0,0,0,0-.036,1.882,1.882,0,0,1,.019-1.306c.3-.661,1.122-.912,2.243-.8a2.032,2.032,0,0,0,.17,1.708c.022.048-.029.107-.091.124a.323.323,0,0,0-.117.072.029.029,0,0,0,.019.05.22.22,0,1,1-.22.31.029.029,0,0,0-.052,0,.327.327,0,0,0-.022.186c0,.017.012.036,0,.05s-.022,0-.033.014a.325.325,0,0,0-.239.189.031.031,0,0,0,0,.038.325.325,0,0,0,.289.1h.036c.012,0,.012.031.017.048a.327.327,0,0,0,.084.169.029.029,0,0,0,.05-.019.218.218,0,0,1,.435-.019c.072.423-.518.5-.807.268a.172.172,0,1,0-.239.083.325.325,0,1,1-.638-.115.258.258,0,0,1,.215.022.036.036,0,0,0,.039,0,.036.036,0,0,0,.014-.036.268.268,0,0,0-.048-.1.034.034,0,0,1,0-.032.033.033,0,0,1,.025-.02.315.315,0,0,0,.215-.179.031.031,0,0,0,0-.034.253.253,0,0,0-.344-.062.031.031,0,0,1-.038,0,.031.031,0,0,1-.01-.036.4.4,0,0,0,0-.158.039.039,0,0,0-.022-.026.315.315,0,0,0-.361.108.033.033,0,0,1-.06-.024.717.717,0,0,0-.189-.435c-.022-.024-.055-.064-.088-.031a.717.717,0,0,0-.141.224.036.036,0,0,1-.05,0,.415.415,0,0,0-.151-.062.033.033,0,0,1-.024-.019.033.033,0,0,1,0-.031" transform="translate(-382.117 -523.488)" fill="#f1bf00"/><path d="M588.351,509.333a.339.339,0,0,0-.26.27h.26Z" transform="translate(-574.428 -496.59)" fill="#f1bf00"/><path d="M602.617,509.333v.27h.26a.339.339,0,0,0-.26-.27" transform="translate(-588.555 -496.59)" fill="#f1bf00"/><path d="M588.472,523.943a.339.339,0,0,0,.332-.27h-.664a.339.339,0,0,0,.332.27" transform="translate(-574.482 -510.528)" fill="#f1bf00"/><path d="M878.651,795.981a.122.122,0,0,0-.122-.122H876.91a.122.122,0,0,0-.043.239h0a.258.258,0,0,1,.11.239.267.267,0,0,1-.115.239h0a.146.146,0,0,0-.072.131.134.134,0,0,0,.122.143h1.617a.134.134,0,0,0,.122-.143.149.149,0,0,0-.069-.129h0a.272.272,0,0,1-.117-.239.279.279,0,0,1,.122-.239h0a.122.122,0,0,0,.067-.11" transform="translate(-855.058 -775.101)" fill="#f1bf00"/><rect width="2.352" height="0.669" transform="translate(21.491 32.401)" fill="#f1bf00"/><path d="M884.311,840.757c.186.026.368.062.545.105V838.93h-1.493v1.763a7.764,7.764,0,0,1,.955.065" transform="translate(-861.449 -816.966)" fill="#f1bf00"/><path d="M877.857,1060.388l-.062-.033v3.214a1.264,1.264,0,0,1-.146.685c-.031.05,0,.115.041.115h1.7a.074.074,0,0,0,.052-.115,1.308,1.308,0,0,1-.15-.685v-2.481c-.437-.184-.934-.425-1.433-.7" transform="translate(-855.881 -1032.197)" fill="#f1bf00"/><path d="M853.074,981.433a1.354,1.354,0,0,0-.676.213l.1.1a3.658,3.658,0,0,0,.58.478Z" transform="translate(-831.348 -955.483)" fill="#f1bf00"/><path d="M846.43,1247.419a2.365,2.365,0,0,1-.427-.129,1.9,1.9,0,0,0-.738-.158,1.856,1.856,0,0,0-.716.155,2.368,2.368,0,0,1-.425.129,1.381,1.381,0,0,1-.528-.034.779.779,0,0,0-.141-.021v.239l.093.017a1.612,1.612,0,0,0,.619.033,2.551,2.551,0,0,0,.466-.14,1.6,1.6,0,0,1,.638-.141,1.666,1.666,0,0,1,.654.144,2.564,2.564,0,0,0,.478.141,1.134,1.134,0,0,0,.205.019,1.95,1.95,0,0,0,.4-.05.992.992,0,0,1,.11-.019v-.239a.868.868,0,0,0-.157.024,1.324,1.324,0,0,1-.511.03" transform="translate(-822.653 -1213.75)" fill="#f1bf00"/><path d="M846.43,1266.534a2.374,2.374,0,0,1-.427-.129,1.9,1.9,0,0,0-.738-.158,1.863,1.863,0,0,0-.716.155,2.345,2.345,0,0,1-.425.129,1.373,1.373,0,0,1-.528-.031.743.743,0,0,0-.141-.021v.238l.093.017a1.593,1.593,0,0,0,.619.034,2.577,2.577,0,0,0,.466-.141,1.607,1.607,0,0,1,.638-.141,1.665,1.665,0,0,1,.654.141,2.572,2.572,0,0,0,.478.14,1.126,1.126,0,0,0,.206.02,1.914,1.914,0,0,0,.4-.051.879.879,0,0,1,.11-.02v-.239a.857.857,0,0,0-.157.024,1.322,1.322,0,0,1-.511.031" transform="translate(-822.653 -1232.33)" fill="#f1bf00"/><path d="M846.43,1284.335a2.394,2.394,0,0,1-.427-.129,1.9,1.9,0,0,0-.738-.157,1.856,1.856,0,0,0-.716.155,2.4,2.4,0,0,1-.425.131,1.383,1.383,0,0,1-.528-.033.757.757,0,0,0-.141-.022v.239l.093.017a1.612,1.612,0,0,0,.619.033,2.538,2.538,0,0,0,.466-.14,1.611,1.611,0,0,1,.638-.141,1.674,1.674,0,0,1,.654.143,2.611,2.611,0,0,0,.478.141,1.146,1.146,0,0,0,.205.02,1.938,1.938,0,0,0,.4-.05.875.875,0,0,1,.11-.019v-.239a.85.85,0,0,0-.158.024,1.32,1.32,0,0,1-.511.031" transform="translate(-822.653 -1249.634)" fill="#f1bf00"/><path d="M884.857,957.886v-2.125a4.428,4.428,0,0,0-.853-.193c-.2-.024-.418-.041-.642-.045v1.591l.239.141a10.19,10.19,0,0,0,1.259.63" transform="translate(-861.45 -930.3)" fill="#f1bf00"/><path d="M846.854,998.593a12.065,12.065,0,0,0,3.186,1.686L850,1000.1c-.067-.275-.146-.611-.181-.778a8.648,8.648,0,0,1-1.813-.831,6.212,6.212,0,0,1-1.046-.731Z" transform="translate(-825.96 -971.358)" fill="#f1bf00"/><path d="M929.142,924.677a.214.214,0,0,0,0-.05c0-.072-.072-.088-.141-.1h0l-.06.239a.183.183,0,0,0,.141,0,.137.137,0,0,0,.06-.091Z" transform="translate(-905.752 -900.165)" fill="#f1bf00"/><path d="M958.433,942.271v-.21l-.174.127Z" transform="translate(-934.26 -917.212)" fill="#f1bf00"/><path d="M833.089,910.368a3.5,3.5,0,0,0-2.118-.91,7.857,7.857,0,0,0-1.053-.062,5.605,5.605,0,0,0-1.4.119v1.1a4.689,4.689,0,0,1,1.347-.145,7.081,7.081,0,0,1,.855.05,3.254,3.254,0,0,1,2,.87.687.687,0,0,1,.055.088c.17-.38.368-.829.387-.884a.316.316,0,0,0-.077-.227m-3.513-.716c-.074.222-.153.451-.213.683h0l-.1.014h0c-.127-.2-.263-.4-.444-.664l-.012-.019h.024l.22-.033h0c.06.112.134.224.2.332l.081.126c.048-.148.105-.334.146-.521h0l.112-.017h.024Zm.716.65v.014l-.509-.012.019-.742h.217l-.017.64h.294v.017a.505.505,0,0,0,0,.086m.685-.549c-.067-.012-.134-.026-.206-.033l-.062.645H830.7l-.189-.017H830.5l.062-.645a2.074,2.074,0,0,0-.222,0h-.017v-.017a.527.527,0,0,0,0-.083v-.017l.681.065v.014a.53.53,0,0,0,0,.084v.017Zm.685.824-.222-.052h0l-.1-.256-.029-.072-.014-.038-.077.313h-.014l-.184-.043h-.014l.177-.716.291.069a.546.546,0,0,1,.184.067.167.167,0,0,1,.076.184.21.21,0,0,1-.239.151h0c.033.084.072.167.107.239l.033.072.045.1Zm.822.408h-.019l-.191-.1h0v-.045c0-.076.019-.148.024-.222l-.239-.127-.052.043c-.043.033-.083.067-.122.1h0l-.1-.055h-.019l.69-.5h0l.041.024.043.019h0Z" transform="translate(-808.137 -885.466)" fill="#f1bf00"/><path d="M944.356,972.444a1.471,1.471,0,0,0-.478-.368,2.8,2.8,0,0,1-.339.024v.955c.535-.041.879-.189.919-.423v-.014l-.064-.124a.525.525,0,0,0-.038-.06" transform="translate(-919.939 -946.389)" fill="#f1bf00"/><path d="M889.769,714.682v-1.039a.283.283,0,0,0-.081-.033.308.308,0,0,0-.072,0,.3.3,0,0,0-.27.172l.014.041c.093.239.239.611.351.876h.057" transform="translate(-867.263 -695.141)" fill="#f1bf00"/><path d="M865.6,725.279l.021.033c.112.17.282.432.5.783.045-.024.093-.048.141-.069-.105-.253-.239-.6-.339-.85v-.017h0a.308.308,0,0,0-.072,0,.3.3,0,0,0-.239.126" transform="translate(-844.185 -706.371)" fill="#f1bf00"/><path d="M934.093,726.089c.217-.346.385-.607.5-.774l.014-.024a.3.3,0,0,0-.239-.136H934.3v.019c-.093.239-.239.588-.337.843a1.29,1.29,0,0,1,.143.067" transform="translate(-910.619 -706.374)" fill="#f1bf00"/><path d="M902.794,670.84a.185.185,0,0,1,.134,0V670.6h.184v-.136h-.184v-.21h-.134v.21H902.6v.136h.184Z" transform="translate(-880.156 -653.008)" fill="#f1bf00"/><path d="M854.792,707.449l.079-.057.033-.021c-.155-.239-.37-.585-.514-.8l-.014-.021h0a.411.411,0,0,1,0-.478.337.337,0,0,1,.263-.107.586.586,0,0,1,.108,0,.772.772,0,0,1,.012-.143.683.683,0,0,0-.117,0,.478.478,0,0,0-.373.158.564.564,0,0,0,.012.688c.143.217.361.554.518.8" transform="translate(-833.052 -687.551)" fill="#f1bf00"/><path d="M878.468,694.265v.036h0a1.155,1.155,0,0,0,.069.277v.014c.1.239.239.6.344.86l.136-.038c-.105-.258-.251-.614-.349-.869v-.017a.982.982,0,0,1-.064-.267.577.577,0,0,1,0-.06.5.5,0,0,1,0-.074v-.055h0a.277.277,0,0,1,.282-.21.575.575,0,0,1,.313.11v-.165a.672.672,0,0,0-.313-.086.421.421,0,0,0-.413.3v.05a.686.686,0,0,0-.012.181Z" transform="translate(-856.688 -675.821)" fill="#f1bf00"/><path d="M942.561,705.961a.336.336,0,0,1,.263.107.415.415,0,0,1-.012.5h0c-.112.17-.284.437-.506.79l.029.017h0l.091.062c.153-.239.366-.576.506-.791a.564.564,0,0,0,.012-.688.478.478,0,0,0-.373-.158.691.691,0,0,0-.117,0,.788.788,0,0,1,.012.143.558.558,0,0,1,.107,0" transform="translate(-918.731 -687.579)" fill="#f1bf00"/><path d="M919.181,713.791h0a.3.3,0,0,0-.349-.177.28.28,0,0,0-.069.029v1.041h.057c.153-.373.275-.676.349-.874v-.026" transform="translate(-895.86 -695.146)" fill="#f1bf00"/><path d="M917.806,693.972a.571.571,0,0,1,.31-.11.277.277,0,0,1,.282.21h0v.043h0a.582.582,0,0,1,0,.077c0,.014,0,.036,0,.06a.991.991,0,0,1-.064.268l-.014.041c-.1.253-.239.595-.337.841l.139.038c.1-.256.239-.611.344-.862h0a1.145,1.145,0,0,0,.069-.277v-.045h0a.676.676,0,0,0-.012-.182v-.05a.417.417,0,0,0-.413-.3.667.667,0,0,0-.313.086Z" transform="translate(-894.939 -675.819)" fill="#f1bf00"/><path d="M908.822,694.132a.056.056,0,0,0,0-.019.086.086,0,0,0-.153,0,.065.065,0,0,0,0,.021v1.576a1.544,1.544,0,0,1,.165,0Z" transform="translate(-886.036 -676.154)" fill="#f1bf00"/><path d="M880.826,756.932l-.024-.014h-.038a1.522,1.522,0,0,0-.208-.1h-.038a1.481,1.481,0,0,0-.172-.045h-.052l-.11-.014h-.062a1.22,1.22,0,0,0-.187,0h-.05l-.108.017h-.038a1.393,1.393,0,0,0-.169.048l-.048.019a1.536,1.536,0,0,0-.205.1l-.06.038-.029.017c-.024.017-.067.036-.088.052l.265.38a.02.02,0,0,0,.017,0h0a1.376,1.376,0,0,1,.136-.064h.026a1.272,1.272,0,0,1,.478-.091,1.165,1.165,0,0,1,.447.091h.017a1.4,1.4,0,0,1,.138.069h0a.019.019,0,0,0,.017,0l.267-.392c-.024-.017-.067-.041-.1-.057" transform="translate(-857.298 -737.023)" fill="#f1bf00"/><path d="M609.309,1056.775Z" transform="translate(-595.056 -1028.719)" fill="#f1bf00"/><path d="M297.119,696.9h.048l.131-.385a2.119,2.119,0,0,1,.478-.769l.014-.012h0a.411.411,0,0,0-.669-.32Z" transform="translate(-291.602 -677.379)" fill="#f1bf00"/><path d="M303.915,714.771a1.7,1.7,0,0,1,.174.052l.124-.363a1.814,1.814,0,0,1,.478-.771.409.409,0,0,0-.1,0h-.045l-.064.014a1.973,1.973,0,0,0-.437.716l-.127.365" transform="translate(-298.207 -695.216)" fill="#f1bf00"/><path d="M314.864,717.411a1.759,1.759,0,0,1,.287.167,7.042,7.042,0,0,0,.478-.8h0a.41.41,0,0,0-.143-.492l-.024.019a1.624,1.624,0,0,0-.463.738l-.127.372" transform="translate(-308.851 -697.749)" fill="#f1bf00"/><path d="M257.133,696.739l.124.365v.014h.038v-1.471a.4.4,0,0,0-.654.315h0a2.151,2.151,0,0,1,.478.776" transform="translate(-252.259 -677.598)" fill="#f1bf00"/><path d="M234.414,716.792a6.979,6.979,0,0,0,.478.8,1.78,1.78,0,0,1,.287-.167l-.127-.373a1.624,1.624,0,0,0-.463-.738l-.024-.019a.413.413,0,0,0-.146.49Z" transform="translate(-230.619 -697.758)" fill="#f1bf00"/><path d="M279.445,670.419h0a.214.214,0,0,1,.143,0h0v-.179h.184v-.162H279.6v-.208h-.16v.208h-.184v.162h.184Z" transform="translate(-274.243 -652.63)" fill="#f1bf00"/><path d="M285.587,693.422a.093.093,0,1,0-.184,0v1.531a1.621,1.621,0,0,1,.184,0Z" transform="translate(-280.213 -675.439)" fill="#f1bf00"/><path d="M254.306,755.737l.27.411a.052.052,0,0,0,.045.024h.026a1.332,1.332,0,0,1,.635-.162,1.311,1.311,0,0,1,.631.16.055.055,0,0,0,.072-.019l.239-.418h0a1.6,1.6,0,0,0-1.911.019Z" transform="translate(-249.988 -735.777)" fill="#f1bf00"/><path d="M246.96,714.695l.122.358a1.225,1.225,0,0,1,.16-.048l-.124-.358a1.967,1.967,0,0,0-.435-.716l-.064-.014h-.043a.425.425,0,0,0-.084,0,1.836,1.836,0,0,1,.463.766" transform="translate(-242.396 -695.455)" fill="#f1bf00"/></g></svg>