<svg xmlns="http://www.w3.org/2000/svg" id="Layer_2" viewBox="0 0 210 210"><g id="Layer_1-2"><g><g><circle cx="105" cy="105" r="105" fill="#ce0e2d"></circle><path d="M105,5.32c54.96,0,99.68,44.72,99.68,99.68s-44.72,99.68-99.68,99.68S5.32,159.96,5.32,105,50.04,5.32,105,5.32M105,0C47.01,0,0,47.01,0,105s47.01,105,105,105,105-47.01,105-105S162.99,0,105,0h0Z" fill="#002856"></path></g><g><g><g><g><path d="M105,166.16c-25.85,0-46.88-21.03-46.88-46.87,0-12.9,5.42-25.38,14.88-34.22l.13-.12-.08-.15c-2.39-4.47-2.57-7.75-2.56-8.65v-.57c.07-3.36,1.36-5.93,2.43-7.5,1.07-1.56,2.11-2.47,2.51-2.79,2.02-1.67,4.64-2.55,7.56-2.55,3.84,.02,7.1,1.4,8.01,1.82,2,.89,3.54,1.11,4.48,1.13h.17s.05-.16,.05-.16c.53-1.6,1.48-3.04,2.75-4.19l.73-.66-4.43,1.25,.52-3.49,.27-1.43c.5-2.62,2.22-4.92,4.97-6.64,.44-.27,.89-.53,1.36-.76l.13-.06v-5.67l3.54,.46c1.25,.16,2.4,.54,3.44,1.14,.53,.3,1.03,.66,1.49,1.07,.39,.34,.64,.68,.92,1.11l.09,.15c.66,1.22,.63,2.47,.61,3.38,0,.17-.02,.33-.03,.49-.02,.21-.03,.41-.03,.62v.16s.34,.12,.34,.12c.32,.11,.62,.22,.88,.4,1.26,.86,2.24,1.98,2.82,3.25,.24,.55,.4,1.08,.5,1.62,.09,.45,.14,.89,.16,1.32v.12c0,.36-.02,.6-.04,.8l-.06,.42c-.03,.18-.06,.37-.1,.57-.09,.42-.2,.79-.34,1.13-.26,.63-.61,1.24-1.04,1.81-.36,.48-.75,.85-1.22,1.19l-.4,.28,.47,.12c.21,.05,.43,.08,.67,.08,.49,0,.98-.1,1.42-.19,1.1-.22,2.04-.53,2.84-.92l.68-.3c.63-.26,1.21-.46,1.8-.64,1.93-.6,3.81-.9,5.57-.9,2.91,0,5.5,.86,7.51,2.49,.06,.05,.3,.25,.3,.25,.19,.16,.4,.35,.63,.59,.61,.61,1.16,1.29,1.66,2.01,1.01,1.47,2.24,3.88,2.41,7.04v.05s.03,.05,.03,.05v.96c0,.91-.2,4.21-2.56,8.62l-.08,.15,.13,.12c9.46,8.85,14.88,21.32,14.88,34.23,0,25.85-21.03,46.87-46.88,46.87Z" fill="#fff"></path><path d="M102.22,44.14l2.26,.29,1.03,.13c1.22,.16,2.35,.53,3.36,1.11,.51,.29,1,.64,1.46,1.04,.37,.32,.61,.65,.88,1.07l.03,.05,.05,.08c.63,1.17,.61,2.38,.59,3.26,0,.16-.02,.32-.03,.47-.02,.21-.03,.42-.03,.64v.32s.3,.11,.3,.11l.19,.07c.3,.11,.59,.21,.83,.37,1.23,.83,2.18,1.93,2.75,3.19,.22,.5,.38,1.01,.47,1.54,.09,.44,.14,.86,.16,1.28v.06s0,.06,0,.06v.08c0,.26-.02,.49-.05,.73l-.02,.13-.03,.24c-.03,.17-.06,.36-.1,.55-.09,.4-.2,.76-.33,1.09-.25,.61-.59,1.2-1.01,1.76-.35,.46-.72,.82-1.17,1.14l-.8,.57,.95,.25c.22,.06,.46,.09,.73,.09,.51,0,1.02-.1,1.5-.2,1.08-.22,2.04-.53,2.86-.93,.05-.03,.1-.04,.16-.07l.05-.02c.06-.03,.14-.06,.24-.11l.22-.09,.06-.02c.56-.23,1.14-.43,1.72-.61,1.91-.59,3.76-.89,5.52-.89,2.84,0,5.38,.84,7.36,2.45,.05,.04,.1,.08,.16,.13l.13,.11c.18,.15,.38,.34,.61,.57,.6,.6,1.15,1.27,1.63,1.98,.99,1.44,2.21,3.82,2.37,6.92v.09s.03,.05,.03,.05v.74c0,.05,0,.1,0,.17,0,.89-.19,4.14-2.53,8.51l-.17,.31,.26,.24c9.41,8.8,14.81,21.22,14.81,34.06,0,25.72-20.93,46.65-46.65,46.65s-46.65-20.92-46.65-46.65c0-12.84,5.4-25.25,14.8-34.06l.26-.24-.17-.31c-2.37-4.42-2.54-7.66-2.53-8.54v-.56c.06-3.31,1.33-5.84,2.39-7.38,1.05-1.53,2.07-2.42,2.47-2.74,1.98-1.63,4.54-2.49,7.44-2.49,3.76,.02,6.99,1.38,7.9,1.8,2.03,.91,3.6,1.13,4.56,1.15h.34s.11-.31,.11-.31c.52-1.56,1.45-2.97,2.69-4.09l1.46-1.31-1.89,.53-.17,.05-2.97,.84,.47-3.13,.27-1.43c.49-2.56,2.17-4.8,4.86-6.49,.43-.27,.88-.52,1.34-.75l.25-.13v-5.55m-.46-.52v5.79c-.43,.22-.89,.47-1.37,.77-2.81,1.76-4.56,4.1-5.07,6.79l-.27,1.44-.58,3.84,3.65-1.03,.17-.05c-1.28,1.15-2.27,2.62-2.82,4.28-.83-.02-2.36-.2-4.39-1.11-.94-.44-4.24-1.82-8.08-1.84h-.02c-2.98,0-5.65,.9-7.71,2.6-.42,.34-1.47,1.26-2.56,2.83-1.1,1.61-2.4,4.22-2.47,7.63v.35s0,.09,0,.09v.14c0,.98,.19,4.28,2.59,8.76-9.19,8.6-14.95,20.84-14.95,34.39,0,25.97,21.13,47.1,47.11,47.1s47.11-21.13,47.11-47.1c0-13.56-5.76-25.79-14.95-34.39,2.35-4.39,2.58-7.66,2.59-8.72,0-.06,0-.12,0-.18v-.84l-.03-.06c-.17-3.19-1.4-5.64-2.45-7.16-.5-.73-1.07-1.42-1.68-2.04-.24-.24-.46-.44-.64-.6-.05-.04-.09-.08-.13-.11-.06-.05-.11-.1-.18-.14-2.05-1.66-4.68-2.54-7.63-2.54h-.02c-1.78,0-3.68,.31-5.63,.91-.59,.18-1.18,.39-1.75,.62h-.04s-.03,.03-.03,.03c-.08,.04-.16,.07-.23,.1-.09,.04-.17,.07-.24,.1l-.05,.02h-.03s-.09,.05-.15,.08c-.86,.42-1.82,.71-2.75,.9-.44,.09-.94,.19-1.41,.19-.21,0-.42-.02-.62-.07,.5-.35,.9-.75,1.27-1.24,.45-.59,.81-1.21,1.07-1.86,.14-.35,.26-.73,.35-1.16,.04-.21,.08-.4,.11-.58,.01-.09,.02-.17,.03-.24l.02-.13v-.02s0-.02,0-.02c.02-.2,.05-.45,.05-.74v-.09s0-.05,0-.05v-.07c-.02-.45-.08-.89-.17-1.35-.1-.56-.27-1.11-.5-1.64v-.02s-.02-.02-.02-.02c-.6-1.31-1.6-2.47-2.9-3.35-.35-.23-.73-.35-1.12-.49,0-.37,.05-.73,.06-1.11,.02-.93,.05-2.21-.64-3.49l-.05-.09-.05-.08c-.29-.45-.56-.8-.96-1.16-.47-.42-.98-.78-1.53-1.1-1.08-.62-2.29-1-3.52-1.16l-1.03-.13-2.77-.36h0Z" fill="#fff"></path></g><g><path d="M114.51,59.26c-.01-.34-.06-.67-.12-1-.07-.38-.18-.76-.34-1.11-.44-.96-1.18-1.75-2.05-2.34-1.14-.77-2.22-1.04-2.28-1.05,.08-.32,.14-.67,.14-1.06v-1.09c0-.93,.12-1.89-.34-2.74l-.27-.43s-.05-.08-.09-.11c-.66-.8-1.86-1.52-3.91-1.78l-1.03-.13v4.59c-.59,.23-1.53,.64-2.53,1.26-1.63,1.02-3.48,2.66-3.96,5.16l-.27,1.43,3.9-1.1c-.36,1.28-.45,2.37-.45,3.1,0,.58,.05,.93,.06,.98l.18,1.18,1.09-.49c.22-.11,.81-.26,1.27-.34,.24-.05,.46-.08,.61-.1,.08-.01,.15-.02,.19-.03,.02,0,.04,0,.05,0l.17-.02,.58,.07c.86,.09,1.65,.28,2.23,.45,.28,.09,.51,.16,.66,.21,.15,.04,.17,.07,.24,.09,0,0,.01,0,.02,0l.16,.07,.43,.33,.03,.02c.05,.04,.18,.15,.34,.29,.23,.21,.52,.49,.77,.79l.47,.6,.71-.39s.02-.03,.03-.03c.02-.01,.05-.03,.09-.05,.13-.08,.26-.16,.38-.25,.64-.44,1.23-.97,1.7-1.58,.3-.39,.55-.82,.74-1.29,.1-.25,.17-.5,.23-.77,.03-.13,.06-.27,.08-.41,.02-.12,.03-.24,.05-.36,.02-.15,.03-.29,.03-.45,0-.04,0-.07,0-.11Z" fill="#002856"></path><g><path d="M101.88,61.69c.76-.34,2.4-.55,2.4-.55,.78-3.18,2.35-5,2.35-5l-4.22,1.31c-.81,2.4-.53,4.24-.53,4.24Z" fill="#b0b3b2"></path><path d="M105.21,61.19c1.86,.2,3.37,.8,3.37,.8,1.73-2.86,4.98-2.93,4.98-2.93-.11-3.44-4.06-4.43-4.06-4.43-3.48,2.65-4.29,6.55-4.29,6.55Z" fill="#b0b3b2"></path><path d="M109.41,62.52s.73,.55,1.3,1.27c0,0,2.7-1.5,2.84-3.85,0,0-2.52,0-4.14,2.58Z" fill="#b0b3b2"></path><path d="M108.95,52.67v-2.6s.05-2.12-3.82-2.62v4.19s-5.72,1.71-6.51,5.95l8.67-2.44s1.66-.4,1.66-2.47Z" fill="#fff"></path></g><g><path d="M111.41,68.49c0,3.54-2.87,6.41-6.41,6.41s-6.41-2.87-6.41-6.41,2.87-6.41,6.41-6.41,6.41,2.87,6.41,6.41Z" fill="#002856"></path><path d="M97.43,68.56c0-4.15,3.39-7.51,7.57-7.51h0c4.18,0,7.57,3.36,7.57,7.51h0c0,4.15-3.39,7.51-7.57,7.51h0c-4.18,0-7.57-3.36-7.57-7.51h0Zm2.14,0c0,2.97,2.43,5.38,5.44,5.39h0c3,0,5.42-2.42,5.43-5.39h0c0-2.98-2.43-5.38-5.43-5.39h0c-3,0-5.43,2.41-5.44,5.39h0Z" fill="#002856"></path></g><path d="M79.57,107.43v.02s0,23.65,0,23.65h.09l-.08,.04c1.38,2.96,3.26,5.65,5.54,7.93l.15,.15v-39.88l-.15,.16c-2.28,2.29-4.16,4.97-5.54,7.93Zm11.29,36.08l.04,.03c1.74,1.01,3.59,1.85,5.54,2.47l.12,.04v-48.68h-5.7v46.14Zm11.29,3.69h.08c.91,.09,1.83,.15,2.77,.15s1.86-.05,2.77-.14h.08v-49.84h-5.7v49.83Zm11.3-1.15l.12-.04c1.95-.63,3.8-1.46,5.54-2.47l.04-.03v-46.14h-5.7v48.68Zm16.99-38.61c-1.38-2.96-3.27-5.64-5.54-7.93l-.16-.15v39.87l.16-.15c2.27-2.29,4.16-4.97,5.54-7.93v-23.68s0-.02,0-.02Z" fill="#ce0e2d"></path><g><path d="M115.12,82.05l-.16,.07-9.96,3.88-10.12-3.95h-9.04l1.44,1.53s.01,0,.06,.06c.33,.38,1.77,2.25,1.76,4.78v24.43c0,1.34,.33,2.61,.85,3.79,1.24,2.76,3.6,5.06,6.08,6.91,2.02,1.51,4.13,2.71,5.79,3.56,1.54,.79,2.47,1.19,2.87,1.34l.33,.12,.33-.12c.38-.15,1.32-.55,2.86-1.34,1.67-.85,3.77-2.06,5.8-3.56,2.48-1.85,4.83-4.15,6.08-6.91,.52-1.18,.85-2.45,.85-3.79v-24.43c0-1.45,.46-2.67,.92-3.53,.23-.43,.46-.77,.64-1,.08-.11,.15-.2,.2-.25,.05-.05,.06-.06,.06-.06l1.43-1.53h-9.05Z" fill="#002856"></path><path d="M104.94,128.71l-.33-.13c-.4-.15-1.33-.55-2.88-1.34h0c-1.67-.86-3.78-2.06-5.82-3.58h0c-2.48-1.86-4.86-4.18-6.12-6.97h0c-.53-1.19-.86-2.48-.86-3.85h0v-24.42s0-.04,0-.04h0c0-2.45-1.4-4.29-1.72-4.65h0c-.05-.05-.05-.05-.05-.06h0l-1.67-1.78h9.42l10.09,3.93,9.91-3.86,.16-.06h.02s9.42-.01,9.42-.01l-1.68,1.78s0,0-.05,.05h0c-.04,.05-.11,.14-.19,.24h0c-.17,.22-.4,.56-.63,.98h0c-.45,.84-.9,2.03-.91,3.43h0v24.46c0,1.36-.33,2.65-.86,3.85h0c-1.27,2.8-3.65,5.11-6.13,6.97h0c-2.03,1.51-4.14,2.72-5.81,3.58h0c-1.54,.79-2.48,1.19-2.88,1.34h0l-.38,.15-.05-.02h0Zm-17.57-45.25s.02,.02,.06,.07h0c.34,.4,1.79,2.28,1.8,4.85h0v.03h0v24.43c0,1.32,.32,2.56,.83,3.72h0c1.23,2.73,3.57,5.01,6.03,6.85h0c2.01,1.5,4.11,2.7,5.77,3.55h0c1.54,.78,2.47,1.18,2.84,1.33h0l.28,.1,.28-.1c.38-.15,1.31-.55,2.85-1.33h0c1.67-.86,3.75-2.05,5.77-3.55h0c2.46-1.84,4.8-4.12,6.03-6.85h0c.52-1.16,.84-2.4,.84-3.72h0v-24.43h0c0-1.48,.46-2.73,.94-3.61h0c.24-.44,.48-.78,.65-1.01h0c.08-.12,.16-.2,.21-.26h0c.04-.05,.06-.07,.06-.07h0l1.2-1.27h-8.67l-.13,.05-10.02,3.9-10.15-3.95h-8.66l1.19,1.27h0Zm27.74-1.27v0h0Z" fill="#002856"></path></g><path d="M105,90.01c-16.16,0-29.27,13.1-29.27,29.27s13.11,29.27,29.27,29.27,29.27-13.11,29.27-29.27-13.11-29.27-29.27-29.27Zm0,56.71c-15.15,0-27.43-12.29-27.43-27.43s12.28-27.43,27.43-27.43,27.43,12.29,27.43,27.43-12.28,27.43-27.43,27.43Zm0-72.09c-24.66,0-44.65,19.99-44.65,44.65s19.99,44.65,44.65,44.65,44.65-19.99,44.65-44.65-19.99-44.65-44.65-44.65Zm0,87.34c-23.58,0-42.69-19.11-42.69-42.69s19.11-42.69,42.69-42.69,42.69,19.11,42.69,42.69-19.11,42.69-42.69,42.69Zm0-84.39c-23.03,0-41.7,18.67-41.7,41.7s18.67,41.69,41.7,41.69,41.7-18.67,41.7-41.69-18.67-41.7-41.7-41.7Zm0,72.01c-16.74,0-30.31-13.57-30.31-30.31s13.57-30.31,30.31-30.31,30.3,13.57,30.3,30.31-13.57,30.31-30.3,30.31Z" fill="#002856"></path><path d="M115.3,111.18c0,7.44-10.3,10.06-10.3,10.06,0,0-10.3-2.62-10.3-10.06v-23.72h20.6v23.72Z" fill="#002856"></path><path d="M114.45,102.8s-1.09,.42-.58,1.54c0,0-.58,.92-.33,2.49,0,0,.3,1.94-.5,2.97,0,0-.77,.09-1.76-2.33,.25,.21,.54,0,.54,0-.06-.41,.43-.37,.43-.37-.14-.42,.27-.44,.27-.44-.31-.58,.07-.58,.07-.58l-.16-.37c-.16-.39,.16-.48,.16-.48,0,0,.14-1.04-.55-1.36-.7-.32-.76-.99-.76-.99l-3.23,1.25,.27,.73s1.09-.99,1.28,.07c0,0,.07,.92-1.04,.42l-.07,.44s.97,.41,.55,1.04c0,0-1.27,.55-2.88-2.65h-.28v1.36s.6,.11,1.16,.69l1.07,1.31,.72,.09s-.74,.62-1.27,.18l-1.43-1.57h-.23v1.09s.92-.07,2.03,1.68h.96s-.06,1.13,1.39,1.85l-1.66,1.08s-.51,.44-.96,.04l-1.48-1.15h-.3v.55l2.44,1.64s.63,.14,1.37-.69c0,0,.62-.48,1.61-.48,0,0-.16,.62,.64,1.13,0,0-.13,.53-.2,1.1,0,0,0,.51-1.04,.55,0,0-.61-.09-.81,.49h1.73l1.89-1.94s.14-.5-.3-.89c0,0,.7-.69,.37-1.85,0,0,.99-1.34,.28-3.76,0,0-.42-1.31,.42-2.25,0,0,.57-.67,.16-1.64Zm-13.5,4.03c-.41-.62,.55-1.04,.55-1.04l-.07-.44c-1.11,.5-1.04-.42-1.04-.42,.19-1.06,1.28-.07,1.28-.07l.28-.73-3.23-1.25s-.07,.67-.77,.99c-.69,.32-.54,1.36-.54,1.36,0,0,.32,.1,.16,.48l-.16,.37s.37,0,.06,.58c0,0,.41,.02,.28,.44,0,0,.48-.05,.42,.37,0,0,.29,.21,.55,0-.99,2.42-1.75,2.33-1.75,2.33-.8-1.03-.5-2.97-.5-2.97,.25-1.57-.32-2.49-.32-2.49,.5-1.13-.58-1.54-.58-1.54-.41,.97,.16,1.64,.16,1.64,.83,.94,.42,2.25,.42,2.25-.71,2.43,.27,3.76,.27,3.76-.32,1.15,.38,1.85,.38,1.85-.44,.39-.3,.89-.3,.89l1.89,1.94h1.73c-.19-.57-.81-.49-.81-.49-1.03-.04-1.03-.55-1.03-.55-.07-.57-.2-1.1-.2-1.1,.8-.51,.64-1.13,.64-1.13,1,0,1.61,.48,1.61,.48,.74,.83,1.37,.69,1.37,.69l2.44-1.64v-.55h-.31l-1.47,1.15c-.46,.39-.97-.04-.97-.04l-1.65-1.08c1.45-.72,1.38-1.85,1.38-1.85h.97c1.11-1.76,2.03-1.68,2.03-1.68v-1.09h-.23l-1.43,1.57c-.53,.44-1.27-.18-1.27-.18l.72-.09,1.08-1.31c.56-.58,1.15-.69,1.15-.69v-1.36h-.28c-1.61,3.21-2.88,2.65-2.88,2.65Z" fill="#ffc629"></path><path d="M105,90.54c-4.08,0-7.38,2.37-7.38,5.31s3.3,5.32,7.38,5.32,7.38-2.39,7.38-5.32-3.3-5.31-7.38-5.31Z" fill="#3dae2b"></path><path d="M92.92,81.97l1.99-1.06c.69-.37,1.4-.49,2.03-.52h0l.11-.55c.46-2.07,2.07-3.2,2.59-3.54h0c-.05-.18-.08-.36-.08-.53h0c.1-1.34,1-1.75,1.05-1.85h0l.59-.41,.6,.4c1.13,.76,2.43,.99,2.97,1.04h0c.11,.01,.18,.02,.22,.02h0s.1,0,.24-.02h0c.18-.02,.44-.06,.76-.13h0c.63-.14,1.46-.42,2.2-.92h0l.6-.4,.59,.41c.04,.09,.95,.51,1.05,1.85h0c0,.16-.02,.34-.07,.53h0c.53,.35,2.13,1.47,2.59,3.54h0l-1.04,.21,1.04-.21,.11,.55c.63,.03,1.34,.16,2.03,.52h0l1.99,1.06-12.08,4.88-12.08-4.88h0Zm12.08,2.61l.24-.1c-.09,0-.14,.01-.15,.01h-.09s-.09,0-.09,0c0,0-.06,0-.15-.01h0l.24,.1h0Zm5.61-5.06c-.32-.55-.82-1.03-1.15-1.29h0c-1.22,.39-2.74,1.37-3.41,1.87h0c-.25,.19-.39,.3-.39,.3h0l-.66,.53-.66-.53s-.14-.11-.4-.3h0c-.25-.19-.62-.44-1.04-.71h0c-.71-.45-1.6-.92-2.36-1.17h0c-.13,.1-.29,.24-.45,.4h0c-.26,.25-.51,.56-.7,.89h0c.39,.19,.88,.42,1.45,.65h0c1.29,.53,2.95,1.04,4.16,1.03h0c1.75,.02,4.35-1.06,5.61-1.68h0Zm-5.61-3.49l.02-1.05-.02,1.05h0Z" fill="#002856"></path><path d="M105,63.76l.05,.05s2.95,2.54,6.17,2.68c0,0-1.28-4.2-6.22-4.2s-6.22,4.2-6.22,4.2c3.22-.14,6.18-2.68,6.18-2.68l.05-.05Zm0,7.71c3.59-1.71,6.27-1.11,6.27-1.11,.46-.88,.28-2.54,.28-2.54-4.02-.28-6.55-2.58-6.55-2.58,0,0-2.54,2.3-6.55,2.58,0,0-.18,1.66,.28,2.54,0,0,2.67-.6,6.27,1.11Zm5.78-.17s-3.76-.15-5.78,1.76c-2.01-1.91-5.78-1.76-5.78-1.76,0,0,1.23,2.84,5.78,3.67,4.55-.83,5.78-3.67,5.78-3.67Zm-5.78,4.73s-1.99-.04-3.78-1.24c0,0-.78,.55-.55,1.24,0,0,2.72,.93,4.33,2.12,1.61-1.19,4.33-2.12,4.33-2.12,.23-.69-.55-1.24-.55-1.24-1.8,1.2-3.78,1.24-3.78,1.24Zm6.91,4.01c-.36-1.84-2.26-2.95-2.26-2.95-2.12,.46-4.65,2.49-4.65,2.49,0,0-2.54-2.03-4.65-2.49,0,0-1.9,1.11-2.26,2.95,0,0,3.96,2.22,6.92,2.22s6.91-2.22,6.91-2.22Zm-.78,1.62c-3.13,1.54-6.13,1.79-6.13,1.79,0,0-3-.25-6.13-1.79,0,0-1.98-.61-3.45,.18l9.59,3.88,9.59-3.88c-1.47-.79-3.45-.18-3.45-.18Z" fill="#b0b3b2"></path><path d="M105.66,111.95v-10.47h-1.32v10.47c0,1.52-1.53,4.33-1.53,4.33,.77,.54,1.52,.73,2.19,.76,.67-.02,1.42-.22,2.18-.76,0,0-1.52-2.81-1.52-4.33Z" fill="#c1531b"></path><path d="M115.29,82.95l-10.29,4.01-10.29-4.01h-6.78s2.06,2.19,2.06,5.46v24.43c0,1.2,.28,2.33,.77,3.41,1.14,2.54,3.39,4.76,5.79,6.56,1.97,1.47,4.03,2.65,5.67,3.49,1.52,.78,2.44,1.16,2.78,1.3,.34-.14,1.26-.52,2.78-1.3,1.64-.84,3.7-2.02,5.67-3.49,2.4-1.79,4.66-4.02,5.79-6.56,.49-1.08,.78-2.22,.78-3.41v-24.43c0-3.28,2.06-5.46,2.06-5.46h-6.78Zm0,28.23c0,7.44-10.3,10.06-10.3,10.06,0,0-10.3-2.62-10.3-10.06v-23.72h20.6v23.72Z" fill="#ffc629"></path><path d="M119.24,98.7h-1.03l-.54,.88-.55-.88h-1.06l1.08,1.49-1.13,1.54h1.04l.57-.92,.58,.92h1.07l-1.12-1.55,1.09-1.48Zm-12.68,23.66h-1.03l-.53,.88-.53-.88h-1.03l1.08,1.48-1.13,1.56h1.08l.53-.88,.53,.88h1.08l-1.13-1.56,1.08-1.48Zm10.5-35.31l.57-.92,.58,.92h1.07l-1.12-1.55,1.09-1.48h-1.03l-.54,.88-.55-.88h-1.06l1.08,1.5-1.13,1.54h1.04Zm1.49,26.35h-1.02l-.54,.88-.55-.88h-1.05l1.07,1.48-1.12,1.55h1.03l.58-.91,.56,.91h1.08l-1.13-1.55,1.08-1.48Zm-26.76-26.35l.57-.92,.58,.92h1.04l-1.13-1.54,1.08-1.5h-1.06l-.55,.88-.54-.88h-1.03l1.08,1.48-1.12,1.55h1.07Zm2.82,26.35h-1.05l-.56,.88-.54-.88h-1.02l1.08,1.48-1.13,1.55h1.08l.56-.91,.59,.91h1.03l-1.12-1.55,1.07-1.48Zm-2.25-12.57l.58,.92h1.04l-1.13-1.54,1.08-1.49h-1.06l-.55,.88-.54-.88h-1.03l1.08,1.48-1.12,1.55h1.07l.57-.92Z" fill="#ce0e2d"></path><path d="M137.29,75.99v-.3c-.04-2.74-1.04-4.9-2.04-6.36-.5-.74-1.01-1.31-1.4-1.7-.19-.2-.36-.35-.48-.45-.06-.05-.11-.09-.15-.12-.04-.04-.04-.04-.07-.06-1.88-1.55-4.13-2.04-6.16-2.04-1.89,0-3.62,.4-4.91,.8-.65,.2-1.18,.4-1.56,.55-.19,.08-.34,.14-.44,.19-.09,.05-.13,.05-.18,.08-2.54,1.14-4.5,1.33-5.56,1.33-.1,0-.2,0-.29,0l-1.33-.04,.26,1.3c.21,1.04,.79,1.72,1.2,2.09-1.07,1.31-1.21,2.9-1.22,3.94v.34s.01,1.68,.01,1.68l1.51-.74c.13-.06,.31-.15,.5-.25-.01,.14-.01,.27-.01,.4,0,.92,.24,1.61,.51,2.04l.62,1.01,.93-.72c.2-.15,.55-.43,.92-.72,.62,1.97,2.11,3.1,3.42,3.6,1.15,.46,2.21,.57,2.7,.59,.13,.23,.19,.49,.19,.82,0,.61-.25,1.4-.52,1.97l-.86,1.85,2.01-.37c.85-.15,1.67-.53,2.24-1.21,.85-1.02,.95-2.2,.96-2.97,0-.22,0-.41-.02-.56,2.48-1.8,2.84-4.1,2.82-5v-.32s-.01-.03-.01-.03v-.24c.01-1.48-.64-2.65-1.43-3.39-.79-.76-1.7-1.16-2.39-1.41l-1.81-.63,.44,1.87c.05,.24,.09,.46,.09,.62,0,.31-.07,.57-.18,.8-.17,.36-.44,.61-.71,.78-.13,.09-.26,.14-.34,.18-.04,.02-.08,.03-.09,.03h0c-.2,.05-.39,.06-.57,.06-.62,0-1.01-.22-1.35-.55-.33-.32-.56-.78-.64-1.07v-.04s-.02-.04-.02-.04c-.13-.34-.17-.64-.17-.91,0-.7,.32-1.31,.83-1.86,.5-.53,1.17-.94,1.65-1.13h0c.73-.25,1.4-.34,2.01-.34,1.13,0,2.09,.32,2.78,.66,.34,.17,.62,.34,.8,.47,.18,.13,.27,.21,.28,.21,2.11,1.92,2.69,4,2.71,5.95,0,1.47-.36,2.84-.74,3.84-.18,.5-.37,.91-.52,1.19-.07,.14-.12,.25-.17,.32-.02,.04-.04,.06-.04,.08h0s-5.69,9.09-5.69,9.09v.03c-3.85,6.82-5.03,11.52-5.03,14.79-.02,3.23,1.2,5.03,1.98,5.78l.97,.95,.68-1.17c.74-1.28,.86-2.73,.87-3.83,0-.48-.02-.9-.06-1.2,0-.01,0-.03,0-.04,.86-.27,1.34-1.04,1.51-1.58,.16-.46,.21-.87,.23-1.16,.62-.27,1.05-.82,1.25-1.32,.25-.59,.29-1.16,.3-1.64,0-.3-.02-.56-.05-.75,0-.1-.02-.18-.03-.23h0s-.02-.12-.02-.12c-.12-.6-.17-1.2-.17-1.74,0-1.38,.3-2.57,.63-3.43,.16-.43,.32-.77,.44-1.01,.06-.12,.12-.21,.15-.27,.02-.03,.03-.06,.04-.07h0s.01-.03,.01-.03l4.72-7.63c3.13-4.91,3.33-8.52,3.33-9.37,0-.04,0-.08,0-.1v-.03Zm-40.27-6.82l.26-1.3-1.33,.04c-.09,0-.19,0-.29,0-1.05,0-3.02-.19-5.58-1.34h0c-.45-.21-3.49-1.6-7.07-1.62-2.04,0-4.29,.49-6.17,2.05-.24,.19-1.13,.94-2.08,2.32-1.01,1.48-2.03,3.68-2.03,6.48v.09h0v.1h0v.14c0,.86,.21,4.47,3.33,9.37l4.69,7.59,.9-.55-.9,.56s1.29,2.06,1.28,4.81c0,.55-.05,1.14-.17,1.74l-.02,.1v.03c-.03,.16-.07,.52-.07,.97,0,.47,.04,1.04,.29,1.64,.19,.5,.63,1.04,1.26,1.31,.02,.29,.08,.7,.23,1.16,.16,.54,.65,1.31,1.51,1.58-.03,.3-.05,.72-.06,1.24,0,1.1,.13,2.55,.85,3.83l.68,1.17,.97-.94c.79-.76,2-2.56,1.99-5.79,0-3.27-1.17-7.97-5.02-14.79v-.02s-5.73-9.12-5.73-9.12h0c-.19-.32-1.47-2.72-1.45-5.41,0-1.96,.59-4.04,2.7-5.95l-.02-.06,.03,.05c.17-.15,1.72-1.34,3.84-1.33,.61,0,1.29,.09,2.01,.34,.48,.19,1.16,.61,1.66,1.13,.51,.54,.84,1.16,.84,1.86,0,.27-.05,.57-.17,.93v.03s-.01,.03-.01,.03c-.08,.29-.32,.76-.65,1.08-.34,.33-.74,.54-1.36,.55-.17,0-.37-.02-.59-.07-.17-.06-.87-.39-1.13-.98-.11-.23-.17-.49-.17-.81,0-.18,.02-.39,.08-.63l.42-1.86-1.79,.63c-.68,.24-1.59,.65-2.38,1.41-.79,.75-1.44,1.91-1.43,3.38v.57s-.01,.02-.01,.02v.02c-.02,.9,.34,3.2,2.82,5-.02,.15-.03,.34-.03,.56,0,.76,.11,1.95,.96,2.97,.57,.68,1.39,1.05,2.24,1.21l2.02,.36-.88-1.86c-.28-.57-.54-1.35-.53-1.96,0-.32,.06-.59,.19-.82,.48-.02,1.54-.12,2.71-.59,1.3-.5,2.81-1.63,3.42-3.6,.37,.29,.72,.56,.9,.71l.93,.73,.62-1c.28-.44,.52-1.13,.51-2.05,0-.13,0-.26-.01-.4,.2,.1,.38,.18,.51,.25l1.48,.73,.05-1.98c-.01-1.06-.16-2.65-1.22-3.96,.42-.36,.96-1.03,1.19-2.09Z" fill="#002856"></path><g><path d="M116.38,74.34l-.23,1.12c-.1,.44-.14,.83-.14,1.16,0,.75,.19,1.21,.36,1.49,.53-.41,2.25-1.77,2.25-1.77l.16,.92c.73,4.1,5.34,4.11,5.54,4.11h.27s.17,.21,.17,.21c.4,.48,.55,1.07,.55,1.66,0,.88-.33,1.77-.62,2.41,.69-.13,1.24-.4,1.62-.86,.59-.69,.71-1.64,.71-2.29,0-.41-.05-.69-.05-.7l-.06-.35,.29-.2c2.38-1.62,2.61-3.59,2.61-4.31v-.28s0-.05,0-.05v-.28c0-2.35-1.91-3.38-3.11-3.79,.07,.3,.11,.59,.11,.86,0,.46-.1,.88-.28,1.26-.56,1.18-1.79,1.54-1.84,1.56-2.39,.54-3.56-1.25-3.85-2.29-.16-.45-.24-.87-.24-1.27,0-2.09,1.95-3.48,3.17-3.98h.03s.01-.01,.01-.01c3.93-1.33,6.78,1.1,6.91,1.21,2.35,2.12,3.05,4.56,3.05,6.74,0,3.28-1.61,5.96-1.63,6l-5.69,9.07c-3.78,6.72-4.88,11.26-4.88,14.27s1.07,4.45,1.67,5.03c.58-.99,.72-2.29,.72-3.3,0-.88-.1-1.53-.1-1.55l-.1-.6,.6-.05c1.24-.09,1.29-1.82,1.29-2.09v-.47s.41-.12,.41-.12c.95-.25,1.13-1.29,1.13-2.06,0-.49-.08-.88-.08-.89-.13-.68-.19-1.34-.19-1.95,0-3.07,1.38-5.27,1.45-5.37l4.7-7.61c3.37-5.29,3.18-8.9,3.18-8.94h-.01v-.04c.07-5.18-3.68-8.11-3.72-8.13-4.66-3.88-12.07-.32-12.15-.28-2.97,1.33-5.25,1.46-6.34,1.42,.24,1.2,1.14,1.72,1.18,1.74l.66,.37-.55,.52c-1.08,1.02-1.29,2.56-1.29,3.59v.33c.62-.3,2.38-1.18,2.38-1.18Z" fill="#ffc629"></path><path d="M81.64,92.54c.07,.11,1.44,2.31,1.44,5.37,0,.61-.06,1.27-.19,1.95,0,0-.07,.4-.07,.89,0,.77,.18,1.81,1.13,2.06l.42,.12v.47c0,.27,.04,2,1.28,2.09l.6,.05-.09,.6s-.11,.67-.11,1.55c0,1.01,.14,2.31,.71,3.3,.6-.59,1.68-2.05,1.68-5.03s-1.09-7.55-4.88-14.27l-5.68-9.07s-1.64-2.72-1.64-6c0-2.18,.71-4.62,3.05-6.74,.12-.11,2.98-2.54,6.9-1.21h.03c1.23,.51,3.18,1.9,3.18,3.99,0,.4-.08,.82-.24,1.27-.3,1.04-1.46,2.83-3.86,2.29-.06-.01-1.28-.37-1.84-1.56-.18-.38-.27-.8-.27-1.26,0-.27,.03-.56,.1-.86-1.19,.42-3.1,1.45-3.1,3.79v.23s.01,.05,.01,.05v.05s-.02,.28-.02,.28c0,.72,.23,2.69,2.61,4.31l.29,.2-.06,.35s-.05,.29-.05,.7c0,.64,.12,1.59,.71,2.29,.38,.45,.93,.73,1.63,.86-.31-.65-.63-1.54-.63-2.41,0-.59,.15-1.18,.55-1.66l.17-.22h.27c.19,0,4.8,0,5.53-4.1l.16-.92s1.73,1.36,2.25,1.77c.18-.28,.36-.74,.36-1.49,0-.33-.04-.71-.13-1.16l-.24-1.12s1.77,.88,2.38,1.18v-.33c.01-1.03-.2-2.58-1.28-3.59l-.55-.52,.66-.37s.94-.55,1.18-1.74c-1.09,.04-3.37-.09-6.34-1.42-.08-.04-7.49-3.6-12.15,.28-.04,.03-3.8,2.96-3.72,8.13v.03h0c0,.06-.2,3.67,3.17,8.96l4.7,7.61Z" fill="#ffc629"></path></g></g><path d="M107.88,49.19c-.21-.18-.49-.34-.76-.48-.44-.23-.83-.38-1.33-.49v2.89c.46-.16,1.34-.51,2.09-1.1,.13-.1,.28-.25,.28-.4,0-.12-.09-.26-.29-.43Z" fill="#ce0e2d"></path><path d="M108.33,52.78v-1.92c-.42,.32-1.21,.76-2.67,1.25-.06,.02-4.7,1.28-6.1,4.6l7.16-2.03c.08-.02,1.61-.37,1.61-1.9Z" fill="#ce0e2d"></path></g><g><path d="M73.95,105.47c.46-.99,.05-2.11-.92-2.57-.98-.45-2.1-.04-2.56,.95-.23,.5-.25,1.14-.05,1.71l-.93,.29c-.3-.79-.29-1.73,.06-2.48,.72-1.54,2.43-2.2,3.94-1.49,1.5,.69,2.08,2.43,1.36,4-.35,.75-1.02,1.36-1.78,1.63l-.46-.92c.59-.18,1.1-.59,1.34-1.11Z" fill="#fff"></path><path d="M73.37,109.73l-4.59-1.33-.69,2.39-.96-.28,1-3.46,5.55,1.61-.31,1.06Z" fill="#fff"></path><path d="M67.4,114.69c-.11,.87,.37,1.48,1.28,1.6l3.34,.41-.14,1.1-3.34-.41c-1.51-.19-2.32-1.26-2.13-2.82,.19-1.56,1.25-2.43,2.75-2.25l3.34,.41-.14,1.1-3.34-.41c-.91-.11-1.53,.4-1.64,1.27Z" fill="#fff"></path><path d="M70.68,123.57c-.63,.03-1.14-.32-1.33-.94-.1,.77-.63,1.27-1.39,1.31-.99,.05-1.63-.73-1.71-2.05l-.14-2.64,5.77-.31,.14,2.56c.07,1.23-.45,2.02-1.34,2.06Zm-2.65-.78c.47-.03,.74-.46,.69-1.16l-.08-1.4-1.52,.08,.08,1.4c.03,.7,.34,1.11,.84,1.08Zm2.39-.34c.44-.02,.67-.38,.63-.95l-.08-1.4-1.4,.08,.08,1.4c.03,.57,.31,.9,.77,.88Z" fill="#fff"></path><path d="M71.68,133.14c-1.6,.52-3.14-.33-3.68-2.02l-.72-2.25,5.5-1.77,.73,2.29c.54,1.67-.22,3.23-1.83,3.75Zm-.35-1.07c1.08-.35,1.58-1.37,1.25-2.4l-.39-1.22-3.65,1.17,.4,1.26c.33,1.01,1.31,1.53,2.38,1.18Z" fill="#fff"></path><path d="M76.79,136.72l-.85,.45-1.46-2.77-1.26,.67,1.31,2.48-.85,.45-1.31-2.48-1.28,.68,1.51,2.85-.85,.45-2.02-3.83,5.11-2.7,1.98,3.74Z" fill="#fff"></path><path d="M78.62,142.54c-1.05,.8-2.17,.6-3.05-.56l-.76-1.01-1.35,1.03-.67-.88,4.6-3.49,1.43,1.89c.88,1.16,.81,2.26-.2,3.02Zm-.66-.82c.57-.43,.56-1.01,.06-1.67l-.73-.96-1.7,1.29,.73,.96c.5,.66,1.07,.82,1.64,.38Z" fill="#fff"></path><path d="M82.95,147.89c-1.12,1.22-2.97,1.26-4.26,.08-1.28-1.18-1.4-3.03-.28-4.25,1.13-1.23,2.96-1.25,4.24-.07,1.28,1.18,1.41,3.01,.29,4.24Zm-3.7-3.4c-.74,.8-.66,2.04,.13,2.76,.78,.72,2,.68,2.74-.13,.74-.8,.66-2.01-.11-2.73-.79-.73-2.02-.71-2.75,.09Z" fill="#fff"></path><path d="M85.59,153.01l.06-1.98c-.06-.03-.12-.06-.18-.1l-1.11-.69-.9,1.44-.94-.59,3.06-4.9,2.04,1.28c1.27,.79,1.61,1.85,.93,2.93-.48,.77-1.17,1.11-1.97,.98l.06,2.3-1.07-.67Zm-.71-3.6l1.11,.69c.7,.44,1.28,.38,1.67-.23,.38-.6,.17-1.14-.53-1.58l-1.11-.69-1.13,1.81Z" fill="#fff"></path><path d="M94.37,150.73l-.38,.91-1.66-.7-1.86,4.42-1.03-.43,1.86-4.42-1.66-.7,.38-.91,4.35,1.83Z" fill="#fff"></path><path d="M96.18,151.21l-1.63,5.54-1.06-.31,1.63-5.54,1.06,.31Z" fill="#fff"></path><path d="M97.98,151.69l.95,4.76,2.42-4.21,1.12,.18-3.21,5.33-1.13-.18-1.33-6.07,1.17,.19Z" fill="#fff"></path><path d="M108.79,155.21c.03,1.66-1.28,2.96-3.02,3-1.74,.03-3.1-1.22-3.14-2.88-.03-1.67,1.28-2.95,3.02-2.98,1.74-.03,3.1,1.2,3.14,2.86Zm-5.03,.1c.02,1.09,.94,1.93,2,1.91,1.06-.02,1.91-.9,1.89-1.99-.02-1.09-.91-1.91-1.97-1.89-1.07,.02-1.95,.88-1.93,1.97Z" fill="#fff"></path><path d="M116.58,153.42l.93-.27,.61,2.08c-.45,.59-1.22,1.14-1.98,1.36-1.66,.48-3.29-.37-3.76-1.96-.47-1.59,.48-3.18,2.18-3.68,.8-.23,1.71-.16,2.4,.16l-.38,.95c-.53-.27-1.19-.33-1.75-.17-1.07,.31-1.67,1.37-1.37,2.42,.31,1.05,1.39,1.62,2.46,1.31,.38-.11,.78-.37,1.09-.7l-.44-1.51Z" fill="#fff"></path><path d="M122.1,153.16c.78-.4,1.03-1.13,.61-1.96l-1.52-3,.99-.5,1.52,3c.69,1.36,.25,2.63-1.15,3.34-1.41,.71-2.72,.32-3.4-1.04l-1.52-3,.99-.5,1.52,3c.41,.82,1.19,1.05,1.97,.65Z" fill="#fff"></path><path d="M128.74,148.54l-2.25,1.7,.33,1.28-.92,.69-1.46-6.14,.92-.69,5.48,3.11-.95,.72-1.14-.67Zm-.89-.52l-2.27-1.33,.64,2.55,1.62-1.22Z" fill="#fff"></path><path d="M133.5,141.43c1.24,1.14,1.27,2.89,.07,4.2l-1.59,1.74-4.26-3.9,1.62-1.77c1.18-1.29,2.92-1.41,4.17-.27Zm-.76,.84c-.83-.76-1.97-.7-2.7,.1l-.86,.94,2.83,2.59,.89-.97c.72-.79,.68-1.9-.15-2.66Z" fill="#fff"></path><path d="M137.59,138.18l-1.51,2.39,.76,1.08-.61,.97-3.54-5.22,.61-.97,6.22,.96-.63,1.01-1.31-.22Zm-1.01-.17l-2.59-.44,1.51,2.16,1.08-1.72Z" fill="#fff"></path><path d="M135.23,132.72l4.39,1.88,.98-2.29,.92,.39-1.42,3.31-5.31-2.27,.44-1.02Z" fill="#fff"></path><path d="M141.82,127.14l-.68,2.74,1.06,.79-.28,1.11-4.99-3.86,.28-1.11,6.21-1.02-.29,1.15-1.31,.2Zm-1.02,.15l-2.6,.39,2.11,1.58,.49-1.97Z" fill="#fff"></path><path d="M143.68,123.27c-.07,.72-.43,1.3-1.03,1.7l-.77-.59c.45-.35,.72-.79,.75-1.17,.04-.48-.23-.79-.77-.84l-2.94-.27-.18,1.98-.98-.09,.28-3.09,3.95,.36c1.18,.11,1.79,.88,1.69,2.01Z" fill="#fff"></path><path d="M142.47,115.85l.16,2.82,1.25,.44,.06,1.15-5.91-2.21-.06-1.15,5.63-2.82,.07,1.19-1.19,.58Zm-.93,.45l-2.37,1.14,2.48,.89-.11-2.03Z" fill="#fff"></path><path d="M142.46,109.02l-1.43,1.37c.02,.06,.04,.13,.06,.2l.3,1.27,1.65-.39,.26,1.08-5.62,1.34-.56-2.35c-.35-1.45,.16-2.45,1.39-2.74,.88-.21,1.61,.03,2.09,.68l1.57-1.68,.29,1.23Zm-2.02,3.06l-.3-1.27c-.19-.8-.64-1.17-1.35-1-.69,.16-.92,.69-.73,1.5l.3,1.27,2.08-.49Z" fill="#fff"></path><path d="M138.9,102.98l1.13,2.59,1.32-.02,.46,1.05h-6.31s-.46-1.05-.46-1.05l4.29-4.61,.48,1.09-.91,.96Zm-.71,.74l-1.82,1.9,2.63-.04-.82-1.86Z" fill="#fff"></path></g></g><g><g><g><path d="M64.49,23.81l.85,1.54-4.65,2.57,.73,1.33,4.13-2.28,.84,1.53-4.13,2.28,1.02,1.84-1.81,1-3.44-6.23,6.46-3.57Z" fill="#fff"></path><path d="M76.23,26.51l-1.13-.99-4.06,1.65-.12,1.5-2.06,.84,.72-7.97,2.64-1.07,6.07,5.21-2.05,.83Zm-5.05-1.07l2.6-1.06-2.35-2.05-.25,3.11Z" fill="#fff"></path><path d="M86.83,21.37l-1.23-4.95,1.99-.49,1.71,6.91-2.93,.73-5.3-3.94,1.23,4.95-2,.5-1.71-6.91,2.94-.73,5.3,3.94Z" fill="#fff"></path><path d="M96.85,14.62l8.57-.35,.07,1.75-3.25,.13,.22,5.36-2.06,.08-.22-5.36-3.26,.13-.07-1.75Z" fill="#fff"></path><path d="M107.92,17.84c.2-2.35,1.94-3.6,4.93-3.34,2.98,.26,4.49,1.79,4.29,4.13-.2,2.35-1.95,3.62-4.93,3.36-2.99-.26-4.49-1.79-4.29-4.15Zm7.07,.61c.11-1.23-.53-2.05-2.29-2.2-1.75-.15-2.52,.53-2.62,1.78-.11,1.25,.54,2.07,2.28,2.22,1.75,.15,2.53-.55,2.64-1.79Z" fill="#fff"></path><path d="M129.41,17.57l-4.18,2.13,2.62,4.82-2.53-.57-1.82-3.36-1.99,1.01-.32,1.41-2.01-.46,1.57-6.95,2.02,.45-.7,3.12,4.34-2.29,3.02,.68Z" fill="#fff"></path><path d="M139.29,20.99l-.55,1.52-5-1.81-.39,1.07,4.81,1.74-.55,1.52-4.81-1.74-.39,1.07,5,1.8-.55,1.52-6.94-2.51,2.42-6.7,6.94,2.51Z" fill="#fff"></path><path d="M146.5,30.14l2.34-4.54,1.83,.94-3.27,6.33-2.69-1.39-1.39-6.47-2.34,4.54-1.84-.95,3.27-6.33,2.7,1.39,1.39,6.47Z" fill="#fff"></path></g><g><path d="M57.53,179.5c-.31,.51,0,1.15,1.6,2.12,1.47,.88,1.97,.87,2.2,.49,.27-.44,.04-.69-1.7-1.9-2.37-1.66-3.16-2.81-2.35-4.16,.77-1.27,2.49-1.02,4.6,.25,2.35,1.41,3.27,2.94,2.51,4.33l-1.85-1.11c.32-.54-.14-1.1-1.51-1.92-1.3-.78-1.72-.74-1.92-.41-.23,.38,0,.67,1.57,1.8,2.14,1.52,3.5,2.55,2.54,4.15-.94,1.56-2.66,1.15-4.83-.16-2.47-1.49-3.6-2.93-2.72-4.59l1.85,1.12Z" fill="#fff"></path><path d="M66.2,183.1c.94-2.17,2.98-2.79,5.74-1.6,2.75,1.19,3.69,3.12,2.76,5.28-.94,2.17-3,2.81-5.75,1.62-2.76-1.19-3.69-3.12-2.75-5.3Zm6.52,2.83c.49-1.14,.14-2.11-1.48-2.82-1.61-.7-2.56-.29-3.05,.85-.5,1.15-.14,2.13,1.46,2.83,1.61,.7,2.58,.28,3.07-.87Z" fill="#fff"></path><path d="M82.52,185.25c2.52,.71,3.65,2.19,3.36,4.01l-2.11-.59c.04-.67-.45-1.38-1.72-1.73-1.47-.41-2.38,.11-2.72,1.31-.34,1.21,.18,2.14,1.64,2.55,1.27,.35,2.06,0,2.37-.61l2.11,.59c-.7,1.72-2.43,2.41-4.96,1.71-2.75-.77-3.9-2.47-3.25-4.82,.66-2.34,2.52-3.19,5.27-2.42Z" fill="#fff"></path><path d="M91.13,187.38l-1.26,7-2.03-.37,1.26-7,2.03,.37Z" fill="#fff"></path><path d="M93.28,191.41c.19-2.35,1.92-3.6,4.91-3.36,2.98,.24,4.5,1.77,4.3,4.11-.19,2.35-1.93,3.62-4.92,3.38-2.99-.24-4.5-1.77-4.3-4.13Zm7.07,.58c.1-1.23-.54-2.04-2.3-2.19-1.75-.14-2.51,.55-2.62,1.79-.1,1.25,.55,2.06,2.29,2.21,1.75,.14,2.53-.56,2.63-1.81Z" fill="#fff"></path><path d="M107.35,193.3c.03,.6,.64,.96,2.51,.86,1.71-.09,2.12-.38,2.09-.83-.03-.52-.35-.59-2.47-.62-2.89-.05-4.2-.56-4.28-2.14-.08-1.48,1.49-2.24,3.95-2.36,2.74-.14,4.36,.6,4.5,2.18l-2.15,.11c-.03-.63-.73-.83-2.33-.75-1.51,.08-1.84,.35-1.82,.73,.02,.44,.37,.56,2.31,.62,2.62,.06,4.33,.15,4.43,2.02,.09,1.82-1.56,2.44-4.09,2.57-2.88,.15-4.63-.42-4.82-2.29l2.16-.11Z" fill="#fff"></path><path d="M117.06,193.29l1.97-.29,.22,1.53-1.97,.29-.23-1.53Z" fill="#fff"></path><path d="M124.91,185.93c2.55-.62,4.26,.12,4.9,1.85l-2.13,.52c-.29-.61-1.07-.98-2.35-.67-1.48,.36-2.02,1.26-1.73,2.48,.3,1.22,1.21,1.78,2.68,1.42,1.28-.31,1.8-1.01,1.77-1.7l2.13-.52c.23,1.84-.94,3.3-3.49,3.92-2.78,.68-4.62-.24-5.2-2.61-.58-2.36,.63-4.01,3.41-4.69Z" fill="#fff"></path><path d="M132.62,187.73c-.87-2.2,.14-4.08,2.93-5.19,2.78-1.1,4.82-.4,5.68,1.79,.87,2.2-.14,4.11-2.92,5.21-2.79,1.1-4.82,.4-5.69-1.81Zm6.61-2.61c-.45-1.15-1.39-1.6-3.03-.95-1.63,.64-2.02,1.6-1.56,2.76,.46,1.17,1.41,1.61,3.03,.97,1.63-.64,2.02-1.62,1.56-2.78Z" fill="#fff"></path><path d="M145.6,186.26l-3.58-6.16,2.78-1.62,4.52,2.84-.24-5.33,2.78-1.62,3.58,6.16-1.78,1.03-2.59-4.46,.28,5.81-1.65,.96-4.91-3.11,2.6,4.46-1.79,1.04Z" fill="#fff"></path></g></g><path d="M48.34,171.86c-18.95-16.08-30.98-40.07-30.98-66.86S30.03,52.95,49.85,36.88" fill="none" stroke="#002856" stroke-miterlimit="10" stroke-width="2.22"></path><path d="M160.16,36.89c19.82,16.07,32.48,40.61,32.48,68.11s-12.03,50.79-30.98,66.87" fill="none" stroke="#002856" stroke-miterlimit="10" stroke-width="2.22"></path></g></g></g></g></svg>