<svg width="100" height="100" viewBox="0 0 100 100" fill="none" xmlns="http://www.w3.org/2000/svg">
<g clip-path="url(#clip0_1124_13112)">
<path d="M93.738 31.5238C91.3475 25.8714 87.9237 20.7952 83.5665 16.4333C79.2046 12.0714 74.1284 8.65237 68.4761 6.2619C62.6237 3.78571 56.4094 2.53333 49.9999 2.53333C43.5903 2.53333 37.3761 3.78571 31.5237 6.2619C25.8713 8.65237 20.7951 12.0762 16.4332 16.4333C12.0713 20.7952 8.65225 25.8714 6.26177 31.5238C3.78558 37.3762 2.5332 43.5905 2.5332 50C2.5332 56.4095 3.78558 62.6238 6.26177 68.4762C8.65225 74.1286 12.0761 79.2048 16.4332 83.5667C20.7951 87.9286 25.8713 91.3476 31.5237 93.7381C37.3761 96.2143 43.5903 97.4667 49.9999 97.4667C56.4094 97.4667 62.6237 96.2143 68.4761 93.7381C74.1284 91.3476 79.2046 87.9238 83.5665 83.5667C87.9284 79.2048 91.3475 74.1286 93.738 68.4762C96.2142 62.6238 97.4665 56.4095 97.4665 50C97.4665 43.5905 96.2142 37.3762 93.738 31.5238Z" fill="#051A32"/>
<path d="M96.5333 31.6667C96.2333 30.9095 95.919 30.1619 95.5857 29.4238C94.919 27.9476 94.181 26.5095 93.3762 25.1143C92.9762 24.4143 92.5571 23.7286 92.1238 23.0524C91.6905 22.3762 91.2429 21.7095 90.7762 21.0571C90.5429 20.7286 90.3095 20.4048 90.0667 20.0857C89.5857 19.4429 89.0905 18.8143 88.581 18.1952C87.5619 16.9619 86.4857 15.7762 85.3524 14.6429C84.7857 14.0762 84.2095 13.5238 83.6143 12.9857C83.0238 12.4476 82.419 11.9238 81.8 11.4143C81.4905 11.1619 81.181 10.9095 80.8667 10.6619C79.9238 9.91905 78.9524 9.20952 77.9524 8.53809C76.9571 7.8619 75.9333 7.22381 74.8857 6.62381C74.1857 6.22381 73.481 5.83809 72.7619 5.47143C72.4048 5.28571 72.0429 5.10952 71.6762 4.93333C70.9476 4.58095 70.2095 4.24762 69.4619 3.93333C69.0857 3.77619 68.7095 3.62381 68.3333 3.47143C67.5762 3.17143 66.8095 2.89047 66.0381 2.62857C65.2667 2.36667 64.4809 2.12381 63.6905 1.9C62.9 1.67619 62.1 1.47143 61.2952 1.28571C57.6667 0.447618 53.8857 0.00476074 50.0048 0.00476074C46.1238 0.00476074 42.3429 0.447618 38.7143 1.28571C37.9095 1.47143 37.1095 1.67619 36.319 1.9C35.5286 2.12381 34.7429 2.36667 33.9714 2.62857C33.2 2.89047 32.4333 3.17143 31.6762 3.47143C31.3 3.61905 30.9238 3.77619 30.5476 3.93333C29.8 4.24762 29.0619 4.58571 28.3333 4.93333C27.9667 5.10952 27.6095 5.29047 27.2476 5.47143C26.5286 5.83809 25.819 6.22381 25.1238 6.62381C24.0762 7.22381 23.0524 7.86666 22.0571 8.53809C21.0619 9.21428 20.0857 9.91905 19.1429 10.6619C18.8286 10.9095 18.5143 11.1619 18.2095 11.4143C17.5905 11.9238 16.9857 12.4476 16.3952 12.9857C15.8048 13.5238 15.2238 14.0762 14.6571 14.6429C13.5238 15.7762 12.4476 16.9571 11.4286 18.1952C10.919 18.8143 10.4238 19.4429 9.94286 20.0857C9.70476 20.4048 9.46667 20.7286 9.23333 21.0571C8.76667 21.7095 8.31905 22.3762 7.88571 23.0524C7.45238 23.7286 7.03333 24.4143 6.63333 25.1143C5.82857 26.5095 5.09524 27.9476 4.42381 29.4238C4.09048 30.1619 3.77143 30.9095 3.47619 31.6667C1.22857 37.3429 0 43.5286 0 50C0 56.0429 1.07143 61.8333 3.03333 67.1905C3.45238 68.3381 3.91429 69.4667 4.41429 70.5762C5.08095 72.0524 5.81905 73.4905 6.62381 74.8857C7.02381 75.5857 7.44286 76.2714 7.87619 76.9476C8.30952 77.6238 8.75714 78.2905 9.22381 78.9429C9.45714 79.2714 9.69048 79.5952 9.93333 79.9143C10.4143 80.5571 10.9095 81.1857 11.419 81.8048C12.181 82.7286 12.981 83.6286 13.8095 84.4952C15.4667 86.2333 17.2429 87.8476 19.1333 89.3333C20.0762 90.0762 21.0476 90.7857 22.0476 91.4571C23.0429 92.1333 24.0667 92.7714 25.1143 93.3714C26.8571 94.3762 28.6714 95.2762 30.5381 96.0667C36.519 98.5952 43.0952 99.9952 50 99.9952C56.9048 99.9952 63.4809 98.5952 69.4619 96.0667C71.3333 95.2762 73.1429 94.3762 74.8857 93.3714C75.9333 92.7714 76.9571 92.1286 77.9524 91.4571C78.9476 90.7809 79.9238 90.0762 80.8667 89.3333C82.7571 87.8476 84.5333 86.2333 86.1905 84.4952C87.0191 83.6286 87.8143 82.7286 88.581 81.8048C89.0905 81.1857 89.5857 80.5571 90.0667 79.9143C90.3048 79.5952 90.5429 79.2714 90.7762 78.9429C91.2429 78.2905 91.6905 77.6238 92.1238 76.9476C92.5571 76.2714 92.9762 75.5857 93.3762 74.8857C94.181 73.4905 94.9143 72.0524 95.5857 70.5762C96.0857 69.4667 96.5476 68.3381 96.9667 67.1905C98.9286 61.8286 100 56.0381 100 50C100 43.5286 98.7714 37.3429 96.5333 31.6667ZM93.7381 68.4762C91.3476 74.1286 87.9238 79.2048 83.5667 83.5667C79.2048 87.9286 74.1286 91.3476 68.4762 93.7381C62.6238 96.2143 56.4095 97.4667 50 97.4667C43.5905 97.4667 37.3762 96.2143 31.5238 93.7381C25.8714 91.3476 20.7952 87.9238 16.4333 83.5667C12.0714 79.2048 8.65238 74.1286 6.2619 68.4762C3.78571 62.6238 2.53333 56.4095 2.53333 50C2.53333 43.5905 3.78571 37.3762 6.2619 31.5238C8.65238 25.8714 12.0762 20.7952 16.4333 16.4333C20.7952 12.0714 25.8714 8.65238 31.5238 6.2619C37.3762 3.78571 43.5905 2.53333 50 2.53333C56.4095 2.53333 62.6238 3.78571 68.4762 6.2619C74.1286 8.65238 79.2048 12.0762 83.5667 16.4333C87.9286 20.7952 91.3476 25.8714 93.7381 31.5238C96.2143 37.3762 97.4667 43.5905 97.4667 50C97.4667 56.4095 96.2143 62.6238 93.7381 68.4762Z" fill="#ED5E27"/>
<path d="M30.4283 27.4714L31.3188 32.6048L31.8283 38.9857L31.1283 44.5524L30.4236 48.0571L29.9141 53.781L30.3617 59.5191L31.576 64.8571L33.8617 68.8762L36.6569 72.6619L40.0045 74.881L43.8807 76.9714C43.8807 76.9714 46.876 78.2524 47.0712 78.2524C47.2664 78.2524 50.2188 78.7 50.2188 78.7L52.9617 77.9381L57.695 76.1857L62.576 72.7333L64.8474 70.7476L67.0664 67.6667L68.8807 63.9714L69.7712 60.7191L70.2807 56.7V52.7143L69.5141 48.9667L68.876 44.5619L68.5998 40.5619V33.3572L69.3236 30.0429L69.8331 27.1762L67.0617 27.4905L63.8807 27.8H56.7522L53.5807 27.1762L51.2617 26.4143L50.1236 25.9048L48.5712 26.7952L45.6141 27.8048L39.9664 28.2L35.2712 27.8048L31.9522 27.4952H30.4283" fill="white"/>
<mask id="mask0_1124_13112" style="mask-type:luminance" maskUnits="userSpaceOnUse" x="28" y="24" width="44" height="56">
<path d="M50.0856 79.2857C50.0856 79.2857 76.5951 75.8619 69.9332 45.8762C67.8999 36.7286 70.9904 26.1191 70.9904 26.1191C70.9904 26.1191 53.3523 28.7857 50.157 24.2667H49.8808C46.6904 28.781 28.9951 26.1905 28.9951 26.1905C28.9951 26.1905 32.3475 36.7381 30.3094 45.8857C23.6427 75.8762 50.1904 79.8524 50.0808 79.281L50.0856 79.2857ZM49.9999 77.8857C48.238 77.5857 39.1904 75.6905 34.157 67.9333C30.5808 62.4286 29.7713 55.1429 31.7427 46.2714C33.2237 39.6333 32.238 32.5191 31.5285 28.8714L31.3951 28.1762L32.0951 28.2571C34.7665 28.581 37.4475 28.7476 40.1332 28.7667C44.7475 28.7667 47.9094 28.1381 49.7999 26.8476L50.0904 26.6524L50.3808 26.8476C52.2713 28.1381 55.4332 28.7667 60.0427 28.7667C62.7332 28.7476 65.4142 28.5762 68.0856 28.2571L68.7856 28.1762L68.6523 28.8714C67.938 32.5191 66.9523 39.6286 68.4332 46.2714C70.4046 55.1429 69.5951 62.4238 66.0189 67.9286C60.9808 75.6905 51.9284 77.5857 50.1618 77.8857L50.0761 77.9L49.9904 77.8857H49.9999Z" fill="white"/>
</mask>
<g mask="url(#mask0_1124_13112)">
<path d="M50.0856 79.2857C50.0856 79.2857 76.5951 75.8619 69.9332 45.8762C67.8999 36.7286 70.9904 26.1191 70.9904 26.1191C70.9904 26.1191 53.3523 28.7857 50.157 24.2667H49.8808C46.6904 28.781 28.9951 26.1905 28.9951 26.1905C28.9951 26.1905 32.3475 36.7381 30.3094 45.8857C23.6427 75.8762 50.1904 79.8524 50.0808 79.281L50.0856 79.2857ZM49.9999 77.8857C48.238 77.5857 39.1904 75.6905 34.157 67.9333C30.5808 62.4286 29.7713 55.1429 31.7427 46.2714C33.2237 39.6333 32.238 32.5191 31.5285 28.8714L31.3951 28.1762L32.0951 28.2571C34.7665 28.581 37.4475 28.7476 40.1332 28.7667C44.7475 28.7667 47.9094 28.1381 49.7999 26.8476L50.0904 26.6524L50.3808 26.8476C52.2713 28.1381 55.4332 28.7667 60.0427 28.7667C62.7332 28.7476 65.4142 28.5762 68.0856 28.2571L68.7856 28.1762L68.6523 28.8714C67.938 32.5191 66.9523 39.6286 68.4332 46.2714C70.4046 55.1429 69.5951 62.4238 66.0189 67.9286C60.9808 75.6905 51.9284 77.5857 50.1618 77.8857L50.0761 77.9L49.9904 77.8857H49.9999Z" fill="url(#paint0_linear_1124_13112)"/>
</g>
<path d="M49.9477 76.919C47.5858 76.481 39.5049 74.4905 34.8858 67.4C32.6906 64.019 31.5811 59.881 31.5811 55.1C31.6096 52.1952 31.9525 49.3238 32.6049 46.4952C33.1525 43.9238 33.4144 41.3238 33.3953 38.6952C33.3858 35.8905 33.1477 33.1048 32.6906 30.3381L32.5192 29.2667L33.5668 29.3714C35.8668 29.6 38.143 29.719 40.1382 29.719C44.4477 29.719 47.6668 29.1429 49.7049 27.9952L50.0858 27.7762L50.4763 27.9952C52.5191 29.1333 55.7334 29.719 60.0287 29.719C62.0382 29.719 64.3144 29.6 66.6144 29.3714L67.662 29.2667L67.4906 30.3381C67.0287 33.1 66.7953 35.8857 66.7858 38.6857C66.7668 41.319 67.0287 43.9238 67.5763 46.4952C68.2287 49.3286 68.5715 52.1952 68.6001 55.1C68.6001 59.881 67.4906 64.019 65.2953 67.3952C60.6715 74.4952 52.5906 76.4809 50.2192 76.9238L50.0715 76.9524L49.9287 76.9238H49.9382" fill="#EB5E28"/>
<path d="M34.8857 39.0333C34.9047 41.681 34.6381 44.3048 34.0857 46.8952C33.4619 49.5714 33.1381 52.281 33.1143 55.0286C33.1143 59.5 34.1238 63.2905 36.1428 66.4C40.4 72.9762 48.0666 74.8286 50.0809 75.2C52.0904 74.8286 59.7666 72.9809 64.0285 66.3952C66.0476 63.2905 67.0619 59.5 67.0666 55.0333C67.0381 52.2857 66.7143 49.5762 66.0952 46.9C65.5428 44.3048 65.2762 41.6857 65.2952 39.0333C65.3047 36.3714 65.519 33.7286 65.9333 31.1C64.1524 31.2667 61.9904 31.4095 59.7952 31.4095C55.4762 31.4095 52.2952 30.8524 50.0904 29.6857C47.8904 30.8619 44.7047 31.4095 40.3857 31.4095C38.1857 31.4095 36.0238 31.2667 34.2476 31.1C34.6619 33.7286 34.8762 36.3762 34.8904 39.0381" fill="#062541"/>
<path d="M52.8574 36.4524H52.9574C52.986 36.4524 53.0193 36.4571 53.0479 36.4667C53.0765 36.4762 53.105 36.4905 53.1288 36.5095C53.1527 36.5286 53.1717 36.5476 53.186 36.5762C53.2003 36.6048 53.2098 36.6333 53.2098 36.6667C53.2098 36.7048 53.205 36.7429 53.186 36.7762C53.1669 36.8095 53.1431 36.8381 53.1146 36.8619C53.0288 36.9143 52.9384 36.9381 52.8384 36.9286C52.7765 36.9286 52.7193 36.9238 52.6574 36.9095C52.6146 36.9048 52.5765 36.8905 52.5384 36.8714L52.5955 36.7429C52.6241 36.7571 52.6574 36.7667 52.686 36.7714C52.7241 36.781 52.7622 36.7857 52.8003 36.7857C52.8384 36.7857 52.8717 36.7762 52.905 36.7571C52.9336 36.7429 52.9479 36.719 52.9479 36.6905C52.9479 36.6619 52.9384 36.6381 52.9146 36.6238C52.886 36.6048 52.8527 36.5952 52.8193 36.5952H52.7669L52.7193 36.6095L52.6622 36.5429L52.8288 36.2952H52.9908L52.8765 36.4619L52.8669 36.4524H52.8574ZM52.5908 35.6952C52.5908 35.7381 52.5908 35.781 52.5908 35.8238C52.5955 35.8619 52.6098 35.8952 52.6336 35.9238C52.6574 35.9524 52.686 35.9714 52.7193 35.9857C52.7669 36 52.8098 36.0095 52.8622 36.0095C52.9288 36.0095 52.986 35.9905 53.0384 35.9476C53.0669 35.9238 53.086 35.8952 53.1003 35.8619C53.1146 35.8286 53.1193 35.7952 53.1146 35.7571C53.1146 35.7143 53.1098 35.6762 53.0955 35.6381C53.0812 35.6048 53.0622 35.5714 53.0336 35.5476C52.9955 35.519 52.9574 35.4952 52.9146 35.4762C52.8574 35.4524 52.7955 35.4286 52.7336 35.4095C52.6479 35.3857 52.5669 35.3524 52.486 35.3095C52.4193 35.2762 52.3622 35.2333 52.3098 35.1857C52.2622 35.1381 52.2288 35.081 52.205 35.019C52.1812 34.9476 52.1717 34.8714 52.1717 34.7952C52.1669 34.7095 52.1765 34.6286 52.2098 34.5476C52.2431 34.4667 52.286 34.4 52.3527 34.3429C52.4241 34.2905 52.5003 34.2524 52.586 34.2238C52.6717 34.1952 52.7574 34.1905 52.8479 34.1952C52.9384 34.1952 53.0241 34.2048 53.1098 34.2238C53.186 34.2429 53.2574 34.2714 53.3193 34.319C53.3812 34.3619 53.4241 34.419 53.4574 34.4905C53.4908 34.5667 53.5098 34.6524 53.505 34.7381V34.7952H53.0908C53.0955 34.7143 53.0765 34.6381 53.0384 34.5714C53.0193 34.5429 52.9908 34.5238 52.9574 34.5095C52.9241 34.4952 52.8908 34.4905 52.8574 34.4952C52.8146 34.4952 52.7765 34.5 52.7384 34.5143C52.7098 34.5238 52.6812 34.5429 52.6622 34.5667C52.6431 34.5905 52.6288 34.6143 52.6241 34.6429C52.6241 34.6714 52.6241 34.7 52.6241 34.7333C52.6241 34.7905 52.6384 34.8429 52.6669 34.8905C52.7146 34.9476 52.7765 34.9857 52.8479 35.0095L53.1812 35.1429C53.2527 35.1714 53.3193 35.2048 53.3812 35.2476C53.4288 35.2809 53.4717 35.319 53.505 35.3667C53.5336 35.4095 53.5574 35.4571 53.5669 35.5048C53.5812 35.5619 53.586 35.619 53.586 35.6762C53.5955 35.7667 53.5812 35.8524 53.5431 35.9333C53.5098 36.0143 53.4574 36.0857 53.386 36.1429C53.305 36.1952 53.2193 36.2333 53.1241 36.2619C53.0288 36.2857 52.9336 36.2952 52.8384 36.2905C52.7431 36.3 52.6527 36.2905 52.5622 36.2667C52.4717 36.2381 52.3908 36.2 52.3146 36.1429C52.2622 36.0857 52.2193 36.019 52.1908 35.9476C52.1622 35.8762 52.1527 35.8 52.1574 35.719V35.6381H52.5908V35.6952Z" fill="white"/>
<path d="M57.6811 36.4524H57.7811C57.8097 36.4524 57.8431 36.4571 57.8716 36.4667C57.9002 36.4762 57.9288 36.4905 57.9526 36.5095C57.9764 36.5286 57.9954 36.5476 58.0097 36.5762C58.024 36.6048 58.0335 36.6333 58.0335 36.6667C58.0335 36.7048 58.0288 36.7429 58.0097 36.7762C57.9907 36.8095 57.9669 36.8381 57.9383 36.8619C57.8526 36.9143 57.7621 36.9381 57.6621 36.9286C57.6002 36.9286 57.5431 36.9238 57.4811 36.9095C57.4383 36.9048 57.4002 36.8905 57.3621 36.8714L57.4192 36.7429C57.4478 36.7571 57.4764 36.7667 57.5097 36.7714C57.5478 36.781 57.5859 36.7857 57.624 36.7857C57.6621 36.7857 57.7002 36.7762 57.7288 36.7571C57.7573 36.7429 57.7716 36.719 57.7716 36.6905C57.7716 36.6619 57.7573 36.6381 57.7335 36.6238C57.705 36.6048 57.6716 36.5952 57.6383 36.5952H57.5859L57.5383 36.6048L57.4716 36.5476L57.6383 36.3H57.8002L57.6859 36.4667V36.4524H57.6811ZM57.4097 35.6952C57.4097 35.7381 57.4097 35.781 57.4097 35.8238C57.4145 35.8619 57.4288 35.8952 57.4526 35.9238C57.4764 35.9524 57.505 35.9714 57.5431 35.9857C57.5859 36 57.6335 36.0095 57.6811 36.0095C57.7478 36.0095 57.805 35.9905 57.8573 35.9476C57.8859 35.9238 57.905 35.8952 57.9192 35.8619C57.9335 35.8286 57.9383 35.7952 57.9335 35.7571C57.9335 35.7143 57.9288 35.6762 57.9145 35.6381C57.9002 35.6048 57.8811 35.5714 57.8526 35.5476C57.8145 35.519 57.7764 35.4952 57.7335 35.4762C57.6764 35.4524 57.6145 35.4286 57.5526 35.4095C57.4669 35.3857 57.3859 35.3524 57.305 35.3095C57.2383 35.2762 57.1811 35.2333 57.1288 35.1857C57.0811 35.1381 57.0478 35.081 57.024 35.019C57.0002 34.9476 56.9907 34.8714 56.9907 34.7952C56.9859 34.7095 56.9954 34.6286 57.0288 34.5476C57.0621 34.4667 57.105 34.4 57.1716 34.3429C57.2431 34.2905 57.3192 34.2524 57.405 34.2238C57.4907 34.2 57.5764 34.1905 57.6669 34.1952C57.7573 34.1952 57.8431 34.2048 57.9288 34.2238C58.005 34.2429 58.0764 34.2714 58.1383 34.319C58.2002 34.3619 58.2431 34.419 58.2764 34.4905C58.3097 34.5667 58.3288 34.6524 58.324 34.7381V34.7952H57.9145C57.9192 34.7143 57.9002 34.6381 57.8621 34.5714C57.8431 34.5429 57.8145 34.5238 57.7811 34.5095C57.7478 34.4952 57.7145 34.4905 57.6811 34.4952C57.6383 34.4952 57.6002 34.5 57.5621 34.5143C57.5335 34.5238 57.505 34.5429 57.4859 34.5667C57.4669 34.5905 57.4526 34.6143 57.4478 34.6429C57.4478 34.6714 57.4478 34.7 57.4478 34.7333C57.4478 34.7905 57.4621 34.8429 57.4907 34.8905C57.5383 34.9476 57.6002 34.9857 57.6716 35.0095L58.005 35.1429C58.0764 35.1714 58.1431 35.2048 58.205 35.2476C58.2526 35.281 58.2954 35.319 58.3288 35.3667C58.3573 35.4095 58.3811 35.4571 58.3907 35.5048C58.405 35.5619 58.4097 35.619 58.4097 35.6762C58.4192 35.7667 58.405 35.8524 58.3669 35.9333C58.3335 36.0143 58.2811 36.0857 58.2097 36.1429C58.1288 36.1952 58.0431 36.2333 57.9478 36.2619C57.8526 36.2857 57.7573 36.2952 57.6621 36.2905C57.5669 36.3 57.4764 36.2905 57.3859 36.2667C57.2954 36.2381 57.2145 36.2 57.1383 36.1429C57.0811 36.0857 57.0431 36.019 57.0145 35.9429C56.9859 35.8667 56.9764 35.7905 56.9811 35.7095V35.6286H57.4145V35.6952" fill="white"/>
<path d="M48.5146 59.2333V56.3095C49.9241 56.3571 50.5099 56.6571 50.7337 56.8333C50.8241 56.9 50.9051 56.981 50.9765 57.0667C51.048 57.1524 51.1051 57.2476 51.1527 57.3524C51.2003 57.4524 51.2337 57.5619 51.2527 57.6714C51.2718 57.781 51.2813 57.8952 51.2718 58.0048C51.2718 58.5 51.1003 58.7048 50.9146 58.8381C50.8289 58.9 50.3146 59.2095 48.5146 59.2333ZM48.5146 50.2762V48.3048C48.8622 48.2952 49.1908 48.3667 49.5003 48.5333C49.5241 48.5476 49.548 48.5667 49.5718 48.5857C49.6194 48.6286 49.6622 48.6762 49.7003 48.7333C49.7622 48.8333 49.7956 48.9381 49.8051 49.0524C49.8051 49.1095 49.8051 49.1619 49.8051 49.219C49.8146 49.2857 49.8099 49.3571 49.8051 49.4238C49.7956 49.4905 49.7813 49.5571 49.7527 49.6238C49.7289 49.6857 49.6956 49.7476 49.6575 49.8048C49.6194 49.8619 49.5718 49.9143 49.5241 49.9571C49.4099 50.0571 49.1289 50.2143 48.5099 50.2619L48.5194 50.281L48.5146 50.2762ZM55.4861 61.3667C55.2051 61.8333 54.867 62.2476 54.467 62.619C54.067 62.9905 53.6289 63.2952 53.1432 63.5429C52.1861 64.0238 50.867 64.2619 49.1813 64.2619H43.3289V51.5095H48.1718C49.1384 51.5095 49.8575 51.3048 50.3289 50.8952C50.448 50.7905 50.5527 50.6762 50.6432 50.5476C50.7337 50.4191 50.8099 50.2857 50.8718 50.1381C50.9337 49.9952 50.9765 49.8429 51.0051 49.6905C51.0337 49.5381 51.0432 49.381 51.0337 49.2238C51.0337 49.1191 51.0289 49.0095 51.0146 48.9048C50.9813 48.6 50.8813 48.319 50.7194 48.0619C50.6194 47.9095 50.5003 47.7762 50.3622 47.6571C50.2956 47.6 50.2241 47.5476 50.1527 47.5C49.8765 47.3429 49.5813 47.2286 49.2718 47.1571C48.9622 47.0857 48.648 47.0571 48.3289 47.0762H47.3051V50.2524H43.3337V43.2714H46.6146C48.5194 43.2714 49.9099 43.3952 50.7908 43.6429C51.0813 43.7143 51.3622 43.8048 51.6384 43.9191C51.9146 44.0333 52.1765 44.1714 52.4337 44.3286C52.6861 44.4857 52.9289 44.6619 53.1527 44.8571C53.3765 45.0524 53.5861 45.2667 53.7765 45.4952C53.9622 45.7191 54.1241 45.9571 54.2622 46.2095C54.4051 46.4619 54.5194 46.7238 54.6146 47C54.7099 47.2714 54.7765 47.5524 54.8241 47.8381C54.867 48.1238 54.8861 48.4095 54.8813 48.7C54.8861 49.0762 54.848 49.4476 54.767 49.8191C54.6861 50.1857 54.5575 50.5381 54.3908 50.8762C54.1908 51.2381 53.9527 51.5762 53.6765 51.8857C53.4003 52.1952 53.0908 52.4714 52.7527 52.7095C52.5241 52.8714 52.2861 53.0095 52.0384 53.1381C51.0813 53.619 49.7622 53.8571 48.0765 53.8571H47.3099V60.4476H48.2956C49.9384 60.4476 51.0527 60.2381 51.6337 59.8191C51.7765 59.7143 51.9003 59.5952 52.0146 59.4571C52.1289 59.319 52.2194 59.1714 52.2956 59.0143C52.3718 58.8571 52.4242 58.6905 52.4575 58.5143C52.4908 58.3429 52.5051 58.1667 52.4956 57.9905C52.5051 57.7857 52.4861 57.581 52.448 57.381C52.4051 57.181 52.3432 56.9857 52.2527 56.8C52.167 56.6143 52.0575 56.4429 51.9241 56.281C51.7956 56.1191 51.648 55.981 51.4861 55.8524C50.867 55.3667 49.867 55.1048 48.4813 55.0619C50.1861 55.0238 51.5289 54.7476 52.5861 54.2143C53.0622 53.9762 53.5003 53.6857 53.9099 53.3429C54.1099 53.4667 54.3003 53.6095 54.4813 53.7571C54.6622 53.9095 54.8337 54.0714 54.9908 54.2429C55.1527 54.4143 55.3003 54.6 55.4337 54.7905C55.567 54.981 55.6908 55.1857 55.8003 55.3952C55.9099 55.6048 56.0051 55.819 56.0861 56.0381C56.167 56.2619 56.2337 56.4857 56.2861 56.7143C56.3384 56.9429 56.3718 57.1762 56.3956 57.4095C56.4146 57.6429 56.4194 57.881 56.4099 58.1143C56.4099 58.4 56.3956 58.681 56.3575 58.9619C56.3194 59.2429 56.2622 59.519 56.1861 59.7905C56.1099 60.0619 56.0146 60.3286 55.9003 60.5905C55.7861 60.8476 55.6527 61.1 55.5003 61.3381V61.3476L55.4861 61.3667ZM56.5289 54.2857C56.1051 53.6476 55.5813 53.0952 54.967 52.6333L54.7527 52.4762C55.0242 52.1571 55.2575 51.8095 55.448 51.4381C55.6622 51.0143 55.8241 50.5714 55.9337 50.1095C56.0432 49.6476 56.0956 49.1762 56.0908 48.7C56.0956 48.3429 56.0718 47.9857 56.0146 47.6286C55.9575 47.2714 55.867 46.9286 55.7527 46.5857C55.6337 46.2476 55.4861 45.919 55.3099 45.6048C55.1337 45.2905 54.9337 44.9952 54.7051 44.7191C54.4718 44.4429 54.2242 44.1857 53.9527 43.9476C53.6813 43.7095 53.3908 43.4952 53.0861 43.3048C52.7813 43.1143 52.4622 42.9476 52.1289 42.8048C51.7956 42.6619 51.4527 42.5524 51.1051 42.4619C50.1194 42.1857 48.6384 42.0476 46.6099 42.0476H42.1099V65.4762H49.1765C51.0718 65.4762 52.548 65.2 53.6861 64.6238C53.9765 64.4762 54.2575 64.3095 54.5241 64.1238C54.7908 63.9381 55.0432 63.7333 55.2861 63.5143C55.5241 63.2952 55.748 63.0571 55.9527 62.8048C56.1575 62.5524 56.348 62.2857 56.5146 62.0095C56.6956 61.7191 56.8527 61.4191 56.9908 61.1095C57.1289 60.8 57.2432 60.4762 57.3384 60.1524C57.4289 59.8238 57.5003 59.4905 57.5432 59.1524C57.5908 58.8143 57.6099 58.4762 57.6051 58.1333C57.6099 57.7952 57.5956 57.4571 57.5527 57.119C57.5099 56.781 57.4432 56.4524 57.3527 56.1238C57.2622 55.7952 57.148 55.481 57.0099 55.1667C56.8718 54.8571 56.7099 54.5571 56.5289 54.2714" fill="white"/>
<path d="M52.8574 36.4524H52.9574C52.986 36.4524 53.0193 36.4571 53.0479 36.4667C53.0765 36.4762 53.105 36.4905 53.1288 36.5095C53.1527 36.5286 53.1717 36.5476 53.186 36.5762C53.2003 36.6048 53.2098 36.6333 53.2098 36.6667C53.2098 36.7048 53.205 36.7429 53.186 36.7762C53.1669 36.8095 53.1431 36.8381 53.1146 36.8619C53.0288 36.9143 52.9384 36.9381 52.8384 36.9286C52.7765 36.9286 52.7193 36.9238 52.6574 36.9095C52.6146 36.9048 52.5765 36.8905 52.5384 36.8714L52.5955 36.7429C52.6241 36.7571 52.6574 36.7667 52.686 36.7714C52.7241 36.781 52.7622 36.7857 52.8003 36.7857C52.8384 36.7857 52.8717 36.7762 52.905 36.7571C52.9336 36.7429 52.9479 36.719 52.9479 36.6905C52.9479 36.6619 52.9336 36.6381 52.9098 36.6238C52.8812 36.6048 52.8479 36.5952 52.8146 36.5952H52.7574L52.7098 36.6095L52.6574 36.5429L52.8241 36.2952H52.986L52.8717 36.4619L52.8622 36.4524H52.8574ZM52.5908 35.6952C52.5908 35.7381 52.5908 35.781 52.5908 35.8238C52.5955 35.8619 52.6098 35.8952 52.6336 35.9238C52.6574 35.9524 52.686 35.9714 52.7193 35.9857C52.7669 36 52.8098 36.0095 52.8622 36.0095C52.9288 36.0095 52.986 35.9905 53.0384 35.9476C53.0669 35.9238 53.086 35.8952 53.1003 35.8619C53.1146 35.8286 53.1193 35.7952 53.1146 35.7571C53.1146 35.7143 53.1098 35.6762 53.0955 35.6381C53.0812 35.6048 53.0622 35.5714 53.0336 35.5476C52.9955 35.519 52.9574 35.4952 52.9146 35.4762C52.8574 35.4524 52.7955 35.4286 52.7336 35.4095C52.6479 35.3857 52.5669 35.3524 52.486 35.3095C52.4193 35.2762 52.3622 35.2333 52.3098 35.1857C52.2622 35.1381 52.2288 35.081 52.205 35.019C52.1812 34.9476 52.1717 34.8714 52.1717 34.7952C52.1669 34.7095 52.1765 34.6286 52.2098 34.5476C52.2431 34.4667 52.286 34.4 52.3527 34.3429C52.4241 34.2905 52.5003 34.2524 52.586 34.2238C52.6717 34.1952 52.7574 34.1905 52.8479 34.1952C52.9384 34.1952 53.0241 34.2048 53.1098 34.2238C53.186 34.2429 53.2574 34.2714 53.3193 34.319C53.3812 34.3619 53.4241 34.419 53.4574 34.4905C53.4908 34.5667 53.5098 34.6524 53.505 34.7381V34.7952H53.0908C53.0955 34.7143 53.0765 34.6381 53.0384 34.5714C53.0193 34.5429 52.9908 34.5238 52.9574 34.5095C52.9241 34.4952 52.8908 34.4905 52.8574 34.4952C52.8146 34.4952 52.7765 34.5 52.7384 34.5143C52.7098 34.5238 52.6812 34.5429 52.6622 34.5667C52.6431 34.5905 52.6288 34.6143 52.6241 34.6429C52.6241 34.6714 52.6241 34.7 52.6241 34.7333C52.6241 34.7905 52.6384 34.8429 52.6669 34.8905C52.7146 34.9476 52.7765 34.9857 52.8479 35.0095L53.1812 35.1429C53.2527 35.1714 53.3193 35.2048 53.3812 35.2476C53.4288 35.2809 53.4717 35.319 53.505 35.3667C53.5336 35.4095 53.5574 35.4571 53.5669 35.5048C53.5812 35.5619 53.586 35.619 53.586 35.6762C53.5955 35.7667 53.5812 35.8524 53.5431 35.9333C53.5098 36.0143 53.4574 36.0857 53.386 36.1429C53.305 36.1952 53.2193 36.2333 53.1241 36.2619C53.0288 36.2857 52.9336 36.2952 52.8384 36.2905C52.7431 36.3 52.6527 36.2905 52.5622 36.2667C52.4717 36.2381 52.3908 36.2 52.3146 36.1429C52.2622 36.0857 52.2193 36.019 52.1908 35.9476C52.1622 35.8762 52.1527 35.8 52.1574 35.719V35.6381H52.5908V35.6952Z" fill="white"/>
<path fill-rule="evenodd" clip-rule="evenodd" d="M37.0952 59.5048L36.7762 57.1952L34.0952 57.2857L36.7428 54.681L37.0428 51.0524L38.8809 52.9095L41.0381 51.4667L39.8666 54.3333L40.7333 56.1524L38.6381 56.8381L37.1 59.5" fill="#081A30"/>
<path fill-rule="evenodd" clip-rule="evenodd" d="M37.8906 47.0238L38.8525 43.981L37.043 42.881L39.8573 41.6762L41.2287 39.181L42.443 40.8095L45.6334 40.0429L43.2906 42.5619L44.162 45.5381L40.9239 44.7762L40.862 44.7619L37.8954 47.0286" fill="url(#paint1_linear_1124_13112)"/>
<path fill-rule="evenodd" clip-rule="evenodd" d="M47.3762 38.6619L46.5857 36.6571L44.9429 35.6714L46.0095 34.8048L45.5191 32.6L47.1381 34.2143L49.1095 33.5857L48.6048 35.9476L50.1238 38.081L48.1 37.3762L47.381 38.6619" fill="url(#paint2_linear_1124_13112)"/>
<path fill-rule="evenodd" clip-rule="evenodd" d="M55.9095 43.6619L55.4 40.481L52.9619 38.9857L55.2286 37.681L55.3524 34.3143L57.4667 36.7905L60.7667 35.981L59.1619 39.2952L60.9048 42.5667L57.7143 41.5476L55.9095 43.6667" fill="#081A30"/>
<path fill-rule="evenodd" clip-rule="evenodd" d="M48.624 44.6048L47.8335 44.981L48.1668 43.9762L47.7573 43.2381L48.5192 43.1524L49.043 42.181L49.2526 43.1857L50.2573 43.3762L49.343 44.1333V45.3667L48.6192 44.6048" fill="url(#paint3_linear_1124_13112)"/>
<path fill-rule="evenodd" clip-rule="evenodd" d="M47.3905 52.4048L47.9953 49.7L44.2715 47.8667L49.0667 47.1048L51.3143 43.281L53.3143 46.7905L57.7858 46.8476L54.1905 49.1714L54.6239 51.7857L51.0524 50.8333L47.3905 52.4048Z" fill="url(#paint4_linear_1124_13112)"/>
<path fill-rule="evenodd" clip-rule="evenodd" d="M64.8287 45.4762L63.2953 45.6571L62.1429 44.5524L62.2049 45.9191L61.1382 46.3286L62.381 46.9191L62.7048 47.9714L63.4763 47.3238L64.8572 47.7048L64.1096 46.6048L64.8382 45.481" fill="url(#paint5_linear_1124_13112)"/>
<path fill-rule="evenodd" clip-rule="evenodd" d="M62.9667 50.4905L60.9763 48.9619L61.181 50.419L59.6763 50.5L61.5048 51.3333L62.0858 52.4381L63.3287 52.0571L65.2334 52.7048L64.2525 51.6333L65.4763 50.7667L62.962 50.4857" fill="#081A30"/>
<path fill-rule="evenodd" clip-rule="evenodd" d="M51.0193 62.8L51.9478 58.8476L49.1621 56.7952L53.005 56L54.5669 52.9952L56.3764 55.6429L60.4145 55.6048L57.6859 58.2714L58.9954 62.1429L54.8573 60.4524L51.0288 62.8" fill="#081A30"/>
<path fill-rule="evenodd" clip-rule="evenodd" d="M51.9048 72.1381L53.1286 68.8048L56.019 67.6476L54.0095 65.719L54.6619 62.5238L52.6429 64.8095L51.0381 64.1857L51.0857 66.8905L49.519 69.3286L51.3286 69.2476L51.9095 72.1429" fill="url(#paint6_linear_1124_13112)"/>
<path fill-rule="evenodd" clip-rule="evenodd" d="M43.8384 57.6857L44.4384 56.4429L43.186 55.9667L45.286 55.0429L46.6194 53.1476L46.767 54.5143L48.0527 54.2L46.6956 55.4429L46.4479 56.6095L45.3098 56.5857L43.8337 57.6857" fill="url(#paint7_linear_1124_13112)"/>
<path fill-rule="evenodd" clip-rule="evenodd" d="M45.0048 60.7809L42.9572 58.4619V61.9048L40.8857 63.4619L43.2096 64.8524L43.7953 68.1952L45.4286 65.8143L48.6334 66.7143L46.7286 63.2619L48.1191 59.6095L45 60.7762" fill="#081A30"/>
<mask id="mask1_1124_13112" style="mask-type:luminance" maskUnits="userSpaceOnUse" x="33" y="48" width="6" height="3">
<path d="M33.6475 49.1048L33.6094 49.319L34.476 49.6L33.9618 50.8191L36.0475 49.9524L38.2951 50.2905L37.4284 49.2571L38.5284 48.5524L36.7189 48.6762L35.7332 48.0571L34.976 48.881L33.6522 49.1048H33.6475Z" fill="white"/>
</mask>
<g mask="url(#mask1_1124_13112)">
<path d="M33.6475 49.1048L33.6094 49.319L34.476 49.6L33.9618 50.819L36.0475 49.9476L38.2951 50.2857L37.4284 49.2524L38.5284 48.5476L36.7237 48.6714L35.7379 48.0524L34.9808 48.8762L33.657 49.1H33.6522" fill="url(#paint8_linear_1124_13112)"/>
</g>
<path d="M60.7523 70.1381C61.9047 69.1429 62.9142 68.0238 63.7761 66.7667L63.6952 66.6571L64.3095 63.8524L61.8047 64.5905L59.3095 62.3571L59.6285 65.6048L56.7666 67.4381L60.2571 68.5667L60.7666 70.1381H60.7523Z" fill="#081A30"/>
<mask id="mask2_1124_13112" style="mask-type:luminance" maskUnits="userSpaceOnUse" x="36" y="66" width="10" height="7">
<path d="M36.8999 67.4667C37.7475 68.5524 38.6999 69.5381 39.757 70.4238C40.8142 71.3095 41.9523 72.0714 43.1713 72.7143L43.1285 71.7571L45.7332 70.7714L42.7047 69.3286L41.9142 66.7619L40.0428 68.3381L36.9047 67.4762V67.4667H36.8999Z" fill="white"/>
</mask>
<g mask="url(#mask2_1124_13112)">
<path d="M36.8999 67.4667C37.7475 68.5524 38.6999 69.5381 39.757 70.4238C40.8142 71.3095 41.9523 72.0714 43.1713 72.7143L43.1285 71.7571L45.7332 70.7714L42.7047 69.3286L41.9142 66.7619L40.0428 68.3381L36.9047 67.4762V67.4667" fill="url(#paint9_linear_1124_13112)"/>
</g>
<mask id="mask3_1124_13112" style="mask-type:luminance" maskUnits="userSpaceOnUse" x="64" y="57" width="3" height="6">
<path d="M66.062 62.0476C66.3953 60.9905 66.6382 59.919 66.8001 58.8238L66.0144 57.6333L66.0524 59.919L64.2334 60.9048L66.0667 62.0381V62.0476H66.062Z" fill="white"/>
</mask>
<g mask="url(#mask3_1124_13112)">
<path d="M66.062 62.0476C66.3953 60.9905 66.6382 59.919 66.8001 58.8238L66.0144 57.6333L66.0524 59.919L64.2334 60.9048L66.0667 62.0381V62.0476" fill="url(#paint10_linear_1124_13112)"/>
</g>
<path d="M65.5619 43.7095C65.4095 42.4095 65.3286 41.1191 65.3143 39.8619L63.8857 39.7952L65.3667 41.7667L64.8953 43.9191L65.5572 43.7238V43.7095" fill="#081A30"/>
<path d="M33.8619 61.1714C34.2477 62.6571 34.8143 64.0714 35.5572 65.4143L35.8953 65.6762L35.6191 63.7238L37.6334 63.6143L35.1667 62.4952L34.3858 61.0143L33.8477 61.181H33.8619" fill="#081A30"/>
<path d="M36.8622 36.2714H36.4526V34.7381H36.8622V36.2714ZM36.8622 34.5476H36.4526V34.219H36.8622V34.5524" fill="white"/>
<path d="M37.5142 35.6952C37.5142 35.7381 37.5142 35.781 37.5142 35.8238C37.519 35.8619 37.5333 35.8952 37.5571 35.9238C37.5809 35.9524 37.6095 35.9714 37.6475 35.9857C37.6904 36 37.738 36.0095 37.7856 36.0095C37.8523 36.0095 37.9095 35.9905 37.9618 35.9476C37.9904 35.9238 38.0095 35.8952 38.0237 35.8619C38.038 35.8286 38.0428 35.7952 38.038 35.7571C38.038 35.719 38.0333 35.6762 38.019 35.6381C38.0047 35.6048 37.9809 35.5762 37.9571 35.5476C37.919 35.519 37.8809 35.4952 37.838 35.4762C37.7809 35.4524 37.719 35.4286 37.6571 35.4095C37.5714 35.381 37.4904 35.3524 37.4095 35.3095C37.3428 35.2762 37.2856 35.2333 37.2333 35.1857C37.1856 35.1381 37.1523 35.081 37.1285 35.019C37.1047 34.9476 37.0952 34.8762 37.0952 34.8C37.0904 34.7143 37.0999 34.6333 37.1333 34.5524C37.1666 34.4714 37.2095 34.4048 37.2761 34.3476C37.3475 34.2952 37.4237 34.2571 37.5095 34.2286C37.5952 34.2048 37.6809 34.1952 37.7714 34.2C37.8618 34.2 37.9475 34.2095 38.0333 34.2286C38.1095 34.2476 38.1809 34.2762 38.2428 34.3238C38.3047 34.3667 38.3475 34.4238 38.3809 34.4952C38.4142 34.5714 38.4333 34.6571 38.4285 34.7429V34.8H38.019C38.0237 34.719 38.0047 34.6429 37.9666 34.5762C37.9475 34.5476 37.919 34.5286 37.8856 34.5143C37.8523 34.5 37.819 34.4952 37.7856 34.5C37.7428 34.5 37.7047 34.5048 37.6666 34.519C37.638 34.5286 37.6095 34.5476 37.5904 34.5714C37.5714 34.5952 37.5571 34.619 37.5523 34.6476C37.5523 34.6762 37.5523 34.7048 37.5523 34.7381C37.5523 34.7952 37.5666 34.8476 37.5952 34.8952C37.6428 34.9524 37.7047 34.9905 37.7761 35.0143L38.1095 35.1476C38.1809 35.1762 38.2475 35.2095 38.3095 35.2524C38.3571 35.2857 38.3999 35.3238 38.4333 35.3714C38.4618 35.4143 38.4856 35.4619 38.4952 35.5095C38.5095 35.5667 38.5142 35.6238 38.5142 35.681C38.5237 35.7714 38.5095 35.8571 38.4714 35.9381C38.438 36.019 38.3856 36.0905 38.3142 36.1476C38.2333 36.2 38.1475 36.2381 38.0523 36.2667C37.9571 36.2905 37.8618 36.3 37.7666 36.2952C37.6714 36.3048 37.5809 36.2952 37.4904 36.2714C37.3999 36.2429 37.319 36.2048 37.2428 36.1476C37.1856 36.0905 37.1475 36.0238 37.119 35.9476C37.0904 35.8714 37.0809 35.7952 37.0856 35.7143V35.6333H37.519V35.7" fill="white"/>
<path d="M39.9713 34.5714H39.5046V36.2714H39.076V34.5714H38.6094V34.2381H39.976V34.5714" fill="white"/>
<path d="M41.0476 35.5048L40.8429 34.5905L40.6381 35.5048H41.0524H41.0476ZM41.1048 34.2381L41.6714 36.2714H41.2238L41.1238 35.8381H40.5524L40.4524 36.2714H40L40.5762 34.2381H41.1" fill="white"/>
<path d="M42.838 35.6286H42.8475V34.2381H43.2428V36.2714H42.7523L42.2237 34.8476H42.219V36.2714H41.8237V34.2381H42.3237L42.8428 35.6286" fill="white"/>
<path d="M44.1381 35.9667C44.2286 35.9667 44.3095 35.9476 44.3857 35.9C44.4238 35.8714 44.4476 35.8333 44.4667 35.7905C44.4857 35.7476 44.4905 35.7 44.4809 35.6571C44.4809 35.6048 44.4762 35.5571 44.4571 35.5095C44.4428 35.4714 44.419 35.4429 44.3905 35.4143C44.3571 35.3857 44.3238 35.3714 44.2809 35.3619C44.2381 35.3619 44.2 35.3619 44.1571 35.3619H43.9714V35.9714H44.1381V35.9667ZM44.0952 35.0667C44.1905 35.0714 44.2762 35.0524 44.3571 35.0048C44.3857 34.981 44.4095 34.9476 44.4238 34.9095C44.4381 34.8714 44.4428 34.8333 44.4381 34.7952C44.4381 34.7571 44.4381 34.7191 44.4238 34.6857C44.4095 34.6476 44.3905 34.6191 44.3619 34.5905C44.2857 34.5429 44.2048 34.5238 44.1143 34.5333H43.9571V35.0667H44.0905H44.0952ZM44.2619 34.2333C44.3428 34.2333 44.4286 34.2381 44.5095 34.2571C44.5809 34.2714 44.6428 34.3 44.7 34.3429C44.7571 34.3857 44.8 34.4381 44.8238 34.5048C44.8571 34.5857 44.8714 34.6667 44.8667 34.7524C44.8667 34.8571 44.8428 34.9476 44.7857 35.0333C44.7238 35.1191 44.6428 35.1714 44.5381 35.1952C44.6524 35.2048 44.7476 35.2524 44.8238 35.3429C44.9 35.4381 44.9333 35.5476 44.9286 35.6714C44.9286 35.7476 44.919 35.8238 44.8952 35.9C44.8714 35.9714 44.8333 36.0333 44.7809 36.0905C44.7238 36.1476 44.6524 36.1905 44.5762 36.2191C44.4762 36.2524 44.3667 36.2714 44.2619 36.2667H43.5381V34.2381H44.2619" fill="white"/>
<path d="M45.6048 35.6524C45.6048 35.7 45.6048 35.7476 45.6048 35.7905C45.6096 35.8286 45.6239 35.8667 45.6429 35.9C45.662 35.9333 45.6905 35.9571 45.7239 35.9714C45.762 35.9905 45.8048 36 45.8477 36C45.8905 36 45.9334 35.9952 45.9715 35.9714C46.0048 35.9524 46.0286 35.9286 46.0477 35.9C46.0667 35.8667 46.081 35.8286 46.0858 35.7905C46.0858 35.7429 46.0858 35.6952 46.0858 35.6524V34.2333H46.5191V35.6524C46.5191 35.7619 46.5048 35.8714 46.462 35.9714C46.4286 36.0524 46.3763 36.1191 46.3096 36.1714C46.2429 36.2191 46.1715 36.2524 46.0905 36.2714C46.0096 36.2857 45.9286 36.2952 45.8429 36.2952C45.7572 36.2952 45.6763 36.2857 45.5953 36.2714C45.5143 36.2571 45.4429 36.2286 45.3763 36.181C45.3096 36.1286 45.2572 36.0619 45.2239 35.9857C45.181 35.881 45.162 35.7667 45.1667 35.6524V34.2333H45.6001V35.6524H45.6048Z" fill="white"/>
<path d="M46.8145 34.2381H47.2478V35.9381H48.0097V36.2714H46.8145V34.2381Z" fill="white"/>
<path d="M49.5143 35.9667C49.6048 35.9667 49.6857 35.9476 49.7619 35.9C49.8 35.8714 49.8238 35.8333 49.8429 35.7905C49.8619 35.7476 49.8667 35.7 49.8572 35.6571C49.8572 35.6048 49.8524 35.5571 49.8334 35.5095C49.8191 35.4714 49.7953 35.4429 49.7667 35.4143C49.7381 35.3905 49.7 35.3714 49.6619 35.3667C49.6191 35.3571 49.5762 35.3524 49.5334 35.3524H49.3476V35.9619L49.5191 35.9714L49.5143 35.9667ZM49.4715 35.0714C49.5667 35.081 49.6524 35.0571 49.7334 35.0095C49.7619 34.9857 49.7857 34.9524 49.8 34.9143C49.8143 34.8762 49.8191 34.8381 49.8191 34.8C49.8191 34.7619 49.8191 34.7238 49.8048 34.6905C49.7905 34.6524 49.7715 34.6238 49.7429 34.5952C49.6667 34.5476 49.5857 34.5286 49.4953 34.5381H49.3381V35.0714H49.4667H49.4715ZM49.6381 34.2381C49.7191 34.2381 49.8048 34.2429 49.8857 34.2619C49.9572 34.2762 50.0191 34.3048 50.0762 34.3476C50.1334 34.3905 50.1762 34.4429 50.2 34.5095C50.2334 34.5905 50.2476 34.6714 50.2429 34.7571C50.2429 34.8619 50.2191 34.9524 50.1619 35.0381C50.1 35.1238 50.0191 35.1762 49.9143 35.2C50.0286 35.2095 50.1238 35.2571 50.2 35.3476C50.2762 35.4429 50.3095 35.5524 50.3048 35.6762C50.3048 35.7524 50.2953 35.8286 50.2715 35.9048C50.2524 35.9762 50.2143 36.0381 50.1619 36.0952C50.1048 36.1524 50.0334 36.1952 49.9572 36.2238C49.8572 36.2571 49.7476 36.2762 49.6429 36.2714H48.9048V34.2429H49.6429" fill="white"/>
<path d="M51.4717 35.5048L51.2669 34.5905L51.0622 35.5048H51.4764H51.4717ZM51.5288 34.2381L52.0955 36.2714H51.6479L51.5479 35.8381H50.9765L50.8764 36.2714H50.4336L51.0003 34.2381H51.5241" fill="white"/>
<path d="M54.6906 35.5048L54.4858 34.5905L54.281 35.5048H54.6953H54.6906ZM54.7477 34.2381L55.3144 36.2714H54.8763L54.7763 35.8381H54.2049L54.1049 36.2714H53.6382L54.2049 34.2381H54.7429" fill="white"/>
<path d="M55.8951 35.0476H55.8999L56.4427 34.2333H56.9094L56.3285 35.1048L56.9761 36.2667H56.4904L56.0475 35.4286L55.8904 35.6619V36.2667H55.457V34.2333H55.8904V35.0476" fill="white"/>
<path d="M59.8189 34.5714H59.057V35.0476H59.776V35.3857H59.057V35.9333H59.8522V36.2667H58.6284V34.2333H59.8237V34.5667" fill="white"/>
<path d="M60.4905 34.2381V35.0143H60.9952V34.2381H61.4286V36.2714H60.9952V35.3714H60.4905V36.2714H60.0571V34.2381H60.4905Z" fill="white"/>
<path d="M62.1428 36.2714H61.7285V34.7381H62.1428V36.2714ZM62.1428 34.5476H61.7285V34.219H62.1428V34.5524" fill="white"/>
<path d="M63.0572 35.1143C63.1476 35.1238 63.2286 35.1 63.3048 35.0476C63.3381 35.0143 63.3619 34.9762 63.3762 34.9333C63.3905 34.8905 63.3952 34.8476 63.3905 34.8C63.3905 34.6143 63.2905 34.519 63.0905 34.519H62.8857V35.1143H63.0619H63.0572ZM63.2429 34.2238C63.3191 34.2238 63.3905 34.2238 63.4667 34.2524C63.5381 34.2762 63.6048 34.3095 63.6619 34.3571C63.7143 34.4095 63.7572 34.4667 63.781 34.5381C63.8095 34.6048 63.8191 34.6762 63.8095 34.7524C63.8143 34.8714 63.7857 34.9857 63.7238 35.0857C63.6905 35.1286 63.6524 35.1667 63.6048 35.1952C63.5572 35.2238 63.5095 35.2429 63.4524 35.2524C63.5476 35.2524 63.6286 35.2905 63.7 35.3524C63.7572 35.4238 63.7905 35.5048 63.7952 35.6V35.8714C63.7952 35.981 63.7952 36.0619 63.8143 36.119C63.8191 36.1714 63.8476 36.2095 63.8905 36.2333V36.2524H63.4238C63.4 36.2238 63.3857 36.1905 63.381 36.1524C63.381 36.1143 63.381 36.0762 63.381 36.0381V35.6476C63.381 35.5762 63.3619 35.5143 63.3191 35.4619C63.2667 35.4095 63.2 35.3857 63.1286 35.3952H62.8952V36.2571H62.4619V34.2429L63.2381 34.2286" fill="white"/>
<path d="M48.5141 59.2333V56.3095C49.9237 56.3571 50.5094 56.6571 50.7332 56.8333C50.8237 56.9 50.9046 56.981 50.976 57.0667C51.0475 57.1524 51.1046 57.2476 51.1522 57.3524C51.1999 57.4524 51.2332 57.5619 51.2522 57.6714C51.2713 57.781 51.2808 57.8952 51.2713 58.0048C51.2713 58.5 51.0999 58.7048 50.9141 58.8381C50.8284 58.9 50.3141 59.2095 48.5141 59.2333ZM48.5141 50.2762V48.3048C48.8618 48.2952 49.1903 48.3667 49.4998 48.5333C49.5237 48.5476 49.5475 48.5667 49.5713 48.5857C49.6189 48.6286 49.6618 48.6762 49.6999 48.7333C49.7618 48.8333 49.7951 48.9381 49.8046 49.0524C49.8046 49.1095 49.8046 49.1619 49.8046 49.219C49.8141 49.2857 49.8094 49.3571 49.8046 49.4238C49.7951 49.4905 49.7808 49.5571 49.7522 49.6238C49.7284 49.6857 49.6951 49.7476 49.657 49.8048C49.6189 49.8619 49.5713 49.9143 49.5237 49.9571C49.4094 50.0571 49.1284 50.2143 48.5094 50.2619L48.5189 50.281L48.5141 50.2762ZM55.4856 61.3667C55.2046 61.8333 54.8665 62.2476 54.4665 62.619C54.0665 62.9905 53.6284 63.2952 53.1427 63.5429C52.1856 64.0238 50.8665 64.2619 49.1808 64.2619H43.3284V51.5095H48.1713C49.1379 51.5095 49.857 51.3048 50.3284 50.8952C50.4475 50.7905 50.5522 50.6762 50.6427 50.5476C50.7332 50.4191 50.8094 50.2857 50.8713 50.1381C50.9332 49.9952 50.976 49.8429 51.0046 49.6905C51.0332 49.5381 51.0427 49.381 51.0332 49.2238C51.0332 49.1191 51.0284 49.0095 51.0141 48.9048C50.9808 48.6 50.8808 48.319 50.7189 48.0619C50.6189 47.9095 50.4999 47.7762 50.3618 47.6571C50.2951 47.6 50.2237 47.5476 50.1522 47.5C49.876 47.3429 49.5808 47.2286 49.2713 47.1571C48.9618 47.0857 48.6475 47.0571 48.3284 47.0762H47.3046V50.2524H43.3332V43.2714H46.6141C48.5189 43.2714 49.9094 43.3952 50.7903 43.6429C51.0808 43.7143 51.3618 43.8048 51.6379 43.9191C51.9141 44.0333 52.176 44.1714 52.4332 44.3286C52.6856 44.4857 52.9284 44.6619 53.1522 44.8571C53.376 45.0524 53.5856 45.2667 53.776 45.4952C53.9618 45.7191 54.1237 45.9571 54.2618 46.2095C54.4046 46.4619 54.5189 46.7238 54.6141 47C54.7094 47.2714 54.776 47.5524 54.8237 47.8381C54.8665 48.1238 54.8856 48.4095 54.8808 48.7C54.8856 49.0762 54.8475 49.4476 54.7665 49.8191C54.6856 50.1857 54.557 50.5381 54.3903 50.8762C54.1903 51.2381 53.9522 51.5762 53.676 51.8857C53.3999 52.1952 53.0903 52.4714 52.7522 52.7095C52.5237 52.8714 52.2856 53.0095 52.0379 53.1381C51.0808 53.619 49.7618 53.8571 48.076 53.8571H47.3094V60.4476H48.2951C49.9379 60.4476 51.0522 60.2381 51.6332 59.8191C51.776 59.7143 51.8999 59.5952 52.0141 59.4571C52.1284 59.319 52.2189 59.1714 52.2951 59.0143C52.3713 58.8571 52.4237 58.6905 52.457 58.5143C52.4903 58.3429 52.5046 58.1667 52.4951 57.9905C52.5046 57.7857 52.4856 57.581 52.4475 57.381C52.4046 57.181 52.3427 56.9857 52.2522 56.8C52.1665 56.6143 52.057 56.4429 51.9237 56.281C51.7951 56.1191 51.6475 55.981 51.4856 55.8524C50.8665 55.3667 49.8665 55.1048 48.4808 55.0619C50.1856 55.0238 51.5284 54.7476 52.5856 54.2143C53.0618 53.9762 53.4999 53.6857 53.9094 53.3429C54.1094 53.4667 54.2999 53.6095 54.4808 53.7571C54.6618 53.9095 54.8332 54.0714 54.9903 54.2429C55.1522 54.4143 55.2999 54.6 55.4332 54.7905C55.5665 54.981 55.6903 55.1857 55.7999 55.3952C55.9094 55.6048 56.0046 55.819 56.0856 56.0381C56.1665 56.2619 56.2332 56.4857 56.2856 56.7143C56.3379 56.9429 56.3713 57.1762 56.3951 57.4095C56.4141 57.6429 56.4189 57.881 56.4094 58.1143C56.4094 58.4 56.3951 58.681 56.357 58.9619C56.3189 59.2429 56.2618 59.519 56.1856 59.7905C56.1094 60.0619 56.0141 60.3286 55.8999 60.5905C55.7856 60.8476 55.6522 61.1 55.4999 61.3381V61.3476L55.4856 61.3667ZM56.5284 54.2857C56.1046 53.6476 55.5808 53.0952 54.9665 52.6333L54.7522 52.4762C55.0237 52.1571 55.257 51.8095 55.4475 51.4381C55.6618 51.0143 55.8237 50.5714 55.9332 50.1095C56.0427 49.6476 56.0951 49.1762 56.0903 48.7C56.0951 48.3429 56.0713 47.9857 56.0141 47.6286C55.957 47.2714 55.8665 46.9286 55.7522 46.5857C55.6332 46.2476 55.4856 45.919 55.3094 45.6048C55.1332 45.2905 54.9332 44.9952 54.7046 44.7191C54.4713 44.4429 54.2237 44.1857 53.9522 43.9476C53.6808 43.7095 53.3903 43.4952 53.0856 43.3048C52.7808 43.1143 52.4618 42.9476 52.1284 42.8048C51.7951 42.6619 51.4522 42.5524 51.1046 42.4619C50.1189 42.1857 48.6379 42.0476 46.6094 42.0476H42.1094V65.4762H49.176C51.0713 65.4762 52.5475 65.2 53.6856 64.6238C53.976 64.4762 54.257 64.3095 54.5237 64.1238C54.7903 63.9381 55.0427 63.7333 55.2856 63.5143C55.5237 63.2952 55.7475 63.0571 55.9522 62.8048C56.157 62.5524 56.3475 62.2857 56.5141 62.0095C56.6951 61.7191 56.8522 61.4191 56.9903 61.1095C57.1284 60.8 57.2427 60.4762 57.3379 60.1524C57.4284 59.8238 57.4998 59.4905 57.5427 59.1524C57.5903 58.8143 57.6094 58.4762 57.6046 58.1333C57.6094 57.7952 57.5951 57.4571 57.5522 57.119C57.5094 56.781 57.4427 56.4524 57.3522 56.1238C57.2618 55.7952 57.1475 55.481 57.0094 55.1667C56.8713 54.8571 56.7094 54.5571 56.5284 54.2714" fill="white"/>
<path d="M47.481 70.2191C47.5048 70.1429 47.5381 70.0762 47.5905 70.019C47.6429 69.9619 47.7048 69.9143 47.7762 69.8857C47.8572 69.8524 47.9381 69.8381 48.0238 69.8381C48.0905 69.8381 48.1572 69.8476 48.2238 69.8667C48.2905 69.8857 48.3476 69.919 48.4 69.9667C48.4524 70.0095 48.4905 70.0667 48.5191 70.1286C48.5524 70.2 48.5667 70.2714 48.5619 70.3524C48.5619 70.4238 48.5524 70.4952 48.5238 70.5619C48.5 70.619 48.4667 70.6762 48.4286 70.7238C48.3857 70.7714 48.3429 70.8143 48.2905 70.8524C48.2381 70.8905 48.1857 70.9286 48.1286 70.9619L47.9619 71.0619C47.9096 71.0905 47.8572 71.1286 47.8096 71.1667C47.7667 71.2 47.7238 71.2429 47.6905 71.2857C47.6572 71.3286 47.6334 71.3809 47.6286 71.4333H48.5429V71.6238H47.3857C47.3905 71.5286 47.4095 71.4381 47.4429 71.3524C47.4715 71.281 47.5048 71.219 47.5524 71.1571C47.5953 71.1 47.6476 71.0524 47.7048 71.0095C47.7619 70.9667 47.8191 70.9286 47.881 70.8905L48.0762 70.7619C48.1286 70.7286 48.1762 70.6857 48.2143 70.6429C48.2524 70.6048 48.281 70.5571 48.3 70.5095C48.3191 70.4571 48.3286 70.4048 48.3286 70.3524C48.3286 70.3048 48.3191 70.2619 48.3 70.2191C48.281 70.181 48.2572 70.1429 48.2238 70.1143C48.1905 70.0857 48.1572 70.0667 48.1143 70.0524C48.0715 70.0381 48.0286 70.0286 47.981 70.0286C47.9238 70.0286 47.8715 70.0381 47.8191 70.0667C47.7762 70.0905 47.7381 70.1238 47.7096 70.1667C47.681 70.2095 47.6619 70.2571 47.6476 70.3095C47.6334 70.3619 47.6286 70.4143 47.6286 70.4714H47.4143C47.4096 70.3857 47.4143 70.3048 47.4429 70.2238" fill="white"/>
<path d="M49.0048 70.9714C49.0048 71.0524 49.0239 71.1286 49.0429 71.2048C49.062 71.2762 49.1001 71.3381 49.1524 71.3905C49.181 71.4143 49.2143 71.4333 49.2524 71.4476C49.2905 71.4619 49.3239 71.4667 49.3667 71.4667C49.4096 71.4667 49.4429 71.4619 49.481 71.4476C49.5191 71.4333 49.5477 71.4143 49.581 71.3905C49.6334 71.3381 49.6667 71.2762 49.6905 71.2048C49.7143 71.1286 49.7286 71.0524 49.7286 70.9714C49.7286 70.8857 49.7286 70.8143 49.7286 70.7429V70.5952C49.7286 70.4905 49.7143 70.3857 49.6858 70.281C49.6715 70.2333 49.6524 70.1905 49.6239 70.1476C49.5953 70.1095 49.562 70.081 49.5191 70.0571C49.4715 70.0333 49.4191 70.0238 49.3667 70.0238C49.3143 70.0238 49.262 70.0333 49.2143 70.0571C49.1715 70.081 49.1382 70.1095 49.1096 70.1476C49.081 70.1905 49.062 70.2333 49.0477 70.281C49.0334 70.3333 49.0239 70.3857 49.0143 70.4381C49.0143 70.4905 49.0143 70.5429 49.0143 70.5952V70.9667H49.0096L49.0048 70.9714ZM48.7762 70.5429C48.7762 70.4714 48.7858 70.4048 48.8001 70.3381C48.8143 70.2714 48.8334 70.2095 48.8572 70.1476C48.881 70.0905 48.9143 70.0381 48.962 69.9905C49.0096 69.9429 49.062 69.9048 49.1239 69.881C49.281 69.8238 49.4382 69.8238 49.5953 69.881C49.6572 69.9048 49.7096 69.9429 49.7572 69.9905C49.8001 70.0381 49.8382 70.0905 49.862 70.1476C49.8858 70.2095 49.9048 70.2762 49.9191 70.3381C49.9334 70.4048 49.9429 70.4762 49.9429 70.5429V70.9524C49.9429 71.0238 49.9334 71.0905 49.9191 71.1571C49.9048 71.2238 49.8858 71.2857 49.862 71.3476C49.8382 71.4048 49.8048 71.4571 49.7572 71.5048C49.7096 71.5524 49.6572 71.5857 49.5953 71.6095C49.4382 71.6619 49.2762 71.6619 49.1191 71.6095C49.0572 71.5857 49.0048 71.5524 48.9572 71.5048C48.9143 71.4571 48.8762 71.4048 48.8524 71.3476C48.8286 71.2857 48.8096 71.2238 48.7953 71.1571C48.781 71.0905 48.7715 71.019 48.7715 70.9524V70.5429" fill="white"/>
<path d="M50.6859 71.6238V70.3429H50.2192V70.1714C50.2764 70.1714 50.3383 70.1667 50.3954 70.1571C50.4478 70.1476 50.5002 70.1333 50.5478 70.1048C50.5954 70.081 50.6335 70.0429 50.6621 70C50.6954 69.9476 50.7192 69.8952 50.724 69.8333H50.8859V71.619H50.6811" fill="white"/>
<path d="M52.1857 70.1429L51.5953 71.0143H52.1905V70.1429H52.1857ZM52.6286 71.0143V71.2048H52.381V71.6238H52.181V71.2048H51.4048V71L52.2143 69.8381H52.3857V71.0143H52.6286Z" fill="white"/>
<path d="M57.6811 36.4524H57.7811C57.8097 36.4524 57.8431 36.4571 57.8716 36.4667C57.9002 36.4762 57.9288 36.4905 57.9526 36.5095C57.9764 36.5286 57.9954 36.5476 58.0097 36.5762C58.024 36.6048 58.0335 36.6333 58.0335 36.6667C58.0335 36.7048 58.0288 36.7429 58.0097 36.7762C57.9907 36.8095 57.9669 36.8381 57.9383 36.8619C57.8526 36.9143 57.7621 36.9381 57.6621 36.9286C57.6002 36.9286 57.5431 36.9238 57.4811 36.9095C57.4383 36.9048 57.4002 36.8905 57.3621 36.8714L57.4192 36.7429C57.4478 36.7571 57.4764 36.7667 57.5097 36.7714C57.5478 36.781 57.5859 36.7857 57.624 36.7857C57.6621 36.7857 57.7002 36.7762 57.7288 36.7571C57.7573 36.7429 57.7716 36.719 57.7716 36.6905C57.7716 36.6619 57.7573 36.6381 57.7335 36.6238C57.705 36.6048 57.6716 36.5952 57.6383 36.5952H57.5859L57.5383 36.6048L57.4716 36.5476L57.6383 36.3H57.8002L57.6859 36.4667V36.4524H57.6811ZM57.4097 35.6952C57.4097 35.7381 57.4097 35.781 57.4097 35.8238C57.4145 35.8619 57.4288 35.8952 57.4526 35.9238C57.4764 35.9524 57.505 35.9714 57.5431 35.9857C57.5859 36 57.6335 36.0095 57.6811 36.0095C57.7478 36.0095 57.805 35.9905 57.8573 35.9476C57.8859 35.9238 57.905 35.8952 57.9192 35.8619C57.9335 35.8286 57.9383 35.7952 57.9335 35.7571C57.9335 35.7143 57.9288 35.6762 57.9145 35.6381C57.9002 35.6048 57.8811 35.5714 57.8526 35.5476C57.8145 35.519 57.7764 35.4952 57.7335 35.4762C57.6764 35.4524 57.6145 35.4286 57.5526 35.4095C57.4669 35.3857 57.3859 35.3524 57.305 35.3095C57.2383 35.2762 57.1811 35.2333 57.1288 35.1857C57.0811 35.1381 57.0478 35.081 57.024 35.019C57.0002 34.9476 56.9907 34.8714 56.9907 34.7952C56.9859 34.7095 56.9954 34.6286 57.0288 34.5476C57.0621 34.4667 57.105 34.4 57.1716 34.3429C57.2431 34.2905 57.3192 34.2524 57.405 34.2238C57.4907 34.2 57.5764 34.1905 57.6669 34.1952C57.7573 34.1952 57.8431 34.2048 57.9288 34.2238C58.005 34.2429 58.0764 34.2714 58.1383 34.319C58.2002 34.3619 58.2431 34.419 58.2764 34.4905C58.3097 34.5667 58.3288 34.6524 58.324 34.7381V34.7952H57.9145C57.9192 34.7143 57.9002 34.6381 57.8621 34.5714C57.8431 34.5429 57.8145 34.5238 57.7811 34.5095C57.7478 34.4952 57.7145 34.4905 57.6811 34.4952C57.6383 34.4952 57.6002 34.5 57.5621 34.5143C57.5335 34.5238 57.505 34.5429 57.4859 34.5667C57.4669 34.5905 57.4526 34.6143 57.4478 34.6429C57.4478 34.6714 57.4478 34.7 57.4478 34.7333C57.4478 34.7905 57.4621 34.8429 57.4907 34.8905C57.5383 34.9476 57.6002 34.9857 57.6716 35.0095L58.005 35.1429C58.0764 35.1714 58.1431 35.2048 58.205 35.2476C58.2526 35.281 58.2954 35.319 58.3288 35.3667C58.3573 35.4095 58.3811 35.4571 58.3907 35.5048C58.405 35.5619 58.4097 35.619 58.4097 35.6762C58.4192 35.7667 58.405 35.8524 58.3669 35.9333C58.3335 36.0143 58.2811 36.0857 58.2097 36.1429C58.1288 36.1952 58.0431 36.2333 57.9478 36.2619C57.8526 36.2857 57.7573 36.2952 57.6621 36.2905C57.5669 36.3 57.4764 36.2905 57.3859 36.2667C57.2954 36.2381 57.2145 36.2 57.1383 36.1429C57.0811 36.0857 57.0431 36.019 57.0145 35.9429C56.9859 35.8667 56.9764 35.7905 56.9811 35.7095V35.6286H57.4145V35.6952" fill="white"/>
<path d="M30.7095 11.3381L31.1143 12.0714L28.9 13.2952L29.2476 13.9286L31.2143 12.8429L31.6143 13.5714L29.6476 14.6572L30.1333 15.5333L29.2714 16.0095L27.6333 13.0429L30.7095 11.3429V11.3381Z" fill="white"/>
<path d="M36.3001 12.6238L35.762 12.1524L33.8286 12.9381L33.7715 13.6524L32.7905 14.0524L33.1334 10.2571L34.3905 9.74762L37.281 12.2286L36.3048 12.6238H36.3001ZM33.8953 12.1143L35.1334 11.6095L34.0143 10.6333L33.8953 12.1143Z" fill="white"/>
<path d="M41.3476 10.1762L40.7619 7.81906L41.7095 7.58572L42.5238 10.8762L41.1286 11.2238L38.6048 9.34763L39.1905 11.7048L38.2381 11.9429L37.4238 8.65239L38.8238 8.30477L41.3476 10.181V10.1762Z" fill="white"/>
<path d="M46.1191 6.96191L50.2001 6.79524L50.2334 7.62858L48.6858 7.69048L48.7906 10.2429L47.8096 10.281L47.7049 7.72858L46.1525 7.79048L46.1191 6.95715V6.96191Z" fill="white"/>
<path d="M51.3903 8.49525C51.4855 7.3762 52.3141 6.78096 53.7379 6.90477C55.1569 7.02858 55.876 7.75715 55.7807 8.87144C55.6855 9.99049 54.8522 10.5952 53.4331 10.4714C52.0093 10.3476 51.295 9.61906 51.3903 8.49525ZM54.7569 8.78572C54.8093 8.20001 54.5045 7.80953 53.6664 7.73811C52.8331 7.66668 52.4665 7.99049 52.4188 8.58572C52.3665 9.18096 52.676 9.57144 53.5045 9.64287C54.3379 9.7143 54.7093 9.38096 54.7617 8.79049L54.7569 8.78572Z" fill="white"/>
<path d="M61.6239 8.36667L59.6334 9.38095L60.881 11.6762L59.6763 11.4048L58.8096 9.80476L57.862 10.2857L57.7096 10.9571L56.7524 10.7381L57.5001 7.42857L58.462 7.64286L58.1286 9.12857L60.1953 8.0381L61.6334 8.36191L61.6239 8.36667Z" fill="white"/>
<path d="M66.3286 9.99524L66.0667 10.7191L63.6858 9.85715L63.5 10.3667L65.7905 11.1952L65.5286 11.9191L63.2381 11.0905L63.0524 11.6L65.4334 12.4619L65.1715 13.1857L61.8667 11.9905L63.0191 8.8L66.3238 9.99524H66.3286Z" fill="white"/>
<path d="M69.7621 14.3524L70.8764 12.1905L71.7478 12.6381L70.1907 15.6524L68.9097 14.9905L68.2478 11.9095L67.1335 14.0714L66.2573 13.6191L67.8145 10.6048L69.1002 11.2667L69.7621 14.3476V14.3524Z" fill="white"/>
<path d="M27.395 85.4762C27.2474 85.719 27.395 86.0238 28.1569 86.4857C28.8569 86.9048 29.095 86.9 29.2045 86.719C29.3331 86.5095 29.2236 86.3905 28.395 85.8143C27.2665 85.0238 26.8903 84.4762 27.276 83.8333C27.6426 83.2286 28.4617 83.3476 29.4665 83.9524C30.5855 84.6238 31.0236 85.3524 30.6617 86.0143L29.7807 85.4857C29.9331 85.2286 29.7141 84.9619 29.0617 84.5714C28.4426 84.2 28.2426 84.219 28.1474 84.3762C28.0379 84.5571 28.1474 84.6952 28.895 85.2333C29.9141 85.9571 30.5617 86.4476 30.1045 87.2095C29.6569 87.9524 28.8379 87.7571 27.8045 87.1333C26.6284 86.4238 26.0903 85.7381 26.5093 84.9476L27.3903 85.4809L27.395 85.4762Z" fill="white"/>
<path d="M31.5236 87.1905C31.9712 86.1571 32.9426 85.8619 34.2569 86.4286C35.5664 86.9952 36.014 87.9143 35.5712 88.9429C35.1236 89.9762 34.1426 90.281 32.8331 89.7143C31.5188 89.1476 31.0759 88.2286 31.5236 87.1905ZM34.6283 88.5381C34.8616 87.9952 34.695 87.5333 33.9236 87.1952C33.1569 86.8619 32.7045 87.0571 32.4712 87.6C32.2331 88.1476 32.4045 88.6143 33.1664 88.9476C33.9331 89.281 34.395 89.081 34.6283 88.5333V88.5381Z" fill="white"/>
<path d="M39.3044 88.219C40.5091 88.5571 41.0425 89.2619 40.9044 90.1286L39.8996 89.8476C39.9187 89.5286 39.6853 89.1905 39.0806 89.0238C38.3806 88.8286 37.9472 89.0762 37.7901 89.6476C37.6282 90.2238 37.8758 90.6667 38.571 90.8619C39.1758 91.0286 39.552 90.8619 39.6996 90.5714L40.7044 90.8524C40.371 91.6714 39.5472 92 38.3425 91.6667C37.0329 91.3 36.4853 90.4905 36.7948 89.3714C37.1091 88.2571 37.9948 87.8524 39.3044 88.219Z" fill="white"/>
<path d="M43.3948 89.2286L42.7948 92.5619L41.8281 92.3857L42.4281 89.0524L43.3948 89.2286Z" fill="white"/>
<path d="M44.419 91.1476C44.5095 90.0286 45.3333 89.4333 46.7571 89.5476C48.1762 89.6619 48.9 90.3905 48.8047 91.5048C48.7143 92.6238 47.8857 93.2286 46.4666 93.1143C45.0428 93 44.3238 92.2714 44.419 91.1476ZM47.7857 91.4238C47.8333 90.8381 47.5285 90.4524 46.6905 90.381C45.8571 90.3143 45.4952 90.6429 45.4428 91.2333C45.3952 91.8286 45.7047 92.2143 46.5333 92.2857C47.3666 92.3524 47.7381 92.019 47.7857 91.4238Z" fill="white"/>
<path d="M51.1188 92.0476C51.1331 92.3333 51.4235 92.5048 52.314 92.4571C53.1283 92.4143 53.3235 92.2762 53.3093 92.0619C53.295 91.8143 53.1426 91.781 52.1331 91.7667C50.7569 91.7429 50.1331 91.5 50.095 90.7476C50.0569 90.0429 50.8045 89.681 51.9759 89.6238C53.2807 89.5571 54.0521 89.9095 54.1188 90.6619L53.095 90.7143C53.0807 90.4143 52.7474 90.3191 51.9854 90.3571C51.2664 90.3952 51.1093 90.5238 51.1188 90.7048C51.1283 90.9143 51.295 90.9714 52.2188 91C53.4664 91.0286 54.2807 91.0714 54.3283 91.9619C54.3712 92.8286 53.5854 93.1238 52.3807 93.1857C51.0093 93.2571 50.1759 92.9857 50.0854 92.0952L51.114 92.0429L51.1188 92.0476Z" fill="white"/>
<path d="M55.7426 92.0429L56.6806 91.9048L56.7854 92.6333L55.8473 92.7714L55.7378 92.0429H55.7426Z" fill="white"/>
<path d="M59.4808 88.5381C60.6951 88.2429 61.5094 88.5952 61.8141 89.419L60.7999 89.6667C60.6618 89.3762 60.2903 89.2 59.6808 89.3476C58.9761 89.5191 58.7189 89.9476 58.857 90.5286C58.9999 91.1095 59.4332 91.3762 60.1332 91.2048C60.7427 91.0571 60.9903 90.7238 60.9761 90.3952L61.9903 90.1476C62.0999 91.0238 61.5427 91.719 60.3284 92.0143C59.0046 92.3381 58.1284 91.9 57.8522 90.7714C57.576 89.6476 58.1522 88.8619 59.4761 88.5381H59.4808Z" fill="white"/>
<path d="M63.1522 89.3905C62.7379 88.3429 63.2189 87.4429 64.5474 86.919C65.8712 86.3952 66.8427 86.7286 67.2522 87.7714C67.6665 88.8191 67.1855 89.7286 65.8617 90.2524C64.5331 90.7762 63.5665 90.4429 63.1522 89.3905ZM66.2998 88.1476C66.0855 87.6 65.6379 87.3857 64.857 87.6952C64.0808 88 63.8951 88.4571 64.1141 89.0095C64.3331 89.5667 64.7855 89.7762 65.557 89.4714C66.3331 89.1667 66.5189 88.7 66.2998 88.1476Z" fill="white"/>
<path d="M69.3381 88.6905L67.6333 85.7571L68.9571 84.9857L71.1095 86.3381L70.9952 83.8L72.319 83.0286L74.0238 85.9619L73.1762 86.4524L71.9428 84.3286L72.0762 87.0952L71.2904 87.5524L68.9524 86.0714L70.1904 88.1952L69.3381 88.6905Z" fill="white"/>
<path d="M23.019 81.8381C13.9952 74.181 8.2666 62.7571 8.2666 50C8.2666 37.2429 14.2999 25.2143 23.738 17.5619" stroke="#ED5E27" stroke-width="2.22" stroke-miterlimit="10"/>
<path d="M76.2666 17.5667C85.7047 25.219 91.7333 36.9048 91.7333 50C91.7333 63.0952 86.0047 74.1857 76.9809 81.8429" stroke="#ED5E27" stroke-width="2.22" stroke-miterlimit="10"/>
</g>
<defs>
<linearGradient id="paint0_linear_1124_13112" x1="86.0001" y1="71.6358" x2="34.5882" y2="29.4055" gradientUnits="userSpaceOnUse">
<stop offset="0.19" stop-color="#025D8E"/>
<stop offset="0.5" stop-color="#2FADE3"/>
<stop offset="1" stop-color="#13416D"/>
</linearGradient>
<linearGradient id="paint1_linear_1124_13112" x1="34.6605" y1="38.6172" x2="43.3662" y2="38.6172" gradientUnits="userSpaceOnUse">
<stop stop-color="#236698"/>
<stop offset="0.5" stop-color="#2FADE3"/>
<stop offset="1" stop-color="#236698"/>
</linearGradient>
<linearGradient id="paint2_linear_1124_13112" x1="46.5881" y1="38.781" x2="51.8381" y2="38.781" gradientUnits="userSpaceOnUse">
<stop stop-color="#236698"/>
<stop offset="0.5" stop-color="#2FADE3"/>
<stop offset="1" stop-color="#236698"/>
</linearGradient>
<linearGradient id="paint3_linear_1124_13112" x1="48.7415" y1="45.5813" x2="51.2284" y2="45.5813" gradientUnits="userSpaceOnUse">
<stop stop-color="#236698"/>
<stop offset="0.5" stop-color="#2FADE3"/>
<stop offset="1" stop-color="#236698"/>
</linearGradient>
<linearGradient id="paint4_linear_1124_13112" x1="56.6853" y1="57.0103" x2="40.0377" y2="46.9718" gradientUnits="userSpaceOnUse">
<stop stop-color="#236698"/>
<stop offset="0.5" stop-color="#2FADE3"/>
<stop offset="1" stop-color="#236698"/>
</linearGradient>
<linearGradient id="paint5_linear_1124_13112" x1="67.2259" y1="41.4559" x2="60.2489" y2="48.5558" gradientUnits="userSpaceOnUse">
<stop stop-color="#236698"/>
<stop offset="0.5" stop-color="#2FADE3"/>
<stop offset="1" stop-color="#236698"/>
</linearGradient>
<linearGradient id="paint6_linear_1124_13112" x1="47.218" y1="63.1013" x2="53.8143" y2="63.1013" gradientUnits="userSpaceOnUse">
<stop stop-color="#236698"/>
<stop offset="0.5" stop-color="#2FADE3"/>
<stop offset="1" stop-color="#236698"/>
</linearGradient>
<linearGradient id="paint7_linear_1124_13112" x1="42.5559" y1="60.1863" x2="51.4278" y2="53.6883" gradientUnits="userSpaceOnUse">
<stop stop-color="#236698"/>
<stop offset="0.5" stop-color="#2FADE3"/>
<stop offset="1" stop-color="#236698"/>
</linearGradient>
<linearGradient id="paint8_linear_1124_13112" x1="27.9286" y1="53.6074" x2="33.3765" y2="45.2217" gradientUnits="userSpaceOnUse">
<stop stop-color="#236698"/>
<stop offset="0.5" stop-color="#2FADE3"/>
<stop offset="1" stop-color="#236698"/>
</linearGradient>
<linearGradient id="paint9_linear_1124_13112" x1="35.1491" y1="66.4798" x2="44.1045" y2="66.4798" gradientUnits="userSpaceOnUse">
<stop stop-color="#236698"/>
<stop offset="0.5" stop-color="#2FADE3"/>
<stop offset="1" stop-color="#236698"/>
</linearGradient>
<linearGradient id="paint10_linear_1124_13112" x1="73.2037" y1="62.4587" x2="66.7161" y2="55.4821" gradientUnits="userSpaceOnUse">
<stop stop-color="#236698"/>
<stop offset="0.5" stop-color="#2FADE3"/>
<stop offset="1" stop-color="#236698"/>
</linearGradient>
<clipPath id="clip0_1124_13112">
<rect width="100" height="100" fill="white"/>
</clipPath>
</defs>
</svg>
