<svg width="100" height="100" viewBox="0 0 100 100" fill="none" xmlns="http://www.w3.org/2000/svg">
<g clip-path="url(#clip0_1124_18259)">
<path d="M50 100C77.6142 100 100 77.6142 100 50C100 22.3858 77.6142 0 50 0C22.3858 0 0 22.3858 0 50C0 77.6142 22.3858 100 50 100Z" fill="#0A496B"/>
<path d="M50 100C77.6142 100 100 77.6142 100 50C100 22.3858 77.6142 0 50 0C22.3858 0 0 22.3858 0 50C0 77.6142 22.3858 100 50 100Z" fill="#0A496B"/>
<path d="M78.8801 50C78.8801 71.02 65.9535 88.0467 50.0001 88.0467C34.0468 88.0467 21.1201 71.02 21.1201 50C21.1201 28.98 34.0601 11.9533 50.0001 11.9533C65.9401 11.9533 78.8801 28.9933 78.8801 50Z" fill="#0086C5"/>
<path d="M77.7802 50C77.7802 70.4067 65.3402 86.96 50.0002 86.96C34.6602 86.96 22.2202 70.4067 22.2202 50C22.2202 29.5933 34.6602 13.0533 50.0002 13.0533C65.3402 13.0533 77.7802 29.5933 77.7802 50Z" fill="white"/>
<path d="M72.4466 50C72.4466 66.52 62.3932 79.9 49.9999 79.9C37.6066 79.9 27.5532 66.52 27.5532 50C27.5532 33.48 37.6066 20.1 49.9999 20.1C62.3932 20.1 72.4466 33.48 72.4466 50Z" fill="#0086C5"/>
<path d="M46.747 32.78L50.0003 31.0667L53.2603 32.78L52.6403 29.1533L55.267 26.58L51.627 26.0467L50.0003 22.7467L48.367 26.0467L44.727 26.58L47.367 29.1533L46.747 32.78ZM61.6737 34.6133C61.6737 34.6133 58.6803 36.14 56.347 36.14C54.0137 36.14 50.3537 35.04 50.3537 35.04H49.547C49.547 35.04 46.7003 36.0733 44.1537 36.0733C41.607 36.0733 38.307 34.68 38.307 34.68C38.307 34.68 33.5137 39.5733 33.5137 50.4733C33.5137 72.86 50.207 77.2467 50.207 77.2467C50.207 77.2467 66.487 72.4333 66.487 50.2333C66.487 40.8133 61.6737 34.6133 61.6737 34.6133Z" fill="#C39C57"/>
<path d="M39.3403 37.4333C39.3403 37.4333 35.8403 42.78 35.8403 49.0133C35.8403 72.48 50.0603 74.72 50.0603 74.72C50.0603 74.72 64.167 72.4733 64.167 49.0133C64.167 43.0733 60.8603 37.6267 60.8603 37.6267C60.8603 37.6267 58.527 38.3067 56.387 38.3067C54.247 38.3067 50.067 37.14 50.067 37.14C50.067 37.14 47.0403 38.4067 44.1203 38.4067C41.2003 38.4067 39.3403 37.4333 39.3403 37.4333Z" fill="#EA1D25"/>
<path d="M64.0869 52.04H52.8802V37.82C51.3536 37.5 50.0602 37.14 50.0602 37.14C49.1736 37.4933 48.2602 37.78 47.3269 37.9867V52.04H35.9136C36.0202 53.9 36.2469 55.7467 36.5802 57.58H47.3202V73.7733C48.9269 74.5467 50.0536 74.7267 50.0536 74.7267C50.0536 74.7267 51.2069 74.5333 52.8736 73.72V57.5867H63.4202C63.7669 55.7467 63.9869 53.9 64.0869 52.04Z" fill="white"/>
<path d="M32.7866 21.5467L34.0866 20.4933L36.9733 21.6133H36.9866L35.2933 19.5333L36.4933 18.56L39.6666 22.46L38.4333 23.46L35.44 22.3467H35.4266L37.1466 24.48L35.96 25.4533L32.7866 21.5467Z" fill="#0086C5"/>
<path d="M40.7669 16.3467C42.2402 15.6867 43.6669 16.2467 44.3002 17.64C44.9336 19.0333 44.4002 20.4867 42.9402 21.14C41.4802 21.8 40.0402 21.24 39.4069 19.8467C38.7736 18.4533 39.3069 17.0067 40.7669 16.3467ZM42.4202 19.9933C42.8069 19.8267 43.2669 19.3267 42.8136 18.3067C42.3602 17.2867 41.6602 17.32 41.2869 17.4933C40.9136 17.66 40.4402 18.16 40.8936 19.18C41.3469 20.2 42.0469 20.1667 42.4202 19.9933Z" fill="#0086C5"/>
<path d="M48.5934 19.6467L46.7801 19.8133L44.7334 14.9733L46.3734 14.8133L47.5267 17.76H47.5401L48.0934 14.6467L49.7734 14.4867L48.5934 19.6467Z" fill="#0086C5"/>
<path d="M52.8868 14.7467L54.4601 14.9533L55.7068 20.1867L54.0268 19.96L53.9001 19.2267L52.2334 19L51.8934 19.68L50.2734 19.4667L52.8868 14.7467ZM53.7268 18.1133L53.4668 16.5133H53.4468L52.7334 17.98L53.7268 18.1133Z" fill="#0086C5"/>
<path d="M58.5067 15.9933L61.32 17.32C62.16 17.7133 62.6667 18.5 62.26 19.36C62.0333 19.8267 61.5667 20.2067 61 20.1533C61.3267 20.4933 61.3733 21.0267 61.16 21.6133C61.08 21.8533 60.8333 22.3933 60.8667 22.6667L59.3933 21.9667C59.4333 21.7067 59.5 21.4533 59.6 21.2067C59.7667 20.7533 59.94 20.2867 59.36 20.02L58.58 19.6467L57.82 21.22L56.3467 20.52L58.5067 15.9933ZM59.04 18.6733L59.8133 19.0333C60.0867 19.1667 60.48 19.3067 60.6733 18.9C60.8667 18.4933 60.72 18.3667 60.1667 18.0933L59.4733 17.7733L59.04 18.6733Z" fill="#0086C5"/>
<path d="M66.0333 20.62L67.26 21.64L65.5267 26.7267L64.2267 25.64L64.52 24.9467L63.22 23.8733L62.5867 24.2667L61.3267 23.2267L66.0333 20.62ZM64.9467 23.9133L65.58 22.42H65.5667L64.1733 23.2667L64.9467 23.9133Z" fill="#0086C5"/>
<path d="M40.9135 80.7067C40.9801 80.5467 41.1401 80.04 40.6201 79.7067C40.1001 79.3733 39.4735 79.76 39.1468 80.2867C38.8201 80.8067 38.6601 81.4867 39.2601 81.86C39.6935 82.1333 40.0335 81.9533 40.3468 81.6333L41.5935 82.4267C41.0935 83.22 39.8801 83.6267 38.6668 82.8667C37.4535 82.1067 37.1401 80.6467 37.8601 79.48C38.5868 78.3133 39.9801 77.94 41.2601 78.7467C42.5401 79.5533 42.6668 80.4333 42.1535 81.4867L40.9135 80.7067Z" fill="#0086C5"/>
<path d="M44.4469 80.3L45.8535 80.74L46.1935 85.7L44.7002 85.2467V84.5467L43.2135 84.0933L42.8068 84.66L41.3535 84.22L44.4469 80.3ZM44.7002 83.5067V82.0133H44.6802L43.8068 83.24L44.7002 83.5067Z" fill="#0086C5"/>
<path d="M47.2666 81.16H48.7732L48.7532 84.6133H50.9266V85.8H47.2466L47.2666 81.16Z" fill="#0086C5"/>
<path d="M54.3266 82.5C54.2599 82.34 54.0066 81.88 53.4066 82.0133C52.8066 82.1467 52.6333 82.8533 52.7866 83.4667C52.9399 84.08 53.2866 84.6667 53.9733 84.5067C54.4733 84.3933 54.5866 84.02 54.5733 83.5667L56.0266 83.24C56.2333 84.16 55.6733 85.3 54.2733 85.6333C52.8666 85.96 51.6199 85.1467 51.3133 83.8067C51.0066 82.4667 51.7199 81.2133 53.1799 80.8733C54.6399 80.5333 55.3666 81.08 55.7533 82.1733L54.3266 82.5Z" fill="#0086C5"/>
<path d="M60.5136 77.8267C61.8403 77.1467 63.187 77.6 63.847 78.86C64.507 80.12 64.0736 81.4867 62.747 82.1667C61.4203 82.8467 60.0736 82.3933 59.427 81.1267C58.7803 79.8533 59.2003 78.5067 60.5136 77.8267ZM62.2136 81.14C62.5536 80.96 62.9736 80.48 62.4936 79.5533C62.0203 78.6267 61.3803 78.6933 61.0403 78.86C60.7003 79.0267 60.2803 79.52 60.7603 80.4467C61.2403 81.3733 61.8736 81.3067 62.2136 81.14Z" fill="#0086C5"/>
<path d="M59.6002 82.6867L59.0735 82.9133L58.0202 80.4333L58.4402 80.2533L58.0535 79.3333L55.7202 80.3333L56.1069 81.24L56.6269 81.0267L57.6802 83.5067L57.2602 83.6867L57.6469 84.5933L59.9802 83.6067L59.6002 82.6867Z" fill="#0086C5"/>
<path d="M24.9801 48.9667H24.2534V48.1867C24.7068 48.2 25.1468 47.9933 25.1734 47.3733H25.9001V51.1267H24.9801V48.9667Z" fill="#0086C5"/>
<path d="M25.1735 57.4133C25.2068 57.4933 25.2601 57.5533 25.3335 57.5933C25.4001 57.62 25.4735 57.6267 25.5468 57.6133C25.9401 57.5467 26.0135 57.0933 26.0335 56.7733H26.0201C25.8535 56.9867 25.6135 57.1267 25.3535 57.1667C24.7668 57.26 24.2801 56.9067 24.2068 56.1467C24.1401 55.3867 24.6735 54.66 25.3601 54.5467C26.2668 54.4133 26.7335 55.1933 26.8201 56.12C26.9335 57.3 26.5468 58.2267 25.6201 58.3733C25.0401 58.4667 24.5335 58.2467 24.3601 57.5267L25.1735 57.4133ZM25.0135 55.9933C25.0268 56.2467 25.2401 56.4333 25.4868 56.4267C25.4935 56.4267 25.4935 56.4267 25.5001 56.4267C25.7401 56.3933 25.9201 56.1667 25.8935 55.86C25.8735 55.5533 25.6535 55.3733 25.4201 55.4067C25.1601 55.4733 24.9868 55.72 25.0135 55.9933Z" fill="#0086C5"/>
<path d="M26.6334 60.58C27.1867 60.4467 27.9934 60.74 28.2001 62.1667C28.4067 63.5933 27.7267 64.22 27.1801 64.3533C26.6334 64.4867 25.8201 64.1867 25.6134 62.7667C25.4134 61.3533 26.0934 60.7067 26.6334 60.58ZM27.0534 63.54C27.4934 63.44 27.4267 62.7467 27.3734 62.36C27.3201 61.9733 27.2067 61.2867 26.7601 61.3867C26.3201 61.4867 26.3867 62.1667 26.4401 62.5733C26.5001 62.9867 26.6134 63.64 27.0534 63.54Z" fill="#0086C5"/>
<path d="M28.4066 66.3933C29.1799 65.96 29.6999 66.2 29.8666 66.7C29.9933 67.0333 29.9199 67.4067 29.6733 67.66C29.9999 67.5267 30.3399 67.68 30.4866 68.1C30.7666 68.9133 30.1666 69.5733 29.5999 69.8933C29.0333 70.2133 28.2533 70.3467 27.9666 69.5067C27.7599 68.92 28.0933 68.6 28.2733 68.44C27.9333 68.5067 27.7199 68.34 27.5799 67.9667C27.3399 67.2133 27.9266 66.6533 28.4066 66.3933ZM28.8799 67.8C29.0733 67.6867 29.2733 67.48 29.1733 67.2C29.0733 66.92 28.8333 66.9267 28.6199 67.0533C28.4066 67.18 28.2466 67.3467 28.3466 67.6667C28.4466 67.9867 28.6733 67.9 28.8799 67.8ZM29.3533 69.1933C29.5599 69.08 29.7866 68.8533 29.6799 68.56C29.5799 68.2667 29.3266 68.2333 29.0799 68.3667C28.8333 68.5 28.6599 68.72 28.7733 69.0667C28.8933 69.42 29.1533 69.3067 29.3533 69.1933Z" fill="#0086C5"/>
<path d="M74.5869 48.9667H73.8735V48.1867C74.3135 48.2 74.7602 47.9933 74.7935 47.3733H75.5202V51.1267H74.5935V48.9667H74.5869Z" fill="#0086C5"/>
<path d="M73.9733 56.6067C73.9867 56.6867 74.0333 56.76 74.1 56.8133C74.16 56.86 74.2333 56.88 74.3067 56.88C74.7 56.9 74.86 56.46 74.94 56.1667C74.7467 56.3467 74.48 56.44 74.2133 56.4133C73.6 56.38 73.2067 55.9467 73.2933 55.18C73.3867 54.4067 74.0533 53.8333 74.7533 53.8667C75.66 53.9133 75.9533 54.7733 75.8533 55.7C75.72 56.88 75.16 57.7067 74.2133 57.66C73.6467 57.6267 73.18 57.3067 73.1733 56.5733L73.9733 56.6067ZM74.1133 55.18C74.0667 55.4267 74.2333 55.66 74.48 55.7067C74.4933 55.7067 74.5 55.7133 74.5133 55.7133C74.78 55.7133 75 55.5067 75.0133 55.24C75.0467 54.9467 74.88 54.7067 74.64 54.6933C74.36 54.6933 74.1333 54.9067 74.1133 55.18Z" fill="#0086C5"/>
<path d="M73.8534 60.0867C74.42 60.1533 75.0867 60.6867 74.8067 62.1067C74.5267 63.52 73.6734 63.8867 73.12 63.8267C72.5667 63.7733 71.8867 63.2267 72.1667 61.8067C72.4467 60.3933 73.2934 60.0267 73.8534 60.0867ZM73.26 63.02C73.7134 63.0733 73.8734 62.4 73.9534 62.0133C74.0334 61.6267 74.1467 60.9467 73.7067 60.8933C73.2667 60.84 73.0933 61.5133 73.0133 61.9133C72.9333 62.3067 72.82 62.9733 73.26 63.02Z" fill="#0086C5"/>
<path d="M72.5401 66.2267C73.3801 66.5067 73.5468 67.0533 73.3001 67.52C73.1401 67.84 72.8068 68.0333 72.4534 68.02H72.4401C72.7668 68.1667 72.8801 68.5267 72.6668 68.9267C72.2468 69.6733 71.3668 69.6733 70.7401 69.46C70.1201 69.2467 69.5068 68.7667 69.9334 68C70.2268 67.4533 70.6801 67.48 70.9334 67.5133C70.6601 67.3067 70.6401 67.0267 70.8334 66.6867C71.2134 65.9867 72.0268 66.0533 72.5401 66.2267ZM71.1001 68.8067C71.3134 68.8867 71.6334 68.9 71.7934 68.6267C71.9534 68.3533 71.7934 68.14 71.5334 68.06C71.2734 67.98 70.9868 67.98 70.8068 68.3C70.6201 68.6133 70.8801 68.74 71.1001 68.8067ZM71.8134 67.52C72.0268 67.5867 72.3134 67.6133 72.4601 67.34C72.6068 67.0667 72.4268 66.9067 72.2001 66.8333C71.9734 66.7533 71.7268 66.7533 71.5668 67.0467C71.4068 67.3333 71.5934 67.4467 71.8134 67.52Z" fill="#0086C5"/>
</g>
<defs>
<clipPath id="clip0_1124_18259">
<rect width="100" height="100" fill="white"/>
</clipPath>
</defs>
</svg>
