<svg width="50" height="50" viewBox="0 0 50 50" fill="none" xmlns="http://www.w3.org/2000/svg">
<rect width="50" height="50" fill="#0E0200"/>
<path fill-rule="evenodd" clip-rule="evenodd" d="M19.0666 35.1804C20.8624 36.1949 22.9137 36.7313 25 36.7313L24.9989 36.7292C31.5413 36.7292 36.8633 31.5305 36.8633 25.1421C36.8633 21.0195 34.5912 17.1742 30.9333 15.107C30.5428 14.8871 30.0446 15.0167 29.8183 15.3981C29.5933 15.7794 29.7259 16.267 30.1164 16.4869C33.2729 18.2704 35.2329 21.5868 35.2329 25.1432C35.2329 30.6541 30.6417 35.1368 25 35.1368C23.2009 35.1368 21.4312 34.6748 19.8835 33.8005C19.4941 33.5806 18.9948 33.7103 18.7685 34.0916C18.5435 34.473 18.6772 34.9595 19.0666 35.1804ZM24.9999 42.7778C15.0443 42.7778 6.94434 34.8672 6.94434 25.1444C6.94434 24.7047 7.3098 24.3477 7.7601 24.3477C8.2104 24.3477 8.57587 24.7047 8.57587 25.1444C8.57587 33.9887 15.9438 41.1845 24.9999 41.1845C34.056 41.1845 41.4239 33.9887 41.4239 25.1444C41.4239 24.7047 41.7894 24.3477 42.2397 24.3477C42.69 24.3477 43.0554 24.7047 43.0554 25.1444C43.0554 34.8672 34.9555 42.7778 24.9999 42.7778ZM24.9997 39.7546C22.3686 39.7546 19.781 39.078 17.5165 37.798C15.3204 36.5562 13.4692 34.777 12.1629 32.6513C11.9312 32.2743 12.0563 31.7845 12.4424 31.5583C12.8285 31.332 13.3299 31.4542 13.5616 31.8313C14.7254 33.7264 16.3755 35.3123 18.3333 36.4192C20.3499 37.559 22.6547 38.1613 24.9987 38.1613C32.3481 38.1613 38.3272 32.3221 38.3272 25.1444C38.3272 24.7047 38.6926 24.3477 39.1429 24.3477C39.5932 24.3477 39.9586 24.7047 39.9586 25.1444C39.9586 33.2006 33.2476 39.7546 24.9987 39.7546H24.9997ZM24.9999 33.7073C24.5495 33.7073 24.1841 33.3503 24.1841 32.9106C24.1841 32.4708 24.5495 32.1139 24.9999 32.1139C28.9351 32.1139 32.1361 28.9877 32.1361 25.1444C32.1361 24.7047 32.5016 24.3477 32.9519 24.3477C33.4022 24.3477 33.7677 24.7047 33.7677 25.1444C33.7677 29.8662 29.8346 33.7073 24.9999 33.7073ZM26.7228 29.6515C26.8741 29.9075 27.1481 30.0499 27.4299 30.0499C27.5691 30.0499 27.7094 30.0149 27.8378 29.9426C29.5868 28.9537 30.6733 27.1159 30.6733 25.1444C30.6733 24.7047 30.3079 24.3477 29.8575 24.3477C29.4073 24.3477 29.0419 24.7047 29.0419 25.1444C29.0419 26.5487 28.2674 27.8584 27.0209 28.5628C26.6304 28.7837 26.4966 29.2713 26.7228 29.6515Z" fill="#FF1D00"/>
</svg>
