<svg xmlns="http://www.w3.org/2000/svg" id="Layer_2" viewBox="0 0 210 210"><g id="Layer_1-2"><g><g><path d="M196.85,66.2c-5.02-11.87-12.21-22.53-21.36-31.69-9.16-9.16-19.82-16.34-31.69-21.36-12.29-5.2-25.34-7.83-38.8-7.83s-26.51,2.63-38.8,7.83c-11.87,5.02-22.53,12.21-31.69,21.36-9.16,9.16-16.34,19.82-21.36,31.69-5.2,12.29-7.83,25.34-7.83,38.8s2.63,26.51,7.83,38.8c5.02,11.87,12.21,22.53,21.36,31.69,9.16,9.16,19.82,16.34,31.69,21.36,12.29,5.2,25.34,7.83,38.8,7.83s26.51-2.63,38.8-7.83c11.87-5.02,22.53-12.21,31.69-21.36,9.16-9.16,16.34-19.82,21.36-31.69,5.2-12.29,7.83-25.34,7.83-38.8s-2.63-26.51-7.83-38.8Z" fill="#fbda42"></path><path d="M202.72,66.5c-.63-1.59-1.29-3.16-1.99-4.71-1.4-3.1-2.95-6.12-4.64-9.05-.84-1.47-1.72-2.91-2.63-4.33-.91-1.42-1.85-2.82-2.83-4.19-.49-.69-.98-1.37-1.49-2.04-1.01-1.35-2.05-2.67-3.12-3.97-2.14-2.59-4.4-5.08-6.78-7.46-1.19-1.19-2.4-2.35-3.65-3.48-1.24-1.13-2.51-2.23-3.81-3.3-.65-.53-1.3-1.06-1.96-1.58-1.98-1.56-4.02-3.05-6.12-4.46-2.09-1.42-4.24-2.76-6.44-4.02-1.47-.84-2.95-1.65-4.46-2.42-.75-.39-1.51-.76-2.28-1.13-1.53-.74-3.08-1.44-4.65-2.1-.79-.33-1.58-.65-2.37-.97-1.59-.63-3.2-1.22-4.82-1.77s-3.27-1.06-4.93-1.53c-1.66-.47-3.34-.9-5.03-1.29-7.62-1.76-15.56-2.69-23.71-2.69s-16.09,.93-23.71,2.69c-1.69,.39-3.37,.82-5.03,1.29-1.66,.47-3.31,.98-4.93,1.53s-3.23,1.14-4.82,1.77c-.79,.31-1.58,.64-2.37,.97-1.57,.66-3.12,1.37-4.65,2.1-.77,.37-1.52,.75-2.28,1.13-1.51,.77-3,1.58-4.46,2.42-2.2,1.26-4.35,2.61-6.44,4.02-2.09,1.42-4.14,2.9-6.12,4.46-.66,.52-1.32,1.05-1.96,1.58-1.3,1.07-2.57,2.17-3.81,3.3-1.24,1.13-2.46,2.29-3.65,3.48-2.38,2.38-4.64,4.86-6.78,7.46-1.07,1.3-2.11,2.62-3.12,3.97-.5,.67-1,1.35-1.49,2.04-.98,1.37-1.92,2.77-2.83,4.19s-1.79,2.86-2.63,4.33c-1.69,2.93-3.23,5.95-4.64,9.05-.7,1.55-1.37,3.12-1.99,4.71C2.58,78.42,0,91.41,0,105c0,12.69,2.25,24.85,6.37,36.1,.88,2.41,1.85,4.78,2.9,7.11,1.4,3.1,2.95,6.12,4.64,9.05,.84,1.47,1.72,2.91,2.63,4.33s1.85,2.82,2.83,4.19c.49,.69,.98,1.37,1.49,2.04,1.01,1.35,2.05,2.67,3.12,3.97,1.6,1.94,3.28,3.83,5.02,5.65,3.48,3.65,7.21,7.04,11.18,10.16,1.98,1.56,4.02,3.05,6.12,4.46,2.09,1.42,4.24,2.76,6.44,4.02,3.66,2.11,7.47,4,11.39,5.66,12.56,5.31,26.37,8.25,40.87,8.25s28.31-2.94,40.87-8.25c3.93-1.66,7.73-3.55,11.39-5.66,2.2-1.26,4.35-2.61,6.44-4.02,2.09-1.42,4.14-2.9,6.12-4.46,3.97-3.12,7.7-6.51,11.18-10.16,1.74-1.82,3.41-3.71,5.02-5.65,1.07-1.3,2.11-2.62,3.12-3.97,.5-.67,1-1.35,1.49-2.04,.98-1.37,1.92-2.77,2.83-4.19,.91-1.42,1.79-2.86,2.63-4.33,1.69-2.93,3.23-5.95,4.64-9.05,1.05-2.33,2.02-4.7,2.9-7.11,4.12-11.26,6.37-23.42,6.37-36.1,0-13.59-2.58-26.58-7.28-38.5Zm-5.87,77.3c-5.02,11.87-12.21,22.53-21.36,31.69-9.16,9.16-19.82,16.34-31.69,21.36-12.29,5.2-25.34,7.83-38.8,7.83s-26.51-2.63-38.8-7.83c-11.87-5.02-22.53-12.21-31.69-21.36-9.16-9.16-16.34-19.82-21.36-31.69-5.2-12.29-7.83-25.34-7.83-38.8s2.63-26.51,7.83-38.8c5.02-11.87,12.21-22.53,21.36-31.69,9.16-9.16,19.82-16.34,31.69-21.36,12.29-5.2,25.34-7.83,38.8-7.83s26.51,2.63,38.8,7.83c11.87,5.02,22.53,12.21,31.69,21.36,9.16,9.16,16.34,19.82,21.36,31.69,5.2,12.29,7.83,25.34,7.83,38.8s-2.63,26.51-7.83,38.8Z" fill="#ea0029"></path></g><g><g><path d="M75.57,138.52l.1,.13-.1-.13Z" fill="none"></path><path d="M81.59,144.98h.02s-.02,0-.02,0Z" fill="none"></path><path d="M76.94,140.2s.06,.07,.09,.11c-.03-.04-.06-.07-.09-.11Z" fill="none"></path><path d="M79.95,143.42l.05,.05-.05-.05Z" fill="none"></path><path d="M106.1,160.47l.1-.06-.1,.06Z" fill="#de2826"></path><path d="M60.64,71.85c.23,.11,.47-.09,.6-.26,.14-.17,.23-.39,.23-.61v-1.58c0-.6-.49-.47-.49-.47-.31,.09-.54,.37-.56,.7v1.87c0,.15,.08,.29,.21,.35Z" fill="#e0222e"></path><path d="M75.67,138.65c.41,.52,.84,1.04,1.27,1.55-.44-.51-.86-1.03-1.27-1.55Z" fill="#e0222e"></path><path d="M80.01,143.48c.52,.51,1.04,1.01,1.58,1.5-.54-.5-1.07-1-1.58-1.5Z" fill="#e0222e"></path><path d="M103.9,160.47l-.17-.1-.31-.18,.48,.28h0Z" fill="#e0222e"></path><path d="M106.1,160.47l.1-.06h0l-.1,.06Z" fill="#e0222e"></path><path d="M154.27,67.98c-.09-.16-.17-.33-.23-.51-.08-.16-.18-.32-.27-.48-.19-.31-.41-.6-.64-.88-.73-.85-1.61-1.56-2.59-2.1-1.13-.64-2.34-1.1-3.61-1.38-.75-.17-1.51-.22-2.23-.47-.26-.09-.51-.21-.76-.34-.38-.2-.73-.46-1.03-.76-.11-.11-.21-.25-.29-.39-.02-.03-.03-.07-.04-.1h0c-.02-.11-.06-.22-.11-.32-.09-.13-.21-.23-.35-.28-.09-.03-.18-.05-.27-.05H68.15c-.25,0-.49,.12-.62,.33-.05,.1-.09,.2-.11,.32h0s-.03,.06-.04,.1c-.08,.14-.18,.27-.29,.39-.3,.3-.65,.56-1.03,.76-.24,.13-.49,.24-.75,.33-.72,.26-1.49,.31-2.23,.47-1.26,.28-2.48,.74-3.61,1.38-.98,.54-1.86,1.25-2.59,2.1-.23,.28-.45,.57-.64,.88-.1,.16-.19,.32-.27,.48-.06,.18-.14,.35-.23,.51,0,0-8.6,1.06-9.44,3.55v15.39s1.96,.8,7.06,.27c1.81-.22,3.64-.34,5.46-.37,0,0,2.54-.16,3.71-1.69h0s1.14,0,2.27,1.07c.7,.66,1.54,1.45,2.07,1.97v25.45l.04,1.89c.29,7.28,2.29,13.34,5.55,18.6,.68,1.09,1.42,2.16,2.2,3.2,.3,.41,.6,.81,.92,1.21l.1,.13c.41,.52,.84,1.04,1.27,1.55,.03,.04,.06,.07,.09,.11,.44,.52,.9,1.03,1.37,1.53l.08,.08c.48,.51,.97,1.01,1.47,1.51l.05,.05c.52,.51,1.04,1.01,1.58,1.5h.02c6.07,5.57,13.62,10.35,21.82,15.21l.31,.18,.17,.1h0l-.48-.28-.93-.56,1.31,.78,.11,.06h0l.75,.45,.17,.1c.05,.03,.11,.05,.17,.05,.06,0,.12-.02,.17-.05l.17-.1,.76-.44h0l.1-.06h0c8.48-5.02,16.29-9.95,22.5-15.71,7.45-6.54,12.65-14.19,13.95-24.58,.23-1.53,.37-3.07,.43-4.62l.04-1.89v-25.46c.54-.51,1.38-1.31,2.08-1.98,1.14-1.07,2.27-1.07,2.27-1.07h0c1.17,1.54,3.71,1.7,3.71,1.7,1.83,.03,3.65,.16,5.47,.37,5.09,.53,7.06-.27,7.06-.27v-15.39c-.85-2.49-9.45-3.55-9.45-3.55Zm-95.5,1.17c.43-.82,1.18-1.48,2.23-1.96,1.74-.8,2.6-.09,2.58,2.13l-.03,2.48c-.01,1.21-.15,2.16-.42,2.84-.34,.96-1.07,1.74-2,2.16-.91,.42-1.61,.56-1.97,.31-.74-.54-.63-1.21-.65-2.1l2.04-.87c.01,.57,0,1.25,.42,1.05,.33-.15,.42-.32,.51-.77,.03-.34,.05-.69,.04-1.03v-.63c-.32,.46-.75,.84-1.26,1.1-1.33,.61-1.99-.03-1.97-1.92,.01-1.16,.08-2.08,.46-2.78h0Zm-9.95,5.93c.54,0,1.43-1.04,1.65-1.98l1.63-.65,.06,9.38-2.09,.99-.11-6.81-1.15,.71v-1.65Zm11.02,9.29c-.13,.18-.31,.33-.52,.41-.05,.03-.23,.09-.3,.11-.28,.09-.58,.16-.88,.19-.47,.05-.93,.07-1.4,.06-2.86-.03-6.91,.44-6.91,.44,.07-.56,.23-.9,1.09-1.03,1.9-.3,5.48-.39,5.48-.39,.22-.01,.45-.01,.67-.04,.23-.02,.44-.12,.59-.3,.23-.36-.19-.64-.44-.78s-.56-.25-.82-.42c-.6-.4-1.21-.79-1.5-1.48-.15-.42-.21-.86-.18-1.3v-9.81h0c.23-.43,.58-.79,1.01-1.03h0v10.56c.04,.79,.46,1.51,1.13,1.93,.4,.21,.83,.37,1.27,.45,.47,.08,.91,.27,1.28,.56,.28,.22,.48,.53,.56,.88,.07,.34,.02,.69-.14,.99h0Zm81.81,14.48v14.77c0,2.18-.15,4.35-.47,6.51-2.28,18.34-16.75,28.14-34.23,38.37h-.01l-1.6,.93-.15,.09c-.1,.06-.23,.06-.34,0l-.17-.1c-19.98-11.77-36.32-22.87-36.32-45.83V62.22s0-.09,.02-.14c.02-.08,.05-.16,.09-.23,.08-.12,.2-.22,.34-.27,.08-.03,.17-.05,.26-.05h71.88c.09,0,.18,.02,.26,.05,.14,.05,.26,.15,.34,.27,.04,.07,.07,.15,.09,.23,.01,.05,.02,.09,.02,.14v36.62h0Zm7.89-29.74c-.11-.23-.32-.41-.56-.5-.44-.15-.43,.33-.43,1.18v.44l-1.95-.86v-.47c0-.9,.11-1.51,.56-1.81s1.1-.28,1.96,.07c.73,.27,1.36,.75,1.83,1.36,.44,.6,.53,1.42,.54,2.25,.02,.46-.07,.91-.25,1.32-.12,.42-1.21,1.18-1.21,1.18-.7,.43-1.06,.92-1.14,1.24l2.73,1.08v1.63l-5.15-2.2v-.3c0-1.24,.6-2.17,1.8-3.01l.87-.62c.37-.26,.55-.7,.55-1.31,0-.24-.04-.48-.15-.7h0Zm-.63,13.7c-.11,.2-.3,.34-.53,.39-.87,.18-3.12,1.06-5.07,2.7-.05,.04-.12,.03-.15-.01-.02-.02-.02-.04-.03-.07v-21.88h0v-1.07c.45,.27,.87,.6,1.24,.98v17.15l.09-.05h0c.55-.3,5.9-3.13,8.64-.87,0,0-1.76,.67-2.34,1.01-.76,.43-1.48,1-1.86,1.72h0Zm4.36,2.34c-.47,.01-.94,0-1.4-.06-.3-.03-.59-.09-.88-.19-.08-.03-.25-.09-.3-.11-.21-.08-.39-.22-.52-.41-.16-.3-.2-.65-.13-.98,.08-.35,.27-.66,.56-.88,.38-.28,.82-.47,1.28-.56,.44-.09,.87-.24,1.27-.45,.67-.42,1.09-1.14,1.13-1.93v-10.57h0c.43,.23,.78,.59,1.01,1.03h0v9.81c.03,.44-.02,.89-.17,1.3-.29,.7-.89,1.09-1.5,1.48-.25,.17-.55,.26-.82,.42s-.68,.42-.44,.78c.15,.18,.36,.28,.59,.3,.22,.03,.45,.03,.67,.04,0,0,3.58,.09,5.48,.39,.85,.14,1.02,.47,1.09,1.03,0,0-4.05-.46-6.92-.44h0Zm8.8-4.62c-.03,1.04-.23,1.72-.62,2.05-.43,.37-1.13,.34-2.09-.11-.65-.28-1.21-.73-1.63-1.3-.32-.48-.54-1.02-.66-1.58-.05-.28-.08-.55-.09-.83l-.02-.86,1.88,.84c.02,.28,.08,1.15,.1,1.43,.07,.37,.16,.64,.43,.8,.5,.29,.64-.09,.67-1.14,.02-.38,.01-.75-.03-1.13-.1-.5-.2-.84-.55-1-.41-.19-.64-.08-.7,.35l-1.68-.78,.34-4.79,4.43,2.06-.04,1.62-2.98-1.38-.12,1.4c.44-.18,.93-.16,1.35,.07,.81,.38,1.37,1.21,1.69,2.02,.25,.73,.36,1.51,.32,2.29h0Z" fill="#e0222e"></path><path d="M141.62,62.07c-.02-.08-.05-.16-.09-.23-.08-.12-.2-.22-.34-.27-.08-.03-.17-.05-.26-.05H69.05c-.09,0-.18,.02-.26,.05-.14,.05-.25,.15-.34,.27-.04,.07-.08,.15-.09,.23-.01,.05-.02,.09-.02,.14v51.4c0,22.95,16.33,34.06,36.32,45.83l.17,.1c.1,.06,.23,.06,.34,0l.15-.09,1.6-.93h.01c17.48-10.23,31.95-20.03,34.23-38.37,.32-2.15,.48-4.33,.47-6.51V62.22s0-.1,0-.14Zm-72.04,.68h70.82v15.87H69.59v-15.87Zm34.77,17.11v7.72h-7.72v-7.72h7.72Zm-9.01,0v7.72h-7.72v-7.72h7.72Zm-16.74,16.74v-7.72h7.72v7.72h-7.72Zm7.72,1.3v7.72h-7.72v-7.72h7.72Zm-7.72-10.31v-7.72h7.72v7.72h-7.72Zm-9.02-7.72h7.72v7.72h-7.72v-7.72Zm0,9.01h7.72v7.72h-7.72v-7.72Zm0,9.02h7.72v7.72h-7.72v-7.72Zm0,9.01h7.72v7.72h-7.72v-7.72Zm36.37,50.47c-.1,.06-.24,.02-.3-.08-.02-.03-.03-.07-.03-.11v-24.84c-.09-.04-.18-.05-.27-.03-.15,.04-.29,.1-.42,.19-.18,.1-.37,.19-.56,.28v24.4c0,.12-.09,.22-.21,.22-.04,0-.08-.01-.12-.03-18.36-10.74-33.37-21.05-34.42-41.28,0-.12,.08-.23,.21-.23,0,0,0,0,.01,0h15.43s-.03-.07-.04-.11c-.13-.37-.23-.74-.3-1.12h-6.33v-7.72h7.69c.29-1.22,.74-2.4,1.33-3.51v-5.5h4.9c.6-.45,1.22-.88,1.84-1.3h-6.75v-7.72h7.72v7.12c.42-.25,.85-.49,1.29-.71v-6.4h7.72v4.65c.46,.05,.86,.32,1.09,.72h0c.08,.17,.15,.34,.2,.53v-14.7c0-.12,.1-.22,.22-.22h34.34c.12,0,.22,.1,.22,.22v34.3c0,.12-.09,.22-.21,.22,0,0,0,0,0,0h-15.07c-.04,.4-.11,.8-.19,1.2v.06s15.29,0,15.29,0c.12,0,.22,.1,.22,.22,0,0,0,0,0,.01-1.05,20.24-16.11,30.52-34.49,41.28Z" fill="#fed500"></path><path d="M103.07,133.19v22.42c-8.55-5.06-16.29-10.09-22.09-16.19-.49-.52-.97-1.04-1.43-1.57-4.84-5.56-8.09-12.03-8.98-20.15h0c-.01-.13-.03-.26-.04-.39h0c0-.14,.11-.23,.23-.23h15.62c-.02-.05-.06-.1-.1-.13-.11-.06-.22-.12-.33-.16-.39-.2-.53-.54-.67-.92h-15.43c-.12,0-.22,.1-.22,.22,0,0,0,0,0,.01,1.05,20.23,16.06,30.53,34.42,41.28,.1,.06,.24,.03,.3-.07,.02-.03,.03-.07,.03-.12v-24.39c-.18,.07-.36,.14-.54,.2-.25,.08-.5,.15-.76,.2Z" fill="#e0222e"></path><path d="M140.23,115.87h-15.3c-.22,1.16-.45,2.33-.67,3.49-.19,.99-.51,1.95-.95,2.85-.51,1.04-1.23,2.09-2.29,2.63-.26,.14-.54,.23-.83,.28-.02,0-.32,.03-.32,.02-.81,4.58-5.77,4.8-5.77,4.8-.3,.59-.7,1.12-1.19,1.57-.77,.69-1.72,1.15-2.73,1.32-.9,.15-1.81,.15-2.71,0-.39-.06-.78-.15-1.17-.25-.18-.04-.35-.09-.52-.15l-.15-.07v24.83c0,.12,.1,.22,.22,.22,.04,0,.08-.01,.11-.03,18.38-10.76,33.44-21.04,34.49-41.28,0-.12-.09-.22-.21-.23,0,0-.01,0-.02,0Z" fill="#e0222e"></path><path d="M106.92,94.06v-12.83c0-.12,.1-.22,.22-.22h31.91c.12,0,.22,.1,.22,.22v32.01h0c0,.12-.09,.22-.21,.22,0,0,0,0,0,0h-13.88c.02,.38,0,.76-.04,1.14h15.07c.12,0,.22-.1,.22-.22,0,0,0,0,0,0v-34.3c0-.12-.1-.22-.22-.22h-34.33c-.12,0-.22,.1-.22,.22v14.7c.02,.08,.04,.17,.05,.25,.37-.37,.78-.69,1.22-.98Z" fill="#e0222e"></path><path d="M50.08,82.82l2.09-.99-.06-9.38-1.63,.65c-.22,.93-1.1,1.98-1.65,1.98v1.65l1.15-.71,.1,6.81Z" fill="#fbda42"></path><path d="M149.14,71.09l-.87,.62c-1.2,.85-1.8,1.77-1.8,3.01v.3l5.15,2.2v-1.63l-2.73-1.08c.07-.33,.45-.82,1.14-1.24,0,0,1.09-.76,1.21-1.18,.19-.42,.27-.87,.25-1.32,0-.82-.1-1.65-.54-2.25-.47-.62-1.11-1.1-1.84-1.37-.86-.35-1.51-.37-1.96-.07-.45,.3-.56,.9-.56,1.81v.47l1.95,.86v-.44c0-.85-.02-1.33,.43-1.18,.24,.08,.45,.26,.56,.5,.11,.22,.17,.46,.16,.7,0,.61-.18,1.06-.55,1.31Z" fill="#fbda42"></path><path d="M60.29,73.85c.5-.26,.93-.63,1.26-1.1v.63c0,.35,0,.69-.04,1.03-.09,.44-.18,.62-.51,.77-.43,.2-.41-.48-.42-1.05l-2.04,.88c.02,.89-.09,1.56,.65,2.1,.35,.26,1.06,.11,1.97-.31,.93-.42,1.65-1.2,1.99-2.16,.27-.69,.41-1.63,.42-2.84l.03-2.49c.02-2.21-.84-2.92-2.58-2.13-1.05,.48-1.8,1.14-2.23,1.96-.37,.7-.44,1.63-.47,2.78,0,1.89,.65,2.53,1.99,1.92Zm.14-4.2c.02-.33,.24-.61,.56-.7,0,0,.49-.14,.49,.47v1.58c0,.22-.09,.44-.23,.61-.14,.17-.36,.38-.6,.26-.13-.07-.21-.2-.21-.35v-1.87Z" fill="#fbda42"></path><path d="M59.41,82.51c-.38-.28-.82-.47-1.28-.56-.44-.09-.87-.24-1.27-.45-.67-.42-1.09-1.14-1.13-1.93v-10.57h0c-.43,.24-.78,.59-1.01,1.03h0v9.81c-.03,.44,.03,.89,.18,1.3,.29,.7,.89,1.09,1.5,1.48,.25,.17,.55,.26,.82,.42s.68,.42,.44,.78c-.15,.18-.36,.28-.59,.3-.22,.03-.44,.03-.67,.04,0,0-3.58,.09-5.48,.39-.85,.14-1.02,.47-1.09,1.03,0,0,4.06-.47,6.93-.44,.47,0,.94,0,1.4-.06,.3-.03,.59-.09,.88-.19,.08-.03,.25-.09,.3-.11,.21-.08,.39-.22,.52-.41,.16-.3,.2-.65,.13-.98-.08-.35-.28-.66-.56-.88Z" fill="#fbda42"></path><path d="M66.87,62.86c-.45,.27-.87,.6-1.24,.98v17.15h0l-.09-.05h0c-.55-.3-5.9-3.13-8.64-.87,0,0,1.76,.67,2.34,1.01,.75,.43,1.48,1.01,1.87,1.72,.11,.2,.3,.34,.52,.39,.87,.18,3.12,1.06,5.07,2.7,.05,.04,.12,.03,.15-.02,.01-.02,.02-.04,.02-.06v-21.88h0v-1.07Z" fill="#fbda42"></path><path d="M153.1,80.06c-2.74-2.26-8.09,.57-8.64,.87h0l-.09,.05h0v-17.15c-.37-.38-.79-.71-1.24-.98v1.07h0v21.88c0,.06,.05,.11,.11,.11,.02,0,.05,0,.07-.03,1.96-1.63,4.2-2.52,5.07-2.7,.22-.04,.42-.18,.53-.39,.38-.7,1.11-1.29,1.87-1.72,.57-.34,2.33-1.02,2.33-1.02Z" fill="#fbda42"></path><path d="M159.09,84.54c-1.9-.3-5.48-.39-5.48-.39-.22-.01-.45-.01-.67-.04-.23-.02-.44-.12-.59-.3-.23-.36,.19-.64,.44-.78s.56-.25,.82-.42c.6-.4,1.21-.79,1.5-1.48,.15-.42,.21-.86,.17-1.3v-9.81h0c-.23-.43-.58-.79-1.01-1.03h0v10.56c-.04,.79-.46,1.51-1.13,1.93-.4,.21-.83,.37-1.27,.45-.46,.08-.9,.27-1.28,.56-.28,.22-.48,.53-.56,.88-.07,.33-.03,.68,.13,.98,.13,.18,.31,.32,.52,.41,.05,.03,.23,.09,.3,.11,.29,.09,.58,.16,.88,.19,.47,.05,.93,.07,1.4,.06,2.86-.02,6.92,.44,6.92,.44-.07-.56-.24-.9-1.09-1.03Z" fill="#fbda42"></path><path d="M160.05,76.21c-.42-.23-.91-.25-1.35-.07l.12-1.4,2.98,1.38,.04-1.62-4.43-2.06-.34,4.79,1.68,.78c.05-.42,.28-.54,.7-.35,.35,.16,.45,.5,.55,1,.04,.37,.05,.75,.03,1.13-.02,1.05-.17,1.42-.67,1.14-.27-.16-.36-.43-.43-.8-.02-.28-.08-1.15-.1-1.43l-1.88-.84,.02,.86c.01,.28,.04,.56,.09,.83,.11,.57,.34,1.1,.66,1.58,.42,.57,.99,1.02,1.63,1.3,.96,.45,1.65,.48,2.09,.11,.38-.33,.59-1.01,.62-2.05,.04-.78-.06-1.55-.32-2.29-.32-.81-.88-1.64-1.69-2.02Z" fill="#fbda42"></path><path d="M127.1,70.32c0-.91-.5-1.37-1.5-1.37h-1.38v2.73h1.38c1,0,1.5-.46,1.5-1.37Z" fill="#e0222e"></path><path d="M87.67,75.37c1.81,0,2.2-1.15,2.2-3.46,0-2.17-.73-3.19-2.2-3.19s-2.19,1.34-2.19,3.19c0,2.31,.73,3.47,2.19,3.46Z" fill="#e0222e"></path><path d="M140.41,78.63v-15.87H69.59v15.87h70.82Zm-9.5-11.75h7.36v2.08h-4.67v1.85h4.3v2.08h-4.31v2.27h4.67v2.08h-7.35v-10.37Zm-9.36,0h4.44c2.61,0,3.92,1.15,3.92,3.45s-2.25,3.45-3.92,3.45h-1.76v3.47h-2.67v-10.36Zm-8.35,0h7.35v2.08h-4.67v1.85h4.31v2.08h-4.32v2.27h4.67v2.08h-7.34v-10.37Zm-10.13,0h9.13v1.96h-3.38v8.41h-2.67v-8.41h-3.07v-1.96Zm-9.29,8.29l5.08-6.33h-4.81v-1.96h8.01v2.19l-4.9,6.1h5.23v2.08h-8.6v-2.08Zm-5.41-11.22h2.17v1.82h-2.17v-1.82Zm-3.47,0h2.17v1.82h-2.17v-1.82Zm-.93,4.18c.87-.98,2.11-1.47,3.7-1.47s2.83,.49,3.69,1.47c.87,.97,1.55,1.98,1.55,3.75s-.44,3.15-1.31,4.13-2.34,1.45-3.93,1.45-2.95-.48-3.82-1.45-1.3-2.12-1.3-3.89c0-2.12,.56-3.02,1.42-3.99h0Zm-12.23,3.75c.21-4.83,4.3-5.06,5.8-5.11,1.43-.05,3.11,.52,3.87,.91,0,.47,0,1.02,.01,2.43h-.3c-.98-1.14-2.43-1.5-3.62-1.47-1.15,.02-2.89,.85-2.89,3.4,0,1.09,.18,1.78,.66,2.39,.48,.65,1.23,1.04,2.04,1.06,.51,.06,1.02,.03,1.51-.08v-1.95l-2.1-.03v-1.8h4.64v5.14c-.79,.15-1.59,.42-2.39,.57-6.99,.8-7.3-3.77-7.23-5.46h0Z" fill="#e0222e"></path><path d="M78.97,77.32c.8-.15,1.6-.42,2.39-.57v-5.14h-4.64v1.8l2.1,.03v1.95c-.5,.11-1.01,.14-1.51,.08-.81-.02-1.56-.41-2.04-1.06-.48-.6-.66-1.3-.66-2.39,0-2.55,1.74-3.37,2.89-3.4,1.19-.03,2.64,.33,3.62,1.47h.3c-.02-1.4-.01-1.95-.01-2.43-.76-.39-2.43-.96-3.87-.91-1.51,.05-5.61,.28-5.8,5.11-.08,1.69,.23,6.27,7.23,5.46Z" fill="#fbda42"></path><polygon points="102.38 75.16 97.15 75.16 102.06 69.06 102.06 66.87 94.05 66.87 94.05 68.83 98.86 68.83 93.78 75.16 93.78 77.24 102.38 77.24 102.38 75.16" fill="#fbda42"></polygon><polygon points="106.14 77.24 108.81 77.24 108.81 68.83 112.19 68.83 112.19 66.87 103.06 66.87 103.06 68.83 106.14 68.83 106.14 77.24" fill="#fbda42"></polygon><path d="M124.22,73.77h1.76c1.67,0,3.92-1.15,3.92-3.45s-1.31-3.45-3.92-3.45h-4.44v10.36h2.68v-3.47Zm0-4.82h1.38c1,0,1.5,.46,1.5,1.37s-.5,1.37-1.5,1.37h-1.38v-2.73Z" fill="#fbda42"></path><rect x="84.9" y="63.93" width="2.17" height="1.82" fill="#fbda42"></rect><rect x="88.37" y="63.93" width="2.17" height="1.82" fill="#fbda42"></rect><path d="M87.67,77.45c1.6,0,3.07-.48,3.93-1.45s1.31-2.36,1.31-4.13-.68-2.78-1.55-3.75-2.1-1.47-3.69-1.47-2.83,.49-3.7,1.47-1.42,1.87-1.42,3.99c0,1.77,.43,2.91,1.3,3.89s2.23,1.45,3.82,1.45Zm0-8.73c1.46,0,2.2,1.02,2.2,3.19,0,2.31-.39,3.46-2.2,3.46-1.46,0-2.19-1.15-2.19-3.46,0-1.85,.73-3.19,2.19-3.19h0Z" fill="#fbda42"></path><polygon points="138.26 75.16 133.58 75.16 133.58 72.88 137.89 72.88 137.89 70.8 133.58 70.8 133.58 68.95 138.26 68.95 138.26 66.87 130.91 66.87 130.91 77.24 138.26 77.24 138.26 75.16" fill="#fbda42"></polygon><polygon points="120.55 75.16 115.87 75.16 115.87 72.88 120.17 72.88 120.17 70.8 115.87 70.8 115.87 68.95 120.55 68.95 120.55 66.87 113.19 66.87 113.19 77.24 120.55 77.24 120.55 75.16" fill="#fbda42"></polygon><path d="M112.81,96.64c.56-.33,1.2-.49,1.85-.47,1.63,.11,2.83,1.55,3.6,2.87,.11,.19,.22,.39,.31,.6,.06,.18,.18,.33,.33,.44,.18,.11,.4,.14,.59,.23,.9,.46,1.71,1.07,2.39,1.81,.89,.99,1.55,2.17,1.94,3.44,.34,1.09,.53,2.23,.57,3.37,.02,.43,.02,.86,0,1.29,0,.21-.03,.43-.04,.64-.04,.17-.06,.35-.03,.53,.03,.06,.06,.11,.1,.16,.21,.22,.38,.47,.52,.74,.11,.3,.17,.61,.21,.92,0,.09,.01,.17,.02,.26h13.88c.12,0,.22-.09,.22-.21,0,0,0,0,0,0h0v-32.02c0-.12-.1-.22-.22-.22h-31.91c-.12,0-.22,.1-.22,.22v12.83c.5-.34,1.09-.51,1.7-.5,5,.23,4.19,3.09,4.19,3.09Z" fill="#fbda42"></path><path d="M70.53,117.3h0c.01,.14,.03,.28,.04,.41h0l-.04-.4h0Z" fill="#fed500"></path><path d="M101.45,133.3c-.39,0-.78-.05-1.17-.11-.4-.09-.79-.21-1.17-.38-.75-.34-1.65-.93-1.66-1.87,0-.06,0-.12-.01-.18-.08-.25-.23-.05-.33,.05-.1,.12-.23,.22-.37,.28-.26,.12-.54,.18-.82,.17-.34,0-.68-.06-1-.2-2.7-1.34-4.69-3.87-4.69-3.87-.32-.42-.52-.92-.58-1.45-.03-.45,0-.89,.07-1.33,.02-.06,.02-.12,0-.18-.03-.06-.1-.11-.17-.11-.51-.08-1-.13-1.45-.42-.35-.26-.63-.6-.81-1-.31-.55-.56-1.12-.78-1.7-.22-.56-.37-1.14-.45-1.74-.05-.52,.03-1.05,.25-1.52,.1-.2,.13-.44,.07-.66h-15.62c-.12,0-.22,.09-.23,.22l.04,.41c.89,8.12,4.14,14.59,8.98,20.15,.47,.53,.94,1.06,1.43,1.57,5.8,6.1,13.55,11.13,22.09,16.19v-22.42c-.53,.1-1.08,.13-1.62,.1Z" fill="#fbda42"></path><path d="M70.53,117.3l.04,.4-.04-.41h0Z" fill="#fbda42"></path><path d="M77.31,79.87h-7.72v7.72h7.72v-7.72Zm-1.28,6.44h-5.16v-5.16h5.16v5.16Z" fill="#e0222e"></path><rect x="69.59" y="88.89" width="7.72" height="7.72" fill="#e0222e"></rect><path d="M77.31,97.9h-7.72v7.72h7.72v-7.72Zm-1.28,6.44h-5.16v-5.16h5.16v5.16Z" fill="#e0222e"></path><rect x="69.59" y="106.92" width="7.72" height="7.72" fill="#e0222e"></rect><path d="M84.82,113.37h-4.94v-5.17h5.16v3.09c.1-.59,.29-1.16,.58-1.68,.22-.4,.36-.83,.4-1.28,.06-.48,.15-.95,.26-1.42h-7.69v7.72h6.33c-.08-.42-.11-.85-.11-1.28Z" fill="#e0222e"></path><rect x="78.6" y="97.9" width="7.72" height="7.72" fill="#e0222e"></rect><path d="M88.9,101.39v-2.2h2.02c.27-.23,.55-.47,.84-.7,.25-.2,.51-.39,.77-.58h-4.9v5.5c.09-.16,.17-.33,.26-.49,.31-.53,.65-1.04,1.02-1.53Z" fill="#e0222e"></path><path d="M86.32,88.89h-7.72v7.72h7.72v-7.72Zm-1.28,6.44h-5.16v-5.16h5.16v5.16Z" fill="#e0222e"></path><path d="M95.34,88.89h-7.72v7.72h6.75c.31-.21,.63-.41,.97-.6v-7.12Z" fill="#e0222e"></path><path d="M97.93,94.7v-4.53h5.14v3.37l.25-.03c.34-.04,.69-.04,1.03,.02v-4.65h-7.71v6.4l.12-.06c.38-.19,.77-.36,1.17-.53Z" fill="#e0222e"></path><rect x="78.6" y="79.87" width="7.72" height="7.72" fill="#e0222e"></rect><path d="M95.34,87.59v-7.72h-7.72v7.72h7.72Zm-6.44-6.44h5.16v5.16h-5.16v-5.16Z" fill="#e0222e"></path><rect x="96.64" y="79.87" width="7.72" height="7.72" fill="#e0222e"></rect><rect x="70.87" y="81.15" width="5.16" height="5.16" fill="#fbda42"></rect><rect x="88.9" y="81.15" width="5.16" height="5.16" fill="#fbda42"></rect><rect x="79.89" y="90.17" width="5.16" height="5.16" fill="#fbda42"></rect><rect x="70.87" y="99.18" width="5.16" height="5.16" fill="#fbda42"></rect><path d="M79.89,108.2v5.17h4.94c0-.25,.01-.5,.04-.74,.05-.44,.1-.89,.18-1.32v-3.1h-5.16Z" fill="#fbda42"></path><path d="M90.92,99.18h-2.03v2.2c.6-.8,1.28-1.54,2.03-2.2Z" fill="#fbda42"></path><path d="M103.07,93.54v-3.37h-5.14v4.53c.84-.35,1.71-.62,2.59-.81,.84-.16,1.69-.28,2.54-.35Z" fill="#fbda42"></path><path d="M96.83,97.04s.02-.04,.03-.06l-.03,.06Z" fill="#fbda42"></path><path d="M111.71,95.99c-.08-.16-.2-.29-.34-.4-.57-.45-1.25-.75-1.97-.85-.61-.12-1.25-.05-1.81,.22-.24,.12-.46,.26-.66,.44-.09,.08-.17,.16-.25,.25l-.55,.53s-.17,.17-.47,.49c-2.41,2.56-4.57,5.34-6.44,8.3-.26,.36-.35,.82-.25,1.25,.09,.28,.24,.54,.44,.76,.24,.33,.49,.64,.77,.93,.21,.25,.47,.46,.76,.6,.59,.21,1.24-.19,1.55-.67,.29-.43,.59-.86,.89-1.29,.74-1.06,1.5-2.09,2.28-3.12l.04-.05c.41-.53,.82-1.06,1.24-1.58,.62-.78,1.26-1.54,1.92-2.3,.53-.6,1.07-1.19,1.63-1.76,.28-.28,.57-.57,.87-.85,.24-.22,.51-.57,.35-.94Z" fill="#fbda42"></path><path d="M116.7,104.55l6.22,4.93c.06,.05,.15,.04,.2-.02,.02-.02,.03-.05,.03-.07,.03-.23,.05-.46,.06-.69,.01-.35,0-.69-.03-1.04-.04-.43-.11-.86-.22-1.28-.28-1.07-.77-2.07-1.44-2.94-.42-.54-.9-1.03-1.43-1.46-.28-.23-.58-.44-.9-.62-.09-.05-.21-.04-.28,.04l-2.27,2.54c-.15,.18-.13,.44,.05,.59,0,0,0,0,.01,.01Z" fill="#fbda42"></path><path d="M112.29,122.15c.2,.79,.42,1.58,.67,2.35,.14,.44,.3,.88,.47,1.32,.18,.46,.39,.89,.6,1.32l.14,.28c.13,.26,.3,.5,.51,.7,.57,.52,1.33,.33,1.92-.04,0,0,1.34-.93,1.74-1.85,0,0,.57-.73-.35-1.8-1.02-1.18-3.46-3.91-3.46-3.91l-.49-.55c-.08-.08-.21-.09-.31-.02-.49,.4-1.01,.77-1.55,1.1-.08,.05-.12,.14-.1,.23,.06,.3,.13,.59,.2,.88Z" fill="#fbda42"></path><path d="M106.58,131.35c.5,.48,1.28,.39,1.91,.35,.74-.04,1.48-.17,2.2-.38,.61-.2,1.4-.5,1.79-1.04,.35-.49,.35-1.13,.21-1.69l-2.79-6.99c-.03-.08-.12-.14-.21-.14l-2.92,.02c-.11,0-.21,.09-.22,.2l-.28,2.7s-.38,3.39-.03,6.34c.04,.24,.15,.47,.33,.64Z" fill="#fbda42"></path><path d="M104.18,121.09l-1.11-.16-1.02-.15c-.08-.01-.16,.02-.21,.08-.39,.5-2.12,2.94-3.28,8.3,0,0-.89,2.47,2.31,2.87,1.03,.13,1.73,.07,2.2-.07,.96-.28,1-.88,1-.88l.3-9.76c0-.11-.08-.21-.19-.23Z" fill="#fbda42"></path><path d="M99.68,119.24c-.43-.54-1.13-.23-1.13-.23l-.32,.14c-1.34,.6-2.62,1.32-3.82,2.15-.81,.56-1.57,1.19-2.26,1.89-.59,.6-1.5,1.35-1.33,2.27,.1,.43,.3,.83,.58,1.17l.13,.18c.48,.63,1.04,1.2,1.67,1.7,.63,.46,1.28,.88,1.95,1.27,1.6,.98,1.83-.99,1.83-.99,.93-5.74,2.87-8.07,3.14-8.41,.15-.21,.13-.49-.05-.67l-.39-.46Z" fill="#fbda42"></path><path d="M111.63,115.87c-.42-.54-1.08-.83-1.76-.79-2.73,.03-4.64-.08-4.64-.08,0,0-.96-.08-1.53-.4s-1.74-.16-2.49,.62c-.19,.19-.35,.41-.47,.65-.19,.38-.23,.81-.11,1.21,.09,.31,.23,.61,.43,.87,.47,.7,1.19,1.18,2.02,1.36,.43,.11,.86,.18,1.3,.22,.23,.02,.49,.04,.75,.06,.16,0,.33,.02,.5,.02,1.68,.01,3.35-.07,5.02-.26,.74-.08,1.34-.65,1.45-1.39,.11-.73-.06-1.48-.48-2.09Zm-9.67,1.94c-.26,0-.47-.2-.47-.46,0-.1,.03-.19,.08-.27,.06-.08,.14-.15,.23-.18l.17-.86c-.1-.09-.16-.21-.16-.35,0-.26,.21-.47,.47-.47s.47,.21,.47,.47c0,.06-.01,.12-.04,.18-.05,.12-.15,.22-.28,.26l-.17,.86s.06,.06,.08,.09c.05,.08,.08,.17,.08,.26,0,.25-.21,.46-.46,.46h0Zm2.41-1.59c-.05,.07-.12,.12-.2,.15l-.21,1.18c.1,.09,.16,.22,.16,.35,0,.26-.21,.47-.47,.47-.26,0-.47-.21-.47-.47,0-.19,.12-.36,.3-.43l.21-1.18c-.1-.09-.16-.22-.16-.35,0-.02,0-.03,0-.05,.03-.26,.26-.44,.51-.42s.44,.26,.42,.51c0,.09-.04,.17-.1,.24h0Zm1.47,.08l-.13,1.6c.21,.15,.26,.44,.12,.65-.05,.07-.12,.13-.2,.16-.06,.02-.12,.04-.19,.04-.26,0-.47-.2-.47-.46,0-.18,.1-.35,.26-.42l.13-1.6c-.12-.09-.2-.23-.2-.38,0-.26,.21-.47,.47-.47s.47,.21,.47,.47h0c0,.18-.1,.34-.26,.42h0Zm1.73,.11l-.17,1.59c.21,.15,.25,.45,.1,.65-.15,.21-.45,.25-.65,.1-.21-.15-.25-.45-.1-.65,.05-.07,.11-.12,.19-.15l.17-1.59c-.12-.09-.19-.23-.19-.37,0-.04,0-.07,.01-.11,.05-.25,.3-.41,.56-.36,.18,.04,.32,.18,.36,.36,0,.03,.01,.07,.01,.11,0,.18-.11,.35-.28,.42h0Zm1.7,.25l-.15,1.32c.2,.16,.24,.45,.08,.66-.16,.2-.45,.24-.66,.08-.2-.16-.24-.45-.08-.66,.05-.06,.11-.11,.18-.14l.15-1.32c-.21-.16-.25-.45-.09-.65,.02-.03,.04-.05,.06-.07,.09-.08,.2-.12,.31-.12,.11,0,.22,.04,.31,.12,.19,.17,.21,.46,.05,.66-.04,.05-.1,.09-.16,.12h0Zm1.8,1.49c0,.26-.21,.47-.47,.46-.26,0-.47-.21-.46-.47,0-.18,.1-.34,.26-.41l.07-.87c-.12-.09-.2-.23-.2-.38,0-.26,.21-.47,.47-.47s.47,.21,.47,.47c0,.18-.1,.34-.26,.42l-.07,.87c.12,.09,.2,.23,.2,.38h0Z" fill="#fbda42"></path><path d="M110.87,117.76l.07-.87c.16-.08,.26-.24,.26-.42,0-.26-.21-.47-.47-.47s-.47,.21-.47,.47c0,.15,.07,.29,.2,.38l-.07,.87c-.23,.11-.33,.39-.21,.63s.39,.33,.63,.21c.23-.11,.33-.39,.21-.63-.03-.07-.08-.13-.14-.17h0Z" fill="#e0222e"></path><path d="M109.54,116.23c0-.14-.06-.26-.16-.35-.09-.08-.19-.12-.31-.12-.26,0-.47,.21-.47,.47,0,.15,.07,.28,.19,.37l-.15,1.32c-.23,.11-.34,.38-.23,.62,.11,.23,.38,.34,.62,.23,.23-.11,.34-.38,.23-.62-.03-.07-.08-.13-.14-.18l.15-1.32c.16-.08,.27-.24,.27-.42Z" fill="#e0222e"></path><path d="M107.84,115.98s0-.07-.01-.11c-.05-.25-.3-.41-.56-.36-.18,.04-.32,.18-.36,.36,0,.03-.01,.07-.01,.11,0,.15,.07,.29,.19,.37l-.17,1.59c-.24,.1-.34,.38-.24,.62,.1,.24,.38,.34,.62,.24,.24-.1,.34-.38,.24-.62-.03-.07-.08-.14-.15-.19l.17-1.59c.17-.07,.28-.24,.28-.43Z" fill="#e0222e"></path><path d="M105.64,115.4c-.26,0-.47,.21-.47,.47,0,.15,.07,.29,.2,.38l-.13,1.6c-.23,.11-.33,.39-.22,.62,.08,.16,.24,.27,.42,.26,.06,0,.13-.01,.19-.04,.24-.1,.35-.38,.25-.61-.03-.08-.09-.15-.16-.2l.13-1.6c.16-.08,.26-.24,.26-.42h0c0-.26-.21-.47-.46-.47,0,0,0,0,0,0Z" fill="#e0222e"></path><path d="M104,115.45c-.24,0-.44,.18-.47,.42,0,.02,0,.03,0,.05,0,.14,.06,.26,.16,.35l-.21,1.18c-.24,.09-.36,.37-.26,.61,.09,.24,.37,.36,.61,.26,.18-.07,.3-.24,.3-.43,0-.14-.06-.26-.16-.35l.21-1.18c.24-.09,.37-.36,.28-.6-.07-.19-.25-.31-.45-.31h0Z" fill="#e0222e"></path><path d="M102.28,115.23c-.26,0-.47,.21-.47,.47,0,.13,.06,.26,.16,.35l-.17,.86c-.1,.03-.18,.1-.23,.18-.14,.22-.07,.51,.15,.64,.22,.14,.51,.07,.64-.15,.05-.07,.07-.15,.07-.24,0-.09-.03-.18-.08-.26-.02-.03-.05-.06-.08-.09l.17-.86c.12-.04,.22-.14,.28-.26,.02-.06,.04-.12,.04-.18,0-.26-.21-.47-.47-.47,0,0,0,0,0,0Z" fill="#e0222e"></path><path d="M116.52,98.49c-.73-.74-1.67-1.6-2.79-1.17-.37,.16-.71,.37-1.02,.63-1.3,1.03-2.52,2.15-3.65,3.37l-.18,.19c-.69,.75-1.33,1.53-1.97,2.34-.26,.33-.53,.67-.78,1-.17,.22-.33,.45-.5,.68-.42,.58-.82,1.17-1.2,1.77-.36,.56-.72,1.15-.79,1.82-.07,.92,.38,1.8,1.17,2.28,.25,.15,.53,.26,.82,.31,.6,.12,1.23,.04,1.79-.22,.69-.33,1.22-.91,1.73-1.47l7.49-8.26c.4-.44,.83-.93,.84-1.54,.02-.68-.49-1.24-.96-1.72Z" fill="#fbda42"></path><path d="M121.35,119.76l-.27-.31-3.47-3.58-1.23-1.27-1.11-1.14-2.77-2.86c-.22-.24-.5-.41-.82-.47-.48-.04-.96,.16-1.26,.54-.34,.37-.66,.76-.97,1.17-.23,.31-.58,.63-.46,1.06,.06,.16,.15,.3,.27,.41l.14,.16c.09,.1,.19,.2,.29,.28,.19,.15,.43,.23,.68,.21,.23-.04,.47-.04,.7,0,.49,.09,.96,.29,1.37,.59l.06,.05c.18,.13,.34,.29,.49,.45,.23,.26,.44,.53,.63,.82,.36,.5,.58,1.08,.65,1.69,0,.05,.02,.1,.06,.14l4.98,5.41,.66,.72c.13,.14,.35,.16,.5,.05,.46-.32,.84-.73,1.14-1.2,0,0,.96-1.53-.28-2.92Z" fill="#fbda42"></path><path d="M123.91,113.67h0v-.21c-.08-1.42-1.32-2.21-1.32-2.21,0,0-4.44-3.43-5.99-4.72-.4-.33-.93-.7-1.48-.67-.14,0-.28,.05-.41,.13-.17,.14-.32,.3-.45,.47l-.92,1-.4,.44c-.06,.06-.12,.12-.17,.19-.02,.04-.05,.07-.07,.11-.17,.26-.19,.59-.06,.87,.15,.3,.5,.54,.74,.78,.63,.63,1.24,1.26,1.87,1.9,.56,.57,1.12,1.14,1.68,1.72,.27,.27,.53,.55,.8,.82l.32,.32,1.25,1.27,.87,.89c.54,.54,1.07,1.09,1.63,1.62,.26,.25,.58,.53,.96,.54,.33,0,.49-.41,.57-.74,.2-.76,.36-1.53,.46-2.31,.06-.49,.1-.92,.12-1.27,.02-.58,.01-.93,.01-.93Z" fill="#fbda42"></path><path d="M98.69,108.91c-.04-.1-.08-.19-.13-.28s-.09-.18-.14-.27-.09-.17-.14-.25-.09-.16-.14-.23-.09-.14-.14-.22-.09-.13-.13-.19l-.13-.17c-.04-.05-.07-.1-.11-.15l-.1-.12-.08-.1-.1-.11c-.04-.05-.09-.1-.14-.14-.54-.37-1.38-.17-1.95-.01-.7,.19-1.4,.38-2.09,.58-1.13,.32-2.25,.69-3.36,1.07-.3,.11-.6,.21-.89,.34s-.61,.29-.92,.43c-.38,.15-.73,.36-1.04,.62-.14,.14-.25,.29-.34,.47-.15,.31-.26,.63-.3,.97-.02,.14-.04,.27-.05,.4-.07,1.03-.07,2.06,0,3.09,.02,.21,.03,.34,.03,.34,0,0,.11,1.29,1.3,.48,.32-.23,.63-.48,.92-.75,.37-.33,.73-.66,1.11-.97,.5-.42,1.04-.8,1.59-1.15,.76-.48,1.55-.91,2.36-1.28,.53-.25,1.06-.47,1.6-.7,.42-.17,.84-.34,1.27-.51,.53-.2,1.08-.37,1.63-.49,.23-.05,.53-.13,.63-.37,.04-.11,.04-.24-.02-.34Z" fill="#fbda42"></path><path d="M104.14,94.75c-.18-.02-.36-.03-.54-.02-.17,0-.35,0-.53,.01-.71,.04-1.41,.12-2.1,.26-.49,.07-.97,.18-1.44,.32-.4,.12-.8,.26-1.19,.43-.47,.19-.88,.48-1.22,.85-.1,.11-.18,.23-.25,.36h0s-.02,.05-.03,.07c-.48,1.05-.88,2.14-1.2,3.25h0c-.11,.36-.2,.71-.28,1.06-.29,1.18-.51,2.37-.64,3.58l.64-.06,2.7-.26,.21-.59c.31-.74,.67-1.45,1.09-2.13,.72-1.19,1.51-2.33,2.37-3.42,.3-.39,.6-.76,.92-1.12,.21-.24,.41-.48,.61-.74,.11-.13,.21-.27,.31-.4s1.07-1.38,.6-1.45Z" fill="#fbda42"></path><path d="M94.23,97.93c-.6,.41-1.14,.83-1.63,1.26-1.46,1.21-2.7,2.66-3.69,4.28-.41,.69-.77,1.41-1.05,2.16-.17,.45-.31,.91-.42,1.38-.02,.13,.07,.25,.2,.26,.03,0,.06,0,.09,0l4.44-1.63,.31-.11h0c.04-.29,.09-.69,.18-1.17,.2-1.17,.46-2.33,.79-3.47h0s.21-.75,.55-1.69c.12-.33,.25-.69,.4-1.04,0-.04,.01-.08,.02-.11,0-.06-.04-.11-.1-.12-.02,0-.05,0-.07,.02Z" fill="#fbda42"></path><path d="M104.14,113.02c-3.07-3.27-5.97-2.08-6.07-2.03h0c-3.83,1.35-6.89,3.55-8.51,4.89-.78,.64-1.23,1.08-1.29,1.14h-.01l-.08,.06c-.27,.22-1.06,.95-.93,1.87,.19,1.33,.53,2.55,1.37,3.46,.42,.52,1.18,.61,1.71,.19h.01c2.02-2.06,4.54-3.61,6.21-4.46,.1-.05,1.17-.55,1.84-.77h0c.19-.05,.36-.14,.5-.27,.1-.08,.15-.21,.15-.34,0-.29,0-.58,.04-.87,.12-1.07,.52-1.47,.52-1.47,1.18-1.42,3.56-1.21,4.47-1.2,.06,0,.11-.04,.12-.1,0-.03,0-.07-.03-.09Z" fill="#fbda42"></path><path d="M125.17,113.46c0-.09,0-.17-.02-.26-.03-.31-.1-.62-.21-.92-.14-.27-.31-.52-.52-.74-.04-.05-.08-.1-.1-.16-.02-.18-.01-.36,.03-.53,.02-.21,.04-.43,.04-.64,.02-.43,.02-.86,0-1.29-.04-1.14-.24-2.26-.57-3.35-.39-1.27-1.05-2.44-1.94-3.44-.69-.74-1.5-1.35-2.39-1.81-.19-.1-.4-.13-.59-.23-.15-.11-.27-.26-.33-.44-.09-.21-.19-.4-.31-.6-.77-1.32-1.96-2.76-3.6-2.87-.65-.02-1.29,.14-1.85,.47,0,0,.81-2.86-4.19-3.09-.6,0-1.19,.17-1.7,.5-.44,.28-.85,.61-1.23,.98-.01-.08-.03-.17-.05-.25-.05-.18-.11-.36-.2-.53h0c-.22-.4-.63-.67-1.09-.72-.34-.06-.69-.06-1.03-.02l-.25,.03c-.86,.07-1.72,.19-2.57,.35-.88,.18-1.74,.45-2.58,.79-.39,.16-.78,.33-1.17,.53l-.12,.06c-.44,.22-.87,.46-1.29,.71-.33,.19-.65,.39-.97,.6-.63,.41-1.24,.85-1.84,1.3-.26,.19-.51,.39-.77,.58-.29,.23-.57,.47-.84,.7-.75,.67-1.43,1.4-2.03,2.2-.37,.49-.71,1-1.02,1.53-.09,.16-.18,.32-.26,.49-.59,1.11-1.04,2.29-1.33,3.51-.11,.47-.2,.94-.26,1.42-.05,.45-.18,.88-.4,1.28-.29,.52-.48,1.09-.58,1.68-.08,.44-.13,.88-.18,1.32-.03,.25-.04,.49-.04,.74,0,.43,.04,.86,.11,1.28,.07,.38,.17,.76,.3,1.12,.01,.04,.03,.07,.04,.11,.14,.38,.28,.72,.67,.92,.12,.04,.23,.1,.33,.16,.05,.03,.08,.08,.1,.13,.06,.22,.04,.46-.07,.66-.22,.47-.31,1-.25,1.52,.08,.59,.23,1.18,.45,1.74,.21,.59,.47,1.16,.78,1.7,.18,.4,.46,.75,.81,1,.45,.29,.95,.34,1.45,.42,.07,0,.13,.05,.17,.11,.02,.06,.02,.12,0,.18-.08,.44-.11,.89-.07,1.33,.06,.53,.26,1.03,.58,1.45,0,0,1.99,2.53,4.69,3.88,.32,.13,.65,.2,1,.2,.28,.01,.57-.05,.82-.17,.14-.07,.27-.17,.37-.28,.09-.1,.25-.3,.33-.05,.01,.06,.02,.12,.01,.18,0,.92,.91,1.52,1.66,1.87,.37,.17,.77,.3,1.17,.38,.39,.06,.78,.1,1.17,.11,.54,.03,1.08,0,1.62-.11,.26-.05,.51-.11,.76-.2,.18-.06,.36-.13,.54-.2s.38-.18,.56-.28c.13-.08,.27-.15,.42-.19,.09-.02,.19-.01,.27,.03l.15,.07c.17,.06,.34,.11,.52,.15,.38,.11,.77,.19,1.17,.25,.9,.15,1.81,.15,2.71,0,1.02-.17,1.97-.63,2.73-1.32,.48-.45,.88-.98,1.19-1.57,0,0,4.96-.22,5.77-4.8,0,0,.31-.02,.32-.02,.29-.05,.57-.15,.83-.28,1.06-.54,1.78-1.59,2.29-2.63,.44-.9,.76-1.86,.95-2.85,.22-1.16,.45-2.32,.67-3.49v-.06c.09-.4,.16-.8,.2-1.2,.05-.38,.06-.77,.04-1.15Zm-6.24-12.05c.07-.08,.19-.1,.28-.04,.32,.18,.62,.39,.9,.62,.53,.43,1.01,.92,1.43,1.46,.67,.87,1.17,1.87,1.44,2.94,.11,.42,.18,.85,.22,1.28,.03,.34,.04,.69,.03,1.04-.01,.23-.03,.46-.07,.69,0,.08-.08,.14-.16,.13-.03,0-.05-.01-.07-.03l-6.22-4.93c-.18-.15-.21-.41-.06-.59,0,0,0,0,.01-.01l2.27-2.55Zm-6.21-3.46c.3-.26,.65-.47,1.02-.63,1.12-.43,2.05,.43,2.79,1.17,.47,.48,.98,1.03,.96,1.71-.01,.6-.44,1.1-.84,1.54l-7.49,8.27c-.51,.57-1.04,1.14-1.73,1.47-.56,.26-1.18,.34-1.79,.22-.29-.06-.56-.16-.82-.31-.79-.48-1.24-1.36-1.17-2.28,.07-.66,.43-1.26,.79-1.82,.38-.6,.79-1.19,1.2-1.77,.16-.23,.33-.46,.5-.68,.26-.34,.52-.67,.78-1,.63-.79,1.28-1.57,1.97-2.34l.18-.19c1.13-1.21,2.35-2.33,3.65-3.36Zm-7.08-1.28c.3-.32,.47-.49,.47-.49l.55-.53c.08-.09,.16-.17,.25-.25,.2-.18,.42-.33,.66-.44,.57-.26,1.2-.34,1.81-.22,.72,.11,1.4,.4,1.97,.85,.14,.1,.26,.24,.34,.4,.16,.36-.11,.71-.35,.95-.29,.28-.58,.56-.87,.85-.57,.57-1.11,1.15-1.63,1.76-.66,.75-1.3,1.52-1.92,2.3-.42,.52-.84,1.05-1.24,1.58l-.04,.05c-.78,1.02-1.54,2.06-2.28,3.12-.3,.43-.6,.85-.89,1.29-.32,.47-.96,.88-1.55,.67-.29-.15-.55-.35-.76-.6-.27-.3-.53-.61-.77-.93-.2-.22-.35-.48-.44-.76-.1-.43,0-.89,.25-1.25,1.88-2.97,4.03-5.76,6.45-8.31Zm-10.01,3.61c.32-1.11,.72-2.2,1.2-3.25l.03-.06h0c.07-.14,.16-.27,.25-.38,.34-.37,.76-.66,1.22-.85,.39-.17,.78-.31,1.19-.43,.47-.14,.95-.25,1.44-.32,.69-.14,1.4-.23,2.1-.26,.18,0,.35-.01,.53-.01,.18,0,.36,0,.54,.02,.47,.07-.49,1.3-.6,1.45s-.21,.27-.31,.4c-.2,.25-.4,.5-.61,.74-.32,.36-.62,.74-.92,1.12-.86,1.09-1.65,2.23-2.36,3.42-.42,.68-.78,1.39-1.09,2.13l-.21,.59-2.7,.26-.64,.06c.14-1.21,.35-2.4,.64-3.58,.08-.35,.18-.7,.28-1.06h0Zm-8.21,6.71c.11-.47,.25-.93,.42-1.38,.29-.75,.64-1.47,1.05-2.16,.99-1.62,2.23-3.07,3.69-4.28,.5-.42,1.04-.85,1.63-1.26,.05-.04,.12-.02,.15,.03,.02,.02,.02,.05,.02,.08,0,.04,0,.07-.02,.11-.14,.35-.28,.7-.4,1.04-.34,.93-.55,1.69-.55,1.69h0c-.33,1.14-.6,2.3-.79,3.47-.08,.48-.14,.88-.18,1.17h0l-.31,.11-4.44,1.63c-.12,.04-.25-.03-.29-.16,0-.03-.01-.07,0-.1Zm-1.12,7.98s-.01-.12-.03-.34c-.07-1.03-.07-2.06,0-3.09,0-.13,.03-.27,.05-.4,.05-.34,.15-.67,.3-.97,.09-.17,.2-.33,.34-.47,.31-.26,.66-.47,1.04-.62,.31-.14,.61-.29,.92-.43s.59-.23,.89-.34c1.11-.38,2.23-.75,3.36-1.07,.7-.2,1.4-.39,2.09-.58,.57-.16,1.4-.36,1.95,.01,.05,.04,.1,.08,.14,.14l.1,.11,.08,.1,.1,.12s.08,.1,.11,.15l.13,.17c.04,.07,.09,.13,.13,.19s.1,.14,.14,.22,.1,.15,.14,.23,.1,.17,.14,.25,.09,.18,.14,.27,.09,.18,.13,.28c.06,.11,.06,.23,.01,.35-.1,.23-.4,.32-.63,.37-.56,.12-1.1,.29-1.63,.49-.43,.17-.85,.34-1.27,.51-.54,.22-1.07,.44-1.6,.7-.81,.37-1.6,.8-2.36,1.28-.55,.35-1.08,.73-1.59,1.15-.38,.31-.74,.64-1.11,.97-.29,.27-.59,.52-.92,.75-1.18,.8-1.28-.49-1.28-.49h0Zm4.01,7.62c-.53,.42-1.29,.33-1.71-.19-.83-.91-1.17-2.13-1.37-3.46-.14-.92,.66-1.63,.93-1.87l.08-.06h.01c.06-.06,.51-.5,1.29-1.14,1.63-1.34,4.68-3.54,8.51-4.89h0c.1-.04,3-1.23,6.07,2.03,.04,.04,.04,.11,0,.16-.02,.02-.05,.03-.08,.03-.91-.01-3.29-.22-4.47,1.2,0,0-.39,.4-.52,1.47-.03,.29-.04,.58-.04,.87,0,.13-.06,.25-.15,.34-.14,.13-.32,.22-.5,.27h0c-.67,.23-1.75,.73-1.84,.77-1.67,.85-4.19,2.41-6.21,4.46h-.02Zm6.68,6.18s-.23,1.96-1.84,.98c-.67-.39-1.32-.81-1.95-1.27-.63-.49-1.19-1.06-1.67-1.7l-.13-.18c-.28-.34-.48-.74-.58-1.17-.17-.92,.74-1.67,1.33-2.27,.69-.7,1.45-1.33,2.26-1.89,1.21-.83,2.49-1.55,3.82-2.15l.32-.14s.7-.3,1.13,.23l.4,.46c.18,.18,.2,.46,.05,.67-.26,.36-2.19,2.69-3.14,8.42Zm7.06,2.29s-.04,.6-1,.88c-.47,.14-1.17,.2-2.2,.07-3.19-.4-2.31-2.87-2.31-2.87,1.17-5.37,2.89-7.8,3.28-8.3,.05-.06,.13-.09,.21-.08l1.02,.15,1.11,.16c.11,.02,.2,.12,.19,.23l-.3,9.76Zm1.56-11.47c-.17,0-.34-.01-.5-.02-.27-.01-.52-.04-.75-.06-.44-.04-.87-.11-1.3-.22-.82-.17-1.54-.66-2.02-1.36-.19-.26-.34-.56-.43-.87-.11-.4-.07-.83,.11-1.21,.12-.24,.28-.46,.47-.65,.75-.78,1.93-.93,2.49-.62s1.53,.4,1.53,.4c0,0,1.9,.11,4.64,.08,.68-.04,1.34,.25,1.76,.79,.42,.61,.58,1.36,.47,2.09-.11,.74-.71,1.31-1.45,1.39-1.66,.19-3.33,.28-5,.27h-.02Zm6.85,10.65c-.38,.54-1.17,.84-1.79,1.04-.71,.21-1.45,.34-2.2,.38-.64,.05-1.4,.14-1.91-.35-.18-.17-.3-.39-.33-.64-.35-2.95,.03-6.34,.03-6.34l.28-2.7c.01-.11,.1-.2,.22-.2l2.92-.02c.09,0,.17,.05,.21,.14l2.79,6.99c.15,.57,.15,1.21-.2,1.7h0Zm5.86-4.03c-.39,.91-1.72,1.85-1.72,1.85-.6,.37-1.35,.56-1.92,.04-.21-.2-.38-.44-.51-.7l-.14-.27c-.21-.44-.42-.87-.6-1.32s-.33-.87-.47-1.32c-.25-.77-.47-1.56-.67-2.35-.07-.29-.14-.58-.21-.88-.02-.09,.02-.19,.1-.23,.54-.32,1.06-.69,1.55-1.1,.09-.07,.22-.06,.31,.02l.5,.56s2.44,2.73,3.46,3.91c.91,1.06,.33,1.79,.33,1.79h0Zm3.27-3.57c-.29,.47-.68,.88-1.14,1.2-.15,.12-.37,.1-.5-.05l-.66-.72-4.98-5.4s-.04-.08-.05-.12c-.07-.61-.3-1.19-.66-1.68-.19-.29-.4-.56-.63-.82-.15-.17-.31-.32-.49-.45l-.06-.05c-.41-.3-.87-.5-1.37-.59-.23-.04-.47-.04-.7,0-.24,.02-.49-.06-.68-.21-.11-.08-.21-.18-.29-.28l-.14-.16c-.12-.11-.21-.25-.27-.41-.12-.44,.21-.75,.46-1.06,.31-.4,.63-.79,.97-1.17,.3-.38,.78-.58,1.26-.54,.32,.06,.61,.23,.82,.47l2.77,2.86,1.11,1.14,1.23,1.27,3.47,3.58,.27,.31c1.23,1.39,.27,2.9,.27,2.9h0Zm2.27-8.07c-.02,.35-.06,.78-.12,1.27-.1,.78-.25,1.55-.46,2.31-.07,.34-.23,.75-.57,.74-.38,0-.7-.29-.96-.54-.55-.53-1.09-1.08-1.63-1.62l-.87-.89-1.25-1.27-.32-.32c-.27-.27-.53-.55-.8-.82-.56-.57-1.12-1.14-1.68-1.72-.62-.64-1.24-1.27-1.87-1.9-.23-.23-.58-.48-.74-.78-.13-.28-.11-.61,.06-.87,.02-.04,.05-.07,.07-.11,.05-.07,.11-.13,.17-.19l.4-.44,.91-1c.13-.17,.28-.33,.45-.47,.12-.08,.26-.12,.41-.13,.55-.04,1.08,.33,1.48,.67,1.56,1.29,5.99,4.72,5.99,4.72,0,0,1.24,.79,1.32,2.21v.21h0s.04,.36,0,.94h0Z" fill="#e0222e"></path></g><g><g><g><path d="M64.49,23.81l.85,1.54-4.65,2.57,.73,1.33,4.13-2.28,.84,1.53-4.13,2.28,1.02,1.84-1.81,1-3.44-6.23,6.46-3.57Z"></path><path d="M76.23,26.51l-1.13-.99-4.06,1.65-.12,1.5-2.06,.84,.72-7.97,2.64-1.07,6.07,5.21-2.05,.83Zm-5.05-1.07l2.6-1.06-2.35-2.05-.25,3.11Z"></path><path d="M86.83,21.37l-1.23-4.95,1.99-.49,1.71,6.91-2.93,.73-5.3-3.94,1.23,4.95-2,.5-1.71-6.91,2.94-.73,5.3,3.94Z"></path><path d="M96.85,14.62l8.57-.35,.07,1.75-3.25,.13,.22,5.36-2.06,.08-.22-5.36-3.26,.13-.07-1.75Z"></path><path d="M107.92,17.84c.2-2.35,1.94-3.6,4.93-3.34,2.98,.26,4.49,1.79,4.29,4.13-.2,2.35-1.95,3.62-4.93,3.36-2.99-.26-4.49-1.79-4.29-4.15Zm7.07,.61c.11-1.23-.53-2.05-2.29-2.2-1.75-.15-2.52,.53-2.62,1.78-.11,1.25,.54,2.07,2.28,2.22,1.75,.15,2.53-.55,2.64-1.79Z"></path><path d="M129.41,17.57l-4.18,2.13,2.62,4.82-2.53-.57-1.82-3.36-1.99,1.01-.32,1.41-2.01-.46,1.57-6.95,2.02,.45-.7,3.12,4.34-2.29,3.02,.68Z"></path><path d="M139.29,20.99l-.55,1.52-5-1.81-.39,1.07,4.81,1.74-.55,1.52-4.81-1.74-.39,1.07,5,1.81-.55,1.52-6.94-2.51,2.42-6.7,6.94,2.51Z"></path><path d="M146.5,30.14l2.34-4.54,1.83,.94-3.27,6.33-2.69-1.39-1.39-6.47-2.34,4.54-1.84-.95,3.27-6.33,2.7,1.39,1.39,6.47Z"></path></g><g><path d="M57.53,179.5c-.31,.51,0,1.15,1.6,2.12,1.47,.88,1.97,.87,2.2,.49,.27-.44,.04-.69-1.7-1.9-2.37-1.66-3.16-2.81-2.35-4.16,.77-1.27,2.49-1.02,4.6,.25,2.35,1.41,3.27,2.94,2.51,4.33l-1.85-1.11c.32-.54-.14-1.1-1.51-1.92-1.3-.78-1.72-.74-1.92-.41-.23,.38,0,.67,1.57,1.8,2.14,1.52,3.5,2.55,2.54,4.15-.94,1.56-2.66,1.15-4.83-.16-2.47-1.49-3.6-2.93-2.72-4.59l1.85,1.12Z"></path><path d="M66.2,183.1c.94-2.17,2.98-2.79,5.74-1.6,2.75,1.19,3.69,3.12,2.76,5.28-.94,2.17-3,2.81-5.75,1.62-2.76-1.19-3.69-3.12-2.75-5.3Zm6.52,2.83c.49-1.14,.14-2.11-1.48-2.82-1.61-.7-2.56-.29-3.05,.85-.5,1.15-.14,2.13,1.46,2.83,1.61,.7,2.58,.28,3.07-.87Z"></path><path d="M82.54,185.26c2.53,.71,3.65,2.19,3.36,4.01l-2.11-.59c.04-.67-.45-1.38-1.72-1.73-1.47-.41-2.38,.11-2.71,1.31-.34,1.21,.18,2.14,1.64,2.55,1.27,.35,2.06,0,2.37-.61l2.11,.59c-.7,1.72-2.43,2.41-4.96,1.71-2.75-.77-3.9-2.47-3.25-4.82,.66-2.34,2.52-3.19,5.27-2.42Z"></path><path d="M91.13,187.38l-1.26,7-2.03-.37,1.26-7,2.03,.37Z"></path><path d="M93.28,191.41c.19-2.35,1.92-3.6,4.91-3.36,2.98,.24,4.5,1.77,4.3,4.11-.19,2.35-1.93,3.62-4.91,3.38-2.99-.24-4.5-1.77-4.3-4.13Zm7.07,.58c.1-1.23-.54-2.04-2.3-2.19-1.75-.14-2.51,.55-2.62,1.79-.1,1.25,.55,2.06,2.29,2.21,1.75,.14,2.53-.56,2.63-1.81Z"></path><path d="M107.35,193.3c.03,.6,.64,.96,2.51,.86,1.71-.09,2.12-.38,2.09-.83-.03-.52-.35-.59-2.47-.62-2.89-.05-4.2-.56-4.28-2.14-.08-1.48,1.49-2.24,3.95-2.36,2.74-.14,4.36,.6,4.5,2.18l-2.15,.11c-.03-.63-.73-.83-2.33-.75-1.51,.08-1.84,.35-1.82,.73,.02,.44,.37,.56,2.31,.62,2.62,.06,4.33,.15,4.43,2.02,.09,1.82-1.56,2.44-4.09,2.57-2.88,.15-4.63-.42-4.82-2.29l2.16-.11Z"></path><path d="M117.06,193.29l1.97-.29,.22,1.53-1.97,.29-.23-1.53Z"></path><path d="M124.91,185.93c2.55-.62,4.26,.12,4.9,1.85l-2.13,.52c-.29-.61-1.07-.98-2.35-.67-1.48,.36-2.02,1.26-1.73,2.48,.3,1.22,1.21,1.78,2.68,1.42,1.28-.31,1.8-1.01,1.77-1.7l2.13-.52c.23,1.84-.94,3.3-3.49,3.92-2.78,.68-4.62-.24-5.2-2.61-.58-2.36,.63-4.01,3.41-4.69Z"></path><path d="M132.62,187.72c-.87-2.2,.14-4.09,2.93-5.19,2.78-1.1,4.82-.4,5.68,1.79,.87,2.2-.14,4.11-2.92,5.21-2.79,1.1-4.82,.4-5.69-1.81Zm6.61-2.61c-.45-1.15-1.39-1.6-3.03-.95-1.63,.64-2.02,1.6-1.56,2.76,.46,1.17,1.41,1.61,3.03,.97,1.63-.64,2.02-1.62,1.56-2.78Z"></path><path d="M145.61,186.25l-3.58-6.16,2.78-1.62,4.52,2.84-.24-5.33,2.78-1.62,3.58,6.16-1.78,1.03-2.59-4.46,.28,5.81-1.65,.96-4.91-3.11,2.6,4.46-1.79,1.04Z"></path></g></g><path d="M48.34,171.86c-18.95-16.08-30.98-40.07-30.98-66.86S30.03,52.95,49.85,36.88" fill="none" stroke="#ea0029" stroke-miterlimit="10" stroke-width="2.22"></path><path d="M160.16,36.89c19.82,16.07,32.48,40.61,32.48,68.11s-12.03,50.79-30.98,66.87" fill="none" stroke="#ea0029" stroke-miterlimit="10" stroke-width="2.22"></path></g></g></g></g></svg>