<svg xmlns="http://www.w3.org/2000/svg" width="576" height="576" viewBox="0 0 576 576"><path d="M576,288c0,159.053-128.945,288-288,288S0,447.04,0,288,128.945,0,288,0,576,128.945,576,288" fill="#fff"/><path d="M300.717,37.467C155.076,37.467,37,155.526,37,301.167s118.05,263.7,263.7,263.7,263.7-118.05,263.7-263.676S446.354,37.515,300.7,37.515m275.9,263.7c0,152.4-123.526,275.9-275.9,275.9S24.82,453.543,24.82,301.167s123.522-275.9,275.9-275.9,275.9,123.526,275.9,275.9" transform="translate(-12.812 -13.044)" fill="#0032a0"/><path d="M265.176,378.819c-13.285,15.482-24.786,42-26.924,56.054a1.708,1.708,0,0,0,1.326,1.829c9.7,2.685,37.152,9.555,48.526,11.031a1.7,1.7,0,0,0,1.882-1.3c4.437-20.451,12.729-37.6,18.012-46.151a1.713,1.713,0,0,0-.919-2.521c-23.508-7.751-36.054-16.527-39.75-19.12a1.635,1.635,0,0,0-2.153.155" transform="translate(-122.979 -195.281)" fill="#0032a0"/><path d="M474.434,299.564c51.661,0,88.639,33.794,94.585,39.745a2.134,2.134,0,0,0,2.134.532,151.805,151.805,0,0,0,15.167-5.54,2.124,2.124,0,0,0,.808-3.387C578.308,320.8,540.067,281,474.506,281h-.334c-65.561,0-103.792,39.789-112.621,49.919a2.129,2.129,0,0,0,.808,3.387,152.262,152.262,0,0,0,15.177,5.54,2.134,2.134,0,0,0,2.129-.532c5.951-5.951,42.919-39.745,94.58-39.745Z" transform="translate(-186.354 -145.049)" fill="#0032a0"/><path d="M472.059,587.979c50.055,0,86.878-34.534,92.045-42.092,0,0,23.407-31.748,23.407-82.528S564.1,381.111,564.1,381.111c-4.161-6.739-41.99-42.091-92.045-42.091h-.368c-50.055,0-87.889,35.318-92.045,42.091,0,0-23.407,31.448-23.407,82.248s23.407,82.528,23.407,82.528c5.172,7.543,41.99,42.092,92.045,42.092Z" transform="translate(-183.888 -174.999)" fill="#0032a0"/><path d="M448.073,241.835c73.863,0,115.345,47.462,122.462,56.257a2.148,2.148,0,0,0,2.651.547,117.821,117.821,0,0,0,11.873-7.073,2.095,2.095,0,0,0,.513-3.043C575.058,276.161,530.016,223.6,447.908,223.6h-.039a176.279,176.279,0,0,0-137.663,64.922,2.109,2.109,0,0,0,.513,3.043,117.818,117.818,0,0,0,11.873,7.073,2.143,2.143,0,0,0,2.646-.547c7.122-8.8,48.6-56.257,122.467-56.257Z" transform="translate(-159.901 -115.42)" fill="#0032a0"/><path d="M480.238,388.041s-2.937.276-3.454-3.779a23.794,23.794,0,0,1,11.534-1.224s-6.13,1.64-8.08,5m-16.169,15.821c-12.918,4.137-14.911-5.1-11.994-8.036a5.744,5.744,0,0,0-4.054,8.191c4.954,9.192,21.7-4.354,26.61,3.387h0l4.678,2.8-3.972-1.185c-2.8-.585-6.836-1.427-10.339-.3l-2.25-1.693a12.014,12.014,0,0,0-.315,2.961h.034c-5.032,4.427.813,9.067.813,9.067a4.8,4.8,0,0,1,1.016-4.625s-1.239,5.912,5.032,9.541c0,0-3.648-7.978,1.451-8.834,1.935-.315,2.763,1.1,5.37,2.09,4.354,1.577,6.623-1.993,6.672,1.771.044,2.874-.711,4.069-3.2,6.831a23.736,23.736,0,0,1-7.378,5c-5.274,2.163-12.284,4.233-14.379-1.935,0,0-5.259,4.19-1.592,7.257,0,0-12.579-7-14.669-9.105s-1.292-6.444-5.022-7.446c0,0-.189-5.985-2.9-8.549,0,0,2.579-12.613-6.991-13.218,0,0,2.371,3.387.624,5.385s-.624,3.508.847,6.812c0,0-3.048-2.114-3.774-5.041s-1.224-4.795-4.291-4.741c0,0-4.441-4.906-9.057,1.04,0,0,4.354-1.084,4.461,2.651s4.354,8.186,6.2,9.546c0,0-7.823-3.425-12.182-.624,0,0-5.453-.793-6.028,5.632.3-.223,4.354-3.246,5.544-1.3s2.066,2.482,5.133,2.734,7.373,2.9,7.939,6.5c0,0-8.733-1.572-9.444,2.9a4.62,4.62,0,0,1-5.085.261s1.771,8.617,20,3.754c0,0,12.777,3.687-.537,8.254,0,0,11.766.4,19.531,12.671,4.354-.484,27.209-16.721,27.209-16.721s-11.994,16.933-29.15,22.115c-21.06,6.362-31.414-6.773-36.4-1.809,0,0-7.552.382-7.833,6.507,0,0,4.291-3.483,5.54-1.142,1.422,2.646,8.094,2.327,11.539,1.988,0,0-11.031,2.013-11.466,6.773,0,0-6.164,3.909-3.662,9.309,0,0,1.974-3.716,5.041-3.692s5.322-.324,9.531-4.4c0,0-7.949,11.292-2.9,16.933a5.627,5.627,0,0,1,5.046-4.838c3.793-.523-.077-7.852,9.555-7.02a14.506,14.506,0,0,1-1.548,6.715s2.375,2.037-3.034,4.678c0,0,7.228,1.959,11.128-5.878,1.219-2.458,4.011-14.848,13.256-3.329,0,0,3.125-8.675,15.811-10.605,11.2-1.708,3.721,8.675-1.089,11.253,0,0,24.8-2.119,27.722,37.7,0,0-1.616-16.716-12.39-25.947-7.949-6.807-22.308-9.536-37.35,1.451,0,0,9.086-.266,6.135,8.423-3.159,9.308,12.816,19.676,3.387,22.313-11.171,3.135-20.891-23.407-29.638-12.5,0,0,5.172-1.074,7.741,3.213,0,0-9.038-5.414-13.184,4.456.227-.073,6.585-3.512,11.476,2.477,0,0-12.1-6.241-15.235,6.773,0,0,3.924-3.8,7.63-.968,1.984,1.519,5.685-1.785,9.483,1.843,0,0-12.1-2.859-12.86,9.241,0,0,4.451-4.756,11.515-.281,8.147,5.157,13.416-.89,13.416-.89l-2.371,6.817s10.644-5.588,17.591-3.556c8.95,2.622,13.189,2.148,14.031-5.472,4.354-2.511,7.509,3.537,7.509,3.537,1.016-8.592-5.525-9.241-7.315-10.349-2.9-1.785,6.744-4.9,6.744-4.9a34.483,34.483,0,0,1-6.594-2.859c-9.139-5.22-3.246-13.711,5.753-8.026a156.472,156.472,0,0,1,13.822,9.608c-2.9,2.419-5.569,9.966-2.506,16.28,0,0,2.506-9.381,6.222-1.858l.024-.034c3.87,6.614,9.357,11.524,22.42,18.332,7.291,3.8-4.674,14.606-18.051,7.349-10.794-5.844-13.716,4.146-13.716,4.146s4.635-3.387,7.93-1.05c0,0-9.715-.532-10.644,10.973.373-.223,2.129-3.943,5.109-3.1,0,0,3.788-6.023,8.394-2.845,0,0-9.192-1.093-10.223,14.674,0,0,3.261-5.578,7.141-5.177,0,0,2.419-8.225,9.1-3.914,0,0-8.2-3.73-8.559,13.01,0,0,3.116-5.724,6.541-4.582,3.038,1.026,13.508,4.659,24.732-6.923h5.806s1.534-10.262,6.652-13.74a8.1,8.1,0,0,1,2.317-1.006,6.339,6.339,0,0,1,2-.1,4.89,4.89,0,0,1,3.362,2.738s1.331-5.39-3.566-11.8c6.846-4.074,6.517-10.513,6.517-10.513-5.748,5.583-15.158,3.754-19.628,1.858-4.7-2.124-10.029-6.464-4.282-14.384,8.413-11.611,6.948-21.9,7.083-24.5a20.38,20.38,0,0,1,2.419,12.69s9.541,8.554,26.532,4.64c8.97-2.2,13,9.846,6.12,14.6-6.773,4.693-12.25-2.55-12.25-2.55,3.561,9.367,17.9,10.2,22.807.261,4.712-9.584-3.164-17.828-6.159-19.5,8.322-10.45,9.87-24.786-3.6-46.93l-1.858-3.058c-4.049-7.886,6.212-14.176,11.849-8.554,5.423,5.4-.256,11.611-.256,11.611,8.805-5.032,6.29-19.352-3.614-22.125a13.88,13.88,0,0,0-15.908,5.806,92.8,92.8,0,0,1-6.739-13.547c-1.727-5.728,5.806-8.336,8.583-3.924,2.608,4.175-1.848,7.223-1.848,7.223,6.241-1.868,6.739-11.2.968-14.379a8.946,8.946,0,0,0-8.965-.077,14.669,14.669,0,0,1,3.232-7.083c1.451-1.766,2.68-2.308,3.87-1.7,4.054,2.114,7.625,2.632,10.615,1.548a9.323,9.323,0,0,0,5.162-4.727l.324-.764-.672.484a6.316,6.316,0,0,1-5.7,1.19,6.638,6.638,0,0,1-1.969-.968,13.116,13.116,0,0,0,9.275-5.806c2.376-3.716,2.627-8.447,2.419-11.757a32.724,32.724,0,0,0-1.016-6.352l-.193-.677-.237.663c-2.25,6.227-6,7.576-10.339,9.139-.939.339-1.9.682-2.869,1.084a8.564,8.564,0,0,0,1.321-7.567,7.678,7.678,0,0,0-2.559-4.1s1.045,4.354-3.822,8.921a26.156,26.156,0,0,0-3.9,4.243,9.125,9.125,0,0,0-1.33,7.514,37.659,37.659,0,0,0-3.087,2.3s-11.611,8.621-6.372,27.369c2.9,10.4,9.337,19.391,14.9,28.7a17.5,17.5,0,0,0-16.072,10.044c-5.428,10.692,3.038,24.592,14.809,22.739,0,0-12.1-2.109-9.5-12.956,2.206-9.139,16.029-10.731,20,.619,7,20.03-16.9,33.068-35.826,8.085-10.678-14.1-30.557-26.044-20.32-39.861,6.981,10.745,20.32,4.727,20.32,4.727-15.1-8.443-7.006-24.51-7.006-24.51l6.846,5.366c6.5-20.068-4.562-31.322-4.354-31.332,6.29-.184,10.305,7.233,10.305,7.233C539.8,404.089,526,398.588,526,398.588c8.225-7.412,14.558,1,14.558,1,.929-14.359-13.643-18.844-13.643-18.844l7.688-2.38c-13.861-16.024-30.857-4.978-30.857-4.978,3.387-4.9,1.156-8.921,1.156-8.921s-1.989,5.38-12.787,6.207c-9.647.735-10.7,7.064-10.7,7.064a16.327,16.327,0,0,1,9.725-.677s-10.755,1.8-14.171,3.8c-3.991,2.332-2.782,3.454-7.586,4.543-5.264,1.19-8.921,2.24-9.454,2.714-.692.6-.885,1.34-.145,4.132l5.54-2.419s-2,5.278-6.207,4.1c0,0-2.317,5.593,1.655,6.5.3.924.968,2.574,2.037,2.767a2.84,2.84,0,0,1,1.026-2.84,13.745,13.745,0,0,0,5.907-1.108c4.243-1.635,14.655-5.627,11.026,6.773,0,0-3.45-6.386-16.677-2.143" transform="translate(-206.682 -188.131)" fill="red"/><path d="M649.361,894.106a12.783,12.783,0,0,0-2.061.547c.058.44.131.885.218,1.326l3.275,16.106c.087.435.193.876.31,1.3a17.911,17.911,0,0,0,2.758-.353c2.724-.547,9.081-2.54,7.339-11.128-1.529-7.5-6.541-8.708-11.839-7.809" transform="translate(-334.13 -461.391)" fill="#0032a0"/><path d="M595.67,904.13c-.184.619-.373,1.195-.523,1.616l-3.067,8.873,7.46-.072-3.314-8.805c-.16-.426-.353-1-.556-1.611" transform="translate(-305.626 -466.703)" fill="#0032a0"/><path d="M511.513,854.549a15.343,15.343,0,0,0-1.3-4.707l-1.838-4.18-10.789-8.438a23.03,23.03,0,0,0-4.645-2.985l6.686-2.937a9.123,9.123,0,0,0,2.593,2.825l4.736,3.667c1.035.861,2.018,1.664,2.782,2.366,0-.784.034-1.688.082-2.792l.513-6.885A7.584,7.584,0,0,0,510,826.75l5.322-2.346a30.106,30.106,0,0,0-1.084,6.091l-1.151,12.579,2.022,4.606a15.307,15.307,0,0,0,2.583,4.146Zm-30.19,9.091a80.034,80.034,0,0,1-8.51,1.219,11.959,11.959,0,0,0-.281-4.9l-3.227-15.893a12.7,12.7,0,0,0-1.645-4.586c1.49-.3,5.274-1.539,8.738-2.24,8.786-1.785,15.453,1.577,17.132,9.846,1.843,9.062-2.83,14.65-12.207,16.556M458.018,866.3a12.548,12.548,0,0,0-.842-4.49l-.672-1.843-10.16.1-.6,1.771a12.743,12.743,0,0,0-.8,4.586l-6.29.058a23.93,23.93,0,0,0,2.98-5.946l5.515-14.7c1.156-3.125,1.408-4.5,1.093-5.506l4.838-.044a1.582,1.582,0,0,1,1.451.968l7.935,19.115a37.308,37.308,0,0,0,2.971,5.859Zm-24.553-21.544a14.834,14.834,0,0,0-5.888-2.133l-4.809-.914c-.073.31-.145.619-.2.929l-.968,5.23,7.581,1.451a.484.484,0,0,1,.373.556l-.74,3.914a17.378,17.378,0,0,0-5.457-1.7l-2.463-.484-1.364,7.18c-.058.31-.111.629-.155.939l4.32.822a18.724,18.724,0,0,0,7.485.165l-1.708,4.882-10.16-1.935-2.337-.445-4.354-.823a14.869,14.869,0,0,0,1.587-4.6l3.053-16.15a15.047,15.047,0,0,0,.208-4.838l16.895,3.2Zm-27-1.548c-1.655,3.261-5.24,3.953-8.084,3.57.527,5.767,2.5,11.757,4.935,12.744a4.838,4.838,0,0,1-4.838.455,8.509,8.509,0,0,1-4.132-5.186,33.765,33.765,0,0,1-1.5-11.819.484.484,0,0,1,.663-.4c2.593,1.069,5.961,1.7,7.431-1.558,1.345-2.966.063-5.385-2.835-6.773a8.855,8.855,0,0,0-2.492-.808c-.218.4-.421.8-.6,1.214l-6.773,15a15.048,15.048,0,0,0-1.355,4.688l-6.178-2.8a15.205,15.205,0,0,0,2.627-4.107l6.773-15a14.769,14.769,0,0,0,1.326-4.62c2.9,1.166,4.94,1.727,7.741,3,5.249,2.371,10.16,6.667,7.257,12.385m177.829-34.965c-14.514-9.076-26.513-13.189-37.911-16.982a3.6,3.6,0,0,0-3.677.847c-7.7,7.7-43.345,38.753-93.346,38.753h-.426c-50.007,0-85.634-31.056-93.341-38.753a3.614,3.614,0,0,0-3.687-.847c-11.389,3.793-23.373,7.906-37.906,16.982a3.643,3.643,0,0,0-.968,5.322c10.508,13.5,56.606,62.9,136.038,62.9h.121c79.456,0,125.534-49.349,136.038-62.9a3.638,3.638,0,0,0-.967-5.322" transform="translate(-161.172 -408.336)" fill="#0032a0"/><path d="M214.8,298.044a74.221,74.221,0,0,1-25.192-2.419,1.021,1.021,0,0,1-.513-1.582c3.329-4.964,6.251-11.611.174-16.232-5.511-4.166-11.2-2.7-15.322,2.758a22.869,22.869,0,0,0-2.835,4.838c.711.643,1.534,1.268,2.293,1.843q13.972,10.552,27.93,21.152a30.731,30.731,0,0,0,9.057,4.969q-4.253,5.859-8.351,11.815a33.867,33.867,0,0,0-7.31-7.436q-13.963-10.591-27.935-21.167a32.324,32.324,0,0,0-8.965-4.906c3.6-5.646,5.617-9.705,9.521-15.027,7.218-9.884,18.811-17.853,29.309-9.091,6,4.945,5.661,12.956,3.387,18.515,12.294,1.737,25.85.842,29.261-3.837a9.364,9.364,0,0,1-1.553,9.788c-2.458,3.024-7.006,5.457-12.961,6.033" transform="translate(-81.47 -136.166)" fill="#0032a0"/><path d="M326.147,188.825q-8.157-5.994-16.261-11.911c-.745-.547-1.785-1.384-2.821-2.216.382,1.282.692,2.6.914,3.512q2.458,9.715,4.988,19.527,6.439-4.688,13.179-8.912m-18.438,24.384q-3.972-16.832-7.741-33.383c-1.64-7.054-2.816-9.812-4.528-11.229q4.2-3.029,8.539-5.849a3.387,3.387,0,0,1,3.793.111q18.351,12.579,37.031,25.729c3.319,2.264,9.081,6.043,12.579,7.572q-7.17,3.546-14.021,7.562a28.544,28.544,0,0,0-6.773-7.151l-3.387-2.5q-9.313,5.661-18.061,12.2c.348,1.287.7,2.584,1.055,3.87a27.659,27.659,0,0,0,3.958,9.236q-5.322,4.079-10.387,8.481a57.818,57.818,0,0,0-2.051-14.674" transform="translate(-152.503 -83.737)" fill="#0032a0"/><path d="M430.2,140.738c-2.835-11.326-5.806-22.792-8.709-34.089a28.54,28.54,0,0,0-4.04-9.347q5.225-1.974,10.533-3.716a3.28,3.28,0,0,1,2.9.406c10.092,7.983,20.32,16.551,30.441,25.371,1.345,1.1,4.045,3.411,5.68,5.056-.484-1.451-1.2-4.079-1.5-5.4-1.8-7.668-3.5-15.095-5.322-22.739a32.71,32.71,0,0,0-3.948-9.676q5.864-1.2,11.781-2.114a29.493,29.493,0,0,0,.823,10.266c2.671,11.442,5.206,22.642,7.809,34.113a32.629,32.629,0,0,0,3.788,9.937q-5.448.774-10.866,1.814a2.071,2.071,0,0,1-1.756-.484c-10.644-9.575-21.452-18.83-32.11-27.447a52.98,52.98,0,0,1-4.969-4.069,49.981,49.981,0,0,1,1.809,5.806c1.935,7.741,3.982,15.69,5.893,23.465a32.739,32.739,0,0,0,3.827,9.613q-5.544,1.751-10.983,3.774a32.338,32.338,0,0,0-1.06-10.552" transform="translate(-215.483 -43.613)" fill="#0032a0"/><path d="M574.741,105.554c2.288-18.748,18.128-28.109,33.978-26,8.225,1.074,14.03,4.354,16.42,6.638q-.673,5.6-1.364,11.181c-2.056-2.8-8.984-8.481-17.262-9.526-12.937-1.63-18.69,7.518-19.836,16.9-1.577,12.879,5.559,21.9,16.764,23.315a24.964,24.964,0,0,0,10.136-.968q.755-6.222,1.519-12.448c-.556-.073-1.1-.15-1.655-.232a33.2,33.2,0,0,0-11.128,0q.484-4.224,1.031-8.438a.968.968,0,0,1,1.069-.91q10.92,1.389,21.834,3.067-1.892,15.424-3.774,30.857-2.9-1.645-5.864-3.275a3.285,3.285,0,0,0-2.288-.242,44.055,44.055,0,0,1-14.267.677c-14.122-1.771-27.577-11.887-25.3-30.553" transform="translate(-296.55 -40.912)" fill="#0032a0"/><path d="M717,147.293q6.662-16.212,13.334-32.415a32.431,32.431,0,0,0,2.54-9.928,243.1,243.1,0,0,1,33.915,13.866q-1.969,4.775-3.929,9.555c-3.387-3.44-5.477-5.075-11.157-7.567q-4.785-2.076-9.647-3.938a17.7,17.7,0,0,0-.856,1.882l-4.33,10.518q7.693,2.937,15.172,6.4a1.04,1.04,0,0,1,.576,1.316q-1.621,3.933-3.232,7.862c-2.2-1.974-4.756-3.706-10.644-6.125-1.65-.672-3.3-1.326-4.964-1.959q-2.961,7.209-5.927,14.408c-.256.639-.518,1.272-.784,1.935q4.417,1.684,8.776,3.546c7.015,3.019,11.384,3.87,15.274,4.233q-2.811,4.659-5.632,9.318A243.279,243.279,0,0,0,711.7,156.442a34.9,34.9,0,0,0,5.293-9.115" transform="translate(-367.372 -54.174)" fill="#0032a0"/><path d="M838.8,224.7a74.2,74.2,0,0,1,2.9-25.158,1.026,1.026,0,0,1,1.6-.484c4.891,3.421,11.491,6.473,16.217.484,4.277-5.428,2.9-11.128-2.458-15.371a22.907,22.907,0,0,0-4.77-2.937c-.648.7-1.292,1.509-1.882,2.259L828.7,211.016a30.61,30.61,0,0,0-5.148,8.955q-5.767-4.354-11.65-8.563a33.984,33.984,0,0,0,7.577-7.175l21.728-27.5a32.749,32.749,0,0,0,5.095-8.873c5.573,3.711,9.589,5.806,14.834,9.807,9.739,7.417,17.485,19.159,8.53,29.512-5.061,5.9-13.063,5.4-18.583,3.024-1.974,12.255-1.34,25.826,3.275,29.333a9.351,9.351,0,0,1-9.749-1.751c-2.98-2.506-5.322-7.107-5.806-13.063" transform="translate(-419.095 -86.648)" fill="#0032a0"/><path d="M911.254,309.4l9.676-6.706c-1.142,6.29.484,14.48,3.769,19.246,2.942,4.248,6.609,4.8,9.749,2.622,9.4-6.522-7.547-25.526,7.257-35.8,8.757-6.062,18.806-1.331,25.279,8.007a30.749,30.749,0,0,1,5.259,12.318l-9.192,6.382c.339-4.1-.285-10.726-3.551-15.429-2.758-3.982-6.29-5.2-9.381-3.067-8.554,5.927,8.438,25-7.257,35.865-8.888,6.159-18.786,2.482-25.574-7.315-4.214-6.072-6.014-12.855-6.048-16.116" transform="translate(-470.373 -147.655)" fill="#0032a0"/><path d="M113.942,711.145l27.993-9.357a26.078,26.078,0,0,0,7.785-3.948l9.8,29.324-8.249,2.758a27.266,27.266,0,0,0-1.809-11.128l-2.792-8.375-1.659.561-9.076,3.034,4.393,13.14a.832.832,0,0,1-.484,1.079l-6.773,2.269c-.044-2.458-.484-4.988-2.167-10.073l-1.418-4.248-12.444,4.156a26.113,26.113,0,0,0-7.847,3.958l-3.87-11.612a26.1,26.1,0,0,0,8.651-1.548" transform="translate(-54.365 -360.218)" fill="#0032a0"/><path d="M185.181,822.582c8.767-5.409,11.844-15.085,6.894-23.112-4.635-7.523-13.435-8.786-21.239-3.977-8.6,5.322-11.858,14.935-6.773,23.223,4.528,7.344,13.474,8.6,21.113,3.87m-21.017-34.6c12.3-7.581,26.755-3.909,34.689,8.96,7.654,12.424,4.838,25.86-7.117,33.228-12.3,7.591-26.493,4.069-34.5-8.917-7.62-12.366-5.032-25.9,6.928-33.272" transform="translate(-78.936 -404.73)" fill="#0032a0"/><path d="M263.49,913.306c7.078-7.489,7.552-17.635.7-24.113-6.415-6.072-15.24-5.027-21.544,1.64-6.938,7.335-7.6,17.49-.552,24.157,6.29,5.927,15.235,4.838,21.4-1.684m-29.232-28.018c9.928-10.5,24.839-10.678,35.8-.285,10.6,10.02,11.355,23.707,1.7,33.939-9.928,10.5-24.553,10.765-35.633.281-10.547-9.981-11.549-23.707-1.892-33.935" transform="translate(-117.467 -452.859)" fill="#0032a0"/><path d="M334.715,969.789l14.867-25.5c.3-.518.518-1.016.823-1.534l-3.067-1.785a27.812,27.812,0,0,0-10.508-4.04l4.369-7.514,33.76,19.691-4.383,7.514a29.21,29.21,0,0,0-8.709-7.156l-3.058-1.785a14.05,14.05,0,0,0-.939,1.451L343,974.622a25.957,25.957,0,0,0-3.28,8.157L329.2,976.645a28.241,28.241,0,0,0,5.482-6.875" transform="translate(-169.93 -479.757)" fill="#0032a0"/><path d="M445.616,1017.491c1.718-5.772-2.869-9.58-9.357-11.728a.484.484,0,0,1-.358-.668l1.326-4.422a.518.518,0,0,1,.663-.358c4.93,1.258,8.767-.6,10.16-5.216,1.243-4.166-1.326-7.741-6.454-9.26a8.035,8.035,0,0,0-2.83-.353l-10.789,36.17a22.765,22.765,0,0,0,4.079,1.771c6.009,1.863,11.8.029,13.576-5.936m-29.43,5.467c1.718-2,2.811-4.959,3.725-8.036l8.307-27.833a23.505,23.505,0,0,0,1.268-8.709c5.443,1.418,9.013,1.853,12.671,2.946,9.875,2.942,18.094,7.7,15.3,17.064-1.616,5.385-6.444,7.3-11.07,6.894,4.978,2.042,11.084,7.562,8.917,14.814-3.672,12.308-16.474,10.508-23.465,8.428a157.946,157.946,0,0,1-15.656-5.578" transform="translate(-214.838 -505.03)" fill="#0032a0"/><path d="M543.609,1032.925l-4.8-16.2c-.218-.75-.484-1.834-.75-2.9-.406,1.05-.871,2.095-1.19,2.806l-6.614,15.482Zm-24.723,6.067,11.819-25.594c2.5-5.482,3.121-7.92,2.7-9.759l8.709.556a2.821,2.821,0,0,1,2.492,1.964l11.7,35.279a70.105,70.105,0,0,0,4.6,10.886l-13.353-.847a23.74,23.74,0,0,0-.885-8.172l-1-3.348-18.3-1.166-1.268,3.072a22.645,22.645,0,0,0-2.056,8.113l-11.244-.687a41.861,41.861,0,0,0,6.086-10.276" transform="translate(-264.702 -518.069)" fill="#0032a0"/><path d="M633.66,1040.8l-4.354-29.188a27.86,27.86,0,0,0-2.526-8.35l12.047-1.785a26.215,26.215,0,0,0,0,8.708l4.354,29.188a15.7,15.7,0,0,0,.314,1.7l6.957-1.026a34.963,34.963,0,0,0,12.845-4.141l-.044,9.275-29.595,4.408a28.424,28.424,0,0,0,0-8.791" transform="translate(-323.538 -516.954)" fill="#0032a0"/><path d="M720.134,1022.3l-9.971-27.771a28.1,28.1,0,0,0-4.112-7.7l11.457-4.112a26.821,26.821,0,0,0,1.727,8.554l9.971,27.771a14.2,14.2,0,0,0,.648,1.611l6.609-2.376c6.053-2.167,9.241-4.354,11.79-6.57l1.776,9.1-28.153,10.107a27.9,27.9,0,0,0-1.742-8.617" transform="translate(-364.456 -507.27)" fill="#0032a0"/><path d="M817.023,955.337c-8.5-12.347-5.7-26.459,6.865-35.11,4.4-3.038,8.82-4.533,11.936-4.727l5.385,7.823a22.466,22.466,0,0,0-14.514,3.488c-7.006,4.838-7.949,13.59-2.482,21.534,5.806,8.428,15.293,10.992,23.223,5.53,4.688-3.227,6.7-7.62,7.639-12.976l5.428,7.886c-1.4,3.387-5.128,8.225-10.644,12.037-12.231,8.423-24.887,6.091-32.86-5.486" transform="translate(-419.22 -472.572)" fill="#0032a0"/><path d="M901.942,913.593l-21.476-20.262a28.023,28.023,0,0,0-7.156-5l8.351-8.863a26.185,26.185,0,0,0,5.414,6.851l21.481,20.238a16.455,16.455,0,0,0,1.306,1.147l4.838-5.114a34.636,34.636,0,0,0,7.533-11.21l5.7,7.315-20.509,21.771a28.1,28.1,0,0,0-5.482-6.875" transform="translate(-450.794 -453.974)" fill="#0032a0"/><path d="M946.621,821.327l-15.859-9.72a26.182,26.182,0,0,0-8.022-3.425L929.1,797.8a28.011,28.011,0,0,0,6.7,5.593l15.351,9.405c5.7,3.5,12.618,6.56,17.374-1.2s-.619-13.324-6.333-16.822l-15.342-9.405a26.58,26.58,0,0,0-8.012-3.435l5.211-8.5a27.844,27.844,0,0,0,6.735,5.54l15.84,9.734c8.617,5.278,15.506,13.5,7.359,26.793-7.765,12.661-17.945,11.612-27.355,5.835" transform="translate(-476.309 -399.237)" fill="#0032a0"/><path d="M1013.78,710.56c-5.724-1.858-9.647,2.642-11.936,9.071a.484.484,0,0,1-.677.348l-4.393-1.451a.523.523,0,0,1-.344-.668c1.374-4.906-.392-8.786-4.978-10.271-4.137-1.335-7.741,1.147-9.4,6.236a8.049,8.049,0,0,0-.426,2.825l35.908,11.611a23.483,23.483,0,0,0,1.872-4.03c2-5.97.3-11.8-5.627-13.711m4.785,29.541c-1.969-1.756-4.891-2.9-7.949-3.909l-27.63-8.951a23.689,23.689,0,0,0-8.665-1.476c1.538-5.4,2.066-8.965,3.237-12.579,3.179-9.807,8.123-17.9,17.417-14.9,5.322,1.727,7.141,6.6,6.633,11.224,2.158-4.93,7.823-10.9,15-8.573,12.221,3.958,10.126,16.72,7.876,23.658a158.173,158.173,0,0,1-5.936,15.516" transform="translate(-502.934 -360.103)" fill="#0032a0"/><path d="M265.119,739.342c-13.285-15.482-24.781-42-26.919-56.054a1.708,1.708,0,0,1,1.321-1.843c9.7-2.685,37.152-9.555,48.531-11.031a1.693,1.693,0,0,1,1.877,1.3c4.437,20.451,12.729,37.6,18.017,46.151a1.713,1.713,0,0,1-.924,2.521c-23.508,7.741-36.034,16.541-39.75,19.115a1.64,1.64,0,0,1-2.153-.155" transform="translate(-122.952 -346.053)" fill="#0032a0"/><path d="M279.765,531.523a1.979,1.979,0,0,0-1.659-2.24c-17.553-2.956-35.56-7.741-48.381-11.021a1.853,1.853,0,0,0-2.221,1.151,84.374,84.374,0,0,0-2.85,14.176c-2.613,20.068-1.287,45.715,2.821,58.8a1.858,1.858,0,0,0,2.221,1.151c12.816-3.266,30.824-8.065,48.381-11.021a1.988,1.988,0,0,0,1.664-2.24,192.249,192.249,0,0,1-1.587-24.374h.029a192.412,192.412,0,0,1,1.582-24.379" transform="translate(-115.27 -267.489)" fill="#0032a0"/><path d="M850.417,378.842c13.281,15.482,24.781,42,26.919,56.054a1.708,1.708,0,0,1-1.326,1.843c-9.676,2.685-37.152,9.555-48.526,11.031a1.7,1.7,0,0,1-1.882-1.3c-4.432-20.451-12.729-37.6-18.012-46.151a1.713,1.713,0,0,1,.919-2.521c23.508-7.765,36.039-16.542,39.755-19.115a1.64,1.64,0,0,1,2.153.155" transform="translate(-416.74 -195.304)" fill="#0032a0"/><path d="M850.472,739.341c13.285-15.482,24.786-42,26.924-56.054a1.708,1.708,0,0,0-1.326-1.843c-9.7-2.685-37.152-9.555-48.526-11.031a1.693,1.693,0,0,0-1.882,1.3c-4.437,20.451-12.729,37.6-18.012,46.151a1.713,1.713,0,0,0,.919,2.521c23.508,7.741,36.039,16.542,39.75,19.115a1.635,1.635,0,0,0,2.153-.155" transform="translate(-416.771 -346.052)" fill="#0032a0"/><path d="M850.3,531.523a1.979,1.979,0,0,1,1.664-2.24c17.553-2.956,35.56-7.741,48.381-11.021a1.848,1.848,0,0,1,2.216,1.151,83.913,83.913,0,0,1,2.85,14.176c2.617,20.068,1.292,45.715-2.821,58.8a1.848,1.848,0,0,1-2.216,1.152c-12.816-3.266-30.824-8.065-48.381-11.021a1.979,1.979,0,0,1-1.664-2.24,192.13,192.13,0,0,0,1.582-24.374h-.029a192.411,192.411,0,0,0-1.582-24.379" transform="translate(-438.905 -267.489)" fill="#0032a0"/></svg>