<svg width="100" height="100" viewBox="0 0 100 100" fill="none" xmlns="http://www.w3.org/2000/svg">
<g clip-path="url(#clip0_1124_16429)">
<path d="M50 100C77.6142 100 100 77.6142 100 50C100 22.3858 77.6142 0 50 0C22.3858 0 0 22.3858 0 50C0 77.6142 22.3858 100 50 100Z" fill="black"/>
<path d="M50 2.53333C76.1714 2.53333 97.4667 23.8286 97.4667 50C97.4667 76.1714 76.1714 97.4667 50 97.4667C23.8286 97.4667 2.53333 76.1714 2.53333 50C2.53333 23.8286 23.8286 2.53333 50 2.53333ZM50 0C22.3857 0 0 22.3857 0 50C0 77.6143 22.3857 100 50 100C77.6143 100 100 77.6143 100 50C100 22.3857 77.6143 0 50 0Z" fill="#E0071B"/>
<path d="M30.2715 50.0048C30.2715 32.5714 38.9762 18.3143 50.0048 18.2714C61.0334 18.3191 69.7191 32.5762 69.7334 50.0048C69.7239 67.4238 61.0334 81.681 50.0048 81.7286C38.9762 81.6762 30.2762 67.4191 30.2715 50.0048Z" fill="black"/>
<path d="M51.4858 69.0714C51.2 69.1 50.5858 69.2714 50.6477 70.0238C50.7096 70.8143 51.2429 70.9381 51.6715 70.9048C52.0715 70.8714 52.4858 70.5762 52.4334 69.9619C52.3858 69.3667 52.0715 69.0191 51.4858 69.0714ZM51.4858 69.0714C51.2 69.1 50.5858 69.2714 50.6477 70.0238C50.7096 70.8143 51.2429 70.9381 51.6715 70.9048C52.0715 70.8714 52.4858 70.5762 52.4334 69.9619C52.3858 69.3667 52.0715 69.0191 51.4858 69.0714ZM57.1191 68.8191C56.9238 68.2572 56.5381 68 55.9858 68.1952C55.7096 68.2857 55.1619 68.6143 55.4048 69.3238C55.6572 70.0714 56.2048 70.0619 56.6096 69.9238C56.9905 69.7905 57.3191 69.4143 57.1191 68.8191ZM57.1191 68.8191C56.9238 68.2572 56.5381 68 55.9858 68.1952C55.7096 68.2857 55.1619 68.6143 55.4048 69.3238C55.6572 70.0714 56.2048 70.0619 56.6096 69.9238C56.9905 69.7905 57.3191 69.4143 57.1191 68.8191ZM46.6334 70.9286C46.2286 70.8524 45.7096 71.0143 45.6096 71.5762C45.5286 72.0762 45.8619 72.4762 46.3762 72.5667C46.9572 72.6714 47.3096 72.2619 47.3715 71.9048C47.4381 71.5333 47.2524 71.0429 46.6334 70.9333M47.0572 68.8714C46.5524 68.7762 46.2 68.9952 46.1286 69.3762C46.081 69.6857 46.3048 70.0714 46.7905 70.1572C47.2334 70.2381 47.5715 70.0143 47.6381 69.6476C47.7048 69.2476 47.4143 68.9381 47.0572 68.8714ZM47.0572 68.8714C46.5524 68.7762 46.2 68.9952 46.1286 69.3762C46.081 69.6857 46.3048 70.0714 46.7905 70.1572C47.2334 70.2381 47.5715 70.0143 47.6381 69.6476C47.7048 69.2476 47.4143 68.9381 47.0572 68.8714ZM46.6334 70.9333C46.2286 70.8572 45.7096 71.0191 45.6096 71.581C45.5286 72.081 45.8619 72.481 46.3762 72.5714C46.9572 72.6762 47.3096 72.2667 47.3715 71.9095C47.4381 71.5381 47.2524 71.0476 46.6334 70.9381M50.8905 52.4524V66.1048C52.2191 66.0333 53.5 65.7762 54.7286 65.4V52.4667L50.8905 52.4524ZM50.8905 33.9048V47.0191H54.7286V34.7476V34.6048C53.5048 34.2333 52.2191 33.981 50.8858 33.9M60.7381 37.9714V47.0143H65.8524C65.1857 43.4476 63.3429 40.2952 60.7381 37.9714ZM60.7381 52.4524V62.0286C63.4762 59.5905 65.3572 56.2381 65.9334 52.4524H60.7381ZM44.0905 27.2L42.4953 30.4857L44.8048 29.5714L44.0905 27.2ZM44.0905 27.2L42.4953 30.4857L44.8048 29.5714L44.0905 27.2ZM61.2048 30.3286C58.3238 25.3 54.3572 22.2143 50.0048 22.2095C49.9953 22.2095 49.9953 22.2095 49.981 22.2095C45.6334 22.2191 41.6619 25.3 38.781 30.3238C36.9715 33.4762 35.6096 37.4048 34.8381 41.7857C37.7572 36.4095 43.4429 32.7667 49.9953 32.7667C51.6381 32.7667 53.2191 33 54.7238 33.4381V33.4238L54.781 33.4476C59.2477 34.7381 62.9667 37.781 65.1429 41.7952C64.3715 37.4048 63.0143 33.4714 61.2048 30.3238M45.5429 32.0191L45.1238 30.6143L41.8 31.9381L40.7334 34.1381C40.1334 34.5238 39.5572 34.9429 39.0096 35.3952L43.3429 26.4L44.7191 25.5191L46.6 31.7762C46.2524 31.8429 45.8953 31.9238 45.5477 32.0238M50.3 31.4762C48.1905 31.4762 46.4667 29.7667 46.4667 27.6476C46.4667 25.5286 48.1858 23.8191 50.3 23.8191C51.4096 23.8191 52.4143 24.2905 53.1143 25.0524L52.2905 25.8095C51.7953 25.2762 51.081 24.9429 50.2953 24.9429C48.8048 24.9429 47.5858 26.1524 47.5858 27.6476C47.5858 29.1429 48.8048 30.3572 50.2953 30.3572C51.081 30.3572 51.7953 30.0238 52.2905 29.4857L53.1143 30.2381C52.4096 31.0048 51.4096 31.4762 50.2953 31.4762M59.3238 34.1762L58.1096 30.0476L56.9572 32.9C56.7667 32.8191 56.5715 32.7333 56.3858 32.6524L55.5619 28.3762L54.4524 32.0191C54.1048 31.9238 53.7477 31.8429 53.3953 31.7667L55.3 25.5143L56.2143 26.1286L57.0048 29.881L57.9477 27.5286L58.6143 28.0619L60.7191 35.1667C60.2715 34.8143 59.8048 34.4905 59.3286 34.1762M42.5096 30.481L44.8191 29.5667L44.1048 27.1952L42.5096 30.481ZM44.1048 27.1952L42.5096 30.481L44.8191 29.5667L44.1048 27.1952ZM44.1048 27.1952L42.5096 30.481L44.8191 29.5667L44.1048 27.1952ZM46.6381 70.9238C46.2334 70.8476 45.7143 71.0095 45.6143 71.5714C45.5334 72.0714 45.8667 72.4714 46.381 72.5619C46.9619 72.6667 47.3143 72.2572 47.3762 71.9C47.4429 71.5286 47.2572 71.0381 46.6381 70.9286M47.0619 68.8667C46.5572 68.7714 46.2048 68.9905 46.1334 69.3714C46.0858 69.681 46.3096 70.0667 46.7953 70.1524C47.2381 70.2333 47.5762 70.0095 47.6429 69.6429C47.7096 69.2429 47.4191 68.9333 47.0619 68.8667ZM47.0619 68.8667C46.5572 68.7714 46.2048 68.9905 46.1334 69.3714C46.0858 69.681 46.3096 70.0667 46.7953 70.1524C47.2381 70.2333 47.5762 70.0095 47.6429 69.6429C47.7096 69.2429 47.4191 68.9333 47.0619 68.8667ZM46.6381 70.9286C46.2334 70.8524 45.7143 71.0143 45.6143 71.5762C45.5334 72.0762 45.8667 72.4762 46.381 72.5667C46.9619 72.6714 47.3143 72.2619 47.3762 71.9048C47.4429 71.5333 47.2572 71.0429 46.6381 70.9333M46.6381 70.9333C46.2334 70.8572 45.7143 71.0191 45.6143 71.581C45.5334 72.081 45.8667 72.481 46.381 72.5714C46.9619 72.6762 47.3143 72.2667 47.3762 71.9095C47.4429 71.5381 47.2572 71.0476 46.6381 70.9381M47.0619 68.8762C46.5572 68.781 46.2048 69 46.1334 69.381C46.0858 69.6905 46.3096 70.0762 46.7953 70.1619C47.2381 70.2429 47.5762 70.0191 47.6429 69.6524C47.7096 69.2524 47.4191 68.9429 47.0619 68.8762ZM51.4905 69.081C51.2048 69.1095 50.5905 69.281 50.6524 70.0333C50.7143 70.8238 51.2477 70.9476 51.6762 70.9143C52.0762 70.881 52.4905 70.5857 52.4381 69.9714C52.3905 69.3762 52.0762 69.0286 51.4905 69.081ZM57.1238 68.8286C56.9286 68.2667 56.5429 68.0095 55.9905 68.2048C55.7143 68.2952 55.1667 68.6238 55.4096 69.3333C55.6619 70.081 56.2096 70.0714 56.6143 69.9333C56.9953 69.8 57.3238 69.4238 57.1238 68.8286ZM57.1238 68.8286C56.9286 68.2667 56.5429 68.0095 55.9905 68.2048C55.7143 68.2952 55.1667 68.6238 55.4096 69.3333C55.6619 70.081 56.2096 70.0714 56.6143 69.9333C56.9953 69.8 57.3238 69.4238 57.1238 68.8286ZM51.4905 69.081C51.2048 69.1095 50.5905 69.281 50.6524 70.0333C50.7143 70.8238 51.2477 70.9476 51.6762 70.9143C52.0762 70.881 52.4905 70.5857 52.4381 69.9714C52.3905 69.3762 52.0762 69.0286 51.4905 69.081ZM47.0619 68.8762C46.5572 68.781 46.2048 69 46.1334 69.381C46.0858 69.6905 46.3096 70.0762 46.7953 70.1619C47.2381 70.2429 47.5762 70.0191 47.6429 69.6524C47.7096 69.2524 47.4191 68.9429 47.0619 68.8762ZM46.6381 70.9381C46.2334 70.8619 45.7143 71.0238 45.6143 71.5857C45.5334 72.0857 45.8667 72.4857 46.381 72.5762C46.9619 72.681 47.3143 72.2714 47.3762 71.9143C47.4429 71.5429 47.2572 71.0524 46.6381 70.9429M46.6381 70.9429C46.2334 70.8667 45.7143 71.0286 45.6143 71.5905C45.5334 72.0905 45.8667 72.4905 46.381 72.581C46.9619 72.6857 47.3143 72.2762 47.3762 71.9191C47.4429 71.5476 47.2572 71.0572 46.6381 70.9476M47.0619 68.8857C46.5572 68.7905 46.2048 69.0095 46.1334 69.3905C46.0858 69.7 46.3096 70.0857 46.7953 70.1714C47.2381 70.2524 47.5762 70.0286 47.6429 69.6619C47.7096 69.2619 47.4191 68.9524 47.0619 68.8857ZM51.4905 69.0905C51.2048 69.1191 50.5905 69.2905 50.6524 70.0429C50.7143 70.8333 51.2477 70.9571 51.6762 70.9238C52.0762 70.8905 52.4905 70.5952 52.4381 69.981C52.3905 69.3857 52.0762 69.0381 51.4905 69.0905ZM57.1238 68.8381C56.9286 68.2762 56.5429 68.0191 55.9905 68.2143C55.7143 68.3048 55.1667 68.6333 55.4096 69.3429C55.6619 70.0905 56.2096 70.081 56.6143 69.9429C56.9953 69.8095 57.3238 69.4333 57.1238 68.8381ZM57.1238 68.8381C56.9286 68.2762 56.5429 68.0191 55.9905 68.2143C55.7143 68.3048 55.1667 68.6333 55.4096 69.3429C55.6619 70.0905 56.2096 70.081 56.6143 69.9429C56.9953 69.8095 57.3238 69.4333 57.1238 68.8381ZM51.4905 69.0905C51.2048 69.1191 50.5905 69.2905 50.6524 70.0429C50.7143 70.8333 51.2477 70.9571 51.6762 70.9238C52.0762 70.8905 52.4905 70.5952 52.4381 69.981C52.3905 69.3857 52.0762 69.0381 51.4905 69.0905ZM47.0619 68.8857C46.5572 68.7905 46.2048 69.0095 46.1334 69.3905C46.0858 69.7 46.3096 70.0857 46.7953 70.1714C47.2381 70.2524 47.5762 70.0286 47.6429 69.6619C47.7096 69.2619 47.4191 68.9524 47.0619 68.8857ZM46.6381 70.9476C46.2334 70.8714 45.7143 71.0333 45.6143 71.5952C45.5334 72.0952 45.8667 72.4952 46.381 72.5857C46.9619 72.6905 47.3143 72.281 47.3762 71.9238C47.4429 71.5524 47.2572 71.0619 46.6381 70.9524M50.0096 67.2524C43.4667 67.2524 37.781 63.6095 34.8619 58.2476C35.6381 62.6143 36.9905 66.5381 38.8 69.6952C41.681 74.7143 45.6524 77.8 50.0096 77.8H50.1C54.4191 77.7667 58.3572 74.6905 61.2239 69.6952C63.0334 66.5429 64.3858 62.6191 65.1572 58.2476C62.2429 63.6143 56.5524 67.2524 50.0143 67.2524M42.6096 72.2905L41.5286 71.9191L42.6619 68.5905C42.4143 68.6857 42.0381 68.6857 41.4858 68.4952L41.2762 68.4238L41.3858 68.1238V68.1143L41.5953 67.4952L41.7572 67.5476C42.5762 67.8333 43.2238 67.281 43.3 67.0572L44.281 67.3952L42.6096 72.2905ZM48.7 69.7333C48.6191 70.181 48.3524 70.5333 47.8572 70.6619C48.3572 71.0095 48.6096 71.3952 48.4905 72.0714C48.3762 72.7286 47.7334 73.6762 46.2286 73.4C44.7667 73.1429 44.4191 72.181 44.5429 71.4714C44.5905 71.2143 44.7096 70.5191 45.6381 70.3C45.2286 70.0286 45.0477 69.6524 45.1286 69.1714C45.2858 68.281 46.1524 67.8857 47.1381 68.0619C48.3143 68.2762 48.8286 69.0191 48.7048 69.7429M51.8191 73.6143C50.9334 73.6905 50.2334 73.3191 49.9858 72.6333L50.7858 72.3333V72.3429C50.9524 72.6905 51.3 72.8857 51.7667 72.7857C52.2143 72.6905 52.6619 72.3572 52.5858 71.2571L52.5667 71.2476C52.3334 71.6143 51.9 71.7429 51.5096 71.7714C50.4096 71.8667 49.7048 71.1667 49.6334 70.2905C49.5191 69.0048 50.3096 68.3381 51.4334 68.2476C53.4238 68.0857 53.6143 70.0286 53.6715 70.7619C53.8381 72.781 52.8524 73.5143 51.8143 73.6095M57.4048 72.5095C56.5619 72.8048 55.8 72.6143 55.3905 72.0143L56.0953 71.5238V71.5333C56.3429 71.8286 56.7286 71.9333 57.1429 71.7286C57.5619 71.5191 57.9143 71.0857 57.5619 70.0381L57.5477 70.0286C57.4143 70.4524 57.0191 70.6762 56.6572 70.8C55.6143 71.1619 54.7619 70.6524 54.4762 69.8286C54.0619 68.6095 54.6572 67.7714 55.7238 67.4095C57.6096 66.7619 58.2715 68.6 58.5143 69.2952C59.1715 71.2191 58.3905 72.1762 57.4048 72.5095ZM55.9905 68.2191C55.7143 68.3095 55.1667 68.6381 55.4096 69.3476C55.6619 70.0952 56.2096 70.0857 56.6143 69.9476C56.9953 69.8143 57.3238 69.4381 57.1238 68.8429C56.9286 68.281 56.5429 68.0238 55.9905 68.2191ZM51.4905 69.0952C51.2048 69.1238 50.5905 69.2952 50.6524 70.0476C50.7143 70.8381 51.2477 70.9619 51.6762 70.9286C52.0762 70.8952 52.4905 70.6 52.4381 69.9857C52.3905 69.3905 52.0762 69.0429 51.4905 69.0952ZM47.0619 68.8905C46.5572 68.7952 46.2048 69.0143 46.1334 69.3952C46.0858 69.7048 46.3096 70.0905 46.7953 70.1762C47.2381 70.2571 47.5762 70.0333 47.6429 69.6667C47.7096 69.2667 47.4191 68.9571 47.0619 68.8905ZM46.6381 70.9524C46.2334 70.8762 45.7143 71.0381 45.6143 71.6C45.5334 72.1 45.8667 72.5 46.381 72.5905C46.9619 72.6952 47.3143 72.2857 47.3762 71.9286C47.4429 71.5572 47.2572 71.0667 46.6381 70.9571M46.6381 70.9571C46.2334 70.881 45.7143 71.0429 45.6143 71.6048C45.5334 72.1048 45.8667 72.5048 46.381 72.5952C46.9619 72.7 47.3143 72.2905 47.3762 71.9333C47.4429 71.5619 47.2572 71.0714 46.6381 70.9619M47.0619 68.9C46.5572 68.8048 46.2048 69.0238 46.1334 69.4048C46.0858 69.7143 46.3096 70.1 46.7953 70.1857C47.2381 70.2667 47.5762 70.0429 47.6429 69.6762C47.7096 69.2762 47.4191 68.9667 47.0619 68.9ZM51.4905 69.1048C51.2048 69.1333 50.5905 69.3048 50.6524 70.0571C50.7143 70.8476 51.2477 70.9714 51.6762 70.9381C52.0762 70.9048 52.4905 70.6095 52.4381 69.9952C52.3905 69.4 52.0762 69.0524 51.4905 69.1048ZM57.1238 68.8524C56.9286 68.2905 56.5429 68.0333 55.9905 68.2286C55.7143 68.3191 55.1667 68.6476 55.4096 69.3571C55.6619 70.1048 56.2096 70.0952 56.6143 69.9572C56.9953 69.8238 57.3238 69.4476 57.1238 68.8524ZM57.1238 68.8524C56.9286 68.2905 56.5429 68.0333 55.9905 68.2286C55.7143 68.3191 55.1667 68.6476 55.4096 69.3571C55.6619 70.1048 56.2096 70.0952 56.6143 69.9572C56.9953 69.8238 57.3238 69.4476 57.1238 68.8524ZM51.4905 69.1048C51.2048 69.1333 50.5905 69.3048 50.6524 70.0571C50.7143 70.8476 51.2477 70.9714 51.6762 70.9381C52.0762 70.9048 52.4905 70.6095 52.4381 69.9952C52.3905 69.4 52.0762 69.0524 51.4905 69.1048ZM47.0619 68.9C46.5572 68.8048 46.2048 69.0238 46.1334 69.4048C46.0858 69.7143 46.3096 70.1 46.7953 70.1857C47.2381 70.2667 47.5762 70.0429 47.6429 69.6762C47.7096 69.2762 47.4191 68.9667 47.0619 68.9ZM46.6381 70.9619C46.2334 70.8857 45.7143 71.0476 45.6143 71.6095C45.5334 72.1095 45.8667 72.5095 46.381 72.6C46.9619 72.7048 47.3143 72.2952 47.3762 71.9381C47.4429 71.5667 47.2572 71.0762 46.6381 70.9667M46.6381 70.9667C46.2334 70.8905 45.7143 71.0524 45.6143 71.6143C45.5334 72.1143 45.8667 72.5143 46.381 72.6048C46.9619 72.7095 47.3143 72.3 47.3762 71.9429C47.4429 71.5714 47.2572 71.081 46.6381 70.9714M47.0619 68.9095C46.5572 68.8143 46.2048 69.0333 46.1334 69.4143C46.0858 69.7238 46.3096 70.1095 46.7953 70.1952C47.2381 70.2762 47.5762 70.0524 47.6429 69.6857C47.7096 69.2857 47.4191 68.9762 47.0619 68.9095ZM51.4905 69.1143C51.2048 69.1429 50.5905 69.3143 50.6524 70.0667C50.7143 70.8572 51.2477 70.981 51.6762 70.9476C52.0762 70.9143 52.4905 70.6191 52.4381 70.0048C52.3905 69.4095 52.0762 69.0619 51.4905 69.1143ZM51.4905 69.1143C51.2048 69.1429 50.5905 69.3143 50.6524 70.0667C50.7143 70.8572 51.2477 70.981 51.6762 70.9476C52.0762 70.9143 52.4905 70.6191 52.4381 70.0048C52.3905 69.4095 52.0762 69.0619 51.4905 69.1143ZM47.0619 68.9095C46.5572 68.8143 46.2048 69.0333 46.1334 69.4143C46.0858 69.7238 46.3096 70.1095 46.7953 70.1952C47.2381 70.2762 47.5762 70.0524 47.6429 69.6857C47.7096 69.2857 47.4191 68.9762 47.0619 68.9095ZM46.6381 70.9714C46.2334 70.8952 45.7143 71.0571 45.6143 71.6191C45.5334 72.1191 45.8667 72.5191 46.381 72.6095C46.9619 72.7143 47.3143 72.3048 47.3762 71.9476C47.4429 71.5762 47.2572 71.0857 46.6381 70.9762" fill="white"/>
<path d="M63.4572 27.9524C59.981 22.3238 55.2096 18.9048 50.0048 18.9095C44.7905 18.9048 40.0286 22.3238 36.5477 27.9524C33.0762 33.581 30.9048 41.381 30.9143 50.0048C30.9096 58.6238 33.0762 66.4238 36.5477 72.0476C40.0286 77.6667 44.7953 81.0905 50.0048 81.0857C55.2143 81.0905 59.981 77.6667 63.4572 72.0476C66.9381 66.4238 69.1001 58.6238 69.0953 50.0048C69.0953 41.381 66.9381 33.581 63.4572 27.9524ZM50.0048 79.3C40.2429 79.2476 32.6143 66.081 32.6001 50.0048C32.6143 33.9286 40.2429 20.7572 50.0048 20.7C59.7667 20.7572 67.3953 33.9286 67.4048 50.0048C67.3953 66.081 59.7715 79.2476 50.0048 79.3ZM50.8953 51.6V47.8667H55.5905V34.881C57.162 35.4572 58.6048 36.2762 59.8905 37.2762V47.8667H65.9905C66.0858 48.5714 66.1477 49.2762 66.1477 50.0048C66.1477 50.5381 66.1143 51.0762 66.062 51.6H59.8905V62.7191C58.6001 63.7238 57.1572 64.5429 55.5858 65.1238V51.6095L50.8905 51.6H50.8953ZM47.8858 34.0143V65.9905C46.8477 65.8524 45.8381 65.6191 44.8667 65.3V34.7048C45.8381 34.381 46.8429 34.1476 47.8858 34.0143ZM41.8572 36.081V63.9191C40.7715 63.281 39.7572 62.5238 38.8477 61.6524V38.3476C39.7572 37.481 40.7715 36.7286 41.8572 36.081ZM33.8667 50.0095C33.8667 47.2 34.5762 44.5667 35.8381 42.2619V57.7429C34.581 55.4429 33.8667 52.8143 33.8667 50.0095Z" fill="#E0071B"/>
<path d="M30.7095 11.3381L31.1143 12.0714L28.9 13.2952L29.2476 13.9286L31.2143 12.8429L31.6143 13.5714L29.6476 14.6572L30.1333 15.5333L29.2714 16.0095L27.6333 13.0429L30.7095 11.3429V11.3381Z" fill="white"/>
<path d="M36.3001 12.6238L35.762 12.1524L33.8286 12.9381L33.7715 13.6524L32.7905 14.0524L33.1334 10.2571L34.3905 9.74762L37.281 12.2286L36.3048 12.6238H36.3001ZM33.8953 12.1143L35.1334 11.6095L34.0143 10.6333L33.8953 12.1143Z" fill="white"/>
<path d="M41.3476 10.1762L40.7619 7.81906L41.7095 7.58572L42.5238 10.8762L41.1286 11.2238L38.6048 9.34763L39.1905 11.7048L38.2381 11.9429L37.4238 8.65239L38.8238 8.30477L41.3476 10.181V10.1762Z" fill="white"/>
<path d="M46.1189 6.96191L50.1998 6.79524L50.2332 7.62858L48.6856 7.69048L48.7903 10.2429L47.8094 10.281L47.7046 7.72858L46.1522 7.79048L46.1189 6.95715V6.96191Z" fill="white"/>
<path d="M51.3905 8.49525C51.4857 7.3762 52.3143 6.78096 53.7381 6.90477C55.1572 7.02858 55.8762 7.75715 55.781 8.87144C55.6857 9.99049 54.8524 10.5952 53.4334 10.4714C52.0096 10.3476 51.2953 9.61906 51.3905 8.49525ZM54.7572 8.78572C54.8096 8.20001 54.5048 7.80953 53.6667 7.73811C52.8334 7.66668 52.4667 7.99049 52.4191 8.58572C52.3667 9.18096 52.6762 9.57144 53.5048 9.64287C54.3381 9.7143 54.7096 9.38096 54.7619 8.79049L54.7572 8.78572Z" fill="white"/>
<path d="M61.6239 8.36667L59.6334 9.38095L60.881 11.6762L59.6763 11.4048L58.8096 9.80476L57.862 10.2857L57.7096 10.9571L56.7524 10.7381L57.5001 7.42857L58.462 7.64286L58.1286 9.12857L60.1953 8.0381L61.6334 8.36191L61.6239 8.36667Z" fill="white"/>
<path d="M66.3286 9.99524L66.0667 10.7191L63.6858 9.85715L63.5 10.3667L65.7905 11.1952L65.5286 11.9191L63.2381 11.0905L63.0524 11.6L65.4334 12.4571L65.1715 13.181L61.8667 11.9857L63.0191 8.79524L66.3238 9.99048L66.3286 9.99524Z" fill="white"/>
<path d="M69.7618 14.3524L70.8761 12.1905L71.7476 12.6381L70.1904 15.6524L68.9095 14.9905L68.2476 11.9095L67.1333 14.0714L66.2571 13.6191L67.8142 10.6048L69.0999 11.2667L69.7618 14.3476V14.3524Z" fill="white"/>
<path d="M27.3953 85.4762C27.2476 85.719 27.3953 86.0238 28.1572 86.4857C28.8572 86.9048 29.0953 86.9 29.2048 86.719C29.3334 86.5095 29.2238 86.3905 28.3953 85.8143C27.2667 85.0238 26.8905 84.4762 27.2762 83.8333C27.6429 83.2286 28.4619 83.3476 29.4667 83.9524C30.5857 84.6238 31.0238 85.3524 30.6619 86.0143L29.781 85.4857C29.9334 85.2286 29.7143 84.9619 29.0619 84.5714C28.4429 84.2 28.2429 84.219 28.1476 84.3762C28.0381 84.5571 28.1476 84.6952 28.8953 85.2333C29.9143 85.9571 30.5619 86.4476 30.1048 87.2095C29.6572 87.9524 28.8381 87.7571 27.8048 87.1333C26.6286 86.4238 26.0905 85.7381 26.5096 84.9476L27.3905 85.4809L27.3953 85.4762Z" fill="white"/>
<path d="M31.5238 87.1905C31.9714 86.1571 32.9428 85.8619 34.2571 86.4286C35.5667 86.9952 36.0143 87.9143 35.5714 88.9429C35.1238 89.9762 34.1428 90.281 32.8333 89.7143C31.519 89.1476 31.0762 88.2286 31.5238 87.1905ZM34.6286 88.5381C34.8619 87.9952 34.6952 87.5333 33.9238 87.1952C33.1571 86.8619 32.7047 87.0571 32.4714 87.6C32.2333 88.1476 32.4047 88.6143 33.1667 88.9476C33.9333 89.281 34.3952 89.081 34.6286 88.5333V88.5381Z" fill="white"/>
<path d="M39.3047 88.219C40.5047 88.5571 41.0428 89.2619 40.9047 90.1286L39.9 89.8476C39.919 89.5286 39.6857 89.1905 39.0809 89.0238C38.3809 88.8286 37.9476 89.0762 37.7857 89.6476C37.6238 90.2238 37.8714 90.6667 38.5666 90.8619C39.1714 91.0286 39.5476 90.8619 39.6952 90.5714L40.7 90.8524C40.3666 91.6714 39.5428 92 38.3381 91.6667C37.0285 91.3 36.4809 90.4905 36.7905 89.3714C37.1047 88.2571 37.9905 87.8524 39.3 88.219H39.3047Z" fill="white"/>
<path d="M43.3953 89.2286L42.7953 92.5619L41.8286 92.3857L42.4286 89.0524L43.3953 89.2286Z" fill="white"/>
<path d="M44.4191 91.1476C44.5096 90.0286 45.3334 89.4333 46.7572 89.5476C48.1763 89.6619 48.9001 90.3905 48.8096 91.5048C48.7191 92.6238 47.8906 93.2286 46.4715 93.1143C45.0477 93 44.3287 92.2714 44.4239 91.1476H44.4191ZM47.7858 91.4238C47.8334 90.8381 47.5287 90.4524 46.6906 90.381C45.8572 90.3143 45.4953 90.6429 45.443 91.2333C45.3953 91.8286 45.7049 92.2143 46.5334 92.2857C47.3668 92.3524 47.7382 92.019 47.7858 91.4238Z" fill="white"/>
<path d="M51.1192 92.0476C51.1334 92.3333 51.4239 92.5048 52.3144 92.4571C53.1287 92.4143 53.3239 92.2762 53.3096 92.0619C53.2953 91.8143 53.143 91.781 52.1334 91.7667C50.7572 91.7429 50.1334 91.5 50.0953 90.7476C50.0572 90.0429 50.8049 89.681 51.9763 89.6238C53.2811 89.5571 54.0525 89.9095 54.1192 90.6619L53.0953 90.7143C53.0811 90.4143 52.7477 90.3191 51.9858 90.3571C51.2668 90.3952 51.1096 90.5238 51.1192 90.7048C51.1287 90.9143 51.2953 90.9714 52.2192 91C53.4668 91.0286 54.2811 91.0714 54.3287 91.9619C54.3763 92.8286 53.5858 93.1238 52.3811 93.1857C51.0096 93.2571 50.1763 92.9857 50.0811 92.0952L51.1096 92.0429L51.1192 92.0476Z" fill="white"/>
<path d="M55.7428 92.0429L56.6809 91.9048L56.7857 92.6333L55.8476 92.7714L55.738 92.0429H55.7428Z" fill="white"/>
<path d="M59.4811 88.5381C60.6953 88.2429 61.5096 88.5952 61.8144 89.419L60.8001 89.6667C60.662 89.3762 60.2906 89.2 59.6811 89.3476C58.9763 89.5191 58.7192 89.9476 58.8572 90.5286C59.0001 91.1095 59.4334 91.3762 60.1334 91.2048C60.743 91.0571 60.9906 90.7238 60.9763 90.3952L61.9906 90.1476C62.1001 91.0238 61.543 91.719 60.3287 92.0143C59.0049 92.3381 58.1287 91.9 57.8525 90.7714C57.5763 89.6476 58.1525 88.8619 59.4763 88.5381H59.4811Z" fill="white"/>
<path d="M63.1524 89.3952C62.7382 88.3476 63.2191 87.4524 64.5477 86.9238C65.8715 86.4 66.8429 86.7333 67.2524 87.7762C67.6667 88.8238 67.1858 89.7333 65.862 90.2571C64.5334 90.7809 63.5667 90.4476 63.1524 89.3952ZM66.3001 88.1524C66.0858 87.6048 65.6382 87.3905 64.8572 87.7C64.081 88.0048 63.8953 88.4619 64.1143 89.0143C64.3334 89.5714 64.7858 89.7809 65.5572 89.4762C66.3334 89.1714 66.5191 88.7048 66.3001 88.1524Z" fill="white"/>
<path d="M69.3381 88.6905L67.6333 85.7571L68.9571 84.9857L71.1095 86.3381L70.9952 83.8L72.319 83.0286L74.0238 85.9619L73.1762 86.4524L71.9428 84.3286L72.0762 87.0952L71.2904 87.5524L68.9524 86.0714L70.1904 88.1952L69.3381 88.6905Z" fill="white"/>
<path d="M23.019 81.8381C13.9952 74.181 8.2666 62.7571 8.2666 50C8.2666 37.2429 14.2999 25.2143 23.738 17.5619" stroke="#E0071B" stroke-miterlimit="10"/>
<path d="M76.2666 17.5667C85.7047 25.219 91.7333 36.9048 91.7333 50C91.7333 63.0952 86.0047 74.1857 76.9809 81.8429" stroke="#E0071B" stroke-miterlimit="10"/>
</g>
<defs>
<clipPath id="clip0_1124_16429">
<rect width="100" height="100" fill="white"/>
</clipPath>
</defs>
</svg>
