<svg xmlns="http://www.w3.org/2000/svg" id="Layer_2" viewBox="0 0 210 210"><g id="Layer_1-2"><g><g><circle cx="105" cy="105" r="105" fill="#0067b2"></circle><path d="M105,5.32c54.96,0,99.68,44.72,99.68,99.68s-44.72,99.68-99.68,99.68S5.32,159.96,5.32,105,50.04,5.32,105,5.32M105,0C47.01,0,0,47.01,0,105s47.01,105,105,105,105-47.01,105-105S162.99,0,105,0h0Z" fill="#fff"></path></g><g><g><path d="M102.74,163.73c-5.67,0-8.51-1.86-8.81-2.08l-.21-.14-.17-.19c-5.17-5.8-10.68-9.07-11.84-9.73-2.14-.55-4.23-1.98-6.21-4.27-1.46-1.69-2.34-3.26-2.38-3.32l-.02-.04c-3.89-7.36-11.72-12.4-12.33-12.78-2.38-1.34-3.64-5.51-4.05-7.13-3.99-7.91-3.19-12.35-3.08-12.83l.03-.12c.13-1.79,.48-3.5,.82-5.17,.66-3.24,1.28-6.3,.27-9.6l-.02-.05c-2.26-8.19-.69-18.18,.98-25.64-1.63-.67-2.59-2.28-2.86-2.79l-.13-.24-.06-.27c-.6-2.56,.97-4.41,2-5.64,.19-.23,.38-.45,.55-.68l.11-.14,.35-.33c1.07-1.01,2.69-2.53,4.93-2.53,.47,0,.93,.07,1.39,.2l.16,.05,.15,.07c1.22,.58,2.24,1.58,2.73,2.68l.04,.08,.03,.09c.44,1.27,.37,2.67-.14,3.94l21,22.69c-.21-.6-.29-1.21-.24-1.84,0-.12,.02-.24,.04-.35-.02-.01-1.55-1-1.55-1l.78-1.86c-.4-.22-.79-.51-1.14-.9l-.33-.37-.13-.47c-.06-.2-.42-.31-.5-.33l-.1-.03-.09-.03s0,0,0,0c-.02,0-.09,0-.22,0s-.29,0-.43,.01c-.2,0-.4,.02-.6,.02-2.75,0-3.57-1.82-3.81-2.91-.24-1.06-.2-1.91-.03-2.58-.33-.67-.61-1.53-.57-2.55v-.1s.02-.1,.02-.1c.06-.41,.14-.85,.31-1.31-.33-1.04-.35-2.12-.05-3.13,.13-.45,.34-.87,.62-1.25-.04-.8,.07-1.82,.63-2.73,.42-.68,.99-1.15,1.52-1.47,.43-1.58,1.42-2.72,2.8-3.17,.11-.05,.23-.09,.34-.12,.35-.73,.91-1.53,1.93-2.05,.64-.34,1.4-.52,2.2-.52,.14,0,.28,0,.42,.02,.13-.24,.28-.46,.43-.68l.1-.13,.12-.12c1.27-1.27,2.88-1.27,3.41-1.27,.17,0,.34,0,.52,.01h.1s.1,.02,.1,.02c.8,.11,1.45,.47,1.97,.88,.31-.11,.64-.2,.97-.24,.3-.55,.79-1.19,1.64-1.6,.41-.24,.86-.41,1.33-.52v-3.88h2.2v-2.9h6.24v2.9h2.2v4.19s.04,0,.07,0c.48,0,.94,.08,1.38,.24,.8,.25,1.54,.78,2.09,1.45,.43,.03,.93,.1,1.43,.28,.27-.19,.56-.35,.85-.49l.3-.14,.33-.04c.39-.05,.74-.07,1.07-.07,1.46,0,2.62,.48,3.46,1.43,1.04,.03,2,.37,2.73,.97,.61,.45,.98,1,1.22,1.53,.9,.16,1.7,.56,2.32,1.17l.05,.05c.65,.7,.98,1.48,1.15,2.18,.75,.44,1.37,1.1,1.76,1.87l.03,.05c.32,.68,.41,1.39,.42,2.06,.73,.81,1.15,1.77,1.2,2.78,.1,.73-.06,1.36-.24,1.82l.18,.7c.34,1.36,.08,2.77-.7,3.94,.11,1.57-.49,3.18-1.66,4.21-.9,.85-2,.85-2.36,.85-.12,0-.24,0-.37,0-.06,0-.13,0-.19,0l-.21,.1-.43,.02c-.28,.01-.51,.09-.62,.14-.3,.71-.8,1.31-1.42,1.76l1.04,2.77-1.81,.46c.07,.63,.03,1.28-.12,1.92,9.97,6.11,16.07,16.92,16.07,28.72,0,1.55-.11,3.09-.31,4.62,1.58,1.12,4.42,3.26,6.5,5.6l.03,.04c3.1,3.67,10.28,10.56,10.35,10.63l2.74,2.63-3.67,.97c-2.45,.65-6.22,1.83-11.68,4.75l12.53,12.94-8.15,5.38-12.47-12.86c-8.52,6.17-20.4,12.98-31.28,12.98Zm-37.79-84.79c3.11,6.6,7.56,12.78,11.74,18.04,.73-1.06,1.52-2.08,2.37-3.05l-14.11-14.98Z" fill="#fff" fill-rule="evenodd"></path><path d="M153.24,138.48s-7.3-6.99-10.51-10.79c-2.35-2.65-5.96-5.19-7.22-6.02,.33-1.82,.5-3.7,.5-5.62,0-12.14-6.86-22.68-16.92-27.96h.02c.43-.35,.71-.75,.87-1.18,.28-1.06,.04-2.25-.67-2.96l1.85-.47-.95-2.52c.91-.04,1.85-.51,2.21-1.38,.36-.99,1.54-1.38,2.48-1.42,.67-.32,1.66,.16,2.21-.39,.87-.75,1.22-2.09,.83-3.23,.75-.71,1.18-1.73,.91-2.84-1.26-.95,.24-1.7,0-2.84,0-.87-.59-1.62-1.26-2.09,.08-.67,.12-1.46-.16-2.05-.36-.71-1.06-1.18-1.77-1.3-.08-.83-.2-1.62-.79-2.25-.59-.59-1.5-.71-2.33-.55-.24-.71-.35-1.5-1.03-1.97-.63-.55-1.62-.63-2.44-.39l-.55-.83c-.67-.79-1.74-.79-2.68-.67-.59,.28-1.14,.75-1.5,1.3l-.16-.16c-.63-.87-1.85-.71-2.76-.79-.24-.67-.87-1.3-1.54-1.5-1.14-.43-2.33,.33-3.11,.92-.29-.96-1.03-1.83-1.99-2.16v-1.1h2.2v-1.98h-2.2v-2.9h-1.98v2.9h-2.2v1.98h2.22v1.15c-.68,.23-1.26,.69-1.63,1.28l-.29-.22c-.79-.55-1.97-.55-2.76-.04-.87,.35-.91,1.3-1.34,1.89-.95-.28-1.93,.08-2.64,.79-.47-.63-1.06-1.38-1.89-1.5-.87-.04-1.69,0-2.33,.63-.43,.59-.71,1.3-.83,2.01-.83-.51-2.09-.67-2.96-.2-.87,.43-1.1,1.34-1.38,2.09-.39,0-.79,.04-1.14,.2-1.1,.31-1.54,1.54-1.62,2.6-.59,.24-1.26,.55-1.62,1.14-.39,.63-.39,1.62-.2,2.37-.39,.28-.71,.67-.83,1.1-.28,.91-.08,1.85,.35,2.64-.35,.43-.47,.95-.55,1.5-.04,.91,.39,1.66,.83,2.33-.51,.59-.43,1.54-.28,2.25,.43,1.97,2.4,.87,3.71,1.34,.91,.24,1.73,.83,2.01,1.81,.63,.71,1.58,.79,2.44,.91l-1.02,2.44c.55,.35,1.5,.2,1.89,.55-.47,.43-.87,1.06-.91,1.77-.08,.95,.43,1.73,1.06,2.36h.18c-1.18,.65-2.31,1.38-3.39,2.18l-23.36-25.24c.79-.95,1.18-2.29,.75-3.55-.32-.71-1.03-1.3-1.69-1.62-1.89-.55-3.35,.99-4.49,2.05-1.06,1.38-2.6,2.68-2.17,4.53,.39,.75,1.14,1.66,2.01,1.89,.47,.16,1.12,.13,1.51,.33-1.91,8.01-3.75,18.39-1.47,26.63,1.78,5.85-.81,10.8-1.04,16.07-.01-.04-.03-.07-.04-.11,0,0-.88,4.03,3.01,11.64,0,0,1.19,5.02,3.11,6.03,0,0,8.79,5.39,13.14,13.63,0,0,3.17,5.69,7.5,6.62,0,0,6.54,3.46,12.65,10.32,0,0,11.98,8.34,39.11-11.97l12.54,12.93,4.53-3-12.68-13.09c6.67-3.86,11.27-5.43,14.59-6.3Zm-72.55-43.18c-1.07,1.23-2.05,2.54-2.93,3.93-.3,.46-.59,.92-.86,1.39-7.37-8.99-14.78-19.35-17.3-30.46l22.34,23.72c-.43,.46-.84,.94-1.25,1.42Z" fill="#010101" fill-rule="evenodd"></path><path d="M108.79,60.62c1.06-.43,.67,.67,1.1,1.06,.16,.47,.67,.63,1.03,.91-.2,.79-.2,1.73,.28,2.37,.43,.39,.79,.87,1.42,.99-.16,.83,.2,1.66,.79,2.17l.55,.35c-.55,.2-.95,.87-1.18,1.42-.16,.63-.04,1.3,.36,1.81-2.09,.79-5.01,.83-6.66-.67,.55-.59,.83-1.5,.51-2.29-.2-.51,.79-.87,.91-1.42,.36-.67,.16-1.58-.28-2.17l-.67-.55c.43-.39,.75-.99,.79-1.66,.04-.79-.51-1.46-1.06-1.85l-.83-.24c0-.39-.16-.71-.39-1.03,.43-.16,.91-.47,1.22-.91,.28,.75,1.18,1.66,2.13,1.69Z" fill="#e2101a"></path><path d="M102.41,59.75c-.24,.35-.51,.67-.47,1.1-.71-.04-1.26,.51-1.66,1.02-.24,.67-.28,1.46,.08,2.09l.67,.67c-.55,.39-1.03,1.02-1.03,1.77,.04,.71,.43,1.46,1.03,1.81-.47,.55-.55,1.54-.28,2.17,.28,.32,.47,.71,.83,.95-1.73,1.3-4.57,1.66-6.7,.79,.43-.63,.43-1.38,.24-2.13-.35-.71-.95-1.14-1.69-1.26,.47-.28,1.06-.75,1.3-1.3,.28-.43-.04-.91,.08-1.42,.63-.12,1.22-.63,1.58-1.18,.32-.59,.36-1.42,.16-2.05,.43-.28,1.1-.67,1.38-1.18l.16-1.22c.59,.28,1.7,.43,2.44,.12,.47-.2,.99-.71,1.18-1.18,.35,.04,.47,.32,.71,.43Z" fill="#e2101a"></path><path d="M115.57,61.61c.55,.28,1.34,.35,1.97,.16,.55,.99,1.58,1.7,2.8,1.54h.2c.12,.83,.59,1.62,1.3,2.09l.83,.28c-.08,1.06,.43,1.97,1.22,2.56-.24,.87-.08,1.85,.51,2.48-.47,.79-.71,1.97-.28,2.84-.39,.39-1.06-.08-1.42,.51-.24,.35,.12,1.1-.63,.91-.16,.08-.43-.2-.39,.12l-.04-.12c-1.5-.2-2.88-.67-3.98-1.7,.51-.28,1.26-.71,1.54-1.42,.2-.55,.08-1.22-.12-1.73-1.06-.71-1.06-2.68-2.72-2.56,.24-.71,.28-1.54-.08-2.21-1.46-.71,.32-2.37-.83-3.31-.16-.47-.95-.75-.91-1.14,.47,0,.55,.63,1.03,.71Z" fill="#e2101a"></path><path d="M92.28,61.65c-.51,.83-.95,1.97-.43,2.96l.16,.16c-.71,.43-1.1,1.26-1.14,2.09,.04,.43,.35,.87,.39,1.22-.59,.28-1.5,.67-1.46,1.58-.55,.32-.95,.87-1.06,1.42-.16,.67,.12,1.34,.55,1.81-.63,.79-1.69,1.46-2.44,1.93l-.67,.12c-.16-.39-.39-.87-.79-1.02-.47-.08-1.03,.16-1.42,.24,.35-.87,.35-2.01-.2-2.8,.51-.71,.95-1.66,.51-2.56-.32-.47,.47-.75,.59-1.22l.28-1.26c.71-.08,1.3-.63,1.69-1.26l.36-1.06c.83-.12,1.69-.16,2.33-.87,.39-.51,.75-1.06,.67-1.81,.67,.2,1.34,.59,2.09,.35Z" fill="#e2101a"></path><path d="M102.56,62.71c-.35,.35-.55,.75-.63,1.22-.36-.04-.71-.43-.79-.75-.24-.43,.16-.75,.35-1.06,.67-.79,.63,.35,1.06,.59Z" fill="#e4b531"></path><path d="M106.82,62.71c.04,.55-.2,1.06-.67,1.26-.32-.08-.32-.59-.51-.87-.83-.39,.08-.79,.16-1.22,.55-.04,.83,.51,1.02,.83Z" fill="#e4b531"></path><path d="M106.7,65.87c.2,.32,.32,.87,.12,1.22-.2,.35-.55,.59-.99,.59-.39-.28-.75-.75-1.22-1.02-.2-.75,.71-.63,.95-1.22,.47-.12,.79,.2,1.14,.43Z" fill="#e4b531"></path><path d="M103.35,66.54c-.47,.24-1.03,.55-1.3,1.06-.47-.12-.79-.43-.91-.91-.08-.51,.31-.95,.75-1.18,.63-.04,1.22,.59,1.46,1.03Z" fill="#e4b531"></path><path d="M120.26,77.53c.35,.39,.55,.95,.28,1.42-.28,.43-.83,.75-1.42,.51-1.77-1.18-4.02-1.54-6.11-2.17-8.36-1.81-17.31-.79-24.72,2.4-.55,0-.87-.55-1.1-.99-.2-1.3,1.3-1.46,2.09-1.93,9.46-3.55,21.84-3.9,30.98,.75Z" fill="#e4b531"></path><path d="M117.66,84.83c.43,.32,.55,.95,.35,1.46-.32,.43-.87,.59-1.38,.51-7.49-3.15-17.66-3.23-25.03,.28-.39,0-1.02,.12-1.26-.35-.28-.35-.51-.95-.16-1.34,1.66-1.14,3.63-1.5,5.44-2.17,7.02-1.93,15.65-1.22,22.04,1.62Z" fill="#e4b531"></path><path d="M137.41,145.74l-2.03,1.41,.3,.31c2.43,2.51,10,10.06,11.06,11l.2,.18,.23-.13c.1-.06,.21-.12,.33-.18,.41-.22,.87-.47,1.17-.87l.19-.25-11.44-11.46Z" fill="#e4b531"></path><path d="M75.5,107.07c3.83-12.35,15.35-21.32,28.96-21.32,.49,0,1.08,0,1.57,.03-3.71,2.21-6.46,5.83-8,9.66-4.93,.47-9.34,2.4-13.09,5.68-3.63,1.26-6.74,3.39-9.62,6.19l.18-.23Z" fill="#d97624" fill-rule="evenodd"></path><path d="M108.03,113.21c-4.14,1.76-8.88,4.54-13.7,8.91-4.69-3.78-8.87-8.71-9.97-14.66-.24-2.05,.16-3.98,1.54-5.44,3.19-3.11,7.33-4.61,11.83-5.12-.08,3.55,1.66,6.54,3.59,9.03,1.73,2.88,4.02,4.97,6.58,7.21l.14,.08Z" fill="#d97624" fill-rule="evenodd"></path><path d="M129.25,98.7c-1.71,4.07-4.69,8.28-8.63,11.47-1.84-.02-6.1,.15-11.59,2.36-4.22-3.55-8.12-8-9.7-13.44-.87-3.15,1.46-5.52,2.84-8.04,1.62-2.05,3.82-4.02,6.11-5.01,1.9,.24,3.86,.69,5.64,1.26-3.71,1.46-6.5,4.45-8.52,7.88,1.06,.71,2.25,1.42,3.39,2.09,3.63,2.4,7.25,5.36,10.56,8.51h.16c3.27-3.11,5.54-7.16,6.03-11.39,1.07,.53,3.71,4.3,3.71,4.3Z" fill="#d97624" fill-rule="evenodd"></path><path d="M130.23,100.12c2.88,4.62,4.54,10.08,4.54,15.94,0,1.62-.13,3.21-.37,4.76l-.07,.23c-5.95-3.2-10.72-8.59-12.17-10.32,3.39-2.96,6.22-6.71,8.07-10.61Z" fill="#d97624" fill-rule="evenodd"></path><path d="M119.59,89.87c-.24,.39-.43,.79-.75,1.18-.87,0-.83-1.46-1.74-.91-.32,.24-.51,.71-.2,1.03l1.26,.75c-.12,.51-.59,.91-.87,1.34-1.14,.12-2.01-2.68-2.96-.63,.2,1.14,1.5,.99,2.05,1.89l-1.3,1.7c-.87-.43-1.38-1.1-2.05-1.66-.32-.12-.71-.28-1.03,0-.35,.32-.47,.75-.32,1.18,.71,.55,1.62,1.1,2.33,1.77-.24,.47-.67,1.18-1.14,1.14-.91-.75-2.01-1.46-3-2.05-.75-.71-1.77-1.18-2.64-1.77,.39-.99,1.38-1.81,2.05-2.64,1.97-1.93,4.14-3.43,6.78-4.06,1.26,.51,2.33,1.06,3.51,1.73Z" fill="#d97624"></path><path d="M124.48,93.38c-.36,4.14-2.25,7.73-5.16,10.56-1.85-1.38-3.27-2.76-5.13-4.26,.2-.47,.59-.75,.87-1.18,1.34,.12,1.97,2.96,3.35,1.22,.16-.47,0-1.06-.47-1.22-.71-.28-1.14-.91-1.77-1.38,.24-.67,.87-1.22,1.26-1.77,.91,.16,1.1,1.62,2.17,1.02,.32-.28,.35-.79,.16-1.14-.55-.24-.95-.55-1.42-.99,.08-.51,.59-.91,.87-1.38,.79-.08,.79,1.38,1.69,.91,.28-.24,.35-.59,.28-.91-.35-.51-.95-.39-1.3-.91l.87-1.38c1.38,.75,2.56,1.77,3.75,2.8Z" fill="#d97624"></path><path d="M93.09,122.98c-7.98,5.38-14.78,5.74-16.16,5.76l-.09-.19c-1.73-3.81-2.69-8.04-2.69-12.49,0-2.05,.2-4.04,.59-5.98l.19-.59c2.56-2.72,4.81-4.56,8.28-5.82-1.17,6.7,4.69,14.59,5.6,15.14,1.18,1.58,2.6,2.76,4.18,4.14l.11,.04Z" fill="#d97624" fill-rule="evenodd"></path><path d="M97.37,160.07c-1.32-.43-1.89-.77-1.89-.77-5.44-6.85-11.73-10.39-11.73-10.39-4.2-.9-7.89-6.15-7.89-6.15-1.89-3.58-4.23-6.43-6.25-8.49,2.83-1.53,6.07-2.4,9.51-2.4,11.05,0,20,8.96,20,20,0,2.91-.64,5.69-1.76,8.19Z" fill="#fff" fill-rule="evenodd"></path><polygon points="104.05 80.27 106.5 79.4 104.07 78.3 101.61 79.4 104.05 80.27" fill="#0067b2" fill-rule="evenodd"></polygon><circle cx="103.99" cy="61.12" r=".63" fill="#e4b531"></circle><circle cx="103.99" cy="64.28" r=".63" fill="#e4b531"></circle><circle cx="82.86" cy="66.73" r="1.43" fill="#e4b531"></circle><path d="M125.03,75.21c-.59-.08-.95-.83-1.58-.55-.39,.28,0,.71-.12,1.03-1.38,.28-2.96,.04-4.22-.47-1.26-.59-2.76-1.77-2.88-3.15,.32,0,.55,.16,.87,.28,.51,.16,1.06-.08,1.34-.51,.24-.47,.12-1.1-.35-1.42-1.42,0,.04-1.58-1.3-1.89-.47-.12-.95,0-1.3,.35-.04,.75-.83,.28-1.3,.51-.51,.2-.83,.79-.67,1.3,0,.71,1.18,.51,.83,1.18-2.01,1.46-5.12,1.62-7.29,.35-.63-.39-1.34-.79-1.66-1.5,.08-.12,.2-.08,.28-.16,.47-.24,.83-.71,.67-1.3-.04-.79-1.1-.71-1.34-1.26-.2-.39-.71-.83-1.26-.71-.36,.12-.87,.32-.91,.79-.16,.71-1.3,.12-1.42,1.02-.24,.51,.04,1.14,.51,1.42,.32,.24,1.06-.04,1.06,.43-.59,.63-1.18,1.22-1.97,1.54-2.33,1.34-5.79,.99-7.88-.51l.75-.16c.51-.24,.79-.83,.67-1.38-.2-.79-1.03-.75-1.66-.83-.16-.35-.43-.79-.87-.87-.43-.2-.95,.08-1.3,.47-.32,.32,.2,1.26-.55,1.18-.59,.2-.63,.83-.75,1.3,.08,.47,.63,.71,.79,1.06-.87,1.77-2.68,2.76-4.57,3.04-.55-.24,.08-.87-.39-1.14-.67-.2-1.1,.39-1.66,.63-.47,.24-1.06-.28-1.42,.2-.16,.32-.24,.63,.04,.87,1.14,.35,2.33,.75,3.67,.51,2.44-.16,5.01-1.77,5.99-4.22l.28-.04c.83,.55,1.69,.95,2.64,1.26,3.11,.87,6.39,.08,8.79-1.81,.59-1.1,1.26,.04,1.85,.32,2.8,1.77,6.78,2.01,9.74,.47,.28,.63,.67,1.22,1.22,1.73,1.97,1.97,4.81,2.96,7.49,2.01,.55-.12,.91-.71,1.62-.51,.32-.12,.91-.16,.83-.71-.36-.39-.87,.08-1.3-.16Zm-33.09-3.6c-.35,0-.63-.28-.63-.63s.28-.63,.63-.63,.63,.28,.63,.63-.28,.63-.63,.63Zm12.04-1.61c-.35,0-.63-.28-.63-.63s.28-.63,.63-.63,.63,.28,.63,.63-.28,.63-.63,.63Zm11.41,.65c0-.35,.28-.63,.63-.63s.63,.28,.63,.63-.28,.63-.63,.63-.63-.28-.63-.63Z" fill="#e4b531"></path><g><path d="M60.63,65.64c.06-.07,.13-.14,.21-.21,.46-.46,1.09-1.09,.98-2.36v-.06s-.03-.05-.03-.05c-.43-1.01-1.12-1.26-1.62-1.29h-.04s-.04,0-.04,0c-.76,.11-2.42,1.6-3.23,2.74-.53,.74-.75,1.36-.66,1.83v.05c.31,.89,1.02,1.22,1.67,1.42l.15,.02c.45,0,.77-.2,.98-.37,3.48,3.8,23.2,25.01,23.4,25.23l.24,.25,1.93-1.59-23.94-25.62Z" fill="#e4b531"></path><g><path d="M64.32,108.65c.13-.84,.26-1.63,.36-2.38,.45-5.4-.01-10.5-1.3-14.35-.37-2.59-.32-5.72,.12-8.83v-.07c-1.86-3.51-3.47-7.16-4.7-11.04-1.78,7.47-3.19,15.96-1.07,23.65,1.71,5.63-.91,10.36-1.12,15.66,0,0,.08,2.75,.02,2.71,0,0,2.69,7.64,10.1,11.95-4.45-4.22-3.32-11.44-2.4-17.29Z" fill="#0067b2" fill-rule="evenodd"></path><path d="M68.42,109.55c.16-1.87,.33-3.81,.29-5.72-.08-.8-.19-1.64-.29-2.46-.44-3.43-.89-6.98,.03-10.24-1.61-2.37-3.11-4.78-4.47-7.25-.11-.19-.23-.37-.34-.56-.41,3.02-.44,6.05-.09,8.55,1.29,3.86,1.75,8.98,1.3,14.41-.1,.76-.23,1.55-.36,2.39-.95,6.05-2.13,13.56,2.9,17.63,.02,.01,.05,.03,.07,.04,.43,.17,.86,.37,1.29,.56,1,.45,2.03,.92,3.12,1.13-1.36-2.18-2.4-5.04-3.27-8.97-.72-3.15-.44-6.39-.17-9.52Z" fill="#fff" fill-rule="evenodd"></path><path d="M76.33,101.63c-2.76-3.42-5.38-6.83-7.76-10.32-.86,3.2-.42,6.68,0,10.05,.1,.81,.21,1.65,.29,2.47,.04,1.92-.12,3.86-.29,5.74-.27,3.12-.55,6.34,.17,9.47,.88,4.01,1.95,6.89,3.35,9.07l.02,.03c1.06,.27,2.19,.47,3.38,.58-6.32-13.82,.83-27.08,.83-27.08Z" fill="#0067b2" fill-rule="evenodd"></path></g></g><path d="M89.19,151.94c-.65-.6-1.33-1.23-2.02-1.88-.72-.67-1.47-1.37-2.24-2.09,.07-.02,.14-.04,.21-.06,1.52,1.27,2.69,2.11,3.58,2.62,.89,.51,1.54,.71,1.99,.67,.9-.09,.32-1.11-.58-2.03-.55-.56-1.1-1.01-1.66-1.31-.38-.2-1-.49-1.73-.74-.43-.16-.85-.32-1.27-.48-.61-.24-1.16-.48-1.68-.73-.51-.25-.99-.51-1.45-.8-.86-.53-1.83-1.31-2.89-2.3-1.22-1.14-2.41-2.45-3.23-3.63-.88-1.27-1.34-2.42-.9-3.01,.23-.31,.76-.38,1.24-.39,.49,0,.94,.06,.97,.01,.17-.2-.18-.66-.84-1.47,.08-.1,.15-.21,.23-.31,1.21,1.29,2.37,2.51,3.48,3.69,1.06,1.12,2.07,2.19,3.04,3.22-.09,.06-.18,.11-.26,.17-1.46-1.31-2.98-2.48-4.24-3.24-1.27-.77-2.23-1.08-2.56-.7-.43,.5,.53,1.97,1.92,3.32,.87,.83,1.54,1.38,2.05,1.65,.51,.27,1.43,.65,2.66,1.1,.54,.19,1.08,.39,1.63,.58,.67,.21,1.35,.52,2.01,.94,1.28,.75,2.43,1.71,3.51,2.86,.95,1.01,1.68,2.06,1.92,2.86,.22,.74,0,1.25-.89,1.32-.38,.03-.91-.08-1.53-.27-.09-.03-.17-.05-.26-.08-.13-.04-.25-.08-.31-.07-.18,.02-.04,.2,.28,.56-.08,0-.15,.01-.23,.02Z" fill="#0067b2"></path><path d="M82.68,133.79s.05-.05,.08-.07c.69,.65,1.39,1.32,2.1,1.99,.73,.69,1.46,1.39,2.21,2.1-.04,.04-.07,.09-.11,.13-1.18-1-2.24-1.7-3.07-2.07-.83-.37-1.46-.43-1.75-.14-.46,.45,.08,1.55,.98,2.46,.3,.31,.57,.53,.85,.74,.37,.25,.78,.44,1.23,.59,.35,.13,.96,.23,1.87,.37,.65,.1,1.25,.24,1.79,.4s1.03,.37,1.46,.61c.86,.51,1.81,1.23,2.85,2.22,1.31,1.25,2.42,2.66,3.15,3.94,.75,1.33,1.1,2.53,.8,3.27-.19,.49-.51,.71-1.43,.69-.25,.05-.4,.11-.44,.22-.09,.22,.13,.81,.82,1.74-.03,.08-.06,.15-.09,.23-1.16-1.2-2.29-2.39-3.4-3.53-1.07-1.12-2.13-2.22-3.15-3.28,.04-.06,.08-.12,.11-.19,1.84,1.65,3.4,2.75,4.56,3.29,1.16,.55,1.9,.52,2.13-.02,.33-.79-.68-2.51-1.95-3.75-.8-.79-1.55-1.25-2.36-1.58-.45-.18-.97-.26-1.7-.36-1.05-.15-1.85-.33-2.56-.6-.71-.27-1.32-.61-1.98-1.06-.61-.44-1.32-1.04-1.96-1.7-1.09-1.14-1.9-2.31-2.33-3.3-.41-.95-.45-1.72-.03-2.12,.15-.14,.35-.21,.58-.22,.39-.04,1.29,.18,1.4,.07,.12-.11,.06-.28-.66-1.09Z" fill="#0067b2"></path><path d="M90.21,59.01c0-.79,.64-1.43,1.43-1.43s1.43,.64,1.43,1.43-.64,1.43-1.43,1.43-1.43-.64-1.43-1.43Z" fill="#e4b531"></path><circle cx="87.53" cy="61.49" r="1.43" fill="#e4b531"></circle><circle cx="84.52" cy="63.66" r="1.43" fill="#e4b531"></circle><circle cx="82.1" cy="69.78" r="1.43" fill="#e4b531"></circle><circle cx="81.81" cy="73.05" r="1.43" fill="#e4b531"></circle><path d="M98.24,57.96c0-.79,.64-1.43,1.43-1.43s1.43,.64,1.43,1.43-.64,1.43-1.43,1.43-1.43-.64-1.43-1.43Z" fill="#e4b531"></path><circle cx="95.93" cy="60.21" r="1.43" fill="#e4b531"></circle><circle cx="94.45" cy="63.52" r="1.43" fill="#e4b531"></circle><path d="M91.91,66.69c0-.63,.51-1.14,1.14-1.14s1.14,.51,1.14,1.14-.51,1.14-1.14,1.14-1.14-.51-1.14-1.14Z" fill="#e4b531"></path><path d="M102.46,57.53c0-.79,.64-1.43,1.43-1.43s1.43,.64,1.43,1.43-.64,1.43-1.43,1.43-1.43-.64-1.43-1.43Z" fill="#e4b531"></path><path d="M123.86,65.95c0-.79,.64-1.43,1.43-1.43s1.43,.64,1.43,1.43-.64,1.43-1.43,1.43-1.43-.64-1.43-1.43Z" fill="#e4b531"></path><path d="M115.3,59.01c0-.79,.64-1.43,1.43-1.43s1.43,.64,1.43,1.43-.64,1.43-1.43,1.43-1.43-.64-1.43-1.43Z" fill="#e4b531"></path><circle cx="120.2" cy="60.78" r="1.43" fill="#e4b531"></circle><path d="M121.79,62.96c0-.79,.64-1.43,1.43-1.43s1.43,.64,1.43,1.43-.64,1.43-1.43,1.43-1.43-.64-1.43-1.43Z" fill="#e4b531"></path><circle cx="126.12" cy="69.08" r="1.43" fill="#e4b531"></circle><circle cx="126.34" cy="72.55" r="1.43" fill="#e4b531"></circle><path d="M107.27,57.96c0-.79,.64-1.43,1.43-1.43s1.43,.64,1.43,1.43-.64,1.43-1.43,1.43-1.43-.64-1.43-1.43Z" fill="#e4b531"></path><circle cx="112.08" cy="60.21" r="1.43" fill="#e4b531"></circle><circle cx="113.42" cy="63.59" r="1.43" fill="#e4b531"></circle><path d="M113.54,66.69c0-.63,.51-1.14,1.14-1.14s1.14,.51,1.14,1.14-.51,1.14-1.14,1.14-1.14-.51-1.14-1.14Z" fill="#e4b531"></path><polygon points="91.39 81.38 88.21 81.1 87.16 83.61 89.53 83.97 91.39 81.38" fill="#0067b2"></polygon><polygon points="116.91 81.47 119.78 80.69 121.05 83.42 118.46 83.61 116.91 81.47" fill="#0067b2"></polygon><g><path d="M111.7,139.1l.2-.1,.2-.12c8.88-5.43,18.06-11.04,28.98-11.5-.24-.25-.5-.51-.76-.76-.59-.54-1.17-1.03-1.86-1.58-1.27-.22-2.59-.34-3.91-.34-4.38,0-8.93,1.2-13.51,3.56-3.48,1.55-6.8,3.74-10,5.85-4.35,2.88-8.85,5.85-13.88,7.29l.37,.76c.19,.36,.37,.73,.54,1.1l.62,1.27c4.62-1.13,8.88-3.32,13-5.43Z" fill="#fff" fill-rule="evenodd"></path><path d="M102.16,129.75c7.74-5.18,15.75-10.54,25.56-10.54,.75,0,1.52,.03,2.28,.1-1.19-.86-2.3-1.76-3.3-2.65-4.6-.13-9.77,.65-14.4,2.18-4.28,1.12-8.04,3.76-11.67,6.31-1.98,1.39-4.02,2.83-6.14,4.01-1,.66-2.14,1.28-3.24,1.88-1.2,.65-2.33,1.27-3.32,1.94l.19,.12c1.29,.62,2.5,1.37,3.63,2.24,2.37-.79,4.71-2.05,6.91-3.29,1.16-.75,2.34-1.54,3.48-2.31Z" fill="#fff" fill-rule="evenodd"></path><path d="M123.2,146.59c7.65-5.38,15.56-10.94,25.43-11.22-1-1.01-2.16-2.18-3.3-3.37-5.85,.45-10.77,2.75-15.21,5.17-8.82,5.58-18.81,11.92-30.18,14.33,0,.13,0,.25,0,.38,0,1.37-.14,2.71-.39,4.01,0,.03,0,.05,0,.08,7.88-.03,14.56-3.66,21.27-7.7,.8-.55,1.59-1.11,2.39-1.67Z" fill="#fff" fill-rule="evenodd"></path><path d="M112.18,139.01l-.21,.13-.21,.11c-4.15,2.13-8.43,4.33-13.1,5.46,.76,2.08,1.2,4.31,1.26,6.63,11.33-2.42,21.3-8.73,30.11-14.31,4.43-2.41,9.32-4.7,15.15-5.18-1.34-1.4-2.63-2.8-3.59-3.92-.12-.14-.24-.27-.37-.4-10.94,.41-20.14,6.04-29.04,11.48Z" fill="#0067b2" fill-rule="evenodd"></path><path d="M148.79,135.53c-9.89,.23-17.82,5.8-25.49,11.19-.8,.56-1.6,1.12-2.4,1.68-6.75,4.06-13.46,7.71-21.39,7.73-.3,1.44-.74,2.83-1.32,4.14,4.93,1.35,16.99,1.78,38.02-14.91,7.25-4.37,11.84-6.25,15.29-7.16,0,0-1.14-1.11-2.71-2.68Z" fill="#0067b2" fill-rule="evenodd"></path><path d="M110.95,133.98c3.21-2.12,6.53-4.31,10.02-5.86,4.6-2.37,9.17-3.58,13.58-3.58,1.28,0,2.54,.11,3.77,.31-2.43-2-4.65-3.38-4.09-2.96-1.39-.69-2.73-1.51-3.98-2.39-.84-.08-1.7-.12-2.54-.12-9.76,0-17.75,5.34-25.47,10.51-1.14,.76-2.32,1.56-3.49,2.31-2.18,1.22-4.49,2.47-6.84,3.27,2.05,1.6,3.79,3.57,5.12,5.81,5.03-1.43,9.55-4.41,13.91-7.3Z" fill="#0067b2" fill-rule="evenodd"></path><path d="M87.75,132.93c1.01-.7,2.24-1.37,3.43-2.02,1.1-.6,2.23-1.22,3.23-1.88,2.11-1.18,4.15-2.62,6.13-4,3.64-2.56,7.41-5.21,11.71-6.33,4.58-1.51,9.69-2.3,14.26-2.19-3.25-2.91-5.31-5.57-5.31-5.57,0,0-12.23-.85-25.86,11.5-9.22,6.73-15.96,6.81-15.96,6.81,0,0-14.79,2.34-22.68-12.95,0,0,.68,2.43,3.6,8.66,0,0,1.07,4.09,4.87,5.45,0,0,1.64,1.14,3.83,3.28,3-1.67,6.46-2.63,10.13-2.63,3.07,0,5.99,.67,8.62,1.87h0Z" fill="#0067b2" fill-rule="evenodd"></path></g><path d="M88.65,81.12s.03-.01,.04-.02h-.02s-.02,.02-.02,.02Z" fill="#e4b531"></path><path d="M109.98,79.39l3.31,.68c.6,.12,1,.59,.91,1.04-.09,.45-.65,.72-1.24,.6l-3.31-.68c-.6-.12-1-.59-.91-1.04,.09-.45,.65-.72,1.24-.6Z" fill="#e2101a"></path><path d="M97.21,79.4l-3.32,.71c-.6,.13-1,.6-.91,1.05,.1,.45,.66,.71,1.26,.59l3.32-.71c.6-.13,1-.6,.91-1.05s-.66-.71-1.26-.59Z" fill="#e2101a"></path><path d="M119.32,80.77c-8.97-4.05-21.88-4.18-30.63,.33l2.8,.3-1.82,2.44c5.58-2.74,12.79-3.75,19.47-2.92-.36-.23-.58-.6-.5-.96,.08-.41,.52-.7,1.05-.7,.1,0,.21,.01,.31,.03l3.31,.68c.65,.13,1.09,.65,.99,1.16-.06,.31-.33,.56-.68,.66,1.61,.43,3.16,.98,4.6,1.66-.39-.63-1.03-1.26-1.34-1.97,.67-.43,1.69-.39,2.44-.71Zm-20.88-.19c-.18,.27-.49,.47-.85,.55l-3.32,.71c-.11,.02-.22,.03-.32,.03h0c-.53,0-.96-.29-1.05-.69-.04-.21,0-.42,.13-.61,.18-.27,.49-.47,.85-.55l3.32-.71c.11-.02,.22-.03,.32-.03,.53,0,.96,.29,1.05,.69,.04,.21,0,.42-.12,.61Zm5.61-.2l-2.69-.97,2.72-1.21,2.69,1.21-2.72,.97Z" fill="#e4b531"></path></g><g><g><g><path d="M64.49,23.81l.85,1.54-4.65,2.57,.73,1.33,4.13-2.28,.84,1.53-4.13,2.28,1.02,1.84-1.81,1-3.44-6.23,6.46-3.57Z" fill="#fff"></path><path d="M76.23,26.51l-1.13-.99-4.06,1.65-.12,1.5-2.06,.84,.72-7.97,2.64-1.07,6.07,5.21-2.05,.83Zm-5.05-1.07l2.6-1.06-2.35-2.05-.25,3.11Z" fill="#fff"></path><path d="M86.83,21.37l-1.23-4.95,1.99-.49,1.71,6.91-2.93,.73-5.3-3.94,1.23,4.95-2,.5-1.71-6.91,2.94-.73,5.3,3.94Z" fill="#fff"></path><path d="M96.85,14.62l8.57-.35,.07,1.75-3.25,.13,.22,5.36-2.06,.08-.22-5.36-3.26,.13-.07-1.75Z" fill="#fff"></path><path d="M107.92,17.84c.2-2.35,1.94-3.6,4.93-3.34,2.98,.26,4.49,1.79,4.29,4.13-.2,2.35-1.95,3.62-4.93,3.36-2.99-.26-4.49-1.79-4.29-4.15Zm7.07,.61c.11-1.23-.53-2.05-2.29-2.2-1.75-.15-2.52,.53-2.62,1.78-.11,1.25,.54,2.07,2.28,2.22,1.75,.15,2.53-.55,2.64-1.79Z" fill="#fff"></path><path d="M129.41,17.57l-4.18,2.13,2.62,4.82-2.53-.57-1.82-3.36-1.99,1.01-.32,1.41-2.01-.46,1.57-6.95,2.02,.45-.7,3.12,4.34-2.29,3.02,.68Z" fill="#fff"></path><path d="M139.29,20.99l-.55,1.52-5-1.81-.39,1.07,4.81,1.74-.55,1.52-4.81-1.74-.39,1.07,5,1.81-.55,1.52-6.94-2.51,2.42-6.7,6.94,2.51Z" fill="#fff"></path><path d="M146.5,30.14l2.34-4.54,1.83,.94-3.27,6.33-2.69-1.39-1.39-6.47-2.34,4.54-1.84-.95,3.27-6.33,2.7,1.39,1.39,6.47Z" fill="#fff"></path></g><g><path d="M57.53,179.5c-.31,.51,0,1.15,1.6,2.12,1.47,.88,1.97,.87,2.2,.49,.27-.44,.04-.69-1.7-1.9-2.37-1.66-3.16-2.81-2.35-4.16,.77-1.27,2.49-1.02,4.6,.25,2.35,1.41,3.27,2.94,2.51,4.33l-1.85-1.11c.32-.54-.14-1.1-1.51-1.92-1.3-.78-1.72-.74-1.92-.41-.23,.38,0,.67,1.57,1.8,2.14,1.52,3.5,2.55,2.54,4.15-.94,1.56-2.66,1.15-4.83-.16-2.47-1.49-3.6-2.93-2.72-4.59l1.85,1.12Z" fill="#fff"></path><path d="M66.2,183.1c.94-2.17,2.98-2.79,5.74-1.6,2.75,1.19,3.69,3.12,2.76,5.28-.94,2.17-3,2.81-5.75,1.62-2.76-1.19-3.69-3.12-2.75-5.3Zm6.52,2.83c.49-1.14,.14-2.11-1.48-2.82-1.61-.7-2.56-.29-3.05,.85-.5,1.15-.14,2.13,1.46,2.83,1.61,.7,2.58,.28,3.07-.87Z" fill="#fff"></path><path d="M82.54,185.26c2.52,.71,3.65,2.19,3.36,4.01l-2.11-.59c.04-.67-.45-1.38-1.72-1.73-1.47-.41-2.38,.11-2.72,1.31-.34,1.21,.18,2.14,1.64,2.55,1.27,.35,2.06,0,2.37-.61l2.11,.59c-.7,1.72-2.43,2.41-4.96,1.71-2.75-.77-3.9-2.47-3.25-4.82,.66-2.34,2.52-3.19,5.27-2.42Z" fill="#fff"></path><path d="M91.13,187.38l-1.26,7-2.03-.37,1.26-7,2.03,.37Z" fill="#fff"></path><path d="M93.28,191.41c.19-2.35,1.92-3.6,4.91-3.36,2.98,.24,4.5,1.77,4.3,4.11-.19,2.35-1.93,3.62-4.92,3.38-2.99-.24-4.5-1.77-4.3-4.13Zm7.07,.58c.1-1.23-.54-2.04-2.3-2.19-1.75-.14-2.51,.55-2.62,1.79-.1,1.25,.55,2.06,2.29,2.21,1.75,.14,2.53-.56,2.63-1.81Z" fill="#fff"></path><path d="M107.35,193.3c.03,.6,.64,.96,2.51,.86,1.71-.09,2.12-.38,2.09-.83-.03-.52-.35-.59-2.47-.62-2.89-.05-4.2-.56-4.28-2.14-.08-1.48,1.49-2.24,3.95-2.36,2.74-.14,4.36,.6,4.5,2.18l-2.15,.11c-.03-.63-.73-.83-2.33-.75-1.51,.08-1.84,.35-1.82,.73,.02,.44,.37,.56,2.31,.62,2.62,.06,4.33,.15,4.43,2.02,.09,1.82-1.56,2.44-4.09,2.57-2.88,.15-4.63-.42-4.82-2.29l2.16-.11Z" fill="#fff"></path><path d="M117.06,193.29l1.97-.29,.22,1.53-1.97,.29-.23-1.53Z" fill="#fff"></path><path d="M124.91,185.93c2.55-.62,4.26,.12,4.9,1.85l-2.13,.52c-.29-.61-1.07-.98-2.35-.67-1.48,.36-2.02,1.26-1.73,2.48,.3,1.22,1.21,1.78,2.68,1.42,1.28-.31,1.8-1.01,1.77-1.7l2.13-.52c.23,1.84-.94,3.3-3.49,3.92-2.78,.68-4.62-.24-5.2-2.61-.58-2.36,.63-4.01,3.41-4.69Z" fill="#fff"></path><path d="M132.62,187.73c-.87-2.2,.14-4.09,2.93-5.19,2.78-1.1,4.82-.4,5.68,1.79,.87,2.2-.14,4.11-2.92,5.21-2.79,1.1-4.82,.4-5.69-1.81Zm6.61-2.61c-.45-1.15-1.39-1.6-3.03-.95-1.63,.64-2.02,1.6-1.56,2.76,.46,1.17,1.41,1.61,3.03,.97,1.63-.64,2.02-1.62,1.56-2.78Z" fill="#fff"></path><path d="M145.61,186.25l-3.58-6.16,2.78-1.62,4.52,2.84-.24-5.33,2.78-1.62,3.58,6.16-1.78,1.03-2.59-4.46,.28,5.81-1.65,.96-4.91-3.11,2.6,4.46-1.79,1.04Z" fill="#fff"></path></g></g><path d="M48.34,171.86c-18.95-16.08-30.98-40.07-30.98-66.86S30.03,52.95,49.85,36.88" fill="none" stroke="#fff" stroke-miterlimit="10" stroke-width="2.22"></path><path d="M160.16,36.89c19.82,16.07,32.48,40.61,32.48,68.11s-12.03,50.79-30.98,66.87" fill="none" stroke="#fff" stroke-miterlimit="10" stroke-width="2.22"></path></g></g></g></g></svg>