<svg width="100" height="100" viewBox="0 0 100 100" fill="none" xmlns="http://www.w3.org/2000/svg">
<g clip-path="url(#clip0_1124_13703)">
<path d="M50 100C77.6142 100 100 77.6142 100 50C100 22.3858 77.6142 0 50 0C22.3858 0 0 22.3858 0 50C0 77.6142 22.3858 100 50 100Z" fill="black"/>
<path d="M50 2.53333C76.1714 2.53333 97.4667 23.8286 97.4667 50C97.4667 76.1714 76.1714 97.4667 50 97.4667C23.8286 97.4667 2.53333 76.1714 2.53333 50C2.53333 23.8286 23.8286 2.53333 50 2.53333ZM50 0C22.3857 0 0 22.3857 0 50C0 77.6143 22.3857 100 50 100C77.6143 100 100 77.6143 100 50C100 22.3857 77.6143 0 50 0Z" fill="#C12A27"/>
<path fill-rule="evenodd" clip-rule="evenodd" d="M38.9047 65.9667C38.9047 69.2143 38.1475 70.7143 36.7856 71.7095C38.4951 73.4905 42.9475 74.2667 46.5951 73.2048C44.238 71.7476 43.4618 69.4191 43.4523 66.5191C41.9237 66.5143 40.3856 66.3429 38.9047 65.9714M55.3428 66.5905V63.6524C54.0856 61.7524 52.5904 59.5429 50.8094 58.1143V66.0905C50.8094 68.9762 50.0475 70.7714 48.6761 71.7143C50.3856 73.4952 54.838 74.2714 58.4856 73.2095C56.0856 71.7476 55.3475 69.0476 55.3475 66.5905H55.3428ZM69.4094 43.7238C74.4856 41.1762 73.5332 34.819 72.8999 33.2095C72.0666 34.7048 70.5332 35.6571 67.6904 35.6571H64.3761C65.0809 36.7524 65.7332 37.9571 66.3428 39.2714C68.9999 39.281 69.7666 42.0905 69.4142 43.7286L69.4094 43.7238ZM60.9951 55.3048C63.7761 55.3048 64.8809 57.1905 64.6475 59.7571C69.5475 57.1714 68.719 51.4333 68.0809 49.819C67.2856 50.8238 66.1761 51.6905 63.4761 51.6905H55.338V39.2619H57.8047C57.4666 37.9 56.8713 36.6952 56.1475 35.6476H55.0809C53.0142 35.6476 51.0523 35.3524 49.0094 34.5762L50.7999 39.2571V51.6619C52.9713 52.3714 54.4523 53.6619 56.0475 55.2952H60.9904L60.9951 55.3048ZM56.3047 50.7095H60.0094C64.1332 46.5286 63.4094 41.2762 66.1904 41.2762C62.3094 31.6571 56.9142 27.0095 44.8856 27.3143C41.2571 27.3667 39.5285 27.3905 36.538 26.3143L38.7142 31.9952C40.7761 31.2333 43.3904 30.681 46.038 30.681C53.8761 30.681 59.2142 34.9667 59.2142 42.8286C59.2142 45.7571 58.2999 48.6476 56.2999 50.7095H56.3047ZM31.1094 48.8143C31.1094 55.6429 35.4809 61.1524 42.3428 62.0143C44.8094 62.3238 47.5571 61.9762 49.8047 60.9381V64.4714C47.3428 65.2857 44.938 65.6286 42.5142 65.5C32.638 64.9619 25.9999 57.2619 23.8713 48.0429C25.7237 48.0429 26.4332 45.4 28.0475 42.4381C30.419 38.0905 34.4237 34.481 39.1237 32.8667C41.1142 32.181 43.5618 31.7 46.0332 31.7C46.6475 31.7 47.2428 31.7286 47.8237 31.7762C48.6618 33.8571 48.5475 38.6333 47.5285 40.8524C46.4285 37.9048 44.019 36.681 41.4761 36.681C35.138 36.681 31.1047 42.5571 31.1047 48.8143H31.1094ZM43.4475 37.9667V51.4143C46.6999 51.4143 50.6285 51.9238 53.5428 54.3333C57.7761 57.8381 60.0904 62.381 62.4713 64.981C65.0856 67.8333 68.3571 67.5857 71.1713 65.5429C70.8094 69.7333 66.2237 72.9857 64.1475 73.3952C60.5999 70.9191 56.8761 63.7 53.9951 60.0143C51.2618 56.5143 48.8237 55.1143 43.4475 55.1143V61.1333C41.8951 61.081 40.3428 60.6952 38.8999 60.1048V38.0476C40.4285 37.6238 41.9094 37.5286 43.4475 37.9667Z" fill="white"/>
<path d="M30.7095 11.3381L31.1143 12.0714L28.9 13.2952L29.2476 13.9286L31.2143 12.8429L31.6143 13.5714L29.6476 14.6572L30.1333 15.5333L29.2714 16.0095L27.6333 13.0429L30.7095 11.3429V11.3381Z" fill="white"/>
<path d="M36.3001 12.6238L35.762 12.1524L33.8286 12.9381L33.7715 13.6524L32.7905 14.0524L33.1334 10.2571L34.3905 9.74762L37.281 12.2286L36.3048 12.6238H36.3001ZM33.8953 12.1143L35.1334 11.6095L34.0143 10.6333L33.8953 12.1143Z" fill="white"/>
<path d="M41.3476 10.1762L40.7619 7.81906L41.7095 7.58572L42.5238 10.8762L41.1286 11.2238L38.6048 9.34763L39.1905 11.7048L38.2381 11.9429L37.4238 8.65239L38.8238 8.30477L41.3476 10.181V10.1762Z" fill="white"/>
<path d="M46.1189 6.96191L50.1998 6.79524L50.2332 7.62858L48.6856 7.69048L48.7903 10.2429L47.8094 10.281L47.7046 7.72858L46.1522 7.79048L46.1189 6.95715V6.96191Z" fill="white"/>
<path d="M51.3905 8.49525C51.4857 7.3762 52.3143 6.78096 53.7381 6.90477C55.1572 7.02858 55.8762 7.75715 55.781 8.87144C55.6857 9.99049 54.8524 10.5952 53.4334 10.4714C52.0096 10.3476 51.2953 9.61906 51.3905 8.49525ZM54.7572 8.78572C54.8096 8.20001 54.5048 7.80953 53.6667 7.73811C52.8334 7.66668 52.4667 7.99049 52.4191 8.58572C52.3667 9.18096 52.6762 9.57144 53.5048 9.64287C54.3381 9.7143 54.7096 9.38096 54.7619 8.79049L54.7572 8.78572Z" fill="white"/>
<path d="M61.6239 8.36667L59.6334 9.38095L60.881 11.6762L59.6763 11.4048L58.8096 9.80476L57.862 10.2857L57.7096 10.9571L56.7524 10.7381L57.5001 7.42857L58.462 7.64286L58.1286 9.12857L60.1953 8.0381L61.6334 8.36191L61.6239 8.36667Z" fill="white"/>
<path d="M66.3286 9.99524L66.0667 10.7191L63.6858 9.85715L63.5 10.3667L65.7905 11.1952L65.5286 11.9191L63.2381 11.0905L63.0524 11.6L65.4334 12.4619L65.1715 13.1857L61.8667 11.9905L63.0191 8.8L66.3238 9.99524H66.3286Z" fill="white"/>
<path d="M69.7618 14.3524L70.8761 12.1905L71.7476 12.6381L70.1904 15.6524L68.9095 14.9905L68.2476 11.9095L67.1333 14.0714L66.2571 13.6191L67.8142 10.6048L69.0999 11.2667L69.7618 14.3476V14.3524Z" fill="white"/>
<path d="M27.3953 85.4762C27.2476 85.719 27.3953 86.0238 28.1572 86.4857C28.8572 86.9048 29.0953 86.9 29.2048 86.719C29.3334 86.5095 29.2238 86.3905 28.3953 85.8143C27.2667 85.0238 26.8905 84.4762 27.2762 83.8333C27.6429 83.2286 28.4619 83.3476 29.4667 83.9524C30.5857 84.6238 31.0238 85.3524 30.6619 86.0143L29.781 85.4857C29.9334 85.2286 29.7143 84.9619 29.0619 84.5714C28.4429 84.2 28.2429 84.219 28.1476 84.3762C28.0381 84.5571 28.1476 84.6952 28.8953 85.2333C29.9143 85.9571 30.5619 86.4476 30.1048 87.2095C29.6572 87.9524 28.8381 87.7571 27.8048 87.1333C26.6286 86.4238 26.0905 85.7381 26.5096 84.9476L27.3905 85.4809L27.3953 85.4762Z" fill="white"/>
<path d="M31.5238 87.1905C31.9714 86.1571 32.9428 85.8619 34.2571 86.4286C35.5667 86.9952 36.0143 87.9143 35.5714 88.9429C35.1238 89.9762 34.1428 90.281 32.8333 89.7143C31.519 89.1476 31.0762 88.2286 31.5238 87.1905ZM34.6286 88.5381C34.8619 87.9952 34.6952 87.5333 33.9238 87.1952C33.1571 86.8619 32.7047 87.0571 32.4714 87.6C32.2333 88.1476 32.4047 88.6143 33.1667 88.9476C33.9333 89.281 34.3952 89.081 34.6286 88.5333V88.5381Z" fill="white"/>
<path d="M39.2952 88.2143C40.4952 88.5524 41.0333 89.2571 40.8952 90.1238L39.8905 89.8429C39.9095 89.5238 39.6762 89.1857 39.0714 89.0191C38.3714 88.8238 37.9381 89.0714 37.7762 89.6429C37.6143 90.2191 37.8619 90.6619 38.5571 90.8571C39.1619 91.0238 39.5381 90.8571 39.6857 90.5667L40.6905 90.8476C40.3571 91.6667 39.5333 91.9952 38.3286 91.6619C37.019 91.2952 36.4714 90.4857 36.7809 89.3667C37.0952 88.2524 37.9809 87.8476 39.2905 88.2143H39.2952Z" fill="white"/>
<path d="M43.3953 89.2286L42.7953 92.5619L41.8286 92.3857L42.4286 89.0524L43.3953 89.2286Z" fill="white"/>
<path d="M44.4191 91.1476C44.5096 90.0286 45.3334 89.4333 46.7572 89.5476C48.1763 89.6619 48.9001 90.3905 48.8049 91.5048C48.7144 92.6238 47.8858 93.2286 46.462 93.1143C45.0382 93 44.3191 92.2714 44.4144 91.1476H44.4191ZM47.7858 91.4238C47.8334 90.8381 47.5287 90.4524 46.6906 90.381C45.8572 90.3143 45.4953 90.6429 45.443 91.2333C45.3953 91.8286 45.7049 92.2143 46.5334 92.2857C47.3668 92.3524 47.7382 92.019 47.7858 91.4238Z" fill="white"/>
<path d="M51.119 92.0476C51.1333 92.3333 51.4238 92.5048 52.3143 92.4571C53.1286 92.4143 53.3238 92.2762 53.3095 92.0619C53.2952 91.8143 53.1428 91.781 52.1333 91.7667C50.7571 91.7429 50.1333 91.5 50.0952 90.7476C50.0571 90.0429 50.8047 89.681 51.9762 89.6238C53.2809 89.5571 54.0524 89.9095 54.119 90.6619L53.0952 90.7143C53.0809 90.4143 52.7476 90.3191 51.9857 90.3571C51.2666 90.3952 51.1095 90.5238 51.119 90.7048C51.1285 90.9143 51.2952 90.9714 52.219 91C53.4666 91.0286 54.2809 91.0714 54.3285 91.9619C54.3714 92.8286 53.5857 93.1238 52.3809 93.1857C51.0095 93.2571 50.1762 92.9857 50.0857 92.0952L51.1143 92.0429L51.119 92.0476Z" fill="white"/>
<path d="M55.7428 92.0429L56.6809 91.9048L56.7857 92.6333L55.8476 92.7714L55.738 92.0429H55.7428Z" fill="white"/>
<path d="M59.4811 88.5381C60.6953 88.2429 61.5096 88.5952 61.8144 89.419L60.8001 89.6667C60.662 89.3762 60.2906 89.2 59.6811 89.3476C58.9763 89.5191 58.7192 89.9476 58.8572 90.5286C59.0001 91.1095 59.4334 91.3762 60.1334 91.2048C60.743 91.0571 60.9906 90.7238 60.9763 90.3952L61.9906 90.1476C62.1001 91.0238 61.543 91.719 60.3287 92.0143C59.0049 92.3381 58.1287 91.9 57.8525 90.7714C57.5763 89.6476 58.1525 88.8619 59.4763 88.5381H59.4811Z" fill="white"/>
<path d="M63.1524 89.3952C62.7382 88.3476 63.2191 87.4476 64.5477 86.9238C65.8715 86.4 66.8429 86.7333 67.2524 87.7762C67.6667 88.8238 67.1858 89.7333 65.862 90.2571C64.5334 90.7809 63.5667 90.4476 63.1524 89.3952ZM66.3001 88.1524C66.0858 87.6048 65.6382 87.3905 64.8572 87.7C64.081 88.0048 63.8953 88.4619 64.1143 89.0143C64.3334 89.5714 64.7858 89.7809 65.5572 89.4762C66.3334 89.1714 66.5191 88.7048 66.3001 88.1524Z" fill="white"/>
<path d="M69.3381 88.6905L67.6333 85.7571L68.9571 84.9857L71.1095 86.3381L70.9952 83.8L72.319 83.0286L74.0238 85.9619L73.1762 86.4524L71.9428 84.3286L72.0762 87.0952L71.2904 87.5524L68.9524 86.0714L70.1904 88.1952L69.3381 88.6905Z" fill="white"/>
<path d="M23.019 81.8381C13.9952 74.181 8.2666 62.7571 8.2666 50C8.2666 37.2429 14.2999 25.2143 23.738 17.5619" stroke="#C12A27" stroke-miterlimit="10"/>
<path d="M76.2666 17.5667C85.7047 25.219 91.7333 36.9048 91.7333 50C91.7333 63.0952 86.0047 74.1857 76.9809 81.8429" stroke="#C12A27" stroke-miterlimit="10"/>
</g>
<defs>
<clipPath id="clip0_1124_13703">
<rect width="100" height="100" fill="white"/>
</clipPath>
</defs>
</svg>
