<svg width="100" height="100" viewBox="0 0 100 100" fill="none" xmlns="http://www.w3.org/2000/svg">
<g clip-path="url(#clip0_1124_17246)">
<path d="M50 100C77.6142 100 100 77.6142 100 50C100 22.3858 77.6142 0 50 0C22.3858 0 0 22.3858 0 50C0 77.6142 22.3858 100 50 100Z" fill="#005596"/>
<path d="M49.9999 98.7333C76.9146 98.7333 98.7333 76.9147 98.7333 50C98.7333 23.0853 76.9146 1.26666 49.9999 1.26666C23.0853 1.26666 1.2666 23.0853 1.2666 50C1.2666 76.9147 23.0853 98.7333 49.9999 98.7333Z" fill="#005596"/>
<path d="M50 2.53333C76.1714 2.53333 97.4667 23.8286 97.4667 50C97.4667 76.1714 76.1714 97.4667 50 97.4667C23.8286 97.4667 2.53333 76.1714 2.53333 50C2.53333 23.8286 23.8286 2.53333 50 2.53333ZM50 0C22.3857 0 0 22.3857 0 50C0 77.6143 22.3857 100 50 100C77.6143 100 100 77.6143 100 50C100 22.3857 77.6143 0 50 0Z" fill="#005596"/>
<path d="M50 100C77.6142 100 100 77.6142 100 50C100 22.3858 77.6142 0 50 0C22.3858 0 0 22.3858 0 50C0 77.6142 22.3858 100 50 100Z" fill="#7A123C"/>
<path d="M50 2.53333C76.1714 2.53333 97.4667 23.8286 97.4667 50C97.4667 76.1714 76.1714 97.4667 50 97.4667C23.8286 97.4667 2.53333 76.1714 2.53333 50C2.53333 23.8286 23.8286 2.53333 50 2.53333ZM50 0C22.3857 0 0 22.3857 0 50C0 77.6143 22.3857 100 50 100C77.6143 100 100 77.6143 100 50C100 22.3857 77.6143 0 50 0Z" fill="#A2C3E6"/>
<path d="M32.1382 25.2095V63.4143C32.1382 69.2809 39.0525 71.2 44.1001 72.6048C45.1096 72.8857 46.0668 73.1524 46.8906 73.4238C46.9001 73.4238 47.6715 73.6905 48.3239 74.119C48.9144 74.5048 49.5144 75.1619 49.5239 75.1667L50.0049 75.6905L50.4858 75.1667C50.4858 75.1667 51.0953 74.5048 51.6858 74.119C52.3382 73.6905 53.1096 73.4286 53.1144 73.4238C53.9429 73.1524 54.8953 72.8857 55.9096 72.6048C60.9572 71.2 67.8715 69.2809 67.8715 63.4143V25.2095H32.1382Z" fill="white"/>
<path d="M66.5618 63.4143C66.5618 68.2905 60.457 69.9905 55.5523 71.3524C54.5237 71.6381 53.557 71.9048 52.6951 72.1905C52.657 72.2048 51.757 72.5095 50.9618 73.0333C50.6094 73.2667 50.2618 73.5619 49.9999 73.8095C49.738 73.5619 49.3904 73.2667 49.038 73.0333C48.2428 72.5095 47.3428 72.2048 47.2999 72.1905C46.4428 71.9095 45.4713 71.6381 44.4475 71.3524C39.5427 69.9905 33.438 68.2952 33.438 63.4143V26.5095H66.5666V63.4143H66.5618Z" fill="#A2C3E6"/>
<path d="M37.543 41.1095L38.6001 40.5476L39.6573 41.1095L39.4525 39.9143L40.3097 39.0714L39.1287 38.8952L38.6001 37.8095L38.0716 38.8952L36.8906 39.0714L37.7478 39.9143L37.543 41.1095Z" fill="white"/>
<path d="M50.0096 28.3762C49.6858 28.4 49.3477 28.4095 48.9715 28.4095C48.5477 28.4095 48.1239 28.4 47.5953 28.3762C47.462 28.4333 47.462 28.6667 47.5525 28.7571L47.9096 28.8333C48.1763 28.9 48.2667 28.9429 48.2667 29.0238C48.2667 29.0905 48.2334 29.2143 48.1525 29.4238C48.0191 29.8048 47.5382 31.0571 47.2572 31.7619L46.8334 32.8143C46.7001 33.1476 46.5191 33.5286 46.4334 33.719L46.0667 32.781L45.081 30.2667C44.8144 29.5952 44.6334 29.1286 44.6334 29.0381C44.6334 28.9381 44.7096 28.8714 44.9144 28.8238L45.2477 28.7571C45.3144 28.6571 45.3239 28.4429 45.2382 28.3762C44.5572 28.4 44.0763 28.4095 43.562 28.4095C42.981 28.4095 42.6144 28.3857 42.0429 28.3762C41.9429 28.4333 41.9096 28.6333 42.0001 28.7571L42.4477 28.8714C42.8048 28.9619 42.862 28.981 43.2858 30.0571L45.0953 34.6048C45.2524 34.9857 45.4429 35.5762 45.5667 35.881C45.6334 35.9381 45.7334 35.9714 45.8667 35.9714C46.0334 35.9714 46.1667 35.9381 46.2572 35.881C46.5144 35.2571 46.8048 34.3714 47.3763 33.019L48.1905 31.0857C48.5715 30.181 48.8477 29.5524 49.0953 29.1857C49.2382 28.9524 49.4286 28.8714 49.7429 28.819L50.0334 28.7619C50.1096 28.6952 50.1001 28.4286 50.0096 28.381" fill="#7A123C"/>
<path d="M54.9479 28.4095H52.4479C51.9098 28.4095 51.3527 28.4 50.8717 28.3762C50.7479 28.419 50.7479 28.7 50.8479 28.7667L51.0717 28.8C51.5765 28.8762 51.6432 28.981 51.6432 30.019V34.1762C51.6432 35.2143 51.5765 35.2952 51.0717 35.3714L50.7051 35.4286C50.6146 35.4952 50.6146 35.7524 50.7051 35.819C51.3765 35.7952 51.9336 35.7857 52.4479 35.7857C52.9622 35.7857 53.5336 35.7952 54.2241 35.819C54.3003 35.7524 54.3003 35.4952 54.2241 35.4286L53.8098 35.3714C53.3051 35.3048 53.2384 35.2143 53.2384 34.1762V32.6667C53.2384 32.3667 53.2479 32.3333 53.5527 32.3333H54.567C55.1574 32.3333 55.2813 32.4238 55.3955 32.9571L55.4527 33.2238C55.5289 33.3238 55.8098 33.3143 55.8765 33.2143C55.8527 32.881 55.8432 32.4667 55.8432 32.0524C55.8432 31.6381 55.8527 31.2143 55.8765 30.8571C55.8098 30.7571 55.5289 30.7476 55.4527 30.8476L55.3955 31.1143C55.286 31.6619 55.1622 31.7381 54.567 31.7381H53.5527C53.2527 31.7381 53.2384 31.7048 53.2384 31.4048V29.381C53.2384 28.9429 53.2384 28.9238 53.6051 28.9238H54.6289C55.2003 28.9238 55.5336 29.0571 55.7241 29.2905C55.8336 29.4333 55.9241 29.7048 56.0479 30.1619C56.1813 30.2524 56.4289 30.2381 56.4717 30.119C56.4479 29.3714 56.4479 28.5667 56.4479 28.3762C56.2908 28.4 55.6527 28.4095 54.9384 28.4095" fill="#7A123C"/>
<path d="M64.2952 33.719C63.9952 34.4809 63.3666 35.4524 62.0143 35.4524C60.6619 35.4524 59.3857 34.2571 59.3857 32.0333C59.3857 29.8095 60.7143 28.7476 61.9571 28.7476C63.0428 28.7476 63.7571 29.3048 64.0571 30.3476C64.1333 30.4476 64.4381 30.4048 64.4809 30.2714C64.3809 29.6238 64.3476 28.7286 64.3476 28.5286C64.0143 28.5048 63.1857 28.2381 62.0428 28.2381C60.9 28.2381 59.7428 28.5714 58.9476 29.2333C58.1762 29.8714 57.5952 30.8333 57.5952 32.1952C57.5952 33.5571 58.2095 34.5095 59.0143 35.1238C59.8095 35.7143 60.9238 35.9714 62.019 35.9714C62.8905 35.9714 63.6857 35.7238 64.2857 35.5571C64.4428 35.3 64.6333 34.6286 64.7095 33.8048C64.6428 33.6714 64.3762 33.6381 64.2857 33.7286" fill="#7A123C"/>
<path d="M42.3808 35.3619C41.9665 35.2952 41.8665 35.0381 41.6332 34.3667L40.1141 29.9857C39.8332 29.1905 39.6998 28.7762 39.6094 28.4524C39.5665 28.2857 39.4998 28.2286 39.3522 28.2286C39.3332 28.2286 38.9856 28.6857 38.5141 28.8571L38.2379 29.6C38.1998 29.7048 38.157 29.819 38.1094 29.9476L37.9713 30.3143V30.319L36.9522 33.0476C36.6522 33.8524 36.4379 34.3905 36.2475 34.8381C36.057 35.2762 35.8332 35.3619 35.5665 35.3952L35.2665 35.4286C35.1903 35.519 35.176 35.7524 35.2998 35.819C35.8141 35.819 36.0713 35.7857 36.4522 35.7857C36.9237 35.7952 37.3237 35.7952 37.7141 35.819C37.8284 35.7619 37.8046 35.5048 37.7379 35.4286L37.4046 35.3714C37.0903 35.3143 36.9475 35.2476 36.9475 35.1809C36.9475 35.0905 36.957 35 37.0237 34.7762L37.4618 33.4809C37.5284 33.2667 37.5618 33.2571 37.8284 33.2571H39.157C39.5475 33.2571 39.6379 33.281 39.6951 33.4571L39.9951 34.419C40.1284 34.8333 40.2094 35.1 40.2094 35.1809C40.2094 35.2476 40.1665 35.3286 39.9094 35.3714L39.5522 35.4286C39.4284 35.519 39.4522 35.7524 39.576 35.819C40.0903 35.7952 40.5284 35.7857 41.0856 35.7857C41.6427 35.7857 42.2713 35.7952 42.8046 35.819C42.9046 35.7524 42.8808 35.4857 42.8141 35.4286L42.3903 35.3619H42.3808ZM39.0951 32.6667H38.0427C37.7618 32.6667 37.7094 32.6333 37.8094 32.3333L38.0903 31.4952C38.257 30.981 38.4808 30.3762 38.5713 30.119C38.6713 30.3524 38.8713 30.9571 39.0284 31.4381L39.3189 32.3429C39.4094 32.6333 39.3522 32.6667 39.0951 32.6667Z" fill="#7A123C"/>
<path d="M46.3955 41.3809C46.2002 41.5762 46.224 41.8238 46.0478 42C45.9764 42.0714 45.8716 42.1238 45.7431 42.1238C45.4859 42.1238 45.3145 41.9143 45.3145 41.6952C45.3145 41.4762 45.5669 41.2762 46.2621 41.2762C46.3431 41.2762 46.4431 41.2762 46.5335 41.2857C46.4907 41.3 46.4431 41.3286 46.3955 41.3762M63.5335 46.5952C63.3383 46.5952 63.2288 46.6286 63.2288 46.6286C63.2288 46.6286 64.5478 45.3333 64.5478 43.3095C64.5478 42.3905 64.3288 42.0333 64.2955 42.0333C64.224 42.0333 64.224 42.5809 63.8002 43.0048C63.4954 43.3095 63.0097 43.3428 62.7431 43.6143C63.0002 43.0571 62.8145 42.3048 62.7812 42.3048C62.7478 42.3048 62.7669 42.7 62.2669 43.2C61.9478 43.519 61.2097 43.7476 60.6097 44.3524C60.8669 43.7619 60.6431 43.1429 60.5859 43.1429C60.5288 43.1429 60.5859 43.4952 60.2383 43.8429C59.9193 44.1619 59.3002 44.3238 58.8383 44.7857C58.1954 45.4238 58.3097 46.3952 58.3097 46.7476C58.3097 46.7809 58.3097 46.8143 58.3097 46.8476C58.2193 46.9095 58.1288 46.9857 58.0383 47.0619C57.3145 47.6952 56.9288 48.5333 56.9288 49.4809C56.9288 51.2857 58.1002 52.5095 59.1335 53.5857C59.5907 54.0619 60.0193 54.5143 60.3335 54.9857C60.6574 55.4714 60.805 55.9095 60.805 56.3714C60.805 56.8333 60.6574 57.2476 60.3955 57.5524C60.105 57.8952 59.6954 58.0714 59.1812 58.0714C58.2954 58.0714 57.6431 57.7381 56.9526 57.3905C56.6002 57.2095 56.2478 57.019 55.8621 56.8714C55.6669 54.919 54.2621 53.7428 54.2621 51.9143C54.2621 50.919 54.705 50.3667 54.5383 49.6714C54.8574 49.9905 55.4097 50.1 55.5859 50.1C55.7431 50.1 55.8431 50.0429 55.8954 50C55.905 49.9905 55.905 49.9762 55.8954 49.9667C55.805 49.9 55.4526 49.6143 55.4526 49.0857C55.4526 48.4809 55.6764 48.0238 55.6764 47.4238C55.6764 46.8238 55.3431 46.4667 55.2812 46.4048C55.5526 46.6762 56.0335 46.8381 56.2669 46.8381C56.4764 46.8381 56.5859 46.8048 56.6526 46.7524C56.6669 46.7429 56.6621 46.7238 56.6526 46.7143C56.5383 46.6428 56.0764 46.3333 56.0764 45.8524C56.0764 45.3048 56.2288 45.2 56.2288 44.8143C56.2288 44.4286 56.0478 44.1524 56.0478 44.1524C56.0478 44.1524 56.305 44.3048 56.605 44.3048C56.9431 44.3048 57.1383 44.219 57.2621 44.1143C57.2764 44.1 57.2669 44.0762 57.2478 44.0762C56.3907 44.0095 56.5097 42.0667 55.7002 41.3476C55.7002 41.3476 55.7859 41.3667 55.9145 41.3667C56.1907 41.3667 56.5335 41.1286 56.6526 40.9048C56.6621 40.8905 56.6526 40.8714 56.6335 40.8714C55.0907 40.7952 54.5954 37.3714 51.1145 38.0571C51.2954 37.8 51.6288 37.5857 51.7478 37.5143C51.7621 37.5048 51.7621 37.4809 51.7478 37.4762C51.5907 37.4143 51.2574 37.2857 50.4812 37.2857C49.705 37.2857 48.9478 37.7095 48.5288 38.2571C48.7145 37.8809 48.4859 37.4 48.2764 37.1667C48.2621 37.1524 48.2431 37.1571 48.2383 37.1762C48.2145 37.2762 48.1288 37.4809 48.0002 37.6095C47.3716 38.2381 46.2478 38.6381 46.2478 39.9429C46.2478 39.9429 45.8812 40.1762 45.3812 40.519C44.8812 40.8571 44.6145 41.3952 44.6145 41.5619C44.424 41.6619 43.6335 42.2429 43.0002 42.8714C42.9859 42.8857 42.9812 42.9095 42.9955 42.9238C43.0669 43.0286 43.1145 43.1619 43.1383 43.2381C43.1478 43.2667 43.1859 43.2762 43.2097 43.2571C43.2954 43.1762 43.4669 43.0238 43.5431 43C43.4002 43.1429 43.3526 43.3143 43.3526 43.5286C43.3526 44.0048 44.4097 44.6714 44.4716 44.6048C44.5193 44.5571 44.3478 44.0714 44.505 43.9143C44.7431 43.6762 45.5812 43.6476 45.8383 43.6476C46.0955 43.6476 46.2335 43.7476 46.2335 43.9238C46.2335 44.3714 45.9812 45.2 45.1764 45.2C44.8526 45.2 44.6383 44.8857 44.5859 44.9381C44.5335 44.9905 44.5764 45.4571 44.6812 45.6143C44.6812 45.6143 44.5907 45.719 44.5907 45.9429C44.5907 46.519 45.5431 47.2571 45.6431 47.1619C45.7097 47.0952 45.4478 46.4476 45.6145 46.4476C45.705 46.4476 45.9621 46.819 46.2526 46.819C46.2669 46.819 46.2716 46.819 46.2764 46.8095C46.324 46.7619 46.0907 46.4333 46.2145 46.3095C46.5335 45.9905 47.3716 45.3619 47.5859 45.2905C48.0288 45.1476 48.2621 45.4714 48.2621 45.9048C48.2621 46.8714 47.2383 47.0667 46.4002 47.9048C45.5621 48.7429 45.3955 49.9333 44.3431 49.9333C44.205 49.9333 45.124 49.6809 45.3859 48.7667C42.6335 48.7857 42.1669 47.2524 39.9621 46.9571C39.9621 46.9238 39.9383 46.8905 39.9145 46.8619C39.8574 46.8048 39.0859 46.1238 39.0859 44.6C39.0859 44.2952 38.8764 44.0571 38.5621 44.0571C38.4669 43.8428 38.2002 43.4048 37.6478 43.4048C37.124 43.4048 36.9907 43.6476 37.024 43.6809C37.0526 43.7095 37.2764 43.6286 37.5526 43.9C37.7097 44.0571 37.7716 44.2381 37.7955 44.3619C37.7288 44.4429 37.6907 44.5333 37.6907 44.6429C37.6907 44.6429 37.4193 44.5905 37.1574 44.8381C37.0431 44.7714 36.8526 44.6952 36.5669 44.6952C35.8097 44.6952 35.6574 45.3762 35.6859 45.4095C35.7193 45.4381 35.8526 45.2905 36.0859 45.2905C36.3526 45.2905 36.6288 45.5 36.7764 45.6333C36.7574 45.8095 36.7955 45.9714 36.9097 46.0905C36.9097 46.0905 36.5478 46.2 36.4859 46.7095C36.4716 46.7095 36.4526 46.719 36.4335 46.7238C35.4288 47.0048 35.6193 47.7857 35.6621 47.7857C35.705 47.7857 35.7574 47.4476 36.2145 47.4476C36.3764 47.4476 36.505 47.4667 36.605 47.4905C36.7812 47.8333 37.105 47.919 37.3383 47.919C37.5478 47.919 37.7383 47.8762 37.9097 47.8762C38.1383 47.8762 38.2764 48.0143 38.2764 48.3381C38.2764 48.8095 37.824 48.6667 37.6193 48.8714C37.4812 49.0095 37.4621 49.1333 37.4621 49.319C37.4621 49.3286 37.4621 49.3333 37.4621 49.3429C37.4002 49.3619 37.3335 49.3714 37.2621 49.3714C36.9478 49.3714 36.7716 49.0905 36.7288 49.1286C36.6716 49.1809 36.8621 50.0809 37.4954 50.0809C37.7193 50.0809 37.8716 50.019 37.9764 49.9428C38.0288 49.9571 38.0859 49.9619 38.1478 49.9619C38.7907 49.9619 38.9335 49.1905 39.7335 49.1905C40.5335 49.1905 42.0621 50.2905 42.2764 51.6667C42.2764 51.6857 42.3002 51.6905 42.3097 51.6809C42.6574 51.3952 42.6383 50.9667 42.6383 50.9667C43.2859 51.4952 43.5574 51.7381 44.105 52.2762C44.105 52.2762 40.9383 54.7095 40.7716 54.8048C40.6288 54.8905 40.5621 54.9238 40.3859 54.9238C39.9383 54.9238 39.8002 54.1762 39.0907 54.1762C38.9526 54.1762 38.8526 54.219 38.7669 54.2809C38.6955 54.2667 38.605 54.2571 38.4859 54.2571C37.6478 54.2571 37.4955 55.3809 37.5764 55.3809C37.6574 55.3809 37.7145 55.0905 38.1145 55.0905C38.1669 55.0905 38.2193 55.0952 38.2716 55.1095C38.2716 55.3238 38.3574 55.5286 38.4954 55.6333C38.4954 55.6333 38.2669 55.719 38.1383 55.9857C37.1431 56.019 37.1621 57.1905 37.2574 57.1905C37.3288 57.1905 37.3669 56.7 37.9431 56.7C37.9859 56.7 38.0383 56.719 38.0907 56.7429C38.1907 57.1809 38.4907 57.419 38.8478 57.419C38.7621 57.5809 38.7764 57.8476 38.8716 58.0762C38.6383 58.5571 39.0526 59.2238 39.1621 59.2238C39.2431 59.2238 39.1431 58.8 39.3288 58.5238C39.3669 58.5333 39.4097 58.5381 39.4526 58.5381C39.9716 58.5381 40.1907 58.1 40.1907 58.1C40.1907 58.1 40.2193 58.5619 40.6812 58.6095C40.7764 59.019 41.0431 59.3667 41.1288 59.3667C41.1859 59.3667 41.0716 58.8095 41.2431 58.4524C41.8955 57.8 41.3812 56.9476 42.0621 56.2714C42.8431 55.4905 44.7669 54.7905 46.3478 54.7238C46.9193 55.3667 47.7145 56.3381 48.0764 56.5905C48.0764 56.5905 48.0621 56.6095 48.0383 56.6333C47.0621 57.6095 45.2478 56.7524 44.2954 57.7095C43.9193 58.0905 43.8669 58.4381 43.3335 58.4381C43.1478 58.4381 42.9812 58.3476 42.905 58.2762C42.8954 58.2667 42.8764 58.2714 42.8716 58.2857C42.8383 58.4 42.8097 58.7762 43.1002 59.0667C43.4288 59.3952 43.8383 59.3333 43.9431 59.2762C43.6812 59.6333 43.1002 59.6143 42.7669 59.419C42.7478 59.4095 42.7288 59.4238 42.7335 59.4429C43.0002 60.4571 44.0526 60.2667 44.0526 60.2667C44.2716 61.3571 45.3526 61.8143 45.3526 62.5428C45.3526 62.7476 45.2669 62.9809 45.0954 63.1524C44.6859 63.5619 43.7764 63.8333 42.7907 63.8333C41.2002 63.8333 41.1812 62.7048 40.3145 62.7048C40.2002 62.7048 40.0907 62.719 39.9859 62.7428C39.8621 62.6 39.5907 62.4381 39.2478 62.4381C38.7193 62.4381 38.4097 63.0381 38.4812 63.1095C38.524 63.1524 38.6812 62.9667 38.9193 62.9667C39.0383 62.9667 39.1812 63.0667 39.2431 63.2286C39.2002 63.2809 39.1621 63.3381 39.1288 63.4C39.0383 63.3762 38.9288 63.3619 38.7955 63.3619C37.8002 63.3619 37.8193 64.5143 37.9193 64.5143C37.9812 64.5143 38.1097 64.0857 38.5907 64.1428C38.4955 64.319 38.4383 64.5238 38.4383 64.7381C38.4383 64.7714 38.4383 64.8048 38.4383 64.8333C38.2097 64.9667 38.0335 65.2143 38.0335 65.4952C38.0335 65.9095 38.1145 66.1238 38.1764 66.1238C38.2478 66.1238 38.3145 65.6429 38.6812 65.4857C38.8478 65.7095 39.0859 65.8762 39.3621 65.9524C39.3288 66.0952 39.2954 66.3143 39.2954 66.6238C39.2954 67.0095 39.4145 67.5238 39.4955 67.5238C39.5716 67.5238 39.6193 66.9286 39.8764 66.6952C39.9859 66.8 40.1193 66.8857 40.2621 66.9476C40.4002 67.0095 40.5669 67.0476 40.7574 67.0476C40.7669 67.0476 40.7812 67.0476 40.7907 67.0476C42.1193 67.0286 42.9669 65.8095 43.9669 65.8095C44.524 65.8095 44.5335 66.3333 44.3335 66.5571C45.8431 66.5571 46.2764 65.4095 47.2002 65.4095C47.6669 65.4095 48.0859 65.6571 48.5145 65.6524C48.7907 65.6524 49.1431 65.5571 49.3383 65.1571C49.3431 65.1429 49.3383 65.1238 49.3193 65.1238C48.6145 65.1333 48.3145 64.7952 48.2574 64.5905C49.5193 65.1 49.8907 64.3095 49.9621 64.1C49.9669 64.0809 49.9526 64.0667 49.9335 64.0714C49.8812 64.0905 49.7954 64.119 49.6907 64.119C49.0097 64.119 48.2716 63.4286 48.2716 62.4762C48.2716 61.5714 48.9002 61.0619 49.4955 60.8952C49.9669 59.5619 50.6288 59.2952 50.3716 58.4619C50.3716 58.4619 50.3716 58.4571 50.3716 58.4524C50.4431 58.5429 50.5764 58.9048 50.5764 59.1C50.5764 59.9809 49.7335 60.4857 49.7335 61.8762C49.7335 63.4476 50.9574 63.3857 50.9574 64.4381C50.9574 64.8571 50.7955 65.0952 50.7335 65.1762C50.724 65.1905 50.7335 65.2095 50.7478 65.2095C50.9002 65.2333 51.4716 65.2524 52.024 64.3381C52.7526 64.7143 52.5574 65.3524 52.5002 65.4952C52.4954 65.5095 52.505 65.5238 52.5193 65.5238C53.4716 65.4952 53.7764 64.2048 53.7764 64.2048C54.6193 64.1143 55.2812 64.4048 55.2812 64.7571C55.2812 65.6667 53.5812 67.3714 52.3335 67.3714C51.8716 67.3714 51.7097 66.8905 51.305 66.8905C51.0145 66.8905 50.8669 67.0333 50.7812 67.2143C50.6193 67.1428 50.4526 67.1095 50.2955 67.1095C49.9002 67.1095 49.5526 67.3333 49.4335 67.819C48.9002 67.9952 48.7907 68.8238 48.8431 68.8809C48.8859 68.9238 49.1478 68.4809 49.5859 68.5905C49.6621 68.7143 49.7526 68.8143 49.824 68.8857C49.7383 68.9333 49.6383 68.9952 49.5383 69.0952C49.0145 69.619 49.1478 70.2095 49.1954 70.2571C49.2478 70.3095 49.3431 70.0524 49.4907 69.9048C49.605 69.7905 49.7716 69.6667 49.9907 69.6857C50.1716 70.0238 50.5574 70.1143 50.805 70.1143C50.7764 70.419 50.7764 70.9333 50.8526 71.0095C50.9097 71.0667 51.1478 70.5714 51.5097 70.3095C51.7002 70.4286 51.9383 70.5381 52.1812 70.5381C52.8764 70.5381 53.4954 70.2143 53.9954 69.7143C54.724 68.9857 55.224 67.8143 55.8431 67.8143C56.2335 67.8143 56.1574 68.1667 56.1431 68.2095C57.1431 68.2095 56.7145 66.9905 58.6145 65.0905C58.8478 64.8571 59.1145 64.6571 59.1526 64.4238C59.1526 64.4048 59.1335 64.3905 59.1193 64.4C58.9526 64.5048 58.5288 64.5381 58.3383 64.3476C58.3383 64.3476 59.8764 63.5857 59.9193 62.4429C59.9193 62.4238 59.9002 62.4143 59.8859 62.4238C59.4716 62.7524 58.705 62.6762 58.705 62.6762C59.0621 62.3857 59.3288 61.5714 58.9574 60.7952C58.9478 60.7762 58.924 60.7762 58.9193 60.7952C58.5621 61.6381 57.8383 61.9286 57.1764 61.9286C56.2288 61.9286 55.4288 61.1667 55.4288 60.1238C55.4288 59.2333 55.7193 58.8333 55.8335 58.0381C56.0335 58.1238 56.2431 58.2333 56.4669 58.3428C57.205 58.719 58.0431 59.1428 59.1954 59.1428C59.624 59.1428 60.0193 59.0619 60.3764 58.8952C60.7097 58.7429 61.005 58.519 61.2431 58.2381C61.6764 57.7286 61.9145 57.0571 61.9145 56.3428C61.9145 54.8667 60.9097 53.8143 59.9383 52.8C59.4574 52.3 58.9621 51.7809 58.6002 51.219C58.2193 50.6238 58.0383 50.0619 58.0383 49.4524C58.0383 48.8429 58.3812 48.1857 58.8526 47.7667C58.8526 47.7667 59.9002 48.3524 61.1002 48.3524C62.3002 48.3524 63.024 47.4714 63.024 47.4714C63.5764 46.919 64.1716 47.0048 64.2288 46.9429C64.2907 46.8809 63.9764 46.5762 63.5431 46.5762" fill="#FFE400"/>
<path d="M30.7095 11.3381L31.1143 12.0714L28.9 13.2952L29.2476 13.9286L31.2143 12.8429L31.6143 13.5714L29.6476 14.6572L30.1333 15.5333L29.2714 16.0095L27.6333 13.0429L30.7095 11.3429V11.3381Z" fill="white"/>
<path d="M36.3001 12.6238L35.762 12.1524L33.8286 12.9381L33.7715 13.6524L32.7905 14.0524L33.1334 10.2571L34.3905 9.74762L37.281 12.2286L36.3048 12.6238H36.3001ZM33.8953 12.1143L35.1334 11.6095L34.0143 10.6333L33.8953 12.1095V12.1143Z" fill="white"/>
<path d="M41.3476 10.1762L40.7619 7.81906L41.7095 7.58572L42.5238 10.8762L41.1286 11.2238L38.6048 9.34763L39.1905 11.7048L38.2381 11.9429L37.4238 8.65239L38.8238 8.30477L41.3476 10.181V10.1762Z" fill="white"/>
<path d="M46.1191 6.96191L50.2001 6.79524L50.2334 7.62858L48.6858 7.69048L48.7906 10.2429L47.8096 10.281L47.7049 7.72858L46.1525 7.79048L46.1191 6.95715V6.96191Z" fill="white"/>
<path d="M51.3903 8.49525C51.4855 7.3762 52.3141 6.78096 53.7379 6.90477C55.1569 7.02858 55.876 7.75715 55.7807 8.87144C55.6855 9.99049 54.8522 10.5905 53.4331 10.4714C52.0093 10.3476 51.295 9.61906 51.3903 8.49525ZM54.7569 8.78572C54.8093 8.20001 54.5045 7.80953 53.6664 7.73811C52.8331 7.66668 52.4665 7.99049 52.4188 8.58572C52.3665 9.18096 52.676 9.57144 53.5045 9.64287C54.3379 9.7143 54.7093 9.38096 54.7617 8.79049L54.7569 8.78572Z" fill="white"/>
<path d="M61.6189 8.36667L59.6236 9.38095L60.8712 11.6762L59.6665 11.4048L58.7998 9.80476L57.8522 10.2857L57.6998 10.9571L56.7427 10.7429L57.4903 7.43333L58.4522 7.65238L58.1189 9.1381L60.1855 8.04762L61.6236 8.37143L61.6189 8.36667Z" fill="white"/>
<path d="M66.3286 9.99524L66.0667 10.7191L63.6858 9.85715L63.5 10.3667L65.7905 11.1952L65.5286 11.9191L63.2381 11.0905L63.0524 11.6L65.4334 12.4619L65.1715 13.1857L61.8667 11.9905L63.0191 8.8L66.3238 9.99524H66.3286Z" fill="white"/>
<path d="M69.7621 14.3524L70.8764 12.1905L71.7478 12.6381L70.1907 15.6524L68.9097 14.9905L68.2478 11.9095L67.1335 14.0714L66.2573 13.6191L67.8145 10.6048L69.1002 11.2667L69.7621 14.3476V14.3524Z" fill="white"/>
<path d="M27.395 85.4762C27.2474 85.719 27.395 86.0238 28.1569 86.4857C28.8569 86.9048 29.095 86.9 29.2045 86.719C29.3331 86.5095 29.2236 86.3905 28.395 85.8143C27.2665 85.0238 26.8903 84.4762 27.276 83.8333C27.6426 83.2286 28.4617 83.3476 29.4665 83.9524C30.5855 84.6238 31.0236 85.3524 30.6617 86.0143L29.7807 85.4857C29.9331 85.2286 29.7141 84.9619 29.0617 84.5714C28.4426 84.2 28.2426 84.219 28.1474 84.3762C28.0379 84.5571 28.1474 84.6952 28.895 85.2333C29.9141 85.9571 30.5617 86.4476 30.1045 87.2095C29.6569 87.9524 28.8379 87.7571 27.8045 87.1333C26.6284 86.4238 26.0903 85.7381 26.5093 84.9476L27.3903 85.4809L27.395 85.4762Z" fill="white"/>
<path d="M31.5236 87.1905C31.9712 86.1571 32.9426 85.8619 34.2569 86.4286C35.5664 86.9952 36.014 87.9143 35.5712 88.9429C35.1236 89.9762 34.1426 90.281 32.8331 89.7143C31.5188 89.1476 31.0759 88.2286 31.5236 87.1905ZM34.6283 88.5381C34.8616 87.9952 34.695 87.5333 33.9236 87.1952C33.1569 86.8619 32.7045 87.0571 32.4712 87.6C32.2331 88.1476 32.4045 88.6143 33.1664 88.9476C33.9331 89.281 34.395 89.081 34.6283 88.5333V88.5381Z" fill="white"/>
<path d="M39.295 88.2143C40.495 88.5524 41.0331 89.2571 40.895 90.1238L39.8902 89.8429C39.9093 89.5238 39.6759 89.1857 39.0712 89.0191C38.3712 88.8238 37.9378 89.0714 37.7759 89.6429C37.614 90.2191 37.8616 90.6619 38.5569 90.8571C39.1616 91.0238 39.5378 90.8571 39.6854 90.5667L40.6902 90.8476C40.3569 91.6667 39.5331 91.9952 38.3283 91.6619C37.0188 91.2952 36.4712 90.4857 36.7807 89.3667C37.095 88.2524 37.9807 87.8476 39.2902 88.2143H39.295Z" fill="white"/>
<path d="M43.3948 89.2286L42.7948 92.5619L41.8281 92.3857L42.4281 89.0524L43.3948 89.2286Z" fill="white"/>
<path d="M44.4189 91.1476C44.5094 90.0286 45.3332 89.4333 46.757 89.5476C48.176 89.6619 48.8999 90.3905 48.8046 91.5048C48.7141 92.6238 47.8856 93.2286 46.4618 93.1143C45.0379 93 44.3189 92.2714 44.4141 91.1476H44.4189ZM47.7856 91.4238C47.8332 90.8381 47.5284 90.4524 46.6903 90.381C45.857 90.3143 45.4951 90.6429 45.4427 91.2333C45.3951 91.8286 45.7046 92.2143 46.5332 92.2857C47.3665 92.3524 47.7379 92.019 47.7856 91.4238Z" fill="white"/>
<path d="M51.1188 92.0476C51.1331 92.3333 51.4235 92.5048 52.314 92.4571C53.1283 92.4143 53.3235 92.2762 53.3093 92.0619C53.295 91.8143 53.1426 91.781 52.1331 91.7667C50.7569 91.7429 50.1331 91.5 50.095 90.7476C50.0569 90.0429 50.8045 89.681 51.9759 89.6238C53.2807 89.5571 54.0521 89.9095 54.1188 90.6619L53.095 90.7143C53.0807 90.4143 52.7474 90.3191 51.9854 90.3571C51.2664 90.3952 51.1093 90.5238 51.1188 90.7048C51.1283 90.9143 51.295 90.9714 52.2188 91C53.4664 91.0286 54.2807 91.0714 54.3283 91.9619C54.3712 92.8286 53.5854 93.1238 52.3807 93.1857C51.0093 93.2571 50.1759 92.9857 50.0854 92.0952L51.114 92.0429L51.1188 92.0476Z" fill="white"/>
<path d="M55.7426 92.0429L56.6806 91.9048L56.7854 92.6333L55.8473 92.7714L55.7378 92.0429H55.7426Z" fill="white"/>
<path d="M59.4808 88.5381C60.6951 88.2429 61.5094 88.5952 61.8141 89.419L60.7999 89.6667C60.6618 89.3762 60.2903 89.2 59.6808 89.3476C58.9761 89.5191 58.7189 89.9476 58.857 90.5286C58.9999 91.1095 59.4332 91.3762 60.1332 91.2048C60.7427 91.0571 60.9903 90.7238 60.9761 90.3952L61.9903 90.1476C62.0999 91.0238 61.5427 91.719 60.3284 92.0143C59.0046 92.3381 58.1284 91.9 57.8522 90.7714C57.576 89.6476 58.1522 88.8619 59.4761 88.5381H59.4808Z" fill="white"/>
<path d="M63.1522 89.3952C62.7379 88.3476 63.2189 87.4524 64.5474 86.9238C65.8712 86.4 66.8427 86.7333 67.2522 87.7762C67.6665 88.8238 67.1855 89.7333 65.8617 90.2571C64.5331 90.7809 63.5665 90.4476 63.1522 89.3952ZM66.2998 88.1524C66.0855 87.6048 65.6379 87.3905 64.857 87.7C64.0808 88.0048 63.8951 88.4619 64.1141 89.0143C64.3331 89.5714 64.7855 89.7809 65.557 89.4762C66.3331 89.1714 66.5189 88.7048 66.2998 88.1524Z" fill="white"/>
<path d="M69.3332 88.6952L67.6284 85.7619L68.9522 84.9905L71.1046 86.3429L70.9903 83.8048L72.3141 83.0333L74.0189 85.9667L73.1713 86.4571L71.9379 84.3333L72.0713 87.1L71.2856 87.5571L68.9475 86.0762L70.1856 88.2L69.3332 88.6952Z" fill="white"/>
<path d="M23.019 81.8381C13.9952 74.181 8.2666 62.7571 8.2666 50C8.2666 37.2429 14.2999 25.2143 23.738 17.5619" stroke="#A2C3E6" stroke-miterlimit="10"/>
<path d="M76.2666 17.5667C85.7047 25.219 91.7333 36.9048 91.7333 50C91.7333 63.0952 86.0047 74.1857 76.9809 81.8429" stroke="#A2C3E6" stroke-miterlimit="10"/>
</g>
<defs>
<clipPath id="clip0_1124_17246">
<rect width="100" height="100" fill="white"/>
</clipPath>
</defs>
</svg>
