<svg xmlns="http://www.w3.org/2000/svg" id="Layer_2" viewBox="0 0 210 210"><g id="Layer_1-2"><g><g><circle cx="105" cy="105" r="105" fill="#7f0a1f"></circle><path d="M105,210C47.01,210,0,162.99,0,105S47.01,0,105,0V210Z" fill="#006337"></path><path d="M105,5.32c54.96,0,99.68,44.72,99.68,99.68s-44.72,99.68-99.68,99.68S5.32,159.96,5.32,105,50.04,5.32,105,5.32m0-5.32C47.01,0,0,47.01,0,105s47.01,105,105,105,105-47.01,105-105S162.99,0,105,0h0Z" fill="#fff"></path></g><g><g><path d="M105.02,46.83c-13.02,16.15-29.84,22.45-50.32,18.46-.47,52.82,23.89,77.78,50.32,97.88,26.15-19.83,50.96-45.21,50.28-97.83-21.27,3.95-37.14-2.18-50.28-18.51h0Z" fill="#fff" fill-rule="evenodd" stroke="#900b26" stroke-miterlimit="2.61" stroke-width=".14"></path><path d="M144.1,106.08c-5.76,15.8-17.15,32.23-39.1,50.09-21.7-17.77-33.08-34.32-38.9-50.09h78Z" fill="#006337" fill-rule="evenodd"></path><path d="M60.35,71.78c26.69,.28,34.36-5.1,44.65-16.53,11.1,11.09,18.47,16.87,44.66,16.53-.1,10.5-1.14,21.01-4.68,31.79H65.21c-3.65-10.91-4.74-21.46-4.86-31.79h0Z" fill="#7f0a1f" fill-rule="evenodd"></path><path d="M92.47,74.08c.89,.28,2.68-.32,3.65,1.56,.48,.94,1.34,1.97,1.63,3.97l5.53-.86c-.62-2.17-.19-2.22-.74-3.93,3.42-.33,6.73-1.06,9.82-2.7,1.51,1.27,2.87,2.33,4.67,3.07-6.85,3.83-6.15,6.94-5.65,8.96l2.7,3.19c-.11-6.7,4.21-10.98,9.58-12.28-3.67-1.99-7.21-4.24-10.56-6.88-6.11,2.15-13.66,4.58-16.82,2.21l-3.81,3.68h0Z" fill="#fff" fill-rule="evenodd"></path><path d="M86.95,89.7c-.02,.21,4.63-2.34,5.77-1.79l-.43-2.64c5.42-2.43,10.95-3.46,18.46-2.21,.05-1.19,0-2.07,.55-3.25-2.49-.45-4.99-.53-7.54-.74-1.78,.16-4.4,.44-6.32,1.04-1.92,.61-4,1.42-5.77,1.59-1.77,.17-2.62-.39-4.23-.8-1.33,1.53-2.11,2.21-4.11,3.99,1.62-.37,4.06,.2,3.7,3.93l-.08,.87h0Z" fill="#fff" fill-rule="evenodd"></path><path d="M116.12,80.66c5.29,1.96,5.41,.12,7.68-.06l1.34,2.63c-6.97,2.07-10.24,10.37-5.12,15.11-4.98,.95-7.94-5.26-3.96-12.83,.23-.44-.03-1.14,.25-1.58l-1.47-.38c.26-1.15,.77-1.79,1.28-2.88h0Z" fill="#fff" fill-rule="evenodd"></path><path d="M119.19,88.28c-.58,.9-1.09,2.11-1.15,3.46,2.72,.94,4.27,2.46,5.32,6.08,.03,.11,.08,.22,.13,.33,1.38,3.54,8.17,3.63,9.35,2.43,.3-1.37-.11-2.22-1.34-2.56-1.43,.01-1.26,1.44-2.56,1.09-1.6-.56-2.48-1.26-2.87-2.6-.58-2.01,.56-4.17,3.63-4.89l-1.54-2.11c-3.04,.16-6.09,.16-8.97-1.22h0Z" fill="#fff" fill-rule="evenodd"></path><path d="M115.03,87.06l-.7-.19-.13,.64-.32,.13-.9-1.09c-3.03-.36-6.06-.38-9.09-.06l-.19,3.52c3.59-.28,7.06-.13,10.31,.45,.24-1.2,.47-2.33,1.02-3.39h0Z" fill="#fff" fill-rule="evenodd"></path><path d="M97.5,84.11l-.25,17.67,5.15-.24,.25-2.82,3.8-.25,.61,.61c-2.7,7.44-1.15,11.94,4.66,13.49l.12-.74c-3.84-2.7-4.42-9.53,.61-13.13l-1.59-3.19c-2.98-.79-5.85,1.36-8.22-.25l.86-12.15c-1.88,.16-3.89,.08-6.01,.98h0Z" fill="#fff" fill-rule="evenodd"></path><path d="M91,117.48l-.61,4.66c6.98,1.5,14.61,1.86,23.55-1.23,4.54-1.55,8.96-3.23,13.62-2.45-.9-1.35,3.48-9.57,7.24-4.78l2.09,.12c-.94-1.88-.9-2.9,1.96-4.54-3.15-.37-5.44-.12-7.61-1.84-9.55,8.91-24.19,13.42-40.24,10.06h0Z" fill="#fff" fill-rule="evenodd"></path><path d="M110.26,102.02c-.8,1.39-1.16,2.23-.98,3.62,2,.18,3.76,1.17,4.54,2.64l.06-6.5-3.62,.25h0Z" fill="#fff" fill-rule="evenodd"></path><path d="M97.39,105.9l-.57,12.07c1.89,.29,3.36,.35,5.09,.31l.37-12.39-4.89,.02h0Z" fill="#fff" fill-rule="evenodd"></path><path d="M96.71,123.43c2.15,.27,4,.16,5.64,.24,.45,7.33,3.21,10.29,9.35,12.25,1.23,.39,2.74,.8,3.64,1.37-14.64,1.37-14.6-8.06-21.14-.86l-1.78-2.51c2.2-2.07,3.49-6.12,4.29-10.49h0Z" fill="#fff" fill-rule="evenodd"></path><path d="M96.8,87.54c-8.87,.87-16.96,5.88-23.89,16.96-.54,.78-1.62,1.98-1.82,2.21,.91,.16,1.57,.86,1.98,1.25,3.59,6.5,7.53,10.27,11.6,12.4,.58-1.52,.7-3.04,.91-4.56-2.52-1.13-7.99-6.08-7.48-11.49,2.61-6.9,10.97-12.89,18.69-12.77v-4.01h0Z" fill="#fff" fill-rule="evenodd"></path><path d="M87.24,95.25c1.55-1.36,3.24-2.32,5.18-2.5l.18,10.11c4.19-1,8.83-1.09,13.02-.82l-.35,3.28c-4.28,.09-9.03,.09-13.4,1.55-.67,6.57-1.25,12.86-3.19,19.15,3.19,1.06,4.8,2.46,5.56,4.01l-1.46,2.74c-2.04-2.81-4.04-4.3-7.84-3.65l-1.82-1.64c4.01-7.69,3.57-22.62,4.12-32.23h0Z" fill="#fff" fill-rule="evenodd"></path><path d="M94.62,136.42c.41-.14,1.64,2.19,3.74,2.78,.1,.1,1.46-.05,.78-.32-.68-.27-1.96-2.01-2.74-4.06,0,0-2.19,1.73-1.78,1.6h0Z" fill="#fff" fill-rule="evenodd"></path></g><g><g><g><path d="M64.49,23.81l.85,1.54-4.65,2.57,.73,1.33,4.13-2.28,.84,1.53-4.13,2.28,1.02,1.84-1.81,1-3.44-6.23,6.46-3.57Z" fill="#fff"></path><path d="M76.23,26.51l-1.13-.99-4.06,1.65-.12,1.5-2.06,.84,.72-7.97,2.64-1.07,6.07,5.21-2.05,.83Zm-5.05-1.07l2.6-1.06-2.35-2.05-.25,3.11Z" fill="#fff"></path><path d="M86.83,21.37l-1.23-4.95,1.99-.49,1.71,6.91-2.93,.73-5.3-3.94,1.23,4.95-2,.5-1.71-6.91,2.94-.73,5.3,3.94Z" fill="#fff"></path><path d="M96.85,14.62l8.57-.35,.07,1.75-3.25,.13,.22,5.36-2.06,.08-.22-5.36-3.26,.13-.07-1.75Z" fill="#fff"></path><path d="M107.92,17.84c.2-2.35,1.94-3.6,4.93-3.34,2.98,.26,4.49,1.79,4.29,4.13-.2,2.35-1.95,3.62-4.93,3.36-2.99-.26-4.49-1.79-4.29-4.15Zm7.07,.61c.11-1.23-.53-2.05-2.29-2.2-1.75-.15-2.52,.53-2.62,1.78-.11,1.25,.54,2.07,2.28,2.22,1.75,.15,2.53-.55,2.64-1.79Z" fill="#fff"></path><path d="M129.41,17.57l-4.18,2.13,2.62,4.82-2.53-.57-1.82-3.36-1.99,1.01-.32,1.41-2.01-.46,1.57-6.95,2.02,.45-.7,3.12,4.34-2.29,3.02,.68Z" fill="#fff"></path><path d="M139.29,20.99l-.55,1.52-5-1.81-.39,1.07,4.81,1.74-.55,1.52-4.81-1.74-.39,1.07,5,1.81-.55,1.52-6.94-2.51,2.42-6.7,6.94,2.51Z" fill="#fff"></path><path d="M146.5,30.14l2.34-4.54,1.83,.94-3.27,6.33-2.69-1.39-1.39-6.47-2.34,4.54-1.84-.95,3.27-6.33,2.7,1.39,1.39,6.47Z" fill="#fff"></path></g><g><path d="M57.53,179.5c-.31,.51,0,1.15,1.6,2.12,1.47,.88,1.97,.87,2.2,.49,.27-.44,.04-.69-1.7-1.9-2.37-1.66-3.16-2.81-2.35-4.16,.77-1.27,2.49-1.02,4.6,.25,2.35,1.41,3.27,2.94,2.51,4.33l-1.85-1.11c.32-.54-.14-1.1-1.51-1.92-1.3-.78-1.72-.74-1.92-.41-.23,.38,0,.67,1.57,1.8,2.14,1.52,3.5,2.55,2.54,4.15-.94,1.56-2.66,1.15-4.83-.16-2.47-1.49-3.6-2.93-2.72-4.59l1.85,1.12Z" fill="#fff"></path><path d="M66.2,183.1c.94-2.17,2.98-2.79,5.74-1.6,2.75,1.19,3.69,3.12,2.76,5.28-.94,2.17-3,2.81-5.75,1.62-2.76-1.19-3.69-3.12-2.75-5.3Zm6.52,2.83c.49-1.14,.14-2.11-1.48-2.82-1.61-.7-2.56-.29-3.05,.85-.5,1.15-.14,2.13,1.46,2.83,1.61,.7,2.58,.28,3.07-.87Z" fill="#fff"></path><path d="M82.52,185.25c2.52,.71,3.65,2.19,3.36,4.01l-2.11-.59c.04-.67-.45-1.38-1.72-1.73-1.47-.41-2.38,.11-2.72,1.31-.34,1.21,.18,2.14,1.64,2.55,1.27,.35,2.06,0,2.37-.61l2.11,.59c-.7,1.72-2.43,2.41-4.96,1.71-2.75-.77-3.9-2.47-3.25-4.82,.66-2.34,2.52-3.19,5.27-2.42Z" fill="#fff"></path><path d="M91.13,187.38l-1.26,7-2.03-.37,1.26-7,2.03,.37Z" fill="#fff"></path><path d="M93.28,191.41c.19-2.35,1.92-3.6,4.91-3.36,2.98,.24,4.5,1.77,4.3,4.11-.19,2.35-1.93,3.62-4.92,3.38-2.99-.24-4.5-1.77-4.3-4.13Zm7.07,.58c.1-1.23-.54-2.04-2.3-2.19-1.75-.14-2.51,.55-2.62,1.79-.1,1.25,.55,2.06,2.29,2.21,1.75,.14,2.53-.56,2.63-1.81Z" fill="#fff"></path><path d="M107.35,193.3c.03,.6,.64,.96,2.51,.86,1.71-.09,2.12-.38,2.09-.83-.03-.52-.35-.59-2.47-.62-2.89-.05-4.2-.56-4.28-2.14-.08-1.48,1.49-2.24,3.95-2.36,2.74-.14,4.36,.6,4.5,2.18l-2.15,.11c-.03-.63-.73-.83-2.33-.75-1.51,.08-1.84,.35-1.82,.73,.02,.44,.37,.56,2.31,.62,2.62,.06,4.33,.15,4.43,2.02,.09,1.82-1.56,2.44-4.09,2.57-2.88,.15-4.63-.42-4.82-2.29l2.16-.11Z" fill="#fff"></path><path d="M117.06,193.29l1.97-.29,.22,1.53-1.97,.29-.23-1.53Z" fill="#fff"></path><path d="M124.91,185.93c2.55-.62,4.26,.12,4.9,1.85l-2.13,.52c-.29-.61-1.07-.98-2.35-.67-1.48,.36-2.02,1.26-1.73,2.48,.3,1.22,1.21,1.78,2.68,1.42,1.28-.31,1.8-1.01,1.77-1.7l2.13-.52c.23,1.84-.94,3.3-3.49,3.92-2.78,.68-4.62-.24-5.2-2.61-.58-2.36,.63-4.01,3.41-4.69Z" fill="#fff"></path><path d="M132.62,187.73c-.87-2.2,.14-4.09,2.93-5.19,2.78-1.1,4.82-.4,5.68,1.79,.87,2.2-.14,4.11-2.92,5.21-2.79,1.1-4.82,.4-5.69-1.81Zm6.61-2.61c-.45-1.15-1.39-1.6-3.03-.95-1.63,.64-2.02,1.6-1.56,2.76,.46,1.17,1.41,1.61,3.03,.97,1.63-.64,2.02-1.62,1.56-2.78Z" fill="#fff"></path><path d="M145.61,186.25l-3.58-6.16,2.78-1.62,4.52,2.84-.24-5.33,2.78-1.62,3.58,6.16-1.78,1.03-2.59-4.46,.28,5.81-1.65,.96-4.91-3.11,2.6,4.46-1.79,1.04Z" fill="#fff"></path></g></g><path d="M48.34,171.86c-18.95-16.08-30.98-40.07-30.98-66.86S30.03,52.95,49.85,36.88" fill="none" stroke="#fff" stroke-miterlimit="10" stroke-width="2.22"></path><path d="M160.16,36.89c19.82,16.07,32.48,40.61,32.48,68.11s-12.03,50.79-30.98,66.87" fill="none" stroke="#fff" stroke-miterlimit="10" stroke-width="2.22"></path></g></g></g></g></svg>