<?xml version="1.0" encoding="UTF-8"?>
<!DOCTYPE svg PUBLIC "-//W3C//DTD SVG 1.1//EN" "http://www.w3.org/Graphics/SVG/1.1/DTD/svg11.dtd">
<svg xmlns="http://www.w3.org/2000/svg" version="1.1" width="256px" height="256px" style="shape-rendering:geometricPrecision; text-rendering:geometricPrecision; image-rendering:optimizeQuality; fill-rule:evenodd; clip-rule:evenodd" xmlns:xlink="http://www.w3.org/1999/xlink">
<g><path style="opacity:0.008" fill="#e4f872" d="M 212.5,8.5 C 214.628,7.37086 216.961,7.20419 219.5,8C 217.19,8.49665 214.857,8.66331 212.5,8.5 Z"/></g>
<g><path style="opacity:0.008" fill="#d4fe68" d="M 207.5,9.5 C 208.601,8.40168 209.934,8.23502 211.5,9C 210.207,9.49001 208.873,9.65668 207.5,9.5 Z"/></g>
<g><path style="opacity:0.999" fill="#f91057" d="M 73.5,32.5 C 72.8826,32.6107 72.3826,32.944 72,33.5C 69.3333,29.5 66,26.1667 62,23.5C 58.9853,27.6745 55.8186,31.6745 52.5,35.5C 51.5832,36.1272 50.5832,36.4606 49.5,36.5C 47.8712,35.3747 46.3712,34.0414 45,32.5C 42.2037,33.2113 39.3704,33.878 36.5,34.5C 35.914,34.2907 35.414,33.9574 35,33.5C 31.92,37.7753 31.7534,42.1086 34.5,46.5C 36.1271,48.6298 37.9604,50.6298 40,52.5C 40.3826,51.944 40.8826,51.6107 41.5,51.5C 41.8333,52.8333 42.1667,54.1667 42.5,55.5C 40.9826,55.4894 39.8159,54.8228 39,53.5C 36.0203,59.5193 32.5203,63.8527 28.5,66.5C 34.3459,72.8455 40.3459,79.0122 46.5,85C 46.2716,85.3988 45.9382,85.5654 45.5,85.5C 45.1667,85.5 44.8333,85.5 44.5,85.5C 44.5,84.8333 44.1667,84.5 43.5,84.5C 43.5,83.8333 43.1667,83.5 42.5,83.5C 42.5,82.8333 42.1667,82.5 41.5,82.5C 41.5,81.8333 41.1667,81.5 40.5,81.5C 40.5,80.8333 40.1667,80.5 39.5,80.5C 39.5,79.8333 39.1667,79.5 38.5,79.5C 38.5,78.8333 38.1667,78.5 37.5,78.5C 37.5,77.8333 37.1667,77.5 36.5,77.5C 36.5,76.8333 36.1667,76.5 35.5,76.5C 35.5,75.8333 35.1667,75.5 34.5,75.5C 34.5,74.8333 34.1667,74.5 33.5,74.5C 33.5,73.8333 33.1667,73.5 32.5,73.5C 32.5,72.8333 32.1667,72.5 31.5,72.5C 31.5,71.8333 31.1667,71.5 30.5,71.5C 30.5,70.8333 30.1667,70.5 29.5,70.5C 29.5,69.8333 29.1667,69.5 28.5,69.5C 28.5,68.8333 28.1667,68.5 27.5,68.5C 27.5,67.8333 27.1667,67.5 26.5,67.5C 26.5,66.8333 26.1667,66.5 25.5,66.5C 25.5,65.8333 25.1667,65.5 24.5,65.5C 24.5,64.8333 24.1667,64.5 23.5,64.5C 23.5,63.8333 23.1667,63.5 22.5,63.5C 22.5,62.8333 22.1667,62.5 21.5,62.5C 21.5,61.8333 21.1667,61.5 20.5,61.5C 18.8036,59.4752 17.137,57.4752 15.5,55.5C 15.6716,54.5084 15.3382,53.8417 14.5,53.5C 13.6693,50.341 12.6693,47.341 11.5,44.5C 11.1074,37.4042 12.6074,30.7375 16,24.5C 19.2222,21.036 21.7222,17.536 23.5,14C 25.1096,12.5053 26.7763,12.3387 28.5,13.5C 31.4614,12.8169 31.7947,11.9836 29.5,11C 30.7287,10.2189 32.062,9.71893 33.5,9.5C 38.1667,10.8333 42.8333,10.8333 47.5,9.5C 49.8284,10.3301 52.1617,11.1634 54.5,12C 60.3248,18.6828 66.6581,25.5161 73.5,32.5 Z"/></g>
<g><path style="opacity:0.999" fill="#b20a6e" d="M 207.5,9.5 C 211.637,9.96579 215.971,9.96579 220.5,9.5C 220.842,10.3382 221.508,10.6716 222.5,10.5C 222.611,11.1174 222.944,11.6174 223.5,12C 220.167,12.3333 216.833,12.6667 213.5,13C 214.28,14.073 214.113,15.2396 213,16.5C 205.333,26.6048 197.666,37.2714 190,48.5C 177.196,62.3045 164.029,75.8045 150.5,89C 151.056,89.3826 151.389,89.8826 151.5,90.5C 148.522,93.8134 145.522,97.1467 142.5,100.5C 145.189,103.52 147.856,106.52 150.5,109.5C 149.153,108.972 147.819,108.805 146.5,109C 143.223,112.247 140.223,115.747 137.5,119.5C 136.311,120.429 134.978,120.762 133.5,120.5C 131.5,119.167 129.833,117.5 128.5,115.5C 150.691,84.1364 173.691,52.1364 197.5,19.5C 197.043,18.7025 196.376,18.3691 195.5,18.5C 197.456,13.6252 201.456,10.6252 207.5,9.5 Z"/></g>
<g><path style="opacity:0.998" fill="#ac0970" d="M 220.5,9.5 C 222.772,8.23555 225.105,8.40221 227.5,10C 226.833,10.3333 226.167,10.6667 225.5,11C 228.167,11.6667 230.833,12.3333 233.5,13C 233.619,14.1448 233.952,15.3115 234.5,16.5C 230.516,22.1554 226.516,27.8221 222.5,33.5C 221.922,34.547 221.256,34.3803 220.5,33C 216.862,32.7501 213.362,32.5834 210,32.5C 190.632,52.035 171.132,71.3684 151.5,90.5C 151.389,89.8826 151.056,89.3826 150.5,89C 164.029,75.8045 177.196,62.3045 190,48.5C 197.666,37.2714 205.333,26.6048 213,16.5C 214.113,15.2396 214.28,14.073 213.5,13C 216.833,12.6667 220.167,12.3333 223.5,12C 222.944,11.6174 222.611,11.1174 222.5,10.5C 223.239,10.631 223.906,10.4643 224.5,10C 223.207,9.50999 221.873,9.34332 220.5,9.5 Z"/></g>
<g><path style="opacity:0.999" fill="#b80a6c" d="M 195.5,18.5 C 196.376,18.3691 197.043,18.7025 197.5,19.5C 173.691,52.1364 150.691,84.1364 128.5,115.5C 123.895,118.436 119.895,122.102 116.5,126.5C 115.167,127.167 115.167,127.833 116.5,128.5C 116.5,129.167 116.833,129.5 117.5,129.5C 117.5,130.167 117.833,130.5 118.5,130.5C 118.5,130.833 118.5,131.167 118.5,131.5C 118.225,133.842 117.392,133.842 116,131.5C 112.909,136.014 109.575,140.347 106,144.5C 104.629,142.959 103.129,141.625 101.5,140.5C 102.126,137.362 103.792,134.862 106.5,133C 106.167,132.667 105.833,132.333 105.5,132C 124.265,106.551 143.098,81.0513 162,55.5C 162.74,54.2506 162.573,53.2506 161.5,52.5C 172.5,40.8333 183.833,29.5 195.5,18.5 Z"/></g>
<g><path style="opacity:0.999" fill="#9d0778" d="M 234.5,16.5 C 236.797,18.2941 238.963,20.2941 241,22.5C 242.666,21.6598 242.833,22.1598 241.5,24C 243.289,26.7383 244.622,29.5716 245.5,32.5C 245.608,37.8699 245.275,43.2032 244.5,48.5C 243.662,48.8417 243.328,49.5084 243.5,50.5C 242.662,50.8417 242.328,51.5084 242.5,52.5C 241.662,52.8417 241.328,53.5084 241.5,54.5C 240.167,54.8333 240.167,55.1667 241.5,55.5C 241.262,57.4044 240.262,58.7377 238.5,59.5C 238.167,58.1667 237.833,58.1667 237.5,59.5C 236.167,59.8333 236.167,60.1667 237.5,60.5C 237.167,61.5 236.5,62.1667 235.5,62.5C 235.167,61.1667 234.833,61.1667 234.5,62.5C 233.167,62.8333 233.167,63.1667 234.5,63.5C 234.167,64.5 233.5,65.1667 232.5,65.5C 232.167,64.1667 231.833,64.1667 231.5,65.5C 230.167,65.8333 230.167,66.1667 231.5,66.5C 216.167,82.5 200.5,98.1667 184.5,113.5C 184.167,113.5 183.833,113.5 183.5,113.5C 183.167,112.167 182.833,112.167 182.5,113.5C 181.833,113.5 181.5,113.833 181.5,114.5C 180.833,114.5 180.5,114.833 180.5,115.5C 179.833,115.5 179.5,115.833 179.5,116.5C 178.833,116.5 178.5,116.833 178.5,117.5C 177.833,117.5 177.5,117.833 177.5,118.5C 176.833,118.5 176.5,118.833 176.5,119.5C 175.833,119.5 175.5,119.833 175.5,120.5C 174.833,120.5 174.5,120.833 174.5,121.5C 173.833,121.5 173.5,121.833 173.5,122.5C 172.833,122.5 172.5,122.833 172.5,123.5C 171.833,123.5 171.5,123.833 171.5,124.5C 170.833,124.5 170.5,124.833 170.5,125.5C 169.833,125.5 169.5,125.833 169.5,126.5C 168.167,126.833 168.167,127.167 169.5,127.5C 169.5,128.167 169.833,128.5 170.5,128.5C 170.5,128.833 170.5,129.167 170.5,129.5C 169.355,130.793 169.689,131.959 171.5,133C 168.5,137 165.5,141 162.5,145C 161.423,145.47 160.423,145.303 159.5,144.5C 156.805,142.749 156.139,140.416 157.5,137.5C 174.807,113.61 192.64,89.61 211,65.5C 212.525,61.635 214.858,58.3017 218,55.5C 218.617,54.5509 218.451,53.7175 217.5,53C 219.647,49.8851 222.147,47.0518 225,44.5C 225.49,43.2068 225.657,41.8734 225.5,40.5C 225.834,37.509 224.834,35.1757 222.5,33.5C 226.516,27.8221 230.516,22.1554 234.5,16.5 Z"/></g>
<g><path style="opacity:0.004" fill="#83ff6d" d="M 246.5,32.5 C 246.167,32.5 245.833,32.5 245.5,32.5C 245.833,27.1667 246.167,27.1667 246.5,32.5 Z"/></g>
<g><path style="opacity:0.008" fill="#cdfe84" d="M 246.5,32.5 C 247.645,36.3112 247.812,40.3112 247,44.5C 246.501,40.5138 246.334,36.5138 246.5,32.5 Z"/></g>
<g><path style="opacity:0.008" fill="#e1fc57" d="M 10.5,44.5 C 9.36216,41.6965 9.19549,38.6965 10,35.5C 10.498,38.4816 10.6646,41.4816 10.5,44.5 Z"/></g>
<g><path style="opacity:0.999" fill="#e70f5e" d="M 73.5,32.5 C 81.5,39.8333 89.1667,47.5 96.5,55.5C 93.9854,54.836 91.8187,53.5026 90,51.5C 87.7202,55.4467 85.0535,59.1134 82,62.5C 81.1751,64.7008 81.6751,66.5341 83.5,68C 82.9056,68.4643 82.2389,68.631 81.5,68.5C 70.5,58.1667 59.8333,47.5 49.5,36.5C 50.5832,36.4606 51.5832,36.1272 52.5,35.5C 55.8186,31.6745 58.9853,27.6745 62,23.5C 66,26.1667 69.3333,29.5 72,33.5C 72.3826,32.944 72.8826,32.6107 73.5,32.5 Z"/></g>
<g><path style="opacity:0.016" fill="#de0068" d="M 10.5,44.5 C 10.8333,44.5 11.1667,44.5 11.5,44.5C 11.1667,49.8333 10.8333,49.8333 10.5,44.5 Z"/></g>
<g><path style="opacity:0.008" fill="#d7fe80" d="M 41.5,51.5 C 40.8826,51.6107 40.3826,51.944 40,52.5C 37.9604,50.6298 36.1271,48.6298 34.5,46.5C 35.1174,46.3893 35.6174,46.056 36,45.5C 38.0396,47.3702 39.8729,49.3702 41.5,51.5 Z"/></g>
<g><path style="opacity:0.008" fill="#dcfc93" d="M 245.5,48.5 C 245.351,47.448 245.517,46.448 246,45.5C 246.74,46.7494 246.573,47.7494 245.5,48.5 Z"/></g>
<g><path style="opacity:0.016" fill="#780073" d="M 217.5,49.5 C 216.833,49.5 216.5,49.8333 216.5,50.5C 215.957,50.44 215.624,50.1067 215.5,49.5C 216.257,48.2267 216.923,48.2267 217.5,49.5 Z"/></g>
<g><path style="opacity:0.008" fill="#d20071" d="M 244.5,48.5 C 244.833,48.5 245.167,48.5 245.5,48.5C 245.672,49.4916 245.338,50.1583 244.5,50.5C 244.5,49.8333 244.5,49.1667 244.5,48.5 Z"/></g>
<g><path style="opacity:0.008" fill="#d9006c" d="M 11.5,49.5 C 12.525,49.8966 12.6917,50.5632 12,51.5C 11.5357,50.9056 11.369,50.2389 11.5,49.5 Z"/></g>
<g><path style="opacity:0.008" fill="#d20071" d="M 243.5,50.5 C 243.833,50.5 244.167,50.5 244.5,50.5C 244.672,51.4916 244.338,52.1583 243.5,52.5C 243.5,51.8333 243.5,51.1667 243.5,50.5 Z"/></g>
<g><path style="opacity:0.016" fill="#780073" d="M 214.5,52.5 C 213.833,52.5 213.5,52.8333 213.5,53.5C 212.957,53.44 212.624,53.1067 212.5,52.5C 213.257,51.2267 213.923,51.2267 214.5,52.5 Z"/></g>
<g><path style="opacity:0.999" fill="#9f0874" d="M 225.5,40.5 C 225.657,41.8734 225.49,43.2068 225,44.5C 222.147,47.0518 219.647,49.8851 217.5,53C 218.451,53.7175 218.617,54.5509 218,55.5C 214.858,58.3017 212.525,61.635 211,65.5C 192.64,89.61 174.807,113.61 157.5,137.5C 156.139,140.416 156.805,142.749 159.5,144.5C 159.5,145.167 159.5,145.833 159.5,146.5C 158.167,145.5 156.833,144.5 155.5,143.5C 155.5,142.833 155.167,142.5 154.5,142.5C 154.167,141.167 153.833,141.167 153.5,142.5C 152.833,142.5 152.5,142.833 152.5,143.5C 151.833,143.5 151.5,143.833 151.5,144.5C 150.833,144.5 150.5,144.833 150.5,145.5C 149.833,145.5 149.5,145.833 149.5,146.5C 148.833,146.5 148.5,146.833 148.5,147.5C 147.833,147.5 147.5,147.833 147.5,148.5C 146.833,148.5 146.5,148.833 146.5,149.5C 145.833,149.5 145.5,149.833 145.5,150.5C 144.833,150.5 144.5,150.833 144.5,151.5C 143.833,151.5 143.5,151.833 143.5,152.5C 142.833,152.5 142.5,152.833 142.5,153.5C 141.167,153.833 141.167,154.167 142.5,154.5C 142.5,155.167 142.833,155.5 143.5,155.5C 143.5,156.167 143.833,156.5 144.5,156.5C 144.5,157.167 144.833,157.5 145.5,157.5C 145.5,157.833 145.5,158.167 145.5,158.5C 144.811,159.774 143.977,159.774 143,158.5C 139.771,161.943 136.771,165.61 134,169.5C 133.37,171.903 134.203,173.737 136.5,175C 135.906,175.464 135.239,175.631 134.5,175.5C 134.5,174.833 134.167,174.5 133.5,174.5C 133.5,173.833 133.167,173.5 132.5,173.5C 132.5,172.833 132.167,172.5 131.5,172.5C 131.5,171.833 131.167,171.5 130.5,171.5C 130.5,170.833 130.167,170.5 129.5,170.5C 129.5,169.833 129.167,169.5 128.5,169.5C 128.5,168.833 128.167,168.5 127.5,168.5C 127.047,167.542 126.381,166.708 125.5,166C 128.299,162.471 131.465,158.638 135,154.5C 148.94,133.528 163.773,113.028 179.5,93C 178.549,92.2825 178.383,91.4491 179,90.5C 185.762,84.2437 191.929,77.577 197.5,70.5C 197.5,70.1667 197.5,69.8333 197.5,69.5C 198.167,69.5 198.5,69.1667 198.5,68.5C 199.167,68.5 199.5,68.1667 199.5,67.5C 200.167,67.5 200.5,67.1667 200.5,66.5C 201.167,66.5 201.5,66.1667 201.5,65.5C 202.167,65.5 202.5,65.1667 202.5,64.5C 203.167,64.5 203.5,64.1667 203.5,63.5C 204.5,63.1667 205.167,62.5 205.5,61.5C 206.167,61.5 206.5,61.1667 206.5,60.5C 207.167,60.5 207.5,60.1667 207.5,59.5C 208.167,59.5 208.5,59.1667 208.5,58.5C 209.167,58.5 209.5,58.1667 209.5,57.5C 210.167,57.5 210.5,57.1667 210.5,56.5C 211.167,56.5 211.5,56.1667 211.5,55.5C 212.5,55.1667 213.167,54.5 213.5,53.5C 214.167,53.5 214.5,53.1667 214.5,52.5C 215.5,52.1667 216.167,51.5 216.5,50.5C 217.167,50.5 217.5,50.1667 217.5,49.5C 220.016,48.3996 221.016,46.7329 220.5,44.5C 221.531,43.2997 222.365,41.9663 223,40.5C 223.333,41.1667 223.667,41.8333 224,42.5C 224.278,41.5842 224.778,40.9175 225.5,40.5 Z"/></g>
<g><path style="opacity:0.004" fill="#f2fc32" d="M 242.5,52.5 C 242.833,52.5 243.167,52.5 243.5,52.5C 243.672,53.4916 243.338,54.1583 242.5,54.5C 242.5,53.8333 242.5,53.1667 242.5,52.5 Z"/></g>
<g><path style="opacity:0.008" fill="#dffb9f" d="M 14.5,53.5 C 14.5,54.1667 14.5,54.8333 14.5,55.5C 13.1667,54.8333 13.1667,54.1667 14.5,53.5 Z"/></g>
<g><path style="opacity:0.008" fill="#d2fc8e" d="M 41.5,51.5 C 43.8333,53.1667 45.8333,55.1667 47.5,57.5C 47.44,58.0431 47.1067,58.3764 46.5,58.5C 45.3578,57.1738 44.0245,56.1738 42.5,55.5C 42.1667,54.1667 41.8333,52.8333 41.5,51.5 Z"/></g>
<g><path style="opacity:0.016" fill="#780073" d="M 211.5,55.5 C 210.833,55.5 210.5,55.8333 210.5,56.5C 210.167,56.5 209.833,56.5 209.5,56.5C 209.711,54.5759 210.377,54.2426 211.5,55.5 Z"/></g>
<g><path style="opacity:0.008" fill="#d20071" d="M 241.5,54.5 C 241.833,54.5 242.167,54.5 242.5,54.5C 242.315,55.1701 241.981,55.1701 241.5,54.5 Z"/></g>
<g><path style="opacity:0.004" fill="#f7ff2c" d="M 14.5,55.5 C 14.8333,55.5 15.1667,55.5 15.5,55.5C 15.1667,58.1667 14.8333,58.1667 14.5,55.5 Z"/></g>
<g><path style="opacity:0.016" fill="#8b0072" d="M 209.5,56.5 C 209.5,56.8333 209.5,57.1667 209.5,57.5C 208.833,57.5 208.5,57.8333 208.5,58.5C 207.833,58.5 207.5,58.8333 207.5,59.5C 207.167,59.5 206.833,59.5 206.5,59.5C 206.5,57.5 207.5,56.5 209.5,56.5 Z"/></g>
<g><path style="opacity:1" fill="#d90e62" d="M 96.5,55.5 C 99.8333,58.1667 102.833,61.1667 105.5,64.5C 101.022,67.8524 97.0219,72.3524 93.5,78C 96.242,79.8864 97.9087,82.3864 98.5,85.5C 92.5,80.1667 86.8333,74.5 81.5,68.5C 82.2389,68.631 82.9056,68.4643 83.5,68C 81.6751,66.5341 81.1751,64.7008 82,62.5C 85.0535,59.1134 87.7202,55.4467 90,51.5C 91.8187,53.5026 93.9854,54.836 96.5,55.5 Z"/></g>
<g><path style="opacity:0.008" fill="#d20071" d="M 237.5,59.5 C 237.833,59.5 238.167,59.5 238.5,59.5C 238.315,60.1701 237.981,60.1701 237.5,59.5 Z"/></g>
<g><path style="opacity:1" fill="#bc0a6b" d="M 161.5,52.5 C 162.573,53.2506 162.74,54.2506 162,55.5C 143.098,81.0513 124.265,106.551 105.5,132C 105.833,132.333 106.167,132.667 106.5,133C 103.792,134.862 102.126,137.362 101.5,140.5C 100.833,140.5 100.5,140.833 100.5,141.5C 99.8826,141.389 99.3826,141.056 99,140.5C 93.8333,145.667 88.6667,150.833 83.5,156C 82.8333,156.667 82.1667,156.667 81.5,156C 97.8243,133.359 114.658,110.526 132,87.5C 132.982,86.2411 133.315,84.9078 133,83.5C 131.287,84.8782 129.953,86.5448 129,88.5C 127.855,88.3809 126.688,88.0476 125.5,87.5C 125.833,86.8333 126.167,86.1667 126.5,85.5C 127.239,85.631 127.906,85.4643 128.5,85C 139.368,73.9646 150.368,63.1312 161.5,52.5 Z"/></g>
<g><path style="opacity:0.016" fill="#880073" d="M 206.5,59.5 C 206.5,59.8333 206.5,60.1667 206.5,60.5C 205.833,60.5 205.5,60.8333 205.5,61.5C 204.243,60.3774 204.576,59.7107 206.5,59.5 Z"/></g>
<g><path style="opacity:0.004" fill="#f1fe3c" d="M 20.5,61.5 C 21.1667,61.5 21.5,61.8333 21.5,62.5C 22.1667,62.5 22.5,62.8333 22.5,63.5C 23.1667,63.5 23.5,63.8333 23.5,64.5C 24.1667,64.5 24.5,64.8333 24.5,65.5C 25.1667,65.5 25.5,65.8333 25.5,66.5C 26.1667,66.5 26.5,66.8333 26.5,67.5C 27.1667,67.5 27.5,67.8333 27.5,68.5C 28.1667,68.5 28.5,68.8333 28.5,69.5C 29.1667,69.5 29.5,69.8333 29.5,70.5C 30.1667,70.5 30.5,70.8333 30.5,71.5C 31.1667,71.5 31.5,71.8333 31.5,72.5C 32.1667,72.5 32.5,72.8333 32.5,73.5C 33.1667,73.5 33.5,73.8333 33.5,74.5C 34.1667,74.5 34.5,74.8333 34.5,75.5C 35.1667,75.5 35.5,75.8333 35.5,76.5C 36.1667,76.5 36.5,76.8333 36.5,77.5C 37.1667,77.5 37.5,77.8333 37.5,78.5C 38.1667,78.5 38.5,78.8333 38.5,79.5C 39.1667,79.5 39.5,79.8333 39.5,80.5C 40.1667,80.5 40.5,80.8333 40.5,81.5C 41.1667,81.5 41.5,81.8333 41.5,82.5C 42.1667,82.5 42.5,82.8333 42.5,83.5C 43.1667,83.5 43.5,83.8333 43.5,84.5C 44.1667,84.5 44.5,84.8333 44.5,85.5C 44.5,86.1667 44.8333,86.5 45.5,86.5C 45.5,87.1667 45.8333,87.5 46.5,87.5C 46.5,88.1667 46.8333,88.5 47.5,88.5C 47.5,89.1667 47.8333,89.5 48.5,89.5C 48.5,90.1667 48.8333,90.5 49.5,90.5C 49.5,91.1667 49.8333,91.5 50.5,91.5C 50.5,92.1667 50.8333,92.5 51.5,92.5C 51.5,93.1667 51.8333,93.5 52.5,93.5C 52.5,94.1667 52.8333,94.5 53.5,94.5C 53.5,95.1667 53.8333,95.5 54.5,95.5C 54.5,96.1667 54.8333,96.5 55.5,96.5C 55.5,97.1667 55.8333,97.5 56.5,97.5C 56.5,98.1667 56.8333,98.5 57.5,98.5C 57.5,99.1667 57.8333,99.5 58.5,99.5C 58.5,100.167 58.8333,100.5 59.5,100.5C 59.5,101.167 59.8333,101.5 60.5,101.5C 60.5,102.167 60.8333,102.5 61.5,102.5C 61.5,103.167 61.8333,103.5 62.5,103.5C 62.5,104.167 62.8333,104.5 63.5,104.5C 63.5,105.167 63.8333,105.5 64.5,105.5C 64.5,106.167 64.8333,106.5 65.5,106.5C 65.5,107.167 65.8333,107.5 66.5,107.5C 66.5,108.167 66.8333,108.5 67.5,108.5C 67.5,109.167 67.8333,109.5 68.5,109.5C 68.5,110.167 68.8333,110.5 69.5,110.5C 69.5,111.167 69.8333,111.5 70.5,111.5C 70.5,112.167 70.8333,112.5 71.5,112.5C 71.5,113.167 71.8333,113.5 72.5,113.5C 72.5,114.167 72.8333,114.5 73.5,114.5C 73.5,115.167 73.8333,115.5 74.5,115.5C 74.5,116.167 74.8333,116.5 75.5,116.5C 75.5,117.167 75.8333,117.5 76.5,117.5C 76.5,118.167 76.8333,118.5 77.5,118.5C 77.5,118.833 77.5,119.167 77.5,119.5C 77.1667,119.5 76.8333,119.5 76.5,119.5C 57.5347,101.035 38.7014,82.3684 20,63.5C 19.3083,62.5632 19.475,61.8966 20.5,61.5 Z"/></g>
<g><path style="opacity:0.008" fill="#d20071" d="M 234.5,62.5 C 234.833,62.5 235.167,62.5 235.5,62.5C 235.315,63.1701 234.981,63.1701 234.5,62.5 Z"/></g>
<g><path style="opacity:0.999" fill="#ed0f5c" d="M 42.5,55.5 C 44.0245,56.1738 45.3578,57.1738 46.5,58.5C 47.1067,58.3764 47.44,58.0431 47.5,57.5C 49.5,58.8333 51.1667,60.5 52.5,62.5C 52.2291,64.3797 52.8958,65.713 54.5,66.5C 54.5,67.1667 54.8333,67.5 55.5,67.5C 55.5,68.1667 55.8333,68.5 56.5,68.5C 56.5,69.1667 56.8333,69.5 57.5,69.5C 57.5,70.1667 57.8333,70.5 58.5,70.5C 58.5,71.1667 58.8333,71.5 59.5,71.5C 59.5,72.1667 59.8333,72.5 60.5,72.5C 60.5,73.1667 60.8333,73.5 61.5,73.5C 61.5,74.1667 61.8333,74.5 62.5,74.5C 62.5,75.1667 62.8333,75.5 63.5,75.5C 63.5,76.1667 63.8333,76.5 64.5,76.5C 64.5,77.1667 64.8333,77.5 65.5,77.5C 65.5,78.1667 65.8333,78.5 66.5,78.5C 66.5,79.1667 66.8333,79.5 67.5,79.5C 67.5,80.1667 67.8333,80.5 68.5,80.5C 68.5,80.8333 68.5,81.1667 68.5,81.5C 68.5654,81.9382 68.3988,82.2716 68,82.5C 65.3333,79.8333 62.6667,77.1667 60,74.5C 56.597,79.7158 52.7636,84.3824 48.5,88.5C 48.1667,88.5 47.8333,88.5 47.5,88.5C 46.8333,88.5 46.5,88.1667 46.5,87.5C 45.8333,87.5 45.5,87.1667 45.5,86.5C 45.5,86.1667 45.5,85.8333 45.5,85.5C 45.9382,85.5654 46.2716,85.3988 46.5,85C 40.3459,79.0122 34.3459,72.8455 28.5,66.5C 32.5203,63.8527 36.0203,59.5193 39,53.5C 39.8159,54.8228 40.9826,55.4894 42.5,55.5 Z"/></g>
<g><path style="opacity:0.016" fill="#8b0072" d="M 203.5,63.5 C 202.833,63.5 202.5,63.8333 202.5,64.5C 201.833,64.5 201.5,64.8333 201.5,65.5C 201.167,65.5 200.833,65.5 200.5,65.5C 200.668,62.9486 201.668,62.2819 203.5,63.5 Z"/></g>
<g><path style="opacity:0.008" fill="#d20071" d="M 231.5,65.5 C 231.833,65.5 232.167,65.5 232.5,65.5C 232.315,66.1701 231.981,66.1701 231.5,65.5 Z"/></g>
<g><path style="opacity:0.008" fill="#ddfa8c" d="M 52.5,62.5 C 62.8333,72.1667 72.8333,82.1667 82.5,92.5C 82.5,92.8333 82.5,93.1667 82.5,93.5C 82.1667,93.5 81.8333,93.5 81.5,93.5C 81.5,92.8333 81.1667,92.5 80.5,92.5C 80.5,91.8333 80.1667,91.5 79.5,91.5C 79.5,90.8333 79.1667,90.5 78.5,90.5C 78.5,89.8333 78.1667,89.5 77.5,89.5C 77.5,88.8333 77.1667,88.5 76.5,88.5C 76.5,87.8333 76.1667,87.5 75.5,87.5C 75.5,86.8333 75.1667,86.5 74.5,86.5C 74.5,85.8333 74.1667,85.5 73.5,85.5C 73.5,84.8333 73.1667,84.5 72.5,84.5C 72.5,83.8333 72.1667,83.5 71.5,83.5C 71.5,82.8333 71.1667,82.5 70.5,82.5C 70.5,81.8333 70.1667,81.5 69.5,81.5C 69.5,80.8333 69.1667,80.5 68.5,80.5C 67.8333,80.5 67.5,80.1667 67.5,79.5C 66.8333,79.5 66.5,79.1667 66.5,78.5C 65.8333,78.5 65.5,78.1667 65.5,77.5C 64.8333,77.5 64.5,77.1667 64.5,76.5C 63.8333,76.5 63.5,76.1667 63.5,75.5C 62.8333,75.5 62.5,75.1667 62.5,74.5C 61.8333,74.5 61.5,74.1667 61.5,73.5C 60.8333,73.5 60.5,73.1667 60.5,72.5C 59.8333,72.5 59.5,72.1667 59.5,71.5C 58.8333,71.5 58.5,71.1667 58.5,70.5C 57.8333,70.5 57.5,70.1667 57.5,69.5C 56.8333,69.5 56.5,69.1667 56.5,68.5C 55.8333,68.5 55.5,68.1667 55.5,67.5C 54.8333,67.5 54.5,67.1667 54.5,66.5C 52.8958,65.713 52.2291,64.3797 52.5,62.5 Z"/></g>
<g><path style="opacity:0.999" fill="#de0e61" d="M 68.5,81.5 C 68.8333,81.5 69.1667,81.5 69.5,81.5C 70.1667,81.5 70.5,81.8333 70.5,82.5C 71.1667,82.5 71.5,82.8333 71.5,83.5C 72.1667,83.5 72.5,83.8333 72.5,84.5C 73.1667,84.5 73.5,84.8333 73.5,85.5C 74.1667,85.5 74.5,85.8333 74.5,86.5C 75.1667,86.5 75.5,86.8333 75.5,87.5C 76.1667,87.5 76.5,87.8333 76.5,88.5C 77.1667,88.5 77.5,88.8333 77.5,89.5C 78.1667,89.5 78.5,89.8333 78.5,90.5C 79.1667,90.5 79.5,90.8333 79.5,91.5C 80.1667,91.5 80.5,91.8333 80.5,92.5C 81.1667,92.5 81.5,92.8333 81.5,93.5C 81.5,94.1667 81.8333,94.5 82.5,94.5C 82.5,95.1667 82.8333,95.5 83.5,95.5C 83.5,96.1667 83.8333,96.5 84.5,96.5C 84.5,97.1667 84.8333,97.5 85.5,97.5C 85.5,98.1667 85.8333,98.5 86.5,98.5C 86.5,98.8333 86.5,99.1667 86.5,99.5C 86.5654,99.9382 86.3988,100.272 86,100.5C 84.3333,98.8333 82.6667,97.1667 81,95.5C 78.2467,100.008 75.2467,104.341 72,108.5C 72.8931,111.436 74.7264,113.936 77.5,116C 77.2716,116.399 76.9382,116.565 76.5,116.5C 76.1667,116.5 75.8333,116.5 75.5,116.5C 74.8333,116.5 74.5,116.167 74.5,115.5C 73.8333,115.5 73.5,115.167 73.5,114.5C 72.8333,114.5 72.5,114.167 72.5,113.5C 71.8333,113.5 71.5,113.167 71.5,112.5C 70.8333,112.5 70.5,112.167 70.5,111.5C 69.8333,111.5 69.5,111.167 69.5,110.5C 68.8333,110.5 68.5,110.167 68.5,109.5C 67.8333,109.5 67.5,109.167 67.5,108.5C 66.8333,108.5 66.5,108.167 66.5,107.5C 65.8333,107.5 65.5,107.167 65.5,106.5C 64.8333,106.5 64.5,106.167 64.5,105.5C 63.8333,105.5 63.5,105.167 63.5,104.5C 62.8333,104.5 62.5,104.167 62.5,103.5C 61.8333,103.5 61.5,103.167 61.5,102.5C 60.8333,102.5 60.5,102.167 60.5,101.5C 59.8333,101.5 59.5,101.167 59.5,100.5C 58.8333,100.5 58.5,100.167 58.5,99.5C 57.8333,99.5 57.5,99.1667 57.5,98.5C 56.8333,98.5 56.5,98.1667 56.5,97.5C 55.8333,97.5 55.5,97.1667 55.5,96.5C 54.8333,96.5 54.5,96.1667 54.5,95.5C 53.8333,95.5 53.5,95.1667 53.5,94.5C 52.8333,94.5 52.5,94.1667 52.5,93.5C 51.8333,93.5 51.5,93.1667 51.5,92.5C 50.8333,92.5 50.5,92.1667 50.5,91.5C 49.8333,91.5 49.5,91.1667 49.5,90.5C 48.8333,90.5 48.5,90.1667 48.5,89.5C 48.5,89.1667 48.5,88.8333 48.5,88.5C 52.7636,84.3824 56.597,79.7158 60,74.5C 62.6667,77.1667 65.3333,79.8333 68,82.5C 68.3988,82.2716 68.5654,81.9382 68.5,81.5 Z"/></g>
<g><path style="opacity:1" fill="#c00c6a" d="M 100.5,141.5 C 100.5,141.833 100.5,142.167 100.5,142.5C 99.8333,142.5 99.5,142.833 99.5,143.5C 80.8333,161.5 62.5,179.833 44.5,198.5C 43.7109,198.217 43.0442,197.717 42.5,197C 49.1667,190.333 55.8333,183.667 62.5,177C 62.0426,176.586 61.7093,176.086 61.5,175.5C 83.2532,146.422 104.587,117.089 125.5,87.5C 126.688,88.0476 127.855,88.3809 129,88.5C 129.953,86.5448 131.287,84.8782 133,83.5C 133.315,84.9078 132.982,86.2411 132,87.5C 114.658,110.526 97.8243,133.359 81.5,156C 82.1667,156.667 82.8333,156.667 83.5,156C 88.6667,150.833 93.8333,145.667 99,140.5C 99.3826,141.056 99.8826,141.389 100.5,141.5 Z"/></g>
<g><path style="opacity:0.999" fill="#a50872" d="M 196.5,70.5 C 196.833,70.5 197.167,70.5 197.5,70.5C 191.929,77.577 185.762,84.2437 179,90.5C 178.383,91.4491 178.549,92.2825 179.5,93C 163.773,113.028 148.94,133.528 135,154.5C 131.465,158.638 128.299,162.471 125.5,166C 126.381,166.708 127.047,167.542 127.5,168.5C 126.833,168.5 126.5,168.833 126.5,169.5C 125.833,169.5 125.5,169.833 125.5,170.5C 124.833,170.5 124.5,170.833 124.5,171.5C 123.833,171.5 123.5,171.833 123.5,172.5C 122.833,172.5 122.5,172.833 122.5,173.5C 121.833,173.5 121.5,173.833 121.5,174.5C 120.833,174.5 120.5,174.833 120.5,175.5C 119.833,175.5 119.5,175.833 119.5,176.5C 118.833,176.5 118.5,176.833 118.5,177.5C 117.833,177.5 117.5,177.833 117.5,178.5C 116.833,178.5 116.5,178.833 116.5,179.5C 115.833,179.5 115.5,179.833 115.5,180.5C 114.833,180.5 114.5,180.833 114.5,181.5C 113.833,181.5 113.5,181.833 113.5,182.5C 112.833,182.5 112.5,182.833 112.5,183.5C 111.833,183.5 111.5,183.833 111.5,184.5C 110.833,184.5 110.5,184.833 110.5,185.5C 109.833,185.5 109.5,185.833 109.5,186.5C 108.833,186.5 108.5,186.833 108.5,187.5C 107.833,187.5 107.5,187.833 107.5,188.5C 106.833,188.5 106.5,188.833 106.5,189.5C 105.833,189.5 105.5,189.833 105.5,190.5C 104.833,190.5 104.5,190.833 104.5,191.5C 103.833,191.5 103.5,191.833 103.5,192.5C 102.833,192.5 102.5,192.833 102.5,193.5C 101.833,193.5 101.5,193.833 101.5,194.5C 100.833,194.5 100.5,194.833 100.5,195.5C 99.8333,195.5 99.5,195.833 99.5,196.5C 98.8333,196.5 98.5,196.833 98.5,197.5C 97.8333,197.5 97.5,197.833 97.5,198.5C 96.8333,198.5 96.5,198.833 96.5,199.5C 95.8333,199.5 95.5,199.833 95.5,200.5C 94.8333,200.5 94.5,200.833 94.5,201.5C 93.8333,201.5 93.5,201.833 93.5,202.5C 92.8333,202.5 92.5,202.833 92.5,203.5C 91.8333,203.5 91.5,203.833 91.5,204.5C 90.8333,204.5 90.5,204.833 90.5,205.5C 89.8333,205.5 89.5,205.833 89.5,206.5C 88.8333,206.5 88.5,206.833 88.5,207.5C 87.8333,207.5 87.5,207.833 87.5,208.5C 87.1667,208.5 86.8333,208.5 86.5,208.5C 85.6971,207.577 85.5304,206.577 86,205.5C 92.9667,198.917 98.4667,191.751 102.5,184C 104.158,182.376 105.825,180.709 107.5,179C 107.167,178.667 106.833,178.333 106.5,178C 111.136,175.021 114.302,170.854 116,165.5C 129.963,148.068 142.796,130.402 154.5,112.5C 155.167,112.5 155.5,112.167 155.5,111.5C 156.167,111.5 156.5,111.167 156.5,110.5C 157.167,110.5 157.5,110.167 157.5,109.5C 158.167,109.5 158.5,109.167 158.5,108.5C 159.167,108.5 159.5,108.167 159.5,107.5C 160.167,107.5 160.5,107.167 160.5,106.5C 161.167,106.5 161.5,106.167 161.5,105.5C 162.167,105.5 162.5,105.167 162.5,104.5C 163.167,104.5 163.5,104.167 163.5,103.5C 164.167,103.5 164.5,103.167 164.5,102.5C 165.167,102.5 165.5,102.167 165.5,101.5C 166.167,101.5 166.5,101.167 166.5,100.5C 167.167,100.5 167.5,100.167 167.5,99.5C 168.167,99.5 168.5,99.1667 168.5,98.5C 169.167,98.5 169.5,98.1667 169.5,97.5C 170.167,97.5 170.5,97.1667 170.5,96.5C 171.167,96.5 171.5,96.1667 171.5,95.5C 172.167,95.5 172.5,95.1667 172.5,94.5C 173.167,94.5 173.5,94.1667 173.5,93.5C 174.167,93.5 174.5,93.1667 174.5,92.5C 175.167,92.5 175.5,92.1667 175.5,91.5C 176.167,91.5 176.5,91.1667 176.5,90.5C 177.167,90.5 177.5,90.1667 177.5,89.5C 178.167,89.5 178.5,89.1667 178.5,88.5C 179.167,88.5 179.5,88.1667 179.5,87.5C 180.167,87.5 180.5,87.1667 180.5,86.5C 181.167,86.5 181.5,86.1667 181.5,85.5C 182.167,85.5 182.5,85.1667 182.5,84.5C 183.167,84.5 183.5,84.1667 183.5,83.5C 184.167,83.5 184.5,83.1667 184.5,82.5C 185.167,82.5 185.5,82.1667 185.5,81.5C 186.167,81.5 186.5,81.1667 186.5,80.5C 187.167,80.5 187.5,80.1667 187.5,79.5C 188.167,79.5 188.5,79.1667 188.5,78.5C 189.167,78.5 189.5,78.1667 189.5,77.5C 190.167,77.5 190.5,77.1667 190.5,76.5C 191.167,76.5 191.5,76.1667 191.5,75.5C 192.167,75.5 192.5,75.1667 192.5,74.5C 193.167,74.5 193.5,74.1667 193.5,73.5C 194.167,73.5 194.5,73.1667 194.5,72.5C 195.167,72.5 195.5,72.1667 195.5,71.5C 196.167,71.5 196.5,71.1667 196.5,70.5 Z"/></g>
<g><path style="opacity:0.016" fill="#94fd6e" d="M 200.5,65.5 C 200.5,65.8333 200.5,66.1667 200.5,66.5C 199.833,66.5 199.5,66.8333 199.5,67.5C 198.833,67.5 198.5,67.8333 198.5,68.5C 197.833,68.5 197.5,68.8333 197.5,69.5C 196.833,69.5 196.5,69.8333 196.5,70.5C 195.833,70.5 195.5,70.8333 195.5,71.5C 194.833,71.5 194.5,71.8333 194.5,72.5C 193.833,72.5 193.5,72.8333 193.5,73.5C 192.833,73.5 192.5,73.8333 192.5,74.5C 191.833,74.5 191.5,74.8333 191.5,75.5C 190.833,75.5 190.5,75.8333 190.5,76.5C 189.833,76.5 189.5,76.8333 189.5,77.5C 188.833,77.5 188.5,77.8333 188.5,78.5C 187.833,78.5 187.5,78.8333 187.5,79.5C 186.833,79.5 186.5,79.8333 186.5,80.5C 185.833,80.5 185.5,80.8333 185.5,81.5C 184.833,81.5 184.5,81.8333 184.5,82.5C 183.833,82.5 183.5,82.8333 183.5,83.5C 182.833,83.5 182.5,83.8333 182.5,84.5C 181.833,84.5 181.5,84.8333 181.5,85.5C 180.833,85.5 180.5,85.8333 180.5,86.5C 179.833,86.5 179.5,86.8333 179.5,87.5C 178.833,87.5 178.5,87.8333 178.5,88.5C 177.833,88.5 177.5,88.8333 177.5,89.5C 176.833,89.5 176.5,89.8333 176.5,90.5C 175.833,90.5 175.5,90.8333 175.5,91.5C 174.833,91.5 174.5,91.8333 174.5,92.5C 173.833,92.5 173.5,92.8333 173.5,93.5C 172.833,93.5 172.5,93.8333 172.5,94.5C 171.833,94.5 171.5,94.8333 171.5,95.5C 170.833,95.5 170.5,95.8333 170.5,96.5C 169.833,96.5 169.5,96.8333 169.5,97.5C 168.833,97.5 168.5,97.8333 168.5,98.5C 167.833,98.5 167.5,98.8333 167.5,99.5C 166.833,99.5 166.5,99.8333 166.5,100.5C 166.167,100.5 165.833,100.5 165.5,100.5C 165.167,100.5 164.833,100.5 164.5,100.5C 175.886,88.1133 187.886,76.4466 200.5,65.5 Z"/></g>
<g><path style="opacity:0.999" fill="#c70c67" d="M 105.5,64.5 C 112.833,71.1667 119.833,78.1667 126.5,85.5C 126.167,86.1667 125.833,86.8333 125.5,87.5C 104.587,117.089 83.2532,146.422 61.5,175.5C 61.7093,176.086 62.0426,176.586 62.5,177C 55.8333,183.667 49.1667,190.333 42.5,197C 43.0442,197.717 43.7109,198.217 44.5,198.5C 45.547,199.078 45.3803,199.744 44,200.5C 41,203.5 37.3333,207.167 33,211.5C 32.0862,210.346 31.2529,210.513 30.5,212C 31.2744,214.405 31.7744,216.905 32,219.5C 33.1451,220.636 34.3117,221.636 35.5,222.5C 35.1667,222.5 34.8333,222.5 34.5,222.5C 33.1667,222.833 33.1667,223.167 34.5,223.5C 29.6634,226.857 25.9967,231.357 23.5,237C 24.0223,237.95 24.689,238.784 25.5,239.5C 25.0431,240.298 24.3764,240.631 23.5,240.5C 22.1667,240.833 22.1667,241.167 23.5,241.5C 23.8333,241.5 24.1667,241.5 24.5,241.5C 24.5,242.167 24.8333,242.5 25.5,242.5C 24.2789,243.465 22.9456,243.298 21.5,242C 21.9889,240.448 21.3223,239.281 19.5,238.5C 19.5,237.833 19.1667,237.5 18.5,237.5C 18.5,236.833 18.1667,236.5 17.5,236.5C 17.5,235.833 17.1667,235.5 16.5,235.5C 16.5,234.833 16.1667,234.5 15.5,234.5C 14.4884,233.128 13.4884,231.795 12.5,230.5C 12.5,229.833 12.5,229.167 12.5,228.5C 32.0288,200.837 52.3622,173.003 73.5,145C 73.1667,144.667 72.8333,144.333 72.5,144C 77,139.5 81.5,135 86,130.5C 86.4828,129.552 86.6495,128.552 86.5,127.5C 86.5,126.833 86.1667,126.5 85.5,126.5C 85.5,125.833 85.1667,125.5 84.5,125.5C 84.5,124.833 84.1667,124.5 83.5,124.5C 83.5,123.833 83.1667,123.5 82.5,123.5C 82.5,122.833 82.1667,122.5 81.5,122.5C 81.5,121.833 81.1667,121.5 80.5,121.5C 80.5,120.833 80.1667,120.5 79.5,120.5C 79.5,119.833 79.1667,119.5 78.5,119.5C 78.5,118.833 78.1667,118.5 77.5,118.5C 76.8333,118.5 76.5,118.167 76.5,117.5C 76.5,117.167 76.5,116.833 76.5,116.5C 76.9382,116.565 77.2716,116.399 77.5,116C 74.7264,113.936 72.8931,111.436 72,108.5C 75.2467,104.341 78.2467,100.008 81,95.5C 82.6667,97.1667 84.3333,98.8333 86,100.5C 86.3988,100.272 86.5654,99.9382 86.5,99.5C 86.8333,99.5 87.1667,99.5 87.5,99.5C 87.5,100.167 87.8333,100.5 88.5,100.5C 88.5,101.167 88.8333,101.5 89.5,101.5C 89.5,102.167 89.8333,102.5 90.5,102.5C 90.5,103.167 90.8333,103.5 91.5,103.5C 91.5,104.167 91.8333,104.5 92.5,104.5C 92.5,105.167 92.8333,105.5 93.5,105.5C 93.5,106.167 93.8333,106.5 94.5,106.5C 94.5,107.167 94.8333,107.5 95.5,107.5C 95.5,108.167 95.8333,108.5 96.5,108.5C 96.5,109.167 96.8333,109.5 97.5,109.5C 97.5,110.167 97.8333,110.5 98.5,110.5C 98.5,111.167 98.8333,111.5 99.5,111.5C 100.167,112.833 100.833,112.833 101.5,111.5C 105.479,108.188 109.146,104.521 112.5,100.5C 107.812,95.4797 103.145,90.4797 98.5,85.5C 97.9087,82.3864 96.242,79.8864 93.5,78C 97.0219,72.3524 101.022,67.8524 105.5,64.5 Z"/></g>
<g><path style="opacity:0.008" fill="#e8fa5b" d="M 82.5,92.5 C 89.1667,98.5 95.5,104.833 101.5,111.5C 100.833,111.5 100.167,111.5 99.5,111.5C 98.8333,111.5 98.5,111.167 98.5,110.5C 97.8333,110.5 97.5,110.167 97.5,109.5C 96.8333,109.5 96.5,109.167 96.5,108.5C 95.8333,108.5 95.5,108.167 95.5,107.5C 94.8333,107.5 94.5,107.167 94.5,106.5C 93.8333,106.5 93.5,106.167 93.5,105.5C 92.8333,105.5 92.5,105.167 92.5,104.5C 91.8333,104.5 91.5,104.167 91.5,103.5C 90.8333,103.5 90.5,103.167 90.5,102.5C 89.8333,102.5 89.5,102.167 89.5,101.5C 88.8333,101.5 88.5,101.167 88.5,100.5C 87.8333,100.5 87.5,100.167 87.5,99.5C 87.5,98.8333 87.1667,98.5 86.5,98.5C 85.8333,98.5 85.5,98.1667 85.5,97.5C 84.8333,97.5 84.5,97.1667 84.5,96.5C 83.8333,96.5 83.5,96.1667 83.5,95.5C 82.8333,95.5 82.5,95.1667 82.5,94.5C 82.5,94.1667 82.5,93.8333 82.5,93.5C 82.5,93.1667 82.5,92.8333 82.5,92.5 Z"/></g>
<g><path style="opacity:0.008" fill="#d8fa58" d="M 164.5,100.5 C 164.833,100.5 165.167,100.5 165.5,100.5C 165.5,100.833 165.5,101.167 165.5,101.5C 164.833,101.5 164.5,101.833 164.5,102.5C 163.833,102.5 163.5,102.833 163.5,103.5C 162.833,103.5 162.5,103.833 162.5,104.5C 161.833,104.5 161.5,104.833 161.5,105.5C 160.833,105.5 160.5,105.833 160.5,106.5C 159.833,106.5 159.5,106.833 159.5,107.5C 158.833,107.5 158.5,107.833 158.5,108.5C 157.833,108.5 157.5,108.833 157.5,109.5C 156.833,109.5 156.5,109.833 156.5,110.5C 155.833,110.5 155.5,110.833 155.5,111.5C 154.833,111.5 154.167,111.5 153.5,111.5C 156.833,107.5 160.5,103.833 164.5,100.5 Z"/></g>
<g><path style="opacity:1" fill="#a90970" d="M 150.5,109.5 C 151.5,110.167 152.5,110.833 153.5,111.5C 153.5,112.167 153.833,112.5 154.5,112.5C 142.796,130.402 129.963,148.068 116,165.5C 114.302,170.854 111.136,175.021 106.5,178C 106.833,178.333 107.167,178.667 107.5,179C 105.825,180.709 104.158,182.376 102.5,184C 98.4667,191.751 92.9667,198.917 86,205.5C 85.5304,206.577 85.6971,207.577 86.5,208.5C 86.5,208.833 86.5,209.167 86.5,209.5C 85.8333,209.5 85.5,209.833 85.5,210.5C 84.8333,210.5 84.5,210.833 84.5,211.5C 83.8333,211.5 83.5,211.833 83.5,212.5C 82.8333,212.5 82.5,212.833 82.5,213.5C 81.8333,213.5 81.5,213.833 81.5,214.5C 80.8333,214.5 80.5,214.833 80.5,215.5C 79.8333,215.5 79.5,215.833 79.5,216.5C 78.8333,216.5 78.5,216.833 78.5,217.5C 77.8333,217.5 77.5,217.833 77.5,218.5C 76.8333,218.5 76.5,218.833 76.5,219.5C 75.8333,219.5 75.5,219.833 75.5,220.5C 74.8333,220.5 74.5,220.833 74.5,221.5C 73.8333,221.5 73.5,221.833 73.5,222.5C 72.8333,222.5 72.5,222.833 72.5,223.5C 72.1667,223.5 71.8333,223.5 71.5,223.5C 71.5858,222.504 71.2524,221.671 70.5,221C 89.7585,195.094 109.259,168.261 129,140.5C 132.833,136.667 136.667,132.833 140.5,129C 140.272,128.601 139.938,128.435 139.5,128.5C 139.672,127.508 139.338,126.842 138.5,126.5C 136.833,124.5 135.167,122.5 133.5,120.5C 134.978,120.762 136.311,120.429 137.5,119.5C 140.223,115.747 143.223,112.247 146.5,109C 147.819,108.805 149.153,108.972 150.5,109.5 Z"/></g>
<g><path style="opacity:0.004" fill="#e4fabe" d="M 182.5,113.5 C 182.833,113.5 183.167,113.5 183.5,113.5C 183.833,113.5 184.167,113.5 184.5,113.5C 179.805,118.526 175.139,123.526 170.5,128.5C 169.833,128.5 169.5,128.167 169.5,127.5C 169.5,127.167 169.5,126.833 169.5,126.5C 170.167,126.5 170.5,126.167 170.5,125.5C 171.167,125.5 171.5,125.167 171.5,124.5C 172.167,124.5 172.5,124.167 172.5,123.5C 173.167,123.5 173.5,123.167 173.5,122.5C 174.167,122.5 174.5,122.167 174.5,121.5C 175.167,121.5 175.5,121.167 175.5,120.5C 176.167,120.5 176.5,120.167 176.5,119.5C 177.167,119.5 177.5,119.167 177.5,118.5C 178.167,118.5 178.5,118.167 178.5,117.5C 179.167,117.5 179.5,117.167 179.5,116.5C 180.167,116.5 180.5,116.167 180.5,115.5C 181.167,115.5 181.5,115.167 181.5,114.5C 182.167,114.5 182.5,114.167 182.5,113.5 Z"/></g>
<g><path style="opacity:0.008" fill="#e7f870" d="M 76.5,119.5 C 76.8333,119.5 77.1667,119.5 77.5,119.5C 77.8333,119.5 78.1667,119.5 78.5,119.5C 79.1667,119.5 79.5,119.833 79.5,120.5C 80.1667,120.5 80.5,120.833 80.5,121.5C 81.1667,121.5 81.5,121.833 81.5,122.5C 82.1667,122.5 82.5,122.833 82.5,123.5C 83.1667,123.5 83.5,123.833 83.5,124.5C 84.1667,124.5 84.5,124.833 84.5,125.5C 85.1667,125.5 85.5,125.833 85.5,126.5C 85.5,126.833 85.5,127.167 85.5,127.5C 84.8333,127.5 84.5,127.833 84.5,128.5C 81.8621,125.526 79.1954,122.526 76.5,119.5 Z"/></g>
<g><path style="opacity:0.008" fill="#e4fb53" d="M 116.5,126.5 C 120.147,129.811 123.813,133.145 127.5,136.5C 131.187,133.145 134.853,129.811 138.5,126.5C 138.5,127.167 138.5,127.833 138.5,128.5C 137.833,128.5 137.5,128.833 137.5,129.5C 136.833,129.5 136.5,129.833 136.5,130.5C 135.833,130.5 135.5,130.833 135.5,131.5C 134.833,131.5 134.5,131.833 134.5,132.5C 133.833,132.5 133.5,132.833 133.5,133.5C 132.833,133.5 132.5,133.833 132.5,134.5C 131.833,134.5 131.5,134.833 131.5,135.5C 130.833,135.5 130.5,135.833 130.5,136.5C 129.833,136.5 129.5,136.833 129.5,137.5C 128.833,137.5 128.5,137.833 128.5,138.5C 127.833,138.5 127.167,138.5 126.5,138.5C 126.5,137.833 126.167,137.5 125.5,137.5C 125.5,136.833 125.167,136.5 124.5,136.5C 124.5,135.833 124.167,135.5 123.5,135.5C 123.5,134.833 123.167,134.5 122.5,134.5C 122.5,133.833 122.167,133.5 121.5,133.5C 121.5,132.833 121.167,132.5 120.5,132.5C 120.5,131.833 120.167,131.5 119.5,131.5C 119.5,130.833 119.167,130.5 118.5,130.5C 117.833,130.5 117.5,130.167 117.5,129.5C 116.833,129.5 116.5,129.167 116.5,128.5C 116.5,127.833 116.5,127.167 116.5,126.5 Z"/></g>
<g><path style="opacity:0.999" fill="#ae096f" d="M 138.5,128.5 C 138.833,128.5 139.167,128.5 139.5,128.5C 139.938,128.435 140.272,128.601 140.5,129C 136.667,132.833 132.833,136.667 129,140.5C 109.259,168.261 89.7585,195.094 70.5,221C 71.2524,221.671 71.5858,222.504 71.5,223.5C 71.5,223.833 71.5,224.167 71.5,224.5C 70.8333,224.5 70.5,224.833 70.5,225.5C 69.8333,225.5 69.5,225.833 69.5,226.5C 68.8333,226.5 68.5,226.833 68.5,227.5C 67.8333,227.5 67.5,227.833 67.5,228.5C 66.8333,228.5 66.5,228.833 66.5,229.5C 65.8333,229.5 65.5,229.833 65.5,230.5C 64.8333,230.5 64.5,230.833 64.5,231.5C 63.8333,231.5 63.5,231.833 63.5,232.5C 62.8333,232.5 62.5,232.833 62.5,233.5C 61.8333,233.5 61.5,233.833 61.5,234.5C 60.8333,234.5 60.5,234.833 60.5,235.5C 59.8333,235.5 59.5,235.833 59.5,236.5C 58.8333,236.5 58.5,236.833 58.5,237.5C 58.1667,237.5 57.8333,237.5 57.5,237.5C 57.44,236.957 57.1067,236.624 56.5,236.5C 54.7597,238.211 52.7597,239.044 50.5,239C 66.2575,217.65 81.9242,195.65 97.5,173C 96.1807,172.805 94.8474,172.972 93.5,173.5C 93.8333,172.5 94.5,171.833 95.5,171.5C 96.1667,171.5 96.5,171.167 96.5,170.5C 96.5,169.833 96.8333,169.5 97.5,169.5C 98.1667,169.5 98.5,169.167 98.5,168.5C 99.1667,168.5 99.5,168.167 99.5,167.5C 100.167,167.5 100.5,167.167 100.5,166.5C 101.167,166.5 101.5,166.167 101.5,165.5C 102.167,165.5 102.5,165.167 102.5,164.5C 103.167,164.5 103.5,164.167 103.5,163.5C 104.167,163.5 104.5,163.167 104.5,162.5C 105.167,162.5 105.5,162.167 105.5,161.5C 106.167,161.5 106.5,161.167 106.5,160.5C 107.167,160.5 107.5,160.167 107.5,159.5C 108.167,159.5 108.5,159.167 108.5,158.5C 109.167,158.5 109.5,158.167 109.5,157.5C 110.167,157.5 110.5,157.167 110.5,156.5C 111.167,156.5 111.5,156.167 111.5,155.5C 112.167,155.5 112.5,155.167 112.5,154.5C 112.5,154.167 112.5,153.833 112.5,153.5C 112.5,152.833 112.167,152.5 111.5,152.5C 111.5,151.833 111.167,151.5 110.5,151.5C 110.5,150.833 110.167,150.5 109.5,150.5C 109.5,149.833 109.167,149.5 108.5,149.5C 108.5,148.833 108.167,148.5 107.5,148.5C 107.5,147.833 107.167,147.5 106.5,147.5C 106.5,146.833 106.167,146.5 105.5,146.5C 105.5,145.833 105.167,145.5 104.5,145.5C 104.5,144.833 104.167,144.5 103.5,144.5C 103.5,143.833 103.167,143.5 102.5,143.5C 102.5,142.833 102.167,142.5 101.5,142.5C 101.5,141.833 101.167,141.5 100.5,141.5C 100.5,140.833 100.833,140.5 101.5,140.5C 103.129,141.625 104.629,142.959 106,144.5C 109.575,140.347 112.909,136.014 116,131.5C 117.392,133.842 118.225,133.842 118.5,131.5C 118.833,131.5 119.167,131.5 119.5,131.5C 120.167,131.5 120.5,131.833 120.5,132.5C 121.167,132.5 121.5,132.833 121.5,133.5C 122.167,133.5 122.5,133.833 122.5,134.5C 123.167,134.5 123.5,134.833 123.5,135.5C 124.167,135.5 124.5,135.833 124.5,136.5C 125.167,136.5 125.5,136.833 125.5,137.5C 126.167,137.5 126.5,137.833 126.5,138.5C 127.167,139.833 127.833,139.833 128.5,138.5C 129.167,138.5 129.5,138.167 129.5,137.5C 130.167,137.5 130.5,137.167 130.5,136.5C 131.167,136.5 131.5,136.167 131.5,135.5C 132.167,135.5 132.5,135.167 132.5,134.5C 133.167,134.5 133.5,134.167 133.5,133.5C 134.167,133.5 134.5,133.167 134.5,132.5C 135.167,132.5 135.5,132.167 135.5,131.5C 136.167,131.5 136.5,131.167 136.5,130.5C 137.167,130.5 137.5,130.167 137.5,129.5C 138.167,129.5 138.5,129.167 138.5,128.5 Z"/></g>
<g><path style="opacity:1" fill="#8e0679" d="M 170.5,129.5 C 176.833,135.167 182.833,141.167 188.5,147.5C 184.431,152.05 180.431,156.883 176.5,162C 177.252,162.671 177.586,163.504 177.5,164.5C 171.167,158.833 165.167,152.833 159.5,146.5C 159.5,145.833 159.5,145.167 159.5,144.5C 160.423,145.303 161.423,145.47 162.5,145C 165.5,141 168.5,137 171.5,133C 169.689,131.959 169.355,130.793 170.5,129.5 Z"/></g>
<g><path style="opacity:0.004" fill="#e7f47b" d="M 153.5,142.5 C 153.833,142.5 154.167,142.5 154.5,142.5C 155.167,142.5 155.5,142.833 155.5,143.5C 151.729,146.768 148.062,150.268 144.5,154C 145.056,154.383 145.389,154.883 145.5,155.5C 145.5,155.833 145.5,156.167 145.5,156.5C 145.167,156.5 144.833,156.5 144.5,156.5C 143.833,156.5 143.5,156.167 143.5,155.5C 142.833,155.5 142.5,155.167 142.5,154.5C 141.167,154.167 141.167,153.833 142.5,153.5C 143.167,153.5 143.5,153.167 143.5,152.5C 144.167,152.5 144.5,152.167 144.5,151.5C 145.167,151.5 145.5,151.167 145.5,150.5C 146.167,150.5 146.5,150.167 146.5,149.5C 147.167,149.5 147.5,149.167 147.5,148.5C 148.167,148.5 148.5,148.167 148.5,147.5C 149.167,147.5 149.5,147.167 149.5,146.5C 150.167,146.5 150.5,146.167 150.5,145.5C 151.167,145.5 151.5,145.167 151.5,144.5C 152.167,144.5 152.5,144.167 152.5,143.5C 153.167,143.5 153.5,143.167 153.5,142.5 Z"/></g>
<g><path style="opacity:0.008" fill="#e5f95f" d="M 100.5,142.5 C 100.833,142.5 101.167,142.5 101.5,142.5C 102.167,142.5 102.5,142.833 102.5,143.5C 103.167,143.5 103.5,143.833 103.5,144.5C 104.167,144.5 104.5,144.833 104.5,145.5C 105.167,145.5 105.5,145.833 105.5,146.5C 106.167,146.5 106.5,146.833 106.5,147.5C 107.167,147.5 107.5,147.833 107.5,148.5C 108.167,148.5 108.5,148.833 108.5,149.5C 109.167,149.5 109.5,149.833 109.5,150.5C 109.5,150.833 109.5,151.167 109.5,151.5C 109.167,151.5 108.833,151.5 108.5,151.5C 105.474,148.805 102.474,146.138 99.5,143.5C 100.167,143.5 100.5,143.167 100.5,142.5 Z"/></g>
<g><path style="opacity:1" fill="#ca0c66" d="M 85.5,127.5 C 85.8333,127.5 86.1667,127.5 86.5,127.5C 86.6495,128.552 86.4828,129.552 86,130.5C 81.5,135 77,139.5 72.5,144C 72.8333,144.333 73.1667,144.667 73.5,145C 52.3622,173.003 32.0288,200.837 12.5,228.5C 11.8333,227.833 11.1667,227.167 10.5,226.5C 10.1977,223.627 9.53101,220.961 8.5,218.5C 8.60691,210.175 11.2736,202.841 16.5,196.5C 17.1667,196.5 17.5,196.167 17.5,195.5C 18.5,195.167 19.1667,194.5 19.5,193.5C 20.1667,193.5 20.5,193.167 20.5,192.5C 21.5,192.167 22.1667,191.5 22.5,190.5C 23.1667,190.5 23.5,190.167 23.5,189.5C 24.5,189.167 25.1667,188.5 25.5,187.5C 26.1667,187.5 26.5,187.167 26.5,186.5C 27.5,186.167 28.1667,185.5 28.5,184.5C 29.1667,184.5 29.5,184.167 29.5,183.5C 30.1667,183.5 30.5,183.167 30.5,182.5C 33.8333,179.833 36.8333,176.833 39.5,173.5C 40.1667,173.5 40.5,173.167 40.5,172.5C 41.5,172.167 42.1667,171.5 42.5,170.5C 43.1667,170.5 43.5,170.167 43.5,169.5C 44.5,169.167 45.1667,168.5 45.5,167.5C 46.1667,167.5 46.5,167.167 46.5,166.5C 48.5,165.167 50.1667,163.5 51.5,161.5C 52.1667,161.5 52.5,161.167 52.5,160.5C 53.5,160.167 54.1667,159.5 54.5,158.5C 55.1667,158.5 55.5,158.167 55.5,157.5C 65.5,148.167 75.1667,138.5 84.5,128.5C 85.1667,128.5 85.5,128.167 85.5,127.5 Z"/></g>
<g><path style="opacity:0.016" fill="#b2ff6d" d="M 55.5,157.5 C 54.8333,157.5 54.5,157.833 54.5,158.5C 53.9569,158.44 53.6236,158.107 53.5,157.5C 54.2565,156.227 54.9232,156.227 55.5,157.5 Z"/></g>
<g><path style="opacity:0.999" fill="#82057d" d="M 188.5,147.5 C 192.167,150.5 195.5,153.833 198.5,157.5C 199.432,159.854 200.765,162.021 202.5,164C 199.798,168.568 196.965,173.068 194,177.5C 190.357,175.27 186.857,172.937 183.5,170.5C 181.167,168.833 179.167,166.833 177.5,164.5C 177.586,163.504 177.252,162.671 176.5,162C 180.431,156.883 184.431,152.05 188.5,147.5 Z"/></g>
<g><path style="opacity:0.016" fill="#b2ff6d" d="M 52.5,160.5 C 51.8333,160.5 51.5,160.833 51.5,161.5C 50.9569,161.44 50.6236,161.107 50.5,160.5C 51.2565,159.227 51.9232,159.227 52.5,160.5 Z"/></g>
<g><path style="opacity:0.016" fill="#e3fe54" d="M 46.5,166.5 C 45.8333,166.5 45.5,166.833 45.5,167.5C 44.9569,167.44 44.6236,167.107 44.5,166.5C 45.2565,165.227 45.9232,165.227 46.5,166.5 Z"/></g>
<g><path style="opacity:0.016" fill="#a8ff72" d="M 43.5,169.5 C 42.8333,169.5 42.5,169.833 42.5,170.5C 41.9569,170.44 41.6236,170.107 41.5,169.5C 42.2565,168.227 42.9232,168.227 43.5,169.5 Z"/></g>
<g><path style="opacity:0.016" fill="#a8ff72" d="M 40.5,172.5 C 39.8333,172.5 39.5,172.833 39.5,173.5C 38.9569,173.44 38.6236,173.107 38.5,172.5C 39.2565,171.227 39.9232,171.227 40.5,172.5 Z"/></g>
<g><path style="opacity:1" fill="#750481" d="M 198.5,157.5 C 206.833,165.167 214.833,173.167 222.5,181.5C 221.504,181.586 220.671,181.252 220,180.5C 217.337,186.048 213.503,191.048 208.5,195.5C 199.833,187.5 191.5,179.167 183.5,170.5C 186.857,172.937 190.357,175.27 194,177.5C 196.965,173.068 199.798,168.568 202.5,164C 200.765,162.021 199.432,159.854 198.5,157.5 Z"/></g>
<g><path style="opacity:0.016" fill="#7b0073" d="M 145.5,155.5 C 157.554,166.552 168.887,178.219 179.5,190.5C 179.167,190.5 178.833,190.5 178.5,190.5C 178.5,189.833 178.167,189.5 177.5,189.5C 177.5,188.833 177.167,188.5 176.5,188.5C 176.5,187.833 176.167,187.5 175.5,187.5C 175.5,186.833 175.167,186.5 174.5,186.5C 174.5,185.833 174.167,185.5 173.5,185.5C 173.5,184.833 173.167,184.5 172.5,184.5C 172.5,183.833 172.167,183.5 171.5,183.5C 171.5,182.833 171.167,182.5 170.5,182.5C 170.5,181.833 170.167,181.5 169.5,181.5C 169.5,180.833 169.167,180.5 168.5,180.5C 168.5,179.833 168.167,179.5 167.5,179.5C 167.5,178.833 167.167,178.5 166.5,178.5C 166.5,177.833 166.167,177.5 165.5,177.5C 165.5,176.833 165.167,176.5 164.5,176.5C 164.5,175.833 164.167,175.5 163.5,175.5C 163.5,174.833 163.167,174.5 162.5,174.5C 162.5,173.833 162.167,173.5 161.5,173.5C 161.5,172.833 161.167,172.5 160.5,172.5C 160.5,171.833 160.167,171.5 159.5,171.5C 159.5,170.833 159.167,170.5 158.5,170.5C 158.5,169.833 158.167,169.5 157.5,169.5C 157.5,168.833 157.167,168.5 156.5,168.5C 156.5,167.833 156.167,167.5 155.5,167.5C 155.5,166.833 155.167,166.5 154.5,166.5C 154.5,165.833 154.167,165.5 153.5,165.5C 153.5,164.833 153.167,164.5 152.5,164.5C 152.5,163.833 152.167,163.5 151.5,163.5C 151.5,162.833 151.167,162.5 150.5,162.5C 150.5,161.833 150.167,161.5 149.5,161.5C 149.5,160.833 149.167,160.5 148.5,160.5C 148.5,159.833 148.167,159.5 147.5,159.5C 147.5,158.833 147.167,158.5 146.5,158.5C 146.5,157.833 146.167,157.5 145.5,157.5C 145.5,157.167 145.5,156.833 145.5,156.5C 145.5,156.167 145.5,155.833 145.5,155.5 Z"/></g>
<g><path style="opacity:0.999" fill="#b5096e" d="M 57.5,237.5 C 57.5,237.833 57.5,238.167 57.5,238.5C 56.1667,238.833 56.1667,239.167 57.5,239.5C 54.525,242.661 50.8583,244.828 46.5,246C 45.4429,244.455 40.1096,243.955 30.5,244.5C 29.0697,243.463 27.403,242.796 25.5,242.5C 24.8333,242.5 24.5,242.167 24.5,241.5C 24.1667,241.5 23.8333,241.5 23.5,241.5C 23.5,241.167 23.5,240.833 23.5,240.5C 24.3764,240.631 25.0431,240.298 25.5,239.5C 24.689,238.784 24.0223,237.95 23.5,237C 25.9967,231.357 29.6634,226.857 34.5,223.5C 34.5,223.167 34.5,222.833 34.5,222.5C 34.8333,222.5 35.1667,222.5 35.5,222.5C 40.3473,223.16 44.1806,221.493 47,217.5C 52.377,211.973 58.5437,205.973 65.5,199.5C 67.4817,199.005 69.4817,198.505 71.5,198C 75.6937,193.806 79.1937,190.306 82,187.5C 86.896,183.463 90.7294,178.796 93.5,173.5C 94.8474,172.972 96.1807,172.805 97.5,173C 81.9242,195.65 66.2575,217.65 50.5,239C 52.7597,239.044 54.7597,238.211 56.5,236.5C 57.1067,236.624 57.44,236.957 57.5,237.5 Z"/></g>
<g><path style="opacity:0.008" fill="#d5f98c" d="M 126.5,169.5 C 127.167,169.5 127.833,169.5 128.5,169.5C 129.167,169.5 129.5,169.833 129.5,170.5C 130.167,170.5 130.5,170.833 130.5,171.5C 131.167,171.5 131.5,171.833 131.5,172.5C 132.167,172.5 132.5,172.833 132.5,173.5C 133.167,173.5 133.5,173.833 133.5,174.5C 134.167,174.5 134.5,174.833 134.5,175.5C 134.5,176.167 134.833,176.5 135.5,176.5C 135.5,177.167 135.833,177.5 136.5,177.5C 136.5,178.167 136.833,178.5 137.5,178.5C 137.5,179.167 137.833,179.5 138.5,179.5C 138.5,180.167 138.833,180.5 139.5,180.5C 139.5,181.167 139.833,181.5 140.5,181.5C 142.634,183.47 144.634,185.637 146.5,188C 146.272,188.399 145.938,188.565 145.5,188.5C 139.52,182.855 133.52,177.188 127.5,171.5C 122.813,175.855 118.146,180.188 113.5,184.5C 113.167,184.5 112.833,184.5 112.5,184.5C 112.5,184.167 112.5,183.833 112.5,183.5C 113.167,183.5 113.5,183.167 113.5,182.5C 114.167,182.5 114.5,182.167 114.5,181.5C 115.167,181.5 115.5,181.167 115.5,180.5C 116.167,180.5 116.5,180.167 116.5,179.5C 117.167,179.5 117.5,179.167 117.5,178.5C 118.167,178.5 118.5,178.167 118.5,177.5C 119.167,177.5 119.5,177.167 119.5,176.5C 120.167,176.5 120.5,176.167 120.5,175.5C 121.167,175.5 121.5,175.167 121.5,174.5C 122.167,174.5 122.5,174.167 122.5,173.5C 123.167,173.5 123.5,173.167 123.5,172.5C 124.167,172.5 124.5,172.167 124.5,171.5C 125.167,171.5 125.5,171.167 125.5,170.5C 126.167,170.5 126.5,170.167 126.5,169.5 Z"/></g>
<g><path style="opacity:1" fill="#91057b" d="M 145.5,158.5 C 145.833,158.5 146.167,158.5 146.5,158.5C 147.167,158.5 147.5,158.833 147.5,159.5C 148.167,159.5 148.5,159.833 148.5,160.5C 149.167,160.5 149.5,160.833 149.5,161.5C 150.167,161.5 150.5,161.833 150.5,162.5C 151.167,162.5 151.5,162.833 151.5,163.5C 152.167,163.5 152.5,163.833 152.5,164.5C 153.167,164.5 153.5,164.833 153.5,165.5C 154.167,165.5 154.5,165.833 154.5,166.5C 155.167,166.5 155.5,166.833 155.5,167.5C 156.167,167.5 156.5,167.833 156.5,168.5C 157.167,168.5 157.5,168.833 157.5,169.5C 158.167,169.5 158.5,169.833 158.5,170.5C 159.167,170.5 159.5,170.833 159.5,171.5C 160.167,171.5 160.5,171.833 160.5,172.5C 161.167,172.5 161.5,172.833 161.5,173.5C 162.167,173.5 162.5,173.833 162.5,174.5C 163.167,174.5 163.5,174.833 163.5,175.5C 164.167,175.5 164.5,175.833 164.5,176.5C 164.5,176.833 164.5,177.167 164.5,177.5C 166.22,180.731 168.553,183.564 171.5,186C 168.872,190.758 165.872,195.258 162.5,199.5C 163.309,201.071 163.643,202.738 163.5,204.5C 161.537,203.04 159.704,201.373 158,199.5C 157.601,199.728 157.435,200.062 157.5,200.5C 153.167,196.833 149.167,192.833 145.5,188.5C 145.938,188.565 146.272,188.399 146.5,188C 144.634,185.637 142.634,183.47 140.5,181.5C 139.833,181.5 139.5,181.167 139.5,180.5C 138.833,180.5 138.5,180.167 138.5,179.5C 137.833,179.5 137.5,179.167 137.5,178.5C 136.833,178.5 136.5,178.167 136.5,177.5C 135.833,177.5 135.5,177.167 135.5,176.5C 134.833,176.5 134.5,176.167 134.5,175.5C 135.239,175.631 135.906,175.464 136.5,175C 134.203,173.737 133.37,171.903 134,169.5C 136.771,165.61 139.771,161.943 143,158.5C 143.977,159.774 144.811,159.774 145.5,158.5 Z"/></g>
<g><path style="opacity:0.016" fill="#adff6e" d="M 30.5,182.5 C 29.8333,182.5 29.5,182.833 29.5,183.5C 28.8333,183.5 28.5,183.833 28.5,184.5C 27.475,184.103 27.3083,183.437 28,182.5C 28.9772,181.226 29.8106,181.226 30.5,182.5 Z"/></g>
<g><path style="opacity:0.016" fill="#b2ff6d" d="M 26.5,186.5 C 25.8333,186.5 25.5,186.833 25.5,187.5C 24.9569,187.44 24.6236,187.107 24.5,186.5C 25.2565,185.227 25.9232,185.227 26.5,186.5 Z"/></g>
<g><path style="opacity:1" fill="#d00184" d="M 108.5,151.5 C 108.833,151.5 109.167,151.5 109.5,151.5C 109.833,151.5 110.167,151.5 110.5,151.5C 111.167,151.5 111.5,151.833 111.5,152.5C 112.167,152.5 112.5,152.833 112.5,153.5C 112.5,153.833 112.5,154.167 112.5,154.5C 111.833,154.5 111.5,154.833 111.5,155.5C 110.833,155.5 110.5,155.833 110.5,156.5C 109.833,156.5 109.5,156.833 109.5,157.5C 108.833,157.5 108.5,157.833 108.5,158.5C 107.833,158.5 107.5,158.833 107.5,159.5C 106.833,159.5 106.5,159.833 106.5,160.5C 105.833,160.5 105.5,160.833 105.5,161.5C 104.833,161.5 104.5,161.833 104.5,162.5C 103.833,162.5 103.5,162.833 103.5,163.5C 102.833,163.5 102.5,163.833 102.5,164.5C 101.833,164.5 101.5,164.833 101.5,165.5C 100.833,165.5 100.5,165.833 100.5,166.5C 99.8333,166.5 99.5,166.833 99.5,167.5C 98.8333,167.5 98.5,167.833 98.5,168.5C 97.8333,168.5 97.5,168.833 97.5,169.5C 96.8333,169.5 96.5,169.833 96.5,170.5C 95.8333,170.5 95.5,170.833 95.5,171.5C 94.5,171.833 93.8333,172.5 93.5,173.5C 90.7294,178.796 86.896,183.463 82,187.5C 79.1937,190.306 75.6937,193.806 71.5,198C 69.4817,198.505 67.4817,199.005 65.5,199.5C 80.2982,184.201 95.2982,169.035 110.5,154C 109.619,153.292 108.953,152.458 108.5,151.5 Z"/></g>
<g><path style="opacity:0.016" fill="#d1fc5e" d="M 23.5,189.5 C 22.8333,189.5 22.5,189.833 22.5,190.5C 21.9569,190.44 21.6236,190.107 21.5,189.5C 22.2565,188.227 22.9232,188.227 23.5,189.5 Z"/></g>
<g><path style="opacity:0.004" fill="#71006f" d="M 179.5,191.5 C 179.5,191.167 179.5,190.833 179.5,190.5C 184.5,193.5 188.5,197.5 191.5,202.5C 191.167,202.5 190.833,202.5 190.5,202.5C 190.5,201.833 190.167,201.5 189.5,201.5C 189.5,200.833 189.167,200.5 188.5,200.5C 188.5,199.833 188.167,199.5 187.5,199.5C 187.5,198.833 187.167,198.5 186.5,198.5C 186.5,197.833 186.167,197.5 185.5,197.5C 185.5,196.833 185.167,196.5 184.5,196.5C 184.5,195.833 184.167,195.5 183.5,195.5C 183.5,194.833 183.167,194.5 182.5,194.5C 182.5,193.833 182.167,193.5 181.5,193.5C 181.5,192.833 181.167,192.5 180.5,192.5C 180.5,191.833 180.167,191.5 179.5,191.5 Z"/></g>
<g><path style="opacity:0.016" fill="#d1fc5e" d="M 20.5,192.5 C 19.8333,192.5 19.5,192.833 19.5,193.5C 18.9569,193.44 18.6236,193.107 18.5,192.5C 19.2565,191.227 19.9232,191.227 20.5,192.5 Z"/></g>
<g><path style="opacity:0.004" fill="#caf756" d="M 111.5,184.5 C 111.833,184.5 112.167,184.5 112.5,184.5C 112.833,184.5 113.167,184.5 113.5,184.5C 107.833,190.833 101.833,196.833 95.5,202.5C 95.5,202.167 95.5,201.833 95.5,201.5C 95.5,201.167 95.5,200.833 95.5,200.5C 96.1667,200.5 96.5,200.167 96.5,199.5C 97.1667,199.5 97.5,199.167 97.5,198.5C 98.1667,198.5 98.5,198.167 98.5,197.5C 99.1667,197.5 99.5,197.167 99.5,196.5C 100.167,196.5 100.5,196.167 100.5,195.5C 101.167,195.5 101.5,195.167 101.5,194.5C 102.167,194.5 102.5,194.167 102.5,193.5C 103.167,193.5 103.5,193.167 103.5,192.5C 104.167,192.5 104.5,192.167 104.5,191.5C 105.167,191.5 105.5,191.167 105.5,190.5C 106.167,190.5 106.5,190.167 106.5,189.5C 107.167,189.5 107.5,189.167 107.5,188.5C 108.167,188.5 108.5,188.167 108.5,187.5C 109.167,187.5 109.5,187.167 109.5,186.5C 110.167,186.5 110.5,186.167 110.5,185.5C 111.167,185.5 111.5,185.167 111.5,184.5 Z"/></g>
<g><path style="opacity:0.999" fill="#690285" d="M 222.5,181.5 C 230.528,188.86 237.528,195.86 243.5,202.5C 246.597,210.956 247.264,219.623 245.5,228.5C 244.662,228.842 244.328,229.508 244.5,230.5C 243.662,230.842 243.328,231.508 243.5,232.5C 242.662,232.842 242.328,233.508 242.5,234.5C 241.167,234.833 241.167,235.167 242.5,235.5C 242.573,237.027 241.906,238.027 240.5,238.5C 240.167,237.167 239.833,237.167 239.5,238.5C 238.833,238.5 238.5,238.833 238.5,239.5C 237.167,239.833 237.167,240.167 238.5,240.5C 235.45,244.362 231.45,246.695 226.5,247.5C 225.5,246.167 224.5,246.167 223.5,247.5C 210.167,247.833 210.167,248.167 223.5,248.5C 218.926,249.835 214.26,249.668 209.5,248C 210.5,247.667 211.5,247.333 212.5,247C 210.186,245.602 207.853,245.435 205.5,246.5C 203.739,245.965 202.406,244.965 201.5,243.5C 202.833,243.167 202.833,242.833 201.5,242.5C 201.5,242.167 201.5,241.833 201.5,241.5C 199.121,236.789 195.454,233.456 190.5,231.5C 189.5,229.833 188.167,228.5 186.5,227.5C 185.614,226.675 185.281,225.675 185.5,224.5C 186.822,224.67 187.989,224.337 189,223.5C 191.802,219.69 194.635,215.857 197.5,212C 193.561,208.571 190.228,204.737 187.5,200.5C 187.833,200.5 188.167,200.5 188.5,200.5C 189.167,200.5 189.5,200.833 189.5,201.5C 190.167,201.5 190.5,201.833 190.5,202.5C 190.5,203.167 190.833,203.5 191.5,203.5C 191.5,204.167 191.833,204.5 192.5,204.5C 192.5,205.167 192.833,205.5 193.5,205.5C 193.5,206.167 193.833,206.5 194.5,206.5C 194.5,207.167 194.833,207.5 195.5,207.5C 195.5,208.167 195.833,208.5 196.5,208.5C 196.5,209.167 196.833,209.5 197.5,209.5C 197.5,210.167 197.833,210.5 198.5,210.5C 198.5,211.167 198.833,211.5 199.5,211.5C 199.5,212.167 199.833,212.5 200.5,212.5C 200.5,213.167 200.833,213.5 201.5,213.5C 201.5,214.167 201.833,214.5 202.5,214.5C 202.5,215.167 202.833,215.5 203.5,215.5C 203.5,216.167 203.833,216.5 204.5,216.5C 204.5,217.167 204.833,217.5 205.5,217.5C 205.5,218.167 205.833,218.5 206.5,218.5C 206.5,219.167 206.833,219.5 207.5,219.5C 207.5,220.167 207.833,220.5 208.5,220.5C 208.5,221.167 208.833,221.5 209.5,221.5C 209.833,222.5 210.5,223.167 211.5,223.5C 211.5,224.167 211.833,224.5 212.5,224.5C 212.5,225.167 212.833,225.5 213.5,225.5C 213.5,226.167 213.833,226.5 214.5,226.5C 214.833,226.5 215.167,226.5 215.5,226.5C 216.833,227.833 218.167,227.833 219.5,226.5C 219.5,226.167 219.5,225.833 219.5,225.5C 219.833,225.5 220.167,225.5 220.5,225.5C 220.5,226.167 220.833,226.5 221.5,226.5C 222.167,226.5 222.5,226.167 222.5,225.5C 223.167,225.5 223.5,225.167 223.5,224.5C 224.167,224.5 224.5,224.167 224.5,223.5C 226.848,220.026 227.014,216.359 225,212.5C 219.297,206.965 213.797,201.298 208.5,195.5C 213.503,191.048 217.337,186.048 220,180.5C 220.671,181.252 221.504,181.586 222.5,181.5 Z"/></g>
<g><path style="opacity:0.016" fill="#a8ff72" d="M 17.5,195.5 C 16.8333,195.5 16.5,195.833 16.5,196.5C 15.9569,196.44 15.6236,196.107 15.5,195.5C 16.2565,194.227 16.9232,194.227 17.5,195.5 Z"/></g>
<g><path style="opacity:0.999" fill="#7b047f" d="M 164.5,177.5 C 164.833,177.5 165.167,177.5 165.5,177.5C 166.167,177.5 166.5,177.833 166.5,178.5C 167.167,178.5 167.5,178.833 167.5,179.5C 168.167,179.5 168.5,179.833 168.5,180.5C 169.167,180.5 169.5,180.833 169.5,181.5C 170.167,181.5 170.5,181.833 170.5,182.5C 171.167,182.5 171.5,182.833 171.5,183.5C 172.167,183.5 172.5,183.833 172.5,184.5C 173.167,184.5 173.5,184.833 173.5,185.5C 174.167,185.5 174.5,185.833 174.5,186.5C 175.167,186.5 175.5,186.833 175.5,187.5C 176.167,187.5 176.5,187.833 176.5,188.5C 177.167,188.5 177.5,188.833 177.5,189.5C 178.167,189.5 178.5,189.833 178.5,190.5C 178.5,191.167 178.833,191.5 179.5,191.5C 180.167,191.5 180.5,191.833 180.5,192.5C 181.167,192.5 181.5,192.833 181.5,193.5C 182.167,193.5 182.5,193.833 182.5,194.5C 183.167,194.5 183.5,194.833 183.5,195.5C 184.167,195.5 184.5,195.833 184.5,196.5C 185.167,196.5 185.5,196.833 185.5,197.5C 186.167,197.5 186.5,197.833 186.5,198.5C 187.167,198.5 187.5,198.833 187.5,199.5C 187.5,199.833 187.5,200.167 187.5,200.5C 190.228,204.737 193.561,208.571 197.5,212C 194.635,215.857 191.802,219.69 189,223.5C 187.989,224.337 186.822,224.67 185.5,224.5C 185.281,225.675 185.614,226.675 186.5,227.5C 188.167,228.5 189.5,229.833 190.5,231.5C 195.454,233.456 199.121,236.789 201.5,241.5C 200.167,241.833 200.167,242.167 201.5,242.5C 201.5,242.833 201.5,243.167 201.5,243.5C 194.556,238.225 188.223,232.225 182.5,225.5C 181.829,224.153 181.829,222.986 182.5,222C 175.42,217.091 169.086,211.258 163.5,204.5C 163.643,202.738 163.309,201.071 162.5,199.5C 165.872,195.258 168.872,190.758 171.5,186C 168.553,183.564 166.22,180.731 164.5,177.5 Z"/></g>
<g><path style="opacity:0.008" fill="#d20071" d="M 243.5,201.5 C 244.833,202.167 244.833,202.167 243.5,201.5 Z"/></g>
<g><path style="opacity:0.004" fill="#71006f" d="M 191.5,203.5 C 191.5,203.167 191.5,202.833 191.5,202.5C 193.5,202.5 194.5,203.5 194.5,205.5C 194.167,205.5 193.833,205.5 193.5,205.5C 192.833,205.5 192.5,205.167 192.5,204.5C 191.833,204.5 191.5,204.167 191.5,203.5 Z"/></g>
<g><path style="opacity:0.004" fill="#8dfc63" d="M 94.5,201.5 C 94.8333,201.5 95.1667,201.5 95.5,201.5C 95.5,201.833 95.5,202.167 95.5,202.5C 91.7731,207.23 87.4397,211.23 82.5,214.5C 82.5,214.167 82.5,213.833 82.5,213.5C 83.1667,213.5 83.5,213.167 83.5,212.5C 84.1667,212.5 84.5,212.167 84.5,211.5C 85.1667,211.5 85.5,211.167 85.5,210.5C 86.1667,210.5 86.5,210.167 86.5,209.5C 87.1667,209.5 87.5,209.167 87.5,208.5C 88.1667,208.5 88.5,208.167 88.5,207.5C 89.1667,207.5 89.5,207.167 89.5,206.5C 90.1667,206.5 90.5,206.167 90.5,205.5C 91.1667,205.5 91.5,205.167 91.5,204.5C 92.1667,204.5 92.5,204.167 92.5,203.5C 93.1667,203.5 93.5,203.167 93.5,202.5C 94.1667,202.5 94.5,202.167 94.5,201.5 Z"/></g>
<g><path style="opacity:0.004" fill="#71006f" d="M 194.5,206.5 C 194.5,206.167 194.5,205.833 194.5,205.5C 196.5,205.5 197.5,206.5 197.5,208.5C 197.167,208.5 196.833,208.5 196.5,208.5C 195.833,208.5 195.5,208.167 195.5,207.5C 194.833,207.5 194.5,207.167 194.5,206.5 Z"/></g>
<g><path style="opacity:0.004" fill="#e1fab5" d="M 163.5,204.5 C 169.086,211.258 175.42,217.091 182.5,222C 181.829,222.986 181.829,224.153 182.5,225.5C 173.833,217.5 165.5,209.167 157.5,200.5C 157.435,200.062 157.601,199.728 158,199.5C 159.704,201.373 161.537,203.04 163.5,204.5 Z"/></g>
<g><path style="opacity:0.004" fill="#71006f" d="M 197.5,209.5 C 197.5,209.167 197.5,208.833 197.5,208.5C 200.167,209.167 201.833,210.833 202.5,213.5C 202.167,213.5 201.833,213.5 201.5,213.5C 200.833,213.5 200.5,213.167 200.5,212.5C 199.833,212.5 199.5,212.167 199.5,211.5C 198.833,211.5 198.5,211.167 198.5,210.5C 197.833,210.5 197.5,210.167 197.5,209.5 Z"/></g>
<g><path style="opacity:0.004" fill="#71006f" d="M 202.5,214.5 C 202.5,214.167 202.5,213.833 202.5,213.5C 204.5,213.5 205.5,214.5 205.5,216.5C 205.167,216.5 204.833,216.5 204.5,216.5C 203.833,216.5 203.5,216.167 203.5,215.5C 202.833,215.5 202.5,215.167 202.5,214.5 Z"/></g>
<g><path style="opacity:0.004" fill="#e6fb44" d="M 81.5,214.5 C 81.8333,214.5 82.1667,214.5 82.5,214.5C 82.5,215.833 81.8333,216.5 80.5,216.5C 80.5,216.167 80.5,215.833 80.5,215.5C 81.1667,215.5 81.5,215.167 81.5,214.5 Z"/></g>
<g><path style="opacity:0.016" fill="#be0075" d="M 79.5,216.5 C 79.8333,216.5 80.1667,216.5 80.5,216.5C 80.3147,217.17 79.9813,217.17 79.5,216.5 Z"/></g>
<g><path style="opacity:0.004" fill="#71006f" d="M 205.5,217.5 C 205.5,217.167 205.5,216.833 205.5,216.5C 207.5,216.5 208.5,217.5 208.5,219.5C 208.167,219.5 207.833,219.5 207.5,219.5C 206.833,219.5 206.5,219.167 206.5,218.5C 205.833,218.5 205.5,218.167 205.5,217.5 Z"/></g>
<g><path style="opacity:0.008" fill="#defe60" d="M 8.5,218.5 C 8.66018,220.199 8.49351,221.866 8,223.5C 7.22039,221.613 7.38705,219.946 8.5,218.5 Z"/></g>
<g><path style="opacity:0.004" fill="#a7fa5f" d="M 78.5,217.5 C 78.8333,217.5 79.1667,217.5 79.5,217.5C 79.5,219.5 78.5,220.5 76.5,220.5C 76.5,220.167 76.5,219.833 76.5,219.5C 77.1667,219.5 77.5,219.167 77.5,218.5C 78.1667,218.5 78.5,218.167 78.5,217.5 Z"/></g>
<g><path style="opacity:0.004" fill="#71006f" d="M 208.5,220.5 C 208.5,220.167 208.5,219.833 208.5,219.5C 210.424,219.711 210.757,220.377 209.5,221.5C 208.833,221.5 208.5,221.167 208.5,220.5 Z"/></g>
<g><path style="opacity:0.004" fill="#d2f847" d="M 75.5,220.5 C 75.8333,220.5 76.1667,220.5 76.5,220.5C 76.5,221.833 75.8333,222.5 74.5,222.5C 74.5,222.167 74.5,221.833 74.5,221.5C 75.1667,221.5 75.5,221.167 75.5,220.5 Z"/></g>
<g><path style="opacity:0.016" fill="#be0075" d="M 73.5,222.5 C 73.8333,222.5 74.1667,222.5 74.5,222.5C 74.3147,223.17 73.9813,223.17 73.5,222.5 Z"/></g>
<g><path style="opacity:0.004" fill="#81006f" d="M 72.5,223.5 C 72.8333,223.5 73.1667,223.5 73.5,223.5C 73.5,224.833 72.8333,225.5 71.5,225.5C 71.5,225.167 71.5,224.833 71.5,224.5C 72.1667,224.5 72.5,224.167 72.5,223.5 Z"/></g>
<g><path style="opacity:0.016" fill="#97007a" d="M 224.5,223.5 C 223.833,223.5 223.5,223.833 223.5,224.5C 222.833,224.5 222.5,224.833 222.5,225.5C 222.5,226.167 222.167,226.5 221.5,226.5C 220.833,226.5 220.5,226.167 220.5,225.5C 220.167,225.5 219.833,225.5 219.5,225.5C 215.5,225.833 215.5,226.167 219.5,226.5C 218.167,227.833 216.833,227.833 215.5,226.5C 215.167,225.167 214.833,225.167 214.5,226.5C 213.833,226.5 213.5,226.167 213.5,225.5C 212.833,225.5 212.5,225.167 212.5,224.5C 211.833,224.5 211.5,224.167 211.5,223.5C 212.497,222.287 213.497,222.454 214.5,224C 218.781,225.458 221.947,224.292 224,220.5C 224.483,221.448 224.649,222.448 224.5,223.5 Z"/></g>
<g><path style="opacity:0.008" fill="#d9006c" d="M 9.5,226.5 C 8.47498,226.103 8.30831,225.437 9,224.5C 9.46434,225.094 9.63101,225.761 9.5,226.5 Z"/></g>
<g><path style="opacity:0.016" fill="#be0075" d="M 70.5,225.5 C 70.8333,225.5 71.1667,225.5 71.5,225.5C 71.3147,226.17 70.9813,226.17 70.5,225.5 Z"/></g>
<g><path style="opacity:0.008" fill="#dffb9f" d="M 9.5,226.5 C 9.83333,226.5 10.1667,226.5 10.5,226.5C 10.1667,229.167 9.83333,229.167 9.5,226.5 Z"/></g>
<g><path style="opacity:0.004" fill="#91ff6f" d="M 69.5,226.5 C 69.8333,226.5 70.1667,226.5 70.5,226.5C 70.5,227.833 69.8333,228.5 68.5,228.5C 68.5,228.167 68.5,227.833 68.5,227.5C 69.1667,227.5 69.5,227.167 69.5,226.5 Z"/></g>
<g><path style="opacity:0.008" fill="#d20071" d="M 11.5,230.5 C 10.8333,229.167 10.8333,229.167 11.5,230.5 Z"/></g>
<g><path style="opacity:0.016" fill="#9b0076" d="M 245.5,228.5 C 246.833,229.167 246.833,229.833 245.5,230.5C 245.5,229.833 245.5,229.167 245.5,228.5 Z"/></g>
<g><path style="opacity:0.004" fill="#f2fc32" d="M 11.5,230.5 C 11.8333,230.5 12.1667,230.5 12.5,230.5C 12.1667,233.167 11.8333,233.167 11.5,230.5 Z"/></g>
<g><path style="opacity:0.008" fill="#aefe6e" d="M 244.5,230.5 C 244.833,230.5 245.167,230.5 245.5,230.5C 245.672,231.492 245.338,232.158 244.5,232.5C 244.5,231.833 244.5,231.167 244.5,230.5 Z"/></g>
<g><path style="opacity:0.004" fill="#83ff6c" d="M 67.5,228.5 C 67.8333,228.5 68.1667,228.5 68.5,228.5C 66.8333,232.167 64.1667,234.833 60.5,236.5C 60.5,236.167 60.5,235.833 60.5,235.5C 61.1667,235.5 61.5,235.167 61.5,234.5C 62.1667,234.5 62.5,234.167 62.5,233.5C 63.1667,233.5 63.5,233.167 63.5,232.5C 64.1667,232.5 64.5,232.167 64.5,231.5C 65.1667,231.5 65.5,231.167 65.5,230.5C 66.1667,230.5 66.5,230.167 66.5,229.5C 67.1667,229.5 67.5,229.167 67.5,228.5 Z"/></g>
<g><path style="opacity:0.004" fill="#e9face" d="M 243.5,232.5 C 243.833,232.5 244.167,232.5 244.5,232.5C 244.672,233.492 244.338,234.158 243.5,234.5C 243.5,233.833 243.5,233.167 243.5,232.5 Z"/></g>
<g><path style="opacity:0.016" fill="#7e0178" d="M 242.5,234.5 C 242.833,234.5 243.167,234.5 243.5,234.5C 243.315,235.17 242.981,235.17 242.5,234.5 Z"/></g>
<g><path style="opacity:0.016" fill="#be0075" d="M 59.5,236.5 C 59.8333,236.5 60.1667,236.5 60.5,236.5C 60.3147,237.17 59.9813,237.17 59.5,236.5 Z"/></g>
<g><path style="opacity:0.016" fill="#be0075" d="M 58.5,237.5 C 58.8333,237.5 59.1667,237.5 59.5,237.5C 59.3147,238.17 58.9813,238.17 58.5,237.5 Z"/></g>
<g><path style="opacity:0.016" fill="#cafa56" d="M 15.5,234.5 C 16.1667,234.5 16.5,234.833 16.5,235.5C 17.1667,235.5 17.5,235.833 17.5,236.5C 18.1667,236.5 18.5,236.833 18.5,237.5C 19.1667,237.5 19.5,237.833 19.5,238.5C 17.3364,239.118 15.6697,238.118 14.5,235.5C 14.6236,234.893 14.9569,234.56 15.5,234.5 Z"/></g>
<g><path style="opacity:0.016" fill="#7e0178" d="M 57.5,238.5 C 57.8333,238.5 58.1667,238.5 58.5,238.5C 58.3147,239.17 57.9813,239.17 57.5,238.5 Z"/></g>
<g><path style="opacity:0.008" fill="#d20071" d="M 239.5,238.5 C 239.833,238.5 240.167,238.5 240.5,238.5C 240.315,239.17 239.981,239.17 239.5,238.5 Z"/></g>
<g><path style="opacity:0.016" fill="#7e0178" d="M 238.5,239.5 C 238.833,239.5 239.167,239.5 239.5,239.5C 239.315,240.17 238.981,240.17 238.5,239.5 Z"/></g>
<g><path style="opacity:0.008" fill="#dffd5b" d="M 30.5,244.5 C 30.5,244.833 30.5,245.167 30.5,245.5C 26.5,245.167 26.5,244.833 30.5,244.5 Z"/></g>
<g><path style="opacity:0.016" fill="#c5fc7c" d="M 30.5,245.5 C 32.8568,245.337 35.1902,245.503 37.5,246C 34.9615,246.796 32.6282,246.629 30.5,245.5 Z"/></g>
<g><path style="opacity:0.016" fill="#940076" d="M 223.5,248.5 C 223.5,248.167 223.5,247.833 223.5,247.5C 224.5,247.5 225.5,247.5 226.5,247.5C 225.791,248.404 224.791,248.737 223.5,248.5 Z"/></g>
</svg>
