<svg width="100" height="100" viewBox="0 0 100 100" fill="none" xmlns="http://www.w3.org/2000/svg">
<g clip-path="url(#clip0_1124_18052)">
<path d="M50 100C77.6142 100 100 77.6142 100 50C100 22.3858 77.6142 0 50 0C22.3858 0 0 22.3858 0 50C0 77.6142 22.3858 100 50 100Z" fill="#005596"/>
<path d="M49.9999 98.7333C76.9146 98.7333 98.7333 76.9147 98.7333 50C98.7333 23.0853 76.9146 1.26666 49.9999 1.26666C23.0853 1.26666 1.2666 23.0853 1.2666 50C1.2666 76.9147 23.0853 98.7333 49.9999 98.7333Z" fill="#005596"/>
<path d="M50 2.53333C76.1714 2.53333 97.4667 23.8286 97.4667 50C97.4667 76.1714 76.1714 97.4667 50 97.4667C23.8286 97.4667 2.53333 76.1714 2.53333 50C2.53333 23.8286 23.8286 2.53333 50 2.53333ZM50 0C22.3857 0 0 22.3857 0 50C0 77.6143 22.3857 100 50 100C77.6143 100 100 77.6143 100 50C100 22.3857 77.6143 0 50 0Z" fill="#005596"/>
<path d="M50 100C77.6142 100 100 77.6142 100 50C100 22.3858 77.6142 0 50 0C22.3858 0 0 22.3858 0 50C0 77.6142 22.3858 100 50 100Z" fill="#004990"/>
<path d="M50 2.53333C76.1714 2.53333 97.4667 23.8286 97.4667 50C97.4667 76.1714 76.1714 97.4667 50 97.4667C23.8286 97.4667 2.53333 76.1714 2.53333 50C2.53333 23.8286 23.8286 2.53333 50 2.53333ZM50 0C22.3857 0 0 22.3857 0 50C0 77.6143 22.3857 100 50 100C77.6143 100 100 77.6143 100 50C100 22.3857 77.6143 0 50 0Z" fill="#DB2B27"/>
<path d="M41.243 67.4048C41.243 67.4048 34.5715 64.0571 31.3191 58.9238C31.3334 63.3333 31.1191 68.8381 31.1191 68.8381L41.3334 70.8476L41.243 67.4095V67.4048Z" fill="white"/>
<path d="M58.8766 67.4952C58.8766 67.4952 65.548 64.4095 68.8004 59.2762C68.7861 63.6857 69.0004 68.8333 69.0004 68.8333L58.7861 70.8429L58.8766 67.4952Z" fill="white"/>
<path d="M58.9477 65.8333H41.1953V73.9333H58.9477V65.8333Z" fill="white"/>
<path d="M55.3527 66.4286C55.3527 69.3 52.9955 71.6286 50.086 71.6286C47.1765 71.6286 44.8193 69.3 44.8193 66.4286C44.8193 63.5571 47.1765 61.2286 50.086 61.2286C52.9955 61.2286 55.3527 63.5571 55.3527 66.4286Z" fill="white"/>
<path d="M28.8669 69.1476V61.5476L28.4146 61.3762V60.3476L28.8669 60.1476V59.4333L28.4146 59.2619V58.0381L29.905 56.6238V56.2905C29.905 56.2905 29.9574 55.9952 30.3384 55.9952H30.7812C30.7812 55.9952 31.1241 56.0476 31.1241 56.2905V56.6048L32.6526 58.0476L32.6384 59.2714L32.186 59.4333V60.1476L32.6479 60.3476V68.4238L28.8717 69.1524L28.8669 69.1476Z" fill="white"/>
<path d="M71.4337 69.1476V61.5476L71.886 61.3762V60.3476L71.4337 60.1476V59.4333L71.886 59.2619V58.0381L70.3956 56.6238V56.2905C70.3956 56.2905 70.3432 55.9952 69.9622 55.9952H69.5194C69.5194 55.9952 69.1765 56.0476 69.1765 56.2905V56.6048L67.6479 58.0476L67.6622 59.2714L68.1146 59.4333V60.1476L67.6527 60.3476V68.4238L71.4289 69.1524L71.4337 69.1476Z" fill="white"/>
<path d="M49.6243 79.8143C45.9338 79.8143 43.5719 78.5476 41.0862 77.2143C39.7719 76.5095 38.41 75.7762 36.81 75.2429C32.2862 73.7238 29.3052 75.5857 29.1814 75.6667L28.5767 74.7381C28.7195 74.6476 32.1052 72.4952 37.1624 74.1952C38.8529 74.7619 40.2528 75.5143 41.61 76.2429C44.1767 77.619 46.5957 78.919 50.5814 78.6809C54.31 78.4571 56.8719 77.1905 59.3481 75.9667C60.4052 75.4429 61.4052 74.9524 62.4624 74.5524C62.529 74.5286 62.6148 74.4952 62.7052 74.4571C64.029 73.9333 68.0671 72.3429 71.5528 74.9952L70.8814 75.8762C67.8957 73.6 64.4195 74.9714 63.11 75.4857C63.01 75.5238 62.9243 75.5571 62.8529 75.5857C61.8481 75.9619 60.8719 76.4476 59.8433 76.9571C57.3862 78.1714 54.6005 79.5476 50.6529 79.7857C50.3005 79.8048 49.9576 79.819 49.6243 79.819" fill="white"/>
<path d="M69.3955 77.8143L68.6098 77.3095C68.4336 77.1952 67.9717 77.1238 67.505 77.2C67.424 77.2143 67.3336 77.2333 67.2479 77.2524C66.8526 77.3381 66.3669 77.4476 65.986 77.1429C65.8288 77.019 65.6431 76.7762 65.6431 76.3286C65.6431 75.9905 65.7907 75.6905 66.0526 75.4857C66.9193 74.8143 69.0431 75.2809 69.6717 75.4429C70.0907 75.5571 70.5526 75.5524 70.6431 75.4714C70.8574 73.081 71.8288 71.3476 72.3764 70.5476C68.4479 68.1714 62.4383 69.4619 60.1812 70.9048C56.824 73.0476 54.0193 74.381 50.4431 74.3952C47.3955 74.3952 44.8098 73.1429 42.0764 71.8048C40.5479 71.0571 38.9669 70.281 37.2336 69.7C33.5812 68.4762 29.4288 69.8524 27.8479 70.4857C28.4336 71.2905 29.3288 72.8762 29.4241 75.1429C29.5098 75.2476 29.9717 75.2762 30.386 75.1857C31.0336 75.0524 33.1812 74.6857 34.0098 75.4C34.2669 75.619 34.3955 75.9238 34.3812 76.2619C34.3574 76.7048 34.1621 76.9381 34.0002 77.0571C33.605 77.3429 33.1241 77.2143 32.7336 77.1095C32.6479 77.0857 32.5621 77.0619 32.4812 77.0476C32.0145 76.9476 31.5526 77 31.3717 77.1048L30.5669 77.5714L30.5383 76.2857C30.2193 76.3476 29.3193 76.4714 28.7621 76.0476C28.4955 75.8429 28.3431 75.5476 28.3288 75.1952C28.205 72.2952 26.5907 70.6857 26.5717 70.6714L26.0098 70.1238L26.7145 69.781C26.9526 69.6667 32.5669 66.9762 37.586 68.6619C39.3907 69.2667 41.005 70.0571 42.5669 70.8238C45.1669 72.0952 47.6241 73.3 50.405 73.3H50.4431C53.7526 73.2857 56.3955 72.0191 59.5907 69.981C62.2288 68.2952 69.1336 66.8524 73.4907 69.9667L73.986 70.319L73.5907 70.7762C73.5907 70.7762 72.0098 72.6476 71.7431 75.5619C71.7098 75.9143 71.5479 76.2 71.2669 76.3905C70.6955 76.7857 69.8145 76.6238 69.4812 76.5429L69.3907 77.8238L69.3955 77.8143Z" fill="white"/>
<path d="M33.9576 75.3952C33.9576 75.3952 33.4052 74.8429 33.1766 74.4333C32.7243 73.6286 29.1719 75.2143 29.1719 75.2143L30.1385 75.4238" fill="white"/>
<path d="M65.9194 75.6048C65.9194 75.6048 66.4813 75.0667 66.7242 74.6619C67.2004 73.8714 70.7099 75.5381 70.7099 75.5381L69.7385 75.7238" fill="white"/>
<path d="M28.7573 75.4238C28.7573 75.4238 28.6811 73.2429 28.1906 72.2714C27.7001 71.3048 27.5049 70.3286 27.5049 70.3286C27.5049 70.3286 30.4811 68.8286 32.4192 68.7952C34.3573 68.7571 39.1858 69.6 40.6858 70.4286C42.1906 71.2571 46.243 73.481 48.343 73.9333C50.443 74.3857 53.9192 73.8476 56.0906 72.9524C58.262 72.0571 59.7144 70.5191 60.5954 70.1286C61.4763 69.7381 64.3144 68.7143 66.2239 68.5381C68.1335 68.3667 70.4335 69.1476 71.7287 69.3905C73.0239 69.6333 72.8335 70.1238 72.8335 70.1238L71.2763 75.081C71.2763 75.081 68.7858 74.2333 67.1144 74.1857C65.443 74.1381 62.6001 75.3905 61.7239 75.719C60.843 76.0476 56.9715 77.6619 55.7287 78.1524C54.4811 78.6429 50.2715 79.7667 47.8763 79.2286C45.4811 78.6905 40.8192 76.3238 39.6001 75.719C38.3811 75.1143 33.9716 73.6619 33.3906 73.9381C32.8049 74.2143 28.7668 75.4143 28.7668 75.4143L28.7573 75.4238Z" fill="white"/>
<path d="M70.3146 28.1095C70.2289 27.8381 69.767 27.6333 67.9098 27.6333C67.186 27.6333 66.5098 27.6619 66.5051 27.6619C66.4765 27.6619 66.4479 27.6667 66.4194 27.6762C65.267 27.7619 64.1717 28.0238 63.1765 28.4571C64.4956 26.8714 66.5432 25.8762 67.7813 25.3905C67.8479 25.3667 68.0289 25.281 68.067 25.219C68.1289 25.1238 68.2289 25.0381 68.1432 24.8857C68.0003 24.619 67.4337 24.5524 67.0575 24.5524C66.6527 24.5524 66.0765 24.6095 65.3575 24.7143C65.0146 24.7524 64.6765 24.8095 64.3527 24.881C64.3384 24.881 64.3241 24.8857 64.3098 24.8905C62.8813 25.2095 61.5337 25.8524 60.4051 26.7381C60.2479 26.8619 60.0956 26.9905 59.9479 27.1238L60.8575 25.5762C61.3479 24.7714 61.8813 24.0333 62.4432 23.3714C62.4813 23.3286 62.5051 23.2762 62.5194 23.219C62.5432 23.1048 62.667 22.9286 62.5956 22.8429C62.5479 22.7857 62.4479 22.6952 62.2622 22.6952C62.1003 22.6952 61.5527 22.7524 59.4717 24.3333C57.5146 25.7048 55.8337 27.4762 54.6098 29.4714C54.1194 30.3524 53.2575 31.9857 52.9717 33.1429C52.9527 33.0286 52.9384 32.9095 52.9241 32.8C52.8717 32.3381 52.8432 31.8571 52.8384 31.2905C52.8289 30.6095 52.8622 30 52.886 29.6095C52.8956 29.4476 52.867 29.0571 52.7051 29.019C52.5479 28.981 52.3051 29.3 52.2384 29.4476C51.2194 31.781 50.9527 33.7191 50.8956 34.8714L50.5241 38.2714C50.4813 38.5048 50.3051 39.6429 50.3051 39.6429C50.0241 39.1524 49.8241 38.7857 49.6098 38.2524C49.6003 38.2333 49.5956 38.219 49.5813 38.2L49.2622 37.6857C49.2622 37.6857 49.2432 37.6571 49.2337 37.6476C48.7479 37.0714 48.2575 36.7714 47.6908 36.4286C46.8956 35.9429 45.9003 35.3429 44.4289 33.6381C43.6146 32.6952 42.6717 30.7952 42.367 29.4857C41.7622 26.8952 41.8194 23.7905 42.5146 21.0048C42.5765 20.819 42.6241 20.481 42.5384 20.3619C42.4765 20.2714 42.3575 20.2143 42.2479 20.2143C42.0289 20.2143 41.8337 20.4048 40.4765 22.5667C40.4765 22.5714 40.4717 22.5762 40.467 22.5857C39.5765 24.0095 38.9432 25.6333 38.6432 27.2905C38.5765 27.6524 38.5289 28.0143 38.4956 28.3714C38.1813 27.5857 37.9194 26.7762 37.7146 25.9476C37.2765 24.1714 37.1337 22.3714 37.3003 20.7381C37.3098 20.6381 37.3337 20.3619 37.2622 20.2905C37.1956 20.2238 37.0956 20.1857 36.9956 20.1857C36.6956 20.1857 36.2337 20.5714 35.2765 23.1333C34.367 25.5714 34.0717 27.8048 34.3575 30.2476C33.3241 28.9 32.8575 27.0048 32.4337 25.2952C32.3289 24.8714 32.2289 24.4571 32.1194 24.0571C32.067 23.8571 31.9241 23.3762 31.7384 23.4667C31.7241 23.4714 31.7146 23.481 31.7003 23.4857C31.7003 23.4857 31.7003 23.4857 31.6956 23.4857C31.6908 23.4857 31.6813 23.4952 31.6765 23.5C31.667 23.5048 31.6575 23.5143 31.6527 23.519C31.6146 23.5524 31.486 23.9762 31.4622 24.019C31.4051 24.1286 31.367 24.2857 31.3432 24.519C31.3432 24.5286 31.3432 24.5429 31.3432 24.5524C31.3432 24.6333 31.3384 24.7095 31.3337 24.7905C31.3289 24.881 31.3241 24.9667 31.3241 25.0524C31.2003 26.3333 31.1051 29.6476 32.8051 33.1095L32.8432 33.2C32.867 33.2524 32.8908 33.3048 32.9146 33.3571C33.1003 33.7476 33.3098 34.1048 33.5098 34.4524C33.5765 34.5667 33.6432 34.6762 33.7051 34.7905C33.9384 35.2048 34.1479 35.4524 34.3575 35.6952C33.3956 35.5 31.9765 35.2143 31.2956 35.1143C31.1384 35.0952 30.986 35.181 30.9289 35.3286C30.8717 35.4762 30.9289 35.6429 31.0575 35.7333C31.6289 36.1095 32.6717 37.0476 33.767 38.0667H33.7527L35.6956 39.8762L35.8717 40.0429C36.5051 40.6381 37.1622 41.2524 37.7908 41.8238L36.4622 41.6905C36.3146 41.6714 36.1717 41.7619 36.1146 41.9C36.0575 42.0381 36.1003 42.1952 36.2146 42.2905L39.3146 44.8L40.6717 45.881C40.6813 45.8905 40.6908 45.9 40.7003 45.9095L43.0241 47.781C43.0813 47.8286 43.1527 47.8524 43.2289 47.8571L43.8241 47.8714C42.5622 48.3952 41.4051 48.4143 40.0575 47.9619C39.0146 47.6143 38.0194 47.0714 37.1765 46.3905C37.0575 46.2952 36.7479 46.1143 36.6241 46.2048C36.5003 46.2952 36.5908 46.6381 36.6527 46.781C36.9146 47.4286 37.4003 47.9952 37.8908 48.5095C36.286 48.2952 34.8289 47.8571 33.1622 47.0952C33.0241 47.0333 32.7717 46.8714 32.6765 46.9857C32.5765 47.1 32.6575 47.4619 32.7384 47.5857C33.4908 48.7571 34.0956 49.5571 34.6956 50.181C35.3241 50.8381 36.1575 51.5095 36.567 51.7524C36.6432 51.8 36.8527 51.9238 37.8527 51.9238C38.2289 51.9238 38.6479 51.9048 39.0003 51.8714C39.0432 51.8714 39.086 51.8619 39.1289 51.8571C38.1337 52.2095 37.2146 52.3381 36.4241 52.2429C36.2527 52.219 35.8622 52.2333 35.8241 52.4C35.786 52.5667 36.1051 52.8381 36.267 52.8952C37.4527 53.319 38.6146 53.6095 39.7241 53.7571C40.0908 53.8619 41.1289 54.1333 42.2527 54.2286C42.3289 54.2333 42.4003 54.2381 42.467 54.2333C42.5575 54.2429 42.6527 54.2476 42.7384 54.2571C43.167 54.2952 43.5765 54.3333 44.0098 54.3333C44.367 54.3333 44.7194 54.3048 45.086 54.2524C45.086 54.2952 45.1003 54.3381 45.1241 54.381L45.3194 54.7667C45.2479 54.781 45.1813 54.8143 45.1289 54.8714C45.0289 54.9762 45.0098 55.1333 45.0765 55.2619L45.4956 56.0476C45.4956 56.0476 45.5146 56.0857 45.5289 56.1C45.5289 56.1 45.5432 56.1143 45.5622 56.1381C45.5432 56.1476 45.5289 56.1571 45.5098 56.1667C45.3956 56.2476 45.3432 56.3905 45.3765 56.5238C45.5956 57.4 46.0194 57.7095 46.3289 57.9333C46.5384 58.0857 46.667 58.181 46.7337 58.419C46.7765 58.5762 46.8527 58.7571 46.9289 58.9476C47.0908 59.3476 47.3337 59.9524 47.1813 60.1952C46.9765 60.5191 46.8384 60.6143 46.6051 60.7667C46.4622 60.8619 46.2813 60.9857 46.0622 61.181C45.5337 61.6524 45.5003 62.2809 45.9527 63.0476L45.9813 63.0905C46.0527 63.2143 46.1908 63.2762 46.3289 63.2571C46.467 63.2333 46.5765 63.1286 46.6051 62.9905C46.7098 62.4476 47.6003 62.0191 47.7717 62.0095C48.0765 61.9905 48.367 61.9714 48.567 61.7714C48.8908 61.4476 50.6479 61.4286 50.6479 61.4286C50.6479 61.4286 50.8527 61.4381 51.1765 61.5C51.2384 61.5333 51.3051 61.5619 51.3622 61.5952C51.4194 61.6286 51.4765 61.6524 51.5432 61.6476C51.5813 61.6476 52.1717 61.8857 52.2194 61.9429C52.3051 62.0429 53.3003 62.5952 53.4194 62.6571C53.486 62.6952 54.067 63.4667 54.1527 63.4667C54.286 63.6667 54.3384 63.6095 54.3432 63.4095C54.7194 63.1857 55.0622 62.6905 55.1908 62.1571C55.3194 61.6286 55.2432 61.1286 54.967 60.7048C54.9527 60.681 54.9337 60.6571 54.9098 60.6381C54.8527 60.5857 54.6956 60.4619 54.5194 60.319C54.2765 60.1286 53.867 59.8048 53.7813 59.7095C53.5337 59.4238 53.4098 59.1143 53.2908 58.7619C53.386 58.7571 53.4765 58.7095 53.5337 58.6333C53.5956 58.5524 53.6194 58.4476 53.5956 58.3476L53.5527 58.1524C53.4813 57.8571 53.4051 57.5191 53.3432 57.1476V57.1286C53.3432 57.1286 53.367 57.1286 53.3813 57.1286C53.3813 57.1286 53.3813 57.1286 53.386 57.1286C53.5717 57.1286 53.7241 56.9762 53.7241 56.7905C53.7241 56.7286 53.7051 56.6667 53.6765 56.619L53.3051 55.6095C53.3384 55.6476 53.3622 55.6762 53.3765 55.6905C53.467 55.7857 53.6908 55.9524 53.8194 55.9048C53.9432 55.8619 53.9479 55.6143 53.9622 55.481C54.0146 54.8048 54.5289 54.1238 55.086 53.7238C55.1194 53.8143 55.1479 53.8762 55.1575 53.8905C55.2146 54.0048 55.2194 54.2476 55.3479 54.2476C55.3479 54.2476 55.3527 54.2476 55.3575 54.2476C55.486 54.2476 55.5813 54.0667 55.767 53.8762C56.0003 53.6333 56.1956 53.4238 56.4384 53.3524L57.6051 53.819C57.6765 54.0286 57.8194 54.3667 58.0717 54.5714C58.2908 54.7476 58.5003 54.881 58.886 55.1238C58.9289 55.1476 58.9717 55.1762 59.0146 55.2048C58.9813 55.2238 58.9384 55.2381 58.8956 55.2524C58.7622 55.3 58.3813 55.4238 58.3813 55.5667C58.3813 55.7095 58.7622 55.8333 58.8956 55.8857C59.1527 55.981 59.4384 56.0333 59.7194 56.0333C60.2956 56.0333 60.7956 55.8286 61.1003 55.4714C61.3479 55.1762 61.4479 54.8048 61.3765 54.3952C61.3241 54.0905 61.2051 53.3333 61.167 53.0857L61.4813 52.0524C61.4908 52.019 61.4956 51.9857 61.4956 51.9524C61.4956 51.4619 61.3527 50.9191 61.0813 50.3286L61.067 50.2905C61.0527 50.2476 61.0336 50.2143 61.0098 50.181C60.9956 50.1524 60.9813 50.1238 60.967 50.1C60.8956 49.9381 60.8051 49.7762 60.686 49.6048C59.8479 48.2286 58.6622 47.1048 58.6098 47.0571C58.5098 46.9619 58.3098 46.7952 58.186 46.8571C58.0622 46.9143 58.0337 47.1857 58.0432 47.3238V47.3952C57.967 47.2048 57.6527 46.8762 57.586 46.7762C57.4384 46.5524 57.3241 46.319 57.286 46.1571C58.2908 41.5143 61.3575 38.4238 61.3908 38.3952C61.4479 38.3381 61.4813 38.2667 61.4908 38.1905C62.1575 31.5476 69.7384 28.6238 69.8194 28.5952C69.8479 28.5857 70.0432 28.5238 70.067 28.5048C70.3289 28.3095 70.3717 28.1571 70.3527 28.0905M53.1194 57.0238C53.1194 57.0238 53.1384 57.0333 53.1479 57.0381L53.0003 57.0619L53.1194 57.0238Z" fill="white"/>
<path d="M49.1382 75.7238H49.0335L49.0049 76.5095H49.1001C49.3906 76.5238 49.5525 76.4 49.562 76.1238C49.5715 75.8667 49.4239 75.7381 49.1382 75.7238Z" fill="#004990"/>
<path d="M51.5239 76.7667L52.062 76.6905L51.6715 75.8095L51.5239 76.7667Z" fill="#004990"/>
<path d="M43.6146 75.3667L43.7956 74.419L43.1289 75.1238L43.6146 75.3667Z" fill="#004990"/>
<path d="M33.986 70.5857L33.8098 70.5762L33.7622 71.3619L33.9432 71.3714C34.2241 71.3857 34.386 71.2524 34.4003 70.9952C34.4146 70.7476 34.267 70.6048 33.986 70.5857Z" fill="#004990"/>
<path d="M56.7287 75.2857L57.2239 75.0619L56.6001 74.3286L56.7287 75.2857Z" fill="#004990"/>
<path d="M59.8905 70.4286C56.5619 72.5524 53.8524 73.819 50.4476 73.8333C45.8429 73.8524 42.2762 70.8 37.4143 69.1667C32.5524 67.5333 26.9619 70.2619 26.9619 70.2619C26.9619 70.2619 28.7476 72.0048 28.881 75.1571C28.881 75.1571 32.1238 73.0429 36.9857 74.6714C41.8476 76.3048 44.3619 79.5571 50.6191 79.181C56.0667 78.8524 59.1619 76.3333 62.6619 75.019C63.7476 74.6095 67.7476 72.7524 71.2095 75.3762C71.5238 72.3048 73.1762 70.3952 73.1762 70.3952C69.0333 67.4333 62.3381 68.8619 59.8905 70.4238V70.4286ZM31.6429 73.0333C30.7619 73.2 30.1238 72.7381 29.9476 71.8143C29.7762 70.919 30.2191 70.2143 31.1143 70.0429C31.4095 69.9857 31.6572 70 31.881 70.0667L31.9048 70.8381C31.7286 70.7476 31.5286 70.6905 31.3048 70.7333C30.9048 70.8095 30.7048 71.1571 30.8 71.6476C30.8952 72.1524 31.2333 72.3857 31.6333 72.3095C31.8333 72.2714 32 72.1667 32.1857 72.0095L32.4286 72.6857C32.2143 72.8476 31.9857 72.9714 31.6429 73.0333ZM34.3572 72.9429L33.8714 71.9714L33.7381 71.9619L33.6857 72.8714L32.8238 72.819L33 69.8857L34.1238 69.9524C34.881 70 35.2952 70.3619 35.2572 70.9905C35.2333 71.3857 35.0381 71.6571 34.6952 71.8048L35.2857 72.8571L34.3572 72.9429ZM36.7333 73.3952L35.8905 73.1667L36.1619 72.1714L35.6714 70.1476L36.5952 70.281L36.8333 71.5143L37.6429 70.5952L38.5191 70.8333L37.0095 72.381L36.7333 73.3905V73.3952ZM39.3857 72.419C39.9143 72.8857 40.0762 73.2095 39.8857 73.6524C39.6143 74.2905 39.0429 74.3333 38.4952 74.1C38.1 73.9286 37.8143 73.7095 37.5619 73.4476L37.9572 72.8429C38.2095 73.1333 38.4952 73.3809 38.7667 73.4952C38.9238 73.5619 39.0476 73.5524 39.1 73.4333C39.1476 73.3191 39.1048 73.2381 38.7952 72.9524C38.3286 72.519 38.1524 72.2333 38.3572 71.7619C38.5952 71.2048 39.1476 71.1143 39.681 71.3429C40.0714 71.5095 40.281 71.681 40.4952 71.919L40.1 72.519C39.8857 72.2476 39.6381 72.0476 39.4381 71.9619C39.2762 71.8952 39.1762 71.9143 39.1381 72.0095C39.0905 72.1143 39.1333 72.1952 39.3952 72.4286L39.3857 72.419ZM40.2857 74.9143L41.3143 72.9524L40.6143 72.5857L40.9524 71.9429L43.0476 73.0381L42.8191 73.7333L42.0905 73.3524L41.0619 75.3143L40.2905 74.9095L40.2857 74.9143ZM44.2619 76.8619L43.4143 76.5857L43.4952 76.0429L42.6714 75.6286L42.3191 76.0048L41.5667 75.6238L43.8 73.4429L44.6714 73.8809L44.2667 76.8619H44.2619ZM46.4572 77.7048L44.7238 77.1429L45.6286 74.3476L46.4572 74.6143L45.781 76.7048L46.5714 76.9619L46.4572 77.7048ZM49.1333 77.1476H48.9952L48.9667 78.0238L48.1 77.9952L48.2 75.0571L49.2191 75.0905C49.9762 75.1143 50.4286 75.4619 50.4048 76.1381C50.381 76.8333 49.8762 77.1714 49.1333 77.1476ZM52.5905 77.819L52.3524 77.3238L51.4381 77.4476L51.3619 77.9571L50.5238 78.0714L51.1286 75.0095L52.0952 74.8762L53.4476 77.5619L52.5905 77.8143V77.819ZM54.0524 77.481L53.1857 74.6714L54.0191 74.4143L54.6667 76.5143L55.4619 76.2667L55.7952 76.9381L54.0524 77.4762V77.481ZM58.0524 75.9952L57.681 75.5857L56.8381 75.9667L56.9095 76.4762L56.1429 76.8238L55.8524 73.719L56.7429 73.319L58.8 75.5095L58.0524 75.9952ZM60.281 74.919C59.4714 75.3143 58.7381 75.0286 58.3286 74.1857C57.9286 73.3667 58.1714 72.5714 58.9905 72.1714C59.2571 72.0429 59.5048 71.9905 59.7381 71.9905L59.9619 72.7286C59.7667 72.6857 59.5619 72.681 59.3524 72.781C58.9905 72.9571 58.881 73.3476 59.1048 73.8C59.3286 74.2619 59.7143 74.4 60.081 74.219C60.2667 74.1286 60.4 73.9857 60.5333 73.7857L60.9429 74.3714C60.781 74.5809 60.5905 74.7619 60.2762 74.9143L60.281 74.919ZM61.3286 74.3571L60.2191 71.6381L62.0143 70.9048L62.2714 71.5381L61.2667 71.9476L61.4238 72.3381L62.1857 72.0286L62.5381 72.6143L61.6762 72.9667L61.8524 73.4L62.8953 72.9762L63.1524 73.6095L61.3238 74.3571H61.3286ZM65.1048 73.0333L64.2572 73.2095L63.6524 70.3333L65.4714 69.9524L65.6191 70.6524L64.6476 70.8571L64.7429 71.319L65.4429 71.1714L65.7048 71.8429L64.8857 72.0143L65.1 73.0333H65.1048ZM66.3238 72.8476C66.0952 72.8667 65.8952 72.6952 65.8762 72.4667C65.8572 72.2381 66.0286 72.0381 66.2524 72.019C66.481 72 66.681 72.1714 66.7 72.4C66.7191 72.6286 66.5476 72.8286 66.3191 72.8476H66.3238ZM69.0619 70.9238C68.9191 70.7857 68.7476 70.6714 68.5191 70.6476C68.1191 70.6048 67.8238 70.8762 67.7667 71.3762C67.7095 71.8857 67.9619 72.2048 68.3714 72.2524C68.5762 72.2762 68.7667 72.2238 68.9857 72.1238L69.0191 72.8381C68.7667 72.9333 68.5095 72.9809 68.1667 72.9429C67.2714 72.8476 66.8 72.219 66.9 71.2857C66.9953 70.381 67.6238 69.8333 68.5333 69.9333C68.8286 69.9667 69.0667 70.0524 69.2619 70.181L69.0619 70.9238ZM69.7095 73.2619C69.481 73.281 69.281 73.1095 69.2619 72.881C69.2429 72.6524 69.4143 72.4524 69.6429 72.4333C69.8714 72.4143 70.0714 72.5857 70.0905 72.8143C70.1095 73.0429 69.9381 73.2429 69.7143 73.2619H69.7095Z" fill="#004990"/>
<path d="M69.1098 77.2476L68.7859 77.0381C68.5193 76.8667 67.9574 76.8 67.4526 76.881C67.3621 76.8952 67.2717 76.9143 67.1764 76.9381C66.8145 77.0191 66.4431 77.1 66.186 76.8905C66.0383 76.7714 65.9621 76.5809 65.9621 76.3286C65.9621 76.0905 66.0621 75.8857 66.2479 75.7381C67.0336 75.1286 69.3336 75.6857 69.5907 75.7524C69.8193 75.8143 70.524 75.9429 70.824 75.7333C70.9098 75.6762 70.9526 75.5952 70.9621 75.4762C71.2002 72.8333 72.4002 71.0333 72.8383 70.4524C68.8479 67.7905 62.5002 69.1095 60.005 70.6286C57.1621 72.3619 54.0859 74.0524 50.4431 74.0667H50.4002C47.4383 74.0667 44.905 72.8238 42.2193 71.5095C40.6812 70.7571 39.0907 69.9762 37.3336 69.3857C33.224 68.0095 28.5193 69.8286 27.3336 70.3429C27.8288 70.9333 28.9907 72.581 29.1002 75.1476C29.105 75.2667 29.1479 75.3524 29.2288 75.4143C29.524 75.6381 30.2288 75.5429 30.4526 75.4905C30.7193 75.4381 33.0431 74.9857 33.7955 75.6333C33.9764 75.7905 34.0669 75.9952 34.0526 76.2381C34.0383 76.4905 33.9574 76.6762 33.805 76.7857C33.5383 76.981 33.1669 76.881 32.8098 76.7857C32.7193 76.7619 32.6288 76.7381 32.5383 76.719C32.0383 76.6143 31.4717 76.6524 31.2002 76.8095L30.8669 77.0048L30.8383 75.8857C30.7336 75.9048 30.6383 75.919 30.5431 75.9381C30.4383 75.9619 29.4574 76.1714 28.9431 75.7762C28.7526 75.6286 28.6479 75.4191 28.6336 75.1667C28.505 72.1381 26.8002 70.4429 26.7812 70.4238L26.5479 70.1952L26.8383 70.0524C27.0717 69.9381 32.5717 67.3048 37.4669 68.9476C39.2526 69.5476 40.8574 70.3333 42.405 71.0905C45.0383 72.3809 47.5288 73.6 50.3859 73.6H50.424C53.605 73.5857 56.3479 72.3 59.7479 70.2286C62.3764 68.6286 69.1479 67.2524 73.2859 70.2095L73.4907 70.3571L73.324 70.5476C73.324 70.5476 71.6764 72.4857 71.4002 75.5143C71.3764 75.7667 71.2621 75.9714 71.0621 76.1095C70.5288 76.4762 69.5574 76.2238 69.4526 76.1952C69.3621 76.1714 69.2669 76.1524 69.1669 76.1286L69.0859 77.2476H69.1098ZM67.4336 75.9143C67.0383 75.9143 66.705 75.9667 66.5288 76.1C66.4526 76.1571 66.4193 76.2286 66.4193 76.3286C66.4193 76.4333 66.4383 76.5048 66.4717 76.5333C66.5621 76.6048 66.8574 76.5381 67.0764 76.4905C67.1764 76.4667 67.2812 76.4476 67.3764 76.4286C67.7526 76.3667 68.2764 76.3619 68.7002 76.5L68.7336 76.0429C68.305 75.9667 67.8336 75.9143 67.4288 75.9143M31.9621 76.2048C32.205 76.2048 32.4479 76.2333 32.6431 76.2762C32.7383 76.2952 32.8383 76.3238 32.9383 76.3524C33.1526 76.4095 33.4526 76.4905 33.5431 76.4238C33.5764 76.4 33.6002 76.3238 33.605 76.2238C33.605 76.1238 33.5812 76.0524 33.505 75.9905C33.1717 75.7048 32.1669 75.7191 31.305 75.8286L31.3145 76.2857C31.5193 76.2286 31.7431 76.2095 31.9621 76.2095" fill="#DB2B27"/>
<path d="M49.6335 79.4905C46.0145 79.4905 43.6907 78.2429 41.243 76.9333C39.9145 76.219 38.543 75.4857 36.9145 74.9381C32.224 73.3619 29.0383 75.3762 29.0049 75.3952L28.7573 75.0095C28.8954 74.919 32.1526 72.8524 37.0621 74.5C38.724 75.0571 40.1145 75.8048 41.4621 76.5238C44.0716 77.9238 46.5335 79.2429 50.6097 79C54.4002 78.7714 56.9954 77.4905 59.5002 76.2524C60.5478 75.7333 61.5383 75.2429 62.5811 74.8524C62.6526 74.8238 62.7335 74.7952 62.8288 74.7571C64.2478 74.1952 68.0192 72.7095 71.3621 75.2524L71.0859 75.619C67.9526 73.2333 64.3526 74.6524 63.0002 75.1857C62.9049 75.2238 62.8192 75.2571 62.7478 75.2857C61.7288 75.6714 60.7478 76.1571 59.7049 76.6667C57.2764 77.8667 54.524 79.2286 50.6383 79.4619C50.2954 79.4809 49.9621 79.4905 49.6383 79.4905" fill="#DB2B27"/>
<path d="M33.5956 76.0571C32.4956 75.1571 32.0718 74.2857 32.0527 74.2476L32.467 74.0476C32.467 74.0476 32.8718 74.8714 33.8861 75.7L33.5956 76.0571Z" fill="#DB2B27"/>
<path d="M66.4765 76.1524L66.2051 75.7809C67.386 74.919 67.5289 74.0048 67.5289 73.9952L67.9813 74.0571C67.9765 74.1 67.8098 75.1762 66.4717 76.1476" fill="#DB2B27"/>
<path d="M52.7908 34.0667C52.7194 33.7286 52.6432 33.3048 52.5908 32.8333C52.6337 33.2238 52.7003 33.6286 52.7908 34.0667Z" fill="#004990"/>
<path d="M60.729 50.4762C60.7147 50.4381 60.71 50.4191 60.71 50.4191C60.71 50.4191 60.71 50.4333 60.7195 50.4571C60.6909 50.3952 60.6576 50.3286 60.6242 50.2667C60.548 50.1048 60.4623 49.9524 60.3623 49.8048C59.5385 48.4524 58.3433 47.3286 58.3433 47.3286L58.3623 47.6571L58.4004 48.1714C58.4004 48.1714 54.5433 45.9333 52.9004 43.8714C51.6242 42.2714 50.1576 40.5238 49.2861 38.381L48.9671 37.8667C47.8576 36.5476 46.7004 36.7952 44.1623 33.8619C43.2909 32.8571 42.3338 30.8762 42.029 29.5667C41.3861 26.8 41.5004 23.6476 42.1861 20.9C42.1861 20.9 42.5052 19.9619 40.7528 22.7524C39.8719 24.1476 39.2576 25.7333 38.9671 27.3571C38.8147 28.1857 38.7481 29.019 38.7766 29.8429C38.1814 28.6571 37.7052 27.3619 37.3766 26.0333C36.948 24.2762 36.7766 22.4524 36.9528 20.7095C36.9528 20.7095 36.6433 20.4095 35.5766 23.2571C34.51 26.1048 34.3433 28.5381 34.829 31.2619C32.8719 29.6 32.429 26.5619 31.7766 24.1524C31.7719 24.1571 31.7623 24.1667 31.7528 24.1905C31.729 24.2381 31.6957 24.3429 31.6719 24.5667C31.6719 24.7381 31.6481 24.9143 31.6481 25.0857C31.529 26.2905 31.4195 29.5667 33.1004 32.9857C33.1338 33.0667 33.1719 33.1476 33.2052 33.2238C33.4433 33.7286 33.7242 34.181 33.9814 34.6333C34.4052 35.381 34.7385 35.5667 35.2147 36.2286C35.1671 36.2191 32.2814 35.6143 31.229 35.4571C31.8671 35.8762 33.0338 36.9381 34.3623 38.181C34.3623 38.181 38.3385 38.5 41.4623 40.8095C41.4623 40.8095 38.7576 39.4857 35.51 39.2619C35.7004 39.4429 35.8909 39.6238 36.0814 39.8C37.0052 40.6714 37.9385 41.5381 38.7623 42.2667H38.7481L36.4004 42.0333L39.7719 44.7619L40.3766 44.781C40.3766 44.781 41.51 44.7429 42.6338 44.9952C43.829 45.2667 44.4671 45.6524 44.4671 45.6524C43.8004 45.4238 42.6861 45.3905 42.0195 45.4333C41.5385 45.4619 41.229 45.6 40.8814 45.6429L41.0766 45.8L43.2052 47.5095L45.1004 47.5571C43.5004 48.5524 41.929 48.9476 39.9147 48.2714C38.8433 47.9143 37.81 47.3524 36.929 46.6429C37.2861 47.519 38.11 48.2667 38.7528 48.9286C36.629 48.7667 34.9242 48.2762 32.9814 47.3857C33.7242 48.5381 34.31 49.3191 34.9004 49.9333C35.4861 50.5429 36.2957 51.2095 36.7004 51.4524C36.9576 51.6048 38.1433 51.6 38.929 51.5238C39.0766 51.5095 39.21 51.4952 39.3195 51.4762C39.5004 51.4476 39.7242 51.4 39.9623 51.3429C40.7671 51.1571 41.7385 50.8857 41.6861 50.9191C41.3385 51.1476 40.9528 51.3714 40.5528 51.5762C40.3147 51.7 40.0719 51.8143 39.8195 51.9238C38.6909 52.4048 37.4623 52.7095 36.3433 52.5667C37.5957 53.0143 38.9052 53.3429 40.2338 53.4667C40.6909 53.5095 40.8576 53.5048 41.2528 53.3191C41.8433 53.0429 42.3338 52.819 42.8052 52.5952C43.0433 52.481 43.2814 52.3667 43.5195 52.2429C43.8481 52.0762 44.1909 51.8952 44.5719 51.6857C44.3528 51.8905 44.129 52.0857 43.9052 52.2762C43.7766 52.381 43.6481 52.4905 43.5195 52.6C43.0623 52.9762 42.5719 53.3667 42.0147 53.8524C43.5147 53.9571 44.3814 54.2048 46.3719 53.5857C46.3719 53.5857 45.9623 53.8905 45.3957 54.2238L45.9861 55.381L45.3481 55.0952L45.7671 55.881C45.7671 55.881 46.0671 56.2524 46.4909 56.5619L46.6338 57.0238C46.3052 56.9238 45.8814 56.5762 45.6719 56.4333C46.0052 57.7714 46.8004 57.5095 47.029 58.3191C47.1814 58.8667 47.7623 59.8476 47.4338 60.3667C47.0481 60.981 46.7957 60.9381 46.2528 61.4238C45.6242 61.9857 46.11 62.6952 46.2385 62.9191C46.3671 62.2572 46.8576 61.8286 47.1385 61.7476C47.5766 61.6191 48.1004 61.7191 48.2957 61.5238C48.9861 60.8333 50.4766 60.6572 51.5052 61.3048C51.029 60.5333 50.7814 60.5571 49.8338 60.2857C51.51 60.3952 51.6195 60.7619 52.4385 61.7191C52.5052 61.1762 52.0528 60.4857 51.6671 60.1524C51.548 60.0476 50.2147 59.8619 48.9195 59.7524C48.4623 59.7143 48.2814 59.1286 48.2147 58.8143C48.2957 58.8619 48.6623 59.0524 49.0195 59.0476C48.929 58.5905 48.8052 58.0762 48.729 57.7619C48.8576 57.8191 48.9861 57.9 49.2719 57.9095L49.0861 57.1429C48.9957 56.5333 48.8004 56.0905 49.3861 55.1524C49.71 55.381 49.8528 55.481 50.0004 55.6429C50.0004 55.6429 50.1242 56.2286 50.2576 56.5381C50.2814 56.5952 50.8623 57.0905 50.8814 57.1524L49.8861 56.8667C49.8861 56.8667 50.2195 57.6191 50.8719 58.0571C51.2623 58.1952 51.6052 58.3476 51.7195 58.5C51.8385 58.6571 52.0338 59.081 51.9385 59.3095C51.8623 59.4952 51.3385 58.7095 50.2242 59.6429C50.9814 59.6571 51.8957 59.8619 52.0909 60.0952C52.3433 60.3952 52.529 60.6667 52.71 60.781C53.5147 61.2667 53.5719 61.5191 53.51 62.4714C54.01 62.0857 53.8671 61.081 53.7957 60.8381C54.4576 61.6333 54.3147 62.7095 54.11 63.1333C54.6052 62.8572 55.2052 61.7619 54.6385 60.8952C54.4861 60.7571 53.6433 60.1286 53.4814 59.9429C53.0623 59.4619 52.9528 58.9191 52.748 58.3714C52.8957 58.381 53.0766 58.4381 53.2242 58.4381C53.148 58.1143 53.0433 57.6905 52.9623 57.2238C52.9528 57.181 52.948 57.1381 52.9385 57.0952C52.9385 57.0762 52.9338 57.0619 52.929 57.0429C52.9195 56.9714 52.91 56.9048 52.9004 56.8333C52.9004 56.8143 52.9004 56.8 52.8957 56.781C52.8861 56.7095 52.8766 56.6381 52.8719 56.5619C53.1433 56.7381 53.3338 56.8095 53.3338 56.8095L52.8671 55.5429C52.8766 55.4476 52.8861 55.3524 52.9004 55.2571C52.9004 55.2524 52.9004 55.2429 52.9004 55.2381C52.9147 55.1524 52.9338 55.0667 52.9528 54.9762C52.9528 54.9619 52.9576 54.9476 52.9623 54.9333C52.9814 54.8524 53.0052 54.7762 53.029 54.7C53.0338 54.681 53.0385 54.6619 53.0481 54.6429C53.0814 54.5476 53.1195 54.4571 53.1576 54.3667C52.948 54.8191 53.5671 55.4714 53.5671 55.4714C53.6433 54.4714 54.5433 53.5333 55.2957 53.1952C55.2528 53.4762 55.3957 53.7524 55.3957 53.7524C55.6195 53.2762 56.0719 53.0905 56.3957 53.0191L57.0052 53.2619L57.6528 53.5238L57.8195 53.5905C57.8195 53.5905 57.9385 54.1048 58.2195 54.3333C58.4957 54.5571 58.7814 54.7191 59.4671 55.1572C59.4147 55.3286 59.2623 55.4857 58.9528 55.6C59.929 55.9667 61.1528 55.5286 60.9814 54.481C60.9195 54.1095 60.7576 53.0952 60.7576 53.0952L60.9861 52.3381L61.0528 52.1143L61.0623 52.0905L61.0957 51.9857C61.0957 51.5 60.9385 50.9857 60.7052 50.4857M57.2433 52.0333L56.7242 51.1L55.4004 50.4333L56.4814 51.6857C55.9147 51.3619 54.9433 50.8429 53.8909 50.6476C53.8909 50.6476 54.7861 51.481 55.21 51.9C55.2909 51.9524 55.3052 51.9952 55.3052 51.9952C55.2766 51.9667 55.2433 51.9333 55.21 51.9C55.0861 51.8191 54.8004 51.7095 54.1433 51.6714C53.5385 51.6095 52.8195 51.4524 52.1671 51.0857C52.1671 51.0857 52.2957 51.2762 52.5623 51.5048C52.5623 51.5048 52.5719 51.5095 52.5719 51.5143C52.8195 51.7286 53.1909 51.9714 53.6861 52.1286C53.7242 52.1429 54.2195 52.3476 54.2623 52.3571C53.9052 52.5 53.6052 52.6714 53.3576 52.8619C52.8766 53.2333 52.5766 53.681 52.3957 54.1381C52.0861 54.9286 51.8052 56.3524 52.0242 57.1619C51.3385 56.2429 50.7338 55.0571 51.0719 53.7143C50.029 54.3 49.3576 54.1095 48.6385 54.0048C48.3052 54.4524 47.8623 55.5333 47.8052 56.4571C47.7433 56.3619 47.6861 56.2524 47.6338 56.1429C47.3623 55.5714 47.2242 54.9143 47.1909 54.281C47.1766 54.0286 47.1766 53.7857 47.1957 53.5667L49.5766 51.8762L46.1147 51.5857C46.1719 51.5429 46.229 51.5 46.2909 51.4619C47.6242 50.5238 49.2719 49.8762 50.9195 49.9476C51.048 49.9524 51.1766 49.9619 51.3004 49.9762C50.2385 49.381 48.3719 49.4095 47.2623 49.7571C45.7576 50.2286 45.1623 50.2524 43.5576 49.9714C45.2481 49.6286 45.1861 49.5857 46.1861 49.1095C47.01 48.6476 48.5719 47.8 50.5433 48.1619C50.0623 47.9524 49.6481 47.7524 49.0623 47.6095C48.4909 47.4762 47.5528 47.3476 46.5528 47.5667C46.5528 47.5667 47.2338 46.8381 48.5052 46.6619C46.7719 45.0952 41.6481 42.6429 41.6481 42.6429C48.9242 44.3619 52.0147 47.7762 52.4766 48.3286C52.51 48.3524 52.5385 48.3762 52.5671 48.4C52.2909 47.7762 50.6814 44.0143 46.2576 41.2571C45.6433 40.8762 44.9671 40.6048 44.3433 40.2429C43.3433 39.6619 42.4242 39.019 41.5814 38.3143V38.3286C33.3576 31.7952 36.4195 22.8 36.4195 22.8C36.1528 24.8857 36.5052 26.9286 37.11 28.7476C37.4957 29.9048 37.9766 30.9667 38.4719 31.8905C39.0242 32.9286 39.5861 33.7952 40.029 34.4143C41.0528 35.6667 42.2671 36.7333 43.6766 37.5095C43.6766 37.5095 37.4671 33.281 40.9957 24.2667C40.8576 24.6524 38.4147 31.8762 47.5909 38.1714C47.7671 38.2905 47.8957 38.2857 47.9481 38.4143C49.1671 41.3524 53.8719 46.0333 54.7481 48.2857C54.71 47.8238 54.6719 47.3667 54.629 46.9048C55.1528 47.4714 55.5671 48.1714 55.7814 48.9143C55.8195 48.4619 55.8623 47.7714 55.9004 47.3143C56.6623 47.7333 57.7861 48.6048 58.7147 49.6048C58.7147 49.6048 58.7052 49.5952 58.6909 49.5762C58.6576 49.5381 58.629 49.5048 58.6004 49.4762C58.6147 49.4905 58.629 49.5048 58.6385 49.519C58.6481 49.5286 58.6528 49.5333 58.6623 49.5429C58.6766 49.5571 58.6861 49.5667 58.6909 49.5762C58.7004 49.5857 58.7052 49.5952 58.7147 49.6048L58.6719 48.9381L58.6528 48.6238C58.6528 48.6238 60.0576 50.3524 60.5338 51.6857C60.5623 51.7619 60.5861 51.8381 60.6052 51.9095C60.5957 52.2857 60.5433 52.5381 60.4814 52.7048C60.429 52.8476 60.2147 53.081 60.1671 53.1143C60.1338 53.1381 60.11 53.1476 60.11 53.1476C60.1766 53.0952 60.1909 52.9762 60.1909 52.8619C60.1909 52.7191 60.1623 52.5714 60.11 52.4048C60.0623 52.2476 60.0004 52.0952 59.9528 51.981C59.9004 51.8524 59.8576 51.7714 59.8576 51.7714C59.8861 52.081 59.8719 52.3095 59.8338 52.4714C59.8338 52.4762 59.8338 52.481 59.8338 52.4857C59.7623 52.7952 59.6195 52.8762 59.5814 52.8952C59.5766 52.8952 59.5719 52.8952 59.5719 52.8952C59.5623 52.8429 59.548 52.8 59.5385 52.7524C59.5004 52.6381 59.4576 52.5286 59.41 52.4191C59.2528 52.0238 58.6719 50.9238 58.4814 50.5381C58.3195 50.7714 58.5385 51.3191 58.5385 51.3191C58.6147 51.4619 58.7861 51.8333 58.7861 51.8333C58.6242 52.2 58.8623 52.6048 59.1861 52.7619C59.0957 52.8048 58.7957 52.7619 58.5814 52.6381C58.6623 52.7952 58.9433 53.1762 59.0861 53.2857C58.6766 53.1857 57.7433 52.4429 57.229 52.0191M59.3338 54.781L58.929 54.4524L58.6385 54.2191L58.5671 53.9952L58.548 53.9381L58.448 53.6333V53.6238C58.7719 53.8143 59.029 54.1619 59.1957 54.4429C59.229 54.5 59.41 54.8524 59.41 54.8524L59.329 54.7857L59.3338 54.781ZM60.5909 55.0191C60.4671 55.1762 60.2719 55.3143 60.0623 55.4048C59.829 55.5048 59.5814 55.5524 59.3957 55.5048C59.4004 55.5048 59.4052 55.5048 59.41 55.5C59.429 55.4905 59.448 55.481 59.4671 55.4714C59.4814 55.4667 59.4957 55.4571 59.51 55.4476C59.9814 55.1572 59.729 54.6048 59.2385 54.0476H59.229L58.11 53.0714L58.0481 53.0191L58.0338 53.0048H58.0433L58.0766 52.9905H58.0861L58.129 52.9762L58.2957 53.0714L58.8671 53.3905L58.91 53.4143L59.1623 53.5571L59.4338 53.7095C59.4338 53.7095 59.4338 53.7095 59.4385 53.7095C59.6957 53.6476 59.9861 53.5762 60.029 53.5667C60.2195 53.5143 60.329 53.4619 60.3861 53.4191C60.3909 53.4571 60.8766 54.6619 60.5909 55.0238" fill="#004990"/>
<path d="M66.515 28H66.5721C65.0054 28.1 63.4531 28.5524 62.1578 29.3762C63.2245 27.3048 65.5721 25.9 67.6531 25.0762C67.6531 25.0762 67.9102 24.6762 65.3959 25.0524C65.0673 25.0905 64.7435 25.1429 64.4245 25.2143C64.4245 25.2143 64.415 25.2143 64.4102 25.2143C63.0292 25.519 61.715 26.1333 60.6102 27.0048C59.9864 27.5 59.4245 28.0714 58.9531 28.7238C56.834 31.5429 56.1197 34.0048 56.1197 34.0048C56.1197 34.0048 55.815 30.3714 60.4578 25.5714C60.9673 24.7143 61.5435 23.9 62.1769 23.1571C62.1769 23.1571 62.2816 22.6143 59.6531 24.6095C57.7531 25.9381 56.0911 27.6857 54.8911 29.6333C54.4626 30.4048 53.5388 32.1333 53.2721 33.2762C53.2721 33.3095 53.2721 33.3429 53.2769 33.3762C53.2769 33.3762 53.3054 34.0619 53.434 34.9714C53.5864 36.0762 54.0388 37.5952 54.0388 37.5952C53.7292 36.9667 53.1816 35.581 53.0007 34.9429C52.9102 34.6286 52.8388 34.3381 52.7816 34.0524C52.7435 33.8762 52.715 33.7095 52.6864 33.5429C52.6721 33.4524 52.6578 33.3619 52.6435 33.2667C52.6197 33.1143 52.6007 32.9667 52.5816 32.8238C52.5245 32.2905 52.5007 31.7857 52.4912 31.281C52.4816 30.6143 52.5102 30.0095 52.5388 29.5714C51.3292 32.3381 51.2197 34.4714 51.215 35.3238C51.1531 35.8667 51.1245 36.2762 51.1007 36.6143C51.415 37.5048 51.9673 38.6905 52.9626 40.1952C52.9626 40.1952 52.0673 39.6952 51.015 37.8524C50.9721 38.2571 50.9007 38.719 50.7388 39.4429C51.934 41.4714 53.1292 43.0333 54.215 44.2238V41.8095C54.6007 42.1952 54.8673 42.5 55.0531 42.7333C55.2245 41.9476 55.4673 41.0048 55.8054 40C57.9102 33.7333 60.4054 31.8238 60.4054 31.8238C58.1102 35.4143 56.0007 42.6714 56.0911 46.0571C56.534 46.4381 56.934 46.7429 57.2626 46.9714C57.0864 46.7048 56.934 46.4 56.8959 46.1619C57.9197 41.319 61.1054 38.1619 61.1054 38.1619C61.8007 31.2238 69.6483 28.2857 69.6483 28.2857C70.2864 27.819 66.5054 27.9857 66.5054 27.9857" fill="#004990"/>
<path d="M33.7527 63.7667V62.6429L32.5908 61.4667V62.7857C32.748 63.0333 33.1003 63.5143 33.7527 64.1429V63.7667Z" fill="#C8C8C8"/>
<path d="M67.6954 67.9524V64.0286C67.2859 64.3429 66.9001 64.6286 66.5335 64.881V66.0381H65.9382V65.2857C63.3858 66.9714 62.1287 67.1476 62.1287 67.1476C63.8478 66.2667 65.0763 65.4095 65.9382 64.6762V63.181C62.8049 65.8714 59.9906 67.2619 58.9478 67.7238C58.9478 67.8 58.9478 68.0286 58.9478 68.3476H64.3192C65.3906 68.1714 66.5382 68.081 67.6906 68.1333" fill="#C8C8C8"/>
<path d="M62.8433 68.6619C62.0005 68.881 61.2386 69.1476 60.5957 69.4429V68.6619H62.8433Z" fill="#98989A"/>
<path d="M56.0906 71.9476C55.8811 72.0429 55.5049 72.2048 55.3525 72.2714V71.4762V69.8429H56.0906V71.9524V71.9476Z" fill="#98989A"/>
<path d="M56.0906 67.6952H55.3525V69.5476H56.0906V67.6952Z" fill="#98989A"/>
<path d="M58.6527 70.419V69.8381H57.9956V70.9524C58.2147 70.8286 58.4337 70.6952 58.6575 70.5619V70.419H58.6527Z" fill="#98989A"/>
<path d="M58.6527 67.6952H57.9956V69.5476H58.6527V67.6952Z" fill="#98989A"/>
<path d="M56.8953 71.0762V69.8429H56.3857V71.8143C56.5524 71.7333 56.7238 71.6476 56.8953 71.5619V71.0762Z" fill="#98989A"/>
<path d="M56.8953 67.6952H56.3857V69.5476H56.8953V67.6952Z" fill="#98989A"/>
<path d="M57.6956 67.6952H57.186V69.5476H57.6956V67.6952Z" fill="#98989A"/>
<path d="M57.6907 70.9429V69.8381H57.1812V71.4048C57.3478 71.3143 57.5192 71.2238 57.6907 71.1238V70.9381V70.9429Z" fill="#98989A"/>
<path d="M58.6525 66.1238H55.3525V67.4H58.6525V66.1238Z" fill="#98989A"/>
<path d="M42.2145 70.6238C41.9764 70.5048 41.7336 70.3905 41.4907 70.2714V70.1286V69.8429H42.2145V70.6238Z" fill="#98989A"/>
<path d="M42.2288 67.6952H41.4907V69.5476H42.2288V67.6952Z" fill="#98989A"/>
<path d="M44.1099 71.5381C44.3337 71.6429 44.5575 71.7476 44.7813 71.8429V70.4048L44.7861 69.8381H44.1099V71.5381Z" fill="#98989A"/>
<path d="M44.7908 67.6952H44.1289V69.5476H44.7908V67.6952Z" fill="#98989A"/>
<path d="M43.0145 67.6952H42.5098V69.5476H43.0145V67.6952Z" fill="#98989A"/>
<path d="M43.8193 67.6952H43.3193V69.5476H43.8193V67.6952Z" fill="#98989A"/>
<path d="M44.7907 66.1238H41.4907V67.4H44.7907V66.1238Z" fill="#98989A"/>
<path d="M43.3143 71.1571C43.4667 71.2333 43.662 71.3333 43.8191 71.4143V71.0429V69.8429H43.3096V71.1571H43.3143Z" fill="#98989A"/>
<path d="M40.6908 69.8905C40.8622 69.9667 41.0289 70.0476 41.1956 70.1286V68.6571H40.686V69.8905H40.6908Z" fill="#98989A"/>
<path d="M42.5098 70.7667C42.5383 70.781 42.5669 70.7952 42.5955 70.8095C42.7383 70.881 42.8764 70.9476 43.0193 71.0143V69.8429H42.5145V70.7667H42.5098Z" fill="#98989A"/>
<path d="M32.5908 66.5667V64.0286C33.0003 64.3429 33.3861 64.6286 33.7527 64.881V66.0381H34.348V65.2857C36.9003 66.9714 38.1575 67.1476 38.1575 67.1476C36.4384 66.2667 35.2099 65.4095 34.348 64.6762V63.181C37.348 65.7619 40.0575 67.1429 41.1956 67.6571V68.3429C41.1956 68.3429 36.6289 68.3667 36.5146 68.3429C35.1813 68.0571 33.8384 68.0381 32.5908 68.1619" fill="#C8C8C8"/>
<path d="M39.5909 69.419C38.9528 69.1524 38.0909 68.8095 37.6147 68.6476H39.5909V69.419Z" fill="#98989A"/>
<path d="M39.8857 69.3762V68.6619H40.3953V69.7572C40.3429 69.7333 40.1524 69.6524 39.8857 69.5429V69.3762Z" fill="#98989A"/>
<path d="M59.5049 69.8429V68.6619H58.9478V70.3857C59.1335 70.2714 59.3192 70.1571 59.5049 70.0381V69.8429Z" fill="#98989A"/>
<path d="M60.3049 69.4381V68.6571H59.7954V69.8476C59.9573 69.7571 60.124 69.6667 60.3049 69.5762V69.4381Z" fill="#98989A"/>
<path d="M55.0671 67.4048V66.5C55.0671 63.7429 52.8338 61.5048 50.0719 61.5048C47.31 61.5048 45.0767 63.7381 45.0767 66.5V67.4048H45.929C45.8767 67.1333 45.8481 66.8571 45.8481 66.5714C45.8481 64.2524 47.7243 62.3762 50.0433 62.3762C52.3624 62.3762 54.2386 64.2524 54.2386 66.5714C54.2386 66.8571 54.21 67.1381 54.1576 67.4048H55.0671Z" fill="#98989A"/>
<path d="M67.6956 62.7905C67.5385 63.0381 67.1861 63.5191 66.5337 64.1476V62.6524L67.6956 61.4762V62.7952V62.7905Z" fill="#C8C8C8"/>
<path d="M49.2336 71.3714C49.1002 71.3714 49.0098 71.4571 49.0098 71.6143C49.0098 71.7714 49.0812 71.8429 49.2336 71.8429C49.3288 71.8429 49.4098 71.8143 49.4907 71.7524V71.7429C49.4907 71.5048 49.386 71.3762 49.2336 71.3762V71.3714Z" fill="#98989A"/>
<path d="M50.4955 71.3762C50.3241 71.3762 50.2241 71.5429 50.2241 71.8476C50.2241 72.1524 50.3194 72.319 50.4955 72.319C50.6717 72.319 50.7622 72.1524 50.7622 71.8476C50.7622 71.5429 50.667 71.3762 50.4955 71.3762Z" fill="#98989A"/>
<path d="M54.0862 67.7048C53.5909 69.4714 51.9719 70.7667 50.0433 70.7667C48.1148 70.7667 46.4957 69.4714 46.0005 67.7H45.0767V71.1429V71.9762C46.8052 72.7286 48.5433 73.281 50.429 73.281H50.4671C52.11 73.2762 53.5909 72.9571 55.0576 72.3905L55.0671 67.6905L54.0862 67.7V67.7048Z" fill="#98989A"/>
<path d="M31.4575 60.9238C31.6337 60.9571 31.8004 61 31.9575 61.0476V63.2905C31.8004 63.2429 31.6337 63.2 31.4575 63.1667V60.9238Z" fill="#98989A"/>
<path d="M31.167 63.1238C31.0051 63.1048 30.8384 63.0905 30.667 63.0857V60.8429C30.7479 60.8429 30.8289 60.8476 30.9099 60.8571C30.9956 60.8619 31.0813 60.8714 31.167 60.881V63.1238Z" fill="#98989A"/>
<path d="M29.8716 63.1238C30.0335 63.1048 30.2002 63.0905 30.3716 63.0857V60.8429C30.2002 60.8476 30.0335 60.8619 29.8716 60.881V63.1238Z" fill="#98989A"/>
<path d="M29.0859 63.2905C29.2431 63.2429 29.4097 63.2 29.5859 63.1667V60.9238C29.4145 60.9571 29.2431 61 29.0859 61.0476V63.2905Z" fill="#98989A"/>
<path d="M28.6338 59.1048C28.7433 59.0571 28.8576 59.0095 28.9719 58.9667V59.2381L28.6338 59.1048Z" fill="#98989A"/>
<path d="M30.3765 59.8905C30.205 59.8905 30.0384 59.9095 29.8765 59.9286V58.7619C30.0384 58.7429 30.205 58.7286 30.3765 58.7238V59.8905Z" fill="#98989A"/>
<path d="M31.167 58.7619C31.0051 58.7429 30.8384 58.7286 30.667 58.7238V59.8905C30.8384 59.8905 31.0051 59.9095 31.167 59.9286V58.7619Z" fill="#98989A"/>
<path d="M31.4575 58.8095C31.6337 58.8429 31.8004 58.8857 31.9575 58.9333V60.1C31.8004 60.0524 31.6337 60.0095 31.4575 59.9762V58.8095Z" fill="#98989A"/>
<path d="M29.5811 59.9762C29.4096 60.0095 29.2382 60.0524 29.0811 60.1V58.9333C29.2382 58.8857 29.4049 58.8429 29.5811 58.8095V59.9762Z" fill="#98989A"/>
<path d="M32.0669 58.9667C32.1859 59.0095 32.305 59.0524 32.4098 59.1048L32.0669 59.2381V58.9667Z" fill="#98989A"/>
<path d="M28.6338 61.2238C28.7433 61.1762 28.8576 61.1286 28.9719 61.0857V61.3571L28.6338 61.2238Z" fill="#98989A"/>
<path d="M32.0669 61.0857C32.1859 61.1286 32.305 61.1714 32.4098 61.2238L32.0669 61.3571V61.0857Z" fill="#98989A"/>
<path d="M32.4147 58.3476C31.8957 58.1095 31.2385 57.9619 30.5243 57.9619C29.81 57.9619 29.1528 58.1048 28.6338 58.3429V58.8286C29.1528 58.5905 29.81 58.4476 30.5243 58.4476C31.2385 58.4476 31.8957 58.5905 32.4195 58.8333V58.3476H32.4147Z" fill="#98989A"/>
<path d="M32.4147 60.4857C31.8957 60.2476 31.2385 60.1 30.5243 60.1C29.81 60.1 29.1528 60.2429 28.6338 60.481V60.9667C29.1528 60.7286 29.81 60.5857 30.5243 60.5857C31.2385 60.5857 31.8957 60.7286 32.4195 60.9714V60.4857H32.4147Z" fill="#98989A"/>
<path d="M32.4147 58.1333C31.8957 57.8952 31.2385 57.7476 30.5243 57.7476C29.81 57.7476 29.1528 57.8905 28.6338 58.1286L30.1338 56.7C30.2624 56.6905 30.3909 56.6857 30.5243 56.6857C30.6576 56.6857 30.7862 56.6905 30.9147 56.7L32.4195 58.1333H32.4147Z" fill="#98989A"/>
<path d="M30.1338 56.3048V56.5381C30.2624 56.5286 30.3909 56.5238 30.5243 56.5238C30.6576 56.5238 30.7862 56.5286 30.9147 56.5381V56.3048C30.9147 56.2143 30.7195 56.2143 30.6719 56.2095C30.6243 56.2095 30.5766 56.2095 30.529 56.2095C30.4814 56.2095 30.429 56.2095 30.3814 56.2095C30.329 56.2095 30.1386 56.2095 30.1386 56.3048H30.1338Z" fill="#98989A"/>
<path d="M31.9575 65.7238C31.8004 65.6762 31.6337 65.6333 31.4575 65.6V63.419C31.6337 63.4524 31.8004 63.4952 31.9575 63.5429V65.7238Z" fill="#98989A"/>
<path d="M31.167 65.5524C31.0051 65.5333 30.8384 65.519 30.667 65.5143V63.3333C30.8384 63.3333 31.0051 63.3524 31.167 63.3714V65.5524Z" fill="#98989A"/>
<path d="M30.3765 65.5143C30.205 65.5143 30.0384 65.5333 29.8765 65.5524V63.3714C30.0384 63.3524 30.205 63.3381 30.3765 63.3333V65.5143Z" fill="#98989A"/>
<path d="M29.5811 65.6C29.4096 65.6333 29.2382 65.6762 29.0811 65.7238V63.5429C29.2382 63.4952 29.4049 63.4524 29.5811 63.419V65.6Z" fill="#98989A"/>
<path d="M70.7051 60.9238C70.8813 60.9571 71.0479 61 71.2051 61.0476V63.2905C71.0479 63.2429 70.8813 63.2 70.7051 63.1667V60.9238Z" fill="#98989A"/>
<path d="M70.4145 63.1238C70.2526 63.1048 70.086 63.0905 69.9146 63.0857V60.8429C69.9955 60.8429 70.0765 60.8476 70.1574 60.8571C70.2431 60.8619 70.3288 60.8714 70.4145 60.881V63.1238Z" fill="#98989A"/>
<path d="M69.124 63.1238C69.2859 63.1048 69.4526 63.0905 69.624 63.0857V60.8429C69.4526 60.8476 69.2859 60.8619 69.124 60.881V63.1238Z" fill="#98989A"/>
<path d="M68.3335 63.2905C68.4906 63.2429 68.6573 63.2 68.8335 63.1667V60.9238C68.6621 60.9571 68.4906 61 68.3335 61.0476V63.2905Z" fill="#98989A"/>
<path d="M67.8813 59.1048C67.9909 59.0571 68.1004 59.0095 68.2194 58.9667V59.2381L67.8813 59.1048Z" fill="#98989A"/>
<path d="M69.624 59.8905C69.4526 59.8905 69.2859 59.9095 69.124 59.9286V58.7619C69.2859 58.7429 69.4526 58.7286 69.624 58.7238V59.8905Z" fill="#98989A"/>
<path d="M70.4145 58.7619C70.2526 58.7429 70.086 58.7286 69.9146 58.7238V59.8905C70.086 59.8905 70.2526 59.9095 70.4145 59.9286V58.7619Z" fill="#98989A"/>
<path d="M70.7051 58.8095C70.8813 58.8429 71.0479 58.8857 71.2051 58.9333V60.1C71.0479 60.0524 70.8813 60.0095 70.7051 59.9762V58.8095Z" fill="#98989A"/>
<path d="M68.8335 59.9762C68.6621 60.0095 68.4906 60.0524 68.3335 60.1V58.9333C68.4906 58.8857 68.6573 58.8429 68.8335 58.8095V59.9762Z" fill="#98989A"/>
<path d="M71.3193 58.9667C71.4384 59.0095 71.5574 59.0524 71.6622 59.1048L71.3193 59.2381V58.9667Z" fill="#98989A"/>
<path d="M67.8813 61.2238C67.9909 61.1762 68.1004 61.1286 68.2194 61.0857V61.3571L67.8813 61.2238Z" fill="#98989A"/>
<path d="M71.3193 61.0857C71.4384 61.1286 71.5574 61.1714 71.6622 61.2238L71.3193 61.3571V61.0857Z" fill="#98989A"/>
<path d="M71.6622 58.3476C71.1431 58.1095 70.486 57.9619 69.7669 57.9619C69.0479 57.9619 68.3955 58.1048 67.8765 58.3429V58.8286C68.3955 58.5905 69.0527 58.4476 69.7669 58.4476C70.4812 58.4476 71.1384 58.5905 71.6622 58.8333V58.3476Z" fill="#98989A"/>
<path d="M71.6622 60.4857C71.1431 60.2476 70.486 60.1 69.7669 60.1C69.0479 60.1 68.3955 60.2429 67.8765 60.481V60.9667C68.3955 60.7286 69.0527 60.5857 69.7669 60.5857C70.4812 60.5857 71.1384 60.7286 71.6622 60.9714V60.4857Z" fill="#98989A"/>
<path d="M71.6622 58.1333C71.1431 57.8952 70.486 57.7476 69.7669 57.7476C69.0479 57.7476 68.3955 57.8905 67.8765 58.1286L69.3765 56.7C69.505 56.6905 69.6336 56.6857 69.7669 56.6857C69.9003 56.6857 70.0288 56.6905 70.1574 56.7L71.6622 58.1333Z" fill="#98989A"/>
<path d="M69.3813 56.3048V56.5381C69.5099 56.5286 69.6385 56.5238 69.7718 56.5238C69.9052 56.5238 70.0337 56.5286 70.1623 56.5381V56.3048C70.1623 56.2143 69.9671 56.2143 69.9194 56.2095C69.8718 56.2095 69.8242 56.2095 69.7766 56.2095C69.729 56.2095 69.6813 56.2095 69.629 56.2095C69.5766 56.2095 69.3861 56.2095 69.3861 56.3048H69.3813Z" fill="#98989A"/>
<path d="M71.2051 65.7238C71.0479 65.6762 70.8813 65.6333 70.7051 65.6V63.419C70.8813 63.4524 71.0479 63.4952 71.2051 63.5429V65.7238Z" fill="#98989A"/>
<path d="M70.4145 65.5524C70.2526 65.5333 70.086 65.519 69.9146 65.5143V63.3333C70.086 63.3333 70.2526 63.3524 70.4145 63.3714V65.5524Z" fill="#98989A"/>
<path d="M69.624 65.5143C69.4526 65.5143 69.2859 65.5333 69.124 65.5524V63.3714C69.2859 63.3524 69.4526 63.3381 69.624 63.3333V65.5143Z" fill="#98989A"/>
<path d="M68.8335 65.6C68.6621 65.6333 68.4906 65.6762 68.3335 65.7238V63.5429C68.4906 63.4952 68.6573 63.4524 68.8335 63.419V65.6Z" fill="#98989A"/>
<path d="M71.205 68.7857C71.0383 68.7286 70.8717 68.6714 70.7002 68.6191C70.7002 68.4857 70.7002 67.5429 70.7002 67.5429V65.8619C70.7002 65.8619 71.0431 65.9381 71.2002 65.9857V68.781L71.205 68.7857ZM70.4145 68.5429C70.2478 68.5 70.0812 68.4571 69.9097 68.419C69.9097 68.2905 69.9097 67.6286 69.9097 67.6286V65.781C69.9097 65.781 70.2478 65.8 70.4097 65.819V68.5429H70.4145ZM69.6288 67.6333V65.7857C69.4526 65.7857 69.124 65.8238 69.124 65.8238V67.6333C69.124 67.6333 69.1193 68.1095 69.1193 68.2762C69.2907 68.3 69.4621 68.3286 69.6336 68.3619M68.8336 67.7286V65.8667C68.6621 65.9 68.3336 65.9905 68.3336 65.9905V67.9238C68.3336 67.9238 68.3336 67.9619 68.3336 68.1857C68.5002 68.2 68.6621 68.219 68.8288 68.2381M31.9526 67.4286V65.9905C31.7955 65.9429 31.4526 65.8667 31.4526 65.8667V68.2952C31.4526 68.2952 31.7812 68.2429 31.9478 68.219V67.4333L31.9526 67.4286ZM31.1669 65.819C31.005 65.8 30.6669 65.781 30.6669 65.781V67.5C30.6669 67.5 30.6669 68.3048 30.6669 68.4429C30.8288 68.4095 30.9955 68.3714 31.1669 68.3429V65.819ZM30.3812 68.5095C30.205 68.5524 30.0383 68.5905 29.8717 68.6381C29.8717 68.519 29.8717 67.5048 29.8717 67.5048V65.8238C29.8717 65.8238 30.2002 65.7905 30.3717 65.7857V67.5048V68.5143L30.3812 68.5095ZM29.5812 68.7143C29.4097 68.7619 29.2431 68.8095 29.0859 68.8619C29.0859 68.5714 29.0859 67.7667 29.0859 67.7667V65.9905C29.0859 65.9905 29.4097 65.9 29.5859 65.8667V68.719L29.5812 68.7143Z" fill="#98989A"/>
<path d="M48.4288 68.0048C49.105 68.3762 49.7526 68.5476 50.1764 68.6238C50.1859 68.6238 50.1907 68.6238 50.2002 68.6238C50.2288 68.6238 50.2573 68.6143 50.2811 68.5952C50.3097 68.5714 50.3288 68.5333 50.3335 68.4952C50.3621 67.7762 50.205 67.1381 50.1335 66.8952C50.124 66.8571 50.0954 66.8286 50.0621 66.8143C49.2002 66.4 48.505 65.9429 47.9954 65.4571C47.6192 65.1048 47.3478 64.7429 47.1907 64.381C47.1716 64.3381 47.1288 64.3095 47.0811 64.3048C47.0335 64.3 46.9859 64.3191 46.9573 64.3619C46.6716 64.7714 46.4669 65.2429 46.3573 65.7286C46.3526 65.7571 46.3573 65.7857 46.3669 65.8143C46.7907 66.7524 47.4859 67.4905 48.4335 68.0048" fill="#DB2B27"/>
<path d="M48.1717 65.2476C48.1955 65.2714 48.2289 65.2857 48.2622 65.2857H48.2717C48.3098 65.2857 48.3432 65.2619 48.367 65.2333C49.3717 63.881 50.4717 63.3762 51.2146 63.1905C51.2717 63.1762 51.3146 63.1238 51.3146 63.0667C51.3146 63.0048 51.2813 62.9524 51.2241 62.9333C50.8479 62.8095 50.4527 62.7476 50.0479 62.7476C49.5384 62.7476 49.0384 62.8476 48.567 63.0524C48.1146 63.2429 47.7098 63.519 47.367 63.8619C47.3336 63.8952 47.3194 63.9429 47.3336 63.9857C47.386 64.2095 47.567 64.6762 48.167 65.2476" fill="#DB2B27"/>
<path d="M48.5667 65.4238C48.5238 65.481 48.5333 65.5619 48.5905 65.6095C49.0048 65.9333 49.5095 66.2429 50.0952 66.5333C50.1143 66.5429 50.1333 66.5476 50.1524 66.5476C50.1905 66.5476 50.2286 66.5333 50.2524 66.5C50.6 66.0952 51.5952 65.1238 53.2571 64.8714C53.3 64.8667 53.3381 64.8381 53.3572 64.8C53.3762 64.7619 53.3762 64.7143 53.3572 64.6762C53.0667 64.1619 52.6476 63.7143 52.1571 63.3857C52.1381 63.3714 52.1095 63.3619 52.0857 63.3619C51.9381 63.3619 51.3714 63.3667 50.6571 63.681C49.8667 64.0286 49.1667 64.6143 48.5714 65.4286" fill="#DB2B27"/>
<path d="M53.6004 65.1952C53.5765 65.1381 53.5194 65.1048 53.4575 65.1095C53.1623 65.1476 52.8718 65.2095 52.5956 65.2952C52.5623 65.3048 52.5337 65.3286 52.5194 65.3619C52.5051 65.3952 52.5004 65.4286 52.5099 65.4667C52.6099 65.7667 52.7765 66.3809 52.8051 67.1048C52.8242 67.5619 52.7861 68 52.6861 68.4048C52.6242 68.6714 52.5289 68.9286 52.4146 69.1714C52.3861 69.2286 52.4051 69.3 52.4575 69.3381C52.4813 69.3571 52.5099 69.3619 52.5384 69.3619C52.5718 69.3619 52.6051 69.3524 52.6289 69.3286C53.0432 68.9476 53.3575 68.4905 53.567 67.9667C53.9242 67.0809 53.9337 66.0952 53.5956 65.2" fill="#DB2B27"/>
<path d="M50.2528 68.9524C50.2338 68.9238 50.2005 68.9048 50.1671 68.8952C49.7528 68.819 49.1147 68.6571 48.4386 68.3095C47.6338 67.8952 46.9862 67.3286 46.5147 66.6286C46.4814 66.5809 46.4195 66.5571 46.3624 66.5762C46.3052 66.5952 46.2671 66.6476 46.2719 66.7095C46.2909 67.1619 46.3909 67.6048 46.5671 68.0286C46.8338 68.6524 47.2624 69.1952 47.8052 69.5952C48.329 69.9809 48.9433 70.2238 49.5909 70.3048C49.5957 70.3048 49.6005 70.3048 49.61 70.3048C49.6481 70.3048 49.6862 70.2905 49.71 70.2571C49.9909 69.9333 50.1814 69.5238 50.2766 69.0524C50.2814 69.019 50.2766 68.981 50.2576 68.9524" fill="#DB2B27"/>
<path d="M52.2621 65.5714C52.2525 65.5333 52.224 65.5048 52.1906 65.4905C52.1573 65.4762 52.1144 65.4762 52.0811 65.4905C51.1763 65.8952 50.6192 66.481 50.424 66.7143C50.3954 66.7476 50.3859 66.7952 50.4002 66.8381C50.4763 67.0905 50.6002 67.6 50.6144 68.2095C50.624 68.5905 50.5859 68.9524 50.5049 69.2762C50.424 69.5857 50.3049 69.8714 50.143 70.1238C50.1144 70.1667 50.1144 70.219 50.143 70.2619C50.1668 70.3 50.2097 70.3286 50.2573 70.3286H50.2668C50.6478 70.3048 51.0287 70.2238 51.3954 70.0857C51.4097 70.0809 51.4287 70.0714 51.4382 70.0571C51.8287 69.6905 52.124 69.2476 52.3097 68.7476C52.4668 68.3286 52.5478 67.8619 52.5478 67.3571C52.5525 66.5809 52.3716 65.9 52.2668 65.5667" fill="#DB2B27"/>
<path d="M48.5478 72.5571V71.4286L48.2669 71.5381L48.2383 71.3333L48.5811 71.1762H48.8097V72.5619H48.5478V72.5571Z" fill="white"/>
<path d="M49.1096 71.5143C49.1096 71.2952 49.3001 71.1476 49.5763 71.1476C49.8525 71.1476 50.0334 71.2952 50.0334 71.4952C50.0334 71.6381 49.943 71.7476 49.8096 71.8286C49.9811 71.9143 50.0811 72.0095 50.0811 72.1905C50.0811 72.4143 49.8858 72.581 49.5715 72.581C49.2382 72.581 49.062 72.4048 49.062 72.1952C49.062 72.0381 49.1668 71.9143 49.3287 71.8286C49.1953 71.7571 49.1096 71.6619 49.1096 71.5095V71.5143ZM49.3096 72.181C49.3096 72.3095 49.4239 72.3905 49.5715 72.3905C49.7192 72.3905 49.8239 72.3143 49.8239 72.1905C49.8239 72.0619 49.743 72.0143 49.5096 71.9143C49.3906 71.981 49.3096 72.0714 49.3096 72.181ZM49.7906 71.5095C49.7906 71.4048 49.7096 71.3381 49.5715 71.3381C49.4334 71.3381 49.3573 71.4143 49.3573 71.5095C49.3573 71.6143 49.4287 71.6667 49.6287 71.7476C49.7334 71.6857 49.7953 71.6048 49.7953 71.5095H49.7906Z" fill="white"/>
<path d="M50.8476 71.6952C51.0857 71.6952 51.2571 71.8476 51.2571 72.1143C51.2571 72.381 51.0476 72.581 50.7618 72.581C50.4618 72.581 50.2476 72.3762 50.2476 71.9952C50.2476 71.5095 50.5714 71.2429 51.019 71.1429L51.0523 71.3619C50.7809 71.4238 50.5666 71.5524 50.5047 71.7952C50.6047 71.7286 50.7142 71.6905 50.8476 71.6905V71.6952ZM50.7666 72.381C50.9095 72.381 51.0095 72.2857 51.0095 72.1333C51.0095 71.9809 50.9333 71.9 50.7666 71.9C50.6666 71.9 50.5761 71.9381 50.4904 72C50.4904 72.2429 50.6047 72.381 50.7666 72.381Z" fill="white"/>
<path d="M51.643 72.5571V71.4286L51.3621 71.5381L51.3335 71.3333L51.6764 71.1762H51.9097V72.5619H51.6478L51.643 72.5571Z" fill="white"/>
<path d="M30.7095 11.3381L31.1143 12.0714L28.9 13.2952L29.2476 13.9286L31.2143 12.8429L31.6143 13.5714L29.6476 14.6572L30.1333 15.5333L29.2714 16.0095L27.6333 13.0429L30.7095 11.3429V11.3381Z" fill="white"/>
<path d="M36.3001 12.6238L35.762 12.1524L33.8286 12.9381L33.7715 13.6524L32.7905 14.0524L33.1334 10.2571L34.3905 9.74762L37.281 12.2286L36.3048 12.6238H36.3001ZM33.8953 12.1143L35.1334 11.6095L34.0143 10.6333L33.8953 12.1095V12.1143Z" fill="white"/>
<path d="M41.3476 10.1762L40.7619 7.81906L41.7095 7.58572L42.5238 10.8762L41.1286 11.2238L38.6048 9.34763L39.1905 11.7048L38.2381 11.9429L37.4238 8.65239L38.8238 8.30477L41.3476 10.181V10.1762Z" fill="white"/>
<path d="M46.1191 6.96191L50.2001 6.79524L50.2334 7.62858L48.6858 7.69048L48.7906 10.2429L47.8096 10.281L47.7049 7.72858L46.1525 7.79048L46.1191 6.95715V6.96191Z" fill="white"/>
<path d="M51.3903 8.49525C51.4855 7.3762 52.3141 6.78096 53.7379 6.90477C55.1569 7.02858 55.876 7.75715 55.7807 8.87144C55.6855 9.99049 54.8522 10.5905 53.4331 10.4714C52.0093 10.3476 51.295 9.61906 51.3903 8.49525ZM54.7569 8.78572C54.8093 8.20001 54.5045 7.80953 53.6664 7.73811C52.8331 7.66668 52.4665 7.99049 52.4188 8.58572C52.3665 9.18096 52.676 9.57144 53.5045 9.64287C54.3379 9.7143 54.7093 9.38096 54.7617 8.79049L54.7569 8.78572Z" fill="white"/>
<path d="M61.6189 8.36667L59.6236 9.38095L60.8712 11.6762L59.6665 11.4048L58.7998 9.80476L57.8522 10.2857L57.6998 10.9571L56.7427 10.7429L57.4903 7.43333L58.4522 7.65238L58.1189 9.1381L60.1855 8.04762L61.6236 8.37143L61.6189 8.36667Z" fill="white"/>
<path d="M66.3286 9.99524L66.0667 10.7191L63.6858 9.85715L63.5 10.3667L65.7905 11.1952L65.5286 11.9191L63.2381 11.0905L63.0524 11.6L65.4334 12.4619L65.1715 13.1857L61.8667 11.9905L63.0191 8.8L66.3238 9.99524H66.3286Z" fill="white"/>
<path d="M69.7621 14.3524L70.8764 12.1905L71.7478 12.6381L70.1907 15.6524L68.9097 14.9905L68.2478 11.9095L67.1335 14.0714L66.2573 13.6191L67.8145 10.6048L69.1002 11.2667L69.7621 14.3476V14.3524Z" fill="white"/>
<path d="M27.395 85.4762C27.2474 85.719 27.395 86.0238 28.1569 86.4857C28.8569 86.9048 29.095 86.9 29.2045 86.719C29.3331 86.5095 29.2236 86.3905 28.395 85.8143C27.2665 85.0238 26.8903 84.4762 27.276 83.8333C27.6426 83.2286 28.4617 83.3476 29.4665 83.9524C30.5855 84.6238 31.0236 85.3524 30.6617 86.0143L29.7807 85.4857C29.9331 85.2286 29.7141 84.9619 29.0617 84.5714C28.4426 84.2 28.2426 84.219 28.1474 84.3762C28.0379 84.5571 28.1474 84.6952 28.895 85.2333C29.9141 85.9571 30.5617 86.4476 30.1045 87.2095C29.6569 87.9524 28.8379 87.7571 27.8045 87.1333C26.6284 86.4238 26.0903 85.7381 26.5093 84.9476L27.3903 85.4809L27.395 85.4762Z" fill="white"/>
<path d="M31.5236 87.1905C31.9712 86.1571 32.9426 85.8619 34.2569 86.4286C35.5664 86.9952 36.014 87.9143 35.5712 88.9429C35.1236 89.9762 34.1426 90.281 32.8331 89.7143C31.5188 89.1476 31.0759 88.2286 31.5236 87.1905ZM34.6283 88.5381C34.8616 87.9952 34.695 87.5333 33.9236 87.1952C33.1569 86.8619 32.7045 87.0571 32.4712 87.6C32.2331 88.1476 32.4045 88.6143 33.1664 88.9476C33.9331 89.281 34.395 89.081 34.6283 88.5333V88.5381Z" fill="white"/>
<path d="M39.295 88.2143C40.495 88.5524 41.0331 89.2571 40.895 90.1238L39.8902 89.8429C39.9093 89.5238 39.6759 89.1857 39.0712 89.0191C38.3712 88.8238 37.9378 89.0714 37.7759 89.6429C37.614 90.2191 37.8616 90.6619 38.5569 90.8571C39.1616 91.0238 39.5378 90.8571 39.6854 90.5667L40.6902 90.8476C40.3569 91.6667 39.5331 91.9952 38.3283 91.6619C37.0188 91.2952 36.4712 90.4857 36.7807 89.3667C37.095 88.2524 37.9807 87.8476 39.2902 88.2143H39.295Z" fill="white"/>
<path d="M43.3948 89.2286L42.7948 92.5619L41.8281 92.3857L42.4281 89.0524L43.3948 89.2286Z" fill="white"/>
<path d="M44.4189 91.1476C44.5094 90.0286 45.3332 89.4333 46.757 89.5476C48.176 89.6619 48.8999 90.3905 48.8046 91.5048C48.7141 92.6238 47.8856 93.2286 46.4618 93.1143C45.0379 93 44.3189 92.2714 44.4141 91.1476H44.4189ZM47.7856 91.4238C47.8332 90.8381 47.5284 90.4524 46.6903 90.381C45.857 90.3143 45.4951 90.6429 45.4427 91.2333C45.3951 91.8286 45.7046 92.2143 46.5332 92.2857C47.3665 92.3524 47.7379 92.019 47.7856 91.4238Z" fill="white"/>
<path d="M51.1188 92.0476C51.1331 92.3333 51.4235 92.5048 52.314 92.4571C53.1283 92.4143 53.3235 92.2762 53.3093 92.0619C53.295 91.8143 53.1426 91.781 52.1331 91.7667C50.7569 91.7429 50.1331 91.5 50.095 90.7476C50.0569 90.0429 50.8045 89.681 51.9759 89.6238C53.2807 89.5571 54.0521 89.9095 54.1188 90.6619L53.095 90.7143C53.0807 90.4143 52.7474 90.3191 51.9854 90.3571C51.2664 90.3952 51.1093 90.5238 51.1188 90.7048C51.1283 90.9143 51.295 90.9714 52.2188 91C53.4664 91.0286 54.2807 91.0714 54.3283 91.9619C54.3712 92.8286 53.5854 93.1238 52.3807 93.1857C51.0093 93.2571 50.1759 92.9857 50.0854 92.0952L51.114 92.0429L51.1188 92.0476Z" fill="white"/>
<path d="M55.7426 92.0429L56.6806 91.9048L56.7854 92.6333L55.8473 92.7714L55.7378 92.0429H55.7426Z" fill="white"/>
<path d="M59.4808 88.5381C60.6951 88.2429 61.5094 88.5952 61.8141 89.419L60.7999 89.6667C60.6618 89.3762 60.2903 89.2 59.6808 89.3476C58.9761 89.5191 58.7189 89.9476 58.857 90.5286C58.9999 91.1095 59.4332 91.3762 60.1332 91.2048C60.7427 91.0571 60.9903 90.7238 60.9761 90.3952L61.9903 90.1476C62.0999 91.0238 61.5427 91.719 60.3284 92.0143C59.0046 92.3381 58.1284 91.9 57.8522 90.7714C57.576 89.6476 58.1522 88.8619 59.4761 88.5381H59.4808Z" fill="white"/>
<path d="M63.1522 89.3952C62.7379 88.3476 63.2189 87.4524 64.5474 86.9238C65.8712 86.4 66.8427 86.7333 67.2522 87.7762C67.6665 88.8238 67.1855 89.7333 65.8617 90.2571C64.5331 90.7809 63.5665 90.4476 63.1522 89.3952ZM66.2998 88.1524C66.0855 87.6048 65.6379 87.3905 64.857 87.7C64.0808 88.0048 63.8951 88.4619 64.1141 89.0143C64.3331 89.5714 64.7855 89.7809 65.557 89.4762C66.3331 89.1714 66.5189 88.7048 66.2998 88.1524Z" fill="white"/>
<path d="M69.3332 88.6952L67.6284 85.7619L68.9522 84.9905L71.1046 86.3429L70.9903 83.8048L72.3141 83.0333L74.0189 85.9667L73.1713 86.4571L71.9379 84.3333L72.0713 87.1L71.2856 87.5571L68.9475 86.0762L70.1856 88.2L69.3332 88.6952Z" fill="white"/>
<path d="M23.019 81.8381C13.9952 74.181 8.2666 62.7571 8.2666 50C8.2666 37.2429 14.2999 25.2143 23.738 17.5619" stroke="#DB2B27" stroke-miterlimit="10"/>
<path d="M76.2666 17.5667C85.7047 25.219 91.7333 36.9048 91.7333 50C91.7333 63.0952 86.0047 74.1857 76.9809 81.8429" stroke="#DB2B27" stroke-miterlimit="10"/>
</g>
<defs>
<clipPath id="clip0_1124_18052">
<rect width="100" height="100" fill="white"/>
</clipPath>
</defs>
</svg>
