<svg width="100" height="100" viewBox="0 0 100 100" fill="none" xmlns="http://www.w3.org/2000/svg">
<g clip-path="url(#clip0_1124_16585)">
<path d="M50 100C77.6142 100 100 77.6142 100 50C100 22.3858 77.6142 0 50 0C22.3858 0 0 22.3858 0 50C0 77.6142 22.3858 100 50 100Z" fill="#005596"/>
<path d="M49.9999 98.7143C76.9041 98.7143 98.7142 76.9042 98.7142 50C98.7142 23.0959 76.9041 1.28572 49.9999 1.28572C23.0958 1.28572 1.28564 23.0959 1.28564 50C1.28564 76.9042 23.0958 98.7143 49.9999 98.7143Z" fill="#005596"/>
<path d="M50 2.52381C76.1905 2.52381 97.4762 23.8095 97.4762 50C97.4762 76.1905 76.1905 97.4762 50 97.4762C23.8095 97.4762 2.52381 76.1905 2.52381 50C2.52381 23.8095 23.8095 2.52381 50 2.52381ZM50 0C22.381 0 0 22.381 0 50C0 77.619 22.381 100 50 100C77.619 100 100 77.619 100 50C100 22.381 77.619 0 50 0Z" fill="#005596"/>
<path d="M50 100C77.6142 100 100 77.6142 100 50C100 22.3858 77.6142 0 50 0C22.3858 0 0 22.3858 0 50C0 77.6142 22.3858 100 50 100Z" fill="#00352F"/>
<path d="M50 2.52381C76.1905 2.52381 97.4762 23.8095 97.4762 50C97.4762 76.1905 76.1905 97.4762 50 97.4762C23.8095 97.4762 2.52381 76.1905 2.52381 50C2.52381 23.8095 23.8095 2.52381 50 2.52381ZM50 0C22.381 0 0 22.381 0 50C0 77.619 22.381 100 50 100C77.619 100 100 77.619 100 50C100 22.381 77.619 0 50 0Z" fill="#001613"/>
<path d="M30.7144 11.3333L31.0953 12.0476L28.8572 13.2857L29.1906 13.9048L31.143 12.8095L31.5239 13.5238L29.5715 14.619L30.0477 15.4762L29.1906 15.9524L27.6191 13.0476L30.7144 11.3333Z" fill="white"/>
<path d="M36.2858 12.619L35.762 12.1429L33.8096 12.9524L33.762 13.6667L32.762 14.0476L33.0953 10.2381L34.3334 9.71428L37.2382 12.1905L36.2858 12.619ZM33.9048 12.0952L35.1429 11.5714L34.0477 10.619C34.0001 10.619 33.9048 12.0952 33.9048 12.0952Z" fill="white"/>
<path d="M41.3335 10.1905L40.762 7.85714L41.7144 7.61905L42.524 10.9048L41.143 11.2381L38.6192 9.38095L39.1906 11.7619L38.2382 12L37.4287 8.71429L38.8097 8.38095L41.3335 10.1905Z" fill="white"/>
<path d="M46.0952 6.95238L50.1905 6.7619L50.2381 7.61904L48.7143 7.66666L48.8095 10.2381L47.8095 10.2857L47.7143 7.71428L46.1428 7.7619L46.0952 6.95238Z" fill="white"/>
<path d="M51.381 8.47618C51.4762 7.33332 52.2857 6.7619 53.7143 6.90475C55.1429 7.04761 55.8572 7.7619 55.7619 8.85713C55.6667 9.99999 54.8572 10.5714 53.4286 10.4762C52 10.3333 51.2857 9.61904 51.381 8.47618ZM54.7619 8.80951C54.8096 8.23809 54.5238 7.85713 53.6667 7.76189C52.8096 7.71428 52.4762 7.99999 52.4286 8.61904C52.381 9.19047 52.6667 9.61904 53.5238 9.66666C54.3334 9.71428 54.7143 9.38094 54.7619 8.80951Z" fill="white"/>
<path d="M61.6191 8.38095L59.6191 9.38095L60.8572 11.6667L59.6667 11.381L58.8096 9.7619L57.8572 10.2381L57.7143 10.9048L56.762 10.6667L57.5239 7.38095L58.4763 7.57143L58.1429 9.04762L60.1905 7.95238L61.6191 8.38095Z" fill="white"/>
<path d="M66.3334 10L66.0477 10.7143L63.6667 9.85714L63.4762 10.381L65.762 11.1905L65.4762 11.9048L63.1905 11.0952L63 11.619L65.381 12.4762L65.0953 13.1905L61.8096 12L62.9524 8.80952L66.3334 10Z" fill="white"/>
<path d="M69.7621 14.3333L70.8573 12.1905L71.7145 12.619L70.143 15.619L68.8573 14.9524L68.1907 11.8571L67.0954 14L66.2383 13.5238L67.8097 10.5238L69.0954 11.1905L69.7621 14.3333Z" fill="white"/>
<path d="M27.3809 85.4762C27.2381 85.7143 27.3809 86 28.1428 86.4762C28.8571 86.9048 29.0952 86.9048 29.1905 86.7143C29.3333 86.5238 29.1905 86.3809 28.3809 85.8095C27.2381 85 26.8571 84.4762 27.2857 83.8095C27.6667 83.1905 28.4762 83.3333 29.4762 83.9048C30.5714 84.5714 31.0476 85.2857 30.6667 85.9524L29.8095 85.4286C29.9524 85.1905 29.7619 84.9048 29.0952 84.5238C28.4762 84.1429 28.2857 84.1905 28.1905 84.3333C28.0952 84.5238 28.1905 84.6667 28.9524 85.1905C29.9524 85.9048 30.619 86.4286 30.1428 87.1429C29.7143 87.9048 28.8571 87.6667 27.8571 87.0476C26.6667 86.3333 26.1428 85.6667 26.5714 84.8571L27.3809 85.4762Z" fill="white"/>
<path d="M31.5238 87.1905C31.9523 86.1429 32.9523 85.8571 34.238 86.4286C35.5714 87 35.9999 87.9048 35.5714 88.9524C35.1428 90 34.1428 90.2857 32.8095 89.7143C31.5238 89.1429 31.0952 88.2381 31.5238 87.1905ZM34.619 88.5238C34.8571 88 34.6666 87.5238 33.9047 87.1905C33.1428 86.8571 32.6666 87.0476 32.4285 87.619C32.1904 88.1429 32.3809 88.619 33.1428 88.9524C33.9523 89.2857 34.3809 89.0952 34.619 88.5238Z" fill="white"/>
<path d="M39.2857 88.2381C40.4762 88.5714 41.0476 89.2857 40.9047 90.1429L39.9047 89.8571C39.9047 89.5238 39.7142 89.1905 39.0952 89.0476C38.3809 88.8571 37.9523 89.0952 37.8095 89.6667C37.6666 90.2381 37.9047 90.6667 38.5714 90.9048C39.1904 91.0952 39.5714 90.9048 39.7143 90.619L40.7143 90.9048C40.3809 91.7143 39.5714 92.0476 38.3333 91.7143C37 91.3333 36.4762 90.5238 36.8095 89.4286C37.0952 88.2381 38 87.8571 39.2857 88.2381Z" fill="white"/>
<path d="M43.381 89.2381L42.762 92.5714L41.8096 92.381L42.4286 89.0476L43.381 89.2381Z" fill="white"/>
<path d="M44.4286 91.1429C44.5238 90 45.3333 89.4286 46.7619 89.5238C48.1905 89.619 48.9048 90.381 48.8095 91.4762C48.7143 92.619 47.9048 93.1905 46.4762 93.0952C45.0476 93 44.3334 92.2857 44.4286 91.1429ZM47.7619 91.4286C47.8095 90.8571 47.5238 90.4762 46.6667 90.381C45.8095 90.3333 45.4762 90.6667 45.4286 91.2381C45.381 91.8095 45.7143 92.2381 46.5238 92.2857C47.381 92.3333 47.7143 92 47.7619 91.4286Z" fill="white"/>
<path d="M51.0952 92.0476C51.0952 92.3333 51.381 92.5238 52.2857 92.4762C53.0952 92.4286 53.2857 92.2857 53.2857 92.0952C53.2857 91.8571 53.1429 91.8095 52.0952 91.8095C50.7143 91.7619 50.0952 91.5238 50.0476 90.8095C50 90.0952 50.7619 89.7619 51.9048 89.6667C53.1905 89.619 54 89.9524 54.0476 90.7143L53 90.7619C53 90.4762 52.6667 90.381 51.9048 90.381C51.1905 90.4286 51.0476 90.5714 51.0476 90.7143C51.0476 90.9048 51.2381 91 52.1429 91C53.381 91.0476 54.1905 91.0476 54.2381 91.9524C54.2857 92.8095 53.4762 93.0952 52.2857 93.1905C50.9048 93.2381 50.0952 93 50 92.0952L51.0952 92.0476Z" fill="white"/>
<path d="M55.762 92.0476L56.7143 91.9048L56.8096 92.619L55.8572 92.7619L55.762 92.0476Z" fill="white"/>
<path d="M59.4762 88.5238C60.7143 88.2381 61.5238 88.5714 61.8095 89.4286L60.8095 89.6667C60.6667 89.3809 60.2857 89.1905 59.7143 89.3333C59 89.5238 58.7619 89.9524 58.9048 90.5238C59.0476 91.0952 59.4762 91.3809 60.1905 91.1905C60.8095 91.0476 61.0476 90.7143 61.0476 90.3809L62.0476 90.1429C62.1429 91 61.6191 91.7143 60.381 92C59.0476 92.3333 58.1905 91.9048 57.9048 90.7619C57.5715 89.6667 58.1429 88.8571 59.4762 88.5238Z" fill="white"/>
<path d="M63.1429 89.381C62.7143 88.3333 63.1905 87.4286 64.5238 86.9048C65.8572 86.381 66.8095 86.7143 67.2381 87.7619C67.6667 88.8095 67.1905 89.7143 65.8572 90.2381C64.5238 90.7619 63.5715 90.4286 63.1429 89.381ZM66.2857 88.1429C66.0953 87.6191 65.6191 87.381 64.8572 87.7143C64.0953 88 63.9048 88.4762 64.0953 89.0476C64.3334 89.6191 64.7619 89.8095 65.5238 89.5238C66.3334 89.1905 66.5238 88.7143 66.2857 88.1429Z" fill="white"/>
<path d="M69.3334 88.6667L67.6191 85.7143L68.9525 84.9524L71.0953 86.2857L71.0001 83.7619L72.3334 83L74.0477 85.9524L73.1906 86.4286L71.9525 84.2857L72.0953 87.0476L71.3334 87.5238L69.0001 86.0476L70.2382 88.1905L69.3334 88.6667Z" fill="white"/>
<path d="M22.6667 82.2381C13.1905 74.1905 7.71436 62.4286 7.71436 50C7.71436 37.3809 13.5715 25.0952 23.381 17.1429L24.0477 17.9524C14.5239 25.7143 8.80959 37.7143 8.80959 50C8.80959 62.1429 14.0953 73.5714 23.381 81.4286L22.6667 82.2381Z" fill="#CAD800"/>
<path d="M77.3333 82.2381L76.6667 81.4286C86.0476 73.4762 91.2381 62.2857 91.2381 50C91.2381 37.5238 85.6667 25.8571 75.9524 18L76.6191 17.1905C86.5714 25.2381 92.2857 37.2381 92.2857 50.0476C92.2857 62.619 86.9524 74.0952 77.3333 82.2381Z" fill="#CAD800"/>
<path d="M50.0953 41.1429C43.762 41.1429 34.0001 41.1905 25.762 41.3333V41.3809C34.0001 41.5714 44.1905 41.619 50.5239 41.619C52.8572 41.619 64.6667 41.619 74.2382 41.3809V41.3333C67.6191 41.1905 59.0477 41.1429 50.0953 41.1429Z" fill="white"/>
<path d="M46.6667 56.8571H46.4286L45.0476 60H45.5714C45.619 59.8095 45.6667 59.619 45.8571 59.1429H47C47.1428 59.4762 47.2381 59.7619 47.3333 60H48L46.6667 56.8571ZM46.4286 57.7619C46.7619 58.5238 46.7619 58.5238 46.8571 58.7619H46C46.0952 58.5238 46.0952 58.5238 46.4286 57.7619Z" fill="white"/>
<path d="M67.8571 56.8571H67.619L66.238 60H66.7618C66.8095 59.8095 66.8571 59.619 67.0476 59.1429H68.1904C68.3333 59.4762 68.4285 59.7619 68.5237 60H69.1904L67.8571 56.8571ZM67.619 57.7619C67.9523 58.5238 67.9523 58.5238 68.0476 58.7619H67.1904C67.3333 58.5238 67.3333 58.5238 67.619 57.7619Z" fill="white"/>
<path d="M38.6667 60C38.5715 59.0476 38.5239 58.4286 38.4763 58.0476C37.9525 59 37.7144 59.4286 37.5239 59.9524H37.3334C36.8096 58.8571 36.762 58.7619 36.6191 58.5238C36.5715 58.4286 36.5239 58.3333 36.381 58.0476C36.3334 58.2381 36.2858 59.0952 36.1905 59.9524H35.7144C35.8572 58.8571 36.0953 57 36.0953 56.9048H36.381C36.4286 57 36.4763 57.0952 36.5239 57.1429C36.8572 57.8571 37.1429 58.3809 37.4763 58.9524C37.6191 58.6667 37.762 58.4286 37.9048 58.1429C38.0953 57.7619 38.3334 57.3333 38.6191 56.8571H38.8572C38.8572 56.9524 39.0477 58.4762 39.2382 59.9048C39.2858 60 38.6667 60 38.6667 60Z" fill="white"/>
<path d="M72.3332 60C72.238 59.0476 72.1904 58.4286 72.1428 58.0476C71.619 59 71.3809 59.4286 71.1904 59.9524H70.9999C70.4761 58.8571 70.4285 58.7619 70.2856 58.5238C70.238 58.4286 70.1904 58.3333 70.0475 58.0476C69.9999 58.2381 69.9523 59.0952 69.857 59.9524H69.3809C69.5237 58.8571 69.7618 57 69.8094 56.9048H70.0951C70.1428 57 70.1904 57.0952 70.238 57.1429C70.5713 57.8571 70.8571 58.3809 71.1904 58.9524C71.3332 58.6667 71.4761 58.4286 71.619 58.1429C71.8094 57.7619 72.0475 57.3333 72.3332 56.8571H72.5713C72.5713 56.9524 72.7618 58.4762 72.9523 59.9048C72.9523 60 72.3332 60 72.3332 60Z" fill="white"/>
<path d="M30.8571 60.0952C30.238 60.0952 29.8571 59.7619 29.7618 59.6667C29.5237 59.4286 29.2856 59.0476 29.2856 58.4762C29.2856 57.9048 29.5237 57.5238 29.7618 57.2857C29.8571 57.1905 30.238 56.8571 30.8571 56.8571C31.238 56.8571 31.9999 57 32.3333 57.8095C32.4285 58 32.4761 58.2381 32.4761 58.5238C32.4761 59.0952 32.238 59.4762 31.9999 59.7143C31.8571 59.7619 31.5237 60.0952 30.8571 60.0952ZM30.8571 59.7143C31.3333 59.7143 31.8095 59.2857 31.8095 58.4286C31.8095 57.5714 31.3333 57.1429 30.8571 57.1429C30.3809 57.1429 29.9047 57.5714 29.9047 58.4286C29.9047 59.2857 30.3809 59.7143 30.8571 59.7143Z" fill="white"/>
<path d="M51.0951 60.0952C50.4761 60.0952 50.0951 59.7619 49.9999 59.6667C49.7142 59.4286 49.5237 59.0476 49.5237 58.4762C49.5237 57.9048 49.7618 57.5238 49.9999 57.2857C50.0951 57.1905 50.4761 56.8571 51.0951 56.8571C51.4761 56.8571 52.238 57 52.5713 57.8095C52.6665 58 52.7142 58.2381 52.7142 58.5238C52.7142 59.0952 52.4761 59.4762 52.238 59.7143C52.0951 59.7619 51.7142 60.0952 51.0951 60.0952ZM51.0951 59.7143C51.5713 59.7143 52.0475 59.2857 52.0475 58.4286C52.0475 57.5714 51.5713 57.1429 51.0951 57.1429C50.6189 57.1429 50.1427 57.5714 50.1427 58.4286C50.1427 59.2857 50.6189 59.7143 51.0951 59.7143Z" fill="white"/>
<path d="M33 56.9048C33.1429 56.9048 33.8572 56.9048 33.8572 56.9048C34.381 56.9048 34.5714 57 34.7619 57.1905C34.9048 57.3333 35 57.5714 35 57.8095C35 58 34.9048 58.2381 34.7619 58.381C34.6191 58.5238 34.381 58.619 34.3333 58.6667L35.4762 60H34.7619L33.7143 58.7143H33.5238V60H32.9524L33 56.9048ZM33.8095 57.2381C33.7143 57.2381 33.6667 57.2381 33.5714 57.2381V58.3333C33.6667 58.3333 33.7143 58.381 33.8095 58.381C34.2857 58.381 34.4762 58.0952 34.4762 57.8095C34.4762 57.7619 34.4762 57.5714 34.3333 57.4286C34.1905 57.2857 34 57.2381 33.8095 57.2381Z" fill="white"/>
<path d="M43.0952 60V56.9524H43.6666V59.5714H44.9047V60H43.0952Z" fill="white"/>
<path d="M58.9048 57.0476H58.6667V56.9524H59.2858V57.0476H59.0477V57.7143H58.9048V57.0476Z" fill="white"/>
<path d="M60.0951 57.3809C60.0951 57.2857 60.0951 57.1429 60.0951 57.0476C60.0475 57.1429 60.0475 57.2381 59.9999 57.3333L59.9046 57.6667H59.8094L59.7142 57.3333C59.6666 57.2381 59.6665 57.1429 59.6189 57C59.6189 57.0952 59.6189 57.2381 59.6189 57.3333V57.6667H59.4761L59.5237 56.8571H59.7142L59.8094 57.1905C59.857 57.2857 59.857 57.3809 59.9046 57.4762C59.9523 57.3809 59.9523 57.2857 59.9999 57.1905L60.0951 56.8571H60.2856L60.3332 57.6667H60.1904L60.0951 57.3809Z" fill="white"/>
<path d="M55.5714 60C55.4285 59.8571 54.5237 58.8571 53.6666 57.8571V60H53.238V56.9524H53.5714L55.4285 59V56.9524H55.8571V60H55.5714Z" fill="white"/>
<path d="M62.2856 60V57.3333C61.8094 57.3333 61.5237 57.381 61.3333 57.381V56.9048H63.8094V57.381C63.6666 57.381 63.3809 57.3333 62.9047 57.3333V60H62.2856Z" fill="white"/>
<path d="M57.0951 59.5714V58.5714H58.1903V58.1905H57.0951V57.2857C57.3332 57.2857 57.7142 57.2857 58.3332 57.3333V56.9048H56.5237V59.9524H58.3808V59.5238C57.9999 59.5714 57.5237 59.5714 57.0951 59.5714Z" fill="white"/>
<path d="M64.7142 59.5714V58.5714H65.8095V58.1905H64.7142V57.2857C64.9523 57.2857 65.3333 57.2857 65.9523 57.3333V56.9048H64.1428V59.9524H66V59.5238C65.619 59.5714 65.1428 59.5714 64.7142 59.5714Z" fill="white"/>
<path d="M41.9048 56.9524C41.9048 58.1429 41.9048 58.5714 41.9048 58.5714C41.9048 58.9524 41.8572 59.619 41.1429 59.619C40.8572 59.619 40.3334 59.5714 40.3334 58.7143C40.3334 57.9048 40.3334 56.9524 40.3334 56.9048H39.762C39.762 56.9524 39.762 57.8571 39.762 58.7143C39.762 59.9524 40.762 60.0476 41.0477 60.0476C41.762 60.0476 42.3334 59.7143 42.3334 58.7143V56.9524H41.9048Z" fill="white"/>
<path d="M28.9048 57.3809V56.9524H27.0476V60H27.619V58.6667H28.7619V58.2857H27.619V57.3333C28.1905 57.3333 28.5238 57.3333 28.9048 57.3809Z" fill="white"/>
<path d="M74.0476 44.8095C74.0476 45.1429 73.7619 45.4286 73.4286 45.4286C73.0952 45.4286 72.8095 45.1429 72.8095 44.8095C72.8095 44.4762 73.0952 44.1905 73.4286 44.1905C73.7619 44.1905 74.0476 44.4762 74.0476 44.8095ZM74 44.8095C74 44.5238 73.7619 44.2857 73.4762 44.2857C73.1905 44.2857 72.9524 44.5238 72.9524 44.8095C72.9524 45.0952 73.1905 45.3333 73.4762 45.3333C73.7619 45.3333 74 45.0952 74 44.8095ZM73.5714 44.8571L73.7619 45.1429H73.619L73.4762 44.8571H73.3809V45.1429H73.2857V44.4762H73.5238C73.619 44.4762 73.7143 44.5714 73.7143 44.6667C73.7143 44.7619 73.6667 44.8571 73.5714 44.8571ZM73.3809 44.7619H73.5238C73.5714 44.7619 73.619 44.7143 73.619 44.6667C73.619 44.619 73.5714 44.5714 73.5238 44.5714H73.3809V44.7619ZM51.5238 46.1429H52.4286V51.5714H51.5238V46.1429ZM48.1905 46.0476C47.5714 46.0476 47.0476 46.2381 46.619 46.619V46.1905H45.7143V51.619H46.619V48.5714C46.619 47.7143 47.3333 47 48.1905 47C49.0476 47 49.7619 47.7143 49.7619 48.5714V51.619H50.6667V48.5714C50.6667 47.1429 49.5714 46.0476 48.1905 46.0476ZM43.9047 46.1429H44.8095V51.381C44.8095 52.9524 43.4286 54.1905 42 54.1905C40.6667 54.1905 39.6667 53.3809 39.2857 52.2381H40.2381C40.5238 52.8571 41.1428 53.2857 41.9524 53.2857C42.9047 53.2857 43.9047 52.4286 43.9047 51.3333V50.9524C43.3809 51.4286 42.7143 51.7143 41.9524 51.7143C40.3809 51.7143 39.1428 50.4286 39.1428 48.9048C39.1428 47.3809 40.4286 46.0952 41.9524 46.0952C42.7143 46.0952 43.3809 46.381 43.9047 46.8571V46.1429ZM43.9047 48.8571C43.9047 47.8095 43.0476 46.9048 41.9524 46.9048C40.8571 46.9048 40 47.7619 40 48.8571C40 49.9524 40.8571 50.8095 41.9524 50.8095C43.0476 50.8095 43.9047 49.9524 43.9047 48.8571ZM29.9048 46.9524C30.6667 46.9524 31.3333 47.4286 31.6667 48.0476H32.619C32.2857 46.9048 31.1905 46.0476 29.9048 46.0476C28.3333 46.0476 27.0476 47.3333 27.0476 48.8571C27.0476 50.3809 28.3333 51.6667 29.9048 51.6667C31.1905 51.6667 32.2857 50.8095 32.619 49.6667H31.6667C31.3333 50.3333 30.6667 50.7619 29.9048 50.7619C28.8571 50.7619 28 49.9048 28 48.8095C28 47.7143 28.8571 46.9524 29.9048 46.9524ZM38.7143 48.8571C38.7143 50.4286 37.4286 51.6667 35.9048 51.6667C34.3809 51.6667 33.0952 50.3809 33.0952 48.8571C33.0952 47.3333 34.3809 46.0476 35.9048 46.0476C37.4286 46.0476 38.7143 47.2857 38.7143 48.8571ZM37.8095 48.8571C37.8095 47.8095 36.9524 46.9048 35.8571 46.9048C34.7619 46.9048 33.9047 47.7619 33.9047 48.8571C33.9047 49.9524 34.7619 50.8095 35.8571 50.8095C36.9524 50.8095 37.8095 49.9524 37.8095 48.8571ZM67.3809 46.0476C66.7619 46.0476 66.2381 46.2381 65.8095 46.619V46.1905H64.9048V51.619H65.8095V48.5714C65.8095 47.7143 66.5238 47 67.3809 47C68.2381 47 68.9524 47.7143 68.9524 48.5714V51.619H69.8571V48.5714C69.8571 47.1429 68.7619 46.0476 67.3809 46.0476ZM63.0952 46.1429H64V51.5714H63.0952V50.9524C62.5714 51.4286 61.9047 51.7143 61.1428 51.7143C59.5714 51.7143 58.3333 50.4286 58.3333 48.9048C58.3333 47.3809 59.619 46.0952 61.1428 46.0952C61.9047 46.0952 62.5714 46.381 63.0952 46.8571V46.1429ZM63.0952 48.8571C63.0952 47.8095 62.2381 46.9048 61.1428 46.9048C60.0476 46.9048 59.1905 47.7619 59.1905 48.8571C59.1905 49.9524 60.0476 50.8095 61.1428 50.8095C62.2381 50.8095 63.0952 49.9524 63.0952 48.8571ZM72.9048 47.0476V46.1429H71.5238V44.6667H70.619V49.7619C70.619 50.7619 71.4286 51.5714 72.4286 51.5714H72.8571V50.6667H72.4286C71.9048 50.6667 71.5238 50.2857 71.5238 49.7619V47.0476H72.9048ZM51.9524 44.1905C51.619 44.1905 51.3333 44.4762 51.3333 44.8095C51.3333 45.1429 51.619 45.4286 51.9524 45.4286C52.2857 45.4286 52.5714 45.1429 52.5714 44.8095C52.5714 44.4762 52.2857 44.1905 51.9524 44.1905ZM57.8571 46.1429H53.3333V47.0476H56.6667L53.3333 50.6667V51.5714H57.8571V50.6667H54.5238L57.8571 47.0476V46.1429Z" fill="white"/>
<path d="M69.2858 65.1429C67.2382 65.1429 65.6191 66.8095 65.6191 68.8095C65.6191 70.8095 67.2858 72.4762 69.2858 72.4762C71.2858 72.4762 72.9525 70.8095 72.9525 68.8095C72.9525 66.8095 71.3334 65.1429 69.2858 65.1429ZM69.2858 70.8571C68.1429 70.8571 67.2858 69.9524 67.2858 68.8571C67.2858 67.7619 68.1906 66.8571 69.2858 66.8571C70.381 66.8571 71.2858 67.7619 71.2858 68.8571C71.2858 69.9524 70.381 70.8571 69.2858 70.8571Z" fill="white"/>
<path d="M55.8096 65.0476C55.0001 65.0476 54.1906 65.2381 53.5239 65.4762C53.0001 65.1905 52.4763 65.0476 51.7144 65.0476C50.762 65.0476 49.8096 65.1905 48.8096 65.5238L48.6191 65.5714V72.381H50.4763V66.8095C50.8572 66.6667 51.1429 66.619 51.5239 66.619C52.4287 66.619 52.7144 66.9048 52.7144 67.8571V72.3333H54.5715V67.7143C54.5715 67.2857 54.5715 67.0476 54.4763 66.7619C54.8572 66.619 55.143 66.5714 55.4763 66.5714C56.3334 66.5714 56.762 66.9524 56.762 67.8095V72.2857H58.6191V67.6667C58.6191 66.7619 58.4763 66.2381 58.0477 65.7619C57.5239 65.3333 56.762 65.0476 55.8096 65.0476Z" fill="white"/>
<path d="M63.1904 70.9048C61.9523 70.9048 61.238 70.1429 61.238 68.8095C61.238 67.4762 61.9523 66.6667 63.1904 66.6667C63.4285 66.6667 63.6666 66.7143 63.8571 66.7619C63.8571 66.7619 64.238 66.8571 64.5714 67.1429L65.3333 65.8095C64.9047 65.4762 64.4285 65.2857 64.238 65.2381C63.7618 65.0952 63.0475 65.0476 63.0475 65.0476C60.8094 65.0476 59.3333 66.5714 59.3333 68.8571C59.3333 71.1429 60.7618 72.4762 62.9523 72.4762C62.9523 72.4762 64.4285 72.5238 65.3809 71.619L64.4761 70.4286C63.9999 70.8095 63.6666 70.9048 63.1904 70.9048Z" fill="white"/>
<path d="M39.1428 65.1429C36.5237 65.1429 35.2856 66.2857 35.2856 68.7619V72.3809H37.1904V68.7143C37.1904 67.4762 37.9047 66.7143 38.9999 66.7143C39.4761 66.7143 39.8095 66.8095 40.0475 66.8571L40.4761 65.2381C39.7618 65.0952 39.1428 65.0952 39.1428 65.1429Z" fill="white"/>
<path d="M47.5237 68.5238V72.381H44.9999C43.238 72.381 42.4761 72.2381 41.5714 71.6667C40.7618 71.1429 40.3333 70.0952 40.3333 68.7619C40.3333 66.9524 41.5237 65.0952 44.1904 65.0952C46.3333 65.0952 47.4761 66.2857 47.5237 68.5238ZM45.6666 68.7619C45.6666 67.381 45.1428 66.6667 44.0475 66.6667C42.9523 66.6667 42.238 67.4762 42.238 68.7143C42.238 70.1905 42.9523 70.8095 44.5237 70.8095H45.6666V68.7619Z" fill="white"/>
<path d="M34.2857 68.5238V72.381H31.7619C30 72.381 29.2381 72.2381 28.3333 71.6667C27.5238 71.1429 27.0952 70.0952 27.0952 68.7619C27.0952 66.9524 28.2857 65.0952 30.9524 65.0952C33.1428 65.0952 34.2857 66.2857 34.2857 68.5238ZM32.3809 68.7619C32.3809 67.3333 31.9047 66.6667 30.8095 66.6667C29.7143 66.6667 29 67.4762 29 68.7143C29 70.1905 29.7143 70.8095 31.2857 70.8095H32.3809V68.7619Z" fill="white"/>
<path d="M41.2382 31.0952H41.762L41.4763 30.4286C41.5239 30.4286 41.2382 31.0952 41.2382 31.0952ZM40.7144 31.7619L41.4763 29.9524H41.6667L42.4286 31.7619H42.0477L41.8572 31.2857H41.1905L41.0001 31.7619H40.7144ZM42.5239 31.6667L42.4763 31.3333C42.6667 31.4762 42.8572 31.5714 43.0477 31.5714C43.1429 31.5714 43.2382 31.5238 43.2858 31.5238C43.381 31.4286 43.381 31.2857 43.3334 31.1905C43.2858 31.0952 43.1429 31.0476 42.8572 30.9524C42.6191 30.8571 42.4763 30.6667 42.4763 30.4286C42.4763 30.2857 42.5239 30.1429 42.6191 30.0476C42.8572 29.8571 43.2382 29.9048 43.2858 29.9524C43.381 29.9524 43.4286 30 43.4763 30L43.5239 30.3333C43.4286 30.2857 43.381 30.2381 43.2858 30.1905C43.0477 30.0952 42.762 30.1429 42.762 30.381C42.762 30.4762 42.8096 30.5714 42.9524 30.619C43.2858 30.7619 43.4286 30.8571 43.5239 31C43.6667 31.1905 43.6667 31.5238 43.4286 31.7143C43.3334 31.8095 43.1429 31.8571 42.9524 31.8571C42.8096 31.8095 42.6191 31.7143 42.5239 31.6667ZM44.2858 31.7619V30.1429C44.1429 30.1429 43.9525 30.1429 43.7144 30.1905V29.9048H45.0953V30.1905C44.8096 30.1429 44.6191 30.1429 44.5239 30.1429V31.7619H44.2858ZM46.0953 31.5714C46.381 31.5714 46.6191 31.3333 46.6191 30.8571C46.6191 30.8095 46.6191 30.4286 46.381 30.2381C46.2858 30.1905 46.1905 30.1429 46.0953 30.1429C45.7144 30.1429 45.5715 30.4762 45.5715 30.8571C45.5715 31.381 45.8096 31.5714 46.0953 31.5714ZM46.0953 31.8095C45.5715 31.8095 45.1905 31.4286 45.1905 30.8571C45.1905 30.2857 45.5715 29.9048 46.0953 29.9048C46.6191 29.9048 47.0001 30.2857 47.0001 30.8571C47.0001 31.4286 46.6667 31.8095 46.0953 31.8095ZM47.2858 31.7619V29.9524H47.4763L48.5715 31.1905V29.9524H48.8096V31.7619H48.6191L47.5239 30.5238V31.7619H47.2858ZM49.8096 31.7619L50.0001 29.9524H50.1905L50.8572 31.2381L51.4763 29.9524H51.6667L51.8572 31.7619H51.4763L51.381 30.619L50.8572 31.6667H50.7144L50.1905 30.619L50.0953 31.7143C50.0953 31.7619 49.8096 31.7619 49.8096 31.7619ZM52.5715 31.0952H53.0953L52.8096 30.4286L52.5715 31.0952ZM52.0001 31.7619L52.762 29.9524H52.9524L53.7144 31.7619H53.3334L53.1429 31.2857H52.4763L52.2858 31.7619H52.0001ZM54.2858 30.7619C54.3334 30.7619 54.381 30.7619 54.4286 30.7619C54.7144 30.7619 54.8096 30.5714 54.8096 30.4286C54.8096 30.1905 54.6667 30.0952 54.4286 30.0952C54.381 30.0952 54.3334 30.0952 54.2858 30.0952V30.7619ZM53.9048 31.7619V29.9524C54.0001 29.9524 54.1429 29.9524 54.3334 29.9524C54.4763 29.9524 54.6191 29.9524 54.762 30C54.9525 30.0476 55.1429 30.1905 55.1429 30.4762C55.1429 30.5714 55.0953 30.7143 55.0477 30.7619C55.0001 30.8095 54.9048 30.9048 54.762 30.9524L55.381 31.7619H54.9525L54.381 31H54.2858V31.7619H53.9048ZM55.8096 31.7619V30.1429C55.6667 30.1429 55.4763 30.1429 55.2382 30.1905V29.9048H56.6191V30.1905C56.3334 30.1429 56.1429 30.1429 56.0477 30.1429V31.7619H55.8096ZM56.9524 29.9524H57.2858V31.7619H56.9524V29.9524ZM57.6191 31.7619V29.9524H57.8096L58.9048 31.1905V29.9524H59.1429V31.7619H58.9525L57.8572 30.5238V31.7619H57.6191Z" fill="white"/>
<path d="M72.1905 27.8095C72.0952 27.619 71.8571 27.4762 71.5714 27.4762H53.619C53.3333 27.4762 52.8571 27.4762 52.381 27.9524C52.2381 28.0952 52.1429 28.2857 52.0476 28.3809C51.9048 28.619 51.8095 28.8571 51.2857 28.8571H48.6667C48.1905 28.8571 48.0952 28.6667 47.9048 28.3809C47.8095 28.2381 47.7619 28.0952 47.5714 27.9524C47.0952 27.4762 46.6191 27.4762 46.3333 27.4762H28.4762C28.1905 27.4762 27.9524 27.5714 27.8571 27.8095C27.7619 28 27.7619 28.2857 27.9048 28.5238L28.2381 29.0476C28.4286 29.3333 28.6191 29.3809 28.8095 29.4286C28.9524 29.4762 29.0476 29.4762 29.1905 29.6667L29.4762 30.1429C29.7143 30.5714 29.9524 30.619 30.1429 30.619C30.2857 30.6667 30.4286 30.6667 30.6191 31C30.8095 31.3333 31.0952 31.8571 31.7619 32.0476C31.8095 32.0476 38.4286 34 38.4762 34C39.1905 34.2381 39.3333 34.4762 39.5714 34.8095C39.7143 35 40.0476 35.5238 40.9048 35.7143L47.2857 37.4286C47.9524 37.619 48.381 37.2857 48.619 37.0952L49.7619 36C49.9048 35.8571 50 35.8095 50.1429 35.8095C50.2857 35.8095 50.3333 35.8571 50.5238 36L51.6667 37.0952C51.8571 37.2857 52.2857 37.619 53 37.4286L59.381 35.7143C60.2381 35.4762 60.5714 34.9524 60.7143 34.8095C60.9048 34.4762 61.0952 34.2381 61.8095 34C61.8095 34 68.4286 32.0476 68.5238 32.0476C69.1905 31.8571 69.4762 31.3333 69.6667 31C69.8571 30.6667 70 30.619 70.1429 30.619C70.3333 30.5714 70.619 30.5238 70.8571 30.1429L71.1429 29.6667C71.2381 29.4762 71.3333 29.4286 71.5238 29.4286C71.7143 29.3809 71.9048 29.3333 72.0952 29.0476L72.4286 28.5238C72.2857 28.2857 72.2857 28 72.1905 27.8095ZM59.9524 29.2857V32.4286H40.0952V29.2857H59.9524ZM52.8095 37.0476C52.3333 37.0476 52.1429 36.619 52 36.2857C51.8571 35.9048 51.0952 33.4286 50.8571 32.7619H51.8571C52.381 33.6667 53.3333 35.2381 53.7619 35.9048C53.8571 36 54.0476 36.381 54.4286 36.619C52.9524 37.0476 52.9524 37.0476 52.8095 37.0476ZM55.1429 36.4286C54.5714 36.4286 54.2857 36 54.1429 35.7143C53.7619 35.1429 52.9524 33.8095 52.3333 32.7619H53.4286C54.0952 33.4762 55.5714 35.0476 56.1429 35.619C56.2381 35.7143 56.4286 35.9048 56.6667 36.0476C55.3333 36.3809 55.3333 36.4286 55.1429 36.4286ZM57.3333 35.8095C56.9048 35.8095 56.6191 35.5238 56.381 35.3333C55.8571 34.8095 54.6667 33.5714 53.9524 32.7619H55.1429C55.9048 33.3333 57.6191 34.5714 58.3333 35.0476C58.4762 35.1429 58.7143 35.2857 59 35.381C57.4762 35.8095 57.5238 35.8095 57.3333 35.8095ZM60.1429 34.6667C59.9524 34.9524 59.8095 35.0952 59.4762 35.0952C59.1905 35.0952 58.8571 34.9524 58.5714 34.7619C58 34.381 56.7143 33.4286 55.8571 32.8095H57.2857C59 33.6667 59.7619 34.0476 60.2381 34.1905C60.3333 34.2381 60.4286 34.2381 60.4762 34.2381C60.3333 34.381 60.2381 34.4762 60.1429 34.6667ZM60.6667 33.8571C60.2857 33.8571 59.7619 33.5714 58.1429 32.8095H59.6667L61.9048 33.3333C62.0476 33.381 62.1905 33.4286 62.3333 33.4286C61.0952 33.7619 60.9048 33.8571 60.6667 33.8571ZM64.9048 32.6667C63.6191 33.0476 63.4286 33.1429 63.0476 33.1429C62.8095 33.1429 62.4762 33.0952 61.9524 32.9524L60.2381 32.5238V31.9048C60.2857 31.9048 64.9048 32.6667 64.9048 32.6667ZM66.2381 32.2857C65.8095 32.381 65.4286 32.3333 64.8571 32.2381L60.2857 31.4762V31L67.7619 31.8571L66.2381 32.2857ZM69.0476 30.8571C69 30.9524 68.9524 31.0476 68.8571 31.1429C68.5714 31.4762 68.4286 31.4762 67.619 31.381L60.2381 30.5714V30.0952L68.7619 30.619C68.8095 30.619 69 30.619 69.1905 30.6667C69.1429 30.7143 69.0952 30.8095 69.0476 30.8571ZM70.5238 29.4762C70.5238 29.4762 70.381 29.7619 70.2857 29.9048C70.0476 30.2857 69.9048 30.2857 69.1905 30.2381L60.2857 29.7143V29.3333H70.619C70.5714 29.3809 70.5238 29.4286 70.5238 29.4762ZM71.7619 28.2857L71.5238 28.6667C71.381 28.9048 71.2857 28.9048 70.7619 28.9048H52.2381C52.4286 28.6667 52.4762 28.4286 52.7143 28.2381C53.0476 27.9048 53.381 27.9048 53.619 27.9048H71.5714C71.7143 27.9048 71.8095 27.9524 71.8095 28C71.8571 28.0952 71.8095 28.1905 71.7619 28.2857ZM48.0952 36.9524C48.1905 36.8571 48.2381 36.6667 48.3333 36.4286C48.4762 36.0476 49.2857 33.4762 49.5238 32.7619H50.4286C50.6667 33.4762 51.4762 36.0476 51.6191 36.4286C51.7143 36.6667 51.7619 36.8095 51.8571 36.9524C51.8095 36.9524 51.8095 36.9048 51.7619 36.9048L50.6191 35.8095C50.4286 35.619 50.2381 35.4762 49.9524 35.4762C49.6667 35.4762 49.4762 35.619 49.2857 35.8095L48.1429 36.9048C48.1905 36.9048 48.1429 36.9524 48.0952 36.9524ZM45.5714 36.6667C45.9524 36.4286 46.1905 36.0952 46.2381 35.9524C46.6667 35.2857 47.6191 33.6667 48.1429 32.8095H49.1429C48.9048 33.4762 48.1429 35.9524 48 36.3333C47.8571 36.6667 47.7143 37.0952 47.1905 37.0952C47.0476 37.0476 47.0476 37.0476 45.5714 36.6667ZM43.3333 36.0476C43.6191 35.9048 43.7619 35.7143 43.8571 35.619C44.4286 35.0476 45.8571 33.5238 46.5714 32.7619H47.6667C47.0476 33.8095 46.2381 35.1429 45.8571 35.7143C45.6667 36 45.381 36.4286 44.8571 36.4286C44.6667 36.4286 44.6667 36.4286 43.3333 36.0476ZM41 35.4286C41.2857 35.3333 41.5238 35.1905 41.6667 35.0952C42.3333 34.619 44.0952 33.3333 44.8571 32.8095H46.0476C45.2857 33.619 44.0952 34.8571 43.6191 35.381C43.4286 35.5714 43.0952 35.8571 42.6667 35.8571C42.4762 35.8095 42.5238 35.8095 41 35.4286ZM39.5238 34.2381C39.6191 34.2381 39.6667 34.1905 39.7619 34.1905C40.2857 34.0476 41 33.6667 42.7143 32.8095H44.1429C43.2857 33.4286 42 34.381 41.4286 34.7619C41.1429 34.9524 40.8571 35.0952 40.5238 35.0952C40.1905 35.0952 40.0476 34.9524 39.8571 34.6667C39.7619 34.4762 39.6667 34.381 39.5238 34.2381ZM37.7143 33.4286C37.8571 33.3809 38 33.381 38.1429 33.3333L40.3333 32.7619H41.8571C40.2857 33.5714 39.7619 33.8095 39.3333 33.8095C39.0952 33.8571 38.9524 33.8095 37.7143 33.4286ZM39.7143 31.9048V32.5238L38 32.9524C37.4762 33.0952 37.1429 33.1429 36.9048 33.1429C36.5238 33.1429 36.3333 33.0476 35.0476 32.6667C35.0952 32.6667 39.7143 31.9048 39.7143 31.9048ZM32.2381 31.8571L39.7143 31V31.4762L35.1429 32.2381C34.5238 32.3333 34.1429 32.381 33.7619 32.2857L32.2381 31.8571ZM30.8095 30.6667C31 30.6667 31.1429 30.619 31.2381 30.619L39.7619 30.1429V30.619L32.3333 31.4286C31.5238 31.5238 31.381 31.5238 31.0952 31.1905C31.0476 31.0952 30.9524 31 30.9048 30.9048C30.9048 30.8095 30.8571 30.7143 30.8095 30.6667ZM29.4286 29.3333H39.7619V29.7143L30.8571 30.2381C30.1429 30.2857 30 30.2857 29.7619 29.9048C29.6667 29.7619 29.5238 29.4762 29.5238 29.4762C29.4762 29.4286 29.4286 29.3809 29.4286 29.3333ZM28.1905 28.0476C28.2381 28 28.3333 27.9524 28.4286 27.9524H46.381C46.6667 27.9524 46.9524 27.9524 47.2857 28.2857C47.4762 28.5238 47.5714 28.7143 47.7619 28.9524H29.2381C28.6667 28.9524 28.6191 28.9524 28.4762 28.7143L28.2381 28.3333C28.1905 28.1905 28.1429 28.0952 28.1905 28.0476Z" fill="white"/>
</g>
<defs>
<clipPath id="clip0_1124_16585">
<rect width="100" height="100" fill="white"/>
</clipPath>
</defs>
</svg>
