<svg xmlns="http://www.w3.org/2000/svg" id="Layer_2" viewBox="0 0 210 210"><g id="Layer_1-2"><g><g><circle cx="105" cy="105" r="105"></circle><path d="M105,5.32c54.96,0,99.68,44.72,99.68,99.68s-44.72,99.68-99.68,99.68S5.32,159.96,5.32,105,50.04,5.32,105,5.32m0-5.32C47.01,0,0,47.01,0,105s47.01,105,105,105,105-47.01,105-105S162.99,0,105,0h0Z" fill="#fff"></path></g><g><g><path d="M156.28,58.13c-6.68-3.27-13.34-6.26-20.6-8.45-10.14-3.06-20.27-4.83-30.68-5.01-10.42,.18-20.54,1.95-30.68,5.01-7.26,2.19-13.92,5.17-20.6,8.45-.53,.21-1.53,.76-1.53,.76,0,0,.09,35.92,.7,44,.7,15.44,6.62,28.8,16.23,40.7,9.31,11.53,22.37,17.82,34.74,25.11,.43,.25,.8,.37,1.14,.4,.34-.03,.71-.15,1.14-.4,12.37-7.29,25.43-13.58,34.74-25.11,9.61-11.9,15.53-25.25,16.23-40.7,.61-8.08,.7-44,.7-44,0,0-1-.55-1.53-.76Z"></path><path d="M153.58,60.7c-6.32-3.1-12.64-5.93-19.51-8-9.61-2.89-19.2-4.57-29.07-4.75-9.87,.17-19.46,1.85-29.07,4.75-6.87,2.07-13.19,4.9-19.51,8-.5,.2-1.45,.72-1.45,.72,0,0,.09,34.03,.66,41.69,.66,14.63,6.27,27.28,15.37,38.56,8.82,10.92,21.2,16.89,32.92,23.79,.4,.24,.76,.35,1.08,.38,.32-.03,.68-.14,1.08-.38,11.72-6.91,24.1-12.87,32.92-23.79,9.1-11.27,14.71-23.92,15.37-38.56,.57-7.66,.66-41.69,.66-41.69,0,0-.95-.52-1.45-.72Z" fill="#fff"></path><path d="M151.09,63.07c-6-2.94-11.99-5.63-18.51-7.59-9.11-2.75-18.22-4.34-27.58-4.5-9.36,.17-18.46,1.76-27.58,4.5-6.52,1.96-12.51,4.65-18.51,7.59-.47,.19-1.37,.68-1.37,.68,0,0,.08,32.28,.63,39.55,.63,13.88,5.95,25.88,14.58,36.57,8.37,10.36,20.11,16.02,31.22,22.57,.38,.23,.72,.33,1.02,.36,.31-.03,.64-.14,1.02-.36,11.12-6.55,22.86-12.21,31.22-22.57,8.63-10.69,13.96-22.69,14.58-36.57,.55-7.26,.63-39.55,.63-39.55,0,0-.9-.49-1.37-.68Z"></path><g><path d="M141.03,68.29c-.87-.36-1.3-.54-2.17-.88,0,.76,0,1.13,0,1.89,0,.51,.36,.91,1.09,1.2,.95,.38,1.73,.98,2.36,1.78,.67,.85,1,1.74,1,2.65,0,.99,0,1.48,0,2.47,0,.45-.17,.76-.5,.94-.33,.17-.72,.16-1.18-.04-1.34-.57-2.02-.85-3.38-1.37-.46-.18-.86-.48-1.2-.92-.34-.45-.51-.89-.51-1.35,0-.97,0-1.45,0-2.41,.93,.33,1.39,.51,2.31,.87,0,.73,0,1.1,0,1.83,.87,.34,1.31,.52,2.17,.88,0-.76,0-1.13,0-1.89,0-.51-.36-.93-1.08-1.22-.95-.38-1.74-.95-2.38-1.71-.68-.81-1.02-1.67-1.02-2.58,0-.99,0-1.48,0-2.47,0-.45,.17-.78,.51-.98,.34-.19,.74-.2,1.2-.03,1.36,.52,2.03,.79,3.38,1.37,.46,.2,.85,.53,1.18,.99,.33,.47,.5,.93,.5,1.38,0,.96,0,1.44,0,2.41-.91-.41-1.36-.61-2.28-.99,0-.73,0-1.1,0-1.83Z" fill="#fff"></path><path d="M131,69.62c0,1.95,0,2.93,0,4.88-.94-.27-1.42-.41-2.37-.65,0-3.99,0-7.98,0-11.98,.95,.25,1.42,.38,2.37,.65,0,1.95,0,2.93,0,4.88,.36,.11,.54,.16,.9,.27,.58-1.77,.87-2.66,1.45-4.42,.95,.3,1.43,.46,2.37,.79-.7,2.15-1.06,3.23-1.77,5.39,.71,2.63,1.06,3.94,1.77,6.59-.95-.33-1.42-.49-2.37-.79-.58-2.14-.87-3.2-1.45-5.33-.36-.11-.54-.16-.9-.27Z" fill="#fff"></path><path d="M122.28,68.14c0,1.71,0,2.56,0,4.27-.96-.18-1.44-.27-2.41-.42,0-3.99,0-7.98,0-11.98,2.13,.34,3.19,.55,5.3,1.02,.48,.11,.89,.36,1.24,.76,.35,.4,.52,.83,.52,1.29,0,1.23,0,1.85,0,3.09,0,.78-.3,1.33-.91,1.66,.61,.61,.91,1.31,.91,2.11,0,1.4,0,2.09,0,3.49-.95-.23-1.43-.34-2.39-.55,0-1.4,0-2.09,0-3.49,0-.22-.08-.43-.26-.61-.17-.18-.37-.3-.6-.34-.56-.12-.85-.17-1.41-.28Zm1.41-1.94c.23,.05,.43,.01,.6-.1,.17-.11,.26-.27,.26-.49,0-1,0-1.5,0-2.51-.91-.19-1.36-.29-2.27-.46,0,1.31,0,1.97,0,3.28,.57,.11,.85,.16,1.41,.28Z" fill="#fff"></path><path d="M113.88,68.79c-.2,.95-.29,1.43-.49,2.38-.98-.09-1.47-.13-2.46-.19,.79-3.93,1.58-7.86,2.37-11.79,1.29,.12,1.94,.18,3.22,.35,.79,4.1,1.57,8.2,2.35,12.3-.98-.15-1.47-.21-2.45-.34-.19-.99-.29-1.49-.48-2.49-.83-.1-1.24-.14-2.07-.22Zm.44-2.17c.47,.05,.71,.07,1.18,.13-.24-2.07-.35-3.1-.59-5.17-.24,2.02-.35,3.02-.59,5.04Z" fill="#fff"></path><path d="M104.95,65.92c0,1.95,0,2.93,0,4.88-.97,0-1.46,0-2.43,.03,0-3.99,0-7.98,0-11.98,.97-.03,1.46-.03,2.43-.03,0,1.95,0,2.93,0,4.88,.92,0,1.38,0,2.3,.03,0-1.95,0-2.93,0-4.88,.97,.02,1.46,.04,2.43,.09,0,3.99,0,7.98,0,11.98-.97-.05-1.46-.07-2.43-.09,0-1.95,0-2.93,0-4.88-.92-.02-1.38-.03-2.3-.03Z" fill="#fff"></path><path d="M98.5,61.26c-.92,.06-1.38,.1-2.3,.19,0,.76,0,1.13,0,1.89,0,.51,.38,.73,1.15,.67,1-.08,1.84,.13,2.51,.61,.71,.52,1.07,1.24,1.07,2.16,0,.99,0,1.48,0,2.47,0,.45-.18,.85-.54,1.19-.35,.33-.77,.51-1.26,.55-1.43,.09-2.14,.15-3.57,.29-.49,.05-.9-.06-1.25-.34-.36-.28-.53-.64-.53-1.1,0-.97,0-1.45,0-2.41,.97-.12,1.45-.17,2.42-.26,0,.73,0,1.1,0,1.83,.92-.09,1.38-.12,2.3-.19,0-.76,0-1.13,0-1.89,0-.51-.38-.75-1.15-.68-1,.08-1.84-.1-2.5-.55-.71-.48-1.07-1.17-1.07-2.09,0-.99,0-1.48,0-2.47,0-.45,.18-.86,.53-1.22,.35-.36,.77-.56,1.25-.61,1.43-.15,2.14-.2,3.57-.29,.49-.03,.91,.1,1.26,.4,.36,.3,.54,.68,.54,1.14,0,.96,0,1.44,0,2.41-.97,.04-1.46,.07-2.43,.14,0-.73,0-1.1,0-1.83Z" fill="#fff"></path><path d="M85.26,70.81c1.51-.33,2.27-.48,3.8-.74,0,.84,0,1.26,0,2.1-2.44,.42-3.65,.68-6.06,1.26,0-3.79,0-7.58,0-11.38,2.41-.59,3.63-.84,6.06-1.26,0,.84,0,1.26,0,2.1-1.52,.26-2.28,.41-3.8,.74,0,1.01,0,1.52,0,2.53,1.26-.27,1.89-.4,3.16-.63,0,.84,0,1.27,0,2.11-1.27,.23-1.9,.36-3.16,.63,0,1.01,0,1.52,0,2.53Z" fill="#fff"></path><path d="M76.4,70.66c0,1.85,0,2.78,0,4.64-.89,.29-1.33,.44-2.22,.75,0-3.79,0-7.58,0-11.38,.88-.31,1.33-.46,2.22-.75,0,1.85,0,2.78,0,4.63,.84-.27,1.26-.4,2.11-.65,0-1.85,0-2.78,0-4.63,.9-.27,1.35-.39,2.25-.64,0,3.79,0,7.58,0,11.38-.9,.24-1.35,.37-2.25,.64,0-1.85,0-2.78,0-4.64-.85,.25-1.27,.38-2.11,.65Z" fill="#fff"></path><path d="M68.81,68.84c-.85,.36-1.27,.54-2.11,.92,0-.84,0-1.26,0-2.1,2.54-1.15,3.83-1.67,6.43-2.62,0,.84,0,1.26,0,2.1-.86,.31-1.29,.48-2.14,.81,0,3.71,0,5.56,0,9.27-.87,.34-1.31,.52-2.17,.88,0-3.71,0-5.56,0-9.27Z" fill="#fff"></path></g><g><path d="M87.65,141.59c1.04,.22,1.57,.32,2.61,.5,.24,.04,.43,.15,.58,.32,.15,.18,.21,.37,.18,.58-.22,1.35-.33,2.02-.55,3.37-.07,.42-.31,.73-.72,.92-.39,.18-.85,.22-1.37,.13-.74-.14-1.11-.21-1.86-.36,.45-2.18,.68-3.27,1.13-5.45Zm.99,1.25c-.27,1.38-.4,2.07-.66,3.45,.24,.05,.35,.07,.59,.11,.39,.07,.61-.01,.65-.25,.22-1.24,.33-1.86,.55-3.1-.45-.08-.68-.12-1.13-.21Z" fill="#fff"></path><path d="M94.51,147.29c.48,.06,.71,.08,1.19,.13,.19-1.81,.28-2.71,.47-4.51,.48,.05,.72,.07,1.2,.12-.17,1.92-.26,2.87-.43,4.79-.02,.21-.13,.38-.33,.51-.2,.13-.42,.18-.68,.16-.75-.07-1.12-.12-1.87-.21-.25-.03-.47-.13-.63-.3-.17-.17-.24-.36-.21-.57,.25-1.91,.38-2.86,.63-4.77,.48,.06,.72,.09,1.19,.15-.21,1.8-.32,2.7-.53,4.51Z" fill="#fff"></path><path d="M101.23,146.87c-.03,.79-.05,1.19-.08,1.98-.51-.02-.77-.03-1.28-.06,.13-2.22,.19-3.34,.31-5.56,1.06,.06,1.59,.08,2.65,.11,.24,0,.45,.08,.62,.23,.18,.15,.26,.33,.26,.54,0,.57-.01,.86-.02,1.43,0,.37-.17,.65-.49,.86,.31,.22,.47,.52,.47,.89,0,.65-.01,.97-.02,1.62-.51,0-.77-.01-1.28-.03,.02-.65,.03-.97,.05-1.62,0-.1-.04-.19-.13-.26-.09-.07-.19-.11-.31-.11-.29-.01-.44-.02-.74-.03Zm.77-1c.12,0,.22-.03,.31-.1,.09-.06,.14-.15,.14-.25,.01-.47,.02-.7,.03-1.16-.46-.01-.69-.02-1.15-.04-.03,.61-.04,.91-.06,1.52,.29,.01,.44,.02,.73,.03Z" fill="#fff"></path><path d="M106.49,143.35c1-.02,1.5-.03,2.5-.08,.24-.01,.46,.05,.64,.19,.19,.14,.29,.31,.3,.52,.03,.46,.04,.69,.07,1.15,.02,.33-.1,.62-.36,.84,.38,.2,.59,.5,.61,.9,.01,.21,.02,.31,.03,.52,.02,.42-.14,.78-.5,1.06-.34,.26-.77,.4-1.3,.42-.75,.03-1.13,.04-1.88,.05-.04-2.23-.06-3.34-.1-5.57Zm1.23,1c.02,.49,.02,.74,.04,1.24,.23,0,.34-.01,.57-.02,.12,0,.23-.04,.31-.11,.09-.07,.13-.16,.12-.26-.02-.35-.02-.53-.04-.88-.4,.02-.6,.02-1,.04Zm.11,3.51c.24,0,.36-.01,.6-.02,.4-.02,.59-.15,.58-.39,0-.21-.01-.31-.02-.52,0-.1-.05-.19-.14-.25-.09-.07-.2-.1-.32-.09-.29,.01-.44,.02-.73,.03,.02,.5,.02,.74,.04,1.24Z" fill="#fff"></path><path d="M114.23,147.33c-.06,.46-.09,.69-.14,1.15-.52,.05-.77,.08-1.29,.12,.31-2.26,.45-3.39,.69-5.66,.64-.06,.95-.1,1.59-.17,.73,2.16,1.11,3.23,1.89,5.37-.52,.07-.77,.1-1.29,.16-.15-.44-.23-.66-.38-1.09-.43,.05-.64,.07-1.07,.12Zm.12-1.05c.24-.03,.36-.04,.6-.07-.23-.93-.34-1.4-.56-2.33-.01,.96-.02,1.43-.04,2.39Z" fill="#fff"></path><path d="M120.09,144.04c.25,1.41,.37,2.12,.62,3.53-.51,.09-.76,.13-1.26,.21-.35-2.2-.53-3.3-.88-5.5,.66-.11,.99-.16,1.65-.28,.64,1.35,.97,2.02,1.65,3.36-.27-1.42-.41-2.12-.68-3.54,.47-.09,.71-.14,1.18-.24,.45,2.18,.68,3.27,1.13,5.45-.7,.14-1.05,.21-1.74,.34-.68-1.33-1.01-2-1.65-3.34Z" fill="#fff"></path></g><g><path d="M111.75,136.66c-.07,0-.14,0-.22,0-.46-.02-.93-.06-1.38-.09-.19-.01-.37-.03-.56-.04l-.83-.06-.06-.72s-.07-.05-.14-.08c-.08-.04-.17-.09-.26-.13-.17-.08-.35-.17-.53-.28-.46-.27-.74-.62-.83-1.05-.04-.18-.04-.36-.01-.55-.1-.06-.19-.13-.27-.22-.16-.18-.35-.5-.3-.98,.02-.24,.05-.47,.09-.7-.39-.18-.72-.42-1.03-.63-.14-.1-.29-.2-.44-.29-.25-.16-.54-.3-.9-.44,0,0-.03,0-.07,0-.07,0-.16,.01-.27,.04-.11,.03-.22,.04-.32,.04-.26,0-.51-.08-.7-.23-.87-.69-2.11-1.79-2.77-3.42-.14-.35-.22-.7-.29-1.02-.01-.06-.03-.13-.04-.19l-.05-.04c-.26-.24-.51-.46-.76-.68-.09-.08-.22-.15-.37-.23-.02-.01-.05-.02-.09-.02-.06,0-.14,.01-.23,.04-.74,.21-1.47,.31-2.16,.31-.64,0-1.27-.09-1.88-.26-.46-.13-.78-.44-.92-.85-.44,.21-.84,.4-1.22,.57-.17,.08-.32,.13-.46,.17-.05,.02-.11,.03-.16,.05-.17,.06-.34,.09-.5,.09-.26,0-.51-.08-.72-.22-1.45,.49-2.94,.99-4.48,1.34-.37,.09-.74,.14-1.09,.16-.03,0-.06,0-.09,0-.39,0-.79-.15-1.05-.4-.27-.25-.53-.54-.8-.88-.14-.18-.26-.36-.38-.54-.07-.11-.15-.23-.23-.33-.23-.32-.35-.32-.43-.32h-.07s-.04,0-.04,0c-.34,0-.67-.17-.89-.44-.1-.13-.21-.27-.32-.4-.46-.57-.93-1.16-1.29-1.87-.4-.78-.56-1.53-.5-2.28,.02-.28,.14-.54,.32-.74-.03-.1-.07-.2-.1-.3-.14-.01-.28-.05-.41-.11-.49-.26-1.06-.31-1.81-.32h-.65c-.38,0-.8,0-1.21-.04-.35-.03-.66-.12-.93-.19-.11-.03-.21-.06-.32-.08-.06-.02-.13-.03-.19-.03-.08,0-.16-.01-.24-.02-.23-.01-.48-.03-.76-.1-.55-.14-.98-.48-1.22-.95-.24-.47-.26-1.03-.06-1.57,.09-.24,.21-.44,.32-.61,.03-.04,.05-.08,.07-.13,.05-.08,.1-.16,.15-.25,.03-.05,.07-.1,.1-.15-.01-.02-.03-.05-.05-.08l-.36-.64,.51-.53c1.04-1.07,2.15-1.87,3.37-2.43,.37-.17,.74-.3,1.1-.43,.17-.06,.35-.12,.52-.19,.15-.06,.3-.09,.45-.09,.31,0,.6,.12,.81,.34,.48-.11,.95-.18,1.41-.25,.15-.02,.3-.05,.45-.07l-.45-.78h1.7c.3,0,.6,.01,.9,.02,.42,.02,.8,.1,1.17,.17,.13,.03,.26,.05,.39,.08,.23,.04,.47,.09,.7,.13,.21,.04,.41,.08,.62,.12,.62,.11,1.05,.6,1.08,1.25l.13,.03c.05-.37,.12-.73,.21-1.07-.47-.59-.6-1.33-.33-2.09,.29-.83,.82-1.48,1.55-1.92,.02-.65,.11-1.32,.26-2l.07-.3,.09-.08c0-.32,0-.65,.04-.98,.04-.37,.1-.74,.18-1.12l-.03-.03-.05-.05c-.1-.11-.24-.22-.39-.33-.13-.1-.26-.2-.39-.32-.26-.23-.56-.5-.82-.82-.36-.44-.61-.9-.84-1.35-.08-.15-.16-.3-.24-.45l-.05-.08-.19-.56c-.12-.35-.26-.75-.43-1.12l-.06-.12-.02-.13c-.02-.09-.03-.15-.05-.2-.04-.13-.11-.27-.18-.41-.06-.14-.14-.29-.2-.45-.21-.52-.21-1,0-1.43l.07-.18s.02-.05,.02-.08l.06-.19,.08-.1c.23-.64,.57-1.23,1.02-1.81,.24-.37,.5-.68,.75-.92,.16-.15,.38-.31,.66-.49,.21-.17,.45-.35,.69-.53l.03-.02c1.59-1.05,3.32-1.75,5.14-2.08,.56-1.71,.68-3.39,.35-5.11-.15-.81-.45-1.6-.87-2.36l-.93-1.72,1.72,.07h.35c.25,.02,.5,.03,.74,.05,2.89,.19,5.38,.86,7.63,2.06,2.17,1.15,3.77,2.65,4.88,4.59,.1,.17,.75,1.87,.77,1.98,.01,0,.03,0,.04,0,.12,0,.22,0,.3-.03,.16-.04,.32-.05,.48-.05,.45,0,.88,.14,1.3,.42,.12,.08,.24,.16,.35,.24,.12,.08,.24,.17,.36,.25,.2,0,.4,0,.6,0,2.15,0,4.26,.11,6.26,.33,3.25,.35,6.14,.98,8.82,1.93,1.95,.69,3.81,1.56,5.52,2.61,.04,.03,.17,.07,.26,.09,.05,.02,.11,.03,.16,.05,2.44,.83,4.42,1.93,6.06,3.36,.24,.21,.47,.43,.69,.65,.13,.12,.25,.25,.38,.37,.22,.21,.47,.57,.41,1.14-.06,.61-.33,1.15-.79,1.58-.17,.16-.35,.31-.52,.46-.15,.13-.3,.26-.45,.39-.78,.73-1.67,1.23-2.53,1.71-.15,.08-.29,.16-.44,.25-.42,.24-.85,.47-1.27,.7-.39,.21-.78,.42-1.18,.64-.61,.33-1.23,.67-1.85,1,.41,.33,.65,.86,.66,1.75,.01,.77-.24,1.5-.74,2.17-.28,.37-.58,.72-.87,1.06l-.08,.09c-.3,.35-.59,.7-.75,1.06l-.05,.11-.07,.09c-.19,.25-.35,.52-.47,.82l-.04,.09-.05,.08c-.21,.32-.36,.72-.52,1.14l-.02,.04c-.05,.13-.1,.26-.14,.39-.17,.47-.35,.96-.59,1.44-.54,1.07-1.42,1.64-2.56,1.64-.12,0-.25,0-.38-.02h-.11s-.1-.05-.1-.05c-.33-.11-.65-.26-1-.46l-.09-.05-.07-.07c-.38-.33-.84-.53-1.41-.6-.62-.08-1.31-.13-2.17-.15-.93-.03-1.99-.06-3.05-.36-.32-.09-.59-.23-.83-.35-.07-.03-.14-.07-.21-.1-.11-.05-.23-.11-.34-.17-.14-.07-.27-.14-.38-.19-.04-.02-.07-.02-.08-.03-.02,.01-.05,.04-.08,.08l-.84,.96-.73-.79-.1-.11c-.09-.1-.19-.2-.27-.3-.15-.17-.29-.35-.43-.52l-.16-.19c-.2-.25-.37-.28-.49-.28-.08,0-.16,.01-.25,.04-.23,.07-.48,.18-.74,.31-.09,.04-.17,.08-.26,.12-.32,.15-.66,.3-1.05,.4,.04,.61-.19,1-.39,1.22-.06,.07-.13,.13-.23,.2,.04,.1,.08,.19,.12,.29,.34,.81,.69,1.65,1.05,2.46,.14,.3,.32,.61,.52,.93,.07,.12,.15,.24,.22,.36,.32,.53,.26,.97,.1,1.29,.2,.47,.22,.94,.23,1.3v.04c0,.05,0,.11,.02,.16,.44,.25,.63,.63,.75,.86,.11,.22,.22,.42,.33,.63,.14,.25,.28,.52,.42,.79,.38,.77,.47,1.52,.28,2.24l.05,.14c.15,.39,.29,.76,.45,1.13,.09,.22,.2,.35,.31,.43,.21-.15,.46-.23,.75-.23,.06,0,.12,0,.18,0,2.48,.21,4.6,.72,6.5,1.58,.41,.18,.97,.51,1.22,1.26,.03,.09,.1,.2,.15,.3,.29,.49,.28,1.05-.03,1.5-.18,.26-.38,.5-.55,.7-.09,.11-.19,.2-.27,.28-.04,.04-.08,.08-.12,.12,0,0-.01,.01-.01,.02,0,0,0,.01,0,.02,.02,.05,.03,.1,.04,.15l.18,.74-.67,.36c-.08,.04-.15,.08-.22,.11-.14,.07-.27,.14-.37,.2-.21,.13-.49,.28-.83,.33-.17,.18-.4,.31-.68,.37-.22,.04-.43,.06-.62,.08l-.16,.02c-.27,.44-.74,.71-1.27,.71-.17,0-.33-.03-.49-.08-.23-.08-.47-.2-.72-.35-.09,.03-.17,.06-.25,.09-.09,.03-.19,.06-.28,.1-.22,.09-.23,.16-.24,.24-.07,.51-.53,.94-1.04,.98h-.15c-.27,.03-.54,.05-.83,.05Zm8.67-29.09c.11,.1,.22,.19,.32,.29,.08,.07,.19,.15,.3,.24,.11,.08,.22,.16,.32,.25,.18,.15,.43,.25,.72,.35,.34-.32,.63-.59,.89-.86-.01-.64,.09-1.21,.31-1.73-.04,0-.08,.02-.11,.03-.15,.03-.29,.07-.44,.1-.29,.07-.55,.23-.8,.48-.42,.42-.93,.71-1.52,.85Z" fill="#fff"></path><g><path d="M77.18,114.6c-.11,0-.21,0-.32,0-.01,.02-.02,.04-.04,.07,.06,.08,.1,.16,.17,.22,.02,.01,.13-.07,.17-.12,.03-.04,.01-.11,.01-.17Z" fill="none"></path><path d="M77.38,115.05c-.08,.11-.15,.22-.23,.34,.2,.12,.41,.11,.55-.03,.11-.11,.12-.32,0-.41-.13-.09-.23-.01-.31,.09Z" fill="none"></path><path d="M76.26,114.64c-.06,.17-.13,.33-.18,.5-.03,.11,.04,.2,.16,.2,.12,0,.28,.05,.33-.11,.06-.19-.08-.47-.31-.58Z" fill="none"></path><path d="M76.9,111.32c1.15-.46,2.35-.67,3.58-.7,1.18-.02,2.36,.01,3.49,.41,.28,.1,.58,.15,.88,.22,.07-.42,.06-.43-.28-.57-1.85-.73-3.75-.84-5.68-.43-2.17,.46-4.06,1.44-5.6,3.06-.26,.28-.53,.57-.74,.88-.19,.28-.15,.59,.08,.83,.08,.09,.23,.12,.34,.18,.04-.11,.11-.21,.12-.32,.01-.26,.05-.49,.22-.72,.94-1.28,2.11-2.25,3.59-2.84Z" fill="none"></path><path d="M116.99,132.89c-.16,.07-.32,.15-.48,.23,.15,.38,.39,.45,.71,.22,.12-.09,.15-.23,.08-.37-.08-.15-.19-.13-.31-.08Z" fill="none"></path><path d="M73.27,112.54c.14-.1,.27-.22,.43-.35-.2-.08-.35-.15-.51-.2-.13-.04-.27,.02-.28,.13-.02,.13,.02,.28,.08,.41,.06,.12,.19,.08,.27,.02Z" fill="none"></path><path d="M73.96,111.62s.04-.03,.07-.04c-.03-.09-.07-.17-.1-.26-.02,0-.05,0-.07,0-.02,.05-.07,.12-.06,.16,.03,.06,.1,.09,.16,.14Z" fill="none"></path><path d="M78.44,115.68c.13,.1,.25,.09,.35,0,.21-.16,.23-.4,.3-.63-.02-.01-.03-.02-.05-.03-.2,.21-.39,.42-.6,.65Z" fill="none"></path><path d="M92.63,119.31c-.67-.92-1.49-1.7-2.3-2.48-.8-.77-1.61-1.52-2.27-2.41-.25-.33-.47-.69-.68-1-.3,.2-.61,.4-.92,.61,.21,.7,.41,1.41,.63,2.11,.39,1.29,.85,2.56,1.53,3.74,.54,.93,1.21,1.76,2.02,2.47,.13,.12,.27,.18,.43,.12,.34-.11,.68-.22,.99-.37,.52-.25,1.01-.59,1.61-.71-.03-.09-.05-.16-.07-.24-.22-.67-.55-1.27-.96-1.84Z" fill="none"></path><path d="M110.4,134.86c-.08,.01-.23,.09-.23,.12,.01,.11,.06,.23,.14,.31,.09,.09,.21,.05,.29-.05,.08-.11,.14-.22,.23-.36-.17,0-.3-.03-.42,0Z" fill="none"></path><path d="M112.09,134.68c-.11,.02-.24,.02-.34,.07-.06,.03-.15,.15-.13,.18,.06,.12,.15,.29,.25,.31,.33,.06,.62-.27,.56-.59-.12,.01-.23,.02-.34,.03Z" fill="none"></path><path d="M86.08,117.45c.08-.23,.05-.39-.11-.57-.41-.45-.82-.88-1.4-1.11-.12-.05-.26-.07-.43-.12,.05,.11,.07,.16,.1,.22,.12,.2,.14,.4,.02,.61-.05,.1-.1,.2-.15,.29-.43,.68-1.03,1.17-1.68,1.63-.02,.02-.06,.02-.08,.04-.25,.1-.5,.2-.75,.3-.17,.07-.34,.15-.51,.21-.31,.1-.59,.03-.82-.21-.03-.03-.06-.06-.14-.13-.02,.18-.07,.34-.03,.47,.11,.33,.24,.65,.39,.97,.13,.26,.29,.51,.44,.76,.12,.2,.22,.41,.37,.59,.26,.31,.6,.43,1.01,.32,.77-.21,1.41-.61,1.97-1.18,.86-.88,1.4-1.94,1.81-3.09Z" fill="none"></path><path d="M82.92,114c.09,.17,.23,.32,.38,.45,.28,.24,.45,.22,.71-.05,.21-.23,.17-.39-.13-.48-.03,0-.06-.02-.12-.04,.18-.24,.35-.46,.51-.69,.02-.02,.04-.05,.05-.07,.06-.27,.13-.54,.17-.81,.05-.29-.08-.5-.35-.62-.13-.06-.26-.11-.39-.16-1.42-.51-2.87-.62-4.35-.42-1.38,.18-2.68,.6-3.79,1.46-.6,.46-1.14,1.03-1.68,1.56-.13,.13-.22,.31-.3,.48-.18,.41-.1,.61,.34,.71,.31,.07,.63,.04,.95,.05,.44,.01,.72-.24,.91-.6,.09-.17,.17-.35,.24-.54,.04-.09,.07-.2,.11-.31,.05,.02,.09,.03,.12,.05,.73,.3,1.48,.37,2.26,.26,.09-.01,.2-.04,.26-.11,.65-.68,1.47-.94,2.38-1,.76-.04,1.34,.19,1.71,.89Z" fill="none"></path><path d="M115.27,133.54c-.15,.07-.21,.22-.14,.35,.08,.15,.19,.14,.33,.09,.12-.04,.24-.07,.4-.12-.02-.17-.03-.36-.05-.54-.21,.08-.38,.14-.54,.22Z" fill="none"></path><path d="M88.39,120.46c-.57-1.01-1.17-2.01-1.74-2.97-.4,2.15-1.88,3.47-3.74,4.44,.29,.45,.57,.9,.87,1.34,.13,.19,.28,.37,.43,.55,.22,.26,.49,.37,.84,.27,.14-.04,.29-.05,.43-.1,1.12-.36,2.24-.72,3.37-1.07,.18-.06,.21-.14,.2-.31-.05-.77-.29-1.48-.66-2.15Z" fill="none"></path><path d="M78.15,114.81c-.04,.07,.03,.29,.09,.31,.17,.05,.2-.12,.28-.28-.16,.03-.25-.25-.38-.03Z" fill="none"></path><path d="M98.41,97.75c-.08,.33-.1,.66,.05,.97,0,0,0,0,0,.01,.21-.44,.41-.89,.58-1.34,.3-.78,.5-1.58,.51-2.4,0-.49-.06-.96-.25-1.41-.06-.14-.12-.28-.25-.38-.29-.22-.61-.37-.98-.44-.06-.01-.14,0-.21,0-.58,.07-1.12,.29-1.62,.57-.73,.41-1.34,.94-1.91,1.53-.27,.28-.52,.56-.76,.86,.05,.4,.11,.79,.21,1.17,.02,.16,.06,.31,.12,.47,.02,.04,.06,.08,.1,.11,.06,.08,.12,.15,.2,.2,0,0,.02,.02,.03,.03,.3,.29,.68,.08,.97-.12,.26-.18,.5-.4,.68-.67,.04-.06,.07-.12,.1-.18,.41-.41,.57-.99,1.12-1.28,.73-.39,1.24,0,1.59,.65,.05,.33,0,.67-.12,1.04-.07,.2-.12,.4-.17,.6Z" fill="none"></path><path d="M89.5,101.8c-.01,.7,.07,1.38,.33,2.02,.01,.04,.03,.07,.05,.1-.01-.26-.04-.53-.03-.79,.01-.76,.19-1.51,.45-2.25,.07-.2,.15-.4,.23-.59-.23-.16-.46-.32-.71-.46-.18,.64-.3,1.3-.31,1.97Z" fill="none"></path><path d="M99.95,94.55c-.04-.13-.1-.25-.14-.37h-.02c.07,.37,.07,.73,.05,1.1-.05,.77-.25,1.52-.53,2.26-.18,.49-.4,.96-.64,1.43,.1,.07,.21,.11,.34,.1,.04,0,.08,0,.11-.02,0,0,0,0,.01,0,.1-.02,.21-.07,.3-.12,.13-.08,.22-.17,.3-.3,.03-.04,.05-.08,.08-.13,.01-.02,.03-.05,.04-.07,0,0,0,0,.01,0,.03-.11,.06-.21,.09-.32,0,0,0,0,0,0,0-.02,.01-.04,.02-.06,.08-.3,.13-.59,.18-.89,0-.08,0-.17,0-.25,0-.02,0-.04,0-.06,.02-.04,.03-.09,.04-.13,0-.06,.01-.12,.01-.18,.03-.68-.02-1.34-.24-1.97Z" fill="none"></path><path d="M92.9,105.39c.21-.05,.43-.1,.64-.16,.49-.15,.95-.36,1.4-.6-.09-.11-.19-.22-.29-.32-.53,.43-1.1,.8-1.74,1.06,0,0,0,.02,0,.03Z" fill="none"></path><path d="M92.72,102.4s-.03-.03-.04-.04c-.59-.69-1.21-1.35-1.92-1.9-.31,.79-.55,1.59-.6,2.42-.04,.56,0,1.1,.21,1.62,.04,.11,.09,.23,.17,.33,.16,.13,.32,.26,.5,.36,.12,.06,.24,.11,.37,.15,.16,.05,.33,.07,.5,.03,.21-.05,.43-.1,.67-.15,.25-.12,.53-.23,.8-.38,.38-.21,.74-.45,1.06-.72-.09-.08-.18-.15-.28-.23-.22-.19-.44-.37-.66-.55l-.17-.2s-.02-.02-.02-.03c-.18-.22-.36-.43-.54-.64,.02,0,.05,0,.07,0-.04-.02-.08-.04-.12-.06Z" fill="none"></path><path d="M83.18,109.36s-.13-.08-.16-.06c-.11,.09-.1,.21,0,.34,.08-.09,.26-.12,.16-.29Z" fill="none"></path><path d="M94.3,94.52c.47-.47,.97-.9,1.55-1.25,.31-.19,.63-.35,.95-.52-.12,.02-.24,.04-.35,.07-.07,.04-.14,.08-.2,.13h-.01c-.19,.01-.37,.06-.55,.11-.13,.05-.25,.1-.38,.16-.68,.32-1.3,.72-1.86,1.17,.04,.31,.07,.63,.1,.95,.24-.28,.49-.56,.76-.83Z" fill="none"></path><path d="M82.31,109.66c.1,0,.22-.01,.22-.16,0-.13-.13-.31-.23-.31-.14,0-.28-.01-.42,0-.26,.03-.34,.14-.31,.44,.25,0,.5,.02,.74,.02Z" fill="none"></path><path d="M75.34,110.54c.08,.08,.17,.17,.28,.28,.03-.3-.02-.35-.28-.28Z" fill="none"></path><path d="M76.24,110.61c.17-.07,.33-.17,.5-.22,.16-.05,.13-.13,.06-.21-.07-.09-.16-.15-.25-.25-.09,.06-.18,.12-.27,.16-.17,.08-.22,.21-.23,.38,0,.17,.03,.2,.19,.13Z" fill="none"></path><path d="M74.63,111.49c.13-.05,.25-.09,.35-.15,.13-.07,.14-.18,.02-.28-.08-.07-.19-.12-.29-.15-.06-.02-.17-.02-.21,.02-.05,.05-.07,.16-.05,.23,.03,.11,.1,.21,.17,.33Z" fill="none"></path><path d="M83.79,109.97c.13,.04,.26,.07,.42,.12,.06-.03,.14-.07,.22-.11-.05-.09-.07-.2-.15-.25-.1-.07-.24-.13-.36-.13-.09,0-.18,.12-.24,.2-.06,.09,.03,.14,.11,.17Z" fill="none"></path><path d="M126.9,107.04c.21,.35,.23,.73,.09,1.1-.12,.3-.27,.59-.42,.88-.13,.26-.26,.51-.4,.76,.02,.01,.03,.02,.05,.03,.16-.07,.26-.21,.34-.37,.19-.36,.36-.74,.6-1.07,.38-.53,.82-1.02,1.23-1.54,.37-.47,.67-.97,.79-1.56,.06-.28,.02-.39-.23-.52-.1-.05-.21-.09-.31-.1-.18-.01-.36,0-.48,.17-.43,.68-.85,1.35-1.27,2.03-.03,.05-.03,.14,0,.19Z" fill="none"></path><path d="M117.65,106.89c-.09,.04-5.63,1.74-5.72,1.49,1.31,1.24,.56,1.65,.56,1.65,0,0,5.04-1.92,5.16-3.15Z" fill="none"></path><path d="M117.19,108.91c-.6,.69-1.25,1.31-2.03,1.8-.21,.13-.37,.35-.57,.55,.13,.08,.19,.13,.26,.17,.77,.47,1.62,.71,2.5,.8,.99,.11,1.98,.17,2.97,.25,.82,.06,1.6,.21,2.3,.7,.21,.15,.47,.25,.71,.34,.55,.2,1.05,.11,1.47-.32,.45-.46,.75-.99,.72-1.67-.03-.75,.25-1.43,.5-2.12,.16-.45,.3-.91,.41-1.37,.06-.23,.02-.48,.03-.73-.64,.12-1.05,.47-1.33,.99-.22,.42-.4,.85-.61,1.28-.25,.51-.61,.92-1.16,1.12-.15,.06-.21-.01-.23-.14-.01-.08,0-.18,.03-.25,.1-.24,.27-.42,.5-.54,.1-.05,.2-.12,.27-.21,.28-.33,.35-.75,.46-1.21-.09,.08-.13,.11-.17,.16-.44,.48-.88,.96-1.32,1.44-.52,.56-.62,.58-1.35,.34-.68-.23-1.25-.64-1.83-1.05-.44-.31-.89-.61-1.34-.91-.12-.09-.24-.09-.38-.03-.33,.13-.6,.34-.82,.6Z" fill="none"></path><path d="M113.16,98.1c.02-.08,0-.17,.01-.26-.02,0-.03-.01-.05-.02-.09,.09-.19,.17-.27,.27-.38,.46-.52,1-.61,1.58-.07,.48-.01,.92,.21,1.35,.29,.56,.65,1.05,1.12,1.47,.84,.75,1.84,1.18,2.91,1.49,1.21,.35,2.46,.5,3.72,.63,.25,.02,.33-.03,.37-.29,.01-.1,.03-.2,.02-.29-.02-.42-.04-.83-.07-1.27-.18,.03-.36,.04-.54,.09-.6,.17-1.2,.35-1.8,.51-.29,.08-.58,.13-.89,.2-.07-.75,.36-1.35,.43-2.05-.23,.07-.43,.14-.63,.2-.75,.25-1.49,.54-2.28,.62-.15,.02-.3,0-.47,.01,.19-.88,.37-1.73,.54-2.54-.39-.01-.77-.04-1.15-.03-.23,0-.46,.04-.69,.1-.14,.03-.2,0-.2-.12,0-.16,0-.32,.02-.47,.08-.39,.19-.77,.29-1.16Z" fill="none"></path><path d="M124.13,101.01c-.76-.39-1.57-.62-2.4-.83-1.19-.29-2.39-.56-3.58-.87-.74-.19-1.46-.44-2.09-.88-.68-.47-1.02-1.1-.86-1.94,.03-.19,.1-.38,.15-.6-.71,.4-1.22,.98-1.79,1.49,0,.02,0,.04,.01,.07,.32-.01,.65-.02,.99-.03,.06,.14,0,.27-.08,.39-.14,.2-.29,.38-.42,.58-.12,.19-.19,.4-.14,.65,.18-.05,.34-.09,.51-.13,.48-.1,.95-.18,1.44-.08,.11,.02,.15,.07,.13,.19-.04,.25-.08,.51-.1,.77-.05,.47-.09,.94-.14,1.45,.31-.08,.62-.14,.91-.24,.53-.18,1.06-.4,1.59-.58,.25-.08,.52-.12,.8-.18,.01,.12,.04,.2,.03,.28-.03,.29-.07,.57-.11,.86-.05,.32-.08,.64,.05,.96,1.16-.12,2.25-.5,3.32-.93-.12,.82-.24,1.6-.36,2.44,.65-.04,1.24-.03,1.81-.11,.61-.09,1.21-.25,1.82-.39,.05-.01,.1-.1,.1-.15,.02-.41-.09-.79-.32-1.13-.31-.47-.76-.78-1.25-1.04Z" fill="none"></path><path d="M126.95,106.1c.27-.48,.51-.97,.77-1.47-.1-.03-.21-.06-.32-.08-.4-.07-.65,.07-.78,.45-.05,.14-.08,.28-.11,.43-.09,.46-.1,.95-.39,1.41,.4-.16,.65-.41,.83-.73Z" fill="none"></path><path d="M125.49,105.85c-.11,.49-.18,.99-.28,1.52,.56-.63,.85-1.34,.96-2.16-.4,.06-.6,.3-.68,.64Z" fill="none"></path><path d="M124.94,106.11c-.19,.18-.51,.96-.58,1.37,.34-.1,.6-.73,.58-1.37Z" fill="none"></path><path d="M135.58,95.02c-1.07-.67-2.22-1.16-3.36-1.68-.66-.3-1.32-.58-2.05-.68-.45-.06-.9-.14-1.34-.25-.33-.08-.65-.2-.97-.3,0-.03,0-.07,.01-.1,.43-.02,.86-.04,1.31-.06-.05-.04-.08-.06-.11-.08-.85-.57-1.75-1.05-2.68-1.45-2.5-1.08-5.14-1.7-7.83-2.07-1.74-.24-3.48-.37-5.23-.38-1.28,0-2.55,.03-3.82,.21-.52,.07-1.06,.12-1.44,.56-.17,.19-.36,.36-.51,.56-1.08,1.46-1.58,3.12-1.7,4.91-.09,1.44,.11,2.86,.44,4.25,.34,1.44,.73,2.87,1.07,4.31,.38,1.57,.6,3.16,.47,4.78-.01,.16-.03,.31-.05,.49,.08,0,.15,0,.21-.02,.39-.04,.78-.08,1.17-.13,1.44-.18,2.89-.33,4.33-.56,1.35-.21,2.63-.64,3.83-1.32,.14-.08,.19-.15,.13-.31-.02-.05,0-.14,.03-.18,.03-.04,.13-.05,.18-.03,.76,.29,1.55,.38,2.35,.33,.27-.02,.45-.15,.55-.39,.09-.21,.06-.3-.16-.36-.26-.08-.52-.14-.79-.18-1.04-.15-2.08-.29-3.12-.44-1.76-.26-3.16-1.17-4.32-2.47-.42-.47-.76-1.01-.81-1.66-.08-1.04,.2-1.99,.83-2.83,.54-.72,1.24-1.26,1.95-1.78,.74-.54,1.47-1.09,2.21-1.63,.13-.1,.25-.23,.4-.37-.16-.05-.28-.1-.41-.13-.21-.06-.43-.11-.64-.17-.18-.06-.32-.18-.35-.42,1.42-.31,2.69,.14,3.96,.66-.06,.17-.18,.22-.33,.18-.18-.04-.35-.11-.53-.16-.21-.06-.44-.09-.62,.06-.47,.4-.95,.8-1.39,1.23-.39,.39-.66,.87-.76,1.42-.11,.6,.03,1.11,.56,1.47,.27,.18,.55,.36,.84,.49,1.04,.48,2.15,.71,3.25,1,1.21,.31,2.42,.63,3.62,.98,.65,.19,1.27,.49,1.79,.96,.45,.41,.67,.9,.58,1.51-.03,.18-.08,.36-.13,.57,.18-.12,.34-.22,.5-.32,.97-.61,2.03-1.05,3.06-1.53,.75-.35,1.49-.72,2.18-1.19,.06-.04,.11-.08,.18-.14-.37-.08-.75,.17-1.08-.18,2.63-.3,4.74-1.5,6.48-3.43-.06-.06-.11-.12-.16-.17-.55-.53-1.15-1-1.8-1.4Zm-28.26-.93c-.19,.66-.36,1.33-.28,2.03,.04,.34,.13,.67,.21,1.01,0,0-.06,0-.08-.01-.12-.1-.29-.19-.35-.33-.78-1.7-.3-3.72,1.36-4.79,0,0,.02,0,.11-.03-.04,.16-.07,.28-.1,.4,0,.01-.01,.02-.02,.03-.58,.41-.66,1.07-.84,1.68Zm1.26,3.16c-.3-.37-.39-.75-.43-1.15-.14-1.38,.39-2.49,1.38-3.41,.17-.16,.41-.26,.63-.38,.05-.03,.12,0,.19,.02-1.25,1.4-1.69,3.07-1.76,4.93Zm4.09-4.39c-.17,.2-.38,.36-.56,.56-.67,.76-1.05,1.67-1.31,2.63-.13,.47-.24,.95-.37,1.46-.14-.37-.2-.72-.2-1.08,0-1.27,.56-2.32,1.34-3.27,.25-.3,.58-.49,.96-.59,.06-.02,.14,.02,.21,.03-.02,.09,0,.2-.06,.26Zm13.1,.59c-.75-.1-1.49-.23-2.24-.33-.73-.1-1.45-.08-2.14,.19-.18,.07-.36,.13-.52-.02-.15-.15-.09-.31-.02-.48-.61-.39-.96-1.08-1.64-1.4,.11,0,.23,.03,.33,0,.08-.02,.19-.12,.19-.18,0-.13-.13-.17-.25-.15-.1,.02-.19,.08-.29,.11-.09,.03-.18,.06-.26,.04-.06-.01-.13-.08-.16-.15-.01-.03,.05-.13,.1-.15,.24-.1,.49-.2,.74-.26,.78-.17,1.55-.37,2.36-.38,.56-.01,1.11,.04,1.59,.36,.21,.14,.39,.34,.55,.54,.38,.47,.74,.97,1.13,1.43,.39,.46,.9,.76,1.52,.82,0,.02,0,.04,0,.05-.33-.01-.66,0-.98-.04Zm7.8,2.43c-.15-.04-.3-.1-.45-.16-.17-.07-.33-.06-.51,0-.95,.38-1.8,.93-2.57,1.59-.34-.18-.68-.36-1-.55-.14-.08-.28-.18-.39-.3-.22-.21-.21-.44,0-.66,.1-.1,.22-.17,.33-.26,.05-.04,.08-.08,.12-.12-.04-.04-.08-.09-.13-.11-.13-.07-.27-.12-.4-.21,1.79-.18,3.5,.29,5.24,.64-.05,.15-.14,.16-.24,.13Z" fill="none"></path><path d="M118.13,132.53s-.07,.13-.05,.17c.02,.05,.1,.09,.16,.11,.07,.02,.15,.02,.22,0,.1-.03,.25-.05,.29-.13,.06-.11,.03-.26,.04-.39-.15,.03-.24,.04-.32,.07-.12,.04-.24,.09-.34,.16Z" fill="none"></path><path d="M123.31,91.91c.07,.08,.11,.12,.14,.17,.03,.06,.06,.13,.05,.18-.06,.26,0,.39,.26,.41,.26,.03,.52,.02,.83,.03-.23-.33-.44-.62-.64-.9-.22,.03-.41,.06-.65,.1Z" fill="none"></path><path d="M122.29,90.94c-.48,0-.96,0-1.44,0-.31,0-.39,.05-.5,.34-.05,.14-.09,.28-.12,.37,.24,.2,.45,.37,.66,.54,.15,.12,.28,.26,.43,.37,.25,.18,.52,.26,.84,.15-.23-.62,.06-1.18,.19-1.76-.04,0-.06-.01-.08-.01Z" fill="none"></path><path d="M129.85,96.15c.16,.08,.32,.15,.49,.21,.33,.11,.61,.01,.8-.28-.05-.03-.1-.06-.16-.08-.29-.06-.58-.12-.87-.17-.08-.01-.17-.03-.23,0-.06,.03-.11,.11-.12,.18,0,.04,.05,.11,.1,.14Z" fill="none"></path><path d="M115.19,130.43s.04-.19,.04-.29c0-.13-.04-.26-.06-.42-.21,.2-.25,.44-.33,.71,.13,0,.26,.04,.35,0Z" fill="none"></path><path d="M116.78,129.62c-.18,.23-.34,.42-.5,.63,.29,.08,.48-.15,.5-.63Z" fill="none"></path><path d="M114.58,129.63c.2-.24,.37-.49,.57-.76-.22-.02-.41-.05-.6-.06-.05,0-.1,.02-.12,.02-.06,.23-.12,.43-.15,.63-.01,.09,.04,.19,.06,.28,.08-.03,.2-.05,.25-.11Z" fill="none"></path><path d="M118.23,131.78c-1.06,.23-2.05,.67-3.05,1.09-1.12,.47-2.24,.93-3.46,1.04-.79,.07-1.57,.09-2.32-.25-.07-.03-.16-.07-.23-.06-.06,0-.15,.07-.17,.12-.05,.2,.08,.4,.28,.45,.99,.25,1.98,.21,2.97-.03,1.01-.25,1.96-.67,2.91-1.08,.61-.26,1.19-.61,1.86-.73,.36-.07,.72-.17,1.07-.27,.78-.21,1.24-.77,1.57-1.47,.11-.25,.05-.4-.2-.52-.1,.25-.17,.5-.29,.72-.12,.23-.29,.43-.43,.64-.13,.2-.31,.29-.54,.34Z" fill="none"></path><path d="M115.77,130.23c.14-.2,.29-.4,.43-.61,.07-.11,.13-.23,.18-.36,.02-.06,.02-.15,0-.21-.04-.1-.38-.21-.5-.18-.17,.05-.21,.19-.21,.33,0,.34,.04,.69,.06,1.03,.01,0,.03,0,.04,0Z" fill="none"></path><path d="M107.01,103.21c-.08-.33-.19-.66-.29-.99-.57-1.91-1.13-3.83-1.39-5.81-.21-1.58-.21-3.15,.18-4.7,.35-1.37,.98-2.58,2.02-3.55,.36-.34,.76-.54,1.27-.46,0,0,.02-.01,.06-.05-.06-.05-.13-.08-.17-.14-.38-.42-.59-.47-1.16-.21-.41,.19-.82,.39-1.22,.61-.2,.12-.4,.27-.55,.45-1.01,1.29-1.53,2.77-1.65,4.4-.09,1.33,.06,2.64,.25,3.94,.22,1.54,.46,3.08,.65,4.63,.13,1.07,.08,2.15-.12,3.21-.06,.34-.14,.67-.22,1.02,.04,0,.08,0,.11-.01,.5-.07,1-.14,1.49-.23,.2-.03,.38-.03,.56,.1,.08,.06,.17,.09,.27,.12,.21,.06,.32-.01,.33-.23,0-.06,0-.12-.01-.18-.14-.64-.27-1.28-.42-1.92Z" fill="none"></path><path d="M104.73,121c-.8,.27-1.59,.54-2.38,.84-.88,.34-1.68,.81-2.4,1.46,.06,.05,.1,.1,.14,.14,.55,.5,1.1,.99,1.66,1.49,.04,.03,.09,.06,.14,.06,.75,.1,1.49,.05,2.23-.13,1.27-.3,2.37-.93,3.37-1.76q.41-.34,.38-.87s0-.06,0-.09c.04-.17,.07-.34,.12-.51,.03-.1,.1-.19,.1-.28,.02-.58-.19-1.09-.56-1.54-.88,.53-1.84,.87-2.8,1.2Z" fill="none"></path><path d="M104.94,112.97c-.4-.21-.81-.41-1.21-.61-.1-.05-.2-.1-.3-.14-.45-.15-.92-.27-1.36-.45-1.34-.55-2.67-1.12-4-1.68-.35-.15-.69-.28-1.08-.26-.25,.01-.51,0-.76-.02-.08,0-.15-.03-.25-.05,0,.01,0,.03,0,.04-.14-.08-.3-.15-.45-.21,0,0,.02,0,.02,0-.31-.19-.62-.38-.99-.42-.54-.05-1.09-.09-1.63-.12-.27-.01-.54,.02-.81,.03,0,0,0,.02,0,.03-.04,0-.08,0-.12,0-.11,0-.2-.01-.29,0-.42,.01-.85,.03-1.27,.05-.6,.03-1.2,.07-1.8-.07-.21-.05-.29-.02-.34,.21-.08,.38-.17,.76-.21,1.14-.14,1.46,.27,2.78,1.06,3.99,.72,1.1,1.65,2.02,2.62,2.91,.92,.84,1.84,1.68,2.76,2.52,.09,.09,.15,.22,.21,.34,.02,.03-.01,.09-.02,.13-.04-.01-.09-.01-.12-.03-.06-.04-.11-.09-.17-.14-.43-.36-.86-.72-1.3-1.08,0,.01-.02,.02-.03,.03,.08,.13,.16,.25,.23,.38,.59,.96,1.1,1.96,1.32,3.08,.01,.05,.09,.12,.14,.13,.31,.06,.61,.12,.93,.15,1.16,.11,2.29-.04,3.37-.43,1.2-.43,2.37-.93,3.56-1.41,.03-.01,.07-.03,.1-.04,0,0,.01,0,.02,0,.78-.27,1.52-.68,2.32-.9,.49-.13,.95-.24,1.35-.5,.07-.01,.13-.03,.18-.05,.03,0,.06-.02,.09-.04,.3-.18,.6-.38,.88-.56-.29-.79-.57-1.53-.84-2.28-.44-1.21-.92-2.41-1.62-3.5-.05-.07-.12-.14-.2-.18Z" fill="none"></path><path d="M105.49,124.9c-1.05,.43-2.14,.62-3.26,.71-.29,.02-.52-.02-.68-.27-.03-.05-.11-.06-.21-.11,.02,.11,.02,.19,.04,.25,.23,.54,.42,1.09,.7,1.6,.39,.72,.96,1.28,1.76,1.55,.1,.03,.22,.05,.32,.03,.49-.1,.99-.19,1.47-.33,1.66-.49,3.09-1.34,4.18-2.71,.14-.17,.26-.35,.26-.57,0-.29,0-.59-.07-.88-.18-.77-.66-1.39-1.09-2.03-.03-.05-.09-.08-.15-.11-.15-.08-.25-.04-.29,.13-.03,.15-.01,.31-.03,.46-.01,.1-.04,.21-.1,.28-.79,.9-1.75,1.57-2.87,2.02Z" fill="none"></path><path d="M113.73,130.31c.09-.05,.19-.14,.23-.23,.04-.09,0-.2,0-.31-.04-.33-.14-.66,.02-.99-.27-.06-.48,.04-.58,.3-.14,.38-.09,.75,.11,1.1,.05,.09,.11,.19,.22,.13Z" fill="none"></path><path d="M138.17,96.29c-.35-.33-.68-.67-1.04-.99-1.68-1.47-3.63-2.45-5.73-3.17-.21-.07-.43-.12-.62-.24-1.69-1.03-3.47-1.86-5.33-2.52-2.79-.98-5.66-1.56-8.6-1.88-2.29-.25-4.58-.34-6.88-.32-.1,0-.21-.03-.29-.08-.28-.18-.56-.38-.84-.57-.51-.34-1-.23-1.58-.17-.35,.04-.58-.04-.89-.16,0-.03,0-.07,0-.1-.02-.34-.32-1.42-.42-1.62-.1-.2-.2-.4-.31-.6-1.08-1.88-2.63-3.22-4.49-4.21-2.27-1.21-4.71-1.78-7.24-1.95-.35-.02-.69-.03-1.07-.05,.05,.09,.08,.15,.11,.2,.46,.83,.8,1.72,.97,2.65,.41,2.14,.17,4.19-.58,6.16-.05,.01-.1,.02-.15,.03-1.89,.27-3.61,.96-5.18,2-.24,.17-.47,.35-.69,.53-.23,.14-.43,.28-.56,.4-.24,.22-.45,.51-.63,.78-.38,.48-.7,1.01-.91,1.63-.02,.07-.06,.12-.09,.17-.01,.05-.03,.09-.05,.14,0,.05-.01,.11-.05,.17-.16,.24-.13,.48-.02,.74,.12,.31,.29,.6,.4,.92,.04,.11,.06,.23,.08,.34,.19,.39,.34,.81,.48,1.23,.05,.16,.11,.32,.16,.47,.32,.56,.57,1.16,.98,1.66,.21,.26,.46,.49,.72,.71,.28,.25,.6,.44,.85,.71,0,0,0,0,.01,0,.02,0,.04,0,.06,.01,.15,.05,.3,.12,.45,.18-.17,.57-.3,1.15-.36,1.75-.04,.43-.05,.85-.02,1.27-.07,.07-.13,.14-.2,.21-.17,.73-.26,1.47-.24,2.22,0,.13-.05,.19-.16,.24-.7,.31-1.19,.84-1.44,1.57-.2,.56-.03,1.04,.43,1.4,.04,.03,.07,.13,.06,.17-.44,1.24-.46,2.52-.31,3.8,.02,.19,0,.31-.17,.41-.61,.39-1.22,.79-1.84,1.19-.07-.04-.16-.09-.24-.13,.05-.09,.1-.18,.16-.26,.02-.03,.04-.05,.04-.08,.11-.35,.27-.69,.31-1.05,.07-.58,.05-1.17,.07-1.76-.29-.06-.36-.13-.4-.46-.01-.12-.02-.24-.03-.37-.01-.18-.09-.31-.28-.35-.44-.08-.88-.17-1.32-.25-.48-.09-.95-.22-1.43-.24-.29-.01-.57-.02-.86-.02,.02,.03,.03,.05,.04,.08,.02,.04,.03,.07,.05,.11,.02,.05,.05,.1,.06,.15,.02,.03,.04,.07,.07,.11-.07,.03-.13,.07-.19,.08-.28,.07-.56,.14-.84,.19-.71,.13-1.44,.21-2.14,.38-.36,.09-.6,.06-.81-.24-.06-.09-.15-.11-.26-.07-.52,.2-1.06,.36-1.56,.6-1.17,.54-2.18,1.3-3.08,2.23,.25,.44,.27,.63,.07,1-.08,.16-.19,.3-.28,.45-.11,.2-.24,.39-.32,.6-.21,.56,.03,1.07,.61,1.22,.27,.07,.57,.06,.86,.09,.1,.01,.2,.03,.3,.05,.37,.09,.73,.22,1.11,.26,.59,.05,1.19,.03,1.78,.04,.78,0,1.55,.05,2.26,.43,.04,.02,.12,0,.18-.04,.19-.1,.37-.06,.5,.12,.01,.02,.03,.04,.03,.06,.1,.31,.21,.61,.31,.92,.14,.39,.08,.59-.23,.86-.04,.04-.07,.11-.08,.17-.05,.63,.11,1.21,.4,1.77,.4,.78,.97,1.43,1.5,2.11,.03,.03,.08,.06,.12,.06,.59-.04,.99,.27,1.31,.71,.2,.28,.38,.58,.59,.85,.22,.27,.45,.54,.7,.77,.1,.09,.28,.14,.42,.14,.31-.02,.62-.07,.93-.14,1.6-.37,3.16-.9,4.72-1.43,.18-.06,.31-.06,.42,.11,.12,.18,.28,.2,.46,.13,.18-.06,.37-.11,.54-.19,.65-.3,1.3-.6,1.95-.91,.31-.15,.47-.08,.53,.27,.03,.18,.05,.36,.07,.55,.02,.18,.09,.28,.28,.33,1.18,.34,2.34,.27,3.51-.05,.35-.1,.69-.12,1.02,.05,.2,.1,.39,.21,.56,.35,.35,.29,.68,.6,1.02,.91,.03,.03,.05,.07,.06,.11,.12,.43,.19,.89,.35,1.3,.51,1.26,1.42,2.19,2.47,3.02,.04,.03,.13,.03,.18,.01,.31-.08,.63-.11,.93,0,.37,.14,.73,.31,1.07,.52,.65,.41,1.23,.94,2.03,1.09-.01,.08-.02,.15-.03,.22-.06,.41-.13,.82-.17,1.24-.02,.23,.09,.32,.32,.3,.13-.01,.25-.05,.38-.09,.12-.03,.23-.04,.28,.09,.05,.12,.09,.24-.04,.35-.08,.07-.15,.17-.21,.25-.29,.41-.23,.71,.2,.96,.24,.14,.5,.26,.75,.39,.33,.17,.62,.38,.65,.75,.65,.05,1.28,.11,1.91,.13,.36,.02,.72-.02,1.08-.05,.06,0,.14-.08,.15-.14,.07-.51,.38-.81,.82-1,.24-.1,.5-.17,.74-.28,.21-.1,.37-.06,.55,.07,.2,.14,.42,.26,.65,.34,.3,.1,.59-.07,.67-.36,.04-.15,.14-.25,.29-.28,.12-.02,.24-.02,.37-.03,.24-.03,.48-.04,.71-.09,.12-.02,.21-.11,.19-.27,0-.06,.02-.13,.04-.23,.36,.23,.65,.11,.94-.07,.2-.13,.42-.23,.65-.35,0-.02-.01-.05-.02-.07-.13-.38-.06-.73,.21-1.02,.12-.13,.25-.24,.36-.37,.17-.2,.34-.4,.49-.62,.09-.14,.09-.29,0-.45-.09-.16-.19-.32-.24-.5-.12-.35-.37-.53-.69-.67-1.97-.89-4.04-1.32-6.18-1.5-.16-.01-.3,0-.36,.17-.06,.19-.2,.19-.37,.16-.65-.12-1.07-.54-1.32-1.12-.22-.51-.41-1.04-.61-1.56-.02-.04-.02-.1,0-.14,.23-.61,.13-1.2-.14-1.76-.23-.47-.5-.93-.74-1.4-.11-.21-.2-.4-.44-.49-.21-.08-.32-.29-.37-.5-.03-.14-.06-.29-.06-.44-.02-.53-.03-1.06-.51-1.46,.1-.08,.18-.13,.25-.2,.2-.18,.2-.29,.06-.51-.27-.46-.57-.91-.79-1.39-.51-1.15-.99-2.31-1.47-3.47-.05-.12-.1-.23-.15-.37,.13,0,.22,0,.32,.01,.49,.01,.71-.24,.67-.72-.03-.34-.13-.65-.31-.92,.19,0,.38,.02,.57,.02,.49,0,.93-.2,1.37-.4,.37-.17,.74-.36,1.13-.48,.7-.2,1.31-.01,1.78,.56,.19,.23,.38,.47,.57,.7,.11,.13,.23,.25,.35,.38,.06-.07,.09-.11,.13-.15,.36-.41,.75-.52,1.26-.32,.27,.11,.52,.27,.79,.39,.29,.14,.58,.31,.89,.4,.92,.26,1.86,.3,2.81,.32,.75,.02,1.51,.06,2.26,.16,.73,.09,1.39,.35,1.94,.84,.27,.16,.54,.28,.83,.38,.83,.09,1.52-.19,1.97-1.09,.28-.56,.47-1.16,.69-1.74,.18-.48,.36-.96,.64-1.39,.15-.37,.35-.72,.6-1.05,.21-.49,.55-.9,.9-1.31,.31-.36,.62-.72,.9-1.09,.35-.46,.56-.98,.55-1.57-.01-.96-.31-1.13-.99-1.29-.32-.08-.58-.01-.82,.2-.05,.04-.14,.05-.21,.04-.21-.02-.41-.07-.62-.07-.47,0-.78,.26-.95,.69-.48-.04-.82,.16-1.08,.55-.03,.04-.08,.08-.12,.1-.36,.18-.63,.46-.83,.81-.28,.5-.37,1.05-.35,1.62,0,.23-.04,.43-.2,.59-.45,.44-.9,.87-1.36,1.3-.04,.04-.13,.06-.18,.04-.51-.19-1.05-.32-1.48-.68-.22-.18-.46-.33-.66-.52-.59-.55-1.23-1.04-1.91-1.47-.06-.04-.13-.08-.19-.13,.08-.05,.15-.06,.22-.07,.24,0,.48,.03,.72,0,.37-.06,.73-.19,1.09-.25,.48-.08,.89-.28,1.24-.63,.35-.35,.77-.61,1.26-.74,.4-.1,.8-.19,1.2-.29,1.67-.46,3.32-.98,4.87-1.78,1.42-.74,2.82-1.51,4.23-2.28,.42-.23,.84-.46,1.26-.69,.96-.55,1.96-1.05,2.78-1.82,.31-.29,.65-.56,.97-.85,.28-.26,.45-.58,.49-.97,.01-.13,0-.24-.11-.33Zm-43.17-17.5c2.35,.2,4.47,1.05,6.4,2.44,1.43,1.02,2.61,2.29,3.44,3.88,.12,.23,.22,.46,.32,.68-.05-.11-.67-.16-.8-.19-.3-.07-.6-.14-.91-.2-.61-.12-1.22-.21-1.84-.28-1.23-.14-2.47-.18-3.71-.12-.49,.02-.97,.06-1.45,.12-.17,.02-1.17,.03-1.21,.25,.21-1.1,.22-2.21,.05-3.32-.17-1.08-.41-2.16-.62-3.26,.07,0,.2,0,.32,0Zm-1.7,24.32s.02,.02,.02,.03l.17,.2c.22,.18,.43,.36,.66,.55,.1,.07,.19,.15,.28,.23-.33,.27-.68,.51-1.06,.72-.26,.14-.55,.26-.8,.38-.24,.06-.46,.1-.67,.15-.17,.04-.34,.02-.5-.03-.13-.04-.26-.09-.37-.15-.18-.11-.34-.23-.5-.36-.08-.09-.12-.21-.17-.33-.2-.52-.25-1.06-.21-1.62,.05-.83,.29-1.63,.6-2.42,.71,.55,1.33,1.21,1.92,1.9,.01,.01,.03,.03,.04,.04,.04,.02,.41,.5,.59,.71Zm1.33,1.2c.1,.1,.2,.21,.29,.32-.44,.25-.9,.46-1.4,.6-.21,.06-.42,.11-.64,.16,0,0,0-.02,0-.03,.65-.26,1.22-.63,1.74-1.06Zm-4.34-3.42c-.26,.74-.44,1.49-.45,2.25,0,.27,.02,.53,.03,.79-.01-.03-.03-.06-.05-.1-.26-.64-.35-1.32-.33-2.02,.01-.67,.13-1.32,.31-1.97,.25,.14,.48,.29,.71,.46-.08,.2-.16,.39-.23,.59Zm9.84-3.74c-.04,.3-.1,.6-.18,.89,0,.02-.01,.04-.02,.06,0,0,0,0,0,0-.03,.11-.13,.37-.15,.39-.02,.04-.05,.09-.08,.13-.08,.13-.17,.22-.3,.3-.09,.06-.19,.1-.3,.12,0,0,0,0-.01,0-.03,.01-.07,.02-.11,.02-.12,0-.24-.03-.34-.1,.24-.47,.46-.94,.64-1.43,.28-.74,.48-1.49,.53-2.26,.02-.37,.03-.73-.05-1.09h.02c.05,.11,.1,.24,.14,.36,.21,.64,.27,1.3,.24,1.97,0,.06-.01,.12-.01,.18-.01,.04-.04,.36-.05,.45Zm-1.43-1.04c-.24-.71-.86-1.04-1.59-.65-.55,.29-1.18,1.4-1.21,1.46-.18,.27-.41,.49-.68,.67-.28,.2-.66,.41-.97,.12,0,0-.16-.16-.23-.23-.04-.04-.19-.42-.23-.58-.08-.39-.17-.77-.21-1.17,.24-.29,.49-.58,.76-.86,.57-.59,1.18-1.12,1.91-1.53,.51-.29,1.04-.5,1.62-.57,.07,0,.14-.01,.21,0,.37,.07,.69,.23,.98,.44,.13,.1,.19,.24,.25,.38,.19,.45,.25,.92,.25,1.41-.01,.82-.21,1.62-.51,2.4-.17,.45-.37,.9-.58,1.34,0,0,0,0,0-.01-.15-.32-.12-.65-.05-.97,.05-.2,.1-.41,.17-.6,.13-.37,.23-.73,.12-1.04Zm-3.4-2.87c.12-.06,.25-.11,.38-.16,.56-.23,.99-.29,1.11-.31-.32,.17-.64,.33-.95,.52-.58,.35-1.08,.78-1.55,1.25-.27,.27-.52,.55-.76,.83-.03-.32-.06-.63-.1-.95,.57-.46,1.18-.86,1.86-1.17Zm-6.37,5.31c-.8-.8-1.49-1.68-1.94-2.73-.16-.38-.26-.79-.39-1.19-.03-.08-.06-.16-.12-.22-.3-.33-.53-.7-.66-1.12-.03-.09-.02-.21,.01-.3,.22-.52,.65-.83,1.12-1.09,.77-.42,1.6-.33,2.41-.22,.65,.08,1.26,.29,1.8,.67,.65,.46,1.04,1.11,1.28,1.85,.28,.83,.48,1.69,.73,2.53,.19,.65,.45,1.27,.84,1.83,.2,.28,.52,.31,.76,.06,.11-.12,.21-.26,.33-.37,.1-.09,.21-.2,.33-.22,.56-.11,.88-.48,1.1-.96,.13-.28,.26-.57,.41-.84,.18-.32,.47-.47,.85-.44,.13,0,.23,.04,.32,.15,.18,.21,.05,.68,.02,.99-.04,.4-.29,.76-.34,1.15-.05,.36-.07,.72,.14,1.04,.26,.39,.66,.55,1.1,.56,.13,0,.72-.42,.85-.49,.1-.05,.2-.08,.29-.09,.05,0,.11,0,.16,0,0,0,.04,.05,.09,.13,.06,.11,.14,.28,.16,.4,.01,.09,.02,.17,.02,.26,0,.3-.08,.6-.25,.85-.08,.12-.18,.23-.28,.32-.05,.05-.41,.1-.47,.17-.05,.06-.1,.2-.07,.24,.05,.06,.17,.08,.26,.09,.08,0,.16-.03,.23-.04,.17-.03,.22,.01,.21,.19-.03,.69-.64,1.28-1.32,1.28-.07,0-.16,0-.22,.02-.07,.03-.15,.1-.16,.16-.01,.11,.08,.17,.19,.17,.09,0,.18,0,.28,0,.1,0,.19,0,.31,.01-.2,.38-.42,.68-.87,.71-.17,.01-.34,.06-.5,.11-.06,.02-.11,.08-.18,.14,.11,.05,.19,.08,.27,.13,.12,.07,.13,.17,.05,.28-.21,.3-.8,.5-1.15,.4-.94-.29-1.7-.85-2.36-1.55-.64-.67-1.23-1.38-1.85-2.07-.61-.68-1.27-1.3-2.1-1.71-.02,0-.03-.02-.05-.03-.68-.2-1.16-.69-1.64-1.17Zm-5.26,11.26c.06-.09,.15-.2,.24-.2,.12,0,.26,.05,.36,.13,.07,.05,.1,.16,.15,.25-.08,.04-.15,.08-.22,.11-.16-.05-.29-.08-.42-.12-.08-.02-.17-.07-.11-.17Zm-.66-.5s.13,.02,.16,.06c.09,.17-.08,.19-.16,.29-.1-.14-.1-.25,0-.34Zm-1.15-.1c.14-.02,.28,0,.42,0,.1,0,.24,.18,.23,.31,0,.15-.12,.16-.22,.16-.24,0-.49-.01-.74-.02-.03-.3,.05-.41,.31-.44Zm-5.59,.9c.09-.04,.18-.11,.27-.16,.1,.09,.19,.16,.25,.25,.06,.08,.1,.16-.06,.21-.17,.05-.33,.15-.5,.22-.16,.07-.2,.04-.19-.13,0-.17,.07-.3,.23-.38Zm-.66,.71c-.11-.11-.19-.19-.28-.28,.26-.07,.31-.02,.28,.28Zm-1.11,.12s.14-.04,.21-.02c.1,.03,.2,.09,.29,.15,.12,.1,.11,.2-.02,.28-.11,.06-.22,.09-.35,.15-.07-.12-.14-.22-.17-.33-.02-.07,0-.17,.05-.23Zm-.65,.39s.05,0,.07,0c.03,.09,.07,.17,.1,.26-.02,.01-.04,.03-.07,.04-.05-.05-.13-.08-.16-.14-.02-.04,.03-.11,.06-.16Zm-.95,.8c.02-.12,.16-.17,.28-.13,.16,.05,.3,.12,.51,.2-.16,.13-.29,.25-.43,.35-.09,.06-.22,.1-.27-.02-.06-.12-.1-.28-.08-.41Zm.17,2.76c0,.11-.08,.22-.12,.32-.12-.06-.26-.09-.34-.18-.23-.24-.27-.55-.08-.83,.22-.32,.48-.6,.74-.88,1.54-1.62,3.43-2.6,5.6-3.06,1.93-.41,3.83-.29,5.68,.43,.34,.13,.34,.15,.28,.57-.3-.07-.6-.12-.88-.22-1.14-.39-2.31-.43-3.49-.41-1.23,.02-2.43,.23-3.58,.7-1.48,.59-2.65,1.56-3.59,2.84-.17,.23-.21,.46-.22,.72Zm3.49,.34c-.05,.16-.21,.11-.33,.11-.12,0-.19-.08-.16-.2,.04-.17,.12-.33,.18-.5,.23,.11,.38,.39,.31,.58Zm.42-.33c-.07-.06-.12-.14-.17-.22,.01-.02,.02-.04,.04-.07,.11,0,.21,0,.32,0,0,.06,.02,.13-.01,.17-.04,.06-.16,.14-.17,.12Zm.7,.48c-.14,.13-.35,.14-.55,.03,.08-.12,.15-.24,.23-.34,.08-.1,.18-.18,.31-.09,.13,.09,.12,.3,0,.41Zm.55-.25c-.06-.02-.13-.24-.09-.31,.12-.22,.22,.06,.38,.03-.08,.16-.12,.33-.28,.28Zm.55,.57c-.11,.08-.22,.09-.35,0,.21-.22,.41-.44,.6-.65,.02,.01,.03,.02,.05,.03-.07,.22-.09,.47-.3,.63Zm.04-1.57c-.06,.06-.17,.09-.26,.11-.77,.11-1.53,.04-2.26-.26-.03-.01-.07-.03-.12-.05-.04,.12-.07,.22-.11,.31-.08,.18-.15,.36-.24,.54-.19,.36-.47,.61-.91,.6-.32-.01-.64,.01-.95-.05-.44-.09-.52-.3-.34-.71,.08-.17,.17-.35,.3-.48,.55-.53,1.08-1.1,1.68-1.56,1.11-.85,2.41-1.27,3.79-1.46,1.48-.2,2.94-.09,4.35,.42,.13,.05,.26,.1,.39,.16,.27,.11,.39,.32,.35,.62-.04,.27-.11,.54-.17,.81,0,.03-.03,.05-.05,.07-.17,.22-.34,.45-.51,.69,.06,.02,.09,.03,.12,.04,.3,.09,.34,.25,.13,.48-.25,.27-.43,.29-.71,.05-.15-.13-.29-.28-.38-.45-.37-.7-.95-.93-1.71-.89-.92,.05-1.73,.31-2.38,1Zm3.48,7.6c-.41,.11-.75,0-1.01-.32-.15-.18-.25-.39-.37-.59-.15-.25-.32-.5-.44-.76-.15-.31-.28-.64-.39-.97-.04-.12,.02-.28,.03-.47,.07,.07,.11,.1,.14,.13,.23,.24,.51,.31,.82,.21,.17-.06,.34-.14,.51-.21,.25-.1,.5-.2,.75-.3,.03-.01,.06-.02,.08-.04,.65-.45,1.25-.95,1.68-1.63,.06-.09,.1-.2,.15-.29,.11-.21,.09-.41-.02-.61-.03-.05-.05-.11-.1-.22,.17,.05,.31,.07,.43,.12,.58,.23,1,.66,1.4,1.11,.16,.18,.19,.34,.11,.57-.41,1.14-.94,2.21-1.81,3.09-.55,.56-1.2,.97-1.97,1.18Zm6.54,1.21c-1.12,.35-2.24,.71-3.37,1.07-.14,.04-.29,.05-.43,.1-.34,.1-.62,0-.84-.27-.15-.18-.3-.36-.43-.55-.3-.44-.58-.89-.87-1.34,1.86-.97,3.34-2.29,3.74-4.44,.56,.96,1.16,1.96,1.74,2.97,.37,.66,.61,1.38,.66,2.15,.01,.17-.02,.26-.2,.31Zm3.21-.83c-.32,.15-.66,.26-.99,.37-.16,.06-.3,0-.43-.12-.81-.71-1.48-1.54-2.02-2.47-.68-1.18-1.14-2.45-1.53-3.74-.21-.7-.42-1.41-.63-2.11,.32-.21,.62-.41,.92-.61,.21,.32,.43,.67,.68,1,.66,.89,1.47,1.64,2.27,2.41,.82,.78,1.63,1.56,2.3,2.48,.41,.57,.74,1.17,.96,1.84,.02,.07,.04,.15,.07,.24-.6,.12-1.08,.46-1.61,.71Zm18.54,13.14c-.07,.1-.2,.14-.29,.05-.08-.07-.12-.2-.14-.31,0-.03,.14-.11,.23-.12,.13-.02,.26,0,.42,0-.09,.14-.15,.26-.23,.36Zm1.27,0c-.1-.02-.19-.19-.25-.31-.02-.03,.07-.16,.13-.18,.1-.05,.22-.05,.34-.07,.11-.02,.22-.02,.34-.03,.06,.32-.23,.65-.56,.59Zm3.59-1.26c-.14,.05-.25,.06-.33-.09-.06-.13,0-.28,.14-.35,.16-.07,.33-.13,.54-.22,.02,.18,.03,.36,.05,.54-.16,.05-.28,.07-.4,.12Zm1.76-.64c-.33,.23-.57,.16-.71-.22,.16-.08,.32-.16,.48-.23,.12-.06,.24-.07,.31,.08,.07,.14,.04,.29-.08,.37Zm1.53-.65c-.04,.07-.19,.1-.29,.13-.07,.02-.15,.02-.22,0-.06-.02-.14-.06-.16-.11-.02-.04,0-.14,.05-.17,.1-.07,.22-.12,.34-.16,.08-.03,.17-.04,.32-.07-.01,.14,.01,.29-.04,.39Zm.73-2.61c.25,.13,.31,.27,.2,.52-.32,.7-.78,1.26-1.57,1.47-.36,.1-.71,.2-1.07,.27-.67,.12-1.25,.47-1.86,.73-.95,.4-1.9,.83-2.91,1.08-.99,.24-1.98,.28-2.97,.03-.2-.05-.34-.25-.28-.45,.01-.05,.1-.11,.17-.12,.07,0,.16,.03,.23,.06,.74,.34,1.53,.32,2.32,.25,1.22-.11,2.34-.57,3.46-1.04,1-.42,1.98-.86,3.05-1.09,.23-.05,.41-.14,.54-.34,.14-.21,.31-.42,.43-.64,.12-.22,.19-.47,.29-.72Zm-3.6-1.21c.12-.03,.46,.08,.5,.18,.03,.06,.03,.15,0,.21-.05,.12-.11,.25-.18,.36-.14,.21-.29,.41-.43,.61-.01,0-.03,0-.04,0-.02-.34-.05-.69-.06-1.03,0-.14,.04-.28,.21-.33Zm.9,.75c-.02,.48-.21,.71-.5,.63,.17-.21,.32-.4,.5-.63Zm-1.55,.52c0,.1,.01,.27-.04,.29-.09,.05-.22,0-.35,0,.08-.27,.12-.51,.33-.71,.03,.16,.06,.29,.06,.42Zm-.8-1.32s.07-.02,.12-.02c.19,.02,.39,.04,.6,.06-.2,.26-.37,.52-.57,.76-.05,.06-.16,.07-.25,.11-.02-.09-.07-.19-.06-.28,.03-.2,.09-.4,.15-.63Zm-1.03,.26c.1-.26,.3-.36,.58-.3-.16,.33-.06,.66-.02,.99,.01,.1,.04,.22,0,.31-.04,.09-.13,.18-.23,.23-.11,.06-.18-.05-.22-.13-.2-.35-.25-.72-.11-1.1Zm-2.38,2.82s.59-.07,.87-.14c0,0,.06-.01,.08-.02,.39-.1,.72-.3,1.06-.49,.32-.29,.73-.42,1.23-.4,.62,.03,1.24,.03,1.86,0,.26-.01,.52-.12,.78-.18,.11-.03,.15-.09,.17-.21,.06-.38,.17-.74,.42-1.05,.08-.1,.16-.14,.28-.1,.43,.14,.86,.27,1.32,.42-.18,.46-.33,.89-.52,1.31-.11,.24-.31,.43-.59,.46-.47,.04-.9,.23-1.34,.38-1.08,.37-2.15,.76-3.24,1.11-.37,.12-1.43,.34-1.57,.39-.29,.09-2.12,0-2.34-.11-.35-.19-.42-.46-.38-.81,.02-.13,.03-.26,.03-.38,0-.21-.08-.28-.29-.23-.11,.03-.21,.07-.31,.11-.05,.02-.36,.08-.42,.03-.04-.03-.03-.18,0-.25,.14-.25,.3-.5,.47-.77,.71,.71,1.55,.92,2.41,.94Zm-2.57-9.3c.02-.15,0-.31,.03-.46,.03-.17,.13-.2,.29-.13,.05,.03,.12,.06,.15,.11,.43,.64,.91,1.26,1.09,2.03,.07,.28,.06,.58,.07,.88,0,.23-.12,.4-.26,.57-1.09,1.37-2.52,2.23-4.18,2.71-.48,.14-.98,.23-1.47,.33-.1,.02-.22,0-.32-.03-.8-.27-1.36-.83-1.76-1.55-.28-.51-.48-1.06-.7-1.6-.03-.06-.03-.14-.04-.25,.1,.05,.18,.06,.21,.11,.17,.26,.39,.3,.68,.27,1.12-.09,2.22-.29,3.26-.71,1.11-.45,2.07-1.11,2.87-2.02,.06-.07,.08-.18,.1-.28Zm-.36-1.26c0,.1-.07,.19-.1,.28-.05,.17-.08,.34-.12,.51,0,.03,0,.06,0,.09q.04,.53-.38,.87c-1,.82-2.1,1.45-3.37,1.76-.74,.18-1.48,.23-2.23,.13-.05,0-.11-.03-.14-.06-.55-.49-1.11-.99-1.66-1.49-.04-.04-.09-.08-.14-.14,.72-.65,1.52-1.13,2.4-1.46,.78-.3,1.58-.57,2.38-.84,.96-.33,1.91-.66,2.8-1.2,.37,.45,.58,.96,.56,1.54Zm-1.33-4.7c.27,.74,.55,1.48,.84,2.28-.28,.18-.58,.37-.88,.56-.03,.02-.06,.03-.09,.04-.05,.03-.11,.04-.18,.05-.4,.27-.86,.37-1.35,.5-.8,.22-1.54,.63-2.32,.9,0,0-.01,0-.02,0-.03,.01-.07,.03-.1,.04-1.19,.47-2.36,.98-3.56,1.41-1.08,.39-2.22,.54-3.37,.43-.31-.03-.62-.09-.93-.15-.06-.01-.13-.08-.14-.13-.23-1.12-.74-2.12-1.32-3.08-.08-.13-.15-.25-.23-.38,0-.01,.02-.02,.03-.03,.43,.36,.86,.72,1.3,1.08,.06,.05,.11,.1,.17,.14,.03,.02,.08,.02,.12,.03,0-.05,.04-.1,.02-.13-.06-.12-.12-.25-.21-.34-.92-.85-1.84-1.68-2.76-2.52-.97-.89-1.9-1.8-2.62-2.91-.8-1.21-1.21-2.53-1.06-3.99,.04-.38,.12-.76,.21-1.14,.05-.22,.13-.26,.34-.21,.59,.14,1.2,.1,1.8,.07,.42-.02,.85-.04,1.27-.05,.09,0,.41-.02,.41-.03,.27-.01,.54-.04,.81-.03,.55,.03,1.09,.06,1.63,.12,.37,.04,.68,.22,.99,.42,0,0-.02,0-.02,0,.16,.06,.62,.22,.7,.22,.25,.01,.51,.03,.76,.02,.39-.02,.73,.11,1.08,.26,1.33,.56,2.66,1.14,4,1.68,.44,.18,.91,.3,1.36,.45,.1,.03,.2,.09,.3,.14,.41,.2,.81,.4,1.21,.61,.08,.04,.15,.1,.2,.18,.7,1.09,1.18,2.29,1.62,3.5Zm.34-11.1c-.09-.03-.19-.06-.27-.12-.17-.13-.35-.13-.56-.1-.5,.08-1,.15-1.49,.23-.03,0-.07,0-.11,.01,.08-.35,.16-.68,.22-1.02,.2-1.06,.24-2.14,.12-3.21-.18-1.55-.42-3.09-.65-4.63-.19-1.31-.34-2.62-.25-3.94,.12-1.63,.64-3.11,1.65-4.4,.14-.18,.34-.34,.55-.45,.39-.22,.8-.42,1.22-.61,.56-.26,.77-.21,1.16,.21,.05,.05,.11,.09,.17,.14-.05,.04-.06,.05-.06,.05-.51-.08-.91,.12-1.27,.46-1.04,.97-1.67,2.18-2.02,3.55-.39,1.55-.39,3.12-.18,4.7,.26,1.99,.82,3.9,1.39,5.81,.1,.33,.21,.66,.29,.99,.15,.64,.28,1.28,.42,1.92,.01,.06,.02,.12,.01,.18-.01,.22-.12,.3-.33,.23Zm5.38,4.49s.75-.41-.56-1.65c.09,.24,5.63-1.45,5.72-1.49-.12,1.22-5.16,3.15-5.16,3.15Zm15.68-5.22c.11-.18,.3-.18,.48-.17,.11,0,.22,.05,.31,.1,.26,.13,.3,.24,.23,.52-.13,.59-.43,1.09-.79,1.56-.4,.52-.84,1.01-1.23,1.54-.24,.33-.4,.71-.6,1.07-.08,.16-.18,.29-.34,.37-.02-.01-.03-.02-.05-.03,.13-.25,.27-.5,.4-.76,.14-.29,.3-.58,.42-.88,.14-.37,.12-.75-.09-1.1-.03-.05-.03-.14,0-.19,.42-.68,.84-1.36,1.27-2.03Zm-1.65,.61c.03-.14,.06-.29,.11-.43,.14-.39,.38-.53,.78-.45,.11,.02,.21,.05,.32,.08-.26,.5-.51,.99-.77,1.47-.18,.32-.43,.58-.83,.73,.3-.45,.3-.94,.39-1.41Zm-1.03,.42c.08-.34,.28-.58,.68-.64-.1,.82-.4,1.53-.96,2.16,.09-.53,.17-1.03,.28-1.52Zm-.54,.27c.03,.64-.24,1.28-.58,1.37,.06-.41,.39-1.19,.58-1.37Zm-6.93,2.19c.14-.05,.26-.05,.38,.03,.44,.31,.9,.6,1.34,.91,.58,.41,1.15,.82,1.83,1.05,.73,.24,.83,.22,1.35-.34,.44-.48,.88-.96,1.32-1.44,.04-.04,.09-.08,.17-.16-.1,.46-.18,.88-.46,1.21-.07,.09-.17,.16-.27,.21-.23,.12-.4,.3-.5,.54-.03,.07-.04,.17-.03,.25,.02,.12,.08,.19,.23,.14,.55-.21,.91-.61,1.16-1.12,.21-.42,.39-.86,.61-1.28,.27-.52,.69-.87,1.33-.99,0,.25,.02,.5-.03,.73-.11,.46-.25,.92-.41,1.37-.25,.69-.53,1.37-.5,2.12,.03,.68-.27,1.21-.72,1.67-.42,.43-.92,.52-1.47,.32-.25-.09-.5-.19-.71-.34-.69-.48-1.48-.63-2.3-.7-.99-.08-1.98-.15-2.97-.25-.89-.1-1.74-.33-2.5-.8-.07-.04-.13-.09-.26-.17,.2-.2,.36-.42,.57-.55,.78-.49,1.43-1.11,2.03-1.8,.23-.26,.49-.48,.82-.6Zm7.58-4.97c-.6,.14-1.2,.31-1.82,.39-.57,.08-1.16,.07-1.81,.11,.13-.84,.24-1.62,.36-2.44-1.07,.43-2.15,.81-3.32,.93-.14-.32-.1-.64-.05-.96,.05-.28,.08-.57,.11-.86,0-.08-.02-.16-.03-.28-.28,.06-.55,.1-.8,.18-.53,.18-1.06,.4-1.59,.58-.29,.1-.6,.16-.91,.24,.05-.52,.09-.98,.14-1.45,.03-.26,.06-.51,.1-.77,.02-.12-.01-.16-.13-.19-.49-.1-.97-.02-1.44,.08-.17,.04-.33,.08-.51,.13-.05-.25,.02-.46,.14-.65,.13-.2,.28-.39,.42-.58,.09-.12,.15-.25,.08-.39-.34,.01-.66,.02-.99,.03,0-.02-.01-.04-.01-.07,.57-.51,1.09-1.09,1.79-1.49-.06,.22-.12,.41-.15,.6-.15,.84,.18,1.47,.86,1.94,.64,.44,1.36,.69,2.09,.88,1.19,.3,2.39,.57,3.58,.87,.82,.2,1.64,.43,2.4,.83,.49,.25,.94,.56,1.25,1.04,.22,.34,.34,.72,.32,1.13,0,.05-.06,.14-.1,.15Zm-12.75-3.59c0,.12,.06,.16,.2,.12,.22-.06,.46-.09,.69-.1,.38,0,.76,.02,1.15,.03-.17,.81-.35,1.66-.54,2.54,.18,0,.32,0,.47-.01,.8-.08,1.53-.38,2.28-.62,.2-.07,.4-.13,.63-.2-.06,.7-.5,1.31-.43,2.05,.31-.07,.6-.12,.89-.2,.6-.17,1.2-.35,1.8-.51,.17-.05,.36-.06,.54-.09,.02,.44,.05,.86,.07,1.27,0,.1,0,.2-.02,.29-.04,.25-.11,.31-.37,.29-1.25-.12-2.5-.28-3.72-.63-1.07-.31-2.07-.74-2.91-1.49-.47-.42-.83-.91-1.12-1.47-.22-.43-.29-.87-.21-1.35,.09-.57,.23-1.12,.61-1.58,.08-.1,.18-.18,.27-.27,.02,0,.03,.01,.05,.02,0,.09,0,.18-.01,.26-.09,.39-.2,.77-.29,1.16-.03,.15-.03,.32-.02,.47Zm18.21,.28c.33,.35,.71,.1,1.08,.18-.07,.05-.13,.1-.18,.14-.69,.47-1.43,.84-2.18,1.19-1.04,.48-2.09,.92-3.06,1.53-.16,.1-.32,.21-.5,.32,.05-.21,.1-.39,.13-.57,.09-.61-.13-1.11-.58-1.51-.52-.47-1.13-.77-1.79-.96-1.2-.35-2.41-.67-3.62-.98-1.1-.28-2.21-.52-3.25-1-.29-.14-.57-.31-.84-.49-.52-.36-.67-.87-.56-1.47,.1-.56,.37-1.04,.76-1.42,.44-.43,.92-.83,1.39-1.23,.18-.15,.4-.12,.62-.06,.18,.05,.35,.11,.53,.16,.14,.03,.27,0,.33-.18-1.27-.51-2.54-.97-3.96-.66,.03,.24,.16,.36,.35,.42,.21,.07,.43,.11,.64,.17,.12,.03,.24,.08,.41,.13-.15,.14-.26,.27-.4,.37-.73,.55-1.47,1.09-2.21,1.63-.72,.52-1.41,1.06-1.95,1.78-.63,.84-.91,1.79-.83,2.83,.05,.65,.39,1.19,.81,1.66,1.17,1.3,2.57,2.21,4.32,2.47,1.04,.16,2.08,.29,3.12,.44,.27,.04,.53,.1,.79,.18,.22,.07,.25,.15,.16,.36-.1,.24-.28,.38-.55,.39-.81,.05-1.59-.05-2.35-.33-.05-.02-.14,0-.18,.03-.04,.04-.05,.13-.03,.18,.06,.15,0,.23-.13,.31-1.19,.68-2.48,1.11-3.83,1.32-1.44,.23-2.88,.38-4.33,.56-.39,.05-.78,.09-1.17,.13-.07,0-.13,.01-.21,.02,.02-.18,.03-.33,.05-.49,.12-1.62-.1-3.21-.47-4.78-.34-1.44-.73-2.87-1.07-4.31-.33-1.4-.53-2.81-.44-4.25,.12-1.79,.62-3.45,1.7-4.91,.15-.2,.34-.37,.51-.56,.38-.44,.92-.49,1.44-.56,1.27-.18,2.54-.22,3.82-.21,1.75,0,3.5,.14,5.23,.38,2.69,.37,5.32,.99,7.83,2.07,.94,.4,1.84,.88,2.68,1.45,.03,.02,.06,.04,.11,.08-.46,.02-.89,.04-1.31,.06,0,.03,0,.07-.01,.1,.32,.1,.64,.23,.97,.3,.44,.1,.89,.19,1.34,.25,.73,.09,1.39,.38,2.05,.68,1.14,.52,2.29,1.01,3.36,1.68,.65,.41,1.25,.87,1.8,1.4,.05,.05,.1,.1,.16,.17-1.74,1.94-3.85,3.13-6.48,3.43Z"></path><path d="M125.23,92.61c-.39-.46-.75-.96-1.13-1.43-.16-.2-.34-.4-.55-.54-.48-.32-1.03-.37-1.59-.36-.8,.01-1.58,.21-2.36,.38-.25,.06-.5,.16-.74,.26-.05,.02-.11,.12-.1,.15,.03,.06,.1,.14,.16,.15,.08,.01,.18-.02,.26-.04,.1-.03,.19-.08,.29-.11,.12-.03,.24,.02,.25,.15,0,.06-.11,.16-.19,.18-.1,.03-.22,0-.33,0,.69,.32,1.04,1.01,1.64,1.4-.07,.17-.14,.34,.02,.48,.16,.16,.34,.09,.52,.02,.7-.27,1.42-.29,2.14-.19,.75,.1,1.49,.24,2.24,.33,.32,.04,.66,.03,.98,.04,0-.02,0-.04,0-.05-.62-.06-1.12-.35-1.52-.82Zm-3.06,.1c-.32,.11-.6,.03-.84-.15-.15-.11-.29-.25-.43-.37-.21-.18-.42-.35-.66-.54,.03-.1,.07-.24,.12-.37,.11-.29,.19-.34,.5-.34,.48,0,.96,0,1.44,0,.02,0,.04,0,.08,.01-.13,.58-.42,1.14-.19,1.76Zm1.58-.03c-.26-.03-.33-.16-.26-.41,.01-.05-.02-.13-.05-.18-.02-.05-.07-.09-.14-.17,.24-.04,.43-.07,.65-.1,.2,.28,.4,.57,.64,.9-.31-.01-.57,0-.83-.03Z"></path><path d="M128.57,95.11c.13,.08,.27,.14,.4,.21,.05,.03,.09,.08,.13,.11-.04,.04-.08,.08-.12,.12-.11,.09-.23,.16-.33,.26-.22,.22-.22,.45,0,.66,.12,.11,.25,.22,.39,.3,.33,.19,.66,.37,1,.55,.77-.66,1.61-1.21,2.57-1.59,.18-.07,.34-.08,.51,0,.15,.06,.3,.11,.45,.16,.1,.03,.19,.02,.24-.13-1.74-.35-3.44-.82-5.24-.64Zm1.3,.73c.06-.03,.16-.02,.23,0,.29,.05,.58,.11,.87,.17,.05,.01,.1,.05,.16,.08-.19,.29-.46,.39-.8,.28-.17-.05-.33-.13-.49-.21-.05-.02-.11-.1-.1-.14,.01-.07,.07-.15,.12-.18Z"></path><path d="M110.15,92.3c-.21,.12-.45,.21-.63,.38-.98,.92-1.52,2.04-1.38,3.41,.04,.4,.14,.79,.43,1.15,.07-1.85,.51-3.53,1.76-4.93-.07-.02-.14-.04-.19-.02Z"></path><path d="M112.52,92.56c-.38,.1-.71,.29-.96,.59-.78,.95-1.34,2-1.34,3.27,0,.36,.06,.71,.2,1.08,.13-.51,.24-.99,.37-1.46,.27-.96,.65-1.87,1.31-2.63,.17-.2,.38-.36,.56-.56,.05-.06,.04-.17,.06-.26-.07-.01-.14-.04-.21-.03Z"></path><path d="M108.18,92.37c.03-.12,.06-.24,.1-.4-.09,.02-.1,.02-.11,.03-1.66,1.06-2.14,3.09-1.36,4.79,.06,.14,.23,.22,.35,.33,.02,.02,.07,.01,.08,.01-.07-.34-.16-.67-.21-1.01-.08-.7,.08-1.37,.28-2.03,.18-.61,.27-1.27,.84-1.68,0,0,.02-.02,.02-.03Z"></path></g></g></g><g><g><g><path d="M64.49,23.81l.85,1.54-4.65,2.57,.73,1.33,4.13-2.28,.84,1.53-4.13,2.28,1.02,1.84-1.81,1-3.44-6.23,6.46-3.57Z" fill="#fff"></path><path d="M76.23,26.51l-1.13-.99-4.06,1.65-.12,1.5-2.06,.84,.72-7.97,2.64-1.07,6.07,5.21-2.05,.83Zm-5.05-1.07l2.6-1.06-2.35-2.05-.25,3.11Z" fill="#fff"></path><path d="M86.83,21.37l-1.23-4.95,1.99-.49,1.71,6.91-2.93,.73-5.3-3.94,1.23,4.95-2,.5-1.71-6.91,2.94-.73,5.3,3.94Z" fill="#fff"></path><path d="M96.85,14.62l8.57-.35,.07,1.75-3.25,.13,.22,5.36-2.06,.08-.22-5.36-3.26,.13-.07-1.75Z" fill="#fff"></path><path d="M107.92,17.84c.2-2.35,1.94-3.6,4.93-3.34,2.98,.26,4.49,1.79,4.29,4.13-.2,2.35-1.95,3.62-4.93,3.36-2.99-.26-4.49-1.79-4.29-4.15Zm7.07,.61c.11-1.23-.53-2.05-2.29-2.2-1.75-.15-2.52,.53-2.62,1.78-.11,1.25,.54,2.07,2.28,2.22,1.75,.15,2.53-.55,2.64-1.79Z" fill="#fff"></path><path d="M129.41,17.57l-4.18,2.13,2.62,4.82-2.53-.57-1.82-3.36-1.99,1.01-.32,1.41-2.01-.46,1.57-6.95,2.02,.45-.7,3.12,4.34-2.29,3.02,.68Z" fill="#fff"></path><path d="M139.29,20.99l-.55,1.52-5-1.81-.39,1.07,4.81,1.74-.55,1.52-4.81-1.74-.39,1.07,5,1.81-.55,1.52-6.94-2.51,2.42-6.7,6.94,2.51Z" fill="#fff"></path><path d="M146.5,30.14l2.34-4.54,1.83,.94-3.27,6.33-2.69-1.39-1.39-6.47-2.34,4.54-1.84-.95,3.27-6.33,2.7,1.39,1.39,6.47Z" fill="#fff"></path></g><g><path d="M57.53,179.5c-.31,.51,0,1.15,1.6,2.12,1.47,.88,1.97,.87,2.2,.49,.27-.44,.04-.69-1.7-1.9-2.37-1.66-3.16-2.81-2.35-4.16,.77-1.27,2.49-1.02,4.6,.25,2.35,1.41,3.27,2.94,2.51,4.33l-1.85-1.11c.32-.54-.14-1.1-1.51-1.92-1.3-.78-1.72-.74-1.92-.41-.23,.38,0,.67,1.57,1.8,2.14,1.52,3.5,2.55,2.54,4.15-.94,1.56-2.66,1.15-4.83-.16-2.47-1.49-3.6-2.93-2.72-4.59l1.85,1.12Z" fill="#fff"></path><path d="M66.2,183.1c.94-2.17,2.98-2.79,5.74-1.6,2.75,1.19,3.69,3.12,2.76,5.28-.94,2.17-3,2.81-5.75,1.62-2.76-1.19-3.69-3.12-2.75-5.3Zm6.52,2.83c.49-1.14,.14-2.11-1.48-2.82-1.61-.7-2.56-.29-3.05,.85-.5,1.15-.14,2.13,1.46,2.83,1.61,.7,2.58,.28,3.07-.87Z" fill="#fff"></path><path d="M82.54,185.26c2.52,.71,3.65,2.19,3.36,4.01l-2.11-.59c.04-.67-.45-1.38-1.72-1.73-1.47-.41-2.38,.11-2.72,1.31-.34,1.21,.18,2.14,1.64,2.55,1.27,.35,2.06,0,2.37-.61l2.11,.59c-.7,1.72-2.43,2.41-4.96,1.71-2.75-.77-3.9-2.47-3.25-4.82,.66-2.34,2.52-3.19,5.27-2.42Z" fill="#fff"></path><path d="M91.13,187.38l-1.26,7-2.03-.37,1.26-7,2.03,.37Z" fill="#fff"></path><path d="M93.28,191.41c.19-2.35,1.92-3.6,4.91-3.36,2.98,.24,4.5,1.77,4.3,4.11-.19,2.35-1.93,3.62-4.92,3.38-2.99-.24-4.5-1.77-4.3-4.13Zm7.07,.58c.1-1.23-.54-2.04-2.3-2.19-1.75-.14-2.51,.55-2.62,1.79-.1,1.25,.55,2.06,2.29,2.21,1.75,.14,2.53-.56,2.63-1.81Z" fill="#fff"></path><path d="M107.35,193.3c.03,.6,.64,.96,2.51,.86,1.71-.09,2.12-.38,2.09-.83-.03-.52-.35-.59-2.47-.62-2.89-.05-4.2-.56-4.28-2.14-.08-1.48,1.49-2.24,3.95-2.36,2.74-.14,4.36,.6,4.5,2.18l-2.15,.11c-.03-.63-.73-.83-2.33-.75-1.51,.08-1.84,.35-1.82,.73,.02,.44,.37,.56,2.31,.62,2.62,.06,4.33,.15,4.43,2.02,.09,1.82-1.56,2.44-4.09,2.57-2.88,.15-4.63-.42-4.82-2.29l2.16-.11Z" fill="#fff"></path><path d="M117.06,193.29l1.97-.29,.22,1.53-1.97,.29-.23-1.53Z" fill="#fff"></path><path d="M124.91,185.93c2.55-.62,4.26,.12,4.9,1.85l-2.13,.52c-.29-.61-1.07-.98-2.35-.67-1.48,.36-2.02,1.26-1.73,2.48,.3,1.22,1.21,1.78,2.68,1.42,1.28-.31,1.8-1.01,1.77-1.7l2.13-.52c.23,1.84-.94,3.3-3.49,3.92-2.78,.68-4.62-.24-5.2-2.61-.58-2.36,.63-4.01,3.41-4.69Z" fill="#fff"></path><path d="M132.62,187.73c-.87-2.2,.14-4.09,2.93-5.19,2.78-1.1,4.82-.4,5.68,1.79,.87,2.2-.14,4.11-2.92,5.21-2.79,1.1-4.82,.4-5.69-1.81Zm6.61-2.61c-.45-1.15-1.39-1.6-3.03-.95-1.63,.64-2.02,1.6-1.56,2.76,.46,1.17,1.41,1.61,3.03,.97,1.63-.64,2.02-1.62,1.56-2.78Z" fill="#fff"></path><path d="M145.61,186.25l-3.58-6.16,2.78-1.62,4.52,2.84-.24-5.33,2.78-1.62,3.58,6.16-1.78,1.03-2.59-4.46,.28,5.81-1.65,.96-4.91-3.11,2.6,4.46-1.79,1.04Z" fill="#fff"></path></g></g><path d="M48.34,171.86c-18.95-16.08-30.98-40.07-30.98-66.86S30.03,52.95,49.85,36.88" fill="none" stroke="#fff" stroke-miterlimit="10" stroke-width="2.22"></path><path d="M160.16,36.89c19.82,16.07,32.48,40.61,32.48,68.11s-12.03,50.79-30.98,66.87" fill="none" stroke="#fff" stroke-miterlimit="10" stroke-width="2.22"></path></g></g></g></g></svg>