<svg width="100" height="100" viewBox="0 0 100 100" fill="none" xmlns="http://www.w3.org/2000/svg">
<g clip-path="url(#clip0_1124_14749)">
<path d="M50 100C77.6142 100 100 77.6142 100 50C100 22.3858 77.6142 0 50 0C22.3858 0 0 22.3858 0 50C0 77.6142 22.3858 100 50 100Z" fill="#231F20"/>
<path d="M50 2.53333C76.1714 2.53333 97.4667 23.8286 97.4667 50C97.4667 76.1714 76.1714 97.4667 50 97.4667C23.8286 97.4667 2.53333 76.1714 2.53333 50C2.53333 23.8286 23.8286 2.53333 50 2.53333ZM50 0C22.3857 0 0 22.3857 0 50C0 77.6143 22.3857 100 50 100C77.6143 100 100 77.6143 100 50C100 22.3857 77.6143 0 50 0Z" fill="#14634A"/>
<path d="M45.681 37.3714C45.081 38.8619 44.5333 40.3762 43.5191 41.6619C43.0762 42.2286 42.4905 42.6191 41.9191 43.0286C40.1095 44.3191 38.3 45.6143 36.4905 46.9048C36.3238 47.0238 36.3333 47.0952 36.4524 47.2381C37.7952 48.8571 39.1381 50.4762 40.4714 52.1048C41.0191 52.7667 41.5714 53.4191 42.1238 54.081C42.181 54.1524 42.2286 54.2286 42.3191 54.3619H41.9476C41.0762 54.3619 40.2 54.3619 39.3286 54.3619C37.9905 54.3714 36.9286 53.8476 36.1 52.7905C35.2524 51.7048 34.3524 50.6619 33.4714 49.6C33.3714 49.4952 33.2619 49.3905 33.1524 49.2952L31.7 50.3143C30.1572 51.4 28.6286 52.5048 27.0667 53.5667C26.2476 54.1238 25.2952 54.3381 24.3095 54.3524C23.0238 54.3714 21.7429 54.3667 20.4572 54.3714V54.2476C20.5048 54.2429 20.5524 54.2286 20.5952 54.2095C22.3048 52.9905 24.0143 51.7762 25.7238 50.5524C27.4762 49.3048 29.2238 48.0571 30.9762 46.8048C33.4333 45.0571 35.8952 43.3048 38.3524 41.5571C38.7619 41.2667 39.1619 40.9714 39.6333 40.6286C39.4857 40.6191 39.4286 40.6143 39.3667 40.6143C37.2714 40.6143 35.1762 40.6095 33.0762 40.6143C32.0143 40.6143 31.2381 41.0952 30.8 42.0714C30.3381 43.0905 29.8857 44.1143 29.4572 45.1476C29.0191 46.1952 28.4143 47.1095 27.4857 47.7857C26.681 48.3667 25.8714 48.9238 25.0619 49.4952C24.5857 49.8333 24.1143 50.1762 23.581 50.5524C23.6238 50.4286 23.6429 50.3857 23.6619 50.3429C24.3572 48.7476 25.0476 47.1524 25.7524 45.5619C26.4333 44.0191 27.0619 42.4429 27.8238 40.9429C28.781 39.0572 30.3 37.8429 32.4381 37.481C32.6238 37.4524 32.8 37.4 32.9857 37.3571L45.6905 37.3667L45.681 37.3714ZM79.5429 37.3714C79.3333 37.5429 79.1333 37.7238 78.9143 37.881C76.7619 39.4143 74.6095 40.9429 72.4572 42.4714C71.0619 43.4571 69.6667 44.4524 68.2333 45.4714L75.5619 54.3333C75.4381 54.3476 75.3762 54.3571 75.3095 54.3571C74.2524 54.3571 73.1905 54.3571 72.1333 54.3571C71.0524 54.3571 70.2095 53.9333 69.5381 53.0571C68.6667 51.9238 67.7238 50.8476 66.8095 49.7476L65.1095 47.7C64.2952 48.281 63.4857 48.8667 62.6714 49.4429C60.7572 50.8 58.8524 52.1619 56.9286 53.5048C56.0857 54.0952 55.1238 54.3524 54.1 54.3619C52.9381 54.3714 51.7762 54.3619 50.6143 54.3619H50.2857L50.2572 54.2952C50.5714 54.0667 50.881 53.8381 51.1952 53.6095C52.5333 52.6429 53.8714 51.6714 55.2143 50.7095C56.1095 50.0762 56.7095 49.2143 57.1476 48.2333C57.9381 46.4667 58.7048 44.6952 59.481 42.9238C60.2143 41.2429 60.9429 39.5619 61.6714 37.881C61.7429 37.7143 61.8238 37.5476 61.9048 37.3857H65.9143C65.0476 39.381 64.181 41.3762 63.3095 43.3714C62.9905 44.1048 62.6667 44.8333 62.3191 45.6286C62.4095 45.5905 62.4952 45.5476 62.581 45.5C63.7 44.7143 64.8143 43.9286 65.9286 43.1381C68.2476 41.4905 70.5619 39.8429 72.881 38.2C73.2429 37.9429 73.5857 37.6619 73.9333 37.3905L79.5476 37.381L79.5429 37.3714ZM60.3 37.3714C59.8619 38.381 59.4191 39.3857 58.9857 40.3952C58.9143 40.5667 58.7905 40.5714 58.6429 40.5714C57.6048 40.5714 56.5667 40.5714 55.5286 40.5714C54.2857 40.5714 53.0429 40.5667 51.7952 40.5714C51.3572 40.5714 50.9143 40.6 50.4762 40.6286C50.1191 40.6524 49.8048 40.8048 49.6238 41.1048C49.3714 41.5286 49.181 41.9857 48.9381 42.4857H56.5667C56.4381 42.7857 56.3333 43.0429 56.2191 43.3C55.8905 44.0571 55.5524 44.8095 55.2333 45.5667C55.1429 45.781 55.0286 45.8619 54.7762 45.8619C52.4619 45.8476 50.1524 45.8619 47.8381 45.8476C47.5952 45.8476 47.4714 45.9191 47.381 46.1429C46.5905 48.1143 45.7905 50.081 44.9905 52.0524C44.7095 52.7429 44.4333 53.4286 44.1524 54.1191C44.1191 54.1905 44.0762 54.2571 44.0333 54.3238C43.4238 53.5905 42.8333 52.881 42.2429 52.1619C41.9952 51.8619 41.7572 51.5572 41.5 51.2667C41.3762 51.1286 41.3429 51.0095 41.4238 50.8286C42.2905 48.8619 43.1524 46.8952 44.0095 44.9238C44.7857 43.1429 45.5476 41.3524 46.3286 39.5714C46.6191 38.9143 46.9191 38.2381 47.581 37.8762C47.9619 37.6667 48.4143 37.5762 48.8333 37.4333C48.9143 37.4048 48.9952 37.3905 49.081 37.3667H60.3V37.3714ZM63.7 60.7V57.9762H64.7048C64.7095 58.0762 64.7191 58.1667 64.7191 58.2524C64.7191 59.5762 64.7143 60.9 64.7238 62.2238C64.7238 62.4714 64.6476 62.5238 64.4 62.5667C63.881 62.6571 63.6667 62.3191 63.4191 61.9952C62.8619 61.2619 62.3095 60.5333 61.7524 59.8C61.7191 59.7714 61.6762 59.7429 61.6381 59.7191V60.6333C61.6381 61.1762 61.6333 61.7238 61.6381 62.2667C61.6381 62.4714 61.5905 62.5762 61.3619 62.5571C61.1333 62.5381 60.8905 62.5571 60.6286 62.5571V57.9571C60.9095 57.9571 61.2 57.9476 61.4953 57.9667C61.5667 57.9714 61.6429 58.0619 61.6952 58.1333C62.3143 58.9429 62.9333 59.7571 63.5476 60.5714C63.5952 60.6191 63.6429 60.6667 63.6952 60.7048L63.7 60.7ZM23.3381 61.081C23.3381 61.5095 23.3333 61.8952 23.3381 62.281C23.3429 62.4714 23.2905 62.5524 23.081 62.5571C22.3048 62.581 22.3048 62.5857 22.3048 61.8143V57.9667C22.4048 57.9571 22.4905 57.9476 22.5762 57.9476C23.2572 57.9476 23.9333 57.9429 24.6095 57.9476C25.2238 57.9571 25.7429 58.1667 26.0095 58.7524C26.2762 59.3381 26.2476 59.9143 25.8381 60.4191C25.6762 60.6191 25.4381 60.7524 25.2048 60.9381C25.5429 61.4381 25.9 61.9619 26.3 62.5476C25.8952 62.5476 25.5572 62.5619 25.2286 62.5381C25.1381 62.5333 25.0381 62.4286 24.9762 62.3429C24.7524 62.0286 24.5333 61.7095 24.3381 61.3762C24.2048 61.1476 24.0476 61.0238 23.7762 61.0667C23.6476 61.0952 23.5143 61.0762 23.3286 61.0762L23.3381 61.081ZM23.3476 60.2C23.8191 60.1714 24.2572 60.1619 24.6857 60.1048C24.9762 60.0619 25.1429 59.8048 25.1381 59.5048C25.1333 59.2191 25.0238 58.9619 24.7095 58.9238C24.2619 58.8714 23.8095 58.8667 23.3476 58.8429V60.2048V60.2ZM73.9048 60.7714H72.9191V59.8905H74.9143C74.9143 60.5286 74.9143 61.1571 74.9143 61.7905C74.9 61.8571 74.8667 61.9191 74.8095 61.9619C73.8524 62.7762 72.1667 62.9429 71.181 61.9143C70.5381 61.2429 70.3429 60.4238 70.6238 59.5333C70.9048 58.6429 71.5191 58.0619 72.4619 57.8905C73.3 57.7381 74.0572 57.9143 74.7572 58.4714L74.1095 59.2286C73.6143 58.8667 73.1095 58.6667 72.5191 58.8524C71.8714 59.0571 71.5095 59.681 71.5857 60.4524C71.6429 61.0762 72.1286 61.5714 72.7476 61.6476C72.9905 61.6762 73.2333 61.6714 73.4714 61.6238C73.9286 61.5333 73.981 61.4143 73.9095 60.7667L73.9048 60.7714ZM31.7191 62.5286C31.881 62.1381 32.0286 61.7762 32.181 61.4143C32.6524 60.3048 33.1286 59.1905 33.6143 58.081C33.6714 57.9857 33.7667 57.9191 33.8762 57.9048C34.6191 57.8571 34.6191 57.8667 34.9191 58.581C35.4714 59.881 36.0238 61.181 36.6095 62.5524C36.2619 62.5524 35.9429 62.5619 35.6238 62.5429C35.5667 62.5429 35.5 62.4191 35.4619 62.3429C35.3381 62.0762 35.2905 61.6952 35.0857 61.5667C34.8619 61.4286 34.4905 61.5238 34.181 61.5191C33.9429 61.5191 33.7048 61.5381 33.4714 61.5143C33.2381 61.4905 33.1238 61.5905 33.0381 61.7952C32.7238 62.5905 32.7191 62.5857 31.8714 62.5571C31.8429 62.5571 31.8143 62.5524 31.7191 62.5333V62.5286ZM34.1381 59.1191C33.9238 59.6524 33.7429 60.1048 33.5572 60.581H34.7429L34.1429 59.1191H34.1381ZM45.9238 59.2857C44.9381 58.6381 44.2095 58.6429 43.6952 59.2762C43.2381 59.8476 43.3 60.8095 43.8286 61.3191C44.3572 61.8286 45.1905 61.7762 45.9381 61.1429C46.1191 61.3238 46.3143 61.5 46.481 61.7C46.5143 61.7381 46.4952 61.8857 46.4476 61.9238C45.7048 62.6238 44.8238 62.8095 43.8714 62.481C42.9667 62.1619 42.4572 61.4952 42.3429 60.5286C42.1381 58.8238 43.5952 57.6143 45.1286 57.8857C45.781 58 46.2191 58.1952 46.5286 58.581C46.3286 58.8143 46.1238 59.0524 45.9191 59.2857H45.9238ZM53.0381 62.5571V57.9667H54.0286C54.0333 58.0524 54.0476 58.1381 54.0476 58.2286C54.0476 59.5619 54.0429 60.9 54.0524 62.2333C54.0524 62.4905 53.9762 62.5857 53.7191 62.5619C53.4952 62.5429 53.2714 62.5619 53.0333 62.5619L53.0381 62.5571Z" fill="white"/>
<path d="M30.7047 11.3429L31.1095 12.0762L28.8952 13.3L29.2428 13.9333L31.2095 12.8476L31.6095 13.5762L29.6428 14.6619L30.1285 15.5381L29.2666 16.0143L27.6285 13.0476L30.7047 11.3476V11.3429Z" fill="white"/>
<path d="M36.2999 12.6238L35.7618 12.1524L33.8285 12.9381L33.7714 13.6524L32.7904 14.0524L33.1333 10.2571L34.3904 9.74762L37.2809 12.2286L36.3047 12.6238H36.2999ZM33.8952 12.1143L35.1333 11.6095L34.0142 10.6333L33.8952 12.1143Z" fill="white"/>
<path d="M41.3476 10.1762L40.7619 7.81906L41.7095 7.58572L42.5238 10.8762L41.1286 11.2238L38.6048 9.34763L39.1905 11.7048L38.2381 11.9429L37.4238 8.65239L38.8238 8.30477L41.3476 10.181V10.1762Z" fill="white"/>
<path d="M46.119 6.96191L50.2 6.79524L50.2333 7.62858L48.6857 7.69048L48.7904 10.2429L47.8095 10.281L47.7047 7.72858L46.1524 7.79048L46.119 6.95715V6.96191Z" fill="white"/>
<path d="M51.3905 8.49525C51.4857 7.3762 52.3143 6.78096 53.7381 6.90477C55.1572 7.02858 55.8762 7.75715 55.781 8.87144C55.6857 9.99049 54.8524 10.5952 53.4334 10.4714C52.0096 10.3476 51.2953 9.61906 51.3905 8.49525ZM54.7572 8.78572C54.8096 8.20001 54.5048 7.80953 53.6667 7.73811C52.8334 7.66668 52.4667 7.99049 52.4191 8.58572C52.3667 9.18096 52.6762 9.57144 53.5048 9.64287C54.3381 9.7143 54.7096 9.38096 54.7619 8.79049L54.7572 8.78572Z" fill="white"/>
<path d="M61.619 8.36667L59.6285 9.38095L60.8761 11.6762L59.6714 11.4048L58.8047 9.80476L57.8571 10.2857L57.7047 10.9571L56.7476 10.7381L57.4952 7.42857L58.4571 7.64286L58.1237 9.12857L60.1904 8.0381L61.6285 8.36191L61.619 8.36667Z" fill="white"/>
<path d="M66.3285 9.99524L66.0666 10.7191L63.6856 9.85715L63.4999 10.3667L65.7904 11.1952L65.5285 11.9191L63.238 11.0905L63.0523 11.6L65.4332 12.4619L65.1713 13.1857L61.8666 11.9905L63.019 8.8L66.3237 9.99524H66.3285Z" fill="white"/>
<path d="M69.7618 14.3524L70.8761 12.1905L71.7476 12.6381L70.1904 15.6524L68.9095 14.9905L68.2476 11.9095L67.1333 14.0714L66.2571 13.6191L67.8142 10.6048L69.0999 11.2667L69.7618 14.3476V14.3524Z" fill="white"/>
<path d="M27.3953 85.4762C27.2476 85.719 27.3953 86.0238 28.1572 86.4857C28.8572 86.9048 29.0953 86.9 29.2048 86.719C29.3334 86.5095 29.2238 86.3905 28.3953 85.8143C27.2667 85.0238 26.8905 84.4762 27.2762 83.8333C27.6429 83.2286 28.4619 83.3476 29.4667 83.9524C30.5857 84.6238 31.0238 85.3524 30.6619 86.0143L29.781 85.4857C29.9334 85.2286 29.7143 84.9619 29.0619 84.5714C28.4429 84.2 28.2429 84.219 28.1476 84.3762C28.0381 84.5571 28.1476 84.6952 28.8953 85.2333C29.9143 85.9571 30.5619 86.4476 30.1048 87.2095C29.6572 87.9524 28.8381 87.7571 27.8048 87.1333C26.6286 86.4238 26.0905 85.7381 26.5096 84.9476L27.3905 85.4809L27.3953 85.4762Z" fill="white"/>
<path d="M31.5238 87.1905C31.9714 86.1571 32.9428 85.8619 34.2571 86.4286C35.5667 86.9952 36.0143 87.9143 35.5714 88.9429C35.1238 89.9762 34.1428 90.281 32.8333 89.7143C31.519 89.1476 31.0762 88.2286 31.5238 87.1905ZM34.6286 88.5381C34.8619 87.9952 34.6952 87.5333 33.9238 87.1952C33.1571 86.8619 32.7047 87.0571 32.4714 87.6C32.2333 88.1476 32.4047 88.6143 33.1667 88.9476C33.9333 89.281 34.3952 89.081 34.6286 88.5333V88.5381Z" fill="white"/>
<path d="M39.2952 88.2143C40.4952 88.5524 41.0333 89.2571 40.8952 90.1238L39.8905 89.8429C39.9095 89.5238 39.6762 89.1857 39.0714 89.0191C38.3714 88.8238 37.9381 89.0714 37.7762 89.6429C37.6143 90.2191 37.8619 90.6619 38.5571 90.8571C39.1619 91.0238 39.5381 90.8571 39.6857 90.5667L40.6905 90.8476C40.3571 91.6667 39.5333 91.9952 38.3286 91.6619C37.019 91.2952 36.4714 90.4857 36.7809 89.3667C37.0952 88.2524 37.9809 87.8476 39.2905 88.2143H39.2952Z" fill="white"/>
<path d="M43.3953 89.2286L42.7953 92.5619L41.8286 92.3857L42.4286 89.0524L43.3953 89.2286Z" fill="white"/>
<path d="M44.419 91.1476C44.5095 90.0286 45.3333 89.4333 46.7571 89.5476C48.1762 89.6619 48.9 90.3905 48.8047 91.5048C48.7143 92.6238 47.8857 93.2286 46.4619 93.1143C45.0381 93 44.319 92.2714 44.4143 91.1476H44.419ZM47.7857 91.4238C47.8333 90.8381 47.5285 90.4524 46.6905 90.381C45.8571 90.3143 45.4952 90.6429 45.4428 91.2333C45.3952 91.8286 45.7047 92.2143 46.5333 92.2857C47.3666 92.3524 47.7381 92.019 47.7857 91.4238Z" fill="white"/>
<path d="M51.119 92.0476C51.1333 92.3333 51.4238 92.5048 52.3143 92.4571C53.1286 92.4143 53.3238 92.2762 53.3095 92.0619C53.2952 91.8143 53.1428 91.781 52.1333 91.7667C50.7571 91.7429 50.1333 91.5 50.0952 90.7476C50.0571 90.0429 50.8047 89.681 51.9762 89.6238C53.2809 89.5571 54.0524 89.9095 54.119 90.6619L53.0952 90.7143C53.0809 90.4143 52.7476 90.3191 51.9857 90.3571C51.2666 90.3952 51.1095 90.5238 51.119 90.7048C51.1285 90.9143 51.2952 90.9714 52.219 91C53.4666 91.0286 54.2809 91.0714 54.3285 91.9619C54.3714 92.8286 53.5857 93.1238 52.3809 93.1857C51.0095 93.2571 50.1762 92.9857 50.0857 92.0952L51.1143 92.0429L51.119 92.0476Z" fill="white"/>
<path d="M55.7429 92.0429L56.681 91.9048L56.7858 92.6333L55.8477 92.7714L55.7382 92.0429H55.7429Z" fill="white"/>
<path d="M59.4809 88.5381C60.6952 88.2429 61.5095 88.5952 61.8143 89.419L60.8 89.6667C60.6619 89.3762 60.2905 89.2 59.6809 89.3476C58.9762 89.5191 58.719 89.9476 58.8571 90.5286C59 91.1095 59.4333 91.3762 60.1333 91.2048C60.7428 91.0571 60.9905 90.7238 60.9762 90.3952L61.9905 90.1476C62.1 91.0238 61.5428 91.719 60.3286 92.0143C59.0047 92.3381 58.1286 91.9 57.8524 90.7714C57.5762 89.6476 58.1524 88.8619 59.4762 88.5381H59.4809Z" fill="white"/>
<path d="M63.1524 89.3952C62.7382 88.3476 63.2191 87.4476 64.5477 86.9238C65.8715 86.4 66.8429 86.7333 67.2524 87.7762C67.6667 88.8238 67.1858 89.7333 65.862 90.2571C64.5334 90.7809 63.5667 90.4476 63.1524 89.3952ZM66.3001 88.1524C66.0858 87.6048 65.6382 87.3905 64.8572 87.7C64.081 88.0048 63.8953 88.4619 64.1143 89.0143C64.3334 89.5714 64.7858 89.7809 65.5572 89.4762C66.3334 89.1714 66.5191 88.7048 66.3001 88.1524Z" fill="white"/>
<path d="M69.3381 88.6905L67.6333 85.7571L68.9571 84.9857L71.1095 86.3381L70.9952 83.8L72.319 83.0286L74.0238 85.9619L73.1762 86.4524L71.9428 84.3286L72.0762 87.0952L71.2904 87.5524L68.9524 86.0714L70.1904 88.1952L69.3381 88.6905Z" fill="white"/>
<path d="M23.0191 81.8381C13.9953 74.181 8.26672 62.7571 8.26672 50C8.26672 37.2429 14.3001 25.2143 23.7382 17.5619" stroke="#14634A" stroke-miterlimit="10"/>
<path d="M76.2667 17.5667C85.7048 25.219 91.7334 36.9048 91.7334 50C91.7334 63.0952 86.0048 74.1857 76.981 81.8429" stroke="#14634A" stroke-miterlimit="10"/>
</g>
<defs>
<clipPath id="clip0_1124_14749">
<rect width="100" height="100" fill="white"/>
</clipPath>
</defs>
</svg>
