<svg width="100" height="100" viewBox="0 0 100 100" fill="none" xmlns="http://www.w3.org/2000/svg">
<g clip-path="url(#clip0_1124_17996)">
<path d="M50 100C77.6142 100 100 77.6142 100 50C100 22.3858 77.6142 0 50 0C22.3858 0 0 22.3858 0 50C0 77.6142 22.3858 100 50 100Z" fill="#005596"/>
<path d="M49.9999 98.7333C76.9146 98.7333 98.7333 76.9147 98.7333 50C98.7333 23.0853 76.9146 1.26666 49.9999 1.26666C23.0853 1.26666 1.2666 23.0853 1.2666 50C1.2666 76.9147 23.0853 98.7333 49.9999 98.7333Z" fill="#005596"/>
<path d="M50 2.53333C76.1714 2.53333 97.4667 23.8286 97.4667 50C97.4667 76.1714 76.1714 97.4667 50 97.4667C23.8286 97.4667 2.53333 76.1714 2.53333 50C2.53333 23.8286 23.8286 2.53333 50 2.53333ZM50 0C22.3857 0 0 22.3857 0 50C0 77.6143 22.3857 100 50 100C77.6143 100 100 77.6143 100 50C100 22.3857 77.6143 0 50 0Z" fill="#005596"/>
<path d="M50 100C77.6142 100 100 77.6142 100 50C100 22.3858 77.6142 0 50 0C22.3858 0 0 22.3858 0 50C0 77.6142 22.3858 100 50 100Z" fill="#6CADDF"/>
<path d="M50 2.53333C76.1714 2.53333 97.4667 23.8286 97.4667 50C97.4667 76.1714 76.1714 97.4667 50 97.4667C23.8286 97.4667 2.53333 76.1714 2.53333 50C2.53333 23.8286 23.8286 2.53333 50 2.53333ZM50 0C22.3857 0 0 22.3857 0 50C0 77.6143 22.3857 100 50 100C77.6143 100 100 77.6143 100 50C100 22.3857 77.6143 0 50 0Z" fill="white"/>
<path d="M50 16.519C31.5429 16.519 16.519 31.5381 16.519 50C16.519 68.4619 31.5381 83.4809 50 83.4809C68.4619 83.4809 83.4809 68.4571 83.4809 50C83.4809 31.5429 68.4619 16.519 50 16.519Z" fill="#00295C"/>
<path d="M79.9952 50C79.9952 33.4333 66.5667 20.0048 49.9952 20.0048C33.4333 20.0048 20 33.4333 20 50C20 66.5714 33.4333 79.9952 49.9952 79.9952C66.5571 79.9952 79.9952 66.5667 79.9952 50Z" fill="white"/>
<path d="M69.0953 50C69.0953 39.4571 60.5429 30.9048 49.9953 30.9048C39.4476 30.9048 30.9048 39.4524 30.9048 50C30.9048 60.5476 39.4524 69.0952 49.9953 69.0952C60.5381 69.0952 69.0953 60.5476 69.0953 50Z" fill="#6FADDC"/>
<path d="M49.9953 70.6095C38.6334 70.6095 29.3857 61.3619 29.3857 50C29.3857 38.6381 38.6334 29.3952 49.9953 29.3952C61.3619 29.3952 70.6048 38.6381 70.6048 50C70.6048 61.3619 61.3572 70.6095 49.9953 70.6095ZM49.9953 30.5476C39.2667 30.5476 30.5381 39.2714 30.5381 50C30.5381 60.7286 39.2667 69.4571 49.9953 69.4571C60.7238 69.4571 69.4572 60.7286 69.4572 50C69.4572 39.2714 60.7286 30.5476 49.9953 30.5476Z" fill="#00295C"/>
<path d="M49.9954 82.1095C32.2906 82.1095 17.8906 67.7048 17.8906 49.9952C17.8906 32.2857 32.2954 17.8905 49.9954 17.8905C67.6954 17.8905 82.1049 32.2952 82.1049 50C82.1049 67.7048 67.7001 82.1143 49.9954 82.1143M49.9954 18.5905C32.6763 18.5905 18.5859 32.6809 18.5859 50C18.5859 67.319 32.6763 81.4143 49.9954 81.4143C67.3192 81.4143 81.4097 67.3238 81.4097 50C81.4097 32.6809 67.3192 18.5905 49.9954 18.5905Z" fill="#6FADDC"/>
<path d="M23.1999 49.2667L22.657 49.4L22.5142 48.8429L23.4094 48.5762H23.8761V51.7095H23.1999V49.2714V49.2667ZM24.6618 50.8524V50.8429C24.6618 50.4667 24.8332 50.2429 25.1665 50.0952C24.9284 49.9476 24.7713 49.7476 24.7713 49.4143V49.4048C24.7713 48.9286 25.2046 48.5524 25.8618 48.5524C26.5189 48.5524 26.957 48.9238 26.957 49.4048V49.4143C26.957 49.7476 26.7999 49.9476 26.5618 50.0952C26.8761 50.2571 27.0618 50.4571 27.0618 50.8286V50.8381C27.0618 51.4143 26.5523 51.7524 25.8618 51.7524C25.1713 51.7524 24.6618 51.3952 24.6618 50.8571V50.8524ZM26.3999 50.8V50.7905C26.3999 50.5524 26.1713 50.4095 25.8618 50.4095C25.5523 50.4095 25.3237 50.5524 25.3237 50.7905V50.8C25.3237 51.0143 25.5237 51.1857 25.8618 51.1857C26.1999 51.1857 26.3999 51.0143 26.3999 50.8ZM26.3046 49.4905V49.481C26.3046 49.2905 26.138 49.1143 25.857 49.1143C25.5761 49.1143 25.4142 49.2857 25.4142 49.4714V49.481C25.4142 49.7 25.5856 49.8619 25.857 49.8619C26.1284 49.8619 26.3046 49.7 26.3046 49.4857V49.4905ZM74.0189 50.4333C73.857 50.5667 73.6523 50.6476 73.3903 50.6476C72.7142 50.6476 72.2808 50.2762 72.2808 49.6429V49.6333C72.2808 49.0048 72.7665 48.5429 73.4665 48.5429C73.8856 48.5429 74.1284 48.6429 74.3665 48.8809C74.5856 49.1048 74.7332 49.4429 74.7332 50.0524V50.0619C74.7332 51.0714 74.257 51.7619 73.3761 51.7619C72.9237 51.7619 72.6142 51.6095 72.3523 51.3905L72.7142 50.8714C72.9427 51.0524 73.1332 51.1381 73.3951 51.1381C73.8665 51.1381 73.9999 50.6952 74.0237 50.4333H74.0189ZM74.0332 49.6143V49.6048C74.0332 49.3286 73.8284 49.1286 73.4856 49.1286C73.1427 49.1286 72.957 49.3238 72.957 49.6V49.6095C72.957 49.8857 73.1618 50.0762 73.4999 50.0762C73.838 50.0762 74.0332 49.8809 74.0332 49.6143ZM76.9189 51.0381H75.3999L75.2903 50.5524L76.9951 48.5714H77.5713V50.4762H77.9903V51.0333H77.5713V51.7048H76.9189V51.0333V51.0381ZM76.9189 50.4809V49.5143L76.0903 50.4809H76.9189Z" fill="#6FADDC"/>
<path d="M50.0001 69.4619C39.2715 69.4619 30.543 60.7286 30.543 50C30.543 39.2714 39.2763 30.5429 50.0001 30.5429C60.7239 30.5429 69.462 39.2714 69.462 50C69.462 60.7333 60.7334 69.4619 50.0001 69.4619ZM50.0001 31.2619C39.6715 31.2619 31.262 39.6667 31.262 50C31.262 60.3333 39.6715 68.7429 50.0001 68.7429C60.3287 68.7429 68.743 60.3333 68.743 50C68.743 39.6667 60.3334 31.2619 50.0001 31.2619Z" fill="white"/>
<path fill-rule="evenodd" clip-rule="evenodd" d="M49.6428 33.2524C40.0381 33.2524 34.4952 34.5095 34.4952 34.5095C34.4952 34.5095 32.2809 42.9238 33.5381 53.7095C34.0666 58.2333 37.7476 67.9714 49.9428 71.2952C62.1381 67.9714 65.8143 58.2333 66.3428 53.7095C67.6047 42.9238 65.3857 34.5095 65.3857 34.5095C65.3857 34.5095 59.8428 33.2524 50.2381 33.2524H49.6333H49.6428Z" fill="#00295C"/>
<path fill-rule="evenodd" clip-rule="evenodd" d="M64.2526 50.6524C64.6335 42.5524 63.2574 35.9762 63.2574 35.9762C63.2574 35.9762 57.9907 34.9714 49.9621 34.9714C41.9193 34.9714 36.5716 36.0857 36.5716 36.0857C36.5716 36.0857 35.1097 42.6905 35.5097 50.6524H64.2526Z" fill="white"/>
<path fill-rule="evenodd" clip-rule="evenodd" d="M64.6715 51.1952C64.6667 51.3714 64.6572 51.5714 64.6477 51.7905C64.6477 51.8143 64.6477 51.8333 64.6477 51.8571C64.6477 51.881 64.6477 51.9 64.6477 51.9238C64.6334 52.2095 64.6096 52.519 64.581 52.8571C64.481 53.9095 64.2763 55.2048 63.8334 56.6238C63.4667 57.7905 62.9382 59.0429 62.1715 60.3143C61.5334 61.381 60.7239 62.4619 59.7001 63.5238C58.9667 64.2905 58.1191 65.0429 57.1429 65.7714C56.1525 66.5143 55.0334 67.2286 53.7667 67.9048C52.762 68.4429 51.662 68.9524 50.462 69.4286C50.2953 69.4952 50.1191 69.5619 49.9477 69.6286C35.9477 64.4 35.2144 54.2857 35.2144 51.2H64.6763L64.6715 51.1952Z" fill="#98C2E5"/>
<path d="M50.4571 69.4238C50.2904 69.4905 50.1142 69.5571 49.9428 69.6238C35.9428 64.3952 35.2095 54.281 35.2095 51.1952H35.3761L50.4571 69.4238ZM45.0571 51.1952H39.9142L53.7571 67.9C55.0238 67.2238 56.1428 66.5095 57.1333 65.7667L45.0523 51.1905L45.0571 51.1952ZM54.6142 51.1952H49.4714L59.6904 63.5238C60.7095 62.4619 61.519 61.381 62.1618 60.3143L54.6142 51.1952ZM59.3142 51.1905H59.319L63.819 56.6238C64.2666 55.2048 64.4666 53.9095 64.5666 52.8571C64.5952 52.5143 64.619 52.1952 64.6333 51.9238C64.6333 51.9 64.6333 51.8762 64.6333 51.8571C64.6333 51.8333 64.6333 51.8143 64.6333 51.7905C64.6476 51.5286 64.6571 51.3238 64.6571 51.1952H59.2999L59.3142 51.1905Z" fill="#6FAEDD"/>
<path d="M55.962 57.9714C55.9239 57.8524 55.8334 57.7619 55.7144 57.719L54.8667 57.4238C54.7906 57.4 54.7144 57.4 54.6382 57.4238C54.5715 57.1286 54.4048 56.8619 54.1572 56.6857C54.1287 56.6619 54.0953 56.6429 54.062 56.6238C54.0048 56.5857 53.9429 56.5524 53.8763 56.5238C53.7667 56.4762 53.6572 56.4428 53.5477 56.4095C53.2953 56.3286 53.0572 56.2524 52.7429 56.0286C52.4525 55.819 52.3191 55.6238 52.1906 55.4428C52.1572 55.3952 52.1287 55.3524 52.1001 55.3143C52.0144 55.1809 51.9096 55.0714 51.781 54.9762C51.5667 54.819 51.3144 54.7428 51.0477 54.7428C50.9906 54.7428 50.9334 54.7524 50.8763 54.7667C50.8763 54.7667 50.8763 54.7619 50.8763 54.7571C50.8906 54.6524 50.8667 54.5429 50.8048 54.4571L50.2763 53.7524C50.2001 53.6524 50.081 53.5905 49.9572 53.5905C49.8334 53.5905 49.7144 53.6476 49.6382 53.7429L49.0906 54.4524C49.0239 54.5428 48.9953 54.6571 49.0144 54.7667C48.9667 54.7667 48.9287 54.7524 48.881 54.7524C48.6144 54.7524 48.362 54.8333 48.1477 54.9857C48.1191 55.0095 48.0906 55.0333 48.062 55.0571C48.0048 55.1 47.9572 55.1428 47.9096 55.2C47.8287 55.2905 47.762 55.3809 47.7001 55.4714C47.5429 55.6857 47.4001 55.8857 47.081 56.1095C46.7906 56.319 46.5667 56.3857 46.3477 56.4524C46.2953 56.4667 46.2429 56.4809 46.1953 56.5C46.0429 56.5381 45.9001 56.6 45.7715 56.6952C45.5191 56.8762 45.3477 57.1524 45.2858 57.4571C45.2001 57.4238 45.1048 57.419 45.0144 57.4476L44.1715 57.7286C44.0525 57.7667 43.9572 57.8619 43.9191 57.9809C43.881 58.1 43.9001 58.2286 43.9715 58.3286L44.481 59.0619C44.5382 59.1428 44.6239 59.1952 44.7239 59.219C44.5858 59.5048 44.562 59.8333 44.662 60.1333C44.6715 60.1667 44.6858 60.2048 44.7001 60.2381C44.7239 60.3048 44.7525 60.3619 44.7906 60.4286C44.8525 60.5286 44.9191 60.6238 44.9858 60.7095C45.1429 60.9238 45.2906 61.1238 45.4096 61.4905C45.5191 61.8286 45.5144 62.0619 45.5096 62.2857C45.5096 62.3381 45.5096 62.3952 45.5096 62.4429C45.5001 62.6 45.5191 62.7524 45.5667 62.9C45.6667 63.2 45.8715 63.4381 46.1287 63.5857C46.0953 63.6428 46.0715 63.7095 46.0763 63.7762V64.6571C46.0858 64.7809 46.1429 64.9 46.2477 64.9714C46.3477 65.0429 46.4763 65.0667 46.5953 65.0286L47.4572 64.7762C47.5334 64.7524 47.5953 64.7 47.6429 64.6428C47.9001 64.8857 48.262 65.0095 48.6096 64.9809C48.6763 64.9809 48.7429 64.9714 48.8191 64.9524C48.9382 64.9238 49.0477 64.8905 49.1525 64.8524C49.4048 64.7714 49.6429 64.6952 50.0334 64.6952C50.3953 64.6952 50.6144 64.7714 50.8287 64.8476C50.881 64.8667 50.9287 64.8857 50.9763 64.9C51.1239 64.9571 51.281 64.9857 51.4382 64.9857C51.7525 64.9857 52.062 64.8619 52.2906 64.6428C52.3382 64.7 52.3953 64.7476 52.4715 64.7714L53.3191 65.0333C53.4382 65.0714 53.5715 65.0524 53.6715 64.9809C53.7763 64.9095 53.8334 64.7952 53.8382 64.6667L53.862 63.7762C53.862 63.7048 53.8429 63.6381 53.8096 63.5809C54.0715 63.4333 54.2763 63.1952 54.3715 62.8905C54.3858 62.8524 54.3953 62.819 54.4048 62.7809C54.4239 62.7143 54.4334 62.6476 54.4382 62.5762C54.4477 62.4571 54.4477 62.3429 54.4477 62.2333C54.4477 61.9667 54.4477 61.719 54.5667 61.3524C54.6763 61.0143 54.8191 60.8286 54.9572 60.6524C54.9906 60.6095 55.0239 60.5667 55.0525 60.5286C55.1525 60.4095 55.2287 60.2714 55.2763 60.1238C55.381 59.8143 55.3477 59.4714 55.2001 59.1809C55.2763 59.1524 55.3429 59.1143 55.3906 59.0476L55.9048 58.3286C55.981 58.2286 56.0001 58.1 55.962 57.9809V57.9714Z" fill="#00295C"/>
<path d="M49.9713 55.6571C49.8856 55.3524 49.6998 55.0905 49.457 54.9428L49.9713 54.2809L50.4713 54.9428C50.2236 55.1143 50.057 55.3571 49.9713 55.6571ZM45.9713 58.5809C45.7094 58.4095 45.5236 58.1762 45.4379 57.8905L44.6475 58.1524L45.1284 58.8429C45.3475 58.6619 45.657 58.5667 45.9713 58.5809ZM47.5189 63.2095C47.2713 63.4048 46.9903 63.5048 46.6903 63.5V64.3286L47.5094 64.0905C47.3998 63.8286 47.4094 63.5095 47.5189 63.2095ZM52.4284 63.219C52.5379 63.5143 52.5475 63.8095 52.4522 64.0905L53.2475 64.3381L53.2665 63.5C52.9808 63.519 52.676 63.419 52.4284 63.219ZM53.9427 58.5905C54.2617 58.5762 54.5475 58.6619 54.7856 58.8381L55.2713 58.1667L54.4713 57.8857C54.4046 58.1619 54.2094 58.4143 53.9427 58.5952M48.9617 63.2428C48.5903 63.2428 48.2903 62.9429 48.2903 62.5762C48.2903 62.5238 48.2427 62.5048 48.2141 62.5381C47.976 62.8333 47.7808 63.0905 47.776 63.4143C47.7665 63.8809 48.157 64.2571 48.6237 64.2571C48.6522 64.2571 48.6808 64.2571 48.7094 64.2524C48.7522 64.2524 48.7951 64.2524 48.8522 64.2333C49.1856 64.1524 49.4713 63.9905 50.0379 63.9905C50.5094 63.9905 50.7617 64.1143 51.0094 64.1952C51.1094 64.2381 51.2189 64.2571 51.3332 64.2571C51.7998 64.2571 52.1903 63.8809 52.1808 63.4143C52.176 63.0952 51.9808 62.8381 51.7427 62.5381C51.7189 62.5095 51.6808 62.5286 51.6808 62.5762C51.6808 62.9429 51.376 63.2428 51.0046 63.2428C50.7237 63.2428 50.3617 63.0048 50.0094 63.0048C49.6808 63.0048 49.2427 63.2428 48.9617 63.2428ZM48.5189 62.3238C48.5189 62.6333 48.7713 62.8857 49.0808 62.8857C49.1141 62.8857 49.1475 62.8857 49.1951 62.8762C49.2094 62.8762 49.2237 62.8667 49.2379 62.8619C49.2475 62.8619 49.2522 62.8619 49.257 62.8571C49.4475 62.7952 49.6332 62.7048 49.9665 62.7048C50.2998 62.7048 50.4808 62.8 50.6665 62.8476C50.7284 62.8714 50.7951 62.8857 50.8665 62.8857C51.176 62.8857 51.4284 62.6333 51.4284 62.3238C51.4284 62.0143 51.4094 62.1667 51.3808 62.0952C51.3665 62.0667 51.3522 62.0381 51.3332 62.0143C51.3332 62.0143 50.3808 60.7238 50.3522 60.6857C50.3046 60.6238 50.2475 60.6524 50.2046 60.6619C50.1617 60.6762 50.0427 60.7048 49.9665 60.7048C49.8903 60.7048 49.7903 60.6905 49.7332 60.6619C49.6713 60.6381 49.6237 60.619 49.5808 60.6857C49.5475 60.7381 48.8617 61.6571 48.6475 61.9571C48.5617 62.0571 48.5094 62.1809 48.5094 62.319L48.5189 62.3238ZM52.8903 61.8952C52.776 62.2476 52.3951 62.4381 52.0427 62.3238C51.9951 62.3095 51.957 62.3428 51.9856 62.3857C52.1951 62.7 52.3808 62.9619 52.6903 63.0667C53.1332 63.219 53.6141 62.9667 53.7617 62.5286C53.7713 62.5 53.776 62.4714 53.7808 62.4429C53.7951 62.4048 53.8046 62.3571 53.8094 62.3048C53.8332 61.9619 53.7665 61.6476 53.9427 61.1095C54.0856 60.6714 54.2856 60.4714 54.4379 60.2571C54.5094 60.1762 54.5617 60.0809 54.5998 59.9762C54.7427 59.5333 54.5046 59.0524 54.057 58.919C53.7475 58.8238 53.4379 58.9286 53.0808 59.0619C53.0475 59.0762 53.0522 59.1143 53.0951 59.1286C53.4522 59.2428 53.6475 59.6238 53.5284 59.9714C53.4379 60.2381 53.0998 60.5 52.9903 60.8333C52.8903 61.1429 52.9808 61.6286 52.8951 61.8952H52.8903ZM51.8713 62.0286C52.1665 62.1238 52.4856 61.9619 52.5808 61.6714C52.5951 61.6428 52.5998 61.6048 52.6046 61.5619C52.6046 61.5476 52.6046 61.5333 52.6046 61.5143C52.6046 61.5095 52.6046 61.5 52.6046 61.4952C52.6046 61.2905 52.576 61.0905 52.676 60.7762C52.7856 60.4476 52.9284 60.319 53.0332 60.1571C53.076 60.1048 53.1046 60.0476 53.1284 59.9809C53.2236 59.6857 53.0617 59.3714 52.7665 59.2762C52.6903 59.2524 52.6094 59.2476 52.5332 59.2524C52.4998 59.2524 52.4713 59.2619 52.4427 59.2667C52.4427 59.2667 50.9141 59.7619 50.8665 59.7809C50.7951 59.8095 50.7998 59.8714 50.7998 59.919C50.7998 59.9619 50.7903 60.0809 50.7665 60.1571C50.7427 60.2286 50.6951 60.3143 50.6522 60.3619C50.6094 60.4143 50.576 60.4524 50.6284 60.5095C50.6713 60.5571 51.3379 61.4857 51.5617 61.7809C51.6284 61.8905 51.7332 61.9762 51.8713 62.0238V62.0286ZM52.7951 57.7524C53.0998 57.9714 53.1665 58.3857 52.9427 58.6857C52.9141 58.7238 52.9427 58.7714 52.9856 58.7571C53.357 58.6571 53.6617 58.5619 53.857 58.3048C54.1379 57.9333 54.0475 57.4048 53.6713 57.1286C53.6475 57.1143 53.6237 57.0952 53.5951 57.0809C53.5617 57.0571 53.5237 57.0333 53.4713 57.0143C53.1522 56.8857 52.8237 56.8524 52.3665 56.519C51.9856 56.2476 51.857 56 51.6998 55.7905C51.6475 55.7 51.5713 55.619 51.476 55.5524C51.0998 55.2809 50.5617 55.3571 50.2903 55.7381C50.1046 56 50.1094 56.3238 50.1284 56.7C50.1284 56.7381 50.176 56.7428 50.1951 56.7095C50.4141 56.4095 50.8379 56.3476 51.1379 56.5619C51.3665 56.7238 51.5141 57.1286 51.7998 57.3333C52.0617 57.5238 52.557 57.5857 52.7856 57.7476L52.7951 57.7524ZM52.6094 58.7524C52.7951 58.5048 52.7379 58.1524 52.4856 57.9762C52.4617 57.9524 52.4332 57.9333 52.3903 57.919C52.376 57.9143 52.3617 57.9095 52.3475 57.9048C52.3427 57.9048 52.3332 57.9 52.3284 57.9C52.1379 57.8333 51.9284 57.8 51.6617 57.6095C51.3808 57.4048 51.3046 57.2333 51.1808 57.0809C51.1427 57.0286 51.0998 56.9762 51.0427 56.9381C50.7903 56.7571 50.4379 56.8143 50.257 57.0619C50.2094 57.1286 50.176 57.2 50.1617 57.2762C50.157 57.3048 50.1475 57.3381 50.1475 57.3667C50.1475 57.3667 50.1522 58.9619 50.157 59.0095C50.157 59.0857 50.2236 59.1 50.2665 59.1143C50.3094 59.1286 50.4236 59.1762 50.4856 59.219C50.5475 59.2619 50.6189 59.3333 50.6522 59.3905C50.6856 59.4476 50.7189 59.4905 50.7856 59.4619C50.8475 59.4381 51.9427 59.0905 52.2903 58.9762C52.4189 58.9476 52.5332 58.8714 52.6141 58.7619L52.6094 58.7524ZM48.7998 56.5714C49.0998 56.3524 49.5236 56.419 49.7427 56.719C49.7713 56.7571 49.8189 56.7476 49.8236 56.7C49.8427 56.3238 49.8427 56 49.6617 55.7381C49.3951 55.3571 48.857 55.2809 48.476 55.5524C48.4522 55.5714 48.4284 55.5905 48.4046 55.6095C48.3713 55.6333 48.3379 55.6619 48.2998 55.7048C48.076 55.9619 47.9475 56.2619 47.4856 56.5905C47.1046 56.8619 46.8284 56.9095 46.5808 56.9905C46.476 57.019 46.376 57.0619 46.2808 57.1286C45.9046 57.4 45.8094 57.9333 46.0951 58.3048C46.2903 58.5619 46.5998 58.6571 46.9665 58.7571C47.0046 58.7667 47.0189 58.7286 46.9951 58.6952C46.776 58.3952 46.8427 57.9762 47.1427 57.7619C47.3713 57.5952 47.8046 57.5809 48.0856 57.3762C48.3522 57.1857 48.5617 56.7381 48.7903 56.5762L48.7998 56.5714ZM49.7046 57.0571C49.5236 56.8095 49.1665 56.7524 48.9189 56.9333C48.8903 56.9524 48.8617 56.9714 48.8332 57.0048C48.8237 57.019 48.8141 57.0286 48.8046 57.0381C48.7998 57.0476 48.7951 57.0476 48.7903 57.0571C48.6665 57.219 48.576 57.4 48.3046 57.5952C48.0237 57.7952 47.8332 57.8143 47.6522 57.8857C47.5903 57.9048 47.5284 57.9286 47.4713 57.9714C47.2189 58.1524 47.1617 58.5048 47.3475 58.7524C47.3951 58.8143 47.457 58.8667 47.5237 58.9095C47.5522 58.9238 47.576 58.9381 47.6046 58.9476C47.6046 58.9476 49.1379 59.4381 49.1856 59.4524C49.2617 59.4714 49.2951 59.419 49.3189 59.3809C49.3475 59.3476 49.4236 59.2524 49.4856 59.2048C49.5475 59.1619 49.6379 59.119 49.6998 59.1048C49.7617 59.0905 49.8141 59.0762 49.8094 59C49.8046 58.9381 49.8094 57.7952 49.8094 57.4286C49.8189 57.3 49.7856 57.1667 49.7046 57.0524V57.0571ZM46.4427 59.9809C46.3284 59.6286 46.5189 59.2524 46.876 59.1381C46.9237 59.1238 46.9284 59.0714 46.8856 59.0571C46.5284 58.9238 46.2189 58.819 45.9141 58.9143C45.4665 59.0476 45.2236 59.5286 45.3713 59.9714C45.3808 59.9952 45.3903 60.0238 45.4046 60.0524C45.4189 60.0905 45.4379 60.1333 45.4617 60.1762C45.6427 60.4714 45.8903 60.6857 46.0617 61.219C46.2094 61.6619 46.1617 61.9381 46.1665 62.1952C46.157 62.3 46.1665 62.4095 46.2046 62.519C46.3522 62.9619 46.8332 63.2095 47.276 63.0571C47.5808 62.9524 47.7713 62.6905 47.976 62.3714C47.9998 62.3381 47.9665 62.3143 47.9237 62.3238C47.5713 62.4381 47.1903 62.2476 47.076 61.8952C46.9903 61.6286 47.1046 61.219 46.9998 60.8857C46.8998 60.5762 46.5332 60.2381 46.4475 59.9762L46.4427 59.9809ZM47.1856 59.2762C46.8903 59.3762 46.7284 59.6857 46.8237 59.9809C46.8284 60.0143 46.8427 60.0428 46.8665 60.0809C46.876 60.0952 46.8856 60.1048 46.8951 60.119C46.8951 60.1238 46.8998 60.1286 46.9046 60.1381C47.0237 60.3 47.1713 60.4476 47.2713 60.7619C47.376 61.0905 47.3379 61.2762 47.3475 61.4667C47.3475 61.5286 47.3522 61.5952 47.376 61.6619C47.4713 61.9524 47.7903 62.1143 48.0856 62.019C48.1617 61.9952 48.2332 61.9524 48.2903 61.9C48.3141 61.8809 48.3379 61.8571 48.357 61.8333C48.357 61.8333 49.2998 60.5429 49.3284 60.5C49.3713 60.4381 49.3284 60.3857 49.3046 60.3524C49.2808 60.3143 49.2141 60.2143 49.1903 60.1429C49.1665 60.0714 49.1522 59.9714 49.157 59.9095C49.1665 59.8428 49.1665 59.7905 49.0903 59.7762C49.0284 59.7619 47.9332 59.4 47.5808 59.2905C47.457 59.2381 47.3236 59.2333 47.1903 59.2714L47.1856 59.2762Z" fill="#EA332E"/>
<path d="M49.4857 59.8714C49.4857 59.6 49.7095 59.3762 49.9857 59.3762C50.2618 59.3762 50.4857 59.6 50.4857 59.8714C50.4857 60.1429 50.2618 60.3667 49.9857 60.3667C49.7095 60.3667 49.4857 60.1429 49.4857 59.8714ZM54.6095 47.9476L58.8571 46.4762C58.8571 46.4762 58.0285 45.3762 57.9237 43.9429C57.8428 42.8286 58.1333 41.3952 58.1333 41.3952L54.6904 42.5809L54.6095 47.9476ZM40.0999 47.1333C41.0047 47.2238 41.7857 47.3905 41.7857 47.3905C41.7857 47.3905 41.5904 46.1524 41.7666 45.1714C42.0476 43.5809 42.719 42.6238 42.719 42.6238C42.719 42.6238 41.9571 42.9762 40.7999 44.1476C39.2666 45.7048 38.7476 47.1238 38.7476 47.1238C38.7476 47.1238 39.338 47.0524 40.0999 47.1333ZM49.3047 37.6048C49.3047 37.6048 49.319 37.6048 49.3237 37.6048C49.3999 37.5952 49.4333 37.5524 49.4476 37.5C49.4476 37.4952 49.4476 37.5048 49.4476 37.4952C49.4571 37.4524 49.4857 37.4143 49.5237 37.3952L49.419 37.0809C49.3285 37.1095 49.2857 37.1762 49.2857 37.2C49.2857 37.2429 49.2571 37.2667 49.2095 37.2857L49.3047 37.6095V37.6048ZM44.1047 40.8524C44.1047 40.8524 44.119 40.8524 44.1237 40.8524C44.1999 40.8429 44.238 40.8 44.2428 40.7476C44.2428 40.7429 44.2428 40.7476 44.2428 40.7381C44.2523 40.6952 44.2809 40.6619 44.319 40.6429L44.2142 40.3238C44.1237 40.3524 44.0857 40.419 44.0809 40.4429C44.0809 40.4857 44.0523 40.5095 44.0047 40.5286L44.0999 40.8524H44.1047ZM53.7523 40.0381C53.7523 40.0381 53.7666 40.0381 53.7714 40.0381C53.8476 40.0286 53.8857 39.9857 53.8952 39.9333C53.8952 39.9238 53.8952 39.9333 53.8952 39.9238C53.9047 39.8809 53.9333 39.8428 53.9714 39.8238L53.8666 39.5048C53.7714 39.5333 53.7333 39.6 53.7333 39.6238C53.7333 39.6667 53.7047 39.6905 53.6571 39.7095L53.7523 40.0333V40.0381ZM44.1047 44.4476C45.5761 43.9428 47.2095 43.919 47.2095 43.919C47.2095 43.919 46.638 43.419 46.438 42.5286C46.2714 41.7905 46.5095 41.3095 46.5095 41.3095L43.2571 42.4238C43.2476 42.4524 42.7571 42.8762 42.6952 43.8571C42.6428 44.8143 43.1285 45.1048 43.1285 45.1048C43.1285 45.1048 43.3857 44.6952 44.1047 44.4476ZM50.6809 47.5762C52.5095 47.3476 54.6237 47.9571 54.6237 47.9571C54.6237 47.9571 53.5095 46.4476 53.219 45.2381C52.9618 44.1667 53.2428 43.0381 53.2428 43.0381L48.1571 44.7905C48.1571 44.7905 47.4904 45.5095 47.6618 46.5C47.8809 47.7476 48.7761 48.4286 48.7761 48.4286C48.7761 48.4286 48.938 47.8 50.6809 47.5809V47.5762ZM48.238 41.4381C48.238 41.4381 48.3285 40.9952 49.2618 40.6667C50.9428 40.0809 52.3761 40.1571 52.3761 40.1571C52.3761 40.1571 51.8476 39.6667 51.7333 38.7286C51.6761 38.2381 51.9142 37.6619 51.9142 37.6619L48.2618 38.9286C48.2333 38.9619 47.6952 39.5762 47.7285 40.3476C47.7761 41.3048 48.2333 41.4333 48.2333 41.4333L48.238 41.4381Z" fill="#FCC661"/>
<path d="M43.562 48.1714C43.562 48.1714 42.9192 47.6905 42.7525 46.8048C42.5811 45.8952 43.0287 45.3571 43.0287 45.3571L47.2096 43.9238C47.2096 43.9238 46.9525 44.7524 47.1953 45.7C47.5049 46.9 48.1477 47.7 48.1477 47.7C48.1477 47.7 46.6144 47.4143 45.1287 47.6C43.7144 47.7762 43.562 48.1762 43.562 48.1762V48.1714ZM48.2525 44.5667C48.2525 44.5667 47.7239 43.9571 47.6239 43.019C47.5192 42.0381 48.1049 41.6429 48.1477 41.619L52.3715 40.1571C52.3715 40.1571 52.2573 40.4619 52.362 41.3143C52.4525 42.0286 53.1573 43.0048 53.1573 43.0048C53.1573 43.0048 50.9096 43.0619 49.5096 43.6048C48.6287 43.9476 48.2525 44.5619 48.2525 44.5619V44.5667Z" fill="#FDC661"/>
<path d="M54.857 47.8714V48.5H54.4713L54.557 39.7571C54.3665 39.7762 54.0713 39.8095 54.0237 39.8143C53.9618 39.8143 53.9046 39.8619 53.8904 39.9286C53.8904 39.9429 53.8904 39.9286 53.8904 39.9381C53.8808 39.9905 53.8427 40.0333 53.7666 40.0429C53.7094 40.0429 53.1475 40.0905 52.7618 40.1048C52.7189 40.1048 52.6951 40.0476 52.757 40.0286C53.0904 39.9143 53.5618 39.7476 53.6285 39.7286C53.6904 39.7095 53.7237 39.6857 53.7285 39.6333C53.7285 39.6048 53.7713 39.5381 53.8713 39.5143C53.957 39.4905 54.7713 39.2 54.7713 39.2L54.8427 47.3286C54.9618 46.9143 55.2332 46.3143 55.8618 45.619C57.4142 43.9095 57.9665 42.0571 58.1189 41.4C57.957 42.3857 57.8618 43.2048 57.957 44.1476C58.0856 45.4048 58.8427 46.4857 58.8427 46.4857L54.8475 47.8762L54.857 47.8714ZM41.1475 47.2571C41.5904 47.3571 41.7951 47.4 41.7951 47.4C41.7951 47.4 41.5999 46.1619 41.7761 45.1809C42.057 43.5905 42.7142 42.6286 42.7142 42.6286C42.7142 42.6286 39.2713 46.8286 41.1475 47.2571ZM45.1665 43.781L45.1332 40.019H45.1237C45.0332 40.0476 44.3094 40.3048 44.2285 40.3238C44.1285 40.3524 44.0856 40.419 44.0856 40.4476C44.0856 40.4952 44.0475 40.5238 43.9856 40.5429C43.9189 40.5619 43.4475 40.7286 43.1142 40.8429C43.0523 40.8667 43.0761 40.9238 43.1237 40.9238C43.5094 40.9048 44.0665 40.8619 44.1237 40.8571C44.1999 40.8476 44.238 40.8048 44.2475 40.7524C44.2475 40.7476 44.2475 40.7524 44.2475 40.7429C44.2618 40.6809 44.3142 40.6333 44.3808 40.6286C44.4237 40.6286 44.7094 40.5952 44.8999 40.5714L44.8713 43.781H45.1665ZM50.0427 40.381H50.3332V36.7667H50.3285C50.3285 36.7667 49.5094 37.0524 49.4285 37.0762C49.3285 37.1048 49.2856 37.1714 49.2856 37.2C49.2856 37.2524 49.2475 37.2762 49.1856 37.2952C49.1189 37.3143 48.6475 37.4809 48.3142 37.5952C48.2523 37.6143 48.2761 37.6762 48.3189 37.6762C48.7046 37.6571 49.2618 37.6143 49.3189 37.6095C49.3951 37.6 49.4332 37.5571 49.4427 37.5048C49.4427 37.5 49.4427 37.5095 49.4427 37.5C49.457 37.4381 49.5094 37.3905 49.5761 37.3857C49.6189 37.3857 49.8951 37.3524 50.0808 37.3286L50.0475 40.3857L50.0427 40.381ZM48.138 47.6952C48.138 47.6952 47.4618 46.719 47.2046 45.6762C46.9808 44.7857 47.2046 43.9238 47.2046 43.9238C47.2046 43.9238 46.757 45.4571 45.6951 46.2905C44.9523 46.8762 43.1523 47.4143 43.5618 48.1714C43.6189 48.0667 43.8046 47.8714 44.5523 47.7C44.6427 47.6809 44.7332 47.6619 44.8285 47.6476V48.8905H45.2142V47.5952C46.5856 47.4524 48.138 47.6952 48.138 47.6952ZM43.1285 45.1095C43.2094 44.981 43.5094 44.6048 44.4523 44.3429C45.8856 43.9476 47.2046 43.9238 47.2046 43.9238C47.2046 43.9238 46.6523 43.4286 46.4713 42.4809C46.3665 41.9333 46.4999 41.3048 46.4999 41.3048C46.4999 41.3048 45.9904 42.281 45.0523 43.0524C44.0951 43.8429 42.8142 44.3952 43.1237 45.1095H43.1285ZM48.2285 41.4381C48.2856 41.2429 48.6904 40.8857 49.3285 40.6619C50.8237 40.1429 52.3713 40.1571 52.3713 40.1571C52.3713 40.1571 51.8427 39.6667 51.7285 38.7286C51.6713 38.2381 51.9094 37.6619 51.9094 37.6619C51.9094 37.6619 51.2713 38.7952 50.6189 39.3667C49.7142 40.1619 48.0046 40.7095 48.2332 41.4333L48.2285 41.4381ZM48.2523 44.5667C48.338 44.4048 48.9142 43.8524 49.8427 43.5429C51.2713 43.0667 53.2332 43.0381 53.2332 43.0381C53.2332 43.0381 52.5904 42.2714 52.3761 41.3476C52.257 40.8286 52.3713 40.1619 52.3713 40.1619C52.3713 40.1619 51.9618 41.3381 51.0475 42.1238C50.1332 42.9095 48.0618 43.7857 48.257 44.5667H48.2523ZM54.6999 48.0286C54.6999 48.0286 53.5475 46.5476 53.2189 45.2333C52.9999 44.3667 53.1618 43.3809 53.2332 43.0429C53.1094 43.5048 52.638 44.9952 51.5189 46.0286C50.4475 47.019 48.3189 47.5048 48.7713 48.4381C48.8523 48.2857 49.0951 47.9333 49.957 47.719L49.938 48.919H50.3427V47.6429C52.2237 47.3429 54.6951 48.0333 54.6951 48.0333L54.6999 48.0286Z" fill="#D3A030"/>
<path fill-rule="evenodd" clip-rule="evenodd" d="M56.6617 50.8238C56.9284 50.7714 57.1951 50.7143 57.5855 50.6143C57.5617 50.6 57.5427 50.5857 57.5236 50.5667C57.0903 50.0905 57.1712 49.5809 57.4332 49.3381C58.3808 48.4476 58.3712 47.8 58.3712 47.8C58.3712 47.8 56.0617 48.2762 53.0236 48.4333C52.8284 48.4428 52.1189 48.7524 51.9141 48.7619C51.4951 48.7762 51.0665 48.7905 50.6236 48.7952C44.8855 48.8381 43.2855 48.4428 41.3998 48.0905C39.4951 47.7333 38.657 47.3476 38.657 47.3476L38.5855 47.5524C38.5855 47.5524 40.0903 48.1333 41.176 48.6619C41.4046 48.7714 42.2998 50.119 42.5998 50.5714H35.7808C35.3998 42.7619 36.9141 36.3667 36.9141 36.3667C36.9141 36.3667 42.1331 35.2524 49.976 35.2524V34.4143C41.6522 34.4143 36.1093 35.5952 36.1093 35.5952C36.1093 35.5952 33.6855 44.1333 34.9712 54.2952C35.5093 58.5333 39.0141 66.4619 49.9474 70.1333L50.4284 69.4619L49.9474 68.8C39.6522 65.3428 36.6474 58.3762 36.1189 54.3857C36.0046 53.5048 35.9141 52.6286 35.8522 51.7667H49.9855V50.5714H42.7284C42.8855 50.0476 43.3998 49.919 44.0284 50.0714C44.6855 50.2286 45.3284 50.3952 45.9522 50.3619C47.5046 50.2857 47.276 49.8667 47.4189 49.8762C49.0141 49.9714 49.6189 50.3667 51.0141 50.3381C52.2855 50.319 52.7236 49.9857 52.8474 49.9809C54.3998 49.9667 54.9855 50.6762 56.5427 50.8095C56.5808 50.8095 56.6236 50.8143 56.6617 50.819V50.8238Z" fill="#FCC661"/>
<path fill-rule="evenodd" clip-rule="evenodd" d="M63.7905 35.5952C63.7905 35.5952 58.2714 34.4143 49.9381 34.4143V35.2524C57.7905 35.2524 62.9857 36.3667 62.9857 36.3667C62.9857 36.3667 64.5 42.7619 64.119 50.5714H57.2809C56.7333 50.0524 57.0476 49.3524 57.2285 49.1952C58.0381 48.4762 58.0381 47.9857 58.0381 47.9857C58.0381 47.9857 56.1905 48.4476 53.1524 48.5809C52.9571 48.5905 52.1047 48.9714 51.9 48.9762C51.4809 48.9857 50.8857 49.0048 50.4476 49.0048C46.4905 49.0048 44.5476 48.9286 41.1143 48.1952C41.1762 48.2809 41.2047 48.3143 41.2714 48.4C41.2904 48.4238 42.7762 48.8095 42.7952 48.8381C43.019 49.1428 43.319 49.3619 43.6809 49.5524C44.2333 49.8476 45.0476 50.1 45.7333 50.1381C47.2809 50.2286 46.9905 49.6524 47.1333 49.6476C48.7238 49.619 49.7428 50.1905 51.1381 50.1667C52.4095 50.1428 52.4524 49.7476 52.5714 49.7428C53.8238 49.6714 55.1047 50.2238 56.2 50.5714H49.9524V51.7667H64.0524C63.9904 52.6286 63.9 53.5048 63.7857 54.3857C63.2619 58.3714 60.2476 65.3381 49.9524 68.8V70.1333C60.8857 66.4619 64.4 58.5333 64.9381 54.2952C66.2238 44.1333 63.8 35.5952 63.8 35.5952H63.7905Z" fill="#D3A030"/>
<path d="M24.4001 39.2762L24.9763 38.1857L27.5525 38L26.243 35.7667L26.8144 34.6762L31.4097 37.0952L30.8811 38.1L27.8811 36.5238L29.1621 38.8476L29.1478 38.8714L26.5287 39.1286L29.5097 40.6952L28.9859 41.6857L24.3906 39.2667L24.4001 39.2762ZM31.9335 36.319L32.7335 35.4714L32.2097 34.3286L33.7144 32.7286L34.8859 33.1809L35.7049 32.3143L30.3716 30.3476L29.6478 31.1143L31.9287 36.319H31.9335ZM31.7573 33.3381L31.0049 31.6809L32.7049 32.3333L31.7573 33.3381ZM36.4668 31.7714L37.4287 31.1857L35.7192 28.3619L39.5811 29.8809L40.4144 29.3762L37.724 24.9381L36.7573 25.5238L38.4144 28.2571L34.6763 26.7857L33.7763 27.3286L36.4716 31.7714H36.4668ZM44.043 28.2571C45.0049 27.9762 45.4763 27.4714 45.8335 26.7762L44.9287 26.2714C44.6382 26.7429 44.3573 27.0714 43.7859 27.2381C42.9287 27.4857 42.1335 26.9429 41.8859 26.0857V26.0714C41.6335 25.2143 42.0382 24.3429 42.8811 24.1C43.3811 23.9571 43.8335 24.0571 44.3192 24.2952L44.7859 23.2857C44.1906 22.9619 43.5382 22.8143 42.5954 23.0857C41.0621 23.5286 40.3287 25 40.7382 26.419V26.4333C41.1573 27.8667 42.5763 28.6857 44.043 28.2619V28.2571ZM47.1049 27.4524L48.2478 27.4238L48.1954 25.3381L50.3001 25.2857L50.3525 27.3667L51.4954 27.3381L51.3621 22.1476L50.2192 22.1762L50.2716 24.2286L48.1668 24.2809L48.1144 22.2238L46.9716 22.2524L47.1049 27.4429V27.4524ZM59.7382 29.7286C60.7525 30.2 61.7144 30 62.143 29.0667V29.0524C62.5287 28.2286 62.1478 27.6381 61.3097 26.9476C60.5906 26.3619 60.4382 26.1667 60.5763 25.8571V25.8429C60.6906 25.6143 60.9811 25.5286 61.3763 25.7095C61.7763 25.8952 62.1049 26.2571 62.3859 26.7429L63.2859 26.2095C62.9859 25.6048 62.5001 25.119 61.8097 24.8C60.8478 24.3524 59.8954 24.6048 59.5001 25.4571V25.4714C59.062 26.4048 59.5525 26.9524 60.3906 27.6333C61.0859 28.2 61.1859 28.4095 61.062 28.6714V28.6857C60.9287 28.9619 60.5954 29.0095 60.1716 28.8143C59.6335 28.5667 59.2906 28.1381 59.0287 27.5905L58.0763 28.0381C58.4097 28.8048 59.0192 29.3857 59.7287 29.719L59.7382 29.7286ZM63.1478 31.6381L64.0573 32.3333L66.5668 29.0381L67.824 29.9952L68.4621 29.1571L65.043 26.5476L64.4049 27.3857L65.6621 28.3429L63.1525 31.6381H63.1478ZM69.2287 38.0524L69.743 39.0762L71.2287 38.3286L71.6335 39.1286L70.6478 40.8714L71.2478 42.0667L72.3382 40.1C72.8525 40.5809 73.5287 40.7476 74.2763 40.3714H74.2906C74.7287 40.1429 75.024 39.8238 75.1525 39.4333C75.3049 38.9762 75.2382 38.4333 74.943 37.8429L73.8763 35.7238L69.2335 38.0571L69.2287 38.0524ZM72.1287 37.8762L73.4621 37.2048L73.9716 38.219C74.224 38.7143 74.1525 39.1333 73.7144 39.3524H73.7001C73.3097 39.5571 72.9001 39.4048 72.6478 38.9095L72.1287 37.8762ZM54.6144 25.7381L56.5287 26.1524L57.0573 25.2286L54.8287 24.7476L55.0525 23.719L57.7716 24.3095L57.9859 23.3143L54.1573 22.4809L53.0573 27.5571L56.924 28.3952L57.1382 27.4L54.3811 26.8048L54.6097 25.7381H54.6144ZM70.0287 30.7L66.0478 34.0381L68.5906 37.0714L69.3668 36.419L67.5573 34.2571L68.3954 33.5571L69.6668 35.0762L70.7001 34.7286L69.1716 32.9048L69.9811 32.2286L71.7668 34.3619L72.543 33.7095L70.0287 30.7048V30.7ZM43.9002 77.6952C44.9192 77.6952 45.524 77.3333 46.0668 76.7524L45.3287 76.0048C44.9144 76.381 44.543 76.6238 43.9382 76.6238C43.0335 76.6238 42.4049 75.8667 42.4049 74.9619V74.9476C42.4049 74.0429 43.0478 73.3 43.9382 73.3C44.4668 73.3 44.8811 73.5286 45.2906 73.8952L46.0287 73.0429C45.5382 72.5571 44.943 72.2286 43.943 72.2286C42.3192 72.2286 41.1859 73.4571 41.1859 74.9619V74.9762C41.1859 76.4952 42.3382 77.6952 43.8954 77.6952H43.9002ZM47.2001 77.6048H48.3621V72.319H47.2001V77.6048ZM51.0668 77.6048H52.2287V73.3905H53.8382V72.319H49.4573V73.3905H51.0668V77.6048ZM56.3668 77.6048H57.5287V75.4952L59.5621 72.3143H58.2382L56.9573 74.4381L55.6954 72.3143H54.3382L56.3668 75.5143V77.6V77.6048Z" fill="#00295C"/>
<path d="M30.7095 11.3381L31.1143 12.0714L28.9 13.2952L29.2476 13.9286L31.2143 12.8429L31.6143 13.5714L29.6476 14.6572L30.1333 15.5333L29.2714 16.0095L27.6333 13.0429L30.7095 11.3429V11.3381Z" fill="#00295C"/>
<path d="M36.3001 12.6238L35.762 12.1524L33.8286 12.9381L33.7715 13.6524L32.7905 14.0524L33.1334 10.2571L34.3905 9.74762L37.281 12.2286L36.3048 12.6238H36.3001ZM33.8953 12.1143L35.1334 11.6095L34.0143 10.6333L33.8953 12.1095V12.1143Z" fill="#00295C"/>
<path d="M41.3476 10.1762L40.7619 7.81906L41.7095 7.58572L42.5238 10.8762L41.1286 11.2238L38.6048 9.34763L39.1905 11.7048L38.2381 11.9429L37.4238 8.65239L38.8238 8.30477L41.3476 10.181V10.1762Z" fill="#00295C"/>
<path d="M46.1191 6.96191L50.2001 6.79524L50.2334 7.62858L48.6858 7.69048L48.7906 10.2429L47.8096 10.281L47.7049 7.72858L46.1525 7.79048L46.1191 6.95715V6.96191Z" fill="#00295C"/>
<path d="M51.3903 8.49525C51.4855 7.3762 52.3141 6.78096 53.7379 6.90477C55.1569 7.02858 55.876 7.75715 55.7807 8.87144C55.6855 9.99049 54.8522 10.5905 53.4331 10.4714C52.0093 10.3476 51.295 9.61906 51.3903 8.49525ZM54.7569 8.78572C54.8093 8.20001 54.5045 7.80953 53.6664 7.73811C52.8331 7.66668 52.4665 7.99049 52.4188 8.58572C52.3665 9.18096 52.676 9.57144 53.5045 9.64287C54.3379 9.7143 54.7093 9.38096 54.7617 8.79049L54.7569 8.78572Z" fill="#00295C"/>
<path d="M61.6189 8.36667L59.6236 9.38095L60.8712 11.6762L59.6665 11.4048L58.7998 9.80476L57.8522 10.2857L57.6998 10.9571L56.7427 10.7429L57.4903 7.43333L58.4522 7.65238L58.1189 9.1381L60.1855 8.04762L61.6236 8.37143L61.6189 8.36667Z" fill="#00295C"/>
<path d="M66.3286 9.99524L66.0667 10.7191L63.6858 9.85715L63.5 10.3667L65.7905 11.1952L65.5286 11.9191L63.2381 11.0905L63.0524 11.6L65.4334 12.4619L65.1715 13.1857L61.8667 11.9905L63.0191 8.8L66.3238 9.99524H66.3286Z" fill="#00295C"/>
<path d="M69.7621 14.3524L70.8764 12.1905L71.7478 12.6381L70.1907 15.6524L68.9097 14.9905L68.2478 11.9095L67.1335 14.0714L66.2573 13.6191L67.8145 10.6048L69.1002 11.2667L69.7621 14.3476V14.3524Z" fill="#00295C"/>
<path d="M27.395 85.4762C27.2474 85.719 27.395 86.0238 28.1569 86.4857C28.8569 86.9048 29.095 86.9 29.2045 86.719C29.3331 86.5095 29.2236 86.3905 28.395 85.8143C27.2665 85.0238 26.8903 84.4762 27.276 83.8333C27.6426 83.2286 28.4617 83.3476 29.4665 83.9524C30.5855 84.6238 31.0236 85.3524 30.6617 86.0143L29.7807 85.4857C29.9331 85.2286 29.7141 84.9619 29.0617 84.5714C28.4426 84.2 28.2426 84.219 28.1474 84.3762C28.0379 84.5571 28.1474 84.6952 28.895 85.2333C29.9141 85.9571 30.5617 86.4476 30.1045 87.2095C29.6569 87.9524 28.8379 87.7571 27.8045 87.1333C26.6284 86.4238 26.0903 85.7381 26.5093 84.9476L27.3903 85.4809L27.395 85.4762Z" fill="#00295C"/>
<path d="M31.5236 87.1905C31.9712 86.1571 32.9426 85.8619 34.2569 86.4286C35.5664 86.9952 36.014 87.9143 35.5712 88.9429C35.1236 89.9762 34.1426 90.281 32.8331 89.7143C31.5188 89.1476 31.0759 88.2286 31.5236 87.1905ZM34.6283 88.5381C34.8616 87.9952 34.695 87.5333 33.9236 87.1952C33.1569 86.8619 32.7045 87.0571 32.4712 87.6C32.2331 88.1476 32.4045 88.6143 33.1664 88.9476C33.9331 89.281 34.395 89.081 34.6283 88.5333V88.5381Z" fill="#00295C"/>
<path d="M39.295 88.2143C40.495 88.5524 41.0331 89.2571 40.895 90.1238L39.8902 89.8429C39.9093 89.5238 39.6759 89.1857 39.0712 89.0191C38.3712 88.8238 37.9378 89.0714 37.7759 89.6429C37.614 90.2191 37.8616 90.6619 38.5569 90.8571C39.1616 91.0238 39.5378 90.8571 39.6854 90.5667L40.6902 90.8476C40.3569 91.6667 39.5331 91.9952 38.3283 91.6619C37.0188 91.2952 36.4712 90.4857 36.7807 89.3667C37.095 88.2524 37.9807 87.8476 39.2902 88.2143H39.295Z" fill="#00295C"/>
<path d="M43.3948 89.2286L42.7948 92.5619L41.8281 92.3857L42.4281 89.0524L43.3948 89.2286Z" fill="#00295C"/>
<path d="M44.4189 91.1476C44.5094 90.0286 45.3332 89.4333 46.757 89.5476C48.176 89.6619 48.8999 90.3905 48.8046 91.5048C48.7141 92.6238 47.8856 93.2286 46.4618 93.1143C45.0379 93 44.3189 92.2714 44.4141 91.1476H44.4189ZM47.7856 91.4238C47.8332 90.8381 47.5284 90.4524 46.6903 90.381C45.857 90.3143 45.4951 90.6429 45.4427 91.2333C45.3951 91.8286 45.7046 92.2143 46.5332 92.2857C47.3665 92.3524 47.7379 92.019 47.7856 91.4238Z" fill="#00295C"/>
<path d="M51.1188 92.0476C51.1331 92.3333 51.4235 92.5048 52.314 92.4571C53.1283 92.4143 53.3235 92.2762 53.3093 92.0619C53.295 91.8143 53.1426 91.781 52.1331 91.7667C50.7569 91.7429 50.1331 91.5 50.095 90.7476C50.0569 90.0429 50.8045 89.681 51.9759 89.6238C53.2807 89.5571 54.0521 89.9095 54.1188 90.6619L53.095 90.7143C53.0807 90.4143 52.7474 90.3191 51.9854 90.3571C51.2664 90.3952 51.1093 90.5238 51.1188 90.7048C51.1283 90.9143 51.295 90.9714 52.2188 91C53.4664 91.0286 54.2807 91.0714 54.3283 91.9619C54.3712 92.8286 53.5854 93.1238 52.3807 93.1857C51.0093 93.2571 50.1759 92.9857 50.0854 92.0952L51.114 92.0429L51.1188 92.0476Z" fill="#00295C"/>
<path d="M55.7426 92.0429L56.6806 91.9048L56.7854 92.6333L55.8473 92.7714L55.7378 92.0429H55.7426Z" fill="#00295C"/>
<path d="M59.4808 88.5381C60.6951 88.2429 61.5094 88.5952 61.8141 89.419L60.7999 89.6667C60.6618 89.3762 60.2903 89.2 59.6808 89.3476C58.9761 89.5191 58.7189 89.9476 58.857 90.5286C58.9999 91.1095 59.4332 91.3762 60.1332 91.2048C60.7427 91.0571 60.9903 90.7238 60.9761 90.3952L61.9903 90.1476C62.0999 91.0238 61.5427 91.719 60.3284 92.0143C59.0046 92.3381 58.1284 91.9 57.8522 90.7714C57.576 89.6476 58.1522 88.8619 59.4761 88.5381H59.4808Z" fill="#00295C"/>
<path d="M63.1522 89.3952C62.7379 88.3476 63.2189 87.4524 64.5474 86.9238C65.8712 86.4 66.8427 86.7333 67.2522 87.7762C67.6665 88.8238 67.1855 89.7333 65.8617 90.2571C64.5331 90.7809 63.5665 90.4476 63.1522 89.3952ZM66.2998 88.1524C66.0855 87.6048 65.6379 87.3905 64.857 87.7C64.0808 88.0048 63.8951 88.4619 64.1141 89.0143C64.3331 89.5714 64.7855 89.7809 65.557 89.4762C66.3331 89.1714 66.5189 88.7048 66.2998 88.1524Z" fill="#00295C"/>
<path d="M69.3332 88.6952L67.6284 85.7619L68.9522 84.9905L71.1046 86.3429L70.9903 83.8048L72.3141 83.0333L74.0189 85.9667L73.1713 86.4571L71.9379 84.3333L72.0713 87.1L71.2856 87.5571L68.9475 86.0762L70.1856 88.2L69.3332 88.6952Z" fill="#00295C"/>
<path d="M23.019 81.8381C13.9952 74.181 8.2666 62.7571 8.2666 50C8.2666 37.2429 14.2999 25.2143 23.738 17.5619" stroke="white" stroke-miterlimit="10"/>
<path d="M76.2666 17.5667C85.7047 25.219 91.7333 36.9048 91.7333 50C91.7333 63.0952 86.0047 74.1857 76.9809 81.8429" stroke="white" stroke-miterlimit="10"/>
</g>
<defs>
<clipPath id="clip0_1124_17996">
<rect width="100" height="100" fill="white"/>
</clipPath>
</defs>
</svg>
