<svg xmlns="http://www.w3.org/2000/svg" id="Layer_2" viewBox="0 0 210 210"><g id="Layer_1-2"><g><g><circle cx="105" cy="105" r="105" fill="#026434"></circle><path d="M105,5.32c54.96,0,99.68,44.72,99.68,99.68s-44.72,99.68-99.68,99.68S5.32,159.96,5.32,105,50.04,5.32,105,5.32m0-5.32C47.01,0,0,47.01,0,105s47.01,105,105,105,105-47.01,105-105S162.99,0,105,0h0Z" fill="#d7232a"></path></g><g><g><path d="M91.12,137.54c-1.49-1.62-2.82-3.41-4.18-5.17-2.33-3-5.3-4.83-8.61-6.56,.66-5.6,.96-11.17,.62-16.78h-5.46l-12.01,15.29v-58.34l9.23,11.74,8.24-8.92c2.17,1.36,3.8,2.29,6.43,2.14,2.01-.12,3.93-.69,5.75-1.51v-10.58l-15.29-12.01h58.34l-15.29,12.01v10.58c1.82,.81,3.74,1.39,5.75,1.51,2.63,.15,4.25-.78,6.43-2.14l8.24,8.92,9.23-11.74v58.34l-12.01-15.29h-5.48c-.32,5.61-.03,11.18,.64,16.78-3.31,1.73-6.28,3.56-8.61,6.56-1.36,1.76-2.69,3.54-4.18,5.17v13.6l15.29,12.01h-58.34l15.29-12.01v-13.6h0Zm14.89,4.59c-.38-.3-.74-.64-1-1.05-.27,.41-.62,.75-1,1.05l.04,8.48h1.92l.04-8.48h0Zm-2.01-75.83c.44,.43,.8,.95,1,1.51,.21-.56,.56-1.08,1-1.51l-.04-6.91h-1.92l-.04,6.91h0Zm29.38,28.14c-.18,.66-.34,1.31-.5,1.96h3.18v-1.93l-2.67-.03h0Zm-56.25,1.96c-.16-.65-.32-1.3-.5-1.96l-2.67,.03v1.92h3.18Z"></path><path d="M138.88,86.63l4.76-6.07v30.13l-4.76-6.04h-7.39c.12-.96,.25-1.92,.4-2.88h8.85v-11.73h-5.86c.4-1.15,.84-2.29,1.31-3.41h2.69Zm-42.89-19.26c.66-.34,1.37-.68,2.08-.97,.35-.13,.71-.27,1.06-.37v-10.86h11.73v10.86c.35,.1,.71,.24,1.06,.37,.71,.3,1.42,.64,2.08,.97v-10.4l6.06-4.76h-30.13l6.06,4.76v10.4h0Zm-17.49,37.28c-.12-.96-.25-1.92-.41-2.88h-8.83v-11.73h5.86c-.4-1.15-.84-2.29-1.31-3.41h-2.69l-4.76-6.07v30.13l4.76-6.04h7.39Zm26.5-33.76c.46,1.05,1.46,1.64,2.58,1.76,1.3,.15,2.67-.5,3.53-1.46,.69,.38,1.36,.83,2.05,1.24,3.37,2.07,7.24,3.66,11.21,3.87,1.93,.12,3.9-.12,5.72-.86l3.91,4.21c-1.52,3.03-2.84,6.16-3.93,9.36-1.89,5.55-3.09,11.33-3.66,17.15-.58,5.79-.53,11.64,.04,17.4-2.79,1.65-5.26,3.75-7.24,6.32-2.3,2.95-4.49,6.14-7.77,8.09-1.05,.62-1.99,1.3-2.87,.34-.58-.64-1.29-.93-1.93-.96-.61-.03-1.23,.22-1.65,.65-.43-.43-1.05-.68-1.67-.65-.65,.03-1.34,.32-1.92,.96-.87,.96-1.82,.28-2.87-.34-3.28-1.95-5.48-5.15-7.77-8.09-1.98-2.57-4.46-4.67-7.24-6.32,.58-5.76,.62-11.61,.04-17.4-.58-5.82-1.77-11.59-3.66-17.15-1.09-3.21-2.41-6.34-3.93-9.36l3.91-4.21c1.8,.74,3.78,.97,5.72,.86,3.97-.21,7.84-1.8,11.21-3.87,.69-.41,1.36-.86,2.05-1.24,.86,.96,2.23,1.61,3.53,1.46,1.12-.12,2.13-.71,2.58-1.76h0Zm-2.69,9.67c-2.42-.35-3.96,.71-6.09,1.33-3.28,.97-6.43,1.08-9.79,.69l-3.49,4.17c1.88,5.64,3.23,11.31,3.96,17.21,.75,6.01,.86,12.02,.68,18.08,1.85,1.18,3.52,2.36,4.99,3.99,1.93,2.14,3.19,4.8,5.58,6.53,3.96,2.85,9.72,2.85,13.68,0,2.39-1.73,3.65-4.39,5.58-6.53,1.48-1.62,3.15-2.81,4.99-3.99-.18-6.06-.07-12.07,.68-18.08,.72-5.89,2.08-11.57,3.96-17.21l-3.49-4.17c-3.37,.38-6.51,.28-9.79-.69-2.13-.62-3.66-1.68-6.09-1.33-.95,.15-1.85,.52-2.69,.97-.84-.46-1.74-.83-2.69-.97Zm-3.18,62.89c-.99-.22-1.96-.65-2.88-1.18-.09-.04-.18-.09-.27-.15v11.86l-6.06,4.76h30.13l-6.06-4.76v-11.86c-.09,.06-.18,.1-.27,.15-.92,.53-1.89,.96-2.88,1.18v12.33h-11.73v-12.33Z" fill="#e22826"></path><path d="M105,78.03h-.47v2.35h-2.11v-7.56h2.64c1.54,0,2.16,1.24,2.16,2.61,0,1.48-.61,2.6-2.22,2.6h0Zm.12-2.6c0-.19,.03-.41-.19-.41h-.4v.84h.4c.21,0,.19-.27,.19-.43Zm1.67,4.95h2.08v-2.38h-2.08v2.38Zm8.67,1.34l.52-2.33-1.98-.44-.52,2.33,1.98,.44Zm-3.74-.84l.59-2.64,1.98,.44,.49-2.17-1.98-.44,.09-.4,2.26,.52,.49-2.17-4.25-.96-1.67,7.37,2.01,.46Zm-10.31-.81l-.1-.53-.35-1.8-1.99,.4,.46,2.33,1.99-.4Zm-3.69,.89l-.62-2.64,1.98-.46-.5-2.17-1.96,.46-.1-.4,2.27-.52-.52-2.16-4.24,.97,1.68,7.36,2.01-.44Z"></path><path d="M98.43,77.44l-.25-1.11-1.98,.46-.34-1.45,2.26-.52-.25-1.11-3.19,.72,1.45,6.32,.95-.22-.61-2.64,1.96-.46Zm2.1,.93l-.93,.19,.25,1.27,.93-.18-.25-1.29Zm14.22-2.84l.24-1.11-3.21-.72-1.42,6.32,.95,.21,.61-2.64,1.97,.44,.25-1.11-1.98-.44,.34-1.46,2.26,.52Zm-.34,4.06l-.28,1.27,.92,.21,.3-1.27-.93-.21Zm-7.07-1.05v1.28h1v-1.28h-1Zm-2.28-5.2h-2.11v6.48h1.03v-2.33h1.02c1.3,0,1.67-.89,1.67-2.07,0-1.4-.64-2.08-1.61-2.08Zm-.13,3.06h-.95v-1.93h.95c.56,0,.74,.43,.74,.96,0,.65-.28,.97-.74,.97Zm33.17,2.7l-7.3-7.92c-2.04,1.29-3.83,1.85-6.25,1.73-3.44-.19-6.56-1.64-9.51-3.28-1.88-1.05-5.46-3.12-7.28-2.27-1.77,.83-2.27,3.53-.01,3.78,1.15,.13,2.56-.86,2.76-1.96,1.17,.52,2.27,1.26,3.44,1.96,3.12,1.91,6.81,3.44,10.5,3.65,2.11,.1,4.14-.19,6-1.2l5.38,5.79c-1.71,3.28-3.15,6.65-4.33,10.1-3.81,11.17-4.74,23.19-3.44,34.87-2.97,1.63-5.58,3.74-7.65,6.43-1.6,2.05-3.09,4.18-4.98,5.98-1.43,1.34-3.83,3.29-5.88,3.49-1,.1-1.43-.25-2.07-.95-.86-.95-1.99-.34-1.55,.84,.55,1.48,2.35,2.11,3.8,1.96,2.53-.24,5.21-2.3,6.99-3.99,1.98-1.88,3.52-4.06,5.17-6.2,2.23-2.88,4.98-4.83,8.18-6.5-1.4-11.89-.68-23.93,3.21-35.34,1.3-3.81,2.92-7.43,4.83-10.97Zm-35.58,60.2c-.64,.69-1.06,1.05-2.07,.95-2.05-.19-4.45-2.14-5.88-3.49-1.89-1.8-3.38-3.93-4.98-5.98-2.07-2.69-4.68-4.8-7.65-6.43,1.3-11.68,.37-23.71-3.44-34.87-1.18-3.46-2.61-6.82-4.33-10.1l5.38-5.79c1.86,1,3.88,1.3,6,1.2,3.69-.21,7.38-1.74,10.5-3.65,1.17-.71,2.28-1.45,3.44-1.96,.21,1.11,1.61,2.1,2.76,1.96,2.26-.25,1.76-2.95-.01-3.78-1.82-.84-5.41,1.23-7.28,2.27-2.95,1.64-6.07,3.09-9.51,3.28-2.42,.12-4.21-.44-6.25-1.73l-7.3,7.92c1.89,3.54,3.53,7.16,4.83,10.97,3.89,11.42,4.61,23.45,3.21,35.34,3.21,1.67,5.95,3.62,8.18,6.5,1.65,2.14,3.19,4.33,5.17,6.2,1.77,1.68,4.46,3.75,6.99,3.99,1.45,.15,3.24-.49,3.8-1.96,.44-1.18-.7-1.79-1.55-.84Zm22.83-52.24l-2.42-2.91c-3.28,.38-6.41,.1-9.57-.83-1.91-.58-3.29-1.61-5.44-1.29-1.05,.15-2.02,.66-2.92,1.2-.89-.53-1.88-1.05-2.92-1.2-2.14-.33-3.53,.71-5.44,1.29-3.16,.93-6.29,1.21-9.57,.83l-2.42,2.91c1.8,5.45,3.04,10.99,3.75,16.69,.72,5.8,.89,11.62,.71,17.47,1.71,1.08,3.21,2.27,4.58,3.78,1.82,1.99,3.18,4.74,5.35,6.32,3.43,2.47,8.51,2.47,11.93,0,2.17-1.58,3.53-4.33,5.35-6.32,1.37-1.51,2.87-2.7,4.58-3.78-.18-5.85-.02-11.67,.71-17.47,.71-5.7,1.95-11.24,3.75-16.69Zm-5.24,16.51c-.7,5.49-.9,11.11-.75,16.84-1.64,1.09-2.95,2.27-4.15,3.59-1.71,1.89-3.07,4.62-5.13,6.1-2.88,2.1-7.28,2.1-10.16,0-2.05-1.48-3.41-4.21-5.13-6.1-1.2-1.32-2.51-2.5-4.15-3.59,.15-5.73-.06-11.34-.75-16.84-.68-5.51-1.83-10.9-3.56-16.19l1.37-1.66c3.15,.31,6.34-.07,9.36-.97,1.61-.47,3.03-1.51,4.79-1.24,1.15,.18,2.19,.89,3.15,1.48,.96-.59,1.99-1.3,3.15-1.48,1.76-.27,3.18,.77,4.79,1.24,3.03,.9,6.22,1.29,9.36,.97l1.37,1.66c-1.73,5.29-2.88,10.68-3.56,16.19Zm-2.73,48.76v-12.79c-.25,.24-.52,.47-.8,.71,0,.02-.02,.02-.03,.03-.09,.07-.16,.15-.25,.22-.01,0-.03,.02-.04,.02,0,.02-.02,.02-.03,.03-.03,.03-.07,.06-.12,.1,0,0-.02,.01-.03,.01,0,.02-.02,.02-.03,.03-.03,.02-.06,.04-.09,.07,0,0-.02,.02-.03,.02,0,.01-.02,.01-.03,.03-.03,.03-.06,.05-.09,.07-.02,0-.02,.02-.03,.02t-.03,.03h-.02s-.07,.06-.1,.09c-.02,.01-.03,.01-.05,.03t-.03,.03s-.05,.03-.06,.03v12.14l8.91,6.99h-38.82l8.91-6.99v-12.14s-.03-.02-.03-.02c-.04-.03-.07-.06-.1-.07-.03-.03-.06-.05-.09-.07-.03-.01-.06-.05-.1-.07-.02-.02-.03-.03-.05-.03-.03-.03-.07-.06-.1-.09-.03-.01-.05-.03-.08-.06-.03-.01-.06-.04-.09-.06-.02-.03-.05-.05-.08-.08-.03-.01-.06-.04-.09-.06-.03-.03-.05-.06-.08-.07-.01-.02-.03-.02-.03-.03-.02,0-.03-.01-.03-.03h-.02s-.07-.06-.1-.09c-.02-.02-.03-.02-.03-.03-.04-.03-.09-.06-.12-.1-.02,0-.03-.02-.03-.02-.02-.01-.02-.03-.03-.03-.21-.19-.43-.37-.62-.56v12.79l-12.33,9.78h49.42l-12.33-9.78Zm-38.61-45.24c-.03-.33-.06-.65-.09-.96h-6.84l-6.99,8.89v-38.82l6.99,8.91h1.32c-.5-1.14-1.03-2.27-1.6-3.4l-8.58-10.8v49.41l9.78-12.32h6.1c-.03-.31-.06-.62-.09-.92Zm-1.32-8.73l-4.98-.04v-4.86l3.74-.03c-.19-.64-.38-1.29-.59-1.92h-4.89v8.76h7.1c-.12-.64-.25-1.27-.38-1.91Zm2.84-49.54l12.33,9.78v10.59c.55-.28,1.08-.58,1.61-.87,.09-.05,.18-.09,.27-.15v-10.49l-8.91-6.99h38.82l-8.91,6.99v10.49c.09,.06,.18,.1,.27,.15,.53,.3,1.06,.59,1.61,.87v-10.59l12.33-9.78h-49.42Zm20.34,7.81v9.07c.66-.07,1.31-.04,1.89,.15l.06-7.49h4.85l.06,7.49c.58-.19,1.23-.22,1.89-.15v-9.07h-8.74Zm37.81,25.1c-.56,1.11-1.09,2.24-1.6,3.38h1.32l6.99-8.91v38.82l-6.99-8.89h-6.84c-.03,.31-.06,.64-.09,.96-.03,.3-.06,.61-.09,.92h6.1l9.78,12.32v-49.41l-8.58,10.81Zm-4.06,9.78c-.21,.64-.4,1.29-.59,1.92l3.74,.03v4.86l-4.98,.04c-.13,.64-.27,1.27-.38,1.91h7.1v-8.76h-4.89Zm-26.9,51.83l-.06,9.23h-4.85l-.06-9.23c-.62,.21-1.27,.3-1.89,.3v10.66h8.74v-10.66c-.62,0-1.27-.09-1.89-.3Z" fill="#d2bf83"></path><path d="M105,86.76c-.96-.59-2.16-1.57-3.37-1.74-1.3-.21-2.87,.81-4.14,1.18-2.95,.87-6.06,1.3-9.13,1.09l-.35,.43c1.61,5.11,2.7,10.37,3.37,15.69,.68,5.38,.9,10.81,.78,16.25,1.36,.97,2.61,2.1,3.74,3.34,1.67,1.85,2.88,4.46,4.89,5.91,2.36,1.71,6.06,1.71,8.42,0,2.01-1.45,3.22-4.06,4.89-5.91,1.12-1.24,2.38-2.36,3.74-3.34-.12-5.44,.1-10.87,.78-16.25,.66-5.32,1.76-10.58,3.37-15.69l-.35-.43c-3.07,.21-6.17-.22-9.13-1.09-1.27-.37-2.84-1.39-4.14-1.18-1.21,.18-2.41,1.15-3.37,1.74Z" fill="#fff"></path><path d="M108.41,102.65v8.21c0,1.42-1.54,2.58-3.41,2.58s-3.41-1.17-3.41-2.58v-8.21h6.82Zm0,13.22h-6.82v8.23c0,1.42,1.54,2.57,3.41,2.57s3.41-1.15,3.41-2.57v-8.23h0Zm-8.2-13.22h-6.85v8.21c0,1.42,1.54,2.58,3.43,2.58s3.43-1.17,3.43-2.58v-8.21h0Zm9.57,8.21c0,1.42,1.54,2.58,3.43,2.58s3.43-1.17,3.43-2.58v-8.21h-6.85v8.21Zm-1.37-21.45h-6.82v8.23c0,1.43,1.54,2.58,3.41,2.58s3.41-1.15,3.41-2.58v-8.23h0Z" fill="#184890"></path><path d="M104.36,107.6c0-.35,.3-.64,.64-.64s.64,.28,.64,.64-.28,.65-.64,.65-.64-.3-.64-.65Zm-1.31-2.54c.34,0,.64-.28,.64-.64s-.3-.65-.64-.65-.65,.3-.65,.65,.3,.64,.65,.64Zm0,6.35c.34,0,.64-.28,.64-.64s-.3-.65-.64-.65-.65,.3-.65,.65,.3,.64,.65,.64Zm3.91-6.35c.35,0,.64-.28,.64-.64s-.28-.65-.64-.65-.65,.3-.65,.65,.3,.64,.65,.64Zm0,6.35c.35,0,.64-.28,.64-.64s-.28-.65-.64-.65-.65,.3-.65,.65,.3,.64,.65,.64Zm-1.96,10.07c.35,0,.64-.3,.64-.65s-.28-.64-.64-.64-.64,.28-.64,.64c0,.35,.3,.65,.64,.65Zm-1.95-3.21c.34,0,.64-.3,.64-.65s-.3-.64-.64-.64-.65,.28-.65,.64,.3,.65,.65,.65Zm0,6.37c.34,0,.64-.28,.64-.64s-.3-.65-.64-.65-.65,.3-.65,.65,.3,.64,.65,.64Zm3.91-6.37c.35,0,.64-.3,.64-.65s-.28-.64-.64-.64-.65,.28-.65,.64,.3,.65,.65,.65Zm0,6.37c.35,0,.64-.28,.64-.64s-.28-.65-.64-.65-.65,.3-.65,.65,.3,.64,.65,.64Zm-10.21-16.39c.35,0,.65-.3,.65-.65s-.3-.64-.65-.64-.65,.28-.65,.64,.3,.65,.65,.65Zm-1.96-3.19c.35,0,.65-.28,.65-.64s-.3-.65-.65-.65-.65,.3-.65,.65,.3,.64,.65,.64Zm0,6.35c.35,0,.65-.28,.65-.64s-.3-.65-.65-.65-.65,.3-.65,.65,.3,.64,.65,.64Zm3.93-6.35c.35,0,.65-.28,.65-.64s-.3-.65-.65-.65-.65,.3-.65,.65,.3,.64,.65,.64Zm0,6.35c.35,0,.65-.28,.65-.64s-.3-.65-.65-.65-.65,.3-.65,.65,.3,.64,.65,.64Zm14.52-3.16c.35,0,.65-.3,.65-.65s-.3-.64-.65-.64-.65,.28-.65,.64,.3,.65,.65,.65Zm1.96-3.19c.35,0,.65-.28,.65-.64s-.3-.65-.65-.65-.65,.3-.65,.65,.3,.64,.65,.64Zm0,6.35c.35,0,.65-.28,.65-.64s-.3-.65-.65-.65-.65,.3-.65,.65,.3,.64,.65,.64Zm-3.93-6.35c.35,0,.65-.28,.65-.64s-.3-.65-.65-.65-.65,.3-.65,.65,.3,.64,.65,.64Zm0,6.35c.35,0,.65-.28,.65-.64s-.3-.65-.65-.65-.65,.3-.65,.65,.3,.64,.65,.64Zm-6.28-16.38c.35,0,.64-.28,.64-.64s-.28-.65-.64-.65-.64,.3-.64,.65,.3,.64,.64,.64Zm-1.95-3.21c.34,0,.64-.28,.64-.64s-.3-.65-.64-.65-.65,.3-.65,.65,.3,.64,.65,.64Zm0,6.37c.34,0,.64-.28,.64-.64s-.3-.65-.64-.65-.65,.3-.65,.65,.3,.64,.65,.64Zm3.91-6.37c.35,0,.64-.28,.64-.64s-.28-.65-.64-.65-.65,.3-.65,.65,.3,.64,.65,.64Zm0,6.37c.35,0,.64-.28,.64-.64s-.28-.65-.64-.65-.65,.3-.65,.65,.3,.64,.65,.64Z" fill="#fff"></path></g><g><g><g><path d="M64.49,23.81l.85,1.54-4.65,2.57,.73,1.33,4.13-2.28,.84,1.53-4.13,2.28,1.02,1.84-1.81,1-3.44-6.23,6.46-3.57Z" fill="#fff"></path><path d="M76.23,26.51l-1.13-.99-4.06,1.65-.12,1.5-2.06,.84,.72-7.97,2.64-1.07,6.07,5.21-2.05,.83Zm-5.05-1.07l2.6-1.06-2.35-2.05-.25,3.11Z" fill="#fff"></path><path d="M86.83,21.37l-1.23-4.95,1.99-.49,1.71,6.91-2.93,.73-5.3-3.94,1.23,4.95-2,.5-1.71-6.91,2.94-.73,5.3,3.94Z" fill="#fff"></path><path d="M96.85,14.62l8.57-.35,.07,1.75-3.25,.13,.22,5.36-2.06,.08-.22-5.36-3.26,.13-.07-1.75Z" fill="#fff"></path><path d="M107.92,17.84c.2-2.35,1.94-3.6,4.93-3.34,2.98,.26,4.49,1.79,4.29,4.13-.2,2.35-1.95,3.62-4.93,3.36-2.99-.26-4.49-1.79-4.29-4.15Zm7.07,.61c.11-1.23-.53-2.05-2.29-2.2-1.75-.15-2.52,.53-2.62,1.78-.11,1.25,.54,2.07,2.28,2.22,1.75,.15,2.53-.55,2.64-1.79Z" fill="#fff"></path><path d="M129.41,17.57l-4.18,2.13,2.62,4.82-2.53-.57-1.82-3.36-1.99,1.01-.32,1.41-2.01-.46,1.57-6.95,2.02,.45-.7,3.12,4.34-2.29,3.02,.68Z" fill="#fff"></path><path d="M139.29,20.99l-.55,1.52-5-1.81-.39,1.07,4.81,1.74-.55,1.52-4.81-1.74-.39,1.07,5,1.81-.55,1.52-6.94-2.51,2.42-6.7,6.94,2.51Z" fill="#fff"></path><path d="M146.5,30.14l2.34-4.54,1.83,.94-3.27,6.33-2.69-1.39-1.39-6.47-2.34,4.54-1.84-.95,3.27-6.33,2.7,1.39,1.39,6.47Z" fill="#fff"></path></g><g><path d="M57.53,179.5c-.31,.51,0,1.15,1.6,2.12,1.47,.88,1.97,.87,2.2,.49,.27-.44,.04-.69-1.7-1.9-2.37-1.66-3.16-2.81-2.35-4.16,.77-1.27,2.49-1.02,4.6,.25,2.35,1.41,3.27,2.94,2.51,4.33l-1.85-1.11c.32-.54-.14-1.1-1.51-1.92-1.3-.78-1.72-.74-1.92-.41-.23,.38,0,.67,1.57,1.8,2.14,1.52,3.5,2.55,2.54,4.15-.94,1.56-2.66,1.15-4.83-.16-2.47-1.49-3.6-2.93-2.72-4.59l1.85,1.12Z" fill="#fff"></path><path d="M66.2,183.1c.94-2.17,2.98-2.79,5.74-1.6,2.75,1.19,3.69,3.12,2.76,5.28-.94,2.17-3,2.81-5.75,1.62-2.76-1.19-3.69-3.12-2.75-5.3Zm6.52,2.83c.49-1.14,.14-2.11-1.48-2.82-1.61-.7-2.56-.29-3.05,.85-.5,1.15-.14,2.13,1.46,2.83,1.61,.7,2.58,.28,3.07-.87Z" fill="#fff"></path><path d="M82.52,185.25c2.52,.71,3.65,2.19,3.36,4.01l-2.11-.59c.04-.67-.45-1.38-1.72-1.73-1.47-.41-2.38,.11-2.72,1.31-.34,1.21,.18,2.14,1.64,2.55,1.27,.35,2.06,0,2.37-.61l2.11,.59c-.7,1.72-2.43,2.41-4.96,1.71-2.75-.77-3.9-2.47-3.25-4.82,.66-2.34,2.52-3.19,5.27-2.42Z" fill="#fff"></path><path d="M91.13,187.38l-1.26,7-2.03-.37,1.26-7,2.03,.37Z" fill="#fff"></path><path d="M93.28,191.41c.19-2.35,1.92-3.6,4.91-3.36,2.98,.24,4.5,1.77,4.3,4.11-.19,2.35-1.93,3.62-4.92,3.38-2.99-.24-4.5-1.77-4.3-4.13Zm7.07,.58c.1-1.23-.54-2.04-2.3-2.19-1.75-.14-2.51,.55-2.62,1.79-.1,1.25,.55,2.06,2.29,2.21,1.75,.14,2.53-.56,2.63-1.81Z" fill="#fff"></path><path d="M107.35,193.3c.03,.6,.64,.96,2.51,.86,1.71-.09,2.12-.38,2.09-.83-.03-.52-.35-.59-2.47-.62-2.89-.05-4.2-.56-4.28-2.14-.08-1.48,1.49-2.24,3.95-2.36,2.74-.14,4.36,.6,4.5,2.18l-2.15,.11c-.03-.63-.73-.83-2.33-.75-1.51,.08-1.84,.35-1.82,.73,.02,.44,.37,.56,2.31,.62,2.62,.06,4.33,.15,4.43,2.02,.09,1.82-1.56,2.44-4.09,2.57-2.88,.15-4.63-.42-4.82-2.29l2.16-.11Z" fill="#fff"></path><path d="M117.06,193.29l1.97-.29,.22,1.53-1.97,.29-.23-1.53Z" fill="#fff"></path><path d="M124.91,185.93c2.55-.62,4.26,.12,4.9,1.85l-2.13,.52c-.29-.61-1.07-.98-2.35-.67-1.48,.36-2.02,1.26-1.73,2.48,.3,1.22,1.21,1.78,2.68,1.42,1.28-.31,1.8-1.01,1.77-1.7l2.13-.52c.23,1.84-.94,3.3-3.49,3.92-2.78,.68-4.62-.24-5.2-2.61-.58-2.36,.63-4.01,3.41-4.69Z" fill="#fff"></path><path d="M132.62,187.73c-.87-2.2,.14-4.09,2.93-5.19,2.78-1.1,4.82-.4,5.68,1.79,.87,2.2-.14,4.11-2.92,5.21-2.79,1.1-4.82,.4-5.69-1.81Zm6.61-2.61c-.45-1.15-1.39-1.6-3.03-.95-1.63,.64-2.02,1.6-1.56,2.76,.46,1.17,1.41,1.61,3.03,.97,1.63-.64,2.02-1.62,1.56-2.78Z" fill="#fff"></path><path d="M145.61,186.25l-3.58-6.16,2.78-1.62,4.52,2.84-.24-5.33,2.78-1.62,3.58,6.16-1.78,1.03-2.59-4.46,.28,5.81-1.65,.96-4.91-3.11,2.6,4.46-1.79,1.04Z" fill="#fff"></path></g></g><path d="M48.34,171.86c-18.95-16.08-30.98-40.07-30.98-66.86S30.03,52.95,49.85,36.88" fill="none" stroke="#d2bf83" stroke-miterlimit="10" stroke-width="2.22"></path><path d="M160.16,36.89c19.82,16.07,32.48,40.61,32.48,68.11s-12.03,50.79-30.98,66.87" fill="none" stroke="#d2bf83" stroke-miterlimit="10" stroke-width="2.22"></path></g></g></g></g></svg>