<svg xmlns="http://www.w3.org/2000/svg" width="64" height="64" viewBox="0 0 64 64"><g transform="translate(0 -22)"><circle cx="32" cy="32" r="32" transform="translate(0 22)" fill="#025221"/><g transform="translate(14.667 31.528)"><path d="M899.243,484.893a30.482,30.482,0,0,1-4.949-3.637,29.652,29.652,0,0,1-4.075-4.533,39.16,39.16,0,0,1-4.291-7.938,46.8,46.8,0,0,1-2.8-9.211c-.3-1.653-.576-3.467-.784-5.333a53.343,53.343,0,0,1-.341-5.776v-2.616l.072-.053q1.992-1.459,4-2.9t4-2.827l.1-.072.1.072a14.031,14.031,0,0,0,4.374,2.107,18.384,18.384,0,0,0,9.357,0,14.055,14.055,0,0,0,4.374-2.107l.1-.072.1.072q1.979,1.379,4,2.827t4,2.9l.072.053v2.616a53.281,53.281,0,0,1-.341,5.776c-.208,1.883-.488,3.693-.784,5.333a46.817,46.817,0,0,1-2.8,9.211,39.193,39.193,0,0,1-4.291,7.938,29.664,29.664,0,0,1-4.075,4.533,30.465,30.465,0,0,1-4.949,3.637l-.091.053Zm0,0" transform="translate(-882 -440)" fill="#1b1918" fill-rule="evenodd"/><path d="M1005.1,512.425l.232.725h.765l-.621.451.24.723-.621-.44-.611.44.235-.717-.626-.453h.773Zm0,0" transform="translate(-976.666 -496.156)" fill="#ff0" fill-rule="evenodd"/><path d="M897.1,483.644a30.283,30.283,0,0,0,3.466,2.4q.435-.267.862-.533V455.433l3.941-1.416V482.5a29.312,29.312,0,0,0,4.024-4.469q.155-.211.307-.429V452.463l3.941-1.416v19.117a46.417,46.417,0,0,0,2.776-9.131c.293-1.651.573-3.453.781-5.333a52.919,52.919,0,0,0,.341-5.736v-2.432q-1.971-1.44-3.925-2.84t-3.9-2.752a14.4,14.4,0,0,1-4.381,2.085,18.711,18.711,0,0,1-9.549,0,14.4,14.4,0,0,1-4.381-2.085q-1.968,1.373-3.9,2.752t-3.925,2.84v2.432a53.048,53.048,0,0,0,.342,5.736c.205,1.867.485,3.672.781,5.333.024.128.045.267.072.387l4.042-1.453v13.157a33.852,33.852,0,0,0,2.912,4.909q.677.925,1.416,1.792V458.412L897.095,457Zm0,0" transform="translate(-883.236 -441.516)" fill="#00682e" fill-rule="evenodd"/><path d="M931.488,528.426,934.8,532.5c.491.611.9,1.277,1.629,1.363h.349v.349h-2.443a2.16,2.16,0,0,1-1.931-.952l-2.621-3.467-.363.317v2.445c0,.9.056,1.24.755,1.333h.3v.349H926v-.349h.341c.707,0,.712-.773.712-1.333V526c0-.589.021-1.333-.725-1.333h-.341v-.341h4.48v.341h-.32c-.733,0-.747.712-.747,1.333v2.771l3.368-2.859c.421-.357.611-.533.611-.749,0-.333.056-.5-.229-.5h-.584v-.341h3.672v.349c-.456,0-.5.037-.672.179-.112.093-.763.68-1.333,1.192Zm0,0" transform="translate(-916.114 -505.367)" fill="#fff" fill-rule="evenodd"/><path d="M951.419,554.023v3.2h-.325a3.282,3.282,0,0,0-1.261-1.867,3.145,3.145,0,0,0-2.013-.691,2.218,2.218,0,0,0-1.312.267,1.024,1.024,0,0,0-.517.85.939.939,0,0,0,.109.557,2.69,2.69,0,0,0,.8.664,18.791,18.791,0,0,0,1.867.816,9.219,9.219,0,0,1,2.8,1.541,2.37,2.37,0,0,1-.477,3.7,4.693,4.693,0,0,1-2.9.867c-.368,0-.72-.059-1.019-.085a8.374,8.374,0,0,1-1.211-.328,2.434,2.434,0,0,0-.677-.136.83.83,0,0,0-.451.109,1.461,1.461,0,0,0-.411.438h-.368V560.3h.352a4,4,0,0,0,1.445,2.267,3.814,3.814,0,0,0,2.331.816,2.578,2.578,0,0,0,1.5-.43,1.1,1.1,0,0,0,.533-.944,1.335,1.335,0,0,0-.184-.613,2.344,2.344,0,0,0-.685-.573,9.741,9.741,0,0,0-1.528-.7,14.57,14.57,0,0,1-2.28-1.112,3.02,3.02,0,0,1-1.12-1,2.713,2.713,0,0,1-.411-1.256,2.445,2.445,0,0,1,1.1-1.944,4,4,0,0,1,2.523-.8,5.224,5.224,0,0,1,1.066.125,6.044,6.044,0,0,1,1,.3,3.494,3.494,0,0,0,.8.267.639.639,0,0,0,.411-.176c.149-.176.125-.219.224-.534Zm0,0" transform="translate(-930.064 -528.407)" fill="#fff" fill-rule="evenodd"/><path d="M945.883,608.984h.077v1.925a.283.283,0,0,0,0,.072h0a.083.083,0,0,0,.019.03.119.119,0,0,0,.035.024.256.256,0,0,0,.069.016h.141v.1h-.864v-.1h.144a.267.267,0,0,0,.067-.016l.034-.024a.093.093,0,0,0,.021-.026.256.256,0,0,0,0-.07v-1.464a.7.7,0,0,0,0-.1h0a.147.147,0,0,0,0-.037.1.1,0,0,0-.021-.024.084.084,0,0,0-.026-.016h-.032a.236.236,0,0,0-.067,0,.652.652,0,0,0-.093.034h-.016l-.043-.083Zm0,0" transform="translate(-931.104 -571.027)" fill="#fff" fill-rule="evenodd"/><path d="M951.7,611.145v-.075h.019a.929.929,0,0,0,.2-.024.84.84,0,0,0,.184-.067.822.822,0,0,0,.173-.12,1.321,1.321,0,0,0,.171-.189,1.426,1.426,0,0,0,.141-.232,1.294,1.294,0,0,0,.08-.211,1.1,1.1,0,0,1-.205.093.672.672,0,0,1-.224.04.567.567,0,0,1-.224-.043.6.6,0,0,1-.187-.131.568.568,0,0,1-.128-.205.739.739,0,0,1-.043-.267.8.8,0,0,1,.043-.267.779.779,0,0,1,.128-.235h0a.675.675,0,0,1,.237-.2.656.656,0,0,1,.3-.066.607.607,0,0,1,.267.056.675.675,0,0,1,.219.163.916.916,0,0,1,.181.3,1.066,1.066,0,0,1,.061.362,1.243,1.243,0,0,1-.045.342,1.331,1.331,0,0,1-.136.317,1.41,1.41,0,0,1-.219.267,1.573,1.573,0,0,1-.288.227,1.039,1.039,0,0,1-.267.125,1.067,1.067,0,0,1-.3.043h-.112Zm0,0" transform="translate(-936.009 -571.001)" fill="#fff" fill-rule="evenodd"/><path d="M953.833,610.538a1.416,1.416,0,0,1,.021-.171,1.19,1.19,0,0,0,0-.139.9.9,0,0,0,0-.152,1.2,1.2,0,0,0-.04-.165.758.758,0,0,0-.064-.149.447.447,0,0,0-.082-.11.315.315,0,0,0-.1-.064.267.267,0,0,0-.109-.021.288.288,0,0,0-.128.029.375.375,0,0,0-.112.088.384.384,0,0,0-.077.147.73.73,0,0,0-.027.208,1.033,1.033,0,0,0,.035.286.6.6,0,0,0,.1.213.344.344,0,0,0,.112.093.286.286,0,0,0,.133.032.373.373,0,0,0,.077,0l.093-.024a.533.533,0,0,0,.093-.04.511.511,0,0,0,.075-.048Zm0,0" transform="translate(-937.136 -571.476)" fill="#00682e" fill-rule="evenodd"/><path d="M960.848,608.971v.077h-.019a1.415,1.415,0,0,0-.192.029.855.855,0,0,0-.152.048.818.818,0,0,0-.131.075,1.139,1.139,0,0,0-.13.107,1.121,1.121,0,0,0-.117.131,1.058,1.058,0,0,0-.1.144,1.346,1.346,0,0,0-.08.165c-.019.045-.035.1-.051.147a.975.975,0,0,1,.2-.091.757.757,0,0,1,.24-.04.535.535,0,0,1,.219.046.6.6,0,0,1,.186.133.582.582,0,0,1,.128.2.734.734,0,0,1,.042.267.8.8,0,0,1-.043.267.847.847,0,0,1-.128.232.7.7,0,0,1-.24.2.688.688,0,0,1-.307.067.6.6,0,0,1-.216-.037.555.555,0,0,1-.179-.109.931.931,0,0,1-.237-.323,1.019,1.019,0,0,1-.077-.405,1.305,1.305,0,0,1,.029-.267,1.268,1.268,0,0,1,.091-.267,1.384,1.384,0,0,1,.144-.243,1.426,1.426,0,0,1,.2-.213,1.524,1.524,0,0,1,.219-.165.987.987,0,0,1,.208-.1,1.376,1.376,0,0,1,.2-.051,1.045,1.045,0,0,1,.184-.016h.112Zm0,0" transform="translate(-942.063 -571)" fill="#fff" fill-rule="evenodd"/><path d="M961.029,613.472a1.554,1.554,0,0,1-.021.179,1.333,1.333,0,0,0,0,.147.835.835,0,0,0,.013.152,1.205,1.205,0,0,0,.043.165.684.684,0,0,0,.069.152.516.516,0,0,0,.1.115.242.242,0,0,0,.085.051.3.3,0,0,0,.1.019h.04v-1.08a.356.356,0,0,0-.1-.014H961.3l-.064.019h0l-.085.037-.112.061Zm0,0" transform="translate(-943.255 -574.402)" fill="#00682e" fill-rule="evenodd"/><path d="M963,614.5a.268.268,0,0,0,.085-.026.387.387,0,0,0,.112-.091.392.392,0,0,0,.081-.146.7.7,0,0,0,.026-.2,1.03,1.03,0,0,0-.026-.24.757.757,0,0,0-.081-.205.377.377,0,0,0-.128-.139.326.326,0,0,0-.069-.032Zm0,0" transform="translate(-944.816 -574.464)" fill-rule="evenodd"/><path d="M968.618,608.973v.077H968.6a1.505,1.505,0,0,0-.192.029.927.927,0,0,0-.152.048.8.8,0,0,0-.13.075,1.034,1.034,0,0,0-.131.106,1.216,1.216,0,0,0-.12.131,1.3,1.3,0,0,0-.1.144,1.507,1.507,0,0,0-.077.165c-.019.045-.035.1-.051.147a.962.962,0,0,1,.195-.091.769.769,0,0,1,.24-.04.535.535,0,0,1,.219.046h0a.612.612,0,0,1,.315.336.723.723,0,0,1,.042.267.779.779,0,0,1-.171.488.651.651,0,0,1-.533.267.6.6,0,0,1-.216-.037.532.532,0,0,1-.179-.109.933.933,0,0,1-.315-.728,1.29,1.29,0,0,1,.032-.267,1.271,1.271,0,0,1,.091-.266,1.453,1.453,0,0,1,.147-.243,1.49,1.49,0,0,1,.2-.213,1.637,1.637,0,0,1,.219-.166,1,1,0,0,1,.211-.1,1.431,1.431,0,0,1,.2-.051,1.045,1.045,0,0,1,.184-.016h.112Zm0,0" transform="translate(-948.088 -571.002)" fill="#fff" fill-rule="evenodd"/><path d="M968.815,613.477a1.635,1.635,0,0,1-.021.179,1.333,1.333,0,0,0,0,.147.961.961,0,0,0,.013.152,1.167,1.167,0,0,0,.042.166.7.7,0,0,0,.07.152.537.537,0,0,0,.1.115.268.268,0,0,0,.085.051.3.3,0,0,0,.1.016.286.286,0,0,0,.125-.03.4.4,0,0,0,.112-.091.405.405,0,0,0,.08-.146.692.692,0,0,0,.027-.2,1.034,1.034,0,0,0-.027-.24.8.8,0,0,0-.083-.205.381.381,0,0,0-.125-.139.321.321,0,0,0-.171-.045h-.062l-.067.019h0a.66.66,0,0,0-.085.037l-.112.061Zm0,0" transform="translate(-949.281 -574.407)" fill-rule="evenodd"/><path d="M996.344,499.527l.232.725h.765l-.621.448.243.723-.624-.437-.611.437.235-.717-.626-.453h.773Zm0,0" transform="translate(-969.877 -486.156)" fill="#ff0" fill-rule="evenodd"/><path d="M994.07,463.518a.7.7,0,1,1,0,.979A.7.7,0,0,1,994.07,463.518Zm0,0" transform="translate(-968.742 -458.081)" fill="#ff0" fill-rule="evenodd"/><path d="M885.613,458.328l-2.021,1.472v2.432a53.106,53.106,0,0,0,.341,5.736c.189,1.72.443,3.384.709,4.923l.685-.768.861-1.067,1.163-.464.7-.611.579-.595.469-.6,1.525-1.043,1.253-.1.915-.368.813-.328,1.037-.837,1.067-1.211.68-.171.755-.293.533-.187.4-.149.243-.421.408-.2.283-.213,1.144.043,1.067-.461.731.624,1.579-.352,1.171-.16.979-.309.581-.245.467-.227.533.1.776-.083.067-.869-1.261.051-1.179.28-.976.205-.709-.485-1.333-.067-1.115.427-1.429-.3-1.333.267-.493-.109-.707-.875-.491-.32-.677-.36-1.475-.432-1.5-.995-1.488-.651-1.651.083-.861-.176-1.5-.117Zm0,0" transform="translate(-883.231 -453.771)" fill="#00a2d5" fill-rule="evenodd"/><path d="M987.591,512.425l.232.725h.763l-.621.448.243.723-.624-.44-.611.44.235-.717-.627-.453h.773Zm0,0" transform="translate(-963.095 -496.156)" fill="#ff0" fill-rule="evenodd"/><path d="M992.1,461.782l-.477-.477.243-.243.477.477a.836.836,0,0,0-.133.109.822.822,0,0,0-.109.133Zm0,0" transform="translate(-966.989 -456.331)" fill="#ff0" fill-rule="evenodd"/><path d="M990.175,465.632h.677a.887.887,0,0,0,0,.344h-.683Zm0,0" transform="translate(-965.879 -459.875)" fill="#ff0" fill-rule="evenodd"/><path d="M991.617,468.977l.485-.485a.771.771,0,0,0,.109.134.886.886,0,0,0,.133.109l-.485.485Zm0,0" transform="translate(-966.995 -462.092)" fill="#ff0" fill-rule="evenodd"/><path d="M996.188,470.819v-.683a.859.859,0,0,0,.344,0v.677Zm0,0" transform="translate(-970.54 -463.368)" fill="#ff0" fill-rule="evenodd"/><path d="M999.556,469.243l-.478-.477a.886.886,0,0,0,.243-.243l.477.477Zm0,0" transform="translate(-972.779 -462.115)" fill="#ff0" fill-rule="evenodd"/><path d="M1000.691,465.632h.683v.344h-.677a.855.855,0,0,0,0-.344Zm0,0" transform="translate(-974.029 -459.875)" fill="#ff0" fill-rule="evenodd"/><path d="M999.047,461.547l.485-.485.243.243-.485.485a.885.885,0,0,0-.243-.243Zm0,0" transform="translate(-972.756 -456.331)" fill="#ff0" fill-rule="evenodd"/><path d="M996.188,460.294v-.677h.344v.683a.873.873,0,0,0-.344,0Zm0,0" transform="translate(-970.54 -455.212)" fill="#ff0" fill-rule="evenodd"/></g></g></svg>