<svg width="100" height="100" viewBox="0 0 100 100" fill="none" xmlns="http://www.w3.org/2000/svg">
<g clip-path="url(#clip0_1124_13219)">
<path d="M50 100C77.6142 100 100 77.6142 100 50C100 22.3858 77.6142 0 50 0C22.3858 0 0 22.3858 0 50C0 77.6142 22.3858 100 50 100Z" fill="#005596"/>
<path d="M49.9999 98.7333C76.9146 98.7333 98.7333 76.9147 98.7333 50C98.7333 23.0853 76.9146 1.26666 49.9999 1.26666C23.0853 1.26666 1.2666 23.0853 1.2666 50C1.2666 76.9147 23.0853 98.7333 49.9999 98.7333Z" fill="#005596"/>
<path d="M50 2.53333C76.1714 2.53333 97.4667 23.8286 97.4667 50C97.4667 76.1714 76.1714 97.4667 50 97.4667C23.8286 97.4667 2.53333 76.1714 2.53333 50C2.53333 23.8286 23.8286 2.53333 50 2.53333ZM50 0C22.3857 0 0 22.3857 0 50C0 77.6143 22.3857 100 50 100C77.6143 100 100 77.6143 100 50C100 22.3857 77.6143 0 50 0Z" fill="#005596"/>
<path d="M50 100C77.6142 100 100 77.6142 100 50C100 22.3858 77.6142 0 50 0C22.3858 0 0 22.3858 0 50C0 77.6142 22.3858 100 50 100Z" fill="#006AB0"/>
<path d="M50 2.53333C76.1714 2.53333 97.4667 23.8286 97.4667 50C97.4667 76.1714 76.1714 97.4667 50 97.4667C23.8286 97.4667 2.53333 76.1714 2.53333 50C2.53333 23.8286 23.8286 2.53333 50 2.53333ZM50 0C22.3857 0 0 22.3857 0 50C0 77.6143 22.3857 100 50 100C77.6143 100 100 77.6143 100 50C100 22.3857 77.6143 0 50 0Z" fill="#002E5D"/>
<path d="M66.2285 31.3333C63.5904 30.6 60.9047 30.0476 58.1952 29.681C55.4857 29.3095 52.7523 29.1238 50.0142 29.1238H50C44.5142 29.1238 39.0571 29.8667 33.7714 31.3333L33.1904 31.4952V62.8476C33.1904 72.1143 40.7285 79.6572 50 79.6572C59.2714 79.6572 66.8095 72.1191 66.8095 62.8476V31.4952L66.2285 31.3333ZM65.2238 62.8476C65.2238 71.2429 58.3952 78.0714 50 78.0714C41.6047 78.0714 34.7761 71.2429 34.7761 62.8476V32.7C39.7428 31.3762 44.8619 30.7048 50 30.7048H50.0095C55.1428 30.7048 60.2619 31.3762 65.219 32.7V62.8476H65.2238Z" fill="white"/>
<path d="M36.2998 34.2286V42.6143H38.0236V34.2286H36.2998Z" fill="white"/>
<path d="M38.9902 34.2286V35.8143H40.395V42.6143H42.1188V35.8143H43.5236V34.2286H38.9902Z" fill="white"/>
<path d="M46.8235 34.2286H45.2377L42.9473 42.6143H44.6949L45.1044 41.0143H47.033L47.4615 42.6143H49.2092L46.8282 34.2286H46.8235ZM45.5187 39.4333L46.052 36.6905L46.5854 39.4333H45.5187Z" fill="white"/>
<path d="M51.7472 41.0286V34.2286H50.0234V42.6143H53.9472V41.0286H51.7472Z" fill="white"/>
<path d="M54.981 34.2286V42.6143H56.7048V34.2286H54.981Z" fill="white"/>
<path d="M61.3191 34.2286H59.7333L57.4429 42.6143H59.1905L59.6 41.0143H61.5286L61.9572 42.6143H63.7048L61.3238 34.2286H61.3191ZM60.0143 39.4333L60.5476 36.6905L61.081 39.4333H60.0143Z" fill="white"/>
<path d="M47.6097 44.4V43.8238H46.2002V46.9762H46.8288V45.5476H47.6145V44.9714H46.8288V44.3952H47.6145L47.6097 44.4Z" fill="#C5B783"/>
<path d="M48.0479 43.8238V46.9762H48.6764V43.8238H48.0479Z" fill="#C5B783"/>
<path d="M50.1145 45.2667V45.8429H50.6383C50.6383 45.9905 50.6193 46.1238 50.5478 46.2333C50.4955 46.3143 50.4193 46.3714 50.3098 46.3952C50.2812 46.4 50.2478 46.4048 50.2098 46.4048C49.8669 46.4048 49.7098 46.1333 49.7098 45.4048C49.7098 44.6762 49.8764 44.4048 50.2098 44.4048C50.2431 44.4048 50.2764 44.4048 50.3098 44.4143C50.4336 44.4429 50.5097 44.5238 50.5717 44.6429C50.6097 44.7286 50.6383 44.8333 50.6383 44.9572H51.2812C51.2478 44.2905 50.8907 43.8714 50.3098 43.8333C50.2764 43.8333 50.2431 43.8333 50.2098 43.8333C49.4478 43.8333 49.0669 44.4667 49.0669 45.4095C49.0669 46.3524 49.424 46.9857 50.2098 46.9857C50.2431 46.9857 50.2764 46.9857 50.3098 46.9857C50.9145 46.9381 51.2812 46.4714 51.2812 45.8667V45.281H50.1145V45.2667Z" fill="#C5B783"/>
<path d="M52.7476 46.3857C52.4571 46.3857 52.2381 46.1286 52.2381 45.4C52.2381 44.6714 52.4619 44.4143 52.7476 44.4143C52.9857 44.4143 53.1428 44.5429 53.1619 45.081H53.8047C53.8143 44.3762 53.4381 43.8191 52.7 43.8191C52.0333 43.8191 51.5952 44.3333 51.5952 45.3952C51.5952 46.4572 52.0333 46.9714 52.7 46.9714C53.419 46.9714 53.8 46.4286 53.8047 45.7333H53.1619C53.1476 46.0572 53.0762 46.3762 52.7476 46.3762V46.3857Z" fill="#C5B783"/>
<path d="M44.6712 48.1857V75.4095C39.7569 73.3286 36.2998 68.4524 36.2998 62.7905V48.1857H44.6712Z" fill="#009F4D"/>
<path d="M46.1952 48.1857H53.8V75.9524C52.5904 76.3 51.3142 76.4905 49.9952 76.4905C48.6761 76.4905 47.4 76.3048 46.1904 75.9524V48.1857H46.1952Z" fill="white"/>
<path d="M63.7 48.1857V62.7905C63.7 68.4524 60.2429 73.3286 55.3286 75.4095V48.1857H63.7Z" fill="#E40030"/>
<path d="M44.6712 44.7952H36.2998V46.0048H44.6712V44.7952Z" fill="#C5B783"/>
<path d="M63.7 44.7952H55.3286V46.0048H63.7V44.7952Z" fill="#C5B783"/>
<path d="M36.5476 26.8095L38.6238 27.9191L38.2285 25.6048L39.9095 24.0333L37.5857 23.6619L36.5476 21.5476L35.5142 23.6619L33.1904 24.0333L34.8666 25.6048L34.4761 27.9191L36.5476 26.8095Z" fill="white"/>
<path d="M63.4522 26.8095L65.5237 27.9191L65.1332 25.6048L66.8094 24.0333L64.4856 23.6619L63.4522 21.5476L62.4141 23.6619L60.0903 24.0333L61.7713 25.6048L61.376 27.9191L63.4522 26.8095Z" fill="white"/>
<path d="M54.4854 25.6048L56.5569 26.7143L56.1664 24.3952L57.8426 22.8286L55.5188 22.4524V22.4571V22.4524L54.4854 20.3429L53.4473 22.4524V22.4571V22.4524L51.1235 22.8286L52.8045 24.3952L52.4092 26.7143L54.4854 25.6048Z" fill="white"/>
<path d="M45.5144 25.6048L47.5906 26.7143L47.1953 24.3952L48.8763 22.8286L46.5525 22.4524V22.4571V22.4524L45.5144 20.3429L44.481 22.4524V22.4571V22.4524L42.1572 22.8286L43.8334 24.3952L43.4429 26.7143L45.5144 25.6048Z" fill="white"/>
<path d="M30.7095 11.3381L31.1143 12.0714L28.9 13.2952L29.2476 13.9286L31.2143 12.8429L31.6143 13.5714L29.6476 14.6572L30.1333 15.5333L29.2714 16.0095L27.6333 13.0429L30.7095 11.3429V11.3381Z" fill="white"/>
<path d="M36.3001 12.6238L35.762 12.1524L33.8286 12.9381L33.7715 13.6524L32.7905 14.0524L33.1334 10.2571L34.3905 9.74762L37.281 12.2286L36.3048 12.6238H36.3001ZM33.8953 12.1143L35.1334 11.6095L34.0143 10.6333L33.8953 12.1143Z" fill="white"/>
<path d="M41.3476 10.1762L40.7619 7.81906L41.7095 7.58572L42.5238 10.8762L41.1286 11.2238L38.6048 9.34763L39.1905 11.7048L38.2381 11.9429L37.4238 8.65239L38.8238 8.30477L41.3476 10.181V10.1762Z" fill="white"/>
<path d="M46.1191 6.96191L50.2001 6.79524L50.2334 7.62858L48.6858 7.69048L48.7906 10.2429L47.8096 10.281L47.7049 7.72858L46.1525 7.79048L46.1191 6.95715V6.96191Z" fill="white"/>
<path d="M51.3903 8.49525C51.4855 7.3762 52.3141 6.78096 53.7379 6.90477C55.1569 7.02858 55.876 7.75715 55.7807 8.87144C55.6855 9.99049 54.8522 10.5952 53.4331 10.4714C52.0093 10.3476 51.295 9.61906 51.3903 8.49525ZM54.7569 8.78572C54.8093 8.20001 54.5045 7.80953 53.6664 7.73811C52.8331 7.66668 52.4665 7.99049 52.4188 8.58572C52.3665 9.18096 52.676 9.57144 53.5045 9.64287C54.3379 9.7143 54.7093 9.38096 54.7617 8.79049L54.7569 8.78572Z" fill="white"/>
<path d="M61.6239 8.36667L59.6334 9.38095L60.881 11.6762L59.6763 11.4048L58.8096 9.80476L57.862 10.2857L57.7096 10.9571L56.7524 10.7381L57.5001 7.42857L58.462 7.64286L58.1286 9.12857L60.1953 8.0381L61.6334 8.36191L61.6239 8.36667Z" fill="white"/>
<path d="M66.3286 9.99524L66.0667 10.7191L63.6858 9.85715L63.5 10.3667L65.7905 11.1952L65.5286 11.9191L63.2381 11.0905L63.0524 11.6L65.4334 12.4619L65.1715 13.1857L61.8667 11.9905L63.0191 8.8L66.3238 9.99524H66.3286Z" fill="white"/>
<path d="M69.7621 14.3524L70.8764 12.1905L71.7478 12.6381L70.1907 15.6524L68.9097 14.9905L68.2478 11.9095L67.1335 14.0714L66.2573 13.6191L67.8145 10.6048L69.1002 11.2667L69.7621 14.3476V14.3524Z" fill="white"/>
<path d="M27.395 85.4762C27.2474 85.719 27.395 86.0238 28.1569 86.4857C28.8569 86.9048 29.095 86.9 29.2045 86.719C29.3331 86.5095 29.2236 86.3905 28.395 85.8143C27.2665 85.0238 26.8903 84.4762 27.276 83.8333C27.6426 83.2286 28.4617 83.3476 29.4665 83.9524C30.5855 84.6238 31.0236 85.3524 30.6617 86.0143L29.7807 85.4857C29.9331 85.2286 29.7141 84.9619 29.0617 84.5714C28.4426 84.2 28.2426 84.219 28.1474 84.3762C28.0379 84.5571 28.1474 84.6952 28.895 85.2333C29.9141 85.9571 30.5617 86.4476 30.1045 87.2095C29.6569 87.9524 28.8379 87.7571 27.8045 87.1333C26.6284 86.4238 26.0903 85.7381 26.5093 84.9476L27.3903 85.4809L27.395 85.4762Z" fill="white"/>
<path d="M31.5236 87.1905C31.9712 86.1571 32.9426 85.8619 34.2569 86.4286C35.5664 86.9952 36.014 87.9143 35.5712 88.9429C35.1236 89.9762 34.1426 90.281 32.8331 89.7143C31.5188 89.1476 31.0759 88.2286 31.5236 87.1905ZM34.6283 88.5381C34.8616 87.9952 34.695 87.5333 33.9236 87.1952C33.1569 86.8619 32.7045 87.0571 32.4712 87.6C32.2331 88.1476 32.4045 88.6143 33.1664 88.9476C33.9331 89.281 34.395 89.081 34.6283 88.5333V88.5381Z" fill="white"/>
<path d="M39.295 88.219C40.495 88.5571 41.0331 89.2619 40.895 90.1286L39.8902 89.8476C39.9093 89.5286 39.6759 89.1905 39.0712 89.0238C38.3712 88.8286 37.9378 89.0762 37.7759 89.6476C37.614 90.2238 37.8616 90.6667 38.5569 90.8619C39.1616 91.0286 39.5378 90.8619 39.6854 90.5714L40.6902 90.8524C40.3569 91.6714 39.5331 92 38.3283 91.6667C37.0188 91.3 36.4712 90.4905 36.7807 89.3714C37.095 88.2571 37.9807 87.8524 39.2902 88.219H39.295Z" fill="white"/>
<path d="M43.3948 89.2286L42.7948 92.5619L41.8281 92.3857L42.4281 89.0524L43.3948 89.2286Z" fill="white"/>
<path d="M44.4189 91.1476C44.5094 90.0286 45.3332 89.4333 46.757 89.5476C48.176 89.6619 48.8999 90.3905 48.8046 91.5048C48.7141 92.6238 47.8856 93.2286 46.4618 93.1143C45.0379 93 44.3189 92.2714 44.4141 91.1476H44.4189ZM47.7856 91.4238C47.8332 90.8381 47.5284 90.4524 46.6903 90.381C45.857 90.3143 45.4951 90.6429 45.4427 91.2333C45.3951 91.8286 45.7046 92.2143 46.5332 92.2857C47.3665 92.3524 47.7379 92.019 47.7856 91.4238Z" fill="white"/>
<path d="M51.1188 92.0476C51.1331 92.3333 51.4235 92.5048 52.314 92.4571C53.1283 92.4143 53.3235 92.2762 53.3093 92.0619C53.295 91.8143 53.1426 91.781 52.1331 91.7667C50.7569 91.7429 50.1331 91.5 50.095 90.7476C50.0569 90.0429 50.8045 89.681 51.9759 89.6238C53.2807 89.5571 54.0521 89.9095 54.1188 90.6619L53.095 90.7143C53.0807 90.4143 52.7474 90.3191 51.9854 90.3571C51.2664 90.3952 51.1093 90.5238 51.1188 90.7048C51.1283 90.9143 51.295 90.9714 52.2188 91C53.4664 91.0286 54.2807 91.0714 54.3283 91.9619C54.3712 92.8286 53.5854 93.1238 52.3807 93.1857C51.0093 93.2571 50.1759 92.9857 50.0854 92.0952L51.114 92.0429L51.1188 92.0476Z" fill="white"/>
<path d="M55.7426 92.0429L56.6806 91.9048L56.7854 92.6333L55.8473 92.7714L55.7378 92.0429H55.7426Z" fill="white"/>
<path d="M59.4808 88.5381C60.6951 88.2429 61.5094 88.5952 61.8141 89.419L60.7999 89.6667C60.6618 89.3762 60.2903 89.2 59.6808 89.3476C58.9761 89.5191 58.7189 89.9476 58.857 90.5286C58.9999 91.1095 59.4332 91.3762 60.1332 91.2048C60.7427 91.0571 60.9903 90.7238 60.9761 90.3952L61.9903 90.1476C62.0999 91.0238 61.5427 91.719 60.3284 92.0143C59.0046 92.3381 58.1284 91.9 57.8522 90.7714C57.576 89.6476 58.1522 88.8619 59.4761 88.5381H59.4808Z" fill="white"/>
<path d="M63.1522 89.3952C62.7379 88.3476 63.2189 87.4476 64.5474 86.9238C65.8712 86.4 66.8427 86.7333 67.2522 87.7762C67.6665 88.8238 67.1855 89.7333 65.8617 90.2571C64.5331 90.7809 63.5665 90.4476 63.1522 89.3952ZM66.2998 88.1524C66.0855 87.6048 65.6379 87.3905 64.857 87.7C64.0808 88.0048 63.8951 88.4619 64.1141 89.0143C64.3331 89.5714 64.7855 89.7809 65.557 89.4762C66.3331 89.1714 66.5189 88.7048 66.2998 88.1524Z" fill="white"/>
<path d="M69.3381 88.6905L67.6333 85.7571L68.9571 84.9857L71.1095 86.3381L70.9952 83.8L72.319 83.0286L74.0238 85.9619L73.1762 86.4524L71.9428 84.3286L72.0762 87.0952L71.2904 87.5524L68.9524 86.0714L70.1904 88.1952L69.3381 88.6905Z" fill="white"/>
<path d="M23.019 81.8381C13.9952 74.181 8.2666 62.7571 8.2666 50C8.2666 37.2429 14.2999 25.2143 23.738 17.5619" stroke="#002E5D" stroke-miterlimit="10"/>
<path d="M76.2666 17.5667C85.7047 25.219 91.7333 36.9048 91.7333 50C91.7333 63.0952 86.0047 74.1857 76.9809 81.8429" stroke="#002E5D" stroke-miterlimit="10"/>
</g>
<defs>
<clipPath id="clip0_1124_13219">
<rect width="100" height="100" fill="white"/>
</clipPath>
</defs>
</svg>
