<svg width="100" height="100" viewBox="0 0 100 100" fill="none" xmlns="http://www.w3.org/2000/svg">
<g clip-path="url(#clip0_1124_16184)">
<path d="M50 100C77.6142 100 100 77.6142 100 50C100 22.3858 77.6142 0 50 0C22.3858 0 0 22.3858 0 50C0 77.6142 22.3858 100 50 100Z" fill="#005596"/>
<path d="M49.9999 98.7333C76.9146 98.7333 98.7333 76.9147 98.7333 50C98.7333 23.0853 76.9146 1.26666 49.9999 1.26666C23.0853 1.26666 1.2666 23.0853 1.2666 50C1.2666 76.9147 23.0853 98.7333 49.9999 98.7333Z" fill="#005596"/>
<path d="M50 2.53333C76.1714 2.53333 97.4667 23.8286 97.4667 50C97.4667 76.1714 76.1714 97.4667 50 97.4667C23.8286 97.4667 2.53333 76.1714 2.53333 50C2.53333 23.8286 23.8286 2.53333 50 2.53333ZM50 0C22.3857 0 0 22.3857 0 50C0 77.6143 22.3857 100 50 100C77.6143 100 100 77.6143 100 50C100 22.3857 77.6143 0 50 0Z" fill="#005596"/>
<path d="M50 100C77.6142 100 100 77.6142 100 50C100 22.3858 77.6142 0 50 0C22.3858 0 0 22.3858 0 50C0 77.6142 22.3858 100 50 100Z" fill="#FF671D"/>
<path d="M50 2.53333C76.1714 2.53333 97.4667 23.8286 97.4667 50C97.4667 76.1714 76.1714 97.4667 50 97.4667C23.8286 97.4667 2.53333 76.1714 2.53333 50C2.53333 23.8286 23.8286 2.53333 50 2.53333ZM50 0C22.3857 0 0 22.3857 0 50C0 77.6143 22.3857 100 50 100C77.6143 100 100 77.6143 100 50C100 22.3857 77.6143 0 50 0Z" fill="white"/>
<path d="M50 80.9429C45.1619 80.9429 37.5619 71.9952 36.3952 70.3905C29.0714 60.4381 27.3762 51.8143 26.8381 48.581C26.719 47.8381 26.5809 46.6286 26.5571 45.1143V44.4619C26.5809 41.2524 27.2524 36.7905 29.9047 32.2571C33.4143 26.2095 37.3667 23.1429 39.7857 21.6762C40.9047 20.981 41.6952 20.6524 41.9238 20.5381C42.6428 20.1667 43.1428 20.4048 43.1428 20.4048C46.1428 23.8476 47.3762 21.6571 47.3762 21.6571C47.3762 21.6571 46.8095 20.5857 46.9143 19.9143C46.8381 19.2714 47.919 19.0524 48.2476 19.0524C48.5952 19.0524 49.1762 19.5571 49.1762 19.5571L49.9905 19.4191L50.8047 19.5571C50.8047 19.5571 51.3714 19.0714 51.719 19.0714C52.0428 19.0714 53.2333 19.3191 53.1286 19.8524C53.1714 20.7 52.7428 21.7048 52.7428 21.7048C52.7428 21.7048 53.9476 23.9191 56.9476 20.4762C56.9476 20.4762 57.3143 20.1619 58.0619 20.5286C58.2952 20.6429 59.1524 21.0191 60.3619 21.7619C62.7809 23.2524 66.6381 26.3191 70.0809 32.2476C72.7095 36.781 73.3809 41.2238 73.4286 44.4524V45.1048C73.4047 46.6191 73.2667 47.8238 73.1238 48.5714C72.5905 51.8048 70.9143 60.4286 63.5905 70.381C62.4762 71.9143 55.4809 80.9333 49.9905 80.9333L50 80.9429Z" fill="white"/>
<path d="M71.6 41.819L28.0381 40.6524L37.2714 30.2238L64.6809 28.8952L71.6 41.819Z" fill="white"/>
<path fill-rule="evenodd" clip-rule="evenodd" d="M50.1665 79.8572C54.4903 80.0286 62.7237 70.9238 67.1237 62.5619C70.6189 55.9095 71.7856 51.4238 71.957 43.9095L28.0427 43.8238C28.3665 52.3524 29.9284 57.4952 34.3999 64.7619C38.857 72.0095 43.9808 79.2572 50.1665 79.8524V79.8572Z" fill="#FEDF2E"/>
<path d="M56.2714 40.3429H55.8619L54.5666 43.5286H55.3619L55.6143 42.8667H56.9571L57.1857 43.5286H58.0285L56.7333 40.3429H56.2762H56.2714ZM35.9619 40.3429H35.5524L34.2571 43.5286H35.0285L35.2762 42.8667H36.6428L36.8714 43.5286H37.6904L36.4143 40.3429H35.9619ZM32.4143 43.5286H33.119L34.3714 40.3429H33.5762L32.7809 42.7524L31.9857 40.3429H31.1666L32.419 43.5286H32.4143ZM40.8285 42.9619H39.0095V40.3476H38.2381V43.5333H40.8285V42.9667V42.9619ZM44.3095 42.9619H42.3285V42.119H44.0571V41.5714H42.3285V40.9143H44.2143V40.3476H41.5762V43.5333H44.3047V42.9667L44.3095 42.9619ZM45.8809 41.2571L47.3809 43.5333H48.1524V40.3476H47.4476V42.5762L45.9666 40.3476H45.1714V43.5333H45.8762V41.2571H45.8809ZM50.7047 43.6238C51.1143 43.6238 51.4571 43.5095 51.7285 43.3048C52 43.0762 52.1619 42.8048 52.2285 42.4619H51.4762C51.4285 42.619 51.3619 42.7333 51.2952 42.8238C51.1571 42.981 50.9524 43.0524 50.6809 43.0524C50.4285 43.0524 50.2238 42.9619 50.0666 42.781C49.8857 42.6 49.819 42.3476 49.819 41.9857C49.819 41.6238 49.8857 41.3476 50.0476 41.1429C50.2047 40.9619 50.4333 40.8476 50.6857 40.8476C50.9571 40.8476 51.1619 40.9143 51.3 41.0524C51.3666 41.1429 51.4381 41.2571 51.4809 41.4191H52.2333C52.2333 41.2143 52.1428 41.0095 51.9809 40.8286C51.7095 40.4667 51.2762 40.281 50.6619 40.281C50.2047 40.281 49.8428 40.419 49.5476 40.6905C49.2047 40.9857 49.0238 41.4191 49.0238 41.9619C49.0238 42.5048 49.1809 42.8952 49.4809 43.1905C49.7762 43.4857 50.1857 43.6238 50.7095 43.6238H50.7047ZM53.1619 43.5333H53.9143V40.3476H53.1619V43.5333ZM61.6904 43.6238C62.1 43.6238 62.4428 43.5095 62.7143 43.3048C62.9857 43.0762 63.1476 42.8048 63.2143 42.4619H62.4619C62.419 42.619 62.3476 42.7333 62.2571 42.8238C62.1428 42.981 61.9381 43.0524 61.6666 43.0524C61.4143 43.0524 61.2095 42.9619 61.0524 42.781C60.8714 42.6 60.8047 42.3476 60.8047 41.9857C60.8047 41.6238 60.8714 41.3476 61.0333 41.1429C61.1904 40.9619 61.419 40.8476 61.6714 40.8476C61.9428 40.8476 62.1476 40.9143 62.2857 41.0524C62.3524 41.1429 62.4238 41.2571 62.4666 41.4191H63.219C63.219 41.2143 63.1285 41.0095 62.9666 40.8286C62.6952 40.4667 62.2619 40.281 61.6476 40.281C61.1905 40.281 60.8285 40.419 60.5333 40.6905C60.1904 40.9857 60.0095 41.4191 60.0095 41.9619C60.0095 42.5048 60.1714 42.8952 60.4666 43.1905C60.7619 43.4857 61.1714 43.6238 61.6952 43.6238H61.6904ZM64.1476 43.5333H64.9V42.8952H64.1476V43.5333ZM66.5571 42.1905H68.1714V41.6429H66.5571V40.9143H68.4238V40.3476H65.8095V43.5333H66.5619V42.1905H66.5571ZM68.5143 43.5333H69.2666V42.8952H68.5143V43.5333ZM50.0476 80.281C45.3143 80.281 37.8809 71.5286 36.7428 69.9571C29.5762 60.2238 27.919 51.7857 27.3952 48.6238C27.2809 47.8952 27.1476 46.7143 27.1238 45.2333V44.5952C27.1476 41.4571 27.8047 37.0905 30.4 32.6524C33.8333 26.7381 37.7 23.7381 40.0666 22.3048C41.1571 21.6238 41.9333 21.3048 42.1571 21.1905C42.8619 20.8286 43.1809 21.281 43.1809 21.281C46.1143 24.6476 47.9809 22.0524 47.9809 22.0524C47.9809 22.0524 47.6381 21.2333 47.4809 20.4143C47.3238 19.619 48.0476 19.619 48.3666 19.619C48.7095 19.619 49.2524 20.2333 49.2524 20.2333L50.0476 20.0952L50.8428 20.2333C50.8428 20.2333 51.3904 19.619 51.7285 19.619C52.0476 19.619 52.7524 19.619 52.6143 20.4143C52.4571 21.2333 52.0904 22.0524 52.0904 22.0524C52.0904 22.0524 53.9762 24.6429 56.9095 21.281C56.9095 21.281 57.2047 20.8286 57.9333 21.1905C58.1619 21.3048 59 21.6667 60.1857 22.3952C62.5524 23.8524 66.3238 26.8524 69.6905 32.6524C72.2619 37.0857 72.919 41.4333 72.9666 44.5952V45.2333C72.9428 46.7143 72.8047 47.8952 72.6714 48.6238C72.1476 51.7857 70.5095 60.2238 63.3476 69.9571C62.2571 71.4571 55.419 80.281 50.0428 80.281H50.0476ZM60.1904 24.6095C59.6 23.7667 58.8476 22.881 57.9143 21.9952L57.8238 22.1762C57.8238 22.1762 59.0047 23.3571 60.1904 25.1333C61.3952 26.9286 62.5762 29.319 62.5333 31.7048C62.5333 31.7048 62.919 28.519 60.1904 24.6095ZM40.0619 25.1333C41.2428 23.3571 42.4285 22.1762 42.4285 22.1762L42.3143 21.9952C41.3809 22.881 40.6524 23.7667 40.0619 24.6095C37.3095 28.519 37.6952 31.7048 37.6952 31.7048C37.6476 29.319 38.8524 26.9286 40.0619 25.1333ZM71.6095 44.2381H67.1047V61.7762C70.7809 53.9619 72.1095 46.5095 71.6095 44.2381ZM30.2619 39.4143H69.8381C69.4524 38.6857 69.019 37.9571 68.5428 37.2095C65.1333 32.0476 62.1952 32.7952 62.1952 32.7952C61.5333 32.319 60.8762 32.0238 60.1952 31.8619C57.2143 31.2 54.2809 33.4286 53.9857 36.4095C53.9857 36.4095 54.3952 36.9571 54.0333 37.2762C53.6714 37.5714 53.5333 37.3238 53.5333 37.3238L52.5571 36.3476C50.8524 36.3476 50.0333 38.4619 50.0333 38.4619C50.0333 38.4619 49.2619 36.3476 47.5333 36.3476L46.5762 37.3238C46.5762 37.3238 46.419 37.5762 46.0762 37.2762C45.7143 36.9571 46.1238 36.4095 46.1238 36.4095C45.8285 33.4762 42.9857 31.2714 40.0762 31.8381C39.3476 31.9762 38.619 32.2905 37.9143 32.7952C37.9143 32.7952 34.9571 32.0429 31.5666 37.2095C31.0666 37.9619 30.6571 38.7095 30.2714 39.4143H30.2619ZM33.2666 62.1857V44.2333H28.5333C27.8333 48.7619 30.0524 55.7238 33.2666 62.1857ZM42.9333 75.119V44.2333H38.0904V69.8762C39.6 71.8095 41.2619 73.6143 42.9333 75.1143V75.119ZM52.6 78.5V61.3333C54.9285 60.3571 56.5714 58.0524 56.5714 55.3571C56.5714 52.6619 54.9285 50.3333 52.6 49.3571V44.2333H47.7571V49.3048C45.3524 50.2476 43.6476 52.5952 43.6476 55.3524C43.6476 58.1095 45.3476 60.4381 47.7571 61.381V78.4571C48.5381 78.819 49.2952 79.0619 50.0047 79.1667C50.7952 79.1667 51.6714 78.9238 52.6 78.4952V78.5ZM57.4428 44.2381V75.0143C59.1095 73.4667 60.7666 71.6048 62.2666 69.6476V44.2381H57.4428ZM56.2809 42.3286H55.8285L56.3047 41.0762L56.7619 42.3286H56.2857H56.2809ZM35.9714 42.3286H35.4952L35.9714 41.0762L36.4476 42.3286H35.9714Z" fill="#110C15"/>
<path fill-rule="evenodd" clip-rule="evenodd" d="M67.1 44.2333V61.7714C67.1 61.7714 67.119 61.7286 67.1285 61.7048C66.9142 62.1905 66.6809 62.6667 66.4333 63.1333C65.0523 65.5238 63.6428 67.8048 62.2571 69.6381V44.2286H57.4333V75.0048C57.4333 75.0048 57.419 75.0191 57.4142 75.0238C55.6285 76.6762 53.9809 77.8191 52.5904 78.4762V61.3238C54.919 60.3476 56.5619 58.0429 56.5619 55.3476C56.5619 52.6524 54.919 50.3238 52.5904 49.3476V44.2238H47.7476V49.2952C45.3428 50.2381 43.638 52.5857 43.638 55.3429C43.638 58.1 45.338 60.4286 47.7476 61.3714V78.4381C46.4333 77.8476 45.0333 76.9333 43.5142 75.6286C43.319 75.4619 43.1238 75.2857 42.9238 75.1048V44.2333H38.0809V69.8762C38.2904 70.1429 38.5047 70.4095 38.719 70.6762L38.4285 70.3286C37.1761 68.7476 36.0666 67.0381 35.0428 65.3714C34.3761 64.2905 33.8142 63.2381 33.2904 62.2191C33.2809 62.2 33.2714 62.181 33.2619 62.1619V44.2333H29.6904L70.1761 44.2286L67.1 44.2333Z" fill="#EC3725"/>
<path fill-rule="evenodd" clip-rule="evenodd" d="M71.6 44.2286C71.2809 42.7048 70.6905 41.0905 69.8238 39.4048H68.8905V39.4333H32.7667V39.4095H30.2667C29.4 41.0952 28.8333 42.6857 28.5381 44.2333H32.4381H69.4095H71.6095L71.6 44.2286ZM32.419 43.5286L31.1667 40.3429H31.9857L32.4238 41.7V43.5286H32.4143H32.419Z" fill="#0A93D2"/>
<path d="M51.4809 61.4095C52.1333 61.1286 54.5904 60.0095 54.6142 56.081C54.6333 54.4714 54.2238 52.0905 52.7285 51.0857C51.7142 50.9429 51.0333 51.4 50.7761 52.2571C51.1952 52.5238 52.5523 53.6095 51.7619 56.0667C51.7904 56.1143 51.819 56.1619 51.8428 56.2048C52.5238 57.5143 52.3857 59.1143 51.0142 59.9238C50.8095 60.0476 50.5857 60.1476 50.3571 60.219C50.5809 60.8 50.9904 61.181 51.4904 61.4095H51.4809ZM50.1095 62.3048C46.2714 62.3048 43.1619 59.1952 43.1619 55.3571C43.1619 51.519 46.2714 48.3905 50.1095 48.3905C53.9476 48.3905 57.0333 51.5 57.0333 55.3571C57.0333 59.1952 53.9238 62.3048 50.1095 62.3048ZM44.8762 59.1667C45.5476 60.0857 46.4571 60.8238 47.5095 61.2857C47.2523 60.9143 47.0238 60.4714 46.9476 60.081C46.3904 59.4714 45.719 59.0238 44.8762 59.1667ZM43.6428 55.5524C43.6809 56.781 44.0619 57.9191 44.6904 58.8857C45.6238 58.6714 46.4952 59.1 47.1238 59.7952C47.4666 59.519 48.4762 58.9524 50.1809 59.9429C51.919 59.4571 52.3047 57.7905 51.5619 56.3524L51.519 56.2714C50.8476 56.4762 47.5523 57.3191 43.6428 55.5524ZM44.6666 51.8381C44.0428 52.8095 43.6714 53.9619 43.6428 55.2048C45.7762 56.2 47.7333 56.3905 49.1619 56.3286C50.2571 56.281 51.1095 56.0619 51.4666 55.9571C51.8571 54.7143 51.7714 53.2476 50.5857 52.5143C49.7333 52.9048 48.7285 53.0381 47.9285 52.4714C46.7333 53.0429 45.5428 52.8905 44.7095 51.8952L44.6619 51.8381H44.6666ZM49.8762 48.8667C47.8047 48.9429 45.9857 49.9857 44.8523 51.5619C44.8809 51.6 44.9142 51.6429 44.9523 51.6905C45.7238 52.6095 46.719 52.6619 47.7809 52.1905C47.7523 51.7667 47.8381 50.3905 49.8762 48.8667ZM53.8762 50.081C52.8952 49.3714 51.7047 48.9286 50.419 48.8667C49.4238 49.5476 48.1619 50.6905 48.0952 51.9905C48.0952 52.081 48.0952 52.1524 48.0952 52.1952C48.1333 52.2238 48.1714 52.2524 48.2095 52.2714C48.9047 52.6857 49.7523 52.5571 50.4523 52.2191C50.7381 51.2191 51.5571 50.5905 52.6666 50.7286L52.7523 50.6476C53.0666 50.3571 53.4571 50.1429 53.8762 50.081ZM51.9238 61.5714C54.6 60.7857 56.5619 58.3048 56.5619 55.3571C56.5619 53.3571 55.6666 51.5714 54.2619 50.381C53.7809 50.3381 53.3285 50.5524 52.9809 50.8714C53.5 51.2476 54.9762 52.6333 54.9381 56.081C54.919 59.7381 52.8619 61.0905 51.9095 61.5571H51.9285L51.9238 61.5714ZM50.1095 61.8381C50.5381 61.8381 50.9619 61.7952 51.3714 61.7143C50.7904 61.4524 50.3142 61.0095 50.0762 60.3857C50.0476 60.319 50.0333 60.2619 50.019 60.219C49.1238 59.7095 48.0619 59.4143 47.2762 60.0952C47.3 60.181 47.3381 60.2952 47.3904 60.4333C47.5095 60.7191 47.7142 61.1048 48.0714 61.5095C48.7095 61.7238 49.3952 61.8381 50.1095 61.8381Z" fill="#B0392D"/>
<path d="M50.3477 60.219C50.5763 60.1476 50.8001 60.0476 51.0049 59.9238C52.3763 59.1143 52.5144 57.5143 51.8334 56.2048C51.8096 56.1619 51.781 56.1095 51.7525 56.0667C52.5382 53.6095 51.181 52.5238 50.7668 52.2571C51.0239 51.4 51.7049 50.9429 52.7191 51.0857C54.2144 52.0905 54.6239 54.4762 54.6048 56.081C54.581 60.0048 52.1287 61.1286 51.4715 61.4095C50.9715 61.181 50.562 60.8 50.3382 60.219H50.3477ZM44.8715 59.1667C45.5429 60.0857 46.4525 60.8238 47.5049 61.2857C47.2477 60.9143 47.0191 60.4714 46.9429 60.081C46.3858 59.4714 45.7144 59.0238 44.8715 59.1667ZM43.6382 55.5524C43.6763 56.781 44.0572 57.9191 44.6858 58.8857C45.6191 58.6714 46.4906 59.1 47.1191 59.7952C47.462 59.519 48.4715 58.9524 50.1763 59.9429C51.9144 59.4571 52.3001 57.7905 51.5572 56.3524L51.5144 56.2714C50.8429 56.4762 47.5477 57.319 43.6382 55.5524ZM44.662 51.8381C44.0382 52.8095 43.6668 53.9619 43.6382 55.2048C45.7715 56.2 47.7287 56.3905 49.1572 56.3286C50.2525 56.281 51.1049 56.0619 51.462 55.9571C51.8525 54.7143 51.7668 53.2476 50.581 52.5143C49.7287 52.9048 48.7239 53.0381 47.9239 52.4714C46.7287 53.0429 45.5382 52.8905 44.7048 51.8952L44.6572 51.8381H44.662ZM49.8715 48.8667C47.8001 48.9429 45.981 49.9857 44.8477 51.5619C44.8763 51.6 44.9096 51.6429 44.9477 51.6905C45.7191 52.6095 46.7144 52.6619 47.7763 52.1905C47.7477 51.7667 47.8334 50.3905 49.8715 48.8667ZM53.8715 50.081C52.8906 49.3714 51.7001 48.9286 50.4144 48.8667C49.4191 49.5476 48.1572 50.6905 48.0906 51.9905C48.0906 52.081 48.0906 52.1524 48.0906 52.1952C48.1287 52.2238 48.1668 52.2524 48.2049 52.2714C48.9001 52.6857 49.7477 52.5571 50.4477 52.2191C50.7334 51.2191 51.5525 50.5905 52.662 50.7286L52.7477 50.6476C53.062 50.3571 53.4525 50.1429 53.8715 50.081ZM51.9191 61.5714C54.5953 60.7857 56.5572 58.3048 56.5572 55.3571C56.5572 53.3571 55.662 51.5714 54.2572 50.381C53.7763 50.3381 53.3239 50.5524 52.9763 50.8714C53.4953 51.2476 54.9715 52.6333 54.9334 56.081C54.9144 59.7381 52.8572 61.0905 51.9049 61.5571H51.9239L51.9191 61.5714ZM50.1049 61.8381C50.5334 61.8381 50.9572 61.7952 51.3668 61.7143C50.7858 61.4524 50.3096 61.0095 50.0715 60.3857C50.0429 60.319 50.0287 60.2619 50.0144 60.219C49.1191 59.7095 48.0572 59.4143 47.2715 60.0952C47.2953 60.181 47.3334 60.2952 47.3858 60.4333C47.5049 60.7191 47.7096 61.1048 48.0668 61.5095C48.7049 61.7238 49.3906 61.8381 50.1049 61.8381Z" fill="#CF8B2A"/>
<path d="M69.2571 42.8905V43.5286H68.5047V42.8905H69.2571ZM68.4142 40.9143V40.3476H65.8V43.5333H66.5523V42.1905H68.1666V41.6429H66.5523V40.9143H68.419H68.4142ZM64.1381 42.8905V43.5286H64.8904V42.8905H64.1381ZM62.2523 42.8238C62.1381 42.981 61.9333 43.0524 61.6619 43.0524C61.4095 43.0524 61.2095 42.9619 61.0476 42.781C60.8666 42.6 60.7952 42.3476 60.7952 41.9857C60.7952 41.6238 60.8619 41.3476 61.0238 41.1429C61.1857 40.9619 61.4095 40.8476 61.6619 40.8476C61.9333 40.8476 62.1381 40.919 62.2761 41.0524C62.3428 41.1429 62.4142 41.2571 62.4571 41.4143H63.2095C63.2095 41.2095 63.119 41.0048 62.9571 40.8238C62.6857 40.4619 62.2523 40.281 61.6381 40.281C61.1857 40.281 60.819 40.419 60.5238 40.6905C60.1809 40.9857 60 41.4191 60 41.9619C60 42.5048 60.1619 42.8952 60.4571 43.1905C60.7523 43.4857 61.1619 43.6238 61.6857 43.6238C62.0952 43.6238 62.4381 43.5095 62.7095 43.3048C62.9809 43.0762 63.1428 42.8048 63.2095 42.4619H62.4571C62.4142 42.6238 62.3428 42.7333 62.2523 42.8238ZM58.0238 43.5286H57.1809L56.9523 42.8667H55.6095L55.3571 43.5286H54.5619L55.8571 40.3429H56.7238L58.019 43.5286H58.0238ZM56.7523 42.3238L56.3 41.0714L55.8238 42.3238H56.7571H56.7523ZM53.1571 40.3476V43.5333H53.9095V40.3476H53.1571ZM51.2904 42.8286C51.1523 42.9857 50.9476 43.0571 50.6761 43.0571C50.4238 43.0571 50.219 42.9667 50.0619 42.7857C49.8809 42.6048 49.8095 42.3524 49.8095 41.9905C49.8095 41.6286 49.8762 41.3524 50.0381 41.1476C50.1952 40.9667 50.4238 40.8524 50.6761 40.8524C50.9476 40.8524 51.1523 40.9238 51.2904 41.0571C51.3571 41.1476 51.4238 41.2619 51.4714 41.4191H52.2238C52.2238 41.2143 52.1333 41.0095 51.9714 40.8286C51.7 40.4667 51.2666 40.2857 50.6523 40.2857C50.1952 40.2857 49.8333 40.4238 49.5381 40.6952C49.1952 40.9905 49.0142 41.4238 49.0142 41.9667C49.0142 42.4905 49.1761 42.9 49.4714 43.1952C49.7666 43.4905 50.1762 43.6286 50.7 43.6286C51.1095 43.6286 51.4523 43.5143 51.7238 43.3095C51.9952 43.081 52.1571 42.8095 52.2238 42.4667H51.4714C51.4238 42.6286 51.3571 42.7381 51.2904 42.8286ZM47.4476 40.3476V42.5762L45.9666 40.3476H45.1714V43.5333H45.8761V41.2571L47.3761 43.5333H48.1476V40.3476H47.4428H47.4476ZM42.3285 42.9619V42.119H44.0571V41.5714H42.3285V40.9143H44.2142V40.3476H41.5761V43.5333H44.3047V42.9667H42.3238L42.3285 42.9619ZM39.0095 42.9619V40.3476H38.2381V43.5333H40.8333V42.9667H39.0142L39.0095 42.9619ZM37.6904 43.5286H36.8714L36.6428 42.8667H35.2762L35.0285 43.5286H34.2571L35.5523 40.3429H36.4142L37.6904 43.5286ZM36.4381 42.3238L35.9619 41.0714L35.4857 42.3238H36.4428H36.4381ZM33.5714 40.3476L32.7762 42.7571L31.9809 40.3476H31.1619L32.4142 43.5333H33.119L34.3666 40.3476H33.5714Z" fill="white"/>
<path d="M30.7095 11.3381L31.1143 12.0714L28.9 13.2952L29.2476 13.9286L31.2143 12.8429L31.6143 13.5714L29.6476 14.6572L30.1333 15.5333L29.2714 16.0095L27.6333 13.0429L30.7095 11.3429V11.3381Z" fill="white"/>
<path d="M36.3001 12.6238L35.762 12.1524L33.8286 12.9381L33.7715 13.6524L32.7905 14.0524L33.1334 10.2571L34.3905 9.74762L37.281 12.2286L36.3048 12.6238H36.3001ZM33.8953 12.1143L35.1334 11.6095L34.0143 10.6333L33.8953 12.1143Z" fill="white"/>
<path d="M41.3476 10.1762L40.7619 7.81906L41.7095 7.58572L42.5238 10.8762L41.1286 11.2238L38.6048 9.34763L39.1905 11.7048L38.2381 11.9429L37.4238 8.65239L38.8238 8.30477L41.3476 10.181V10.1762Z" fill="white"/>
<path d="M46.1189 6.96191L50.1998 6.79524L50.2332 7.62858L48.6856 7.69048L48.7903 10.2429L47.8094 10.281L47.7046 7.72858L46.1522 7.79048L46.1189 6.95715V6.96191Z" fill="white"/>
<path d="M51.3905 8.49525C51.4857 7.3762 52.3143 6.78096 53.7381 6.90477C55.1572 7.02858 55.8762 7.75715 55.781 8.87144C55.6857 9.99049 54.8524 10.5952 53.4334 10.4714C52.0096 10.3476 51.2953 9.61906 51.3905 8.49525ZM54.7572 8.78572C54.8096 8.20001 54.5048 7.80953 53.6667 7.73811C52.8334 7.66668 52.4667 7.99049 52.4191 8.58572C52.3667 9.18096 52.6762 9.57144 53.5048 9.64287C54.3381 9.7143 54.7096 9.38096 54.7619 8.79049L54.7572 8.78572Z" fill="white"/>
<path d="M61.6096 8.36191L59.6144 9.37619L60.862 11.6714L59.6572 11.4L58.7905 9.8L57.8429 10.281L57.6905 10.9524L56.7334 10.7333L57.481 7.42381L58.4429 7.6381L58.1096 9.12381L60.1763 8.03334L61.6144 8.35715L61.6096 8.36191Z" fill="white"/>
<path d="M66.3286 9.99524L66.0667 10.7191L63.6858 9.85715L63.5 10.3667L65.7905 11.1952L65.5286 11.9191L63.2381 11.0905L63.0524 11.6L65.4334 12.4619L65.1715 13.1857L61.8667 11.9905L63.0191 8.8L66.3238 9.99524H66.3286Z" fill="white"/>
<path d="M69.7618 14.3524L70.8761 12.1905L71.7476 12.6381L70.1904 15.6524L68.9095 14.9905L68.2476 11.9095L67.1333 14.0714L66.2571 13.6191L67.8142 10.6048L69.0999 11.2667L69.7618 14.3476V14.3524Z" fill="white"/>
<path d="M27.3953 85.4762C27.2476 85.719 27.3953 86.0238 28.1572 86.4857C28.8572 86.9048 29.0953 86.9 29.2048 86.719C29.3334 86.5095 29.2238 86.3905 28.3953 85.8143C27.2667 85.0238 26.8905 84.4762 27.2762 83.8333C27.6429 83.2286 28.4619 83.3476 29.4667 83.9524C30.5857 84.6238 31.0238 85.3524 30.6619 86.0143L29.781 85.4857C29.9334 85.2286 29.7143 84.9619 29.0619 84.5714C28.4429 84.2 28.2429 84.219 28.1476 84.3762C28.0381 84.5571 28.1476 84.6952 28.8953 85.2333C29.9143 85.9571 30.5619 86.4476 30.1048 87.2095C29.6572 87.9524 28.8381 87.7571 27.8048 87.1333C26.6286 86.4238 26.0905 85.7381 26.5096 84.9476L27.3905 85.4809L27.3953 85.4762Z" fill="white"/>
<path d="M31.5238 87.1905C31.9714 86.1571 32.9428 85.8619 34.2571 86.4286C35.5667 86.9952 36.0143 87.9143 35.5714 88.9429C35.1238 89.9762 34.1428 90.281 32.8333 89.7143C31.519 89.1476 31.0762 88.2286 31.5238 87.1905ZM34.6286 88.5381C34.8619 87.9952 34.6952 87.5333 33.9238 87.1952C33.1571 86.8619 32.7047 87.0571 32.4714 87.6C32.2333 88.1476 32.4047 88.6143 33.1667 88.9476C33.9333 89.281 34.3952 89.081 34.6286 88.5333V88.5381Z" fill="white"/>
<path d="M39.3047 88.219C40.5047 88.5571 41.0428 89.2619 40.9047 90.1286L39.9 89.8476C39.919 89.5286 39.6857 89.1905 39.0809 89.0238C38.3809 88.8286 37.9476 89.0762 37.7857 89.6476C37.6238 90.2238 37.8714 90.6667 38.5666 90.8619C39.1714 91.0286 39.5476 90.8619 39.6952 90.5714L40.7 90.8524C40.3666 91.6714 39.5428 92 38.3381 91.6667C37.0285 91.3 36.4809 90.4905 36.7905 89.3714C37.1047 88.2571 37.9905 87.8524 39.3 88.219H39.3047Z" fill="white"/>
<path d="M43.3953 89.2286L42.7953 92.5619L41.8286 92.3857L42.4286 89.0524L43.3953 89.2286Z" fill="white"/>
<path d="M44.4191 91.1476C44.5096 90.0286 45.3334 89.4333 46.7572 89.5476C48.1763 89.6619 48.9001 90.3905 48.8049 91.5048C48.7144 92.6238 47.8858 93.2286 46.462 93.1143C45.0382 93 44.3191 92.2714 44.4144 91.1476H44.4191ZM47.7858 91.4238C47.8334 90.8381 47.5287 90.4524 46.6906 90.381C45.8572 90.3143 45.4953 90.6429 45.443 91.2333C45.3953 91.8286 45.7049 92.2143 46.5334 92.2857C47.3668 92.3524 47.7382 92.019 47.7858 91.4238Z" fill="white"/>
<path d="M51.119 92.0476C51.1333 92.3333 51.4238 92.5048 52.3143 92.4571C53.1286 92.4143 53.3238 92.2762 53.3095 92.0619C53.2952 91.8143 53.1428 91.781 52.1333 91.7667C50.7571 91.7429 50.1333 91.5 50.0952 90.7476C50.0571 90.0429 50.8047 89.681 51.9762 89.6238C53.2809 89.5571 54.0524 89.9095 54.119 90.6619L53.0952 90.7143C53.0809 90.4143 52.7476 90.3191 51.9857 90.3571C51.2666 90.3952 51.1095 90.5238 51.119 90.7048C51.1285 90.9143 51.2952 90.9714 52.219 91C53.4666 91.0286 54.2809 91.0714 54.3285 91.9619C54.3714 92.8286 53.5857 93.1238 52.3809 93.1857C51.0095 93.2571 50.1762 92.9857 50.0857 92.0952L51.1143 92.0429L51.119 92.0476Z" fill="white"/>
<path d="M55.7428 92.0429L56.6809 91.9048L56.7857 92.6333L55.8476 92.7714L55.738 92.0429H55.7428Z" fill="white"/>
<path d="M59.4811 88.5381C60.6953 88.2429 61.5096 88.5952 61.8144 89.419L60.8001 89.6667C60.662 89.3762 60.2906 89.2 59.6811 89.3476C58.9763 89.5191 58.7192 89.9476 58.8572 90.5286C59.0001 91.1095 59.4334 91.3762 60.1334 91.2048C60.743 91.0571 60.9906 90.7238 60.9763 90.3952L61.9906 90.1476C62.1001 91.0238 61.543 91.719 60.3287 92.0143C59.0049 92.3381 58.1287 91.9 57.8525 90.7714C57.5763 89.6476 58.1525 88.8619 59.4763 88.5381H59.4811Z" fill="white"/>
<path d="M63.1524 89.3952C62.7382 88.3476 63.2191 87.4476 64.5477 86.9238C65.8715 86.4 66.8429 86.7333 67.2524 87.7762C67.6667 88.8238 67.1858 89.7333 65.862 90.2571C64.5334 90.7809 63.5667 90.4476 63.1524 89.3952ZM66.3001 88.1524C66.0858 87.6048 65.6382 87.3905 64.8572 87.7C64.081 88.0048 63.8953 88.4619 64.1143 89.0143C64.3334 89.5714 64.7858 89.7809 65.5572 89.4762C66.3334 89.1714 66.5191 88.7048 66.3001 88.1524Z" fill="white"/>
<path d="M69.3381 88.6905L67.6333 85.7571L68.9571 84.9857L71.1095 86.3381L70.9952 83.8L72.319 83.0286L74.0238 85.9619L73.1762 86.4524L71.9428 84.3286L72.0762 87.0952L71.2904 87.5524L68.9524 86.0714L70.1904 88.1952L69.3381 88.6905Z" fill="white"/>
<path d="M23.019 81.8381C13.9952 74.181 8.2666 62.7571 8.2666 50C8.2666 37.2429 14.2999 25.2143 23.738 17.5619" stroke="white" stroke-miterlimit="10"/>
<path d="M76.2666 17.5667C85.7047 25.219 91.7333 36.9048 91.7333 50C91.7333 63.0952 86.0047 74.1857 76.9809 81.8429" stroke="white" stroke-miterlimit="10"/>
</g>
<defs>
<clipPath id="clip0_1124_16184">
<rect width="100" height="100" fill="white"/>
</clipPath>
</defs>
</svg>
