<?xml version="1.0"?>
<svg width="640" height="640" xmlns="http://www.w3.org/2000/svg" xmlns:svg="http://www.w3.org/2000/svg" clip-rule="evenodd" fill-rule="evenodd" version="1.1">
 <g class="layer">
  <title>Layer 1</title>
  <g id="svg_9">
   <path d="m295.5,-0.5c15.33,0 30.67,0 46,0c50.93,4.59 98.59,19.75 143,45.5c91.57,58.48 143.23,141.98 155,250.5c0,13.33 0,26.67 0,40c-2.62,46.82 -14.79,91.15 -36.5,133c-57.61,101.75 -144.77,158.75 -261.5,171c-14.67,0 -29.33,0 -44,0c-39.31,-3.08 -76.98,-12.91 -113,-29.5c-110.09,-55.97 -171.75,-145.47 -185,-268.5c0,-13 0,-26 0,-39c3.38,-54.98 19.55,-105.98 48.5,-153c58.81,-88.56 141.31,-138.56 247.5,-150z" fill="#f8f7f7" id="svg_10"/>
  </g>
  <g id="svg_11">
   <path d="m623.5,353.5c-0.44,5.89 -1.44,11.56 -3,17c0.25,-5.02 0.75,-10.02 1.5,-15c0.28,-0.92 0.78,-1.58 1.5,-2z" fill="#c23c33" id="svg_12"/>
  </g>
  <g id="svg_13">
   <path d="m15.5,351.5c1.26,1.01 1.93,2.51 2,4.5c0.57,3.82 0.9,7.65 1,11.5c-1.64,-5.08 -2.64,-10.42 -3,-16z" fill="#c44036" id="svg_14"/>
  </g>
  <g id="svg_15">
   <path d="m15.5,292.5c-0.77,14.32 -1.1,28.65 -1,43c-0.67,-5.82 -1,-11.82 -1,-18c-0.21,-8.56 0.46,-16.89 2,-25z" fill="#ec9d99" id="svg_16"/>
  </g>
  <g id="svg_17">
   <path d="m19.5,262.5c0,3 0,6 0,9c-1.43,5.31 -2.76,10.64 -4,16c0.6,-8.58 1.94,-16.91 4,-25z" fill="#d05b55" id="svg_18"/>
  </g>
  <g id="svg_19">
   <path d="m614.5,239.5c3.57,10.28 5.9,20.94 7,32c-1.55,-4.52 -3.05,-9.19 -4.5,-14c-1.37,2.31 -2.2,2.31 -2.5,0c0.54,-1.24 1.2,-2.41 2,-3.5c-0.17,-0.5 -0.33,-1 -0.5,-1.5c-0.89,1.21 -1.73,1.21 -2.5,0c0.67,-1.33 1.33,-2.67 2,-4c-0.91,-2.92 -1.24,-5.92 -1,-9z" fill="#cc2d22" id="svg_20"/>
  </g>
  <g id="svg_21">
   <path d="m28.5,228.5c-0.25,3.08 -0.91,6.08 -2,9c0.17,0.67 0.33,1.33 0.5,2c1.08,-2.5 2.41,-4.83 4,-7c0.16,3.22 -0.34,6.39 -1.5,9.5c0.98,1.12 1.65,2.62 2,4.5c-0.2,3.92 -0.7,3.92 -1.5,0c-0.31,0.81 -0.81,1.47 -1.5,2c-1.43,-1.72 -2.27,-3.72 -2.5,-6c-1.56,2.79 -1.89,5.79 -1,9c0.33,-1.33 0.67,-2.67 1,-4c0.86,2.25 0.36,4.08 -1.5,5.5c1.75,1.75 2.42,3.92 2,6.5c-1,0 -2,0 -3,0c0.3,-2.1 -0.03,-4.1 -1,-6c-1.33,6.08 -2.33,12.08 -3,18c0,-3 0,-6 0,-9c1.5,-11.85 4.5,-23.18 9,-34z" fill="#d31f15" id="svg_22"/>
  </g>
  <g id="svg_23">
   <path d="m612.5,232.5c1.42,2.01 2.09,4.35 2,7c-1.42,-2.01 -2.09,-4.35 -2,-7z" fill="#c95354" id="svg_24"/>
  </g>
  <g id="svg_25">
   <path d="m33.5,212.5c0.09,4.54 -1.25,8.54 -4,12c0.76,-4.27 2.09,-8.27 4,-12z" fill="#c64036" id="svg_26"/>
  </g>
  <g id="svg_27">
   <path d="m283.5,16.5c-10.06,2.54 -20.4,4.21 -31,5c9.98,-3.05 20.32,-4.71 31,-5z" fill="#c43930" id="svg_28"/>
  </g>
  <g id="svg_29">
   <path d="m612.5,232.5c-0.09,2.65 0.58,4.99 2,7c-0.24,3.08 0.09,6.08 1,9c-0.67,1.33 -1.33,2.67 -2,4c0.77,1.21 1.61,1.21 2.5,0c0.17,0.5 0.33,1 0.5,1.5c-0.8,1.09 -1.46,2.26 -2,3.5c0.3,2.31 1.13,2.31 2.5,0c1.45,4.81 2.95,9.48 4.5,14c4.52,27.22 5.19,54.55 2,82c-0.72,0.42 -1.22,1.08 -1.5,2c-0.75,4.98 -1.25,9.98 -1.5,15c-20.29,105.74 -78.95,181.91 -176,228.5c-51.42,22.34 -105.08,30.51 -161,24.5c-0.42,-0.72 -1.08,-1.22 -2,-1.5c-11.35,-1.9 -22.69,-3.74 -34,-5.5c-2.93,-0.07 -5.59,-0.73 -8,-2c-4,-2.11 -8.34,-3.44 -13,-4c-98.25,-33.75 -164.42,-99.75 -198.5,-198c-4.27,-14.76 -7.44,-29.76 -9.5,-45c-0.1,-3.85 -0.43,-7.68 -1,-11.5c-0.07,-1.99 -0.74,-3.49 -2,-4.5c-0.33,-5.33 -0.67,-10.67 -1,-16c-0.1,-14.35 0.23,-28.68 1,-43c0,-1.67 0,-3.33 0,-5c1.24,-5.36 2.57,-10.69 4,-16c0.67,-5.92 1.67,-11.92 3,-18c0.97,1.9 1.3,3.9 1,6c1,0 2,0 3,0c0.42,-2.58 -0.25,-4.75 -2,-6.5c1.86,-1.42 2.36,-3.25 1.5,-5.5c-0.33,1.33 -0.67,2.67 -1,4c-0.89,-3.21 -0.56,-6.21 1,-9c0.23,2.28 1.07,4.28 2.5,6c0.69,-0.53 1.19,-1.19 1.5,-2c0.8,3.92 1.3,3.92 1.5,0c-0.35,-1.88 -1.02,-3.38 -2,-4.5c1.16,-3.11 1.66,-6.28 1.5,-9.5c-1.59,2.17 -2.92,4.5 -4,7c-0.17,-0.67 -0.33,-1.33 -0.5,-2c1.09,-2.92 1.75,-5.92 2,-9c-0.27,-1.6 0.07,-2.93 1,-4c2.75,-3.46 4.09,-7.46 4,-12c31.08,-78.92 85.08,-136.42 162,-172.5c18.43,-8.19 37.43,-14.35 57,-18.5c10.6,-0.79 20.94,-2.46 31,-5c106.54,-10.1 195.71,24.23 267.5,103c28.32,33.29 48.82,70.96 61.5,113z" fill="#da0801" id="svg_30"/>
  </g>
  <g id="svg_31">
   <path d="m289.5,521.5c-0.09,1 0.25,1.83 1,2.5c5.67,0.17 11.33,0.33 17,0.5c15.02,-1.22 30.02,-2.22 45,-3c18,0.17 36,0 54,-0.5c2.07,-2.53 4.74,-3.7 8,-3.5c-0.15,1.05 0.02,2.05 0.5,3c1.78,-1.04 3.61,-1.04 5.5,0c2.42,0.38 4.75,1.04 7,2c7.36,0.71 14.86,1.38 22.5,2c1.75,-1.46 3.58,-2.79 5.5,-4c1.24,0.75 2.57,1.08 4,1c-2.41,2.21 -5.24,3.88 -8.5,5c-0.87,-0.24 -1.71,-0.57 -2.5,-1c-4.15,1.27 -8.48,1.93 -13,2c-8.13,0.72 -15.46,-1.28 -22,-6c-3.73,2.23 -7.56,4.23 -11.5,6c-13.85,-1.32 -27.68,-2.65 -41.5,-4c-2.71,2.65 -5.38,2.65 -8,0c-9.55,1.55 -19.21,2.72 -29,3.5c-10.67,0.67 -21.33,0.67 -32,0c-0.85,-1.02 -1.85,-1.86 -3,-2.5c-0.93,1.14 -1.76,1.14 -2.5,0c-0.27,-4.48 -1.1,-8.81 -2.5,-13c-4.27,-0.3 -8.43,0.04 -12.5,1c-2.03,-1.36 -4.2,-2.36 -6.5,-3c0,1.33 0,2.67 0,4c-1.33,0 -2.67,0 -4,0c0,-1.67 0,-3.33 0,-5c9.01,-0.17 18.01,0 27,0.5c0.64,4.27 1.31,8.43 2,12.5z" fill="#bb0503" id="svg_32"/>
  </g>
  <g id="svg_33">
   <path d="m463.5,512.5c-0.95,2.62 -2.62,4.62 -5,6c0.06,1.11 0.39,2.11 1,3c-1.43,0.08 -2.76,-0.25 -4,-1c-1.92,1.21 -3.75,2.54 -5.5,4c-7.64,-0.62 -15.14,-1.29 -22.5,-2c13.97,2.75 25.97,-0.58 36,-10z" fill="#830a0c" id="svg_34"/>
  </g>
  <g id="svg_35">
   <path d="m289.5,521.5c0.33,0 0.67,0 1,0c0.79,0.28 1.46,0.78 2,1.5c9.68,0.48 19.34,0.32 29,-0.5c10.28,-0.95 20.62,-1.29 31,-1c-14.98,0.78 -29.98,1.78 -45,3c-5.67,-0.17 -11.33,-0.33 -17,-0.5c-0.75,-0.67 -1.09,-1.5 -1,-2.5z" fill="#9a0909" id="svg_36"/>
  </g>
  <g id="svg_37">
   <path d="m161.5,474.5c-0.17,6.01 0,12.01 0.5,18c1.83,4 3.67,8 5.5,12c1.57,0.96 3.24,1.62 5,2c-0.26,1.48 0.07,2.81 1,4c5.95,2.23 8.62,6.56 8,13c-0.09,1 0.25,1.83 1,2.5c9.67,0.67 19.33,0.67 29,0c0.88,-0.71 1.55,-1.54 2,-2.5c0.98,-3.12 1.31,-6.46 1,-10c3.74,-1.62 6.74,-0.95 9,2c0,0.67 0.33,1 1,1c0.06,1.11 0.39,2.11 1,3c10.49,1.16 21.16,1.33 32,0.5c1.64,-1.13 2.64,-2.63 3,-4.5c1.6,0.79 2.27,2.12 2,4c-2.51,0.49 -4.84,1.49 -7,3c-3,0.33 -6,0.67 -9,1c-5.06,-0.56 -10.06,-0.56 -15,0c-1.97,-2 -4.14,-2.34 -6.5,-1c-4.34,-2.89 -7.84,-2.06 -10.5,2.5c0.33,0.33 0.67,0.67 1,1c-1,0.33 -2,0.67 -3,1c1.33,0.67 1.33,1.33 0,2c-9,0.67 -18,0.67 -27,0c-2.67,-1 -5,-2.5 -7,-4.5c-0.46,-4.54 -2.13,-8.54 -5,-12c-3,-1.33 -6,-2.67 -9,-4c0.49,-0.95 0.82,-1.95 1,-3c-5.62,-9.17 -7.46,-19.17 -5.5,-30c0.38,-0.56 0.88,-0.89 1.5,-1z" fill="#ba0503" id="svg_38"/>
  </g>
  <g id="svg_39">
   <path d="m181.5,523.5c0.33,0 0.67,0 1,0c10.21,1.3 20.54,1.3 31,0c-0.45,0.96 -1.12,1.79 -2,2.5c-9.67,0.67 -19.33,0.67 -29,0c-0.75,-0.67 -1.09,-1.5 -1,-2.5z" fill="#7e0c0c" id="svg_40"/>
  </g>
  <g id="svg_41">
   <path d="m172.5,506.5c2.96,2.43 6.29,4.1 10,5c0,4 0,8 0,12c-0.33,0 -0.67,0 -1,0c0.62,-6.44 -2.05,-10.77 -8,-13c-0.93,-1.19 -1.26,-2.52 -1,-4z" fill="#6d0a08" id="svg_42"/>
  </g>
  <g id="svg_43">
   <path d="m164.5,472.5c0.33,0 0.67,0 1,0c0,0.33 0,0.67 0,1c-0.62,0.11 -1.12,0.44 -1.5,1c-1.52,12 1.31,22.67 8.5,32c-1.76,-0.38 -3.43,-1.04 -5,-2c-1.83,-4 -3.67,-8 -5.5,-12c-0.5,-5.99 -0.67,-11.99 -0.5,-18c0.47,-1.41 1.47,-2.07 3,-2z" fill="#880809" id="svg_44"/>
  </g>
  <g id="svg_45">
   <path d="m472.5,483.5c0.46,5.11 -0.54,9.77 -3,14c1.01,-4.78 2.01,-9.45 3,-14z" fill="#58080b" id="svg_46"/>
  </g>
  <g id="svg_47">
   <path d="m168.5,466.5c2.1,2.09 3.76,4.42 5,7c-2.67,0 -5.33,0 -8,0c0,-0.33 0,-0.67 0,-1c1.07,-0.93 2.4,-1.27 4,-1c-0.13,-1.72 -0.46,-3.38 -1,-5z" fill="#57060b" id="svg_48"/>
  </g>
  <g id="svg_49">
   <path d="m499.5,438.5c0.09,1 -0.25,1.83 -1,2.5c-7.51,0.17 -14.85,0.67 -22,1.5c-0.39,1.68 -0.89,3.35 -1.5,5c-0.09,16.37 -0.76,32.7 -2,49c-2.86,4.39 -5.19,9.05 -7,14c-0.67,0.75 -1.5,1.09 -2.5,1c2.53,-4.4 4.53,-9.07 6,-14c2.46,-4.23 3.46,-8.89 3,-14c0,-1.33 0,-2.67 0,-4c1.08,-12.84 1.08,-25.84 0,-39c8.94,-1.38 17.94,-2.04 27,-2z" fill="#930808" id="svg_50"/>
  </g>
  <g id="svg_51">
   <path d="m511.5,434.5c-3.69,1.96 -7.69,3.3 -12,4c-9.06,-0.04 -18.06,0.62 -27,2c1.08,13.16 1.08,26.16 0,39c-0.05,-13.68 -0.38,-27.34 -1,-41c13.27,-1.4 26.61,-2.73 40,-4z" fill="#5f0709" id="svg_52"/>
  </g>
  <g id="svg_53">
   <path d="m155.5,439.5c2.42,-0.21 4.75,0.13 7,1c0.67,3.14 1.33,6.14 2,9c0,3 0,6 0,9c-1.52,-5.09 -2.35,-10.42 -2.5,-16c-2.17,-1.23 -4.33,-2.23 -6.5,-3z" fill="#750706" id="svg_54"/>
  </g>
  <g id="svg_55">
   <path d="m127.5,436.5c9.55,0.34 18.88,1.34 28,3c2.17,0.77 4.33,1.77 6.5,3c0.15,5.58 0.98,10.91 2.5,16c1.63,2.49 2.96,5.15 4,8c0.54,1.62 0.87,3.28 1,5c-1.6,-0.27 -2.93,0.07 -4,1c-0.33,0 -0.67,0 -1,0c-0.01,-3.05 -0.34,-6.05 -1,-9c-1,0 -2,0 -3,0c-0.79,-5.63 -1.12,-11.3 -1,-17c-0.98,-1.35 -2.32,-2.35 -4,-3c-6.32,-0.89 -12.66,-1.72 -19,-2.5c-3.4,-0.83 -6.4,-2.33 -9,-4.5z" fill="#a60502" id="svg_56"/>
  </g>
  <g id="svg_57">
   <path d="m127.5,434.5c12.28,1.66 24.61,3 37,4c0,3.67 0,7.33 0,11c-0.67,-2.86 -1.33,-5.86 -2,-9c-2.25,-0.87 -4.58,-1.21 -7,-1c-9.12,-1.66 -18.45,-2.66 -28,-3c0,-0.33 0,-0.67 0,-1c0,-0.33 0,-0.67 0,-1z" fill="#530606" id="svg_58"/>
  </g>
  <g id="svg_59">
   <path d="m471.5,372.5c6.95,-0.22 13.61,0.78 20,3c0,1 0,2 0,3c1.33,0 2.67,0 4,0c3.68,0.35 6.02,2.35 7,6c5.44,3.04 9.11,7.54 11,13.5c2.97,8.91 5.3,17.91 7,27c0.53,5.98 -1.8,10.31 -7,13c-2.68,0.25 -5.01,1.25 -7,3c-9.95,1.3 -19.95,1.8 -30,1.5c7.15,-0.83 14.49,-1.33 22,-1.5c0.75,-0.67 1.09,-1.5 1,-2.5c4.31,-0.7 8.31,-2.04 12,-4c0.34,-0.84 1.01,-1.17 2,-1c1,0.09 1.83,-0.25 2.5,-1c0.67,-4 0.67,-8 0,-12c-1.55,-7.97 -3.88,-15.63 -7,-23c-0.71,-0.88 -1.54,-1.55 -2.5,-2c-1,0.09 -1.83,-0.25 -2.5,-1c-1.27,-4.38 -4.11,-7.04 -8.5,-8c0,-1 0,-2 0,-3c-4.27,-4.42 -9.61,-6.76 -16,-7c-2.43,-1.88 -5.1,-3.21 -8,-4z" fill="#a50503" id="svg_60"/>
  </g>
  <g id="svg_61">
   <path d="m127.5,415.5c0.03,4.61 -0.63,9.11 -2,13.5c0.26,1.79 0.92,3.29 2,4.5c-3.45,-0.07 -4.78,-1.91 -4,-5.5c0.27,-3.57 0.94,-7.07 2,-10.5c0.25,-1.21 0.91,-1.88 2,-2z" fill="#4b0706" id="svg_62"/>
  </g>
  <g id="svg_63">
   <path d="m136.5,392.5c-1.95,4.12 -4.11,8.12 -6.5,12c-0.24,3.93 -1.07,7.6 -2.5,11c-1.09,0.12 -1.75,0.79 -2,2c-1.06,3.43 -1.73,6.93 -2,10.5c-0.78,3.59 0.55,5.43 4,5.5c0,0.33 0,0.67 0,1c0,0.33 0,0.67 0,1c-2.6,-0.05 -4.77,-1.05 -6.5,-3c-0.5,-4.71 -0.16,-9.37 1,-14c2.4,-7.53 5.4,-14.86 9,-22c2.03,-1.22 3.87,-2.56 5.5,-4z" fill="#a00603" id="svg_64"/>
  </g>
  <g id="svg_65">
   <path d="m506.5,395.5c0.96,0.45 1.79,1.12 2.5,2c3.12,7.37 5.45,15.03 7,23c0.67,4 0.67,8 0,12c-0.67,0.75 -1.5,1.09 -2.5,1c2.01,-3.7 2.51,-7.7 1.5,-12c-2.53,-8.74 -5.36,-17.4 -8.5,-26z" fill="#5d0a09" id="svg_66"/>
  </g>
  <g id="svg_67">
   <path d="m162.5,339.5c1.62,0.29 2.62,1.29 3,3c5.61,2.92 11.61,4.42 18,4.5c0.67,2 2,3.33 4,4c-0.89,4.76 -1.56,9.6 -2,14.5c-2.82,-0.18 -4.49,1.15 -5,4c-7.51,0.62 -14.51,2.62 -21,6c-4.81,-0.98 -8.48,0.52 -11,4.5c-2.86,1.64 -5.86,2.81 -9,3.5c0.16,1.7 -0.01,3.37 -0.5,5c-1.48,0.97 -2.31,2.3 -2.5,4c-1.63,1.44 -3.47,2.78 -5.5,4c-3.6,7.14 -6.6,14.47 -9,22c-1.16,4.63 -1.5,9.29 -1,14c1.73,1.95 3.9,2.95 6.5,3c0,0.33 0,0.67 0,1c2.6,2.17 5.6,3.67 9,4.5c6.34,0.78 12.68,1.61 19,2.5c1.68,0.65 3.02,1.65 4,3c-12.16,-0.79 -24.16,-2.62 -36,-5.5c-2.03,-1.4 -2.36,-3.06 -1,-5c-2.11,-1.14 -3.94,-2.64 -5.5,-4.5c0.03,-4.31 0.37,-8.64 1,-13c2.45,-4.69 4.12,-9.69 5,-15c1.67,-1 3,-2.33 4,-4c0.97,-3.66 2.64,-7 5,-10c1.26,-2.25 3.09,-3.58 5.5,-4c0.11,-4.75 2.44,-7.58 7,-8.5c-1.23,-1.18 -1.23,-2.35 0,-3.5c1.6,0.99 3.26,1.15 5,0.5c1.66,-1.83 3.66,-3.16 6,-4c8.36,-1.86 16.69,-3.52 25,-5c3.44,-1.51 4.77,-4.17 4,-8c-0.5,-3.24 -1.16,-6.41 -2,-9.5c-2.97,0.83 -5.97,1 -9,0.5c-3.01,-1.5 -6.01,-3 -9,-4.5c-1.35,-1.02 -2.02,-2.36 -2,-4z" fill="#ba0602" id="svg_68"/>
  </g>
  <g id="svg_69">
   <path d="m479.5,376.5c6.39,0.24 11.73,2.58 16,7c-5.36,-2.34 -10.7,-4.67 -16,-7z" fill="#5b0507" id="svg_70"/>
  </g>
  <g id="svg_71">
   <path d="m159.5,375.5c-2.33,2.5 -5.33,4 -9,4.5c-4.49,4.32 -9.15,8.48 -14,12.5c0.19,-1.7 1.02,-3.03 2.5,-4c0.49,-1.63 0.66,-3.3 0.5,-5c3.14,-0.69 6.14,-1.86 9,-3.5c2.52,-3.98 6.19,-5.48 11,-4.5z" fill="#7f0606" id="svg_72"/>
  </g>
  <g id="svg_73">
   <path d="m514.5,276.5c-0.33,2 -0.67,4 -1,6c-1,0 -2,0 -3,0c-0.13,1.72 -0.46,3.38 -1,5c-2.32,3.31 -4.99,6.31 -8,9c-2.78,3.62 -5.78,7.12 -9,10.5c-2.18,4.93 -3.35,10.09 -3.5,15.5c-1.69,5.1 -3.69,10.1 -6,15c-1.38,1.71 -3.05,3.05 -5,4c-0.31,1.27 -0.81,2.43 -1.5,3.5c-2.12,0.1 -3.79,0.93 -5,2.5c-2.95,0.82 -5.95,1.32 -9,1.5c-1.78,0.81 -3.28,1.98 -4.5,3.5c-0.98,4.4 -0.48,8.57 1.5,12.5c6.48,2.14 13.14,2.98 20,2.5c0,1.33 0,2.67 0,4c7.04,-1.25 12.37,1.09 16,7c-1.33,0 -2.67,0 -4,0c0,-1 0,-2 0,-3c-6.39,-2.22 -13.05,-3.22 -20,-3c-0.33,0 -0.67,0 -1,0c-3.75,-1.86 -7.75,-3.2 -12,-4c-0.45,-2.64 -1.62,-4.97 -3.5,-7c-0.67,-3.33 -0.67,-6.67 0,-10c2.56,-0.72 3.72,-2.39 3.5,-5c2.69,0.16 5.35,0 8,-0.5c1.82,-0.2 3.15,-1.03 4,-2.5c2,0 4,0 6,0c0,-1.33 0,-2.67 0,-4c2.41,0.26 4.08,-0.74 5,-3c0.97,-4.1 2.13,-8.1 3.5,-12c1.33,-0.67 2.33,-1.67 3,-3c0.41,-5.47 1.41,-10.8 3,-16c3.97,-3.07 7.14,-7.4 9.5,-13c1.19,-0.93 2.52,-1.26 4,-1c-0.5,-3.66 1,-6 4.5,-7c1.27,-2.21 2.27,-4.55 3,-7c0.67,-0.75 1.5,-1.09 2.5,-1z" fill="#b60601" id="svg_74"/>
  </g>
  <g id="svg_75">
   <path d="m470.5,343.5c-0.85,1.47 -2.18,2.3 -4,2.5c-2.65,0.5 -5.31,0.66 -8,0.5c0.22,2.61 -0.94,4.28 -3.5,5c-0.67,3.33 -0.67,6.67 0,10c1.88,2.03 3.05,4.36 3.5,7c4.25,0.8 8.25,2.14 12,4c-3.73,0.32 -7.39,-0.01 -11,-1c-1.32,-1.44 -2.99,-2.44 -5,-3c-2.12,-7.59 -2.46,-15.26 -1,-23c3.54,0.31 6.88,-0.02 10,-1c2.4,0.05 4.74,-0.28 7,-1z" fill="#960503" id="svg_76"/>
  </g>
  <g id="svg_77">
   <path d="m189.5,351.5c1.52,6.36 1.02,12.69 -1.5,19c-4.98,3.39 -10.48,4.72 -16.5,4c4.98,-0.97 9.98,-2.3 15,-4c0.33,-2.81 1.16,-5.48 2.5,-8c0.5,-3.65 0.66,-7.32 0.5,-11z" fill="#440a08" id="svg_78"/>
  </g>
  <g id="svg_79">
   <path d="m463.5,344.5c-3.12,0.98 -6.46,1.31 -10,1c-1.46,7.74 -1.12,15.41 1,23c2.01,0.56 3.68,1.56 5,3c3.61,0.99 7.27,1.32 11,1c0.33,0 0.67,0 1,0c2.9,0.79 5.57,2.12 8,4c-9.32,-1.4 -18.65,-3.07 -28,-5c0,-3 0,-6 0,-9c-0.17,-5.68 0,-11.34 0.5,-17c3.73,-0.96 7.56,-1.29 11.5,-1z" fill="#650607" id="svg_80"/>
  </g>
  <g id="svg_81">
   <path d="m477.5,335.5c-1.62,3.29 -3.96,5.96 -7,8c-2.26,0.72 -4.6,1.05 -7,1c-3.94,-0.29 -7.77,0.04 -11.5,1c-0.5,5.66 -0.67,11.32 -0.5,17c-1.31,-2.42 -1.98,-5.25 -2,-8.5c0.06,-3.37 0.39,-6.71 1,-10c-0.77,-1.22 -1.77,-2.22 -3,-3c5.17,1.49 10.51,2.16 16,2c2.73,-0.41 5.4,-1.08 8,-2c1.92,-2.09 3.92,-3.92 6,-5.5z" fill="#4c0608" id="svg_82"/>
  </g>
  <g id="svg_83">
   <path d="m189.5,351.5c-1.37,-2.06 -2.37,-4.4 -3,-7c-1.11,0.52 -2.27,0.86 -3.5,1c-4.16,-0.32 -7.99,-1.32 -11.5,-3c3.54,-0.12 7.04,0.21 10.5,1c2.27,-1.36 4.77,-2.03 7.5,-2c0,3.33 0,6.67 0,10z" fill="#530507" id="svg_84"/>
  </g>
  <g id="svg_85">
   <path d="m486.5,306.5c-0.68,3.21 -1.85,6.21 -3.5,9c-0.5,2.65 -0.66,5.31 -0.5,8c-0.08,4.81 -1.75,8.81 -5,12c1.69,-6.95 3.19,-13.95 4.5,-21c0.92,-3.06 2.42,-5.72 4.5,-8z" fill="#53070a" id="svg_86"/>
  </g>
  <g id="svg_87">
   <path d="m155.5,310.5c2.07,2.71 3.4,5.71 4,9c1.82,5.85 3.16,11.85 4,18c1.05,-0.15 2.05,0.02 3,0.5c0.91,2.42 2.58,3.92 5,4.5c3.51,1.68 7.34,2.68 11.5,3c1.23,-0.14 2.39,-0.48 3.5,-1c0.63,2.6 1.63,4.94 3,7c0.16,3.68 0,7.35 -0.5,11c-1.34,2.52 -2.17,5.19 -2.5,8c-5.02,1.7 -10.02,3.03 -15,4c-3.97,0.66 -7.97,1 -12,1c6.49,-3.38 13.49,-5.38 21,-6c0.51,-2.85 2.18,-4.18 5,-4c0.44,-4.9 1.11,-9.74 2,-14.5c-2,-0.67 -3.33,-2 -4,-4c-6.39,-0.08 -12.39,-1.58 -18,-4.5c-0.38,-1.71 -1.38,-2.71 -3,-3c-3.21,-3.63 -4.88,-7.96 -5,-13c0.25,-5.49 -0.41,-10.82 -2,-16z" fill="#880605" id="svg_88"/>
  </g>
  <g id="svg_89">
   <path d="m501.5,296.5c-4.08,7.9 -7.41,16.23 -10,25c-1.33,4 -1.33,8 0,12c-0.36,2.11 -1.03,4.11 -2,6c-0.98,-0.48 -1.81,-1.14 -2.5,-2c-1.25,2.83 -2.75,5.5 -4.5,8c-2.54,0.62 -5.04,1.28 -7.5,2c-0.17,0.33 -0.33,0.67 -0.5,1c1.77,0.69 3.44,1.52 5,2.5c-2.53,0.51 -4.69,1.68 -6.5,3.5c-4.36,-0.81 -8.69,-0.48 -13,1c-0.82,2.73 -0.65,5.39 0.5,8c0.62,-2.47 1.46,-4.8 2.5,-7c0.2,1.76 0.7,3.42 1.5,5c4.4,2.82 9.07,3.49 14,2c0.89,0.82 1.22,1.82 1,3c1.56,0.02 3.06,0.35 4.5,1c2.29,2.21 4.96,3.88 8,5c1.83,-0.51 1.99,-1.34 0.5,-2.5c1.27,-0.31 2.43,-0.81 3.5,-1.5c2.28,2.22 3.78,4.88 4.5,8c3.22,0.55 6.05,1.89 8.5,4c0.6,1.4 0.43,2.73 -0.5,4c2.63,0.79 4.46,2.46 5.5,5c3,5.33 5,11 6,17c1.04,-2.2 1.88,-4.53 2.5,-7c0.82,2.95 1.32,5.95 1.5,9c1.06,1.71 2.23,2.37 3.5,2c-1.13,0.76 -2.29,1.43 -3.5,2c-0.66,6.52 -0.16,12.85 1.5,19c-1.17,-0.22 -2.17,0.11 -3,1c-1.31,1.95 -1.98,3.79 -2,5.5c-3.94,1.16 -7.94,1.99 -12,2.5c0,1 0,2 0,3c-5.01,-0.17 -10.01,0 -15,0.5c-1.55,1.75 -3.22,1.92 -5,0.5c-3.04,0.48 -6.04,1.15 -9,2c-0.65,11.97 -1.31,23.97 -2,36c-0.57,4.14 -1.57,8.14 -3,12c0.33,0.67 0.67,1.33 1,2c-0.83,7.69 -4.16,14.19 -10,19.5c-2.15,1.41 -4.48,2.25 -7,2.5c2.38,-1.38 4.05,-3.38 5,-6c0,-0.33 0,-0.67 0,-1c1,0.09 1.83,-0.25 2.5,-1c1.81,-4.95 4.14,-9.61 7,-14c1.24,-16.3 1.91,-32.63 2,-49c0.61,-1.65 1.11,-3.32 1.5,-5c10.05,0.3 20.05,-0.2 30,-1.5c1.99,-1.75 4.32,-2.75 7,-3c5.2,-2.69 7.53,-7.02 7,-13c-1.7,-9.09 -4.03,-18.09 -7,-27c-1.89,-5.96 -5.56,-10.46 -11,-13.5c-0.98,-3.65 -3.32,-5.65 -7,-6c-3.63,-5.91 -8.96,-8.25 -16,-7c0,-1.33 0,-2.67 0,-4c-6.86,0.48 -13.52,-0.36 -20,-2.5c-1.98,-3.93 -2.48,-8.1 -1.5,-12.5c1.22,-1.52 2.72,-2.69 4.5,-3.5c3.05,-0.18 6.05,-0.68 9,-1.5c1.21,-1.57 2.88,-2.4 5,-2.5c0.69,-1.07 1.19,-2.23 1.5,-3.5c1.95,-0.95 3.62,-2.29 5,-4c2.31,-4.9 4.31,-9.9 6,-15c0.15,-5.41 1.32,-10.57 3.5,-15.5c3.22,-3.38 6.22,-6.88 9,-10.5z" fill="#ca0602" id="svg_90"/>
  </g>
  <g id="svg_91">
   <path d="m495.5,295.5c-6.25,8.42 -10.59,17.75 -13,28c-0.16,-2.69 0,-5.35 0.5,-8c1.65,-2.79 2.82,-5.79 3.5,-9c1.88,-4.55 4.88,-8.22 9,-11z" fill="#740608" id="svg_92"/>
  </g>
  <g id="svg_93">
   <path d="m140.5,291.5c6.07,5.42 11.07,11.75 15,19c1.59,5.18 2.25,10.51 2,16c-1.35,-0.98 -2.35,-2.32 -3,-4c-0.82,-3.29 -1.32,-6.62 -1.5,-10c-1,-1.67 -2.33,-3 -4,-4c-0.49,-1.63 -0.66,-3.3 -0.5,-5c-2.17,-0.71 -4.17,-1.71 -6,-3c-1.43,-2.81 -2.09,-5.81 -2,-9z" fill="#a50601" id="svg_94"/>
  </g>
  <g id="svg_95">
   <path d="m129.5,271.5c7.31,10.47 15.14,20.47 23.5,30c2,3.33 4,6.67 6,10c0.5,2.65 0.66,5.31 0.5,8c-0.6,-3.29 -1.93,-6.29 -4,-9c-3.93,-7.25 -8.93,-13.58 -15,-19c-3.67,-5.34 -7.34,-10.68 -11,-16c0,-1.33 0,-2.67 0,-4z" fill="#660708" id="svg_96"/>
  </g>
  <g id="svg_97">
   <path d="m516.5,239.5c1.47,0.85 2.3,2.18 2.5,4c0.25,4.54 0.75,9.04 1.5,13.5c-1.11,2.05 -1.78,4.21 -2,6.5c-2.07,3.94 -3.4,8.28 -4,13c-1,-0.09 -1.83,0.25 -2.5,1c-0.73,2.45 -1.73,4.79 -3,7c-3.5,1 -5,3.34 -4.5,7c-1.48,-0.26 -2.81,0.07 -4,1c-2.36,5.6 -5.53,9.93 -9.5,13c-1.59,5.2 -2.59,10.53 -3,16c-0.67,1.33 -1.67,2.33 -3,3c-1.37,3.9 -2.53,7.9 -3.5,12c-0.92,2.26 -2.59,3.26 -5,3c0,1.33 0,2.67 0,4c-2,0 -4,0 -6,0c3.04,-2.04 5.38,-4.71 7,-8c3.25,-3.19 4.92,-7.19 5,-12c2.41,-10.25 6.75,-19.58 13,-28c1.6,-3.27 3.93,-5.94 7,-8c3.4,-3.53 6.24,-7.53 8.5,-12c0.49,-1.29 0.66,-2.63 0.5,-4c1.76,-1.05 2.42,-2.72 2,-5c0.68,-1.66 1.51,-3.32 2.5,-5c0.5,-7.33 0.67,-14.66 0.5,-22z" fill="#990503" id="svg_98"/>
  </g>
  <g id="svg_99">
   <path d="m499.5,197.5c3.54,2.4 6.7,5.4 9.5,9c1.91,-2.83 2.74,-2.5 2.5,1c2,0 4,0 6,0c-1.49,5.09 -0.82,9.92 2,14.5c0.48,2.91 0.48,5.91 0,9c2.04,1.59 3.04,3.75 3,6.5c1.28,8.31 1.78,16.64 1.5,25c-2.4,7.14 -5.73,14.14 -10,21c-1.47,1.49 -2.97,2.82 -4.5,4c0.54,-1.62 0.87,-3.28 1,-5c1,0 2,0 3,0c0.33,-2 0.67,-4 1,-6c0.6,-4.72 1.93,-9.06 4,-13c1.06,-1.1 1.89,-2.43 2.5,-4c0.67,-7.33 0.67,-14.67 0,-22c-0.41,-0.46 -0.91,-0.79 -1.5,-1c-0.86,-5.84 -2.36,-11.51 -4.5,-17c-0.69,-0.86 -1.52,-1.52 -2.5,-2c-0.73,-3.17 -1.9,-6.17 -3.5,-9c-1.01,-0.84 -2.18,-1.17 -3.5,-1c0.12,-3.41 -1.55,-4.74 -5,-4c0.18,-2.12 -0.16,-4.12 -1,-6z" fill="#c70602" id="svg_100"/>
  </g>
  <g id="svg_101">
   <path d="m511.5,271.5c0.16,1.37 -0.01,2.71 -0.5,4c-2.26,4.47 -5.1,8.47 -8.5,12c-0.16,-1.7 0.01,-3.37 0.5,-5c3.08,-3.57 5.91,-7.23 8.5,-11z" fill="#5c0909" id="svg_102"/>
  </g>
  <g id="svg_103">
   <path d="m513.5,266.5c0.42,2.28 -0.24,3.95 -2,5c-0.38,-2.2 0.29,-3.87 2,-5z" fill="#48070a" id="svg_104"/>
  </g>
  <g id="svg_105">
   <path d="m515.5,239.5c0.33,0 0.67,0 1,0c0.17,7.34 0,14.67 -0.5,22c-0.99,1.68 -1.82,3.34 -2.5,5c1.71,-8.87 2.38,-17.87 2,-27z" fill="#44080a" id="svg_106"/>
  </g>
  <g id="svg_107">
   <path d="m125.5,239.5c-0.36,8.77 0.3,17.44 2,26c-1.55,-0.73 -2.38,-2.06 -2.5,-4c-0.82,-7.51 -0.66,-14.84 0.5,-22z" fill="#560505" id="svg_108"/>
  </g>
  <g id="svg_109">
   <path d="m483.5,188.5c4.51,0 7.51,2.17 9,6.5c2.15,1.41 4.49,2.25 7,2.5c0.84,1.88 1.18,3.88 1,6c3.45,-0.74 5.12,0.59 5,4c1.32,-0.17 2.49,0.16 3.5,1c1.6,2.83 2.77,5.83 3.5,9c0.98,0.48 1.81,1.14 2.5,2c2.14,5.49 3.64,11.16 4.5,17c0.59,0.21 1.09,0.54 1.5,1c0.67,7.33 0.67,14.67 0,22c-0.61,1.57 -1.44,2.9 -2.5,4c0.22,-2.29 0.89,-4.45 2,-6.5c-0.75,-4.46 -1.25,-8.96 -1.5,-13.5c-0.2,-1.82 -1.03,-3.15 -2.5,-4c-0.33,0 -0.67,0 -1,0c-0.5,-3.99 -1,-7.99 -1.5,-12c-1.32,-2.81 -3.15,-5.14 -5.5,-7c0.16,-2.69 0,-5.35 -0.5,-8c-2.76,-1.6 -4.6,-3.93 -5.5,-7c-3.19,-1.44 -6.19,-3.11 -9,-5c-1.35,-2.2 -2.51,-4.53 -3.5,-7c-2.63,-1.14 -4.8,-2.81 -6.5,-5z" fill="#aa0602" id="svg_110"/>
  </g>
  <g id="svg_111">
   <path d="m129.5,227.5c-0.4,4.53 -1.73,8.53 -4,12c0.53,-3.71 1.36,-7.38 2.5,-11c0.38,-0.56 0.88,-0.89 1.5,-1z" fill="#5f0809" id="svg_112"/>
  </g>
  <g id="svg_113">
   <path d="m168.5,166.5c-1.7,2.74 -3.03,5.74 -4,9c-1,0 -2,0 -3,0c0.34,2.66 -0.33,4.99 -2,7c-2.46,0.62 -4.12,2.12 -5,4.5c-4.46,0.63 -7.12,3.13 -8,7.5c-0.82,0.89 -1.82,1.22 -3,1c0,1.67 0,3.33 0,5c-2,1.98 -4.33,3.65 -7,5c-2.76,3.94 -4.76,8.27 -6,13c-1,0 -2,0 -3,0c-1.29,5.71 -2.79,11.37 -4.5,17c-1.91,9.68 -1.91,19.34 0,29c1.52,4.19 3.69,7.85 6.5,11c3.66,5.32 7.33,10.66 11,16c-0.09,3.19 0.57,6.19 2,9c-4.46,-3.25 -7.12,-7.58 -8,-13c-1.7,0.16 -3.37,-0.01 -5,-0.5c1.05,-1.39 1.22,-2.89 0.5,-4.5c-4.54,-4.41 -7.54,-9.74 -9,-16c-1.29,-14.01 -0.95,-28.01 1,-42c1.64,-2.08 2.81,-4.41 3.5,-7c1,-0.67 2,-1.33 3,-2c-1.18,-1.7 -1.18,-3.37 0,-5c1.96,-2.28 4.13,-4.28 6.5,-6c0.49,-1.29 0.66,-2.63 0.5,-4c3.51,-0.31 5.18,-2.31 5,-6c1,0 2,0 3,0c0,-1 0,-2 0,-3c3,-2.29 6.33,-4.29 10,-6c3.26,-4.31 5.93,-8.97 8,-14c1.34,-0.85 2.34,-2.01 3,-3.5c1.4,-0.41 2.73,-0.91 4,-1.5z" fill="#c00601" id="svg_114"/>
  </g>
  <g id="svg_115">
   <path d="m508.5,220.5c2.35,1.86 4.18,4.19 5.5,7c0.5,4.01 1,8.01 1.5,12c-2.57,-6.16 -4.9,-12.49 -7,-19z" fill="#700708" id="svg_116"/>
  </g>
  <g id="svg_117">
   <path d="m140.5,207.5c-2.91,7.2 -6.58,13.87 -11,20c-0.16,-2.03 0,-4.03 0.5,-6c3.51,-4.02 5.68,-8.69 6.5,-14c1.33,0 2.67,0 4,0z" fill="#700607" id="svg_118"/>
  </g>
  <g id="svg_119">
   <path d="m493.5,200.5c2.81,1.89 5.81,3.56 9,5c0.9,3.07 2.74,5.4 5.5,7c0.5,2.65 0.66,5.31 0.5,8c-2.19,-1.72 -3.36,-4.06 -3.5,-7c-3.98,-4.15 -7.81,-8.48 -11.5,-13z" fill="#790706" id="svg_120"/>
  </g>
  <g id="svg_121">
   <path d="m143.5,200.5c-1.49,2.15 -2.49,4.48 -3,7c-1.33,0 -2.67,0 -4,0c-0.82,5.31 -2.99,9.98 -6.5,14c-0.5,1.97 -0.66,3.97 -0.5,6c-0.62,0.11 -1.12,0.44 -1.5,1c-1.14,3.62 -1.97,7.29 -2.5,11c-1.16,7.16 -1.32,14.49 -0.5,22c0.12,1.94 0.95,3.27 2.5,4c1.58,1.64 2.25,3.64 2,6c0,1.33 0,2.67 0,4c-2.81,-3.15 -4.98,-6.81 -6.5,-11c-1.91,-9.66 -1.91,-19.32 0,-29c1.71,-5.63 3.21,-11.29 4.5,-17c1,0 2,0 3,0c1.24,-4.73 3.24,-9.06 6,-13c2.67,-1.35 5,-3.02 7,-5z" fill="#9e0603" id="svg_122"/>
  </g>
  <g id="svg_123">
   <path d="m167.5,179.5c-3.35,6.68 -8.35,11.68 -15,15c-4.39,4.05 -8.39,8.39 -12,13c0.51,-2.52 1.51,-4.85 3,-7c8.22,-6.79 16.22,-13.79 24,-21z" fill="#760806" id="svg_124"/>
  </g>
  <g id="svg_125">
   <path d="m479.5,187.5c1.33,0.33 2.67,0.67 4,1c1.7,2.19 3.87,3.86 6.5,5c0.99,2.47 2.15,4.8 3.5,7c-4.74,-4.41 -9.41,-8.75 -14,-13z" fill="#6d0807" id="svg_126"/>
  </g>
  <g id="svg_127">
   <path d="m472.5,177.5c2.13,2.19 4.3,4.52 6.5,7c0.48,0.95 0.65,1.95 0.5,3c-1.57,-2.03 -3.41,-4.03 -5.5,-6c-0.79,-1.25 -1.29,-2.58 -1.5,-4z" fill="#560709" id="svg_128"/>
  </g>
  <g id="svg_129">
   <path d="m396.5,107.5c2.03,-0.16 4.03,0 6,0.5c1.48,2.15 3.48,3.48 6,4c-0.33,0.33 -0.67,0.67 -1,1c2.83,0.05 5.33,0.88 7.5,2.5c0.33,-0.33 0.67,-0.67 1,-1c1.73,1.95 3.9,2.95 6.5,3c1.7,3.53 4.03,6.7 7,9.5c11.52,0.49 20.85,5.16 28,14c0.95,0.48 1.95,0.65 3,0.5c0.67,3.21 1.67,6.38 3,9.5c0.6,1.3 1.6,2.13 3,2.5c2.64,8.8 6.8,16.8 12.5,24c1.62,3.58 3.12,7.25 4.5,11c-1.33,-0.33 -2.67,-0.67 -4,-1c0.15,-1.05 -0.02,-2.05 -0.5,-3c-2.2,-2.48 -4.37,-4.81 -6.5,-7c-2.87,-4.43 -5.7,-9.09 -8.5,-14c-0.1,-2.98 -0.93,-5.65 -2.5,-8c-0.32,-5.32 -2.65,-9.32 -7,-12c-2.74,-6.74 -7.74,-10.41 -15,-11c0.09,-1 -0.25,-1.83 -1,-2.5c-3.33,-0.33 -6.67,-0.67 -10,-1c-2.58,-3.82 -6.25,-5.65 -11,-5.5c0,-1.33 -0.67,-2 -2,-2c0,-1 0,-2 0,-3c-3.12,-1.55 -6.45,-2.55 -10,-3c-1.59,-4.29 -4.59,-6.95 -9,-8z" fill="#9a0503" id="svg_130"/>
  </g>
  <g id="svg_131">
   <path d="m175.5,159.5c-2.02,5.34 -4.02,10.68 -6,16c-0.84,1.17 -1.51,2.5 -2,4c-7.78,7.21 -15.78,14.21 -24,21c0,-1.67 0,-3.33 0,-5c1.18,0.22 2.18,-0.11 3,-1c0.88,-4.37 3.54,-6.87 8,-7.5c0.88,-2.38 2.54,-3.88 5,-4.5c1.67,-2.01 2.34,-4.34 2,-7c1,0 2,0 3,0c0.97,-3.26 2.3,-6.26 4,-9c2.33,-1.24 3.49,-3.24 3.5,-6c1.01,-0.84 2.18,-1.17 3.5,-1z" fill="#aa0502" id="svg_132"/>
  </g>
  <g id="svg_133">
   <path d="m182.5,151.5c-3.22,8.81 -7.55,16.81 -13,24c1.98,-5.32 3.98,-10.66 6,-16c-0.27,-1.88 0.4,-3.21 2,-4c1.67,-1.33 3.33,-2.67 5,-4z" fill="#700606" id="svg_134"/>
  </g>
  <g id="svg_135">
   <path d="m187.5,139.5c-1.81,1.96 -2.81,4.29 -3,7c-0.94,1.55 -1.61,3.22 -2,5c-1.67,1.33 -3.33,2.67 -5,4c1.8,-5.41 3.8,-10.74 6,-16c1.33,0 2.67,0 4,0z" fill="#940506" id="svg_136"/>
  </g>
  <g id="svg_137">
   <path d="m405.5,115.5c2.66,3 6,5 10,6c1.33,0 2,0.67 2,2c1.07,1.39 2.41,2.55 4,3.5c3,0.53 5.67,1.7 8,3.5c0.29,1.15 1.12,1.82 2.5,2c5.29,1.1 10.46,2.6 15.5,4.5c2.2,2.37 4.54,4.54 7,6.5c-0.15,1.05 0.02,2.05 0.5,3c2.19,3.07 4.36,6.07 6.5,9c1.57,2.35 2.4,5.02 2.5,8c2.8,4.91 5.63,9.57 8.5,14c0.21,1.42 0.71,2.75 1.5,4c2.09,1.97 3.93,3.97 5.5,6c4.59,4.25 9.26,8.59 14,13c3.69,4.52 7.52,8.85 11.5,13c0.14,2.94 1.31,5.28 3.5,7c2.1,6.51 4.43,12.84 7,19c0.38,9.13 -0.29,18.13 -2,27c-1.71,1.13 -2.38,2.8 -2,5c-2.59,3.77 -5.42,7.43 -8.5,11c-0.49,1.63 -0.66,3.3 -0.5,5c-3.07,2.06 -5.4,4.73 -7,8c-4.12,2.78 -7.12,6.45 -9,11c-2.08,2.28 -3.58,4.94 -4.5,8c-1.31,7.05 -2.81,14.05 -4.5,21c-2.08,1.58 -4.08,3.41 -6,5.5c-2.6,0.92 -5.27,1.59 -8,2c-5.49,0.16 -10.83,-0.51 -16,-2c1.23,0.78 2.23,1.78 3,3c-0.61,3.29 -0.94,6.63 -1,10c0.02,3.25 0.69,6.08 2,8.5c0,3 0,6 0,9c9.35,1.93 18.68,3.6 28,5c5.3,2.33 10.64,4.66 16,7c0,1 0,2 0,3c4.39,0.96 7.23,3.62 8.5,8c0.67,0.75 1.5,1.09 2.5,1c3.14,8.6 5.97,17.26 8.5,26c1.01,4.3 0.51,8.3 -1.5,12c-0.99,-0.17 -1.66,0.16 -2,1c-13.39,1.27 -26.73,2.6 -40,4c0.62,13.66 0.95,27.32 1,41c0,1.33 0,2.67 0,4c-0.99,4.55 -1.99,9.22 -3,14c-1.47,4.93 -3.47,9.6 -6,14c0,0.33 0,0.67 0,1c-10.03,9.42 -22.03,12.75 -36,10c-2.25,-0.96 -4.58,-1.62 -7,-2c-3.55,-2.75 -6.88,-5.75 -10,-9c0.04,-1.86 -0.79,-3.19 -2.5,-4c-0.5,3.32 -0.67,6.65 -0.5,10c-0.45,0.96 -1.12,1.79 -2,2.5c-17.66,0.5 -35.33,0.67 -53,0.5c-10.01,-0.17 -20.01,0 -30,0.5c-0.56,0.38 -0.89,0.88 -1,1.5c-9.66,0.82 -19.32,0.98 -29,0.5c-0.54,-0.72 -1.21,-1.22 -2,-1.5c0,-5.33 0,-10.67 0,-16c-10.63,0.93 -21.3,1.26 -32,1c0,3.33 0,6.67 0,10c-0.33,1 -1,1.67 -2,2c-10.01,0.17 -20.01,0 -30,-0.5c-0.54,-0.72 -1.21,-1.22 -2,-1.5c0,-3.33 0,-6.67 0,-10c-2.47,0.15 -4.47,1.15 -6,3c-1.54,0.2 -2.88,0.87 -4,2c-0.99,3.95 -1.32,7.95 -1,12c-10.46,1.3 -20.79,1.3 -31,0c0,-4 0,-8 0,-12c-3.71,-0.9 -7.04,-2.57 -10,-5c-7.19,-9.33 -10.02,-20 -8.5,-32c0.38,-0.56 0.88,-0.89 1.5,-1c2.67,0 5.33,0 8,0c-1.24,-2.58 -2.9,-4.91 -5,-7c-1.04,-2.85 -2.37,-5.51 -4,-8c0,-3 0,-6 0,-9c0,-3.67 0,-7.33 0,-11c-12.39,-1 -24.72,-2.34 -37,-4c0,-0.33 0,-0.67 0,-1c-1.08,-1.21 -1.74,-2.71 -2,-4.5c1.37,-4.39 2.03,-8.89 2,-13.5c1.43,-3.4 2.26,-7.07 2.5,-11c2.39,-3.88 4.55,-7.88 6.5,-12c4.85,-4.02 9.51,-8.18 14,-12.5c3.67,-0.5 6.67,-2 9,-4.5c4.03,0 8.03,-0.34 12,-1c6.02,0.72 11.52,-0.61 16.5,-4c2.52,-6.31 3.02,-12.64 1.5,-19c0,-3.33 0,-6.67 0,-10c-2.73,-0.03 -5.23,0.64 -7.5,2c-3.46,-0.79 -6.96,-1.12 -10.5,-1c-2.42,-0.58 -4.09,-2.08 -5,-4.5c-0.95,-0.48 -1.95,-0.65 -3,-0.5c-0.84,-6.15 -2.18,-12.15 -4,-18c0.16,-2.69 0,-5.35 -0.5,-8c-2,-3.33 -4,-6.67 -6,-10c-8.36,-9.53 -16.19,-19.53 -23.5,-30c0.25,-2.36 -0.42,-4.36 -2,-6c-1.7,-8.56 -2.36,-17.23 -2,-26c2.27,-3.47 3.6,-7.47 4,-12c4.42,-6.13 8.09,-12.8 11,-20c3.61,-4.61 7.61,-8.95 12,-13c6.65,-3.32 11.65,-8.32 15,-15c0.49,-1.5 1.16,-2.83 2,-4c5.45,-7.19 9.78,-15.19 13,-24c0.39,-1.78 1.06,-3.45 2,-5c3.48,-2.14 5.81,-5.14 7,-9c10.97,-3.2 21.31,-7.87 31,-14c0.8,-0.46 1.13,-1.12 1,-2c3.25,-0.38 6.25,-1.55 9,-3.5c2.28,-2.46 4.62,-4.62 7,-6.5c1.7,0.16 3.37,-0.01 5,-0.5c11.45,-5.32 23.45,-9.15 36,-11.5c25.66,-1.17 51.33,-1.33 77,-0.5c16.88,3.24 32.88,8.74 48,16.5z" fill="#0c0909" id="svg_138"/>
  </g>
  <g id="svg_139">
   <path d="m410.5,511.5c3.12,3.25 6.45,6.25 10,9c-1.89,-1.04 -3.72,-1.04 -5.5,0c-0.48,-0.95 -0.65,-1.95 -0.5,-3c-3.26,-0.2 -5.93,0.97 -8,3.5c-18,0.5 -36,0.67 -54,0.5c0,-0.33 0,-0.67 0,-1c17.67,0.17 35.34,0 53,-0.5c0.88,-0.71 1.55,-1.54 2,-2.5c0.44,-2.34 1.44,-4.34 3,-6z" fill="#840b0e" id="svg_140"/>
  </g>
  <g id="svg_141">
   <path d="m352.5,520.5c0,0.33 0,0.67 0,1c-10.38,-0.29 -20.72,0.05 -31,1c0.11,-0.62 0.44,-1.12 1,-1.5c9.99,-0.5 19.99,-0.67 30,-0.5z" fill="#61090e" id="svg_142"/>
  </g>
  <g id="svg_143">
   <path d="m209.5,509.5c0,4 0,8 0,12c-8,0 -16,0 -24,0c-0.31,-3.54 0.02,-6.87 1,-10c0,3 0,6 0,9c7.33,0 14.67,0 22,0c-0.31,-3.87 0.02,-7.54 1,-11z" fill="#6d6e6d" id="svg_144"/>
  </g>
  <g id="svg_145">
   <path d="m289.5,521.5c-0.69,-4.07 -1.36,-8.23 -2,-12.5c-8.99,-0.5 -17.99,-0.67 -27,-0.5c0,1.67 0,3.33 0,5c0,0.67 0,1.33 0,2c-0.36,1.87 -1.36,3.37 -3,4.5c-10.84,0.83 -21.51,0.66 -32,-0.5c10.51,0.33 20.85,-0.01 31,-1c1,-0.33 1.67,-1 2,-2c0.98,-2.79 1.31,-5.79 1,-9c10,0 20,0 30,0c0,4.67 0,9.33 0,14z" fill="#870c0c" id="svg_146"/>
  </g>
  <g id="svg_147">
   <path d="m293.5,461.5c1,18.83 1.33,37.83 1,57c5.67,0 11.33,0 17,0c-5.81,0.99 -11.81,1.32 -18,1c0,-19.33 0,-38.67 0,-58z" fill="#7d7a7b" id="svg_148"/>
  </g>
  <g id="svg_149">
   <path d="m224.5,516.5c0.79,0.28 1.46,0.78 2,1.5c9.99,0.5 19.99,0.67 30,0.5c-10.15,0.99 -20.49,1.33 -31,1c-0.61,-0.89 -0.94,-1.89 -1,-3z" fill="#380404" id="svg_150"/>
  </g>
  <g id="svg_151">
   <path d="m357.5,477.5c1,12.49 1.33,25.16 1,38c8.52,-0.33 16.85,0.01 25,1c-8.67,0 -17.33,0 -26,0c0,-13 0,-26 0,-39z" fill="#888282" id="svg_152"/>
  </g>
  <g id="svg_153">
   <path d="m290.5,521.5c-0.33,0 -0.67,0 -1,0c0,-4.67 0,-9.33 0,-14c-10,0 -20,0 -30,0c0.31,3.21 -0.02,6.21 -1,9c0,-3.33 0,-6.67 0,-10c10.7,0.26 21.37,-0.07 32,-1c0,5.33 0,10.67 0,16z" fill="#450a07" id="svg_154"/>
  </g>
  <g id="svg_155">
   <path d="m224.5,516.5c-0.67,0 -1,-0.33 -1,-1c0.31,-2.42 -0.03,-4.76 -1,-7c-1.24,0.75 -2.57,1.08 -4,1c1.53,-1.85 3.53,-2.85 6,-3c0,3.33 0,6.67 0,10z" fill="#4d0a15" id="svg_156"/>
  </g>
  <g id="svg_157">
   <path d="m223.5,515.5c-2.26,-2.95 -5.26,-3.62 -9,-2c0.31,3.54 -0.02,6.88 -1,10c-0.32,-4.05 0.01,-8.05 1,-12c1.12,-1.13 2.46,-1.8 4,-2c1.43,0.08 2.76,-0.25 4,-1c0.97,2.24 1.31,4.58 1,7z" fill="#8f0608" id="svg_158"/>
  </g>
  <g id="svg_159">
   <path d="m410.5,511.5c-1.56,1.66 -2.56,3.66 -3,6c-0.17,-3.35 0,-6.68 0.5,-10c1.71,0.81 2.54,2.14 2.5,4z" fill="#3b0b12" id="svg_160"/>
  </g>
  <g id="svg_161">
   <path d="m350.5,469.5c0.33,0 0.67,0 1,0c0,16 0,32 0,48c-8.85,0.33 -17.52,-0.01 -26,-1c8.33,0 16.67,0 25,0c0,-15.67 0,-31.33 0,-47z" fill="#6c6c6c" id="svg_162"/>
  </g>
  <g id="svg_163">
   <path d="m402.5,445.5c-0.65,1.94 -0.98,3.94 -1,6c-0.33,0 -0.67,0 -1,0c-0.14,-4.3 -0.48,-8.63 -1,-13c-4.02,-0.6 -7.52,0.4 -10.5,3c-0.77,15.36 -0.6,30.69 0.5,46c2.69,0.16 5.35,0 8,-0.5c0.63,-0.75 1.13,-1.58 1.5,-2.5c0.17,-10.51 0.67,-20.84 1.5,-31c0,11.67 0,23.33 0,35c-4.33,0 -8.67,0 -13,0c-0.17,-17 0,-34 0.5,-51c4.74,-0.97 9.57,-1.3 14.5,-1c0,3 0,6 0,9z" fill="#880709" id="svg_164"/>
  </g>
  <g id="svg_165">
   <path d="m400.5,451.5c0,0.67 0,1.33 0,2c-0.83,10.16 -1.33,20.49 -1.5,31c-0.37,0.92 -0.87,1.75 -1.5,2.5c-2.65,0.5 -5.31,0.66 -8,0.5c-1.1,-15.31 -1.27,-30.64 -0.5,-46c2.98,-2.6 6.48,-3.6 10.5,-3c0.52,4.37 0.86,8.7 1,13z" fill="#b30402" id="svg_166"/>
  </g>
  <g id="svg_167">
   <path d="m400.5,451.5c0.33,0 0.67,0 1,0c0,12.67 0,25.33 0,38c-4.86,0.32 -9.53,-0.01 -14,-1c4.33,0 8.67,0 13,0c0,-11.67 0,-23.33 0,-35c0,-0.67 0,-1.33 0,-2z" fill="#530709" id="svg_168"/>
  </g>
  <g id="svg_169">
   <path d="m391.5,443.5c1.83,0.55 3.5,0.55 5,0c1.07,9.32 1.07,18.66 0,28c-0.06,3.11 -0.73,5.95 -2,8.5c0.84,1.01 1.17,2.18 1,3.5c-2.17,0.38 -3.83,-0.28 -5,-2c0.98,-12.62 1.31,-25.28 1,-38z" fill="#cd0601" id="svg_170"/>
  </g>
  <g id="svg_171">
   <path d="m402.5,445.5c0,-3 0,-6 0,-9c-4.93,-0.3 -9.76,0.03 -14.5,1c-0.5,17 -0.67,34 -0.5,51c-1.16,-17.16 -1.33,-34.5 -0.5,-52c5.42,-1.14 10.92,-1.31 16.5,-0.5c0.52,0.56 0.86,1.23 1,2c-0.52,2.67 -1.18,5.17 -2,7.5z" fill="#460607" id="svg_172"/>
  </g>
  <g id="svg_173">
   <path d="m325.5,419.5c8.48,-0.99 17.15,-1.33 26,-1c0,17 0,34 0,51c-0.33,0 -0.67,0 -1,0c0,-16.67 0,-33.33 0,-50c-8.33,0 -16.67,0 -25,0z" fill="#282828" id="svg_174"/>
  </g>
  <g id="svg_175">
   <path d="m255.5,421.5c-7.48,0.99 -15.15,1.32 -23,1c0.31,3.21 -0.02,6.21 -1,9c0,-3.33 0,-6.67 0,-10c8,0 16,0 24,0z" fill="#c8c8c8" id="svg_176"/>
  </g>
  <g id="svg_177">
   <path d="m383.5,516.5c-8.15,-0.99 -16.48,-1.33 -25,-1c0.33,-12.84 0,-25.51 -1,-38c0,-19 0,-38 0,-57c8.33,0 16.67,0 25,0c-0.17,24 0,48 0.5,72c6.74,0.98 13.58,1.31 20.5,1c0,7.67 0,15.33 0,23c-6.67,0 -13.33,0 -20,0z" fill="#fcfcfc" id="svg_178"/>
  </g>
  <g id="svg_179">
   <path d="m325.5,419.5c8.33,0 16.67,0 25,0c0,16.67 0,33.33 0,50c0,15.67 0,31.33 0,47c-8.33,0 -16.67,0 -25,0c0,-32.33 0,-64.67 0,-97z" fill="#fcfdfd" id="svg_180"/>
  </g>
  <g id="svg_181">
   <path d="m427.5,417.5c23.62,-3.46 37.12,6.54 40.5,30c1.12,16.43 0.45,32.76 -2,49c-5.36,18.27 -17.53,25.77 -36.5,22.5c-11.55,-3.22 -18.71,-10.72 -21.5,-22.5c-2.84,-17.29 -3.18,-34.62 -1,-52c2.05,-12.82 8.88,-21.82 20.5,-27z" fill="#fbfbfb" id="svg_182"/>
  </g>
  <g id="svg_183">
   <path d="m435.5,437.5c4.17,0.35 6,2.68 5.5,7c0.91,17.37 0.58,34.71 -1,52c-0.88,2.85 -2.55,3.51 -5,2c-1.07,-3.58 -1.74,-7.25 -2,-11c-0.67,-15 -0.67,-30 0,-45c0.37,-1.95 1.2,-3.62 2.5,-5z" fill="#181818" id="svg_184"/>
  </g>
  <g id="svg_185">
   <path d="m303.5,417.5c4.33,0 8.67,0 13,0c0,4.67 0,9.33 0,14c-0.99,-4.13 -1.32,-8.47 -1,-13c-4.2,0.32 -8.2,-0.02 -12,-1z" fill="#a3a3a3" id="svg_186"/>
  </g>
  <g id="svg_187">
   <path d="m303.5,417.5c3.8,0.98 7.8,1.32 12,1c-0.32,4.53 0.01,8.87 1,13c0.88,29.03 2.21,58.03 4,87c-3,0 -6,0 -9,0c-5.67,0 -11.33,0 -17,0c0.33,-19.17 0,-38.17 -1,-57c0.17,-4.68 0,-9.35 -0.5,-14c-2.96,18.24 -5.12,36.58 -6.5,55c-8.67,0 -17.33,0 -26,0c-0.78,-15.12 -2.61,-30.12 -5.5,-45c-0.5,19.33 -0.67,38.66 -0.5,58c-8.67,0 -17.33,0 -26,0c1.22,-27.99 2.22,-55.99 3,-84c0.98,-2.79 1.31,-5.79 1,-9c7.85,0.32 15.52,-0.01 23,-1c4,0 8,0 12,0c1.96,14.63 3.63,29.3 5,44c-0.16,1.37 0.01,2.71 0.5,4c1.32,-1.75 1.82,-3.75 1.5,-6c1.6,-15.68 3.27,-31.34 5,-47c7.98,0.67 15.98,1 24,1z" fill="#fbfbfb" id="svg_188"/>
  </g>
  <g id="svg_189">
   <path d="m274.5,463.5c0.32,2.25 -0.18,4.25 -1.5,6c-0.49,-1.29 -0.66,-2.63 -0.5,-4c0.67,-0.67 1.33,-1.33 2,-2z" fill="#7b7b7b" id="svg_190"/>
  </g>
  <g id="svg_191">
   <path d="m209.5,509.5c-0.98,3.46 -1.31,7.13 -1,11c-7.33,0 -14.67,0 -22,0c0,-3 0,-6 0,-9c0.13,-0.88 -0.2,-1.54 -1,-2c-10.79,-3.3 -16.62,-10.63 -17.5,-22c-0.5,-3.32 -0.66,-6.65 -0.5,-10c8.34,0.28 16.67,0.62 25,1c-0.35,4.14 0.15,8.14 1.5,12c2.59,1.48 4.93,1.15 7,-1c0.79,-3.13 0.46,-6.13 -1,-9c-7.73,-4.02 -15.56,-7.86 -23.5,-11.5c-8.22,-8.37 -10.72,-18.21 -7.5,-29.5c3.55,-7.22 9.22,-11.88 17,-14c0.5,-3.99 0.67,-7.99 0.5,-12c7.33,0 14.67,0 22,0c-0.17,4.35 0,8.68 0.5,13c7.24,2.24 12.24,6.91 15,14c1.29,5.59 1.79,11.25 1.5,17c-8.32,-0.62 -16.65,-0.96 -25,-1c0.16,-3.35 0,-6.68 -0.5,-10c-1.73,-2.1 -3.73,-2.44 -6,-1c-0.82,3.46 -0.48,6.8 1,10c7.98,4.22 16.15,8.05 24.5,11.5c6.68,6.85 8.84,15.01 6.5,24.5c-1.88,9.38 -7.38,15.38 -16.5,18z" fill="#fafafa" id="svg_192"/>
  </g>
  <g id="svg_193">
   <path d="m409.5,404.5c-0.31,6.92 0.02,13.76 1,20.5c-0.76,1.51 -1.76,2.85 -3,4c-6.66,0.5 -13.32,0.67 -20,0.5c0.17,-3.68 0,-7.35 -0.5,-11c-0.5,-1.17 -1.33,-2 -2.5,-2.5c-20.33,-0.98 -40.66,-1.31 -61,-1c-2.13,1.65 -4.13,1.31 -6,-1c-14.02,-1.11 -28.02,-1.27 -42,-0.5c0.06,2.99 -1.1,5.32 -3.5,7c-0.46,-1.43 -1.3,-2.6 -2.5,-3.5c-12.66,-0.5 -25.33,-0.67 -38,-0.5c0,-2 0,-4 0,-6c0.9,0.71 1.24,1.71 1,3c13.25,-0.32 26.41,0.01 39.5,1c2.03,-1.94 4.2,-3.77 6.5,-5.5c4.93,0.09 9.76,0.26 14.5,0.5c0.5,-0.33 1,-0.67 1.5,-1c-0.74,-0.68 -1.41,-1.35 -2,-2c8.26,1.99 16.6,3.65 25,5c6.7,-0.39 13.37,-1.05 20,-2c-3.08,1.36 -6.41,2.19 -10,2.5c8.38,0.2 16.71,0.7 25,1.5c2.21,-0.61 4.38,-1.27 6.5,-2c6.12,1.28 12.28,1.28 18.5,0c5.2,0.27 9.2,2.6 12,7c-1.4,1.34 -1.07,2.18 1,2.5c-0.12,2.21 -0.12,4.38 0,6.5c4.63,1.16 9.3,1.33 14,0.5c0.55,-0.93 1.21,-1.76 2,-2.5c0.6,-7.2 1.6,-14.2 3,-21z" fill="#282829" id="svg_194"/>
  </g>
  <g id="svg_195">
   <path d="m447.5,379.5c38.94,-5.73 59.27,10.94 61,50c-3,0 -6,0 -9,0c0.83,-3.98 1,-7.98 0.5,-12c-2.16,-2.58 -4.33,-2.58 -6.5,0c-0.57,5.5 -2.57,10.33 -6,14.5c-4.96,1.71 -9.96,1.88 -15,0.5c-0.83,-1.66 -1.99,-3 -3.5,-4c-0.5,-5.66 -0.67,-11.32 -0.5,-17c-2.38,-0.92 -4.71,-0.92 -7,0c-1,2.67 -2,5.33 -3,8c-8.98,-6.53 -18.98,-8.7 -30,-6.5c-4.31,0.9 -8.14,2.74 -11.5,5.5c-1,-13.18 3.84,-23.68 14.5,-31.5c5.12,-3.19 10.45,-5.69 16,-7.5z" fill="#373737" id="svg_196"/>
  </g>
  <g id="svg_197">
   <path d="m164.5,379.5c20.79,-3.77 38.29,1.9 52.5,17c5.39,8.67 6.73,18 4,28c-2.5,1.3 -4.83,0.96 -7,-1c-0.33,-4.33 -0.67,-8.67 -1,-13c-0.5,-0.5 -1,-1 -1.5,-1.5c-9,-0.67 -18,-0.67 -27,0c-0.83,0.83 -1.67,1.67 -2.5,2.5c-0.33,3.33 -0.67,6.67 -1,10c-0.37,-3.82 -1.21,-7.49 -2.5,-11c-2.1,-0.3 -4.1,0.03 -6,1c-0.78,4.61 -1.28,9.28 -1.5,14c-0.82,2.82 -2.32,5.15 -4.5,7c-12.76,3.26 -19.76,-1.74 -21,-15c-1.94,-2.12 -4.11,-2.45 -6.5,-1c-0.41,4.35 -0.25,8.68 0.5,13c-3,0 -6,0 -9,0c0.68,-12.05 3.84,-23.38 9.5,-34c6.23,-8.21 14.4,-13.54 24.5,-16z" fill="#383838" id="svg_198"/>
  </g>
  <g id="svg_199">
   <path d="m454.5,143.5c4.35,2.68 6.68,6.68 7,12c-2.14,-2.93 -4.31,-5.93 -6.5,-9c-0.48,-0.95 -0.65,-1.95 -0.5,-3z" fill="#5f0707" id="svg_200"/>
  </g>
  <g id="svg_201">
   <path d="m191.5,137.5c-1.19,3.86 -3.52,6.86 -7,9c0.19,-2.71 1.19,-5.04 3,-7c1.33,-0.67 2.67,-1.33 4,-2z" fill="#470706" id="svg_202"/>
  </g>
  <g id="svg_203">
   <path d="m429.5,130.5c3.26,0.98 6.6,1.65 10,2c7.26,0.59 12.26,4.26 15,11c-2.46,-1.96 -4.8,-4.13 -7,-6.5c-5.04,-1.9 -10.21,-3.4 -15.5,-4.5c-1.38,-0.18 -2.21,-0.85 -2.5,-2z" fill="#540707" id="svg_204"/>
  </g>
  <g id="svg_205">
   <path d="m417.5,123.5c4.75,-0.15 8.42,1.68 11,5.5c3.33,0.33 6.67,0.67 10,1c0.75,0.67 1.09,1.5 1,2.5c-3.4,-0.35 -6.74,-1.02 -10,-2c-2.33,-1.8 -5,-2.97 -8,-3.5c-1.59,-0.95 -2.93,-2.11 -4,-3.5z" fill="#790605" id="svg_206"/>
  </g>
  <g id="svg_207">
   <path d="m223.5,121.5c0.13,0.88 -0.2,1.54 -1,2c-9.69,6.13 -20.03,10.8 -31,14c0.01,-1.52 0.68,-2.68 2,-3.5c6.19,-2.46 12.52,-4.46 19,-6c3.25,-2.81 6.92,-4.98 11,-6.5z" fill="#760506" id="svg_208"/>
  </g>
  <g id="svg_209">
   <path d="m405.5,115.5c3.55,0.45 6.88,1.45 10,3c0,1 0,2 0,3c-4,-1 -7.34,-3 -10,-6z" fill="#650807" id="svg_210"/>
  </g>
  <g id="svg_211">
   <path d="m239.5,111.5c-2.38,1.88 -4.72,4.04 -7,6.5c-2.75,1.95 -5.75,3.12 -9,3.5c3.37,-3.21 7.04,-6.21 11,-9c1.57,-0.81 3.24,-1.14 5,-1z" fill="#760607" id="svg_212"/>
  </g>
  <g id="svg_213">
   <path d="m409.5,404.5c-1.4,6.8 -2.4,13.8 -3,21c-0.79,0.74 -1.45,1.57 -2,2.5c-4.7,0.83 -9.37,0.66 -14,-0.5c-0.12,-2.12 -0.12,-4.29 0,-6.5c-2.07,-0.32 -2.4,-1.16 -1,-2.5c-2.8,-4.4 -6.8,-6.73 -12,-7c-6.22,1.28 -12.38,1.28 -18.5,0c-2.12,0.73 -4.29,1.39 -6.5,2c-8.29,-0.8 -16.62,-1.3 -25,-1.5c3.59,-0.31 6.92,-1.14 10,-2.5c9.47,-1.99 18.14,-5.82 26,-11.5c1.27,-2.14 1.27,-4.31 0,-6.5c-1.11,-0.52 -2.27,-0.86 -3.5,-1c-18.08,10.94 -37.58,14.11 -58.5,9.5c-7.19,-2.05 -13.86,-5.05 -20,-9c-7,-0.67 -8.67,2 -5,8c5.45,2.22 10.78,4.72 16,7.5c0.59,0.65 1.26,1.32 2,2c-0.5,0.33 -1,0.67 -1.5,1c-4.74,-0.24 -9.57,-0.41 -14.5,-0.5c-2.3,1.73 -4.47,3.56 -6.5,5.5c-13.09,-0.99 -26.25,-1.32 -39.5,-1c0.24,-1.29 -0.1,-2.29 -1,-3c-2.1,-4.36 -3.6,-9.02 -4.5,-14c-7.1,-11.94 -17.27,-19.61 -30.5,-23c-0.33,-7.03 0,-14.03 1,-21c6.75,8.26 14.09,16.09 22,23.5c2.58,1.25 5.24,1.58 8,1c1.27,-2.14 1.27,-4.31 0,-6.5c-12.97,-9.97 -22.97,-22.3 -30,-37c12.23,-19.06 15.4,-39.72 9.5,-62c-2.31,-36.34 0.02,-72.34 7,-108c0.75,-3.26 2.42,-5.92 5,-8c0.67,-2 0.67,-4 0,-6c-3.61,-1.59 -6.78,-0.92 -9.5,2c-4.15,9.96 -6.99,20.29 -8.5,31c-3.63,27.56 -4.96,55.22 -4,83c3.11,13.16 4.11,26.49 3,40c-2.81,14.45 -10.65,25.29 -23.5,32.5c-3.35,0.93 -6.18,0.1 -8.5,-2.5c-1.97,-7.5 -2.97,-15.17 -3,-23c-2.06,-5.12 -4.39,-10.12 -7,-15c-10.08,-9.49 -18.75,-20.15 -26,-32c-2.88,-8.56 -3.21,-17.23 -1,-26c4.05,-16.04 12.22,-29.54 24.5,-40.5c3.44,-0.92 6.44,-2.59 9,-5c11.43,-15.44 20.27,-32.28 26.5,-50.5c3.25,-4.36 7.59,-6.03 13,-5c4.52,0.44 9.02,0.6 13.5,0.5c1.38,-2.95 3.05,-5.78 5,-8.5c17.09,-14.21 36.76,-23.04 59,-26.5c18.38,-0.14 36.71,-0.31 55,-0.5c31.45,-0.91 58.95,8.76 82.5,29c0.24,2.26 0.74,4.43 1.5,6.5c4.5,0.38 9,0.21 13.5,-0.5c5.53,-0.44 10.2,1.22 14,5c3.81,6.63 6.81,13.63 9,21c4.37,7.12 8.37,14.45 12,22c5.3,6.97 11.8,12.47 19.5,16.5c12.59,14.34 19.92,31.01 22,50c-1.83,10.18 -6,19.35 -12.5,27.5c-6.61,7.28 -13.28,14.62 -20,22c-2.75,8.42 -4.08,17.09 -4,26c-1.07,2.72 -2.24,5.38 -3.5,8c-2.38,1.89 -5.05,2.39 -8,1.5c-13.26,-7.71 -21.09,-19.21 -23.5,-34.5c1.82,-17.55 2.99,-35.21 3.5,-53c0.39,-27.24 -1.78,-54.24 -6.5,-81c-0.81,-7.77 -3.64,-14.6 -8.5,-20.5c-6.19,-1.84 -8.69,0.32 -7.5,6.5c1.51,0.76 2.85,1.76 4,3c3.08,12.93 5.42,25.93 7,39c2.11,24.96 2.78,49.96 2,75c-2.31,11.53 -2.98,23.19 -2,35c2.76,9.51 6.59,18.51 11.5,27c-8.16,14 -18.66,26 -31.5,36c-1.78,5.69 0.05,8.03 5.5,7c8.45,-6.62 16.12,-14.12 23,-22.5c0.95,-0.48 1.95,-0.65 3,-0.5c0.33,6.37 0,12.7 -1,19c-8.86,2.43 -16.52,6.93 -23,13.5c-3.35,5.69 -6.35,11.52 -9,17.5z" fill="#393939" id="svg_214"/>
  </g>
  <g id="svg_215">
   <path d="m337.5,409.5c-6.63,0.95 -13.3,1.61 -20,2c-8.4,-1.35 -16.74,-3.01 -25,-5c-5.22,-2.78 -10.55,-5.28 -16,-7.5c-3.67,-6 -2,-8.67 5,-8c6.14,3.95 12.81,6.95 20,9c20.92,4.61 40.42,1.44 58.5,-9.5c1.23,0.14 2.39,0.48 3.5,1c1.27,2.19 1.27,4.36 0,6.5c-7.86,5.68 -16.53,9.51 -26,11.5z" fill="#080809" id="svg_216"/>
  </g>
  <g id="svg_217">
   <path d="m342.5,340.5c3.36,2.18 7.03,3.52 11,4c1.16,1.67 1.16,3.5 0,5.5c-1.82,3.15 -3.49,6.31 -5,9.5c-4.82,5.24 -10.49,9.24 -17,12c-7.33,1.33 -14.67,1.33 -22,0c-3.57,-0.29 -6.57,-1.63 -9,-4c9.49,2.69 19.16,3.52 29,2.5c4.45,-2.61 8.78,-5.44 13,-8.5c2.78,-4.11 5.11,-8.44 7,-13c-0.33,-1 -0.67,-2 -1,-3c-2.51,-1.23 -4.51,-2.89 -6,-5z" fill="#cd8f8e" id="svg_218"/>
  </g>
  <g id="svg_219">
   <path d="m313.5,329.5c-7.12,4.5 -14.29,9.16 -21.5,14c-2.1,0.79 -4.27,1.12 -6.5,1c1.38,10.05 6.38,17.71 15,23c2.43,2.37 5.43,3.71 9,4c0.42,0.72 1.08,1.22 2,1.5c6,0.67 12,0.67 18,0c0.92,-0.28 1.58,-0.78 2,-1.5c6.51,-2.76 12.18,-6.76 17,-12c-0.87,2.39 -2.37,4.39 -4.5,6c-0.81,1.94 -1.31,3.94 -1.5,6c-4.01,1.36 -8.01,2.7 -12,4c-9.11,-0.84 -18.11,-0.84 -27,0c0,-1.33 0,-2.67 0,-4c-4.22,1.12 -8.22,1.12 -12,0c-4.39,-3.55 -8.22,-7.55 -11.5,-12c-1.14,-3.74 -2.47,-7.41 -4,-11c-3.28,-1.28 -6.45,-2.61 -9.5,-4c3.6,0.84 7.27,1.18 11,1c0.11,4.64 1.11,4.97 3,1c-0.21,-0.59 -0.54,-1.09 -1,-1.5c4.35,-2.34 8.68,-4.68 13,-7c-1,-0.33 -2,-0.67 -3,-1c0.33,-0.33 0.67,-0.67 1,-1c2.4,-0.19 4.73,-0.69 7,-1.5c1.93,-2.84 4.43,-3.84 7.5,-3c2.64,-1.49 5.47,-2.16 8.5,-2z" fill="#170c0d" id="svg_220"/>
  </g>
  <g id="svg_221">
   <path d="m313.5,329.5c1,0 2,0 3,0c0,1.33 0,2.67 0,4c0.47,5.99 0.8,11.99 1,18c1,0 2,0 3,0c1.31,-5.24 1.98,-10.58 2,-16c0,-2 0,-4 0,-6c7.13,2.79 13.8,6.46 20,11c1.49,2.11 3.49,3.77 6,5c0.33,1 0.67,2 1,3c-1.89,4.56 -4.22,8.89 -7,13c-4.22,3.06 -8.55,5.89 -13,8.5c-9.84,1.02 -19.51,0.19 -29,-2.5c-8.62,-5.29 -13.62,-12.95 -15,-23c2.23,0.12 4.4,-0.21 6.5,-1c7.21,-4.84 14.38,-9.5 21.5,-14z" fill="#f28b8b" id="svg_222"/>
  </g>
  <g id="svg_223">
   <path d="m316.5,333.5c1.3,4.19 2.47,8.52 3.5,13c0.24,-3.93 1.07,-7.6 2.5,-11c-0.02,5.42 -0.69,10.76 -2,16c-1,0 -2,0 -3,0c-0.2,-6.01 -0.53,-12.01 -1,-18z" fill="#91575a" id="svg_224"/>
  </g>
  <g id="svg_225">
   <path d="m291.5,371.5c3.78,1.12 7.78,1.12 12,0c0,1.33 0,2.67 0,4c8.89,-0.84 17.89,-0.84 27,0c3.99,-1.3 7.99,-2.64 12,-4c0.19,-2.06 0.69,-4.06 1.5,-6c2.13,-1.61 3.63,-3.61 4.5,-6c1.51,-3.19 3.18,-6.35 5,-9.5c1.16,-2 1.16,-3.83 0,-5.5c-4.79,-2.77 -9.79,-5.27 -15,-7.5c-1.36,-1.94 -2.2,-4.11 -2.5,-6.5c-0.33,0.67 -0.67,1.33 -1,2c-1.53,-1.72 -2.53,-3.72 -3,-6c-2.13,1.28 -4.3,1.28 -6.5,0c-1.71,0.38 -2.71,1.38 -3,3c0,2 0,4 0,6c-1.43,3.4 -2.26,7.07 -2.5,11c-1.03,-4.48 -2.2,-8.81 -3.5,-13c0,-1.33 0,-2.67 0,-4c-1,0 -2,0 -3,0c-3.03,-0.16 -5.86,0.51 -8.5,2c-3.07,-0.84 -5.57,0.16 -7.5,3c-2.27,0.81 -4.6,1.31 -7,1.5c-0.33,0.33 -0.67,0.67 -1,1c1,0.33 2,0.67 3,1c-4.32,2.32 -8.65,4.66 -13,7c0.46,0.41 0.79,0.91 1,1.5c-1.89,3.97 -2.89,3.64 -3,-1c-3.73,0.18 -7.4,-0.16 -11,-1c-6.12,-2.28 -10.96,-6.28 -14.5,-12c-3.25,-4.83 -6.25,-9.83 -9,-15c-0.42,-5.88 2.08,-7.38 7.5,-4.5c3.76,8.43 9.09,15.76 16,22c6.05,4.3 12.38,4.63 19,1c9.33,-4.78 18.33,-10.11 27,-16c0.95,-0.48 1.95,-0.65 3,-0.5c0,-5.33 0,-10.67 0,-16c-4.28,-0.64 -8.28,-2.14 -12,-4.5c-3.17,-3.17 -6.33,-6.33 -9.5,-9.5c-1.58,-4.18 -3.92,-7.84 -7,-11c-2.43,-6.45 -3.1,-13.12 -2,-20c2.99,-2.74 2.82,-3.91 -0.5,-3.5c-2.97,1.76 -5.64,3.93 -8,6.5c-0.33,-0.33 -0.67,-0.67 -1,-1c9.93,-15.47 24.26,-22.8 43,-22c17.36,-0.99 31.86,5.01 43.5,18c1.19,1.54 1.52,3.21 1,5c-3.08,-2.45 -6.24,-4.79 -9.5,-7c2.95,17.28 -2.38,31.78 -16,43.5c-4.07,2.59 -8.4,4.43 -13,5.5c0,5.67 0,11.33 0,17c2.4,0.55 4.74,1.38 7,2.5c9.52,7.6 20.19,12.76 32,15.5c8.4,-2.91 15.24,-7.91 20.5,-15c0.98,-4.29 2.81,-8.12 5.5,-11.5c3.14,-0.95 5.64,-0.12 7.5,2.5c-0.41,3.45 -1.41,6.78 -3,10c-5.19,6.19 -10.69,12.02 -16.5,17.5c-4.4,2.27 -9.06,3.94 -14,5c-9.01,26.98 -27.68,38.31 -56,34c-3.92,-1.86 -7.92,-3.53 -12,-5c-1.88,-1.05 -3.22,-2.55 -4,-4.5z" fill="#040303" id="svg_226"/>
  </g>
  <g id="svg_227">
   <path d="m309.5,371.5c7.33,1.33 14.67,1.33 22,0c-0.42,0.72 -1.08,1.22 -2,1.5c-6,0.67 -12,0.67 -18,0c-0.92,-0.28 -1.58,-0.78 -2,-1.5z" fill="#72504e" id="svg_228"/>
  </g>
  <g id="svg_229">
   <path d="m353.5,344.5c-3.97,-0.48 -7.64,-1.82 -11,-4c-6.2,-4.54 -12.87,-8.21 -20,-11c0.29,-1.62 1.29,-2.62 3,-3c2.2,1.28 4.37,1.28 6.5,0c0.47,2.28 1.47,4.28 3,6c0.33,-0.67 0.67,-1.33 1,-2c0.3,2.39 1.14,4.56 2.5,6.5c5.21,2.23 10.21,4.73 15,7.5z" fill="#2a1415" id="svg_230"/>
  </g>
  <g id="svg_231">
   <path d="m377.5,194.5c18.91,-1.76 27.25,6.58 25,25c-7.06,12.67 -17.06,15.84 -30,9.5c-7.01,-7.29 -8.84,-15.79 -5.5,-25.5c2.52,-4.37 6.02,-7.37 10.5,-9z" fill="#060606" id="svg_232"/>
  </g>
  <g id="svg_233">
   <path d="m396.5,207.5c-0.13,-3.99 -1.96,-5.32 -5.5,-4c-0.49,1.63 -0.66,3.3 -0.5,5c1.67,0 3.33,0 5,0c-1.6,2.23 -3.6,2.56 -6,1c-1.33,-2.33 -1.33,-4.67 0,-7c1.79,-1.12 3.79,-1.29 6,-0.5c2.05,1.68 2.39,3.51 1,5.5z" fill="#bdbdbd" id="svg_234"/>
  </g>
  <g id="svg_235">
   <path d="m389.5,202.5c-1.33,2.33 -1.33,4.67 0,7c-1.45,-0.63 -2.11,-1.8 -2,-3.5c-0.11,-1.7 0.55,-2.87 2,-3.5z" fill="#636363" id="svg_236"/>
  </g>
  <g id="svg_237">
   <path d="m396.5,207.5c0,0.67 -0.33,1 -1,1c-1.67,0 -3.33,0 -5,0c-0.16,-1.7 0.01,-3.37 0.5,-5c3.54,-1.32 5.37,0.01 5.5,4z" fill="#f5f5f5" id="svg_238"/>
  </g>
  <g id="svg_239">
   <path d="m247.5,194.5c11.51,-2.45 20.35,1.22 26.5,11c1.33,6.78 0.33,13.12 -3,19c-10.94,10.86 -21.6,10.52 -32,-1c-2.95,-6.49 -3.28,-13.16 -1,-20c2.68,-3.58 5.85,-6.58 9.5,-9z" fill="#060606" id="svg_240"/>
  </g>
  <g id="svg_241">
   <path d="m260.5,201.5c6.66,-1.16 8.66,1.34 6,7.5c-6.37,1.12 -8.37,-1.38 -6,-7.5z" fill="#e5e5e5" id="svg_242"/>
  </g>
  <g id="svg_243">
   <path d="m376.5,95.5c-36.01,-2.8 -72.01,-2.63 -108,0.5c-5.28,1.87 -10.61,3.54 -16,5c-3.93,1.97 -7.6,4.3 -11,7c-5.95,2.58 -11.95,5.08 -18,7.5c0,1 0,2 0,3c-2,0 -4,0 -6,0c0,1.33 0,2.67 0,4c-1.7,-0.16 -3.37,0.01 -5,0.5c-6.23,3.95 -12.9,7.12 -20,9.5c-1.16,1.45 -2.66,2.45 -4.5,3c-0.49,1.29 -0.66,2.63 -0.5,4c-1.33,0 -2.67,0 -4,0c-2.2,5.26 -4.2,10.59 -6,16c-1.6,0.79 -2.27,2.12 -2,4c-1.32,-0.17 -2.49,0.16 -3.5,1c-0.01,2.76 -1.17,4.76 -3.5,6c0,-2.33 0,-4.67 0,-7c1.18,0.22 2.18,-0.11 3,-1c0.71,-4.48 3.04,-7.48 7,-9c-0.16,-2.36 0,-4.69 0.5,-7c1.87,-1.75 3.04,-3.91 3.5,-6.5c3.54,-1.93 6.87,-4.1 10,-6.5c2.32,-0.56 4.65,-1.06 7,-1.5c5.18,-2.78 10.51,-5.28 16,-7.5c1.76,-2.38 3.76,-4.55 6,-6.5c3.68,-0.47 5.01,-2.31 4,-5.5c-0.59,0.21 -1.09,0.54 -1.5,1c-0.67,-1.67 -0.67,-3.33 0,-5c1.36,1.2 2.86,2.2 4.5,3c6.47,-3.23 13.13,-5.9 20,-8c0.33,-0.33 0.67,-0.67 1,-1c-2.3,-0.69 -3.63,-1.69 -4,-3c8.16,-2.11 16.33,-3.78 24.5,-5c30.13,-0.03 60.3,0.14 90.5,0.5c4.69,0.5 9.36,1.17 14,2c0.88,0.71 1.55,1.54 2,2.5z" fill="#c60602" id="svg_244"/>
  </g>
  <g id="svg_245">
   <path d="m396.5,107.5c4.41,1.05 7.41,3.71 9,8c-15.12,-7.76 -31.12,-13.26 -48,-16.5c-25.67,-0.83 -51.34,-0.67 -77,0.5c-12.55,2.35 -24.55,6.18 -36,11.5c-1.63,0.49 -3.3,0.66 -5,0.5c2.76,-3.22 6.43,-5.06 11,-5.5c0.67,-0.67 1.33,-1.33 2,-2c8.4,-3.2 17.06,-5.2 26,-6c30.69,-0.93 61.36,-0.59 92,1c8.83,2.53 17.5,5.36 26,8.5z" fill="#620708" id="svg_246"/>
  </g>
  <g id="svg_247">
   <path d="m499.5,197.5c-2.51,-0.25 -4.85,-1.09 -7,-2.5c-1.49,-4.33 -4.49,-6.5 -9,-6.5c-1.38,-3.75 -2.88,-7.42 -4.5,-11c-5.7,-7.2 -9.86,-15.2 -12.5,-24c-1.4,-0.37 -2.4,-1.2 -3,-2.5c-1.33,-3.12 -2.33,-6.29 -3,-9.5c-1.05,0.15 -2.05,-0.02 -3,-0.5c-7.15,-8.84 -16.48,-13.51 -28,-14c-2.97,-2.8 -5.3,-5.97 -7,-9.5c-2.6,-0.05 -4.77,-1.05 -6.5,-3c-0.33,0.33 -0.67,0.67 -1,1c-2.17,-1.62 -4.67,-2.45 -7.5,-2.5c0.33,-0.33 0.67,-0.67 1,-1c-2.52,-0.52 -4.52,-1.85 -6,-4c-1.97,-0.5 -3.97,-0.66 -6,-0.5c0.09,-1 -0.25,-1.83 -1,-2.5c-6.01,-3.63 -12.34,-6.79 -19,-9.5c-0.45,-0.96 -1.12,-1.79 -2,-2.5c-4.64,-0.83 -9.31,-1.5 -14,-2c-30.2,-0.36 -60.37,-0.53 -90.5,-0.5c-8.17,1.22 -16.34,2.89 -24.5,5c0.53,-1.22 1.19,-2.39 2,-3.5c5.5,-0.9 10.83,-1.4 16,-1.5c0,-1 0,-2 0,-3c2.03,0.16 4.03,0 6,-0.5c-4.55,-1.43 -9.22,-2.43 -14,-3c2.65,-0.45 5.15,-1.29 7.5,-2.5c4.17,1.25 8.34,2.59 12.5,4c15.11,-1.27 30.28,-1.94 45.5,-2c13.83,0.17 27.67,0.33 41.5,0.5c4.93,3.38 10.27,4.72 16,4c0.67,1 1.33,2 2,3c3.67,0.33 7.33,0.67 11,1c0.67,1 1.33,2 2,3c7.36,0.17 14.69,0.67 22,1.5c-14.6,0.43 -14.6,2.1 0,5c0.27,2.32 -0.4,4.32 -2,6c0.31,0.81 0.81,1.47 1.5,2c2.47,-1.99 5.3,-2.49 8.5,-1.5c0.77,2.44 2.44,3.77 5,4c-1.28,1.3 -1.12,2.46 0.5,3.5c1.71,-0.81 2.54,-2.14 2.5,-4c1.05,-0.15 2.05,0.02 3,0.5c0,2.33 0,4.67 0,7c1.72,0.35 3.38,0.85 5,1.5c0.24,-2.82 0.24,-5.82 0,-9c2.48,-0.18 4.31,0.82 5.5,3c-0.04,3.14 0.8,6.14 2.5,9c2.69,-0.16 5.35,0 8,0.5c2.05,2.42 4.38,4.59 7,6.5c0.89,0.82 1.22,1.82 1,3c3.99,-0.06 5.65,1.94 5,6c1,0 2,0 3,0c0,1.33 0,2.67 0,4c2.1,-0.3 4.1,0.03 6,1c-0.93,3.59 -1.26,7.26 -1,11c1,0 2,0 3,0c-0.31,2.75 0.02,5.41 1,8c1.82,-0.93 3.15,-0.26 4,2c-0.63,1.76 -1.63,3.26 -3,4.5c3.09,1.34 4.09,3.5 3,6.5c0.6,1.29 1.1,2.63 1.5,4c1.92,-2.59 4.09,-3.09 6.5,-1.5c-1,0.83 -2,1.67 -3,2.5c0.56,2.35 1.23,4.69 2,7c1,1.33 2,1.33 3,0c0.89,0.82 1.22,1.82 1,3c2.1,-0.3 4.1,0.03 6,1c-0.82,0.89 -1.82,1.22 -3,1c-0.07,1.46 0.27,2.79 1,4z" fill="#d30601" id="svg_248"/>
  </g>
  <g id="svg_249">
   <path d="m376.5,95.5c6.66,2.71 12.99,5.87 19,9.5c0.75,0.67 1.09,1.5 1,2.5c-8.5,-3.14 -17.17,-5.97 -26,-8.5c-30.64,-1.59 -61.31,-1.93 -92,-1c-8.94,0.8 -17.6,2.8 -26,6c-0.67,0.67 -1.33,1.33 -2,2c-4.57,0.44 -8.24,2.28 -11,5.5c-1.76,-0.14 -3.43,0.19 -5,1c-3.96,2.79 -7.63,5.79 -11,9c-4.08,1.52 -7.75,3.69 -11,6.5c-6.48,1.54 -12.81,3.54 -19,6c-1.32,0.82 -1.99,1.98 -2,3.5c-1.33,0.67 -2.67,1.33 -4,2c-0.16,-1.37 0.01,-2.71 0.5,-4c1.84,-0.55 3.34,-1.55 4.5,-3c7.1,-2.38 13.77,-5.55 20,-9.5c1.63,-0.49 3.3,-0.66 5,-0.5c0,-1.33 0,-2.67 0,-4c2,0 4,0 6,0c0,-1 0,-2 0,-3c6.05,-2.42 12.05,-4.92 18,-7.5c3.4,-2.7 7.07,-5.03 11,-7c5.39,-1.46 10.72,-3.13 16,-5c35.99,-3.13 71.99,-3.3 108,-0.5z" fill="#9f0402" id="svg_250"/>
  </g>
  <g id="svg_251">
   <path d="m226.5,610.5c4.66,0.56 9,1.89 13,4c-4.66,-0.56 -9,-1.89 -13,-4z" fill="#c94842" id="svg_252"/>
  </g>
  <g id="svg_253">
   <path d="m247.5,616.5c11.31,1.76 22.65,3.6 34,5.5c0.92,0.28 1.58,0.78 2,1.5c-12.37,-1.07 -24.37,-3.41 -36,-7z" fill="#ca463b" id="svg_254"/>
  </g>
 </g>
</svg>