<?xml version="1.0" encoding="UTF-8"?>
<!DOCTYPE svg PUBLIC "-//W3C//DTD SVG 1.0//EN" "http://www.w3.org/TR/2001/REC-SVG-20010904/DTD/svg10.dtd">
<!-- Creator: CorelDRAW -->
<svg xmlns="http://www.w3.org/2000/svg" xml:space="preserve" width="100%" height="100%" version="1.0" style="shape-rendering:geometricPrecision; text-rendering:geometricPrecision; image-rendering:optimizeQuality; fill-rule:evenodd; clip-rule:evenodd"
viewBox="0 0 8615.06 8669.86"
 xmlns:xlink="http://www.w3.org/1999/xlink"
 xmlns:xodm="http://www.corel.com/coreldraw/odm/2003">
 <defs>
  <style type="text/css">
   <![CDATA[
    .fil1 {fill:#000D31}
    .fil7 {fill:#015C95}
    .fil16 {fill:#0775A7}
    .fil15 {fill:#13A5BA}
    .fil10 {fill:#26C9D3}
    .fil8 {fill:#46EAE4}
    .fil14 {fill:#66F9E7}
    .fil13 {fill:#ABFEFE}
    .fil12 {fill:#C60147}
    .fil17 {fill:#D2F7F7}
    .fil9 {fill:#F9FBF9}
    .fil6 {fill:#FA2E2D}
    .fil11 {fill:#FAD808}
    .fil5 {fill:#FB034B}
    .fil18 {fill:#FB5747}
    .fil2 {fill:#FE500A}
    .fil3 {fill:#FF7100}
    .fil4 {fill:#FF9900}
    .fil0 {fill:#FFBE01}
   ]]>
  </style>
    <clipPath id="id0">
     <path d="M4307.53 0c2378.98,0 4307.53,1940.81 4307.53,4334.93 0,2394.12 -1928.55,4334.93 -4307.53,4334.93 -2378.98,0 -4307.53,-1940.81 -4307.53,-4334.93 0,-2394.12 1928.55,-4334.93 4307.53,-4334.93z"/>
    </clipPath>
 </defs>
 <g id="Layer_x0020_1">
  <metadata id="CorelCorpID_0Corel-Layer"/>
  <g id="_2184908268080">
   <g style="clip-path:url(#id0)">
    <image x="-27.4" y="0" width="8669.86" height="8669.86" xlink:href="1_Images\1_ImgID1.png"/>
   </g>
   <path class="fil0" d="M75.85 3522.57l31.74 0.13 0.75 67.39 69.58 0 -2.35 67.51 338.19 0.6 1.45 133.95 946.61 -0.03 0.26 -67.24c29.72,0 74.85,2.96 102.53,0.56 61.09,-5.31 12.03,-18.43 92.38,-18.23 70.7,0.17 141.41,0.5 212.15,0.5l0.57 84.23c7.61,-11.54 2.65,2.79 6.58,-17.79 8.58,-44.97 -6.65,-57.24 10.47,-116.04 20.31,-69.76 -3.64,-167.43 12.64,-267.59 6.48,-39.89 12.2,-222.1 2.71,-263.92l-10.47 -44.8c-1.98,-29.31 -0.44,-67.19 -0.55,-97.4 5.29,54.4 22.69,108.22 23.97,173.5l21.57 635.41 17.17 -673.09c13.43,20.5 0.7,8.61 5.6,29.46 9.62,40.94 -9.39,-21.32 3.77,15.43 9.13,25.49 -6.14,3.02 11.95,22.52 -0.35,-57.34 -10.51,-103.17 20.97,-135.1l-0.12 -3.35c17.69,-306.55 189.5,-522.76 355.8,-661.57 190.36,-158.9 450.71,-254.23 777.4,-248.22 -17.84,-35.41 -49.05,-58.96 -71.78,-102.03 -22.09,-41.87 -36.14,-92.56 -32.15,-149.69 24.11,-344.32 563.67,-252.13 778.96,-199.73 297.77,72.47 618.78,223.31 860.48,401.73 39.9,29.45 58.9,60.4 124.92,60.32 240.02,-0.29 480.17,-0.47 720.2,-1.1 272.28,-0.71 403.76,-8.45 633.62,87.69 303.47,126.91 595.77,426.26 618.1,834.48 4.18,9.31 18.49,1457.3 5.19,1535.33l6.16 0 1.75 -382.39c8.54,-55.91 17.17,-17.6 14.61,-91.81 -2.9,-84.1 7.36,-61.51 21.8,-74.53l1.71 227.65c-0.78,42.9 -9.33,40.72 17.85,44.15l1.1 -257c2.53,-1.89 6.54,-6.79 8.17,-4.43l39.03 -12.5 2.86 -330.65 813.13 0.06 0.27 67.21 886.41 0.43c-265.2,-2138.12 -2077.58,-3792.58 -4274.03,-3792.58 -2103.04,0 -3853.76,1516.8 -4231.68,3522.57z"/>
   <path class="fil1" d="M1995.97 3049.18c-11.35,227.41 -4.08,472.4 -4.04,701.55 0.09,631.77 -7.61,1312.2 0.73,1938.87 0.8,59.66 12.92,122.81 12.45,170.19 62.33,123.23 -3.63,217.01 275.82,527.29 132.21,146.8 330.07,233.46 522.05,281.79 228.2,57.44 513.23,36.17 767.95,36.46l1608.67 -0.77c508.87,-0.06 915.72,40.11 1287.03,-320.34 221.39,-214.91 253,-483.64 280.22,-523.2 -2.29,-42.84 13.47,-99.68 15.79,-154.33l1.87 -533.56c-0.23,-234.24 -0.29,-468.5 -0.59,-702.73 -0.3,-234.25 -0.17,-468.49 0.37,-702.74 0.51,-219.22 12.88,-482.37 -2.77,-696.6 -22.33,-408.22 -314.63,-707.57 -618.1,-834.48 -229.86,-96.14 -361.34,-88.4 -633.62,-87.69 -240.03,0.63 -480.18,0.81 -720.2,1.1 -66.02,0.08 -85.02,-30.87 -124.92,-60.32 -241.7,-178.42 -562.71,-329.26 -860.48,-401.73 -215.29,-52.4 -754.85,-144.59 -778.96,199.73 -3.99,57.13 10.06,107.82 32.15,149.69 22.73,43.07 53.94,66.62 71.78,102.03 -326.69,-6.01 -587.04,89.32 -777.4,248.22 -166.3,138.81 -338.11,355.02 -355.8,661.57z"/>
   <path class="fil2" d="M6746.85 5861.02c4.96,57.8 4.86,314.28 -10.73,363.83l-16.36 50.24c-6.31,29.7 -9.66,51.62 -17.02,74.94l-59.56 150.03c-0.97,1.72 -2.18,3.88 -3.21,5.55 -59.78,97.88 -130.48,198.09 -220.43,270.99 -1.4,1.14 -3.4,2.66 -4.78,3.83l-41.24 34.93c-48.07,28.15 -14.04,-8.57 -42.46,47 -30.08,1.81 -39.3,-1.37 -59.4,13.48 -27.39,20.23 -1.7,10.96 -16.8,27.82 -9.93,5.15 -13.4,-8.38 -55.55,17.88 -36.18,22.54 -232.06,83.89 -274.48,86.78 -53.47,3.65 -88.26,9.73 -138.2,6.43 -180.82,-11.94 -404.62,-1.21 -590.1,-1.07l-1778 0.25c-157.24,-0.01 -449.21,16.28 -590.81,-5.12 -68.91,-10.41 -69.7,-21.75 -109.83,-32.2 -23.78,-6.19 -39.78,-6.32 -62.1,-13.5 -30.18,-9.7 -27.5,-17.04 -50.6,-26.28 -23.93,-9.56 -28.24,-4.57 -52.53,-14.95l-55.17 -24.56c-41.53,-26.42 18.8,-1.8 -67.9,-40.6l-87.4 -72.92c-1.34,-1.21 -3.22,-2.86 -4.62,-4.04 -84.87,-71.38 -30.73,-29.9 -117.19,-120.64 -0.53,-0.56 -15.83,-17.31 -16.01,-17.53 -1.11,-1.34 -2.77,-3.2 -3.85,-4.58l-47.66 -61.48c-17.27,-22.27 -14.49,-33.34 -17.41,-64.67 -60.88,-26.09 -19.41,5.79 -46.76,-57.99 -23.33,-54.39 -41.58,-71.39 -55.93,-169.94 -2.52,-17.29 -3.04,-35.2 -5.89,-52.74 -6.67,-41.09 6.83,-30.93 -24.68,-42.9 0.98,46.05 0.4,87.25 11.8,136.23 10.35,44.51 -9.5,81.61 -10.85,134.96 -98.77,0 -163.14,8.86 -261.01,8.86l-5.26 12.63c-17.27,30.1 9.6,5.73 -15.53,18.31l-124.27 2.94 0.07 67.88 -132.71 0 -0.74 -67.7 -408.38 -0.31 0 68 -268.88 0.08 0.14 -67.65 -210.99 -0.55c744.6,1296.46 2137,2168.89 3731.95,2168.89 1805.61,0 3351.46,-1118.16 3991.86,-2703.83l-1288.24 0.13 -0.42 -135.06c-45.92,0 -83.81,-6.6 -119.85,5.13l-24.71 5.77c-5.2,-21.27 -7.14,-56.26 -13.72,-75.78 -7.1,-21.08 -1.93,19.97 -11.48,-33.52l-1.95 -187.08c-49.85,177.03 24.83,255.07 -33.83,286.6 -10.68,-14.1 -15.21,-11.19 -16.71,-57.74 -0.47,-14.43 0.76,-35.31 0.64,-51.07 -0.25,-31.03 -0.65,-62.15 -0.86,-93.12 -4.3,23.22 4.59,54.79 -5.57,83.89 -9.6,27.52 7.64,0.55 -13.64,21.34 10.63,-176.58 4.56,-391.73 1.28,-570.86 -2.5,-136.25 -24.56,-441.21 -3.62,-558.27 13.3,-78.03 -1.01,-1526.02 -5.19,-1535.33 15.65,214.23 3.28,477.38 2.77,696.6 -0.54,234.25 -0.67,468.49 -0.37,702.74 0.3,234.23 0.36,468.49 0.59,702.73l-1.87 533.56c-2.32,54.65 -18.08,111.49 -15.79,154.33z"/>
   <path class="fil3" d="M575.58 6500.97l210.99 0.55 -0.14 67.65 268.88 -0.08 0 -68 408.38 0.31 0.74 67.7 132.71 0 -0.07 -67.88 124.27 -2.94c25.13,-12.58 -1.74,11.79 15.53,-18.31l5.26 -12.63c97.87,0 162.24,-8.86 261.01,-8.86 1.35,-53.35 21.2,-90.45 10.85,-134.96 -11.4,-48.98 -10.82,-90.18 -11.8,-136.23l2.92 -327.5c0.47,-47.38 -11.65,-110.53 -12.45,-170.19 -8.34,-626.67 -0.64,-1307.1 -0.73,-1938.87 -0.04,-229.15 -7.31,-474.14 4.04,-701.55l0.12 3.35c0,227.01 -3.61,454.46 -7.85,681.27 -4.22,225.53 3.46,452.01 -2.19,677.33l-6.81 1016c0,40.34 -10.42,307.62 8.38,321.77 0,-61.9 -4.42,-685.59 -20.6,-731.87 -0.72,-2.04 -1.97,-3.98 -2.7,-5.96 -16.66,-44.85 -9.42,-73.04 -10.52,-132.38 -19.74,38.65 -8.47,210.36 -8.47,268.83l-17.77 -270.3c-158.18,4.59 -84.67,-18.32 -279.21,-16.09 -67.73,0.78 -25.82,9.7 -75.57,17.25l-1466.14 -0.32 -0.26 -42.12c-35.15,0 -32.59,-2.4 -59.26,-8.26 -5.49,-25.58 -8,-25.38 -8.68,-59.05l-17.06 -0.21c61.82,626.32 256.05,1213.42 554.2,1732.55z"/>
   <path class="fil4" d="M21.38 4768.42l17.06 0.21c0.68,33.67 3.19,33.47 8.68,59.05 26.67,5.86 24.11,8.26 59.26,8.26l0.26 42.12 1466.14 0.32c49.75,-7.55 7.84,-16.47 75.57,-17.25 194.54,-2.23 121.03,20.68 279.21,16.09l17.77 270.3c0,-58.47 -11.27,-230.18 8.47,-268.83 1.1,59.34 -6.14,87.53 10.52,132.38 0.73,1.98 1.98,3.92 2.7,5.96 16.18,46.28 20.6,669.97 20.6,731.87 -18.8,-14.15 -8.38,-281.43 -8.38,-321.77l6.81 -1016c5.65,-225.32 -2.03,-451.8 2.19,-677.33 4.24,-226.81 7.85,-454.26 7.85,-681.27 -31.48,31.93 -21.32,77.76 -20.97,135.1 -18.09,-19.5 -2.82,2.97 -11.95,-22.52 -13.16,-36.75 5.85,25.51 -3.77,-15.43 -4.9,-20.85 7.83,-8.96 -5.6,-29.46l-17.17 673.09 -21.57 -635.41c-1.28,-65.28 -18.68,-119.1 -23.97,-173.5 0.11,30.21 -1.43,68.09 0.55,97.4l10.47 44.8c9.49,41.82 3.77,224.03 -2.71,263.92 -16.28,100.16 7.67,197.83 -12.64,267.59 -17.12,58.8 -1.89,71.07 -10.47,116.04 -3.93,20.58 1.03,6.25 -6.58,17.79l-0.57 -84.23c-70.74,0 -141.45,-0.33 -212.15,-0.5 -80.35,-0.2 -31.29,12.92 -92.38,18.23 -27.68,2.4 -72.81,-0.56 -102.53,-0.56l-0.26 67.24 -946.61 0.03 -1.45 -133.95 -338.19 -0.6 2.35 -67.51 -69.58 0 -0.75 -67.39 -31.74 -0.13c-49.58,263.18 -75.85,534.66 -75.85,812.36 0,146.31 7.31,290.9 21.38,433.49z"/>
   <path class="fil4" d="M6772.87 4606.39l4.48 252.65c15.52,104.62 9.02,30.51 9.86,154.49 12.96,-17.84 9.87,-51.64 15.67,-67.74l15.28 -229.87c0.29,-26.24 -9.16,-96.69 12.43,-103.63l16.23 267.54 1734.43 0.13c22.25,-178.53 33.81,-360.42 33.81,-545.03 0,-183.69 -11.46,-364.67 -33.5,-542.35l-886.41 -0.43 -0.27 -67.21 -813.13 -0.06 -2.86 330.65 -39.03 12.5c-1.63,-2.36 -5.64,2.54 -8.17,4.43l-1.1 257c-27.18,-3.43 -18.63,-1.25 -17.85,-44.15l-1.71 -227.65c-14.44,13.02 -24.7,-9.57 -21.8,74.53 2.56,74.21 -6.07,35.9 -14.61,91.81l-1.75 382.39z"/>
   <path class="fil3" d="M8581.25 4879.96l-1734.43 -0.13 -16.23 -267.54c-21.59,6.94 -12.14,77.39 -12.43,103.63l-15.28 229.87c-5.8,16.1 -2.71,49.9 -15.67,67.74 -0.84,-123.98 5.66,-49.87 -9.86,-154.49l-4.48 -252.65 -6.16 0c-20.94,117.06 1.12,422.02 3.62,558.27 3.28,179.13 9.35,394.28 -1.28,570.86 21.28,-20.79 4.04,6.18 13.64,-21.34 10.16,-29.1 1.27,-60.67 5.57,-83.89 0.21,30.97 0.61,62.09 0.86,93.12 0.12,15.76 -1.11,36.64 -0.64,51.07 1.5,46.55 6.03,43.64 16.71,57.74 58.66,-31.53 -16.02,-109.57 33.83,-286.6l1.95 187.08c9.55,53.49 4.38,12.44 11.48,33.52 6.58,19.52 8.52,54.51 13.72,75.78l24.71 -5.77c36.04,-11.73 73.93,-5.13 119.85,-5.13l0.42 135.06 1288.24 -0.13c138.3,-342.43 234.55,-706.56 281.86,-1086.07z"/>
   <path class="fil4" d="M2929.46 5143.03c-34.23,16.1 -23.55,36.27 -46.07,45.3 -1.17,0.46 -3.6,1.34 -4.94,1.74l-117.18 -2.34c-15.92,-4.07 10.52,1.41 -12.05,-5.65l-7.37 -2.13c-33.14,0.45 -9.4,11.09 -8.8,11.15l-4 -27.24 -313.79 697.79c-15.91,44.24 -31.39,53.16 -46.55,99.66 2.37,-1.62 5.26,-7.56 6.39,-5.78 1.08,1.69 4.62,-4.21 6.05,-5.62 36.92,-36.3 8.02,-21.13 106.34,-35.38 42.48,-6.15 94.37,-18.58 137.64,-28.07 146.2,-32.06 780.54,-148.05 857.33,-109.01l104.5 140.2c29.12,15.54 45.83,-81.7 62.05,-133.3 17.57,-55.88 32.2,-107.2 48.37,-163.07 31.09,-107.51 57.06,-230.9 92.74,-327.77 11.85,-67.09 25.31,-106.92 39.24,-166.59 289.3,-63.91 659.25,-58.91 956.88,-7.53l42.95 177.77c31.67,109.84 57.98,212.81 90.13,321.92l83.2 272.7c13.33,35.85 1.52,23.57 25.2,35.06 33.72,-27.14 87.17,-106.65 108.81,-145.47 122.35,-26.83 811.62,81.09 999.99,130.23 45,11.74 77.47,7.31 112.74,31.83l10.89 8.59 -122.95 -238.42c-20.35,-45.72 -39.01,-80.01 -58.85,-118.47 -10.42,-20.2 -17.29,-48.34 -27.01,-68.85 -8.84,-18.65 -17.27,-32.02 -27.51,-57.65l-56.02 -120.84c-15.61,-39.13 -37.27,-79.6 -54.77,-123.17l-58.4 -117.22c-44.46,-69.38 -24.98,-59.42 -36.37,-98.2l-17.16 -30.4c1.87,56.92 -22.36,54.45 -62.57,84.35 -25.54,18.99 -67.22,40.51 -96.79,49.63 -241.12,74.33 -438.31,-80.26 -548.21,-225.31l-40.9 -37.1c31.33,118.57 116.17,226.7 192.84,281.42 41.86,29.88 29.25,9.96 79.1,34.23 1.75,0.85 3.7,2.25 5.51,3.09 20.55,9.59 1.69,2.41 26.36,9.74l60.34 23.01c97.9,23.03 187.16,-60.17 230.77,-4.69 27.64,35.17 6.35,38.96 40.66,96.02l9.34 17.19c3.69,7.12 5.07,10.02 10.87,22.03 7.85,16.25 13.2,27.82 21.15,46.95 25.84,62.19 77.05,169.57 71.29,229.9 -39.94,-0.58 -125.94,-3.23 -163.73,-10.51l-224.13 -108.54c-1.35,-1.06 -3.13,-2.78 -4.45,-3.84 -30.05,-23.94 -63.54,-35.47 -101.03,-78.02l-136.3 -195.32c-0.94,-1.58 -2.33,-3.61 -3.28,-5.17l-23.28 -45.18c-31.24,-99.33 -24.45,-41.16 -49.46,-95.56l-25.65 -47.25 -89.08 -18.87c-1.35,-1.11 -3.19,-2.87 -4.7,-3.8l-40.86 -6.62c-21.31,-1.84 -41.14,-3.61 -67.81,-10.15 -96.3,-23.63 -96.2,-6.8 -143.04,-18.42 -2.27,-0.56 -4.31,-1.47 -6.46,-2.08l-17.82 -5.89c-2.02,-0.45 -4.22,-0.93 -6.33,-1.3 -102.75,-18.05 -472.66,-11.63 -572.32,-10.47 -80.28,0.94 -160.32,5.07 -237.37,21.85l-45.43 5.89c-49.55,5.42 -90.18,12.62 -141.43,20.51l-248.73 61.98c-27.8,8.38 -41.82,5.6 -68.59,10.99l-16.96 5.55c-1.57,0.67 -3.65,1.94 -5.2,2.69 -77.04,37.06 -84.6,29.87 -147.49,55.91 -15.03,6.22 -36.48,13.38 -56.33,21 -17.52,6.73 -49.55,16.77 -53.8,19.8 -19.18,13.66 -3.74,14.82 -52.58,34.36 -61.42,24.57 -86.73,66.67 -170,71.89 5.81,-37.64 11.14,-42.67 27.29,-70.89 14.13,-24.69 18.06,-32.9 24.94,-60.77z"/>
   <path class="fil5" d="M3019.85 2483.33c-48.92,1.36 -158.48,62.28 -185.17,88.62 51.34,-10.93 -13.75,3.67 41.91,3.9 22.88,0.1 33.04,-5.4 51.9,-9.7 187.9,-42.81 350.2,86.93 480.95,88.1 40.32,0.36 80.49,3.65 119.23,3.3 43.42,-0.4 72.56,-7.75 104.55,17.91 -12.27,63.6 -52.3,38.14 -53.87,67.6 -16.1,17.25 -37.25,34.5 -54.26,48.28l-146.66 140.14c-17.74,19.89 -24.07,30.22 -43.64,49.39 -46.07,45.12 -44.32,35.54 -93.54,92.79 -18.5,21.51 -23.09,33.54 -45.29,58.34 20.6,41.99 -2.35,-0.21 -1.14,48.59 0.5,20.04 5.18,41.49 4.6,68.66l67.69 0.27c2.87,105.45 -46.21,178.72 -3.92,217.13 12.78,11.61 112.1,31.96 174.75,15.34 40.11,-10.64 67.14,-9.27 108.61,22.29 13.19,10.04 0.94,1.53 13.35,12.02 1.05,0.89 18.06,13.96 18.53,14.3 -1.85,1.78 -15.16,15.39 -16.66,16.34 -10.68,6.78 9.16,4.87 -23.96,9.63 26.75,16.82 34,-1.11 41.16,36.52 0.12,0.64 -0.3,3.09 0.43,4.35 45.91,-30.82 -9.75,-23.7 33.86,-39.29 36.3,12.41 -6.46,16 37.66,10.48l36.53 -13.61c1.76,-0.9 3.8,-2.18 5.53,-3.09 31.28,-16.45 71.06,-27.36 114.37,-26.48 38.69,-4.16 33.44,-7.35 60.82,-18.57 21.7,-8.9 35.92,-9.34 60.67,-16.57 106.44,-31.09 264.08,-80.81 370.22,-85.7l11.78 27.03c10.48,-22.12 15.12,-50.94 25.55,-75.33 11,-25.72 19.84,-46.92 29.49,-69.53 -46.96,-6.76 -280.01,-60.39 -313.77,-77.92 0.27,-56.56 142.37,-296.88 179.22,-360.24 57.28,-11.16 132.03,42.08 175.16,66.3 219.1,123.04 401.2,218.95 628.12,353.88 284.5,169.18 249.61,4.7 404.17,-71.66 32.19,-15.9 59.94,-17.69 88.07,-41.52 -10.01,-31.5 -50.47,-57.12 -73.73,-76.34 -37.67,-31.13 -42.91,-35.97 -73.75,-78.98 -231.4,-322.76 -561.13,-494.48 -966.64,-558.25 -101.67,-15.99 -475.32,-43.36 -573.69,-32.25l-74.95 2.55 3.76 62.98c-211.63,38.8 -348.71,51.06 -569.87,30.06 -75.71,-7.19 -106.18,-29.93 -178.13,-22.06z"/>
   <path class="fil6" d="M2002.19 6187.29c31.51,11.97 18.01,1.81 24.68,42.9 2.85,17.54 3.37,35.45 5.89,52.74 14.35,98.55 32.6,115.55 55.93,169.94 27.35,63.78 -14.12,31.9 46.76,57.99 2.92,31.33 0.14,42.4 17.41,64.67l47.66 61.48c1.08,1.38 2.74,3.24 3.85,4.58 0.18,0.22 15.48,16.97 16.01,17.53 86.46,90.74 32.32,49.26 117.19,120.64 1.4,1.18 3.28,2.83 4.62,4.04l87.4 72.92c86.7,38.8 26.37,14.18 67.9,40.6l55.17 24.56c24.29,10.38 28.6,5.39 52.53,14.95 23.1,9.24 20.42,16.58 50.6,26.28 22.32,7.18 38.32,7.31 62.1,13.5 40.13,10.45 40.92,21.79 109.83,32.2 141.6,21.4 433.57,5.11 590.81,5.12l1778 -0.25c185.48,-0.14 409.28,-10.87 590.1,1.07 49.94,3.3 84.73,-2.78 138.2,-6.43 42.42,-2.89 238.3,-64.24 274.48,-86.78 42.15,-26.26 45.62,-12.73 55.55,-17.88 15.1,-16.86 -10.59,-7.59 16.8,-27.82 20.1,-14.85 29.32,-11.67 59.4,-13.48 28.42,-55.57 -5.61,-18.85 42.46,-47l41.24 -34.93c1.38,-1.17 3.38,-2.69 4.78,-3.83 89.95,-72.9 160.65,-173.11 220.43,-270.99 1.03,-1.67 2.24,-3.83 3.21,-5.55l59.56 -150.03c7.36,-23.32 10.71,-45.24 17.02,-74.94l16.36 -50.24c15.59,-49.55 15.69,-306.03 10.73,-363.83 -27.22,39.56 -58.83,308.29 -280.22,523.2 -371.31,360.45 -778.16,320.28 -1287.03,320.34l-1608.67 0.77c-254.72,-0.29 -539.75,20.98 -767.95,-36.46 -191.98,-48.33 -389.84,-134.99 -522.05,-281.79 -279.45,-310.28 -213.49,-404.06 -275.82,-527.29l-2.92 327.5z"/>
   <path class="fil0" d="M2929.46 5143.03c-6.88,27.87 -10.81,36.08 -24.94,60.77 -16.15,28.22 -21.48,33.25 -27.29,70.89 83.27,-5.22 108.58,-47.32 170,-71.89 48.84,-19.54 33.4,-20.7 52.58,-34.36 4.25,-3.03 36.28,-13.07 53.8,-19.8 19.85,-7.62 41.3,-14.78 56.33,-21 62.89,-26.04 70.45,-18.85 147.49,-55.91 1.55,-0.75 3.63,-2.02 5.2,-2.69l16.96 -5.55c26.77,-5.39 40.79,-2.61 68.59,-10.99l248.73 -61.98c51.25,-7.89 91.88,-15.09 141.43,-20.51l45.43 -5.89c77.05,-16.78 157.09,-20.91 237.37,-21.85 99.66,-1.16 469.57,-7.58 572.32,10.47 2.11,0.37 4.31,0.85 6.33,1.3l17.82 5.89c2.15,0.61 4.19,1.52 6.46,2.08 46.84,11.62 46.74,-5.21 143.04,18.42 26.67,6.54 46.5,8.31 67.81,10.15l40.86 6.62c1.51,0.93 3.35,2.69 4.7,3.8l89.08 18.87 25.65 47.25c25.01,54.4 18.22,-3.77 49.46,95.56l23.28 45.18c0.95,1.56 2.34,3.59 3.28,5.17l136.3 195.32c37.49,42.55 70.98,54.08 101.03,78.02 1.32,1.06 3.1,2.78 4.45,3.84l224.13 108.54c37.79,7.28 123.79,9.93 163.73,10.51 5.76,-60.33 -45.45,-167.71 -71.29,-229.9 -7.95,-19.13 -13.3,-30.7 -21.15,-46.95 -5.8,-12.01 -7.18,-14.91 -10.87,-22.03l-9.34 -17.19c-34.31,-57.06 -13.02,-60.85 -40.66,-96.02 -43.61,-55.48 -132.87,27.72 -230.77,4.69l-60.34 -23.01c-24.67,-7.33 -5.81,-0.15 -26.36,-9.74 -1.81,-0.84 -3.76,-2.24 -5.51,-3.09 -49.85,-24.27 -37.24,-4.35 -79.1,-34.23 -76.67,-54.72 -161.51,-162.85 -192.84,-281.42 1.23,-36.09 -25.61,-83.48 -27.08,-143.61 -11.85,-47.06 -39.6,-91.33 -53.36,-147.76 -14.73,-60.37 -22.12,-115.28 -23.41,-181.73 -2.47,-127.77 10.95,-254.18 36.98,-370.93 -49.03,9.76 -84.42,30.64 -142.12,41.56 -50.86,9.64 -127.92,12.55 -179.54,5.98 -56.3,-7.17 -96.69,-19.72 -139.71,-46.01 -45.63,-27.88 -64.54,-62.76 -107.72,-81.99 18.56,94.11 64.31,221.8 90.57,318.72 20.1,74.22 79.16,253.48 77.56,324.66 30.87,3.44 37.34,10.32 59.72,20.87l46.06 24.2c-1.79,46.86 -5.25,57 -52.02,59.73l-762.84 7.53c-25.11,-27.61 -28.59,-31.19 -26.92,-75.95 17.59,-6 95.69,-29.21 105.39,-37.58 27.9,-131.18 70.79,-270.81 105.64,-396.06 20.23,-72.69 36.88,-134.74 56.24,-207.07 17.23,-64.36 45.08,-137.54 57.89,-198.83 -8.64,-25.27 9.39,-2.96 -13.49,-19.05 -13.83,20.93 -26.52,24.28 -62.17,75.44l-22.4 25.78c-1.32,1.22 -3.38,2.7 -4.73,3.93 -1.38,1.25 -3.43,2.76 -4.81,4.05l-20.4 22.37c-38.92,42.68 -125.43,92.21 -175.1,121.36 19.99,20.85 -9.11,10.31 38.35,19.71l119.5 0.19c-0.15,27.09 2.8,20.42 -7.11,39.27 -32.65,62.14 -29.34,71.91 -64.99,81.98 -120.15,33.96 -123.9,13.29 -250.04,74.67 -69.2,33.67 -127.31,46.4 -211.39,100.86 -1.48,0.95 -3.44,2.45 -4.94,3.39l-60.64 34.05c-24.39,17.17 -40.11,26.11 -60.25,39.4 -117.43,77.48 -140.7,120.54 -220.82,195.63 -26.97,25.27 -73.67,79.62 -85.12,118.5 68.82,-19.31 435.66,-280.97 765.38,-266.18 -19.83,37.13 -80.38,46.99 -125.41,67.27 -206.99,93.24 -302.83,183.4 -410.51,234.96l-92.39 58.98c-85.24,66.89 -243.77,240.59 -255.97,336.9l-15.06 3.47z"/>
   <path class="fil3" d="M3049.98 4317.84c-15.24,16.13 -109.07,279.81 -121.18,313.85 -13.86,38.95 -29.17,70.26 -43.36,108.25 -24.02,64.3 -157.27,383.74 -156.39,423.92l4 27.24c-0.6,-0.06 -24.34,-10.7 8.8,-11.15l7.37 2.13c22.57,7.06 -3.87,1.58 12.05,5.65l117.18 2.34c1.34,-0.4 3.77,-1.28 4.94,-1.74 22.52,-9.03 11.84,-29.2 46.07,-45.3l15.06 -3.47c12.2,-96.31 170.73,-270.01 255.97,-336.9l92.39 -58.98c107.68,-51.56 203.52,-141.72 410.51,-234.96 45.03,-20.28 105.58,-30.14 125.41,-67.27 -329.72,-14.79 -696.56,246.87 -765.38,266.18 11.45,-38.88 58.15,-93.23 85.12,-118.5 80.12,-75.09 103.39,-118.15 220.82,-195.63 20.14,-13.29 35.86,-22.23 60.25,-39.4l60.64 -34.05c1.5,-0.94 3.46,-2.44 4.94,-3.39 84.08,-54.46 142.19,-67.19 211.39,-100.86 126.14,-61.38 129.89,-40.71 250.04,-74.67 35.65,-10.07 32.34,-19.84 64.99,-81.98 9.91,-18.85 6.96,-12.18 7.11,-39.27l-119.5 -0.19c-47.46,-9.4 -18.36,1.14 -38.35,-19.71 49.67,-29.15 136.18,-78.68 175.1,-121.36l20.4 -22.37c1.38,-1.29 3.43,-2.8 4.81,-4.05 1.35,-1.23 3.41,-2.71 4.73,-3.93l22.4 -25.78c35.65,-51.16 48.34,-54.51 62.17,-75.44 22.88,16.09 4.85,-6.22 13.49,19.05l56.93 -174.09 -12.91 -20.59c-3.68,1.96 -105.87,19.94 -127.45,23.28 -122.97,19.05 -231.16,79.72 -289.03,98.4 -17.25,5.57 -14.82,2.92 -30.1,11.14l-378.32 258.2c40.09,-2.36 75.35,-21.45 111.5,-31.32 36.55,-9.99 84.06,-20.86 125.53,-28.25 78.44,-13.98 205.47,-19.51 286.85,-13.66l-17.46 19.49c-23.22,21.76 -44.98,19.19 -89.06,39.77l-548.61 265.61c-22.14,13.62 -23.78,14.8 -54.42,27.45 -24.34,10.05 -126.5,72.82 -139.85,91.55 -26.33,-5.32 -13.14,11.18 -17.59,-15.24z"/>
   <path class="fil2" d="M3807.35 3525.45l-225.79 92.34c-38.87,13.63 -33.56,15.74 -66.87,33.71 -48.41,26.1 -90.45,48.22 -140,72.74 -24.93,12.34 -44.78,23.23 -67.68,34.52 -16.11,7.94 -19.78,9.49 -33.93,16.49 -18.64,9.21 -13.44,7.85 -30.38,15.13 -25.16,33.76 -79.15,211.13 -98.04,263.01 -20.93,57.47 -90.81,215.38 -94.68,264.45 4.45,26.42 -8.74,9.92 17.59,15.24 13.35,-18.73 115.51,-81.5 139.85,-91.55 30.64,-12.65 32.28,-13.83 54.42,-27.45l548.61 -265.61c44.08,-20.58 65.84,-18.01 89.06,-39.77l17.46 -19.49c-81.38,-5.85 -208.41,-0.32 -286.85,13.66 -41.47,7.39 -88.98,18.26 -125.53,28.25 -36.15,9.87 -71.41,28.96 -111.5,31.32l378.32 -258.2c15.28,-8.22 12.85,-5.57 30.1,-11.14 57.87,-18.68 166.06,-79.35 289.03,-98.4 21.58,-3.34 123.77,-21.32 127.45,-23.28l12.91 20.59c33.88,10.74 35.59,37.09 53.85,71.65 17.81,33.7 33.04,55.92 49.28,85.72l82.65 176.5c43.18,19.23 62.09,54.11 107.72,81.99 43.02,26.29 83.41,38.84 139.71,46.01 51.62,6.57 128.68,3.66 179.54,-5.98 57.7,-10.92 93.09,-31.8 142.12,-41.56l25.21 -124.96c-172.82,59.6 -321.73,101.62 -502.11,-19.1 -129.43,-86.63 -208.79,-205.4 -198.03,-430.64l-11.78 -27.03c-106.14,4.89 -263.78,54.61 -370.22,85.7 -24.75,7.23 -38.97,7.67 -60.67,16.57 -27.38,11.22 -22.13,14.41 -60.82,18.57z"/>
   <path class="fil7" d="M3923.73 6361.29l767.93 1.45c3.07,-65.38 -57.62,-306.14 -73.09,-391 -38.47,-211.08 14.41,-165 -311.04,-164.16 -273.72,0.71 -275.92,-31.81 -291.51,65.98 -4.87,30.5 -12.43,68.78 -18.53,97.99 -17.83,85.39 -73.99,314.77 -73.76,389.74z"/>
   <path class="fil1" d="M4173.97 3766.1c-12.81,61.29 -40.66,134.47 -57.89,198.83 -19.36,72.33 -36.01,134.38 -56.24,207.07 -34.85,125.25 -77.74,264.88 -105.64,396.06 246.06,-46.76 388.24,-21.52 630.61,1.2 1.6,-71.18 -57.46,-250.44 -77.56,-324.66 -26.26,-96.92 -72.01,-224.61 -90.57,-318.72l-82.65 -176.5c-16.24,-29.8 -31.47,-52.02 -49.28,-85.72 -18.26,-34.56 -19.97,-60.91 -53.85,-71.65l-56.93 174.09z"/>
   <path class="fil8" d="M2315.28 3796.53c0.09,0.07 23.3,2.04 11.36,57.63 0.11,-4.21 -0.13,-25.79 0.41,-27.97 11.13,-45.55 -3.5,-15.77 21.1,-40.36 4.43,24.71 -20.41,-5.12 8.86,10.32 20.41,10.77 -10.24,7 20.14,5.42 25.03,-28.61 75.3,-126.91 102.98,-167.93 37.78,-56 80.6,-117.43 118.22,-169.94 83.46,-116.54 172.49,-219.28 251.4,-322.79 -1.64,-1.39 -4.3,-2.57 -5.64,-3.13 -42.67,-17.86 -112.61,-9.65 -192.02,-47.45 5.34,-69.24 95.18,-121.12 117.1,-181 -112.96,-58.38 -160.38,-173 -149.56,-299.78 -139.74,44.6 -277.96,264.42 -298.64,447.17 -24.74,218.5 -0.4,511.16 -5.71,739.81z"/>
   <path class="fil9" d="M3220.58 1938.8c62.63,-157.83 319.37,-72.63 450.29,-37.85 161.95,33.92 413.43,142.81 544.16,215.52 104.25,57.98 374.97,214.94 431.41,313.29l-141.37 -31.92 -196.97 -17.39c-289.22,-5.75 -569.14,-39.12 -864.17,-38.75 -139.18,0.18 -281,4.62 -405.02,47.17 -106.64,36.59 -217.64,110.62 -246.94,210.04 12.96,4.28 -0.88,4.41 16.29,-7.99 18.25,-13.18 -0.19,-5.42 26.42,-18.97 26.69,-26.34 136.25,-87.26 185.17,-88.62 7.81,-6.66 3.77,-4.92 17.06,-11.04 12.86,-5.93 6.43,-3.18 19.51,-7.07 16.72,-4.98 30.8,-7.16 46.81,-11.72 187.04,-53.28 593.73,-86.99 735.81,-43.7 98.37,-11.11 472.02,16.26 573.69,32.25 405.51,63.77 735.24,235.49 966.64,558.25 30.84,43.01 36.08,47.85 73.75,78.98 23.26,19.22 63.72,44.84 73.73,76.34 32.67,5.09 8.17,3.29 17.66,-6.02 -57.56,-128.32 -113.26,-215.85 -192.01,-300.07 -274.67,-293.78 -624.29,-374.57 -668.51,-431.84 -130.07,-168.41 -278.14,-293.67 -473.86,-398 -194.15,-103.5 -734.76,-343.34 -945.08,-208.87 -25.45,16.28 -46.4,35.15 -57.79,69.11 -6.05,18.02 -14.66,108.58 13.32,58.87z"/>
   <path class="fil8" d="M6069.32 3073.36c-32.83,-0.78 -51.29,-1.03 -79.63,-20.83 -14.5,-10.13 -31.86,-28.47 -48.21,-28.13 -22.69,0.47 -60.87,37.3 -101.5,-41.94l-47.12 4.4c0.94,16.32 10.81,58.5 16.95,78.12l28.81 76.13c0.34,1.02 0.91,3.42 1.24,4.36 11.9,33.27 -20.91,-23.15 4.68,11.23 19.67,26.44 83.81,23.65 64.01,56.91l157.5 124.94 134.51 153.42c70.18,103.44 145.59,264.13 151.85,422.1 -46.63,8.07 -136.48,32.62 -165.32,57.59l167.81 -40c2.69,-0.57 4.75,-0.93 7.45,-1.56 69.16,-16.02 35,-6.63 58.38,-40.76 1.48,17.77 2.21,35.43 4.17,52.7 0.16,1.32 4.27,29.46 4.33,29.76l3.99 15.55c0.73,2.65 1.89,5.66 2.53,7.83 0.65,2.19 1.53,5.35 2.69,7.87 -3.74,-147.95 3.72,-306.1 4.31,-455.52 0.59,-149.19 -5.72,-311.18 -1.4,-457.52 2.38,-55.29 -16.8,-137.63 -40.94,-175.11 -32.75,31.17 -25.76,36.27 -54.25,72.07 -20.71,26.03 -40.4,40.16 -68.31,58.59 -60.77,40.11 -126.19,19.23 -208.53,27.8z"/>
   <path class="fil10" d="M6187.09 3971.66c-68.75,20.9 -163.35,100.63 -198.68,139.21 -19.81,21.63 -144.76,160.61 -115.49,198.7 2.35,1.65 5.42,1.65 6.57,5.54l24.11 22.04c10.6,10.33 1.98,1.21 17.38,18.43 254.3,284.53 483.92,196.49 511.72,203.35l5.74 -555.88c-1.16,-2.52 -2.04,-5.68 -2.69,-7.87 -0.64,-2.17 -1.8,-5.18 -2.53,-7.83l-3.99 -15.55c-0.06,-0.3 -4.17,-28.44 -4.33,-29.76 -1.96,-17.27 -2.69,-34.93 -4.17,-52.7 -23.38,34.13 10.78,24.74 -58.38,40.76 -2.7,0.63 -4.76,0.99 -7.45,1.56l-167.81 40z"/>
   <path class="fil5" d="M3220.58 1938.8c-0.04,54.85 15.42,83 41.15,114.71 20.04,24.71 51.69,68.14 79.54,71.66l43.87 0.28c-9.73,-55.65 -13.09,-13.33 -37.25,-26.71l-51.45 -62.7c-1.02,-1.64 -2.2,-3.8 -3.15,-5.53 -6.53,-11.79 -30.85,-63.89 -18.69,-74.82 28.84,-10.28 3.69,-10.64 32.25,17.71 30.63,30.39 13.27,9.18 51.39,25.89l92.85 59.24c35.34,26.19 57.08,33.1 96.47,56.63l70.71 39.2c22.24,12.66 0.41,2.82 27.74,14.1 83.87,34.6 114.86,51.91 216.64,78.81 168.58,44.55 76.23,39.57 233.21,60.88l34.69 22.04c0.14,-0.86 8.07,28.99 -34.73,12.62 44.27,5.15 163.19,18.16 206.09,34.73 1.49,0.57 4.31,1.62 6.19,2.91l196.97 17.39c-14.71,-9.49 -28.23,-15.11 -46.6,-25.26 -25.54,-14.11 -23.82,-16.22 -55.61,-30.15l-685.24 -398.03c-31.14,-19.62 -33.99,-20.56 -46.75,-43.45 -130.92,-34.78 -387.66,-119.98 -450.29,37.85z"/>
   <path class="fil11" d="M2357.25 6009.4l11.46 -48.09c15.16,-46.5 30.64,-55.42 46.55,-99.66l313.79 -697.79c-0.88,-40.18 132.37,-359.62 156.39,-423.92 14.19,-37.99 29.5,-69.3 43.36,-108.25 12.11,-34.04 105.94,-297.72 121.18,-313.85 3.87,-49.07 73.75,-206.98 94.68,-264.45 18.89,-51.88 72.88,-229.25 98.04,-263.01l22.94 -106.73 -55.04 1.29c-261.75,665.02 -551.02,1457.56 -863.62,2076.17 -31.46,62.24 -128.24,230.06 -140.54,285.46l150.81 -37.17z"/>
   <path class="fil12" d="M2775.11 4062.37c30.34,-23.46 -3.26,7.94 14.67,-16.26 1.62,-2.18 12.61,-20.09 13.55,-21.86 8.62,-16.13 9.4,-22.11 18.42,-41.05 8.78,-18.45 28.39,-52.33 43.13,-74.78 61.36,-93.42 180.18,-283.3 316.6,-285.58 57.46,-0.96 59.47,7.4 82.34,43.22 -26.08,19.86 -28.31,5.61 -53.22,18.88l55.04 -1.29 -22.94 106.73c16.94,-7.28 11.74,-5.92 30.38,-15.13 14.15,-7 17.82,-8.55 33.93,-16.49 22.9,-11.29 42.75,-22.18 67.68,-34.52 49.55,-24.52 91.59,-46.64 140,-72.74 33.31,-17.97 28,-20.08 66.87,-33.71l225.79 -92.34c-43.31,-0.88 -83.09,10.03 -114.37,26.48 -1.73,0.91 -3.77,2.19 -5.53,3.09l-36.53 13.61c-44.12,5.52 -1.36,1.93 -37.66,-10.48 -43.61,15.59 12.05,8.47 -33.86,39.29 -0.73,-1.26 -0.31,-3.71 -0.43,-4.35 -7.16,-37.63 -14.41,-19.7 -41.16,-36.52 33.12,-4.76 13.28,-2.85 23.96,-9.63 1.5,-0.95 14.81,-14.56 16.66,-16.34 -0.47,-0.34 -17.48,-13.41 -18.53,-14.3 -12.41,-10.49 -0.16,-1.98 -13.35,-12.02 -41.47,-31.56 -68.5,-32.93 -108.61,-22.29 -62.65,16.62 -161.97,-3.73 -174.75,-15.34 -42.29,-38.41 6.79,-111.68 3.92,-217.13l-67.69 -0.27c0.58,-27.17 -4.1,-48.62 -4.6,-68.66 -1.21,-48.8 21.74,-6.6 1.14,-48.59 -36.77,73.12 -91.7,135.2 -136.56,209.08 -84.25,138.73 -219.85,420.53 -266.7,581.79 -19.93,68.63 -15.14,74.82 -17.59,139.5z"/>
   <path class="fil13" d="M6069.32 3073.36c82.34,-8.57 147.76,12.31 208.53,-27.8 27.91,-18.43 47.6,-32.56 68.31,-58.59 28.49,-35.8 21.5,-40.9 54.25,-72.07 -25.58,-98.83 -87.8,-171.28 -140.07,-227.54 -38.12,-41.04 -139.78,-131.76 -217.95,-146.44 -45.02,11.26 -108,58.9 -140.85,93.89 -72.17,76.87 -83.13,238.2 -54.95,287.7 24.77,43.53 95.42,78.15 135.57,101.35 53.26,30.77 66.12,22.89 87.16,49.5z"/>
   <path class="fil6" d="M3790.12 5293.51l1039.07 3.65 -42.95 -177.77c-297.63,-51.38 -667.58,-56.38 -956.88,7.53 -13.93,59.67 -27.39,99.5 -39.24,166.59z"/>
   <path class="fil14" d="M5908.55 3213.61c19.8,-33.26 -44.34,-30.47 -64.01,-56.91 -25.59,-34.38 7.22,22.04 -4.68,-11.23 -0.33,-0.94 -0.9,-3.34 -1.24,-4.36l-28.81 -76.13c-6.14,-19.62 -16.01,-61.8 -16.95,-78.12l47.12 -4.4c40.63,79.24 78.81,42.41 101.5,41.94 16.35,-0.34 33.71,18 48.21,28.13 28.34,19.8 46.8,20.05 79.63,20.83 -21.04,-26.61 -33.9,-18.73 -87.16,-49.5 -40.15,-23.2 -110.8,-57.82 -135.57,-101.35 -28.18,-49.5 -17.22,-210.83 54.95,-287.7 32.85,-34.99 95.83,-82.63 140.85,-93.89 -94.28,-88.61 -687.86,-81.76 -766.08,-65.77 59.56,47.9 102.02,57.85 191.16,140.99 426.92,398.15 262.33,572.84 441.08,597.47z"/>
   <path class="fil12" d="M2834.68 2571.95c-26.61,13.55 -8.17,5.79 -26.42,18.97 -17.17,12.4 -3.33,12.27 -16.29,7.99 -52.54,79.71 36.77,283.96 323.03,251.94 81.42,-9.11 282.75,-69.73 357.71,-105.35 24.47,-11.63 84.4,-34.33 114.96,-34.34l-27.47 17.82c24.47,-3.42 19.15,-9.38 19.15,14.08 1.57,-29.46 41.6,-4 53.87,-67.6 -31.99,-25.66 -61.13,-18.31 -104.55,-17.91 -38.74,0.35 -78.91,-2.94 -119.23,-3.3 -130.75,-1.17 -293.05,-130.91 -480.95,-88.1 -18.86,4.3 -29.02,9.8 -51.9,9.7 -55.66,-0.23 9.43,-14.83 -41.91,-3.9z"/>
   <path class="fil15" d="M6438.44 4003.05l-5.74 555.88c-27.8,-6.86 -257.42,81.18 -511.72,-203.35 -15.4,-17.22 -6.78,-8.1 -17.38,-18.43l-24.11 -22.04c-1.15,-3.89 -4.22,-3.89 -6.57,-5.54 15.01,66.6 219.07,534.49 247.18,558.8 103.64,-19.71 163.26,30.45 312.6,-61.1 0.02,-41.61 1.16,-83.6 2.11,-125.2 0.45,-19.98 0.3,-39.55 0.67,-59.31l12.16 -67.65c-2.19,-177.33 14.92,-1412.05 -6.29,-1465.1 -4.32,146.34 1.99,308.33 1.4,457.52 -0.59,149.42 -8.05,307.57 -4.31,455.52z"/>
   <path class="fil9" d="M4863.7 3522.09c-43.84,-27.89 -139.68,-39.13 -191.88,-34.32 -26.06,2.4 -66.41,9.53 -88.04,21.39 -70.56,38.7 -68.18,159.15 5.06,231.24 59.42,58.49 49.55,42.87 95.32,67.27 4.97,2.65 9.91,5.58 15.36,9.83l13.92 14.31c236.61,36.56 406.58,-151.13 406.42,-343.77l-8 -43.51 -25.38 -5.98 -13.43 38.69c-8.54,42.15 -20.19,82.09 -67.64,108.4 -68.02,37.71 -113.1,-15.2 -141.71,-63.55z"/>
   <path class="fil16" d="M6120.1 4868.37c12.88,63.65 47.91,118.66 75.64,178.06 23.73,50.81 214.08,476.04 245.39,504.71 14.39,-43.82 9.03,-881.13 6.51,-996.03l-12.16 67.65c-0.37,19.76 -0.22,39.33 -0.67,59.31 -0.95,41.6 -2.09,83.59 -2.11,125.2 -149.34,91.55 -208.96,41.39 -312.6,61.1z"/>
   <path class="fil2" d="M2368.71 5961.31l-11.46 48.09c85.81,-18.2 197.53,-26.97 290.87,-39.57 94.55,-12.77 197.27,-28.19 295.94,-32.68 216.54,-9.88 418.15,-26.48 642.9,-19.5l-104.5 -140.2c-76.79,-39.04 -711.13,76.95 -857.33,109.01 -43.27,9.49 -95.16,21.92 -137.64,28.07 -98.32,14.25 -69.42,-0.92 -106.34,35.38 -1.43,1.41 -4.97,7.31 -6.05,5.62 -1.13,-1.78 -4.02,4.16 -6.39,5.78z"/>
   <path class="fil4" d="M5214.09 3608.46c-32.85,37.62 -94.22,197.06 -89.73,257.02l-0.84 2.98c33.13,-34.55 53.98,-39.52 96.53,-61.98 68.91,-36.37 215.27,-73.74 292.33,-84.94 20.9,-3.04 53.26,-3.47 79.11,-6.89 97.74,4.75 241.52,-31.5 329.67,13.46 -42.02,39.08 -124.15,87.15 -173.17,125.39 -43.07,33.6 -128.39,115.92 -141.95,168.39 2.08,-0.25 134.91,-132.12 184.12,-160.46 65.21,-37.55 127.78,-61.82 201.88,-67.61 106.23,-8.3 74.72,-1.32 78.76,15.3l65.02 -13.41c-22.24,-13.96 -3.86,-1.89 -19.61,-17.05 -1.9,-1.83 -13.9,-14.55 -16.79,-17.18 -12.35,-11.19 -14.78,-14.2 -30.97,-20.34 -35.68,-11.27 -69.31,-26.28 -101.24,-41.26 -83.42,-39.14 -58.67,-21.86 -143.33,-51.44 -202.12,-70.61 -380.81,-99.72 -593.48,-20.66 -13.31,-10.31 -1.83,11.53 -16.31,-19.32z"/>
   <path class="fil2" d="M5027.72 5926.84c110.09,-24.31 523.93,-6.72 645.25,5.79 103.29,10.65 209.85,19.62 310.18,28.76 99.11,9.04 200.26,33.22 297.47,42.74 -7.28,-27.51 -9.6,-31.1 -20.47,-52.11l-10.89 -8.59c-35.27,-24.52 -67.74,-20.09 -112.74,-31.83 -188.37,-49.14 -877.64,-157.06 -999.99,-130.23 -21.64,38.82 -75.09,118.33 -108.81,145.47z"/>
   <path class="fil11" d="M5771.8 4890.58l29.31 88.22 17.16 30.4c11.39,38.78 -8.09,28.82 36.37,98.2l58.4 117.22c17.5,43.57 39.16,84.04 54.77,123.17l56.02 120.84c10.24,25.63 18.67,39 27.51,57.65 9.72,20.51 16.59,48.65 27.01,68.85 19.84,38.46 38.5,72.75 58.85,118.47l122.95 238.42c10.87,21.01 13.19,24.6 20.47,52.11l163.58 38.57c-127.43,-146.9 -520.01,-973.13 -633.56,-1220.94 -14.11,-30.8 -25.79,-63.6 -49,-81.12l10.16 149.94z"/>
   <path class="fil2" d="M5052.64 4850.37l40.9 37.1c109.9,145.05 307.09,299.64 548.21,225.31 29.57,-9.12 71.25,-30.64 96.79,-49.63 40.21,-29.9 64.44,-27.43 62.57,-84.35l-29.31 -88.22c-123.06,28.23 -253.29,105.56 -447.42,44.41 -104.95,-33.06 -170.88,-77.51 -238.2,-151.03l-60.62 -77.2c1.47,60.13 28.31,107.52 27.08,143.61z"/>
   <path class="fil0" d="M5467.25 4603.95l3.96 61.29c-77.96,-11.96 -190.05,-94.61 -234.78,-133.27 -62.47,-54.02 -129.51,-123.45 -177.28,-194.4l-5.79 28.16c29.86,41.49 40.45,93.86 85.82,153.27 32.34,42.36 77.09,86.14 123.57,122.73l139.87 104.25c32.32,17.05 147.29,66.16 182.22,62.7 -16.4,-111.09 -39.99,-164.86 -33.36,-296.13 9.47,-187.57 82.15,-343.75 193.11,-476.15 29.15,-34.78 130.47,-135.63 179.16,-153.09 -103.79,15.1 -276.18,183.7 -325.77,259.72 -78.45,120.24 -141.65,278.49 -130.73,460.92z"/>
   <path class="fil11" d="M5273.27 3522.26c-23.56,17.94 -47.39,52.44 -59.18,86.2 14.48,30.85 3,9.01 16.31,19.32 212.67,-79.06 391.36,-49.95 593.48,20.66 84.66,29.58 59.91,12.3 143.33,51.44 31.93,14.98 65.56,29.99 101.24,41.26l-146.53 -156.56c-120.1,-98.3 -274.62,-173.1 -436.9,-152.87 -41.47,5.17 -78.91,17.82 -117.41,33.96 -48.03,20.15 -59.13,44.17 -94.34,56.59z"/>
   <path class="fil17" d="M4713.44 3831.81l-13.92 -14.31c-5.45,-4.25 -10.39,-7.18 -15.36,-9.83 -45.77,-24.4 -35.9,-8.78 -95.32,-67.27 -73.24,-72.09 -75.62,-192.54 -5.06,-231.24 21.63,-11.86 61.98,-18.99 88.04,-21.39 52.2,-4.81 148.04,6.43 191.88,34.32l-4.46 -36.74c61.22,6.95 102.15,-4.78 87.95,-71.1 -24.32,-18.39 -411.25,-88.37 -470.33,-92.95 -76.61,74.71 -70.34,228.73 -19.13,329.74 40.28,79.47 135.43,159.67 255.71,180.77z"/>
   <path class="fil9" d="M3954.2 4568.06c-9.7,8.37 -87.8,31.58 -105.39,37.58 -1.67,44.76 1.81,48.34 26.92,75.95l762.84 -7.53c46.77,-2.73 50.23,-12.87 52.02,-59.73l-46.06 -24.2c-22.38,-10.55 -28.85,-17.43 -59.72,-20.87 -242.37,-22.72 -384.55,-47.96 -630.61,-1.2z"/>
   <path class="fil9" d="M5273.27 3522.26c35.21,-12.42 46.31,-36.44 94.34,-56.59 38.5,-16.14 75.94,-28.79 117.41,-33.96 162.28,-20.23 316.8,54.57 436.9,152.87l146.53 156.56c16.19,6.14 18.62,9.15 30.97,20.34 2.89,2.63 14.89,15.35 16.79,17.18 15.75,15.16 -2.63,3.09 19.61,17.05 -13.26,-211.52 -310.57,-582 -648.64,-448.59 -42.77,16.88 -96.75,50.23 -121.32,73.56 -24.87,23.62 -81.42,78.19 -92.59,101.58z"/>
   <path class="fil18" d="M2775.11 4062.37c2.45,-64.68 -2.34,-70.87 17.59,-139.5 46.85,-161.26 182.45,-443.06 266.7,-581.79 44.86,-73.88 99.79,-135.96 136.56,-209.08 22.2,-24.8 26.79,-36.83 45.29,-58.34 49.22,-57.25 47.47,-47.67 93.54,-92.79 19.57,-19.17 25.9,-29.5 43.64,-49.39l146.66 -140.14c17.01,-13.78 38.16,-31.03 54.26,-48.28 0,-23.46 5.32,-17.5 -19.15,-14.08 -57.74,40.36 -112.38,77.43 -163.06,119.13 -18.88,15.53 -22.81,18.19 -38.71,29.99 -27.44,20.35 -11.37,8.64 -33.61,33.48 -20.19,22.56 -52.1,47.67 -75.63,68.74 -200.31,179.32 -333.01,434.73 -419.56,697.28 -27.2,82.53 -91.55,379.37 -84.38,466.57 4.93,-26.93 23.98,-41.86 29.86,-81.8z"/>
   <path class="fil18" d="M4505.07 2397.84l141.37 31.92c-56.44,-98.35 -327.16,-255.31 -431.41,-313.29 -130.73,-72.71 -382.21,-181.6 -544.16,-215.52 12.76,22.89 15.61,23.83 46.75,43.45l685.24 398.03c31.79,13.93 30.07,16.04 55.61,30.15 18.37,10.15 31.89,15.77 46.6,25.26z"/>
   <path class="fil18" d="M5236.91 3171.64c-7.27,12.39 -0.63,21.36 -53.85,-33.9 -110.3,-114.52 -140.57,-179.92 -291.81,-283.88 -45.88,-31.54 -115.72,-51.02 -153.44,-85.6l81.15 0.71c-2.16,-1.54 -5.41,-6.1 -6.83,-4.04l-22.1 -9.21c-39.3,-8.97 -92.11,-3.99 -92.68,39.36 -0.46,34.3 59.19,86.9 99.91,127.48 61.97,61.76 185.22,194.46 258.65,249.03 73.63,54.72 86.11,53.01 197.16,51.79 1.89,-51.73 -9.62,-45.55 -16.16,-51.74z"/>
   <path class="fil12" d="M3341.27 2125.17c13.67,20.71 1.5,5.68 14.44,18.96l57.72 37c50.67,27.36 114.5,56.19 167.82,69.89 161.14,41.38 350.89,84.12 514.57,91.79 42.8,16.37 34.87,-13.48 34.73,-12.62l-34.69 -22.04c-156.98,-21.31 -64.63,-16.33 -233.21,-60.88 -101.78,-26.9 -132.77,-44.21 -216.64,-78.81 -27.33,-11.28 -5.5,-1.44 -27.74,-14.1l-70.71 -39.2c-39.39,-23.53 -61.13,-30.44 -96.47,-56.63l-92.85 -59.24c-38.12,-16.71 -20.76,4.5 -51.39,-25.89 -28.56,-28.35 -3.41,-27.99 -32.25,-17.71 -12.16,10.93 12.16,63.03 18.69,74.82 0.95,1.73 2.13,3.89 3.15,5.53l51.45 62.7c24.16,13.38 27.52,-28.94 37.25,26.71l-43.87 -0.28z"/>
   <path class="fil18" d="M3019.85 2483.33c71.95,-7.87 102.42,14.87 178.13,22.06 221.16,21 358.24,8.74 569.87,-30.06l-3.76 -62.98 74.95 -2.55c-142.08,-43.29 -548.77,-9.58 -735.81,43.7 -16.01,4.56 -30.09,6.74 -46.81,11.72 -13.08,3.89 -6.65,1.14 -19.51,7.07 -13.29,6.12 -9.25,4.38 -17.06,11.04z"/>
   <path class="fil10" d="M2314.71 4404.45c33.19,-14.29 24.33,-20.13 55.56,-63.29 1,-1.37 2.67,-4.02 4.36,-5.72 -3.13,-166.21 104.66,-409.13 143.94,-546.58l-109.93 26.06c-33.08,-0.23 -15.48,10.93 -31.49,-13.35 -30.38,1.58 0.27,5.35 -20.14,-5.42 -29.27,-15.44 -4.43,14.39 -8.86,-10.32 -24.6,24.59 -9.97,-5.19 -21.1,40.36 -0.54,2.18 -0.3,23.76 -0.41,27.97 11.94,-55.59 -11.27,-57.56 -11.36,-57.63l-0.57 607.92z"/>
   <path class="fil16" d="M2314.71 4404.45l2.07 837.65c33.11,-24.84 68.37,-126.99 88.7,-175.3 39.08,-92.88 15.89,-76.2 -10,-216.28 -29.88,-161.69 -36.37,-343.53 -20.85,-515.08 -1.69,1.7 -3.36,4.35 -4.36,5.72 -31.23,43.16 -22.37,49 -55.56,63.29z"/>
   <path class="fil2" d="M5606.04 4021.89c-99.2,69.92 -196.22,464.83 -138.79,582.06 -10.92,-182.43 52.28,-340.68 130.73,-460.92 49.59,-76.02 221.98,-244.62 325.77,-259.72 52.54,-34.65 94.43,-44.86 147.05,-74.19 -4.04,-16.62 27.47,-23.6 -78.76,-15.3 -74.1,5.79 -136.67,30.06 -201.88,67.61 -49.21,28.34 -182.04,160.21 -184.12,160.46z"/>
   <path class="fil2" d="M5584.84 4808.68c-34.93,3.46 -149.9,-45.65 -182.22,-62.7l-139.87 -104.25c-46.48,-36.59 -91.23,-80.37 -123.57,-122.73 -45.37,-59.41 -55.96,-111.78 -85.82,-153.27 -2.32,157.37 61.85,286.65 140.75,360.91 62.29,58.62 282.43,143.84 390.73,82.04z"/>
   <path class="fil16" d="M2849.75 3140.91c24.61,-23.99 45.62,-53.95 68.59,-76.6 20.42,-20.14 56.61,-48.47 72.35,-77.57 -95.64,-0.75 -167.46,-36.56 -221.5,-77.41 -21.92,59.88 -111.76,111.76 -117.1,181 79.41,37.8 149.35,29.59 192.02,47.45 1.34,0.56 4,1.74 5.64,3.13z"/>
   <path class="fil9" d="M5236.91 3171.64c-52.96,-98.48 -90.05,-178.92 -163.18,-246.39 -80.67,-74.43 -122.59,-118.22 -254.77,-156.28l-81.15 -0.71c37.72,34.58 107.56,54.06 153.44,85.6 151.24,103.96 181.51,169.36 291.81,283.88 53.22,55.26 46.58,46.29 53.85,33.9z"/>
   <path class="fil2" d="M5124.36 3865.48c-24.13,26.37 -20.68,97.62 -21.21,138.94 44.74,-30.07 159.51,-182.11 337.97,-245.68 39.08,-13.93 126.01,-26 150.37,-44.09 -25.85,3.42 -58.21,3.85 -79.11,6.89 -77.06,11.2 -223.42,48.57 -292.33,84.94 -42.55,22.46 -63.4,27.43 -96.53,61.98l0.84 -2.98z"/>
  </g>
 </g>
</svg>
