<svg width="100" height="100" viewBox="0 0 100 100" fill="none" xmlns="http://www.w3.org/2000/svg">
<g clip-path="url(#clip0_1124_13484)">
<path d="M50 100C77.6142 100 100 77.6142 100 50C100 22.3858 77.6142 0 50 0C22.3858 0 0 22.3858 0 50C0 77.6142 22.3858 100 50 100Z" fill="white"/>
<path d="M50 2.53333C76.1714 2.53333 97.4667 23.8286 97.4667 50C97.4667 76.1714 76.1714 97.4667 50 97.4667C23.8286 97.4667 2.53333 76.1714 2.53333 50C2.53333 23.8286 23.8286 2.53333 50 2.53333ZM50 0C22.3857 0 0 22.3857 0 50C0 77.6143 22.3857 100 50 100C77.6143 100 100 77.6143 100 50C100 22.3857 77.6143 0 50 0Z" fill="black"/>
<path d="M50 80.5191L49.1666 79.2952C46.919 75.9905 44.1571 74.0857 41.5047 72.519C40.7476 72.0714 39.9666 71.6381 39.2095 71.2143C36.0285 69.4429 32.7428 67.6095 30.2 64.3524C27.0428 60.3095 26.5381 55.2191 28.6619 48.7857C29 47.7667 29.3381 46.8143 29.6666 45.8905C30.6238 43.2048 31.4524 40.8857 31.5762 38.581C31.7333 35.6714 30.8905 32.9238 28.8333 29.6714L28.4524 29.0667L34.3238 21.7286H65.6619L71.5333 29.0667L71.1524 29.6714C69.1 32.9238 68.2524 35.6714 68.4095 38.581C68.5333 40.8857 69.3619 43.2048 70.319 45.8857C70.6476 46.8095 70.9905 47.7619 71.3238 48.781C73.4476 55.2143 72.9428 60.3048 69.7857 64.3476C67.2428 67.6 63.9571 69.4333 60.7762 71.2095C60.0238 71.6286 59.2428 72.0667 58.4857 72.5143C55.8333 74.0762 53.0666 75.981 50.8238 79.2905L49.9952 80.5143L50 80.5191Z" fill="white"/>
<path d="M68.1287 62.6667C69.562 60.7572 70.2715 58.4095 70.2239 55.7429C70.1858 53.5286 69.6001 51.0905 68.7191 48.4905C67.462 44.781 66.2239 41.7095 66.0668 38.6905C65.9287 36.0286 66.5477 32.7667 68.6715 29.3238L64.4239 24.0905H40.6001L65.4572 65.4524C66.4287 64.6381 67.3334 63.7286 68.1287 62.6667Z" fill="white"/>
<path d="M35.5763 24.0857L32.6953 27.6333L58.2144 70.0286C59.4239 69.3429 60.6858 68.6619 61.9239 67.9143L35.5763 24.0857Z" fill="white"/>
<path d="M31.3286 29.3191C33.4524 32.7619 34.0714 36.0238 33.9333 38.6857C33.7762 41.7 32.5381 44.7714 31.2809 48.4857C30.4 51.0905 29.8143 53.5286 29.7762 55.7381C29.7286 58.4095 30.4381 60.7524 31.8714 62.6619C34.6286 66.3429 38.7095 68.2524 42.2714 70.3048C44.9 71.8238 47.9381 73.7238 50 76.8333C52.0619 73.7238 55.1 71.819 57.7286 70.3048C57.8905 70.2143 58.0524 70.119 58.2143 70.0286L32.6952 27.6381L31.3286 29.3238V29.3191Z" fill="#007A3E"/>
<path d="M64.4905 66.2143C64.5428 66.1714 64.6 66.1333 64.6524 66.0952C64.9095 65.9 65.1667 65.6952 65.419 65.4857L65.4571 65.4524L40.6 24.0857H35.5762L61.9238 67.9143L61.9905 67.8714C62.5476 67.5381 63.0952 67.1857 63.6381 66.8143C63.7047 66.7667 63.7714 66.7238 63.8381 66.6762C64.0571 66.5238 64.2762 66.3667 64.4905 66.2095" fill="#C82026"/>
<path d="M70.3808 49.1048C69.0475 45.0667 67.5903 41.9095 67.4141 38.6429C67.257 35.7619 67.957 32.8667 70.3094 29.1429L65.1856 22.7381H34.8141L29.6903 29.1429C32.0427 32.8667 32.7427 35.7619 32.5856 38.6429C32.4094 41.9095 30.9522 45.0667 29.6189 49.1048C27.5665 55.3238 28.0951 60.0238 30.9951 63.7381C33.9951 67.581 38.0665 69.3238 42.0141 71.6524C44.8951 73.3524 47.7141 75.3619 49.9998 78.7286C52.2856 75.3619 55.1046 73.3524 57.9856 71.6524C61.9332 69.3238 66.0046 67.581 69.0046 63.7381C71.9046 60.0238 72.4332 55.3238 70.3808 49.1048ZM63.6379 66.8191C63.0998 67.1905 62.5475 67.5381 61.9903 67.8762L61.9236 67.9191C60.6856 68.6619 59.4284 69.3476 58.2141 70.0333C58.0522 70.1286 57.8903 70.2191 57.7284 70.3143C55.0998 71.8286 52.0617 73.7333 49.9998 76.8429C47.9379 73.7333 44.8998 71.8286 42.2713 70.3143C38.7094 68.2571 34.6284 66.3476 31.8713 62.6667C30.4379 60.7571 29.7284 58.4095 29.776 55.7429C29.8141 53.5286 30.3998 51.0905 31.2808 48.4905C32.5332 44.7762 33.776 41.7095 33.9332 38.6905C34.0713 36.0286 33.4522 32.7667 31.3284 29.3238L32.6951 27.6381L35.576 24.0905H64.4284L68.676 29.3238C66.5522 32.7667 65.9332 36.0286 66.0713 38.6905C66.2284 41.7048 67.4665 44.7762 68.7237 48.4905C69.8903 52.0667 70.1903 53.5333 70.2284 55.7429C70.276 58.4143 69.5665 60.7571 68.1332 62.6667C67.3379 63.7286 66.4332 64.6381 65.4618 65.4524L65.4237 65.4857C65.1713 65.6952 64.9141 65.9 64.657 66.0952C64.6046 66.1381 64.5475 66.1762 64.4951 66.2143C64.2808 66.3714 64.0618 66.5286 63.8427 66.681C63.776 66.7286 63.7094 66.7762 63.6427 66.8191" fill="#1D1C1A"/>
<path d="M57.7048 25.7286C53.9286 25.7286 50.8667 28.7905 50.8667 32.5714C50.8667 36.3524 53.9286 39.4143 57.7048 39.4143C61.481 39.4143 64.5477 36.3524 64.5477 32.5714C64.5477 28.7905 61.4857 25.7286 57.7048 25.7286ZM57.7048 38.3476C54.5143 38.3476 51.9286 35.7619 51.9286 32.5714C51.9286 29.381 54.5143 26.7952 57.7048 26.7952C60.8953 26.7952 63.481 29.381 63.481 32.5714C63.481 35.7619 60.8953 38.3476 57.7048 38.3476Z" fill="#1D1C1A"/>
<path d="M56.9525 28.381H55.3145V36.4714H60.5811V34.8571H56.9525V28.381Z" fill="#1D1C1A"/>
<path d="M30.7095 11.3381L31.1143 12.0714L28.9 13.2952L29.2476 13.9286L31.2143 12.8429L31.6143 13.5714L29.6476 14.6572L30.1333 15.5333L29.2714 16.0095L27.6333 13.0429L30.7095 11.3429V11.3381Z" fill="black"/>
<path d="M36.3001 12.6238L35.762 12.1524L33.8286 12.9381L33.7715 13.6524L32.7905 14.0524L33.1334 10.2571L34.3905 9.74762L37.281 12.2286L36.3048 12.6238H36.3001ZM33.8953 12.1143L35.1334 11.6095L34.0143 10.6333L33.8953 12.1143Z" fill="black"/>
<path d="M41.3476 10.1762L40.7619 7.81906L41.7095 7.58572L42.5238 10.8762L41.1286 11.2238L38.6048 9.34763L39.1905 11.7048L38.2381 11.9429L37.4238 8.65239L38.8238 8.30477L41.3476 10.181V10.1762Z" fill="black"/>
<path d="M46.1191 6.96191L50.2001 6.79524L50.2334 7.62858L48.6858 7.69048L48.7906 10.2429L47.8096 10.281L47.7049 7.72858L46.1525 7.79048L46.1191 6.95715V6.96191Z" fill="black"/>
<path d="M51.3903 8.49525C51.4855 7.3762 52.3141 6.78096 53.7379 6.90477C55.1569 7.02858 55.876 7.75715 55.7807 8.87144C55.6855 9.99049 54.8522 10.5952 53.4331 10.4714C52.0093 10.3476 51.295 9.61906 51.3903 8.49525ZM54.7569 8.78572C54.8093 8.20001 54.5045 7.80953 53.6664 7.73811C52.8331 7.66668 52.4665 7.99049 52.4188 8.58572C52.3665 9.18096 52.676 9.57144 53.5045 9.64287C54.3379 9.7143 54.7093 9.38096 54.7617 8.79049L54.7569 8.78572Z" fill="black"/>
<path d="M61.6239 8.36667L59.6334 9.38095L60.881 11.6762L59.6763 11.4048L58.8096 9.80476L57.862 10.2857L57.7096 10.9571L56.7524 10.7381L57.5001 7.42857L58.462 7.64286L58.1286 9.12857L60.1953 8.0381L61.6334 8.36191L61.6239 8.36667Z" fill="black"/>
<path d="M66.3286 9.99524L66.0667 10.7191L63.6858 9.85715L63.5 10.3667L65.7905 11.1952L65.5286 11.9191L63.2381 11.0905L63.0524 11.6L65.4334 12.4619L65.1715 13.1857L61.8667 11.9905L63.0191 8.8L66.3238 9.99524H66.3286Z" fill="black"/>
<path d="M69.7621 14.3524L70.8764 12.1905L71.7478 12.6381L70.1907 15.6524L68.9097 14.9905L68.2478 11.9095L67.1335 14.0714L66.2573 13.6191L67.8145 10.6048L69.1002 11.2667L69.7621 14.3476V14.3524Z" fill="black"/>
<path d="M27.395 85.4762C27.2474 85.719 27.395 86.0238 28.1569 86.4857C28.8569 86.9048 29.095 86.9 29.2045 86.719C29.3331 86.5095 29.2236 86.3905 28.395 85.8143C27.2665 85.0238 26.8903 84.4762 27.276 83.8333C27.6426 83.2286 28.4617 83.3476 29.4665 83.9524C30.5855 84.6238 31.0236 85.3524 30.6617 86.0143L29.7807 85.4857C29.9331 85.2286 29.7141 84.9619 29.0617 84.5714C28.4426 84.2 28.2426 84.219 28.1474 84.3762C28.0379 84.5571 28.1474 84.6952 28.895 85.2333C29.9141 85.9571 30.5617 86.4476 30.1045 87.2095C29.6569 87.9524 28.8379 87.7571 27.8045 87.1333C26.6284 86.4238 26.0903 85.7381 26.5093 84.9476L27.3903 85.4809L27.395 85.4762Z" fill="black"/>
<path d="M31.5236 87.1905C31.9712 86.1571 32.9426 85.8619 34.2569 86.4286C35.5664 86.9952 36.014 87.9143 35.5712 88.9429C35.1236 89.9762 34.1426 90.281 32.8331 89.7143C31.5188 89.1476 31.0759 88.2286 31.5236 87.1905ZM34.6283 88.5381C34.8616 87.9952 34.695 87.5333 33.9236 87.1952C33.1569 86.8619 32.7045 87.0571 32.4712 87.6C32.2331 88.1476 32.4045 88.6143 33.1664 88.9476C33.9331 89.281 34.395 89.081 34.6283 88.5333V88.5381Z" fill="black"/>
<path d="M39.295 88.2143C40.495 88.5524 41.0331 89.2571 40.895 90.1238L39.8902 89.8429C39.9093 89.5238 39.6759 89.1857 39.0712 89.0191C38.3712 88.8238 37.9378 89.0714 37.7759 89.6429C37.614 90.2191 37.8616 90.6619 38.5569 90.8571C39.1616 91.0238 39.5378 90.8571 39.6854 90.5667L40.6902 90.8476C40.3569 91.6667 39.5331 91.9952 38.3283 91.6619C37.0188 91.2952 36.4712 90.4857 36.7807 89.3667C37.095 88.2524 37.9807 87.8476 39.2902 88.2143H39.295Z" fill="black"/>
<path d="M43.3948 89.2286L42.7948 92.5619L41.8281 92.3857L42.4281 89.0524L43.3948 89.2286Z" fill="black"/>
<path d="M44.4189 91.1476C44.5094 90.0286 45.3332 89.4333 46.757 89.5476C48.176 89.6619 48.8999 90.3905 48.8046 91.5048C48.7141 92.6238 47.8856 93.2286 46.4618 93.1143C45.0379 93 44.3189 92.2714 44.4141 91.1476H44.4189ZM47.7856 91.4238C47.8332 90.8381 47.5284 90.4524 46.6903 90.381C45.857 90.3143 45.4951 90.6429 45.4427 91.2333C45.3951 91.8286 45.7046 92.2143 46.5332 92.2857C47.3665 92.3524 47.7379 92.019 47.7856 91.4238Z" fill="black"/>
<path d="M51.1188 92.0476C51.1331 92.3333 51.4235 92.5048 52.314 92.4571C53.1283 92.4143 53.3235 92.2762 53.3093 92.0619C53.295 91.8143 53.1426 91.781 52.1331 91.7667C50.7569 91.7429 50.1331 91.5 50.095 90.7476C50.0569 90.0429 50.8045 89.681 51.9759 89.6238C53.2807 89.5571 54.0521 89.9095 54.1188 90.6619L53.095 90.7143C53.0807 90.4143 52.7474 90.3191 51.9854 90.3571C51.2664 90.3952 51.1093 90.5238 51.1188 90.7048C51.1283 90.9143 51.295 90.9714 52.2188 91C53.4664 91.0286 54.2807 91.0714 54.3283 91.9619C54.3712 92.8286 53.5854 93.1238 52.3807 93.1857C51.0093 93.2571 50.1759 92.9857 50.0854 92.0952L51.114 92.0429L51.1188 92.0476Z" fill="black"/>
<path d="M55.7426 92.0429L56.6806 91.9048L56.7854 92.6333L55.8473 92.7714L55.7378 92.0429H55.7426Z" fill="black"/>
<path d="M59.4808 88.5333C60.6951 88.2381 61.5094 88.5905 61.8141 89.4143L60.7999 89.6619C60.6618 89.3714 60.2903 89.1952 59.6808 89.3429C58.9761 89.5143 58.7189 89.9429 58.857 90.5238C58.9999 91.1048 59.4332 91.3714 60.1332 91.2C60.7427 91.0524 60.9903 90.7191 60.9761 90.3905L61.9903 90.1429C62.0999 91.0191 61.5427 91.7143 60.3284 92.0095C59.0046 92.3333 58.1284 91.8952 57.8522 90.7667C57.576 89.6429 58.1522 88.8571 59.4761 88.5333H59.4808Z" fill="black"/>
<path d="M63.1522 89.3905C62.7379 88.3429 63.2189 87.4429 64.5474 86.919C65.8712 86.3952 66.8427 86.7286 67.2522 87.7714C67.6665 88.8191 67.1855 89.7286 65.8617 90.2524C64.5331 90.7762 63.5665 90.4429 63.1522 89.3905ZM66.2998 88.1476C66.0855 87.6 65.6379 87.3857 64.857 87.6952C64.0808 88 63.8951 88.4571 64.1141 89.0095C64.3331 89.5667 64.7855 89.7762 65.557 89.4714C66.3331 89.1667 66.5189 88.7 66.2998 88.1476Z" fill="black"/>
<path d="M69.3381 88.6905L67.6333 85.7571L68.9571 84.9857L71.1095 86.3381L70.9952 83.8L72.319 83.0286L74.0238 85.9619L73.1762 86.4524L71.9428 84.3286L72.0762 87.0952L71.2904 87.5524L68.9524 86.0714L70.1904 88.1952L69.3381 88.6905Z" fill="black"/>
<path d="M23.019 81.8381C13.9952 74.181 8.2666 62.7571 8.2666 50C8.2666 37.2429 14.2999 25.2143 23.738 17.5619" stroke="black" stroke-miterlimit="10"/>
<path d="M76.2666 17.5667C85.7047 25.219 91.7333 36.9048 91.7333 50C91.7333 63.0952 86.0047 74.1857 76.9809 81.8429" stroke="black" stroke-miterlimit="10"/>
</g>
<defs>
<clipPath id="clip0_1124_13484">
<rect width="100" height="100" fill="white"/>
</clipPath>
</defs>
</svg>
