<svg width="100" height="100" viewBox="0 0 100 100" fill="none" xmlns="http://www.w3.org/2000/svg">
<g clip-path="url(#clip0_1124_16268)">
<path d="M50 100C77.6142 100 100 77.6142 100 50C100 22.3858 77.6142 0 50 0C22.3858 0 0 22.3858 0 50C0 77.6142 22.3858 100 50 100Z" fill="#005596"/>
<path d="M49.9999 98.7333C76.9146 98.7333 98.7333 76.9147 98.7333 50C98.7333 23.0853 76.9146 1.26666 49.9999 1.26666C23.0853 1.26666 1.2666 23.0853 1.2666 50C1.2666 76.9147 23.0853 98.7333 49.9999 98.7333Z" fill="#005596"/>
<path d="M50 2.53333C76.1714 2.53333 97.4667 23.8286 97.4667 50C97.4667 76.1714 76.1714 97.4667 50 97.4667C23.8286 97.4667 2.53333 76.1714 2.53333 50C2.53333 23.8286 23.8286 2.53333 50 2.53333ZM50 0C22.3857 0 0 22.3857 0 50C0 77.6143 22.3857 100 50 100C77.6143 100 100 77.6143 100 50C100 22.3857 77.6143 0 50 0Z" fill="#005596"/>
<path d="M50 100C77.6142 100 100 77.6142 100 50C100 22.3858 77.6142 0 50 0C22.3858 0 0 22.3858 0 50C0 77.6142 22.3858 100 50 100Z" fill="#F9E000"/>
<path d="M50 2.53333C76.1714 2.53333 97.4667 23.8286 97.4667 50C97.4667 76.1714 76.1714 97.4667 50 97.4667C23.8286 97.4667 2.53333 76.1714 2.53333 50C2.53333 23.8286 23.8286 2.53333 50 2.53333ZM50 0C22.3857 0 0 22.3857 0 50C0 77.6143 22.3857 100 50 100C77.6143 100 100 77.6143 100 50C100 22.3857 77.6143 0 50 0Z" fill="white"/>
<path d="M69.562 44.3095C71.7715 40.1476 71.9239 34.981 69.9667 30.4952C68.5572 27.2619 66.2906 24.9476 63.9001 24.3095L62.5953 23.9619L54.762 46.3143L50.0001 38.9286L45.2382 46.3143L37.4048 23.9619L36.1001 24.3095C33.7096 24.9524 31.4382 27.2619 30.0334 30.4952C28.081 34.9857 28.2287 40.1476 30.4382 44.3095C30.9144 45.2095 31.6001 46.4286 32.3668 47.7619H29.8334L30.5525 54.7476L36.7668 58.4476L35.5906 59.2095L34.962 68.881H38.662L40.0763 62.2048L40.8144 61.9L41.2239 61.9571L50.0048 76.9429L58.6953 61.9667L59.1858 61.9L59.9239 62.2048L61.3334 68.881H65.0334L64.4048 59.2095L63.2287 58.4476L69.4429 54.7476L70.162 47.7619H67.6287C68.3953 46.4286 69.081 45.2095 69.5572 44.3095H69.562ZM31.9287 53.8667L31.4477 49.219H32.4096L33.7382 52.7524L35.8858 54.1762L37.781 57.3524L31.9287 53.8714V53.8667ZM39.2334 56.5048C39.2334 56.5048 33.6715 47.2905 31.7287 43.6286C27.681 35.9952 32.0287 26.9095 36.481 25.719L44.181 47.6905L39.2334 56.5095V56.5048ZM50.0001 74.0476L43.162 62.3762L50.0001 63.4619L56.7668 62.3952L50.0001 74.0524V74.0476ZM60.7715 56.5048L55.8239 47.6857L63.5239 25.7143C67.9715 26.9048 72.3239 35.9952 68.2763 43.6238C66.3334 47.2905 60.7715 56.5 60.7715 56.5V56.5048ZM68.5525 49.219L68.0715 53.8667L62.2191 57.3476L64.1144 54.1714L66.262 52.7476L67.5906 49.2143H68.5525V49.219Z" fill="black"/>
<path d="M54.0953 47.9714L50 41.619L45.9048 47.9714L50 54.2476L54.0953 47.9714Z" fill="#F9E000"/>
<path d="M59.6095 57.8429L55.0143 49.7143L50 57.2429L44.9857 49.7143L40.3905 57.8429L37 60.0333L36.519 67.419H37.4809L38.8048 61.1476L40.619 60.4L50 61.6905L59.3809 60.4L61.1952 61.1476L62.5238 67.419H63.4809L63 60.0333L59.6095 57.8429Z" fill="#F9E000"/>
<path d="M39.2335 56.5048C39.2335 56.5048 33.6716 47.2905 31.7288 43.6286C27.6812 35.9952 32.0288 26.9095 36.4812 25.719L44.1812 47.6905L39.2335 56.5095V56.5048Z" fill="white"/>
<path d="M50.0001 74.0476L43.1572 62.3762L50.0001 63.4619L56.762 62.3905L50.0001 74.0476Z" fill="white"/>
<path d="M60.7667 56.5048L55.8191 47.6857L63.5191 25.7143C67.9667 26.9048 72.3191 35.9952 68.2715 43.6238C66.3286 47.2905 60.7667 56.5 60.7667 56.5V56.5048Z" fill="white"/>
<path d="M31.9287 53.8667L31.4478 49.219H32.4097L33.7382 52.7524L35.8858 54.1762L37.7811 57.3524L31.9287 53.8667Z" fill="white"/>
<path d="M68.5526 49.219L68.0716 53.8667L62.2192 57.3524L64.1145 54.1762L66.2621 52.7524L67.5907 49.219H68.5526Z" fill="white"/>
<path d="M30.7095 11.3381L31.1143 12.0714L28.9 13.2952L29.2476 13.9286L31.2143 12.8429L31.6143 13.5714L29.6476 14.6572L30.1333 15.5333L29.2714 16.0095L27.6333 13.0429L30.7095 11.3429V11.3381Z" fill="black"/>
<path d="M36.3001 12.6238L35.762 12.1524L33.8286 12.9381L33.7715 13.6524L32.7905 14.0524L33.1334 10.2571L34.3905 9.74762L37.281 12.2286L36.3048 12.6238H36.3001ZM33.8953 12.1143L35.1334 11.6095L34.0143 10.6333L33.8953 12.1143Z" fill="black"/>
<path d="M41.3476 10.1762L40.7619 7.81906L41.7095 7.58572L42.5238 10.8762L41.1286 11.2238L38.6048 9.34763L39.1905 11.7048L38.2381 11.9429L37.4238 8.65239L38.8238 8.30477L41.3476 10.181V10.1762Z" fill="black"/>
<path d="M46.1189 6.96191L50.1998 6.79524L50.2332 7.62858L48.6856 7.69048L48.7903 10.2429L47.8094 10.281L47.7046 7.72858L46.1522 7.79048L46.1189 6.95715V6.96191Z" fill="black"/>
<path d="M51.3905 8.49525C51.4857 7.3762 52.3143 6.78096 53.7381 6.90477C55.1572 7.02858 55.8762 7.75715 55.781 8.87144C55.6857 9.99049 54.8524 10.5952 53.4334 10.4714C52.0096 10.3476 51.2953 9.61906 51.3905 8.49525ZM54.7572 8.78572C54.8096 8.20001 54.5048 7.80953 53.6667 7.73811C52.8334 7.66668 52.4667 7.99049 52.4191 8.58572C52.3667 9.18096 52.6762 9.57144 53.5048 9.64287C54.3381 9.7143 54.7096 9.38096 54.7619 8.79049L54.7572 8.78572Z" fill="black"/>
<path d="M61.6239 8.36667L59.6334 9.38095L60.881 11.6762L59.6763 11.4048L58.8096 9.80476L57.862 10.2857L57.7096 10.9571L56.7524 10.7381L57.5001 7.42857L58.462 7.64286L58.1286 9.12857L60.1953 8.0381L61.6334 8.36191L61.6239 8.36667Z" fill="black"/>
<path d="M66.3286 9.99524L66.0667 10.7191L63.6858 9.85715L63.5 10.3667L65.7905 11.1952L65.5286 11.9191L63.2381 11.0905L63.0524 11.6L65.4334 12.4619L65.1715 13.1857L61.8667 11.9905L63.0191 8.8L66.3238 9.99524H66.3286Z" fill="black"/>
<path d="M69.7618 14.3524L70.8761 12.1905L71.7476 12.6381L70.1904 15.6524L68.9095 14.9905L68.2476 11.9095L67.1333 14.0714L66.2571 13.6191L67.8142 10.6048L69.0999 11.2667L69.7618 14.3476V14.3524Z" fill="black"/>
<path d="M27.3953 85.4762C27.2476 85.719 27.3953 86.0238 28.1572 86.4857C28.8572 86.9048 29.0953 86.9 29.2048 86.719C29.3334 86.5095 29.2238 86.3905 28.3953 85.8143C27.2667 85.0238 26.8905 84.4762 27.2762 83.8333C27.6429 83.2286 28.4619 83.3476 29.4667 83.9524C30.5857 84.6238 31.0238 85.3524 30.6619 86.0143L29.781 85.4857C29.9334 85.2286 29.7143 84.9619 29.0619 84.5714C28.4429 84.2 28.2429 84.219 28.1476 84.3762C28.0381 84.5571 28.1476 84.6952 28.8953 85.2333C29.9143 85.9571 30.5619 86.4476 30.1048 87.2095C29.6572 87.9524 28.8381 87.7571 27.8048 87.1333C26.6286 86.4238 26.0905 85.7381 26.5096 84.9476L27.3905 85.4809L27.3953 85.4762Z" fill="black"/>
<path d="M31.5238 87.1905C31.9714 86.1571 32.9428 85.8619 34.2571 86.4286C35.5667 86.9952 36.0143 87.9143 35.5714 88.9429C35.1238 89.9762 34.1428 90.281 32.8333 89.7143C31.519 89.1476 31.0762 88.2286 31.5238 87.1905ZM34.6286 88.5381C34.8619 87.9952 34.6952 87.5333 33.9238 87.1952C33.1571 86.8619 32.7047 87.0571 32.4714 87.6C32.2333 88.1476 32.4047 88.6143 33.1667 88.9476C33.9333 89.281 34.3952 89.081 34.6286 88.5333V88.5381Z" fill="black"/>
<path d="M39.3047 88.219C40.5047 88.5571 41.0428 89.2619 40.9047 90.1286L39.9 89.8476C39.919 89.5286 39.6857 89.1905 39.0809 89.0238C38.3809 88.8286 37.9476 89.0762 37.7857 89.6476C37.6238 90.2238 37.8714 90.6667 38.5666 90.8619C39.1714 91.0286 39.5476 90.8619 39.6952 90.5714L40.7 90.8524C40.3666 91.6714 39.5428 92 38.3381 91.6667C37.0285 91.3 36.4809 90.4905 36.7905 89.3714C37.1047 88.2571 37.9905 87.8524 39.3 88.219H39.3047Z" fill="black"/>
<path d="M43.3953 89.2286L42.7953 92.5619L41.8286 92.3857L42.4286 89.0524L43.3953 89.2286Z" fill="black"/>
<path d="M44.4191 91.1476C44.5096 90.0286 45.3334 89.4333 46.7572 89.5476C48.1763 89.6619 48.9001 90.3905 48.8049 91.5048C48.7144 92.6238 47.8858 93.2286 46.462 93.1143C45.0382 93 44.3191 92.2714 44.4144 91.1476H44.4191ZM47.7858 91.4238C47.8334 90.8381 47.5287 90.4524 46.6906 90.381C45.8572 90.3143 45.4953 90.6429 45.443 91.2333C45.3953 91.8286 45.7049 92.2143 46.5334 92.2857C47.3668 92.3524 47.7382 92.019 47.7858 91.4238Z" fill="black"/>
<path d="M51.119 92.0476C51.1333 92.3333 51.4238 92.5048 52.3143 92.4571C53.1286 92.4143 53.3238 92.2762 53.3095 92.0619C53.2952 91.8143 53.1428 91.781 52.1333 91.7667C50.7571 91.7429 50.1333 91.5 50.0952 90.7476C50.0571 90.0429 50.8047 89.681 51.9762 89.6238C53.2809 89.5571 54.0524 89.9095 54.119 90.6619L53.0952 90.7143C53.0809 90.4143 52.7476 90.3191 51.9857 90.3571C51.2666 90.3952 51.1095 90.5238 51.119 90.7048C51.1285 90.9143 51.2952 90.9714 52.219 91C53.4666 91.0286 54.2809 91.0714 54.3285 91.9619C54.3714 92.8286 53.5857 93.1238 52.3809 93.1857C51.0095 93.2571 50.1762 92.9857 50.0857 92.0952L51.1143 92.0429L51.119 92.0476Z" fill="black"/>
<path d="M55.7428 92.0429L56.6809 91.9048L56.7857 92.6333L55.8476 92.7714L55.738 92.0429H55.7428Z" fill="black"/>
<path d="M59.4811 88.5381C60.6953 88.2429 61.5096 88.5952 61.8144 89.419L60.8001 89.6667C60.662 89.3762 60.2906 89.2 59.6811 89.3476C58.9763 89.5191 58.7192 89.9476 58.8572 90.5286C59.0001 91.1095 59.4334 91.3762 60.1334 91.2048C60.743 91.0571 60.9906 90.7238 60.9763 90.3952L61.9906 90.1476C62.1001 91.0238 61.543 91.719 60.3287 92.0143C59.0049 92.3381 58.1287 91.9 57.8525 90.7714C57.5763 89.6476 58.1525 88.8619 59.4763 88.5381H59.4811Z" fill="black"/>
<path d="M63.1524 89.3952C62.7382 88.3476 63.2191 87.4476 64.5477 86.9238C65.8715 86.4 66.8429 86.7333 67.2524 87.7762C67.6667 88.8238 67.1858 89.7333 65.862 90.2571C64.5334 90.7809 63.5667 90.4476 63.1524 89.3952ZM66.3001 88.1524C66.0858 87.6048 65.6382 87.3905 64.8572 87.7C64.081 88.0048 63.8953 88.4619 64.1143 89.0143C64.3334 89.5714 64.7858 89.7809 65.5572 89.4762C66.3334 89.1714 66.5191 88.7048 66.3001 88.1524Z" fill="black"/>
<path d="M69.3381 88.6905L67.6333 85.7571L68.9571 84.9857L71.1095 86.3381L70.9952 83.8L72.319 83.0286L74.0238 85.9619L73.1762 86.4524L71.9428 84.3286L72.0762 87.0952L71.2904 87.5524L68.9524 86.0714L70.1904 88.1952L69.3381 88.6905Z" fill="black"/>
<path d="M23.019 81.8381C13.9952 74.181 8.2666 62.7571 8.2666 50C8.2666 37.2429 14.2999 25.2143 23.738 17.5619" stroke="white" stroke-miterlimit="10"/>
<path d="M76.2666 17.5667C85.7047 25.219 91.7333 36.9048 91.7333 50C91.7333 63.0952 86.0047 74.1857 76.9809 81.8429" stroke="white" stroke-miterlimit="10"/>
</g>
<defs>
<clipPath id="clip0_1124_16268">
<rect width="100" height="100" fill="white"/>
</clipPath>
</defs>
</svg>
