<svg xmlns="http://www.w3.org/2000/svg" width="64" height="64" viewBox="0 0 64 64"><g transform="translate(-8528.947 -692.496)"><circle cx="32" cy="32" r="32" transform="translate(8528.947 692.496)" fill="#efab11"/><g transform="translate(8546.213 704.744)"><path d="M-13993.873-1583.763l-3-3.182a.257.257,0,0,0-.368-.005l-1.29,1.291a.257.257,0,0,1-.37-.007l-4.355-4.724a.257.257,0,0,0-.382,0l-4.159,4.771a.255.255,0,0,1-.377.01l-1.35-1.4a.258.258,0,0,0-.374,0l-2.812,3.046a.252.252,0,0,1-.386-.01c-1.25-1.6-8.3-11.338-2.877-21.771a.241.241,0,0,0,0-.231c-.479-.878-3.408-6.782,1.64-11.206a.252.252,0,0,0,.089-.19l-.061-5.528a.255.255,0,0,1,.412-.206,23.5,23.5,0,0,0,10.607,4.844.251.251,0,0,0,.066,0c.424-.053,5.068-.711,10.49-4.877a.256.256,0,0,1,.416.189l.119,5.78a.244.244,0,0,0,.082.181,8.448,8.448,0,0,1,1.459,10.731.239.239,0,0,0,0,.241c.673,1.133,5.8,10.586-2.813,22.221a.265.265,0,0,1-.214.107A.257.257,0,0,1-13993.873-1583.763Zm-9.426-24.868c-.6.541-2.355,2.439.018,4.23a.262.262,0,0,0,.316,0c.541-.431,2.191-2.039.017-4.216a.269.269,0,0,0-.188-.077A.237.237,0,0,0-14003.3-1608.631Zm.65-2.192a4.707,4.707,0,0,0,4.707,4.708,4.708,4.708,0,0,0,4.709-4.708,4.707,4.707,0,0,0-4.709-4.707A4.707,4.707,0,0,0-14002.648-1610.823Zm-10.694,0a4.708,4.708,0,0,0,4.708,4.708,4.708,4.708,0,0,0,4.709-4.708,4.708,4.708,0,0,0-4.709-4.707A4.708,4.708,0,0,0-14013.343-1610.823Zm13.145.083a2.315,2.315,0,0,1,2.315-2.315,2.315,2.315,0,0,1,2.314,2.315,2.315,2.315,0,0,1-2.314,2.315A2.315,2.315,0,0,1-14000.2-1610.74Zm-10.818,0a2.315,2.315,0,0,1,2.315-2.315,2.315,2.315,0,0,1,2.314,2.315,2.315,2.315,0,0,1-2.314,2.315A2.315,2.315,0,0,1-14011.017-1610.74Z" transform="translate(14018.002 1623.188)" fill="#fff"/></g></g></svg>