<svg width="100" height="100" viewBox="0 0 100 100" fill="none" xmlns="http://www.w3.org/2000/svg">
<g clip-path="url(#clip0_1124_12775)">
<path d="M50 100C77.6142 100 100 77.6142 100 50C100 22.3858 77.6142 0 50 0C22.3858 0 0 22.3858 0 50C0 77.6142 22.3858 100 50 100Z" fill="#005596"/>
<path d="M49.9999 98.7333C76.9146 98.7333 98.7333 76.9147 98.7333 50C98.7333 23.0853 76.9146 1.26666 49.9999 1.26666C23.0853 1.26666 1.2666 23.0853 1.2666 50C1.2666 76.9147 23.0853 98.7333 49.9999 98.7333Z" fill="#005596"/>
<path d="M50 2.53333C76.1714 2.53333 97.4667 23.8286 97.4667 50C97.4667 76.1714 76.1714 97.4667 50 97.4667C23.8286 97.4667 2.53333 76.1714 2.53333 50C2.53333 23.8286 23.8286 2.53333 50 2.53333ZM50 0C22.3857 0 0 22.3857 0 50C0 77.6143 22.3857 100 50 100C77.6143 100 100 77.6143 100 50C100 22.3857 77.6143 0 50 0Z" fill="#005596"/>
<path d="M50 100C77.6142 100 100 77.6142 100 50C100 22.3858 77.6142 0 50 0C22.3858 0 0 22.3858 0 50C0 77.6142 22.3858 100 50 100Z" fill="#0C6847"/>
<path d="M50 2.53333C76.1714 2.53333 97.4667 23.8286 97.4667 50C97.4667 76.1714 76.1714 97.4667 50 97.4667C23.8286 97.4667 2.53333 76.1714 2.53333 50C2.53333 23.8286 23.8286 2.53333 50 2.53333ZM50 0C22.3857 0 0 22.3857 0 50C0 77.6143 22.3857 100 50 100C77.6143 100 100 77.6143 100 50C100 22.3857 77.6143 0 50 0Z" fill="#FFD100"/>
<path d="M53.8761 34.4524C53.8285 34.4619 53.7856 34.4714 53.7428 34.481C53.6999 34.4905 53.6618 34.5 53.6237 34.5095C53.3094 34.581 52.8475 34.7952 52.5761 34.9762C52.319 35.1476 52.1047 35.5571 51.9951 35.7381C50.3999 38.3238 48.7999 40.9095 47.2047 43.4905C47.1809 43.5286 47.1618 43.5619 47.138 43.6C47.0713 43.7095 47.0094 43.8191 46.9428 43.9333C46.6856 44.3857 46.4285 44.8524 46.0999 45.2333C45.4904 45.9429 44.8856 46.6476 44.2761 47.3571C44.8332 47.1238 45.3856 46.8905 46.0999 46.6571C46.3237 46.5857 46.4523 46.5524 46.5761 46.5191C46.6094 46.5095 46.6428 46.5 46.6761 46.4905H46.6999C46.6999 46.4905 46.7285 46.4762 46.7428 46.4714C46.757 46.4667 46.7713 46.4619 46.7904 46.4571C46.8047 46.4524 46.8237 46.4476 46.8428 46.4381C46.8523 46.4381 46.8618 46.4333 46.8713 46.4286C46.8713 46.4286 46.9951 46.1524 47.0285 45.8333C47.038 45.7571 46.9904 45.5048 47.3142 44.9762C48.619 42.8524 50.219 41.1429 51.7761 39.2048C51.7047 38.9905 51.6475 38.7714 51.6094 38.5714C51.5999 38.5333 51.5951 38.4952 51.5904 38.4571C51.5761 38.381 51.5666 38.3143 51.5618 38.2476C51.5618 38.2286 51.5618 38.2095 51.557 38.1905C51.557 38.1524 51.5523 38.1143 51.5523 38.0762C51.5475 37.8524 51.5761 37.6476 51.6428 37.4572C51.6428 37.4429 51.6523 37.4286 51.657 37.4143C51.7428 37.1714 51.8809 36.9429 52.0618 36.7048C52.457 36.181 52.919 35.7095 53.3904 35.2524C53.4094 35.2333 53.4332 35.2095 53.4618 35.1857C53.4666 35.1762 53.4761 35.1714 53.4809 35.1667C53.5047 35.1429 53.5237 35.1238 53.5475 35.1C53.557 35.0905 53.5618 35.0857 53.5713 35.0762C53.5809 35.0667 53.5904 35.0619 53.5951 35.0524C53.6047 35.0429 53.6142 35.0333 53.6237 35.0238C53.8094 34.8381 54.038 34.5952 54.1666 34.4191C54.1666 34.4191 54.1666 34.4143 54.1666 34.4095C54.0618 34.4286 53.9618 34.4476 53.8713 34.4667L53.8761 34.4524ZM53.8761 34.4524C53.8285 34.4619 53.7856 34.4714 53.7428 34.481C53.6999 34.4905 53.6618 34.5 53.6237 34.5095C53.3094 34.581 52.8475 34.7952 52.5761 34.9762C52.319 35.1476 52.1047 35.5571 51.9951 35.7381C50.3999 38.3238 48.7999 40.9095 47.2047 43.4905C47.1809 43.5286 47.1618 43.5619 47.138 43.6C47.0713 43.7095 47.0094 43.8191 46.9428 43.9333C46.6856 44.3857 46.4285 44.8524 46.0999 45.2333C45.4904 45.9429 44.8856 46.6476 44.2761 47.3571C44.8332 47.1238 45.3856 46.8905 46.0999 46.6571C46.3237 46.5857 46.4523 46.5524 46.5761 46.5191C46.6094 46.5095 46.6428 46.5 46.6761 46.4905H46.6999C46.6999 46.4905 46.7285 46.4762 46.7428 46.4714C46.757 46.4667 46.7713 46.4619 46.7904 46.4571C46.8047 46.4524 46.8237 46.4476 46.8428 46.4381C46.8523 46.4381 46.8618 46.4333 46.8713 46.4286C46.8713 46.4286 46.9951 46.1524 47.0285 45.8333C47.038 45.7571 46.9904 45.5048 47.3142 44.9762C48.619 42.8524 50.219 41.1429 51.7761 39.2048C51.7047 38.9905 51.6475 38.7714 51.6094 38.5714C51.5999 38.5333 51.5951 38.4952 51.5904 38.4571C51.5761 38.381 51.5666 38.3143 51.5618 38.2476C51.5618 38.2286 51.5618 38.2095 51.557 38.1905C51.557 38.1524 51.5523 38.1143 51.5523 38.0762C51.5475 37.8524 51.5761 37.6476 51.6428 37.4572C51.6428 37.4429 51.6523 37.4286 51.657 37.4143C51.7428 37.1714 51.8809 36.9429 52.0618 36.7048C52.457 36.181 52.919 35.7095 53.3904 35.2524C53.4094 35.2333 53.4332 35.2095 53.4618 35.1857C53.4666 35.1762 53.4761 35.1714 53.4809 35.1667C53.5047 35.1429 53.5237 35.1238 53.5475 35.1C53.557 35.0905 53.5618 35.0857 53.5713 35.0762C53.5809 35.0667 53.5904 35.0619 53.5951 35.0524C53.6047 35.0429 53.6142 35.0333 53.6237 35.0238C53.8094 34.8381 54.038 34.5952 54.1666 34.4191C54.1666 34.4191 54.1666 34.4143 54.1666 34.4095C54.0618 34.4286 53.9618 34.4476 53.8713 34.4667L53.8761 34.4524ZM73.038 24.9C57.2047 23.8048 42.7618 26.5238 34.8999 34.8143C20.6285 49.8619 26.7951 72.8619 43.9428 77.6429C52.057 79.9048 60.3999 75.5238 64.2951 71.5238C68.9475 66.7429 70.3094 60.4191 70.4475 56.7381C70.7475 48.5952 63.9571 35.9238 73.038 24.9ZM56.6142 29.3619C56.638 29.3857 56.6666 29.4095 56.7094 29.4286C56.719 29.4286 56.7285 29.4381 56.738 29.4381C57.6618 29.6667 58.7475 29.5143 59.5428 30.0286C59.5713 30.0476 59.5999 30.0667 59.6285 30.0857C59.7285 30.1571 59.819 30.2429 59.9094 30.3381C59.7904 30.2762 59.6713 30.2238 59.5523 30.1857C59.3285 30.1095 59.1047 30.0714 58.8856 30.0476C58.8332 30.0429 58.7809 30.0381 58.7285 30.0333C58.6951 30.0333 58.6618 30.0286 58.6237 30.0238C58.5904 30.0238 58.5523 30.0238 58.519 30.0191C57.8809 29.981 57.2428 29.9905 56.619 29.6095C56.5761 29.5762 56.538 29.5381 56.5094 29.4952C56.4856 29.4619 56.4618 29.4238 56.4428 29.3857C56.4285 29.3571 56.419 29.3286 56.4094 29.3C56.4047 29.281 56.3999 29.2619 56.3951 29.2381C56.3856 29.1524 56.3951 29.0571 56.438 28.9619C56.438 28.9619 56.4428 28.9619 56.4475 28.9524C56.4475 28.9524 56.4475 28.9524 56.4475 28.9476C56.4523 28.9381 56.457 28.9333 56.4618 28.9238C56.4761 28.8952 56.4951 28.8714 56.5332 28.8952C56.5142 29.0571 56.4999 29.2476 56.6047 29.3571L56.6142 29.3619ZM46.1094 45.2286C46.438 44.8476 46.6951 44.3762 46.9523 43.9286C47.0142 43.8143 47.0809 43.7048 47.1475 43.5952C47.0809 43.7048 47.019 43.8143 46.9523 43.9286C46.6951 44.381 46.438 44.8476 46.1094 45.2286ZM51.5951 38.4476C51.5809 38.3714 51.5713 38.3048 51.5666 38.2381C51.5666 38.2191 51.5666 38.2 51.5618 38.181C51.5618 38.2 51.5618 38.2191 51.5666 38.2381C51.5761 38.3 51.5809 38.3714 51.5951 38.4476ZM55.8761 47.7429C55.9618 47.7095 56.0809 47.6667 56.2237 47.6048C56.319 47.5667 56.4237 47.5191 56.5428 47.4667C56.5713 47.4524 56.5999 47.4381 56.6332 47.4238C56.6951 47.3952 56.757 47.3667 56.819 47.3333C56.9142 47.2857 57.019 47.2333 57.1237 47.1762C57.0999 47.1905 57.0761 47.2048 57.0523 47.2143C57.0094 47.2381 56.9618 47.2619 56.919 47.2857C56.4809 47.5143 56.1094 47.6619 55.8713 47.7476L55.8761 47.7429ZM56.7856 45.181C56.8047 44.8857 56.8047 44.5905 56.7951 44.3095C56.7428 43.5238 56.4713 42.0905 55.8285 41.2476C56.4428 41.2143 57.0618 40.9143 57.5666 40.6143C58.3999 40.1238 59.1189 39.4048 59.5856 38.5571C60.0666 39.0762 60.5428 39.5952 61.0237 40.1143C60.6285 41.0429 58.9618 44.6714 56.7904 45.1762L56.7856 45.181Z" fill="white"/>
<path d="M61.0191 40.119C60.6239 41.0476 58.9572 44.6762 56.7858 45.181C56.8048 44.8857 56.8048 44.5905 56.7953 44.3095C56.7429 43.5238 56.4715 42.0905 55.8286 41.2476C56.4429 41.2143 57.0619 40.9143 57.5667 40.6143C58.4 40.1238 59.1191 39.4048 59.5858 38.5571C60.0667 39.0762 60.5429 39.5952 61.0238 40.1143L61.0191 40.119Z" fill="white"/>
<path d="M44.5236 59.3429C44.676 59.4857 45.1427 61.3333 45.557 62.8286C45.557 62.8286 45.3522 62.9714 45.0474 63.1667C44.4093 63.581 43.3332 64.2286 42.8474 64.2667C42.2379 64.0905 41.6427 63.3762 41.2094 62.7476C40.8713 62.2524 40.3522 61.0429 40.3522 61.0429C40.3522 61.0429 40.7141 60.1476 41.0855 59.2L41.1808 58.9571L41.6808 57.6952C42.9427 58.5524 43.3617 58.7667 44.5189 59.3429H44.5236ZM53.576 61.881C52.3617 61.7524 51.4379 61.6191 50.3903 61.3572C49.5522 62.0429 48.6427 63.4286 48.1855 63.7762C48.1474 63.8048 48.2284 64.0191 48.3665 64.3143C48.6808 64.981 49.3094 66.0619 49.6665 66.4C51.0522 66.4095 52.1141 65.9333 53.2808 65.3429C53.4236 65.2238 53.2808 65.4572 53.7522 64.981C53.7236 64.8905 53.7236 63.6238 53.6855 62.7381C53.6665 62.2619 53.6332 61.8952 53.5808 61.881H53.576ZM56.4379 28.9667C56.3284 29.2095 56.4236 29.4619 56.6141 29.6095C57.6951 30.2714 58.8141 29.7619 59.9046 30.3429C59.0998 29.4571 57.8093 29.7048 56.7332 29.4429C56.4951 29.3619 56.5141 29.1095 56.5379 28.9048C56.476 28.8667 56.4713 28.9524 56.4379 28.9714V28.9667ZM61.8379 31.2048C61.9903 31.1714 62.1427 31.1333 62.2903 31.0905C63.3379 30.7952 64.4236 30.3429 65.4189 30.881C65.4427 30.8952 65.4665 30.9048 65.4903 30.9191L65.4713 30.8714L65.3855 30.681C65.2998 30.6095 65.2141 30.5476 65.1284 30.4952C63.6379 29.5429 61.8617 31.0191 60.2903 30.8238C59.9236 30.7667 59.7236 30.4143 59.4189 30.2762L59.5713 30.5952C60.2522 31.3667 61.0284 31.3857 61.8379 31.2095V31.2048ZM46.5522 54.4524C46.5522 54.4524 48.476 53.3476 49.9332 52.8429C49.6808 50.9619 49.8189 48.8381 50.1474 46.8191C49.5808 46.7476 48.9998 46.7191 48.4094 46.7476C48.376 46.7476 48.3427 46.7476 48.3141 46.7476C45.7713 46.881 43.4998 47.9381 41.8046 49.581C41.7808 49.6048 41.757 49.6286 41.7284 49.6524C41.6951 49.6857 41.6617 49.7191 41.6284 49.7524C41.3236 50.0619 41.0332 50.3952 40.7713 50.7429C40.7617 50.7571 40.7522 50.7667 40.7427 50.781C40.6903 50.8476 40.6427 50.9143 40.5951 50.9857C40.1808 51.5667 39.8284 52.1905 39.5427 52.8524C39.4998 52.9524 39.457 53.0476 39.4189 53.1476C39.3141 53.4048 39.2236 53.6714 39.1427 53.9381C39.1093 54.0429 39.0808 54.1524 39.0522 54.2572C38.9474 54.6476 38.8665 55.0476 38.8094 55.4571C38.7189 56.0905 38.6903 56.7429 38.7284 57.4048C38.8046 58.8857 39.1998 60.281 39.8332 61.5286C39.8903 61.6333 39.9427 61.7429 40.0046 61.8476C40.0427 61.9191 40.0855 61.9857 40.1236 62.0572C40.1427 62.0905 40.1617 62.1238 40.1855 62.1619C40.2474 62.2619 40.3094 62.3667 40.376 62.4667C40.4189 62.5333 40.4617 62.6 40.5094 62.6667C40.576 62.7667 40.6474 62.8619 40.7141 62.9572C40.7855 63.0524 40.857 63.1476 40.9332 63.2429C41.0046 63.3381 41.0808 63.4286 41.157 63.5191C41.2094 63.581 41.2617 63.6381 41.3141 63.7C43.2903 65.9238 46.2046 67.2762 49.3855 67.1095C49.8332 67.0857 50.2713 67.0333 50.6998 66.9524C50.7998 66.9333 50.8951 66.9143 50.9903 66.8905C51.0141 66.8905 51.0332 66.881 51.057 66.8762C51.1522 66.8572 51.2427 66.8333 51.3379 66.8095C51.5474 66.7572 51.7522 66.6952 51.957 66.6286C51.976 66.6238 51.9951 66.6143 52.0141 66.6095C52.6284 66.4048 53.2141 66.1381 53.7665 65.8238C54.5951 65.3524 55.3474 64.7714 56.0093 64.0952C56.0808 64.1762 56.1474 64.2572 56.2141 64.3333C56.2332 64.3572 56.2522 64.381 56.276 64.4048C55.2189 65.481 53.9379 66.3381 52.4998 66.8857C52.4236 66.9143 52.3474 66.9429 52.2713 66.9714C51.776 67.1476 51.2617 67.2857 50.7332 67.3857C50.6522 67.4 50.5713 67.4143 50.4903 67.4286C50.4093 67.4429 50.3236 67.4524 50.2427 67.4667C50.1998 67.4714 50.1617 67.4762 50.1189 67.481C49.9093 67.5048 49.7046 67.5286 49.4903 67.5429C49.4474 67.5429 49.4046 67.5476 49.3617 67.5524C48.0284 67.6238 46.7427 67.4381 45.5474 67.0381C45.5093 67.0238 45.4665 67.0143 45.4284 67C45.3474 66.9714 45.2713 66.9429 45.1951 66.9143C45.1189 66.8857 45.0379 66.8572 44.9617 66.8238C44.8093 66.7619 44.6522 66.6952 44.5046 66.6286C44.3903 66.5762 44.2808 66.5238 44.1665 66.4667C43.2046 65.9857 42.3189 65.3619 41.5427 64.6191C41.4855 64.5619 41.4236 64.5048 41.3665 64.4476C41.1046 64.1857 40.857 63.9095 40.6189 63.6191C40.5427 63.5238 40.4665 63.4238 40.3903 63.3286C40.3665 63.2952 40.3379 63.2619 40.3141 63.2286C40.2427 63.1286 40.1713 63.0286 40.0998 62.9238C40.0522 62.8572 40.0046 62.7857 39.9617 62.7143C39.9189 62.6429 39.8713 62.5762 39.8284 62.5048C39.7617 62.4 39.6998 62.2905 39.6379 62.181C39.6046 62.1191 39.5665 62.0572 39.5332 61.9952C39.4474 61.8381 39.3665 61.6762 39.2855 61.5143C39.2474 61.4381 39.2141 61.3619 39.1808 61.2857C39.1474 61.2095 39.1141 61.1333 39.0808 61.0524C39.0474 60.9762 39.0141 60.9 38.9855 60.8191C38.5665 59.7619 38.3094 58.6238 38.2474 57.4333C38.1808 56.1333 38.3474 54.8762 38.7189 53.7C38.7522 53.5905 38.7903 53.4762 38.8284 53.3667C38.9855 52.9286 39.1665 52.5 39.376 52.0905C39.4284 51.9857 39.4808 51.8857 39.5379 51.7857C39.7427 51.4095 39.9713 51.0524 40.2236 50.7048C40.276 50.6333 40.3284 50.5571 40.3855 50.4857C40.457 50.3952 40.5236 50.3048 40.5998 50.2143C40.676 50.1238 40.7474 50.0381 40.8236 49.9524C40.976 49.781 41.1284 49.6095 41.2903 49.4476C41.3284 49.4048 41.3713 49.3667 41.4141 49.3238C41.5141 49.2238 41.6189 49.1286 41.7236 49.0333C41.7665 48.9905 41.8141 48.9524 41.8617 48.9095C42.3998 48.4381 42.9903 48.0238 43.6189 47.6667C43.6189 47.6619 43.6189 47.6524 43.6236 47.6476C43.6236 47.6429 43.6284 47.6381 43.6332 47.6333C44.1903 46.9857 44.7474 46.3381 45.3094 45.6905C45.4284 45.5524 45.5474 45.4143 45.6665 45.2762C45.9808 44.9143 46.2379 44.5524 46.4855 44.1667C46.6094 43.9762 46.7332 43.781 46.8617 43.5762C47.6141 42.3667 48.3617 41.1524 49.1141 39.9429C49.1236 39.9286 49.1332 39.9143 49.1427 39.9C49.1951 39.8191 49.2427 39.7381 49.2951 39.6571C49.3093 39.6381 49.3189 39.6191 49.3284 39.6048C50.1284 38.3143 50.9284 37.0191 51.7284 35.7286C51.9141 35.4286 52.1713 35.1095 52.4379 34.8762C52.676 34.6619 53.1665 34.4667 53.4189 34.4C54.1332 34.2048 54.9236 33.9857 55.6713 33.8619C55.6713 33.8619 55.6951 33.8429 55.7332 33.8048C55.7379 33.8 55.7427 33.7952 55.7474 33.7905C55.757 33.781 55.7713 33.7667 55.7808 33.7524C55.7951 33.7381 55.8046 33.7238 55.8189 33.7095C55.8665 33.6571 55.9189 33.5952 55.9713 33.5333C55.9855 33.5143 55.9998 33.4952 56.0141 33.4762C56.0236 33.4667 56.0284 33.4571 56.0332 33.4476C56.0998 33.3524 56.1522 33.2619 56.1665 33.1857C55.8713 33.1333 55.4713 33.2524 55.257 33.0476C55.2474 33.0381 55.2379 33.0286 55.2284 33.0143C55.1903 32.9667 55.1617 32.9095 55.1379 32.8333C55.1236 32.6048 55.1046 32.3714 55.0903 32.1333C55.0903 32.0762 55.0855 32.0143 55.0808 31.9524C55.0808 31.8952 55.076 31.8333 55.076 31.7714C55.076 31.6429 55.0713 31.5143 55.0713 31.3857C55.0713 31.1048 55.0855 30.8238 55.1141 30.5429C48.5427 31.2476 40.9522 33.3714 35.8951 38.8905C25.2665 50.4857 32.3713 65.2095 32.3713 65.2095L30.9665 66.1714C24.6617 54.2905 26.5903 23.5429 70.5236 25.9143C69.7236 27.281 68.4141 30.7095 68.4141 30.7095C68.4141 30.7095 67.1284 30.5048 65.0236 30.3667C64.657 30.1571 63.8332 29.7619 63.0046 29.9381C62.5379 30.0381 62.2903 29.9048 62.157 29.7524C63.276 29.7429 64.0951 28.8429 65.1284 28.5048C66.2094 28.3238 67.1474 28.981 68.2427 28.4C68.5379 28.2857 68.7332 27.9619 68.8284 27.6762L68.3617 27.9762C67.7427 28.3286 67.0141 28.1191 66.3665 28C65.1427 27.6667 63.9713 28.5333 62.8808 29.0143C61.9903 29.4762 61.157 28.9333 60.4094 28.4238C59.7951 28.0952 59.157 27.5905 58.5189 28.0524H58.6713C59.2427 28.1095 59.6617 28.5048 60.0998 28.881C59.7713 28.7667 59.4284 28.6429 59.1093 28.5095C58.6189 28.3048 58.1284 28.1191 57.9284 28.0952C56.8903 27.9762 55.6713 28.5762 55.3713 28.7381C55.4903 28.8191 55.6094 28.9238 55.7332 29.0333C55.7617 29.0381 55.7808 29.0571 55.7903 29.0857C56.0141 29.2952 56.2379 29.5333 56.4236 29.7191C57.1093 30.6333 57.0474 32.1238 58.2903 32.5572C58.2903 32.5572 58.7236 32.681 58.957 32.7762C59.3379 32.9762 59.7665 33.1905 60.176 32.9524C60.3427 32.8667 60.576 32.7905 60.7855 32.7333C60.2855 32.7429 59.7665 32.7095 59.4427 32.3524C59.2665 32.1191 59.0236 31.9714 58.957 31.681C59.3617 31.8762 59.657 32.3048 60.1094 32.3762C60.8046 32.3238 61.5474 32.2571 62.1427 32.4429C61.676 32.1286 61.2951 31.5952 60.7617 31.5667H60.657C61.0665 31.1762 61.5379 31.5524 61.9808 31.7952C62.5284 32.1762 63.1379 32.5762 63.7189 32.1762C64.4379 31.7524 65.1903 31.0143 66.0522 31.2333C66.5046 31.3048 67.0189 31.4429 67.4236 31.1381L67.6284 30.9619L67.7284 30.881C67.6903 31.0762 67.5998 31.3 67.457 31.4238C67.457 31.4238 67.4427 31.4333 67.4379 31.4381C67.4189 31.4524 67.3951 31.4667 67.376 31.481C66.6617 31.9857 65.9713 31.4952 65.2379 31.681C64.3808 32.0667 63.576 33.0571 62.6284 32.681C62.7094 32.7429 62.7903 32.8095 62.857 32.8905C62.9808 32.9762 63.157 33.281 63.1903 33.3905C62.6474 33.1524 62.3189 32.7952 61.5855 32.7286C61.4855 32.7191 61.376 32.7191 61.2617 32.7191C61.2189 32.7191 61.1713 32.7191 61.1236 32.7191C61.0998 32.7191 61.076 32.7191 61.0522 32.7191C61.0094 32.7381 60.9665 32.7619 60.9236 32.7857C60.8522 32.8238 60.7855 32.8619 60.7141 32.9048C60.6855 32.9191 60.657 32.9381 60.6284 32.9524C60.5855 32.9762 60.5427 33 60.4998 33.0238C60.4713 33.0381 60.4427 33.0524 60.4141 33.0667C60.0665 33.2476 59.7094 33.3714 59.3189 33.2238C58.8665 33.1238 58.6284 32.7524 58.1855 32.6905L58.076 32.6714C58.1284 32.9762 58.1189 33.4524 58.1903 33.7524C58.2093 33.7571 58.2951 33.8048 58.4236 33.881C58.4379 33.8905 58.457 33.9 58.476 33.9095C58.5379 33.9476 58.6093 33.9857 58.6855 34.0333C58.7093 34.0476 58.7284 34.0571 58.7522 34.0714C58.7855 34.0905 58.8189 34.1095 58.8522 34.1286C58.876 34.1429 58.8998 34.1571 58.9236 34.1714C59.0379 34.2381 59.1617 34.3095 59.2855 34.381C59.3094 34.3952 59.3379 34.4095 59.3617 34.4238C59.557 34.5333 59.7522 34.6476 59.9332 34.7476C59.9617 34.7619 59.9855 34.7762 60.0141 34.7905C60.1474 34.8667 60.2665 34.9286 60.3665 34.981C60.3855 34.9905 60.4046 35.0048 60.4236 35.0143C60.4998 35.0571 60.5713 35.1048 60.6379 35.1571C60.7046 35.2095 60.7665 35.2619 60.8284 35.3191C60.8427 35.3333 60.857 35.3476 60.8713 35.3619C60.9046 35.4 60.9379 35.4333 60.9713 35.4714C60.9903 35.4952 61.0141 35.5191 61.0332 35.5429C61.057 35.5762 61.0808 35.6095 61.1094 35.6381C61.1522 35.5952 61.1903 35.5476 61.2379 35.5C61.8951 34.7762 62.9236 33.7476 63.6522 33.3333C63.776 33.2619 63.8998 33.1952 64.0284 33.1238C64.0808 33.0952 64.1332 33.0714 64.1855 33.0429C64.2379 33.0143 64.2951 32.9905 64.3474 32.9667C64.5951 32.8524 64.8665 32.7429 65.1665 32.6381C65.2236 32.6191 65.2855 32.6 65.3474 32.581C65.3665 32.5762 65.3855 32.5714 65.4046 32.5619C65.5284 32.5238 65.657 32.4905 65.7903 32.4524C65.8094 32.4476 65.8284 32.4429 65.8474 32.4381C65.9094 32.4238 65.9713 32.4095 66.0332 32.3952C66.0522 32.3952 66.0665 32.3857 66.0855 32.3857C66.3284 32.3286 66.5951 32.281 66.8855 32.2333C66.8855 32.2333 66.4903 32.8714 66.0189 33.6571C65.9903 33.7095 65.957 33.7571 65.9284 33.8095C65.7808 34.0524 65.6236 34.3238 65.4665 34.6C65.4379 34.6524 65.4046 34.7048 65.376 34.7571C65.3474 34.8095 65.3189 34.8619 65.2855 34.9143C65.257 34.9667 65.2284 35.0191 65.1998 35.0667C65.1427 35.1667 65.0903 35.2667 65.0379 35.3619C64.9713 35.481 64.9141 35.6 64.857 35.7048C64.8474 35.7286 64.8332 35.7476 64.8236 35.7714C64.8046 35.8143 64.7855 35.8524 64.7665 35.8952C64.7379 35.9524 64.7141 36.0095 64.6903 36.0667C64.6332 36.1952 64.576 36.3238 64.5189 36.4524C64.4617 36.581 64.4046 36.7143 64.3474 36.8429C64.2903 36.9714 64.2332 37.1048 64.1713 37.2381C64.0284 37.5667 63.8808 37.9048 63.7427 38.2476C63.6046 38.5905 63.4713 38.9381 63.3474 39.2952C63.3665 39.3143 63.3855 39.3381 63.4046 39.3619C63.6284 39.6333 63.976 40.0905 63.9094 40.2143C63.8141 40.3952 63.7189 40.581 63.6236 40.7619C63.2808 41.4191 63.0617 42.3905 62.6951 43.2857C62.6951 43.2952 62.6855 43.3048 62.6855 43.3143C65.2522 43.7238 67.2808 45.881 67.4189 48.5762C67.5332 50.7143 66.4284 52.6381 64.7189 53.681C66.0141 54.4333 67.4236 55.0571 68.9284 55.5476C68.9332 55.5476 68.9379 55.5476 68.9427 55.5524C68.9427 55.6 68.9427 55.6572 68.9427 55.7143C68.9427 55.7762 68.9427 55.8381 68.9427 55.8857C64.6713 54.6095 59.9379 51.9429 57.8236 47.2286C57.8236 47.2286 57.8094 47.2381 57.8141 47.2381C57.1236 47.5 55.7713 47.9762 55.3189 48.1429C55.1332 48.2381 54.9332 48.3143 54.7093 48.3762C52.8855 48.8905 52.1808 45.981 52.1332 44.7143C52.0951 43.6857 52.1998 42.5095 52.776 41.6286C53.1379 41.0714 53.5903 40.8143 54.2093 40.6381C54.5522 40.5429 54.8522 40.5619 55.1189 40.6714C55.876 40.9095 56.757 40.4286 57.4046 40.0476C58.1617 39.6 58.8379 39.0095 59.3236 38.2762C59.1332 38.0667 58.9379 37.8619 58.7474 37.6524C58.7189 38.0048 58.6427 38.3476 58.4951 38.6429C58.1046 39.4381 57.1046 39.881 56.276 39.8143C55.1998 39.7286 54.676 38.6 54.4522 37.6C54.2474 36.6857 54.176 35.6905 54.3046 34.7476C54.2236 34.8143 54.1522 34.8714 54.1141 34.9095C53.6474 35.3619 53.176 35.8143 52.776 36.3238C52.3713 36.8429 52.0522 37.3524 52.157 38.0286C52.2379 38.5286 52.4046 39.4238 52.8379 39.7714C52.776 39.7905 52.5284 39.9 52.4665 39.9238C52.5522 39.9095 52.5808 40.2857 52.5189 40.4143C51.8332 41.9238 50.8332 44.7762 50.4474 47.9476C50.1141 50.6857 50.2427 53.6619 51.4236 56.2286C51.8093 57.0714 52.0998 57.8048 52.0998 57.8048L51.9617 57.9572C51.9617 57.9572 51.9617 57.9572 51.9617 57.9619C51.0427 58.9 49.957 59.8572 49.957 59.8572C48.6808 59.2191 47.1474 58.3333 46.3617 57.7905C46.3522 56.3143 46.4427 55.9 46.5427 54.4476M54.1617 34.3905C53.9522 34.4286 53.7617 34.4667 53.6141 34.5C53.2998 34.5714 52.8379 34.7857 52.5665 34.9667C52.3093 35.1381 52.0951 35.5476 51.9855 35.7286C50.3903 38.3143 48.7903 40.9 47.1951 43.481C46.8427 44.0476 46.5332 44.7143 46.0951 45.2238C45.4855 45.9333 44.8808 46.6381 44.2713 47.3476C44.8284 47.1143 45.3808 46.881 46.0951 46.6476C46.476 46.5238 46.5713 46.5238 46.8617 46.4143C46.8617 46.4143 46.9855 46.1381 47.0189 45.8191C47.0284 45.7429 46.9808 45.4905 47.3046 44.9619C48.6093 42.8381 50.2093 41.1286 51.7665 39.1905C51.6474 38.8524 51.5808 38.4857 51.5522 38.2333C51.4855 37.6191 51.6808 37.1714 52.0474 36.6857C52.4427 36.1619 52.9046 35.6905 53.376 35.2333C53.5284 35.0857 53.957 34.6667 54.1522 34.4C54.1522 34.4 54.1522 34.3952 54.1522 34.3905H54.1617ZM61.3189 35.9952C61.3189 35.9952 61.776 36.7524 62.257 37.5381C62.3141 37.4095 62.3855 37.2762 62.4665 37.1333C62.4951 37.0857 62.5189 37.0381 62.5522 36.9905C62.5665 36.9667 62.5808 36.9429 62.5951 36.9191C62.6379 36.8476 62.6855 36.7714 62.7379 36.6952C62.7522 36.6714 62.7713 36.6429 62.7903 36.6191C62.8236 36.5667 62.857 36.5191 62.8951 36.4667C62.9332 36.4143 62.9665 36.3619 63.0046 36.3095C63.876 35.0857 65.1713 33.7238 66.0189 33.1571C66.1284 32.9857 66.2474 32.8048 66.376 32.6048C65.1998 32.8952 64.3236 33.181 63.6046 33.7C62.8855 34.2238 61.8665 35.1095 61.3189 35.9952ZM55.2379 28.9191C55.2379 28.9191 55.2141 28.8952 55.2046 28.8762C55.2141 28.8952 55.2284 28.9095 55.2379 28.9191ZM55.3284 28.7095C55.3284 28.7095 55.2903 28.681 55.2665 28.6714C55.2855 28.6857 55.3046 28.6952 55.3284 28.7095ZM55.1665 28.7286C55.1665 28.6905 55.1903 28.6571 55.2236 28.6429C55.1855 28.6571 55.1713 28.6905 55.1665 28.7286ZM55.2665 29.6429C55.2284 29.7762 55.1951 29.9095 55.1713 30.0429C55.1998 29.9095 55.2284 29.7762 55.2665 29.6429ZM56.1855 44.5048C56.1474 43.9429 56.0617 43.3667 55.8903 42.8238C55.7141 42.8048 54.9951 42.7429 54.2236 42.9952C54.0951 43.0381 53.9665 43.0857 53.8427 43.1476C53.7951 43.1714 53.7474 43.1952 53.6998 43.2191C53.6665 43.2333 53.6379 43.2524 53.6046 43.2714C53.5808 43.2857 53.5617 43.2952 53.5379 43.3095C53.5141 43.3238 53.4855 43.3429 53.4617 43.3572C53.4141 43.3857 53.3713 43.4191 53.3236 43.4524C53.3094 43.4619 53.2951 43.4762 53.2808 43.4857C53.2379 43.5191 53.1903 43.5571 53.1474 43.5952C52.9903 43.7381 52.8427 43.9048 52.7094 44.1C52.7094 44.2429 52.7093 44.381 52.7189 44.5238C52.7713 45.3524 52.9284 46.2095 53.3141 46.9476C53.5855 47.4619 54.0189 48.1048 54.6379 48.2095C54.8046 48.2381 54.9189 48.2238 55.0236 48.1667L55.0379 48.1571C55.1379 48.1 55.2236 48.0048 55.3284 47.8762C55.5427 47.6095 55.7189 47.3048 55.8379 46.9762C56.1284 46.181 56.2141 45.3476 56.1808 44.5048H56.1855ZM61.0141 40.1143C60.5332 39.5952 60.057 39.0762 59.576 38.5571C59.1094 39.4048 58.3903 40.1238 57.557 40.6143C57.0522 40.9143 56.4332 41.2143 55.8189 41.2476C56.4665 42.0905 56.7379 43.5191 56.7855 44.3095C56.7951 44.5905 56.7951 44.8857 56.776 45.181C58.9474 44.6714 60.6141 41.0476 61.0093 40.1191L61.0141 40.1143ZM62.4474 43.2095C62.857 42.1476 63.1713 40.8714 63.4189 40.4048C63.5379 40.1857 63.276 40.0476 63.1474 39.8571C62.8284 39.4048 62.5474 38.9286 62.2713 38.4476C61.7665 37.5667 61.2665 36.6476 60.6951 35.8095C60.3951 35.3714 60.0427 35.181 59.5903 34.9238C59.0855 34.6333 57.8903 33.9524 57.876 33.8762C57.8332 33.6048 57.8332 32.8952 57.7951 32.5238C56.8284 31.9952 56.9808 30.6619 56.3284 29.8524C56.1141 29.6333 55.9474 29.4619 55.7713 29.3048C55.7474 29.4095 55.7093 29.5095 55.6903 29.5476C55.2236 30.5286 55.257 31.881 55.4236 32.8143L55.4427 32.8905L55.5046 32.9429C55.5665 32.9524 55.6236 32.9571 55.6855 32.9571C55.9189 32.9714 56.1617 32.9476 56.3998 32.9191C56.6903 32.881 56.9808 32.8286 57.2427 32.8048C57.157 33.081 56.7713 32.9333 56.5713 33.081C56.3713 33.4429 56.1617 33.8191 55.8379 34.1238C55.8379 34.1238 55.8379 34.1286 55.8332 34.1286C55.7332 34.1286 55.3808 34.181 54.9665 34.2476C54.8093 35.1191 54.8284 36.0476 54.9713 36.9143C55.1141 37.7571 55.3808 38.8333 56.1046 39.3286C57.676 40.4095 58.3236 38.1952 58.1236 36.9095C58.1093 36.8286 58.7189 36.6857 58.7236 36.7C58.7379 36.781 58.7474 36.8619 58.7522 36.9476C59.0284 37.2524 59.2998 37.5619 59.5713 37.8714C59.5713 37.8619 59.5808 37.8571 59.5808 37.8524C59.5808 37.8571 59.576 37.8667 59.576 37.881C60.3522 38.7762 61.0998 39.6857 61.9046 40.5619C61.9094 40.5619 61.3236 44.5667 58.4808 46.781C58.7665 46.7714 59.8617 46.3476 60.3332 46.0857C60.7236 45.8667 61.9951 44.3952 62.4522 43.2L62.4474 43.2095ZM45.7236 49.3095C44.9808 49.0381 44.1522 48.7524 43.3093 48.9476C42.5141 49.5905 41.6713 50.2905 41.0236 51.1429C40.9474 52.1476 41.0903 53.0667 41.3427 53.9714L41.5046 54.3048C42.5046 53.9191 44.2855 53.2238 45.2332 52.6238C45.6522 50.9429 45.5998 50.681 45.7474 49.3762C45.7379 49.3095 45.7998 49.3381 45.7236 49.3048V49.3095ZM35.5617 67.0714L35.0808 66.4095L35.7046 65.9524L36.2189 66.6572L37.2379 65.9143L36.0474 64.2857L31.7332 67.4333L32.4093 68.3572L34.0617 67.1476L34.5427 67.8095L35.5617 67.0667V67.0714ZM44.0855 70.6619L41.8522 69.7095L41.3427 70.9095L41.9189 71.1572L40.3379 74.8714L41.3903 75.3191L42.9713 71.6048L43.576 71.8619L44.0855 70.6619ZM45.2951 74.3905C45.2665 74.5238 45.2379 74.7048 45.176 74.8429C45.1189 74.9762 45.0284 75.0714 44.8665 75.0381C44.7141 75.0048 44.6617 74.881 44.6617 74.7286C44.6617 74.581 44.6998 74.4048 44.7284 74.2667L45.3998 70.9762L44.2808 70.7476L43.5808 74.1714C43.4522 74.8048 43.2998 76.0952 44.5998 76.3619C45.8951 76.6286 46.2665 75.381 46.3951 74.7476L47.0951 71.3238L45.976 71.0952L45.2998 74.3905H45.2951ZM49.3332 71.3048L49.3713 72.6667C49.3903 73.281 49.4903 73.8905 49.5522 74.5048L49.5427 74.5191L48.5379 71.3286L47.4522 71.3619L47.6046 76.7L48.7046 76.6667L48.6617 75.1C48.6474 74.5953 48.5808 74.1048 48.5379 73.6L48.5474 73.5857L49.4903 76.6429L50.5903 76.6095L50.4379 71.2714L49.3379 71.3048H49.3332ZM57.2093 71.6714C56.9808 71.5191 56.7236 71.4333 56.4093 71.3572C56.3236 71.3286 56.2189 71.3048 56.1236 71.2572C56.0284 71.2095 55.9379 71.1476 55.8855 71.0476C55.7903 70.8667 55.876 70.6857 55.9951 70.6191C56.2284 70.4953 56.6141 70.6381 56.857 70.8143L56.1046 69.3762C55.8141 69.3429 55.5046 69.3905 55.257 69.5143C54.3951 69.9667 54.6427 71.1191 54.9332 71.6714C55.1141 72.0143 55.3332 72.2381 55.5713 72.3905C55.8189 72.5476 56.0903 72.6381 56.3903 72.7286C56.4855 72.7524 56.576 72.7762 56.657 72.8238C56.7427 72.8667 56.8141 72.9333 56.876 73.0429C56.9855 73.2476 56.8808 73.4381 56.7427 73.5143C56.4855 73.6524 56.1046 73.5143 55.8236 73.3238L56.5998 74.8048C56.9046 74.8048 57.2046 74.7333 57.4617 74.6C58.1665 74.2286 58.2855 73.2714 57.8236 72.3952C57.6379 72.0381 57.4379 71.8191 57.2093 71.6714ZM56.3665 68.9762L59.457 73.3333L60.3903 72.6714L57.2998 68.3143L56.3665 68.9762ZM60.1713 67.5048L59.2855 66.5476L57.5046 68.2L58.3903 69.1572L58.8522 68.7286L61.5998 71.6857L62.4379 70.9095L59.6903 67.9524L60.1713 67.5048ZM61.9474 65.2476L60.9141 64.4524L59.4332 66.3762L60.4665 67.1714L60.8474 66.6714L64.0474 69.1333L64.7427 68.2238L61.5427 65.7619L61.9427 65.2429L61.9474 65.2476ZM37.6094 70.1C36.6951 71.0286 35.3474 71.7524 34.5189 70.9381C33.6903 70.1238 34.3903 68.7667 35.3046 67.8333C36.2189 66.9048 37.5665 66.181 38.3951 66.9953C39.2236 67.8095 38.5236 69.1667 37.6094 70.1ZM37.4522 67.9572C37.1427 67.6524 36.3713 68.4143 36.1379 68.6524C35.9046 68.8905 35.157 69.6762 35.4665 69.9762C35.776 70.281 36.5474 69.5191 36.7808 69.281C37.0141 69.0429 37.7617 68.2572 37.4522 67.9572ZM39.5046 71.9238L38.976 74.2476L37.9474 73.5619L38.657 71.3572H38.6379C38.4951 71.5857 38.3617 71.8095 38.2141 72.0286L37.4236 73.2143L36.4713 72.581L39.4379 68.1381L40.357 68.7524C41.1808 69.3048 41.576 70.0095 40.7903 71.181C40.4617 71.6714 40.0046 71.9953 39.4998 71.9286L39.5046 71.9238ZM39.7522 69.7238L39.0189 70.8191L39.076 70.8667C39.3284 71.0333 39.6474 70.8476 39.8427 70.5619C40.0998 70.1714 40.0236 69.8857 39.7522 69.7286V69.7238ZM52.4903 70.7762L54.5808 75.7714L53.4284 76.0429L53.1903 75.3952L52.4427 75.5714L52.5046 76.2619L51.357 76.5286L51.1284 71.0952L52.4903 70.7762ZM52.7998 74.3191L52.3998 73.1381C52.2903 72.8191 52.1903 72.4953 52.0903 72.1762H52.0808C52.1236 72.5095 52.176 72.8476 52.2046 73.181L52.3332 74.4238L52.8046 74.3143L52.7998 74.3191ZM61.857 62.7476L66.9617 64.5572L66.3855 65.5905L65.7427 65.3286L65.3713 66L65.9236 66.4191L65.3522 67.4476L61.176 63.9667L61.8522 62.7476H61.857ZM62.6189 64C62.8951 64.1905 63.176 64.381 63.4474 64.581L64.457 65.3191L64.6903 64.8952L63.5474 64.4C63.2379 64.2667 62.9332 64.1238 62.6284 63.9857V63.9952L62.6189 64ZM65.9046 60.9143L68.2855 60.8191L67.8903 61.9952L65.5808 61.881L65.5903 61.8952C65.8427 61.9762 66.0903 62.0476 66.3427 62.1333L67.6903 62.5905L67.3236 63.6762L62.2617 61.9619L62.6141 60.9143C62.9332 59.9762 63.5141 59.4143 64.8474 59.8667C65.4046 60.0572 65.8379 60.4143 65.9046 60.9191V60.9143ZM64.4951 60.9429C64.0522 60.7952 63.7903 60.9429 63.7093 61.2476L64.957 61.6714L64.9855 61.6048C65.0808 61.3191 64.8189 61.0572 64.4903 60.9476L64.4951 60.9429ZM68.5998 59.0667L68.4474 60.0524L63.1713 59.2333L63.3141 58.3238C63.5141 57.0381 64.6427 56.5048 66.2379 56.7524C68.676 57.1333 68.7094 58.381 68.6046 59.0667H68.5998ZM66.1236 57.9143C65.5474 57.8238 64.7379 57.7905 64.657 58.3048L67.3427 58.7238C67.4141 58.2095 66.6189 57.9905 66.1189 57.9143H66.1236Z" fill="#00020F"/>
<path d="M42.4807 42.8143C34.4569 48.1 33.2712 57.5286 36.0664 62.6667L33.0188 64.7667C33.0188 64.7667 26.0569 50.8619 36.495 39.3095C41.214 34.0905 48.5997 32.0667 55.0521 31.3857C55.0521 31.8762 55.0855 32.3619 55.1188 32.8286C55.2474 33.3143 55.7807 33.1143 56.1474 33.181C56.1093 33.4238 55.6569 33.8524 55.6474 33.8524C54.8997 33.9762 54.1093 34.2 53.395 34.3905C53.1378 34.4619 52.6521 34.6571 52.414 34.8667C52.1474 35.1 51.8902 35.419 51.7045 35.719C50.9045 37.0095 50.1045 38.3048 49.3045 39.5952C49.2521 39.6762 49.1569 39.8286 49.0902 39.9333C47.595 40.3238 46.2283 40.8238 44.9902 41.4048C44.0902 41.819 43.2569 42.281 42.4807 42.8095V42.8143ZM61.8378 31.2048C61.8759 31.2286 61.914 31.2524 61.9521 31.2762C62.4521 31.6619 63.0474 32.1286 63.6712 31.7429C63.9855 31.581 64.3045 31.3571 64.6331 31.181C63.9331 31.1381 63.1474 31.1095 62.295 31.0905C62.1426 31.1333 61.9902 31.1714 61.8426 31.2048H61.8378ZM65.2236 31.6714C64.3664 32.0571 63.5617 33.0476 62.614 32.6714C62.695 32.7333 62.7759 32.8 62.8426 32.881C62.9664 32.9667 63.1426 33.2714 63.1759 33.381C62.6331 33.1429 62.3045 32.7857 61.5712 32.719C61.4093 32.7048 61.2283 32.7095 61.0378 32.7143C60.4807 32.9905 59.9426 33.4571 59.314 33.219C58.8616 33.119 58.6236 32.7476 58.1807 32.6857L58.0712 32.6667C58.1236 32.9714 58.114 33.4476 58.1855 33.7476C58.2093 33.7429 59.7236 34.6429 60.3569 34.981C60.6807 35.1524 60.9045 35.3714 61.0997 35.6429C61.7474 34.919 62.8664 33.781 63.6426 33.3333C64.4331 32.881 65.2997 32.4905 66.8855 32.2333C66.9045 32.2333 65.1902 34.919 64.6902 36.0667C64.2426 37.1 63.7426 38.1524 63.3474 39.2952C63.3664 39.3143 63.3855 39.3381 63.4045 39.3667C64.595 39.5238 65.8331 39.7238 67.114 39.9714C67.0521 37.2143 67.2997 34.3476 68.1331 31.5C68.1331 31.5 67.8902 31.4667 67.4426 31.4143C67.4188 31.4381 67.3902 31.4571 67.3617 31.4714C66.6474 31.9762 65.9569 31.4857 65.2236 31.6714Z" fill="#006747"/>
<path d="M56.2711 64.3905C56.8283 65.0333 57.7997 66 57.9807 66.1762C55.895 69.8857 42.6569 74.5952 36.0902 62.7095C36.0807 62.6952 36.0712 62.6762 36.0664 62.6619C33.2712 57.5286 34.4569 48.1 42.4807 42.8095C43.2521 42.3 44.0902 41.8286 44.9902 41.4048C46.2331 40.819 47.595 40.3238 49.0902 39.9333C48.3378 41.1429 47.5902 42.3571 46.8378 43.5667C46.7092 43.7714 46.5854 43.9667 46.4616 44.1571L45.2854 45.6762C44.7283 46.3238 44.1712 46.9714 43.6092 47.619C43.6045 47.6286 43.5997 47.6381 43.595 47.6524C40.2092 49.5619 38.0092 53.2714 38.2283 57.4191C38.5331 63.2524 43.514 67.8381 49.3473 67.5333C52.0616 67.3905 54.4807 66.2 56.2616 64.3857L56.2711 64.3905ZM63.914 40.2238C63.8188 40.4048 63.7235 40.5905 63.6283 40.7714C63.2854 41.4286 63.0664 42.4 62.695 43.2952C62.695 43.3048 62.6854 43.3143 62.6854 43.3238C65.2521 43.7333 67.2807 45.8905 67.4235 48.5857C67.5378 50.7238 66.4331 52.6476 64.7235 53.6905C66.0188 54.4429 67.4283 55.0667 68.9331 55.5571C68.9331 55.5381 68.9331 55.5191 68.9331 55.5C68.9331 51.9857 67.3807 46.6238 67.1378 40.7C67.1283 40.4571 67.1188 40.2143 67.114 39.9714C65.8331 39.7238 64.5997 39.5238 63.4092 39.3714C63.6331 39.6429 63.9807 40.0952 63.914 40.2238ZM65.2664 51.6571C65.8807 50.8905 66.2473 49.9143 66.2426 48.8619L63.4711 49.0095C63.4473 49.3 63.3521 49.5667 63.1997 49.8L65.2664 51.6571ZM66.2188 48.3905C66.1045 47.3476 65.6331 46.419 64.9331 45.7238L63.0759 47.7857C63.2569 47.9952 63.3854 48.2524 63.4426 48.5333L66.2188 48.3857V48.3905ZM61.3664 45.5381C61.1188 45.8476 60.8664 46.0905 60.6426 46.2048C60.2426 46.4 59.9616 46.5571 59.6807 46.681L60.7092 47.6095C60.9188 47.4286 61.1759 47.3 61.4569 47.2429L61.3664 45.5429V45.5381ZM58.7283 47.8619C58.914 48.181 59.114 48.4905 59.3235 48.7905L60.1235 48.7476C60.1473 48.4571 60.2426 48.1905 60.395 47.9571L59.1759 46.8619C58.9711 46.9191 58.7378 46.9667 58.4521 47C58.4331 47.0095 58.4235 47.0286 58.414 47.0476C58.3902 47.1286 58.4426 47.281 58.5092 47.4333C58.5997 47.6381 58.7188 47.8381 58.7283 47.8571V47.8619ZM60.5235 49.9714C60.3426 49.7619 60.214 49.5048 60.1569 49.2238L59.6569 49.2524C59.8854 49.5571 60.1235 49.8524 60.3759 50.1429L60.5283 49.9762L60.5235 49.9714ZM60.6902 50.4905C61.014 50.8429 61.3569 51.181 61.7188 51.5048L61.6664 50.5476C61.3759 50.5238 61.1092 50.4286 60.8759 50.2762L60.6854 50.4857L60.6902 50.4905ZM61.9283 47.2048C62.2188 47.2286 62.4854 47.3238 62.7188 47.4762L64.5759 45.4095C63.8854 44.8571 63.0331 44.5048 62.1045 44.4429C62.0092 44.6 61.9092 44.7619 61.8092 44.9238L61.9283 47.2048ZM62.214 51.9333C62.6426 52.2905 63.095 52.6333 63.5616 52.9524C64.0854 52.7238 64.5569 52.4048 64.9473 52.0048L62.8854 50.1476C62.6759 50.3286 62.4188 50.4571 62.1378 50.5143L62.214 51.9286V51.9333ZM47.4759 45.1286C47.3188 45.481 47.2378 46.119 47.2045 46.4143C47.5473 46.3619 47.8902 46.3238 48.2426 46.3095C48.914 46.2762 49.5759 46.3048 50.2188 46.3905C50.695 43.7048 51.4902 41.2476 52.1188 39.8571C52.0473 39.7714 51.9807 39.6619 51.9235 39.5476C50.7045 41.081 47.6283 44.781 47.4759 45.1286Z" fill="#FFD100"/>
<path d="M53.7524 64.981C53.7239 64.8905 53.7239 63.6238 53.6858 62.7381C53.9429 62.5524 54.1905 62.3619 54.4334 62.1619C55.0572 62.981 55.5524 63.5524 55.9382 64.0048C55.962 64.0333 55.9858 64.0572 56.0048 64.0857C55.3429 64.7619 54.5858 65.3429 53.762 65.8143C53.181 66.1429 52.5715 66.4143 51.9524 66.6191C51.1381 66.8857 50.2762 67.0524 49.381 67.1C43.7905 67.3952 39.0191 62.9952 38.7239 57.4048C38.6001 55.0238 39.3096 52.7905 40.5953 50.9905C40.5905 51.0191 40.581 51.0524 40.5762 51.0857C40.3334 52.3524 39.8286 55.8286 41.1858 58.9571L41.0905 59.2C40.7191 60.1476 40.3572 61.0429 40.3572 61.0429C40.3572 61.0429 40.8715 62.2524 41.2143 62.7476C41.6477 63.3762 42.2381 64.0905 42.8524 64.2667C43.3429 64.2286 44.4143 63.581 45.0572 63.1667C45.6953 63.5191 46.4143 63.8238 47.2286 64.0714C47.6191 64.1905 48.0001 64.2667 48.3715 64.3143C48.6858 64.981 49.3143 66.0619 49.6715 66.4C51.0572 66.4095 52.1191 65.9333 53.2858 65.3429C53.4286 65.2238 53.2858 65.4572 53.7572 64.981H53.7524ZM61.581 40.7238C61.3953 40.5191 61.2096 40.3191 61.0191 40.1191C60.6239 41.0476 58.9572 44.6762 56.7858 45.181C56.7381 45.9619 56.5667 46.7571 56.1477 47.3952C56.062 47.5286 55.9715 47.6429 55.8715 47.7429C55.9572 47.7095 56.0762 47.6667 56.2191 47.6048C56.3143 47.5667 56.4191 47.5191 56.5382 47.4667C56.5667 47.4524 56.5953 47.4381 56.6286 47.4238C56.6905 47.3952 56.7524 47.3667 56.8143 47.3333C56.8477 47.3191 56.881 47.3 56.9143 47.2857C56.9572 47.2619 57.0001 47.2381 57.0477 47.2143C57.0715 47.2 57.0953 47.1905 57.1191 47.1762C57.162 47.1524 57.2048 47.1286 57.2477 47.1048C57.2953 47.0762 57.3382 47.0524 57.3858 47.0238C58.962 46.0857 61.0715 44.2143 61.5905 40.7333C61.5858 40.7333 61.581 40.7286 61.5762 40.7238H61.581ZM55.9001 42.8238C55.8191 42.5667 55.7191 42.3191 55.5953 42.081C55.3239 41.5667 54.8905 40.9238 54.2715 40.8191C53.9382 40.7619 53.8001 40.8857 53.5858 41.1524C53.3715 41.4238 53.1953 41.7238 53.0762 42.0524C52.8381 42.7048 52.7239 43.4048 52.7191 44.1C53.7096 42.6381 55.5953 42.7905 55.8953 42.8238H55.9001ZM62.2667 37.5429C62.5572 38.0143 62.862 38.5048 63.0905 38.8571C63.4762 37.9571 63.7477 37.3048 64.0667 36.681C64.8286 35.1857 64.9858 34.7762 66.0239 33.1619C64.8667 33.9286 62.8858 36.181 62.2667 37.5429Z" fill="#B6B7B7"/>
<path d="M30.7095 11.3381L31.1143 12.0714L28.9 13.2952L29.2476 13.9286L31.2143 12.8429L31.6143 13.5714L29.6476 14.6572L30.1333 15.5333L29.2714 16.0095L27.6333 13.0429L30.7095 11.3429V11.3381Z" fill="white"/>
<path d="M36.3001 12.6238L35.762 12.1524L33.8286 12.9381L33.7715 13.6524L32.7905 14.0524L33.1334 10.2571L34.3905 9.74762L37.281 12.2286L36.3048 12.6238H36.3001ZM33.8953 12.1143L35.1334 11.6095L34.0143 10.6333L33.8953 12.1143Z" fill="white"/>
<path d="M41.3476 10.1762L40.7619 7.81906L41.7095 7.58572L42.5238 10.8762L41.1286 11.2238L38.6048 9.34763L39.1905 11.7048L38.2381 11.9429L37.4238 8.65239L38.8238 8.30477L41.3476 10.181V10.1762Z" fill="white"/>
<path d="M46.1191 6.96191L50.2001 6.79524L50.2334 7.62858L48.6858 7.69048L48.7906 10.2429L47.8096 10.281L47.7049 7.72858L46.1525 7.79048L46.1191 6.95715V6.96191Z" fill="white"/>
<path d="M51.3903 8.49525C51.4855 7.3762 52.3141 6.78096 53.7379 6.90477C55.1569 7.02858 55.876 7.75715 55.7807 8.87144C55.6855 9.99049 54.8522 10.5952 53.4331 10.4714C52.0093 10.3476 51.295 9.61906 51.3903 8.49525ZM54.7569 8.78572C54.8093 8.20001 54.5045 7.80953 53.6664 7.73811C52.8331 7.66668 52.4665 7.99049 52.4188 8.58572C52.3665 9.18096 52.676 9.57144 53.5045 9.64287C54.3379 9.7143 54.7093 9.38096 54.7617 8.79049L54.7569 8.78572Z" fill="white"/>
<path d="M61.6239 8.36667L59.6334 9.38095L60.881 11.6762L59.6763 11.4048L58.8096 9.80476L57.862 10.2857L57.7096 10.9571L56.7524 10.7381L57.5001 7.42857L58.462 7.64286L58.1286 9.12857L60.1953 8.0381L61.6334 8.36191L61.6239 8.36667Z" fill="white"/>
<path d="M66.3286 9.99524L66.0667 10.7191L63.6858 9.85715L63.5 10.3667L65.7905 11.1952L65.5286 11.9191L63.2381 11.0905L63.0524 11.6L65.4334 12.4571L65.1715 13.181L61.8667 11.9857L63.0191 8.79524L66.3238 9.99048L66.3286 9.99524Z" fill="white"/>
<path d="M69.7621 14.3524L70.8764 12.1905L71.7478 12.6381L70.1907 15.6524L68.9097 14.9905L68.2478 11.9095L67.1335 14.0714L66.2573 13.6191L67.8145 10.6048L69.1002 11.2667L69.7621 14.3476V14.3524Z" fill="white"/>
<path d="M27.395 85.4762C27.2474 85.719 27.395 86.0238 28.1569 86.4857C28.8569 86.9048 29.095 86.9 29.2045 86.719C29.3331 86.5095 29.2236 86.3905 28.395 85.8143C27.2665 85.0238 26.8903 84.4762 27.276 83.8333C27.6426 83.2286 28.4617 83.3476 29.4665 83.9524C30.5855 84.6238 31.0236 85.3524 30.6617 86.0143L29.7807 85.4857C29.9331 85.2286 29.7141 84.9619 29.0617 84.5714C28.4426 84.2 28.2426 84.219 28.1474 84.3762C28.0379 84.5571 28.1474 84.6952 28.895 85.2333C29.9141 85.9571 30.5617 86.4476 30.1045 87.2095C29.6569 87.9524 28.8379 87.7571 27.8045 87.1333C26.6284 86.4238 26.0903 85.7381 26.5093 84.9476L27.3903 85.4809L27.395 85.4762Z" fill="white"/>
<path d="M31.5236 87.1905C31.9712 86.1571 32.9426 85.8619 34.2569 86.4286C35.5664 86.9952 36.014 87.9143 35.5712 88.9429C35.1236 89.9762 34.1426 90.281 32.8331 89.7143C31.5188 89.1476 31.0759 88.2286 31.5236 87.1905ZM34.6283 88.5381C34.8616 87.9952 34.695 87.5333 33.9236 87.1952C33.1569 86.8619 32.7045 87.0571 32.4712 87.6C32.2331 88.1476 32.4045 88.6143 33.1664 88.9476C33.9331 89.281 34.395 89.081 34.6283 88.5333V88.5381Z" fill="white"/>
<path d="M39.3047 88.219C40.5047 88.5571 41.0428 89.2619 40.9047 90.1286L39.9 89.8476C39.919 89.5286 39.6857 89.1905 39.0809 89.0238C38.3809 88.8286 37.9476 89.0762 37.7857 89.6476C37.6238 90.2238 37.8714 90.6667 38.5666 90.8619C39.1714 91.0286 39.5476 90.8619 39.6952 90.5714L40.7 90.8524C40.3666 91.6714 39.5428 92 38.3381 91.6667C37.0285 91.3 36.4809 90.4905 36.7905 89.3714C37.1047 88.2571 37.9905 87.8524 39.3 88.219H39.3047Z" fill="white"/>
<path d="M43.3948 89.2286L42.7948 92.5619L41.8281 92.3857L42.4281 89.0524L43.3948 89.2286Z" fill="white"/>
<path d="M44.4189 91.1476C44.5094 90.0286 45.3332 89.4333 46.757 89.5476C48.176 89.6619 48.8999 90.3905 48.8046 91.5048C48.7141 92.6238 47.8856 93.2286 46.4618 93.1143C45.0379 93 44.3189 92.2714 44.4141 91.1476H44.4189ZM47.7856 91.4238C47.8332 90.8381 47.5284 90.4524 46.6903 90.381C45.857 90.3143 45.4951 90.6429 45.4427 91.2333C45.3951 91.8286 45.7046 92.2143 46.5332 92.2857C47.3665 92.3524 47.7379 92.019 47.7856 91.4238Z" fill="white"/>
<path d="M51.1188 92.0476C51.1331 92.3333 51.4235 92.5048 52.314 92.4571C53.1283 92.4143 53.3235 92.2762 53.3093 92.0619C53.295 91.8143 53.1426 91.781 52.1331 91.7667C50.7569 91.7429 50.1331 91.5 50.095 90.7476C50.0569 90.0429 50.8045 89.681 51.9759 89.6238C53.2807 89.5571 54.0521 89.9095 54.1188 90.6619L53.095 90.7143C53.0807 90.4143 52.7474 90.3191 51.9854 90.3571C51.2664 90.3952 51.1093 90.5238 51.1188 90.7048C51.1283 90.9143 51.295 90.9714 52.2188 91C53.4664 91.0286 54.2807 91.0714 54.3283 91.9619C54.3712 92.8286 53.5854 93.1238 52.3807 93.1857C51.0093 93.2571 50.1759 92.9857 50.0854 92.0952L51.114 92.0429L51.1188 92.0476Z" fill="white"/>
<path d="M55.7426 92.0429L56.6806 91.9048L56.7854 92.6333L55.8473 92.7714L55.7378 92.0429H55.7426Z" fill="white"/>
<path d="M59.4808 88.5381C60.6951 88.2429 61.5094 88.5952 61.8141 89.419L60.7999 89.6667C60.6618 89.3762 60.2903 89.2 59.6808 89.3476C58.9761 89.5191 58.7189 89.9476 58.857 90.5286C58.9999 91.1095 59.4332 91.3762 60.1332 91.2048C60.7427 91.0571 60.9903 90.7238 60.9761 90.3952L61.9903 90.1476C62.0999 91.0238 61.5427 91.719 60.3284 92.0143C59.0046 92.3381 58.1284 91.9 57.8522 90.7714C57.576 89.6476 58.1522 88.8619 59.4761 88.5381H59.4808Z" fill="white"/>
<path d="M63.1522 89.3952C62.7379 88.3476 63.2189 87.4524 64.5474 86.9238C65.8712 86.4 66.8427 86.7333 67.2522 87.7762C67.6665 88.8238 67.1855 89.7333 65.8617 90.2571C64.5331 90.7809 63.5665 90.4476 63.1522 89.3952ZM66.2998 88.1524C66.0855 87.6048 65.6379 87.3905 64.857 87.7C64.0808 88.0048 63.8951 88.4619 64.1141 89.0143C64.3331 89.5714 64.7855 89.7809 65.557 89.4762C66.3331 89.1714 66.5189 88.7048 66.2998 88.1524Z" fill="white"/>
<path d="M69.3381 88.6905L67.6333 85.7571L68.9571 84.9857L71.1095 86.3381L70.9952 83.8L72.319 83.0286L74.0238 85.9619L73.1762 86.4524L71.9428 84.3286L72.0762 87.0952L71.2904 87.5524L68.9524 86.0714L70.1904 88.1952L69.3381 88.6905Z" fill="white"/>
<path d="M23.019 81.8381C13.9952 74.181 8.2666 62.7571 8.2666 50C8.2666 37.2429 14.2999 25.2143 23.738 17.5619" stroke="#FFD100" stroke-miterlimit="10"/>
<path d="M76.2666 17.5667C85.7047 25.219 91.7333 36.9048 91.7333 50C91.7333 63.0952 86.0047 74.1857 76.9809 81.8429" stroke="#FFD100" stroke-miterlimit="10"/>
</g>
<defs>
<clipPath id="clip0_1124_12775">
<rect width="100" height="100" fill="white"/>
</clipPath>
</defs>
</svg>
