<svg width="100" height="100" viewBox="0 0 100 100" fill="none" xmlns="http://www.w3.org/2000/svg">
<g clip-path="url(#clip0_1124_13525)">
<path d="M50 100C77.6142 100 100 77.6142 100 50C100 22.3858 77.6142 0 50 0C22.3858 0 0 22.3858 0 50C0 77.6142 22.3858 100 50 100Z" fill="#004A98"/>
<path d="M50 2.53333C76.1714 2.53333 97.4667 23.8286 97.4667 50C97.4667 76.1714 76.1714 97.4667 50 97.4667C23.8286 97.4667 2.53333 76.1714 2.53333 50C2.53333 23.8286 23.8286 2.53333 50 2.53333ZM50 0C22.3857 0 0 22.3857 0 50C0 77.6143 22.3857 100 50 100C77.6143 100 100 77.6143 100 50C100 22.3857 77.6143 0 50 0Z" fill="#C10230"/>
<path d="M44.8618 25.7286C44.8618 24.0206 45.7157 23.1667 47.4237 23.1667C48.3808 23.1667 49.2142 23.6905 49.6523 24.4619H50.3427C50.7856 23.6857 51.6142 23.1667 52.5713 23.1667C54.2761 23.1667 55.13 24.0206 55.1332 25.7286C55.1332 27.0762 54.0951 28.1762 52.7808 28.2857C52.6332 28.6952 52.5523 29.1381 52.5523 29.5952C52.5523 31.7191 54.2713 33.4429 56.3951 33.4429C58.5189 33.4429 60.2427 31.7191 60.2427 29.5952C60.2427 28.1476 59.4427 26.8857 58.257 26.2286L59.157 24.4048C72.5094 28.1191 77.9856 42.2429 68.4903 59.4476C68.9808 60.0905 69.2713 60.8952 69.2713 61.7667C69.2713 63.8905 67.5475 65.6095 65.4237 65.6095C65.138 65.6095 64.8618 65.5762 64.5903 65.5191C61.8046 69.3238 58.2999 73.2286 54.0094 77.1667C50.2713 80.6 49.7189 80.5905 45.9903 77.1762C41.6951 73.2333 38.1856 69.3286 35.3999 65.5191C35.1332 65.5762 34.8523 65.6095 34.5665 65.6095C32.4427 65.6095 30.7237 63.8905 30.7237 61.7667C30.7237 60.8952 31.0142 60.0952 31.4999 59.4476C21.9999 42.2381 27.4761 28.1095 40.8332 24.4L41.7284 26.2238C40.5427 26.881 39.7475 28.1381 39.7475 29.5905C39.7475 31.7143 41.4665 33.4381 43.5903 33.4381C45.7142 33.4381 47.438 31.7143 47.438 29.5905C47.438 29.1286 47.357 28.6905 47.2094 28.2762C45.8951 28.1667 44.857 27.0667 44.857 25.7191L44.8618 25.7286Z" fill="#1D1E1C"/>
<path d="M64.8811 51.3524L65.6382 51.2V50.4429L64.8811 50.5905V51.3476V51.3524ZM36.0144 57.0952L38.062 56.6905V55.9952L36.8096 56.2476V52.3048L36.0144 52.4619V57.0952ZM38.5525 56.5905L40.7763 56.1476V55.4524L39.3477 55.7381V54.3762L40.3763 54.1714V53.4762L39.3477 53.681V52.4857L40.6811 52.219V51.5238L38.5525 51.9476V56.581V56.5905ZM43.0239 51.0667L42.4334 54.4L41.8525 51.3L41.0715 51.4571L42.043 55.9L42.8382 55.7429L43.8096 50.9143L43.0239 51.0714V51.0667ZM44.7144 55.3667L44.8572 54.3095L45.7287 54.1333L45.8715 55.1333L46.643 54.981L45.7858 50.5143L44.8001 50.7095L43.9477 55.5143L44.7192 55.3619L44.7144 55.3667ZM47.1049 54.8905L47.8239 54.7476L47.8382 51.8524L48.8525 54.5476L49.5477 54.4095V49.7762L48.8287 49.919L48.8144 52.5714L47.8477 50.1143L47.1096 50.2619V54.9L47.1049 54.8905ZM50.7811 50.2143V54.1571L51.5763 54V50.0571L52.3477 49.9048V49.2095L50.0096 49.6762V50.3714L50.7811 50.219V50.2143ZM52.8144 53.7524L55.0334 53.3095V52.6143L53.6096 52.9V51.5381L54.6382 51.3333V50.6381L53.6096 50.8429V49.6476L54.9477 49.381V48.6905L52.8144 49.1143V53.7476V53.7524ZM57.0906 48.2667V51.7333C57.0906 52.1333 57.1953 52.419 57.4096 52.5857C57.6287 52.7524 57.9287 52.7952 58.3096 52.7238C58.6906 52.6476 58.9906 52.481 59.2001 52.2286C59.4192 51.9762 59.5287 51.6476 59.5287 51.2476V47.7809L58.7334 47.9381V51.4381C58.7334 51.7762 58.5906 51.9714 58.3096 52.0286C58.0239 52.0857 57.8858 51.9429 57.8858 51.6048V48.1048L57.0906 48.2619V48.2667ZM60.2477 52.2762L61.0096 52.1238V51.3667L60.2477 51.519V52.2762ZM61.7239 47.3476V51.981L62.9049 51.7476C63.3239 51.6667 63.6334 51.4905 63.843 51.219C64.0573 50.9476 64.1668 50.5762 64.1668 50.0952V48.2571C64.1668 47.7809 64.062 47.4476 63.843 47.2619C63.6334 47.0762 63.3239 47.0286 62.9049 47.1095L61.7239 47.3429V47.3476ZM68.1049 45.4333C68.2715 47.3095 68.1477 49.3429 67.6858 51.5095L34.6144 58.0905C33.6953 56.1571 33.0192 54.2905 32.562 52.5048L68.1049 45.4333ZM44.9715 53.5905L45.3001 51.5333L45.6144 53.4619L44.9715 53.5905ZM62.5192 51.1667V47.8381L62.7953 47.7857L63.2382 47.8381C63.3239 47.9143 63.3668 48.0762 63.3668 48.319V50.3476C63.3668 50.5905 63.3239 50.7667 63.2382 50.881L62.7953 51.1095L62.5192 51.1667Z" fill="white"/>
<path d="M61.2951 64.9048C59.3665 67.5524 56.9951 70.2762 54.1379 73.0429V67.8333C54.9427 66.8857 55.4332 65.6572 55.4332 64.3191C55.4332 62.981 54.9474 61.7524 54.1379 60.8048V54.7714L61.2951 53.3476V64.9048ZM54.1379 41.1C54.4522 41.2095 54.7951 41.2667 55.1474 41.2667C55.4998 41.2667 55.8093 41.2 56.1332 41.1191C56.5332 42.0429 57.3617 42.7429 58.3665 42.9571L61.2998 43.5381V46.2191L54.1427 47.6429V41.1H54.1379ZM45.8713 73.0333C43.0141 70.2667 40.6379 67.5381 38.7094 64.8905V57.8381L45.8713 56.4143V60.8143C45.0713 61.7571 44.5903 62.981 44.5903 64.3143C44.5903 65.6476 45.0713 66.8667 45.8713 67.8143V73.0333ZM38.7094 43.5571C40.4046 43.2191 41.6474 42.9524 41.6474 42.9524C42.6522 42.7333 43.4808 42.0381 43.8808 41.1095C44.2046 41.1905 44.5284 41.2571 44.8665 41.2571C45.2046 41.2571 45.5522 41.2 45.8665 41.0952V49.281L38.7046 50.7048V43.5524L38.7094 43.5571Z" fill="#C10230"/>
<path fill-rule="evenodd" clip-rule="evenodd" d="M54.357 66.5048C54.3094 65.6429 53.4475 65.0952 52.3379 65.4048C52.3284 64.4095 51.2046 63.8952 50.0665 64.119C49.076 63.0095 49.4094 61.6476 51.2617 61.9381C52.3379 62.1048 53.9617 62.9238 54.8665 64.5952C54.8284 65.281 54.6475 65.9238 54.357 66.5048ZM45.957 67.0095C46.7189 67.381 47.6046 66.9048 47.8903 65.8048C48.757 66.3 49.7713 65.5857 50.1427 64.4857C51.5998 64.181 52.6141 65.1524 51.4379 66.6095C50.7617 67.4524 49.2522 68.4429 47.3665 68.4C46.8046 68.0381 46.3237 67.5619 45.957 67.0048V67.0095ZM47.1856 60.3571C46.457 61.9286 46.5808 63.5714 46.9665 64.5571C47.1379 65 47.3475 65.3286 47.576 65.5571C47.2951 67.0333 45.8665 67.2905 45.3094 65.5571C45.2046 65.1619 45.1475 64.7429 45.1475 64.3143C45.1475 62.681 45.9522 61.2381 47.1856 60.3524V60.3571ZM49.7332 59.4571C48.9998 59.9238 48.957 60.9476 49.776 61.7571C48.9189 62.2619 49.0332 63.4952 49.7998 64.3667C49.3332 65.781 47.9903 66.1714 47.3141 64.4238C46.9189 63.4095 46.8189 61.6 47.8094 59.981C48.3951 59.681 49.0475 59.5 49.7379 59.4571H49.7332ZM54.8617 63.8762C53.8665 62.4524 52.3713 61.7381 51.3284 61.5762C50.8522 61.5 50.4665 61.519 50.1522 61.6048C48.9856 60.6 49.5332 59.1905 51.4189 59.6762C51.9951 59.8238 52.9332 60.3143 53.6998 61.1476C54.3427 61.8952 54.7617 62.8381 54.857 63.8762H54.8617ZM51.3665 68.9905C50.9379 69.1143 50.4856 69.181 50.0141 69.181C49.2951 69.181 48.6141 69.0238 48.0046 68.7476C49.7189 68.5857 51.0713 67.6619 51.7332 66.8429C52.0332 66.4714 52.2141 66.1238 52.2951 65.8095C53.7522 65.2952 54.7046 66.4762 53.3379 67.8714L53.2808 67.9286L52.876 68.2571C52.4284 68.5857 51.9189 68.8381 51.3713 68.9905H51.3665ZM51.3665 68.9905C51.9141 68.8333 52.4189 68.581 52.8713 68.2571C52.4903 68.5286 51.9713 68.8048 51.3665 68.9905Z" fill="#B47F00"/>
<path d="M46.4239 60.2476V56.3L53.581 54.8762V60.2381C52.6286 59.4 51.3762 58.8952 50.0096 58.8952C48.6429 58.8952 47.381 59.4095 46.4239 60.2476ZM38.1524 64.1095C36.8381 62.2286 35.7429 60.3857 34.8572 58.6L38.1524 57.9429V64.1095ZM53.5762 73.5714C53.2524 73.8762 52.9239 74.1857 52.5858 74.4952C52.3191 74.7381 50.481 76.6095 50.0429 76.6238C49.5715 76.6381 47.6858 74.7429 47.4191 74.4952C47.0762 74.1857 46.7477 73.8714 46.4191 73.5619V68.3762C47.3715 69.2191 48.6286 69.7286 50.0048 69.7286C51.381 69.7286 52.6239 69.2238 53.5762 68.3857V73.5714ZM67.5477 52.1C66.6667 55.7952 64.8334 59.8524 61.8429 64.1238V53.2333L67.5477 52.1ZM32.4238 51.9619C31.7381 48.9952 31.6715 46.2619 32.1239 43.8429C32.5524 41.5571 33.7286 40.4381 34.5762 40.4381C34.981 40.4381 35.3096 40.7667 35.3096 41.1714C35.3096 41.5762 34.9905 41.9048 34.5572 41.9048H33.9953L34.0239 44.3048C34.0239 44.3048 34.8334 44.3048 35.6953 44.1429C36.5381 43.9857 37.381 43.8238 38.1524 43.6714V50.8238L32.4286 51.9619H32.4238ZM61.8429 43.6524L64.3096 44.1429C64.9334 44.2667 65.4905 44.3191 65.981 44.3048L66.0096 41.9048H65.4477C65.0191 41.9048 64.6953 41.5714 64.6953 41.1714C64.6953 40.7714 65.0238 40.4381 65.4286 40.4381C66.2762 40.4381 67.4524 41.5571 67.881 43.8429C67.9477 44.181 68 44.5238 68.0429 44.8762L61.8477 46.1095V43.6476L61.8429 43.6524ZM46.4191 40.8524C46.7048 40.6857 46.9619 40.481 47.181 40.2333C47.9429 40.8667 48.9286 41.2524 50 41.2524C51.0762 41.2524 52.0572 40.8667 52.8239 40.2333C53.0381 40.4714 53.2905 40.681 53.5762 40.8429V47.7524L46.4191 49.1762V40.8524Z" fill="#004A98"/>
<path d="M60.6806 26.4714C67.8711 29.2571 72.2282 35.6952 71.733 44.3667C71.6235 38.3333 68.8473 33.5857 64.2663 30.7952L63.9425 30.6095C63.3473 33.5619 60.9187 35.8572 57.7806 35.8572C55.9235 35.8572 54.3044 35.0857 53.1997 33.8714C54.0854 34.5286 55.1806 34.9143 56.3663 34.9143C59.3092 34.9143 61.6901 32.5286 61.6901 29.5905C61.6901 28.4238 61.314 27.3476 60.6806 26.4667V26.4714ZM39.2854 26.4714C38.6473 27.3476 38.2759 28.4286 38.2759 29.5952C38.2759 32.5333 40.6616 34.9191 43.5997 34.9191C44.7854 34.9191 45.8806 34.5286 46.7663 33.8762C45.6616 35.0905 44.0425 35.8619 42.1854 35.8619C39.0521 35.8619 36.6235 33.5667 36.0235 30.6143L35.7044 30.8C31.1235 33.5905 28.3473 38.3381 28.233 44.3714C27.7378 35.7 32.0949 29.2619 39.2854 26.4762V26.4714Z" fill="#98989A"/>
<path d="M50.0044 40.7C48.8473 40.7 47.814 40.1905 47.1092 39.3905C46.6711 40.1762 45.8282 40.7095 44.8616 40.7095L44.2235 40.6286C44.2806 40.3857 44.3092 40.1333 44.3092 39.8714L44.2521 39.2714L44.8616 39.4238C45.5711 39.4238 46.1473 38.8476 46.1473 38.1381V37.2714H47.4663C47.6711 38.481 48.7235 39.4048 49.9949 39.4048C51.2663 39.4048 52.3235 38.481 52.5235 37.2714H53.8473V38.1381C53.8473 38.8476 54.4187 39.4238 55.1282 39.4238L55.733 39.2714L55.6806 39.8714C55.6806 40.1333 55.7092 40.3857 55.7663 40.6286L55.133 40.7095C54.1663 40.7095 53.3282 40.1762 52.8854 39.3905C52.1806 40.1952 51.1473 40.7 49.9901 40.7H50.0044ZM35.8663 41.1714C35.8663 40.4619 35.2901 39.8857 34.5806 39.8857C33.2949 39.8857 32.0187 41.4143 31.5854 43.7429C30.0711 51.8238 34.1949 63.1143 47.052 74.9048C50.4282 78.0048 49.7425 77.8667 52.9663 74.9048C65.8235 63.1143 69.9425 51.8238 68.433 43.7429C67.9997 41.4143 66.7235 39.8857 65.433 39.8857C64.7235 39.8857 64.1473 40.4619 64.1473 41.1714C64.1473 41.881 64.7235 42.4571 65.4568 42.4571L65.4425 43.7476C64.0187 43.7476 62.8663 42.5952 62.8663 41.1714C62.8663 39.7476 64.0187 38.5952 65.4473 38.5952C68.0092 38.6048 69.1187 41.1857 69.5711 43.7333C71.0759 52.319 66.5616 63.9286 53.714 75.7143C49.7473 79.3524 50.2616 79.3524 46.2997 75.7143C33.4521 63.9286 28.9378 52.319 30.4473 43.7333C30.8949 41.1857 32.0044 38.6048 34.5663 38.5952C35.9997 38.5952 37.1473 39.7476 37.1473 41.1714C37.1473 42.5952 35.9949 43.7476 34.5711 43.7476L34.5568 42.4571C35.2901 42.4571 35.8663 41.881 35.8663 41.1714ZM40.714 37.3048L40.9806 37.281C42.414 37.281 43.5759 38.4429 43.5759 39.8762C43.5759 41.1191 42.6997 42.1619 41.533 42.4143L41.4425 42.4333L37.1187 43.2952C37.5949 42.7191 37.8806 41.981 37.8806 41.181C37.8806 39.9 37.1521 38.7857 36.0854 38.2333L40.7092 37.3143L40.714 37.3048ZM59.2949 37.3048L63.9187 38.2238C62.8568 38.7762 62.1235 39.8905 62.1235 41.1714C62.1235 41.9762 62.4092 42.7143 62.8854 43.2857L58.5616 42.4238L58.4759 42.4048C57.3092 42.1524 56.433 41.1143 56.433 39.8667C56.433 38.4333 57.5949 37.2714 59.0282 37.2714L59.2949 37.2952V37.3048Z" fill="#FFB71B"/>
<path d="M30.7095 11.3381L31.1143 12.0714L28.9 13.2952L29.2476 13.9286L31.2143 12.8429L31.6143 13.5714L29.6476 14.6572L30.1333 15.5333L29.2714 16.0095L27.6333 13.0429L30.7095 11.3429V11.3381Z" fill="white"/>
<path d="M36.3001 12.6238L35.762 12.1524L33.8286 12.9381L33.7715 13.6524L32.7905 14.0524L33.1334 10.2571L34.3905 9.74762L37.281 12.2286L36.3048 12.6238H36.3001ZM33.8953 12.1143L35.1334 11.6095L34.0143 10.6333L33.8953 12.1143Z" fill="white"/>
<path d="M41.3476 10.1762L40.7619 7.81906L41.7095 7.58572L42.5238 10.8762L41.1286 11.2238L38.6048 9.34763L39.1905 11.7048L38.2381 11.9429L37.4238 8.65239L38.8238 8.30477L41.3476 10.181V10.1762Z" fill="white"/>
<path d="M46.1191 6.96191L50.2001 6.79524L50.2334 7.62858L48.6858 7.69048L48.7906 10.2429L47.8096 10.281L47.7049 7.72858L46.1525 7.79048L46.1191 6.95715V6.96191Z" fill="white"/>
<path d="M51.3903 8.49525C51.4855 7.3762 52.3141 6.78096 53.7379 6.90477C55.1569 7.02858 55.876 7.75715 55.7807 8.87144C55.6855 9.99049 54.8522 10.5952 53.4331 10.4714C52.0093 10.3476 51.295 9.61906 51.3903 8.49525ZM54.7569 8.78572C54.8093 8.20001 54.5045 7.80953 53.6664 7.73811C52.8331 7.66668 52.4665 7.99049 52.4188 8.58572C52.3665 9.18096 52.676 9.57144 53.5045 9.64287C54.3379 9.7143 54.7093 9.38096 54.7617 8.79049L54.7569 8.78572Z" fill="white"/>
<path d="M61.6239 8.36667L59.6334 9.38095L60.881 11.6762L59.6763 11.4048L58.8096 9.80476L57.862 10.2857L57.7096 10.9571L56.7524 10.7381L57.5001 7.42857L58.462 7.64286L58.1286 9.12857L60.1953 8.0381L61.6334 8.36191L61.6239 8.36667Z" fill="white"/>
<path d="M66.3286 9.99524L66.0667 10.7191L63.6858 9.85715L63.5 10.3667L65.7905 11.1952L65.5286 11.9191L63.2381 11.0905L63.0524 11.6L65.4334 12.4571L65.1715 13.181L61.8667 11.9857L63.0191 8.79524L66.3238 9.99048L66.3286 9.99524Z" fill="white"/>
<path d="M69.7621 14.3524L70.8764 12.1905L71.7478 12.6381L70.1907 15.6524L68.9097 14.9905L68.2478 11.9095L67.1335 14.0714L66.2573 13.6191L67.8145 10.6048L69.1002 11.2667L69.7621 14.3476V14.3524Z" fill="white"/>
<path d="M27.395 85.4762C27.2474 85.719 27.395 86.0238 28.1569 86.4857C28.8569 86.9048 29.095 86.9 29.2045 86.719C29.3331 86.5095 29.2236 86.3905 28.395 85.8143C27.2665 85.0238 26.8903 84.4762 27.276 83.8333C27.6426 83.2286 28.4617 83.3476 29.4665 83.9524C30.5855 84.6238 31.0236 85.3524 30.6617 86.0143L29.7807 85.4857C29.9331 85.2286 29.7141 84.9619 29.0617 84.5714C28.4426 84.2 28.2426 84.219 28.1474 84.3762C28.0379 84.5571 28.1474 84.6952 28.895 85.2333C29.9141 85.9571 30.5617 86.4476 30.1045 87.2095C29.6569 87.9524 28.8379 87.7571 27.8045 87.1333C26.6284 86.4238 26.0903 85.7381 26.5093 84.9476L27.3903 85.4809L27.395 85.4762Z" fill="white"/>
<path d="M31.5236 87.1905C31.9712 86.1571 32.9426 85.8619 34.2569 86.4286C35.5664 86.9952 36.014 87.9143 35.5712 88.9429C35.1236 89.9762 34.1426 90.281 32.8331 89.7143C31.5188 89.1476 31.0759 88.2286 31.5236 87.1905ZM34.6283 88.5381C34.8616 87.9952 34.695 87.5333 33.9236 87.1952C33.1569 86.8619 32.7045 87.0571 32.4712 87.6C32.2331 88.1476 32.4045 88.6143 33.1664 88.9476C33.9331 89.281 34.395 89.081 34.6283 88.5333V88.5381Z" fill="white"/>
<path d="M39.295 88.2143C40.495 88.5524 41.0331 89.2571 40.895 90.1238L39.8902 89.8429C39.9093 89.5238 39.6759 89.1857 39.0712 89.0191C38.3712 88.8238 37.9378 89.0714 37.7759 89.6429C37.614 90.2191 37.8616 90.6619 38.5569 90.8571C39.1616 91.0238 39.5378 90.8571 39.6854 90.5667L40.6902 90.8476C40.3569 91.6667 39.5331 91.9952 38.3283 91.6619C37.0188 91.2952 36.4712 90.4857 36.7807 89.3667C37.095 88.2524 37.9807 87.8476 39.2902 88.2143H39.295Z" fill="white"/>
<path d="M43.3948 89.2286L42.7948 92.5619L41.8281 92.3857L42.4281 89.0524L43.3948 89.2286Z" fill="white"/>
<path d="M44.4189 91.1476C44.5094 90.0286 45.3332 89.4333 46.757 89.5476C48.176 89.6619 48.8999 90.3905 48.8046 91.5048C48.7141 92.6238 47.8856 93.2286 46.4618 93.1143C45.0379 93 44.3189 92.2714 44.4141 91.1476H44.4189ZM47.7856 91.4238C47.8332 90.8381 47.5284 90.4524 46.6903 90.381C45.857 90.3143 45.4951 90.6429 45.4427 91.2333C45.3951 91.8286 45.7046 92.2143 46.5332 92.2857C47.3665 92.3524 47.7379 92.019 47.7856 91.4238Z" fill="white"/>
<path d="M51.1188 92.0476C51.1331 92.3333 51.4235 92.5048 52.314 92.4571C53.1283 92.4143 53.3235 92.2762 53.3093 92.0619C53.295 91.8143 53.1426 91.781 52.1331 91.7667C50.7569 91.7429 50.1331 91.5 50.095 90.7476C50.0569 90.0429 50.8045 89.681 51.9759 89.6238C53.2807 89.5571 54.0521 89.9095 54.1188 90.6619L53.095 90.7143C53.0807 90.4143 52.7474 90.3191 51.9854 90.3571C51.2664 90.3952 51.1093 90.5238 51.1188 90.7048C51.1283 90.9143 51.295 90.9714 52.2188 91C53.4664 91.0286 54.2807 91.0714 54.3283 91.9619C54.3712 92.8286 53.5854 93.1238 52.3807 93.1857C51.0093 93.2571 50.1759 92.9857 50.0854 92.0952L51.114 92.0429L51.1188 92.0476Z" fill="white"/>
<path d="M55.7426 92.0429L56.6806 91.9048L56.7854 92.6333L55.8473 92.7714L55.7378 92.0429H55.7426Z" fill="white"/>
<path d="M59.4808 88.5381C60.6951 88.2429 61.5094 88.5952 61.8141 89.419L60.7999 89.6667C60.6618 89.3762 60.2903 89.2 59.6808 89.3476C58.9761 89.5191 58.7189 89.9476 58.857 90.5286C58.9999 91.1095 59.4332 91.3762 60.1332 91.2048C60.7427 91.0571 60.9903 90.7238 60.9761 90.3952L61.9903 90.1476C62.0999 91.0238 61.5427 91.719 60.3284 92.0143C59.0046 92.3381 58.1284 91.9 57.8522 90.7714C57.576 89.6476 58.1522 88.8619 59.4761 88.5381H59.4808Z" fill="white"/>
<path d="M63.1522 89.3952C62.7379 88.3476 63.2189 87.4524 64.5474 86.9238C65.8712 86.4 66.8427 86.7333 67.2522 87.7762C67.6665 88.8238 67.1855 89.7333 65.8617 90.2571C64.5331 90.7809 63.5665 90.4476 63.1522 89.3952ZM66.2998 88.1524C66.0855 87.6048 65.6379 87.3905 64.857 87.7C64.0808 88.0048 63.8951 88.4619 64.1141 89.0143C64.3331 89.5714 64.7855 89.7809 65.557 89.4762C66.3331 89.1714 66.5189 88.7048 66.2998 88.1524Z" fill="white"/>
<path d="M69.3332 88.6952L67.6284 85.7619L68.9522 84.9905L71.1046 86.3429L70.9903 83.8048L72.3141 83.0333L74.0189 85.9667L73.1713 86.4571L71.9379 84.3333L72.0713 87.1L71.2856 87.5571L68.9475 86.0762L70.1856 88.2L69.3332 88.6952Z" fill="white"/>
<path d="M23.019 81.8381C13.9952 74.181 8.2666 62.7571 8.2666 50C8.2666 37.2429 14.2999 25.2143 23.738 17.5619" stroke="#C10230" stroke-miterlimit="10"/>
<path d="M76.2666 17.5667C85.7047 25.219 91.7333 36.9048 91.7333 50C91.7333 63.0952 86.0047 74.1857 76.9809 81.8429" stroke="#C10230" stroke-miterlimit="10"/>
</g>
<defs>
<clipPath id="clip0_1124_13525">
<rect width="100" height="100" fill="white"/>
</clipPath>
</defs>
</svg>
