<svg width="100" height="100" viewBox="0 0 100 100" fill="none" xmlns="http://www.w3.org/2000/svg">
<g clip-path="url(#clip0_1124_18203)">
<path d="M50 100C77.6142 100 100 77.6142 100 50C100 22.3858 77.6142 0 50 0C22.3858 0 0 22.3858 0 50C0 77.6142 22.3858 100 50 100Z" fill="#008E70"/>
<path d="M50 2.53333C76.1714 2.53333 97.4667 23.8286 97.4667 50C97.4667 76.1714 76.1714 97.4667 50 97.4667C23.8286 97.4667 2.53333 76.1714 2.53333 50C2.53333 23.8286 23.8286 2.53333 50 2.53333ZM50 0C22.3857 0 0 22.3857 0 50C0 77.6143 22.3857 100 50 100C77.6143 100 100 77.6143 100 50C100 22.3857 77.6143 0 50 0Z" fill="#33CC99"/>
<path d="M50.4239 38.2571C50.4239 36.6571 46.6144 35.2143 43.043 34.7238C42.4096 35.7571 42.043 36.9667 42.043 38.2571C42.043 39.5476 42.4096 40.7572 43.043 41.7905C46.6144 41.3 50.4239 39.8571 50.4239 38.2571Z" fill="white"/>
<path d="M49.062 31.4C46.6334 31.4 44.4953 32.6048 43.2334 34.4333C48.9429 34.7191 54.3429 35.8667 54.262 38.2619C54.3429 40.6524 48.8763 41.8286 43.2334 42.0905C44.5001 43.9191 46.6334 45.1191 49.062 45.1191C52.9429 45.1191 56.081 42.0476 56.081 38.2619C56.081 34.4762 52.9382 31.4 49.062 31.4Z" fill="white"/>
<path d="M77.1093 52.2333C76.8521 52.2333 76.1712 52.2238 76.0236 52.2048V49.4095C76.4045 49.3714 77.2998 49.3857 77.6807 49.4572C78.5141 49.6191 79.0283 50.1 79.0283 50.8667C79.0283 51.3667 78.776 52.2333 77.1045 52.2333M79.7045 49.3095C79.1188 48.9476 78.2236 48.7667 76.9426 48.7667H73.9712C74.4426 48.9524 74.5807 49.1952 74.5807 49.9286V55.9286H76.0188V52.8333C76.8807 52.9286 78.4617 52.8619 79.0664 52.6524C80.2521 52.2476 80.614 51.481 80.614 50.8524C80.614 50.2238 80.3283 49.6857 79.7045 49.3" fill="white"/>
<path d="M81.6191 49.4238V49.1429H81.7953C81.8906 49.1429 81.9811 49.1714 81.9811 49.281C81.9811 49.4191 81.8668 49.4238 81.743 49.4238H81.6144H81.6191ZM81.6191 49.5048H81.7858L82.0096 49.8619H82.1239L81.8906 49.5048C81.9953 49.4905 82.0906 49.4238 82.0906 49.281C82.0906 49.1381 82.0096 49.0572 81.8334 49.0572H81.5239V49.8619H81.6239V49.5048H81.6191ZM81.7668 48.7667C81.3811 48.7667 81.0811 49.0714 81.0811 49.4619C81.0811 49.8524 81.3811 50.1572 81.7668 50.1572C82.1525 50.1572 82.4572 49.8524 82.4572 49.4619C82.4572 49.0714 82.1572 48.7667 81.7668 48.7667ZM81.7668 48.8667C82.1049 48.8667 82.3477 49.1286 82.3477 49.4667C82.3477 49.8048 82.1049 50.0619 81.7668 50.0619C81.4287 50.0619 81.1906 49.8 81.1906 49.4667C81.1906 49.1333 81.4382 48.8667 81.7668 48.8667Z" fill="white"/>
<path d="M64.0333 54.9429V54.1238C63.3428 54.8857 62.1571 55.3238 61.0571 55.3238C59.1381 55.3238 57.8047 54.1857 57.8047 52.2381C57.8047 50.2905 59.1428 49.1952 61.0619 49.1952C62.2857 49.1952 63.1381 49.6238 63.8714 50.4857L63.7476 48.9286C62.8476 48.7238 62.0857 48.5667 61.0428 48.5667C59.5714 48.5667 58.1666 48.9667 57.2571 49.8333C56.5381 50.5095 56.1143 51.4143 56.1143 52.2619C56.1143 53.1095 56.5381 54.0143 57.2571 54.6952C58.1381 55.5286 59.4714 55.9857 60.7476 55.981C62.0285 55.981 63.2428 55.5952 64.0333 54.9429Z" fill="white"/>
<path d="M42.2334 48.7238C42.7001 48.9095 42.8382 49.1476 42.8382 49.8762V55.9333H44.262V48.7238H42.2334Z" fill="white"/>
<path d="M47.876 50.8143C47.3808 50.3238 47.4855 49.1905 49.0951 49.1905C50.4855 49.1905 51.2236 49.9714 51.2236 49.9714L51.1236 48.8048C51.1236 48.8048 50.1808 48.5572 49.076 48.5572C47.2665 48.5572 46.4427 49.5619 46.4427 50.481C46.4427 52.5429 49.1903 52.6286 50.1427 53.6C50.6427 54.1095 50.6189 55.3429 48.8903 55.3429C47.1617 55.3429 46.2046 54.2333 46.2046 54.2333L46.3046 55.481C46.3046 55.481 47.5903 55.9905 48.8903 55.9905C50.6332 55.9905 51.6903 55.1191 51.6903 53.8572C51.6903 51.981 48.8808 51.8143 47.8713 50.8191" fill="white"/>
<path d="M36.0096 49.5429L38.081 53.7143L40.3191 48.7238H41.1524L37.7429 56.1762C37.7429 56.1762 34.8096 50.4857 34.4905 49.8762C34.1143 49.1476 33.8572 48.9095 33.2905 48.7238H35.6429C35.7191 48.9571 35.8381 49.2381 36.0048 49.5429" fill="white"/>
<path d="M22.8333 54.9667C22.1905 55.2714 20.5381 55.3333 19.5905 55.2714V49.4333C20.7428 49.3191 22.019 49.5191 22.6428 49.8429C23.2905 50.1762 24.3762 50.9667 24.3762 52.5333C24.3762 53.6429 23.8143 54.5 22.8286 54.9619M25.2667 50.3333C24.3809 49.4095 22.7809 48.7667 20.319 48.7667H17.5381C18.0095 48.9524 18.1428 49.1952 18.1428 49.9333V55.9333H20.5667C22.7667 55.9333 24.2571 55.4048 25.2048 54.481C25.7857 53.9143 26.119 53.1667 26.119 52.3476C26.119 51.6238 25.8286 50.9238 25.2619 50.3333" fill="white"/>
<path d="M72.4522 52.9048C72.4522 54.0048 72.2379 54.5953 71.7998 55.0857C71.1855 55.7762 70.2141 56.0905 69.2903 56.0953C68.7188 56.0953 68.1522 55.9857 67.6569 55.7952C66.495 55.3429 65.9093 54.4524 65.9093 52.981V49.9333C65.9093 49.1953 65.7712 48.9572 65.2998 48.7667H67.3474V52.9429C67.3474 53.9333 67.4998 54.3381 67.8284 54.7C68.2189 55.1381 68.8331 55.3143 69.4617 55.3143C70.0903 55.3143 70.7522 55.1429 71.1855 54.6762C71.5046 54.3333 71.6855 53.8762 71.6855 52.8619V48.7619H72.4474V52.9L72.4522 52.9048Z" fill="white"/>
<path d="M29.8955 50.2238L31.3097 53.2286H28.5859L29.8907 50.2238H29.8955ZM32.6764 55.9333H34.3574C33.1859 53.5667 30.7955 48.7714 30.7955 48.7667H29.024C29.1717 48.8095 29.2859 48.9714 29.3193 49.0905C29.405 49.381 29.3193 49.7952 29.0907 50.3L26.5859 55.9381H27.424L28.324 53.8952H31.6621L32.6764 55.9381V55.9333Z" fill="white"/>
<path d="M41.0239 67.1524L42.4715 68.6L59.2049 67.1524H41.0239Z" fill="white"/>
<path d="M41.6569 65.1619C41.0284 65.1619 40.5712 64.5429 40.5712 63.7619C40.5712 62.981 41.0331 62.3619 41.6569 62.3619C42.2807 62.3619 42.7284 62.981 42.7284 63.7619C42.7284 64.5429 42.2855 65.1619 41.6569 65.1619ZM42.7093 61.2952V61.5143C42.3712 61.3 42.0712 61.1762 41.6569 61.1762C40.3855 61.1762 39.4141 62.3381 39.4141 63.7619C39.4141 65.1857 40.3807 66.3476 41.6569 66.3476C42.0712 66.3476 42.376 66.2238 42.7093 66.0095V66.2286H43.8284V61.2952H42.7093Z" fill="white"/>
<path d="M51.6764 61.2952V64.1952C51.6764 64.7381 51.305 65.2 50.7573 65.2C50.2097 65.2 49.8383 64.7429 49.8383 64.1952V61.2952H48.7192V64.1952C48.7192 65.3857 49.5335 66.3524 50.724 66.3524C51.2764 66.3524 51.6764 66.0476 51.6764 66.0476V66.2286H52.7954V61.2952H51.6764Z" fill="white"/>
<path d="M62.1093 66.2286V63.3286C62.1093 62.7857 62.4807 62.3238 63.0283 62.3238C63.5759 62.3238 63.9474 62.781 63.9474 63.3286V66.2286H65.0664V63.3286C65.0664 62.1381 64.2521 61.1714 63.0617 61.1714C62.5093 61.1714 62.1093 61.4762 62.1093 61.4762V61.2952H60.9902V66.2286H62.1093Z" fill="white"/>
<path d="M36.1857 61.2381H36.9476C37.4714 61.2381 37.9048 61.6667 37.9048 62.1905C37.9048 62.7143 37.4762 63.1476 36.9476 63.1476H36.1857V61.2381ZM36.1857 66.2286V64.3191H37.0143L38.4476 66.2286H39.9143L38.1809 63.9238C38.719 63.5381 39.0762 62.9048 39.0762 62.1905C39.0762 61.0191 38.1238 60.0667 36.9524 60.0667H35.019V66.2286H36.1905H36.1857Z" fill="white"/>
<path d="M55.8145 65.0619C55.7145 65.1286 55.5859 65.181 55.4383 65.181C55.2573 65.181 54.9097 65.0429 54.9097 64.5762V62.4667H55.8669V61.2952H54.9097V60.0667H53.7907V61.2952H53.2002V62.4667H53.7907V64.5952C53.7907 65.6952 54.6192 66.3524 55.4526 66.3524C55.7621 66.3524 56.1954 66.2524 56.5478 66.0429L55.8097 65.0619H55.8145Z" fill="white"/>
<path d="M46.6144 63.6095L48.5335 61.2952H46.962L45.6192 63.0143V59.6619H44.4668V66.2286H45.6192V64.2048L47.2716 66.2286H48.8382L46.6144 63.6095Z" fill="white"/>
<path d="M59.3763 63.1238H57.362C57.6001 61.9667 59.162 61.9048 59.3763 63.1238ZM58.4001 61.1714C57.1048 61.1714 56.1763 62.3095 56.1763 63.7619C56.1763 65.2905 57.3429 66.3524 58.5144 66.3524C59.1048 66.3524 59.862 66.1476 60.4953 65.2476L59.5048 64.6762C58.7382 65.8048 57.4667 65.2333 57.3191 64.1048H60.5429C60.8191 62.3333 59.6715 61.1667 58.4001 61.1667" fill="white"/>
<path d="M28.8713 64.8714C28.8713 65.4857 29.2046 65.9333 29.657 65.9333C30.1094 65.9333 30.4475 65.4857 30.4475 64.8714C30.4475 64.2571 30.1094 63.8095 29.6523 63.8095C29.1951 63.8095 28.8665 64.2571 28.8665 64.8667M28.8808 63.8429C29.0808 63.5762 29.3285 63.4476 29.6618 63.4476C30.3713 63.4476 30.8618 64.0238 30.8618 64.8667C30.8618 65.7095 30.3761 66.2905 29.6618 66.2905C29.3523 66.2905 29.1046 66.1762 28.8999 65.9238L28.838 66.2191H28.4951V62.6048H28.8808V63.8381V63.8429Z" fill="white"/>
<path d="M33.1663 63.5143L32.1949 66.4619C32.0901 66.7762 31.8615 66.9524 31.5711 66.9524C31.3854 66.9524 31.2187 66.8857 31.0901 66.7572L31.2711 66.4762C31.3568 66.5524 31.4377 66.5905 31.5473 66.5905C31.6996 66.5905 31.7711 66.5238 31.8425 66.3238L31.9044 66.1619L30.9663 63.5143H31.3663L32.0854 65.6191L32.7663 63.5143H33.1711H33.1663Z" fill="white"/>
<path d="M30.7095 11.3381L31.1143 12.0714L28.9 13.2952L29.2476 13.9286L31.2143 12.8429L31.6143 13.5714L29.6476 14.6572L30.1333 15.5333L29.2714 16.0095L27.6333 13.0429L30.7095 11.3429V11.3381Z" fill="white"/>
<path d="M36.3001 12.6238L35.762 12.1524L33.8286 12.9381L33.7715 13.6524L32.7905 14.0524L33.1334 10.2571L34.3905 9.74762L37.281 12.2286L36.3048 12.6238H36.3001ZM33.8953 12.1143L35.1334 11.6095L34.0143 10.6333L33.8953 12.1143Z" fill="white"/>
<path d="M41.3476 10.1762L40.7619 7.81906L41.7095 7.58572L42.5238 10.8762L41.1286 11.2238L38.6048 9.34763L39.1905 11.7048L38.2381 11.9429L37.4238 8.65239L38.8238 8.30477L41.3476 10.181V10.1762Z" fill="white"/>
<path d="M46.1191 6.96191L50.2001 6.79524L50.2334 7.62858L48.6858 7.69048L48.7906 10.2429L47.8096 10.281L47.7049 7.72858L46.1525 7.79048L46.1191 6.95715V6.96191Z" fill="white"/>
<path d="M51.3903 8.49525C51.4855 7.3762 52.3141 6.78096 53.7379 6.90477C55.1569 7.02858 55.876 7.75715 55.7807 8.87144C55.6855 9.99049 54.8522 10.5952 53.4331 10.4714C52.0093 10.3476 51.295 9.61906 51.3903 8.49525ZM54.7569 8.78572C54.8093 8.20001 54.5045 7.80953 53.6664 7.73811C52.8331 7.66668 52.4665 7.99049 52.4188 8.58572C52.3665 9.18096 52.676 9.57144 53.5045 9.64287C54.3379 9.7143 54.7093 9.38096 54.7617 8.79049L54.7569 8.78572Z" fill="white"/>
<path d="M61.6239 8.36667L59.6334 9.38095L60.881 11.6762L59.6763 11.4048L58.8096 9.80476L57.862 10.2857L57.7096 10.9571L56.7524 10.7381L57.5001 7.42857L58.462 7.64286L58.1286 9.12857L60.1953 8.0381L61.6334 8.36191L61.6239 8.36667Z" fill="white"/>
<path d="M66.3286 9.99524L66.0667 10.7191L63.6858 9.85715L63.5 10.3667L65.7905 11.1952L65.5286 11.9191L63.2381 11.0905L63.0524 11.6L65.4334 12.4619L65.1715 13.1857L61.8667 11.9905L63.0191 8.8L66.3238 9.99524H66.3286Z" fill="white"/>
<path d="M69.7621 14.3524L70.8764 12.1905L71.7478 12.6381L70.1907 15.6524L68.9097 14.9905L68.2478 11.9095L67.1335 14.0714L66.2573 13.6191L67.8145 10.6048L69.1002 11.2667L69.7621 14.3476V14.3524Z" fill="white"/>
<path d="M27.395 85.4762C27.2474 85.719 27.395 86.0238 28.1569 86.4857C28.8569 86.9048 29.095 86.9 29.2045 86.719C29.3331 86.5095 29.2236 86.3905 28.395 85.8143C27.2665 85.0238 26.8903 84.4762 27.276 83.8333C27.6426 83.2286 28.4617 83.3476 29.4665 83.9524C30.5855 84.6238 31.0236 85.3524 30.6617 86.0143L29.7807 85.4857C29.9331 85.2286 29.7141 84.9619 29.0617 84.5714C28.4426 84.2 28.2426 84.219 28.1474 84.3762C28.0379 84.5571 28.1474 84.6952 28.895 85.2333C29.9141 85.9571 30.5617 86.4476 30.1045 87.2095C29.6569 87.9524 28.8379 87.7571 27.8045 87.1333C26.6284 86.4238 26.0903 85.7381 26.5093 84.9476L27.3903 85.4809L27.395 85.4762Z" fill="white"/>
<path d="M31.5236 87.1905C31.9712 86.1571 32.9426 85.8619 34.2569 86.4286C35.5664 86.9952 36.014 87.9143 35.5712 88.9429C35.1236 89.9762 34.1426 90.281 32.8331 89.7143C31.5188 89.1476 31.0759 88.2286 31.5236 87.1905ZM34.6283 88.5381C34.8616 87.9952 34.695 87.5333 33.9236 87.1952C33.1569 86.8619 32.7045 87.0571 32.4712 87.6C32.2331 88.1476 32.4045 88.6143 33.1664 88.9476C33.9331 89.281 34.395 89.081 34.6283 88.5333V88.5381Z" fill="white"/>
<path d="M39.3047 88.219C40.5047 88.5571 41.0428 89.2619 40.9047 90.1286L39.9 89.8476C39.919 89.5286 39.6857 89.1905 39.0809 89.0238C38.3809 88.8286 37.9476 89.0762 37.7857 89.6476C37.6238 90.2238 37.8714 90.6667 38.5666 90.8619C39.1714 91.0286 39.5476 90.8619 39.6952 90.5714L40.7 90.8524C40.3666 91.6714 39.5428 92 38.3381 91.6667C37.0285 91.3 36.4809 90.4905 36.7905 89.3714C37.1047 88.2571 37.9905 87.8524 39.3 88.219H39.3047Z" fill="white"/>
<path d="M43.3948 89.2286L42.7948 92.5619L41.8281 92.3857L42.4281 89.0524L43.3948 89.2286Z" fill="white"/>
<path d="M44.4187 91.1476C44.5091 90.0286 45.3329 89.4333 46.7567 89.5476C48.1758 89.6619 48.8996 90.3905 48.8091 91.5048C48.7187 92.6238 47.8901 93.2286 46.471 93.1143C45.0472 93 44.3282 92.2714 44.4234 91.1476H44.4187ZM47.7853 91.4238C47.8329 90.8381 47.5282 90.4524 46.6901 90.381C45.8567 90.3143 45.4948 90.6429 45.4425 91.2333C45.3948 91.8286 45.7044 92.2143 46.5329 92.2857C47.3663 92.3524 47.7377 92.019 47.7853 91.4238Z" fill="white"/>
<path d="M51.1187 92.0476C51.1329 92.3333 51.4234 92.5048 52.3139 92.4571C53.1282 92.4143 53.3234 92.2762 53.3091 92.0619C53.2949 91.8143 53.1425 91.781 52.1329 91.7667C50.7568 91.7429 50.1329 91.5 50.0949 90.7476C50.0568 90.0429 50.8044 89.681 51.9758 89.6238C53.2806 89.5571 54.052 89.9095 54.1187 90.6619L53.0949 90.7143C53.0806 90.4143 52.7472 90.3191 51.9853 90.3571C51.2663 90.3952 51.1091 90.5238 51.1187 90.7048C51.1282 90.9143 51.2949 90.9714 52.2187 91C53.4663 91.0286 54.2806 91.0714 54.3282 91.9619C54.3758 92.8286 53.5853 93.1238 52.3806 93.1857C51.0091 93.2571 50.1758 92.9857 50.0806 92.0952L51.1091 92.0429L51.1187 92.0476Z" fill="white"/>
<path d="M55.7426 92.0429L56.6806 91.9048L56.7854 92.6333L55.8473 92.7714L55.7378 92.0429H55.7426Z" fill="white"/>
<path d="M59.4808 88.5381C60.6951 88.2429 61.5094 88.5952 61.8141 89.419L60.7999 89.6667C60.6618 89.3762 60.2903 89.2 59.6808 89.3476C58.9761 89.5191 58.7189 89.9476 58.857 90.5286C58.9999 91.1095 59.4332 91.3762 60.1332 91.2048C60.7427 91.0571 60.9903 90.7238 60.9761 90.3952L61.9903 90.1476C62.0999 91.0238 61.5427 91.719 60.3284 92.0143C59.0046 92.3381 58.1284 91.9 57.8522 90.7714C57.576 89.6476 58.1522 88.8619 59.4761 88.5381H59.4808Z" fill="white"/>
<path d="M63.1522 89.3952C62.7379 88.3476 63.2189 87.4476 64.5474 86.9238C65.8712 86.4 66.8427 86.7333 67.2522 87.7762C67.6665 88.8238 67.1855 89.7333 65.8617 90.2571C64.5331 90.7809 63.5665 90.4476 63.1522 89.3952ZM66.2998 88.1524C66.0855 87.6048 65.6379 87.3905 64.857 87.7C64.0808 88.0048 63.8951 88.4619 64.1141 89.0143C64.3331 89.5714 64.7855 89.7809 65.557 89.4762C66.3331 89.1714 66.5189 88.7048 66.2998 88.1524Z" fill="white"/>
<path d="M69.3381 88.6905L67.6333 85.7571L68.9571 84.9857L71.1095 86.3381L70.9952 83.8L72.319 83.0286L74.0238 85.9619L73.1762 86.4524L71.9428 84.3286L72.0762 87.0952L71.2904 87.5524L68.9524 86.0714L70.1904 88.1952L69.3381 88.6905Z" fill="white"/>
<path d="M23.019 81.8381C13.9952 74.181 8.2666 62.7571 8.2666 50C8.2666 37.2429 14.2999 25.2143 23.738 17.5619" stroke="#33CC99" stroke-miterlimit="10"/>
<path d="M76.2666 17.5667C85.7047 25.219 91.7333 36.9048 91.7333 50C91.7333 63.0952 86.0047 74.1857 76.9809 81.8429" stroke="#33CC99" stroke-miterlimit="10"/>
</g>
<defs>
<clipPath id="clip0_1124_18203">
<rect width="100" height="100" fill="white"/>
</clipPath>
</defs>
</svg>
