<svg xmlns="http://www.w3.org/2000/svg" xmlns:xlink="http://www.w3.org/1999/xlink" viewBox="0 0 210 210"><defs><linearGradient id="linear-gradient" x1="101.55" y1="123.85" x2="106.68" y2="137.96" gradientUnits="userSpaceOnUse"><stop offset=".15" stop-color="#ffe293"></stop><stop offset=".3" stop-color="#fedf8e"></stop><stop offset=".46" stop-color="#fdd782"></stop><stop offset=".62" stop-color="#fcc96d"></stop><stop offset=".78" stop-color="#fab650"></stop><stop offset=".94" stop-color="#f79d2b"></stop><stop offset="1" stop-color="#f7941d"></stop></linearGradient></defs><g><g id="Layer_2"><g id="Layer_1-2"><g><g><circle cx="105" cy="105" r="105" fill="#005596"></circle><path d="M105,5.32c54.96,0,99.68,44.72,99.68,99.68s-44.72,99.68-99.68,99.68S5.32,159.96,5.32,105,50.04,5.32,105,5.32m0-5.32C47.01,0,0,47.01,0,105s47.01,105,105,105,105-47.01,105-105S162.99,0,105,0h0Z" fill="#ef3e42"></path></g><g><path d="M105.05,63.76c-22.89,0-41.51,18.61-41.51,41.47s18.62,41.47,41.51,41.47,41.51-18.6,41.51-41.47-18.63-41.47-41.51-41.47Zm-34.6,58.85c-2.64-5.23-4.13-11.12-4.13-17.38,0-19.51,14.46-35.65,33.26-38.3-1.7,24.86-12.07,42.89-29.14,55.68Zm48.49,18.73c-4.31,1.66-9,2.58-13.89,2.58s-9.58-.91-13.9-2.58c-1.57-2.38-2.49-5.2-2.49-8.23,0-8.58,7.34-15.55,16.38-15.55s16.39,6.97,16.39,15.55c0,3.02-.91,5.84-2.49,8.23Zm20.71-18.73c-17.06-12.79-27.43-30.81-29.14-55.68,18.8,2.66,33.26,18.79,33.26,38.3,0,6.26-1.49,12.15-4.13,17.38Zm15.13-67.33c-13.3-13.27-30.98-20.59-49.79-20.59s-36.48,7.31-49.78,20.59c-13.3,13.28-20.62,30.95-20.62,49.73s7.32,36.44,20.62,49.73c13.3,13.28,30.98,20.58,49.78,20.58s36.48-7.29,49.79-20.58c13.29-13.29,20.62-30.95,20.62-49.73s-7.32-36.44-20.62-49.73Zm-49.79,117.26c-37.34,0-67.6-30.3-67.6-67.68S67.66,37.2,105,37.2s67.61,30.29,67.61,67.66-30.27,67.68-67.61,67.68Z" fill="#fff"></path><path d="M137.57,126.59c-3.12,4.75-7.25,8.77-12.08,11.76,.19-1.03,.28-2.09,.28-3.16,0-10.75-9.32-19.47-20.82-19.47s-20.83,8.72-20.83,19.47c0,1.08,.1,2.13,.27,3.16-4.83-3-8.96-7.03-12.09-11.77,7.23-5.83,13.4-12.69,18.19-20.63h28.86c4.79,7.95,10.98,14.8,18.2,20.64Zm-29.07-60.27c-1.17-.11-2.35-.17-3.55-.17s-2.4,.07-3.58,.17c-.27,14.78-3.88,27.41-9.98,38.12h27.08c-6.1-10.71-9.71-23.34-9.98-38.12Z" fill="#ef3e42"></path><path d="M137.57,126.59c-3.12,4.75-7.25,8.77-12.08,11.76" fill="none" opacity=".8" stroke="#fff" stroke-miterlimit="10" stroke-width="0"></path><g><path d="M106.33,137.95c-.46-.28-.81-.73-.93-1.26-.05-.2-.24-.35-.46-.35s-.41,.14-.46,.35c-.13,.53-.48,.98-.93,1.26-.09,.05-.1,.09-.06,.15,.28,.55,.74,1.23,1.32,1.69,.08,.07,.11,.07,.13,.07,.01,0,.04,0,.12-.07,.58-.46,1.04-1.14,1.32-1.69,.03-.07,.02-.11-.06-.15Z" fill="#d0b15e"></path><path d="M107.66,129.2c0-1.6-2.08-6.57-2.71-6.57-.05,0-.1,.03-.16,.08-.76,.61-2.55,5.02-2.55,6.5,0,1.18,2.4,4.32,2.4,6.03h0c0,.17,.14,.32,.32,.32s.31-.14,.31-.32h0c0-1.71,2.4-4.84,2.4-6.03Z" fill="#d0b15e"></path><path d="M103.59,135.08c-1.13-2.98-3.08-4.6-5.09-4.6-1.53,0-2.77,1.24-2.77,2.77s1.24,2.77,2.77,2.77c.45,0,.93-.22,1.16-.48,.4-.46,.32-.9,.28-1-.04-.11-.14-.08-.18-.08-.04,.01-.12,.02-.16,.02-.51,0-.93-.42-.93-.93s.42-.92,.93-.92c.9,0,2.51,.88,3.37,2.74h0s0,.02,0,.03h0c.06,.11,.18,.18,.31,.18,.18-.01,.34-.16,.34-.35,0-.06-.01-.11-.03-.14Z" fill="#d0b15e"></path><path d="M111.3,130.47c-2.02,0-3.96,1.62-5.09,4.6-.02,.04-.03,.09-.03,.14,0,.18,.14,.34,.34,.35,.13,0,.25-.08,.31-.18h0s0-.02,0-.02h0c.87-1.87,2.47-2.75,3.37-2.75,.51,0,.92,.41,.92,.92s-.41,.93-.92,.93c-.05,0-.12,0-.17-.02-.04,0-.14-.03-.18,.08-.04,.1-.12,.54,.28,1,.23,.26,.71,.48,1.16,.48,1.53,0,2.77-1.24,2.77-2.77s-1.24-2.77-2.77-2.77Z" fill="#d0b15e"></path></g><path d="M99.94,134.53s.02,.06,.03,.11c0,.05-.02,.1-.03,.14-.05-.1-.15-.08-.18-.07-.04,0-.12,.01-.16,.01-.51,0-.93-.41-.93-.92,0-.05,0-.09,.01-.13,.06,.45,.45,.81,.92,.81,.04,0,.13,0,.16-.02,.04,0,.14-.03,.18,.08Zm11.36-4.06c-2.02,0-3.96,1.62-5.09,4.6,0,0,0,0-.01,.02-.01,.04-.02,.08-.02,.12s0,.09,.02,.12c0,0,0,0,0-.02,.02-.05,.04-.09,.06-.13h0c1.13-2.88,3.05-4.47,5.04-4.47,1.44,0,2.62,1.1,2.75,2.52,0-.04,0-.09,0-.12,0,.04,.01,.08,.01,.12,0-1.53-1.24-2.77-2.77-2.77Zm-1.1,4s-.12,0-.17-.02c-.04,0-.14-.03-.18,.08,0,.03-.02,.07-.03,.11h0s0,.04,0,.06v.09s0,.06,0,.09v.02s.02-.08,.03-.1h0c.05-.11,.14-.09,.18-.08,.04,0,.12,.01,.17,.01,.51,0,.92-.41,.92-.92,0-.05,0-.09,0-.13-.06,.45-.45,.81-.91,.81Zm-7.98-5.45v.17s0,.04,0,.08c0-.05,0-.11,.01-.14h0c.2-1.71,1.82-5.61,2.53-6.18,.06-.05,.12-.08,.16-.08,.58,0,2.46,4.38,2.68,6.24,0-.03,.02-.07,.02-.1-.14-1.75-2.1-6.39-2.7-6.39-.05,0-.1,.03-.16,.08-.76,.61-2.55,5.02-2.55,6.5v-.18h0Zm1.36,6.08c-1.12-2.97-3.08-4.62-5.09-4.62-1.53,0-2.77,1.24-2.77,2.77v-.12h0v.25s.01-.09,.02-.13h0c.13-1.41,1.31-2.52,2.75-2.52,1.99,0,3.9,1.59,5.04,4.47,.03-.03,.05-.06,.06-.1Zm2.81,2.93s0-.02,0-.03c0,0,0,0,0,0-.01,0-.02-.01-.03-.02-.01-.01-.01-.01-.02-.01-.46-.29-.81-.74-.93-1.27-.05-.2-.24-.35-.46-.35s-.41,.14-.46,.35c-.13,.53-.48,.98-.93,1.27-.01,0-.02,0-.02,.01,0,0-.02,0-.03,.02,0,0,0,0,0,0,0,.01-.01,.02-.02,.03,0,0,0,0,0,0,0,.01,0,.02,0,.02l.18,.07c.4-.28,.71-.68,.83-1.18,.05-.2,.24-.35,.46-.35s.4,.14,.46,.35c.11,.5,.43,.9,.82,1.18h0l.17-.07s0,0,0-.02h0Z" fill="url(#linear-gradient)" opacity=".7"></path><path d="M110.21,132.62c-.9,0-2.51,.88-3.37,2.74h0s0,.02,0,.03h0c-.06,.11-.17,.18-.31,.18-.15-.01-.26-.1-.32-.22h0c.02-.06,.06-.12,.06-.15,.06,.08,.15,.12,.26,.12,.13,0,.25-.07,.31-.18h0s0,0,0-.02c0,0,0,0,0,0,.87-1.86,2.47-2.73,3.37-2.73,.51,0,.92,.4,.92,.93,0,.04,0,.08,0,.12-.06-.45-.45-.8-.91-.8Zm-10.24,2.02s-.01,.1-.03,.14h0c-.04,.15-.12,.32-.28,.5-.23,.26-.71,.48-1.16,.48-1.44,0-2.62-1.1-2.75-2.52,0,.04,0,.09-.02,.13v-.13c0,1.53,1.24,2.77,2.77,2.77,.45,0,.93-.22,1.16-.48,.2-.23,.28-.46,.31-.64h0s0-.07,0-.11v-.05s0-.02,0-.04v-.06Zm14.09-1.52s0,.09,0,.12h0c-.13,1.41-1.31,2.52-2.75,2.52-.45,0-.93-.22-1.16-.48-.15-.18-.24-.35-.28-.5h0s-.02,.06-.03,.11c.03,.18,.1,.41,.31,.64,.23,.26,.71,.48,1.16,.48,1.52,0,2.76-1.23,2.77-2.75v-.02s-.01-.09-.01-.12Zm-9.43,2.1c0,.17,.14,.32,.32,.32s.31-.14,.31-.32h0c0-1.68,2.3-4.72,2.39-5.96,0-.03,0-.05,0-.07,0-.06,0-.12,0-.18,0,.03-.01,.07-.02,.1h0c-.17,1.29-2.36,4.22-2.37,5.85h0c0,.18-.14,.33-.31,.33-.18,0-.32-.14-.32-.32h0c0-1.63-2.19-4.56-2.38-5.84,0,.04-.01,.1-.02,.14v-.08c0,1.18,2.4,4.32,2.4,6.03h0Zm1.6,2.9c-.28,.49-.67,1.04-1.15,1.42-.09,.07-.11,.07-.12,.07-.02,0-.06,0-.13-.07-.48-.38-.87-.93-1.16-1.42l-.18-.07s.01,.03,.02,.05c.01,.03,.04,.07,.06,.11,.28,.53,.72,1.15,1.26,1.59,.08,.07,.11,.07,.13,.07,.01,0,.04,0,.12-.07,.54-.43,.97-1.06,1.26-1.59h0s.04-.08,.06-.11c0-.02,0-.04,0-.05l-.17,.07h0Zm-2.63-2.78h0Zm.01-.06s0,0,0-.02c0-.02,0-.04,0-.05,0-.05-.01-.09-.02-.12-.01,.04-.03,.07-.06,.1l.06,.15h0s0-.03,.01-.05h0Zm-.02,.05l-.06-.15c-.07,.08-.15,.12-.25,.12-.13,0-.25-.07-.31-.18t0-.02h0c-.87-1.86-2.47-2.74-3.37-2.74-.51,0-.93,.4-.93,.93,0,.04,0,.08,.01,.12,.06-.45,.45-.8,.92-.8,.9,0,2.51,.88,3.37,2.74h0s0,.02,0,.03c.06,.11,.18,.18,.31,.18,.14-.01,.25-.09,.31-.22Z" fill="#897439" opacity=".7"></path><path d="M65.11,54.34l-7.31,8.04,12.73,11.61c.8-.87,1.64-1.71,2.5-2.52l-3.97-3.62,4.92-5.43c2.23-2.44,2.23-6.37-.21-8.6-2.45-2.23-6.44-1.92-8.66,.52Zm6.43,6.17l-4.78,5.25-4.28-3.9,4.78-5.24c1.07-1.19,2.91-1.28,4.09-.2,1.18,1.08,1.26,2.92,.18,4.09Zm10.39-14.72l-1.31,19.89c1.18-.72,2.39-1.38,3.63-2l.19-4.64c2.4-1.06,4.9-1.93,7.48-2.61l3.06,3.51c1.34-.29,2.7-.52,4.09-.69l-13.45-14.76c-1.25,.4-2.48,.84-3.69,1.32Zm2.64,10.05l.3-7.51,4.94,5.66c-1.79,.53-3.54,1.14-5.24,1.85Zm33.16-8.29c0-3.31-3.13-6-6.45-6h-10.07v17.46c1.18-.1,2.35-.15,3.55-.15h0v-5.3h4.45l3.83,6.06c1.52,.28,3.01,.63,4.48,1.04l-4.59-7.32c2.63-.7,4.8-3.03,4.8-5.79Zm-6.45,2.9h-6.52v-5.79h6.52c1.6,0,2.9,1.3,2.9,2.89s-1.3,2.9-2.9,2.9Zm28.66,9.62l1.72,1.81c4.13,4.35,5.09,7.91,2.46,10.35-1.05,.98-2.65,1.22-4.26,.9-2.04-.4-4.32-1.84-6.41-4.04-1.86-1.95-3.22-4.25-3.83-5.83l2.56-1.92c2.85,6.03,7.58,9.53,9.28,8.14,1.59-1.32-.14-3.39-2.12-5.48l-1.94-2.05c-2-2.1-3.3-5.43-1.01-7.59,3.86-3.64,11.99,2.17,14.04,7.98,0,0-1.71,1.26-2.48,1.85-.92-3.26-5.75-8.05-8.38-7.43-.74,.17-1.51,1.31,.39,3.32Zm-9.01-13.14l-6.74,16.21c-1.11-.51-2.22-.97-3.37-1.4l6.74-16.19c1.14,.43,2.26,.88,3.36,1.38Z" fill="#fff"></path><g><path d="M71.34,143.82l-6.61,3.14,.74,.65,.13-.04h.01l2.16-1.06,2.35,1.99-.74,2.3,.02,.02-.02,.06,.71,.5h0s0,0,0,0l.02-.07h0s0,0,0,0h.01s2.04-6.78,2.04-6.78l-.83-.72Zm-2.57,2.35l2.32-1.22-.76,2.55-1.56-1.33Z" fill="#adbbd0"></path><polygon points="76.64 147.86 75.79 147.3 75.79 147.31 75.78 147.3 72.08 152.93 72.92 153.45 72.92 153.45 72.92 153.45 72.95 153.4 72.96 153.41 76.64 147.86" fill="#adbbd0"></polygon><polygon points="82.91 151.46 80.59 155.89 79.45 149.65 78.67 149.23 78.67 149.23 78.62 149.21 78.62 149.22 78.61 149.21 75.52 155.1 76.22 155.49 76.31 155.52 76.33 155.44 76.34 155.42 76.37 155.44 76.37 155.44 76.38 155.44 76.4 155.4 76.41 155.4 76.41 155.4 76.43 155.4 78.75 150.97 79.91 157.04 80.73 157.42 80.73 157.41 80.74 157.42 80.75 157.4 80.77 157.41 80.78 157.41 80.79 157.41 80.81 157.37 80.83 157.37 80.83 157.37 80.84 157.37 83.8 151.94 82.91 151.46" fill="#adbbd0"></polygon><polygon points="85.59 152.69 85.28 153.62 87.55 154.35 85.65 159.62 85.67 159.63 85.65 159.69 86.42 159.91 86.42 159.91 86.42 159.91 86.45 159.83 86.47 159.84 86.47 159.84 86.48 159.84 88.27 154.62 90.47 155.35 90.47 155.35 90.48 155.35 90.5 155.29 90.51 155.3 90.51 155.3 90.52 155.3 90.82 154.5 85.59 152.69 85.59 152.69" fill="#adbbd0"></polygon><polygon points="116.32 160.97 116.31 160.95 116.31 160.95 116.26 160.95 116.26 160.95 116.24 160.95 116.24 160.95 111.79 161.59 111.49 159.68 113.68 159.36 113.67 159.3 113.71 159.29 113.57 158.37 113.52 158.38 113.52 158.37 113.51 158.38 113.51 158.37 111.35 158.67 111.11 157.05 115.45 156.43 115.44 156.36 115.49 156.36 115.35 155.42 115.34 155.42 115.34 155.42 115.3 155.42 115.29 155.42 115.28 155.42 115.28 155.42 110.06 156.18 110.99 162.66 111 162.66 111 162.66 111 162.66 111.01 162.74 111.01 162.74 111.01 162.74 116.41 161.95 116.4 161.88 116.45 161.88 116.32 160.97" fill="#adbbd0"></polygon><path d="M139.79,149.07l-4.4-2.65-.9,.61,1.42,7.14,.8-.53,.07-.06-.45-2.39,2.43-1.79,2.02,1.23h0l.72-.48-.02-.02,.06-.04-1.76-1.03Zm-3.67,1.04l-.55-2.56,2.3,1.33-1.74,1.23Z" fill="#adbbd0"></path><polygon points="139.52 143.16 138.83 143.8 143.34 148.55 143.35 148.55 143.35 148.55 143.95 148.06 143.94 148.05 143.98 148 139.52 143.16" fill="#adbbd0"></polygon><polygon points="150.22 141.43 145.35 136.98 144.72 137.69 148.67 141.14 142.06 140.64 142.05 140.64 141.47 141.3 146.42 145.64 146.43 145.63 146.43 145.64 146.82 145.12 146.81 145.11 146.87 145.06 143.19 141.61 149.69 142.03 149.69 142.03 149.7 142.03 150.18 141.49 150.18 141.48 150.22 141.43" fill="#adbbd0"></polygon><polygon points="94.33 158.22 94.11 159.21 96.41 159.73 96.41 159.73 96.42 159.73 96.43 159.66 96.44 159.67 96.44 159.66 96.45 159.67 96.66 158.74 94.33 158.22" fill="#adbbd0"></polygon><path d="M123.57,156.78c.28-.37,.44-.94,.2-1.73-.19-.62-.49-1.02-.92-1.19-.26-.12-.51-.21-.8-.2-.25,0-.51,.04-.76,.11l-3.71,1.11,1.19,3.88,.74,2.45h.01l.06-.02,.04,.02,.67-.21-.8-2.65,2.51-.82,1.97,2.3h.01l.07-.03,.02,.03,.78-.34-2.08-2.21c.21-.11,.59-.22,.78-.5Zm-4.88-1.16l2.92-.99c.13-.04,.27-.07,.4-.08,.4-.03,.78,.23,.94,.76,.02,.07,.03,.13,.04,.2,.03,.48-.29,.84-.86,1.01l-2.9,.86-.53-1.77Z" fill="#adbbd0"></path><path d="M65.17,144.22c.13-.19,.06-.53,.1-.76,.12-.77-.25-1.6-1.17-2.83l-.62-.83c-.49-.65-.36-1.15-.26-1.4,.02-.03,.05-.07,.07-.11,.11-.12,.25-.2,.4-.22,.04,0,.07-.01,.1-.01,1.12,.01,2.79,1.79,3.2,3.23v.04h.02l.04-.02c.23-.13,.41-.21,.58-.3l.02-.02v-.02s0,0,0,0c.01,0-.02,0-.02,0h0l.02-.03c-.44-1.64-1.83-3.26-3.17-3.79-.32-.13-.63-.2-.92-.2h0c-.35,0-.65,.1-.91,.29-.3,.23-.45,.52-.5,.89-.02,.14-.02,.31,0,.47,.04,.5,.46,1.23,.84,1.75l.59,.86c.46,.62,.8,.86,.85,1.4,.02,.23,0,.41-.01,.47-.05,.27-.16,.46-.38,.61-.12,.08-.3,.12-.45,.12-.12,0-.24-.03-.36-.08-.95-.38-2.24-1.92-2.91-4.02l-.04-.1-.04,.04-.69,.65h-.01s.02,.07,.02,.09c0,0,.62,1.52,1.31,2.45,.73,.97,1.46,1.6,2.24,1.85,.26,.09,.5,.12,.74,.12h0c.35,0,.67,.01,.91-.15,.19-.13,.35-.3,.46-.47Z" fill="#adbbd0"></path><path d="M105.19,159.37h-.02l.02,.91h.01v.06h.06l1.96,.04-.04,.7c-.01,.55-.82,1.07-1.95,1.05-.09,0-.17,0-.25,0-.81-.1-1.51-.45-1.94-1-.39-.5-.46-.77-.45-1.4,.01-.42,.11-.83,.3-1.18,.43-.75,1.36-1.31,2.52-1.29,1.16,.03,1.65,.63,1.96,.94h0s0,0,0,0l.02-.03s.02,.02,.03,.03h0l.67-.66h0l.03-.03c-.1-.09-.22-.21-.39-.36-.46-.39-1.21-.87-2.39-.88h-.08c-2.09-.04-3.61,1.47-3.64,3.33,0,.15,.01,.3,.02,.43,.16,1.98,1.85,3.06,3.5,3.08h.03s.02,.01,.04,.01h0c1.23,.02,2.23-.4,2.67-1.11,.15-.25,.24-.52,.25-.83l.02-1.75-2.99-.06Z" fill="#adbbd0"></path><polygon points="131.03 149.35 130.17 149.78 130.03 154.49 126.18 151.84 125.36 152.24 127.04 155.57 128.31 158.16 128.33 158.16 128.33 158.16 128.81 157.95 129.07 157.78 127.03 153.49 130.91 156.11 130.91 156.1 130.91 156.11 130.91 156.03 130.94 156.04 130.94 156.04 130.95 156.04 131.07 152.39 131.11 151.61 131.12 151.6 133.35 155.64 133.37 155.59 133.38 155.61 133.39 155.61 133.39 155.61 134.05 155.13 131.03 149.35" fill="#adbbd0"></polygon></g><g><polygon points="94.33 158.26 94.11 159.22 94.11 159.22 94.11 159.23 96.4 159.75 96.4 159.75 96.41 159.75 96.42 159.71 96.44 159.71 96.65 158.79 94.33 158.26" fill="#fff"></polygon><path d="M105.25,159.42h-.07l.02,.92h0v.05l2.07,.03-.06,.68c-.05,.57-.82,1.07-1.93,1.07-1.65-.03-2.74-1.15-2.72-2.43,.01-.5,.16-.97,.42-1.36,.14-.2,.39-.41,.59-.56,.06-.05,.12-.09,.18-.13,.43-.26,.98-.4,1.61-.38,1.19,0,1.69,.6,2,.91h.01s0-.01,0,0h0s0,0,.01,0l.02-.02h0s.67-.66,.67-.66h0l.02-.02c-.37-.37-1.18-1.21-2.75-1.24h-.07c-2.09-.03-3.61,1.48-3.64,3.35,0,.02,0,.03,0,.05,0,0,0,0,0,.02-.04,2.22,1.81,3.42,3.56,3.46,.73,0,1.35-.12,1.84-.39,.15-.07,.28-.16,.4-.25,.18-.14,.33-.32,.45-.49,.15-.25,.24-.51,.25-.83l.05-1.74-2.93-.04h0Z" fill="#fff"></path><path d="M64.97,144.48c.24-.24,.24-.65,.28-.97,.12-.78-.24-1.61-1.16-2.83l-.62-.84c-.49-.65-.36-1.14-.27-1.38,.05-.1,.11-.17,.18-.24,.09-.07,.19-.11,.3-.12h.1c1.12,0,2.8,1.78,3.21,3.22v.04h.02l.04-.02c.23-.13,.41-.21,.59-.3h.05c-.21-.76-.61-1.57-1.12-2.2-.86-1.08-2.02-1.85-2.99-1.85-.34,0-.65,.1-.91,.3-.08,.06-.15,.11-.21,.19-.13,.13-.2,.31-.27,.49-.03,.09-.04,.15-.05,.26-.01,.07-.02,.15-.02,.23,0,.54,.32,1.28,.75,1.84l.61,.85c.47,.63,.9,1.2,.94,1.75,0,.08,0,.11-.02,.28,0,.05-.05,.14-.07,.19-.04,.11-.1,.19-.18,.27-.05,.04-.09,.08-.15,.12-.13,.08-.26,.11-.42,.11-.53,0-1.26-.53-1.95-1.41-.54-.7-1.03-1.61-1.37-2.67l-.02-.08-.73,.68s.34,1.29,1.17,2.39c.73,.97,1.6,1.72,2.38,1.97,.25,.08,.49,.12,.73,.12h0c.34,0,.68,.02,.91-.14,.09-.08,.17-.14,.26-.23Z" fill="#fff"></path><polygon points="83.78 151.96 83.76 151.94 83.76 151.94 82.93 151.51 82.92 151.52 82.91 151.51 82.91 151.52 82.91 151.52 80.58 155.97 79.46 149.7 79.45 149.69 79.45 149.69 79.44 149.69 79.44 149.68 78.63 149.26 78.63 149.26 78.62 149.26 78.61 149.27 78.61 149.27 75.56 155.1 75.56 155.1 75.55 155.12 75.57 155.13 75.57 155.13 75.57 155.13 76.36 155.49 76.39 155.43 76.41 155.44 78.77 150.93 79.94 157.09 80.77 157.45 80.8 157.4 80.82 157.41 83.79 151.97 83.78 151.96 83.78 151.96" fill="#fff"></polygon><path d="M72.17,144.57l-.81-.68-6.57,3.11,.68,.62,2.3-1.06,2.36,1.99-.74,2.33h0s.01,.02,.01,.02v.03s.69,.5,.69,.5l.02-.08v.02h.02l2.04-6.8Zm-1.07,.4l-.76,2.57-1.58-1.33,2.34-1.24Z" fill="#fff"></path><polygon points="76.63 147.89 75.8 147.34 72.11 152.94 72.92 153.45 72.95 153.44 76.63 147.89" fill="#fff"></polygon><polygon points="85.58 152.72 85.29 153.61 85.28 153.64 87.55 154.41 85.65 159.69 85.65 159.69 85.65 159.7 85.66 159.71 85.65 159.74 86.42 159.94 86.44 159.89 86.45 159.89 86.45 159.88 86.46 159.89 88.25 154.65 90.47 155.4 90.49 155.34 90.51 155.37 90.5 155.33 90.52 155.33 90.81 154.53 85.58 152.72 85.58 152.72" fill="#fff"></polygon><polygon points="116.32 160.98 116.25 160.99 116.25 160.99 111.78 161.62 111.49 159.72 113.66 159.41 113.65 159.36 113.65 159.36 113.65 159.35 113.67 159.35 113.67 159.35 113.69 159.35 113.69 159.33 113.71 159.33 113.57 158.39 113.52 158.4 113.52 158.4 111.34 158.71 111.1 157.09 115.44 156.47 115.42 156.43 115.42 156.43 115.42 156.42 115.44 156.42 115.44 156.41 115.46 156.41 115.46 156.39 115.49 156.39 115.35 155.45 115.29 155.46 115.29 155.45 110.07 156.22 110.07 156.25 110.07 156.25 110.07 156.26 110.07 156.26 110.07 156.29 110.07 156.29 110.08 156.36 111 162.74 111 162.74 111 162.76 116.39 161.98 116.39 161.95 116.4 161.95 116.4 161.94 116.42 161.94 116.42 161.91 116.44 161.91 116.32 160.98" fill="#fff"></polygon><path d="M122.77,157.32c.21-.1,.58-.22,.77-.49,.28-.37,.46-.94,.22-1.75-.17-.57-.44-.95-.83-1.15-.49-.26-1.06-.28-1.63-.12l-3.69,1.1,.55,1.8,1.36,4.5,.3-.08,.47-.12-.78-2.62,2.51-.83,1.97,2.32,.77-.34h0s.07-.03,.07-.03l-2.06-2.19Zm-1.18-2.66c.52-.14,1.13-.01,1.35,.7,.02,.07,.03,.13,.04,.19,0,.07,0,.13,0,.18,0,.07,0,.13-.03,.18-.1,.3-.4,.52-.82,.65l-2.92,.86-.54-1.77,2.92-1Z" fill="#fff"></path><path d="M135.43,146.44l-.87,.61,1.41,7.1,.76-.5,.05-.04-.45-2.37,2.43-1.79,2.02,1.24,.72-.49h-.01s.06-.06,.06-.06l-6.11-3.7Zm.68,3.71l-.56-2.56,2.32,1.34-1.76,1.22Z" fill="#fff"></path><polygon points="139.53 143.19 138.85 143.82 143.33 148.6 143.93 148.11 143.92 148.1 143.97 148.04 139.53 143.19" fill="#fff"></polygon><polygon points="150.21 141.46 145.37 137 144.74 137.7 148.66 141.17 142.1 140.64 141.49 141.31 146.41 145.68 146.81 145.17 146.81 145.16 146.85 145.1 143.18 141.65 149.68 142.07 150.16 141.53 150.16 141.53 150.21 141.46" fill="#fff"></polygon><polygon points="131.05 149.39 130.21 149.82 130.06 154.56 127.73 152.98 126.2 151.87 126.1 151.92 125.4 152.27 125.39 152.27 125.41 152.31 125.41 152.31 128.31 158.21 128.99 157.82 128.99 157.82 129.05 157.79 126.99 153.48 128.77 154.7 130.9 156.15 130.9 156.09 130.91 156.09 130.91 156.07 130.93 156.09 130.93 156.07 130.94 156.09 131.05 152.88 131.1 151.52 131.54 152.38 133.35 155.66 133.37 155.65 133.37 155.65 133.38 155.65 133.38 155.65 133.91 155.19 133.96 155.17 133.96 155.17 134.01 155.15 131.05 149.39" fill="#fff"></polygon></g></g><g><g><g><path d="M65.89,23.81l.85,1.54-4.65,2.57,.73,1.33,4.13-2.28,.84,1.53-4.13,2.28,1.02,1.84-1.81,1-3.44-6.23,6.46-3.57Z" fill="#fff"></path><path d="M77.63,26.51l-1.13-.99-4.06,1.65-.12,1.5-2.06,.84,.72-7.97,2.64-1.07,6.07,5.21-2.05,.83Zm-5.05-1.07l2.6-1.06-2.35-2.05-.25,3.11Z" fill="#fff"></path><path d="M88.23,21.37l-1.23-4.95,1.99-.49,1.71,6.91-2.93,.73-5.3-3.94,1.23,4.95-2,.5-1.71-6.91,2.94-.73,5.3,3.94Z" fill="#fff"></path><path d="M98.25,14.62l8.57-.35,.07,1.75-3.25,.13,.22,5.36-2.06,.08-.22-5.36-3.26,.13-.07-1.75Z" fill="#fff"></path><path d="M109.32,17.84c.2-2.35,1.94-3.6,4.93-3.34,2.98,.26,4.49,1.79,4.29,4.13-.2,2.35-1.95,3.62-4.93,3.36-2.99-.26-4.49-1.79-4.29-4.15Zm7.07,.61c.11-1.23-.53-2.05-2.29-2.2-1.75-.15-2.52,.53-2.62,1.78-.11,1.25,.54,2.07,2.28,2.22,1.75,.15,2.53-.55,2.64-1.79Z" fill="#fff"></path><path d="M130.81,17.57l-4.18,2.13,2.62,4.82-2.53-.57-1.82-3.36-1.99,1.01-.32,1.41-2.01-.46,1.57-6.95,2.02,.45-.7,3.12,4.34-2.29,3.02,.68Z" fill="#fff"></path><path d="M140.69,20.99l-.55,1.52-5-1.81-.39,1.07,4.81,1.74-.55,1.52-4.81-1.74-.39,1.07,5,1.81-.55,1.52-6.94-2.51,2.42-6.7,6.94,2.51Z" fill="#fff"></path><path d="M147.89,30.14l2.34-4.54,1.83,.94-3.27,6.33-2.69-1.39-1.39-6.47-2.34,4.54-1.84-.95,3.27-6.33,2.7,1.39,1.39,6.47Z" fill="#fff"></path></g><g><path d="M58.92,179.5c-.31,.51,0,1.15,1.6,2.12,1.47,.88,1.97,.87,2.2,.49,.27-.44,.04-.69-1.7-1.9-2.37-1.66-3.16-2.81-2.35-4.16,.77-1.27,2.49-1.02,4.6,.25,2.35,1.41,3.27,2.94,2.51,4.33l-1.85-1.11c.32-.54-.14-1.1-1.51-1.92-1.3-.78-1.72-.74-1.92-.41-.23,.38,0,.67,1.57,1.8,2.14,1.52,3.5,2.55,2.54,4.15-.94,1.56-2.66,1.15-4.83-.16-2.47-1.49-3.6-2.93-2.72-4.59l1.85,1.12Z" fill="#fff"></path><path d="M67.59,183.1c.94-2.17,2.98-2.79,5.74-1.6,2.75,1.19,3.69,3.12,2.76,5.28-.94,2.17-3,2.81-5.75,1.62-2.76-1.19-3.69-3.12-2.75-5.3Zm6.52,2.83c.49-1.14,.14-2.11-1.48-2.82-1.61-.7-2.56-.29-3.05,.85-.5,1.15-.14,2.13,1.46,2.83,1.61,.7,2.58,.28,3.07-.87Z" fill="#fff"></path><path d="M83.94,185.26c2.52,.71,3.65,2.19,3.36,4.01l-2.11-.59c.04-.67-.45-1.38-1.72-1.73-1.47-.41-2.38,.11-2.72,1.31-.34,1.21,.18,2.14,1.64,2.55,1.27,.35,2.06,0,2.37-.61l2.11,.59c-.7,1.72-2.43,2.41-4.96,1.71-2.75-.77-3.9-2.47-3.25-4.82,.66-2.34,2.52-3.19,5.27-2.42Z" fill="#fff"></path><path d="M92.53,187.38l-1.26,7-2.03-.37,1.26-7,2.03,.37Z" fill="#fff"></path><path d="M94.67,191.41c.19-2.35,1.92-3.6,4.91-3.36,2.98,.24,4.5,1.77,4.3,4.11-.19,2.35-1.93,3.62-4.92,3.38-2.99-.24-4.5-1.77-4.3-4.13Zm7.07,.58c.1-1.23-.54-2.04-2.3-2.19-1.75-.14-2.51,.55-2.62,1.79-.1,1.25,.55,2.06,2.29,2.21,1.75,.14,2.53-.56,2.63-1.81Z" fill="#fff"></path><path d="M108.75,193.3c.03,.6,.64,.96,2.51,.86,1.71-.09,2.12-.38,2.09-.83-.03-.52-.35-.59-2.47-.62-2.89-.05-4.2-.56-4.28-2.14-.08-1.48,1.49-2.24,3.95-2.36,2.74-.14,4.36,.6,4.5,2.18l-2.15,.11c-.03-.63-.73-.83-2.33-.75-1.51,.08-1.84,.35-1.82,.73,.02,.44,.37,.56,2.31,.62,2.62,.06,4.33,.15,4.43,2.02,.09,1.82-1.56,2.44-4.09,2.57-2.88,.15-4.63-.42-4.82-2.29l2.16-.11Z" fill="#fff"></path><path d="M118.48,193.28l1.97-.29,.22,1.53-1.97,.29-.23-1.53Z" fill="#fff"></path><path d="M126.31,185.92c2.55-.62,4.26,.12,4.9,1.85l-2.13,.52c-.29-.61-1.07-.98-2.35-.67-1.48,.36-2.02,1.26-1.73,2.48,.3,1.22,1.21,1.78,2.68,1.42,1.28-.31,1.8-1.01,1.77-1.7l2.13-.52c.23,1.84-.94,3.3-3.49,3.92-2.78,.68-4.62-.24-5.2-2.61-.58-2.36,.63-4.01,3.41-4.69Z" fill="#fff"></path><path d="M134.02,187.72c-.87-2.2,.14-4.09,2.93-5.19,2.78-1.1,4.82-.4,5.68,1.79,.87,2.2-.14,4.11-2.92,5.21-2.79,1.1-4.82,.4-5.69-1.81Zm6.61-2.61c-.45-1.15-1.39-1.6-3.03-.95-1.63,.64-2.02,1.6-1.56,2.76,.46,1.17,1.41,1.61,3.03,.97,1.63-.64,2.02-1.62,1.56-2.78Z" fill="#fff"></path><path d="M147.01,186.25l-3.58-6.16,2.78-1.62,4.52,2.84-.24-5.33,2.78-1.62,3.58,6.16-1.78,1.03-2.59-4.46,.28,5.81-1.65,.96-4.91-3.11,2.6,4.46-1.79,1.04Z" fill="#fff"></path></g></g><path d="M49.74,171.86c-18.95-16.08-30.98-40.07-30.98-66.86S31.42,52.95,51.25,36.88" fill="none" stroke="#fff" stroke-miterlimit="10" stroke-width="2.22"></path><path d="M161.56,36.89c19.82,16.07,32.48,40.61,32.48,68.11s-12.03,50.79-30.98,66.87" fill="none" stroke="#fff" stroke-miterlimit="10" stroke-width="2.22"></path></g></g></g></g></g></svg>