<svg width="100" height="100" viewBox="0 0 100 100" fill="none" xmlns="http://www.w3.org/2000/svg">
<g clip-path="url(#clip0_1124_17056)">
<path d="M50 100C77.6142 100 100 77.6142 100 50C100 22.3858 77.6142 0 50 0C22.3858 0 0 22.3858 0 50C0 77.6142 22.3858 100 50 100Z" fill="white"/>
<path d="M50 2.53333C76.1714 2.53333 97.4667 23.8286 97.4667 50C97.4667 76.1714 76.1714 97.4667 50 97.4667C23.8286 97.4667 2.53333 76.1714 2.53333 50C2.53333 23.8286 23.8286 2.53333 50 2.53333ZM50 0C22.3857 0 0 22.3857 0 50C0 77.6143 22.3857 100 50 100C77.6143 100 100 77.6143 100 50C100 22.3857 77.6143 0 50 0Z" fill="#D50B32"/>
<mask id="mask0_1124_17056" style="mask-type:luminance" maskUnits="userSpaceOnUse" x="31" y="17" width="38" height="66">
<path d="M68.6618 17.5H31.3428V82.5H68.6618V17.5Z" fill="white"/>
</mask>
<g mask="url(#mask0_1124_17056)">
<path d="M39.8951 33.9714C39.9761 34.0048 40.0427 34.0191 40.0999 34.0143C40.1808 34.0095 40.238 33.9714 40.2904 33.9095C40.3713 33.8095 40.3523 33.6857 40.2666 33.581C40.2285 33.5381 39.257 32.5714 38.3047 31.5143C37.238 30.3286 36.7189 29.3 36.9285 28.6619C37.0951 28.1476 37.4523 27.8048 38.0094 27.6381C37.7904 27.2333 37.6237 26.8476 37.5189 26.4667C37.1427 26.4429 36.7904 26.4476 36.4713 26.4857C35.9285 26.5476 35.457 26.7 35.0808 26.9286C34.5475 27.2524 34.1475 27.7381 34.0094 28.3238C33.3856 30.8714 37.957 33.0238 39.8999 33.9714" fill="#B39247"/>
<path d="M44.7141 33.4476C44.8141 33.5143 44.9237 33.5143 44.9284 33.5143C44.9951 33.5143 45.0665 33.4905 45.1189 33.4476C45.2332 33.3571 45.2475 33.2143 45.157 33.1048C43.6046 31.2857 40.776 27.6048 41.7999 25.3238C42.657 23.7524 45.0665 24.4619 45.6284 24.6095C45.938 24.6905 46.1713 24.7571 46.3427 24.5143C46.4237 24.3762 46.2427 24.1905 46.2189 24.1667C44.5808 22.5381 43.0951 22.1714 42.1284 22.1714C42.0618 22.1714 41.9999 22.1714 41.938 22.1762C40.4856 22.2524 39.3475 22.9191 38.7094 24.1C37.5141 26.3048 39.576 28.6048 40.9046 30.1333C42.476 31.9381 44.5046 33.3 44.7141 33.4524" fill="#B39247"/>
<path d="M40.3285 30.4952L40.2523 30.4143C40.1285 30.2714 39.9952 30.1238 39.8666 29.9667C39.6095 30.419 39.6809 31.0476 40.0999 31.781C40.8618 33.1048 41.1809 33.4619 41.1809 33.4619C41.1809 33.4619 41.9857 33.3762 43.4095 33.2762C42.1857 32.3476 41.138 31.419 40.3333 30.4952" fill="#B39247"/>
<path d="M45.8331 32.9429C45.8331 32.9429 45.976 33.0905 46.0141 33.1381C46.9427 33.1 47.8903 33.0714 48.9188 33.0619C48.7855 32.6905 47.8427 30.0238 47.7522 27.1429C46.2284 27.2714 44.1474 27.8095 42.8284 28.3429C43.5093 29.8667 44.676 31.581 45.8331 32.9429Z" fill="#B39247"/>
<path d="M49.5904 20.7762C48.9761 20.9476 48.5237 21.5 48.5237 22.1524C48.5237 22.9429 49.1856 23.5857 49.9999 23.5857C50.8142 23.5857 51.4761 22.9429 51.4761 22.1524C51.4761 21.5 51.0237 20.9476 50.4095 20.7762V19.5381H51.7237V18.7619H50.4095V17.4952H49.5904V18.7619H48.2761V19.5381H49.5904V20.7762Z" fill="#B39247"/>
<path d="M67.538 38.8238C67.3332 38.7191 62.0142 36.8 49.9999 36.8C37.9856 36.8 32.6666 38.7191 32.4618 38.8238C32.3047 38.9857 31.3428 44.5571 31.3428 50.1524C31.3428 55.7476 32.4571 62.9952 36.3904 68.7286C40.319 74.4571 48.5475 81.6905 50.0047 82.4952C51.4571 81.6857 59.6904 74.4571 63.619 68.7286C67.5475 62.9952 68.6666 55.7476 68.6666 50.1524C68.6666 44.5571 67.7047 38.981 67.5475 38.8238" fill="#B39247"/>
<path d="M59.7333 33.5857C59.6524 33.6857 59.6286 33.8095 59.7095 33.9143C59.7619 33.9762 59.8191 34.0143 59.8952 34.0191C59.9524 34.0238 60.0143 34.0095 60.1 33.9762C62.0476 33.0286 66.6143 30.8762 65.9905 28.3286C65.8524 27.7429 65.4524 27.2571 64.9191 26.9333C64.5429 26.7048 64.0762 26.5524 63.5286 26.4905C63.2048 26.4524 62.8571 26.4476 62.481 26.4714C62.3714 26.8524 62.2095 27.2381 61.9905 27.6429C62.5476 27.8143 62.9048 28.1524 63.0714 28.6667C63.281 29.3048 62.7619 30.3333 61.6952 31.5191C60.7429 32.5762 59.7667 33.5429 59.7333 33.5857Z" fill="#B39247"/>
<path d="M54.3665 24.6048C54.9284 24.4571 57.3379 23.7476 58.1951 25.319C59.2189 27.6 56.3903 31.281 54.8379 33.1C54.7474 33.2095 54.7617 33.3524 54.876 33.4429C54.9331 33.4857 54.9998 33.5095 55.0665 33.5095C55.0712 33.5095 55.1808 33.5095 55.2808 33.4429C55.4903 33.2905 57.5189 31.9286 59.0903 30.1238C60.4189 28.5952 62.4808 26.2952 61.2855 24.0905C60.6474 22.9095 59.5141 22.2429 58.057 22.1667C57.9951 22.1619 57.9331 22.1619 57.8665 22.1619C56.9046 22.1619 55.4141 22.5333 53.776 24.1571C53.7474 24.1857 53.5712 24.3714 53.6522 24.5048C53.8189 24.7476 54.057 24.681 54.3665 24.6" fill="#B39247"/>
<path d="M60.1333 29.9667C60 30.1238 59.8714 30.2714 59.7476 30.4143L59.6714 30.4952C58.8666 31.419 57.819 32.3476 56.5952 33.2762C58.019 33.3714 58.8238 33.4619 58.8238 33.4619C58.8238 33.4619 59.1428 33.1 59.9047 31.781C60.3238 31.0524 60.3952 30.419 60.1381 29.9667" fill="#B39247"/>
<path d="M53.9856 33.1429C54.0237 33.0952 54.1475 32.9667 54.1665 32.9476C55.3237 31.5857 56.4903 29.8714 57.1713 28.3476C55.8522 27.8143 53.7713 27.2762 52.2475 27.1476C52.157 30.0286 51.2189 32.6952 51.0808 33.0667C52.1094 33.0762 53.057 33.1048 53.9856 33.1429Z" fill="#B39247"/>
<path d="M49.9999 24.0762C49.2618 24.0762 48.6428 25.281 48.6761 27.7429C48.6999 29.2571 49.3618 32.4381 49.8189 33.2191C49.8856 33.3333 49.9475 33.3762 49.9999 33.3762C50.0523 33.3762 50.1142 33.3333 50.1809 33.2191C50.638 32.4381 51.2999 29.2571 51.3237 27.7429C51.357 25.2857 50.738 24.0762 49.9999 24.0762Z" fill="#B39247"/>
<path d="M50 34.1476C45.2952 34.1476 41.6523 34.5095 41.6523 34.5095V36.0476C41.6523 36.0476 45.2523 35.6857 50 35.6857C54.7476 35.6857 58.3476 36.0476 58.3476 36.0476V34.5095C58.3476 34.5095 54.7095 34.1476 50 34.1476Z" fill="#B39247"/>
<path d="M65.7238 40.3095C65.5429 40.2286 60.6476 38.8524 50 38.8524C39.3524 38.8524 34.4572 40.2286 34.2762 40.3095C34.1381 40.4524 33.4238 45.9857 33.4238 50.9048C33.4238 55.8238 34.4143 62.4762 37.9048 67.519C41.3619 72.5143 48.6143 79.0191 50 79.8238C51.3857 79.0191 58.6333 72.5143 62.0953 67.519C65.5857 62.4762 66.5762 55.8238 66.5762 50.9048C66.5762 45.9857 65.8667 40.4524 65.7238 40.3095Z" fill="white"/>
<path d="M61.3143 66.3381C58.0571 70.9857 51.2095 77.3524 50 78.0095C48.7905 77.3524 41.9429 70.9857 38.6857 66.3381C35.4238 61.6857 34.5 55.5429 34.5 51.0048C34.5 46.4667 35.1476 41.3524 35.281 41.2238C35.4571 41.1476 40.0333 39.9571 50 39.9571C59.9667 39.9571 64.5429 41.1476 64.7191 41.2238C64.8524 41.3524 65.5 46.4667 65.5 51.0048C65.5 55.5429 64.5714 61.6857 61.3143 66.3381Z" fill="#DB0032"/>
<path d="M64.457 49.0095H35.5427C35.5189 49.6714 35.5046 50.3429 35.5046 51.0048C35.5046 53.7238 35.8951 60.6095 39.5142 65.7714C42.4618 69.9762 48.1523 75.3286 49.9999 76.7905C51.8523 75.3286 57.538 69.9762 60.4856 65.7714C64.1046 60.6095 64.4951 53.7238 64.4951 51.0048C64.4951 50.3429 64.4808 49.6714 64.457 49.0095Z" fill="white"/>
<path d="M64.457 49.0095C64.3475 46.019 64.038 43.1762 63.8618 42.0333C62.457 41.7286 58.057 40.9429 49.9999 40.9429C41.9427 40.9429 37.5427 41.7286 36.138 42.0333C35.9618 43.1762 35.6522 46.0238 35.5427 49.0095H64.457Z" fill="#DB0032"/>
<path d="M39.3047 44.3429C39.3047 44.1286 39.4381 44 39.6523 44C39.7809 44 39.9 44.0429 40.0047 44.1095L40.1571 43.5476C39.9666 43.4333 39.7666 43.3762 39.5428 43.3762C38.9428 43.3762 38.6238 43.8571 38.6238 44.4095C38.6238 44.9238 38.8714 45.1857 39.2714 45.4571C39.4666 45.5952 39.6809 45.7 39.6809 45.9714C39.6809 46.2048 39.5047 46.3524 39.2809 46.3524C39.1571 46.3524 39.0524 46.3238 38.9476 46.281L38.7523 46.8333C38.9095 46.9476 39.1523 47.0095 39.3476 47.0095C40 47.0095 40.3619 46.5381 40.3619 45.9143C40.3619 44.9619 39.3 44.9286 39.3 44.3476" fill="white"/>
<path d="M40.7238 46.9476H41.7285L41.8523 43.9048H41.8666V43.9857L42.4666 46.9476H43.0047L43.5523 43.9048H43.5619L43.7619 46.9476H44.7238C44.7238 46.9476 44.6095 46.7857 44.5761 46.519C44.5476 46.2667 44.2238 42.9238 44.1809 42.5048C43.7999 42.5286 43.4238 42.5524 43.0476 42.5762L42.719 45.219H42.7047L42.3047 42.6286C41.9285 42.6571 41.5571 42.6905 41.1904 42.7238C41.138 43.319 40.8857 46.319 40.8618 46.5381C40.838 46.781 40.719 46.9476 40.719 46.9476" fill="white"/>
<path d="M54.1143 44.7143C54.1143 45.8667 54.7952 46.9952 56.0285 46.9952C56.3333 46.9952 56.4857 46.9476 56.619 46.8667L56.4238 46.1C56.3143 46.1333 56.2047 46.1619 56.0952 46.1619C55.3524 46.1619 55.0238 45.3571 55.0238 44.7095C55.0238 44.0619 55.3476 43.3429 56.1 43.3429C56.2095 43.3429 56.3143 43.3619 56.4238 43.3905L56.6381 42.6667C56.5095 42.6048 56.3381 42.5476 56.1619 42.5238C56.0952 42.5238 56.0333 42.5143 55.9666 42.5143C54.8143 42.5286 54.1143 43.6381 54.1143 44.719" fill="white"/>
<path d="M61.6665 44.081L61.876 43.4286H60.2046V46.9476H60.9046V45.4857H61.4903V44.8333H60.9046V44.081H61.6665Z" fill="white"/>
<path d="M63.4142 46.3667C62.8189 46.3857 62.4904 45.7905 62.4713 45.2048C62.4523 44.5714 62.7904 44.0524 63.3285 44.0524C63.4428 44.0524 63.5047 44.0524 63.5904 44.0714L63.738 43.5429C63.6047 43.481 63.4618 43.4476 63.2666 43.4524C62.3428 43.481 61.7999 44.3762 61.8285 45.2286C61.857 46.1333 62.4285 47 63.4094 46.9714C63.6523 46.9619 63.7856 46.9143 63.8761 46.8429L63.6904 46.3143C63.6189 46.3429 63.5428 46.3667 63.4142 46.3714" fill="white"/>
<path d="M48.0808 46.9476H49.0237V44.6952L48.9808 44.2429L48.9951 44.2333L50.0237 46.9524H50.8141V42.819C50.8141 42.619 50.8856 42.4476 50.9427 42.3476C50.6284 42.3476 50.3141 42.3476 49.9999 42.3476H49.9808V44.4762C49.9808 44.7095 49.9999 44.9429 50.0475 45.1571L50.038 45.1667L49.038 42.3524C48.757 42.3524 48.4713 42.3571 48.1951 42.3619V46.5381C48.1951 46.8238 48.0903 46.9571 48.0903 46.9571" fill="white"/>
<path d="M46.3094 46.1667C45.7523 46.1667 45.7142 45.0286 45.7142 44.6714C45.7142 44.2714 45.7523 43.1762 46.3094 43.1762C46.8666 43.1762 46.9047 44.2714 46.9047 44.6714C46.9047 45.0286 46.8666 46.1667 46.3094 46.1667ZM46.3094 42.3571C45.5618 42.3571 44.8237 42.9857 44.8237 44.6714C44.8237 46.3571 45.5618 46.9857 46.3094 46.9857C47.0571 46.9857 47.7952 46.3571 47.7952 44.6714C47.7952 42.9857 47.0571 42.3571 46.3094 42.3571Z" fill="white"/>
<path d="M52.538 44.1714L52.6285 43.6048H52.638L52.7333 44.1714L52.9476 45.3714H52.3571L52.538 44.1714ZM52.0714 46.9476L52.2238 46.0762H53.0714L53.2285 46.9476H54.1714C54.1714 46.9476 54.0333 46.781 53.9761 46.5333C53.919 46.3048 53.1809 42.9095 53.0666 42.3857C52.7714 42.3762 52.4714 42.3714 52.1761 42.3619L51.2 46.9476H52.0809H52.0714Z" fill="white"/>
<path d="M58.1665 46.2476C57.6094 46.2476 57.5665 45.181 57.5665 44.8476C57.5665 44.4762 57.6046 43.4476 58.1665 43.4476C58.7284 43.4476 58.7665 44.4714 58.7665 44.8476C58.7665 45.1857 58.7284 46.2476 58.1665 46.2476ZM58.1665 42.681C57.4141 42.681 56.6665 43.2714 56.6665 44.8476C56.6665 46.4238 57.4141 47.019 58.1665 47.019C58.9189 47.019 59.6617 46.4286 59.6617 44.8476C59.6617 43.2667 58.9189 42.681 58.1665 42.681Z" fill="white"/>
<path d="M37.0381 45.7191L37.1857 44.7952L37.2571 44.3762H37.2666L37.3476 44.7952L37.519 45.7191H37.0381ZM37.6476 43.4857H36.9238L36.1238 46.9476H36.8L36.9238 46.2619H37.619L37.7476 46.9476H38.5428C38.5428 46.9476 38.4524 46.8476 38.4095 46.6667C38.3714 46.4857 37.6476 43.4857 37.6476 43.4857Z" fill="white"/>
<path d="M62.4856 59.2476V49.9191H56.957V68.7143C57.9951 67.5429 58.9666 66.3524 59.7427 65.2476C61.0475 63.3857 61.9142 61.281 62.4856 59.2429" fill="#DB0032"/>
<path d="M37.5142 49.9191V59.2476C38.0904 61.2857 38.957 63.3905 40.257 65.2524C41.0332 66.3571 42.0046 67.5429 43.0427 68.719V49.9238H37.5142V49.9191Z" fill="#DB0032"/>
<path d="M46.7998 49.9191V72.6476C48.0712 73.8952 49.2189 74.9429 49.9998 75.6095C50.776 74.9429 51.9284 73.8952 53.1998 72.6476V49.9191H46.8046H46.7998Z" fill="#DB0032"/>
</g>
<path d="M30.7095 11.3381L31.1143 12.0714L28.9 13.2952L29.2476 13.9286L31.2143 12.8429L31.6143 13.5714L29.6476 14.6572L30.1333 15.5333L29.2714 16.0095L27.6333 13.0429L30.7095 11.3429V11.3381Z" fill="#4A4A49"/>
<path d="M36.3001 12.6238L35.762 12.1524L33.8286 12.9381L33.7715 13.6524L32.7905 14.0524L33.1334 10.2571L34.3905 9.74762L37.281 12.2286L36.3048 12.6238H36.3001ZM33.8953 12.1143L35.1334 11.6095L34.0143 10.6333L33.8953 12.1143Z" fill="#4A4A49"/>
<path d="M41.3476 10.1762L40.7619 7.81906L41.7095 7.58572L42.5238 10.8762L41.1286 11.2238L38.6048 9.34763L39.1905 11.7048L38.2381 11.9429L37.4238 8.65239L38.8238 8.30477L41.3476 10.181V10.1762Z" fill="#4A4A49"/>
<path d="M46.1189 6.96191L50.1998 6.79524L50.2332 7.62858L48.6856 7.69048L48.7903 10.2429L47.8094 10.281L47.7046 7.72858L46.1522 7.79048L46.1189 6.95715V6.96191Z" fill="#4A4A49"/>
<path d="M51.3905 8.49525C51.4857 7.3762 52.3143 6.78096 53.7381 6.90477C55.1572 7.02858 55.8762 7.75715 55.781 8.87144C55.6857 9.99049 54.8524 10.5952 53.4334 10.4714C52.0096 10.3476 51.2953 9.61906 51.3905 8.49525ZM54.7572 8.78572C54.8096 8.20001 54.5048 7.80953 53.6667 7.73811C52.8334 7.66668 52.4667 7.99049 52.4191 8.58572C52.3667 9.18096 52.6762 9.57144 53.5048 9.64287C54.3381 9.7143 54.7096 9.38096 54.7619 8.79049L54.7572 8.78572Z" fill="#4A4A49"/>
<path d="M61.6239 8.36667L59.6334 9.38095L60.881 11.6762L59.6763 11.4048L58.8096 9.80476L57.862 10.2857L57.7096 10.9571L56.7524 10.7381L57.5001 7.42857L58.462 7.64286L58.1286 9.12857L60.1953 8.0381L61.6334 8.36191L61.6239 8.36667Z" fill="#4A4A49"/>
<path d="M66.3286 9.99524L66.0667 10.7191L63.6858 9.85715L63.5 10.3667L65.7905 11.1952L65.5286 11.9191L63.2381 11.0905L63.0524 11.6L65.4334 12.4571L65.1715 13.181L61.8667 11.9857L63.0191 8.79524L66.3238 9.99048L66.3286 9.99524Z" fill="#4A4A49"/>
<path d="M69.7618 14.3524L70.8761 12.1905L71.7476 12.6381L70.1904 15.6524L68.9095 14.9905L68.2476 11.9095L67.1333 14.0714L66.2571 13.6191L67.8142 10.6048L69.0999 11.2667L69.7618 14.3476V14.3524Z" fill="#4A4A49"/>
<path d="M27.3953 85.4762C27.2476 85.719 27.3953 86.0238 28.1572 86.4857C28.8572 86.9048 29.0953 86.9 29.2048 86.719C29.3334 86.5095 29.2238 86.3905 28.3953 85.8143C27.2667 85.0238 26.8905 84.4762 27.2762 83.8333C27.6429 83.2286 28.4619 83.3476 29.4667 83.9524C30.5857 84.6238 31.0238 85.3524 30.6619 86.0143L29.781 85.4857C29.9334 85.2286 29.7143 84.9619 29.0619 84.5714C28.4429 84.2 28.2429 84.219 28.1476 84.3762C28.0381 84.5571 28.1476 84.6952 28.8953 85.2333C29.9143 85.9571 30.5619 86.4476 30.1048 87.2095C29.6572 87.9524 28.8381 87.7571 27.8048 87.1333C26.6286 86.4238 26.0905 85.7381 26.5096 84.9476L27.3905 85.4809L27.3953 85.4762Z" fill="#4A4A49"/>
<path d="M31.5238 87.1905C31.9714 86.1571 32.9428 85.8619 34.2571 86.4286C35.5667 86.9952 36.0143 87.9143 35.5714 88.9429C35.1238 89.9762 34.1428 90.281 32.8333 89.7143C31.519 89.1476 31.0762 88.2286 31.5238 87.1905ZM34.6286 88.5381C34.8619 87.9952 34.6952 87.5333 33.9238 87.1952C33.1571 86.8619 32.7047 87.0571 32.4714 87.6C32.2333 88.1476 32.4047 88.6143 33.1667 88.9476C33.9333 89.281 34.3952 89.081 34.6286 88.5333V88.5381Z" fill="#4A4A49"/>
<path d="M39.2952 88.2143C40.4952 88.5524 41.0333 89.2571 40.8952 90.1238L39.8905 89.8429C39.9095 89.5238 39.6762 89.1857 39.0714 89.0191C38.3714 88.8238 37.9381 89.0714 37.7762 89.6429C37.6143 90.2191 37.8619 90.6619 38.5571 90.8571C39.1619 91.0238 39.5381 90.8571 39.6857 90.5667L40.6905 90.8476C40.3571 91.6667 39.5333 91.9952 38.3286 91.6619C37.019 91.2952 36.4714 90.4857 36.7809 89.3667C37.0952 88.2524 37.9809 87.8476 39.2905 88.2143H39.2952Z" fill="#4A4A49"/>
<path d="M43.3953 89.2286L42.7953 92.5619L41.8286 92.3857L42.4286 89.0524L43.3953 89.2286Z" fill="#4A4A49"/>
<path d="M44.4191 91.1476C44.5096 90.0286 45.3334 89.4333 46.7572 89.5476C48.1763 89.6619 48.9001 90.3905 48.8049 91.5048C48.7144 92.6238 47.8858 93.2286 46.462 93.1143C45.0382 93 44.3191 92.2714 44.4144 91.1476H44.4191ZM47.7858 91.4238C47.8334 90.8381 47.5287 90.4524 46.6906 90.381C45.8572 90.3143 45.4953 90.6429 45.443 91.2333C45.3953 91.8286 45.7049 92.2143 46.5334 92.2857C47.3668 92.3524 47.7382 92.019 47.7858 91.4238Z" fill="#4A4A49"/>
<path d="M51.119 92.0476C51.1333 92.3333 51.4238 92.5048 52.3143 92.4571C53.1286 92.4143 53.3238 92.2762 53.3095 92.0619C53.2952 91.8143 53.1428 91.781 52.1333 91.7667C50.7571 91.7429 50.1333 91.5 50.0952 90.7476C50.0571 90.0429 50.8047 89.681 51.9762 89.6238C53.2809 89.5571 54.0524 89.9095 54.119 90.6619L53.0952 90.7143C53.0809 90.4143 52.7476 90.3191 51.9857 90.3571C51.2666 90.3952 51.1095 90.5238 51.119 90.7048C51.1285 90.9143 51.2952 90.9714 52.219 91C53.4666 91.0286 54.2809 91.0714 54.3285 91.9619C54.3714 92.8286 53.5857 93.1238 52.3809 93.1857C51.0095 93.2571 50.1762 92.9857 50.0857 92.0952L51.1143 92.0429L51.119 92.0476Z" fill="#4A4A49"/>
<path d="M55.7428 92.0429L56.6809 91.9048L56.7857 92.6333L55.8476 92.7714L55.738 92.0429H55.7428Z" fill="#4A4A49"/>
<path d="M59.4811 88.5381C60.6953 88.2429 61.5096 88.5952 61.8144 89.419L60.8001 89.6667C60.662 89.3762 60.2906 89.2 59.6811 89.3476C58.9763 89.5191 58.7192 89.9476 58.8572 90.5286C59.0001 91.1095 59.4334 91.3762 60.1334 91.2048C60.743 91.0571 60.9906 90.7238 60.9763 90.3952L61.9906 90.1476C62.1001 91.0238 61.543 91.719 60.3287 92.0143C59.0049 92.3381 58.1287 91.9 57.8525 90.7714C57.5763 89.6476 58.1525 88.8619 59.4763 88.5381H59.4811Z" fill="#4A4A49"/>
<path d="M63.1524 89.3952C62.7382 88.3476 63.2191 87.4524 64.5477 86.9238C65.8715 86.4 66.8429 86.7333 67.2524 87.7762C67.6667 88.8238 67.1858 89.7333 65.862 90.2571C64.5334 90.7809 63.5667 90.4476 63.1524 89.3952ZM66.3001 88.1524C66.0858 87.6048 65.6382 87.3905 64.8572 87.7C64.081 88.0048 63.8953 88.4619 64.1143 89.0143C64.3334 89.5714 64.7858 89.7809 65.5572 89.4762C66.3334 89.1714 66.5191 88.7048 66.3001 88.1524Z" fill="#4A4A49"/>
<path d="M69.3334 88.6952L67.6287 85.7619L68.9525 84.9905L71.1049 86.3429L70.9906 83.8048L72.3144 83.0333L74.0191 85.9667L73.1715 86.4571L71.9382 84.3333L72.0715 87.1L71.2858 87.5571L68.9477 86.0762L70.1858 88.2L69.3334 88.6952Z" fill="#4A4A49"/>
<path d="M23.019 81.8381C13.9952 74.181 8.2666 62.7571 8.2666 50C8.2666 37.2429 14.2999 25.2143 23.738 17.5619" stroke="#D50B32" stroke-miterlimit="10"/>
<path d="M76.2666 17.5667C85.7047 25.219 91.7333 36.9048 91.7333 50C91.7333 63.0952 86.0047 74.1857 76.9809 81.8429" stroke="#D50B32" stroke-miterlimit="10"/>
</g>
<defs>
<clipPath id="clip0_1124_17056">
<rect width="100" height="100" fill="white"/>
</clipPath>
</defs>
</svg>
