<svg width="50" height="50" viewBox="0 0 50 50" fill="none" xmlns="http://www.w3.org/2000/svg">
<rect width="50" height="50" fill="#2775CA"/>
<path d="M19.3916 38.8769C11.3249 35.9933 7.18802 27.033 10.1873 19.1025C11.7386 14.7768 15.1515 11.4812 19.3916 9.93628C19.8053 9.73038 20.0121 9.4214 20.0121 8.90628V7.46448C20.0121 7.05243 19.8053 6.74345 19.3916 6.64062C19.2881 6.64062 19.0813 6.64062 18.9778 6.74345C9.15307 9.8332 3.77519 20.2355 6.87776 30.0197C8.73931 35.7871 13.1864 40.2158 18.9778 42.0697C19.3916 42.2756 19.8053 42.0697 19.9086 41.6576C20.0121 41.5548 20.0121 41.4517 20.0121 41.2458V39.8038C20.0121 39.4948 19.7018 39.083 19.3916 38.8769ZM30.3541 6.74345C29.9403 6.53755 29.5266 6.74345 29.4233 7.1555C29.3198 7.25857 29.3198 7.3614 29.3198 7.56755V9.00935C29.3198 9.4214 29.6301 9.8332 29.9403 10.0394C38.007 12.923 42.1438 21.8832 39.1445 29.8138C37.5932 34.1394 34.1804 37.4351 29.9403 38.9799C29.5266 39.1858 29.3198 39.4948 29.3198 40.0099V41.4517C29.3198 41.8638 29.5266 42.1728 29.9403 42.2756C30.0438 42.2756 30.2506 42.2756 30.3541 42.1728C40.1788 39.083 45.5567 28.6807 42.4541 18.8966C40.5926 13.026 36.042 8.5973 30.3541 6.74345Z" fill="white"/>
<path d="M30.8955 28.4761C30.8955 24.7796 28.7681 23.5122 24.5131 22.9842C21.4739 22.5617 20.866 21.7168 20.866 20.2381C20.866 18.7593 21.8792 17.809 23.9053 17.809C25.7288 17.809 26.742 18.4427 27.2484 20.0269C27.3498 20.3438 27.6538 20.5549 27.9577 20.5549H29.5784C29.9838 20.5549 30.2877 20.2381 30.2877 19.8158V19.7101C29.8824 17.3864 28.0588 15.591 25.7288 15.3799V12.8451C25.7288 12.4225 25.4249 12.1057 24.9184 12H23.3988C22.9935 12 22.6896 12.3168 22.5882 12.8451V15.2742C19.5489 15.6967 17.6242 17.809 17.6242 20.4495C17.6242 23.9348 19.6503 25.3076 23.9053 25.8359C26.742 26.3639 27.6538 26.9976 27.6538 28.6875C27.6538 30.3774 26.2353 31.5391 24.3106 31.5391C21.6764 31.5391 20.7646 30.3772 20.4607 28.793C20.3596 28.3707 20.0556 28.1593 19.7517 28.1593H18.0293C17.6242 28.1593 17.3203 28.4761 17.3203 28.8987V29.0044C17.7254 31.6446 19.3464 33.5457 22.6896 34.0739V36.6087C22.6896 37.031 22.9935 37.3479 23.5 37.4536H25.0196C25.4249 37.4536 25.7288 37.1367 25.8302 36.6087V34.0739C28.8695 33.5457 30.8955 31.3277 30.8955 28.4761V28.4761Z" fill="white"/>
</svg>
