<?xml version="1.0"?>
<svg width="400" height="400" xmlns="http://www.w3.org/2000/svg" xmlns:svg="http://www.w3.org/2000/svg" clip-rule="evenodd" fill-rule="evenodd" version="1.1">
 <g class="layer">
  <title>Layer 1</title>
  <g id="svg_5">
   <path d="m188.5,-0.5c6.33,0 12.67,0 19,0c21.8,1.58 43.13,6.08 64,13.5c76.98,33.45 119.64,91.95 128,175.5c0,7 0,14 0,21c-4.71,57.58 -28.71,105.41 -72,143.5c-7.54,6.26 -15.54,11.76 -24,16.5c0.24,-2.47 1.57,-4.14 4,-5c-1.19,-0.93 -2.52,-1.26 -4,-1c0.67,-0.67 1.33,-1.33 2,-2c0.67,0 1,-0.33 1,-1c1.21,-0.43 2.21,-1.1 3,-2c2.62,-1.29 4.95,-2.95 7,-5c5.91,-3.24 10.91,-7.57 15,-13c0.67,0 1,-0.33 1,-1c0.67,-0.33 1.33,-0.67 2,-1c1,-0.33 1.67,-1 2,-2c0.84,-0.34 1.17,-1.01 1,-2c1,-0.33 1.67,-1 2,-2c4.71,-3.71 8.71,-8.04 12,-13c22.07,-28.19 35.41,-60.19 40,-96c2.69,-18.53 2.52,-37.2 -0.5,-56c-0.55,-2.88 -1.38,-5.55 -2.5,-8c-0.1,-5.75 -1.44,-11.08 -4,-16c-3.14,-11.07 -7.47,-21.74 -13,-32c-3.15,-7.8 -7.49,-14.8 -13,-21c-14.12,-21.62 -32.12,-39.45 -54,-53.5c-19.89,-12.94 -41.56,-21.44 -65,-25.5c-0.42,-0.72 -1.08,-1.22 -2,-1.5c-23.47,-4.32 -46.8,-4.49 -70,-0.5c-24.36,3.45 -46.69,11.78 -67,25c-4.18,1.59 -7.85,3.92 -11,7c-2.97,1.65 -5.64,3.65 -8,6c-2.93,1.3 -5.27,3.3 -7,6c-4.27,2.6 -7.94,5.93 -11,10c-14.75,13.75 -26.42,29.75 -35,48c-3.23,4.99 -5.89,10.33 -8,16c-2.04,4.44 -3.7,9.11 -5,14c0,0.67 0,1.33 0,2c-3.39,6.86 -5.39,14.19 -6,22c0,0.67 0,1.33 0,2c-3.98,20.34 -3.98,40.68 0,61c-0.13,5.47 0.53,10.81 2,16c-0.09,2.65 0.58,4.99 2,7c4.05,15.1 10.05,29.44 18,43c5.81,11.47 13.15,21.8 22,31c2.65,4.32 5.98,7.98 10,11c4.95,5.14 10.28,9.8 16,14c0,0.67 0.33,1 1,1c5,4 10,8 15,12c-2.16,0.22 -3.83,1.22 -5,3c-55.32,-37.62 -85.66,-89.95 -91,-157c0,-7 0,-14 0,-21c1.91,-25.29 8.07,-49.62 18.5,-73c35.61,-69.76 92.44,-108.43 170.5,-116z" fill="#f6f1f3" id="svg_6"/>
  </g>
  <g id="svg_7">
   <path d="m239.5,11.5c-23.92,-3.09 -47.92,-3.75 -72,-2c23.2,-3.99 46.53,-3.82 70,0.5c0.92,0.28 1.58,0.78 2,1.5z" fill="#cc4158" id="svg_8"/>
  </g>
  <g id="svg_9">
   <path d="m239.5,11.5c23.44,4.06 45.11,12.56 65,25.5c21.88,14.05 39.88,31.88 54,53.5c1.25,2.17 2.25,4.5 3,7c-0.54,1.36 -0.71,2.7 -0.5,4c1.11,-1.21 2.28,-1.21 3.5,0c1.64,3.97 3.98,7.31 7,10c5.53,10.26 9.86,20.93 13,32c0.82,5.7 2.16,11.04 4,16c2.54,21.24 3.54,42.57 3,64c-4.59,35.81 -17.93,67.81 -40,96c-1.62,-0.14 -2.79,0.53 -3.5,2c-1,-0.33 -2,-0.67 -3,-1c-0.5,1.97 -0.66,3.97 -0.5,6c-1,0 -2,0 -3,0c-0.76,-11.73 -2.09,-23.39 -4,-35c1.42,-9.94 2.42,-19.94 3,-30c1.71,-0.38 2.71,-1.38 3,-3c0,-1 0,-2 0,-3c0.32,-1.55 1.32,-2.22 3,-2c-0.97,-4.59 -3.47,-8.25 -7.5,-11c-0.5,-6.32 -0.67,-12.66 -0.5,-19c-1,0 -2,0 -3,0c0,-0.33 0,-0.67 0,-1c0,-1 0,-2 0,-3c-21.71,0.63 -43.38,-0.04 -65,-2c-5.46,4.6 -11.46,5.26 -18,2c-0.96,-2.38 0.04,-3.38 3,-3c0,-1.67 0,-3.33 0,-5c2.84,0.16 4.51,-1.18 5,-4c3.6,-1.93 6.6,-4.6 9,-8c-0.07,-1.53 0.59,-2.53 2,-3c1.48,0.26 2.81,-0.07 4,-1c3.78,-8.59 7.62,-16.92 11.5,-25c0.82,-7.18 0.65,-14.18 -0.5,-21c-1.6,-10.54 -5.44,-20.21 -11.5,-29c-7.12,-10.91 -15.62,-20.57 -25.5,-29c-2.13,-0.81 -4.46,-1.31 -7,-1.5c1.86,-3.5 3.36,-7 4.5,-10.5c-1.09,0.79 -2.25,1.46 -3.5,2c-1.02,-1.35 -2.36,-2.02 -4,-2c-5.63,-4.3 -10.97,-8.97 -16,-14c-1.42,-1.81 -3.42,-2.47 -6,-2c-0.23,5.34 -1.57,10.34 -4,15c7.53,0.89 7.86,2.56 1,5c0.88,1.05 1.55,2.21 2,3.5c-4.16,7.53 -5.49,7.03 -4,-1.5c-1,0 -2,0 -3,0c0.17,4.35 0,8.68 -0.5,13c-0.69,0.53 -1.19,1.19 -1.5,2c1.9,4.1 4.57,4.77 8,2c0.33,0.5 0.67,1 1,1.5c-1.5,1.33 -2.83,2.83 -4,4.5c1.19,0.93 2.52,1.26 4,1c-1.99,6.5 -2.49,13.16 -1.5,20c0.72,1.56 1.89,2.56 3.5,3c4.33,5.33 8.66,10.66 13,16c7.56,12.74 7.89,25.57 1,38.5c0.74,1.78 1.41,3.62 2,5.5c-1.67,4.12 -2.84,8.45 -3.5,13c-0.89,-1.39 -1.39,-1.22 -1.5,0.5c0.21,2.73 1.21,4.9 3,6.5c0.65,1.94 0.98,3.94 1,6c-8.03,0.55 -16.03,1.39 -24,2.5c-1.26,0.42 -1.92,1.25 -2,2.5c-1.25,0.08 -2.08,0.74 -2.5,2c-0.86,3.84 -2.03,7.51 -3.5,11c-0.76,0.42 -1.6,0.76 -2.5,1c-8.47,-0.79 -16.97,-1.29 -25.5,-1.5c-2.08,-1.64 -4.41,-2.81 -7,-3.5c-1.43,-2.83 -2.1,-5.83 -2,-9c-0.92,-15.98 -1.25,-31.98 -1,-48c1.67,0 3.33,0 5,0c0.03,-6.5 1.03,-12.84 3,-19c0.06,-1.98 -0.6,-3.65 -2,-5c-0.67,2.67 -1.33,5.33 -2,8c-0.53,-5.28 -0.53,-10.61 0,-16c-1,0 -2,0 -3,0c-0.49,-6.83 0.18,-13.49 2,-20c-0.9,-1.74 -1.57,-3.57 -2,-5.5c1.56,-2.29 2.73,-4.79 3.5,-7.5c1.81,1.11 2.65,0.44 2.5,-2c1,0 2,0 3,0c1.78,-8.37 2.44,-17.53 2,-27.5c-1.36,-5.76 -2.19,-11.59 -2.5,-17.5c-1.66,-2.43 -2.83,-5.09 -3.5,-8c-0.02,-2.71 0.65,-5.21 2,-7.5c-1.29,-0.49 -2.63,-0.66 -4,-0.5c-0.46,-5.63 -3.46,-8.3 -9,-8c0.51,-2.01 0.68,-4.01 0.5,-6c-1.11,1.54 -2.61,2.2 -4.5,2c0,-1.33 0,-2.67 0,-4c-2,0 -4,0 -6,0c0.22,4.3 -1.11,4.96 -4,2c-0.89,0.83 -1.22,1.83 -1,3c-1.98,-0.12 -3.65,0.55 -5,2c-0.82,2.28 -1.49,4.62 -2,7c1.23,11.67 1.06,23.33 -0.5,35c-2.75,2.53 -5.41,2.53 -8,0c-0.48,0.95 -0.65,1.95 -0.5,3c-4.71,0.22 -9.38,-0.11 -14,-1c-1.15,0.32 -1.98,0.98 -2.5,2c-3.7,-11.96 -5.54,-24.29 -5.5,-37c1.33,0 2.67,0 4,0c-0.26,1.48 0.07,2.81 1,4c0.97,-1.9 1.3,-3.9 1,-6c-2.42,0.31 -4.76,-0.03 -7,-1c2.83,-3.5 2.17,-5 -2,-4.5c0.33,-0.33 0.67,-0.67 1,-1c-1.56,-0.76 -2.56,-1.93 -3,-3.5c0,-0.33 0,-0.67 0,-1c20.31,-13.22 42.64,-21.55 67,-25c24.08,-1.75 48.08,-1.09 72,2z" fill="#e51d41" id="svg_10"/>
  </g>
  <g id="svg_11">
   <path d="m89.5,41.5c2.73,1.78 5.73,3.11 9,4c0,6 0,12 0,18c-0.56,-5.41 -1.56,-10.74 -3,-16c-1.91,-2.83 -4.57,-3.67 -8,-2.5c-4.18,4.69 -6.51,10.19 -7,16.5c-0.33,0 -0.67,0 -1,0c-0.14,-4.87 0.52,-9.54 2,-14c2.36,-2.35 5.03,-4.35 8,-6z" fill="#672732" id="svg_12"/>
  </g>
  <g id="svg_13">
   <path d="m171.5,98.5c-0.58,-6.88 -0.58,-13.71 0,-20.5c-1.78,-2.06 -3.78,-3.89 -6,-5.5c-0.31,-6.88 -1.65,-13.54 -4,-20c-0.46,-0.8 -1.12,-1.13 -2,-1c-0.79,-4.8 -3.46,-8.13 -8,-10c-2,1.01 -3.67,2.34 -5,4c-3.61,7.75 -3.94,15.75 -1,24c-1.62,4.14 -2.45,8.48 -2.5,13c-2.89,1.34 -4.22,3.68 -4,7c-7.75,0.82 -15.59,1.32 -23.5,1.5c-1.56,0.21 -2.89,0.71 -4,1.5c0,1 0,2 0,3c-3.02,0.39 -4.02,-0.61 -3,-3c-1.49,-0.74 -2.99,-1.41 -4.5,-2c-3.12,-7.33 -4.29,-15 -3.5,-23c2.05,6.39 4.05,12.89 6,19.5c1.33,0.67 2.67,1.33 4,2c8.99,0.5 17.99,0.67 27,0.5c2,-6.4 3.16,-13.07 3.5,-20c0.5,-7.33 0.67,-14.66 0.5,-22c1.18,0.22 2.18,-0.11 3,-1c-0.81,-1.57 -1.14,-3.24 -1,-5c1.37,0.16 2.71,-0.01 4,-0.5c-0.84,-1.01 -1.17,-2.18 -1,-3.5c1.78,0.29 3.44,0.95 5,2c1.56,-0.22 2.89,-0.89 4,-2c0.76,1.13 1.43,2.29 2,3.5c2.26,0.24 4.43,0.74 6.5,1.5c0.56,3.69 1.23,7.35 2,11c0.67,-1.33 1.33,-1.33 2,0c0.33,2.33 0.67,4.67 1,7c2.98,1.25 3.15,2.92 0.5,5c1.33,2 1.33,4 0,6c2.55,3.51 3.88,7.51 4,12c-0.43,5.18 -1.1,10.18 -2,15z" fill="#bc1635" id="svg_14"/>
  </g>
  <g id="svg_15">
   <path d="m100.5,34.5c0,0.33 0,0.67 0,1c-1.73,0.51 -2.07,1.34 -1,2.5c-1.29,0.49 -2.63,0.66 -4,0.5c1.21,2.56 2.88,4.89 5,7c-1.94,6.38 -0.94,12.22 3,17.5c-0.95,0.48 -1.95,0.65 -3,0.5c-0.67,0 -1.33,0 -2,0c0,-6 0,-12 0,-18c-3.27,-0.89 -6.27,-2.22 -9,-4c3.15,-3.08 6.82,-5.41 11,-7z" fill="#b41d38" id="svg_16"/>
  </g>
  <g id="svg_17">
   <path d="m63.5,63.5c1.67,0 3.33,0 5,0c-0.08,11.6 0.92,23.1 3,34.5c-1.83,9.89 -1.16,19.55 2,29c-0.56,0.72 -0.89,1.56 -1,2.5c1.14,4.07 2.47,8.07 4,12c-3.45,9.44 -3.95,19.11 -1.5,29c1.56,1.93 3.4,3.6 5.5,5c1.16,3.28 1.32,6.62 0.5,10c-0.33,-0.33 -0.67,-0.67 -1,-1c-0.03,13.03 -0.2,26.03 -0.5,39c1,0 2,0 3,0c-0.17,10.68 -0.67,21.35 -1.5,32c-1.73,4.04 -1.4,8.04 1,12c1,0.33 2,0.67 3,1c1.13,2.94 1.96,5.94 2.5,9c-2.67,0 -5.33,0 -8,0c0,1 0,2 0,3c1,0 2,0 3,0c-0.23,3.89 -2.23,6.23 -6,7c-0.17,4.35 0,8.68 0.5,13c0.24,1.62 1.07,2.62 2.5,3c2.3,1.44 4.13,3.44 5.5,6c0.33,9 0.67,18 1,27c0.38,1.44 1.21,2.44 2.5,3c1.1,1.1 2.44,1.77 4,2c0.71,0.9 1.71,1.24 3,1c0,3 0,6 0,9c1,0 2,0 3,0c-0.05,2.79 1.29,4.63 4,5.5c-2.07,0.95 -3.57,2.45 -4.5,4.5c-2.22,-1.69 -4.38,-3.36 -6.5,-5c-3.92,-1.29 -7.58,-2.95 -11,-5c-0.67,0 -1,-0.33 -1,-1c-1.16,-2.88 -2.16,-5.55 -3,-8c-1.5,-0.55 -3.17,-0.55 -5,0c0.18,-2.83 -1.16,-4.5 -4,-5c0.21,-0.59 0.54,-1.09 1,-1.5c-1.77,-0.64 -3.43,-0.47 -5,0.5c-4.02,-3.02 -7.35,-6.68 -10,-11c-0.64,-1.96 -0.64,-3.79 0,-5.5c-0.67,-0.33 -1.33,-0.67 -2,-1c1.02,-1.05 1.18,-2.22 0.5,-3.5c-2.3,-1.57 -4.8,-2.74 -7.5,-3.5c-0.83,-1.75 -1.83,-3.41 -3,-5c0.67,-1.67 1.33,-3.33 2,-5c-2.13,-1.99 -3.13,-4.49 -3,-7.5c-1,0 -2,0 -3,0c0,1.33 0,2.67 0,4c-2.39,-0.79 -4.39,-2.13 -6,-4c-7.95,-13.56 -13.95,-27.9 -18,-43c0.09,-2.65 -0.58,-4.99 -2,-7c-1.47,-5.19 -2.13,-10.53 -2,-16c-1.17,-20.33 -1.17,-40.66 0,-61c0,-0.67 0,-1.33 0,-2c2.16,-7.16 4.16,-14.49 6,-22c0,-0.67 0,-1.33 0,-2c1.77,-2.42 3.27,-5.09 4.5,-8c0.5,-1.97 0.66,-3.97 0.5,-6c2.11,-5.67 4.77,-11.01 8,-16c1.68,-1.25 3.01,-2.91 4,-5c0.8,1.58 1.3,3.24 1.5,5c1.48,-5.57 3.15,-11.24 5,-17c2.49,-1.79 4.66,-3.96 6.5,-6.5c1.96,-1.57 4.13,-2.73 6.5,-3.5c0.1,-7.59 3.6,-12.92 10.5,-16c0.95,-1.55 1.29,-3.21 1,-5z" fill="#e51d40" id="svg_18"/>
  </g>
  <g id="svg_19">
   <path d="m95.5,47.5c1.44,5.26 2.44,10.59 3,16c-0.61,10.92 0.72,21.59 4,32c0,0.33 0,0.67 0,1c-2.97,-5.69 -4.63,-11.86 -5,-18.5c-1.39,-10.12 -2.06,-20.29 -2,-30.5z" fill="#221616" id="svg_20"/>
  </g>
  <g id="svg_21">
   <path d="m95.5,47.5c-0.06,10.21 0.61,20.38 2,30.5c0.37,6.64 2.03,12.81 5,18.5c-0.07,1.46 0.27,2.79 1,4c-0.34,0.84 -1.01,1.17 -2,1c-2.91,-4.54 -5.07,-9.54 -6.5,-15c-0.23,1.24 -0.73,2.24 -1.5,3c0.03,-1.13 -0.3,-2.46 -1,-4c-2.11,-2.56 -4.45,-4.89 -7,-7c0.79,-6.97 1.12,-13.97 1,-21c0.8,5.58 1.8,11.24 3,17c-3.18,-0.17 -3.68,1.17 -1.5,4c1.35,1.19 2.52,2.52 3.5,4c0.8,-0.46 1.13,-1.12 1,-2c-0.17,-2.12 0.16,-4.12 1,-6c-1.11,-1.39 -2.11,-2.89 -3,-4.5c0.81,-0.31 1.47,-0.81 2,-1.5c-1.88,-1.57 -2.21,-3.24 -1,-5c0.45,2.47 1.45,2.64 3,0.5c-0.63,-5.5 -1.46,-11 -2.5,-16.5c-1,-0.67 -2,-1.33 -3,-2c-2.78,5.41 -5.62,10.75 -8.5,16c0.49,-6.31 2.82,-11.81 7,-16.5c3.43,-1.17 6.09,-0.33 8,2.5z" fill="#d5ced0" id="svg_22"/>
  </g>
  <g id="svg_23">
   <path d="m91.5,63.5c-1.21,1.76 -0.88,3.43 1,5c-0.53,0.69 -1.19,1.19 -2,1.5c0.89,1.61 1.89,3.11 3,4.5c-1.33,1.62 -2.66,2.62 -4,3c0.69,1.35 1.69,2.35 3,3c0.13,0.88 -0.2,1.54 -1,2c-0.98,-1.48 -2.15,-2.81 -3.5,-4c-2.18,-2.83 -1.68,-4.17 1.5,-4c-1.2,-5.76 -2.2,-11.42 -3,-17c-0.15,-1.05 0.02,-2.05 0.5,-3c2.04,2.74 3.54,5.74 4.5,9z" fill="#322d2e" id="svg_24"/>
  </g>
  <g id="svg_25">
   <path d="m165.5,72.5c2.22,1.61 4.22,3.44 6,5.5c-0.58,6.79 -0.58,13.62 0,20.5c-0.53,1.73 -1.53,3.06 -3,4c1.24,-4.8 1.24,-9.46 0,-14c-0.25,-4.3 -1.25,-8.3 -3,-12c0,-1.33 0,-2.67 0,-4z" fill="#a11d37" id="svg_26"/>
  </g>
  <g id="svg_27">
   <path d="m93.5,74.5c-0.84,1.88 -1.17,3.88 -1,6c-1.31,-0.65 -2.31,-1.65 -3,-3c1.34,-0.38 2.67,-1.38 4,-3z" fill="#787576" id="svg_28"/>
  </g>
  <g id="svg_29">
   <path d="m79.5,61.5c0.33,0 0.67,0 1,0c-0.15,6.37 0.18,12.7 1,19c-0.33,0 -0.67,0 -1,0c-0.96,-6.24 -1.29,-12.58 -1,-19z" fill="#7f636b" id="svg_30"/>
  </g>
  <g id="svg_31">
   <path d="m85.5,78.5c2.55,2.11 4.89,4.44 7,7c0.7,1.54 1.03,2.87 1,4c0.33,0.67 0.67,1.33 1,2c-0.42,0.72 -1.08,1.22 -2,1.5c2.56,2.49 2.23,4.15 -1,5c-2.53,-1.32 -2.53,-2.48 0,-3.5c-1.77,-1.32 -2.1,-2.82 -1,-4.5c-0.87,-1.05 -1.87,-1.88 -3,-2.5c-0.01,-1.52 -0.68,-2.68 -2,-3.5c0.81,-0.31 1.47,-0.81 2,-1.5c-1.13,-1.12 -1.8,-2.46 -2,-4z" fill="#413d3d" id="svg_32"/>
  </g>
  <g id="svg_33">
   <path d="m149.5,44.5c0.33,0 0.67,0 1,0c1.42,3.17 2.42,6.5 3,10c1.79,0.67 3.46,1.34 5,2c-0.98,4.46 -2.32,8.96 -4,13.5c1.08,2.86 1.24,5.69 0.5,8.5c0.71,-0.88 1.54,-1.55 2.5,-2c-0.7,2.22 -2.04,4.05 -4,5.5c1.5,0.51 2.66,0.01 3.5,-1.5c0.16,1.89 -0.67,3.39 -2.5,4.5c0.56,0.38 0.89,0.88 1,1.5c-0.8,0.92 -0.97,1.92 -0.5,3c1.67,-1.67 3.33,-3.33 5,-5c0.17,0.33 0.33,0.67 0.5,1c-2.66,2.81 -5,5.81 -7,9c-1.29,1.94 -2.62,3.94 -4,6c0.82,0.89 1.82,1.22 3,1c0,1 0,2 0,3c-1.26,1.12 -0.92,1.79 1,2c-1,0.67 -2,1.33 -3,2c-0.86,-0.96 -1.53,-0.96 -2,0c2.58,2.07 4.08,4.74 4.5,8c0.69,-0.53 1.19,-1.19 1.5,-2c-0.75,-1.24 -1.08,-2.57 -1,-4c1.01,1.33 2.34,2.33 4,3c1.02,-1.35 2.36,-2.02 4,-2c-1.01,1.84 -2.51,3.17 -4.5,4c-0.79,1.25 -1.29,2.58 -1.5,4c-0.33,0 -0.67,0 -1,0c-3.49,-2.97 -6.99,-5.97 -10.5,-9c-0.81,-1.94 -1.31,-3.94 -1.5,-6c3.49,1.19 3.82,0.36 1,-2.5c-0.94,-0.69 -1.6,-0.53 -2,0.5c-0.67,0 -1.33,0 -2,0c2.25,-2.83 4.25,-5.83 6,-9c0.39,-1.78 1.06,-3.45 2,-5c2.35,-6.94 3.69,-14.11 4,-21.5c-1.26,-7.45 -1.92,-14.95 -2,-22.5z" fill="#d8d2d4" id="svg_34"/>
  </g>
  <g id="svg_35">
   <path d="m223.5,65.5c5.03,5.03 10.37,9.7 16,14c0.3,2.1 -0.03,4.1 -1,6c-6.17,3.58 -12.17,7.42 -18,11.5c-4.48,0.16 -5.98,-2 -4.5,-6.5c3.07,-2.32 6.24,-4.49 9.5,-6.5c0.58,-0.89 0.91,-1.89 1,-3c-2.84,-4.02 -5.51,-8.18 -8,-12.5c0.57,-2.59 2.24,-3.59 5,-3z" fill="#f9f1f3" id="svg_36"/>
  </g>
  <g id="svg_37">
   <path d="m81.5,47.5c-1.48,4.46 -2.14,9.13 -2,14c-0.29,6.42 0.04,12.76 1,19c0,7 0,14 0,21c-0.99,4.81 -1.32,9.81 -1,15c-0.62,-0.11 -1.12,-0.44 -1.5,-1c-0.33,-11.33 -0.67,-22.67 -1,-34c-0.19,-2.21 -0.69,-4.21 -1.5,-6c-0.17,-6.34 0,-12.68 0.5,-19c3.18,-2.98 2.68,-3.98 -1.5,-3c1.73,-2.7 4.07,-4.7 7,-6z" fill="#9c152e" id="svg_38"/>
  </g>
  <g id="svg_39">
   <path d="m80.5,80.5c0.33,0 0.67,0 1,0c0.63,3.08 0.96,6.25 1,9.5c0.21,4.13 -0.45,7.97 -2,11.5c0,-7 0,-14 0,-21z" fill="#6e2832" id="svg_40"/>
  </g>
  <g id="svg_41">
   <path d="m146.5,45.5c-0.31,2.89 0.03,5.55 1,8c0,0.67 0,1.33 0,2c-0.42,10.42 -1.58,20.75 -3.5,31c-1.83,1.83 -3.67,3.67 -5.5,5.5c-8.99,0.5 -17.99,0.67 -27,0.5c1.11,-0.79 2.44,-1.29 4,-1.5c7.91,-0.18 15.75,-0.68 23.5,-1.5c-0.22,-3.32 1.11,-5.66 4,-7c0.05,-4.52 0.88,-8.86 2.5,-13c-2.94,-8.25 -2.61,-16.25 1,-24z" fill="#a71430" id="svg_42"/>
  </g>
  <g id="svg_43">
   <path d="m147.5,55.5c0.9,0.71 1.24,1.71 1,3c0.2,7.41 -0.47,14.75 -2,22c0.04,0.92 0.38,1.58 1,2c-1.24,2.11 -1.24,4.11 0,6c-0.94,1.55 -1.61,3.22 -2,5c-1.51,1 -3.18,1.67 -5,2c0.3,2.73 -0.86,4.4 -3.5,5c-1.6,-0.57 -2.77,-1.57 -3.5,-3c0,-1 0,-2 0,-3c-1.46,-0.07 -2.79,0.27 -4,1c-7.58,-0.77 -14.75,0.56 -21.5,4c-3.17,0.32 -5,-1.02 -5.5,-4c-3.28,-10.41 -4.61,-21.08 -4,-32c0.67,0 1.33,0 2,0c0,1.33 0,2.67 0,4c-0.79,8 0.38,15.67 3.5,23c1.51,0.59 3.01,1.26 4.5,2c-1.02,2.39 -0.02,3.39 3,3c0,-1 0,-2 0,-3c9.01,0.17 18.01,0 27,-0.5c1.83,-1.83 3.67,-3.67 5.5,-5.5c1.92,-10.25 3.08,-20.58 3.5,-31z" fill="#83192c" id="svg_44"/>
  </g>
  <g id="svg_45">
   <path d="m165.5,76.5c1.75,3.7 2.75,7.7 3,12c0.67,8.65 -1.66,16.32 -7,23c-1.64,-0.02 -2.98,0.65 -4,2c-1.66,-0.67 -2.99,-1.67 -4,-3c-1.53,0.07 -2.53,-0.59 -3,-2c1,-0.67 2,-1.33 3,-2c4.17,-2.01 7.17,-5.17 9,-9.5c-2.67,-1.33 -2.67,-2.67 0,-4c-0.67,-0.33 -1.33,-0.67 -2,-1c1.54,-1.11 2.2,-2.61 2,-4.5c1.98,-3 1.98,-6.16 0,-9.5c0.33,-1.5 0.67,-3 1,-4.5c0.68,1.1 1.34,2.1 2,3z" fill="#efe8ea" id="svg_46"/>
  </g>
  <g id="svg_47">
   <path d="m223.5,65.5c-2.76,-0.59 -4.43,0.41 -5,3c2.49,4.32 5.16,8.48 8,12.5c-0.09,1.11 -0.42,2.11 -1,3c-3.26,2.01 -6.43,4.18 -9.5,6.5c-1.48,4.5 0.02,6.66 4.5,6.5c5.83,-4.08 11.83,-7.92 18,-11.5c0.97,-1.9 1.3,-3.9 1,-6c1.64,-0.02 2.98,0.65 4,2c1.25,-0.54 2.41,-1.21 3.5,-2c-1.14,3.5 -2.64,7 -4.5,10.5c2.54,0.19 4.87,0.69 7,1.5c-1.7,-0.16 -3.37,0.01 -5,0.5c-7.07,4.86 -14.07,9.69 -21,14.5c-2.85,0.05 -5.18,1.05 -7,3c-1.48,0.26 -2.81,-0.07 -4,-1c1.17,-1.67 2.5,-3.17 4,-4.5c-0.33,-0.5 -0.67,-1 -1,-1.5c-3.43,2.77 -6.1,2.1 -8,-2c0.31,-0.81 0.81,-1.47 1.5,-2c0.5,-4.32 0.67,-8.65 0.5,-13c1,0 2,0 3,0c-1.49,8.53 -0.16,9.03 4,1.5c-0.45,-1.29 -1.12,-2.45 -2,-3.5c6.86,-2.44 6.53,-4.11 -1,-5c2.43,-4.66 3.77,-9.66 4,-15c2.58,-0.47 4.58,0.19 6,2z" fill="#df2546" id="svg_48"/>
  </g>
  <g id="svg_49">
   <path d="m161.5,83.5c0.33,1.33 0.67,2.67 1,4c0.2,1.89 -0.46,3.39 -2,4.5c0.67,0.33 1.33,0.67 2,1c-2.67,1.33 -2.67,2.67 0,4c-1.83,4.33 -4.83,7.49 -9,9.5c-1.92,-0.21 -2.26,-0.88 -1,-2c1.69,-2.4 4.36,-4.57 8,-6.5c-2,-0.33 -4,-0.67 -6,-1c1.17,-0.42 2.17,-1.09 3,-2c-1.52,0.33 -2.85,0.16 -4,-0.5c2,-3.19 4.34,-6.19 7,-9c-0.17,-0.33 -0.33,-0.67 -0.5,-1c-1.67,1.67 -3.33,3.33 -5,5c-0.47,-1.08 -0.3,-2.08 0.5,-3c1.67,-0.84 2.84,-2.18 3.5,-4c0.67,0.75 1.5,1.09 2.5,1z" fill="#2b2729" id="svg_50"/>
  </g>
  <g id="svg_51">
   <path d="m168.5,88.5c1.24,4.54 1.24,9.2 0,14c0.16,1.37 -0.01,2.71 -0.5,4c-1.42,1.9 -2.92,3.56 -4.5,5c-3.42,2.39 -4.75,5.72 -4,10c-0.67,3.33 -1.33,6.67 -2,10c0.59,-4.47 -0.08,-8.47 -2,-12c0.21,-1.42 0.71,-2.75 1.5,-4c1.99,-0.83 3.49,-2.16 4.5,-4c5.34,-6.68 7.67,-14.35 7,-23z" fill="#67252f" id="svg_52"/>
  </g>
  <g id="svg_53">
   <path d="m63.5,63.5c0.29,1.79 -0.05,3.45 -1,5c-6.9,3.08 -10.4,8.41 -10.5,16c-2.37,0.77 -4.54,1.93 -6.5,3.5c-1.84,2.54 -4.01,4.71 -6.5,6.5c-1.85,5.76 -3.52,11.43 -5,17c-0.2,-1.76 -0.7,-3.42 -1.5,-5c-0.99,2.09 -2.32,3.75 -4,5c8.58,-18.25 20.25,-34.25 35,-48z" fill="#d72d4a" id="svg_54"/>
  </g>
  <g id="svg_55">
   <path d="m145.5,93.5c-1.75,3.17 -3.75,6.17 -6,9c-1.64,-0.21 -3.14,0.12 -4.5,1c-0.81,-1.94 -1.31,-3.94 -1.5,-6c0.73,1.43 1.9,2.43 3.5,3c2.64,-0.6 3.8,-2.27 3.5,-5c1.82,-0.33 3.49,-1 5,-2z" fill="#432226" id="svg_56"/>
  </g>
  <g id="svg_57">
   <path d="m153.5,94.5c1.15,0.66 2.48,0.83 4,0.5c-0.83,0.91 -1.83,1.58 -3,2c2,0.33 4,0.67 6,1c-3.64,1.93 -6.31,4.1 -8,6.5c0,-1 0,-2 0,-3c-1.18,0.22 -2.18,-0.11 -3,-1c1.38,-2.06 2.71,-4.06 4,-6z" fill="#a7a3a6" id="svg_58"/>
  </g>
  <g id="svg_59">
   <path d="m358.5,90.5c5.51,6.2 9.85,13.2 13,21c-3.02,-2.69 -5.36,-6.03 -7,-10c-1.22,-1.21 -2.39,-1.21 -3.5,0c-0.21,-1.3 -0.04,-2.64 0.5,-4c-0.75,-2.5 -1.75,-4.83 -3,-7z" fill="#cd3a51" id="svg_60"/>
  </g>
  <g id="svg_61">
   <path d="m91.5,63.5c-0.96,-3.26 -2.46,-6.26 -4.5,-9c-0.48,0.95 -0.65,1.95 -0.5,3c0.12,7.03 -0.21,14.03 -1,21c0.2,1.54 0.87,2.88 2,4c-0.53,0.69 -1.19,1.19 -2,1.5c1.32,0.82 1.99,1.98 2,3.5c0.46,4.02 -0.2,8.02 -2,12c0.62,3.03 1.45,6.03 2.5,9c1.33,1.08 2.83,1.75 4.5,2c-0.22,1.17 0.11,2.17 1,3c0.02,-0.89 0.35,-1.89 1,-3c0.98,-0.31 1.64,-0.98 2,-2c-1.39,-2.12 -2.06,-4.45 -2,-7c0.95,-3.51 0.95,-6.84 0,-10c-0.33,-0.67 -0.67,-1.33 -1,-2c0.77,-0.76 1.27,-1.76 1.5,-3c1.43,5.46 3.59,10.46 6.5,15c-0.67,0.67 -1.33,1.33 -2,2c0.24,1.29 -0.1,2.29 -1,3c-1.28,0.89 -1.28,1.89 0,3c3.15,-1.47 5.15,-3.81 6,-7c1.58,-0.51 3.42,-0.51 5.5,0c4.19,-2.21 8.53,-4.21 13,-6c3.1,2.28 5.27,1.95 6.5,-1c1.21,-0.73 2.54,-1.07 4,-1c0,1 0,2 0,3c0.19,2.06 0.69,4.06 1.5,6c1.36,-0.88 2.86,-1.21 4.5,-1c0.67,0 1.33,0 2,0c0.33,0.67 0.67,1.33 1,2c0.19,2.06 0.69,4.06 1.5,6c3.51,3.03 7.01,6.03 10.5,9c-5.88,-0.08 -11.05,1.92 -15.5,6c-1.81,6.7 0.35,11.37 6.5,14c1.07,0.93 2.4,1.27 4,1c1.7,8.89 2.2,17.89 1.5,27c-1.04,1.12 -1.71,2.46 -2,4c-0.41,-0.46 -0.91,-0.79 -1.5,-1c-0.83,1 -1.67,2 -2.5,3c0.26,-1.45 0.1,-2.78 -0.5,-4c-1.92,2.84 -3.59,5.84 -5,9c-2.25,-0.87 -4.58,-1.21 -7,-1c0.16,2.03 0,4.03 -0.5,6c-0.67,1.33 -1.33,1.33 -2,0c-0.25,1.12 -0.75,2.12 -1.5,3c-1.48,-5.18 -2.98,-5.18 -4.5,0c-0.31,-0.81 -0.81,-1.47 -1.5,-2c-2.22,2.18 -4.22,2.18 -6,0c-0.67,1 -1.33,2 -2,3c-2.07,-2.34 -3.4,-5.01 -4,-8c-2,0 -4,0 -6,0c0.08,-3.27 -1.26,-4.6 -4,-4c1.24,1.88 0.91,2.21 -1,1c-2.51,-4.85 -4.85,-9.69 -7,-14.5c1.73,-6.41 3.06,-12.91 4,-19.5c3.2,-0.02 6.03,-0.35 8.5,-1c0.46,0.59 0.63,1.26 0.5,2c-0.81,4.62 -1.15,9.29 -1,14c0.22,2.57 0.89,4.9 2,7c5.99,9.76 13.99,11.6 24,5.5c2.52,-1.88 3.86,-4.38 4,-7.5c1.52,-3.03 2.19,-6.36 2,-10c0,-2.53 -0.34,-4.86 -1,-7c-0.13,-4.13 -2.13,-6.79 -6,-8c-5.81,-4.46 -12.14,-5.13 -19,-2c-2.58,-1.19 -3.41,-3.19 -2.5,-6c0.65,1.2 1.15,1.2 1.5,0c-0.38,-1.71 -1.38,-2.71 -3,-3c-6.61,-3.15 -13.61,-4.82 -21,-5c-1.47,-2.95 -2.97,-5.95 -4.5,-9c-0.5,-3.65 -0.67,-7.32 -0.5,-11c1.55,-3.53 2.21,-7.37 2,-11.5c-0.04,-3.25 -0.37,-6.42 -1,-9.5c-0.82,-6.3 -1.15,-12.63 -1,-19c2.88,-5.25 5.72,-10.59 8.5,-16c1,0.67 2,1.33 3,2c1.04,5.5 1.87,11 2.5,16.5c-1.55,2.14 -2.55,1.97 -3,-0.5z" fill="#f9f5f6" id="svg_62"/>
  </g>
  <g id="svg_63">
   <path d="m102.5,95.5c0.5,2.98 2.33,4.32 5.5,4c6.75,-3.44 13.92,-4.77 21.5,-4c-1.23,2.95 -3.4,3.28 -6.5,1c-4.47,1.79 -8.81,3.79 -13,6c-2.08,-0.51 -3.92,-0.51 -5.5,0c0.17,-0.99 -0.16,-1.66 -1,-2c-0.73,-1.21 -1.07,-2.54 -1,-4c0,-0.33 0,-0.67 0,-1z" fill="#4a252b" id="svg_64"/>
  </g>
  <g id="svg_65">
   <path d="m87.5,87.5c1.13,0.62 2.13,1.45 3,2.5c-1.1,1.68 -0.77,3.18 1,4.5c-2.53,1.02 -2.53,2.18 0,3.5c3.23,-0.85 3.56,-2.51 1,-5c0.92,-0.28 1.58,-0.78 2,-1.5c0.95,3.16 0.95,6.49 0,10c-0.06,2.55 0.61,4.88 2,7c-0.36,1.02 -1.02,1.69 -2,2c-0.44,-1.01 -1.1,-1.01 -2,0c-0.44,-1.57 -1.44,-2.74 -3,-3.5c2.39,-0.69 2.39,-1.69 0,-3c0.81,-0.31 1.47,-0.81 2,-1.5c-1.57,-1.92 -3.57,-2.92 -6,-3c1.8,-3.98 2.46,-7.98 2,-12z" fill="#bcb8ba" id="svg_66"/>
  </g>
  <g id="svg_67">
   <path d="m249.5,91.5c9.88,8.43 18.38,18.09 25.5,29c6.06,8.79 9.9,18.46 11.5,29c0.58,8.91 -0.59,17.57 -3.5,26c-3.33,7.33 -7.16,14.33 -11.5,21c-1.41,0.47 -2.07,1.47 -2,3c-3.6,1.93 -6.6,4.6 -9,8c-5.34,3.33 -11,6.17 -17,8.5c-4.54,1.34 -8.21,0.17 -11,-3.5c-0.31,-2.88 0.03,-5.55 1,-8c2.53,-3.85 3.53,-8.19 3,-13c1.63,-8.14 2.97,-16.48 4,-25c-0.37,-7.41 -3.37,-13.41 -9,-18c-4.34,-5.34 -8.67,-10.67 -13,-16c-5.13,-10.04 -3.47,-18.7 5,-26c6.93,-4.81 13.93,-9.64 21,-14.5c1.63,-0.49 3.3,-0.66 5,-0.5z" fill="#fbf5f6" id="svg_68"/>
  </g>
  <g id="svg_69">
   <path d="m142.5,104.5c-0.33,-0.67 -0.67,-1.33 -1,-2c0.4,-1.03 1.06,-1.19 2,-0.5c2.82,2.86 2.49,3.69 -1,2.5z" fill="#6c686b" id="svg_70"/>
  </g>
  <g id="svg_71">
   <path d="m99.5,103.5c1.17,-0.22 2.17,0.11 3,1c-1,1 -2,2 -3,3c-0.61,-0.12 -0.94,-0.46 -1,-1c0.9,-0.71 1.24,-1.71 1,-3z" fill="#232020" id="svg_72"/>
  </g>
  <g id="svg_73">
   <path d="m85.5,99.5c2.43,0.08 4.43,1.08 6,3c-0.53,0.69 -1.19,1.19 -2,1.5c2.39,1.31 2.39,2.31 0,3c1.56,0.76 2.56,1.93 3,3.5c-1.67,-0.25 -3.17,-0.92 -4.5,-2c-1.05,-2.97 -1.88,-5.97 -2.5,-9z" fill="#1f1e1f" id="svg_74"/>
  </g>
  <g id="svg_75">
   <path d="m255.5,111.5c-1.08,0.04 -2.08,0.37 -3,1c-0.96,-4.12 -3.46,-6.79 -7.5,-8c-3.31,1.64 -6.14,3.81 -8.5,6.5c-0.95,0.48 -1.95,0.65 -3,0.5c0,1 0,2 0,3c-2.33,0.17 -4.49,0.83 -6.5,2c-0.69,3.52 -0.19,6.86 1.5,10c-4.07,-2.87 -4.91,-6.53 -2.5,-11c5.45,-3.97 10.95,-7.8 16.5,-11.5c2,-0.67 4,-0.67 6,0c2.01,2.9 4.34,5.4 7,7.5z" fill="#d2475f" id="svg_76"/>
  </g>
  <g id="svg_77">
   <path d="m103.5,100.5c0.84,0.34 1.17,1.01 1,2c-0.85,3.19 -2.85,5.53 -6,7c-1.28,-1.11 -1.28,-2.11 0,-3c0.06,0.54 0.39,0.88 1,1c1,-1 2,-2 3,-3c-0.83,-0.89 -1.83,-1.22 -3,-1c0.67,-0.67 1.33,-1.33 2,-2c0.99,0.17 1.66,-0.16 2,-1z" fill="#918a8c" id="svg_78"/>
  </g>
  <g id="svg_79">
   <path d="m94.5,110.5c-0.65,1.11 -0.98,2.11 -1,3c-0.89,-0.83 -1.22,-1.83 -1,-3c0.9,-1.01 1.56,-1.01 2,0z" fill="#463e43" id="svg_80"/>
  </g>
  <g id="svg_81">
   <path d="m255.5,111.5c7.9,7.55 13.23,16.55 16,27c1.17,9.99 1.17,19.99 0,30c-0.53,2.74 -1.36,5.4 -2.5,8c-3.38,3.88 -6.55,7.88 -9.5,12c-8.28,1.19 -11.11,-2.48 -8.5,-11c0.75,-0.63 1.58,-1.13 2.5,-1.5c-0.65,-6.44 -1.32,-12.94 -2,-19.5c-0.68,-0.36 -1.35,-0.7 -2,-1c-1.15,-3.04 -2.65,-6.04 -4.5,-9c-6.06,-6.22 -11.56,-12.89 -16.5,-20c-1.69,-3.14 -2.19,-6.48 -1.5,-10c2.01,-1.17 4.17,-1.83 6.5,-2c0,-1 0,-2 0,-3c1.05,0.15 2.05,-0.02 3,-0.5c2.36,-2.69 5.19,-4.86 8.5,-6.5c4.04,1.21 6.54,3.88 7.5,8c0.92,-0.63 1.92,-0.96 3,-1z" fill="#e42042" id="svg_82"/>
  </g>
  <g id="svg_83">
   <path d="m150.5,108.5c0.47,1.41 1.47,2.07 3,2c-0.08,1.43 0.25,2.76 1,4c-0.31,0.81 -0.81,1.47 -1.5,2c-0.42,-3.26 -1.92,-5.93 -4.5,-8c0.47,-0.96 1.14,-0.96 2,0z" fill="#2e2a2c" id="svg_84"/>
  </g>
  <g id="svg_85">
   <path d="m80.5,101.5c-0.17,3.68 0,7.35 0.5,11c1.53,3.05 3.03,6.05 4.5,9c-1.29,-0.79 -2.46,-1.79 -3.5,-3c-0.48,1.69 0.02,3.03 1.5,4c-1.01,0.44 -1.01,1.1 0,2c-0.67,0 -1,0.33 -1,1c-0.96,-0.45 -1.79,-1.12 -2.5,-2c-0.5,-2.31 -0.66,-4.64 -0.5,-7c-0.32,-5.19 0.01,-10.19 1,-15z" fill="#7c2e3a" id="svg_86"/>
  </g>
  <g id="svg_87">
   <path d="m85.5,121.5c-0.34,0.84 -1.01,1.17 -2,1c-1.48,-0.97 -1.98,-2.31 -1.5,-4c1.04,1.21 2.21,2.21 3.5,3z" fill="#e0cdcd" id="svg_88"/>
  </g>
  <g id="svg_89">
   <path d="m154.5,119.5c0.33,0 0.67,0 1,0c1.92,3.53 2.59,7.53 2,12c-0.65,3.3 -2.32,5.97 -5,8c-2.33,0 -4.67,0 -7,0c-6.15,-2.63 -8.31,-7.3 -6.5,-14c4.45,-4.08 9.62,-6.08 15.5,-6z" fill="#0b0808" id="svg_90"/>
  </g>
  <g id="svg_91">
   <path d="m85.5,121.5c7.39,0.18 14.39,1.85 21,5c1.64,13.69 -4.03,18.02 -17,13c-1.38,-3.54 -2.38,-7.21 -3,-11c0,-1.33 0,-2.67 0,-4c-1,0 -2,0 -3,0c-1.01,-0.9 -1.01,-1.56 0,-2c0.99,0.17 1.66,-0.16 2,-1z" fill="#100d0e" id="svg_92"/>
  </g>
  <g id="svg_93">
   <path d="m148.5,122.5c2.48,-0.45 4.48,0.22 6,2c-2.33,1.33 -4.67,1.33 -7,0c0.36,-0.68 0.7,-1.35 1,-2z" fill="#cecfd1" id="svg_94"/>
  </g>
  <g id="svg_95">
   <path d="m82.5,125.5c0,-0.67 0.33,-1 1,-1c1,0 2,0 3,0c0,1.33 0,2.67 0,4c-1.33,-1 -2.67,-2 -4,-3z" fill="#d3a9b7" id="svg_96"/>
  </g>
  <g id="svg_97">
   <path d="m163.5,111.5c-0.85,18.64 -1.02,37.31 -0.5,56c-1.48,2.66 -2.65,5.32 -3.5,8c-0.37,-2.09 -0.37,-4.42 0,-7c0,-0.67 0,-1.33 0,-2c0.65,-0.59 1.32,-1.26 2,-2c1.16,-4.97 1.33,-9.97 0.5,-15c-0.29,-1.54 -0.96,-2.88 -2,-4c-0.5,-7.99 -0.67,-15.99 -0.5,-24c-0.75,-4.28 0.58,-7.61 4,-10z" fill="#bf1836" id="svg_98"/>
  </g>
  <g id="svg_99">
   <path d="m75.5,75.5c-1.09,13.31 -1.26,26.64 -0.5,40c0.04,4.65 1.87,8.32 5.5,11c-0.48,5.6 -0.48,11.27 0,17c-1,0 -2,0 -3,0c-1.05,6.63 -1.21,13.3 -0.5,20c1.59,3.52 3.43,6.86 5.5,10c1.29,12.04 0.95,24.04 -1,36c1.83,9.9 2.5,19.9 2,30c1,0 2,0 3,0c-0.32,6.52 0.01,12.85 1,19c-0.49,6.16 0.51,12 3,17.5c-0.13,3.78 -1.96,6.28 -5.5,7.5c-0.79,1.25 -1.29,2.58 -1.5,4c-0.33,0 -0.67,0 -1,0c-1.54,3.05 -2.54,6.38 -3,10c0.46,2.31 0.46,4.31 0,6c-1.43,-0.38 -2.26,-1.38 -2.5,-3c-0.5,-4.32 -0.67,-8.65 -0.5,-13c3.77,-0.77 5.77,-3.11 6,-7c-1,0 -2,0 -3,0c0,-1 0,-2 0,-3c2.67,0 5.33,0 8,0c-0.54,-3.06 -1.37,-6.06 -2.5,-9c-1,-0.33 -2,-0.67 -3,-1c-2.4,-3.96 -2.73,-7.96 -1,-12c0.83,-10.65 1.33,-21.32 1.5,-32c-1,0 -2,0 -3,0c0.3,-12.97 0.47,-25.97 0.5,-39c0.33,0.33 0.67,0.67 1,1c0.82,-3.38 0.66,-6.72 -0.5,-10c-2.1,-1.4 -3.94,-3.07 -5.5,-5c-2.45,-9.89 -1.95,-19.56 1.5,-29c-1.53,-3.93 -2.86,-7.93 -4,-12c0.11,-0.94 0.44,-1.78 1,-2.5c-3.16,-9.45 -3.83,-19.11 -2,-29c-2.08,-11.4 -3.08,-22.9 -3,-34.5c-1.67,0 -3.33,0 -5,0c3.06,-4.07 6.73,-7.4 11,-10c4.18,-0.98 4.68,0.02 1.5,3c-0.5,6.32 -0.67,12.66 -0.5,19z" fill="#d7193b" id="svg_100"/>
  </g>
  <g id="svg_101">
   <path d="m95.5,125.5c3.3,-0.48 5.96,0.52 8,3c-0.33,0.33 -0.67,0.67 -1,1c-1.8,-0.76 -3.63,-1.43 -5.5,-2c-1.03,-0.34 -1.53,-1 -1.5,-2z" fill="#c2c4c8" id="svg_102"/>
  </g>
  <g id="svg_103">
   <path d="m223.5,106.5c-8.47,7.3 -10.13,15.96 -5,26c-1.61,-0.44 -2.78,-1.44 -3.5,-3c-0.99,-6.84 -0.49,-13.5 1.5,-20c1.82,-1.95 4.15,-2.95 7,-3z" fill="#d54961" id="svg_104"/>
  </g>
  <g id="svg_105">
   <path d="m20.5,127.5c0.16,2.03 0,4.03 -0.5,6c-1.23,2.91 -2.73,5.58 -4.5,8c1.3,-4.89 2.96,-9.56 5,-14z" fill="#cc4d61" id="svg_106"/>
  </g>
  <g id="svg_107">
   <path d="m129.5,137.5c-0.67,0 -1.33,0 -2,0c-5.14,-2.4 -10.48,-2.56 -16,-0.5c-1.54,1.58 -2.71,3.41 -3.5,5.5c-1.18,5.13 -2.35,10.13 -3.5,15c-0.15,-4.71 0.19,-9.38 1,-14c1.6,-2.62 3.27,-5.29 5,-8c6.86,-3.13 13.19,-2.46 19,2z" fill="#51352a" id="svg_108"/>
  </g>
  <g id="svg_109">
   <path d="m127.5,137.5c0.67,0 1.33,0 2,0c1.75,1.75 3.09,3.75 4,6c-1.33,0 -2.67,0 -4,0c0.26,-1.48 -0.07,-2.81 -1,-4c-1.84,3.31 -3.84,3.64 -6,1c1.76,-0.81 3.43,-1.81 5,-3z" fill="#ac9387" id="svg_110"/>
  </g>
  <g id="svg_111">
   <path d="m129.5,137.5c3.87,1.21 5.87,3.87 6,8c-0.67,-0.67 -1.33,-1.33 -2,-2c-0.91,-2.25 -2.25,-4.25 -4,-6z" fill="#4f372c" id="svg_112"/>
  </g>
  <g id="svg_113">
   <path d="m157.5,131.5c-0.14,2.85 -0.47,5.68 -1,8.5c1.15,3.8 2.15,7.64 3,11.5c-1.85,-4.37 -4.18,-8.37 -7,-12c2.68,-2.03 4.35,-4.7 5,-8z" fill="#6a202b" id="svg_114"/>
  </g>
  <g id="svg_115">
   <path d="m159.5,121.5c-0.17,8.01 0,16.01 0.5,24c1.04,1.12 1.71,2.46 2,4c0.83,5.03 0.66,10.03 -0.5,15c-0.68,0.74 -1.35,1.41 -2,2c0,-5 0,-10 0,-15c-0.85,-3.86 -1.85,-7.7 -3,-11.5c0.53,-2.82 0.86,-5.65 1,-8.5c0.67,-3.33 1.33,-6.67 2,-10z" fill="#a42137" id="svg_116"/>
  </g>
  <g id="svg_117">
   <path d="m82.5,125.5c1.33,1 2.67,2 4,3c0.62,3.79 1.62,7.46 3,11c-0.93,1.07 -1.27,2.4 -1,4c-1.61,4.59 -3.28,9.25 -5,14c-0.08,3.25 0.75,6.25 2.5,9c0.33,-0.67 0.67,-1.33 1,-2c0.81,3.97 2.31,7.64 4.5,11c0.17,0.99 -0.16,1.66 -1,2c-2.48,-3.12 -4.48,-6.46 -6,-10c-1.71,-2.21 -2.71,-4.71 -3,-7.5c1.29,-6.51 2.62,-13.01 4,-19.5c-0.54,-5.12 -1.54,-10.12 -3,-15z" fill="#891c2f" id="svg_118"/>
  </g>
  <g id="svg_119">
   <path d="m127.5,137.5c-1.57,1.19 -3.24,2.19 -5,3c-0.77,0.42 -1.6,0.76 -2.5,1c-1.84,-1.26 -3.84,-2.26 -6,-3c-1.73,0.23 -2.57,1.23 -2.5,3c1.25,3.92 3.92,5.92 8,6c0.32,3.07 -0.02,6.07 -1,9c-4.65,1.88 -7.15,0.21 -7.5,-5c-0.49,2.04 -0.32,4.04 0.5,6c-0.61,1.3 -1.28,2.63 -2,4c3.55,7.53 9.55,10.19 18,8c-5.26,2.57 -10.59,2.41 -16,-0.5c-2.12,-1.73 -3.62,-3.9 -4.5,-6.5c-0.46,0.59 -0.63,1.26 -0.5,2c-1.11,-2.1 -1.78,-4.43 -2,-7c1.15,-4.87 2.32,-9.87 3.5,-15c0.79,-2.09 1.96,-3.92 3.5,-5.5c5.52,-2.06 10.86,-1.9 16,0.5z" fill="#b17a58" id="svg_120"/>
  </g>
  <g id="svg_121">
   <path d="m15.5,143.5c-1.84,7.51 -3.84,14.84 -6,22c0.61,-7.81 2.61,-15.14 6,-22z" fill="#d05b72" id="svg_122"/>
  </g>
  <g id="svg_123">
   <path d="m122.5,140.5c2.16,2.64 4.16,2.31 6,-1c0.93,1.19 1.26,2.52 1,4c-2.13,1.9 -4.46,3.57 -7,5c-1.14,3 -1.14,6 0,9c0,0.67 -0.33,1 -1,1c-3.6,1.62 -6.94,1.28 -10,-1c-0.82,-1.96 -0.99,-3.96 -0.5,-6c0.35,5.21 2.85,6.88 7.5,5c0.98,-2.93 1.32,-5.93 1,-9c-4.08,-0.08 -6.75,-2.08 -8,-6c-0.07,-1.77 0.77,-2.77 2.5,-3c2.16,0.74 4.16,1.74 6,3c0.9,-0.24 1.73,-0.58 2.5,-1z" fill="#1f0f0a" id="svg_124"/>
  </g>
  <g id="svg_125">
   <path d="m83.5,157.5c1.72,-4.75 3.39,-9.41 5,-14c1.63,-2.71 2.13,-2.37 1.5,1c-1.67,4.67 -3.84,9.01 -6.5,13z" fill="#4b2126" id="svg_126"/>
  </g>
  <g id="svg_127">
   <path d="m271.5,138.5c0.62,0.11 1.12,0.44 1.5,1c1.43,7.62 1.76,15.28 1,23c-0.57,2.22 -1.4,4.22 -2.5,6c1.17,-10.01 1.17,-20.01 0,-30z" fill="#d33453" id="svg_128"/>
  </g>
  <g id="svg_129">
   <path d="m384.5,143.5c2.56,4.92 3.9,10.25 4,16c-1.84,-4.96 -3.18,-10.3 -4,-16z" fill="#c94c61" id="svg_130"/>
  </g>
  <g id="svg_131">
   <path d="m164.5,223.5c-1.26,-1.01 -1.93,-2.51 -2,-4.5c-0.77,-13.19 -1.77,-26.36 -3,-39.5c0,-1.33 0,-2.67 0,-4c0.85,-2.68 2.02,-5.34 3.5,-8c-0.52,-18.69 -0.35,-37.36 0.5,-56c1.58,-1.44 3.08,-3.1 4.5,-5c0.49,-1.29 0.66,-2.63 0.5,-4c1.47,-0.94 2.47,-2.27 3,-4c0.9,-4.82 1.57,-9.82 2,-15c-0.12,-4.49 -1.45,-8.49 -4,-12c1.33,-2 1.33,-4 0,-6c2.65,-2.08 2.48,-3.75 -0.5,-5c-0.33,-2.33 -0.67,-4.67 -1,-7c-0.67,-1.33 -1.33,-1.33 -2,0c-0.77,-3.65 -1.44,-7.31 -2,-11c-2.07,-0.76 -4.24,-1.26 -6.5,-1.5c-0.57,-1.21 -1.24,-2.37 -2,-3.5c-1.11,1.11 -2.44,1.78 -4,2c-1.56,-1.05 -3.22,-1.71 -5,-2c-0.17,1.32 0.16,2.49 1,3.5c-1.29,0.49 -2.63,0.66 -4,0.5c-0.14,1.76 0.19,3.43 1,5c-0.82,0.89 -1.82,1.22 -3,1c0.17,7.34 0,14.67 -0.5,22c-0.34,6.93 -1.5,13.6 -3.5,20c-9.01,0.17 -18.01,0 -27,-0.5c-1.33,-0.67 -2.67,-1.33 -4,-2c-1.95,-6.61 -3.95,-13.11 -6,-19.5c0,-1.33 0,-2.67 0,-4c1.05,0.15 2.05,-0.02 3,-0.5c-3.94,-5.28 -4.94,-11.12 -3,-17.5c-2.12,-2.11 -3.79,-4.44 -5,-7c1.37,0.16 2.71,-0.01 4,-0.5c-1.07,-1.16 -0.73,-1.99 1,-2.5c0.44,1.57 1.44,2.74 3,3.5c-0.33,0.33 -0.67,0.67 -1,1c4.17,-0.5 4.83,1 2,4.5c2.24,0.97 4.58,1.31 7,1c0.3,2.1 -0.03,4.1 -1,6c-0.93,-1.19 -1.26,-2.52 -1,-4c-1.33,0 -2.67,0 -4,0c-0.04,12.71 1.8,25.04 5.5,37c0.52,-1.02 1.35,-1.68 2.5,-2c4.62,0.89 9.29,1.22 14,1c-0.15,-1.05 0.02,-2.05 0.5,-3c2.59,2.53 5.25,2.53 8,0c1.56,-11.67 1.73,-23.33 0.5,-35c0.51,-2.38 1.18,-4.72 2,-7c1.35,-1.45 3.02,-2.12 5,-2c-0.22,-1.17 0.11,-2.17 1,-3c2.89,2.96 4.22,2.3 4,-2c2,0 4,0 6,0c0,1.33 0,2.67 0,4c1.89,0.2 3.39,-0.46 4.5,-2c0.18,1.99 0.01,3.99 -0.5,6c5.54,-0.3 8.54,2.37 9,8c1.37,-0.16 2.71,0.01 4,0.5c-1.35,2.29 -2.02,4.79 -2,7.5c0.67,2.91 1.84,5.57 3.5,8c0.31,5.91 1.14,11.74 2.5,17.5c0.44,9.97 -0.22,19.13 -2,27.5c-1,0 -2,0 -3,0c0.15,2.44 -0.69,3.11 -2.5,2c-0.77,2.71 -1.94,5.21 -3.5,7.5c0.43,1.93 1.1,3.76 2,5.5c-1.82,6.51 -2.49,13.17 -2,20c1,0 2,0 3,0c-0.53,5.39 -0.53,10.72 0,16c0.67,-2.67 1.33,-5.33 2,-8c1.4,1.35 2.06,3.02 2,5c-1.97,6.16 -2.97,12.5 -3,19c-1.67,0 -3.33,0 -5,0c-0.25,16.02 0.08,32.02 1,48z" fill="#d7193b" id="svg_132"/>
  </g>
  <g id="svg_133">
   <path d="m161.5,83.5c-1,0.09 -1.83,-0.25 -2.5,-1c-0.66,1.82 -1.83,3.16 -3.5,4c-0.11,-0.62 -0.44,-1.12 -1,-1.5c1.83,-1.11 2.66,-2.61 2.5,-4.5c-0.84,1.51 -2,2.01 -3.5,1.5c1.96,-1.45 3.3,-3.28 4,-5.5c1.06,-1.1 1.89,-2.43 2.5,-4c0.59,1.4 0.43,2.73 -0.5,4c0.67,1 1.33,2 2,3c-1.31,1.36 -1.31,2.7 0,4z" fill="#444345" id="svg_134"/>
  </g>
  <g id="svg_135">
   <path d="m148.5,58.5c1.45,7.95 1.12,15.95 -1,24c-0.62,-0.42 -0.96,-1.08 -1,-2c1.53,-7.25 2.2,-14.59 2,-22z" fill="#996873" id="svg_136"/>
  </g>
  <g id="svg_137">
   <path d="m159.5,53.5c1.89,6.36 3.89,12.7 6,19c0,1.33 0,2.67 0,4c-0.66,-0.9 -1.32,-1.9 -2,-3c-0.33,1.5 -0.67,3 -1,4.5c1.98,3.34 1.98,6.5 0,9.5c-0.33,-1.33 -0.67,-2.67 -1,-4c-1.31,-1.3 -1.31,-2.64 0,-4c-0.67,-1 -1.33,-2 -2,-3c0.93,-1.27 1.09,-2.6 0.5,-4c-0.61,1.57 -1.44,2.9 -2.5,4c0.84,-3.19 1.84,-6.35 3,-9.5c-0.89,-1.4 -1.56,-2.9 -2,-4.5c0.66,-1.95 0.99,-3.95 1,-6c0,-1 0,-2 0,-3z" fill="#c3b6bb" id="svg_138"/>
  </g>
  <g id="svg_139">
   <path d="m149.5,44.5c0.08,7.55 0.74,15.05 2,22.5c-0.31,7.39 -1.65,14.56 -4,21.5c-1.24,-1.89 -1.24,-3.89 0,-6c2.12,-8.05 2.45,-16.05 1,-24c0.24,-1.29 -0.1,-2.29 -1,-3c0,-0.67 0,-1.33 0,-2c-0.16,-2.69 0,-5.35 0.5,-8c0.38,-0.56 0.88,-0.89 1.5,-1z" fill="#271b1c" id="svg_140"/>
  </g>
  <g id="svg_141">
   <path d="m158.5,56.5c0.33,0 0.67,0 1,0c-0.01,2.05 -0.34,4.05 -1,6c0.44,1.6 1.11,3.1 2,4.5c-1.16,3.15 -2.16,6.31 -3,9.5c-0.96,0.45 -1.79,1.12 -2.5,2c0.74,-2.81 0.58,-5.64 -0.5,-8.5c1.68,-4.54 3.02,-9.04 4,-13.5z" fill="#2b2a2b" id="svg_142"/>
  </g>
  <g id="svg_143">
   <path d="m159.5,51.5c0.88,-0.13 1.54,0.2 2,1c2.35,6.46 3.69,13.12 4,20c-2.11,-6.3 -4.11,-12.64 -6,-19c0,-0.67 0,-1.33 0,-2z" fill="#842a39" id="svg_144"/>
  </g>
  <g id="svg_145">
   <path d="m159.5,51.5c0,0.67 0,1.33 0,2c0,1 0,2 0,3c-0.33,0 -0.67,0 -1,0c-1.54,-0.66 -3.21,-1.33 -5,-2c-0.58,-3.5 -1.58,-6.83 -3,-10c0.75,-1.07 1.75,-1.24 3,-0.5c1.86,2.69 3.86,5.19 6,7.5z" fill="#f6ecef" id="svg_146"/>
  </g>
  <g id="svg_147">
   <path d="m159.5,51.5c-2.14,-2.31 -4.14,-4.81 -6,-7.5c-1.25,-0.74 -2.25,-0.57 -3,0.5c-0.33,0 -0.67,0 -1,0c-0.62,0.11 -1.12,0.44 -1.5,1c-0.5,2.65 -0.66,5.31 -0.5,8c-0.97,-2.45 -1.31,-5.11 -1,-8c1.33,-1.66 3,-2.99 5,-4c4.54,1.87 7.21,5.2 8,10z" fill="#822c3d" id="svg_148"/>
  </g>
  <g id="svg_149">
   <path d="m249.5,157.5c1.47,3.39 2.14,7.05 2,11c0,2.53 -0.34,4.86 -1,7c0.07,-6.03 -0.26,-12.03 -1,-18z" fill="#e199a5" id="svg_150"/>
  </g>
  <g id="svg_151">
   <path d="m75.5,75.5c0.81,1.79 1.31,3.79 1.5,6c0.33,11.33 0.67,22.67 1,34c0.38,0.56 0.88,0.89 1.5,1c-0.16,2.36 0,4.69 0.5,7c0.71,0.88 1.54,1.55 2.5,2c1.46,4.88 2.46,9.88 3,15c-1.38,6.49 -2.71,12.99 -4,19.5c0.29,2.79 1.29,5.29 3,7.5c0.56,30.36 1.56,60.69 3,91c-0.99,-6.15 -1.32,-12.48 -1,-19c-1,0 -2,0 -3,0c0.5,-10.1 -0.17,-20.1 -2,-30c1.95,-11.96 2.29,-23.96 1,-36c-2.07,-3.14 -3.91,-6.48 -5.5,-10c-0.71,-6.7 -0.55,-13.37 0.5,-20c1,0 2,0 3,0c-0.48,-5.73 -0.48,-11.4 0,-17c-3.63,-2.68 -5.46,-6.35 -5.5,-11c-0.76,-13.36 -0.59,-26.69 0.5,-40z" fill="#be1734" id="svg_152"/>
  </g>
  <g id="svg_153">
   <path d="m106.5,126.5c1.62,0.29 2.62,1.29 3,3c-0.35,1.2 -0.85,1.2 -1.5,0c-0.91,2.81 -0.08,4.81 2.5,6c-1.73,2.71 -3.4,5.38 -5,8c0.13,-0.74 -0.04,-1.41 -0.5,-2c-2.47,0.65 -5.3,0.98 -8.5,1c-0.94,6.59 -2.27,13.09 -4,19.5c2.15,4.81 4.49,9.65 7,14.5c1.91,1.21 2.24,0.88 1,-1c2.74,-0.6 4.08,0.73 4,4c2,0 4,0 6,0c0.6,2.99 1.93,5.66 4,8c0.67,-1 1.33,-2 2,-3c1.78,2.18 3.78,2.18 6,0c0.69,0.53 1.19,1.19 1.5,2c1.52,-5.18 3.02,-5.18 4.5,0c0.75,-0.88 1.25,-1.88 1.5,-3c0.67,1.33 1.33,1.33 2,0c0.5,-1.97 0.66,-3.97 0.5,-6c2.42,-0.21 4.75,0.13 7,1c1.41,-3.16 3.08,-6.16 5,-9c0.6,1.22 0.76,2.55 0.5,4c0.83,-1 1.67,-2 2.5,-3c0.59,0.21 1.09,0.54 1.5,1c0.29,-1.54 0.96,-2.88 2,-4c0.7,-9.11 0.2,-18.11 -1.5,-27c-1.6,0.27 -2.93,-0.07 -4,-1c2.33,0 4.67,0 7,0c2.82,3.63 5.15,7.63 7,12c0,5 0,10 0,15c0,0.67 0,1.33 0,2c-1.33,1.33 -2.67,2.67 -4,4c-0.93,1.07 -1.27,2.4 -1,4c-2.56,-1.79 -4.23,-1.12 -5,2c-3.06,2.08 -6.06,4.08 -9,6c-0.59,3.23 -2.59,4.57 -6,4c0.16,-1.7 -0.01,-3.37 -0.5,-5c-1.74,2.98 -3.24,5.98 -4.5,9c-1,0 -2,0 -3,0c0.01,1.81 -0.49,3.47 -1.5,5c-0.49,-1.29 -0.66,-2.63 -0.5,-4c0.15,-1.05 -0.02,-2.05 -0.5,-3c-1.33,1.08 -2.83,1.75 -4.5,2c-0.75,-1.07 -1.75,-1.24 -3,-0.5c-0.57,1.21 -1.24,2.37 -2,3.5c-0.71,-2.8 -2.04,-5.13 -4,-7c0,-0.33 0,-0.67 0,-1c-1.07,-0.93 -2.4,-1.27 -4,-1c0.24,1.29 -0.1,2.29 -1,3c-0.16,-1.65 -0.83,-2.99 -2,-4c-0.67,0 -1.33,0 -2,0c-1.25,-1.5 -2.25,-3.17 -3,-5c0.22,-1.18 -0.11,-2.18 -1,-3c-0.78,1.23 -1.28,2.56 -1.5,4c-0.36,-3.04 -1.03,-3.38 -2,-1c-0.2,-1.88 -0.7,-3.55 -1.5,-5c-0.33,0 -0.67,0 -1,0c-2.19,-3.36 -3.69,-7.03 -4.5,-11c-0.33,0.67 -0.67,1.33 -1,2c-1.75,-2.75 -2.58,-5.75 -2.5,-9c2.66,-3.99 4.83,-8.33 6.5,-13c0.63,-3.37 0.13,-3.71 -1.5,-1c-0.27,-1.6 0.07,-2.93 1,-4c12.97,5.02 18.64,0.69 17,-13z" fill="#ddd7d9" id="svg_154"/>
  </g>
  <g id="svg_155">
   <path d="m127.5,169.5c0.74,0.13 1.41,-0.04 2,-0.5c1.57,-2.33 3.23,-4.49 5,-6.5c-0.14,3.12 -1.48,5.62 -4,7.5c-10.01,6.1 -18.01,4.26 -24,-5.5c-0.13,-0.74 0.04,-1.41 0.5,-2c0.88,2.6 2.38,4.77 4.5,6.5c5.41,2.91 10.74,3.07 16,0.5z" fill="#4d3225" id="svg_156"/>
  </g>
  <g id="svg_157">
   <path d="m129.5,143.5c1.33,0 2.67,0 4,0c0.67,0.67 1.33,1.33 2,2c0.13,5.7 -0.21,11.37 -1,17c-1.77,2.01 -3.43,4.17 -5,6.5c-0.59,0.46 -1.26,0.63 -2,0.5c-8.45,2.19 -14.45,-0.47 -18,-8c0.72,-1.37 1.39,-2.7 2,-4c3.06,2.28 6.4,2.62 10,1c4.5,2.01 7.83,0.67 10,-4c-0.33,-0.33 -0.67,-0.67 -1,-1c-1.48,4.08 -4.15,5.41 -8,4c-1.14,-3 -1.14,-6 0,-9c2.54,-1.43 4.87,-3.1 7,-5z" fill="#cb8b5f" id="svg_158"/>
  </g>
  <g id="svg_159">
   <path d="m121.5,158.5c0.67,0 1,-0.33 1,-1c3.85,1.41 6.52,0.08 8,-4c0.33,0.33 0.67,0.67 1,1c-2.17,4.67 -5.5,6.01 -10,4z" fill="#5e2d13" id="svg_160"/>
  </g>
  <g id="svg_161">
   <path d="m135.5,145.5c0.66,2.14 1,4.47 1,7c0.19,3.64 -0.48,6.97 -2,10c0.79,-5.63 1.13,-11.3 1,-17z" fill="#4b3526" id="svg_162"/>
  </g>
  <g id="svg_163">
   <path d="m154.5,176.5c0,1 0,2 0,3c-1.25,-0.08 -2.08,-0.74 -2.5,-2c-0.96,1.08 -1.79,2.25 -2.5,3.5c-2.74,1.91 -5.74,3.08 -9,3.5c2.94,-1.92 5.94,-3.92 9,-6c0.77,-3.12 2.44,-3.79 5,-2z" fill="#403a3c" id="svg_164"/>
  </g>
  <g id="svg_165">
   <path d="m286.5,149.5c1.15,6.82 1.32,13.82 0.5,21c-3.88,8.08 -7.72,16.41 -11.5,25c-1.19,0.93 -2.52,1.26 -4,1c4.34,-6.67 8.17,-13.67 11.5,-21c2.91,-8.43 4.08,-17.09 3.5,-26z" fill="#d43954" id="svg_166"/>
  </g>
  <g id="svg_167">
   <path d="m84.5,167.5c1.52,3.54 3.52,6.88 6,10c0,1.67 0,3.33 0,5c-0.62,0.11 -1.12,0.44 -1.5,1c-2.17,9.9 -2.84,19.9 -2,30c1.84,3.18 3.01,6.51 3.5,10c0.98,3.13 1.31,6.46 1,10c0.88,13.31 1.22,26.64 1,40c1,0 2,0 3,0c1.12,3.36 1.12,6.69 0,10c-3.35,0.79 -6.68,1.62 -10,2.5c-0.56,0.38 -0.89,0.88 -1,1.5c-0.33,0 -0.67,0 -1,0c0.21,-1.42 0.71,-2.75 1.5,-4c3.54,-1.22 5.37,-3.72 5.5,-7.5c-2.49,-5.5 -3.49,-11.34 -3,-17.5c-1.44,-30.31 -2.44,-60.64 -3,-91z" fill="#a91631" id="svg_168"/>
  </g>
  <g id="svg_169">
   <path d="m91.5,175.5c0.33,0 0.67,0 1,0c-0.05,3.7 -0.39,7.37 -1,11c0.31,8.76 -0.36,17.43 -2,26c-0.66,-1.12 -0.99,-2.46 -1,-4c0.92,-8.65 1.59,-17.32 2,-26c0,-1.67 0,-3.33 0,-5c0.84,-0.34 1.17,-1.01 1,-2z" fill="#442025" id="svg_170"/>
  </g>
  <g id="svg_171">
   <path d="m155.5,172.5c-0.02,9.79 0.31,19.79 1,30c-0.67,0 -1,-0.33 -1,-1c-0.57,-5.98 -0.91,-11.98 -1,-18c0,-1.33 0,-2.67 0,-4c0,-1 0,-2 0,-3c-0.27,-1.6 0.07,-2.93 1,-4z" fill="#702c39" id="svg_172"/>
  </g>
  <g id="svg_173">
   <path d="m231.5,148.5c5.63,4.59 8.63,10.59 9,18c-1.03,8.52 -2.37,16.86 -4,25c-1.16,4.18 -2.16,8.51 -3,13c-0.97,2.45 -1.31,5.12 -1,8c-1.79,-1.6 -2.79,-3.77 -3,-6.5c0.11,-1.72 0.61,-1.89 1.5,-0.5c0.66,-4.55 1.83,-8.88 3.5,-13c-0.59,-1.88 -1.26,-3.72 -2,-5.5c6.89,-12.93 6.56,-25.76 -1,-38.5z" fill="#d5314d" id="svg_174"/>
  </g>
  <g id="svg_175">
   <path d="m249.5,155.5c0.65,0.3 1.32,0.64 2,1c0.68,6.56 1.35,13.06 2,19.5c-0.92,0.37 -1.75,0.87 -2.5,1.5c-2.61,8.52 0.22,12.19 8.5,11c-4.09,3.02 -7.59,2.35 -10.5,-2c-0.75,-3.95 -0.25,-7.62 1.5,-11c0.66,-2.14 1,-4.47 1,-7c0.14,-3.95 -0.53,-7.61 -2,-11c0,-0.67 0,-1.33 0,-2z" fill="#cc4862" id="svg_176"/>
  </g>
  <g id="svg_177">
   <path d="m388.5,159.5c1.12,2.45 1.95,5.12 2.5,8c3.02,18.8 3.19,37.47 0.5,56c0.54,-21.43 -0.46,-42.76 -3,-64z" fill="#d65065" id="svg_178"/>
  </g>
  <g id="svg_179">
   <path d="m9.5,167.5c-1.17,20.34 -1.17,40.67 0,61c-3.98,-20.32 -3.98,-40.66 0,-61z" fill="#cd3b54" id="svg_180"/>
  </g>
  <g id="svg_181">
   <path d="m92.5,175.5c0.8,1.45 1.3,3.12 1.5,5c0.97,-2.38 1.64,-2.04 2,1c0.22,-1.44 0.72,-2.77 1.5,-4c0.89,0.82 1.22,1.82 1,3c-0.54,0.06 -0.88,0.39 -1,1c0.83,1.67 1.67,3.33 2.5,5c2.18,1.34 2.68,1.01 1.5,-1c0.67,0 1.33,0 2,0c-0.16,1.37 0.01,2.71 0.5,4c0.69,1.24 1.19,1.24 1.5,0c0.9,-0.71 1.24,-1.71 1,-3c1.6,-0.27 2.93,0.07 4,1c-3.8,0.32 -3.97,1.32 -0.5,3c0.46,-0.59 0.63,-1.26 0.5,-2c1.96,1.87 3.29,4.2 4,7c0.76,-1.13 1.43,-2.29 2,-3.5c1.25,-0.74 2.25,-0.57 3,0.5c-0.03,1 0.47,1.66 1.5,2c1.14,-0.49 2.31,-0.82 3.5,-1c-0.16,1.37 0.01,2.71 0.5,4c1.01,-1.53 1.51,-3.19 1.5,-5c1,0 2,0 3,0c-0.13,0.74 0.04,1.41 0.5,2c1.7,-1.91 3.2,-3.91 4.5,-6c3.41,0.57 5.41,-0.77 6,-4c3.26,-0.42 6.26,-1.59 9,-3.5c0.71,-1.25 1.54,-2.42 2.5,-3.5c0.42,1.26 1.25,1.92 2.5,2c0,1.33 0,2.67 0,4c-1.58,3.38 -2.25,7.04 -2,11c-2.07,-0.05 -3.9,0.62 -5.5,2c-1.17,-1.01 -2.34,-2.01 -3.5,-3c-1.49,2.35 -2.82,4.69 -4,7c-3.21,0.49 -6.04,-0.18 -8.5,-2c-0.37,0.92 -0.87,1.75 -1.5,2.5c-1.97,0.5 -3.97,0.66 -6,0.5c0,1.33 0,2.67 0,4c-4.34,0.92 -6.84,-0.74 -7.5,-5c-3.19,5.26 -6.03,4.93 -8.5,-1c-0.97,2.24 -1.31,4.58 -1,7c-0.8,-1.45 -1.3,-3.12 -1.5,-5c-0.49,1.63 -0.66,3.3 -0.5,5c-1.51,-2.97 -1.17,-5.8 1,-8.5c-2.39,-0.68 -4.73,-1.51 -7,-2.5c-2.05,-3.81 -3.72,-7.81 -5,-12c-0.68,1.1 -1.34,2.1 -2,3c0.61,-3.63 0.95,-7.3 1,-11z" fill="#c4bfc3" id="svg_182"/>
  </g>
  <g id="svg_183">
   <path d="m98.5,180.5c0.75,1.83 1.75,3.5 3,5c1.18,2.01 0.68,2.34 -1.5,1c-0.83,-1.67 -1.67,-3.33 -2.5,-5c0.12,-0.61 0.46,-0.94 1,-1z" fill="#383337" id="svg_184"/>
  </g>
  <g id="svg_185">
   <path d="m104.5,206.5c-0.08,1.5 0.58,2.5 2,3c1.06,-0.93 1.06,-1.93 0,-3c-0.31,-2.42 0.03,-4.76 1,-7c2.47,5.93 5.31,6.26 8.5,1c0.66,4.26 3.16,5.92 7.5,5c0,-1.33 0,-2.67 0,-4c2.03,0.16 4.03,0 6,-0.5c0.63,-0.75 1.13,-1.58 1.5,-2.5c2.46,1.82 5.29,2.49 8.5,2c1.18,-2.31 2.51,-4.65 4,-7c1.16,0.99 2.33,1.99 3.5,3c1.6,-1.38 3.43,-2.05 5.5,-2c-0.25,-3.96 0.42,-7.62 2,-11c0.09,6.02 0.43,12.02 1,18c-1.33,4.67 -1.33,9.33 0,14c-0.75,6.59 0.58,12.59 4,18c0.33,0.67 0.67,1.33 1,2c1.78,8.19 2.45,16.52 2,25c-1,0 -2,0 -3,0c0.24,3.11 -0.1,6.11 -1,9c-0.33,0 -0.67,0 -1,0c0.15,-1.05 -0.02,-2.05 -0.5,-3c-0.26,3.88 -1.26,7.54 -3,11c-0.41,-0.46 -0.91,-0.79 -1.5,-1c-1.13,2.21 -1.8,4.54 -2,7c-16.8,0.79 -33.8,0.79 -51,0c0.51,-2.89 -0.16,-5.22 -2,-7c-4.08,-9.8 -5.08,-19.97 -3,-30.5c-0.5,-4.5 -1,-9 -1.5,-13.5c-0.38,0.56 -0.88,0.89 -1.5,1c0.31,-3.54 -0.02,-6.87 -1,-10c0.08,-3.72 -0.26,-7.38 -1,-11c1.64,-8.57 2.31,-17.24 2,-26c0.66,-0.9 1.32,-1.9 2,-3c1.28,4.19 2.95,8.19 5,12c2.27,0.99 4.61,1.82 7,2.5c-2.17,2.7 -2.51,5.53 -1,8.5z" fill="#fbf6f8" id="svg_186"/>
  </g>
  <g id="svg_187">
   <path d="m124.5,193.5c-1.19,0.18 -2.36,0.51 -3.5,1c-1.03,-0.34 -1.53,-1 -1.5,-2c1.67,-0.25 3.17,-0.92 4.5,-2c0.48,0.95 0.65,1.95 0.5,3z" fill="#423d40" id="svg_188"/>
  </g>
  <g id="svg_189">
   <path d="m134.5,188.5c-1.3,2.09 -2.8,4.09 -4.5,6c-0.46,-0.59 -0.63,-1.26 -0.5,-2c1.26,-3.02 2.76,-6.02 4.5,-9c0.49,1.63 0.66,3.3 0.5,5z" fill="#383235" id="svg_190"/>
  </g>
  <g id="svg_191">
   <path d="m110.5,187.5c0,0.33 0,0.67 0,1c0.13,0.74 -0.04,1.41 -0.5,2c-3.47,-1.68 -3.3,-2.68 0.5,-3z" fill="#292528" id="svg_192"/>
  </g>
  <g id="svg_193">
   <path d="m103.5,185.5c1.17,1.01 1.84,2.35 2,4c-0.31,1.24 -0.81,1.24 -1.5,0c-0.49,-1.29 -0.66,-2.63 -0.5,-4z" fill="#494448" id="svg_194"/>
  </g>
  <g id="svg_195">
   <path d="m236.5,191.5c0.53,4.81 -0.47,9.15 -3,13c0.84,-4.49 1.84,-8.82 3,-13z" fill="#f4b9c2" id="svg_196"/>
  </g>
  <g id="svg_197">
   <path d="m269.5,199.5c-2.4,3.4 -5.4,6.07 -9,8c2.4,-3.4 5.4,-6.07 9,-8z" fill="#dc647a" id="svg_198"/>
  </g>
  <g id="svg_199">
   <path d="m90.5,182.5c-0.41,8.68 -1.08,17.35 -2,26c0.01,1.54 0.34,2.88 1,4c0.74,3.62 1.08,7.28 1,11c-0.49,-3.49 -1.66,-6.82 -3.5,-10c-0.84,-10.1 -0.17,-20.1 2,-30c0.38,-0.56 0.88,-0.89 1.5,-1z" fill="#7e2234" id="svg_200"/>
  </g>
  <g id="svg_201">
   <path d="m106.5,206.5c1.06,1.07 1.06,2.07 0,3c-1.42,-0.5 -2.08,-1.5 -2,-3c-0.16,-1.7 0.01,-3.37 0.5,-5c0.2,1.88 0.7,3.55 1.5,5z" fill="#2a2627" id="svg_202"/>
  </g>
  <g id="svg_203">
   <path d="m155.5,201.5c0,0.67 0.33,1 1,1c0,3.33 0,6.67 0,10c-0.9,0.71 -1.24,1.71 -1,3c-1.33,-4.67 -1.33,-9.33 0,-14z" fill="#9b7179" id="svg_204"/>
  </g>
  <g id="svg_205">
   <path d="m139.5,214.5c-1.33,0 -2,-0.67 -2,-2c0.66,-0.9 1.32,-1.9 2,-3c1.17,1.67 1.17,3.33 0,5z" fill="#7c7c7c" id="svg_206"/>
  </g>
  <g id="svg_207">
   <path d="m137.5,211.5c-0.67,2.33 -1.33,4.67 -2,7c-0.31,-2.75 0.02,-5.41 1,-8c0.61,0.12 0.94,0.46 1,1z" fill="#6f6f6f" id="svg_208"/>
  </g>
  <g id="svg_209">
   <path d="m137.5,211.5c0,0.33 0,0.67 0,1c0,1.33 0.67,2 2,2c-0.32,3.16 -1.98,4.66 -5,4.5c0.23,-0.4 0.56,-0.56 1,-0.5c0.67,-2.33 1.33,-4.67 2,-7z" fill="#131313" id="svg_210"/>
  </g>
  <g id="svg_211">
   <path d="m310.5,223.5c-5.51,1.15 -11.18,1.15 -17,0c-7.33,0 -14.67,0 -22,0c0,-1 0,-2 0,-3c7.67,-0.17 15.34,0 23,0.5c5.06,2.26 10.39,3.09 16,2.5z" fill="#9f1530" id="svg_212"/>
  </g>
  <g id="svg_213">
   <path d="m335.5,222.5c0,0.33 0,0.67 0,1c-0.48,8.05 -0.48,16.05 0,24c-2.43,-1.11 -3.43,-3.11 -3,-6c1.26,-3.88 1.93,-7.88 2,-12c0,-2.2 -0.34,-4.2 -1,-6c-0.67,0 -1.33,0 -2,0c-6.2,-1.27 -12.54,-1.27 -19,0c-0.09,-1 0.25,-1.83 1,-2.5c7.46,-0.91 14.79,-0.41 22,1.5z" fill="#94172f" id="svg_214"/>
  </g>
  <g id="svg_215">
   <path d="m260.5,207.5c-0.49,2.82 -2.16,4.16 -5,4c0,1.67 0,3.33 0,5c-2.96,-0.38 -3.96,0.62 -3,3c6.54,3.26 12.54,2.6 18,-2c21.62,1.96 43.29,2.63 65,2c0,1 0,2 0,3c-7.21,-1.91 -14.54,-2.41 -22,-1.5c-0.75,0.67 -1.09,1.5 -1,2.5c-0.67,0 -1.33,0 -2,0c-5.61,0.59 -10.94,-0.24 -16,-2.5c-7.66,-0.5 -15.33,-0.67 -23,-0.5c0,1 0,2 0,3c-0.33,0 -0.67,0 -1,0c-2.28,-0.42 -3.95,0.24 -5,2c-2.96,1.43 -5.63,0.93 -8,-1.5c-6.54,-0.22 -13.04,-0.72 -19.5,-1.5c-1.14,0.49 -2.31,0.82 -3.5,1c-1.33,0 -2.67,0 -4,0c-0.42,-0.72 -1.08,-1.22 -2,-1.5c-5.33,-0.67 -10.67,-0.67 -16,0c-0.56,0.38 -0.89,0.88 -1,1.5c-1.33,0 -2.67,0 -4,0c0.08,-1.25 0.74,-2.08 2,-2.5c7.97,-1.11 15.97,-1.95 24,-2.5c-0.02,-2.06 -0.35,-4.06 -1,-6c2.79,3.67 6.46,4.84 11,3.5c6,-2.33 11.66,-5.17 17,-8.5z" fill="#c81d3d" id="svg_216"/>
  </g>
  <g id="svg_217">
   <path d="m230.5,223.5c-6.33,0 -12.67,0 -19,0c0.11,-0.62 0.44,-1.12 1,-1.5c5.33,-0.67 10.67,-0.67 16,0c0.92,0.28 1.58,0.78 2,1.5z" fill="#8b1228" id="svg_218"/>
  </g>
  <g id="svg_219">
   <path d="m331.5,223.5c-9.01,-0.22 -17.84,0.45 -26.5,2c-3.17,-0.17 -6.33,-0.33 -9.5,-0.5c-0.92,-0.28 -1.58,-0.78 -2,-1.5c5.82,1.15 11.49,1.15 17,0c0.67,0 1.33,0 2,0c6.46,-1.27 12.8,-1.27 19,0z" fill="#620e1f" id="svg_220"/>
  </g>
  <g id="svg_221">
   <path d="m156.5,212.5c0.95,3.37 0.95,6.71 0,10c1,3.35 2,6.68 3,10c0,0.33 0,0.67 0,1c-3.42,-5.41 -4.75,-11.41 -4,-18c-0.24,-1.29 0.1,-2.29 1,-3z" fill="#541a24" id="svg_222"/>
  </g>
  <g id="svg_223">
   <path d="m335.5,223.5c1,0 2,0 3,0c-0.17,6.34 0,12.68 0.5,19c4.03,2.75 6.53,6.41 7.5,11c-1.68,-0.22 -2.68,0.45 -3,2c-0.78,-1.58 -1.95,-2.91 -3.5,-4c-0.49,-1.29 -0.66,-2.63 -0.5,-4c-1.33,0 -2.67,0 -4,0c-0.48,-7.95 -0.48,-15.95 0,-24z" fill="#c31839" id="svg_224"/>
  </g>
  <g id="svg_225">
   <path d="m159.5,179.5c1.23,13.14 2.23,26.31 3,39.5c0.07,1.99 0.74,3.49 2,4.5c-0.1,3.17 0.57,6.17 2,9c2.59,0.69 4.92,1.86 7,3.5c8.53,0.21 17.03,0.71 25.5,1.5c0.9,-0.24 1.74,-0.58 2.5,-1c0,1 0,2 0,3c-11.61,-0.11 -23.11,-0.11 -34.5,0c-1.34,-4.01 -3.17,-7.68 -5.5,-11c-3.58,-16.45 -4.75,-33.12 -3.5,-50c0.38,0.56 0.88,0.89 1.5,1z" fill="#c51736" id="svg_226"/>
  </g>
  <g id="svg_229">
   <path d="m124.5,232.5c1.19,0.47 1.86,1.47 2,3c-0.26,2.12 -1.26,3.78 -3,5c-1.23,-2.84 -0.9,-5.51 1,-8z" fill="#3e3d3d" id="svg_230"/>
  </g>
  <g id="svg_231">
   <path d="m265.5,225.5c0.17,7.01 0,14.01 -0.5,21c-2,1.33 -4,1.33 -6,0c-0.17,-6.85 -0.67,-13.51 -1.5,-20c-0.11,-0.62 -0.44,-1.12 -1,-1.5c-5.85,-0.82 -11.51,-0.65 -17,0.5c-3.25,4.21 -4.92,3.55 -5,-2c1.19,-0.18 2.36,-0.51 3.5,-1c6.46,0.78 12.96,1.28 19.5,1.5c2.37,2.43 5.04,2.93 8,1.5z" fill="#90142b" id="svg_232"/>
  </g>
  <g id="svg_233">
   <path d="m159.5,168.5c-0.37,2.58 -0.37,4.91 0,7c0,1.33 0,2.67 0,4c-0.62,-0.11 -1.12,-0.44 -1.5,-1c-1.25,16.88 -0.08,33.55 3.5,50c2.33,3.32 4.16,6.99 5.5,11c11.39,-0.11 22.89,-0.11 34.5,0c0,-1 0,-2 0,-3c1.47,-3.49 2.64,-7.16 3.5,-11c0.42,-1.26 1.25,-1.92 2.5,-2c0,4.33 0,8.67 0,13c-1,-0.09 -1.83,0.25 -2.5,1c-0.13,2.87 -1.3,5.21 -3.5,7c-11.96,1.85 -23.63,0.85 -35,-3c-1.69,-2.05 -2.86,-4.39 -3.5,-7c-0.82,-1.32 -1.98,-1.99 -3.5,-2c-1,-3.32 -2,-6.65 -3,-10c0.95,-3.29 0.95,-6.63 0,-10c0,-3.33 0,-6.67 0,-10c-0.69,-10.21 -1.02,-20.21 -1,-30c1.33,-1.33 2.67,-2.67 4,-4z" fill="#a91731" id="svg_234"/>
  </g>
  <g id="svg_237">
   <path d="m103.5,239.5c1.19,0.47 1.86,1.47 2,3c0.41,3.07 1.08,6.07 2,9c-0.33,0.33 -0.67,0.67 -1,1c-2.54,-3.93 -3.54,-8.26 -3,-13z" fill="#393536" id="svg_238"/>
  </g>
  <g id="svg_239">
   <path d="m333.5,223.5c0.66,1.8 1,3.8 1,6c-0.07,4.12 -0.74,8.12 -2,12c-0.43,2.89 0.57,4.89 3,6c0,0.67 0,1.33 0,2c-1.91,-0.07 -3.08,-1.07 -3.5,-3c-0.5,-2.31 -0.66,-4.64 -0.5,-7c0.67,-5.33 1.33,-10.67 2,-16z" fill="#6b1222" id="svg_240"/>
  </g>
  <g id="svg_241">
   <path d="m159.5,232.5c1.52,0.01 2.68,0.68 3.5,2c0.64,2.61 1.81,4.95 3.5,7c11.37,3.85 23.04,4.85 35,3c2.2,-1.79 3.37,-4.13 3.5,-7c0.67,-0.75 1.5,-1.09 2.5,-1c0,1 0,2 0,3c-1.9,1.75 -3.23,3.92 -4,6.5c-10.33,0.67 -20.67,0.67 -31,0c-2.33,-1 -4.67,-2 -7,-3c-1.77,-2.54 -3.43,-5.04 -5,-7.5c-0.33,-0.67 -0.67,-1.33 -1,-2c0,-0.33 0,-0.67 0,-1z" fill="#79142d" id="svg_242"/>
  </g>
  <g id="svg_243">
   <path d="m160.5,235.5c1.57,2.46 3.23,4.96 5,7.5c2.33,1 4.67,2 7,3c10.33,0.67 20.67,0.67 31,0c0.77,-2.58 2.1,-4.75 4,-6.5c-0.28,2.62 -0.95,5.12 -2,7.5c-10.18,0.17 -20.18,0.67 -30,1.5c-3.97,-0.54 -7.64,-1.88 -11,-4c-0.83,6.31 -1.33,12.64 -1.5,19c-1.53,1.72 -2.53,3.72 -3,6c-0.69,1.24 -1.19,1.24 -1.5,0c0.9,-2.89 1.24,-5.89 1,-9c1,0 2,0 3,0c0.45,-8.48 -0.22,-16.81 -2,-25z" fill="#471b20" id="svg_244"/>
  </g>
  <g id="svg_245">
   <path d="m11.5,244.5c1.42,2.01 2.09,4.35 2,7c-1.42,-2.01 -2.09,-4.35 -2,-7z" fill="#efa9b5" id="svg_246"/>
  </g>
  <g id="svg_247">
   <path d="m331.5,239.5c-0.16,2.36 0,4.69 0.5,7c0.42,1.93 1.59,2.93 3.5,3c1,-0.09 1.83,0.25 2.5,1c0.35,2.35 1.51,4.18 3.5,5.5c-0.23,0.4 -0.56,0.56 -1,0.5c-3.07,-3.08 -6.4,-5.74 -10,-8c-1.35,-3.23 -1.02,-6.23 1,-9z" fill="#3e0d10" id="svg_248"/>
  </g>
  <g id="svg_249">
   <path d="m143.5,244.5c0.88,-0.13 1.54,0.2 2,1c-0.71,2.28 -1.21,4.61 -1.5,7c-0.5,-2.65 -0.66,-5.31 -0.5,-8z" fill="#282526" id="svg_250"/>
  </g>
  <g id="svg_251">
   <path d="m330.5,248.5c3.6,2.26 6.93,4.92 10,8c0.13,0.74 -0.04,1.41 -0.5,2c-6.24,-3.8 -8.4,-2.46 -6.5,4c-4.18,-1.21 -4.84,-3.38 -2,-6.5c-0.95,-0.48 -1.95,-0.65 -3,-0.5c-0.51,-2.89 0.16,-5.22 2,-7z" fill="#9b6c5a" id="svg_252"/>
  </g>
  <g id="svg_253">
   <path d="m186.5,261.5c2.27,1.77 4.44,3.77 6.5,6c0.69,0.94 0.53,1.6 -0.5,2c-4,-3.99 -8.33,-7.66 -13,-11c0.33,-0.33 0.67,-0.67 1,-1c2.03,1.34 4.03,2.68 6,4z" fill="#602e14" id="svg_254"/>
  </g>
  <g id="svg_255">
   <path d="m175.5,248.5c9.72,-0.31 19.39,0.03 29,1c0.33,0.5 0.67,1 1,1.5c-2.04,9.74 -3.37,19.58 -4,29.5c-0.33,0 -0.67,0 -1,0c-0.12,-8.81 0.88,-17.47 3,-26c-0.09,-1.83 -0.75,-3.17 -2,-4c-8.67,-0.67 -17.33,-1.33 -26,-2z" fill="#644a38" id="svg_256"/>
  </g>
  <g id="svg_257">
   <path d="m201.5,252.5c-0.29,1.62 -1.29,2.62 -3,3c-0.83,3.65 -1.16,7.15 -1,10.5c-3.3,-1.97 -6.97,-3.47 -11,-4.5c-1.97,-1.32 -3.97,-2.66 -6,-4c-0.33,0.33 -0.67,0.67 -1,1c4.67,3.34 9,7.01 13,11c0.81,1.15 1.81,1.15 3,0c0.93,4.64 1.6,9.3 2,14c-2.35,-0.34 -4.69,-0.84 -7,-1.5c-2.72,-4.82 -6.72,-6.98 -12,-6.5c0.68,1.36 1.35,2.69 2,4c-0.54,1.62 -0.87,3.28 -1,5c-7.25,-1.3 -14.58,-1.97 -22,-2c0.05,-3.7 0.39,-7.37 1,-11c1.18,0.22 2.18,-0.11 3,-1c2.67,-3.85 4.67,-8.01 6,-12.5c-0.46,-0.41 -0.79,-0.91 -1,-1.5c8.45,-0.68 8.78,-1.85 1,-3.5c-0.84,-1.01 -1.17,-2.18 -1,-3.5c11.7,1.04 23.37,2.04 35,3z" fill="#cf8c5b" id="svg_258"/>
  </g>
  <g id="svg_259">
   <path d="m335.5,247.5c1.33,0 2.67,0 4,0c-0.16,1.37 0.01,2.71 0.5,4c1.55,1.09 2.72,2.42 3.5,4c0,1 0,2 0,3c-3.17,0.25 -5.17,1.92 -6,5c1.29,6.31 1.29,12.64 0,19c-0.68,0.36 -1.35,0.7 -2,1c0,-2 0,-4 0,-6c0,-3.67 0,-7.33 0,-11c-0.03,-1.7 -0.69,-3.03 -2,-4c-1.9,-6.46 0.26,-7.8 6.5,-4c0.46,-0.59 0.63,-1.26 0.5,-2c0.44,0.06 0.77,-0.1 1,-0.5c-1.99,-1.32 -3.15,-3.15 -3.5,-5.5c-0.67,-0.75 -1.5,-1.09 -2.5,-1c0,-0.67 0,-1.33 0,-2z" fill="#a91d30" id="svg_260"/>
  </g>
  <g id="svg_261">
   <path d="m335.5,266.5c0,3.67 0,7.33 0,11c-0.62,-0.11 -1.12,-0.44 -1.5,-1c-0.29,-2.39 -0.79,-4.72 -1.5,-7c0.35,-1.2 0.85,-1.2 1.5,0c0.62,-0.95 0.45,-1.78 -0.5,-2.5c0.59,-0.46 1.26,-0.63 2,-0.5z" fill="#691d2c" id="svg_262"/>
  </g>
  <g id="svg_263">
   <path d="m124.5,274.5c3.12,1.91 3.45,4.24 1,7c-0.97,-2.24 -1.31,-4.58 -1,-7z" fill="#262324" id="svg_264"/>
  </g>
  <g id="svg_265">
   <path d="m207.5,223.5c1.33,0 2.67,0 4,0c6.33,0 12.67,0 19,0c0.33,0.67 0.67,1.33 1,2c1.91,2.95 2.91,6.29 3,10c0.05,2.81 0.72,5.48 2,8c0.77,1.21 1.61,1.21 2.5,0c0.5,-5.32 0.67,-10.66 0.5,-16c0,-0.67 0,-1.33 0,-2c5.49,-1.15 11.15,-1.32 17,-0.5c0.56,0.38 0.89,0.88 1,1.5c-0.24,8.04 0.1,16.04 1,24c2.33,0 4.67,0 7,0c0.74,-8.3 1.24,-16.63 1.5,-25c1.3,-0.59 2.47,-1.25 3.5,-2c0.33,0 0.67,0 1,0c7.33,0 14.67,0 22,0c0.42,0.72 1.08,1.22 2,1.5c3.17,0.17 6.33,0.33 9.5,0.5c8.66,-1.55 17.49,-2.22 26.5,-2c0.67,0 1.33,0 2,0c-0.67,5.33 -1.33,10.67 -2,16c-2.02,2.77 -2.35,5.77 -1,9c-1.84,1.78 -2.51,4.11 -2,7c1.05,-0.15 2.05,0.02 3,0.5c-2.84,3.12 -2.18,5.29 2,6.5c1.31,0.97 1.97,2.3 2,4c-0.74,-0.13 -1.41,0.04 -2,0.5c0.95,0.72 1.12,1.55 0.5,2.5c-0.65,-1.2 -1.15,-1.2 -1.5,0c0.71,2.28 1.21,4.61 1.5,7c0.38,0.56 0.88,0.89 1.5,1c0,2 0,4 0,6c-1,0 -2,0 -3,0c-8.52,0.28 -16.85,-0.38 -25,-2c-28,0.74 -56,1.41 -84,2c-0.69,-1.52 -1.86,-2.52 -3.5,-3c-6.31,1.29 -12.47,1.29 -18.5,0c0.63,-9.92 1.96,-19.76 4,-29.5c-0.33,-0.5 -0.67,-1 -1,-1.5c-9.61,-0.97 -19.28,-1.31 -29,-1c9.82,-0.83 19.82,-1.33 30,-1.5c1.05,-2.38 1.72,-4.88 2,-7.5c0,-1 0,-2 0,-3c0,-4.33 0,-8.67 0,-13z" fill="#170f0e" id="svg_266"/>
  </g>
  <g id="svg_267">
   <path d="m332.5,277.5c0.93,1.07 1.27,2.4 1,4c-4.67,0 -9.33,0 -14,0c4.13,-0.99 8.47,-1.32 13,-1c0,-1 0,-2 0,-3z" fill="#514b4b" id="svg_268"/>
  </g>
  <g id="svg_269">
   <path d="m268.5,255.5c0.99,7.82 1.33,15.82 1,24c6.52,-0.32 12.86,0.01 19,1c-6.67,0 -13.33,0 -20,0c0,-8.33 0,-16.67 0,-25z" fill="#b7b7b6" id="svg_270"/>
  </g>
  <g id="svg_271">
   <path d="m261.5,252.5c-1,0 -2,0 -3,0c-0.31,2.75 0.02,5.41 1,8c1.91,0.85 3.91,1.18 6,1c0.41,-3.36 -0.26,-6.35 -2,-9c1,0 2,0 3,0c0.17,3.68 0,7.35 -0.5,11c-2.72,0.94 -5.55,1.28 -8.5,1c0,-4.33 0,-8.67 0,-13c1.6,-0.27 2.93,0.07 4,1z" fill="#594032" id="svg_272"/>
  </g>
  <g id="svg_273">
   <path d="m261.5,252.5c0.67,0 1.33,0 2,0c1.74,2.65 2.41,5.64 2,9c-2.09,0.18 -4.09,-0.15 -6,-1c-0.98,-2.59 -1.31,-5.25 -1,-8c1,0 2,0 3,0z" fill="#875d42" id="svg_274"/>
  </g>
  <g id="svg_275">
   <path d="m294.5,241.5c1,-0.09 1.83,0.25 2.5,1c1.19,4.25 1.69,8.59 1.5,13c-1.18,0.22 -2.18,-0.11 -3,-1c-0.57,-2.68 -1.24,-5.34 -2,-8c-1.91,-0.85 -3.91,-1.18 -6,-1c0,-1 0,-2 0,-3c2.56,0.3 4.89,-0.03 7,-1z" fill="#3d0917" id="svg_276"/>
  </g>
  <g id="svg_277">
   <path d="m270.5,223.5c-1.03,0.75 -2.2,1.41 -3.5,2c-0.26,8.37 -0.76,16.7 -1.5,25c-2.33,0 -4.67,0 -7,0c-0.9,-7.96 -1.24,-15.96 -1,-24c0.83,6.49 1.33,13.15 1.5,20c2,1.33 4,1.33 6,0c0.5,-6.99 0.67,-13.99 0.5,-21c1.05,-1.76 2.72,-2.42 5,-2z" fill="#54101d" id="svg_278"/>
  </g>
  <g id="svg_279">
   <path d="m239.5,227.5c0.17,5.34 0,10.68 -0.5,16c-0.89,1.21 -1.73,1.21 -2.5,0c-1.28,-2.52 -1.95,-5.19 -2,-8c0.65,0.59 1.32,1.26 2,2c0.33,-0.33 0.67,-0.67 1,-1c0.59,-3.14 1.26,-6.14 2,-9z" fill="#31060f" id="svg_280"/>
  </g>
  <g id="svg_281">
   <path d="m241.5,227.5c4.47,-0.99 9.14,-1.32 14,-1c0,13.33 0,26.67 0,40c-1,-12.82 -1.33,-25.82 -1,-39c-4.33,0 -8.67,0 -13,0z" fill="#8d8e8c" id="svg_282"/>
  </g>
  <g id="svg_283">
   <path d="m230.5,223.5c1.33,0 2.67,0 4,0c0.08,5.55 1.75,6.21 5,2c0,0.67 0,1.33 0,2c-0.74,2.86 -1.41,5.86 -2,9c-0.33,0.33 -0.67,0.67 -1,1c-0.68,-0.74 -1.35,-1.41 -2,-2c-0.09,-3.71 -1.09,-7.05 -3,-10c-0.33,-0.67 -0.67,-1.33 -1,-2z" fill="#5c111f" id="svg_284"/>
  </g>
  <g id="svg_285">
   <path d="m241.5,227.5c4.33,0 8.67,0 13,0c-0.33,13.18 0,26.18 1,39c3.46,0.98 7.13,1.31 11,1c0,4.33 0,8.67 0,13c-8.33,0 -16.67,0 -25,0c0,-17.67 0,-35.33 0,-53z" fill="#f9faf9" id="svg_286"/>
  </g>
  <g id="svg_287">
   <path d="m311.5,231.5c-0.9,-0.71 -1.24,-1.71 -1,-3c-5.12,-0.6 -9.79,0.06 -14,2c-0.9,-0.71 -1.24,-1.71 -1,-3c5.33,0 10.67,0 16,0c0,1.33 0,2.67 0,4z" fill="#9da9a1" id="svg_288"/>
  </g>
  <g id="svg_289">
   <path d="m288.5,280.5c-6.14,-0.99 -12.48,-1.32 -19,-1c0.33,-8.18 -0.01,-16.18 -1,-24c0,-9.67 0,-19.33 0,-29c8.33,0 16.67,0 25,0c0,4.67 0,9.33 0,14c-3.67,0 -7.33,0 -11,0c0,2.33 0,4.67 0,7c3,0 6,0 9,0c0,4.33 0,8.67 0,13c-3,0 -6,0 -9,0c0,2.33 0,4.67 0,7c3.67,0 7.33,0 11,0c0,4.33 0,8.67 0,13c-1.67,0 -3.33,0 -5,0z" fill="#f9f9f9" id="svg_290"/>
  </g>
  <g id="svg_291">
   <path d="m211.5,226.5c6.95,-0.57 13.62,0.1 20,2c2.68,17.7 5.34,35.37 8,53c-5,0 -10,0 -15,0c0,-3 0,-6 0,-9c-2.33,0 -4.67,0 -7,0c0,2.33 0,4.67 0,7c-4.67,0 -9.33,0 -14,0c1.94,-17.91 4.6,-35.58 8,-53z" fill="#f6f6f6" id="svg_292"/>
  </g>
  <g id="svg_293">
   <path d="m221.5,243.5c0.66,5.98 1,11.98 1,18c-1.33,0 -2.67,0 -4,0c0.5,-4.65 0.83,-9.32 1,-14c0.67,-1.33 1.33,-2.67 2,-4z" fill="#161616" id="svg_294"/>
  </g>
  <g id="svg_295">
   <path d="m221.5,243.5c-0.67,1.33 -1.33,2.67 -2,4c-0.25,-2.82 0.25,-5.49 1.5,-8c0.49,1.29 0.66,2.63 0.5,4z" fill="#777777" id="svg_296"/>
  </g>
  <g id="svg_297">
   <path d="m332.5,277.5c0,1 0,2 0,3c-4.53,-0.32 -8.87,0.01 -13,1c-1,0 -2,0 -3,0c0.28,-6.18 -0.55,-12.18 -2.5,-18c-1.23,5.27 -2.07,10.6 -2.5,16c-5.81,0.38 -11.48,-0.29 -17,-2c3.04,-7.63 5.38,-15.46 7,-23.5c-1.36,-7.91 -3.03,-15.74 -5,-23.5c4.21,-1.94 8.88,-2.6 14,-2c-0.24,1.29 0.1,2.29 1,3c0.68,3.62 1.18,7.29 1.5,11c2.01,-5.42 2.85,-11.08 2.5,-17c5.33,0 10.67,0 16,0c-1.84,9.01 -3.84,18.01 -6,27c2.18,8.38 4.51,16.71 7,25z" fill="#f6f7f7" id="svg_298"/>
  </g>
  <g id="svg_299">
   <path d="m211.5,226.5c6.48,-0.99 13.15,-1.32 20,-1c0,1 0,2 0,3c-6.38,-1.9 -13.05,-2.57 -20,-2z" fill="#8b7f81" id="svg_300"/>
  </g>
  <g id="svg_301">
   <path d="m307.5,281.5c-0.78,0.66 -1.44,1.49 -2,2.5c1.37,2.32 2.04,4.82 2,7.5c0.28,1.85 -0.39,3.18 -2,4c-0.67,-2.13 -1.33,-4.13 -2,-6c0,-1 0,-2 0,-3c-3.33,0 -6.67,0 -10,0c-3.46,-0.98 -7.13,-1.31 -11,-1c-0.79,-0.28 -1.46,-0.78 -2,-1.5c-10.41,-0.93 -20.74,-0.59 -31,1c1.82,0.2 3.15,1.03 4,2.5c-6.94,-0.93 -13.94,-1.26 -21,-1c-2.62,-1.76 -5.62,-2.43 -9,-2c0,-0.33 0,-0.67 0,-1c28,-0.59 56,-1.26 84,-2z" fill="#5a4234" id="svg_302"/>
  </g>
  <g id="svg_303">
   <path d="m97.5,276.5c0.71,3.29 1.04,6.62 1,10c-4.47,0.99 -9.14,1.32 -14,1c0.11,-0.62 0.44,-1.12 1,-1.5c3.32,-0.88 6.65,-1.71 10,-2.5c1.12,-3.31 1.12,-6.64 0,-10c-1,0 -2,0 -3,0c0.22,-13.36 -0.12,-26.69 -1,-40c0.62,-0.11 1.12,-0.44 1.5,-1c0.5,4.5 1,9 1.5,13.5c-2.08,10.53 -1.08,20.7 3,30.5z" fill="#6b1d29" id="svg_304"/>
  </g>
  <g id="svg_305">
   <path d="m182.5,279.5c3.09,3.11 6.43,5.77 10,8c-1.33,0 -2.67,0 -4,0c-2.41,-2.4 -4.41,-5.07 -6,-8z" fill="#5e3018" id="svg_306"/>
  </g>
  <g id="svg_307">
   <path d="m201.5,250.5c1.25,0.83 1.91,2.17 2,4c-2.12,8.53 -3.12,17.19 -3,26c0.38,1.76 1.04,3.43 2,5c-2.92,1.36 -4.42,3.69 -4.5,7c-0.37,-1.99 -1.21,-3.66 -2.5,-5c-1,0 -2,0 -3,0c-3.57,-2.23 -6.91,-4.89 -10,-8c-0.67,0 -1.33,0 -2,0c-0.65,-1.31 -1.32,-2.64 -2,-4c5.28,-0.48 9.28,1.68 12,6.5c2.31,0.66 4.65,1.16 7,1.5c-0.4,-4.7 -1.07,-9.36 -2,-14c-1.19,1.15 -2.19,1.15 -3,0c1.03,-0.4 1.19,-1.06 0.5,-2c-2.06,-2.23 -4.23,-4.23 -6.5,-6c4.03,1.03 7.7,2.53 11,4.5c-0.16,-3.35 0.17,-6.85 1,-10.5c1.71,-0.38 2.71,-1.38 3,-3c0,-0.67 0,-1.33 0,-2z" fill="#ac734e" id="svg_308"/>
  </g>
  <g id="svg_309">
   <path d="m97.5,276.5c1.84,1.78 2.51,4.11 2,7c17.2,0.79 34.2,0.79 51,0c-0.06,1.11 -0.39,2.11 -1,3c-7.32,-0.86 -14.65,-1.02 -22,-0.5c-0.46,0.41 -0.79,0.91 -1,1.5c-2.17,0.33 -4.33,0.67 -6.5,1c-6.98,-1.63 -14.14,-2.3 -21.5,-2c0.04,-3.38 -0.29,-6.71 -1,-10z" fill="#b4adaf" id="svg_310"/>
  </g>
  <g id="svg_311">
   <path d="m175.5,248.5c8.67,0.67 17.33,1.33 26,2c0,0.67 0,1.33 0,2c-11.63,-0.96 -23.3,-1.96 -35,-3c-0.17,1.32 0.16,2.49 1,3.5c7.78,1.65 7.45,2.82 -1,3.5c0.21,0.59 0.54,1.09 1,1.5c-1.33,4.49 -3.33,8.65 -6,12.5c-0.82,0.89 -1.82,1.22 -3,1c-0.61,3.63 -0.95,7.3 -1,11c7.42,0.03 14.75,0.7 22,2c0.13,-1.72 0.46,-3.38 1,-5c0.67,0 1.33,0 2,0c1.59,2.93 3.59,5.6 6,8c-2.67,0 -5.33,0 -8,0c-2.55,0.06 -4.05,1.39 -4.5,4c-3.14,-1.81 -5.97,-3.98 -8.5,-6.5c-3.9,-1.27 -7.9,-1.77 -12,-1.5c0,-1.33 0,-2.67 0,-4c0.87,-3.29 1.54,-6.62 2,-10c0.33,0 0.67,0 1,0c0.31,1.24 0.81,1.24 1.5,0c0.47,-2.28 1.47,-4.28 3,-6c0.17,-6.36 0.67,-12.69 1.5,-19c3.36,2.12 7.03,3.46 11,4z" fill="#ba825b" id="svg_312"/>
  </g>
  <g id="svg_313">
   <path d="m282.5,285.5c-7.11,1.65 -14.44,2.65 -22,3c-1.76,1.05 -2.42,2.72 -2,5c-0.65,2 -1.48,4 -2.5,6c-0.23,-1.24 -0.73,-2.24 -1.5,-3c-0.66,-2.95 -0.99,-5.95 -1,-9c-0.85,-1.47 -2.18,-2.3 -4,-2.5c10.26,-1.59 20.59,-1.93 31,-1c0.54,0.72 1.21,1.22 2,1.5z" fill="#79563d" id="svg_314"/>
  </g>
  <g id="svg_315">
   <path d="m307.5,281.5c8.15,1.62 16.48,2.28 25,2c-0.59,0.65 -1.26,1.32 -2,2c1.43,5.92 2.43,11.92 3,18c-1.25,-0.83 -1.92,-2.17 -2,-4c-0.38,-4.26 -1.05,-8.42 -2,-12.5c-6.78,-0.87 -13.45,-0.37 -20,1.5c-0.63,0.92 -0.96,1.92 -1,3c-0.33,0 -0.67,0 -1,0c0.04,-2.68 -0.63,-5.18 -2,-7.5c0.56,-1.01 1.22,-1.84 2,-2.5z" fill="#57131f" id="svg_316"/>
  </g>
  <g id="svg_317">
   <path d="m333.5,303.5c0.61,10.45 1.94,20.78 4,31c0.17,0.99 -0.16,1.66 -1,2c-0.33,0 -0.67,0 -1,0c-2.43,-15.66 -4.76,-31.32 -7,-47c-2.81,-0.67 -5.81,-1 -9,-1c-3.41,0.02 -6.41,0.68 -9,2c0,1 0,2 0,3c-1,-0.33 -1.67,-1 -2,-2c0.04,-1.08 0.37,-2.08 1,-3c6.55,-1.87 13.22,-2.37 20,-1.5c0.95,4.08 1.62,8.24 2,12.5c0.08,1.83 0.75,3.17 2,4z" fill="#1f0c0d" id="svg_318"/>
  </g>
  <g id="svg_319">
   <path d="m328.5,289.5c-6.09,-0.29 -12.09,0.05 -18,1c2.59,-1.32 5.59,-1.98 9,-2c3.19,0 6.19,0.33 9,1z" fill="#b0b1af" id="svg_320"/>
  </g>
  <g id="svg_321">
   <path d="m85.5,289.5c8.67,0 17.33,0 26,0c0,3.67 0,7.33 0,11c-2.67,0 -5.33,0 -8,0c-0.33,9.18 0.01,18.18 1,27c0,3 0,6 0,9c-4,0 -8,0 -12,0c0,-11.67 0,-23.33 0,-35c-2.11,-0.97 -4.44,-1.3 -7,-1c0,-3.67 0,-7.33 0,-11z" fill="#fbfafa" id="svg_322"/>
  </g>
  <g id="svg_323">
   <path d="m144.5,289.5c7,0 14,0 21,0c0,3.67 0,7.33 0,11c-3.21,-0.31 -6.21,0.02 -9,1c0,2 0,4 0,6c2.67,0 5.33,0 8,0c0,3.67 0,7.33 0,11c-2.67,0 -5.33,0 -8,0c0,2 0,4 0,6c2.79,0.98 5.79,1.31 9,1c0,3.33 0,6.67 0,10c-7,0 -14,0 -21,0c0,-15.33 0,-30.67 0,-46z" fill="#fafbfb" id="svg_324"/>
  </g>
  <g id="svg_325">
   <path d="m328.5,289.5c2.24,15.68 4.57,31.34 7,47c-4,0 -8,0 -12,0c0.24,-1.29 -0.1,-2.29 -1,-3c0,-1.33 0,-2.67 0,-4c-2,0 -4,0 -6,0c0,2 0,4 0,6c-4,0 -8,0 -12,0c1.2,-10.68 2.54,-21.35 4,-32c1.08,-3.13 1.75,-6.46 2,-10c0,-1 0,-2 0,-3c5.91,-0.95 11.91,-1.29 18,-1z" fill="#f5f5f5" id="svg_326"/>
  </g>
  <g id="svg_327">
   <path d="m282.5,285.5c3.87,-0.31 7.54,0.02 11,1c-3.35,-0.17 -6.68,0 -10,0.5c4.52,0.18 8.85,0.68 13,1.5c-4.33,0 -8.67,0 -13,0c0.31,3.21 -0.02,6.21 -1,9c0.23,-3.95 -0.44,-6.95 -2,-9c-6.67,0 -13.33,0 -20,0c7.56,-0.35 14.89,-1.35 22,-3z" fill="#302926" id="svg_328"/>
  </g>
  <g id="svg_329">
   <path d="m343.5,258.5c-0.29,1.62 -1.29,2.62 -3,3c-0.58,10.06 -1.58,20.06 -3,30c1.91,11.61 3.24,23.27 4,35c1,0 2,0 3,0c-0.16,-2.03 0,-4.03 0.5,-6c1,0.33 2,0.67 3,1c0.71,-1.47 1.88,-2.14 3.5,-2c-3.29,4.96 -7.29,9.29 -12,13c-0.83,-5.82 -1.33,-11.82 -1.5,-18c-0.17,-2.21 -0.84,-4.21 -2,-6c-0.2,-7.72 -0.7,-15.38 -1.5,-23c0.36,-0.68 0.7,-1.35 1,-2c0.65,-0.3 1.32,-0.64 2,-1c1.29,-6.36 1.29,-12.69 0,-19c0.83,-3.08 2.83,-4.75 6,-5z" fill="#d01e3f" id="svg_330"/>
  </g>
  <g id="svg_331">
   <path d="m155.5,279.5c0,1.33 0,2.67 0,4c4.1,-0.27 8.1,0.23 12,1.5c2.53,2.52 5.36,4.69 8.5,6.5c0.45,-2.61 1.95,-3.94 4.5,-4c-1.33,16.67 -1.33,33.33 0,50c-1.25,-0.08 -2.08,-0.74 -2.5,-2c-0.33,-10.67 -0.67,-21.33 -1,-32c-0.38,-0.56 -0.88,-0.89 -1.5,-1c-1.18,-3.36 -3.02,-6.36 -5.5,-9c-0.17,0.33 -0.33,0.67 -0.5,1c-0.54,14.17 0.13,28.34 2,42.5c-0.94,1.48 -2.28,2.48 -4,3c-7.38,0.2 -14.72,0.7 -22,1.5c-0.51,4.63 -0.68,9.29 -0.5,14c-1.01,-4.57 -2.18,-9.07 -3.5,-13.5c-7.69,-0.73 -15.36,-1.56 -23,-2.5c-1.33,0 -2.67,0 -4,0c-0.33,0 -0.67,0 -1,0c0,-1 0,-2 0,-3c4.67,0 9.33,0 14,0c0,1 0,2 0,3c5.53,0.32 10.86,-0.01 16,-1c8.01,0.17 16.01,0 24,-0.5c0.97,-4.74 1.3,-9.57 1,-14.5c-1,0 -2,0 -3,0c1.6,-6.51 1.27,-12.85 -1,-19c1.26,-0.88 2.43,-1.88 3.5,-3c0.67,-4.67 0.67,-9.33 0,-14c-5.41,-0.97 -10.91,-1.31 -16.5,-1c0.5,-2.83 1.83,-5.16 4,-7z" fill="#875c41" id="svg_332"/>
  </g>
  <g id="svg_333">
   <path d="m303.5,289.5c0.67,1.87 1.33,3.87 2,6c1.61,-0.82 2.28,-2.15 2,-4c0.33,0 0.67,0 1,0c0.33,1 1,1.67 2,2c-0.25,3.54 -0.92,6.87 -2,10c0.16,-2.69 0,-5.35 -0.5,-8c-0.87,4.69 -1.87,9.36 -3,14c-1.21,-6.61 -1.71,-13.28 -1.5,-20z" fill="#3d2c24" id="svg_334"/>
  </g>
  <g id="svg_335">
   <path d="m144.5,289.5c7.15,-0.99 14.48,-1.32 22,-1c0,4.33 0,8.67 0,13c-3.33,0 -6.67,0 -10,0c2.79,-0.98 5.79,-1.31 9,-1c0,-3.67 0,-7.33 0,-11c-7,0 -14,0 -21,0z" fill="#838282" id="svg_336"/>
  </g>
  <g id="svg_337">
   <path d="m82.5,287.5c0.33,0 0.67,0 1,0c-0.17,4.35 0,8.68 0.5,13c0.18,-3.86 0.68,-7.52 1.5,-11c0,3.67 0,7.33 0,11c2.56,-0.3 4.89,0.03 7,1c-2.36,-0.16 -4.69,0 -7,0.5c0.92,0.28 1.58,0.78 2,1.5c-1,0 -2,0 -3,0c-0.72,-0.42 -1.22,-1.08 -1.5,-2c-0.5,-4.65 -0.67,-9.32 -0.5,-14z" fill="#512d2f" id="svg_338"/>
  </g>
  <g id="svg_339">
   <path d="m157.5,269.5c-0.46,3.38 -1.13,6.71 -2,10c-2.17,1.84 -3.5,4.17 -4,7c5.59,-0.31 11.09,0.03 16.5,1c0.67,4.67 0.67,9.33 0,14c-1.07,1.12 -2.24,2.12 -3.5,3c2.27,6.15 2.6,12.49 1,19c1,0 2,0 3,0c0.3,4.93 -0.03,9.76 -1,14.5c-7.99,0.5 -15.99,0.67 -24,0.5c7,-0.67 14,-1.33 21,-2c1.92,-3.53 2.59,-7.53 2,-12c-3.33,0 -6.67,0 -10,0c0,-2 0,-4 0,-6c2.67,0 5.33,0 8,0c0,-3.67 0,-7.33 0,-11c-2.67,0 -5.33,0 -8,0c0,-2 0,-4 0,-6c3.33,0 6.67,0 10,0c0,-4.33 0,-8.67 0,-13c-5.57,-0.71 -11.23,-1.37 -17,-2c0.61,-0.89 0.94,-1.89 1,-3c0.2,-2.46 0.87,-4.79 2,-7c0.59,0.21 1.09,0.54 1.5,1c1.74,-3.46 2.74,-7.12 3,-11c0.48,0.95 0.65,1.95 0.5,3z" fill="#201714" id="svg_340"/>
  </g>
  <g id="svg_341">
   <path d="m320.5,305.5c-0.67,0 -1.33,0 -2,0c0.67,-6.67 1.33,-6.67 2,0z" fill="#7e8181" id="svg_342"/>
  </g>
  <g id="svg_343">
   <path d="m200.5,280.5c0.33,0 0.67,0 1,0c6.03,1.29 12.19,1.29 18.5,0c1.64,0.48 2.81,1.48 3.5,3c0,0.33 0,0.67 0,1c-2.42,-0.31 -4.76,0.03 -7,1c0.36,0.68 0.7,1.35 1,2c-4.93,-0.3 -9.76,0.03 -14.5,1c-0.17,11.01 -0.67,22.01 -1.5,33c-2.47,1.37 -4.3,0.71 -5.5,-2c-0.5,-10.66 -0.67,-21.33 -0.5,-32c1.29,1.34 2.13,3.01 2.5,5c0.08,-3.31 1.58,-5.64 4.5,-7c-0.96,-1.57 -1.62,-3.24 -2,-5z" fill="#865941" id="svg_344"/>
  </g>
  <g id="svg_345">
   <path d="m318.5,305.5c0.67,0 1.33,0 2,0c0.5,4.65 0.83,9.32 1,14c-1.33,0 -2.67,0 -4,0c0.17,-4.68 0.5,-9.35 1,-14z" fill="#1f2021" id="svg_346"/>
  </g>
  <g id="svg_347">
   <path d="m82.5,287.5c-0.17,4.68 0,9.35 0.5,14c0.28,0.92 0.78,1.58 1.5,2c0.17,2.34 1.34,4.01 3.5,5c0.5,10.33 0.67,20.66 0.5,31c-1.29,-0.56 -2.12,-1.56 -2.5,-3c-0.33,-9 -0.67,-18 -1,-27c-1.37,-2.56 -3.2,-4.56 -5.5,-6c0.46,-1.69 0.46,-3.69 0,-6c0.46,-3.62 1.46,-6.95 3,-10z" fill="#c01838" id="svg_348"/>
  </g>
  <g id="svg_349">
   <path d="m223.5,284.5c1.14,0.84 2.47,1.51 4,2c0.94,10.83 -0.06,21.5 -3,32c-1.19,0.93 -2.52,1.26 -4,1c0.64,-11.05 -0.02,-21.72 -2,-32c-0.33,0 -0.67,0 -1,0c-0.3,-0.65 -0.64,-1.32 -1,-2c2.24,-0.97 4.58,-1.31 7,-1z" fill="#a8714b" id="svg_350"/>
  </g>
  <g id="svg_351">
   <path d="m332.5,283.5c1,0 2,0 3,0c-0.3,0.65 -0.64,1.32 -1,2c0.8,7.62 1.3,15.28 1.5,23c1.16,1.79 1.83,3.79 2,6c0.17,6.18 0.67,12.18 1.5,18c-0.33,1 -1,1.67 -2,2c-2.06,-10.22 -3.39,-20.55 -4,-31c-0.57,-6.08 -1.57,-12.08 -3,-18c0.74,-0.68 1.41,-1.35 2,-2z" fill="#9f1731" id="svg_352"/>
  </g>
  <g id="svg_353">
   <path d="m31.5,294.5c1.61,1.87 3.61,3.21 6,4c0,-1.33 0,-2.67 0,-4c1,0 2,0 3,0c-0.13,3.01 0.87,5.51 3,7.5c-0.67,1.67 -1.33,3.33 -2,5c1.17,1.59 2.17,3.25 3,5c2.7,0.76 5.2,1.93 7.5,3.5c0.68,1.28 0.52,2.45 -0.5,3.5c0.67,0.33 1.33,0.67 2,1c-0.64,1.71 -0.64,3.54 0,5.5c-8.85,-9.2 -16.19,-19.53 -22,-31z" fill="#da2a47" id="svg_354"/>
  </g>
  <g id="svg_355">
   <path d="m111.5,300.5c-2.11,0.97 -4.44,1.3 -7,1c0,8.67 0,17.33 0,26c-0.99,-8.82 -1.33,-17.82 -1,-27c2.67,0 5.33,0 8,0z" fill="#d0cecf" id="svg_356"/>
  </g>
  <g id="svg_357">
   <path d="m88.5,303.5c1.98,10.28 2.64,20.95 2,32c-0.73,-10.52 -1.4,-21.19 -2,-32z" fill="#681222" id="svg_358"/>
  </g>
  <g id="svg_359">
   <path d="m223.5,284.5c3.38,-0.43 6.38,0.24 9,2c-3.1,11.76 -4.77,23.76 -5,36c-2.67,0 -5.33,0 -8,0c0.31,-11.75 -0.02,-23.41 -1,-35c1.98,10.28 2.64,20.95 2,32c1.48,0.26 2.81,-0.07 4,-1c2.94,-10.5 3.94,-21.17 3,-32c-1.53,-0.49 -2.86,-1.16 -4,-2z" fill="#7d5a43" id="svg_360"/>
  </g>
  <g id="svg_361">
   <path d="m175.5,302.5c0.62,0.11 1.12,0.44 1.5,1c0.33,10.67 0.67,21.33 1,32c0.42,1.26 1.25,1.92 2.5,2c0,0.33 0,0.67 0,1c20.5,0.83 41.16,1.33 62,1.5c6.63,1.83 13.29,2 20,0.5c0,0.33 0,0.67 0,1c-6.78,2.66 -13.78,2.5 -21,-0.5c-7.75,-0.65 -15.41,-0.15 -23,1.5c0.78,5.36 1.78,10.69 3,16c-0.33,0.67 -0.67,1.33 -1,2c-0.78,-1.23 -1.28,-2.56 -1.5,-4c-0.17,2.21 -0.84,4.21 -2,6c-0.4,-7.02 -1.56,-13.85 -3.5,-20.5c-11.33,-0.33 -22.67,-0.67 -34,-1c-1.12,-1.07 -2.12,-2.24 -3,-3.5c-1,-11.65 -1.33,-23.31 -1,-35z" fill="#a56e49" id="svg_362"/>
  </g>
  <g id="svg_363">
   <path d="m232.5,286.5c7.06,-0.26 14.06,0.07 21,1c0.01,3.05 0.34,6.05 1,9c0.31,5.85 1.47,11.52 3.5,17c0.5,-6.66 0.67,-13.32 0.5,-20c-0.42,-2.28 0.24,-3.95 2,-5c6.67,0 13.33,0 20,0c1.56,2.05 2.23,5.05 2,9c-0.17,4.7 -0.67,9.36 -1.5,14c-0.92,-7 -1.75,-14 -2.5,-21c-6,0 -12,0 -18,0c0.03,15.01 -0.3,30.01 -1,45c4,0 8,0 12,0c0.67,-7.33 1.33,-14.67 2,-22c0.77,5.3 1.11,10.63 1,16c4.33,0 8.67,0 13,0c0.17,-7.38 0.84,-14.72 2,-22c0.67,10 1.33,20 2,30c4,0 8,0 12,0c-1.21,-16.31 -1.87,-32.64 -2,-49c-1.67,0 -3.33,0 -5,0c-4.15,-0.82 -8.48,-1.32 -13,-1.5c3.32,-0.5 6.65,-0.67 10,-0.5c3.33,0 6.67,0 10,0c0,1 0,2 0,3c-0.21,6.72 0.29,13.39 1.5,20c1.13,-4.64 2.13,-9.31 3,-14c0.5,2.65 0.66,5.31 0.5,8c-1.46,10.65 -2.8,21.32 -4,32c4,0 8,0 12,0c0,-2 0,-4 0,-6c2,0 4,0 6,0c0,1.33 0,2.67 0,4c0,1.33 0,2.67 0,4c4.2,-0.32 8.2,0.02 12,1c-0.67,0.33 -1.33,0.67 -2,1c-3.87,0.31 -7.54,-0.02 -11,-1c0,-1 0,-2 0,-3c-4.51,0.38 -8.84,1.05 -13,2c-5.85,1.73 -11.85,2.4 -18,2c-0.33,-0.67 -0.67,-1.33 -1,-2c0,-2 0,-4 0,-6c-5,0 -10,0 -15,0c0.24,1.97 -0.09,3.8 -1,5.5c-9.65,1.12 -19.31,1.46 -29,1c-1.27,-2.76 -2.94,-3.09 -5,-1c-19.64,1.35 -39.31,1.85 -59,1.5c0,-0.33 0,-0.67 0,-1c-1.33,-16.67 -1.33,-33.33 0,-50c2.67,0 5.33,0 8,0c1.33,0 2.67,0 4,0c1,0 2,0 3,0c-0.17,10.67 0,21.34 0.5,32c1.2,2.71 3.03,3.37 5.5,2c0.83,-10.99 1.33,-21.99 1.5,-33c4.74,-0.97 9.57,-1.3 14.5,-1c0.33,0 0.67,0 1,0c0.98,11.59 1.31,23.25 1,35c2.67,0 5.33,0 8,0c0.23,-12.24 1.9,-24.24 5,-36z" fill="#1c1513" id="svg_364"/>
  </g>
  <g id="svg_365">
   <path d="m181.5,290.5c3.8,-0.98 7.8,-1.32 12,-1c0,11.67 0,23.33 0,35c-1,-11.15 -1.33,-22.49 -1,-34c-3.67,0 -7.33,0 -11,0z" fill="#bec0c1" id="svg_366"/>
  </g>
  <g id="svg_367">
   <path d="m217.5,324.5c-1,-11.15 -1.33,-22.49 -1,-34c-3.67,0 -7.33,0 -11,0c0,15 0,30 0,45c-1,-15.16 -1.33,-30.49 -1,-46c4.33,0 8.67,0 13,0c0,11.67 0,23.33 0,35z" fill="#757773" id="svg_368"/>
  </g>
  <g id="svg_369">
   <path d="m258.5,293.5c0.17,6.68 0,13.34 -0.5,20c-2.03,-5.48 -3.19,-11.15 -3.5,-17c0.77,0.76 1.27,1.76 1.5,3c1.02,-2 1.85,-4 2.5,-6z" fill="#3f3027" id="svg_370"/>
  </g>
  <g id="svg_371">
   <path d="m181.5,290.5c3.67,0 7.33,0 11,0c-0.33,11.51 0,22.85 1,34c2.79,0.98 5.79,1.31 9,1c0,3.33 0,6.67 0,10c-7,0 -14,0 -21,0c0,-15 0,-30 0,-45z" fill="#fcfdfd" id="svg_372"/>
  </g>
  <g id="svg_373">
   <path d="m233.5,289.5c5.67,0 11.33,0 17,0c-0.24,1.29 0.1,2.29 1,3c2.5,14.62 4.83,29.29 7,44c-4.28,0.99 -8.62,1.33 -13,1c0,-2.67 0,-5.33 0,-8c-2.58,-0.48 -4.58,0.19 -6,2c-0.9,0.71 -1.24,1.71 -1,3c-3.87,-0.31 -7.54,0.02 -11,1c-7.33,0 -14.67,0 -22,0c0,-15 0,-30 0,-45c3.67,0 7.33,0 11,0c-0.33,11.51 0,22.85 1,34c3.21,-0.31 6.21,0.02 9,1c-0.16,2.03 0,4.03 0.5,6c0.79,-1.25 1.29,-2.58 1.5,-4c1.45,-12.7 3.12,-25.36 5,-38z" fill="#f7f7f7" id="svg_374"/>
  </g>
  <g id="svg_375">
   <path d="m226.5,325.5c0.67,0.67 1.33,1.33 2,2c-0.21,1.42 -0.71,2.75 -1.5,4c-0.5,-1.97 -0.66,-3.97 -0.5,-6z" fill="#777879" id="svg_376"/>
  </g>
  <g id="svg_377">
   <path d="m243.5,311.5c0.98,2.79 1.31,5.79 1,9c-1.6,0.27 -2.93,-0.07 -4,-1c1,0 2,0 3,0c0,-2.67 0,-5.33 0,-8z" fill="#9e9d9e" id="svg_378"/>
  </g>
  <g id="svg_379">
   <path d="m243.5,311.5c0,2.67 0,5.33 0,8c-1,0 -2,0 -3,0c0.17,-5.36 0.67,-10.69 1.5,-16c1.25,2.51 1.75,5.18 1.5,8z" fill="#151515" id="svg_380"/>
  </g>
  <g id="svg_381">
   <path d="m296.5,288.5c1.67,0 3.33,0 5,0c0.13,16.36 0.79,32.69 2,49c-4,0 -8,0 -12,0c0.33,-11.35 0,-22.69 -1,-34c-0.93,1.19 -1.26,2.52 -1,4c-1.16,7.28 -1.83,14.62 -2,22c-4.33,0 -8.67,0 -13,0c0.11,-5.37 -0.23,-10.7 -1,-16c0.08,-2.77 -0.42,-5.44 -1.5,-8c-0.5,9.99 -0.67,19.99 -0.5,30c-4,0 -8,0 -12,0c0.7,-14.99 1.03,-29.99 1,-45c6,0 12,0 18,0c0.75,7 1.58,14 2.5,21c0.83,-4.64 1.33,-9.3 1.5,-14c0.98,-2.79 1.31,-5.79 1,-9c4.33,0 8.67,0 13,0z" fill="#f8f8f7" id="svg_382"/>
  </g>
  <g id="svg_383">
   <path d="m273.5,313.5c-0.67,7.33 -1.33,14.67 -2,22c-0.17,-10.01 0,-20.01 0.5,-30c1.08,2.56 1.58,5.23 1.5,8z" fill="#747474" id="svg_384"/>
  </g>
  <g id="svg_385">
   <path d="m233.5,289.5c5.81,-0.99 11.81,-1.32 18,-1c0,1.33 0,2.67 0,4c-0.9,-0.71 -1.24,-1.71 -1,-3c-5.67,0 -11.33,0 -17,0z" fill="#b4b3b3" id="svg_386"/>
  </g>
  <g id="svg_387">
   <path d="m291.5,337.5c-0.67,-10 -1.33,-20 -2,-30c-0.26,-1.48 0.07,-2.81 1,-4c1,11.31 1.33,22.65 1,34z" fill="#7f7b78" id="svg_388"/>
  </g>
  <g id="svg_389">
   <path d="m239.5,331.5c0,1.33 0,2.67 0,4c-4,0 -8,0 -12,0c3.46,-0.98 7.13,-1.31 11,-1c-0.24,-1.29 0.1,-2.29 1,-3z" fill="#9c9d9f" id="svg_390"/>
  </g>
  <g id="svg_391">
   <path d="m149.5,286.5c5.77,0.63 11.43,1.29 17,2c-7.52,-0.32 -14.85,0.01 -22,1c0,15.33 0,30.67 0,46c6.48,0.99 13.15,1.32 20,1c-7,0.67 -14,1.33 -21,2c-5.14,0.99 -10.47,1.32 -16,1c0,-1 0,-2 0,-3c-4.67,0 -9.33,0 -14,0c0,1 0,2 0,3c0,0.67 -0.33,1 -1,1c-0.53,-3.54 -2.36,-6.21 -5.5,-8c-0.33,1.67 -0.67,3.33 -1,5c-0.67,0.75 -1.5,1.09 -2.5,1c-3.67,0 -7.33,0 -11,0c-0.67,-1 -1.33,-2 -2,-3c0.64,-11.05 -0.02,-21.72 -2,-32c-0.33,0 -0.67,0 -1,0c-0.42,-0.72 -1.08,-1.22 -2,-1.5c2.31,-0.5 4.64,-0.66 7,-0.5c0,11.67 0,23.33 0,35c4,0 8,0 12,0c0,-3 0,-6 0,-9c0,-8.67 0,-17.33 0,-26c2.56,0.3 4.89,-0.03 7,-1c0,-3.67 0,-7.33 0,-11c-8.67,0 -17.33,0 -26,0c-0.82,3.48 -1.32,7.14 -1.5,11c-0.5,-4.32 -0.67,-8.65 -0.5,-13c0.33,0 0.67,0 1,0c4.86,0.32 9.53,-0.01 14,-1c7.36,-0.3 14.52,0.37 21.5,2c2.17,-0.33 4.33,-0.67 6.5,-1c0.21,-0.59 0.54,-1.09 1,-1.5c7.35,-0.52 14.68,-0.36 22,0.5z" fill="#181414" id="svg_392"/>
  </g>
  <g id="svg_393">
   <path d="m107.5,303.5c1.33,0 2.67,0 4,0c0.17,10.34 0,20.67 -0.5,31c-2.39,-3.2 -3.72,-6.87 -4,-11c-0.67,-4.33 -0.67,-8.67 0,-13c0.89,1.39 1.39,1.22 1.5,-0.5c-0.79,-2.1 -1.12,-4.27 -1,-6.5z" fill="#6f6764" id="svg_394"/>
  </g>
  <g id="svg_395">
   <path d="m140.5,337.5c0,-16.33 0,-32.67 0,-49c-3.67,0 -7.33,0 -11,0c0,8 0,16 0,24c-1.6,0.27 -2.93,-0.07 -4,-1c1,0 2,0 3,0c0,-8 0,-16 0,-24c4.33,0 8.67,0 13,0c0.33,16.84 0,33.51 -1,50z" fill="#8f8f8f" id="svg_396"/>
  </g>
  <g id="svg_397">
   <path d="m140.5,337.5c-3.67,0 -7.33,0 -11,0c0,-5 0,-10 0,-15c-1.33,0 -2.67,0 -4,0c0,4 0,8 0,12c-4,0 -8,0 -12,0c0,-14.67 0,-29.33 0,-44c4,0 8,0 12,0c0,7 0,14 0,21c1.07,0.93 2.4,1.27 4,1c0,-8 0,-16 0,-24c3.67,0 7.33,0 11,0c0,16.33 0,32.67 0,49z" fill="#fafafa" id="svg_398"/>
  </g>
  <g id="svg_399">
   <path d="m156.5,324.5c3.33,0 6.67,0 10,0c0.59,4.47 -0.08,8.47 -2,12c-6.85,0.32 -13.52,-0.01 -20,-1c7,0 14,0 21,0c0,-3.33 0,-6.67 0,-10c-3.21,0.31 -6.21,-0.02 -9,-1z" fill="#8d898a" id="svg_400"/>
  </g>
  <g id="svg_401">
   <path d="m193.5,324.5c3.33,0 6.67,0 10,0c0,4 0,8 0,12c-7.52,0.32 -14.85,-0.01 -22,-1c7,0 14,0 21,0c0,-3.33 0,-6.67 0,-10c-3.21,0.31 -6.21,-0.02 -9,-1z" fill="#8a8889" id="svg_402"/>
  </g>
  <g id="svg_403">
   <path d="m322.5,333.5c0.9,0.71 1.24,1.71 1,3c4,0 8,0 12,0c0.33,0 0.67,0 1,0c-0.33,1 -1,1.67 -2,2c-3.8,-0.98 -7.8,-1.32 -12,-1c0,-1.33 0,-2.67 0,-4z" fill="#9c9394" id="svg_404"/>
  </g>
  <g id="svg_405">
   <path d="m321.5,338.5c-4.51,-0.23 -8.84,0.44 -13,2c0,-0.67 0,-1.33 0,-2c0,-0.33 0,-0.67 0,-1c4.16,-0.95 8.49,-1.62 13,-2c0,1 0,2 0,3z" fill="#681325" id="svg_406"/>
  </g>
  <g id="svg_407">
   <path d="m289.5,337.5c-1.42,-1.37 -2.92,-2.7 -4.5,-4c-0.5,0.33 -1,0.67 -1.5,1c0.53,1.84 1.19,3.5 2,5c0.79,1.47 0.79,2.8 0,4c-1.19,-2.24 -2.19,-4.57 -3,-7c-3.38,-1.62 -6.05,-0.79 -8,2.5c-3.32,0.5 -6.65,0.67 -10,0.5c-0.99,-0.17 -1.66,0.16 -2,1c-6.71,1.5 -13.37,1.33 -20,-0.5c-20.84,-0.17 -41.5,-0.67 -62,-1.5c19.69,0.35 39.36,-0.15 59,-1.5c2.06,-2.09 3.73,-1.76 5,1c9.69,0.46 19.35,0.12 29,-1c0.91,-1.7 1.24,-3.53 1,-5.5c5,0 10,0 15,0c0,2 0,4 0,6z" fill="#7e5942" id="svg_408"/>
  </g>
  <g id="svg_409">
   <path d="m112.5,340.5c1.06,3.77 2.39,7.44 4,11c-1,0 -2,0 -3,0c-1.2,-3.55 -1.87,-7.21 -2,-11c-3.85,-0.48 -5.85,1.19 -6,5c-1.42,-2.01 -2.09,-4.35 -2,-7c1,0.09 1.83,-0.25 2.5,-1c0.33,-1.67 0.67,-3.33 1,-5c3.14,1.79 4.97,4.46 5.5,8z" fill="#8e6248" id="svg_410"/>
  </g>
  <g id="svg_411">
   <path d="m321.5,338.5c3.46,0.98 7.13,1.31 11,1c0,0.67 -0.33,1 -1,1c-4.28,1.23 -8.44,0.89 -12.5,-1c-1.73,0.75 -3.57,1.25 -5.5,1.5c-0.75,4.09 -0.75,8.25 0,12.5c1,0 2,0 3,0c-2.05,2.05 -4.38,3.71 -7,5c-0.99,-5.81 -1.32,-11.81 -1,-18c4.16,-1.56 8.49,-2.23 13,-2z" fill="#a71e33" id="svg_412"/>
  </g>
  <g id="svg_413">
   <path d="m289.5,337.5c0.33,0.67 0.67,1.33 1,2c4.4,0.69 8.9,1.36 13.5,2c0.33,-0.67 0.67,-1.33 1,-2c-0.26,6.48 -0.43,12.81 -0.5,19c-0.84,-5.29 -1.18,-10.62 -1,-16c-4.27,-0.3 -8.43,0.04 -12.5,1c-1.69,-1.52 -3.19,-3.18 -4.5,-5c-0.61,0.12 -0.94,0.46 -1,1c-0.81,-1.5 -1.47,-3.16 -2,-5c0.5,-0.33 1,-0.67 1.5,-1c1.58,1.3 3.08,2.63 4.5,4z" fill="#a47154" id="svg_414"/>
  </g>
  <g id="svg_415">
   <path d="m79.5,350.5c-5.72,-4.2 -11.05,-8.86 -16,-14c1.57,-0.97 3.23,-1.14 5,-0.5c-0.46,0.41 -0.79,0.91 -1,1.5c2.84,0.5 4.18,2.17 4,5c1.83,-0.55 3.5,-0.55 5,0c0.84,2.45 1.84,5.12 3,8z" fill="#d92f4d" id="svg_416"/>
  </g>
  <g id="svg_417">
   <path d="m92.5,338.5c3.67,0 7.33,0 11,0c-0.09,2.65 0.58,4.99 2,7c0,2 0,4 0,6c-1.89,-3.19 -2.89,-6.86 -3,-11c-3.58,-0.05 -6.91,-0.71 -10,-2z" fill="#5d1214" id="svg_418"/>
  </g>
  <g id="svg_419">
   <path d="m84.5,303.5c1,0 2,0 3,0c0.33,0 0.67,0 1,0c0.6,10.81 1.27,21.48 2,32c0.67,1 1.33,2 2,3c3.09,1.29 6.42,1.95 10,2c0.11,4.14 1.11,7.81 3,11c0.11,5.08 0.77,10.08 2,15c-0.83,0.89 -1.83,1.22 -3,1c-2.17,-0.25 -3.84,-1.25 -5,-3c1.62,0.54 3.28,0.87 5,1c-0.38,-5.39 -1.21,-10.73 -2.5,-16c-1.33,-0.67 -2.67,-1.33 -4,-2c0.19,-4.01 -1.65,-6.01 -5.5,-6c-1.56,-0.23 -2.9,-0.9 -4,-2c0.17,-10.34 0,-20.67 -0.5,-31c-2.16,-0.99 -3.33,-2.66 -3.5,-5z" fill="#a31833" id="svg_420"/>
  </g>
  <g id="svg_421">
   <path d="m308.5,337.5c0,0.33 0,0.67 0,1c-0.97,7.16 -1.64,14.49 -2,22c0,0.67 -0.33,1 -1,1c-0.9,-0.71 -1.24,-1.71 -1,-3c0.07,-6.19 0.24,-12.52 0.5,-19c-0.33,0.67 -0.67,1.33 -1,2c-4.6,-0.64 -9.1,-1.31 -13.5,-2c6.15,0.4 12.15,-0.27 18,-2z" fill="#583424" id="svg_422"/>
  </g>
  <g id="svg_423">
   <path d="m331.5,340.5c-4.09,5.43 -9.09,9.76 -15,13c-1,0 -2,0 -3,0c-0.75,-4.25 -0.75,-8.41 0,-12.5c1.93,-0.25 3.77,-0.75 5.5,-1.5c4.06,1.89 8.22,2.23 12.5,1z" fill="#d52040" id="svg_424"/>
  </g>
  <g id="svg_425">
   <path d="m113.5,339.5c0.33,0 0.67,0 1,0c0.12,3.19 0.95,6.19 2.5,9c0.25,-1.12 0.75,-2.12 1.5,-3c1.22,1.21 2.39,1.21 3.5,0c-0.01,3.4 -0.68,6.73 -2,10c-0.33,-2.33 -0.67,-4.67 -1,-7c-0.24,1.62 -1.07,2.62 -2.5,3c-1.61,-3.56 -2.94,-7.23 -4,-11c0.67,0 1,-0.33 1,-1z" fill="#3c1a0d" id="svg_426"/>
  </g>
  <g id="svg_427">
   <path d="m308.5,338.5c0,0.67 0,1.33 0,2c-0.32,6.19 0.01,12.19 1,18c-0.79,0.9 -1.79,1.57 -3,2c0.36,-7.51 1.03,-14.84 2,-22z" fill="#b16b62" id="svg_428"/>
  </g>
  <g id="svg_429">
   <path d="m175.5,302.5c-0.33,11.69 0,23.35 1,35c0.88,1.26 1.88,2.43 3,3.5c11.33,0.33 22.67,0.67 34,1c1.94,6.65 3.1,13.48 3.5,20.5c1.16,-1.79 1.83,-3.79 2,-6c0.22,1.44 0.72,2.77 1.5,4c0.33,-0.67 0.67,-1.33 1,-2c-1.22,-5.31 -2.22,-10.64 -3,-16c7.59,-1.65 15.25,-2.15 23,-1.5c7.22,3 14.22,3.16 21,0.5c0.68,5.93 2.18,11.6 4.5,17c-1.3,-6.21 -2.13,-12.54 -2.5,-19c3.35,0.17 6.68,0 10,-0.5c1.95,-3.29 4.62,-4.12 8,-2.5c0.81,2.43 1.81,4.76 3,7c0.79,-1.2 0.79,-2.53 0,-4c0.06,-0.54 0.39,-0.88 1,-1c1.31,1.82 2.81,3.48 4.5,5c4.07,-0.96 8.23,-1.3 12.5,-1c-0.18,5.38 0.16,10.71 1,16c-0.24,1.29 0.1,2.29 1,3c-0.67,0.67 -1.33,1.33 -2,2c-6.4,3.87 -13.07,7.2 -20,10c0.31,-2.75 -0.02,-5.41 -1,-8c-0.98,2.93 -1.32,5.93 -1,9c-8.26,4.31 -16.92,7.64 -26,10c-7.67,2.87 -15.67,4.87 -24,6c-1.96,-5.85 -3.29,-11.85 -4,-18c-0.05,-3.2 0.62,-6.2 2,-9c0.54,-0.06 0.88,-0.39 1,-1c-1.85,-0.74 -2.52,-1.74 -2,-3c-0.98,1.48 -2.15,2.81 -3.5,4c-0.83,4.64 -1.5,9.31 -2,14c-1.34,-1.4 -2.18,-1.07 -2.5,1c1.77,3.59 2.1,7.26 1,11c-5.07,2.09 -6.74,0.59 -5,-4.5c-0.66,-2.46 -1.16,-4.96 -1.5,-7.5c-0.38,-0.56 -0.88,-0.89 -1.5,-1c-1.22,0.65 -1.89,1.82 -2,3.5c0.74,4.14 1.07,8.3 1,12.5c-5.33,0 -10.67,0 -16,0c-0.02,-5.95 0.64,-11.79 2,-17.5c-0.33,-0.17 -0.67,-0.33 -1,-0.5c-0.99,2.94 -1.66,5.94 -2,9c-1.16,-10.24 -2.66,-20.57 -4.5,-31c-2.47,-1.28 -4.97,-1.28 -7.5,0c0.12,0.61 0.46,0.94 1,1c0,0.67 0,1.33 0,2c0.64,11.32 0.97,22.66 1,34c-2.95,0.28 -5.78,-0.06 -8.5,-1c0.11,-4.19 -0.22,-8.52 -1,-13c-0.5,2.65 -0.66,5.31 -0.5,8c-1.33,0 -2.67,0 -4,0c0.17,-7.34 0,-14.67 -0.5,-22c-0.41,-3.83 -1.74,-4.5 -4,-2c-0.17,4 -0.33,8 -0.5,12c0.01,4.39 0.68,8.39 2,12c1.94,1.66 4.27,2.33 7,2c0,1.33 0,2.67 0,4c-5.33,-0.33 -10.67,-0.67 -16,-1c-1.79,0.13 -3.46,-0.2 -5,-1c-0.59,-5.65 -1.25,-5.98 -2,-1c-4.08,-0.69 -8.08,-1.69 -12,-3c0.17,-4.35 0,-8.68 -0.5,-13c-0.31,-0.81 -0.81,-1.48 -1.5,-2c-2.66,3.87 -3.66,8.2 -3,13c-2.99,-0.4 -5.65,-1.4 -8,-3c-1.37,-1.42 -2.7,-2.92 -4,-4.5c-1.3,-9.62 -1.3,-19.46 0,-29.5c-2.82,-0.04 -5.15,-1.04 -7,-3c0.74,-0.68 1.41,-1.35 2,-2c7.64,0.94 15.31,1.77 23,2.5c1.32,4.43 2.49,8.93 3.5,13.5c-0.18,-4.71 -0.01,-9.37 0.5,-14c7.28,-0.8 14.62,-1.3 22,-1.5c1.72,-0.52 3.06,-1.52 4,-3c-1.87,-14.16 -2.54,-28.33 -2,-42.5c0.17,-0.33 0.33,-0.67 0.5,-1c2.48,2.64 4.32,5.64 5.5,9z" fill="#cd8b5c" id="svg_430"/>
  </g>
  <g id="svg_431">
   <path d="m255.5,384.5c-2.69,0.16 -5.35,0 -8,-0.5c-0.46,-0.41 -0.79,-0.91 -1,-1.5c3.96,-10.7 3.96,-21.36 0,-32c10.25,-6.31 15.75,-3.31 16.5,9c0.92,0.83 1.58,1.83 2,3c0.57,-3.86 1.4,-3.86 2.5,0c0.66,-7.03 0.99,-14.03 1,-21c4.35,-0.65 8.35,-1.81 12,-3.5c1.81,3.56 3.14,7.39 4,11.5c1.02,-1.19 2.19,-2.19 3.5,-3c3.36,2.89 6.19,2.39 8.5,-1.5c1.28,-0.68 2.45,-0.52 3.5,0.5c0.24,2.26 0.74,4.43 1.5,6.5c-0.67,0.67 -1.33,1.33 -2,2c-4.4,1.59 -8.07,4.09 -11,7.5c-10.88,-2.46 -13.88,1.2 -9,11c-0.48,0.98 -1.14,1.81 -2,2.5c-6.14,1.7 -12.3,3.2 -18.5,4.5c-1.68,-0.56 -3.01,-1.56 -4,-3c-2.11,2.93 -1.94,5.6 0.5,8z" fill="#d18d59" id="svg_432"/>
  </g>
  <g id="svg_433">
   <path d="m264.5,339.5c0.37,6.46 1.2,12.79 2.5,19c-2.32,-5.4 -3.82,-11.07 -4.5,-17c0,-0.33 0,-0.67 0,-1c0.34,-0.84 1.01,-1.17 2,-1z" fill="#6b3013" id="svg_434"/>
  </g>
  <g id="svg_435">
   <path d="m189.5,392.5c-0.67,0 -1.33,0 -2,0c0.54,-12.61 -0.46,-24.94 -3,-37c0,-0.67 0,-1.33 0,-2c0.06,-0.54 0.39,-0.88 1,-1c2.81,13.17 4.15,26.51 4,40z" fill="#492114" id="svg_436"/>
  </g>
  <g id="svg_437">
   <path d="m198.5,351.5c1.31,1.9 1.97,4.23 2,7c-0.17,2.33 -0.33,4.67 -0.5,7c-1.44,-4.47 -1.94,-9.14 -1.5,-14z" fill="#5f2e13" id="svg_438"/>
  </g>
  <g id="svg_439">
   <path d="m92.5,341.5c3.85,-0.01 5.69,1.99 5.5,6c1.33,0.67 2.67,1.33 4,2c1.29,5.27 2.12,10.61 2.5,16c-1.72,-0.13 -3.38,-0.46 -5,-1c-1.33,-0.33 -2.67,-0.67 -4,-1c-5,-4 -10,-8 -15,-12c3.42,2.05 7.08,3.71 11,5c2.12,1.64 4.28,3.31 6.5,5c0.93,-2.05 2.43,-3.55 4.5,-4.5c-2.71,-0.87 -4.05,-2.71 -4,-5.5c-1,0 -2,0 -3,0c0,-3 0,-6 0,-9c-1.29,0.24 -2.29,-0.1 -3,-1z" fill="#c6213b" id="svg_440"/>
  </g>
  <g id="svg_441">
   <path d="m114.5,339.5c1.33,0 2.67,0 4,0c-0.59,0.65 -1.26,1.32 -2,2c1.85,1.96 4.18,2.96 7,3c-1.3,10.04 -1.3,19.88 0,29.5c1.3,1.58 2.63,3.08 4,4.5c-2.88,-0.44 -5.55,-1.44 -8,-3c0.17,-6.34 0,-12.68 -0.5,-19c-1.07,5.95 -1.57,11.95 -1.5,18c-2.98,-0.83 -5.65,-2.16 -8,-4c0.44,0.06 0.77,-0.1 1,-0.5c-1.36,-6.36 -3.03,-12.53 -5,-18.5c0,-2 0,-4 0,-6c0.15,-3.81 2.15,-5.48 6,-5c0.13,3.79 0.8,7.45 2,11c1,0 2,0 3,0c1.43,-0.38 2.26,-1.38 2.5,-3c0.33,2.33 0.67,4.67 1,7c1.32,-3.27 1.99,-6.6 2,-10c-1.11,1.21 -2.28,1.21 -3.5,0c-0.75,0.88 -1.25,1.88 -1.5,3c-1.55,-2.81 -2.38,-5.81 -2.5,-9z" fill="#ae7554" id="svg_442"/>
  </g>
  <g id="svg_443">
   <path d="m105.5,351.5c1.97,5.97 3.64,12.14 5,18.5c-0.23,0.4 -0.56,0.56 -1,0.5c-1.87,-0.76 -3.53,-1.76 -5,-3c1.17,0.22 2.17,-0.11 3,-1c-1.23,-4.92 -1.89,-9.92 -2,-15z" fill="#712320" id="svg_444"/>
  </g>
  <g id="svg_445">
   <path d="m229.5,363.5c-0.31,-1.24 -0.81,-1.24 -1.5,0c-1.84,2.54 -2.67,5.37 -2.5,8.5c1.03,6.25 2.36,12.42 4,18.5c-4.91,1.21 -9.91,1.87 -15,2c-0.6,-5.31 -0.93,-10.65 -1,-16c0.62,0.11 1.12,0.44 1.5,1c0.34,2.54 0.84,5.04 1.5,7.5c-1.74,5.09 -0.07,6.59 5,4.5c1.1,-3.74 0.77,-7.41 -1,-11c0.32,-2.07 1.16,-2.4 2.5,-1c0.5,-4.69 1.17,-9.36 2,-14c1.35,-1.19 2.52,-2.52 3.5,-4c-0.52,1.26 0.15,2.26 2,3c-0.12,0.61 -0.46,0.94 -1,1z" fill="#b47a57" id="svg_446"/>
  </g>
  <g id="svg_447">
   <path d="m243.5,354.5c1.28,1.19 1.94,2.86 2,5c0.91,5.99 1.08,11.99 0.5,18c-1.16,-7.64 -2,-15.3 -2.5,-23z" fill="#834823" id="svg_448"/>
  </g>
  <g id="svg_449">
   <path d="m119.5,375.5c-0.67,-0.33 -1.33,-0.67 -2,-1c-0.07,-6.05 0.43,-12.05 1.5,-18c0.5,6.32 0.67,12.66 0.5,19z" fill="#54250e" id="svg_450"/>
  </g>
  <g id="svg_451">
   <path d="m229.5,363.5c-1.38,2.8 -2.05,5.8 -2,9c0.71,6.15 2.04,12.15 4,18c-0.67,0 -1.33,0 -2,0c-1.64,-6.08 -2.97,-12.25 -4,-18.5c-0.17,-3.13 0.66,-5.96 2.5,-8.5c0.69,-1.24 1.19,-1.24 1.5,0z" fill="#582d18" id="svg_452"/>
  </g>
  <g id="svg_453">
   <path d="m195.5,383.5c-0.66,2.95 -0.99,5.95 -1,9c-1.67,0 -3.33,0 -5,0c0.15,-13.49 -1.19,-26.83 -4,-40c-0.61,0.12 -0.94,0.46 -1,1c-0.54,-0.06 -0.88,-0.39 -1,-1c2.53,-1.28 5.03,-1.28 7.5,0c1.84,10.43 3.34,20.76 4.5,31z" fill="#b17553" id="svg_454"/>
  </g>
  <g id="svg_455">
   <path d="m184.5,355.5c2.54,12.06 3.54,24.39 3,37c-9.65,-0.04 -18.98,-1.37 -28,-4c5.33,0.33 10.67,0.67 16,1c0,-1.33 0,-2.67 0,-4c-2.73,0.33 -5.06,-0.34 -7,-2c-1.32,-3.61 -1.99,-7.61 -2,-12c0.17,-4 0.33,-8 0.5,-12c2.26,-2.5 3.59,-1.83 4,2c0.5,7.33 0.67,14.66 0.5,22c1.33,0 2.67,0 4,0c-0.16,-2.69 0,-5.35 0.5,-8c0.78,4.48 1.11,8.81 1,13c2.72,0.94 5.55,1.28 8.5,1c-0.03,-11.34 -0.36,-22.68 -1,-34z" fill="#bf8862" id="svg_456"/>
  </g>
  <g id="svg_457">
   <path d="m95.5,363.5c1.33,0.33 2.67,0.67 4,1c1.16,1.75 2.83,2.75 5,3c1.47,1.24 3.13,2.24 5,3c2.35,1.84 5.02,3.17 8,4c0.67,0.33 1.33,0.67 2,1c2.45,1.56 5.12,2.56 8,3c2.35,1.6 5.01,2.6 8,3c1.28,1.43 2.95,2.1 5,2c3.92,1.31 7.92,2.31 12,3c0.34,0.84 1.01,1.17 2,1c1.54,0.8 3.21,1.13 5,1c9.02,2.63 18.35,3.96 28,4c0.67,0 1.33,0 2,0c1.67,0 3.33,0 5,0c0.67,0 1.33,0 2,0c5.33,0 10.67,0 16,0c0.67,0 1.33,0 2,0c5.09,-0.13 10.09,-0.79 15,-2c0.67,0 1.33,0 2,0c8.33,-1.13 16.33,-3.13 24,-6c9.08,-2.36 17.74,-5.69 26,-10c0.99,0.17 1.66,-0.16 2,-1c6.93,-2.8 13.6,-6.13 20,-10c1.48,-0.26 2.81,0.07 4,1c-2.43,0.86 -3.76,2.53 -4,5c-29.53,17.84 -61.53,27.84 -96,30c-7.67,0 -15.33,0 -23,0c-34.14,-3.07 -65.47,-14.07 -94,-33c1.17,-1.78 2.84,-2.78 5,-3z" fill="#f5f4f1" id="svg_458"/>
  </g>
  <g id="svg_459">
   <path d="m213.5,376.5c0.07,5.35 0.4,10.69 1,16c-0.67,0 -1.33,0 -2,0c0.07,-4.2 -0.26,-8.36 -1,-12.5c0.11,-1.68 0.78,-2.85 2,-3.5z" fill="#5c2d17" id="svg_460"/>
  </g>
  <g id="svg_461">
   <path d="m196.5,392.5c-0.67,0 -1.33,0 -2,0c0.01,-3.05 0.34,-6.05 1,-9c0.34,-3.06 1.01,-6.06 2,-9c0.33,0.17 0.67,0.33 1,0.5c-1.36,5.71 -2.02,11.55 -2,17.5z" fill="#5e2811" id="svg_462"/>
  </g>
  <g id="svg_463">
   <path d="m154.5,387.5c-0.99,0.17 -1.66,-0.16 -2,-1c0.75,-4.98 1.41,-4.65 2,1z" fill="#73442b" id="svg_464"/>
  </g>
  <g id="svg_465">
   <path d="m140.5,383.5c-2.05,0.1 -3.72,-0.57 -5,-2c-0.66,-4.8 0.34,-9.13 3,-13c0.69,0.52 1.19,1.19 1.5,2c0.5,4.32 0.67,8.65 0.5,13z" fill="#a56d4d" id="svg_466"/>
  </g>
  <g id="svg_467">
   <path d="m168.5,383.5c-0.88,-6.65 -1.05,-13.32 -0.5,-20c1.49,6.8 1.66,13.47 0.5,20z" fill="#5f2b16" id="svg_468"/>
  </g>
  <g id="svg_469">
   <path d="m283.5,373.5c-0.34,0.84 -1.01,1.17 -2,1c-0.32,-3.07 0.02,-6.07 1,-9c0.98,2.59 1.31,5.25 1,8z" fill="#804126" id="svg_470"/>
  </g>
 </g>
</svg>