<svg xmlns="http://www.w3.org/2000/svg" width="64" height="64" viewBox="0 0 64 64"><g transform="translate(-8528.947 -692.496)"><circle cx="32" cy="32" r="32" transform="translate(8528.947 692.496)" fill="#272727"/><g transform="translate(8540.133 700.241)"><path d="M18.637,2.337C13.972,7.4,8.579,10.4,2.608,11.242l-2.367.335L.073,13.962A33.044,33.044,0,0,0,1.507,25.894l.02.067A36.9,36.9,0,0,0,19.473,47.789l1.389.721,1.386-.72A36.9,36.9,0,0,0,40.2,25.959l.025-.082,0-.018a34.022,34.022,0,0,0,1.325-11.9l-.169-2.384-2.366-.335c-5.951-.844-11.2-3.764-16.048-8.925L20.792,0,18.637,2.337Z" transform="translate(0)" fill-rule="evenodd"/><path d="M30.059,18.651c-4.848,5.26-10.469,8.375-16.706,9.26l-1.456.206-.1,1.468A31.9,31.9,0,0,0,13.179,41.1l.02.066A35.751,35.751,0,0,0,30.584,62.322l.863.449.862-.448A35.749,35.749,0,0,0,49.7,41.166l.023-.076V41.08A32.872,32.872,0,0,0,51,29.584l-.1-1.467-1.456-.206C43.224,27.029,37.755,24,32.724,18.638l-1.339-1.426-1.326,1.439Z" transform="translate(-10.585 -15.542)" fill="#fff" fill-rule="evenodd"/><path d="M77.641,257.905H44.649l.02.065a33.923,33.923,0,0,0,16.487,20.079l.023.012.023-.012A33.919,33.919,0,0,0,77.689,257.97l.02-.065Z" transform="translate(-40.317 -232.883)" fill-rule="evenodd"/><path d="M64.9,65.489a31.065,31.065,0,0,0,1.228-10.909c-6.584-.934-12.481-4.177-17.788-9.828-5.209,5.651-11.2,8.894-17.788,9.828a30.1,30.1,0,0,0,1.326,10.909Z" transform="translate(-27.526 -40.411)" fill="#f10" fill-rule="evenodd"/><path d="M81.836,140.421l3.784-1.965a8.223,8.223,0,0,0,.639,3.734l3.686,7.961v4.472l-5.5-11.45a11.456,11.456,0,0,0-2.6-2.752Z" transform="translate(-73.896 -125.023)" fill="#fff" fill-rule="evenodd"/><path d="M255.237,143.965,251.453,142a8.931,8.931,0,0,1-.639,3.734l-5.9,13.317,2.31-.344,5.405-11.99c.492-1.081,1.671-1.867,2.6-2.752Z" transform="translate(-221.155 -128.223)" fill="#fff" fill-rule="evenodd"/><path d="M161.862,218.315h3.39V206.621h3.538c.738,0,1.179.933,1.72,1.425l.049-4.816c-.59.442-.983,1.278-1.72,1.278H165.3l-.049-4.766-2.261.688V216.4c0,.737-.737,1.277-1.13,1.916Z" transform="translate(-146.158 -180.362)" fill="#fff" fill-rule="evenodd"/><path d="M163.494,122.29v-3.243c0-.737-.688-1.278-1.13-1.868h10.517v3.243c-.836-.54-1.524-1.523-2.458-1.523h-4.667v2.948l-2.261.442Z" transform="translate(-146.611 -105.811)" fill="#fff" fill-rule="evenodd"/><path d="M247.967,361.51h3.489v-3.243c-.148.148-.245,1.474-2.8,1.474l-.688,1.769Z" transform="translate(-223.909 -323.507)" fill="#fff" fill-rule="evenodd"/><path d="M204.909,352.521v3.194l1.671,3.293,3.244-7.322-2.015.05-1.474,3.735Z" transform="translate(-185.029 -317.564)" fill="#fff" fill-rule="evenodd"/><path d="M72.1,219.537a18.481,18.481,0,0,1-6.978-5.406,7.084,7.084,0,0,1,2.555-2.8L66.6,209.366a9.718,9.718,0,0,0-3.39,3.538,3.039,3.039,0,0,1-1.13,1.228c.443.246.737.2,1.18.836A18.881,18.881,0,0,0,72.1,221.7v-2.162Z" transform="translate(-56.056 -189.053)" fill="#fff" fill-rule="evenodd"/><path d="M140.586,172.879l.983,1.916a16.745,16.745,0,0,1,13.022-.541l.786-1.72a18.9,18.9,0,0,0-14.792.344Z" transform="translate(-126.947 -154.581)" fill="#fff" fill-rule="evenodd"/><path d="M320.121,202.268l-.736,1.72,1.376.688c.393.147.54.688.786,1.032l1.228-2.7c-.443,0-.933.2-1.326,0l-1.328-.737Z" transform="translate(-288.398 -182.644)" fill="#fff" fill-rule="evenodd"/><path d="M204.407,293.9v1.868c4.963,1.081,9.632-.393,13.956-2.948l-1.279-1.917a15.919,15.919,0,0,1-12.678,3Z" transform="translate(-184.575 -262.681)" fill="#fff" fill-rule="evenodd"/></g></g></svg>