<svg xmlns="http://www.w3.org/2000/svg" width="64" height="64" viewBox="0 0 64 64"><g transform="translate(0 -22)"><circle cx="32" cy="32" r="32" transform="translate(0 22)" fill="#d90742"/><g transform="translate(6.197 39.872)"><g transform="translate(48.885 13.341)"><path d="M461.039,125.66h-.477l-.267,1.243H460.1l.267-1.243H459.9l.032-.16h1.139Z" transform="translate(-459.9 -125.5)" fill="#fff"/><path d="M469.9,125.5h.267l.192,1.211h0l.691-1.211h.267l-.3,1.4h-.181l.288-1.232h0l-.712,1.232h-.181l-.181-1.232h0L469.8,126.9h-.2Z" transform="translate(-468.568 -125.5)" fill="#fff"/></g><path d="M5.048,2.456A4.8,4.8,0,0,1,8.8,0h9.493L11.947,12.021H0Z" fill="#fff" fill-rule="evenodd"/><path d="M203.536,42.133A3.4,3.4,0,0,1,206.2,40.4h6.5l-3.136,6.005a3.4,3.4,0,0,1-2.667,1.733h-6.5Z" transform="translate(-179.099 -36.107)" fill="#fff" fill-rule="evenodd"/><path d="M317.019,1.215A1.8,1.8,0,0,1,318.432.3h3.4l-1.819,3.392a1.8,1.8,0,0,1-1.413.915h-3.4Z" transform="translate(-281.696 -0.268)" fill="#fff" fill-rule="evenodd"/><path d="M70.205,113.1H79.6l-5.016,9.365H65.2Z" transform="translate(-58.269 -101.079)" fill="#fff" fill-rule="evenodd"/><path d="M122.477,201.2h6.579l-3,5.6a2.509,2.509,0,0,1-1.955,1.275h-5.3Z" transform="translate(-106.171 -179.813)" fill="#fff" fill-rule="evenodd"/><path d="M189.627,117.518l-1.8,3.392c-.117.224.032.381.267.4a1.123,1.123,0,0,0,.552-.1l-.723,1.36a2.286,2.286,0,0,1-.637.107c-1.067,0-1.563-.723-1.1-1.616l3.029-5.7a1.333,1.333,0,0,1,1.032-.669h.883l-.712,1.333h.915l-.776,1.467Zm-9.109.267-.032.064-.744,1.4-1.392,2.627a1.387,1.387,0,0,1-.563.533,1.067,1.067,0,0,1-.477.139H176.4l1.755-3.307.776-1.467a.08.08,0,0,1,.021-.053c.075-.2,0-.352-.213-.352a.819.819,0,0,0-.627.4l-.776,1.467-1.392,2.627a1.349,1.349,0,0,1-1.043.68H174l2.541-4.773a2.864,2.864,0,0,1,3.019-1.883h2.4c.915,0,1.68.533.968,1.883l-2.179,4.093a1.349,1.349,0,0,1-1.043.68H178.8l1.755-3.307.776-1.467c.117-.224.032-.4-.192-.4a.819.819,0,0,0-.624.4Zm18.773-.288-.563,1.067H197.2l.456-.861c.117-.224.032-.4-.192-.4a.784.784,0,0,0-.616.4l-1.541,2.891-.139.267c-.117.224-.032.4.192.4s.5-.149.733-.627l.213-.395h-.381l.616-1.157h1.915l-1.053,1.976v.021a3.445,3.445,0,0,1-2.795,1.616c-1.067,0-1.552-.723-1.067-1.616l.267-.488,1.659-3.125a3.445,3.445,0,0,1,2.795-1.616c1.067,0,1.552.723,1.067,1.616Zm-8.592,3.339c-.117.224-.032.4.192.4a.784.784,0,0,0,.616-.4l1.669-3.136c.117-.224.032-.4-.192-.4a.784.784,0,0,0-.616.4Zm4.115-3.339-1.893,3.539v.021a3.445,3.445,0,0,1-2.795,1.616c-1.067,0-1.552-.723-1.067-1.616l1.915-3.6a3.445,3.445,0,0,1,2.795-1.616c1.067,0,1.552.723,1.067,1.616Zm-11.363,3.339c-.117.224-.032.4.192.4a.784.784,0,0,0,.616-.4l1.68-3.136c.117-.224.032-.4-.192-.4a.784.784,0,0,0-.616.4ZM187.5,117.5l-1.893,3.539v.021a3.445,3.445,0,0,1-2.795,1.616c-1.067,0-1.552-.723-1.067-1.616l1.925-3.6a3.445,3.445,0,0,1,2.795-1.616c1.067,0,1.552.723,1.067,1.616Zm13.819.192-.075.139-.669,1.264h.267a1.067,1.067,0,0,0,.829-.533l.456-.861c.117-.224.032-.4-.192-.4a.784.784,0,0,0-.619.405Zm-1.5,2.816-.723,1.36a1.333,1.333,0,0,1-1.032.669h-.9L199.1,118.9l.584-1.1a3.056,3.056,0,0,1,3.019-1.965c1.333,0,1.509.883.925,1.976l-.043.075-.509.957-.032.064a3.5,3.5,0,0,1-2.848,1.637,2.115,2.115,0,0,1-.373-.032Z" transform="translate(-155.504 -102.51)" fill="#fff"/></g></g></svg>