<svg width="100" height="100" viewBox="0 0 100 100" fill="none" xmlns="http://www.w3.org/2000/svg">
<g clip-path="url(#clip0_1124_15305)">
<path d="M50 100C77.6142 100 100 77.6142 100 50C100 22.3858 77.6142 0 50 0C22.3858 0 0 22.3858 0 50C0 77.6142 22.3858 100 50 100Z" fill="#005596"/>
<path d="M50 98.7333C76.9147 98.7333 98.7333 76.9147 98.7333 50C98.7333 23.0853 76.9147 1.26666 50 1.26666C23.0853 1.26666 1.26666 23.0853 1.26666 50C1.26666 76.9147 23.0853 98.7333 50 98.7333Z" fill="#005596"/>
<path d="M50 2.53333C76.1714 2.53333 97.4667 23.8286 97.4667 50C97.4667 76.1714 76.1714 97.4667 50 97.4667C23.8286 97.4667 2.53333 76.1714 2.53333 50C2.53333 23.8286 23.8286 2.53333 50 2.53333ZM50 0C22.3857 0 0 22.3857 0 50C0 77.6143 22.3857 100 50 100C77.6143 100 100 77.6143 100 50C100 22.3857 77.6143 0 50 0Z" fill="#005596"/>
<path d="M50 100C77.6142 100 100 77.6142 100 50C100 22.3858 77.6142 0 50 0C22.3858 0 0 22.3858 0 50C0 77.6142 22.3858 100 50 100Z" fill="#0C2340"/>
<path d="M50 2.53333C76.1714 2.53333 97.4667 23.8286 97.4667 50C97.4667 76.1714 76.1714 97.4667 50 97.4667C23.8286 97.4667 2.53333 76.1714 2.53333 50C2.53333 23.8286 23.8286 2.53333 50 2.53333ZM50 0C22.3857 0 0 22.3857 0 50C0 77.6143 22.3857 100 50 100C77.6143 100 100 77.6143 100 50C100 22.3857 77.6143 0 50 0Z" fill="#E94F95"/>
<path d="M70.4952 33.2381C68.5333 30.9667 66.2 29.0286 63.5905 27.5C62.8524 27.8238 62.3 28 61.4381 28C58.981 28 56.8667 26.7238 55.9238 24.6286C53.9667 24.1667 52.0095 23.9571 50 23.9619C47.9905 23.9571 46.0333 24.1667 44.0762 24.6286C43.1333 26.7238 41.019 28 38.5619 28C37.7 28 37.1524 27.8191 36.4095 27.5C33.8 29.0238 31.4619 30.9667 29.5 33.2381C32.019 35.0429 33.9143 37.981 33.9143 41.3C33.9143 45.9 30.7238 46.881 30.7238 53.4333C30.7238 57.7571 32.6667 61.1238 35.5 64.3952C37.5524 66.7619 49.9952 77.8381 49.9952 77.8381C49.9952 77.8381 62.4333 66.7619 64.4857 64.3952C67.3238 61.1238 69.2667 57.7571 69.2667 53.4333C69.2667 46.881 66.0762 45.9 66.0762 41.3C66.0762 37.981 67.9714 35.0381 70.4905 33.2381" fill="#E94F95"/>
<path d="M35.1714 39.981C35.1714 37.5143 34.2381 35.0857 32.5905 33.0952C34.3905 30.5286 35.6 29.7191 36.5095 28.9095C34.6 30.0857 32.8667 31.4857 31.3286 33.0952C33.5857 35.1238 34.9667 37.8476 35.1476 40.6667C35.1619 40.4476 35.1714 40.2191 35.1714 39.981ZM63.4905 62.2476C61.9429 64.0333 53.8809 71.3191 49.9714 74.8143C46.2 71.4429 38.0048 64.0381 36.4524 62.2476C33.5 58.8429 32.1476 55.9571 32 52.7143C31.9905 52.9476 31.9857 53.1857 31.9857 53.4333C31.9857 56.9238 33.3238 59.9524 36.4524 63.5667C38.0048 65.3572 46.2 72.7619 49.9714 76.1333C53.8857 72.6381 61.9476 65.3524 63.4905 63.5667C66.6238 59.9524 67.9619 56.9238 67.9619 53.4333C67.9619 53.1857 67.9571 52.9429 67.9476 52.7143C67.8 55.9571 66.4429 58.8429 63.4952 62.2476M63.4381 28.9095C64.3476 29.7143 65.5571 30.5238 67.3571 33.0952C65.7095 35.0905 64.7714 37.5143 64.7714 39.981C64.7714 40.2191 64.781 40.4476 64.7952 40.6667C64.9762 37.8476 66.3571 35.1238 68.6143 33.0952C67.0809 31.4905 65.3429 30.0857 63.4333 28.9095M39.6381 46.1048H35.1476V51.5762H36.319V49.5619H39.6381C40.2524 49.5619 40.7524 49.0619 40.7524 48.4524V47.2048C40.7524 46.5952 40.2524 46.1 39.6381 46.1M39.2762 48.5762H36.3238V47.0714H39.2762C39.4381 47.0714 39.5762 47.2048 39.5762 47.3667V48.281C39.5762 48.4429 39.4429 48.5762 39.2809 48.5762M42.6619 50.3H45.9429L46.6333 51.5714H47.9429L44.8762 46.1H43.7286L40.6619 51.5714H41.9714L42.6619 50.3ZM44.3048 47.2619L45.4286 49.3381H43.1857L44.3095 47.2619H44.3048ZM64.8048 47.2048C64.8048 46.5952 64.3048 46.1 63.6905 46.1H60.4048C59.7905 46.1 59.2905 46.5952 59.2905 47.2048V48.1857C59.2905 48.7952 59.7857 49.2952 60.4 49.2952H63.7714V50.5476H60.4V49.9381L59.2905 50.4667C59.2905 51.0762 59.7905 51.5714 60.4048 51.5714H63.7476C64.3619 51.5714 64.8619 51.0762 64.8619 50.4667V49.3476C64.8619 48.7381 64.3619 48.2429 63.7476 48.2429H60.3714V47.1H63.7524V47.6048L64.8048 47.2048ZM56.3809 51.5714H57.5524V46.1H56.3809V51.5714ZM54.4429 48.4476V47.2C54.4429 46.5905 53.9429 46.0952 53.3286 46.0952H48.8429V51.5667H50.0143V49.5524H51.419L53.5809 51.5667H55.0952L52.9238 49.5524H53.3381C53.9524 49.5524 54.4524 49.0524 54.4524 48.4429M52.9762 48.5667H50.0238V47.0619H52.9762C53.1429 47.0619 53.2762 47.1952 53.2762 47.3571C53.2762 47.3571 53.2762 48.2667 53.2762 48.2714C53.2762 48.4333 53.1429 48.5667 52.9809 48.5667M41.2667 39.481H48.0571V42.1857H41.2667V40.5L39.2952 42.0381C39.2952 43.1238 40.1809 44.0048 41.2762 44.0048H48.019C49.1143 44.0048 50 43.1238 50 42.0381V39.5762C50 38.4905 49.1143 37.6143 48.019 37.6143H41.219V34.8667H48.0238V36.5095L49.8905 35.0524C49.8905 33.9667 49.0048 33.0857 47.9095 33.0857H41.2762C40.1809 33.0857 39.2952 33.9667 39.2952 35.0524V37.5143C39.2952 38.6 40.1762 39.4857 41.2667 39.4905M53.7476 39.4905H58.4857L60.2524 37.6191H53.7524V34.8143H60.9095L62.5381 33.0857H51.6714V44.0095H53.7524V39.4857L53.7476 39.4905ZM51.2048 60.9524L49.2857 61.681L53.7476 57.5333L51.5095 58.3857L56.119 52.7095L48.8905 59.4191L50.8095 58.6905L46.3476 62.8381L48.5857 61.9857L43.9762 67.6619L51.2095 60.9524H51.2048ZM52.4714 60.5667L54.719 59.7143L49.4905 64.5762L52.1143 63.581L46.7095 70.2333L55.1809 62.3762L52.9286 63.2286L58.1524 58.3714L55.5333 59.3667L60.9333 52.7143L52.4619 60.5714L52.4714 60.5667ZM45.819 60.2381L49.5619 56.7572L47.6857 57.4714L51.5524 52.7095L45.4857 58.3333L47.1 57.7238L43.3571 61.2048L45.2333 60.4905L41.3667 65.2524L47.4333 59.6238L45.819 60.2381Z" fill="white"/>
<path d="M30.7095 11.3381L31.1143 12.0714L28.9 13.2952L29.2476 13.9286L31.2143 12.8429L31.6143 13.5714L29.6476 14.6572L30.1333 15.5333L29.2714 16.0095L27.6333 13.0429L30.7095 11.3429V11.3381Z" fill="white"/>
<path d="M36.3 12.6238L35.7619 12.1524L33.8286 12.9381L33.7714 13.6524L32.7905 14.0524L33.1333 10.2571L34.3905 9.74762L37.281 12.2286L36.3048 12.6238H36.3ZM33.8952 12.1143L35.1333 11.6095L34.0143 10.6333L33.8952 12.1143Z" fill="white"/>
<path d="M41.3476 10.1762L40.7619 7.81906L41.7095 7.58572L42.5238 10.8762L41.1286 11.2238L38.6048 9.34763L39.1905 11.7048L38.2381 11.9429L37.4238 8.65239L38.8238 8.30477L41.3476 10.181V10.1762Z" fill="white"/>
<path d="M46.119 6.96191L50.2 6.79524L50.2333 7.62858L48.6857 7.69048L48.7905 10.2429L47.8095 10.281L47.7048 7.72858L46.1524 7.79048L46.119 6.95715V6.96191Z" fill="white"/>
<path d="M51.3905 8.49525C51.4857 7.3762 52.3143 6.78096 53.7381 6.90477C55.1571 7.02858 55.8762 7.75715 55.7809 8.87144C55.6857 9.99049 54.8524 10.5952 53.4333 10.4714C52.0095 10.3476 51.2952 9.61906 51.3905 8.49525ZM54.7571 8.78572C54.8095 8.20001 54.5048 7.80953 53.6667 7.73811C52.8333 7.66668 52.4667 7.99049 52.419 8.58572C52.3667 9.18096 52.6762 9.57144 53.5048 9.64287C54.3381 9.7143 54.7095 9.38096 54.7619 8.79049L54.7571 8.78572Z" fill="white"/>
<path d="M61.6238 8.36667L59.6333 9.38095L60.881 11.6762L59.6762 11.4048L58.8095 9.80476L57.8619 10.2857L57.7095 10.9571L56.7524 10.7381L57.5 7.42857L58.4619 7.64286L58.1286 9.12857L60.1952 8.0381L61.6333 8.36191L61.6238 8.36667Z" fill="white"/>
<path d="M66.3286 9.99524L66.0667 10.7191L63.6857 9.85715L63.5 10.3667L65.7905 11.1952L65.5286 11.9191L63.2381 11.0905L63.0524 11.6L65.4333 12.4619L65.1714 13.1857L61.8667 11.9905L63.019 8.8L66.3238 9.99524H66.3286Z" fill="white"/>
<path d="M69.7619 14.3524L70.8762 12.1905L71.7476 12.6381L70.1905 15.6524L68.9095 14.9905L68.2476 11.9095L67.1333 14.0714L66.2571 13.6191L67.8143 10.6048L69.1 11.2667L69.7619 14.3476V14.3524Z" fill="white"/>
<path d="M27.3952 85.4762C27.2476 85.719 27.3952 86.0238 28.1571 86.4857C28.8571 86.9048 29.0952 86.9 29.2048 86.719C29.3333 86.5095 29.2238 86.3905 28.3952 85.8143C27.2667 85.0238 26.8905 84.4762 27.2762 83.8333C27.6429 83.2286 28.4619 83.3476 29.4667 83.9524C30.5857 84.6238 31.0238 85.3524 30.6619 86.0143L29.7809 85.4857C29.9333 85.2286 29.7143 84.9619 29.0619 84.5714C28.4429 84.2 28.2429 84.219 28.1476 84.3762C28.0381 84.5571 28.1476 84.6952 28.8952 85.2333C29.9143 85.9571 30.5619 86.4476 30.1048 87.2095C29.6571 87.9524 28.8381 87.7571 27.8048 87.1333C26.6286 86.4238 26.0905 85.7381 26.5095 84.9476L27.3905 85.4809L27.3952 85.4762Z" fill="white"/>
<path d="M31.5238 87.1905C31.9714 86.1571 32.9429 85.8619 34.2571 86.4286C35.5667 86.9952 36.0143 87.9143 35.5714 88.9429C35.1238 89.9762 34.1429 90.281 32.8333 89.7143C31.519 89.1476 31.0762 88.2286 31.5238 87.1905ZM34.6286 88.5381C34.8619 87.9952 34.6952 87.5333 33.9238 87.1952C33.1571 86.8619 32.7048 87.0571 32.4714 87.6C32.2333 88.1476 32.4048 88.6143 33.1667 88.9476C33.9333 89.281 34.3952 89.081 34.6286 88.5333V88.5381Z" fill="white"/>
<path d="M39.3048 88.219C40.5048 88.5571 41.0428 89.2619 40.9048 90.1286L39.9 89.8476C39.919 89.5286 39.6857 89.1905 39.0809 89.0238C38.3809 88.8286 37.9476 89.0762 37.7857 89.6476C37.6238 90.2238 37.8714 90.6667 38.5667 90.8619C39.1714 91.0286 39.5476 90.8619 39.6952 90.5714L40.7 90.8524C40.3667 91.6714 39.5428 92 38.3381 91.6667C37.0286 91.3 36.4809 90.4905 36.7905 89.3714C37.1048 88.2571 37.9905 87.8524 39.3 88.219H39.3048Z" fill="white"/>
<path d="M43.3952 89.2286L42.7952 92.5619L41.8286 92.3857L42.4286 89.0524L43.3952 89.2286Z" fill="white"/>
<path d="M44.419 91.1476C44.5095 90.0286 45.3333 89.4333 46.7571 89.5476C48.1762 89.6619 48.9 90.3905 48.8048 91.5048C48.7143 92.6238 47.8857 93.2286 46.4619 93.1143C45.0381 93 44.319 92.2714 44.4143 91.1476H44.419ZM47.7857 91.4238C47.8333 90.8381 47.5286 90.4524 46.6905 90.381C45.8571 90.3143 45.4952 90.6429 45.4428 91.2333C45.3952 91.8286 45.7048 92.2143 46.5333 92.2857C47.3667 92.3524 47.7381 92.019 47.7857 91.4238Z" fill="white"/>
<path d="M51.119 92.0476C51.1333 92.3333 51.4238 92.5048 52.3143 92.4571C53.1286 92.4143 53.3238 92.2762 53.3095 92.0619C53.2952 91.8143 53.1429 91.781 52.1333 91.7667C50.7571 91.7429 50.1333 91.5 50.0952 90.7476C50.0571 90.0429 50.8048 89.681 51.9762 89.6238C53.2809 89.5571 54.0524 89.9095 54.119 90.6619L53.0952 90.7143C53.0809 90.4143 52.7476 90.3191 51.9857 90.3571C51.2667 90.3952 51.1095 90.5238 51.119 90.7048C51.1286 90.9143 51.2952 90.9714 52.219 91C53.4667 91.0286 54.2809 91.0714 54.3286 91.9619C54.3714 92.8286 53.5857 93.1238 52.3809 93.1857C51.0095 93.2571 50.1762 92.9857 50.0857 92.0952L51.1143 92.0429L51.119 92.0476Z" fill="white"/>
<path d="M55.7429 92.0429L56.681 91.9048L56.7857 92.6333L55.8476 92.7714L55.7381 92.0429H55.7429Z" fill="white"/>
<path d="M59.481 88.5381C60.6952 88.2429 61.5095 88.5952 61.8143 89.419L60.8 89.6667C60.6619 89.3762 60.2905 89.2 59.6809 89.3476C58.9762 89.5191 58.719 89.9476 58.8571 90.5286C59 91.1095 59.4333 91.3762 60.1333 91.2048C60.7429 91.0571 60.9905 90.7238 60.9762 90.3952L61.9905 90.1476C62.1 91.0238 61.5429 91.719 60.3286 92.0143C59.0048 92.3381 58.1286 91.9 57.8524 90.7714C57.5762 89.6476 58.1524 88.8619 59.4762 88.5381H59.481Z" fill="white"/>
<path d="M63.1524 89.3952C62.7381 88.3476 63.219 87.4476 64.5476 86.9238C65.8714 86.4 66.8429 86.7333 67.2524 87.7762C67.6667 88.8238 67.1857 89.7333 65.8619 90.2571C64.5333 90.7809 63.5667 90.4476 63.1524 89.3952ZM66.3 88.1524C66.0857 87.6048 65.6381 87.3905 64.8571 87.7C64.081 88.0048 63.8952 88.4619 64.1143 89.0143C64.3333 89.5714 64.7857 89.7809 65.5571 89.4762C66.3333 89.1714 66.519 88.7048 66.3 88.1524Z" fill="white"/>
<path d="M69.3381 88.6905L67.6333 85.7571L68.9571 84.9857L71.1095 86.3381L70.9952 83.8L72.319 83.0286L74.0238 85.9619L73.1762 86.4524L71.9429 84.3286L72.0762 87.0952L71.2905 87.5524L68.9524 86.0714L70.1905 88.1952L69.3381 88.6905Z" fill="white"/>
<path d="M23.019 81.8381C13.9952 74.181 8.26666 62.7571 8.26666 50C8.26666 37.2429 14.3 25.2143 23.7381 17.5619" stroke="#E94F95" stroke-miterlimit="10"/>
<path d="M76.2667 17.5667C85.7048 25.219 91.7333 36.9048 91.7333 50C91.7333 63.0952 86.0048 74.1857 76.9809 81.8429" stroke="#E94F95" stroke-miterlimit="10"/>
</g>
<defs>
<clipPath id="clip0_1124_15305">
<rect width="100" height="100" fill="white"/>
</clipPath>
</defs>
</svg>
