<svg width="100" height="100" viewBox="0 0 100 100" fill="none" xmlns="http://www.w3.org/2000/svg">
<g clip-path="url(#clip0_1124_17120)">
<path d="M50 100C77.6142 100 100 77.6142 100 50C100 22.3858 77.6142 0 50 0C22.3858 0 0 22.3858 0 50C0 77.6142 22.3858 100 50 100Z" fill="#F6B817"/>
<path d="M50 2.53333C76.1714 2.53333 97.4667 23.8286 97.4667 50C97.4667 76.1714 76.1714 97.4667 50 97.4667C23.8286 97.4667 2.53333 76.1714 2.53333 50C2.53333 23.8286 23.8286 2.53333 50 2.53333ZM50 0C22.3857 0 0 22.3857 0 50C0 77.6143 22.3857 100 50 100C77.6143 100 100 77.6143 100 50C100 22.3857 77.6143 0 50 0Z" fill="#971A2E"/>
<path d="M49.3096 80.6762C43.5573 77.2238 38.7049 72.7952 34.8811 67.5095C31.362 62.6381 28.862 57.2381 27.4477 51.4571L27.3239 50.9476L26.8763 48.7524C25.8715 43.2429 25.8858 37.6286 26.9192 32.0571L27.0858 31.1619L27.9715 30.9762C28.0335 30.9619 33.8858 29.7286 39.0811 26.8095C46.4906 22.6429 48.9906 20.0048 49.0192 19.9762L50.0096 18.8952L51.0001 19.9809C51.0001 19.9809 53.5192 22.6381 60.9335 26.8095C66.1382 29.7286 71.9811 30.9619 72.0382 30.9714L72.9239 31.1571L73.0906 32.0476C74.1239 37.6238 74.1382 43.2333 73.1335 48.7429L72.9906 49.5333L72.5573 51.4476C71.143 57.2286 68.643 62.6238 65.1192 67.5C61.3001 72.7857 56.4477 77.2143 50.6954 80.6667L50.0049 81.0809L49.3144 80.6667L49.3096 80.6762Z" fill="#1D1C1A"/>
<path d="M71.938 32.081C71.938 32.081 65.8333 30.819 60.3476 27.7571C52.4714 23.3476 49.9952 20.6381 49.9952 20.6381C49.9952 20.6381 47.5238 23.3429 39.6428 27.7571C34.1618 30.819 28.0571 32.081 28.0571 32.081C26.9333 38.1238 27.0618 44.1762 28.338 49.9429H71.6571C72.9333 44.1762 73.0619 38.1238 71.938 32.081Z" fill="#F6B817"/>
<path d="M49.9951 79.9143C61.3999 73.1048 68.9047 62.4476 71.5332 50.5714H28.457C31.0808 62.4476 38.5856 73.1048 49.9904 79.9143H49.9951Z" fill="#971A2E"/>
<path d="M67.7474 46.2762C67.6284 46.1238 67.4951 45.9619 67.357 45.7952C66.7331 45.0429 65.3522 43.1857 65.3522 43.1857C65.3522 37.1571 64.2712 36.0381 63.1617 35.0905C62.1808 34.2571 60.6236 33.8286 58.9474 33.5714C58.4903 33.5 57.9903 33.4667 57.4141 33.4667C56.8379 33.4667 56.2951 33.4952 55.7474 33.5286C55.2951 33.5571 47.4379 33.8857 44.9141 33.4571C43.8189 33.2714 42.2903 33.4857 41.3855 33.5952C40.9665 33.6429 38.6998 34.0095 38.4331 33.5762C38.3808 33.4952 38.3903 33.319 38.4046 33.119C38.4379 32.8 38.5665 32.4143 38.3189 32.0714C37.9808 31.6 37.6093 31.0857 37.4046 31.0857C37.3427 31.0857 36.7808 31.5476 36.6427 31.6857C36.4141 31.9143 36.3427 32.2952 36.3522 32.7333C36.3617 33.0048 36.3427 32.9524 36.3189 32.9714C36.2855 33.0095 34.8379 33.0095 34.4712 33.0333C34.4712 32.9571 34.457 32.5857 34.2141 32.2286C34.057 32 33.9236 31.2333 33.9236 31.2333C33.9236 31.2333 33.3998 32.1429 33.2236 32.3857C33.0236 32.6524 32.8236 32.9286 32.7046 33.2476C32.657 33.3667 32.6522 33.5143 32.6427 33.6619C32.6379 33.7619 32.6236 33.9809 32.5808 34.0143C32.3046 34.2143 32.1474 34.4952 32.1236 34.8476C32.1189 34.9476 32.1427 35.0857 32.176 35.2429C32.1951 35.3429 32.2284 35.5048 32.2284 35.5809C32.2046 35.5952 32.176 35.6143 32.1427 35.6333C31.8998 35.7952 31.557 36.0143 31.5808 36.4C31.6141 36.9905 31.7474 37.219 31.9379 37.5381C31.9903 37.6286 32.0427 37.719 32.1046 37.8286C32.1855 37.9857 32.2236 38.2095 32.257 38.4286C32.3046 38.7333 32.0189 39.0714 32.2141 39.2619C32.4665 39.5143 33.1284 39.5286 33.4189 39.5286C33.4998 39.5286 33.7998 39.519 33.876 39.519C33.9855 39.519 34.0712 39.5238 34.1474 39.5381C34.6998 39.6476 35.2522 39.6952 35.7903 39.7381C36.5284 39.8 37.2236 39.8524 37.9236 40.0619C39.2189 40.4429 40.4951 40.9714 41.8189 41.6809C41.8903 41.719 41.957 41.7524 42.0236 41.7905C42.5141 42.0429 42.6189 42.0095 42.8522 42.6857C43.0808 43.3619 42.657 48.6524 42.5617 49.2C42.4141 50.0809 42.1331 50.619 41.676 50.7857C41.0617 51.0095 40.8093 51.4905 40.5665 51.9571C40.4903 52.1095 40.4998 52.2905 40.4046 52.4429C40.4046 52.4429 40.2046 52.6619 40.2712 52.719C40.3379 52.7762 40.9617 52.6238 40.9617 52.6238C41.176 52.6381 40.9427 52.7476 41.157 52.7476C41.676 52.7476 42.3141 52.7476 42.957 52.3714C43.2284 52.3714 43.0474 52.719 43.2951 52.6714C44.0665 52.5286 44.1379 51.9381 44.2331 51.3714C44.3903 50.4143 44.3665 50.2476 44.476 50.1619C44.5808 50.0762 44.9236 50.219 45.0141 50.1143C45.0855 50.0381 45.0046 49.3429 45.0474 48.7143C45.1046 47.819 45.3522 46.7714 45.6189 45.9L45.6331 45.8571C45.6903 45.6667 45.7808 45.4333 45.876 45.1905C46.1284 44.5286 46.4331 43.7286 46.3951 43.0809C46.6712 43.1286 46.7141 43.1476 46.8712 43.3619C46.8951 43.3952 46.9379 43.4667 46.9808 43.5381C47.2855 44.0333 47.4427 44.1762 47.6427 44.1762C47.6617 44.1762 47.6855 44.1762 47.7046 44.1667C48.0331 44.0809 48.2093 43.8048 48.3951 43.4381C48.576 43.0809 48.7712 42.7095 49.076 42.6381C49.0903 42.6381 49.1046 42.6333 49.1189 42.6333C49.3665 42.6333 49.8093 42.8571 50.057 43.2429C50.6093 44.1 51.0808 43.5 51.1284 43.4286C51.1903 43.3286 51.6331 42.6 51.7427 42.4333C51.876 42.2286 51.957 42.2048 51.9855 42.2048C51.9903 42.2048 51.9951 42.2048 51.9998 42.2048C52.2665 42.2476 53.4427 43.6571 53.857 43.5619C54.2617 43.519 54.7141 41.9714 54.9617 41.9714C54.976 41.9714 54.9855 41.9714 54.9998 41.9762C55.0617 42.0286 55.1998 42.2381 55.2903 42.3809C55.6046 42.8524 55.6712 43.1667 55.9189 43.1667C55.9951 43.1667 56.1331 43.1 56.2189 42.8952C56.2427 42.8429 56.3379 42.6095 56.3474 42.5857C56.357 42.5952 56.4427 42.8809 56.6331 42.9333C56.5951 42.9524 56.5474 42.9714 56.5046 43C56.5046 43 56.1189 43.2619 56.0998 43.5714V43.6048C56.0903 43.7143 56.0712 43.8952 56.1903 44.0952C56.2331 44.1619 56.2808 44.2381 56.3284 44.3C56.3236 44.3143 56.3141 44.3286 56.3093 44.3429C56.257 44.3762 56.2046 44.4095 56.1617 44.4476C56.1427 44.4524 56.1093 44.4619 56.0855 44.4714C55.9808 44.5048 55.8808 44.5333 55.795 44.6048C55.7379 44.6571 55.576 44.7952 55.4427 45.1048L55.1522 44.8143C54.9712 44.4952 54.9046 44.4429 54.8046 44.4C54.7522 44.3809 54.5808 44.3238 54.5141 44.3095C54.5141 44.3095 54.5046 44.3095 54.4665 44.2857L54.4474 44.2714L54.4331 44.2619C54.3189 44.2095 54.2189 44.1857 54.1236 44.1857C53.9522 44.1857 53.8093 44.2667 53.7379 44.4048C53.7141 44.4476 53.6998 44.4905 53.6998 44.5381C53.6331 44.4952 53.5522 44.4619 53.4617 44.4619H53.4141L53.376 44.4714C53.2379 44.5 53.157 44.5667 53.1093 44.6333C53.0998 44.6333 53.0903 44.6429 53.0855 44.6429C52.9808 44.6952 52.9046 44.8 52.8855 44.919C52.8665 45.0619 52.9284 45.2048 53.0522 45.3095C53.4284 45.6286 53.4998 45.6429 53.557 45.6667C53.5998 45.6762 53.6474 45.6952 54.2331 45.7238C54.4522 46.1238 54.6808 46.5476 54.7427 46.6286C54.7808 46.6857 55.1331 47.0857 55.4093 47.1429C55.4427 47.1524 55.476 47.1571 55.5093 47.1571C55.6141 47.1571 55.7427 47.119 55.8665 47.0524C55.8808 47.1429 55.8665 47.2476 55.857 47.2809C55.8522 47.3048 55.8427 47.3333 55.8379 47.3619C55.4093 47.4619 54.9522 47.6238 54.657 47.7809C53.857 48.2238 54.776 49.6286 54.9808 50.0381C54.9474 50.0571 54.9189 50.0714 54.8903 50.0905C54.5474 49.8905 54.0951 49.9143 53.9189 50.0905C53.9046 50.0809 53.8951 50.0667 53.8855 50.0571C53.7903 49.9857 53.5093 49.819 53.3808 49.7381C53.1712 49.5143 53.0808 49.4619 53.0379 49.4429C52.8665 49.3381 52.5331 49.219 52.2522 49.1524C52.1951 48.5524 52.1522 48.4143 52.1189 48.3476C52.1189 48.3286 52.1855 47.8 52.176 47.4667C52.357 47.5 52.595 47.5381 52.7808 47.5381C52.8903 47.5381 52.976 47.5238 53.0427 47.5C53.2284 47.4524 53.5284 47.3476 53.657 47.1476L53.6855 47.1048L53.6951 47.0524C53.7093 47.0095 53.7903 46.619 53.557 46.2476C53.3951 45.9905 52.9474 45.519 52.6951 45.2857C52.7046 45.1429 52.7141 45.0095 52.7141 45.0048C52.7236 44.8905 52.6903 44.7714 52.5617 44.6333C52.5189 44.5952 52.2189 44.2476 52.1331 44.2C52.0522 44.1476 51.9189 44.1143 51.8093 44.1143C51.7712 44.1143 51.7331 44.1143 51.6998 44.1286C51.4046 44.1905 51.4331 44.6429 51.4427 44.6809C51.4046 44.6619 51.3665 44.6381 51.3236 44.6238C51.2236 44.5143 51.076 44.4476 50.9236 44.419C50.8474 44.3619 50.7379 44.3095 50.5951 44.3095C50.5855 44.3095 50.576 44.3095 50.5617 44.3095C50.3712 44.319 50.3665 44.3381 50.276 44.4143C50.1331 44.4429 50.0046 44.5286 49.9093 44.6476C49.8236 44.6952 49.7284 44.7762 49.6474 44.919C49.5665 44.9905 49.4712 45.1048 49.3951 45.3048L49.3665 45.3809C49.2998 45.5571 49.2236 45.7571 49.2808 45.9619C49.2808 45.9619 49.2808 45.9714 49.2855 45.9809C49.1236 46.0238 48.8903 46.119 48.7617 46.3714C48.7046 46.4809 48.6474 46.6333 48.5951 46.7667C48.5236 46.7714 47.695 46.8714 47.7141 47.2619C47.7236 47.3809 47.776 47.5048 47.8903 47.5857C47.8141 47.719 47.8093 47.8571 47.8808 47.9714C47.9427 48.0714 48.0189 48.1476 48.1141 48.1809C48.1427 48.2809 48.1903 48.3809 48.2617 48.4714C48.3427 48.5762 48.4331 48.6524 48.5046 48.7048C48.3474 48.7571 48.1855 48.8286 48.0284 48.9429C47.7998 49.1 47.457 49.4381 47.757 49.9619C47.8046 50.0476 47.9474 50.2048 48.6712 50.919C48.6474 50.9476 48.0712 51.9952 49.0093 52.0381C49.2236 52.3952 49.9474 51.8809 49.9712 51.8667C50.0236 51.8762 50.9998 51.8809 50.7427 51.1286C50.8093 51.119 51.1474 51.0238 51.1617 51.0238C51.2712 51.0714 51.5141 51.1714 51.6522 51.1809C51.7189 51.1905 51.8236 51.1905 51.8998 51.1905C51.9998 51.1905 52.2379 51.1905 52.357 51.1667C52.3855 51.1619 52.4236 51.1524 52.4617 51.1429C52.5617 51.3095 52.7236 51.5095 52.9236 51.6286C53.1712 51.7714 53.7331 52.019 53.9189 52.1C53.957 52.1381 54.3522 52.4667 54.6093 52.4667C55.4331 52.4667 55.1808 51.7143 55.1951 51.6714C55.2236 51.5952 55.257 51.4095 55.276 51.2C55.3617 51.2 55.4331 51.1952 55.4855 51.1952H55.5093C55.5998 51.2 55.7189 51.2143 55.8046 51.2238L55.8665 51.2333C55.8665 51.2333 55.8903 51.2333 55.9046 51.2333C55.9665 51.2476 56.057 51.2667 56.1617 51.2667C56.2808 51.2667 56.3951 51.2381 56.4951 51.1857C56.8379 50.9952 56.795 50.6524 56.7808 50.5V50.4905C56.7617 50.3857 56.7379 49.9952 56.7284 49.8476C56.7284 49.7524 56.7284 49.6476 56.7189 49.5524C56.7379 49.5619 56.7522 49.5714 56.757 49.5762C56.8998 49.6905 57.1093 49.8238 57.3046 49.8381C57.3236 50.0762 57.4284 51.3857 58.2331 51.3857C58.3189 51.3857 58.8284 51.3667 58.9808 51.219C59.057 51.2429 60.257 51.1667 59.776 50.119C59.776 50.1095 59.7665 50.0952 59.7522 50.0762C59.657 49.8857 59.5617 49.719 59.457 49.6C59.4617 49.3857 59.457 49.2905 59.4284 49.2143C59.457 49.1333 59.4903 49.0238 59.4903 48.9238C59.4903 48.7667 59.357 48.3333 59.1046 48.019C59.0808 47.8857 59.0474 47.7429 59.0141 47.6095C59.1141 47.5857 59.2284 47.5286 59.3331 47.4048C59.3903 47.3381 59.5189 47.1571 59.5474 47.1238L59.576 47.0857L59.5903 47.0429C59.6046 47 59.7427 46.6286 59.657 46.2333C59.5903 45.9524 59.4712 45.5238 59.4427 45.4238C59.4141 45.2571 59.3189 44.8143 59.0046 44.6238C59.0141 44.5952 59.0236 44.5619 59.0379 44.5238C59.0712 44.4809 59.1046 44.4238 59.1331 44.3571C59.2284 44.4476 59.2903 44.5048 59.2998 44.5143C60.2665 45.3809 61.4712 46.4524 61.7046 47.619C61.8379 48.2905 61.8046 49.0619 61.6141 49.8C61.5712 49.9571 61.5331 50.0476 61.4998 50.0714C61.457 50.0952 61.3522 50.1 61.2189 50.1095C61.1617 50.1095 61.0903 50.1095 61.0141 50.1143C60.6855 50.1381 60.457 50.4905 60.257 50.8C60.1665 50.9476 60.0474 51.0619 59.9855 51.1714C59.9236 51.2809 60.0236 51.4571 60.0808 51.4952C60.1427 51.5333 60.7379 51.6714 60.9189 51.6714C60.9712 51.6714 61.0189 51.6667 61.0665 51.6571C61.1951 51.7048 61.3474 51.7286 61.5236 51.7286C62.0427 51.7286 62.6951 51.5143 62.8808 51.1524C63.1903 50.5381 63.4046 49.8714 63.6141 49.2238C63.6331 49.1524 63.657 49.0762 63.6808 49.0048C63.7284 48.8619 63.7855 48.7 63.8522 48.5381C64.0808 47.9429 64.4665 47.3095 64.2951 46.7286C64.2046 46.419 63.8903 46.119 63.695 45.8571C63.5236 45.6238 62.8617 44.7619 62.6617 44.4619C63.2808 45.0571 64.9903 45.9429 65.4236 46.9762C65.576 47.3381 65.4236 48.8571 65.3903 49.2667C65.376 49.4571 65.3665 49.6524 65.3617 49.8524C65.3427 50.4762 65.1617 50.5857 64.5379 50.6524C63.9951 50.7095 63.7474 51.5095 63.6141 51.9381C63.6046 51.9619 63.5998 51.9857 63.5951 52.0048L63.5331 52.2048L63.7427 52.2429C63.8236 52.2571 63.9141 52.2714 64.0093 52.2905C64.3998 52.3619 65.057 52.6048 65.5189 52.6048C66.0665 52.6048 66.4522 52.4762 66.6951 52.2095C67.0093 51.8667 67.1284 51.2524 67.2379 50.7143C67.2808 50.5095 67.4998 49.7857 67.5855 49.5238C68.0998 47.8714 68.6093 47.2381 67.7427 46.2857L67.7474 46.2762ZM32.8665 38.3095C32.676 38.4286 32.6093 38.1 32.6093 38.1C32.557 37.9714 32.5522 37.8286 32.6284 37.7762C32.7665 37.8667 32.9427 37.8619 32.9903 37.9476C33.0474 38.0381 32.9665 38.2524 32.8665 38.3095Z" fill="#C6C1C0"/>
<path d="M67.7428 46.2714C67.6238 46.119 67.4904 45.9571 67.3523 45.7952C66.7333 45.0381 65.3523 43.1809 65.3523 43.1809C65.3523 37.1571 64.2714 36.0333 63.1619 35.0857C62.1761 34.2524 60.6238 33.8286 58.9428 33.5667C58.4904 33.4952 57.9857 33.4619 57.4095 33.4619C56.8333 33.4619 56.2904 33.4952 55.7428 33.5238C55.2904 33.5524 47.4285 33.8762 44.9095 33.4524C43.8142 33.2667 42.2857 33.4809 41.3809 33.5905C40.9666 33.6429 38.6952 34 38.4238 33.5714C38.3761 33.4905 38.3809 33.3095 38.4 33.1143C38.4285 32.7952 38.5619 32.4143 38.3142 32.0714C37.9714 31.6 37.6 31.0857 37.3952 31.0857C37.3333 31.0857 36.7714 31.5429 36.6333 31.6857C36.4047 31.9143 36.3285 32.2952 36.338 32.7286C36.3476 33.0048 36.3285 32.9524 36.3095 32.9714C36.2714 33.0048 34.8285 33.0048 34.4619 33.0333C34.4619 32.9571 34.4523 32.5857 34.2047 32.2286C34.0428 31.9952 33.9095 31.2286 33.9095 31.2286C33.9095 31.2286 33.3857 32.1381 33.2095 32.3809C33.0095 32.6476 32.8142 32.9238 32.6904 33.2429C32.6476 33.3667 32.638 33.5143 32.6285 33.6571C32.6285 33.7571 32.6095 33.9762 32.5666 34.0048C32.2857 34.2048 32.138 34.4857 32.1095 34.8381C32.1 34.9381 32.1285 35.0762 32.1619 35.2286C32.1809 35.3333 32.2095 35.4905 32.2095 35.5667C32.1857 35.5809 32.1571 35.6 32.1285 35.619C31.8809 35.7809 31.5428 35.9952 31.5666 36.3857C31.6 36.9762 31.7333 37.2095 31.919 37.5238C31.9714 37.6143 32.0238 37.7048 32.0857 37.8143C32.1714 37.9762 32.2047 38.2 32.238 38.419C32.2904 38.7286 32 39.0619 32.2 39.2524C32.4571 39.5048 33.119 39.5238 33.4047 39.5238C33.4809 39.5238 33.7809 39.5143 33.8571 39.5143C33.9666 39.5143 34.0571 39.5143 34.1285 39.5333C34.6809 39.6429 35.2333 39.6905 35.7761 39.7333C36.5142 39.7905 37.2095 39.8476 37.9047 40.0571C39.2 40.4333 40.4761 40.9619 41.8 41.6762C41.8761 41.7143 41.9428 41.7476 42.0095 41.7857C42.5 42.0381 42.6047 42.0048 42.838 42.6809C43.0714 43.3571 42.6428 48.6476 42.5428 49.1952C42.4 50.0762 42.119 50.6095 41.6571 50.7809C41.0428 51.0048 40.7904 51.4857 40.5523 51.9476C40.4714 52.1 40.4857 52.2809 40.3857 52.4286C40.3857 52.4286 40.1857 52.6476 40.2571 52.7095C40.3238 52.7667 40.9428 52.6143 40.9428 52.6143C41.1571 52.6238 40.9238 52.7381 41.1428 52.7381C41.6619 52.7381 42.3 52.7381 42.9428 52.3667C43.2142 52.3667 43.0333 52.7095 43.2857 52.6667C44.0571 52.5238 44.1333 51.9333 44.2238 51.3667C44.3857 50.4095 44.3619 50.2476 44.4666 50.1571C44.5761 50.0762 44.9142 50.2143 45.0047 50.1095C45.0761 50.0333 45.0047 49.3381 45.0381 48.7095C45.0952 47.8095 45.3428 46.7667 45.6095 45.8952L45.6238 45.8524C45.6809 45.6571 45.7714 45.4286 45.8666 45.1809C46.119 44.519 46.419 43.719 46.3857 43.0714C46.6619 43.1238 46.7095 43.1381 46.8571 43.3571C46.8857 43.3905 46.9238 43.4619 46.9714 43.5381C47.2761 44.0333 47.4333 44.1714 47.6333 44.1714C47.6523 44.1714 47.6761 44.1714 47.6904 44.1619C48.0238 44.0762 48.1952 43.8048 48.3809 43.4381C48.5666 43.0809 48.7523 42.7048 49.0619 42.6381C49.0761 42.6381 49.0904 42.6381 49.1047 42.6381C49.3571 42.6381 49.7952 42.8619 50.0476 43.2476C50.6 44.1048 51.0714 43.5048 51.1142 43.4333C51.1809 43.3333 51.619 42.6048 51.7333 42.4333C51.8666 42.2286 51.9523 42.2048 51.9761 42.2048H51.9904C52.2571 42.2476 53.4333 43.6571 53.8476 43.5619C54.2523 43.519 54.7047 41.9714 54.9523 41.9714C54.9666 41.9714 54.9761 41.9714 54.9904 41.9714C55.0523 42.0238 55.1904 42.2333 55.2809 42.3714C55.6 42.8429 55.6619 43.1571 55.9095 43.1571C55.9904 43.1571 56.1285 43.0905 56.2142 42.8857C56.2333 42.8286 56.3333 42.5952 56.3428 42.5714C56.3523 42.5809 56.438 42.8667 56.6333 42.9143C56.5952 42.9333 56.5476 42.9524 56.5047 42.9809C56.5047 42.9809 56.1238 43.2429 56.1047 43.5524V43.5857C56.0904 43.6952 56.0761 43.8762 56.1952 44.0714C56.2381 44.1381 56.2904 44.219 56.338 44.2809C56.3285 44.2952 56.3238 44.3095 56.319 44.3238C56.2666 44.3571 56.2142 44.3905 56.1714 44.4286C56.1523 44.4286 56.119 44.4429 56.0952 44.4524C55.9904 44.4857 55.8904 44.5143 55.8047 44.5857C55.7476 44.6429 55.5857 44.7809 55.4571 45.0857L55.1619 44.7952C54.9809 44.4714 54.9142 44.4238 54.819 44.3809C54.7666 44.3619 54.5904 44.3048 54.5238 44.2905C54.5238 44.2905 54.5142 44.2905 54.4761 44.2714L54.4571 44.2571L54.4428 44.2476C54.3285 44.1952 54.2238 44.1714 54.1285 44.1714C53.9571 44.1714 53.8142 44.2571 53.7476 44.3952C53.7238 44.4333 53.7095 44.4809 53.7095 44.5286C53.6428 44.4857 53.5619 44.4524 53.4666 44.4524H53.419L53.3809 44.4619C53.2428 44.4905 53.1619 44.5571 53.1142 44.6238C53.1047 44.6238 53.0952 44.6333 53.0904 44.6333C52.9809 44.6905 52.9095 44.7905 52.8904 44.9143C52.8714 45.0571 52.9333 45.2 53.0571 45.3048C53.4333 45.6238 53.5047 45.6381 53.5619 45.6571C53.6047 45.6667 53.6523 45.6857 54.2381 45.7143C54.4571 46.1095 54.6809 46.5381 54.7476 46.619C54.7857 46.6762 55.1381 47.0714 55.4095 47.1333C55.4428 47.1333 55.4761 47.1429 55.5095 47.1429C55.619 47.1429 55.7428 47.1048 55.8666 47.0381C55.8809 47.1286 55.8666 47.2333 55.8571 47.2667C55.8571 47.2952 55.8428 47.3238 55.8381 47.3524C55.4142 47.4524 54.9571 47.6143 54.6619 47.7714C53.8619 48.2095 54.7809 49.6143 54.9904 50.0286C54.9619 50.0476 54.9333 50.0619 54.9047 50.0762C54.5619 49.8762 54.1047 49.9048 53.9285 50.0762L53.8952 50.0429C53.8 49.9714 53.519 49.8 53.3904 49.7238C53.1761 49.5 53.0857 49.4476 53.0476 49.4238C52.8714 49.319 52.5428 49.2 52.2619 49.1333C52.2047 48.5333 52.1571 48.3905 52.1285 48.3286C52.1285 48.3095 52.1952 47.7809 52.1809 47.4476C52.3619 47.4762 52.5952 47.5143 52.7857 47.5143C52.8952 47.5143 52.9809 47.5048 53.0523 47.4762C53.2381 47.4286 53.538 47.3238 53.6666 47.1286L53.6952 47.0809L53.7047 47.0286C53.719 46.9857 53.8 46.5952 53.5619 46.2238C53.4 45.9667 52.9523 45.4952 52.7 45.2571C52.7095 45.1143 52.719 44.9762 52.719 44.9762C52.7285 44.8619 52.6952 44.7429 52.5666 44.6048C52.5238 44.5667 52.2238 44.2238 52.138 44.1762C52.0571 44.1238 51.9238 44.0905 51.8142 44.0905C51.7761 44.0905 51.7381 44.0905 51.7047 44.1048C51.4047 44.1667 51.4333 44.6143 51.4428 44.6571C51.4095 44.6333 51.3666 44.6143 51.3238 44.5952C51.2238 44.4857 51.0761 44.419 50.9285 44.3905C50.8523 44.3333 50.7428 44.2809 50.6 44.2809H50.5666C50.3761 44.2905 50.3714 44.3095 50.2761 44.3857C50.1333 44.4143 50.0047 44.4952 49.9142 44.619C49.8285 44.6667 49.7285 44.7524 49.6476 44.8905C49.5619 44.9619 49.4666 45.0762 49.3904 45.2762L49.3619 45.3524C49.2952 45.5286 49.219 45.7238 49.2714 45.9286C49.2714 45.9286 49.2714 45.9381 49.2714 45.9476C49.1095 45.9905 48.8809 46.0857 48.7523 46.3381C48.6952 46.4476 48.6333 46.6 48.5809 46.7286C48.5095 46.7286 47.6809 46.8333 47.7 47.2238C47.7095 47.3476 47.7666 47.4714 47.8761 47.5524C47.8047 47.6857 47.7952 47.8238 47.8666 47.9333C47.9285 48.0381 48.0095 48.1143 48.1 48.1476C48.1333 48.2476 48.1809 48.3524 48.2476 48.4429C48.3285 48.5476 48.419 48.6238 48.4952 48.6762C48.338 48.7286 48.1761 48.8 48.0238 48.919C47.7904 49.0762 47.4523 49.4095 47.7476 49.9381C47.7952 50.0238 47.938 50.1809 48.6666 50.8952C48.638 50.9238 48.0666 51.9714 49.0047 52.0143C49.219 52.3714 49.9428 51.8571 49.9714 51.8429C50.0238 51.8524 50.9952 51.8571 50.7428 51.1048C50.8095 51.0952 51.1428 51 51.1619 51C51.2714 51.0476 51.5095 51.1429 51.6523 51.1571C51.7142 51.1667 51.8238 51.1667 51.9 51.1667C52 51.1667 52.2381 51.1667 52.3523 51.1429C52.3857 51.1429 52.419 51.1286 52.4619 51.119C52.5619 51.2857 52.7238 51.4857 52.9238 51.6048C53.1714 51.7429 53.7285 51.9905 53.919 52.0762C53.9571 52.1143 54.3476 52.4381 54.6095 52.4381C55.438 52.4381 55.1809 51.6857 55.1952 51.6429C55.2238 51.5667 55.2571 51.3809 55.2761 51.1714C55.3619 51.1714 55.438 51.1714 55.4857 51.1714H55.5095C55.6047 51.1714 55.719 51.1905 55.8095 51.2L55.8714 51.2095C55.8714 51.2095 55.8952 51.2095 55.9047 51.2095C55.9666 51.2238 56.0571 51.2429 56.1666 51.2429C56.2857 51.2429 56.4 51.219 56.5 51.1619C56.8381 50.9714 56.8 50.6286 56.7857 50.4762V50.4667C56.7714 50.4095 56.7619 50.2619 56.7523 50.119C56.7761 50.119 56.7952 50.119 56.8238 50.119C56.9666 50.1286 57.0904 50.1476 57.2285 50.1429C57.2809 50.1381 57.3142 50.1333 57.3381 50.1238C57.4095 50.5857 57.6142 51.3571 58.2333 51.3571C58.319 51.3571 58.8285 51.3381 58.9857 51.1905C59.0571 51.219 60.2571 51.1381 59.7809 50.0952C59.7809 50.0857 59.7714 50.0714 59.7571 50.0524C59.6619 49.8571 59.5666 49.6952 59.4619 49.5762V49.4762C59.4619 49.3286 59.4523 49.2524 59.4333 49.1857C59.4619 49.1048 59.4904 48.9952 59.4904 48.8952C59.4904 48.7381 59.3571 48.3048 59.1095 47.9857C59.0857 47.8524 59.0476 47.7095 59.0142 47.5809C59.1142 47.5571 59.2333 47.5 59.338 47.3762C59.3952 47.3048 59.5285 47.1286 59.5523 47.0905L59.5857 47.0524L59.6 47.0095C59.6142 46.9667 59.7523 46.6 59.6619 46.2C59.6 45.9143 59.4761 45.4905 59.4476 45.3857C59.419 45.219 59.3238 44.7809 59.0142 44.5857C59.0238 44.5619 59.0333 44.5286 59.0476 44.4857C59.0809 44.4429 59.1142 44.3905 59.1428 44.3238C59.238 44.4095 59.3 44.4667 59.3095 44.4762C60.2809 45.3429 61.4809 46.4143 61.7142 47.5809C61.8476 48.2476 61.8142 49.0238 61.6238 49.7619C61.5857 49.919 61.5428 50.0095 61.5095 50.0333C61.4666 50.0619 61.3619 50.0667 61.2285 50.0714C61.1666 50.0714 61.1 50.0714 61.0238 50.0714C60.6904 50.0952 60.4666 50.4429 60.2666 50.7571C60.1714 50.9048 60.0571 51.0238 59.9904 51.1238C59.9285 51.2333 60.0285 51.4143 60.0904 51.4524C60.1523 51.4857 60.7476 51.6286 60.9285 51.6286C60.9809 51.6286 61.0285 51.6286 61.0714 51.6143C61.2 51.6619 61.3571 51.6857 61.5285 51.6857C62.0476 51.6857 62.6952 51.4667 62.8857 51.1095C63.2 50.4952 63.4095 49.8286 63.619 49.1809C63.6381 49.1095 63.6619 49.0333 63.6857 48.9619C63.7333 48.819 63.7952 48.6571 63.8619 48.4952C64.0904 47.9048 64.4714 47.2714 64.3 46.6905C64.2095 46.3809 63.9 46.0809 63.7 45.819C63.5238 45.5809 62.8666 44.7238 62.6666 44.419C63.2857 45.0143 65 45.9048 65.4333 46.9333C65.5857 47.2952 65.4333 48.8143 65.4 49.2286C65.3857 49.419 65.3761 49.6143 65.3714 49.8095C65.3523 50.4333 65.1666 50.5476 64.5476 50.6095C64 50.6667 63.7523 51.4714 63.619 51.8952C63.6095 51.919 63.6047 51.9429 63.6 51.9667L63.5333 52.1667L63.7476 52.2048C63.8285 52.219 63.919 52.2333 64.0142 52.2524C64.4047 52.3286 65.0571 52.5714 65.5238 52.5714C66.0666 52.5714 66.4571 52.4381 66.6952 52.1762C67.0142 51.8333 67.1285 51.219 67.238 50.6809C67.2809 50.4762 67.5047 49.7476 67.5809 49.4905C68.0952 47.8333 68.6047 47.2 67.738 46.2524L67.7428 46.2714ZM63.538 47.2905C63.7047 46.619 64.1904 46.6714 64.0428 47.1952C63.9761 47.4286 62.7952 50.8571 62.7857 50.6333C62.7523 50.6714 62.7285 50.6429 62.7333 50.6095C62.8095 49.9667 63.4809 47.5238 63.538 47.2905ZM32.2809 36.2667C32.4523 36.119 32.8333 36.2667 32.738 36.6381C32.6095 36.7857 32.1 36.5429 32.2809 36.2667ZM32.6238 37.7762C32.7619 37.8667 32.9381 37.8619 32.9809 37.9476C33.0381 38.0381 32.9619 38.2524 32.8571 38.3095C32.6714 38.4286 32.6 38.0952 32.6 38.0952C32.5476 37.9667 32.5428 37.8238 32.619 37.7714L32.6238 37.7762ZM35.8428 38.5333C35.2666 38.4095 33.4428 39.1571 33.0428 39.0762C32.6523 38.9952 32.5714 38.9571 32.5714 38.8905C32.5714 38.8286 32.6571 38.7524 32.6904 38.719C32.7 38.719 32.7285 38.6809 32.7666 38.6429C32.7904 38.6714 32.8142 38.6619 32.8333 38.619C32.8571 38.5619 32.8952 38.5667 32.9142 38.619L32.9285 38.6667C32.9523 38.7238 32.9952 38.7286 33.0285 38.6762L33.0666 38.6C33.1 38.5524 33.1571 38.5524 33.1857 38.6L33.2142 38.6476C33.2476 38.7 33.3047 38.7095 33.3476 38.6571L33.419 38.5809C33.4571 38.5333 33.5142 38.5381 33.5428 38.5952L33.5523 38.619C33.5809 38.6714 33.6095 38.719 33.6285 38.7143C33.6476 38.7143 33.6619 38.6667 33.6666 38.6L33.7 38.2C33.7095 38.1381 33.7333 38.1333 33.7571 38.1905L33.8952 38.5048C33.9238 38.5619 33.9952 38.6 34.0523 38.5905C34.0523 38.5905 34.5952 38.4857 34.8666 38.2667C35.138 38.0476 35.4761 38.2809 35.619 38.1714C35.8095 38.0143 35.7142 37.8809 35.7095 37.8238C35.7095 37.8238 35.6952 37.7381 35.4619 37.7143C35.2285 37.6952 34.0857 37.6667 34.0857 37.6667C34.0238 37.6667 33.9666 37.7143 33.9523 37.7762L33.8952 38.1C33.8857 38.1571 33.8571 38.1667 33.8333 38.1L33.7 37.7952C33.6761 37.7381 33.7857 37.7048 33.5428 37.7095C33.3857 37.7762 33.1857 37.6095 32.9761 37.4C32.219 36.6333 33.1095 37.1095 33.0523 36.6333C33.0381 36.4952 33 36.4333 32.9809 36.4095C33.0809 36.4571 33.4619 36.6476 33.5904 36.8238C33.6952 36.919 34.1 36.6571 34.2428 36.7095C34.819 36.919 35.2761 36.9762 36.0523 37.4095C36.219 37.5 35.9952 38 36.0428 38.0048C36.1428 38.0381 36.4238 37.4333 36.2809 37.3286C34.6047 36.1 33.419 35.9905 33.419 35.9762C33.7619 35.6238 34.0571 35.0714 34.2571 34.5952C34.2904 34.5143 34.1809 34.4143 34.219 34.3429C34.319 34.1381 34.4333 33.9714 34.5857 33.8667C35.1142 33.5095 35.9666 33.8762 36.2666 34.1952C36.3857 34.3238 36.5285 34.5809 36.619 34.8667C36.3238 34.9238 36.1571 34.6 35.8476 34.3952C35.5238 34.1809 35.3095 34.0619 35.1 34.119C34.8142 34.2 34.5904 34.6 34.5904 34.6C34.819 34.3762 35.1095 34.319 35.1095 34.319C35.3428 34.319 35.5761 34.519 35.7619 34.7143C35.6761 34.6524 35.5809 34.6048 35.5 34.6C35.2142 34.5714 35.1809 34.9524 35.1809 34.9524L35.0333 35.1333C35.0333 35.1333 35.0571 35.1762 35.2761 35.1762C35.4476 35.1762 35.9476 35.1762 36.2142 35.1238C36.3904 35.1238 36.5571 35 36.6285 34.919C36.6666 35.0429 36.6952 35.1714 36.7095 35.2905C36.7285 35.4333 36.7476 35.5857 36.7523 35.7381C36.7666 35.9429 36.6857 36 36.5333 35.919C36.4285 35.8619 36.2666 35.7286 36.1 35.8238C35.9333 35.919 36.119 36.4238 36.3809 36.7286C36.5142 36.8905 36.6857 37.0809 36.8 37.2714C36.8 37.3286 36.8095 37.3667 36.8095 37.3857C36.7666 38.0952 36.5047 38.6429 35.8381 38.5048L35.8428 38.5333ZM35.6523 34.9095C35.6523 34.9952 35.5619 35.0667 35.4952 35.0667C35.4238 35.0667 35.3666 34.9952 35.3666 34.9095C35.3666 34.8238 35.4238 34.7524 35.4952 34.7524C35.5619 34.7524 35.6523 34.8238 35.6523 34.9095ZM39.4095 37.8905C39.4857 38.1905 39.6333 38.3381 39.7285 38.4476C39.7809 38.3571 39.8238 38.2429 39.8619 38.1238C39.7761 38.9476 40.2095 39.4143 40.4285 39.6381C39.8619 39.3952 39.5809 38.9857 39.4142 37.8905H39.4095ZM39.8761 38.0476C39.8904 38.019 39.8952 37.9857 39.9047 37.9524C39.9857 38.4095 40.2952 38.5667 40.3904 38.6381C40.4619 38.5524 40.5 38.3905 40.519 38.2286C40.5904 38.9524 40.8285 39.3857 40.8619 39.4524C40.7619 39.3762 39.9952 38.7524 39.8714 38.0476H39.8761ZM41.3095 39.0809C41.3095 39.0809 40.9047 39.0095 40.519 38.2143C40.5476 37.9619 40.5333 37.7143 40.5333 37.7143C40.5333 37.7143 40.4285 38.3381 40.2761 38.2714C40.1571 38.219 39.9904 38.0048 39.919 37.8905C39.9523 37.7571 39.9761 37.6286 39.9904 37.5381C40.0714 37.7429 40.2047 37.8333 40.2904 37.9048C40.419 37.7905 40.6476 37.2714 40.7047 37.1429C40.6381 37.2476 40.3809 37.619 40.2666 37.5429C40.1523 37.4762 40 37.2 39.9381 37.0809C40.0381 36.8952 40.119 36.7095 40.1476 36.6381C40.219 36.8667 40.2904 36.9524 40.4142 37.0571C40.4952 37 40.5619 36.9095 40.6142 36.8095C40.6333 36.9238 40.6666 37.0333 40.7095 37.1381C40.8761 37.5476 41.1761 37.8809 41.3857 38.1381C41.0238 38.1381 40.5666 37.5476 40.5666 37.5476C40.6761 38.419 41.3142 39.0857 41.3142 39.0857L41.3095 39.0809ZM40.6428 36.7476C40.7523 36.5286 40.8047 36.2857 40.8142 36.2286C40.7761 36.3143 40.5666 36.7952 40.4238 36.719C40.3142 36.6619 40.1714 36.4 40.0904 36.2381C40.1714 36.0381 40.2333 35.8143 40.2571 35.6952C40.3 35.7667 40.3428 35.8143 40.3857 35.8524C40.4285 35.819 40.4619 35.7667 40.4904 35.7048C40.5523 36.0429 40.6285 36.1571 40.7047 36.2238C40.7666 36.2095 40.819 36.1524 40.8571 36.0857C40.9666 36.6048 41.1809 37.0476 41.4238 37.3238C41.1047 37.2905 40.9095 37.0762 40.6476 36.7476H40.6428ZM41.8571 34.9762C41.7571 34.9048 41.6904 34.5762 41.6904 34.5762C41.6523 34.919 41.8238 35.1905 41.8571 35.2476C41.9285 35.2333 41.9809 35.1857 42.019 35.119C42.0571 35.3905 42.2571 35.8286 42.3809 35.9143C41.9714 35.8619 41.6095 35.6857 41.4571 35.5095C41.5095 35.3952 41.5285 35.2857 41.5285 35.2429C41.4857 35.3048 41.338 35.5286 41.2523 35.4667C41.1571 35.3952 41.0857 35.0667 41.0857 35.0667C41.0333 35.5143 41.1476 35.6571 41.2476 35.7714C41.2952 35.7381 41.3381 35.7 41.3666 35.6571C41.3571 35.9762 41.4952 36.4048 41.6809 36.5809C41.1428 36.4286 41.1333 36.3095 40.8952 36C40.9619 35.8476 40.9904 35.6762 40.9904 35.6762C40.9904 35.6762 40.9047 35.819 40.8142 35.8905C40.7666 35.919 40.7238 35.9333 40.6857 35.9095C40.6238 35.8667 40.5571 35.7476 40.5095 35.6429C40.5714 35.4857 40.6 35.3095 40.6 35.2667C40.5809 35.3048 40.5142 35.4286 40.4428 35.4857C40.4095 35.5143 40.3714 35.5286 40.3428 35.5095C40.2381 35.4429 40.1476 35.119 40.1476 35.119C40.1333 35.4 40.1761 35.5714 40.238 35.6857C40.1714 35.8286 40 36.1667 39.8952 36.1095C39.7761 36.0429 39.6428 35.7238 39.6095 35.6429C39.6952 36.2381 39.7619 36.4333 39.9095 36.5524C39.9619 36.5 40.0142 36.4143 40.0571 36.3143C40.0904 36.4429 40.1142 36.5476 40.1381 36.6333C40.0714 36.7381 39.7809 37.1476 39.6571 37.0714C39.519 36.9857 39.3904 36.5524 39.3904 36.5524C39.4047 36.7429 39.4238 36.8905 39.4476 37.0048C39.3952 37.1095 39.2476 37.3809 39.1666 37.3714C39.0619 37.3571 38.8428 36.9667 38.8428 36.9667C38.8904 37.3476 39.0761 37.5238 39.1666 37.6381C39.3285 37.5476 39.4238 37.1857 39.4523 37.0333C39.5 37.2476 39.5714 37.3476 39.6857 37.4286C39.7619 37.3667 39.8428 37.2524 39.9142 37.1238C39.9142 37.2762 39.938 37.3952 39.9761 37.4857C39.8904 37.6857 39.7142 38.0714 39.6238 38C39.4952 37.9 39.3571 37.4952 39.3571 37.4952C39.3571 37.6048 39.3714 37.7048 39.3904 37.7905C39.3761 37.9619 39.3238 38.3762 39.119 38.2905C38.9666 38.2333 38.7142 37.7667 38.7142 37.7667C38.8571 38.4857 38.9857 38.5809 39.219 38.7238C39.2857 38.6619 39.3333 38.5762 39.3619 38.4762C39.3523 38.7952 39.3904 39.1095 39.5619 39.3952C39 39.1524 38.7857 38.5762 38.6761 38.4C38.6571 38.5048 38.0666 39.2143 37.3142 39.1667C37.6952 38.8 37.7952 38.5571 37.7952 37.6095C37.3333 39.1809 36.4238 39.1333 36.3285 39.1238C36.3904 39.1238 37.1476 39.0905 37.2666 37.4C37.2952 36.9667 36.9381 37.0476 36.9285 36.5476C36.9285 36.4333 37.1666 36.5952 37.1476 36.3429C37.1142 35.8762 37.1285 35.4714 37.1285 35.4714C37.0381 33.6762 35.5047 33.5238 34.7571 33.4524C34.0523 33.3905 33.1476 33.9476 33.0476 34.019C33.138 33.9238 33.2333 33.8429 33.3381 33.7762V33.7667C33.4047 33.6857 33.4904 33.5476 33.5476 33.3952C33.638 33.1476 33.8857 32.5143 33.8857 32.2714C33.9095 32.3429 34.1523 33.0571 34.1476 33.2667C34.1476 33.3762 34.1285 33.4381 34.1095 33.4714C34.5142 33.3809 34.9714 33.3619 35.4333 33.3762H35.4523C35.7809 33.4143 37.5428 33.7238 37.8809 35.8857C38 35.4476 37.5238 34.0048 36.9142 33.6524C36.8619 33.619 36.719 33.5476 36.7047 33.3571C36.7476 33.3 36.7714 33.2048 36.7714 33.0619C36.7714 33.0619 36.7714 33.0619 36.7714 33.0524C36.7809 32.919 36.7714 32.7476 36.7428 32.5429C36.6857 32.0714 37.0857 31.7429 37.2809 31.6143C37.4809 31.4857 38.0857 32.0333 37.9809 32.4762C37.8238 32.0381 37.4571 32 37.4571 32C37.4571 32 37.3047 31.9476 37.4428 32.2429C37.5857 32.5429 37.4809 33.1571 37.3047 33.3286C37.1285 33.5 36.8619 33.3952 36.8857 33.5C36.9 33.5809 37.2476 33.8381 37.9095 33.1809C37.7809 33.5667 37.8142 34.0095 38.5238 34.1095C39.4238 34.2286 41.0809 34.1333 42.2619 33.9048C43.1857 33.6762 44.6523 33.8095 44.8904 33.9238C44.6476 33.9143 44.5809 33.9238 44.2 33.9809C43.8428 34.0381 43.5666 34.1857 43.3952 34.1238C43.338 34.1048 43.5381 34.319 43.7619 34.4619C43.6142 34.5143 42.9142 34.5238 42.8142 34.4619C42.7571 34.5857 42.8857 35.1 43.0619 35.2048C42.7238 35.2524 42.2952 35.1238 42.0619 35.019C42.1142 34.8857 42.1238 34.7429 42.1238 34.7429C42.1238 34.7429 41.9428 35.0524 41.8476 34.9809L41.8571 34.9762ZM47.8666 43.6143C47.8333 43.6476 47.7904 43.7524 47.7047 43.6429C47.619 43.5286 47.4761 42.3905 47.4761 42.3905C47.4761 42.3905 47.4523 42.2762 47.619 42.2571C47.8047 42.2429 48.0619 42.1905 48.1523 42.2571C48.2381 42.3238 48.3714 42.5571 48.3619 42.6952C48.3619 42.8381 47.8952 43.5762 47.8666 43.6143ZM48.6904 39.0667C48.5523 38.7429 48.319 37.8095 48.4571 37.4619C48.538 37.8048 48.7428 38.5286 48.8904 38.8524C49.1285 39.3429 49.419 39.9762 49.6142 40.2429C49.2571 40.119 48.819 39.3809 48.6857 39.0667H48.6904ZM50.9476 42.919C50.9476 42.919 50.7857 43.2571 50.7095 43.0333C50.6571 42.8809 50.3333 41.8048 50.3904 41.5714C50.4476 41.3381 51.2047 41.3857 51.2047 41.3857C51.5476 41.3857 51.6285 41.7809 51.6285 41.9048C51.6285 42.0048 51.0238 42.7667 50.9428 42.919H50.9476ZM54.1095 42.7571C54.1095 42.7571 53.8476 43.2952 53.7571 43.0619C53.6952 42.9143 53.2952 41.6857 53.3523 41.4524C53.4142 41.219 54.1714 41.2667 54.1714 41.2667C54.5095 41.2667 54.5047 41.6619 54.5047 41.7809C54.5047 41.8809 54.1952 42.6095 54.119 42.7571H54.1095ZM58.4857 44.6571L58.0761 44.519C58.0333 44.5048 57.9809 44.4095 57.9761 44.3286C57.9761 44.2905 58.1285 44.1286 58.2142 44.0143C58.2 44.1476 58.2333 44.3333 58.2857 44.3143C58.3571 44.2952 58.3428 44.0524 58.3619 44.0238C58.4 43.9762 58.4285 43.8286 58.4142 43.7476C58.4142 43.719 58.4 43.7 58.3857 43.6857C58.319 43.6476 58.3 43.619 58.3 43.6095C58.3 43.6095 58.3 43.5952 58.3142 43.5857C58.3142 43.5857 58.3381 43.5476 58.3523 43.519C58.3761 43.4619 58.3619 43.3905 58.3381 43.3381C58.319 43.2952 58.1952 43.1381 58.1238 43.1143C58.0666 43.1 58.0285 43.0619 58.0285 43.0286C58.0285 43.0143 58.0285 42.9857 58.0285 42.9667C58.038 42.9095 58.038 42.8571 58.019 42.8286C57.8476 42.5857 57.6095 42.5714 57.5333 42.5762C57.5333 42.5333 57.5809 42.4952 57.7476 42.4952C57.8238 42.4952 58.0809 42.519 58.1523 42.5286C58.319 42.5571 58.3238 42.7762 58.3238 42.7762C58.3238 42.7762 58.3952 42.8 58.4904 42.8238C58.5904 42.8476 58.5666 43.0619 58.5666 43.0619L58.7238 43.2286C58.7238 43.2286 58.8095 43.3095 58.8095 43.4333C58.919 43.5667 58.8714 43.8476 58.8714 43.8476C58.8714 43.9381 58.8714 44.0095 58.8523 44.0714C58.8142 44.2857 58.7285 44.3286 58.7285 44.3286C58.7285 44.3286 58.6857 44.5 58.6571 44.5286C58.6333 44.5619 58.5428 44.6333 58.4809 44.6524L58.4857 44.6571ZM58.3952 45.0429C58.4476 45.0857 58.5476 45.1143 58.5428 45.1857C58.5428 45.2095 58.5333 45.4095 58.4952 45.4571C58.3809 45.6 57.8571 45.7762 57.6904 45.7476C57.6761 45.7333 57.5714 45.6286 57.6142 45.5809C57.6523 45.5381 57.7523 45.6333 57.7809 45.6095C57.8095 45.5809 57.5714 45.3095 57.6476 45.2571C57.7333 45.2 57.838 45.4095 57.8857 45.3714C57.9333 45.3381 57.9142 45.3095 57.9 45.2809C57.9 45.2667 57.7952 45.0762 57.7952 45.0762C57.7857 45.0667 57.6761 44.8952 57.7476 44.8619C57.8238 44.8381 57.9 44.9619 57.9142 44.9809C57.9238 44.9809 58.0619 45.2381 58.1238 45.2048C58.1809 45.1762 58.0142 44.8048 58.0142 44.8048C58.0047 44.7714 57.938 44.6762 57.9714 44.6476C58.0047 44.619 58.0428 44.6286 58.138 44.7571C58.1476 44.7714 58.3952 45.219 58.438 45.219C58.438 45.219 58.438 45.119 58.4 45.0476L58.3952 45.0429ZM56.9571 42.3048C56.9571 42.3048 56.8333 42.5952 56.7142 42.419C56.5476 42.1714 56.0142 41.2905 56.0761 41.0571C56.1333 40.8238 56.8904 40.8714 56.8904 40.8714C57.2333 40.8714 57.3095 41.2714 57.3095 41.3905C57.3095 41.4905 57.0333 42.1524 56.9571 42.3048ZM51.3523 45.0048C51.3857 45.0571 51.419 45.119 51.3523 45.0905C51.2523 44.9381 50.8809 44.8238 50.8714 44.8095C50.8476 44.7857 50.9142 44.7238 51.1238 44.8809C51.2428 44.8952 51.319 44.9571 51.3571 45.0048H51.3523ZM51.1 44.8429C51.0571 44.7952 50.9571 44.7333 50.8285 44.7429C50.8285 44.7286 50.8285 44.719 50.8142 44.7048C50.8809 44.7143 51.0476 44.7476 51.1 44.8429ZM50.4333 44.6952V44.6857C50.4809 44.6428 50.5142 44.6095 50.5952 44.6048C50.6857 44.6048 50.7523 44.6571 50.7761 44.6857C50.7857 44.6857 50.7857 44.6952 50.7904 44.7C50.8047 44.7238 50.8095 44.7429 50.7904 44.7429C50.7571 44.7429 50.7333 44.6857 50.7285 44.6762C50.7047 44.6429 50.619 44.6905 50.6714 44.7286C50.6857 44.7429 50.7047 44.7476 50.7285 44.7619C50.7571 44.7809 50.7428 44.7857 50.7285 44.7809C50.6952 44.7714 50.6666 44.7667 50.6238 44.7667C50.5857 44.7667 50.5476 44.7667 50.5142 44.7857C50.4952 44.7952 50.4809 44.7857 50.5 44.7667C50.519 44.7571 50.5381 44.7476 50.5523 44.7429C50.6285 44.6952 50.5047 44.6048 50.4857 44.7286C50.4714 44.7476 50.4571 44.7667 50.4476 44.7667C50.4047 44.7667 50.4285 44.719 50.438 44.7L50.4333 44.6952ZM50.4238 44.6952C50.4238 44.6952 50.3904 44.7238 50.3857 44.7476C50.3761 44.7476 50.238 44.7571 50.1666 44.819C50.2714 44.6857 50.4 44.6905 50.4238 44.6952ZM50.1285 44.8762C50.2857 44.7619 50.3666 44.7667 50.3571 44.8143C50.3571 44.8286 50.1666 44.9333 50.0952 45.0048C50.0333 45.0524 49.9428 45.1571 49.9285 45.1619C49.9095 45.1619 49.9 45.1381 49.9142 45.0905C49.9142 45.0809 49.9142 45.0667 49.9333 45.0476C50.0238 44.9 50.1285 44.8762 50.1285 44.8762ZM48.4047 47.9905C48.5619 48.0905 48.5142 48.0857 48.6857 48.1429C48.8666 48.1952 48.8523 48.0429 49 48.0429C49.0714 48.0429 49.0857 47.9809 49.0904 47.9048L49.1047 47.8952C49.1047 47.8952 49.1714 47.8333 49.2095 47.7C49.2428 47.8762 49.3333 48.2143 49.2714 48.3095L49.2428 48.3381C49.1761 48.3952 49.0904 48.4571 49.0285 48.4857C48.9333 48.5238 48.8238 48.4857 48.8238 48.4857C48.8238 48.4857 48.6619 48.419 48.519 48.2381C48.4619 48.1667 48.4285 48.0714 48.4095 47.9809L48.4047 47.9905ZM50.4285 51.3048C50.4142 51.4286 50.1714 51.619 49.9571 51.5095C49.9 51.5095 49.4666 51.8571 49.2666 51.7857C49.1761 51.7667 49.1666 51.7095 49.1285 51.6952C49.0952 51.6857 48.9809 51.7143 48.9285 51.6524C48.8619 51.5667 48.8285 51.4619 48.8571 51.3571C48.8809 51.2667 49.0333 51.3238 49.0285 51.2952C49.019 51.2619 48.838 51.2809 48.9095 51.1095C48.938 51.0476 49.1142 51.1095 49.1142 51.1095H49.2333C49.2333 51.1095 49.2571 51.1095 49.2571 51.1C49.2571 51.1 49.3333 50.919 49.4571 50.8476C49.5904 50.7762 49.8047 50.6809 49.9 50.6762C49.5666 50.5905 49.2523 50.8048 49.1857 50.9429C48.9238 50.6905 48.0952 49.8809 48.038 49.7809C47.9666 49.6619 47.8428 49.4333 48.2142 49.1809C48.6238 48.8809 49.1 48.9 49.2666 48.8952C49.9523 49.3 50.3714 50.5905 50.4238 50.719C50.4142 50.719 50.4095 50.719 50.4095 50.719C50.3904 50.719 50.3476 50.7429 50.3047 50.7571C50.2619 50.6809 49.4 48.9143 48.6476 49.1476C49.1666 49.0905 50.1047 50.6476 50.2 50.7905L50.2095 50.8C50.2428 50.8333 50.3428 50.9524 50.3809 51.0286C50.4238 51.119 50.4428 51.1809 50.4238 51.3L50.4285 51.3048ZM54.8904 51.5524C54.8523 51.6667 54.8571 51.8809 54.8571 51.9143C54.8571 51.9571 54.8095 52.1238 54.6095 52.1238C54.4095 52.1238 54.1142 51.8095 54.1142 51.8095C54.1142 51.8095 53.3666 51.4809 53.0904 51.3286C52.8095 51.1667 52.6285 50.7429 52.6285 50.7429C52.6285 50.7429 52.4047 50.8095 52.2952 50.8333C52.1857 50.8524 51.7952 50.8571 51.6904 50.8428C51.6 50.8333 51.3619 50.7429 51.2904 50.7048V50.6905C51.2904 50.6905 51.2714 49.9905 51.8285 49.4571C51.7571 49.4714 51.2142 49.6476 51.0857 50.7381C51 50.7714 50.9095 50.8095 50.8714 50.8095C50.8285 50.8095 50.7333 50.7952 50.6476 50.7809C50.5476 50.4952 50.019 49.1143 49.3285 48.8C49.3809 48.6333 49.5333 48.3524 49.5333 48.3524V47.7809C49.519 47.6905 49.5047 47.2429 49.5047 47.1762C49.5476 47.2048 50.0666 47.0952 50.1809 46.8952C50.1809 46.8952 49.819 46.9619 49.7285 46.9429C49.5619 46.9143 49.519 46.8476 49.5095 46.7952C49.5095 46.7809 49.4476 46.3809 49.4 46.3809C49.2952 46.3952 49.3857 47.5714 49.4095 47.8667C49.3809 47.9476 49.3571 48.0333 49.3571 48.0333C49.3571 48.0333 49.3476 48.0667 49.338 48.1095C49.3142 47.9571 49.2333 47.5381 49.2333 47.5381V47.5095C49.2238 47.4381 49.2047 47.3714 49.1619 47.3143C49.0952 47.2238 48.9857 47.1714 48.9142 47.1714C48.9142 47.1714 49.2 47.3667 49.1666 47.5619C49.1285 47.7571 49.0952 47.7714 49.0952 47.7714L49.0523 47.7286V47.8429C49.0428 47.9 49.0285 47.9238 48.9857 47.919C48.8761 47.919 48.7952 48.0714 48.6761 48.0333C48.5666 48 48.5095 47.9095 48.438 47.8571C48.3714 47.8095 48.4714 47.7143 48.4714 47.7143C48.4714 47.7143 48.4714 47.6714 48.438 47.6524C48.4142 47.6333 48.3714 47.7286 48.3666 47.7524C48.3666 47.7524 48.3666 47.7619 48.3666 47.7667C48.3428 47.7905 48.2952 47.8333 48.2666 47.8381C48.2333 47.8524 48.1857 47.8381 48.1571 47.7857C48.1333 47.7381 48.2333 47.6381 48.2333 47.6381L48.2761 47.3905L48.3809 47.3667C48.3809 47.3667 48.4904 47.4048 48.5857 47.3905C48.6857 47.3714 48.8428 47.1905 48.8142 47.1809C48.7904 47.1667 48.7095 47.2905 48.5666 47.2905C48.5142 47.2905 48.4619 47.2809 48.4 47.2667H48.3904C48.3904 47.2667 48.3285 47.3 48.2904 47.3095C48.2761 47.3095 48.2666 47.3095 48.2571 47.3095C48.1904 47.319 48.0476 47.3286 48.038 47.2095C48.038 47.1524 48.1714 47.1381 48.2095 47.1095C48.2809 47.0571 48.5952 47.0429 48.6619 47.0524C48.7428 47.0524 48.8095 47.0952 48.8095 47.0952C48.8095 47.0952 48.9428 46.6952 49.0523 46.4762C49.1476 46.2857 49.3714 46.2476 49.4904 46.219C49.4904 46.219 49.5 46.219 49.5142 46.219C49.6 46.2048 49.8809 46.1524 50.0809 46.1524C50.119 46.1524 50.1523 46.1524 50.1761 46.1619C50.3809 46.2095 50.619 46.2905 50.6238 46.2571C50.6238 46.2238 50.3333 46.1143 50.2 46.0857C50.1761 46.0857 50.1381 46.0857 50.0904 46.0857C49.9666 46.0857 49.8047 46.1 49.7333 46.1095C49.7333 46.1095 49.6285 45.9762 49.5952 45.8476C49.5619 45.719 49.638 45.5524 49.7047 45.3809C49.7714 45.2143 49.838 45.1524 49.8761 45.1286C49.8571 45.1714 49.8761 45.2095 49.8857 45.2381C49.8381 45.3524 49.8476 45.5 49.9142 45.6143C49.9714 45.7143 50.3047 45.9952 50.3285 45.9762C50.3619 45.9571 49.9857 45.6238 49.9571 45.4809C49.8952 45.1381 50.3571 44.8381 50.5047 44.8238C50.5142 44.8238 50.5333 44.8667 50.619 44.8571C50.7238 44.8571 50.7333 44.8238 50.7381 44.8238C50.8571 44.8095 51.419 45.019 51.3619 45.4333C51.338 45.5667 51.2857 45.7238 51.3095 45.7429C51.3333 45.7571 51.3571 45.6857 51.4142 45.5714C51.4714 45.4524 51.4761 45.3048 51.4238 45.1905C51.4571 45.1571 51.4619 45.119 51.4428 45.0809C51.519 45.1286 51.6809 45.2952 51.7809 45.8333C51.7809 45.9143 51.6619 46.0238 51.6095 46.0667H51.2238C51.0952 46.0667 50.7 46.2333 50.7238 46.2619C50.7523 46.2905 51.0428 46.1667 51.238 46.1429C51.4047 46.119 51.6666 46.1571 51.7809 46.1762C51.8095 46.1762 51.8285 46.1857 51.8333 46.1857C51.9047 46.1952 52 46.219 52.0857 46.2429C52.2142 46.4524 52.5 46.7857 52.7047 46.9476C52.7952 47.0333 52.8666 47.0809 52.9 47.0571C52.838 46.9905 52.419 46.4952 52.2714 46.3143C52.2476 46.2095 51.8714 45.619 51.8714 45.619C51.8714 45.619 51.838 45.5952 51.7857 45.5381C51.7333 45.4857 51.6333 45.2 51.6142 45.1476C51.5952 45.0857 51.6142 45.0238 51.6476 44.9905C51.7238 44.9143 51.8095 45.1381 51.8619 45.2143C51.9238 45.2143 51.9857 45.0762 51.9857 45.0762C51.9857 45.0762 51.919 45.0619 51.8952 45.0286C51.8761 45 51.8761 44.8571 51.8857 44.8333C51.8952 44.8095 51.9523 44.7809 51.9523 44.7809L51.9095 44.6571C51.9095 44.6571 51.8285 44.5905 51.7952 44.5571C51.7666 44.5286 51.7523 44.419 51.7952 44.4048C51.8476 44.3905 51.9714 44.4286 52.0047 44.4571C52.0428 44.4905 52.3142 44.8 52.3523 44.8429C52.3952 44.8857 52.3952 44.9429 52.3952 44.9429C52.3952 44.9429 52.3809 45.2238 52.3571 45.3714C52.5142 45.5048 53.1142 46.1143 53.2857 46.3857C53.4571 46.6571 53.3904 46.9476 53.3904 46.9476C53.3047 47.0762 52.9523 47.1667 52.9523 47.1667C52.7761 47.2429 52.1571 47.1048 52.038 47.0905C52 46.5619 51.9428 46.3619 51.9095 46.3619C51.8857 46.3619 51.8333 46.7286 51.8333 46.7762C51.8333 46.7857 51.819 47.0286 51.5476 46.9857C51.3142 46.9476 51.2 46.9048 51.1761 46.8952C51.2761 47.0762 51.7095 47.1762 51.8238 47.3238C51.8333 47.3381 51.8476 47.3905 51.8523 47.4381C51.8523 47.4381 51.8523 47.4476 51.8523 47.4524C51.8523 47.7667 51.8 48.2571 51.8 48.319C51.938 48.5952 51.9523 49.1571 51.9571 49.3905C52.2761 49.3905 52.8571 49.6571 52.8952 49.6952C52.9619 49.7286 53.1857 49.9667 53.1857 49.9667C53.1857 49.9667 53.5952 50.2048 53.6952 50.2809C53.7476 50.3286 53.8904 50.4381 53.9952 50.5238C53.9952 50.5238 54.0619 50.8381 54.0571 50.9714C54.0571 50.9952 54.0476 51.0048 54.0381 51.0095C54.0381 51.0095 54.0285 51.019 54.0285 51.0238C53.9714 51.0809 54.0095 51.3 54.0095 51.3C54.0095 51.3 54.0714 51.1714 54.1333 51.1048L54.1523 51.0857C54.1809 51.0571 54.1857 51.0381 54.1761 50.9333V50.9095C54.1761 50.8714 54.1428 50.6857 54.1333 50.6286C54.1333 50.6286 54.1333 50.6286 54.1333 50.6143V50.6C54.1238 50.5476 54.1095 50.4381 54.1047 50.3905C54.1047 50.3571 54.1333 50.2905 54.2142 50.2524C54.2428 50.2429 54.3142 50.2619 54.338 50.3238C54.3571 50.3809 54.3285 50.2333 54.3904 50.2286C54.4095 50.2286 54.4952 50.2429 54.5666 50.2571C54.5666 50.2571 54.6095 50.2667 54.6238 50.2667C54.7761 50.2905 54.8666 50.3619 54.9238 50.4524C55 50.5762 55 50.7333 54.9952 50.8428C54.9952 50.8762 54.9952 50.9048 54.9952 50.9286C54.9952 50.9952 54.9809 51.0905 54.9666 51.1905C54.9476 51.3333 54.9285 51.4762 54.9047 51.5429L54.8904 51.5524ZM56.3238 50.8714C56.1761 50.9524 55.9952 50.8809 55.9095 50.8714C55.8285 50.8619 55.6571 50.8381 55.5285 50.8333C55.4857 50.8333 55.3952 50.8333 55.2904 50.8333C55.2904 50.6238 55.2476 50.4333 55.1666 50.3095C55.3095 50.2286 55.4238 50.1667 55.4238 50.1667C55.4238 50.1667 55.4857 50.1429 55.4047 50.0286C55.1428 49.6857 54.3857 48.3809 54.819 48.0429C54.9666 47.919 55.5904 47.7524 55.9333 47.6714C55.9523 47.719 56.3476 48.6905 56.8047 49.1952C56.7761 49.2143 56.6904 49.2048 56.5952 49.1857C56.5952 49.1857 55.7904 48.6 55.5523 48.3C55.5142 48.5048 56.3619 49.2952 56.3619 49.2952C56.3714 49.5048 56.3809 49.8429 56.3809 49.8429C56.3809 49.8429 56.419 50.3762 56.438 50.5095C56.4523 50.6524 56.4761 50.7905 56.3285 50.8667L56.3238 50.8714ZM59.4761 50.2714C59.5142 50.3333 59.7619 50.7429 59.3095 50.9048C59.1809 50.9524 59.0809 50.8714 59.0333 50.8238C59.0761 50.7238 59.138 50.4952 59.1619 50.4C59.1857 50.2952 59.1904 49.9524 59.1904 49.8048C59.3095 49.9286 59.4476 50.2238 59.4761 50.2714ZM59.1428 48.9048C59.1428 48.9857 59.0619 49.1524 59.0428 49.1952C59.0761 49.2762 59.1047 49.5571 59.1 49.7476C59.1 50 59.0571 50.6524 58.8952 50.8571C58.7666 50.919 58.538 51.0095 58.2523 51.0238C57.5428 51.0524 57.619 49.5524 57.619 49.3857C57.619 49.3571 57.619 49.3333 57.619 49.3143C57.619 49.3286 57.619 49.3381 57.619 49.3381C57.619 49.3381 57.8761 48.4571 58.0904 48.3667C58.3142 48.2714 58.6428 48.3143 58.6428 48.3143C58.6428 48.3143 58.3904 48.1333 58.0761 48.1809C57.7761 48.2238 57.5714 49.1381 57.5476 49.2524V49.2619C57.4857 49.4381 57.4666 49.4476 57.3428 49.4714C57.2571 49.4857 57.0809 49.3714 57 49.3143C56.4285 48.5333 56.219 47.8381 56.1619 47.619L56.1047 46.4809V46.3857L56.0714 45.8905C56.0714 45.8905 56.1381 45.919 56.1619 45.9C56.1857 45.8762 56.0523 45.7571 56.0428 45.6095C56.0428 45.5 56.1619 45.3619 56.1381 45.3476C56.119 45.3333 56.0714 45.3714 56.0714 45.3714C56.0809 45.2762 56.0904 45.1667 56.0952 45.1C56.1047 45 56.2333 44.8048 56.2333 44.8048C55.9476 44.9048 55.8952 45.2333 55.8952 45.2333L55.8761 45.4905C55.8761 45.4905 55.8476 45.5667 55.8476 45.619C55.8476 45.6809 55.8857 45.7476 55.8904 45.7476L55.9666 46.5524C55.7952 46.7333 55.5761 46.8095 55.4857 46.7857C55.3714 46.7619 55.0952 46.4952 55.0238 46.4095C54.9571 46.3143 54.4571 45.3714 54.4571 45.3714C54.4571 45.3714 53.7285 45.3429 53.6714 45.3238C53.6095 45.3048 53.3523 45.0381 53.3 44.9905C53.2476 44.9476 53.2 44.6952 53.4619 44.7857C53.5619 44.8238 53.7238 44.9238 53.7476 44.9286C54.3476 45.0238 54.3285 44.7714 54.2952 44.7524C54.2571 44.7286 54.1095 44.6571 54.0619 44.5952C54.0142 44.5286 54.0619 44.4619 54.2952 44.5476C54.3619 44.5762 54.6428 44.6714 54.6809 44.6857C54.8 44.7286 54.8857 44.9905 54.8857 44.9905L55.4523 45.5667C55.4523 45.7619 55.6333 46.5667 55.6666 46.5429C55.7 46.5238 55.5809 45.5333 55.5809 45.5333C55.6095 45.4857 55.6523 45.4333 55.7095 45.3809C55.819 45.019 55.9761 44.8857 56.038 44.8333C56.0761 44.8 56.1809 44.7762 56.2714 44.7476C56.338 44.7714 56.5333 44.819 56.8476 45.0238C56.8952 44.9429 56.5809 44.7571 56.3952 44.6809C56.4571 44.6238 56.6095 44.5476 56.6095 44.5476C56.6095 44.5476 56.6571 44.3714 56.6857 44.3048C56.719 44.2333 56.6857 44.1714 56.6857 44.1714C56.6857 44.1714 56.5619 44.0095 56.4904 43.8857C56.419 43.7619 56.4285 43.6476 56.4476 43.5571C56.4714 43.4143 56.638 43.2857 56.6952 43.2476C56.7523 43.2143 56.8523 43.1809 56.8523 43.1809C56.8523 43.1809 57.0666 42.9238 57.1857 42.819C57.2238 42.7809 57.2809 42.7571 57.3428 42.7333C57.3619 42.7333 57.3809 42.719 57.4 42.7143C57.4 42.7143 57.4142 42.7143 57.4238 42.7143C57.4238 42.7143 57.4428 42.7048 57.4571 42.7048C57.4666 42.7048 57.4761 42.7048 57.4904 42.7048C57.5809 42.7048 57.7238 42.7286 57.8666 42.8952C57.8809 42.9095 57.8761 42.9762 57.8666 43.0286C57.8666 43.0286 57.838 43.1333 57.9714 43.2C58.0619 43.2381 58.1095 43.3143 58.1428 43.3619C58.1523 43.3714 58.1571 43.3857 58.1666 43.3952C58.1809 43.4143 58.1904 43.4381 58.1809 43.4762C58.1809 43.4762 58.1809 43.4905 58.1809 43.5048C58.1809 43.5381 58.1619 43.5524 58.1476 43.5619C58.1381 43.5762 58.1238 43.5952 58.1285 43.6238C58.1381 43.6524 58.1523 43.7 58.1904 43.7286C58.1619 43.7571 58.1333 43.7667 58.1 43.7667C58.0476 43.7667 58.0047 43.7333 58.0047 43.7333C58.0047 43.7333 57.9952 43.8476 58.119 43.8476C58.1714 43.8476 58.219 43.819 58.2428 43.7952C58.2428 43.8238 58.2523 43.8571 58.2333 43.9048C58.0809 43.9048 57.8 44.219 57.7952 44.3095C57.7952 44.3762 57.8238 44.5238 57.8857 44.5857C57.8666 44.6095 57.8476 44.6429 57.8476 44.6809C57.2381 44.7238 57.0095 44.9429 56.9809 45.0524C57.0381 45.0333 57.4809 44.8571 57.6476 44.8286C57.5428 44.9286 57.6857 45.1143 57.7142 45.1476C57.6904 45.1381 57.6333 45.1095 57.5761 45.1476C57.4571 45.2381 57.5761 45.4286 57.6 45.4714C57.5523 45.4714 57.519 45.4857 57.5 45.5048C57.438 45.5762 57.5571 45.7238 57.6428 45.8143C57.6857 45.8571 57.5 45.8476 56.9761 45.4571C56.9904 45.8381 57.6238 46.0667 57.8238 46.0714C57.8238 46.0714 58.6047 47.5 58.6571 47.6048C58.7047 47.7857 58.7523 47.9857 58.7761 48.1524C59.019 48.4048 59.1476 48.8286 59.1476 48.9095L59.1428 48.9048ZM59.1 45.4762C59.1 45.4762 59.2428 45.9809 59.3142 46.2857C59.3857 46.5952 59.2619 46.9 59.2619 46.9C59.2619 46.9 59.1142 47.1048 59.0571 47.1667C59.0047 47.2333 58.9428 47.2714 58.8571 47.2571C58.7904 47.2476 58.6095 47.1857 58.5428 47.1619V47.1429L57.9238 45.9952L57.9 45.9524C57.9 45.9524 57.8666 45.9095 57.8142 45.8619C57.8 45.8476 57.8142 45.8286 57.8285 45.8333C58.0428 45.8571 58.4142 45.7524 58.5047 45.7238C58.5285 45.7524 59.1238 46.4524 59.1666 46.419C59.2142 46.3905 58.5666 45.5381 58.5619 45.5381C58.5619 45.5381 58.6238 45.1857 58.6095 45.1429C58.5809 45.0619 58.4047 44.9333 58.3381 44.9333H58.3238C58.3238 44.9333 58.3 44.8905 58.2952 44.8857L58.2857 44.8667C58.2381 44.7905 58.2047 44.7286 58.1761 44.6905C58.3 44.7286 58.419 44.7667 58.4238 44.7714H58.4904C58.4904 44.7714 58.538 44.7714 58.7857 44.8809C59.0285 44.9905 59.1 45.4762 59.1 45.4762ZM60.8666 51.0429C60.8 51.1333 60.6666 50.9857 60.6571 50.8952C60.6476 50.8048 60.7809 50.5762 60.8571 50.5C60.9238 50.4238 61.0761 50.4238 61.0761 50.4238C61.2476 50.4143 60.9333 50.9524 60.8666 51.0429ZM61.3761 51.1762C61.2095 51.2429 61.1142 51.1286 61.1142 51.1286C61.1142 51.1286 61.1476 50.7476 61.2238 50.6476C61.2761 50.5762 61.3761 50.6048 61.3761 50.6048C61.3761 50.6048 61.6714 50.6905 61.7714 50.7714C61.8857 50.8571 61.538 51.1095 61.3761 51.1762ZM64.9714 51.2762C64.9047 51.3095 64.8761 51.4524 64.8714 51.4905C64.8285 51.7333 64.8714 52.0905 64.8333 52.1333C64.7904 52.2048 64.5761 52.1333 64.5476 52.0762C64.5238 52.0286 64.5476 51.5286 64.5476 51.4857C64.5476 51.3762 64.6857 51.2857 64.8428 51.219C64.9142 51.1952 65.1238 51.1714 65.1857 51.0571C65.238 51.1619 64.9952 51.2667 64.9666 51.2762H64.9714ZM67.719 47.1524C67.5142 47.9143 66.8476 49.9952 66.5476 51.1667C66.2428 52.3286 65.7666 52.1619 65.4523 52.1619C65.138 52.1619 65.0952 51.9095 65.2142 51.5667C65.3238 51.2571 65.5142 51.4333 65.6904 51.3667C65.8761 51.3 65.8904 51.2571 65.9142 50.9619C65.9333 50.7 66.0714 48.4429 65.9428 47.2619C65.9285 47.1476 66.8714 47.7762 66.8619 47.6809C66.8142 47.1857 66.1285 46.7333 66.0904 46.6952C65.3666 45.9476 61.3857 43.2143 60.1333 40.8714C59.9904 40.6048 57.7904 37.2286 57.6 36.8619C57.0333 35.7952 57.3047 35.0095 57.6571 34.5238C56.8095 35.1333 56.4095 35.9143 56.7904 36.7C57.419 37.9905 58.3761 39.6524 58.6523 39.9143C58.3047 39.7333 57.7047 38.8667 55.4333 39.3809C54.4142 39.6095 54.0619 40.2333 52.6857 40.2048C52.1619 40.1952 51.4666 38.5143 51.1714 37.7524C51.1714 38.6762 51.8476 40.1428 52.0142 40.4C51.2047 40.5048 50.2285 38.1714 49.9047 36.5667C49.8238 37.5571 50.4857 39.9571 51 40.4238C49.8666 40.3238 49.3095 38.619 49.1095 37.4095C48.9476 36.7857 48.4761 36.7 47.938 36.5286C47.519 36.419 47.1857 36.2762 47.1857 36.2952C47.1857 36.3667 47.2238 36.4714 47.2333 36.5619C47.7952 39.0667 44.9095 43.9048 44.9666 44.0381C44.9857 44.0857 45.8523 42.9333 45.8809 42.9809C46.1238 43.4048 45.5809 44.819 45.0761 46.4619C44.5619 48.1238 44.8476 49.3238 44.6714 49.6809C44.5809 49.6476 44.2571 49.5714 44.2095 49.7C44.0095 50.4619 43.6857 51.9286 43.6142 52.019C43.5619 52.0809 43.4904 52.1286 43.4 52.1C43.4285 51.9048 43.0238 52.0048 42.7761 52.0667C42.7333 52.0809 43.0333 51.319 42.9952 51.319C42.7571 51.319 42.4714 52.2667 42.1238 52.2762C41.8238 52.3048 41.5428 52.3476 41.5285 52.3381C41.5285 52.3095 42.1047 51.2619 42.1476 51.1857C42.419 50.7095 42.6428 51.2857 42.8857 50.1381C43.0857 49.1762 43.4333 44.6429 43.3476 42.6333C43.338 42.4333 43.9333 44.1667 43.938 43.8333C43.9571 43.0333 43.4285 42.0095 43.1619 41.4571C42.719 40.5238 42.5952 39.9 42.8476 37.9429C43.1333 35.7619 44.5619 34.7286 45.5047 34.3095C45.7523 34.2429 46.7809 34.0857 47.0523 35.9095C47.1761 35.219 47.0428 34.4048 46.6238 34.0714C46.9047 34.0714 47.3571 34.0809 47.8523 34.0905C48.6714 34.1048 49.5952 34.1238 50.038 34.1476C50.1047 34.1381 50.1809 34.1333 50.2285 34.1381C50.819 34.1143 51.9285 34.1667 52.9761 34.1667C54.2904 34.1667 56.2666 33.9381 56.5047 33.9238C56.8333 33.9238 57.938 33.9048 58.4 33.9476C58.7761 33.9381 59.9381 33.9905 61.8857 34.8048C65.2571 36.1524 64.6571 42.519 64.6571 42.519C64.6571 42.519 64.2571 38.3476 63.3095 36.7571C62.7904 35.8762 61.3523 34.7476 61.2285 34.9476C63.4523 36.5143 63.7809 39.3809 63.9047 39.7809C64.0952 40.4 64.5333 43.1238 64.5333 43.1238C64.5333 43.1238 66.0714 44.9238 66.4047 45.3429C66.6571 45.6476 67.2904 46.2952 67.5381 46.6619C67.6238 46.7809 67.7714 46.9857 67.7238 47.1667L67.719 47.1524Z" fill="#1D1C1A"/>
<path d="M57.0144 43.4524C57.0144 43.4238 56.9525 43.2952 56.8715 43.3C56.7906 43.3048 56.662 43.4381 56.6906 43.4476C56.7192 43.4476 56.7239 43.3905 56.8001 43.3857C56.8858 43.3857 56.9192 43.4619 56.9573 43.4714C56.9953 43.4714 57.0144 43.4809 57.0144 43.4524Z" fill="#1D1C1A"/>
<path d="M57.4383 43.119C57.5097 43.1333 57.5859 43.2 57.5859 43.2C57.5859 43.2 57.5621 43.1143 57.4764 43.081C57.3573 43.0381 57.3335 43.119 57.3335 43.119C57.3335 43.119 57.3621 43.1048 57.4335 43.119H57.4383Z" fill="#1D1C1A"/>
<path d="M34.5333 58.1952C34.5333 56.7286 34.5333 56.4571 34.5143 56.1476C34.4952 55.819 34.419 55.6667 34.1 55.5952C34.0238 55.5762 33.8571 55.5667 33.7238 55.5667C33.619 55.5667 33.5571 55.5476 33.5571 55.481C33.5571 55.4143 33.6238 55.3952 33.7714 55.3952C34.2857 55.3952 34.8905 55.4238 35.0952 55.4238C35.4238 55.4238 36.1571 55.3952 36.4571 55.3952C37.0667 55.3952 37.7143 55.4524 38.2333 55.8095C38.5047 55.9952 38.8905 56.4857 38.8905 57.1333C38.8905 57.8476 38.5905 58.5048 37.6143 59.2952C38.4714 60.3762 39.1381 61.2381 39.7095 61.8333C40.2524 62.3952 40.6476 62.4619 40.7905 62.4905C40.8952 62.5095 40.9809 62.519 41.0619 62.519C41.1428 62.519 41.1762 62.5476 41.1762 62.5952C41.1762 62.6714 41.1095 62.6905 40.9952 62.6905H40.0762C39.5381 62.6905 39.2952 62.6429 39.0428 62.5048C38.6286 62.2809 38.2619 61.8286 37.719 61.0857C37.3333 60.5571 36.8905 59.9 36.7619 59.7524C36.7143 59.6952 36.6571 59.6857 36.5857 59.6857L35.7476 59.6667C35.7 59.6667 35.6714 59.6857 35.6714 59.7429V59.8762C35.6714 60.7762 35.6714 61.5381 35.719 61.9429C35.7476 62.2238 35.8047 62.4333 36.0952 62.4762C36.2381 62.4952 36.4524 62.5143 36.5667 62.5143C36.6428 62.5143 36.6809 62.5429 36.6809 62.5905C36.6809 62.6571 36.6143 62.6857 36.4905 62.6857C35.9286 62.6857 35.2143 62.6571 35.0714 62.6571C34.8857 62.6571 34.2809 62.6857 33.8952 62.6857C33.7714 62.6857 33.7047 62.6571 33.7047 62.5905C33.7047 62.5429 33.7428 62.5143 33.8619 62.5143C34.0047 62.5143 34.1238 62.4952 34.2095 62.4762C34.4 62.4381 34.4524 62.2238 34.4905 61.9429C34.5381 61.5381 34.5381 60.7762 34.5381 59.8857V58.1857L34.5333 58.1952ZM35.6714 58.9571C35.6714 59.0619 35.6905 59.1 35.7571 59.1286C35.9619 59.1952 36.2476 59.2238 36.4905 59.2238C36.8762 59.2238 37 59.1857 37.1762 59.0619C37.4667 58.8476 37.7476 58.4048 37.7476 57.6143C37.7476 56.2429 36.8381 55.8476 36.2714 55.8476C36.0286 55.8476 35.8571 55.8571 35.7619 55.8857C35.6952 55.9048 35.6762 55.9429 35.6762 56.019V58.9524L35.6714 58.9571ZM40.7667 59.0429C40.7667 57.3905 41.8571 55.2571 44.7524 55.2571C47.1571 55.2571 48.6524 56.6571 48.6524 58.8667C48.6524 61.0762 47.1095 62.8238 44.6571 62.8238C41.8857 62.8238 40.7667 60.7476 40.7667 59.0381V59.0429ZM47.3047 59.2238C47.3047 57.0619 46.0571 55.719 44.4762 55.719C43.3667 55.719 42.1 56.3381 42.1 58.7429C42.1 60.7524 43.2095 62.3429 45.0619 62.3429C45.7381 62.3429 47.3 62.0143 47.3 59.2238H47.3047ZM50.1619 55.5048C50.1905 55.3429 50.2476 55.2524 50.3238 55.2524C50.4 55.2524 50.4571 55.3 50.5857 55.5524L53.2238 60.919L55.8476 55.4857C55.9238 55.3333 55.9714 55.2524 56.0619 55.2524C56.1524 55.2524 56.2047 55.3476 56.2381 55.5524L57.1143 61.4619C57.2 62.0714 57.3 62.3476 57.5857 62.4381C57.8667 62.5238 58.0619 62.5333 58.1857 62.5333C58.2714 62.5333 58.3428 62.5429 58.3428 62.6C58.3428 62.6762 58.2286 62.7048 58.0905 62.7048C57.8476 62.7048 56.519 62.6857 56.1333 62.6571C55.9095 62.6381 55.8524 62.6095 55.8524 62.5524C55.8524 62.5048 55.8905 62.4762 55.9571 62.4476C56.0143 62.4286 56.0428 62.3048 56.0047 62.0333L55.4238 57.8333H55.3857L53.2809 62.1381C53.0571 62.5905 53.0095 62.681 52.9238 62.681C52.8381 62.681 52.7381 62.4857 52.5857 62.2C52.3524 61.7571 51.5905 60.281 51.4762 60.0095C51.3905 59.8048 50.8095 58.6667 50.4714 57.9429H50.4333L49.9333 61.7095C49.9143 61.881 49.9048 62.0095 49.9048 62.1619C49.9048 62.3429 50.0286 62.4333 50.1952 62.4714C50.3714 62.5095 50.5047 62.519 50.6 62.519C50.6762 62.519 50.7428 62.5381 50.7428 62.5857C50.7428 62.6714 50.6571 62.6905 50.5095 62.6905C50.1047 62.6905 49.6714 62.6619 49.4952 62.6619C49.3095 62.6619 48.8476 62.6905 48.5381 62.6905C48.4428 62.6905 48.3667 62.6714 48.3667 62.5857C48.3667 62.5381 48.4238 62.519 48.519 62.519C48.5952 62.519 48.6619 62.519 48.8095 62.4905C49.0809 62.4333 49.1571 62.0571 49.2047 61.7286L50.1619 55.5095V55.5048ZM60.7428 60.2238C60.6952 60.2238 60.6762 60.2429 60.6571 60.3L60.1333 61.6238C60.0381 61.8667 59.9857 62.0952 59.9857 62.2143C59.9857 62.3857 60.0714 62.5143 60.3714 62.5143H60.5143C60.6286 62.5143 60.6571 62.5333 60.6571 62.5905C60.6571 62.6667 60.6 62.6857 60.4952 62.6857C60.1857 62.6857 59.7714 62.6571 59.4714 62.6571C59.3667 62.6571 58.8333 62.6857 58.3333 62.6857C58.2095 62.6857 58.1524 62.6667 58.1524 62.5905C58.1524 62.5333 58.1905 62.5143 58.2667 62.5143C58.3524 62.5143 58.4905 62.5048 58.5667 62.4952C59.0095 62.4381 59.1952 62.1095 59.3857 61.6286L61.8095 55.6429C61.9238 55.3619 61.9809 55.2571 62.0809 55.2571C62.1667 55.2571 62.2238 55.3429 62.319 55.5667C62.5524 56.1 64.0952 59.9571 64.7143 61.4238C65.0809 62.2905 65.3619 62.4286 65.5619 62.4762C65.7047 62.5048 65.8524 62.5143 65.9667 62.5143C66.0428 62.5143 66.0952 62.5238 66.0952 62.5905C66.0952 62.6667 66.0095 62.6857 65.6524 62.6857C65.2952 62.6857 64.6 62.6857 63.8286 62.6667C63.6524 62.6571 63.5381 62.6571 63.5381 62.5905C63.5381 62.5333 63.5762 62.5143 63.6762 62.5048C63.7428 62.4857 63.8095 62.4 63.7619 62.2809L62.9905 60.2905C62.9714 60.2429 62.9428 60.2238 62.8952 60.2238H60.7428ZM62.7143 59.7429C62.7619 59.7429 62.7714 59.7143 62.7619 59.6857L61.8952 57.3095C61.8857 57.2714 61.8762 57.2238 61.8476 57.2238C61.819 57.2238 61.8 57.2714 61.7905 57.3095L60.9 59.6762C60.8905 59.7143 60.9 59.7429 60.9381 59.7429H62.7143Z" fill="#1D1C1A"/>
<path d="M34.7858 57.9809C34.7858 56.5143 34.7858 56.2428 34.7667 55.9333C34.7477 55.6048 34.6715 55.4524 34.3524 55.3809C34.2762 55.3619 34.1096 55.3524 33.9762 55.3524C33.8715 55.3524 33.8096 55.3333 33.8096 55.2667C33.8096 55.2 33.8762 55.1809 34.0239 55.1809C34.5334 55.1809 35.1429 55.2095 35.3477 55.2095C35.6762 55.2095 36.4096 55.1809 36.7096 55.1809C37.3191 55.1809 37.9667 55.2381 38.4858 55.5952C38.7572 55.7762 39.1429 56.2714 39.1429 56.919C39.1429 57.6333 38.8429 58.2905 37.8715 59.0809C38.7286 60.1619 39.3953 61.0238 39.9667 61.619C40.5096 62.1809 40.9048 62.2476 41.0477 62.2762C41.1524 62.2952 41.2429 62.3048 41.3191 62.3048C41.3953 62.3048 41.4334 62.3333 41.4334 62.3809C41.4334 62.4571 41.3667 62.4762 41.2524 62.4762H40.3334C39.7953 62.4762 39.5524 62.4286 39.3 62.2952C38.8858 62.0714 38.5191 61.619 37.9762 60.8762C37.5905 60.3476 37.1477 59.6905 37.0191 59.5428C36.9715 59.4857 36.9143 59.4762 36.8429 59.4762L36.0048 59.4571C35.9572 59.4571 35.9286 59.4762 35.9286 59.5333V59.6667C35.9286 60.5619 35.9286 61.3286 35.9762 61.7333C36.0048 62.0143 36.0619 62.2238 36.3524 62.2667C36.4953 62.2857 36.7096 62.3048 36.8239 62.3048C36.9 62.3048 36.9381 62.3333 36.9381 62.3809C36.9381 62.4476 36.8715 62.4762 36.7477 62.4762C36.1858 62.4762 35.4715 62.4476 35.3286 62.4476C35.1477 62.4476 34.5381 62.4762 34.1524 62.4762C34.0286 62.4762 33.9572 62.4476 33.9572 62.3809C33.9572 62.3333 33.9953 62.3048 34.1143 62.3048C34.2572 62.3048 34.3762 62.2857 34.462 62.2667C34.6572 62.2286 34.7048 62.0143 34.7429 61.7333C34.7905 61.3286 34.7905 60.5667 34.7905 59.6762V57.9762L34.7858 57.9809ZM35.9239 58.7428C35.9239 58.8476 35.9429 58.8857 36.0096 58.9143C36.2143 58.9809 36.5 59.0095 36.7429 59.0095C37.1286 59.0095 37.2524 58.9714 37.4286 58.8476C37.7191 58.6333 38 58.1905 38 57.4C38 56.0286 37.0905 55.6333 36.5239 55.6333C36.281 55.6333 36.1096 55.6429 36.0143 55.6714C35.9477 55.6905 35.9286 55.7286 35.9286 55.8095V58.7428H35.9239ZM41.0191 58.8286C41.0191 57.1762 42.1096 55.0428 45.0048 55.0428C47.4096 55.0428 48.9048 56.4428 48.9048 58.6524C48.9048 60.8619 47.362 62.6095 44.9096 62.6095C42.1381 62.6095 41.0191 60.5333 41.0191 58.8238V58.8286ZM47.5524 59.0143C47.5524 56.8524 46.3048 55.5095 44.7239 55.5095C43.6143 55.5095 42.3477 56.1286 42.3477 58.5286C42.3477 60.5381 43.4572 62.1286 45.3096 62.1286C45.9858 62.1286 47.5477 61.8 47.5477 59.0095L47.5524 59.0143ZM50.4096 55.2952C50.4381 55.1333 50.4953 55.0428 50.5762 55.0428C50.6572 55.0428 50.7096 55.0905 50.8381 55.3428L53.4715 60.7095L56.0953 55.2762C56.1715 55.1238 56.2191 55.0428 56.3096 55.0428C56.4 55.0428 56.4524 55.1381 56.4858 55.3428L57.362 61.2524C57.4477 61.8619 57.5477 62.1428 57.8334 62.2286C58.1143 62.3143 58.3048 62.3238 58.4334 62.3238C58.5191 62.3238 58.5905 62.3333 58.5905 62.3905C58.5905 62.4667 58.4762 62.4952 58.3381 62.4952C58.0953 62.4952 56.762 62.4762 56.381 62.4476C56.1572 62.4286 56.1 62.4 56.1 62.3428C56.1 62.2952 56.1381 62.2667 56.2048 62.2381C56.262 62.219 56.2905 62.0905 56.2524 61.8238L55.6715 57.6238H55.6334L53.5286 61.9286C53.3048 62.3809 53.2572 62.4714 53.1715 62.4714C53.0858 62.4714 52.9858 62.2762 52.8334 61.9905C52.6 61.5476 51.8381 60.0714 51.7239 59.8C51.6381 59.5952 51.0572 58.4571 50.7191 57.7333H50.681L50.1762 61.5C50.1572 61.6714 50.1477 61.8 50.1477 61.9524C50.1477 62.1381 50.2715 62.2238 50.4381 62.2619C50.6096 62.3 50.7477 62.3095 50.8429 62.3095C50.9191 62.3095 50.9858 62.3286 50.9858 62.3762C50.9858 62.4619 50.9 62.4809 50.7524 62.4809C50.3477 62.4809 49.9096 62.4524 49.7381 62.4524C49.5524 62.4524 49.0905 62.4809 48.781 62.4809C48.6858 62.4809 48.6096 62.4619 48.6096 62.3762C48.6096 62.3286 48.6667 62.3095 48.762 62.3095C48.8381 62.3095 48.9048 62.3095 49.0524 62.2809C49.3239 62.2238 49.4 61.8476 49.4477 61.519L50.4048 55.3048L50.4096 55.2952ZM60.9905 60.0143C60.9429 60.0143 60.9239 60.0333 60.9048 60.0905L60.3858 61.4143C60.2905 61.6571 60.2429 61.8857 60.2429 62.0048C60.2429 62.1762 60.3286 62.3048 60.6286 62.3048H60.7715C60.8858 62.3048 60.9143 62.3238 60.9143 62.3809C60.9143 62.4571 60.8572 62.4762 60.7524 62.4762C60.4429 62.4762 60.0286 62.4476 59.7286 62.4476C59.6239 62.4476 59.0905 62.4762 58.5905 62.4762C58.4667 62.4762 58.4048 62.4571 58.4048 62.3809C58.4048 62.3238 58.4429 62.3048 58.5191 62.3048C58.6048 62.3048 58.7429 62.2952 58.8191 62.2857C59.262 62.2286 59.4477 61.9 59.6381 61.419L62.062 55.4333C62.1762 55.1524 62.2381 55.0476 62.3334 55.0476C62.4191 55.0476 62.4762 55.1333 62.5762 55.3571C62.8096 55.8905 64.3524 59.7476 64.9715 61.2143C65.3381 62.0857 65.6191 62.219 65.8191 62.2667C65.962 62.2952 66.1096 62.3048 66.2239 62.3048C66.3001 62.3048 66.3477 62.3143 66.3477 62.3809C66.3477 62.4571 66.262 62.4762 65.9048 62.4762C65.5477 62.4762 64.8524 62.4762 64.081 62.4571C63.9048 62.4476 63.7905 62.4476 63.7905 62.3809C63.7905 62.3238 63.8286 62.3048 63.9239 62.2952C63.9905 62.2762 64.0572 62.1905 64.0096 62.0714L63.2381 60.0809C63.2191 60.0333 63.1905 60.0143 63.1429 60.0143H60.9905ZM62.9572 59.5333C63.0048 59.5333 63.0143 59.5048 63.0048 59.4762L62.1381 57.1C62.1286 57.0619 62.1191 57.0143 62.0905 57.0143C62.062 57.0143 62.0429 57.0619 62.0334 57.1L61.1429 59.4667C61.1334 59.5048 61.1429 59.5333 61.181 59.5333H62.9572Z" fill="#F6B817"/>
<path d="M47.9048 67.0714C48.7572 67.0714 49.2286 67.7048 49.2286 68.5143C49.2286 70 47.9429 70.9286 47.2953 71.2381C47.2715 71.2524 47.2429 71.2619 47.2001 71.2619C47.181 71.2619 47.1524 71.2333 47.1524 71.2095C47.1524 71.1714 47.1905 71.1429 47.2144 71.119C47.762 70.7857 48.5763 69.919 48.5763 68.6667C48.5763 67.7286 48.1858 67.3143 47.781 67.3143C47.4048 67.3143 47.1524 67.6524 47.1524 68.1048C47.1524 68.9143 47.6715 69.1048 47.8477 69.1048C48.0239 69.1048 48.1382 69.0714 48.2048 69.0429C48.262 69.0095 48.2905 68.9857 48.3096 68.9857C48.3286 68.9857 48.3524 69.0095 48.3524 69.0333C48.3524 69.0476 48.3382 69.0809 48.3239 69.0905C48.1715 69.2571 47.9001 69.3333 47.6334 69.3333C46.881 69.3333 46.562 68.7571 46.562 68.3095C46.562 67.5952 47.0953 67.0762 47.9048 67.0762V67.0714ZM43.7382 68.0286C43.7382 68.0619 43.762 68.0857 43.781 68.0857C43.8001 68.0857 43.8286 68.0762 43.8524 68.0667C43.9667 68.019 44.362 67.8143 44.462 67.8143C44.5382 67.8143 44.5382 67.8762 44.5382 68.0048V69.5428C44.5477 70.0524 44.5382 70.5 44.5191 70.7333C44.5048 70.9048 44.4763 70.9762 44.3096 71.0143C44.2144 71.0381 43.9477 71.0524 43.8905 71.0524C43.8715 71.0524 43.8477 71.0667 43.8477 71.1048C43.8477 71.1429 43.881 71.1524 43.9382 71.1524C44.2715 71.1524 44.7144 71.1381 44.8334 71.1381C44.9763 71.1381 45.3096 71.1524 45.7096 71.1524C45.7667 71.1524 45.7905 71.1429 45.7905 71.1048C45.7905 71.0667 45.762 71.0524 45.7429 71.0524C45.7001 71.0524 45.4763 71.0381 45.3953 71.019C45.2286 70.9809 45.2001 70.9048 45.1858 70.7333C45.1667 70.5 45.1667 70.0524 45.1667 69.5428V68.5619C45.1667 67.7524 45.2001 67.2286 45.2001 67.1857C45.2001 67.1333 45.1858 67.0762 45.1382 67.0762C45.0953 67.0762 45.0477 67.1143 45.0001 67.1476C44.8144 67.2857 43.8096 67.9524 43.7858 67.9619C43.7572 67.9762 43.7334 68.0048 43.7334 68.0381L43.7382 68.0286ZM49.6953 71.0571C49.6953 71.1 49.7334 71.1333 49.7667 71.1333H51.8239C52.1572 71.1333 52.2382 71.119 52.281 70.9762C52.3334 70.7952 52.4334 70.3048 52.4334 70.219C52.4334 70.1667 52.4334 70.119 52.3905 70.119C52.3572 70.119 52.3429 70.1381 52.3286 70.2048C52.2667 70.4524 52.0905 70.6333 51.7286 70.6762C51.5334 70.7048 50.9144 70.7095 50.8286 70.7095H50.4715C50.4429 70.7095 50.4334 70.6905 50.462 70.6714C51.1382 70.1238 52.2667 69.2286 52.2667 68.2048C52.2667 67.5857 51.8715 67.0762 50.9524 67.0762C50.4905 67.0762 50.2096 67.1714 50.0048 67.2762C49.9477 67.3143 49.9429 67.3333 49.9429 67.3809C49.9429 67.5333 49.9667 67.9762 49.9763 68.0238C49.981 68.0857 49.9953 68.1238 50.0239 68.1238C50.0763 68.1238 50.0905 68.0762 50.0905 68.0238C50.0905 67.8857 50.1858 67.6381 50.3096 67.5143C50.4667 67.3667 50.6429 67.3238 50.8667 67.3238C51.1286 67.3238 51.5858 67.4952 51.5858 68.3286C51.5858 69.4476 50.5429 70.2714 49.8096 70.9238C49.7572 70.9714 49.7048 71.019 49.7048 71.0619L49.6953 71.0571ZM53.0048 68.0476C53.0048 68.1 53.0048 68.1286 53.0477 68.1286C53.081 68.1286 53.0953 68.1 53.1001 68.0619C53.1096 67.9762 53.1763 67.8048 53.2715 67.7428C53.3953 67.6571 53.6191 67.6476 53.762 67.6476H55.1191C54.3953 68.8714 53.7239 70.4333 53.5763 70.9428C53.5477 71.0286 53.5382 71.1095 53.5382 71.1619C53.5382 71.2095 53.5524 71.2238 53.6096 71.2238C53.8477 71.2238 54.2715 71.0048 54.2715 70.9C54.2715 70.8286 54.262 70.7952 54.2715 70.7048C54.3477 70.0286 55.1667 67.9238 55.6048 67.3C55.6191 67.2809 55.6429 67.2381 55.6429 67.2048C55.6429 67.1762 55.6144 67.1619 55.5144 67.1619H53.8382C53.281 67.1619 53.162 67.1095 53.1286 67.1095C53.0953 67.1095 53.0763 67.1333 53.0763 67.1857C53.0763 67.2381 52.9953 67.8571 52.9953 68.0524L53.0048 68.0476Z" fill="#1D1C1A"/>
<path d="M48.0715 66.919C48.9238 66.919 49.3953 67.5571 49.3953 68.3619C49.3953 69.8476 48.1095 70.7762 47.4619 71.0857C47.4381 71.1 47.4095 71.1095 47.3667 71.1095C47.3476 71.1095 47.3191 71.0809 47.3191 71.0571C47.3191 71.019 47.3572 70.9905 47.381 70.9667C47.9286 70.6333 48.7429 69.7667 48.7429 68.5143C48.7429 67.5762 48.3524 67.1619 47.9476 67.1619C47.5715 67.1619 47.3191 67.5 47.3191 67.9524C47.3191 68.7619 47.8381 68.9524 48.0143 68.9524C48.1905 68.9524 48.3048 68.919 48.3715 68.8905C48.4286 68.8571 48.4572 68.8333 48.4762 68.8333C48.4953 68.8333 48.5191 68.8571 48.5191 68.8809C48.5191 68.8952 48.5048 68.9286 48.4905 68.9381C48.3381 69.1048 48.0667 69.1809 47.8 69.1809C47.0476 69.1809 46.7286 68.6048 46.7286 68.1571C46.7286 67.4428 47.2619 66.9238 48.0715 66.9238V66.919ZM43.9048 67.8762C43.9048 67.9095 43.9286 67.9333 43.9476 67.9333C43.9667 67.9333 43.9953 67.9238 44.0191 67.9143C44.1334 67.8667 44.5286 67.6619 44.6286 67.6619C44.7095 67.6619 44.7095 67.7238 44.7095 67.8524V69.3905C44.7191 69.9 44.7095 70.3476 44.6905 70.5809C44.6762 70.7524 44.6476 70.8238 44.481 70.8619C44.3857 70.8857 44.1191 70.9 44.0619 70.9C44.0429 70.9 44.0191 70.9143 44.0191 70.9524C44.0191 70.9905 44.0524 71 44.1095 71C44.4429 71 44.8857 70.9857 45.0048 70.9857C45.1476 70.9857 45.481 71 45.881 71C45.9381 71 45.9619 70.9905 45.9619 70.9524C45.9619 70.9143 45.9334 70.9 45.9143 70.9C45.8715 70.9 45.6476 70.8857 45.5667 70.8667C45.4 70.8286 45.3715 70.7524 45.3572 70.5809C45.3381 70.3476 45.3381 69.9 45.3381 69.3905V68.4095C45.3381 67.6 45.3715 67.0762 45.3715 67.0333C45.3715 66.9809 45.3572 66.9238 45.3095 66.9238C45.2667 66.9238 45.2191 66.9619 45.1715 66.9952C44.9857 67.1333 43.981 67.8 43.9572 67.8095C43.9286 67.8238 43.9048 67.8524 43.9048 67.8857V67.8762ZM49.8619 70.9047C49.8619 70.9476 49.9 70.9809 49.9334 70.9809H51.9905C52.3238 70.9809 52.4048 70.9667 52.4476 70.8238C52.5 70.6428 52.6 70.1524 52.6 70.0667C52.6 70.0143 52.6 69.9667 52.5572 69.9667C52.5238 69.9667 52.5095 69.9857 52.4953 70.0524C52.4334 70.3 52.2572 70.4809 51.8953 70.5238C51.7 70.5524 51.081 70.5571 50.9953 70.5571H50.6381C50.6095 70.5571 50.6 70.5381 50.6286 70.519C51.3048 69.9714 52.4334 69.0762 52.4334 68.0524C52.4334 67.4333 52.0381 66.9238 51.1191 66.9238C50.6572 66.9238 50.3762 67.019 50.1715 67.1238C50.1143 67.1619 50.1095 67.1809 50.1095 67.2286C50.1095 67.3809 50.1334 67.8238 50.1429 67.8667C50.1429 67.9286 50.1619 67.9667 50.1905 67.9667C50.2429 67.9667 50.2572 67.919 50.2572 67.8667C50.2572 67.7286 50.3524 67.4809 50.4762 67.3571C50.6334 67.2095 50.8095 67.1667 51.0334 67.1667C51.2953 67.1667 51.7524 67.3381 51.7524 68.1714C51.7524 69.2905 50.7095 70.1143 49.9762 70.7667C49.9238 70.8143 49.8715 70.8619 49.8715 70.9047H49.8619ZM53.1715 67.8952C53.1715 67.9476 53.1715 67.9762 53.2143 67.9762C53.2476 67.9762 53.2619 67.9476 53.2667 67.9095C53.2762 67.8238 53.3429 67.6524 53.4381 67.5905C53.5619 67.5048 53.7857 67.4952 53.9286 67.4952H55.2857C54.5619 68.719 53.8905 70.2809 53.7429 70.7905C53.7143 70.8762 53.7048 70.9571 53.7048 71.0095C53.7048 71.0571 53.7191 71.0714 53.7762 71.0714C54.0143 71.0714 54.4381 70.8524 54.4381 70.7476C54.4381 70.6762 54.4286 70.6428 54.4381 70.5524C54.5143 69.8762 55.3334 67.7714 55.7715 67.1476C55.7857 67.1286 55.8095 67.0857 55.8095 67.0524C55.8095 67.0238 55.781 67.0095 55.681 67.0095H54.0048C53.4476 67.0095 53.3286 66.9571 53.2953 66.9571C53.2619 66.9571 53.2429 66.9809 53.2429 67.0333C53.2429 67.0857 53.1619 67.7048 53.1619 67.9L53.1715 67.8952Z" fill="#C6C1BF"/>
<path d="M30.7095 11.3381L31.1143 12.0714L28.9 13.2952L29.2476 13.9286L31.2143 12.8429L31.6143 13.5714L29.6476 14.6572L30.1333 15.5333L29.2714 16.0095L27.6333 13.0429L30.7095 11.3429V11.3381Z" fill="#1D1C1A"/>
<path d="M36.3001 12.6238L35.762 12.1524L33.8286 12.9381L33.7715 13.6524L32.7905 14.0524L33.1334 10.2571L34.3905 9.74762L37.281 12.2286L36.3048 12.6238H36.3001ZM33.8953 12.1143L35.1334 11.6095L34.0143 10.6333L33.8953 12.1143Z" fill="#1D1C1A"/>
<path d="M41.3476 10.1762L40.7619 7.81906L41.7095 7.58572L42.5238 10.8762L41.1286 11.2238L38.6048 9.34763L39.1905 11.7048L38.2381 11.9429L37.4238 8.65239L38.8238 8.30477L41.3476 10.181V10.1762Z" fill="#1D1C1A"/>
<path d="M46.1191 6.96191L50.2001 6.79524L50.2334 7.62858L48.6858 7.69048L48.7906 10.2429L47.8096 10.281L47.7049 7.72858L46.1525 7.79048L46.1191 6.95715V6.96191Z" fill="#1D1C1A"/>
<path d="M51.3903 8.49525C51.4855 7.3762 52.3141 6.78096 53.7379 6.90477C55.1569 7.02858 55.876 7.75715 55.7807 8.87144C55.6855 9.99049 54.8522 10.5952 53.4331 10.4714C52.0093 10.3476 51.295 9.61906 51.3903 8.49525ZM54.7569 8.78572C54.8093 8.20001 54.5045 7.80953 53.6664 7.73811C52.8331 7.66668 52.4665 7.99049 52.4188 8.58572C52.3665 9.18096 52.676 9.57144 53.5045 9.64287C54.3379 9.7143 54.7093 9.38096 54.7617 8.79049L54.7569 8.78572Z" fill="#1D1C1A"/>
<path d="M61.6239 8.36667L59.6334 9.38095L60.881 11.6762L59.6763 11.4048L58.8096 9.80476L57.862 10.2857L57.7096 10.9571L56.7524 10.7381L57.5001 7.42857L58.462 7.64286L58.1286 9.12857L60.1953 8.0381L61.6334 8.36191L61.6239 8.36667Z" fill="#1D1C1A"/>
<path d="M66.3286 9.99524L66.0667 10.7191L63.6858 9.85715L63.5 10.3667L65.7905 11.1952L65.5286 11.9191L63.2381 11.0905L63.0524 11.6L65.4334 12.4571L65.1715 13.181L61.8667 11.9857L63.0191 8.79524L66.3238 9.99048L66.3286 9.99524Z" fill="#1D1C1A"/>
<path d="M69.7621 14.3524L70.8764 12.1905L71.7478 12.6381L70.1907 15.6524L68.9097 14.9905L68.2478 11.9095L67.1335 14.0714L66.2573 13.6191L67.8145 10.6048L69.1002 11.2667L69.7621 14.3476V14.3524Z" fill="#1D1C1A"/>
<path d="M27.395 85.4762C27.2474 85.719 27.395 86.0238 28.1569 86.4857C28.8569 86.9048 29.095 86.9 29.2045 86.719C29.3331 86.5095 29.2236 86.3905 28.395 85.8143C27.2665 85.0238 26.8903 84.4762 27.276 83.8333C27.6426 83.2286 28.4617 83.3476 29.4665 83.9524C30.5855 84.6238 31.0236 85.3524 30.6617 86.0143L29.7807 85.4857C29.9331 85.2286 29.7141 84.9619 29.0617 84.5714C28.4426 84.2 28.2426 84.219 28.1474 84.3762C28.0379 84.5571 28.1474 84.6952 28.895 85.2333C29.9141 85.9571 30.5617 86.4476 30.1045 87.2095C29.6569 87.9524 28.8379 87.7571 27.8045 87.1333C26.6284 86.4238 26.0903 85.7381 26.5093 84.9476L27.3903 85.4809L27.395 85.4762Z" fill="#1D1C1A"/>
<path d="M31.5236 87.1905C31.9712 86.1571 32.9426 85.8619 34.2569 86.4286C35.5664 86.9952 36.014 87.9143 35.5712 88.9429C35.1236 89.9762 34.1426 90.281 32.8331 89.7143C31.5188 89.1476 31.0759 88.2286 31.5236 87.1905ZM34.6283 88.5381C34.8616 87.9952 34.695 87.5333 33.9236 87.1952C33.1569 86.8619 32.7045 87.0571 32.4712 87.6C32.2331 88.1476 32.4045 88.6143 33.1664 88.9476C33.9331 89.281 34.395 89.081 34.6283 88.5333V88.5381Z" fill="#1D1C1A"/>
<path d="M39.295 88.2143C40.495 88.5524 41.0331 89.2571 40.895 90.1238L39.8902 89.8429C39.9093 89.5238 39.6759 89.1857 39.0712 89.0191C38.3712 88.8238 37.9378 89.0714 37.7759 89.6429C37.614 90.2191 37.8616 90.6619 38.5569 90.8571C39.1616 91.0238 39.5378 90.8571 39.6854 90.5667L40.6902 90.8476C40.3569 91.6667 39.5331 91.9952 38.3283 91.6619C37.0188 91.2952 36.4712 90.4857 36.7807 89.3667C37.095 88.2524 37.9807 87.8476 39.2902 88.2143H39.295Z" fill="#1D1C1A"/>
<path d="M43.3948 89.2286L42.7948 92.5619L41.8281 92.3857L42.4281 89.0524L43.3948 89.2286Z" fill="#1D1C1A"/>
<path d="M44.4189 91.1476C44.5094 90.0286 45.3332 89.4333 46.757 89.5476C48.176 89.6619 48.8999 90.3905 48.8046 91.5048C48.7141 92.6238 47.8856 93.2286 46.4618 93.1143C45.0379 93 44.3189 92.2714 44.4141 91.1476H44.4189ZM47.7856 91.4238C47.8332 90.8381 47.5284 90.4524 46.6903 90.381C45.857 90.3143 45.4951 90.6429 45.4427 91.2333C45.3951 91.8286 45.7046 92.2143 46.5332 92.2857C47.3665 92.3524 47.7379 92.019 47.7856 91.4238Z" fill="#1D1C1A"/>
<path d="M51.1188 92.0476C51.1331 92.3333 51.4235 92.5048 52.314 92.4571C53.1283 92.4143 53.3235 92.2762 53.3093 92.0619C53.295 91.8143 53.1426 91.781 52.1331 91.7667C50.7569 91.7429 50.1331 91.5 50.095 90.7476C50.0569 90.0429 50.8045 89.681 51.9759 89.6238C53.2807 89.5571 54.0521 89.9095 54.1188 90.6619L53.095 90.7143C53.0807 90.4143 52.7474 90.3191 51.9854 90.3571C51.2664 90.3952 51.1093 90.5238 51.1188 90.7048C51.1283 90.9143 51.295 90.9714 52.2188 91C53.4664 91.0286 54.2807 91.0714 54.3283 91.9619C54.3712 92.8286 53.5854 93.1238 52.3807 93.1857C51.0093 93.2571 50.1759 92.9857 50.0854 92.0952L51.114 92.0429L51.1188 92.0476Z" fill="#1D1C1A"/>
<path d="M55.7426 92.0429L56.6806 91.9048L56.7854 92.6333L55.8473 92.7714L55.7378 92.0429H55.7426Z" fill="#1D1C1A"/>
<path d="M59.4808 88.5381C60.6951 88.2429 61.5094 88.5952 61.8141 89.419L60.7999 89.6667C60.6618 89.3762 60.2903 89.2 59.6808 89.3476C58.9761 89.5191 58.7189 89.9476 58.857 90.5286C58.9999 91.1095 59.4332 91.3762 60.1332 91.2048C60.7427 91.0571 60.9903 90.7238 60.9761 90.3952L61.9903 90.1476C62.0999 91.0238 61.5427 91.719 60.3284 92.0143C59.0046 92.3381 58.1284 91.9 57.8522 90.7714C57.576 89.6476 58.1522 88.8619 59.4761 88.5381H59.4808Z" fill="#1D1C1A"/>
<path d="M63.1522 89.3952C62.7379 88.3476 63.2189 87.4524 64.5474 86.9238C65.8712 86.4 66.8427 86.7333 67.2522 87.7762C67.6665 88.8238 67.1855 89.7333 65.8617 90.2571C64.5331 90.7809 63.5665 90.4476 63.1522 89.3952ZM66.2998 88.1524C66.0855 87.6048 65.6379 87.3905 64.857 87.7C64.0808 88.0048 63.8951 88.4619 64.1141 89.0143C64.3331 89.5714 64.7855 89.7809 65.557 89.4762C66.3331 89.1714 66.5189 88.7048 66.2998 88.1524Z" fill="#1D1C1A"/>
<path d="M69.3332 88.6952L67.6284 85.7619L68.9522 84.9905L71.1046 86.3429L70.9903 83.8048L72.3141 83.0333L74.0189 85.9667L73.1713 86.4571L71.9379 84.3333L72.0713 87.1L71.2856 87.5571L68.9475 86.0762L70.1856 88.2L69.3332 88.6952Z" fill="#1D1C1A"/>
<path d="M23.019 81.8381C13.9952 74.181 8.2666 62.7571 8.2666 50C8.2666 37.2429 14.2999 25.2143 23.738 17.5619" stroke="#971A2E" stroke-miterlimit="10"/>
<path d="M76.2666 17.5667C85.7047 25.219 91.7333 36.9048 91.7333 50C91.7333 63.0952 86.0047 74.1857 76.9809 81.8429" stroke="#971A2E" stroke-miterlimit="10"/>
</g>
<defs>
<clipPath id="clip0_1124_17120">
<rect width="100" height="100" fill="white"/>
</clipPath>
</defs>
</svg>
