<?xml version="1.0"?>
<svg xmlns:rdf="http://www.w3.org/1999/02/22-rdf-syntax-ns#" xmlns="http://www.w3.org/2000/svg" xmlns:cc="http://creativecommons.org/ns#" xmlns:xlink="http://www.w3.org/1999/xlink" xmlns:dc="http://purl.org/dc/elements/1.1/" xmlns:svg="http://www.w3.org/2000/svg" id="svg3838" viewBox="0 0 64 64" version="1.1">
  <title id="title4450">snow flake icon2</title>
  <defs id="defs3840">
    <radialGradient id="radialGradient4568" gradientUnits="userSpaceOnUse" cy="21.372" cx="37.798" gradientTransform="matrix(-.76799 -.22828 .39798 -1.0486 52.265 62.615)" r="23.961">
      <stop id="stop4562" stop-color="#bdcdd4" offset="0"/>
      <stop id="stop4564" stop-color="#fff" offset="1"/>
    </radialGradient>
    <filter id="filter4572">
      <feGaussianBlur id="feGaussianBlur4574" stdDeviation="1.1032063"/>
    </filter>
  </defs>
  <g id="layer1" stroke-width="0">
    <path id="path4570" filter="url(#filter4572)" transform="matrix(1.0926 0 0 .96694 -9.5566 10.965)" fill="#0e232e" d="m37.722-5.5894c-0.25775 0-0.46875 0.26753-0.46875 0.59375v7.7188c-0.66624 0.84385-1.6319 2.3601-2.2812 3.5l-4.6562-4.625c-0.50796-0.080784-0.78247 0.19515-0.625 1.125l7.5312 7.5938c-0.0016 3.3868 0.06247 6.778 0.09375 10.156-2.9612-1.6864-5.9147-3.38-8.7812-5.1562l-2.8125-10.313c-0.72654-0.6013-1.0972-0.51155-1.2812-0.03125l1.6875 6.3438c-1.3119-0.0076-3.1236 0.0637-4.1875 0.21875l-6.6875-3.8438c-0.28251-0.16311-0.62112-0.12947-0.75 0.09375l-0.0625 0.15625c-0.12887 0.22322-0.0013 0.52439 0.28125 0.6875l6.625 3.8438c0.62263 0.94997 1.0361 2.5268 1.6562 3.7188l-6.4688 2.0312c-0.37096 0.44799-0.21891 0.80115 0.6875 1.0625 3.5623-0.98461 7.2026-1.8981 10.656-3 3.0277 1.7241 6.0459 3.4756 9.0625 5.2188-3.0663 1.7976-6.1516 3.5563-9.25 5.2188l-10.344-2.7188c-0.88401 0.32855-0.94894 0.69424-0.625 1.0938l6.3125 1.7188c-0.66252 1.1323-1.5086 2.7511-1.9062 3.75l-6.6562 3.8438c-0.28251 0.16311-0.41012 0.49553-0.28125 0.71875l0.0625 0.125c0.12887 0.22322 0.46749 0.25686 0.75 0.09375l6.6562-3.8125c1.134-0.06423 2.6889 0.37862 4.0312 0.4375l-1.4688 6.5938c0.20248 0.54526 0.57046 0.62305 1.25-0.03125 0.92845-3.5773 1.9775-7.2081 2.75-10.75 3.0271-1.7718 6.0555-3.56 9.0938-5.3125 0.02475 3.6012 0.01719 7.1895-0.09375 10.75l-7.5312 7.5938c-0.15747 0.92985 0.11704 1.1745 0.625 1.0938l4.6562-4.625c0.64938 1.1399 1.615 2.6874 2.2812 3.5312v7.6875c0 0.32622 0.211 0.59375 0.46875 0.59375h0.15625c0.25775 0 0.46875-0.26754 0.46875-0.59375v-7.6562c0.51138-1.0142 1.6841-2.1482 2.4062-3.2812l4.9688 4.5938c0.57345 0.09728 0.82062-0.20936 0.59375-1.125-2.6338-2.5927-5.2564-5.31-7.9375-7.75-0.02175-3.6556-0.03341-7.3131-0.03125-10.969 3.1685 1.8336 6.3346 3.661 9.5 5.5 0.77252 3.5419 1.8215 7.1726 2.75 10.75 0.67953 0.6543 1.0475 0.57653 1.25 0.03125l-1.4688-6.5938c1.3424-0.0589 2.8972-0.50173 4.0312-0.4375l6.6562 3.8438c0.28251 0.1631 0.62114 0.09826 0.75-0.125l0.0625-0.125c0.12886-0.22322 0.0012-0.55564-0.28125-0.71875l-6.6562-3.8438c-0.39768-0.9989-1.2438-2.6177-1.9062-3.75l6.3125-1.7188c0.32389-0.39958 0.25903-0.7652-0.625-1.0938l-10.344 2.7188c-3.1017-1.7927-6.2345-3.522-9.3438-5.2812 3.0469-1.7544 6.1066-3.469 9.1562-5.2188 3.4536 1.1019 7.094 2.0154 10.656 3 0.90641-0.26134 1.0585-0.64576 0.6875-1.0938l-6.4688-2c0.62017-1.192 1.0024-2.7688 1.625-3.7188l6.6562-3.8438c0.2825-0.16311 0.41017-0.46427 0.28125-0.6875l-0.0625-0.15625c-0.12888-0.22322-0.46749-0.25686-0.75-0.09375l-6.6875 3.8438c-1.0639-0.15505-2.8756-0.22632-4.1875-0.21875l1.6875-6.3438c-0.18404-0.4803-0.55471-0.57005-1.2812 0.03125l-2.8125 10.313c-3.0786 1.7755-6.1339 3.576-9.1875 5.375 0.0042-3.4786 0.02181-6.9589 0.03125-10.438 2.6811-2.44 5.3037-5.1573 7.9375-7.75 0.22687-0.91564-0.0203-1.191-0.59375-1.0938l-4.9688 4.5625c-0.72216-1.1331-1.8949-2.2671-2.4062-3.2812v-7.6562c0-0.32622-0.211-0.59375-0.46875-0.59375h-0.15625z"/>
    <path id="rect4542" fill="url(#radialGradient4568)" d="m31.659 5.5602c-0.28162 0-0.51217 0.25869-0.51217 0.57412v7.4636c-0.72794 0.81595-1.783 2.2821-2.4925 3.3843l-5.088-4.472c-0.55501-0.07812-0.85494 0.1887-0.68289 1.0878l8.2288 7.3427c-0.0016 3.2748 0.06827 6.5539 0.10243 9.8205-3.2355-1.6306-6.4626-3.2683-9.5946-4.9858l-3.073-9.9716c-0.79384-0.58142-1.1989-0.49464-1.3999-0.03022l1.8438 6.134c-1.4334-0.0073-3.4129 0.06161-4.5753 0.21152l-7.3072-3.718c-0.30868-0.15772-0.67865-0.12519-0.81946 0.09064l-0.068285 0.15108c-0.14081 0.21584-0.00145 0.50706 0.3073 0.66477l7.2386 3.7167c0.6803 0.91857 1.132 2.4433 1.8096 3.5958l-7.0679 1.9641c-0.40532 0.43318-0.23918 0.77467 0.75118 1.0274 3.8922-0.95206 7.8697-1.8353 11.643-2.9008 3.3081 1.6671 6.6058 3.3607 9.9019 5.0462-3.3503 1.7382-6.7213 3.4388-10.107 5.0462l-11.302-2.629c-0.9654 0.317-1.0364 0.671-0.6824 1.057l6.8972 1.6619c-0.72388 1.0949-1.6483 2.6602-2.0828 3.626l-7.2727 3.7167c-0.30867 0.15772-0.44811 0.47915-0.3073 0.69499l0.068285 0.12087c0.14081 0.21584 0.51079 0.24837 0.81946 0.09064l7.2727-3.6865c1.239-0.06211 2.9379 0.36611 4.4046 0.42304l-1.6048 6.3758c0.22123 0.52723 0.6233 0.60245 1.3658-0.03022 1.0144-3.4591 2.1606-6.9698 3.0047-10.395 3.3075-1.7132 6.6163-3.4423 9.936-5.1369 0.02705 3.4821 0.01877 6.9518-0.10243 10.395l-8.2288 7.3427c-0.17206 0.89912 0.12788 1.1357 0.68289 1.0576l5.0875-4.4721c0.70953 1.1022 1.7646 2.5986 2.4925 3.4145v7.4334c0 0.31543 0.23055 0.57412 0.51217 0.57412h0.17072c0.28162 0 0.51216-0.25869 0.51216-0.57412v-7.4032c0.55874-0.98067 1.8401-2.0772 2.6291-3.1728l5.4289 4.4419c0.62656 0.09407 0.89662-0.20244 0.64874-1.0878-2.8778-2.507-5.7432-5.1345-8.6727-7.4938-0.02376-3.5348-0.0365-7.0714-0.03414-10.606 3.4619 1.773 6.9213 3.54 10.38 5.3182 0.84407 3.4248 1.9902 6.9355 3.0047 10.395 0.74246 0.63267 1.1445 0.55748 1.3658 0.03022l-1.6048-6.3758c1.4667-0.05696 3.1656-0.48514 4.4046-0.42304l7.2727 3.7167c0.30868 0.1577 0.67867 0.09501 0.81946-0.12087l0.06829-0.12087c0.14079-0.21584 0.0014-0.53728-0.3073-0.69499l-7.272-3.718c-0.434-0.965-1.359-2.531-2.083-3.626l6.8972-1.6619c0.35389-0.38637 0.28302-0.7399-0.68289-1.0576l-11.302 2.6289c-3.389-1.7335-6.8119-3.4056-10.209-5.1067 3.3291-1.6964 6.6721-3.3544 10.004-5.0462 3.7735 1.0655 7.751 1.9488 11.643 2.9008 0.99036-0.25271 1.1565-0.62441 0.75117-1.0576l-7.0679-1.9339c0.67761-1.1526 1.0952-2.6773 1.7755-3.5958l7.2727-3.7167c0.30866-0.15772 0.44816-0.44892 0.3073-0.66477l-0.06828-0.15108c-0.14082-0.21584-0.51079-0.24837-0.81946-0.09064l-7.3069 3.7167c-1.1624-0.14993-3.142-0.21883-4.5753-0.21152l1.8438-6.134c-0.20108-0.46443-0.60609-0.55121-1.3999 0.03022l-3.073 9.974c-3.3638 1.7168-6.702 3.4578-10.038 5.1973 0.0045-3.3636 0.02383-6.7289 0.03414-10.092 2.9294-2.3593 5.7949-4.9868 8.6727-7.4938 0.24788-0.88538-0.02218-1.1517-0.64874-1.0576l-5.4289 4.4117c-0.78904-1.0956-2.0704-2.1921-2.6291-3.1728v-7.4032c0-0.31543-0.23055-0.57412-0.51216-0.57412h-0.17072z"/>
    <rect id="rect4602" opacity="0" height="64" width="64" y="0" x="0"/>
  </g>
  <metadata>
    <rdf:RDF>
      <cc:Work>
        <dc:format>image/svg+xml</dc:format>
        <dc:type rdf:resource="http://purl.org/dc/dcmitype/StillImage"/>
        <cc:license rdf:resource="http://creativecommons.org/licenses/publicdomain/"/>
        <dc:publisher>
          <cc:Agent rdf:about="http://openclipart.org/">
            <dc:title>Openclipart</dc:title>
          </cc:Agent>
        </dc:publisher>
        <dc:title>Snow fake icon 2</dc:title>
        <dc:date>2010-12-10T09:59:54</dc:date>
        <dc:description>Snow flake icon</dc:description>
        <dc:source>http://openclipart.org/detail/100231/snow-fake-icon-2-by-netalloy</dc:source>
        <dc:creator>
          <cc:Agent>
            <dc:title>netalloy</dc:title>
          </cc:Agent>
        </dc:creator>
        <dc:subject>
          <rdf:Bag>
            <rdf:li>clip art</rdf:li>
            <rdf:li>clipart</rdf:li>
            <rdf:li>holidays2010</rdf:li>
            <rdf:li>icon</rdf:li>
            <rdf:li>image</rdf:li>
            <rdf:li>media</rdf:li>
            <rdf:li>meteorology</rdf:li>
            <rdf:li>png</rdf:li>
            <rdf:li>public domain</rdf:li>
            <rdf:li>snow</rdf:li>
            <rdf:li>snowflake</rdf:li>
            <rdf:li>svg</rdf:li>
            <rdf:li>symbol</rdf:li>
            <rdf:li>weather</rdf:li>
          </rdf:Bag>
        </dc:subject>
      </cc:Work>
      <cc:License rdf:about="http://creativecommons.org/licenses/publicdomain/">
        <cc:permits rdf:resource="http://creativecommons.org/ns#Reproduction"/>
        <cc:permits rdf:resource="http://creativecommons.org/ns#Distribution"/>
        <cc:permits rdf:resource="http://creativecommons.org/ns#DerivativeWorks"/>
      </cc:License>
    </rdf:RDF>
  </metadata>
</svg>
