<svg width="100" height="100" viewBox="0 0 100 100" fill="none" xmlns="http://www.w3.org/2000/svg">
<g clip-path="url(#clip0_1124_14857)">
<path d="M68.4762 93.7381C74.1286 91.3476 79.2048 87.9238 83.5667 83.5667C87.9286 79.2048 91.3476 74.1286 93.7381 68.4762C96.2143 62.6238 97.4667 56.4095 97.4667 50C97.4667 43.5905 96.2143 37.3762 93.7381 31.5238C91.3476 25.8714 87.9238 20.7952 83.5667 16.4333C79.2048 12.0714 74.1286 8.65237 68.4762 6.2619C62.6238 3.78571 56.4095 2.53333 50 2.53333V97.4667C56.4095 97.4667 62.6238 96.2143 68.4762 93.7381Z" fill="#DB4440"/>
<path d="M16.4381 16.4381C12.0762 20.8 8.65713 25.8762 6.26666 31.5286C3.79047 37.3809 2.53809 43.5952 2.53809 50.0048C2.53809 56.4143 3.79047 62.6286 6.26666 68.4809C8.65713 74.1333 12.0809 79.2095 16.4381 83.5714C20.8 87.9333 25.8762 91.3524 31.5286 93.7428C37.3809 96.219 43.5952 97.4714 50.0048 97.4714V2.53333C43.5952 2.53333 37.3809 3.78571 31.5286 6.2619C25.8762 8.65237 20.8 12.0762 16.4381 16.4333V16.4381Z" fill="white"/>
<path d="M96.5333 31.6667C96.2333 30.9095 95.919 30.1619 95.5857 29.4238C94.919 27.9476 94.181 26.5095 93.3762 25.1143C92.9762 24.4143 92.5571 23.7286 92.1238 23.0524C91.6905 22.3762 91.2429 21.7095 90.7762 21.0571C90.5429 20.7286 90.3095 20.4048 90.0667 20.0857C89.5857 19.4429 89.0905 18.8143 88.581 18.1952C87.5619 16.9619 86.4857 15.7762 85.3524 14.6429C84.7857 14.0762 84.2095 13.5238 83.6143 12.9857C83.0238 12.4476 82.419 11.9238 81.8 11.4143C81.4905 11.1619 81.181 10.9095 80.8667 10.6619C79.9238 9.91905 78.9524 9.20952 77.9524 8.53809C76.9571 7.8619 75.9333 7.22381 74.8857 6.62381C74.1857 6.22381 73.481 5.83809 72.7619 5.47143C72.4048 5.28571 72.0429 5.10952 71.6762 4.93333C70.9476 4.58095 70.2095 4.24762 69.4619 3.93333C69.0857 3.77619 68.7095 3.62381 68.3333 3.47143C67.5762 3.17143 66.8095 2.89047 66.0381 2.62857C65.2667 2.36667 64.4809 2.12381 63.6905 1.9C62.9 1.67619 62.1 1.47143 61.2952 1.28571C57.6667 0.447618 53.8857 0.00476074 50.0048 0.00476074C46.1238 0.00476074 42.3429 0.447618 38.7143 1.28571C37.9095 1.47143 37.1095 1.67619 36.319 1.9C35.5286 2.12381 34.7429 2.36667 33.9714 2.62857C33.2 2.89047 32.4333 3.17143 31.6762 3.47143C31.3 3.61905 30.9238 3.77619 30.5476 3.93333C29.8 4.24762 29.0619 4.58571 28.3333 4.93333C27.9667 5.10952 27.6095 5.29047 27.2476 5.47143C26.5286 5.83809 25.819 6.22381 25.1238 6.62381C24.0762 7.22381 23.0524 7.86666 22.0571 8.53809C21.0619 9.21428 20.0857 9.91905 19.1429 10.6619C18.8286 10.9095 18.5143 11.1619 18.2095 11.4143C17.5905 11.9238 16.9857 12.4476 16.3952 12.9857C15.8048 13.5238 15.2238 14.0762 14.6571 14.6429C13.5238 15.7762 12.4476 16.9571 11.4286 18.1952C10.919 18.8143 10.4238 19.4429 9.94286 20.0857C9.70476 20.4048 9.46667 20.7286 9.23333 21.0571C8.76667 21.7095 8.31905 22.3762 7.88571 23.0524C7.45238 23.7286 7.03333 24.4143 6.63333 25.1143C5.82857 26.5095 5.09524 27.9476 4.42381 29.4238C4.09048 30.1619 3.77143 30.9095 3.47619 31.6667C1.22857 37.3429 0 43.5286 0 50C0 56.0429 1.07143 61.8333 3.03333 67.1905C3.45238 68.3381 3.91429 69.4667 4.41429 70.5762C5.08095 72.0524 5.81905 73.4905 6.62381 74.8857C7.02381 75.5857 7.44286 76.2714 7.87619 76.9476C8.30952 77.6238 8.75714 78.2905 9.22381 78.9429C9.45714 79.2714 9.69048 79.5952 9.93333 79.9143C10.4143 80.5571 10.9095 81.1857 11.419 81.8048C12.181 82.7286 12.981 83.6286 13.8095 84.4952C15.4667 86.2333 17.2429 87.8476 19.1333 89.3333C20.0762 90.0762 21.0476 90.7857 22.0476 91.4571C23.0429 92.1333 24.0667 92.7714 25.1143 93.3714C26.8571 94.3762 28.6714 95.2762 30.5381 96.0667C36.519 98.5952 43.0952 99.9952 50 99.9952C56.9048 99.9952 63.4809 98.5952 69.4619 96.0667C71.3333 95.2762 73.1429 94.3762 74.8857 93.3714C75.9333 92.7714 76.9571 92.1286 77.9524 91.4571C78.9476 90.7809 79.9238 90.0762 80.8667 89.3333C82.7571 87.8476 84.5333 86.2333 86.1905 84.4952C87.0191 83.6286 87.8143 82.7286 88.581 81.8048C89.0905 81.1857 89.5857 80.5571 90.0667 79.9143C90.3048 79.5952 90.5429 79.2714 90.7762 78.9429C91.2429 78.2905 91.6905 77.6238 92.1238 76.9476C92.5571 76.2714 92.9762 75.5857 93.3762 74.8857C94.181 73.4905 94.9143 72.0524 95.5857 70.5762C96.0857 69.4667 96.5476 68.3381 96.9667 67.1905C98.9286 61.8286 100 56.0381 100 50C100 43.5286 98.7714 37.3429 96.5333 31.6667ZM93.7381 68.4762C91.3476 74.1286 87.9238 79.2048 83.5667 83.5667C79.2048 87.9286 74.1286 91.3476 68.4762 93.7381C62.6238 96.2143 56.4095 97.4667 50 97.4667C43.5905 97.4667 37.3762 96.2143 31.5238 93.7381C25.8714 91.3476 20.7952 87.9238 16.4333 83.5667C12.0714 79.2048 8.65238 74.1286 6.2619 68.4762C3.78571 62.6238 2.53333 56.4095 2.53333 50C2.53333 43.5905 3.78571 37.3762 6.2619 31.5238C8.65238 25.8714 12.0762 20.7952 16.4333 16.4333C20.7952 12.0714 25.8714 8.65238 31.5238 6.2619C37.3762 3.78571 43.5905 2.53333 50 2.53333C56.4095 2.53333 62.6238 3.78571 68.4762 6.2619C74.1286 8.65238 79.2048 12.0762 83.5667 16.4333C87.9286 20.7952 91.3476 25.8714 93.7381 31.5238C96.2143 37.3762 97.4667 43.5905 97.4667 50C97.4667 56.4095 96.2143 62.6238 93.7381 68.4762Z" fill="#A43330"/>
<path d="M29.9763 27.0857V47.3619C29.9763 50.4619 31.1477 62.0238 36.762 67.0524C42.3763 72.081 50.0001 77.1905 50.0001 77.1905C50.0001 77.1905 58.462 72.4143 62.4858 67.7238C66.5097 63.0333 70.0287 62.1952 70.0287 37.4762V27.0857H29.9763Z" fill="white"/>
<path d="M49.9954 77.2857L49.9525 77.2571C49.8763 77.2048 42.2573 72.0857 36.7049 67.1095C31.0478 62.0429 29.8906 50.2429 29.8906 47.3619V27.0095H70.1002V37.4762C70.1002 59.5809 67.324 62.5762 63.8049 66.3714C63.3954 66.8143 62.9668 67.2762 62.5382 67.7762C58.5525 72.4238 50.1192 77.2143 50.0335 77.2619L49.9906 77.2857H49.9954ZM30.0525 27.1667V47.3619C30.0525 50.2286 31.2001 61.9667 36.8144 66.9952C42.1478 71.7714 49.3954 76.6905 50.0049 77.1C50.6573 76.7238 58.6049 72.1333 62.424 67.6714C62.8573 67.1667 63.2811 66.7095 63.6954 66.2619C67.1859 62.4952 69.9478 59.519 69.9478 37.4762V27.1667H30.0525Z" fill="#D94535"/>
<path fill-rule="evenodd" clip-rule="evenodd" d="M50.8239 43.2476C50.7572 43.1714 50.762 43.0952 50.7763 43C50.7763 42.9667 50.7763 42.9429 50.7763 42.9333C50.7572 42.9095 50.743 42.8191 50.7191 42.8048C50.6763 42.5238 50.6477 42.4857 50.7239 42.3381L50.7811 42.2381C50.6096 42.1381 50.5287 42.081 50.5477 41.9238C50.5668 41.7619 50.7049 41.7286 50.8668 41.6619C50.9096 41.6429 50.943 41.6333 50.9668 41.6286L50.9477 41.5714C50.8906 41.1667 51.0001 40.8571 51.443 41.0762C51.8763 41.2857 52.7572 41.7714 53.1096 42C53.281 42.1952 53.2953 42.2762 53.043 42.4333C52.8239 42.5524 52.8334 42.8381 52.7144 43.0286C52.6953 43.0571 52.6763 43.0857 52.662 43.1191C53.6001 44.1857 53.9287 44.7095 52.9906 46.1286C52.6858 46.5952 52.6096 46.8524 52.5239 46.9952C52.4287 47.1619 52.3096 47.2048 52.0477 47.2286C52.1763 47.7714 52.1906 48.2571 51.7334 48.8286C51.7144 48.8524 51.6953 48.881 51.6858 48.8952C51.743 48.9381 51.8715 48.9571 51.943 49C52.0144 49.0381 52.2096 49.0667 52.2858 49.0905C53.4715 49.4476 54.3525 50.3 54.9287 51.3952C56.0763 51.2048 56.6191 51.4095 57.843 52.0095C58.7191 52.3952 58.5001 52.819 58.4382 53.519C58.4096 53.8048 58.4477 54.2476 58.1096 54.3714C57.9572 54.4286 57.8572 54.9095 57.8287 55.0333C57.7382 55.4238 57.6572 55.9333 57.5239 56.4381C57.3049 57.2714 57.043 57.5476 56.5191 58.1286C56.4001 58.2619 56.2763 58.4095 56.162 58.5952C55.6811 59.3667 55.1049 59.581 54.2906 59.7667C54.5334 59.9095 54.6239 60.1238 54.743 60.3667H43.1763C43.143 59.8714 42.8572 59.3762 43.1144 58.9143C43.5049 58.2095 44.5572 58.5048 45.1668 58.5619C45.4572 58.5905 45.5906 58.7476 45.7906 58.4048C45.9525 58.1238 46.4144 57.9191 46.9239 57.7333C47.443 57.5429 48.0668 57.3524 48.6049 57.119C49.2287 56.8524 49.5144 57.0762 49.5668 56.081C49.6334 54.8667 49.843 54.4238 50.0239 53.4333C49.2001 53.4095 48.4858 53.1143 47.943 52.8762L47.5239 53.3571L46.7287 53.1571L46.7144 52.9143C46.1049 52.8143 45.3763 52.3 45.4382 52.0333C45.562 51.5857 45.7239 51.7524 45.9715 51.7619C46.1239 51.7667 46.2668 51.9952 46.2572 51.8143C46.2572 51.7667 46.2477 51.7143 46.2477 51.6667C45.7144 51.5381 45.5906 51.3429 45.2287 51.0048C45.1096 50.8905 44.6953 50.6143 44.5144 50.6619C44.4858 50.6714 44.462 50.6857 44.4334 50.6952C44.3382 50.7286 44.2191 50.7191 43.9858 50.6143C43.3334 50.3286 42.2906 50.0143 41.6477 50.2238C41.4572 50.2905 40.1572 50.8048 40.1191 51.081C40.1096 51.219 40.3144 51.5333 40.1287 51.6095C39.9525 51.681 39.8239 51.6381 39.6906 51.819C39.5382 52.0191 39.7144 52.4524 39.3668 52.5143C39.0525 52.5762 38.243 52.4667 38.1049 52.0762C38.2525 51.181 38.6191 51.219 38.7906 50.6762C39.0287 49.9 39.2001 49.9905 39.543 49.4191C39.9811 48.6952 40.2763 48.2524 40.8239 47.8905C41.1525 47.6714 41.5763 47.7048 42.0096 47.7857C42.4287 47.8619 42.8906 47.9905 43.362 48.0238C43.5144 47.7905 43.5668 47.6286 43.8001 47.4286C44.0668 47.1952 44.1906 46.7191 44.2334 46.5286C44.2763 46.3524 44.2715 46.2905 44.262 46.2762C44.1858 46.2619 43.7572 46.5286 43.8191 46.0857C43.7001 46.1619 43.5525 46.2048 43.4477 46.0619C43.3477 45.9238 43.3239 45.9476 43.1811 45.8905C42.8953 45.7762 42.7191 45.4286 42.9477 44.8905C43.1239 44.4905 43.2858 44.1714 43.3572 43.9333C43.5144 43.4286 43.062 43.6667 43.0239 43.3667C43.0001 43.1952 43.2382 43.1048 43.3525 43.0333C43.4001 43 43.5239 42.9191 43.562 42.8619C43.3715 42.7095 43.3382 42.7095 43.2906 42.3952L43.2811 42.3191C43.4191 42.2714 43.5049 42.2333 43.6572 42.2619C43.7763 42.2857 43.9525 42.3476 44.2858 42.4714C44.5906 42.581 45.0906 42.3524 45.4811 42.4143C46.4191 42.5571 46.962 42.9333 47.5668 43.6476C48.0668 44.2429 48.1287 44.7619 48.3811 45.4619C48.543 45.9238 48.3525 46.2667 49.0001 46.1524C49.2049 46.1143 49.4096 46.0429 49.5001 45.9952C49.5477 45.9714 49.581 45.9143 49.4668 45.7476C49.3668 45.6 49.181 45.4381 48.9906 45.3381C48.5953 45.1286 48.143 45.0286 48.0715 44.5C48.0049 44.0476 48.5525 43.7571 49.0001 43.6286C49.3572 43.5238 49.9049 43.5048 50.2096 43.3619C50.4096 43.2619 50.6001 43.2476 50.8144 43.2619M52.1144 57.5857C51.8382 57.7619 51.5572 57.9333 51.2811 58.1143C50.2668 57.8905 50.1953 58.2476 49.7858 58.9333C49.1668 58.7952 49.0906 58.9048 48.5287 58.9238C48.0001 58.9429 47.562 58.9524 47.0334 59.0381C46.943 58.6571 47.1382 58.5762 47.4811 58.5476C47.7334 58.5286 48.0096 58.5524 48.2525 58.481C49.0668 58.0048 49.943 57.6857 50.3239 57.5667C50.5953 57.4762 50.8811 57.3762 50.9191 57.0667C50.9287 56.9952 50.9287 56.9191 50.9382 56.8333C50.9811 56.4048 51.0334 56.0762 51.2572 55.7095C51.5763 55.1952 51.8287 55.4143 52.0858 55.7571C52.1715 55.8714 52.2715 56.0191 52.3906 56.1762C52.943 56.9238 52.781 57.1619 52.1191 57.5905M53.3668 55.7238C53.0953 55.3524 52.962 55.181 52.8906 54.7095C52.4858 54.8429 51.3334 53.6619 52.4191 55.4857C52.5906 55.519 52.3525 54.7429 52.6239 54.8095C52.8953 55.1619 52.862 55.9286 53.3668 55.7238ZM56.1096 51.8333C56.5144 51.7667 56.8191 51.9 57.262 52.2714C57.8049 52.4762 57.8715 52.7429 57.8715 53.3524C57.6763 53.3571 57.162 52.6095 57.3287 53.3524C57.3763 53.6095 57.4191 53.9762 57.2144 53.7381C57.1001 53.419 56.943 52.9238 56.9096 53.5667C56.2715 52.9571 55.962 52.4524 55.2668 51.9762C55.6477 52.1095 56.681 52.2524 56.1144 51.8286M53.1049 53.0143L52.9715 52.6905C53.3287 52.6429 53.5668 52.6095 53.9191 52.2714C54.2763 52.7571 53.4096 52.7381 53.1049 53.0143ZM51.8858 49.7095L52.8858 51.9762C52.8858 51.9762 53.3715 51.5238 53.3049 51.9095C53.1287 52.081 53.0049 52.2 52.8287 52.3714L51.543 49.2714C52.2191 49.6095 54.181 50.1857 54.7572 52.281C54.5144 52.2381 53.9525 52.4714 54.1001 52.1667C54.3525 51.6714 54.1953 51.0619 54.1001 51.2667C53.9287 51.6238 53.8953 51.5714 53.5239 51.3524C53.443 50.4381 53.3001 50.4048 53.1668 51.0286C52.8096 50.2714 52.4572 49.8905 51.881 49.7095M51.2715 53.4667C50.4477 52.3143 51.2572 51.581 52.0001 52.2571C52.2239 52.3381 52.0001 51.8191 52.0001 51.5476L52.4953 52.6619C51.7715 52.6095 51.5525 52.9952 51.2715 53.4667ZM51.0953 49.0619L51.4668 50.1095C51.5001 50.2048 51.3572 50.2571 51.3239 50.1619L50.9525 49.1143C50.9191 49.0191 51.062 48.9667 51.0953 49.0619ZM46.9953 51.9286L46.7382 51.7952L46.6906 52.0095L46.8953 52.0429L46.9953 51.9286ZM48.6334 51.7238C48.8572 51.7048 48.6191 51.2524 48.2477 51.2143C48.0763 51.081 47.9572 50.6524 47.4715 50.7857C46.9287 50.5143 46.8001 50.6143 46.843 50.5333C46.8763 50.4667 48.0953 50.5333 48.5334 51.0762C48.8049 51.0286 49.0763 51.281 49.243 50.9429C49.243 51.3143 49.343 51.6191 48.9715 51.5524C49.0049 51.8905 48.9382 51.8571 48.4287 51.8571C48.0572 51.7571 48.5525 51.7714 48.6334 51.7238ZM48.7668 48.1714C49.0049 48.3048 48.4287 48.5429 48.7668 49.0191C48.9715 49.3095 49.0382 49.9143 49.2049 50.4762C49.3049 48.9524 49.4096 47.8714 48.1239 47.6667C48.0906 48.0714 48.1572 48.3429 48.7668 48.1762M52.5144 45.8095C52.462 45.5667 52.8572 45.5048 52.7572 45.419C52.5811 45.4381 52.4715 45.5333 52.3096 45.481C52.3049 45.7714 52.2191 45.9476 51.9763 46.0905C52.5382 46.1095 52.5525 46.0762 52.5096 45.8143M52.9906 44.881C52.943 44.8524 52.8096 45.0095 52.7382 45.1191C52.662 45.2286 52.7572 45.2286 52.8144 45.2667C52.9096 45.3333 53.1477 45.2619 53.0858 45.1381C53.0382 45.0571 53.0096 44.8952 52.9906 44.881ZM50.6287 43.9476C50.762 44.4143 50.9191 44.5476 50.9477 45.0952C50.9525 45.1952 50.8001 45.2048 50.7953 45.1048C50.7668 44.6048 50.6049 44.4333 50.4811 43.9905C50.4525 43.8905 50.6001 43.8524 50.6287 43.9476ZM52.9096 44.7667C53.1477 44.2048 52.4477 44.0714 52.3334 43.6143C52.2811 43.9524 51.8715 43.9524 51.4525 43.9191C51.1001 43.8905 51.0715 43.8524 50.843 43.819C51.0001 44.0095 50.9239 44.5143 51.262 44.3286C50.9906 43.8571 52.162 44.0714 51.8715 44.581C51.9382 44.9381 52.3096 43.9714 52.5144 44.2762C52.5191 44.4381 52.443 44.5905 52.5668 44.7048C52.6668 44.7952 52.781 44.7524 52.9049 44.7714M50.4001 47.6619C50.4001 47.6333 50.4334 47.6095 50.4763 47.6095C50.5191 47.6095 50.5525 47.6333 50.5525 47.6619C50.5525 47.6905 50.5191 47.7143 50.4763 47.7143C50.4334 47.7143 50.4001 47.6905 50.4001 47.6619ZM50.6382 46.4048C50.6382 46.2238 50.6334 46.2571 50.4811 46.1C50.4287 46.0381 50.5572 46 50.6144 46C50.8525 45.9857 50.9858 46.1571 51.343 46.0191C51.343 46.2333 51.4763 46.4381 51.7144 46.5952C51.2763 46.8 50.9906 46.181 50.6334 46.4048M49.0239 47.8619C48.862 47.6238 48.7477 47.4762 48.5858 47.2381C48.6001 47.1571 48.5715 47.0333 48.6525 47.0143C48.7049 47 48.0763 46.9476 48.0953 47.0143C48.1239 47.1238 48.281 47.1 48.3477 47.2048C48.3906 47.2667 48.4715 47.3762 48.4144 47.3857C48.1287 47.4714 48.7049 47.4191 49.0239 47.8571M49.7001 47.6524C49.3953 47.4762 49.2144 47.3524 48.9096 47.181C49.1811 47.2095 49.3906 47.1476 49.6525 47.2667C49.8525 47.3619 50.2382 47.4524 50.0906 47.6191C49.9906 47.7333 50.1239 47.8905 49.7001 47.6524ZM48.8382 46.9286C49.1906 46.8952 49.8001 46.8762 49.7668 46.8048C49.4287 46.7095 48.8525 46.419 48.7858 46.5905C48.7334 46.7238 48.8382 46.7857 48.8382 46.9286ZM50.4096 45.2524C50.443 44.9333 50.3144 44.6524 50.0239 44.5619C49.8334 44.2905 49.4144 44.5286 49.6858 44.8C49.7858 44.9 49.9572 45.0714 49.8668 45.3095C50.0572 45.3762 50.1239 45.5143 49.9906 45.7476C50.1382 45.9048 50.162 45.9857 49.9572 46.1667C50.1715 46.3 50.2763 46.3714 50.0906 46.7762C50.0049 46.9857 50.2001 47 50.262 47.1333C50.2811 46.8333 50.7001 46.7048 50.3287 46.319C50.3811 46.0143 50.462 45.6762 50.4096 45.2476M49.3477 44.5381C49.0906 44.0286 50.362 43.981 49.9049 43.9143C49.6001 43.9905 49.2287 43.9952 49.1287 44.1191C49.081 44.181 49.1668 44.281 49.1144 44.3571C49.062 44.4381 48.9477 44.381 48.8906 44.4571C48.7763 44.6 49.1906 44.5048 49.3525 44.5381M39.8763 50.5619C39.7049 50.6048 39.6049 50.6429 39.4382 50.6857C39.5953 50.5143 39.681 50.4 39.8239 50.2238C40.0953 50.0905 40.1001 50.4143 39.8763 50.5619ZM42.0239 48.9381C42.5858 49.0143 43.0049 48.9381 43.8049 49.1952C44.0191 49.2095 43.9334 48.8143 43.8191 48.9048C43.7049 48.9952 43.4811 49.0619 43.4334 48.8714C43.3239 48.419 42.4572 48.9 42.0239 48.9381ZM44.4953 48.3619C44.2668 48.4429 44.1763 48.3952 43.9049 48.5667C44.1763 48.7238 44.5001 48.9667 44.5525 48.9857C44.5953 49 44.662 48.9333 44.6668 48.8857C44.6953 48.7571 44.4096 48.5143 44.4906 48.3667M46.8953 47.7905C46.762 48.0667 46.7953 48.2857 46.5239 48.5191C46.3668 48.6524 46.3191 48.8381 46.2382 49.0619C46.162 49.2714 45.9191 49.2857 45.6763 48.8905C44.6144 48.7333 45.3239 48.5524 44.7477 48.4286C44.7477 48.4286 44.4763 48.319 44.9287 48.3619C45.2715 48.3905 45.462 48.4571 45.7953 48.3952C46.2763 48.3048 46.4715 48.0095 46.8906 47.7857M44.0334 44.3333H44.1334V44.4571H44.0334V44.3333ZM46.4858 43.5905C46.6144 43.881 46.7715 43.981 46.8239 44.3571C46.8906 44.7762 47.062 45 47.1477 45.2857C47.1668 45.3619 47.3858 45.8619 46.9572 45.4333C46.5239 45 46.3525 44.6429 46.1096 44.1191C46.0334 44.2191 46.043 44.3476 45.981 44.4571C45.9668 44.4905 45.9287 44.8905 45.8715 44.4714C45.7287 43.3333 45.4049 42.9333 44.8953 43.1714C45.1239 43.5191 45.2763 43.7191 45.5049 44.0667C45.5049 43.8857 45.4287 43.5714 45.4906 43.581C45.6144 43.5952 45.6525 43.7143 45.6858 43.8333C45.7096 43.9143 45.6668 44.0048 45.6906 44.0476C45.8239 44.2714 45.7334 44.6286 45.5287 45.3524C45.4858 45.5 45.3668 45.6571 45.6191 45.781C45.8906 45.9143 45.9906 45.4905 46.1287 45.2381C46.1811 45.1381 46.362 45.1952 46.4668 45.2714C46.6525 45.4095 46.4049 45.6381 46.3811 45.8619L47.6334 45.9476C47.4763 44.7619 47.2287 43.9191 46.4811 43.5905M53.7763 58.6L54.7049 58.6667L55.2477 58.3286L54.5049 58.5L53.7811 58.6H53.7763ZM55.3477 57.7L55.5525 57.1571L56.3668 56.8857L55.3525 57.7H55.3477ZM49.6287 51.1571L49.4953 51.5619L49.9668 51.6286L49.6287 51.1571ZM41.5763 48.8571L40.9668 48.9905L40.4477 49.3429L40.1572 49.8714L40.8334 49.4667L41.1049 49.1952L41.5763 48.8571ZM46.4477 46.0952C47.1906 46.3 47.9572 46.3524 47.9572 46.4C47.9572 46.5714 48.2287 46.7571 48.0715 46.8381C47.9906 46.881 47.9287 46.8381 47.8334 46.8238C47.2239 46.7571 46.8477 46.5571 46.4477 46.0952ZM46.162 46.7048C45.9572 46.5238 45.9906 46.4524 46.2096 46.3667L45.8572 46.0952C45.6525 46.2667 45.6525 46.4191 45.0906 46.1476C45.0763 46.181 45.043 46.2 45.0239 46.2286C46.0858 46.5333 45.6049 47.0286 45.0763 46.8714C44.8049 46.7905 44.2287 47.3667 45.4953 47.3095C45.5572 47.4191 45.5763 47.5381 45.6858 47.6C45.8001 47.6667 46.1049 47.6333 46.343 47.6C47.4477 47.4286 46.943 46.7524 46.3096 47.1714C45.8239 47.4952 45.6191 47.4952 45.7572 47.0905C45.3858 47.3619 45.4953 47.0143 45.5334 46.9667C45.6572 46.8333 45.9144 46.6476 46.162 46.6952M49.9668 49.4571C49.8668 49.8095 49.9191 51.0619 49.6811 50.3857C49.0858 50.5571 49.4858 49.8905 49.3763 49.5952C49.6191 49.5333 49.7191 49.5191 49.9668 49.4619M50.5953 50.1714C50.4239 49.8667 50.3572 51.1333 50.2049 50.6571C50.2525 50.3857 50.3382 50.2714 50.2953 49.981C50.2525 49.7238 50.9382 49.6762 50.9858 50.5429C50.5953 50.6762 50.6668 50.3857 50.6001 50.1714M52.9144 56.1286C53.0477 56.3429 52.743 57.281 53.2858 56.7048C53.5001 56.7667 53.4906 56.6714 53.862 56.8762C53.6906 56.2 53.2858 56.7429 52.9144 56.1333M52.3953 57.7095C52.0477 58.0571 51.9287 58.1571 51.4191 58.3381C51.3239 58.3714 51.2715 58.2286 51.3668 58.1952C51.8572 58.0238 51.9525 57.9333 52.2858 57.6048C52.3572 57.5333 52.4668 57.6429 52.3953 57.7143M51.743 58.8619C51.8144 58.8238 51.9096 58.7524 52.0763 58.6095C52.6668 58.1048 53.3191 57.7143 53.9811 57.3143C54.362 57.081 54.4049 56.7191 54.0906 56.2952C53.7525 55.8476 53.6144 55.3762 53.3668 54.8857C54.3525 54.3 54.4096 53.9143 54.9811 53C55.9287 53.6048 56.0715 53.9571 56.2191 55.0429C55.7525 55.7429 55.562 56.4 55.3668 57.2095C55.1572 58.0667 54.5239 58.2667 53.7858 58.3429C53.7382 58.3429 53.7049 58.3524 53.6811 58.3571C53.4144 58.4381 53.6239 58.7333 53.362 58.8905C53.1001 59.0429 52.9668 58.8429 52.6191 59.0571C52.3334 59.2333 52.0715 59.3 51.7191 59.2333C51.3715 59.1619 51.0477 59.1191 50.6906 59.1048V59.0191C50.6906 58.5333 51.2811 58.8286 51.5382 58.7619C51.5572 58.7571 51.5763 58.7524 51.5953 58.7524C51.6668 58.7524 51.7239 58.7952 51.743 58.8619Z" fill="#121516"/>
<path fill-rule="evenodd" clip-rule="evenodd" d="M45.0239 67.2714V63.281H44.5715V62.4952H45.943V67.2714H45.0239Z" fill="#DB4440"/>
<path fill-rule="evenodd" clip-rule="evenodd" d="M48.6049 65.3333C48.4001 65.4952 48.2001 65.5762 47.9954 65.5762C47.6954 65.5762 47.462 65.4524 47.2906 65.2C47.1192 64.9476 47.0334 64.6 47.0334 64.1571C47.0334 63.6 47.1477 63.1762 47.3763 62.8762C47.6049 62.5809 47.9287 62.4333 48.3573 62.4333C48.762 62.4333 49.0763 62.5809 49.3001 62.8762C49.5239 63.1667 49.6382 63.5762 49.6382 64.1048C49.6382 64.6333 49.443 65.3286 49.0573 66.1667L49.0144 66.2571L48.5525 67.2762H47.6287L48.3668 65.781C48.3668 65.781 48.3715 65.7667 48.3811 65.7524C48.4477 65.6143 48.5239 65.4762 48.6049 65.3381M48.3192 63.281C48.0858 63.281 47.9668 63.5286 47.9668 64.0286C47.9668 64.5286 48.0858 64.7762 48.3192 64.7762C48.5525 64.7762 48.6763 64.5286 48.6763 64.0286C48.6763 63.5333 48.5573 63.281 48.3192 63.281Z" fill="#DB4440"/>
<path fill-rule="evenodd" clip-rule="evenodd" d="M51.0573 64.4381C51.2668 64.2857 51.4668 64.2095 51.6525 64.2095C51.9525 64.2095 52.1858 64.3286 52.3573 64.5714C52.5287 64.8143 52.6144 65.1524 52.6144 65.581C52.6144 66.1333 52.5001 66.5667 52.2715 66.8714C52.043 67.181 51.7287 67.3333 51.3239 67.3333C50.9001 67.3333 50.5715 67.1905 50.343 66.9048C50.1144 66.6191 50.0049 66.2048 50.0049 65.6762C50.0049 65.1476 50.2096 64.4667 50.6239 63.6191L50.6763 63.5095L51.1668 62.4905H52.0811L51.3192 63.9905C51.2287 64.1667 51.143 64.3143 51.062 64.4333M51.3192 66.4905C51.562 66.4905 51.6858 66.2429 51.6858 65.7524C51.6858 65.2619 51.5715 65.0048 51.3477 65.0048C51.1001 65.0048 50.9763 65.2714 50.9763 65.8095C50.9763 66.2619 51.0906 66.4905 51.3192 66.4905Z" fill="#DB4440"/>
<path fill-rule="evenodd" clip-rule="evenodd" d="M52.9573 67.1429L53.0763 66.281C53.3144 66.4238 53.5478 66.4952 53.7668 66.4952C54.262 66.4952 54.5097 66.2381 54.5097 65.7238C54.5097 65.1333 54.1239 64.8381 53.3525 64.8381C53.3287 64.8381 53.2668 64.8381 53.1573 64.8476C53.1478 64.8476 53.1287 64.8476 53.1097 64.8476L53.4382 62.4857H55.3001V63.2952H54.1001L53.9811 64.1667H54.0144C54.462 64.1667 54.8144 64.2952 55.0668 64.5571C55.3192 64.8143 55.4478 65.1714 55.4478 65.6286C55.4478 66.1524 55.3049 66.5619 55.0239 66.8667C54.743 67.1714 54.362 67.3238 53.8763 67.3238C53.5239 67.3238 53.2144 67.2619 52.9478 67.1381" fill="#DB4440"/>
<path fill-rule="evenodd" clip-rule="evenodd" d="M35.3096 36.781V35.9857C35.5001 36.1524 35.6905 36.2381 35.8715 36.2381C36.1477 36.2381 36.2858 36.1095 36.2858 35.8571C36.2858 35.7143 36.1858 35.5571 35.9858 35.3857C35.9477 35.3524 35.9096 35.319 35.862 35.2762C35.6334 35.0667 35.4715 34.881 35.381 34.7095C35.2953 34.5476 35.2524 34.3571 35.2524 34.1429C35.2524 33.8143 35.3429 33.5476 35.5286 33.3429C35.7143 33.1381 35.9572 33.0381 36.2572 33.0381C36.462 33.0381 36.6763 33.1 36.9001 33.2286V33.9048C36.6667 33.7905 36.4953 33.7333 36.3905 33.7333C36.281 33.7333 36.1905 33.7667 36.1191 33.8381C36.0477 33.9048 36.0143 33.9952 36.0143 34.1095C36.0143 34.2143 36.0429 34.3048 36.0953 34.3857C36.1524 34.4762 36.2763 34.6 36.462 34.7619C36.7096 34.9762 36.8763 35.1571 36.9572 35.3095C37.0286 35.4476 37.0667 35.619 37.0667 35.8381C37.0667 36.1857 36.9667 36.4619 36.7715 36.6619C36.5763 36.8619 36.3096 36.9619 35.9715 36.9619C35.7143 36.9619 35.4953 36.9 35.3096 36.781Z" fill="#DB4439"/>
<path fill-rule="evenodd" clip-rule="evenodd" d="M37.5668 36.9143L38.4572 33.0905H39.2573L40.1049 36.9143H39.343L39.2144 36.2429H38.4477L38.3287 36.9143H37.5668ZM38.5858 35.6476H39.0953C38.9906 35.1048 38.9049 34.5191 38.843 33.881C38.7668 34.4524 38.6811 35.0429 38.5858 35.6476Z" fill="#DB4439"/>
<path fill-rule="evenodd" clip-rule="evenodd" d="M40.5953 36.9143L40.9715 33.0905H41.9525L42.1525 34.5476C42.2096 34.9571 42.2477 35.3667 42.2763 35.7762C42.3382 35.1238 42.381 34.7095 42.4096 34.5476L42.6572 33.0905H43.6287L43.9525 36.9143H43.1811L43.1001 35.1381C43.1001 35.1048 43.1001 35.0381 43.0906 34.9476C43.0668 34.4714 43.0572 34.0905 43.0572 33.8048L42.562 36.9095H42.0096L41.543 33.781C41.543 34.0381 41.5287 34.4095 41.4953 34.8952L41.4811 35.1429L41.362 36.9095H40.6049L40.5953 36.9143Z" fill="#DB4439"/>
<path fill-rule="evenodd" clip-rule="evenodd" d="M44.643 36.781V35.9857C44.8334 36.1524 45.0239 36.2381 45.2049 36.2381C45.4811 36.2381 45.6192 36.1095 45.6192 35.8571C45.6192 35.7143 45.5191 35.5571 45.3191 35.3857C45.2811 35.3524 45.2382 35.319 45.1953 35.2762C44.9668 35.0667 44.8049 34.881 44.7144 34.7095C44.6287 34.5476 44.5858 34.3571 44.5858 34.1429C44.5858 33.8143 44.6763 33.5476 44.862 33.3429C45.0477 33.1381 45.2906 33.0381 45.5906 33.0381C45.7953 33.0381 46.0096 33.1 46.2334 33.2286V33.9048C45.9953 33.7905 45.8287 33.7333 45.7239 33.7333C45.6144 33.7333 45.5239 33.7667 45.4525 33.8381C45.3811 33.9048 45.3477 33.9952 45.3477 34.1095C45.3477 34.2143 45.3715 34.3048 45.4287 34.3857C45.4858 34.4762 45.6096 34.6 45.7953 34.7619C46.043 34.9762 46.2096 35.1571 46.2906 35.3095C46.362 35.4476 46.4001 35.619 46.4001 35.8381C46.4001 36.1857 46.3001 36.4619 46.1049 36.6619C45.9096 36.8619 45.643 36.9619 45.3049 36.9619C45.0477 36.9619 44.8287 36.9 44.643 36.781Z" fill="#DB4439"/>
<path fill-rule="evenodd" clip-rule="evenodd" d="M49.5858 33.0952V35.4952C49.5858 35.9667 49.5477 36.2762 49.4715 36.4238C49.2905 36.7857 48.9286 36.9619 48.3906 36.9619C47.8525 36.9619 47.4905 36.781 47.3096 36.4238C47.2334 36.2714 47.1953 35.9619 47.1953 35.4952V33.0952H47.9572V35.5571C47.9572 35.8571 47.9906 36.0619 48.0525 36.1571C48.1096 36.2476 48.2239 36.2952 48.3906 36.2952C48.5572 36.2952 48.6763 36.2476 48.7382 36.1524C48.7953 36.0571 48.8286 35.8571 48.8286 35.5571V33.0952H49.5858Z" fill="#DB4439"/>
<path fill-rule="evenodd" clip-rule="evenodd" d="M50.5668 36.9143V33.0905H51.3382L52.1096 35.1476C52.143 35.2381 52.2239 35.5 52.343 35.9381C52.262 35.4095 52.2239 34.9524 52.2239 34.5619V33.0952H52.9287V36.919H52.2239L51.3858 34.781C51.3715 34.7429 51.3334 34.6095 51.2763 34.3905L51.2096 34.1429C51.243 34.4381 51.262 34.8286 51.262 35.3095V36.919H50.562L50.5668 36.9143Z" fill="#DB4439"/>
<path fill-rule="evenodd" clip-rule="evenodd" d="M53.8239 36.781V35.9857C54.0143 36.1524 54.2048 36.2381 54.3858 36.2381C54.662 36.2381 54.8001 36.1095 54.8001 35.8571C54.8001 35.7143 54.7001 35.5571 54.5001 35.3857C54.462 35.3524 54.4191 35.319 54.3762 35.2762C54.1477 35.0667 53.9858 34.881 53.8953 34.7095C53.8096 34.5476 53.7667 34.3571 53.7667 34.1429C53.7667 33.8143 53.8572 33.5476 54.0429 33.3429C54.2286 33.1381 54.4715 33.0381 54.7715 33.0381C54.9762 33.0381 55.1905 33.1 55.4143 33.2286V33.9048C55.181 33.7905 55.0096 33.7333 54.9048 33.7333C54.7953 33.7333 54.7048 33.7667 54.6334 33.8381C54.562 33.9048 54.5286 33.9952 54.5286 34.1095C54.5286 34.2143 54.5572 34.3048 54.6096 34.3857C54.6667 34.4762 54.7905 34.6 54.9762 34.7619C55.2239 34.9762 55.3905 35.1571 55.4715 35.3095C55.5429 35.4476 55.581 35.619 55.581 35.8381C55.581 36.1857 55.481 36.4619 55.2858 36.6619C55.0905 36.8619 54.8239 36.9619 54.4858 36.9619C54.2286 36.9619 54.0096 36.9 53.8239 36.781Z" fill="#DB4439"/>
<path fill-rule="evenodd" clip-rule="evenodd" d="M56.4001 36.9143V33.0905H57.1954C58.024 33.0905 58.4382 33.4619 58.4382 34.2C58.4382 34.5571 58.3382 34.8381 58.143 35.0333C57.9478 35.2286 57.6668 35.3286 57.3144 35.3286C57.243 35.3286 57.1859 35.3286 57.143 35.3238V36.9095H56.4001V36.9143ZM57.1382 34.7476C57.1382 34.7476 57.1573 34.7476 57.1763 34.7476C57.2001 34.7476 57.2144 34.7476 57.2192 34.7476C57.5525 34.7476 57.7144 34.5667 57.7144 34.2048C57.7144 33.8429 57.5478 33.6714 57.2192 33.6714C57.2144 33.6714 57.2001 33.6714 57.1763 33.6714C57.1573 33.6714 57.143 33.6714 57.1382 33.6714V34.7333V34.7476Z" fill="#DB4439"/>
<path fill-rule="evenodd" clip-rule="evenodd" d="M61.8049 35.0619C61.8049 35.6429 61.681 36.1048 61.4382 36.4476C61.1953 36.7905 60.8668 36.9619 60.4572 36.9619C60.0477 36.9619 59.7049 36.7905 59.4715 36.4476C59.2382 36.1 59.1191 35.6238 59.1191 35.0095C59.1191 34.3952 59.2382 33.9191 59.4763 33.5714C59.7144 33.2238 60.043 33.0476 60.462 33.0476C60.881 33.0476 61.2096 33.2286 61.4477 33.5857C61.6858 33.9429 61.8049 34.4333 61.8049 35.0667M60.4572 36.2429C60.8477 36.2429 61.043 35.8333 61.043 35.0143C61.043 34.1905 60.8477 33.781 60.4572 33.781C60.0668 33.781 59.8763 34.1905 59.8763 35.0143C59.8763 35.8381 60.0715 36.2429 60.4572 36.2429Z" fill="#DB4439"/>
<path fill-rule="evenodd" clip-rule="evenodd" d="M62.6763 36.9143V33.0905H63.4715C63.9096 33.0905 64.2239 33.1762 64.4191 33.3476C64.6144 33.519 64.7144 33.7905 64.7144 34.1667C64.7144 34.7048 64.5144 35.0381 64.1096 35.1714L64.8429 36.9143H64.0382L63.4144 35.3333V36.9143H62.6763ZM63.4144 34.7476C63.4144 34.7476 63.4334 34.7476 63.4572 34.7476C63.481 34.7476 63.4953 34.7476 63.5001 34.7476C63.8334 34.7476 64.0001 34.5667 64.0001 34.2C64.0001 33.8476 63.8382 33.6714 63.5144 33.6714C63.4715 33.6714 63.4382 33.6714 63.4144 33.6762V34.7381V34.7476Z" fill="#DB4439"/>
<path d="M49.9573 78.2476L49.4953 77.9381C49.4192 77.8857 41.7525 72.7333 36.1572 67.7238C30.3715 62.5429 29.0715 51 29.0715 47.3619V26.1905H70.9191V37.481C70.9191 47.7 70.3239 54.5429 69.0477 59.0238C67.8525 63.2143 66.1811 65.019 64.4049 66.9333C64.0001 67.3714 63.5763 67.8238 63.1572 68.3143C59.0811 73.0714 50.7811 77.7809 50.4334 77.9809L49.9525 78.2524L49.9573 78.2476ZM30.8715 27.9857V47.3619C30.8715 50.1524 31.9715 61.5571 37.3572 66.3809C42.0715 70.6048 48.3049 74.9429 50.0334 76.1286C51.862 75.0524 58.4668 71.0238 61.8001 67.1381C62.243 66.6238 62.6715 66.1571 63.0906 65.7048C66.462 62.0714 69.1239 59.1952 69.1239 37.4762V27.9857H30.8715Z" fill="#DB4440"/>
<path d="M66.5096 38.0048H33.4954V39.8H66.5096V38.0048Z" fill="#DB4440"/>
<path d="M49.9572 73.8429L49.4953 73.5333C49.4334 73.4905 43.1049 69.2381 38.4858 65.1C33.6763 60.7905 32.5906 51.2143 32.5906 48.2V29.7524H67.4001V40.0524C67.4001 57.7048 65.343 60.8191 61.9906 64.4381C61.6572 64.8 61.3096 65.1714 60.9668 65.5714C57.5858 69.5143 50.7287 73.4095 50.4382 73.5714L49.9572 73.8429ZM34.3906 48.2C34.3906 50.4857 35.2906 59.8238 39.6858 63.7619C43.4953 67.1714 48.5049 70.6762 50.0382 71.7286C51.6525 70.7762 56.9287 67.5286 59.6096 64.4C59.9763 63.9714 60.3334 63.5857 60.6763 63.2143C63.4287 60.2429 65.6049 57.8952 65.6049 40.0524V31.5476H34.3906V48.2Z" fill="#DB4440"/>
<path d="M30.7095 11.3381L31.1143 12.0714L28.9 13.2952L29.2476 13.9286L31.2143 12.8429L31.6143 13.5714L29.6476 14.6572L30.1333 15.5333L29.2714 16.0095L27.6333 13.0429L30.7095 11.3429V11.3381Z" fill="black"/>
<path d="M36.2999 12.6238L35.7618 12.1524L33.8285 12.9381L33.7714 13.6524L32.7904 14.0524L33.1333 10.2571L34.3904 9.74762L37.2809 12.2286L36.3047 12.6238H36.2999ZM33.8952 12.1143L35.1333 11.6095L34.0142 10.6333L33.8952 12.1143Z" fill="black"/>
<path d="M41.3476 10.1762L40.7619 7.81906L41.7095 7.58572L42.5238 10.8762L41.1286 11.2238L38.6048 9.34763L39.1905 11.7048L38.2381 11.9429L37.4238 8.65239L38.8238 8.30477L41.3476 10.181V10.1762Z" fill="black"/>
<path d="M46.119 6.96191L50.2 6.79524L50.2333 7.62858L48.6857 7.69048L48.7904 10.2429L47.8095 10.281L47.7047 7.72858L46.1524 7.79048L46.119 6.95715V6.96191Z" fill="black"/>
<path d="M51.3905 8.49525C51.4857 7.3762 52.3143 6.78096 53.7381 6.90477C55.1572 7.02858 55.8762 7.75715 55.781 8.87144C55.6857 9.99049 54.8524 10.5952 53.4334 10.4714C52.0096 10.3476 51.2953 9.61906 51.3905 8.49525ZM54.7572 8.78572C54.8096 8.20001 54.5048 7.80953 53.6667 7.73811C52.8334 7.66668 52.4667 7.99049 52.4191 8.58572C52.3667 9.18096 52.6762 9.57144 53.5048 9.64287C54.3381 9.7143 54.7096 9.38096 54.7619 8.79049L54.7572 8.78572Z" fill="black"/>
<path d="M61.6237 8.36667L59.6333 9.38095L60.8809 11.6762L59.6761 11.4048L58.8095 9.80476L57.8618 10.2857L57.7095 10.9571L56.7523 10.7381L57.4999 7.42857L58.4618 7.64286L58.1285 9.12857L60.1952 8.0381L61.6333 8.36191L61.6237 8.36667Z" fill="black"/>
<path d="M66.3285 9.99524L66.0666 10.7191L63.6856 9.85715L63.4999 10.3667L65.7904 11.1952L65.5285 11.9191L63.238 11.0905L63.0523 11.6L65.4332 12.4619L65.1713 13.1857L61.8666 11.9905L63.019 8.8L66.3237 9.99524H66.3285Z" fill="black"/>
<path d="M69.7618 14.3524L70.8761 12.1905L71.7476 12.6381L70.1904 15.6524L68.9095 14.9905L68.2476 11.9095L67.1333 14.0714L66.2571 13.6191L67.8142 10.6048L69.0999 11.2667L69.7618 14.3476V14.3524Z" fill="black"/>
<path d="M27.3953 85.4762C27.2476 85.719 27.3953 86.0238 28.1572 86.4857C28.8572 86.9048 29.0953 86.9 29.2048 86.719C29.3334 86.5095 29.2238 86.3905 28.3953 85.8143C27.2667 85.0238 26.8905 84.4762 27.2762 83.8333C27.6429 83.2286 28.4619 83.3476 29.4667 83.9524C30.5857 84.6238 31.0238 85.3524 30.6619 86.0143L29.781 85.4857C29.9334 85.2286 29.7143 84.9619 29.0619 84.5714C28.4429 84.2 28.2429 84.219 28.1476 84.3762C28.0381 84.5571 28.1476 84.6952 28.8953 85.2333C29.9143 85.9571 30.5619 86.4476 30.1048 87.2095C29.6572 87.9524 28.8381 87.7571 27.8048 87.1333C26.6286 86.4238 26.0905 85.7381 26.5096 84.9476L27.3905 85.4809L27.3953 85.4762Z" fill="black"/>
<path d="M31.5238 87.1905C31.9714 86.1571 32.9428 85.8619 34.2571 86.4286C35.5667 86.9952 36.0143 87.9143 35.5714 88.9429C35.1238 89.9762 34.1428 90.281 32.8333 89.7143C31.519 89.1476 31.0762 88.2286 31.5238 87.1905ZM34.6286 88.5381C34.8619 87.9952 34.6952 87.5333 33.9238 87.1952C33.1571 86.8619 32.7047 87.0571 32.4714 87.6C32.2333 88.1476 32.4047 88.6143 33.1667 88.9476C33.9333 89.281 34.3952 89.081 34.6286 88.5333V88.5381Z" fill="black"/>
<path d="M39.3047 88.219C40.5095 88.5571 41.0428 89.2619 40.9047 90.1286L39.9 89.8476C39.919 89.5286 39.6857 89.1905 39.0809 89.0238C38.3809 88.8286 37.9476 89.0762 37.7905 89.6476C37.6285 90.2238 37.8762 90.6667 38.5714 90.8619C39.1762 91.0286 39.5524 90.8619 39.7 90.5714L40.7047 90.8524C40.3714 91.6714 39.5476 92 38.3428 91.6667C37.0333 91.3 36.4857 90.4905 36.7952 89.3714C37.1095 88.2571 37.9952 87.8524 39.3047 88.219Z" fill="black"/>
<path d="M43.3953 89.2286L42.7953 92.5619L41.8286 92.3857L42.4286 89.0524L43.3953 89.2286Z" fill="black"/>
<path d="M44.419 91.1476C44.5095 90.0286 45.3333 89.4333 46.7571 89.5476C48.1762 89.6619 48.9 90.3905 48.8047 91.5048C48.7143 92.6238 47.8857 93.2286 46.4666 93.1143C45.0428 93 44.3238 92.2714 44.419 91.1476ZM47.7857 91.4238C47.8333 90.8381 47.5285 90.4524 46.6905 90.381C45.8571 90.3143 45.4952 90.6429 45.4428 91.2333C45.3952 91.8286 45.7047 92.2143 46.5333 92.2857C47.3666 92.3524 47.7381 92.019 47.7857 91.4238Z" fill="black"/>
<path d="M51.119 92.0476C51.1333 92.3333 51.4238 92.5048 52.3143 92.4571C53.1286 92.4143 53.3238 92.2762 53.3095 92.0619C53.2952 91.8143 53.1428 91.781 52.1333 91.7667C50.7571 91.7429 50.1333 91.5 50.0952 90.7476C50.0571 90.0429 50.8047 89.681 51.9762 89.6238C53.2809 89.5571 54.0524 89.9095 54.119 90.6619L53.0952 90.7143C53.0809 90.4143 52.7476 90.3191 51.9857 90.3571C51.2666 90.3952 51.1095 90.5238 51.119 90.7048C51.1285 90.9143 51.2952 90.9714 52.219 91C53.4666 91.0286 54.2809 91.0714 54.3285 91.9619C54.3714 92.8286 53.5857 93.1238 52.3809 93.1857C51.0095 93.2571 50.1762 92.9857 50.0857 92.0952L51.1143 92.0429L51.119 92.0476Z" fill="black"/>
<path d="M55.7429 92.0429L56.681 91.9048L56.7858 92.6333L55.8477 92.7714L55.7382 92.0429H55.7429Z" fill="black"/>
<path d="M59.4809 88.5381C60.6952 88.2429 61.5095 88.5952 61.8143 89.419L60.8 89.6667C60.6619 89.3762 60.2905 89.2 59.6809 89.3476C58.9762 89.5191 58.719 89.9476 58.8571 90.5286C59 91.1095 59.4333 91.3762 60.1333 91.2048C60.7428 91.0571 60.9905 90.7238 60.9762 90.3952L61.9905 90.1476C62.1 91.0238 61.5428 91.719 60.3286 92.0143C59.0047 92.3381 58.1286 91.9 57.8524 90.7714C57.5762 89.6476 58.1524 88.8619 59.4762 88.5381H59.4809Z" fill="black"/>
<path d="M63.1524 89.3905C62.7382 88.3429 63.2191 87.4429 64.5477 86.919C65.8715 86.3952 66.8429 86.7286 67.2524 87.7714C67.6667 88.8191 67.1858 89.7286 65.862 90.2524C64.5334 90.7762 63.5667 90.4429 63.1524 89.3905ZM66.3001 88.1476C66.0858 87.6 65.6382 87.3857 64.8572 87.6952C64.081 88 63.8953 88.4571 64.1143 89.0095C64.3334 89.5667 64.7858 89.7762 65.5572 89.4714C66.3334 89.1667 66.5191 88.7 66.3001 88.1476Z" fill="black"/>
<path d="M69.3381 88.6905L67.6333 85.7571L68.9571 84.9857L71.1095 86.3381L70.9952 83.8L72.319 83.0286L74.0238 85.9619L73.1762 86.4524L71.9428 84.3286L72.0762 87.0952L71.2904 87.5524L68.9524 86.0714L70.1904 88.1952L69.3381 88.6905Z" fill="black"/>
<path d="M23.0191 81.8381C13.9953 74.181 8.26672 62.7571 8.26672 50C8.26672 37.2429 14.3001 25.2143 23.7382 17.5619" stroke="#A43330" stroke-miterlimit="10"/>
<path d="M76.2667 17.5667C85.7048 25.219 91.7334 36.9048 91.7334 50C91.7334 63.0952 86.0048 74.1857 76.981 81.8429" stroke="#A43330" stroke-miterlimit="10"/>
</g>
<defs>
<clipPath id="clip0_1124_14857">
<rect width="100" height="100" fill="white"/>
</clipPath>
</defs>
</svg>
