<svg xmlns="http://www.w3.org/2000/svg" id="Layer_2" viewBox="0 0 210 210"><g id="Layer_1-2"><g><g><circle cx="105" cy="105" r="105" fill="#00833e"></circle><path d="M105,5.32c54.96,0,99.68,44.72,99.68,99.68s-44.72,99.68-99.68,99.68S5.32,159.96,5.32,105,50.04,5.32,105,5.32M105,0C47.01,0,0,47.01,0,105s47.01,105,105,105,105-47.01,105-105S162.99,0,105,0h0Z" fill="#fff"></path></g><g><path d="M142.78,87.18h0c-3.83-4.78-8.66-8.87-14.03-11.91l7.37-18.24-.5-.81c-.38-.57-1.57-2.2-3.82-3.99-1.02-.81-2.14-1.55-3.34-2.21l-1.06-.54c-3.61-1.7-7.96-2.7-12.94-2.99v-5.44h-1.86v-1.9h-15.23v1.9h-1.86v5.44c-4.98,.29-9.33,1.3-12.94,3l-1.06,.54c-1.2,.66-2.32,1.4-3.34,2.21-2.22,1.76-3.41,3.37-3.81,3.98l-.51,.76,7.39,18.3c-5.37,3.04-10.2,7.13-14.03,11.91-6.85,8.54-10.62,19.28-10.62,30.25,0,26.68,21.71,48.39,48.39,48.39s48.39-21.71,48.39-48.39c0-10.97-3.77-21.71-10.62-30.25Z" fill="#fff"></path><path d="M141.71,88.03c-4.03-5.02-9.05-9.15-14.68-12.15l5.26-13.03,2.31-5.72s0,0,0,0c-.07-.12-1.16-1.87-3.63-3.83-1.03-.82-2.31-1.67-3.86-2.46,0,0,0,0,0,0-2.98-1.45-7.49-2.84-13.99-3.05v-5.38h-1.86v-1.9h-12.5v1.9h-1.86v5.38c-6.5,.21-11.01,1.61-13.99,3.05,0,0,0,0,0,0-1.55,.79-2.82,1.64-3.86,2.46-2.47,1.95-3.55,3.7-3.63,3.83,0,0,0,0,0,0l2.31,5.72,5.26,13.03c-5.63,2.99-10.66,7.13-14.68,12.15-6.65,8.3-10.32,18.74-10.32,29.4,0,25.93,21.1,47.03,47.03,47.03s47.03-21.1,47.03-47.03c0-10.66-3.66-21.1-10.32-29.4Z" fill="#292321" fill-rule="evenodd"></path><path d="M146.8,117.43c0,23.09-18.71,41.8-41.8,41.8s-41.8-18.71-41.8-41.8c0-19.77,13.73-36.34,32.17-40.69,3.09-.73,6.32-1.11,9.63-1.11s6.54,.39,9.63,1.11c18.44,4.35,32.17,20.91,32.17,40.69Z" fill="#fff" fill-rule="evenodd"></path><path d="M119.8,84.2l-14.8,3.93-14.8-3.93,5.17-7.45c3.09-.73,6.32-1.11,9.63-1.11s6.54,.39,9.63,1.11l5.17,7.45Z" fill="#00833e" fill-rule="evenodd"></path><path d="M77.85,93.09l-.84,15.29-8.31,12.86-5.49-7.22c.26-3.17,.89-6.35,1.92-9.5,1.02-3.15,2.39-6.1,4.04-8.81l8.69-2.61Z" fill="#00833e" fill-rule="evenodd"></path><path d="M73.49,135.74l14.28,5.52,9.66,11.88-8.56,2.99c-2.93-1.23-5.77-2.81-8.45-4.76-2.68-1.95-5.06-4.16-7.14-6.56l.2-9.07Z" fill="#00833e" fill-rule="evenodd"></path><path d="M112.56,153.14l9.66-11.88,14.28-5.52,.2,9.07c-2.07,2.41-4.45,4.61-7.14,6.56-2.68,1.95-5.52,3.53-8.45,4.76l-8.56-2.99Z" fill="#00833e" fill-rule="evenodd"></path><path d="M141.3,121.24l-8.31-12.86-.84-15.29,8.69,2.61c1.65,2.72,3.01,5.66,4.04,8.81,1.02,3.15,1.65,6.34,1.92,9.5l-5.49,7.22Z" fill="#00833e" fill-rule="evenodd"></path><g><path d="M80.32,121.21c-.43-.1-.89-.16-1.36-.15-4.27,.07-6.88,4.96-4.44,5.12,1.99,.13,4.06-2.23,4.96-3.64,.28-.44,.56-.89,.84-1.34m2.36-1.84c1.51,.58,2.53,1.65,3.34,3,.99-.76,2.02-1.65,2.67-2.65,.15-.23,.24-.49,.29-.77,.19-1.14-.55-2.2-1.34-2.94-.61-.57-1.25-1.01-1.93-1.38-.1,.15-.2,.3-.31,.45,.68,.37,1.32,.81,1.86,1.32,.64,.61,1.34,1.52,1.18,2.46-.16,.94-.98,1.41-1.75,1.78-.21-1.86-1.25-2.68-2.73-3.34-.43,.69-.86,1.38-1.29,2.07Zm-8.55,7.59c-3.34-.16-1.38-8.45,6.15-8.07,.49,.02,.95,.08,1.37,.17,.45-.72,.89-1.45,1.35-2.16-.26-.1-.52-.19-.79-.3-1.62-.6-2.55-.89-3.89-2.15-1.93-1.82-1.2-3.69-.14-4.57,.05,.32,.13,.7,.23,1.01,.56,1.64,2.79,2.47,4.26,3.02,.28,.1,.56,.21,.84,.31,.32,.12,.65,.25,.98,.4,.1-.15,.2-.3,.31-.44-.62-.28-1.27-.52-1.94-.77-1.21-.45-3.2-1.19-3.82-2.41-1.53-2.98,1.41-6.14,4.51-6.14,1.71,0,3.22,.84,4.12,2.14l1.46-1.42,.72,.86-3.87,2.78c-.58-.79-2.02-2.82-3.07-2.94-.12-.01-.26-.01-.38-.01-1.24,0-2.11,1.22-1.69,2.37,.52,1.44,2.76,2.3,4.06,2.79,.5,.18,1.02,.37,1.54,.58,1.13-1.39,2.35-2.64,3.71-3.68l1.16,.11c-1.45,1.1-2.74,2.45-3.93,3.96,1.78,.8,3.33,1.92,3.35,3.97,.03,2.98-4.36,6.67-6.82,7.6-.64-1.06-1.52-1.9-2.57-2.4-.22,.35-.44,.7-.66,1.05-1.14,1.79-4.06,4.47-6.53,4.35Z" fill="#292321" fill-rule="evenodd"></path><path d="M99.71,120.04l-.31,.47c-.47,.1-.88-.12-1.13-.62v-4.65c.3-.48,1.49-1.76,1.49-1.76l-.51-.58-.68,.52c-.45-.1-.93-.83-1.08-1.39l-.98-.05c-.51,.64-1.06,1.57-2.07,1.76-.12,.04-.24,.04-.37,.04,.05-.56-.05-2.05-1.81-1.68-.61,.59-1.13,1.32-.2,2.45,.88,1.09,1.5,2.07,1.5,2.07-1.86,1.05-4.65,4.82-.88,6.05,.83,.07,1.35-.12,1.76-.41,.54-.37,.9-.91,1.54-1.35,.05,.52,.73,2.49,2.33,1.71,.61-.52,1.44-.98,1.81-2.28l-.42-.31Zm-3.67-.45s-.51,.66-1.13,1.03c-.17,.09-.32,.15-.46,.19-.42,.15-.73,.07-1.2-.24-1.03-1.55,.27-3.11,.83-3.36l.37,.44,.51,.59,.68-.73s-.63-.8-1.19-1.49c-.3-.39-.57-.75-.73-.93,.27-.02,.52-.06,.73-.15,.44-.17,.73-.46,.88-.83,0,.46,.4,.66,.71,.93v4.55Z" fill="#292321" fill-rule="evenodd"></path><path d="M99.86,114l1.81-1.96c1.08-.15,1.76,.42,1.76,2.94,1.08-1.15,2.79-2.88,2.79-2.88,.37-.32,1.13-.42,1.46,0,.25,.41,.51,1.32,1.39,.91,.91-.42,.71-.46,.71-.46l.46,.61c-.46,.61-.97,1.44-1.47,1.71v5.73c.15,.26,.2,.41,.41,.41,.22,0,.45-.45,.45-.45l.56,.66-1.53,1.61c-.42,.35-.78,.35-1.08,.2-.32-.1-1.15-1.08-1.15-1.91v-5.78l-.71-1.13-2.18,2.22v4.35c.27,.25,.47,.25,.68,.31,.25,.05,.47-.51,.47-.51l.66,.25-1.66,2.17c-.36,.25-1.08,.25-1.28-.15-.26-.41-.68-.83-.98-.78-.26,.05-.78,.42-.88,.57l-.58-.52s1.15-1.34,1.41-1.44v-5.9c-.16-.35-.36-.71-.99-.2l-.52-.56Z" fill="#292321" fill-rule="evenodd"></path><path d="M111.94,111.93v-4.23l2.33-1.35v5.53c.31,.1,.56,.22,.73,.1,.2-.1,.35-.46,.35-.46h.83c0,.62-.58,1.49-.88,1.79h-1.03v6.61c.31,.41,.31,.62,.56,.45,.22-.15,.73-.61,.73-.61l.63,.73c-.31,.51-1.61,1.64-1.91,1.86-.32,.25-.98,.4-1.3,.2-.35-.27-.3-1.25-1.28-.73-.68,.31-.68,.36-.68,.36l-.46-.76s.93-1,1.39-1.2v-6.72s-.36-.1-.56,.05c-.15,.15-.42,.31-.37,.52h-.78c.17-.52,.37-1.64,.88-2.11l.83-.05Z" fill="#292321" fill-rule="evenodd"></path><path d="M123.98,114.61c.47-.41,1.18-1.19,1.3-1.54l-.42-.71c-.25,.49-.36,.76-.93,.86-.51,.1-1.76-1.01-1.86-1.28-.35-.25-.63-.15-.78,.05-.07,.08-.36,.29-.78,.54-.83,.49-2.18,1.12-3.55,1.05-.37,.42-.42,.62-.32,.83,.15,.2,.52,.2,.62,.57v5.53c-.4,.3-1.18,.93-1.29,1.13l.36,.36c.53-.15,1.03-.51,1.18-.36,.27,.25,.88,1.03,1.08,1.29,.48,.1,.88,.1,1.2-.05,.11-.05,.37-.29,.71-.56,.54-.41,1.24-.88,1.61-.88,.57-.07,2.33-.32,2.54-.27v-.56c-.3-.1-.68-.37-.68-.37v-5.63Zm-2.21,5.95c-.25,.05-.93,.41-.93,.41l-.32-.2-1.23-.78v-5.79l.93-.68c.01,.22,.13,.42,.3,.61,.39,.41,1,.73,1.25,.85v5.58Z" fill="#292321" fill-rule="evenodd"></path><path d="M133.49,120.19v-3.25s.27,.05,.42-.1c.31-.27,.15-.57-.21-.68h-2.84l2.57-3.85s-.2-.52-.4-.68c-.26,.2-.43,.41-1.18,.68-.73,.28-1.55-.58-1.76-.83-.24-.19-.3-.17-.59,.09l-.08,.07c-.35,.58-1.03,.93-2.01,1.27-1.08,.12-1.36,.22-1.81,.42-.1,.41,.51,.67,.88,.88v2.79s-.37,.21-.78,.41c-.41,.27-.25,.63,.15,.78h2.43l-2.64,4.13,.73,.27c1.27-1.08,2.56-.57,3.13-.06,.02,.01,.05,.03,.07,.06,.2,.31,.57,.26,.78,.1,.36-.83,2.44-1.56,3.42-1.76,.25-.05,.3-.15,.3-.41,0-.27-.2-.12-.57-.32Zm-4-6.04c.76,.15,1.76-.19,2.4-.78l-2.03,2.94h-1.39l-.05-3.1c.15,.54,.56,.83,1.06,.93Zm1.83,6.56c-.54-.37-.92-.91-1.83-.76-.24,.03-.51,.1-.81,.23-1.49,.63-.93,.2-.93,.2l1.74-2.5,.32-.49h1.51v3.31Z" fill="#292321" fill-rule="evenodd"></path><g><path d="M93.38,100.15v-.02c0-1.8,1.39-3.22,3.26-3.22,1.26,0,2.08,.53,2.63,1.29l-1.29,1c-.35-.44-.76-.73-1.35-.73-.87,0-1.48,.73-1.48,1.64v.02c0,.93,.61,1.65,1.48,1.65,.65,0,1.03-.3,1.4-.75l1.29,.92c-.58,.8-1.37,1.4-2.74,1.4-1.77,0-3.19-1.35-3.19-3.2Z" fill="#292321"></path><path d="M100.04,97.04h1.71v4.68h3v1.5h-4.71v-6.19Z" fill="#292321"></path><path d="M105.23,100.51v-3.47h1.74v3.44c0,.89,.45,1.32,1.14,1.32s1.14-.41,1.14-1.27v-3.48h1.74v3.43c0,2-1.14,2.87-2.9,2.87s-2.86-.89-2.86-2.83Z" fill="#292321"></path><path d="M112,97.04h3.17c.78,0,1.33,.19,1.69,.56,.25,.25,.4,.57,.4,1v.02c0,.72-.41,1.14-.95,1.38,.75,.25,1.23,.67,1.23,1.51v.02c0,1.06-.87,1.71-2.34,1.71h-3.19v-6.19Zm2.75,2.47c.52,0,.81-.18,.81-.54v-.02c0-.34-.27-.53-.78-.53h-1.11v1.09h1.08Zm.25,2.34c.52,0,.82-.2,.82-.57v-.02c0-.34-.27-.56-.84-.56h-1.31v1.14h1.33Z" fill="#292321"></path></g><g><path d="M86.19,128.34h1.71v4.68h3v1.5h-4.71v-6.19Z" fill="#292321"></path><path d="M93.77,128.3h1.65l2.63,6.23h-1.84l-.45-1.1h-2.39l-.44,1.1h-1.8l2.63-6.23Zm1.5,3.79l-.69-1.76-.7,1.76h1.39Z" fill="#292321"></path><path d="M98.05,131.45v-.02c0-1.8,1.41-3.22,3.33-3.22,1.09,0,1.86,.34,2.51,.9l-1.01,1.21c-.44-.37-.88-.58-1.49-.58-.89,0-1.58,.75-1.58,1.7v.02c0,1,.7,1.71,1.68,1.71,.42,0,.73-.09,.99-.26v-.75h-1.22v-1.26h2.85v2.78c-.65,.54-1.56,.95-2.69,.95-1.93,0-3.37-1.33-3.37-3.2Z" fill="#292321"></path><path d="M104.98,131.81v-3.47h1.74v3.44c0,.89,.45,1.32,1.14,1.32s1.14-.41,1.14-1.27v-3.48h1.74v3.43c0,2-1.14,2.87-2.9,2.87s-2.86-.89-2.86-2.83Z" fill="#292321"></path><path d="M111.76,128.34h1.6l2.55,3.27v-3.27h1.7v6.19h-1.5l-2.64-3.39v3.39h-1.7v-6.19Z" fill="#292321"></path><path d="M120.83,128.3h1.65l2.63,6.23h-1.84l-.45-1.1h-2.39l-.44,1.1h-1.8l2.63-6.23Zm1.5,3.79l-.69-1.76-.7,1.76h1.39Z" fill="#292321"></path></g></g><g><path d="M86.34,60.53c2.88-2.81,7.12-4.26,10.41-5.01-4.97,3.01-5.92,6.02-5.92,6.02l3.73,1.68c2.55-3.71,5.28-6.1,6.94-7.36,.35,.61,.84,1.11,1.44,1.47-1.11,.66-1.88,1.84-1.97,3.2h2.54c.13-.71,.75-1.24,1.49-1.24h0s0,0,0,0c.74,0,1.36,.54,1.49,1.24h2.54c-.09-1.36-.86-2.54-1.97-3.2,.6-.36,1.09-.86,1.44-1.47,1.66,1.26,4.4,3.65,6.94,7.36l3.73-1.68s-.95-3-5.92-6.02c3.29,.75,7.53,2.2,10.41,5.01,0,0,.52-2.87,4.29-2.89,0,0-4.36-4.75-16.95-4.65-1.06,0-2.9,0-4.26,0-.16-.32-.41-.6-.72-.79v-2.54h1.86v-2.04h-1.86v-1.9h-2.04v1.9h-1.86v2.04h1.86v2.54c-.31,.19-.55,.46-.72,.79-1.37,0-3.21,0-4.26,0-12.59-.1-16.95,4.65-16.95,4.65,3.77,.01,4.29,2.89,4.29,2.89Zm18.66-7.69h0s0,0,0,0c.56,0,1.02,.46,1.02,1.02,0,.12-.02,.23-.05,.33-.14,.4-.52,.69-.97,.69h0s0,0,0,0c-.45,0-.83-.29-.97-.69-.03-.1-.05-.22-.05-.33,0-.56,.46-1.02,1.02-1.02Z" fill="#fdb927" fill-rule="evenodd"></path><path d="M121.22,67.58h-2.42v-.98l.35-.7s-.49-.13-.91-.51c-.42,.38-.91,.51-.91,.51l.35,.7v.99h-2.47v-1.52l.69-.91s-.98-.17-1.82-.67c-.84,.49-1.82,.67-1.82,.67l.69,.91v1.52h-2.47v-.98l.35-.7s-.49-.13-.91-.51c-.42,.38-.91,.51-.91,.51l.35,.7v.99h-2.5v-2.21l1.15-2.26s-1.62-.43-3.01-1.66h0c-1.39,1.22-3.01,1.66-3.01,1.66l1.15,2.26v2.21h-2.5v-.99l.35-.7s-.49-.13-.91-.51c-.42,.38-.91,.51-.91,.51l.35,.7v.98h-2.47v-1.52l.69-.91s-.98-.17-1.82-.67c-.84,.49-1.82,.67-1.82,.67l.69,.91v1.52h-2.47v-.99l.35-.7s-.49-.13-.91-.51c-.42,.38-.91,.51-.91,.51l.35,.7v.98h-2.42v-3.9l-6.43-3.3,4.42,10.96h36.45l4.42-10.96-6.43,3.3v3.9Zm-29.45,2.4c-.31,0-.56-.25-.56-.56s.25-.55,.56-.55,.55,.25,.55,.55-.25,.56-.55,.56Zm6.62,0c-.31,0-.56-.25-.56-.56s.25-.55,.56-.55,.55,.25,.55,.55-.25,.56-.55,.56Zm6.62,0h0c-.31,0-.56-.25-.56-.56s.25-.55,.56-.55h0s0,0,0,0c.31,0,.56,.25,.56,.55s-.25,.56-.56,.56Zm6.62,0c-.3,0-.55-.25-.55-.56s.25-.55,.55-.55,.56,.25,.56,.55-.25,.56-.56,.56Zm6.62,0c-.3,0-.55-.25-.55-.56s.25-.55,.55-.55,.56,.25,.56,.55-.25,.56-.56,.56Z" fill="#fdb927" fill-rule="evenodd"></path></g></g><g><g><g><path d="M64.49,23.81l.85,1.54-4.65,2.57,.73,1.33,4.13-2.28,.84,1.53-4.13,2.28,1.02,1.84-1.81,1-3.44-6.23,6.46-3.57Z" fill="#fff"></path><path d="M76.23,26.51l-1.13-.99-4.06,1.65-.12,1.5-2.06,.84,.72-7.97,2.64-1.07,6.07,5.21-2.05,.83Zm-5.05-1.07l2.6-1.06-2.35-2.05-.25,3.11Z" fill="#fff"></path><path d="M86.83,21.37l-1.23-4.95,1.99-.49,1.71,6.91-2.93,.73-5.3-3.94,1.23,4.95-2,.5-1.71-6.91,2.94-.73,5.3,3.94Z" fill="#fff"></path><path d="M96.85,14.62l8.57-.35,.07,1.75-3.25,.13,.22,5.36-2.06,.08-.22-5.36-3.26,.13-.07-1.75Z" fill="#fff"></path><path d="M107.92,17.84c.2-2.35,1.94-3.6,4.93-3.34,2.98,.26,4.49,1.79,4.29,4.13-.2,2.35-1.95,3.62-4.93,3.36-2.99-.26-4.49-1.79-4.29-4.15Zm7.07,.61c.11-1.23-.53-2.05-2.29-2.2-1.75-.15-2.52,.53-2.62,1.78-.11,1.25,.54,2.07,2.28,2.22,1.75,.15,2.53-.55,2.64-1.79Z" fill="#fff"></path><path d="M129.41,17.57l-4.18,2.13,2.62,4.82-2.53-.57-1.82-3.36-1.99,1.01-.32,1.41-2.01-.46,1.57-6.95,2.02,.45-.7,3.12,4.34-2.29,3.02,.68Z" fill="#fff"></path><path d="M139.29,20.99l-.55,1.52-5-1.81-.39,1.07,4.81,1.74-.55,1.52-4.81-1.74-.39,1.07,5,1.8-.55,1.52-6.94-2.51,2.42-6.7,6.94,2.51Z" fill="#fff"></path><path d="M146.5,30.14l2.34-4.54,1.83,.94-3.27,6.33-2.69-1.39-1.39-6.47-2.34,4.54-1.84-.95,3.27-6.33,2.7,1.39,1.39,6.47Z" fill="#fff"></path></g><g><path d="M57.53,179.5c-.31,.51,0,1.15,1.6,2.12,1.47,.88,1.97,.87,2.2,.49,.27-.44,.04-.69-1.7-1.9-2.37-1.66-3.16-2.81-2.35-4.16,.77-1.27,2.49-1.02,4.6,.25,2.35,1.41,3.27,2.94,2.51,4.33l-1.85-1.11c.32-.54-.14-1.1-1.51-1.92-1.3-.78-1.72-.74-1.92-.41-.23,.38,0,.67,1.57,1.8,2.14,1.52,3.5,2.55,2.54,4.15-.94,1.56-2.66,1.15-4.83-.16-2.47-1.49-3.6-2.93-2.72-4.59l1.85,1.12Z" fill="#fff"></path><path d="M66.2,183.1c.94-2.17,2.98-2.79,5.74-1.6,2.75,1.19,3.69,3.12,2.76,5.28-.94,2.17-3,2.81-5.75,1.62-2.76-1.19-3.69-3.12-2.75-5.3Zm6.52,2.83c.49-1.14,.14-2.11-1.48-2.82-1.61-.7-2.56-.29-3.05,.85-.5,1.15-.14,2.13,1.46,2.83,1.61,.7,2.58,.28,3.07-.87Z" fill="#fff"></path><path d="M82.54,185.26c2.52,.71,3.65,2.19,3.36,4.01l-2.11-.59c.04-.67-.45-1.38-1.72-1.73-1.47-.41-2.38,.11-2.72,1.31-.34,1.21,.18,2.14,1.64,2.55,1.27,.35,2.06,0,2.37-.61l2.11,.59c-.7,1.72-2.43,2.41-4.96,1.71-2.75-.77-3.9-2.47-3.25-4.82,.66-2.34,2.52-3.19,5.27-2.42Z" fill="#fff"></path><path d="M91.13,187.38l-1.26,7-2.03-.37,1.26-7,2.03,.37Z" fill="#fff"></path><path d="M93.28,191.41c.19-2.35,1.92-3.6,4.91-3.36,2.98,.24,4.5,1.77,4.3,4.11-.19,2.35-1.93,3.62-4.92,3.38-2.99-.24-4.5-1.77-4.3-4.13Zm7.07,.58c.1-1.23-.54-2.04-2.3-2.19-1.75-.14-2.51,.55-2.62,1.79-.1,1.25,.55,2.06,2.29,2.21,1.75,.14,2.53-.56,2.63-1.81Z" fill="#fff"></path><path d="M107.35,193.3c.03,.6,.64,.96,2.51,.86,1.71-.09,2.12-.38,2.09-.83-.03-.52-.35-.59-2.47-.62-2.89-.05-4.2-.56-4.28-2.14-.08-1.48,1.49-2.24,3.95-2.36,2.74-.14,4.36,.6,4.5,2.18l-2.15,.11c-.03-.63-.73-.83-2.33-.75-1.51,.08-1.84,.35-1.82,.73,.02,.44,.37,.56,2.31,.62,2.62,.06,4.33,.15,4.43,2.02,.09,1.82-1.56,2.44-4.09,2.57-2.88,.15-4.63-.42-4.82-2.29l2.16-.11Z" fill="#fff"></path><path d="M117.06,193.29l1.97-.29,.22,1.53-1.97,.29-.23-1.53Z" fill="#fff"></path><path d="M124.91,185.93c2.55-.62,4.26,.12,4.9,1.85l-2.13,.52c-.29-.61-1.07-.98-2.35-.67-1.48,.36-2.02,1.26-1.73,2.48,.3,1.22,1.21,1.78,2.68,1.42,1.28-.31,1.8-1.01,1.77-1.7l2.13-.52c.23,1.84-.94,3.3-3.49,3.92-2.78,.68-4.62-.24-5.2-2.61-.58-2.36,.63-4.01,3.41-4.69Z" fill="#fff"></path><path d="M132.62,187.73c-.87-2.2,.14-4.08,2.93-5.19,2.78-1.1,4.82-.4,5.68,1.79,.87,2.2-.14,4.11-2.92,5.21-2.79,1.1-4.82,.4-5.69-1.81Zm6.61-2.61c-.45-1.15-1.39-1.6-3.03-.95-1.63,.64-2.02,1.6-1.56,2.76,.46,1.17,1.41,1.61,3.03,.97,1.63-.64,2.02-1.62,1.56-2.78Z" fill="#fff"></path><path d="M145.61,186.25l-3.58-6.16,2.78-1.62,4.52,2.84-.24-5.33,2.78-1.62,3.58,6.16-1.78,1.03-2.59-4.46,.28,5.81-1.65,.96-4.91-3.11,2.6,4.46-1.79,1.04Z" fill="#fff"></path></g></g><path d="M48.34,171.86c-18.95-16.08-30.98-40.07-30.98-66.86S30.03,52.95,49.85,36.88" fill="none" stroke="#fff" stroke-miterlimit="10" stroke-width="2.22"></path><path d="M160.16,36.89c19.82,16.07,32.48,40.61,32.48,68.11s-12.03,50.79-30.98,66.87" fill="none" stroke="#fff" stroke-miterlimit="10" stroke-width="2.22"></path></g></g></g></svg>