<svg xmlns="http://www.w3.org/2000/svg" width="64" height="64" viewBox="0 0 64 64"><g transform="translate(-479 -7217.403)"><circle cx="32" cy="32" r="32" transform="translate(479 7217.403)" fill="#f5f5f5"/><g transform="translate(279.337 6906.257)"><g transform="translate(212.785 330.016)"><path d="M218.179,338.357h-5.394l.751-5.456h5.394Z" transform="translate(-212.785 -332.901)" fill="#0f5baa" style="isolation:isolate"/><path d="M258.009,338.371h-5.394l.751-5.456h5.394Z" transform="translate(-241.822 -332.911)" fill="#0f5baa" style="isolation:isolate"/><path d="M235.322,358.5h-5.394l.751-5.456h5.394Z" transform="translate(-225.283 -347.586)" fill="#0f5baa" style="isolation:isolate"/><path d="M252.458,378.643h-5.394l.751-5.456h5.394Z" transform="translate(-237.776 -362.271)" fill="#0f5baa" style="isolation:isolate"/></g><path d="M282,342.21a7.436,7.436,0,0,0,3.584-5.019c.731-3.7-1.039-6.16-4.806-6.842l.278-1.4h-3.933l-.24,1.213h-3.518l.24-1.213h-3.93l-.24,1.213h-3.223l3.577,6.395h-2.949l-2.609,13.19h2.949l-6.107,6.4h3.224l-.24,1.211h3.932l.24-1.211h3.516l-.24,1.211h3.933l.242-1.225c4.738-.2,8.922-2.891,9.844-7.551.713-3.606-.967-5.444-3.524-6.363m-9.318-7.139h4.086c2.3,0,3.44,1.06,3.091,2.828-.342,1.732-1.953,2.863-4.071,2.863h-4.234Zm2.716,16.154h-5.913l1.224-6.186h5.767c2.591,0,3.87,1.1,3.472,3.11S277.8,351.224,275.395,351.224Z" transform="translate(-35.201)" fill="#ea5615"/></g></g></svg>