<svg width="100" height="100" viewBox="0 0 100 100" fill="none" xmlns="http://www.w3.org/2000/svg">
<g clip-path="url(#clip0_1124_15739)">
<path d="M68.4762 93.7381C74.1286 91.3476 79.2048 87.9238 83.5667 83.5667C87.9286 79.2048 91.3476 74.1286 93.7381 68.4762C96.2143 62.6238 97.4667 56.4095 97.4667 50C97.4667 43.5905 96.2143 37.3762 93.7381 31.5238C91.3476 25.8714 87.9238 20.7952 83.5667 16.4333C79.2048 12.0714 74.1286 8.65239 68.4762 6.26191C62.6238 3.78572 56.4095 2.53334 50 2.53334V97.4667C56.4095 97.4667 62.6238 96.2143 68.4762 93.7381Z" fill="#5A9FC9"/>
<path d="M31.5238 6.26191C25.8714 8.65239 20.7952 12.0762 16.4333 16.4333C12.0714 20.7952 8.65237 25.8714 6.2619 31.5238C3.78571 37.3762 2.53333 43.5905 2.53333 50C2.53333 56.4095 3.78571 62.6238 6.2619 68.4762C8.65237 74.1286 12.0762 79.2048 16.4333 83.5667C20.7952 87.9286 25.8714 91.3476 31.5238 93.7381C37.3762 96.2143 43.5905 97.4667 50 97.4667V2.53334C43.5905 2.53334 37.3762 3.78572 31.5238 6.26191Z" fill="#7F1416"/>
<path d="M50 0C22.3857 0 0 22.3857 0 50C0 77.6143 22.3857 100 50 100C77.6143 100 100 77.6143 100 50C100 22.3857 77.6143 0 50 0ZM68.4762 93.7381C62.6238 96.2143 56.4095 97.4667 50 97.4667C43.5905 97.4667 37.3762 96.2143 31.5238 93.7381C25.8714 91.3476 20.7952 87.9238 16.4333 83.5667C12.0714 79.2048 8.65238 74.1286 6.2619 68.4762C3.78571 62.6238 2.53333 56.4095 2.53333 50C2.53333 43.5905 3.78571 37.3762 6.2619 31.5238C8.65238 25.8714 12.0762 20.7952 16.4333 16.4333C20.7952 12.0714 25.8714 8.65238 31.5238 6.2619C37.3762 3.78571 43.5905 2.53333 50 2.53333C56.4095 2.53333 62.6238 3.78571 68.4762 6.2619C74.1286 8.65238 79.2048 12.0762 83.5667 16.4333C87.9286 20.7952 91.3476 25.8714 93.7381 31.5238C96.2143 37.3762 97.4667 43.5905 97.4667 50C97.4667 56.4095 96.2143 62.6238 93.7381 68.4762C91.3476 74.1286 87.9238 79.2048 83.5667 83.5667C79.2048 87.9286 74.1286 91.3476 68.4762 93.7381Z" fill="#5F0F10"/>
<path fill-rule="evenodd" clip-rule="evenodd" d="M49.9715 22.0143L49.1762 24.4571H46.6048L48.7 26.1L47.8857 28.5333L50.081 26.9714L52.1334 28.4952L51.3762 26.1L53.3953 24.4571L50.8762 24.3762L49.9715 22.0143Z" fill="white"/>
<path fill-rule="evenodd" clip-rule="evenodd" d="M33.4095 31.2143L33.3619 61.9286C33.3619 61.9286 33.1238 74.5476 45.1762 76.5048C61.2524 79.1762 64.8905 68.6286 64.8905 68.6286C64.8905 68.6286 66.6381 64.4905 66.5238 61.0381C66.6905 57.1857 66.6095 33.1619 66.6095 33.1619C66.6095 33.1619 63.7476 36.0572 58.5048 34.4714C54.5905 32.9333 53.6191 32.1048 51.481 31.1381C45.4905 28.2048 40.2191 27.8 33.4048 31.2143" fill="#7F1416"/>
<path fill-rule="evenodd" clip-rule="evenodd" d="M51.1334 49.1429C46.6524 50.081 42.0429 54.2571 42.0429 58.9714C42.0429 64.2381 46.981 67.4095 51.0953 67.4095C54.3667 67.4095 57.6191 66.0095 57.6286 62.3571C57.6286 59.5048 55.6143 58.4381 53.1715 57.5381C51.0191 56.7429 49.4619 54.7286 49.4429 52.4191C49.4381 51.181 50.0048 49.9 51.1334 49.1429ZM66.6429 46.6333C64.2334 48.3333 60.9953 48.9857 57.2286 48.9857C56.6381 48.9857 56.0857 48.9476 55.5715 48.8857C56.6381 49.5 57.2191 50.2286 57.5857 51.5333C56.8334 51.1905 56.0953 51.0048 55.6 51.0048C54.5238 51 53.5048 51.7333 53.5524 52.8524C53.5857 53.5714 54.1238 54.2095 54.9238 54.5333C56.7477 55.2619 58.6096 55.8095 60.3048 56.8333C63.6715 58.8857 64.3524 61.4191 64.3524 63.5429C64.3524 66.3 63.0857 69.6667 60.2143 72.1191C57.9096 74.0857 54.5667 75.4667 50.0096 75.4667C45.0429 75.4667 41.2096 73.5429 38.6334 70.7524C36.1381 68.0476 34.8334 64.5286 34.8334 61.1762C34.8334 56.4619 37.1857 52.4571 40.6953 49.8905C43.2715 48.0095 46.8096 46.881 49.8286 46.9095C48.0048 46.0429 46.0667 45.2333 43.0286 45.2333C39.6667 45.2333 36.1715 46.581 33.3762 49.8762V41.7238C35.7667 40.3191 39.3 39.3191 42.7334 39.3191C47.3667 39.3191 49.8 41.0714 52.0096 42.8333C54.2334 44.5857 56.2477 46.3476 60.0381 46.3476C62.4286 46.3476 64.7286 45.3381 66.6477 44.0524V46.6333H66.6429Z" fill="#5A9FC9"/>
<path fill-rule="evenodd" clip-rule="evenodd" d="M50.8238 70.181L51.7048 70.1905L51.1857 71.0952C52.0048 70.9333 52.5619 72.9476 51.0715 73.0238C50.0334 73.019 50.0524 71.8095 50.2619 71.3714L50.8238 70.1857V70.181ZM51.0048 71.6714C50.9143 71.6714 50.8429 71.8333 50.8429 72.0333C50.8429 72.2333 50.9143 72.3952 51.0048 72.3952C51.0953 72.3952 51.1667 72.2333 51.1667 72.0333C51.1667 71.8333 51.0953 71.6714 51.0048 71.6714Z" fill="white"/>
<path fill-rule="evenodd" clip-rule="evenodd" d="M47.8333 70.2048L47.819 72.9143L47.0857 72.9V70.8L46.7809 70.7952V70.2048H47.8333Z" fill="white"/>
<path fill-rule="evenodd" clip-rule="evenodd" d="M52.0905 70.2048L52.081 70.8524L52.9143 70.8381L51.9762 72.8952L52.8333 72.9143L53.8905 70.2L52.0905 70.2048Z" fill="white"/>
<path fill-rule="evenodd" clip-rule="evenodd" d="M49.0762 72L48.5143 72.8952H49.3333L49.9857 71.581C50.4762 69.7952 47.8 69.6 48.2619 71.5C48.3571 71.8429 48.5857 72.0143 49.081 72M49.1 70.7333C49.1905 70.7333 49.2619 70.8952 49.2619 71.0952C49.2619 71.2952 49.1905 71.4571 49.1 71.4571C49.0095 71.4571 48.9381 71.2952 48.9381 71.0952C48.9381 70.8952 49.0095 70.7333 49.1 70.7333Z" fill="white"/>
<path d="M47.1619 37.4476C46.9857 37.0286 46.8905 36.6286 46.8715 36.1524C47.3572 35.5429 47.8715 35.0952 48.3905 34.7667C49.3857 34.1429 50.3857 33.9905 51.1905 34.0762C51.2286 34.3191 51.2238 34.5 51.2143 34.7191C51.2048 34.9381 51.1715 35.1476 51.1286 35.3476C50.4762 35.3048 49.7381 35.3762 48.9905 35.7667C48.3762 36.0762 47.7619 36.6 47.1667 37.4429" fill="white"/>
<path d="M51.9572 39.4429C51.5143 39.6381 51.0715 39.6952 50.5619 39.6952C49.1762 39.6952 47.9619 38.9238 47.3286 37.7905C47.6381 37.3191 47.8619 37.0429 48.181 36.7571C48.5429 37.5333 49.2191 38.3429 50.2905 38.9143C50.7524 39.1571 51.3381 39.3143 51.9572 39.4429Z" fill="white"/>
<path d="M53.3762 38.2619C53.0953 38.6333 52.8858 38.9 52.4953 39.1476C51.7286 39.0286 51.081 38.8095 50.5477 38.5238C49.5096 37.9762 48.8715 37.1857 48.5524 36.4429C48.7477 36.2952 48.9429 36.1714 49.1381 36.0714C49.3334 35.9714 49.3905 35.9381 49.5858 35.8762C49.881 36.4619 50.3096 37.0667 51.0143 37.5238C51.5905 37.8952 52.3524 38.1714 53.3715 38.2667" fill="white"/>
<path d="M52.8334 33.0571C53.7286 33.7381 54.2572 34.7905 54.2572 36C54.2572 36.6952 54.0619 37.3476 53.7238 37.9048C53.1619 37.8667 52.8095 37.8143 52.3953 37.681C52.8905 36.9762 53.2524 35.9857 53.2095 34.7762C53.1953 34.2524 53.0286 33.6619 52.8334 33.0571Z" fill="white"/>
<path d="M51.1286 32.3333C51.6 32.3905 51.9238 32.5286 52.3238 32.7429C52.6048 33.4667 52.7381 34.1381 52.7571 34.7429C52.8048 35.9191 52.4333 36.8619 51.9571 37.5143C51.7286 37.4238 51.5238 37.3143 51.3381 37.1905C51.1476 37.0714 51.1476 36.9952 51 36.8572C51.3619 36.3048 51.6238 35.5905 51.6667 34.7476C51.6952 34.0572 51.5571 33.2619 51.1238 32.3333" fill="white"/>
<path d="M50.5619 32.3H50.6238C50.8762 32.8 51.0143 33.1905 51.1096 33.6143C50.2572 33.5381 49.2191 33.7143 48.1905 34.3619C47.7476 34.6429 47.3048 35.0095 46.8762 35.481C47.1 33.6524 48.681 32.3048 50.5667 32.3048" fill="white"/>
<path d="M50.0905 77.081C48.3238 77.081 46.6429 76.9 45.1524 76.6572C38.8572 75.6381 35.9429 71.681 34.6048 68.5429C33.1619 65.1524 33.2048 61.9571 33.2048 61.9238L33.2524 31.1191L33.3381 31.0762C39.781 27.8429 45.0572 27.8191 51.5524 30.9952C52.3191 31.3429 52.9429 31.6762 53.6 32.0238C54.7572 32.6381 56.0667 33.3381 58.5619 34.3191C63.6429 35.8571 66.4714 33.0762 66.5 33.0476L66.7667 32.781V33.1571C66.7667 33.3952 66.8476 57.2286 66.681 61.0381C66.7953 64.4714 65.0524 68.6429 65.0334 68.681C65 68.781 64.0762 71.3762 61.1572 73.6857C57.8572 76.2905 53.7953 77.081 50.0857 77.081H50.0905ZM33.5667 31.3095L33.5191 61.9238C33.5191 61.9571 33.4762 65.0952 34.9 68.4286C36.2048 71.4905 39.0524 75.3476 45.2048 76.3476C49.7524 77.1048 56.1762 77.2143 60.9524 73.4524C63.8095 71.2048 64.7381 68.5952 64.7429 68.5714C64.7619 68.5191 66.4762 64.4143 66.3667 61.0381C66.5238 57.4714 66.4619 36.4333 66.4572 33.4952C65.6191 34.1571 62.8381 35.9429 58.4619 34.6143C55.9334 33.6238 54.6191 32.9191 53.4524 32.3C52.8 31.9524 52.181 31.6238 51.4191 31.2762C45.0476 28.1619 39.8714 28.1667 33.5667 31.3095Z" fill="white"/>
<path d="M30.7095 11.3381L31.1143 12.0714L28.9 13.2952L29.2476 13.9286L31.2143 12.8429L31.6143 13.5714L29.6476 14.6572L30.1333 15.5333L29.2714 16.0095L27.6333 13.0429L30.7095 11.3429V11.3381Z" fill="white"/>
<path d="M36.3 12.6238L35.7619 12.1524L33.8286 12.9381L33.7714 13.6524L32.7905 14.0524L33.1333 10.2571L34.3905 9.74762L37.2809 12.2286L36.3048 12.6238H36.3ZM33.8952 12.1143L35.1333 11.6095L34.0143 10.6333L33.8952 12.1143Z" fill="white"/>
<path d="M41.3476 10.1762L40.7619 7.81906L41.7095 7.58572L42.5238 10.8762L41.1285 11.2238L38.6047 9.34763L39.1904 11.7048L38.2381 11.9429L37.4238 8.65239L38.8238 8.30477L41.3476 10.181V10.1762Z" fill="white"/>
<path d="M46.119 6.96191L50.2 6.79524L50.2333 7.62858L48.6857 7.69048L48.7904 10.2429L47.8095 10.281L47.7047 7.72858L46.1524 7.79048L46.119 6.95715V6.96191Z" fill="white"/>
<path d="M51.3904 8.49525C51.4857 7.3762 52.3143 6.78096 53.7381 6.90477C55.1571 7.02858 55.8762 7.75715 55.7809 8.87144C55.6857 9.99049 54.8523 10.5952 53.4333 10.4714C52.0095 10.3476 51.2952 9.61906 51.3904 8.49525ZM54.7571 8.78572C54.8095 8.20001 54.5047 7.80953 53.6666 7.73811C52.8333 7.66668 52.4666 7.99049 52.419 8.58572C52.3666 9.18096 52.6762 9.57144 53.5047 9.64287C54.3381 9.7143 54.7095 9.38096 54.7619 8.79049L54.7571 8.78572Z" fill="white"/>
<path d="M61.6237 8.36667L59.6333 9.38095L60.8809 11.6762L59.6761 11.4048L58.8095 9.80476L57.8618 10.2857L57.7095 10.9571L56.7523 10.7381L57.4999 7.42857L58.4618 7.64286L58.1285 9.12857L60.1952 8.0381L61.6333 8.36191L61.6237 8.36667Z" fill="white"/>
<path d="M66.3285 9.99524L66.0666 10.7191L63.6857 9.85715L63.5 10.3667L65.7905 11.1952L65.5285 11.9191L63.2381 11.0905L63.0524 11.6L65.4333 12.4619L65.1714 13.1857L61.8666 11.9905L63.019 8.8L66.3238 9.99524H66.3285Z" fill="white"/>
<path d="M69.7618 14.3524L70.8761 12.1905L71.7476 12.6381L70.1904 15.6524L68.9095 14.9905L68.2476 11.9095L67.1333 14.0714L66.2571 13.6191L67.8142 10.6048L69.0999 11.2667L69.7618 14.3476V14.3524Z" fill="white"/>
<path d="M27.3952 85.4762C27.2476 85.719 27.3952 86.0238 28.1571 86.4857C28.8571 86.9048 29.0952 86.9 29.2047 86.719C29.3333 86.5095 29.2238 86.3905 28.3952 85.8143C27.2666 85.0238 26.8904 84.4762 27.2762 83.8333C27.6428 83.2286 28.4619 83.3476 29.4666 83.9524C30.5857 84.6238 31.0238 85.3524 30.6619 86.0143L29.7809 85.4857C29.9333 85.2286 29.7143 84.9619 29.0619 84.5714C28.4428 84.2 28.2428 84.219 28.1476 84.3762C28.0381 84.5571 28.1476 84.6952 28.8952 85.2333C29.9143 85.9571 30.5619 86.4476 30.1047 87.2095C29.6571 87.9524 28.8381 87.7571 27.8047 87.1333C26.6285 86.4238 26.0904 85.7381 26.5095 84.9476L27.3904 85.4809L27.3952 85.4762Z" fill="white"/>
<path d="M31.5238 87.1905C31.9714 86.1571 32.9428 85.8619 34.2571 86.4286C35.5667 86.9952 36.0143 87.9143 35.5714 88.9429C35.1238 89.9762 34.1428 90.281 32.8333 89.7143C31.519 89.1476 31.0762 88.2286 31.5238 87.1905ZM34.6286 88.5381C34.8619 87.9952 34.6952 87.5333 33.9238 87.1952C33.1571 86.8619 32.7047 87.0571 32.4714 87.6C32.2333 88.1476 32.4047 88.6143 33.1667 88.9476C33.9333 89.281 34.3952 89.081 34.6286 88.5333V88.5381Z" fill="white"/>
<path d="M39.3047 88.219C40.5095 88.5571 41.0428 89.2619 40.9047 90.1286L39.9 89.8476C39.919 89.5286 39.6857 89.1905 39.0809 89.0238C38.3809 88.8286 37.9476 89.0762 37.7905 89.6476C37.6285 90.2238 37.8762 90.6667 38.5714 90.8619C39.1762 91.0286 39.5524 90.8619 39.7 90.5714L40.7047 90.8524C40.3714 91.6714 39.5476 92 38.3428 91.6667C37.0333 91.3 36.4857 90.4905 36.7952 89.3714C37.1095 88.2571 37.9952 87.8524 39.3047 88.219Z" fill="white"/>
<path d="M43.3952 89.2286L42.7952 92.5619L41.8286 92.3857L42.4286 89.0524L43.3952 89.2286Z" fill="white"/>
<path d="M44.419 91.1476C44.5095 90.0286 45.3333 89.4333 46.7571 89.5476C48.1762 89.6619 48.9 90.3905 48.8047 91.5048C48.7143 92.6238 47.8857 93.2286 46.4666 93.1143C45.0428 93 44.3238 92.2714 44.419 91.1476ZM47.7857 91.4238C47.8333 90.8381 47.5285 90.4524 46.6905 90.381C45.8571 90.3143 45.4952 90.6429 45.4428 91.2333C45.3952 91.8286 45.7047 92.2143 46.5333 92.2857C47.3666 92.3524 47.7381 92.019 47.7857 91.4238Z" fill="white"/>
<path d="M51.119 92.0476C51.1333 92.3333 51.4238 92.5048 52.3143 92.4571C53.1286 92.4143 53.3238 92.2762 53.3095 92.0619C53.2952 91.8143 53.1428 91.781 52.1333 91.7667C50.7571 91.7429 50.1333 91.5 50.0952 90.7476C50.0571 90.0429 50.8047 89.681 51.9762 89.6238C53.2809 89.5571 54.0524 89.9095 54.119 90.6619L53.0952 90.7143C53.0809 90.4143 52.7476 90.3191 51.9857 90.3571C51.2666 90.3952 51.1095 90.5238 51.119 90.7048C51.1285 90.9143 51.2952 90.9714 52.219 91C53.4666 91.0286 54.2809 91.0714 54.3285 91.9619C54.3714 92.8286 53.5857 93.1238 52.3809 93.1857C51.0095 93.2571 50.1762 92.9857 50.0857 92.0952L51.1143 92.0429L51.119 92.0476Z" fill="white"/>
<path d="M55.7428 92.0429L56.6809 91.9048L56.7857 92.6333L55.8476 92.7714L55.738 92.0429H55.7428Z" fill="white"/>
<path d="M59.4809 88.5381C60.6952 88.2429 61.5095 88.5952 61.8143 89.419L60.8 89.6667C60.6619 89.3762 60.2905 89.2 59.6809 89.3476C58.9762 89.5191 58.719 89.9476 58.8571 90.5286C59 91.1095 59.4333 91.3762 60.1333 91.2048C60.7428 91.0571 60.9905 90.7238 60.9762 90.3952L61.9905 90.1476C62.1 91.0238 61.5428 91.719 60.3286 92.0143C59.0047 92.3381 58.1286 91.9 57.8524 90.7714C57.5762 89.6476 58.1524 88.8619 59.4762 88.5381H59.4809Z" fill="white"/>
<path d="M63.1523 89.3905C62.738 88.3429 63.219 87.4429 64.5476 86.919C65.8714 86.3952 66.8428 86.7286 67.2523 87.7714C67.6666 88.8191 67.1857 89.7286 65.8618 90.2524C64.5333 90.7762 63.5666 90.4429 63.1523 89.3905ZM66.2999 88.1476C66.0857 87.6 65.638 87.3857 64.8571 87.6952C64.0809 88 63.8952 88.4571 64.1142 89.0095C64.3333 89.5667 64.7857 89.7762 65.5571 89.4714C66.3333 89.1667 66.519 88.7 66.2999 88.1476Z" fill="white"/>
<path d="M69.3381 88.6905L67.6333 85.7571L68.9571 84.9857L71.1095 86.3381L70.9952 83.8L72.319 83.0286L74.0238 85.9619L73.1762 86.4524L71.9428 84.3286L72.0762 87.0952L71.2904 87.5524L68.9524 86.0714L70.1904 88.1952L69.3381 88.6905Z" fill="white"/>
<path d="M23.019 81.8381C13.9952 74.181 8.26666 62.7571 8.26666 50C8.26666 37.2429 14.3 25.2143 23.7381 17.5619" stroke="#5F0F10" stroke-miterlimit="10"/>
<path d="M76.2667 17.5667C85.7048 25.219 91.7333 36.9048 91.7333 50C91.7333 63.0952 86.0048 74.1857 76.9809 81.8429" stroke="#5F0F10" stroke-miterlimit="10"/>
</g>
<defs>
<clipPath id="clip0_1124_15739">
<rect width="100" height="100" fill="white"/>
</clipPath>
</defs>
</svg>
