<svg xmlns="http://www.w3.org/2000/svg" xmlns:xlink="http://www.w3.org/1999/xlink" width="64" height="64" viewBox="0 0 64 64"><defs><clipPath id="a"><path d="M339,78h5.907v5.661H339Zm0,0" transform="translate(-339 -78)" fill="#ffd200"/></clipPath></defs><circle cx="32" cy="32" r="32" fill="#139c55"/><g transform="translate(14.056 6.824)"><path d="M49.7,110.99a12.35,12.35,0,0,0-2.133,1.067,56.077,56.077,0,0,0-4.592,3.5,18.421,18.421,0,0,1-4.48,2.707,7.184,7.184,0,0,1,.427.813,15.2,15.2,0,0,1,.76,5.973q0,4.288.013,8.573c0,1.419.021,2.869.149,4.283a7.173,7.173,0,0,0,.363,1.949l.021.04.016.043a6.667,6.667,0,0,0,3.523,3.952,63.693,63.693,0,0,1,6.379,2.875,16.983,16.983,0,0,1,2.893,1.867,17,17,0,0,1,2.893-1.867,63.686,63.686,0,0,1,6.379-2.875,6.667,6.667,0,0,0,3.523-3.952l.016-.043.021-.04a7.161,7.161,0,0,0,.363-1.949c.128-1.413.147-2.864.149-4.283,0-2.859.019-5.715.013-8.573a15.2,15.2,0,0,1,.76-5.973,7.179,7.179,0,0,1,.427-.813,18.432,18.432,0,0,1-4.48-2.707,56.081,56.081,0,0,0-4.587-3.488A12.338,12.338,0,0,0,56.38,111a16.533,16.533,0,0,0-3.323-.341h-.029A16.535,16.535,0,0,0,49.7,110.99Zm0,0" transform="translate(-35.092 -100.851)" fill="#ffd200" fill-rule="evenodd"/><path d="M66.4,126.1a11.482,11.482,0,0,0-1.317.749,50.137,50.137,0,0,0-4.075,3.256,16.239,16.239,0,0,1-3.976,2.52,6.854,6.854,0,0,1,.379.757,14.784,14.784,0,0,1,.675,5.56v7.979c0,1.333.019,2.667.133,3.987a6.933,6.933,0,0,0,.323,1.813l.019.037.013.04a6.115,6.115,0,0,0,3.125,3.68,55.311,55.311,0,0,1,5.659,2.667,15.039,15.039,0,0,1,2.568,1.728,15.04,15.04,0,0,1,2.568-1.728,55.312,55.312,0,0,1,5.659-2.667,6.117,6.117,0,0,0,3.125-3.68l.013-.04.019-.037a6.934,6.934,0,0,0,.323-1.813c.115-1.315.131-2.667.133-3.987,0-2.667.016-5.32,0-7.979a14.776,14.776,0,0,1,.675-5.56,6.868,6.868,0,0,1,.379-.757,16.231,16.231,0,0,1-3.976-2.52,50.13,50.13,0,0,0-4.075-3.256,11.3,11.3,0,0,0-1.459-.816,9.117,9.117,0,0,0-3.381-.5H69.9a8.4,8.4,0,0,0-3.5.571Zm0,0" transform="translate(-51.995 -114.418)" fill="#005aff" fill-rule="evenodd"/><path d="M68.943,139.118v2.845h3.595v-2.845Zm14.7-13.28a10.551,10.551,0,0,0-2.832-.309h-.013v8.443h2.845Zm8.995,18.971v-2.845H88.6v2.845ZM77.946,159l.267.155a15.039,15.039,0,0,1,2.568,1.728V149.523H77.948Zm0,0" transform="translate(-62.85 -114.419)" fill="#029c55" fill-rule="evenodd"/><path d="M5.167,110.235c-.1-4.155-.648-5.949-3.16-8.072,6.365-.24,8.872-6.152,14.6-7.848l.325-.064v2.115c-3.211.605-7,5.837-11.181,7.171a9.547,9.547,0,0,1,1.443,6.691v3.019H5.22C5.21,112.353,5.188,111.353,5.167,110.235ZM19.78,94.051a12.269,12.269,0,0,1,3.173.267c5.725,1.7,8.232,7.608,14.6,7.848-2.512,2.133-3.064,3.917-3.16,8.072v.173H32.372v-.173a9.547,9.547,0,0,1,1.443-6.691c-5.616-1.781-7.443-7.581-14.029-7.467Zm14.56,19.2a52.312,52.312,0,0,1-.352,10.272,9.6,9.6,0,0,1-1.363,3.528,9.088,9.088,0,0,1-5.053,4.061c-.915.339-1.68.533-2.592.963a18.906,18.906,0,0,0-2.349,1.288v-2.227a55.418,55.418,0,0,1,5.683-2.691,6.832,6.832,0,0,0,3.517-4.107,20,20,0,0,0,.533-6.133v-4.963ZM21.455,134.217l-.08.067Zm-.083.069-.165.144Zm-.339.3-.075.069Zm-.157.149-.069.067Zm-.077.075-.067.067Zm-.293.307-.061.069Zm-.067.075-.051.077Zm-.069.077q-.1.112-.187.227l.189-.227Zm-.195.235-.059.075Zm-.059.077-.056.072Zm-.123.163-.051.069Zm-.056.077-.051.072Zm-.059.083-.048.072Zm-.053.077-.051.077a11.16,11.16,0,0,0-4.408-3.6,21.04,21.04,0,0,0-3.088-1.245,9.219,9.219,0,0,1-5.333-4.165,9.6,9.6,0,0,1-1.363-3.528A31.811,31.811,0,0,1,5.25,116.1H7.207v2.115a20,20,0,0,0,.533,6.133,6.832,6.832,0,0,0,3.517,4.107,26.134,26.134,0,0,1,8.533,4.779v2.835Zm0,0" transform="translate(-1.834 -85.707)" fill="#1f1960" fill-rule="evenodd"/><path d="M55.724,132.2V121.773H52.876v14.283a9.451,9.451,0,0,1,2.845-2.7Zm10.768-21.795H61.375v2.845h6.061c0-.853.027-1.8.048-2.845ZM50.033,104.9h2.845V94.05a11.974,11.974,0,0,0-2.845.2Zm-5.9,11.2v-2.845H38.316c.013,1.085.021,2.027.024,2.845Zm0,0" transform="translate(-34.932 -85.706)" fill="#ffd200" fill-rule="evenodd"/><path d="M103.6,208.82h11.733l-3.019,3.395v2.827h2.827l3.395-3.019v11.733l-3.395-3.019h-2.827v2.827l3.019,3.395H103.6l3.019-3.395v-2.827h-2.827l-3.395,3.019V212.023l3.395,3.019h2.827v-2.827Zm0,0" transform="translate(-91.532 -190.343)" fill="#fffdff" fill-rule="evenodd"/><path d="M172.647-.094l.691,2.133h2.248l-1.821,1.317.7,2.133-1.816-1.333L170.831,5.49l.7-2.133L169.7,2.042h2.248Zm0,0" transform="translate(-154.703 0.094)" fill="#ffd200" fill-rule="evenodd"/><path d="M79.306,20.363,80,22.5h2.248l-1.821,1.32.7,2.133-1.816-1.333L77.49,25.95l.7-2.133L76.367,22.5h2.248Zm0,0" transform="translate(-69.618 -18.555)" fill="#ffd200" fill-rule="evenodd"/><path d="M2.978,78.762,3.668,80.9H5.916L4.1,82.213l.7,2.133L2.978,83.013,1.162,84.346l.7-2.133L.039,80.9H2.287Zm0,0" transform="translate(-0.039 -71.786)" fill="#ffd200" fill-rule="evenodd"/><path d="M265.982,20.363l-.691,2.133h-2.248l1.821,1.32-.7,2.133,1.816-1.333L267.8,25.95l-.7-2.133,1.821-1.32h-2.248Zm0,0" transform="translate(-239.782 -18.555)" fill="#ffd200" fill-rule="evenodd"/><g transform="translate(29.979 6.907)" clip-path="url(#a)"><path d="M342.306,78.762l-.691,2.133h-2.248l1.821,1.317-.7,2.133,1.816-1.333,1.816,1.333-.7-2.133,1.821-1.317H343Zm0,0" transform="translate(-339.335 -78.693)" fill="#ffd200" fill-rule="evenodd"/></g><path d="M138.649,288.292a3.073,3.073,0,0,0,.04.557.672.672,0,0,0,.155.339.584.584,0,0,0,.309.168,2.338,2.338,0,0,0,.5.045h1.184l-.171.88H139.6a3.753,3.753,0,0,1-.952-.1,1.41,1.41,0,0,1-.629-.339,1.333,1.333,0,0,1-.344-.616,3.647,3.647,0,0,1-.1-.947v-.533a3.4,3.4,0,0,1,.109-.936,1.3,1.3,0,0,1,.981-.957,3.684,3.684,0,0,1,.941-.1h1.213l-.171.88h-.987a2.343,2.343,0,0,0-.5.045.577.577,0,0,0-.3.165.648.648,0,0,0-.149.336,3.385,3.385,0,0,0-.037.563Zm2.963-2.531h2.069a1.576,1.576,0,0,1,1.035.267,1.045,1.045,0,0,1,.325.843v.069a.909.909,0,0,1-.557.931.973.973,0,0,1,.5.36,1.131,1.131,0,0,1,.181.672v.115a1.1,1.1,0,0,1-.395.947,1.9,1.9,0,0,1-1.149.293h-2.013Zm.981,3.709h.955a.765.765,0,0,0,.472-.109.507.507,0,0,0,.136-.408v-.083a.533.533,0,0,0-.141-.421.8.8,0,0,0-.491-.117h-.931Zm0-2.912v.981h.88a.653.653,0,0,0,.437-.115.461.461,0,0,0,.128-.36v-.077a.413.413,0,0,0-.117-.328.617.617,0,0,0-.4-.1Zm4.4,3.709h-1.045v-4.507h3.176l-.165.88h-1.973v.987h1.867l-.165.88h-1.7Zm0,0" transform="translate(-125.404 -260.457)" fill="#231e60" fill-rule="evenodd"/></g></svg>