<?xml version="1.0" encoding="UTF-8"?>
<!DOCTYPE svg PUBLIC "-//W3C//DTD SVG 1.1//EN" "http://www.w3.org/Graphics/SVG/1.1/DTD/svg11.dtd">
<svg xmlns="http://www.w3.org/2000/svg" version="1.1" width="100px" height="100px" style="shape-rendering:geometricPrecision; text-rendering:geometricPrecision; image-rendering:optimizeQuality; fill-rule:evenodd; clip-rule:evenodd" xmlns:xlink="http://www.w3.org/1999/xlink">
<g><path style="opacity:1" fill="#ecead0" d="M 86.5,73.5 C 85.209,73.7373 84.209,73.404 83.5,72.5C 89.5849,61.1484 91.0849,49.1484 88,36.5C 86.3109,32.4401 84.1442,28.7734 81.5,25.5C 68.7164,11.08 53.0497,6.91338 34.5,13C 15.826,22.1822 8.1593,37.0155 11.5,57.5C 12.3781,63.2558 14.3781,68.5891 17.5,73.5C 16.3684,74.3543 15.035,74.3543 13.5,73.5C 3.57444,56.0183 4.40777,39.0183 16,22.5C 32.7573,4.96037 51.924,1.7937 73.5,13C 94.8622,29.6054 99.1955,49.772 86.5,73.5 Z"/></g>
<g><path style="opacity:1" fill="#d8c1be" d="M 79.5,27.5 C 79.7373,28.791 79.404,29.791 78.5,30.5C 78.6716,29.5084 78.3382,28.8417 77.5,28.5C 77.5858,27.5041 77.2524,26.6708 76.5,26C 74.9452,24.3542 73.2785,24.0209 71.5,25C 61.2317,14.8511 49.565,12.8511 36.5,19C 33.2677,20.2305 30.6011,22.2305 28.5,25C 25.645,24.2694 23.645,25.436 22.5,28.5C 22.1667,28.5 21.8333,28.5 21.5,28.5C 21.6282,26.9102 22.2949,25.5769 23.5,24.5C 31.4934,19.1116 40.1601,15.4449 49.5,13.5C 58.974,15.6257 67.974,19.1257 76.5,24C 77.6364,25.1451 78.6364,26.3117 79.5,27.5 Z"/></g>
<g><path style="opacity:1" fill="#f70905" d="M 77.5,28.5 C 77.4118,33.5192 76.0784,38.1859 73.5,42.5C 72.9984,43.521 72.3317,43.6877 71.5,43C 70.2668,41.3333 68.9335,39.8333 67.5,38.5C 66.8042,34.5483 66.3042,30.5483 66,26.5C 65.586,26.0426 65.086,25.7093 64.5,25.5C 63.5258,27.7427 63.1924,30.076 63.5,32.5C 60.615,33.3822 57.9483,34.7155 55.5,36.5C 51.5,36.5 47.5,36.5 43.5,36.5C 41.7541,34.7484 39.7541,33.4151 37.5,32.5C 36.8347,30.3021 36.1681,27.9688 35.5,25.5C 34.2949,26.5769 33.6282,27.9102 33.5,29.5C 32.144,32.5767 31.3106,35.9101 31,39.5C 30.3632,41.3031 29.1965,42.6364 27.5,43.5C 24.3994,38.9683 22.7327,33.9683 22.5,28.5C 23.645,25.436 25.645,24.2694 28.5,25C 30.6011,22.2305 33.2677,20.2305 36.5,19C 49.565,12.8511 61.2317,14.8511 71.5,25C 73.2785,24.0209 74.9452,24.3542 76.5,26C 77.2524,26.6708 77.5858,27.5041 77.5,28.5 Z"/></g>
<g><path style="opacity:1" fill="#2a1e1c" d="M 81.5,25.5 C 80.5,25.8333 79.8333,26.5 79.5,27.5C 78.6364,26.3117 77.6364,25.1451 76.5,24C 67.974,19.1257 58.974,15.6257 49.5,13.5C 40.1601,15.4449 31.4934,19.1116 23.5,24.5C 22.2949,25.5769 21.6282,26.9102 21.5,28.5C 21.5,29.1667 21.5,29.8333 21.5,30.5C 20.71,31.6085 20.21,32.9419 20,34.5C 19.7811,33.062 19.2811,31.7287 18.5,30.5C 17.8933,30.6236 17.56,30.9569 17.5,31.5C 15.3654,35.5715 14.0321,39.9048 13.5,44.5C 12.8333,48.8333 12.1667,53.1667 11.5,57.5C 8.1593,37.0155 15.826,22.1822 34.5,13C 53.0497,6.91338 68.7164,11.08 81.5,25.5 Z"/></g>
<g><path style="opacity:1" fill="#411713" d="M 67.5,38.5 C 67.8333,39.8333 68.1667,41.1667 68.5,42.5C 67.8333,43.8333 67.1667,45.1667 66.5,46.5C 66.8956,43.5178 66.2289,40.8511 64.5,38.5C 62.9288,40.415 60.9288,41.415 58.5,41.5C 56.597,41.2041 54.9303,40.5375 53.5,39.5C 54.4013,38.7095 55.0679,37.7095 55.5,36.5C 57.9483,34.7155 60.615,33.3822 63.5,32.5C 63.1924,30.076 63.5258,27.7427 64.5,25.5C 65.086,25.7093 65.586,26.0426 66,26.5C 66.3042,30.5483 66.8042,34.5483 67.5,38.5 Z"/></g>
<g><path style="opacity:1" fill="#4c130f" d="M 37.5,32.5 C 36.6586,34.3792 36.3253,36.3792 36.5,38.5C 35.8333,38.5 35.1667,38.5 34.5,38.5C 34.7373,37.209 34.404,36.209 33.5,35.5C 33.5,33.5 33.5,31.5 33.5,29.5C 33.6282,27.9102 34.2949,26.5769 35.5,25.5C 36.1681,27.9688 36.8347,30.3021 37.5,32.5 Z"/></g>
<g><path style="opacity:1" fill="#2f1a16" d="M 17.5,31.5 C 17.56,30.9569 17.8933,30.6236 18.5,30.5C 19.2811,31.7287 19.7811,33.062 20,34.5C 20.21,32.9419 20.71,31.6085 21.5,30.5C 21.9901,36.5057 23.9901,41.839 27.5,46.5C 30.9962,43.7017 32.9962,40.035 33.5,35.5C 34.404,36.209 34.7373,37.209 34.5,38.5C 32.8815,42.4675 33.2148,46.1342 35.5,49.5C 36.2543,52.091 37.921,53.9243 40.5,55C 48.3059,55.9742 55.9726,55.4742 63.5,53.5C 63.8333,54.1667 64.1667,54.8333 64.5,55.5C 61.3062,56.7084 57.9728,57.7084 54.5,58.5C 56.984,61.5368 56.984,64.5368 54.5,67.5C 54.5,66.1667 54.5,64.8333 54.5,63.5C 54.7373,62.209 54.404,61.209 53.5,60.5C 52.8478,59.2749 51.6811,58.6083 50,58.5C 48.3189,58.6083 47.1522,59.2749 46.5,60.5C 45.8333,60.5 45.5,60.8333 45.5,61.5C 44.596,62.209 44.2627,63.209 44.5,64.5C 43.1811,62.3945 43.5144,60.3945 45.5,58.5C 43.1568,57.7251 40.8234,57.0584 38.5,56.5C 37.791,55.596 36.791,55.2627 35.5,55.5C 35.5,59.5 35.5,63.5 35.5,67.5C 35.1667,67.5 34.8333,67.5 34.5,67.5C 34.384,63.4366 33.0507,62.7699 30.5,65.5C 30.1667,65.5 29.8333,65.5 29.5,65.5C 29.5,65.1667 29.5,64.8333 29.5,64.5C 30.2299,63.2876 31.2299,62.2876 32.5,61.5C 30.2338,60.6858 27.9005,60.1858 25.5,60C 22.2457,58.1192 21.9124,55.9525 24.5,53.5C 23.675,52.6143 22.675,52.281 21.5,52.5C 20.5041,52.4142 19.6708,52.7476 19,53.5C 18.3333,55.1667 18.3333,56.8333 19,58.5C 22.8235,60.8156 25.6568,63.8156 27.5,67.5C 27.1667,68.8333 26.8333,70.1667 26.5,71.5C 25.209,71.2627 24.209,71.596 23.5,72.5C 25.4302,76.1002 28.0969,79.1002 31.5,81.5C 42.975,89.9345 54.975,90.6011 67.5,83.5C 68.391,84.1098 69.391,84.4431 70.5,84.5C 49.7761,95.5206 32.1094,91.8539 17.5,73.5C 14.3781,68.5891 12.3781,63.2558 11.5,57.5C 12.1667,53.1667 12.8333,48.8333 13.5,44.5C 13.5,45.1667 13.5,45.8333 13.5,46.5C 13.2941,50.8982 13.6274,55.2315 14.5,59.5C 15.5167,63.8672 17.35,67.8672 20,71.5C 20.8365,69.1788 21.1699,66.8454 21,64.5C 18.932,62.6038 17.0987,60.6038 15.5,58.5C 14.8805,53.1265 17.2138,50.1265 22.5,49.5C 22.233,47.0347 21.5664,44.7014 20.5,42.5C 19.9448,38.6032 18.9448,34.9365 17.5,31.5 Z"/></g>
<g><path style="opacity:1" fill="#2e1a17" d="M 37.5,32.5 C 39.7541,33.4151 41.7541,34.7484 43.5,36.5C 45.4931,37.4716 45.8264,38.8049 44.5,40.5C 43.609,41.1098 42.609,41.4431 41.5,41.5C 39.0672,41.7271 37.4006,40.7271 36.5,38.5C 36.3253,36.3792 36.6586,34.3792 37.5,32.5 Z"/></g>
<g><path style="opacity:1" fill="#9c1b13" d="M 55.5,36.5 C 55.0679,37.7095 54.4013,38.7095 53.5,39.5C 50.4299,39.3677 47.4299,39.701 44.5,40.5C 45.8264,38.8049 45.4931,37.4716 43.5,36.5C 47.5,36.5 51.5,36.5 55.5,36.5 Z"/></g>
<g><path style="opacity:1" fill="#8a847d" d="M 37.5,34.5 C 39.0853,35.4737 40.0853,36.9737 40.5,39C 38.2266,38.6834 37.2266,37.1834 37.5,34.5 Z"/></g>
<g><path style="opacity:1" fill="#89867e" d="M 60.5,34.5 C 63.0628,35.9979 63.0628,37.6646 60.5,39.5C 60.1928,38.1125 60.1928,36.4458 60.5,34.5 Z"/></g>
<g><path style="opacity:1" fill="#ba0808" d="M 21.5,28.5 C 21.8333,28.5 22.1667,28.5 22.5,28.5C 22.7327,33.9683 24.3994,38.9683 27.5,43.5C 29.1965,42.6364 30.3632,41.3031 31,39.5C 31.3106,35.9101 32.144,32.5767 33.5,29.5C 33.5,31.5 33.5,33.5 33.5,35.5C 32.9962,40.035 30.9962,43.7017 27.5,46.5C 23.9901,41.839 21.9901,36.5057 21.5,30.5C 21.5,29.8333 21.5,29.1667 21.5,28.5 Z"/></g>
<g><path style="opacity:1" fill="#e21b11" d="M 34.5,38.5 C 35.1667,38.5 35.8333,38.5 36.5,38.5C 37.4006,40.7271 39.0672,41.7271 41.5,41.5C 40.1667,43.1667 38.8333,44.8333 37.5,46.5C 36.5987,47.2905 35.9321,48.2905 35.5,49.5C 33.2148,46.1342 32.8815,42.4675 34.5,38.5 Z"/></g>
<g><path style="opacity:1" fill="#dd110b" d="M 66.5,46.5 C 66.7148,48.1788 66.0481,49.1788 64.5,49.5C 64.573,47.9731 63.9063,46.9731 62.5,46.5C 61.7005,44.4265 60.3671,42.7598 58.5,41.5C 60.9288,41.415 62.9288,40.415 64.5,38.5C 66.2289,40.8511 66.8956,43.5178 66.5,46.5 Z"/></g>
<g><path style="opacity:1" fill="#f4f0d4" d="M 53.5,39.5 C 54.9303,40.5375 56.597,41.2041 58.5,41.5C 60.3671,42.7598 61.7005,44.4265 62.5,46.5C 62.2007,49.6421 60.5341,51.8088 57.5,53C 53.9292,53.4482 50.5959,52.9482 47.5,51.5C 50.2966,50.6168 52.9632,50.6168 55.5,51.5C 53.6932,50.6049 52.3599,49.2716 51.5,47.5C 52.6511,45.6746 53.3178,43.6746 53.5,41.5C 51.4159,42.2483 49.4159,42.2483 47.5,41.5C 47.1667,42 46.8333,42.5 46.5,43C 49.435,46.0066 49.1016,48.5066 45.5,50.5C 44.3079,51.5659 44.6412,52.3992 46.5,53C 41.3899,53.7201 38.3899,51.5534 37.5,46.5C 38.8333,44.8333 40.1667,43.1667 41.5,41.5C 42.609,41.4431 43.609,41.1098 44.5,40.5C 47.4299,39.701 50.4299,39.3677 53.5,39.5 Z"/></g>
<g><path style="opacity:1" fill="#341411" d="M 18.5,47.5 C 17.779,49.3818 16.779,49.7152 15.5,48.5C 16.7048,46.3741 16.7048,44.2074 15.5,42C 15.4934,40.1878 16.16,38.6878 17.5,37.5C 18.487,40.7683 18.8204,44.1016 18.5,47.5 Z"/></g>
<g><path style="opacity:1" fill="#332823" d="M 47.5,51.5 C 46.5084,51.6716 45.8417,51.3382 45.5,50.5C 49.1016,48.5066 49.435,46.0066 46.5,43C 46.8333,42.5 47.1667,42 47.5,41.5C 49.4159,42.2483 51.4159,42.2483 53.5,41.5C 53.3178,43.6746 52.6511,45.6746 51.5,47.5C 52.3599,49.2716 53.6932,50.6049 55.5,51.5C 52.9632,50.6168 50.2966,50.6168 47.5,51.5 Z"/></g>
<g><path style="opacity:1" fill="#2e1814" d="M 81.5,25.5 C 84.1442,28.7734 86.3109,32.4401 88,36.5C 91.0849,49.1484 89.5849,61.1484 83.5,72.5C 79.8196,77.1794 75.4862,81.1794 70.5,84.5C 69.391,84.4431 68.391,84.1098 67.5,83.5C 69.9395,80.9566 71.6062,77.9566 72.5,74.5C 73.3686,72.283 73.702,69.9496 73.5,67.5C 72.3228,63.5875 69.9895,61.9208 66.5,62.5C 65.962,64.1172 65.6287,65.7839 65.5,67.5C 64.0687,68.7804 63.4021,70.4471 63.5,72.5C 62.3951,71.3995 61.0618,70.7329 59.5,70.5C 59.5,70.1667 59.5,69.8333 59.5,69.5C 60.791,69.7373 61.791,69.404 62.5,68.5C 62.8333,67.1667 63.1667,65.8333 63.5,64.5C 64.4767,61.7131 64.81,58.7131 64.5,55.5C 64.1667,54.8333 63.8333,54.1667 63.5,53.5C 64.2341,52.2921 64.5674,50.9587 64.5,49.5C 66.0481,49.1788 66.7148,48.1788 66.5,46.5C 67.1667,45.1667 67.8333,43.8333 68.5,42.5C 69.3636,43.6883 70.3636,44.8549 71.5,46C 72.4491,46.6172 73.2825,46.4506 74,45.5C 74.8061,42.5544 76.1395,39.8877 78,37.5C 78.4966,35.1902 78.6633,32.8568 78.5,30.5C 79.404,29.791 79.7373,28.791 79.5,27.5C 79.8333,26.5 80.5,25.8333 81.5,25.5 Z"/></g>
<g><path style="opacity:1" fill="#b30707" d="M 77.5,28.5 C 78.3382,28.8417 78.6716,29.5084 78.5,30.5C 78.6633,32.8568 78.4966,35.1902 78,37.5C 76.1395,39.8877 74.8061,42.5544 74,45.5C 73.2825,46.4506 72.4491,46.6172 71.5,46C 70.3636,44.8549 69.3636,43.6883 68.5,42.5C 68.1667,41.1667 67.8333,39.8333 67.5,38.5C 68.9335,39.8333 70.2668,41.3333 71.5,43C 72.3317,43.6877 72.9984,43.521 73.5,42.5C 76.0784,38.1859 77.4118,33.5192 77.5,28.5 Z"/></g>
<g><path style="opacity:1" fill="#c0110c" d="M 17.5,31.5 C 18.9448,34.9365 19.9448,38.6032 20.5,42.5C 19.8333,44.1667 19.1667,45.8333 18.5,47.5C 18.8204,44.1016 18.487,40.7683 17.5,37.5C 16.16,38.6878 15.4934,40.1878 15.5,42C 16.7048,44.2074 16.7048,46.3741 15.5,48.5C 14.8333,47.8333 14.1667,47.1667 13.5,46.5C 13.5,45.8333 13.5,45.1667 13.5,44.5C 14.0321,39.9048 15.3654,35.5715 17.5,31.5 Z"/></g>
<g><path style="opacity:1" fill="#e50d08" d="M 20.5,42.5 C 21.5664,44.7014 22.233,47.0347 22.5,49.5C 17.2138,50.1265 14.8805,53.1265 15.5,58.5C 15.5,59.1667 15.1667,59.5 14.5,59.5C 13.6274,55.2315 13.2941,50.8982 13.5,46.5C 14.1667,47.1667 14.8333,47.8333 15.5,48.5C 16.779,49.7152 17.779,49.3818 18.5,47.5C 19.1667,45.8333 19.8333,44.1667 20.5,42.5 Z"/></g>
<g><path style="opacity:1" fill="#b8a680" d="M 37.5,46.5 C 38.3899,51.5534 41.3899,53.7201 46.5,53C 44.6412,52.3992 44.3079,51.5659 45.5,50.5C 45.8417,51.3382 46.5084,51.6716 47.5,51.5C 50.5959,52.9482 53.9292,53.4482 57.5,53C 60.5341,51.8088 62.2007,49.6421 62.5,46.5C 63.9063,46.9731 64.573,47.9731 64.5,49.5C 64.5674,50.9587 64.2341,52.2921 63.5,53.5C 55.9726,55.4742 48.3059,55.9742 40.5,55C 37.921,53.9243 36.2543,52.091 35.5,49.5C 35.9321,48.2905 36.5987,47.2905 37.5,46.5 Z"/></g>
<g><path style="opacity:1" fill="#b50e0b" d="M 70.5,52.5 C 71.8672,54.0927 71.5339,55.4261 69.5,56.5C 69.1667,56 68.8333,55.5 68.5,55C 69.0556,53.9889 69.7222,53.1556 70.5,52.5 Z"/></g>
<g><path style="opacity:1" fill="#97c539" d="M 21.5,52.5 C 22.675,52.281 23.675,52.6143 24.5,53.5C 21.9124,55.9525 22.2457,58.1192 25.5,60C 27.9005,60.1858 30.2338,60.6858 32.5,61.5C 31.2299,62.2876 30.2299,63.2876 29.5,64.5C 25.3525,62.4228 22.0192,59.4228 19.5,55.5C 20.1925,54.4822 20.8592,53.4822 21.5,52.5 Z"/></g>
<g><path style="opacity:1" fill="#ed0905" d="M 84.5,63.5 C 82.0062,65.7992 79.5062,68.1325 77,70.5C 76.7679,69.2625 76.2679,68.2625 75.5,67.5C 77.0312,64.1008 78.8646,60.7675 81,57.5C 81.6667,56.5 81.6667,55.5 81,54.5C 79.5422,56.96 77.7089,59.1266 75.5,61C 73.597,61.7737 71.9304,61.4404 70.5,60C 72.6166,58.2691 74.1166,56.1024 75,53.5C 78.3155,46.5508 80.6488,39.2174 82,31.5C 83.7105,33.9562 85.0438,36.6229 86,39.5C 86.9368,47.6442 86.4368,55.6442 84.5,63.5 Z"/></g>
<g><path style="opacity:1" fill="#87140f" d="M 81.5,47.5 C 84.8606,48.2032 85.1939,49.5365 82.5,51.5C 81.5713,50.3112 81.238,48.9778 81.5,47.5 Z"/></g>
<g><path style="opacity:1" fill="#491510" d="M 81.5,39.5 C 83.7271,40.4006 84.7271,42.0672 84.5,44.5C 83.5,44.5 82.5,44.5 81.5,44.5C 81.5,42.8333 81.5,41.1667 81.5,39.5 Z"/></g>
<g><path style="opacity:1" fill="#ad0606" d="M 38.5,56.5 C 40.8234,57.0584 43.1568,57.7251 45.5,58.5C 43.5144,60.3945 43.1811,62.3945 44.5,64.5C 44.4208,65.9305 44.7542,67.2638 45.5,68.5C 43.0268,69.7969 40.6934,69.7969 38.5,68.5C 40.1667,68.5 41.8333,68.5 43.5,68.5C 41.8574,64.5409 40.1907,60.5409 38.5,56.5 Z"/></g>
<g><path style="opacity:1" fill="#af0f0c" d="M 64.5,55.5 C 64.81,58.7131 64.4767,61.7131 63.5,64.5C 63.6641,61.8127 63.4974,59.146 63,56.5C 61.5787,59.0094 59.9121,61.3428 58,63.5C 56.9914,65.0249 56.4914,66.6916 56.5,68.5C 58.5,68.5 60.5,68.5 62.5,68.5C 61.791,69.404 60.791,69.7373 59.5,69.5C 57.2188,69.9227 55.5521,69.256 54.5,67.5C 56.984,64.5368 56.984,61.5368 54.5,58.5C 57.9728,57.7084 61.3062,56.7084 64.5,55.5 Z"/></g>
<g><path style="opacity:1" fill="#f80102" d="M 63.5,64.5 C 63.1667,65.8333 62.8333,67.1667 62.5,68.5C 60.5,68.5 58.5,68.5 56.5,68.5C 56.4914,66.6916 56.9914,65.0249 58,63.5C 59.9121,61.3428 61.5787,59.0094 63,56.5C 63.4974,59.146 63.6641,61.8127 63.5,64.5 Z"/></g>
<g><path style="opacity:1" fill="#f70203" d="M 38.5,56.5 C 40.1907,60.5409 41.8574,64.5409 43.5,68.5C 41.8333,68.5 40.1667,68.5 38.5,68.5C 37.0744,66.3211 36.4078,63.8211 36.5,61C 36.5687,59.0145 37.2353,57.5145 38.5,56.5 Z"/></g>
<g><path style="opacity:1" fill="#f1eecf" d="M 53.5,60.5 C 52.7659,61.7079 52.4326,63.0413 52.5,64.5C 49.1124,65.0306 47.1124,63.6973 46.5,60.5C 47.1522,59.2749 48.3189,58.6083 50,58.5C 51.6811,58.6083 52.8478,59.2749 53.5,60.5 Z"/></g>
<g><path style="opacity:1" fill="#d4a9a9" d="M 66.5,62.5 C 69.9895,61.9208 72.3228,63.5875 73.5,67.5C 71.4451,65.4453 69.1117,63.7787 66.5,62.5 Z"/></g>
<g><path style="opacity:1" fill="#ac0707" d="M 15.5,58.5 C 17.0987,60.6038 18.932,62.6038 21,64.5C 21.1699,66.8454 20.8365,69.1788 20,71.5C 17.35,67.8672 15.5167,63.8672 14.5,59.5C 15.1667,59.5 15.5,59.1667 15.5,58.5 Z"/></g>
<g><path style="opacity:1" fill="#567a1b" d="M 21.5,52.5 C 20.8592,53.4822 20.1925,54.4822 19.5,55.5C 22.0192,59.4228 25.3525,62.4228 29.5,64.5C 29.5,64.8333 29.5,65.1667 29.5,65.5C 28.5,65.8333 27.8333,66.5 27.5,67.5C 25.6568,63.8156 22.8235,60.8156 19,58.5C 18.3333,56.8333 18.3333,55.1667 19,53.5C 19.6708,52.7476 20.5041,52.4142 21.5,52.5 Z"/></g>
<g><path style="opacity:1" fill="#f00706" d="M 66.5,62.5 C 69.1117,63.7787 71.4451,65.4453 73.5,67.5C 73.702,69.9496 73.3686,72.283 72.5,74.5C 64.5281,83.2993 54.5281,86.7993 42.5,85C 38.7847,83.7048 35.1181,82.5381 31.5,81.5C 28.0969,79.1002 25.4302,76.1002 23.5,72.5C 24.609,72.5569 25.609,72.8902 26.5,73.5C 28.8355,76.1648 31.8355,77.4982 35.5,77.5C 37.7537,78.3147 40.0871,78.9813 42.5,79.5C 47.5,78.1667 52.5,78.1667 57.5,79.5C 60.2918,79.2394 62.6251,78.2394 64.5,76.5C 66.719,73.7962 67.0524,70.7962 65.5,67.5C 65.6287,65.7839 65.962,64.1172 66.5,62.5 Z"/></g>
<g><path style="opacity:1" fill="#d7acab" d="M 34.5,67.5 C 33.5326,66.1938 32.1993,65.5271 30.5,65.5C 33.0507,62.7699 34.384,63.4366 34.5,67.5 Z"/></g>
<g><path style="opacity:1" fill="#b7a681" d="M 46.5,60.5 C 47.1124,63.6973 49.1124,65.0306 52.5,64.5C 52.4326,63.0413 52.7659,61.7079 53.5,60.5C 54.404,61.209 54.7373,62.209 54.5,63.5C 53.8086,66.5425 52.3086,69.2092 50,71.5C 47.6446,68.6197 46.1446,65.2864 45.5,61.5C 45.5,60.8333 45.8333,60.5 46.5,60.5 Z"/></g>
<g><path style="opacity:1" fill="#e10a08" d="M 29.5,65.5 C 29.8333,65.5 30.1667,65.5 30.5,65.5C 32.1993,65.5271 33.5326,66.1938 34.5,67.5C 34.8333,67.5 35.1667,67.5 35.5,67.5C 36.038,69.1172 36.3713,70.7839 36.5,72.5C 33.0618,73.7505 29.7284,73.4172 26.5,71.5C 26.8333,70.1667 27.1667,68.8333 27.5,67.5C 27.8333,66.5 28.5,65.8333 29.5,65.5 Z"/></g>
<g><path style="opacity:1" fill="#e1dcbf" d="M 59.5,70.5 C 61.0618,70.7329 62.3951,71.3995 63.5,72.5C 63.5743,76.1611 62.5743,76.8277 60.5,74.5C 59.6143,75.325 59.281,76.325 59.5,77.5C 58.5,77.5 57.5,77.5 56.5,77.5C 56.3671,74.1043 55.3671,73.7709 53.5,76.5C 51.6404,71.0738 53.6404,69.0738 59.5,70.5 Z"/></g>
<g><path style="opacity:1" fill="#3e2620" d="M 38.5,56.5 C 37.2353,57.5145 36.5687,59.0145 36.5,61C 36.4078,63.8211 37.0744,66.3211 38.5,68.5C 40.6934,69.7969 43.0268,69.7969 45.5,68.5C 44.7542,67.2638 44.4208,65.9305 44.5,64.5C 44.2627,63.209 44.596,62.209 45.5,61.5C 46.1446,65.2864 47.6446,68.6197 50,71.5C 52.3086,69.2092 53.8086,66.5425 54.5,63.5C 54.5,64.8333 54.5,66.1667 54.5,67.5C 55.5521,69.256 57.2188,69.9227 59.5,69.5C 59.5,69.8333 59.5,70.1667 59.5,70.5C 53.6404,69.0738 51.6404,71.0738 53.5,76.5C 55.3671,73.7709 56.3671,74.1043 56.5,77.5C 57.5,77.5 58.5,77.5 59.5,77.5C 59.281,76.325 59.6143,75.325 60.5,74.5C 62.5743,76.8277 63.5743,76.1611 63.5,72.5C 64.4345,73.5676 64.7678,74.901 64.5,76.5C 62.6251,78.2394 60.2918,79.2394 57.5,79.5C 52.5,78.1667 47.5,78.1667 42.5,79.5C 40.0871,78.9813 37.7537,78.3147 35.5,77.5C 32.8197,75.7265 29.8197,74.3932 26.5,73.5C 25.609,72.8902 24.609,72.5569 23.5,72.5C 24.209,71.596 25.209,71.2627 26.5,71.5C 29.7284,73.4172 33.0618,73.7505 36.5,72.5C 36.3713,70.7839 36.038,69.1172 35.5,67.5C 35.5,63.5 35.5,59.5 35.5,55.5C 36.791,55.2627 37.791,55.596 38.5,56.5 Z"/></g>
<g><path style="opacity:1" fill="#dbd6b9" d="M 36.5,72.5 C 39.1769,70.568 42.1769,70.068 45.5,71C 47.5152,72.5553 47.8485,74.3886 46.5,76.5C 45.8076,75.9747 45.3076,75.3081 45,74.5C 43.5792,77.6222 41.9125,77.9556 40,75.5C 37.3422,76.694 36.1756,75.694 36.5,72.5 Z"/></g>
<g><path style="opacity:1" fill="#9d0909" d="M 65.5,67.5 C 67.0524,70.7962 66.719,73.7962 64.5,76.5C 64.7678,74.901 64.4345,73.5676 63.5,72.5C 63.4021,70.4471 64.0687,68.7804 65.5,67.5 Z"/></g>
<g><path style="opacity:1" fill="#a30807" d="M 84.5,63.5 C 82.2642,69.6315 78.7642,74.9649 74,79.5C 74.9995,75.6588 75.4995,71.6588 75.5,67.5C 76.2679,68.2625 76.7679,69.2625 77,70.5C 79.5062,68.1325 82.0062,65.7992 84.5,63.5 Z"/></g>
<g><path style="opacity:0.959" fill="#b6a483" d="M 83.5,72.5 C 84.209,73.404 85.209,73.7373 86.5,73.5C 71.2326,93.9836 51.8993,98.817 28.5,88C 22.3358,84.3352 17.3358,79.5019 13.5,73.5C 15.035,74.3543 16.3684,74.3543 17.5,73.5C 32.1094,91.8539 49.7761,95.5206 70.5,84.5C 75.4862,81.1794 79.8196,77.1794 83.5,72.5 Z"/></g>
<g><path style="opacity:1" fill="#a80707" d="M 72.5,74.5 C 71.6062,77.9566 69.9395,80.9566 67.5,83.5C 54.975,90.6011 42.975,89.9345 31.5,81.5C 35.1181,82.5381 38.7847,83.7048 42.5,85C 54.5281,86.7993 64.5281,83.2993 72.5,74.5 Z"/></g>
<g><path style="opacity:1" fill="#cfabaa" d="M 26.5,73.5 C 29.8197,74.3932 32.8197,75.7265 35.5,77.5C 31.8355,77.4982 28.8355,76.1648 26.5,73.5 Z"/></g>
</svg>
