<?xml version="1.0" encoding="UTF-8"?>
<!DOCTYPE svg PUBLIC "-//W3C//DTD SVG 1.1//EN" "http://www.w3.org/Graphics/SVG/1.1/DTD/svg11.dtd">
<svg xmlns="http://www.w3.org/2000/svg" version="1.1" width="366px" height="366px" style="shape-rendering:geometricPrecision; text-rendering:geometricPrecision; image-rendering:optimizeQuality; fill-rule:evenodd; clip-rule:evenodd" xmlns:xlink="http://www.w3.org/1999/xlink">
<g><path style="opacity:1" fill="#020e19" d="M -0.5,-0.5 C 121.5,-0.5 243.5,-0.5 365.5,-0.5C 365.5,121.5 365.5,243.5 365.5,365.5C 243.5,365.5 121.5,365.5 -0.5,365.5C -0.5,243.5 -0.5,121.5 -0.5,-0.5 Z"/></g>
<g><path style="opacity:1" fill="#9ede5b" d="M 145.5,121.5 C 145.005,116.891 142.338,114.558 137.5,114.5C 129.21,114.653 120.877,114.82 112.5,115C 110.722,115.704 108.888,116.204 107,116.5C 100.165,116.655 93.3316,116.322 86.5,115.5C 83.4284,115.187 80.595,115.854 78,117.5C 76.5659,117.07 75.3992,116.236 74.5,115C 69.5,114.333 64.5,114.333 59.5,115C 55.5885,116.791 51.5885,118.291 47.5,119.5C 49.1184,117.684 51.1184,116.351 53.5,115.5C 57.7454,114.123 62.0787,112.956 66.5,112C 93.8333,111.333 121.167,111.333 148.5,112C 149.69,115.802 148.69,118.969 145.5,121.5 Z"/></g>
<g><path style="opacity:1" fill="#b2e74b" d="M 181.5,140.5 C 179.217,145.398 177.217,150.398 175.5,155.5C 169.324,167.189 163.657,179.189 158.5,191.5C 157.326,192.514 156.66,193.847 156.5,195.5C 155.833,196.167 155.167,196.833 154.5,197.5C 153.566,198.568 153.232,199.901 153.5,201.5C 166.006,202.167 178.673,202.833 191.5,203.5C 186.167,204.5 180.833,205.5 175.5,206.5C 178.086,207.48 180.753,207.813 183.5,207.5C 183.34,210.884 183.673,214.217 184.5,217.5C 184.182,218.647 183.516,219.481 182.5,220C 169.071,220.57 155.737,222.07 142.5,224.5C 141.264,226.649 140.264,228.982 139.5,231.5C 138.5,232.833 137.5,234.167 136.5,235.5C 135.609,234.739 134.942,233.739 134.5,232.5C 139.006,224.198 140.672,215.198 139.5,205.5C 139.404,198.576 138.737,191.742 137.5,185C 137.706,183.634 138.04,182.301 138.5,181C 135.923,178.485 135.923,175.985 138.5,173.5C 139.239,178.107 141.739,179.773 146,178.5C 146.483,177.552 146.649,176.552 146.5,175.5C 148.167,175.5 149.833,175.5 151.5,175.5C 151.828,170.125 151.495,164.792 150.5,159.5C 148.898,158.399 147.898,156.899 147.5,155C 148.322,152.528 148.989,150.028 149.5,147.5C 152.346,147.191 153.846,145.525 154,142.5C 154.893,143.711 155.726,143.711 156.5,142.5C 155.607,139.916 155.274,137.249 155.5,134.5C 156.308,131.55 157.642,128.883 159.5,126.5C 160.583,126.539 161.583,126.873 162.5,127.5C 165.979,125.614 169.146,123.28 172,120.5C 172.432,119.4 171.932,118.733 170.5,118.5C 168.272,119.219 166.439,120.552 165,122.5C 165.054,119.239 166.554,116.739 169.5,115C 176.034,113.805 182.201,114.638 188,117.5C 191.048,116.907 194.214,117.073 197.5,118C 194.659,120.721 191.826,120.887 189,118.5C 187.234,119.233 185.401,119.567 183.5,119.5C 183.042,122.394 183.709,124.894 185.5,127C 184.207,127.49 182.873,127.657 181.5,127.5C 181.5,128.5 181.5,129.5 181.5,130.5C 183.582,130.528 185.416,129.861 187,128.5C 189.053,129.267 190.553,130.6 191.5,132.5C 191.167,133.167 190.833,133.833 190.5,134.5C 189.146,132.816 187.479,132.316 185.5,133C 183.918,135.403 182.584,137.903 181.5,140.5 Z"/></g>
<g><path style="opacity:1" fill="#99e251" d="M 145.5,121.5 C 143.53,125.817 141.53,130.15 139.5,134.5C 138.607,136.297 137.274,137.63 135.5,138.5C 117.5,138.5 99.5,138.5 81.5,138.5C 83.2922,137.691 85.2922,137.191 87.5,137C 84.438,136.259 81.438,136.425 78.5,137.5C 77.5,137.167 76.8333,136.5 76.5,135.5C 80.5319,134.775 84.5319,133.942 88.5,133C 85.5184,132.502 82.5184,132.335 79.5,132.5C 79.5,131.5 79.5,130.5 79.5,129.5C 78.325,129.719 77.325,129.386 76.5,128.5C 79.7683,127.513 83.1016,127.18 86.5,127.5C 86.5,123.5 86.5,119.5 86.5,115.5C 93.3316,116.322 100.165,116.655 107,116.5C 108.888,116.204 110.722,115.704 112.5,115C 120.877,114.82 129.21,114.653 137.5,114.5C 142.338,114.558 145.005,116.891 145.5,121.5 Z"/></g>
<g><path style="opacity:1" fill="#8fdd57" d="M 323.5,163.5 C 324.283,159.854 324.45,156.188 324,152.5C 323.323,150.311 322.156,149.978 320.5,151.5C 319.276,149.172 319.276,146.839 320.5,144.5C 317.287,140.283 314.954,135.616 313.5,130.5C 311.501,131.508 309.834,132.841 308.5,134.5C 311.346,126.799 314.68,119.299 318.5,112C 328.161,111.5 337.828,111.334 347.5,111.5C 347.263,114.647 346.43,117.647 345,120.5C 341.113,127.606 337.78,134.939 335,142.5C 331.124,149.594 327.291,156.594 323.5,163.5 Z"/></g>
<g><path style="opacity:1" fill="#051216" d="M 164.5,116.5 C 162.322,119.523 160.655,122.856 159.5,126.5C 157.642,128.883 156.308,131.55 155.5,134.5C 153.162,138.537 150.828,142.537 148.5,146.5C 148.785,144.712 148.452,143.045 147.5,141.5C 146.148,140.482 145.148,139.149 144.5,137.5C 143.813,139.555 142.646,141.221 141,142.5C 140.504,140.965 140.67,139.465 141.5,138C 141.164,136.97 140.497,136.47 139.5,136.5C 139.5,135.833 139.5,135.167 139.5,134.5C 141.53,130.15 143.53,125.817 145.5,121.5C 148.69,118.969 149.69,115.802 148.5,112C 121.167,111.333 93.8333,111.333 66.5,112C 62.0787,112.956 57.7454,114.123 53.5,115.5C 53.5394,114.417 53.8728,113.417 54.5,112.5C 57.5,111.833 60.5,111.167 63.5,110.5C 90.8505,109.817 118.184,109.15 145.5,108.5C 147.383,108.876 148.883,109.876 150,111.5C 150.182,114.226 150.682,116.893 151.5,119.5C 153.133,117.497 155.133,116.164 157.5,115.5C 157.238,114.022 157.571,112.689 158.5,111.5C 158.833,112.333 159.167,113.167 159.5,114C 158.498,116.168 157.498,118.335 156.5,120.5C 156.919,121.672 157.585,122.672 158.5,123.5C 159.896,121.028 160.73,118.362 161,115.5C 162.011,116.337 163.178,116.67 164.5,116.5 Z"/></g>
<g><path style="opacity:1" fill="#a3d86c" d="M 81.5,138.5 C 99.5,138.5 117.5,138.5 135.5,138.5C 114.337,139.332 93.0039,139.832 71.5,140C 70.255,140.791 68.9217,141.291 67.5,141.5C 66.6649,140.057 65.3316,139.057 63.5,138.5C 64.5,138.167 65.5,137.833 66.5,137.5C 71.4662,138.331 76.4662,138.664 81.5,138.5 Z"/></g>
<g><path style="opacity:1" fill="#122f0d" d="M 139.5,134.5 C 139.5,135.167 139.5,135.833 139.5,136.5C 139.489,138.017 138.823,139.184 137.5,140C 116.5,140.333 95.5,140.667 74.5,141C 71.4535,141.739 68.4535,142.572 65.5,143.5C 65.8333,142.5 66.5,141.833 67.5,141.5C 68.9217,141.291 70.255,140.791 71.5,140C 93.0039,139.832 114.337,139.332 135.5,138.5C 137.274,137.63 138.607,136.297 139.5,134.5 Z"/></g>
<g><path style="opacity:1" fill="#b8e84c" d="M 86.5,115.5 C 86.5,119.5 86.5,123.5 86.5,127.5C 83.1016,127.18 79.7683,127.513 76.5,128.5C 77.325,129.386 78.325,129.719 79.5,129.5C 79.5,130.5 79.5,131.5 79.5,132.5C 82.5184,132.335 85.5184,132.502 88.5,133C 84.5319,133.942 80.5319,134.775 76.5,135.5C 76.8333,136.5 77.5,137.167 78.5,137.5C 81.438,136.425 84.438,136.259 87.5,137C 85.2922,137.191 83.2922,137.691 81.5,138.5C 76.4662,138.664 71.4662,138.331 66.5,137.5C 65.5,137.833 64.5,138.167 63.5,138.5C 65.3316,139.057 66.6649,140.057 67.5,141.5C 66.5,141.833 65.8333,142.5 65.5,143.5C 60.8767,146.402 58.5434,150.735 58.5,156.5C 57.5128,161.305 57.1795,166.305 57.5,171.5C 58.331,178.131 58.6643,184.798 58.5,191.5C 57.5655,192.568 57.2322,193.901 57.5,195.5C 57.5,195.833 57.5,196.167 57.5,196.5C 56.5032,214.326 56.1699,232.326 56.5,250.5C 48.2079,251.407 39.8746,251.74 31.5,251.5C 31.5,250.833 31.1667,250.5 30.5,250.5C 30.2218,215.486 30.5551,180.486 31.5,145.5C 33.4284,135.475 38.0951,126.975 45.5,120C 46.0944,119.536 46.7611,119.369 47.5,119.5C 51.5885,118.291 55.5885,116.791 59.5,115C 64.5,114.333 69.5,114.333 74.5,115C 75.3992,116.236 76.5659,117.07 78,117.5C 80.595,115.854 83.4284,115.187 86.5,115.5 Z"/></g>
<g><path style="opacity:1" fill="#020e1a" d="M 139.5,136.5 C 140.497,136.47 141.164,136.97 141.5,138C 140.67,139.465 140.504,140.965 141,142.5C 142.646,141.221 143.813,139.555 144.5,137.5C 145.148,139.149 146.148,140.482 147.5,141.5C 148.452,143.045 148.785,144.712 148.5,146.5C 147.499,149.172 146.499,151.838 145.5,154.5C 144.069,154.119 143.236,153.119 143,151.5C 141.887,152.711 140.72,152.711 139.5,151.5C 138.719,152.737 137.719,153.737 136.5,154.5C 135.494,154.062 135.494,153.396 136.5,152.5C 134.926,151.369 133.259,151.202 131.5,152C 132.751,154.953 132.751,157.953 131.5,161C 131.833,161.5 132.167,162 132.5,162.5C 133.386,161.675 133.719,160.675 133.5,159.5C 134.5,159.5 135.5,159.5 136.5,159.5C 134.778,163.819 132.945,168.152 131,172.5C 129.307,173.184 127.807,174.184 126.5,175.5C 125.755,173.253 124.422,171.42 122.5,170C 124.221,169.261 125.887,168.427 127.5,167.5C 122.994,166.546 118.494,165.546 114,164.5C 95.1806,166.905 76.6806,166.905 58.5,164.5C 58.5,161.833 58.5,159.167 58.5,156.5C 58.5434,150.735 60.8767,146.402 65.5,143.5C 68.4535,142.572 71.4535,141.739 74.5,141C 95.5,140.667 116.5,140.333 137.5,140C 138.823,139.184 139.489,138.017 139.5,136.5 Z"/></g>
<g><path style="opacity:1" fill="#a7e350" d="M 227.5,153.5 C 227.84,156.144 227.173,158.477 225.5,160.5C 226.128,162.258 227.128,163.758 228.5,165C 227.424,166.726 227.257,168.559 228,170.5C 229.617,171.851 230.784,173.518 231.5,175.5C 232.415,173.02 233.915,172.353 236,173.5C 235.923,174.83 235.423,176.164 234.5,177.5C 234.637,180.79 236.137,183.123 239,184.5C 239.333,183.5 239.667,182.5 240,181.5C 239.954,184.8 239.788,188.134 239.5,191.5C 238.5,191.5 237.5,191.5 236.5,191.5C 236.24,203.356 236.574,215.189 237.5,227C 236.833,229.333 236.167,231.667 235.5,234C 235.537,236.419 236.204,238.085 237.5,239C 237.167,239.833 236.833,240.667 236.5,241.5C 235.205,239.672 234.205,237.672 233.5,235.5C 232.817,235.137 232.15,234.804 231.5,234.5C 229.744,232.751 228.411,230.751 227.5,228.5C 227.461,227.417 227.127,226.417 226.5,225.5C 198.508,224.5 170.508,224.167 142.5,224.5C 155.737,222.07 169.071,220.57 182.5,220C 183.516,219.481 184.182,218.647 184.5,217.5C 183.673,214.217 183.34,210.884 183.5,207.5C 180.753,207.813 178.086,207.48 175.5,206.5C 180.833,205.5 186.167,204.5 191.5,203.5C 178.673,202.833 166.006,202.167 153.5,201.5C 173.833,201.5 194.167,201.5 214.5,201.5C 214.923,199.219 214.256,197.552 212.5,196.5C 212.011,195.005 211.345,193.671 210.5,192.5C 204.421,179.343 198.088,166.343 191.5,153.5C 190.868,149.569 189.201,146.235 186.5,143.5C 186.5,142.5 186.5,141.5 186.5,140.5C 184.833,140.5 183.167,140.5 181.5,140.5C 182.584,137.903 183.918,135.403 185.5,133C 187.479,132.316 189.146,132.816 190.5,134.5C 190.833,133.833 191.167,133.167 191.5,132.5C 190.553,130.6 189.053,129.267 187,128.5C 185.416,129.861 183.582,130.528 181.5,130.5C 181.5,129.5 181.5,128.5 181.5,127.5C 182.873,127.657 184.207,127.49 185.5,127C 183.709,124.894 183.042,122.394 183.5,119.5C 185.401,119.567 187.234,119.233 189,118.5C 191.826,120.887 194.659,120.721 197.5,118C 194.214,117.073 191.048,116.907 188,117.5C 182.201,114.638 176.034,113.805 169.5,115C 166.554,116.739 165.054,119.239 165,122.5C 166.439,120.552 168.272,119.219 170.5,118.5C 171.932,118.733 172.432,119.4 172,120.5C 169.146,123.28 165.979,125.614 162.5,127.5C 161.583,126.873 160.583,126.539 159.5,126.5C 160.655,122.856 162.322,119.523 164.5,116.5C 166.805,115.011 169.138,113.511 171.5,112C 183.5,111.333 195.5,111.333 207.5,112C 215.221,125.331 221.887,139.165 227.5,153.5 Z"/></g>
<g><path style="opacity:1" fill="#11250f" d="M 186.5,143.5 C 189.201,146.235 190.868,149.569 191.5,153.5C 188.769,150.705 187.102,147.372 186.5,143.5 Z"/></g>
<g><path style="opacity:1" fill="#030f19" d="M 181.5,140.5 C 183.167,140.5 184.833,140.5 186.5,140.5C 186.5,141.5 186.5,142.5 186.5,143.5C 187.102,147.372 188.769,150.705 191.5,153.5C 198.088,166.343 204.421,179.343 210.5,192.5C 210.674,194.861 211.007,197.194 211.5,199.5C 193.167,199.5 174.833,199.5 156.5,199.5C 156.5,198.167 156.5,196.833 156.5,195.5C 156.66,193.847 157.326,192.514 158.5,191.5C 159.458,191.047 160.292,190.381 161,189.5C 161.333,190.167 161.667,190.833 162,191.5C 162.333,189.167 162.667,186.833 163,184.5C 164,183.833 165,183.167 166,182.5C 166.186,180.1 166.686,177.766 167.5,175.5C 168.167,176.5 168.833,177.5 169.5,178.5C 169.899,175.578 170.066,172.578 170,169.5C 170.333,169.167 170.667,168.833 171,168.5C 171.249,169.624 171.749,170.624 172.5,171.5C 173.243,170.092 174.077,168.759 175,167.5C 174.767,163.427 174.934,159.427 175.5,155.5C 177.217,150.398 179.217,145.398 181.5,140.5 Z"/></g>
<g><path style="opacity:1" fill="#02110f" d="M 31.5,145.5 C 30.5551,180.486 30.2218,215.486 30.5,250.5C 28.6726,220.517 27.8392,190.183 28,159.5C 26.5294,191.451 26.0294,223.451 26.5,255.5C 25.5,255.5 24.5,255.5 23.5,255.5C 23.8482,222.14 24.8482,188.807 26.5,155.5C 25.9596,151.466 25.2929,147.466 24.5,143.5C 27.0758,143.468 29.4091,144.135 31.5,145.5 Z"/></g>
<g><path style="opacity:1" fill="#3d5c2c" d="M 58.5,156.5 C 58.5,159.167 58.5,161.833 58.5,164.5C 58.5,166.5 58.5,168.5 58.5,170.5C 79.3401,170.169 100.007,170.503 120.5,171.5C 101.5,171.5 82.5,171.5 63.5,171.5C 61.5,171.5 59.5,171.5 57.5,171.5C 57.1795,166.305 57.5128,161.305 58.5,156.5 Z"/></g>
<g><path style="opacity:1" fill="#a6d86c" d="M 63.5,171.5 C 82.5,171.5 101.5,171.5 120.5,171.5C 121.649,171.791 122.316,172.624 122.5,174C 122.333,174.833 122.167,175.667 122,176.5C 119.871,179.767 118.038,183.101 116.5,186.5C 116.963,183.518 117.296,180.518 117.5,177.5C 118.5,177.5 119.5,177.5 120.5,177.5C 120.5,175.833 120.5,174.167 120.5,172.5C 112.167,172.5 103.833,172.5 95.5,172.5C 84.6536,172.828 73.9869,172.494 63.5,171.5 Z"/></g>
<g><path style="opacity:1" fill="#ace64c" d="M 57.5,171.5 C 59.5,171.5 61.5,171.5 63.5,171.5C 73.9869,172.494 84.6536,172.828 95.5,172.5C 84.879,174.315 73.879,175.148 62.5,175C 70.4931,175.5 78.4931,175.666 86.5,175.5C 86.5,180.833 86.5,186.167 86.5,191.5C 78.8261,191.334 71.1594,191.5 63.5,192C 78.3196,192.016 92.9862,192.683 107.5,194C 91.5035,194.5 75.5035,194.667 59.5,194.5C 59.7373,193.209 59.404,192.209 58.5,191.5C 58.6643,184.798 58.331,178.131 57.5,171.5 Z"/></g>
<g><path style="opacity:1" fill="#a2e352" d="M 95.5,172.5 C 103.833,172.5 112.167,172.5 120.5,172.5C 120.5,174.167 120.5,175.833 120.5,177.5C 119.5,177.5 118.5,177.5 117.5,177.5C 117.296,180.518 116.963,183.518 116.5,186.5C 115.347,188.807 114.18,191.14 113,193.5C 111.89,195.037 110.39,195.703 108.5,195.5C 91.5,195.5 74.5,195.5 57.5,195.5C 57.2322,193.901 57.5655,192.568 58.5,191.5C 59.404,192.209 59.7373,193.209 59.5,194.5C 75.5035,194.667 91.5035,194.5 107.5,194C 92.9862,192.683 78.3196,192.016 63.5,192C 71.1594,191.5 78.8261,191.334 86.5,191.5C 86.5,186.167 86.5,180.833 86.5,175.5C 78.4931,175.666 70.4931,175.5 62.5,175C 73.879,175.148 84.879,174.315 95.5,172.5 Z"/></g>
<g><path style="opacity:1" fill="#041214" d="M 145.5,154.5 C 137.088,172.324 128.421,189.99 119.5,207.5C 119.318,205.325 118.651,203.325 117.5,201.5C 118.538,197.858 117.538,197.525 114.5,200.5C 113.757,199.092 112.923,197.759 112,196.5C 111.517,197.448 111.351,198.448 111.5,199.5C 108.367,200.011 105.2,200.344 102,200.5C 88.7605,200.292 75.7605,199.292 63,197.5C 62.5065,199.134 62.3398,200.801 62.5,202.5C 61.1667,202.5 59.8333,202.5 58.5,202.5C 58.5,200.5 58.5,198.5 58.5,196.5C 75.3417,196.83 92.0084,196.497 108.5,195.5C 110.39,195.703 111.89,195.037 113,193.5C 114.18,191.14 115.347,188.807 116.5,186.5C 118.038,183.101 119.871,179.767 122,176.5C 122.167,175.667 122.333,174.833 122.5,174C 122.316,172.624 121.649,171.791 120.5,171.5C 100.007,170.503 79.3401,170.169 58.5,170.5C 58.5,168.5 58.5,166.5 58.5,164.5C 76.6806,166.905 95.1806,166.905 114,164.5C 118.494,165.546 122.994,166.546 127.5,167.5C 125.887,168.427 124.221,169.261 122.5,170C 124.422,171.42 125.755,173.253 126.5,175.5C 127.807,174.184 129.307,173.184 131,172.5C 132.945,168.152 134.778,163.819 136.5,159.5C 135.5,159.5 134.5,159.5 133.5,159.5C 133.719,160.675 133.386,161.675 132.5,162.5C 132.167,162 131.833,161.5 131.5,161C 132.751,157.953 132.751,154.953 131.5,152C 133.259,151.202 134.926,151.369 136.5,152.5C 135.494,153.396 135.494,154.062 136.5,154.5C 137.719,153.737 138.719,152.737 139.5,151.5C 140.72,152.711 141.887,152.711 143,151.5C 143.236,153.119 144.069,154.119 145.5,154.5 Z"/></g>
<g><path style="opacity:1" fill="#071613" d="M 175.5,155.5 C 174.934,159.427 174.767,163.427 175,167.5C 174.077,168.759 173.243,170.092 172.5,171.5C 171.749,170.624 171.249,169.624 171,168.5C 170.667,168.833 170.333,169.167 170,169.5C 170.066,172.578 169.899,175.578 169.5,178.5C 168.833,177.5 168.167,176.5 167.5,175.5C 166.686,177.766 166.186,180.1 166,182.5C 165,183.167 164,183.833 163,184.5C 162.667,186.833 162.333,189.167 162,191.5C 161.667,190.833 161.333,190.167 161,189.5C 160.292,190.381 159.458,191.047 158.5,191.5C 163.657,179.189 169.324,167.189 175.5,155.5 Z"/></g>
<g><path style="opacity:1" fill="#a0e153" d="M 227.5,153.5 C 238.009,173.853 248.009,194.52 257.5,215.5C 258.234,218.987 258.567,222.32 258.5,225.5C 257.738,225.911 256.738,226.077 255.5,226C 255.041,230.49 255.707,234.99 257.5,239.5C 261.226,239.823 264.893,239.489 268.5,238.5C 267.91,237.201 266.91,236.368 265.5,236C 258.656,236.678 256.989,234.178 260.5,228.5C 263.447,229.423 266.447,230.089 269.5,230.5C 270.406,233.436 271.072,236.436 271.5,239.5C 274.06,240.859 276.56,242.526 279,244.5C 279.945,244.095 280.612,243.428 281,242.5C 281.494,244.134 281.66,245.801 281.5,247.5C 280.47,250.192 278.47,251.692 275.5,252C 263.5,252.667 251.5,252.667 239.5,252C 237.266,247.69 234.932,243.524 232.5,239.5C 232.371,237.784 232.038,236.117 231.5,234.5C 232.15,234.804 232.817,235.137 233.5,235.5C 234.205,237.672 235.205,239.672 236.5,241.5C 236.833,240.667 237.167,239.833 237.5,239C 236.204,238.085 235.537,236.419 235.5,234C 236.167,231.667 236.833,229.333 237.5,227C 236.574,215.189 236.24,203.356 236.5,191.5C 237.5,191.5 238.5,191.5 239.5,191.5C 239.788,188.134 239.954,184.8 240,181.5C 239.667,182.5 239.333,183.5 239,184.5C 236.137,183.123 234.637,180.79 234.5,177.5C 235.423,176.164 235.923,174.83 236,173.5C 233.915,172.353 232.415,173.02 231.5,175.5C 230.784,173.518 229.617,171.851 228,170.5C 227.257,168.559 227.424,166.726 228.5,165C 227.128,163.758 226.128,162.258 225.5,160.5C 227.173,158.477 227.84,156.144 227.5,153.5 Z"/></g>
<g><path style="opacity:1" fill="#041a06" d="M 210.5,192.5 C 211.345,193.671 212.011,195.005 212.5,196.5C 213.234,197.708 213.567,199.041 213.5,200.5C 193.833,200.5 174.167,200.5 154.5,200.5C 154.5,199.5 154.5,198.5 154.5,197.5C 155.167,196.833 155.833,196.167 156.5,195.5C 156.5,196.833 156.5,198.167 156.5,199.5C 174.833,199.5 193.167,199.5 211.5,199.5C 211.007,197.194 210.674,194.861 210.5,192.5 Z"/></g>
<g><path style="opacity:1" fill="#88ab62" d="M 212.5,196.5 C 214.256,197.552 214.923,199.219 214.5,201.5C 194.167,201.5 173.833,201.5 153.5,201.5C 153.232,199.901 153.566,198.568 154.5,197.5C 154.5,198.5 154.5,199.5 154.5,200.5C 174.167,200.5 193.833,200.5 213.5,200.5C 213.567,199.041 213.234,197.708 212.5,196.5 Z"/></g>
<g><path style="opacity:1" fill="#97df54" d="M 323.5,163.5 C 323.5,163.833 323.5,164.167 323.5,164.5C 322.85,164.196 322.183,163.863 321.5,163.5C 321.143,167.277 319.143,169.444 315.5,170C 314.575,173.095 312.575,174.928 309.5,175.5C 309.5,176.833 309.5,178.167 309.5,179.5C 310.833,179.5 312.167,179.5 313.5,179.5C 314.401,183.241 313.068,185.241 309.5,185.5C 309.407,189.61 308.24,193.276 306,196.5C 305.085,195.672 304.419,194.672 304,193.5C 303.217,195.433 303.717,196.933 305.5,198C 304.773,199.399 304.273,200.899 304,202.5C 302.23,201.724 300.397,201.89 298.5,203C 297.217,205.627 295.717,208.127 294,210.5C 293.219,211.944 293.386,213.277 294.5,214.5C 296.167,212.833 297.167,213.167 297.5,215.5C 295.38,218.857 294.047,222.524 293.5,226.5C 290.816,232.53 288.15,238.53 285.5,244.5C 284.167,245.5 282.833,246.5 281.5,247.5C 281.66,245.801 281.494,244.134 281,242.5C 280.612,243.428 279.945,244.095 279,244.5C 276.56,242.526 274.06,240.859 271.5,239.5C 271.072,236.436 270.406,233.436 269.5,230.5C 266.447,230.089 263.447,229.423 260.5,228.5C 256.989,234.178 258.656,236.678 265.5,236C 266.91,236.368 267.91,237.201 268.5,238.5C 264.893,239.489 261.226,239.823 257.5,239.5C 255.707,234.99 255.041,230.49 255.5,226C 256.738,226.077 257.738,225.911 258.5,225.5C 258.567,222.32 258.234,218.987 257.5,215.5C 257.833,215.5 258.167,215.5 258.5,215.5C 258.553,221.018 261.219,223.685 266.5,223.5C 268.313,218.056 270.313,212.722 272.5,207.5C 284.244,183.012 296.244,158.679 308.5,134.5C 309.834,132.841 311.501,131.508 313.5,130.5C 314.954,135.616 317.287,140.283 320.5,144.5C 319.276,146.839 319.276,149.172 320.5,151.5C 322.156,149.978 323.323,150.311 324,152.5C 324.45,156.188 324.283,159.854 323.5,163.5 Z"/></g>
<g><path style="opacity:1" fill="#94d75c" d="M 323.5,164.5 C 314.059,185.383 304.059,206.05 293.5,226.5C 294.047,222.524 295.38,218.857 297.5,215.5C 297.167,213.167 296.167,212.833 294.5,214.5C 293.386,213.277 293.219,211.944 294,210.5C 295.717,208.127 297.217,205.627 298.5,203C 300.397,201.89 302.23,201.724 304,202.5C 304.273,200.899 304.773,199.399 305.5,198C 303.717,196.933 303.217,195.433 304,193.5C 304.419,194.672 305.085,195.672 306,196.5C 308.24,193.276 309.407,189.61 309.5,185.5C 313.068,185.241 314.401,183.241 313.5,179.5C 312.167,179.5 310.833,179.5 309.5,179.5C 309.5,178.167 309.5,176.833 309.5,175.5C 312.575,174.928 314.575,173.095 315.5,170C 319.143,169.444 321.143,167.277 321.5,163.5C 322.183,163.863 322.85,164.196 323.5,164.5 Z"/></g>
<g><path style="opacity:1" fill="#395723" d="M 57.5,195.5 C 74.5,195.5 91.5,195.5 108.5,195.5C 92.0084,196.497 75.3417,196.83 58.5,196.5C 58.5,198.5 58.5,200.5 58.5,202.5C 58.8296,218.342 58.4963,234.009 57.5,249.5C 57.5,231.833 57.5,214.167 57.5,196.5C 57.5,196.167 57.5,195.833 57.5,195.5 Z"/></g>
<g><path style="opacity:1" fill="#bae74c" d="M 155.5,134.5 C 155.274,137.249 155.607,139.916 156.5,142.5C 155.726,143.711 154.893,143.711 154,142.5C 153.846,145.525 152.346,147.191 149.5,147.5C 148.989,150.028 148.322,152.528 147.5,155C 147.898,156.899 148.898,158.399 150.5,159.5C 151.495,164.792 151.828,170.125 151.5,175.5C 149.833,175.5 148.167,175.5 146.5,175.5C 146.649,176.552 146.483,177.552 146,178.5C 141.739,179.773 139.239,178.107 138.5,173.5C 135.923,175.985 135.923,178.485 138.5,181C 138.04,182.301 137.706,183.634 137.5,185C 138.737,191.742 139.404,198.576 139.5,205.5C 140.672,215.198 139.006,224.198 134.5,232.5C 134.942,233.739 135.609,234.739 136.5,235.5C 134.309,241.244 131.643,246.744 128.5,252C 119.173,252.5 109.839,252.666 100.5,252.5C 100.338,250.473 100.505,248.473 101,246.5C 107.708,233.751 113.874,220.751 119.5,207.5C 128.421,189.99 137.088,172.324 145.5,154.5C 146.499,151.838 147.499,149.172 148.5,146.5C 150.828,142.537 153.162,138.537 155.5,134.5 Z"/></g>
<g><path style="opacity:1" fill="#0c1b0d" d="M 272.5,207.5 C 270.313,212.722 268.313,218.056 266.5,223.5C 261.219,223.685 258.553,221.018 258.5,215.5C 260.557,217.856 263.224,218.856 266.5,218.5C 267.214,214.067 269.214,210.4 272.5,207.5 Z"/></g>
<g><path style="opacity:1" fill="#041901" d="M 142.5,224.5 C 170.508,224.167 198.508,224.5 226.5,225.5C 227.127,226.417 227.461,227.417 227.5,228.5C 226.234,227.91 224.901,227.41 223.5,227C 224.167,226.667 224.833,226.333 225.5,226C 197.833,225.333 170.167,225.333 142.5,226C 143.051,228.391 142.051,230.225 139.5,231.5C 140.264,228.982 141.264,226.649 142.5,224.5 Z"/></g>
<g><path style="opacity:1" fill="#a3c65c" d="M 57.5,196.5 C 57.5,214.167 57.5,231.833 57.5,249.5C 57.4894,251.017 56.8228,252.184 55.5,253C 47.8333,253.667 40.1667,253.667 32.5,253C 31.944,252.617 31.6107,252.117 31.5,251.5C 39.8746,251.74 48.2079,251.407 56.5,250.5C 56.1699,232.326 56.5032,214.326 57.5,196.5 Z"/></g>
<g><path style="opacity:1" fill="#11240f" d="M 232.5,239.5 C 234.932,243.524 237.266,247.69 239.5,252C 251.5,252.667 263.5,252.667 275.5,252C 278.47,251.692 280.47,250.192 281.5,247.5C 282.833,246.5 284.167,245.5 285.5,244.5C 284.962,246.117 284.629,247.784 284.5,249.5C 285.5,249.5 286.5,249.5 287.5,249.5C 287.5,250.5 287.5,251.5 287.5,252.5C 281.859,250.963 276.692,251.963 272,255.5C 261.243,254.679 250.41,254.179 239.5,254C 238,253.167 236.833,252 236,250.5C 234.241,246.991 233.074,243.325 232.5,239.5 Z"/></g>
</svg>
