<svg xmlns="http://www.w3.org/2000/svg" width="64" height="64" viewBox="0 0 64 64"><circle cx="32" cy="32" r="32" fill="#df070b"/><g transform="translate(14.928 20.605)"><path d="M131.283,88.533v9.5c-.584-.216-1.485-1.781-1.867-2.291l-3.568-4.9c-.267-.392-1.491-2.315-1.992-2.315H120c0,5.112.147,10.285.147,15.424H124V94.312c.533.363,6.229,8.208,6.909,9.128.205.267.267.533.664.533h3.563V88.533C133.768,88.533,132.68,88.493,131.283,88.533Zm9.651,10.091h-1.2V94.467c1.9,0,3.715-.3,3.715,2.224.019,1.5-1.048,1.928-2.515,1.928Zm-4.9,8.168h3.7V100.7c.584.152.288.069,1.051,1.333.317.533.595,1,.947,1.584.664,1.107,1.277,2.064,1.867,3.181h4.6c-.453-.68-3.949-5.763-4.157-6.4a4.741,4.741,0,0,0,2.536-1.333,4.821,4.821,0,0,0-4.016-7.733h-6.536ZM154.133,84h-6.4c-.7,1.333-1.368,2.667-2.077,4h3.859c0,4.691.131,9.389.152,14.1h4.453Z" transform="translate(-120 -84)" fill="#fff" fill-rule="evenodd"/></g></svg>