<svg xmlns="http://www.w3.org/2000/svg" width="64" height="64" viewBox="0 0 64 64"><circle cx="32" cy="32" r="32" fill="#076e38"/><g transform="translate(13.892 12.205)"><path d="M162.886,341.25a39.326,39.326,0,0,0,7.976,17.04,338.556,338.556,0,0,0,27.811-24.019l-.139-.752-10.4-6.429a7.891,7.891,0,0,1-6.12,3.432Z" transform="translate(-162.407 -326.602)" fill="#fff"/><path d="M183.609,322.359s-.589,1.685-6.067,4.413c-5.3,2.731-19.416,9.952-19.416,9.952a31.032,31.032,0,0,1-.117-9.293c2.827-1.333,11.408-5.539,11.408-5.539,4.9,5.152,9.573,5.184,13.776.341Z" transform="translate(-157.679 -321.892)" fill="#d8002f"/><path d="M182.6,322.54a9.819,9.819,0,0,1-4.435,3.144c-4.4,1.656-9.2-3.675-9.2-3.675l-11.352,5.56a29,29,0,0,0,0,9.125,37.36,37.36,0,0,0,16.835,24.8,35.1,35.1,0,0,0,18.792-32.608L182.8,322.273Z" transform="translate(-157.248 -321.998)" fill="none"/><path d="M208.661,429.094c-8.691-4.435-13.883-15.664-13.883-15.664l32.573-16.843a35.467,35.467,0,0,1-18.691,32.507" transform="translate(-191.305 -389.571)" fill="#02863a"/><path d="M259.9,421.974l-.061,20.355s4.632-6.107,4.693-6.667c-.061-1.048,0-16.1,0-16.1Zm-9.627,5.051-.251,22.952,4.621-2.965.125-22.4Zm-9.573,4.936-.061,9.381a42.824,42.824,0,0,0,4.131,4.435c.251-1.109.061-15.909.061-15.909Z" transform="translate(-232.854 -410.387)" fill="#fff"/><path d="M208.661,429.094c-8.691-4.435-13.883-15.664-13.883-15.664l32.573-16.843A35.467,35.467,0,0,1,208.661,429.094Z" transform="translate(-191.305 -389.571)" fill="none"/><path d="M185.367,368.229a3.24,3.24,0,0,0-1.672,1.821,3.283,3.283,0,0,0,.107,2.488,3.221,3.221,0,0,0,5.643.4,3.444,3.444,0,0,0,.429-.949c-.107.168-.2.328-.312.483a3.1,3.1,0,0,1-1.219.835,2.592,2.592,0,0,1-1.248.077,2.544,2.544,0,0,1-1.949-1.485,2.584,2.584,0,0,1,.227-2.621,2.621,2.621,0,0,1,1.656-1.067,4.047,4.047,0,0,1,1.051,0,3.248,3.248,0,0,0-2.712.024m4.888,2.555.149-.861.885-.139-.8-.405.155-.883-.645.621-.8-.419.4.8-.632.621.872-.125Z" transform="translate(-181.088 -363.597)" fill="#fff"/><path d="M210.347,521.2l-.189-.979-1.005-.139.888-.472-.189-1.005.741.693.885-.488-.432.912.736.7-.995-.133Z" transform="translate(-204.321 -500.127)"/><path d="M269.317,490.229l-.195-.973-1.011-.133.9-.472-.195-1.019.747.693.88-.488-.437.92.741.7-.989-.128Z" transform="translate(-257.751 -472.067)" fill="#d9002f"/><path d="M328.336,459.274l-.195-.973-1.011-.133.9-.472-.195-1.016.747.693.88-.488-.437.92.741.7-.989-.128Z" transform="translate(-311.228 -444.018)" fill="#ffdc06"/><path d="M387.36,428.322l-.195-.973-1.011-.133.9-.472-.195-1.016.747.693.88-.488-.437.92.741.7-.989-.131Z" transform="translate(-364.708 -415.97)" fill="#02863a"/><path d="M446.387,397.368l-.195-.973-1.011-.133.9-.472-.195-1.016.747.693.88-.488-.437.92.741.7-.989-.128Z" transform="translate(-418.191 -387.925)" fill="#0081bb"/><path d="M210.432,362.012l.405-.216a2.269,2.269,0,0,0,.475-.3.326.326,0,0,0,.091-.195.4.4,0,0,0-.053-.235.374.374,0,0,0-.189-.184.387.387,0,0,0-.267,0c-.048.019-.181.085-.405.2l-.429.229Zm.283,1.867-1.443-2.717,1.155-.613a2.249,2.249,0,0,1,.672-.267.7.7,0,0,1,.453.091.889.889,0,0,1,.347.365.824.824,0,0,1,.088.6.971.971,0,0,1-.4.533,1.471,1.471,0,0,1,.413.072,3.705,3.705,0,0,1,.533.267l.613.352-.656.349-.709-.384a4.339,4.339,0,0,0-.5-.243.484.484,0,0,0-.227-.024.983.983,0,0,0-.293.117l-.112.059.6,1.133Zm-3.277,0a1.16,1.16,0,0,0,.587.587.832.832,0,0,0,1.083-.573,1.179,1.179,0,0,0-.165-.824,1.162,1.162,0,0,0-.576-.587.861.861,0,0,0-1.091.584,1.16,1.16,0,0,0,.165.813m-.555.32a1.943,1.943,0,0,1-.245-.765,1.439,1.439,0,0,1,.053-.509,1.19,1.19,0,0,1,.221-.432,1.675,1.675,0,0,1,.533-.419,1.445,1.445,0,0,1,1.16-.139,1.627,1.627,0,0,1,.912.848,1.6,1.6,0,0,1,.189,1.221,1.616,1.616,0,0,1-1.92,1.024,1.6,1.6,0,0,1-.9-.829m-2.328.064.413.773.3-.157a1.6,1.6,0,0,0,.411-.267.43.43,0,0,0-.171-.669.427.427,0,0,0-.285,0,2.789,2.789,0,0,0-.4.189Zm.651,2.549-1.445-2.717.88-.467a3.683,3.683,0,0,1,.672-.307.8.8,0,0,1,.533.059.953.953,0,0,1,.44.445,1,1,0,0,1,.133.469.832.832,0,0,1-.088.392.907.907,0,0,1-.216.267,3.6,3.6,0,0,1-.547.341l-.357.19.533,1.024Zm-3.045.491.507-.339a.736.736,0,0,0,.4.291.664.664,0,0,0,.464-.085.685.685,0,0,0,.339-.323.376.376,0,0,0,0-.333.283.283,0,0,0-.144-.133.5.5,0,0,0-.267-.013q-.115.019-.5.115a1.665,1.665,0,0,1-.76.059.813.813,0,0,1-.621-.869.829.829,0,0,1,.189-.456,1.516,1.516,0,0,1,.483-.379,1.291,1.291,0,0,1,.888-.181.907.907,0,0,1,.592.461l-.533.312a.533.533,0,0,0-.309-.224.627.627,0,0,0-.395.091.7.7,0,0,0-.32.3.224.224,0,0,0,0,.216.237.237,0,0,0,.168.123,1.629,1.629,0,0,0,.6-.085,3.024,3.024,0,0,1,.693-.12.867.867,0,0,1,.445.117.976.976,0,0,1,.443.88.883.883,0,0,1-.205.5,1.733,1.733,0,0,1-.533.413,1.333,1.333,0,0,1-.917.181,1.168,1.168,0,0,1-.7-.517m-1.24.405-.912-.8.168,1.2Zm1.579.533-.592.315-.563-.493-1.091.579.1.739-.581.309-.389-3.277.581-.309Zm-5.565,1.829.507-.339a.728.728,0,0,0,.4.291.661.661,0,0,0,.464-.085.69.69,0,0,0,.339-.323.382.382,0,0,0,0-.333.283.283,0,0,0-.144-.133.51.51,0,0,0-.267,0,3.313,3.313,0,0,0-.5.115,1.676,1.676,0,0,1-.76.059.816.816,0,0,1-.632-.867.843.843,0,0,1,.192-.456,1.517,1.517,0,0,1,.483-.376,1.286,1.286,0,0,1,.888-.181.915.915,0,0,1,.592.461l-.533.312a.534.534,0,0,0-.309-.224.613.613,0,0,0-.395.091.7.7,0,0,0-.32.3.229.229,0,0,0,0,.216.24.24,0,0,0,.168.123,1.626,1.626,0,0,0,.6-.085,2.946,2.946,0,0,1,.7-.117.853.853,0,0,1,.445.117.97.97,0,0,1,.44.883.875.875,0,0,1-.205.5,1.741,1.741,0,0,1-.533.413,1.334,1.334,0,0,1-.917.184,1.17,1.17,0,0,1-.7-.517m-2.464.429.405-.216a2.416,2.416,0,0,0,.475-.3.33.33,0,0,0,.093-.2.4.4,0,0,0-.053-.235.37.37,0,0,0-.189-.181.386.386,0,0,0-.267,0c-.048.019-.181.085-.405.205l-.429.227Zm.283,1.867-1.445-2.715,1.155-.613a2.248,2.248,0,0,1,.672-.267.707.707,0,0,1,.453.093.88.88,0,0,1,.347.365.827.827,0,0,1,.088.6.968.968,0,0,1-.4.533,1.453,1.453,0,0,1,.413.072,3.509,3.509,0,0,1,.533.267l.613.355-.656.349-.709-.384a4.328,4.328,0,0,0-.5-.245.48.48,0,0,0-.227-.024,1.065,1.065,0,0,0-.293.117l-.112.059.6,1.136Zm-4.093-1.309.549-.291.781,1.472a3.3,3.3,0,0,0,.267.443.493.493,0,0,0,.309.179.642.642,0,0,0,.413-.088.608.608,0,0,0,.3-.283.432.432,0,0,0,.019-.309,3.632,3.632,0,0,0-.221-.475l-.8-1.5.549-.293.76,1.429a4.121,4.121,0,0,1,.325.715.875.875,0,0,1,.019.427.944.944,0,0,1-.2.392,1.6,1.6,0,0,1-.477.36,1.748,1.748,0,0,1-.637.224.945.945,0,0,1-.44-.067.833.833,0,0,1-.312-.221,3.726,3.726,0,0,1-.421-.661Zm-1.357,2.683.387.728.509-.267a2.846,2.846,0,0,0,.368-.219.392.392,0,0,0,.141-.216.382.382,0,0,0-.045-.267.411.411,0,0,0-.171-.176.379.379,0,0,0-.237-.032,2.089,2.089,0,0,0-.507.219Zm-.573-1.067.333.627.357-.192q.32-.171.395-.221a.416.416,0,0,0,.171-.216.331.331,0,0,0-.032-.267.339.339,0,0,0-.179-.168.354.354,0,0,0-.267.016c-.056.024-.216.1-.472.24Zm-.8-.157,1.088-.579a3.376,3.376,0,0,1,.493-.229.781.781,0,0,1,.672.075.693.693,0,0,1,.251.267.712.712,0,0,1,.083.405.72.72,0,0,1-.152.387.8.8,0,0,1,.512.045.739.739,0,0,1,.349.339.923.923,0,0,1,.107.408.837.837,0,0,1-.085.408.883.883,0,0,1-.3.323c-.085.059-.3.181-.651.371l-.925.491Z" transform="translate(-185.105 -356.665)" fill="#02863a"/><path d="M309.357,507.718a1.227,1.227,0,0,0,.165.691.469.469,0,0,0,.379.245.405.405,0,0,0,.341-.2,1.193,1.193,0,0,0,.139-.654,1.235,1.235,0,0,0-.149-.682.419.419,0,0,0-.728,0,1.051,1.051,0,0,0-.147.611m1.675-2-.717.1a.722.722,0,0,0-.136-.4.358.358,0,0,0-.285-.131.466.466,0,0,0-.4.267,2.621,2.621,0,0,0-.2,1.083.8.8,0,0,1,.688-.4.97.97,0,0,1,.8.437,1.819,1.819,0,0,1,.331,1.128,1.867,1.867,0,0,1-.347,1.176,1.083,1.083,0,0,1-.893.445,1.117,1.117,0,0,1-.96-.565,3.429,3.429,0,0,1-.376-1.845,3.507,3.507,0,0,1,.392-1.9,1.184,1.184,0,0,1,1.019-.581.951.951,0,0,1,.728.307,1.573,1.573,0,0,1,.368.888m-10.667,8.419h-.739v-3.467a2.508,2.508,0,0,1-.955.7v-.832a2.1,2.1,0,0,0,.629-.445,1.725,1.725,0,0,0,.467-.763h.6Z" transform="translate(-285.435 -487.371)" fill="#fff"/><path d="M363.231,479.388l.717-.107a.952.952,0,0,0,.181.52.45.45,0,0,0,.36.181.459.459,0,0,0,.384-.216.968.968,0,0,0,.155-.581.9.9,0,0,0-.149-.547.44.44,0,0,0-.363-.2,1.082,1.082,0,0,0-.339.067l.083-.741a.557.557,0,0,0,.456-.163.645.645,0,0,0,.157-.456.6.6,0,0,0-.117-.386.373.373,0,0,0-.307-.144.405.405,0,0,0-.325.163.881.881,0,0,0-.163.477l-.677-.144a2.157,2.157,0,0,1,.213-.7,1.042,1.042,0,0,1,.4-.411,1.114,1.114,0,0,1,.573-.149,1.045,1.045,0,0,1,.875.432,1.291,1.291,0,0,1,.267.8,1.16,1.16,0,0,1-.557,1.008.884.884,0,0,1,.533.395,1.333,1.333,0,0,1,.2.741,1.616,1.616,0,0,1-.371,1.067,1.152,1.152,0,0,1-.923.445,1.13,1.13,0,0,1-.867-.373,1.6,1.6,0,0,1-.4-.979m-8.133,3.149a1.219,1.219,0,0,0-.165-.685.461.461,0,0,0-.379-.243.4.4,0,0,0-.339.2,1.191,1.191,0,0,0-.136.656,1.229,1.229,0,0,0,.147.677.434.434,0,0,0,.368.216.429.429,0,0,0,.357-.208,1.067,1.067,0,0,0,.147-.611m-1.667,2,.717-.1a.728.728,0,0,0,.136.4.358.358,0,0,0,.288.131.456.456,0,0,0,.387-.267,2.688,2.688,0,0,0,.2-1.085.827.827,0,0,1-.7.4.962.962,0,0,1-.784-.435,1.815,1.815,0,0,1-.331-1.131,1.847,1.847,0,0,1,.349-1.171,1.08,1.08,0,0,1,.888-.445,1.122,1.122,0,0,1,.963.563,3.465,3.465,0,0,1,.376,1.853,3.5,3.5,0,0,1-.392,1.893,1.184,1.184,0,0,1-1.019.581.944.944,0,0,1-.728-.3,1.6,1.6,0,0,1-.357-.9" transform="translate(-334.987 -461.391)" fill="#02863a"/></g></svg>