<svg xmlns="http://www.w3.org/2000/svg" width="64" height="64" viewBox="0 0 64 64"><g transform="translate(-99 -72)"><circle cx="32" cy="32" r="32" transform="translate(99 72)"/><g transform="translate(107.559 97.222)"><path d="M469.635,237.216a1.543,1.543,0,0,0-.576-.472,1.84,1.84,0,0,0-.813-.177h-9.733l-2.746,10.209h2.547l2.061-7.661h2.152l-2.061,7.661h2.56l2.061-7.661h2.152l-2.061,7.661h2.534l2.152-8a2.04,2.04,0,0,0,.055-.861,1.622,1.622,0,0,0-.283-.7" transform="translate(-455.766 -236.566)" fill="#fff"/><path d="M509.224,236.777v.01h-.006c-4.945,0-9.717,3.771-11.355,6.407-1.351,2.174-1.433,5.767-1.435,7.037,0,0,0,.031,0,.033h.014a7.29,7.29,0,0,1,.182-1.771c.948-4.265,5.475-7.359,7.829-8.242a16.485,16.485,0,0,1,4.768-.942l19.853.015.7-2.546Z" transform="translate(-482.891 -236.706)" fill="#e30613"/><path d="M567.318,245.1l-.426,1.586h-7.6l-1.549,5.759h2.56l.857-3.185,5.377-.012a2.551,2.551,0,0,0,.922-.177,3.233,3.233,0,0,0,.837-.478,3.379,3.379,0,0,0,.665-.7,2.724,2.724,0,0,0,.412-.871l.539-1.919Z" transform="translate(-523.794 -242.26)" fill="#e30613"/><path d="M532.952,248.859h2.11l-.269,1h-5.039l1.29-4.8h-1.407c-.038,0-.494.016-1.18.1l-1.354,5.031a2.075,2.075,0,0,0-.058.874,1.611,1.611,0,0,0,.283.7,1.53,1.53,0,0,0,.575.472,1.869,1.869,0,0,0,.827.177h5.709a2.552,2.552,0,0,0,.922-.177,3.316,3.316,0,0,0,.83-.468,3.254,3.254,0,0,0,.672-.706,2.788,2.788,0,0,0,.412-.874l.972-3.537h-4.683Z" transform="translate(-503.301 -242.234)" fill="#e30613"/><path d="M503.729,238.805l-1.284-2.24-3.375,0,2.322,4.061a17.389,17.389,0,0,1,2.337-1.824" transform="translate(-484.654 -236.565)" fill="#fff"/><path d="M511.856,249.763a15.758,15.758,0,0,0-2.423,1.656l.6,1.057,1.762,3.069h2.5l.949.01-3-5.1Z" transform="translate(-491.567 -245.369)" fill="#fff"/></g></g></svg>