<svg xmlns="http://www.w3.org/2000/svg" width="64" height="64" viewBox="0 0 64 64"><g transform="translate(-51.642 -24.478)"><circle cx="32" cy="32" r="32" transform="translate(51.642 24.478)"/><g transform="translate(63.642 70.756)"><path d="M187.675,563.19l.2.362a1.763,1.763,0,0,1,1.161-.49,1.9,1.9,0,0,1,1.619.905,2.185,2.185,0,0,1,.713-.66,1.788,1.788,0,0,1,.905-.245,1.854,1.854,0,0,1,1.459.714,2.573,2.573,0,0,1,.607,1.725v2.279h-1.193V565.5a1.383,1.383,0,0,0-.287-.878.894.894,0,0,0-.735-.367.868.868,0,0,0-.708.357,1.386,1.386,0,0,0-.3.815v2.353h-1.193V565.5a1.367,1.367,0,0,0-.293-.878.9.9,0,0,0-.73-.367.846.846,0,0,0-.623.25,1.408,1.408,0,0,0-.357.634v2.641h-1.278V563.19Z" transform="translate(-186.642 -561.466)" fill="#15bfbf"/><path d="M300.406,563.08h1.022v4.59H300.3v-.447a2.452,2.452,0,0,1-3.3-.133,2.43,2.43,0,0,1,0-3.44,2.452,2.452,0,0,1,3.3-.133Zm-.671,3.173a1.245,1.245,0,0,0,.351-.884,1.2,1.2,0,0,0-.351-.884,1.11,1.11,0,0,0-.841-.362,1.166,1.166,0,0,0-.852.362,1.245,1.245,0,0,0-.351.884,1.269,1.269,0,0,0,.351.884,1.165,1.165,0,0,0,.852.362A1.109,1.109,0,0,0,299.735,566.254Z" transform="translate(-286.539 -561.357)" fill="#15bfbf"/><path d="M381.714,547.036h1.065v1.246h-1.065v3.344h-1.352v-3.344H379.4v-1.246h.958v-1.7h1.352Z" transform="translate(-362.269 -545.312)" fill="#15bfbf"/><path d="M443.667,563.3l.192.522a1.835,1.835,0,0,1,1.555-.639,2.318,2.318,0,0,1,.777.128l-.522,1.182a1.2,1.2,0,0,0-1.086.027,1.144,1.144,0,0,0-.618.836v2.534h-1.331V563.3Z" transform="translate(-419.879 -561.576)" fill="#15bfbf"/><path d="M501.221,563.08h1.022v4.59h-1.129v-.447a2.452,2.452,0,0,1-3.3-.133,2.43,2.43,0,0,1,0-3.44,2.452,2.452,0,0,1,3.3-.133Zm-.671,3.173a1.245,1.245,0,0,0,.351-.884,1.2,1.2,0,0,0-.351-.884,1.11,1.11,0,0,0-.841-.362,1.166,1.166,0,0,0-.852.362,1.245,1.245,0,0,0-.352.884,1.269,1.269,0,0,0,.352.884,1.165,1.165,0,0,0,.852.362A1.109,1.109,0,0,0,500.55,566.254Z" transform="translate(-469.504 -561.357)" fill="#15bfbf"/><path d="M585.543,549.6v1.818h-1.491V545.11h1.491v3.478L587,546.833h1.729l-1.864,2.191,1.811,2.4h-1.655" transform="translate(-548.727 -545.11)" fill="#15bfbf"/></g><g transform="translate(63.646 36.899)"><path d="M193.328,195.24l-6.639-4.143V168.44l6.639-4.222,13.346,7.335,13.353-7.335,6.639,4.222V191.1l-6.639,4.143V172.111l-13.353,7.626-13.346-7.626Z" transform="translate(-186.689 -164.218)" fill="#00fff2"/><g transform="translate(6.639 7.893)"><path d="M268.014,271.925v-15.1l-6.639-3.805v23.129Z" transform="translate(-261.375 -253.019)" fill="#15bfbf"/><path d="M487.062,271.925v-15.1l6.639-3.805v23.129Z" transform="translate(-467.001 -253.019)" fill="#15bfbf"/></g><path d="M261.375,164.218l13.346,7.335,13.353-7.335-13.353,15.519Z" transform="translate(-254.737 -164.218)" fill="#15bfbf"/></g></g></svg>