<svg width="100" height="100" viewBox="0 0 100 100" fill="none" xmlns="http://www.w3.org/2000/svg">
<g clip-path="url(#clip0_1124_17204)">
<path d="M50 100C77.6142 100 100 77.6142 100 50C100 22.3858 77.6142 0 50 0C22.3858 0 0 22.3858 0 50C0 77.6142 22.3858 100 50 100Z" fill="#005596"/>
<path d="M49.9999 98.7333C76.9146 98.7333 98.7333 76.9147 98.7333 50C98.7333 23.0853 76.9146 1.26666 49.9999 1.26666C23.0853 1.26666 1.2666 23.0853 1.2666 50C1.2666 76.9147 23.0853 98.7333 49.9999 98.7333Z" fill="#005596"/>
<path d="M50 2.53333C76.1714 2.53333 97.4667 23.8286 97.4667 50C97.4667 76.1714 76.1714 97.4667 50 97.4667C23.8286 97.4667 2.53333 76.1714 2.53333 50C2.53333 23.8286 23.8286 2.53333 50 2.53333ZM50 0C22.3857 0 0 22.3857 0 50C0 77.6143 22.3857 100 50 100C77.6143 100 100 77.6143 100 50C100 22.3857 77.6143 0 50 0Z" fill="#005596"/>
<path d="M50 100C77.6142 100 100 77.6142 100 50C100 22.3858 77.6142 0 50 0C22.3858 0 0 22.3858 0 50C0 77.6142 22.3858 100 50 100Z" fill="white"/>
<path d="M50 2.53333C76.1714 2.53333 97.4667 23.8286 97.4667 50C97.4667 76.1714 76.1714 97.4667 50 97.4667C23.8286 97.4667 2.53333 76.1714 2.53333 50C2.53333 23.8286 23.8286 2.53333 50 2.53333ZM50 0C22.3857 0 0 22.3857 0 50C0 77.6143 22.3857 100 50 100C77.6143 100 100 77.6143 100 50C100 22.3857 77.6143 0 50 0Z" fill="#CE3524"/>
<path d="M71.7763 26.6095C71.7763 24.3333 70.2382 23.6429 68.0382 23.0667C64.8191 22.2286 58.1953 20.8191 49.9953 20.8191C41.7953 20.8191 35.1715 22.2286 31.9524 23.0667C29.7524 23.6429 28.2144 24.3333 28.2144 26.6095V58.4905C28.2429 61.1381 29.5001 63.6571 31.581 65.2238L48.6858 78.1905L49.9953 79.1857L51.3096 78.1905L68.4191 65.2191C70.5191 63.6333 71.7763 61.1095 71.7763 58.4667V26.6095Z" fill="white"/>
<path d="M71.7763 26.6095C71.7763 24.3333 70.2382 23.6429 68.0382 23.0667C64.8191 22.2286 58.1953 20.8191 49.9953 20.8191C41.7953 20.8191 35.1715 22.2286 31.9524 23.0667C29.7524 23.6429 28.2144 24.3333 28.2144 26.6095V58.4905C28.2429 61.1381 29.5001 63.6571 31.581 65.2238L48.6858 78.1905L49.9953 79.1857L51.3096 78.1905L68.4191 65.2191C70.5191 63.6333 71.7763 61.1095 71.7763 58.4667V26.6095Z" fill="white"/>
<path d="M50.0002 20.8191C41.805 20.8191 35.1764 22.2286 31.9573 23.0667C29.7573 23.6381 28.2192 24.3286 28.2192 26.6095V58.4667V58.4762V58.4857C28.2478 61.1333 29.505 63.6524 31.5859 65.2191L48.6907 78.1857L50.0002 79.181L51.3145 78.1857L68.424 65.2143C70.524 63.6286 71.7811 61.1048 71.7811 58.4619V26.6095C71.7811 24.3333 70.243 23.6429 68.043 23.0667C64.824 22.2286 58.2002 20.8191 50.0002 20.8191ZM49.524 22.4619L50.043 24.0571H51.724L50.3669 25.0429L50.8859 26.6381L49.5288 25.6524L48.1669 26.6381L48.6859 25.0429L47.3288 24.0571H49.0097L49.5288 22.4619H49.524ZM31.3859 24.7905L31.905 26.3857H33.5859L32.2288 27.3714L32.7478 28.9667L31.3907 27.981L30.0335 28.9667L30.5526 27.3714L29.1954 26.3857H30.8764L31.3954 24.7905H31.3859ZM67.2716 24.7905L67.7907 26.3857H69.4716L68.1145 27.3714L68.6335 28.9667L67.2764 27.981L65.9192 28.9667L66.4383 27.3714L65.0811 26.3857H66.7621L67.2811 24.7905H67.2716ZM59.3573 27.4714C59.5145 27.4952 59.6716 27.5143 59.8288 27.5381C60.2954 27.6048 60.743 27.6714 61.1764 27.7429C61.6145 27.8143 62.0383 27.8905 62.4431 27.9619L51.005 36.6476V30.7C52.805 31.7667 54.024 31.6619 54.805 31.1619C55.2526 30.8762 55.5621 30.4667 55.7526 30.0714C57.705 30.6429 59.8716 29.4333 59.3526 27.4714H59.3573ZM38.4002 27.8143C38.4145 27.981 38.4478 28.1429 38.4954 28.2905C38.4954 28.2952 38.4954 28.3048 38.5002 28.3095C38.5002 28.3143 38.505 28.3191 38.505 28.3286C39.005 29.8476 41.0383 30.6381 42.9097 30.0857C43.2573 30.7952 44.0954 31.4191 45.2669 31.581C46.0526 31.6905 46.9907 31.5857 48.0288 31.1619V38.9143L40.8669 44.3524C40.8907 44.181 40.905 43.9952 40.905 43.7952V43.6238V43.5714C41.6859 43.0857 42.3764 42.1476 42.724 40.9571C42.8764 40.4286 42.943 39.9048 42.9383 39.4143C42.7954 39.4762 42.643 39.5191 42.5002 39.5476C42.1192 39.6191 41.7954 39.6 41.7907 39.6C42.4192 39.5524 42.8716 39.3143 43.1669 39.0905C43.2526 39.0191 43.3478 38.9286 43.4478 38.8238C44.0669 38.1905 44.4764 37.4571 44.7192 36.6048L45.8954 32.4857C45.2811 32.4286 44.6859 32.7238 44.3573 33.2429L43.7907 34.1381L43.2335 35.0191C43.1097 35.2286 42.8859 35.4191 42.6288 35.5571C42.2383 35.2524 41.9335 35.0095 41.6907 34.8191C41.6526 34.7905 41.6192 34.7619 41.5859 34.7333L41.2145 33.1762L41.7526 32.2143C41.9097 31.9333 41.9573 31.6143 41.905 31.3095C41.8716 31.1238 41.8002 30.9381 41.6907 30.7714C41.6002 30.6429 41.4192 30.6095 41.2859 30.6952L39.9288 31.5619C39.8907 31.5238 39.8526 31.4952 39.8145 31.4714C39.7288 31.4191 39.643 31.4048 39.5478 31.4191C39.4097 31.4429 39.2573 31.5333 39.0811 31.6524L38.7335 31.9048L38.2192 32.281L37.824 32.2667L37.5478 32.2571C37.2811 32.2571 37.1716 32.7381 37.4192 33.0952C37.624 33.3905 37.7859 33.7714 37.8954 34.2286C37.8954 34.2333 37.9002 34.2429 37.9002 34.2476C37.905 34.281 37.9145 34.3143 37.924 34.3476C37.9288 34.3762 37.9335 34.4 37.943 34.4286C38.0288 34.8572 38.0764 35.3476 38.0764 35.8905C38.0764 37.1095 37.4192 39.7143 36.5764 41.4095C36.5383 41.481 36.4954 41.5571 36.4526 41.6333L35.8192 42.6905C35.7192 42.8429 35.7383 43.0762 35.8621 43.2429C35.9478 43.3619 36.0859 43.4524 36.2669 43.4524C36.2669 43.4524 36.7764 44.0952 36.9383 45.3286C37.0097 45.8905 37.0145 46.5762 36.8621 47.381L35.6573 48.2952L34.3811 49.2667V28.6238C34.9954 28.4762 35.6954 28.3238 36.4669 28.1667C37.0669 28.0476 37.7097 27.9238 38.3954 27.8095L38.4002 27.8143ZM69.1192 31.2L68.5716 31.6191L67.4097 32.5095L69.1192 31.2048V31.2ZM64.9145 34.4191V65.5952L58.9478 70.1191V38.9857L64.9145 34.4191ZM55.7192 35.2143L56.2383 36.8095H57.9192L56.5621 37.7952L57.0811 39.3905L55.724 38.4048L54.3669 39.3905L54.8859 37.7952L53.5288 36.8095H55.2097L55.7288 35.2143H55.7192ZM31.3859 38.3857L31.905 39.981H33.5859L32.2288 40.9667L32.7478 42.5619L31.3907 41.5762L30.0335 42.5619L30.5526 40.9667L29.1954 39.981H30.8764L31.3954 38.3857H31.3859ZM44.9288 73.0524L32.5764 63.6905L35.0716 65.581V57.2571L41.0383 52.6905L47.005 48.1238L52.9716 43.5571V74.6476L49.9954 76.9048L47.005 74.6381V48.1286L41.0383 52.6952V70.1143M43.9907 43.6857L44.5097 45.281H46.1859L44.8288 46.2667L45.3478 47.8619L43.9907 46.8762L42.6335 47.8619L43.1526 46.2667L41.7907 45.281H43.4716L43.9907 43.6857ZM31.3859 52.7524L31.905 54.3476H33.5859L32.2288 55.3333L32.7478 56.9286L31.3907 55.9429L30.0335 56.9286L30.5526 55.3333L29.1954 54.3476H30.8764L31.3954 52.7524H31.3859Z" fill="#262F61"/>
<path d="M69.9333 55.1429V30.5762L68.5762 31.6143L64.9143 34.4143V65.5905L67.4333 63.681C67.8667 63.3524 68.2524 62.9714 68.581 62.5476C69.4429 61.4476 69.9333 60.0714 69.9333 58.6476V55.1381V55.1429ZM58.9476 38.9857L52.981 43.5524V74.6429L58.9476 70.119V38.981V38.9857ZM41.0429 52.6905V70.1095L47.0095 74.6333V48.1238L41.0429 52.6905ZM35.0762 57.2571L32.8429 58.9667L30.481 60.7714C30.881 61.9238 31.6 62.9476 32.5762 63.6857L35.0762 65.581V57.2571Z" fill="#CE3524"/>
<path d="M30.7095 11.3381L31.1143 12.0714L28.9 13.2952L29.2476 13.9286L31.2143 12.8429L31.6143 13.5714L29.6476 14.6572L30.1333 15.5333L29.2714 16.0095L27.6333 13.0429L30.7095 11.3429V11.3381Z" fill="#262F61"/>
<path d="M36.3001 12.6238L35.762 12.1524L33.8286 12.9381L33.7715 13.6524L32.7905 14.0524L33.1334 10.2571L34.3905 9.74762L37.281 12.2286L36.3048 12.6238H36.3001ZM33.8953 12.1143L35.1334 11.6095L34.0143 10.6333L33.8953 12.1143Z" fill="#262F61"/>
<path d="M41.3476 10.1762L40.7619 7.81906L41.7095 7.58572L42.5238 10.8762L41.1286 11.2238L38.6048 9.34763L39.1905 11.7048L38.2381 11.9429L37.4238 8.65239L38.8238 8.30477L41.3476 10.181V10.1762Z" fill="#262F61"/>
<path d="M46.1191 6.96191L50.2001 6.79524L50.2334 7.62858L48.6858 7.69048L48.7906 10.2429L47.8096 10.281L47.7049 7.72858L46.1525 7.79048L46.1191 6.95715V6.96191Z" fill="#262F61"/>
<path d="M51.3903 8.49525C51.4855 7.3762 52.3141 6.78096 53.7379 6.90477C55.1569 7.02858 55.876 7.75715 55.7807 8.87144C55.6855 9.99049 54.8522 10.5952 53.4331 10.4714C52.0093 10.3476 51.295 9.61906 51.3903 8.49525ZM54.7569 8.78572C54.8093 8.20001 54.5045 7.80953 53.6664 7.73811C52.8331 7.66668 52.4665 7.99049 52.4188 8.58572C52.3665 9.18096 52.676 9.57144 53.5045 9.64287C54.3379 9.7143 54.7093 9.38096 54.7617 8.79049L54.7569 8.78572Z" fill="#262F61"/>
<path d="M61.6238 8.36667L59.6285 9.38095L60.8761 11.6762L59.6714 11.4048L58.8047 9.80476L57.8571 10.2857L57.7047 10.9571L56.7476 10.7381L57.4952 7.42857L58.4571 7.64286L58.1237 9.12857L60.1904 8.0381L61.6285 8.36191L61.6238 8.36667Z" fill="#262F61"/>
<path d="M66.3286 9.99524L66.0667 10.7191L63.6858 9.85715L63.5 10.3667L65.7905 11.1952L65.5286 11.9191L63.2381 11.0905L63.0524 11.6L65.4334 12.4571L65.1715 13.181L61.8667 11.9857L63.0191 8.79524L66.3238 9.99048L66.3286 9.99524Z" fill="#262F61"/>
<path d="M69.7621 14.3524L70.8764 12.1905L71.7478 12.6381L70.1907 15.6524L68.9097 14.9905L68.2478 11.9095L67.1335 14.0714L66.2573 13.6191L67.8145 10.6048L69.1002 11.2667L69.7621 14.3476V14.3524Z" fill="#262F61"/>
<path d="M27.395 85.4762C27.2474 85.719 27.395 86.0238 28.1569 86.4857C28.8569 86.9048 29.095 86.9 29.2045 86.719C29.3331 86.5095 29.2236 86.3905 28.395 85.8143C27.2665 85.0238 26.8903 84.4762 27.276 83.8333C27.6426 83.2286 28.4617 83.3476 29.4665 83.9524C30.5855 84.6238 31.0236 85.3524 30.6617 86.0143L29.7807 85.4857C29.9331 85.2286 29.7141 84.9619 29.0617 84.5714C28.4426 84.2 28.2426 84.219 28.1474 84.3762C28.0379 84.5571 28.1474 84.6952 28.895 85.2333C29.9141 85.9571 30.5617 86.4476 30.1045 87.2095C29.6569 87.9524 28.8379 87.7571 27.8045 87.1333C26.6284 86.4238 26.0903 85.7381 26.5093 84.9476L27.3903 85.4809L27.395 85.4762Z" fill="#262F61"/>
<path d="M31.5236 87.1905C31.9712 86.1571 32.9426 85.8619 34.2569 86.4286C35.5664 86.9952 36.014 87.9143 35.5712 88.9429C35.1236 89.9762 34.1426 90.281 32.8331 89.7143C31.5188 89.1476 31.0759 88.2286 31.5236 87.1905ZM34.6283 88.5381C34.8616 87.9952 34.695 87.5333 33.9236 87.1952C33.1569 86.8619 32.7045 87.0571 32.4712 87.6C32.2331 88.1476 32.4045 88.6143 33.1664 88.9476C33.9331 89.281 34.395 89.081 34.6283 88.5333V88.5381Z" fill="#262F61"/>
<path d="M39.3047 88.219C40.5047 88.5571 41.0428 89.2619 40.9047 90.1286L39.9 89.8476C39.919 89.5286 39.6857 89.1905 39.0809 89.0238C38.3809 88.8286 37.9476 89.0762 37.7857 89.6476C37.6238 90.2238 37.8714 90.6667 38.5666 90.8619C39.1714 91.0286 39.5476 90.8619 39.6952 90.5714L40.7 90.8524C40.3666 91.6714 39.5428 92 38.3381 91.6667C37.0285 91.3 36.4809 90.4905 36.7905 89.3714C37.1047 88.2571 37.9905 87.8524 39.3 88.219H39.3047Z" fill="#262F61"/>
<path d="M43.3948 89.2286L42.7948 92.5619L41.8281 92.3857L42.4281 89.0524L43.3948 89.2286Z" fill="#262F61"/>
<path d="M44.4189 91.1476C44.5094 90.0286 45.3332 89.4333 46.757 89.5476C48.176 89.6619 48.8999 90.3905 48.8046 91.5048C48.7141 92.6238 47.8856 93.2286 46.4618 93.1143C45.0379 93 44.3189 92.2714 44.4141 91.1476H44.4189ZM47.7856 91.4238C47.8332 90.8381 47.5284 90.4524 46.6903 90.381C45.857 90.3143 45.4951 90.6429 45.4427 91.2333C45.3951 91.8286 45.7046 92.2143 46.5332 92.2857C47.3665 92.3524 47.7379 92.019 47.7856 91.4238Z" fill="#262F61"/>
<path d="M51.1188 92.0476C51.1331 92.3333 51.4235 92.5048 52.314 92.4571C53.1283 92.4143 53.3235 92.2762 53.3093 92.0619C53.295 91.8143 53.1426 91.781 52.1331 91.7667C50.7569 91.7429 50.1331 91.5 50.095 90.7476C50.0569 90.0429 50.8045 89.681 51.9759 89.6238C53.2807 89.5571 54.0521 89.9095 54.1188 90.6619L53.095 90.7143C53.0807 90.4143 52.7474 90.3191 51.9854 90.3571C51.2664 90.3952 51.1093 90.5238 51.1188 90.7048C51.1283 90.9143 51.295 90.9714 52.2188 91C53.4664 91.0286 54.2807 91.0714 54.3283 91.9619C54.3712 92.8286 53.5854 93.1238 52.3807 93.1857C51.0093 93.2571 50.1759 92.9857 50.0854 92.0952L51.114 92.0429L51.1188 92.0476Z" fill="#262F61"/>
<path d="M55.7523 92.0381L56.6904 91.9L56.7952 92.6286L55.8571 92.7667L55.7476 92.0381H55.7523Z" fill="#262F61"/>
<path d="M59.4808 88.5381C60.6951 88.2429 61.5094 88.5952 61.8141 89.419L60.7999 89.6667C60.6618 89.3762 60.2903 89.2 59.6808 89.3476C58.9761 89.5191 58.7189 89.9476 58.857 90.5286C58.9999 91.1095 59.4332 91.3762 60.1332 91.2048C60.7427 91.0571 60.9903 90.7238 60.9761 90.3952L61.9903 90.1476C62.0999 91.0238 61.5427 91.719 60.3284 92.0143C59.0046 92.3381 58.1284 91.9 57.8522 90.7714C57.576 89.6476 58.1522 88.8619 59.4761 88.5381H59.4808Z" fill="#262F61"/>
<path d="M63.1523 89.3952C62.738 88.3476 63.2142 87.4524 64.5475 86.9238C65.8714 86.4 66.8428 86.7333 67.2523 87.7762C67.6666 88.8238 67.1856 89.7333 65.8618 90.2571C64.5333 90.7809 63.5666 90.4476 63.1523 89.3952ZM66.2999 88.1524C66.0856 87.6048 65.638 87.3905 64.8571 87.7C64.0809 88.0048 63.8952 88.4619 64.1142 89.0143C64.3333 89.5714 64.7856 89.7809 65.5571 89.4762C66.3333 89.1714 66.519 88.7048 66.2999 88.1524Z" fill="#262F61"/>
<path d="M69.3381 88.6905L67.6333 85.7571L68.9571 84.9857L71.1095 86.3381L70.9952 83.8L72.319 83.0286L74.0238 85.9619L73.1762 86.4524L71.9428 84.3286L72.0762 87.0952L71.2904 87.5524L68.9524 86.0714L70.1904 88.1952L69.3381 88.6905Z" fill="#262F61"/>
<path d="M23.019 81.8381C13.9952 74.181 8.2666 62.7571 8.2666 50C8.2666 37.2429 14.2999 25.2143 23.738 17.5619" stroke="#262F61" stroke-miterlimit="10"/>
<path d="M76.2666 17.5667C85.7047 25.219 91.7333 36.9048 91.7333 50C91.7333 63.0952 86.0047 74.1857 76.9809 81.8429" stroke="#262F61" stroke-miterlimit="10"/>
</g>
<defs>
<clipPath id="clip0_1124_17204">
<rect width="100" height="100" fill="white"/>
</clipPath>
</defs>
</svg>
