<svg xmlns="http://www.w3.org/2000/svg" width="64" height="64" viewBox="0 0 64 64"><g transform="translate(-844.487 -273.212)"><path d="M32,0A32,32,0,1,1,0,32,32,32,0,0,1,32,0Z" transform="translate(844.487 273.212)" fill="#dd2b1c"/><path d="M1415.617,590.407a4.837,4.837,0,0,0,.192-1.174c0-.183,0-.36,0-.532Q1415.737,589.561,1415.617,590.407Z" transform="translate(-511.524 -281.33)" fill="none"/><path d="M907.981,352.45a22.138,22.138,0,1,1,13.65-39.568,27.192,27.192,0,1,0,0,34.86A22.04,22.04,0,0,1,907.981,352.45Z" transform="translate(-25.196 -25.105)" fill="#fff"/><path d="M1372.148,443.43l.045.045A.459.459,0,0,0,1372.148,443.43Z" transform="translate(-472.523 -150.992)" fill="#fff"/><path d="M1041.847,380.773a16.488,16.488,0,0,0-.406-5.537l-1.823,3.038a7.954,7.954,0,0,0-3.039-1.485l1.216,4.321a25.421,25.421,0,0,1-3.377,3.579,18.429,18.429,0,0,1,4.119-.4s.608,4.322.2,5.065a14.91,14.91,0,0,0,2.431-4.727l1.216.54s-.877,5.673-9.791,7.969c0,0-4.795.81-6.213.878a16.513,16.513,0,0,0-7.563,1.958l-2.972-2.566s7.834-4.255,11.953-7.969,6.078-5.4,7.5-7.429,3.107-3.916,3.512-6.01.067-1.824.067-1.824l-.7-.7c.187.209.829,1.177-.585,3.534a38.37,38.37,0,0,1-8.508,9.657c-4.457,3.782-12.358,9.184-14.114,9.792l-2.9-3.377a9.949,9.949,0,0,0,3.512-4.321,16.826,16.826,0,0,0,.946-4.93,67.651,67.651,0,0,1,2.364-10.13c.744-2.094,1.621-5,2.971-6.685s1.553-1.486,2.5-1.689c0,0-.135-.743-1.486-.135s-3.714,4.254-5.6,10.2c0,0-1.283,4.659-1.689,6.55s-.338,3.512-.608,4.593-1.013,4.254-3.646,5.537a35.126,35.126,0,0,1-3.984-7.5c-1.013-3.242-2.228-5.47-1.553-10.6,0,0,1.148-3.579,2.3-4.524,0,0-2.5.811-3.309,6.618a25.4,25.4,0,0,0,1.215,8.036,49.766,49.766,0,0,0,4.255,8.509,5.313,5.313,0,0,1-5.335-.946c-2.566-2.161-4.389-3.714-4.862-8.036,0,0-1.081,2.9,2.026,6.685s5.605,3.647,5.673,3.647a6.724,6.724,0,0,0,3.174-.338s2.228,2.768,2.9,3.376c0,0-7.5,4.119-9.589,2.026,0,0,.2,2.093,4.254,1.013a30.111,30.111,0,0,0,6.145-2.228l3.174,2.7a5.465,5.465,0,0,0-2.3,3.58s-.067,3.309,2.431,3.173a2.95,2.95,0,0,1-1.419-3.106,3.132,3.132,0,0,1,2.161-2.77,24.018,24.018,0,0,0,6.483,3.107c3.174.811,6.484,1.148,8.577-1.081a9.5,9.5,0,0,1-8.441.2c-4.389-2.161-4.187-2.093-5.335-2.971a14.639,14.639,0,0,1,5.065-1.486,44.893,44.893,0,0,0,8.981-1.553,36.673,36.673,0,0,0,4.795-2.228,10.827,10.827,0,0,0,3.793-5.308q.119-.846.19-1.706A7.449,7.449,0,0,0,1041.847,380.773Z" transform="translate(-138.508 -76.99)" fill="#fff"/><path d="M904.266,296.183a30.092,30.092,0,0,0-27.923-21.044h-1.584a30.079,30.079,0,0,0,.807,60.147c13.468,0,20.7-10.116,29.752-22.319Zm-28.7,36.217a27.192,27.192,0,1,1,20.869-44.623,22.138,22.138,0,1,0,0,34.86A27.13,27.13,0,0,1,875.566,332.4Zm28.719-24.5a4.842,4.842,0,0,1-.192,1.174,10.829,10.829,0,0,1-3.793,5.308,36.685,36.685,0,0,1-4.795,2.228,44.891,44.891,0,0,1-8.981,1.553,14.639,14.639,0,0,0-5.065,1.486c1.148.878.946.809,5.335,2.971a9.5,9.5,0,0,0,8.441-.2c-2.093,2.229-5.4,1.891-8.577,1.081a24.014,24.014,0,0,1-6.483-3.107,3.131,3.131,0,0,0-2.161,2.769,2.95,2.95,0,0,0,1.419,3.106c-2.5.135-2.431-3.173-2.431-3.173a5.465,5.465,0,0,1,2.3-3.58l-3.174-2.7a30.11,30.11,0,0,1-6.145,2.228c-4.051,1.08-4.254-1.013-4.254-1.013,2.093,2.093,9.589-2.026,9.589-2.026-.675-.608-2.9-3.376-2.9-3.376a6.723,6.723,0,0,1-3.174.338c-.067,0-2.566.134-5.673-3.647s-2.026-6.685-2.026-6.685c.473,4.321,2.3,5.875,4.862,8.036a5.313,5.313,0,0,0,5.335.946,49.784,49.784,0,0,1-4.255-8.509,25.4,25.4,0,0,1-1.215-8.036c.81-5.808,3.309-6.618,3.309-6.618-1.148.946-2.3,4.524-2.3,4.524-.675,5.132.54,7.36,1.553,10.6a35.128,35.128,0,0,0,3.984,7.5c2.633-1.283,3.376-4.456,3.646-5.537s.2-2.7.608-4.593,1.689-6.55,1.689-6.55c1.891-5.943,4.254-9.589,5.6-10.2s1.486.135,1.486.135c-.946.2-1.148,0-2.5,1.689s-2.227,4.591-2.971,6.685a67.651,67.651,0,0,0-2.364,10.13,16.824,16.824,0,0,1-.946,4.93,9.949,9.949,0,0,1-3.512,4.321l2.9,3.377c1.756-.608,9.657-6.01,14.114-9.792a38.377,38.377,0,0,0,8.508-9.657c1.414-2.357.772-3.325.585-3.534l-.045-.045a.459.459,0,0,1,.045.045l.7.7s.338-.27-.067,1.824-2.094,3.983-3.512,6.01-3.376,3.715-7.5,7.429-11.953,7.969-11.953,7.969l2.972,2.566a16.514,16.514,0,0,1,7.563-1.958c1.419-.068,6.213-.878,6.213-.878,8.914-2.3,9.791-7.969,9.791-7.969l-1.216-.54a14.92,14.92,0,0,1-2.431,4.727c.4-.743-.2-5.065-.2-5.065a18.431,18.431,0,0,0-4.119.405,25.421,25.421,0,0,0,3.377-3.579l-1.216-4.321a7.954,7.954,0,0,1,3.039,1.485l1.822-3.038a16.491,16.491,0,0,1,.406,5.537,7.458,7.458,0,0,1,.944,3.588C904.288,307.543,904.289,307.72,904.285,307.9Z" fill="#dd2b1c"/></g></svg>