<svg xmlns="http://www.w3.org/2000/svg" width="64" height="64" viewBox="0 0 64 64"><g transform="translate(-93 -78)"><circle cx="32" cy="32" r="32" transform="translate(93 78)" fill="#d9000d"/><g transform="translate(96.226 104.222)"><path d="M30.226,1266.6H27.915l.809-2.311H26.413l.809-2.311h2.311l-.809,2.311h2.311l-.809,2.311Zm34.213,0h-31.9l.809-2.311H31.035l.809-2.311H29.533l.809-2.311H28.031l.809-2.311h2.311l-.809,2.311h2.311l-.809,2.311h2.309l.806-2.3H37.27l.81-2.315H35.772l-.808,2.307H32.653l.809-2.311H31.151l.809-2.311h2.311l-.809,2.311H35.77l.809-2.311H64.465a5.554,5.554,0,0,0-1.11.557,5.332,5.332,0,0,0-.89.728,5.252,5.252,0,0,0-.694.878,5.428,5.428,0,0,0-.493,1,5.773,5.773,0,0,0-.287,1.093,6.258,6.258,0,0,0-.065,1.383,6.867,6.867,0,0,0,.245,1.426,7.546,7.546,0,0,0,.563,1.421,8.349,8.349,0,0,0,.891,1.367,8.632,8.632,0,0,0,1.814,1.7h0Zm-9.681-9.246a1.537,1.537,0,0,1,0,.4,3.662,3.662,0,0,1-.163.664l-1.335,4.071a4.067,4.067,0,0,1-.269.664,2.488,2.488,0,0,1-.27.4h2.753a1.376,1.376,0,0,1-.011-.4,3.532,3.532,0,0,1,.162-.664l.534-1.628h1.687a2.665,2.665,0,0,1,1,.161l.012,0,.445-1.357-.02.006a3.591,3.591,0,0,1-1.1.159H56.5l.472-1.454H58.9a2.582,2.582,0,0,1,1.015.165l.209-1.192Zm-3.642,1.318-1.257,3.819a4.07,4.07,0,0,1-.269.664,2.48,2.48,0,0,1-.27.4h2.762a1.232,1.232,0,0,1-.019-.4,3.423,3.423,0,0,1,.161-.664l1.335-4.071a3.847,3.847,0,0,1,.271-.664,2.145,2.145,0,0,1,.287-.4h-3.17l-2.416,3.518h-.019l-.026-3.518H45.229a.8.8,0,0,1,.057.4,4.151,4.151,0,0,1-.192.71l-1.3,3.974a4.443,4.443,0,0,1-.276.71,1.645,1.645,0,0,1-.325.4h1.493a.747.747,0,0,1-.061-.4,4.317,4.317,0,0,1,.2-.71l1.234-3.771h.019l.065,4.885h1.638l3.318-4.885h.019Zm-11.939-.291h1.076l-1.348,4.11a4.063,4.063,0,0,1-.269.664,2.487,2.487,0,0,1-.27.4h2.753a1.378,1.378,0,0,1-.011-.4,3.535,3.535,0,0,1,.162-.664l1.348-4.11h1.076a1.448,1.448,0,0,1,.487.064,1.079,1.079,0,0,1,.317.188l.226-1.279H38.831l-.614,1.279A1.755,1.755,0,0,1,39.177,1258.384Zm30.993,6.172a4.962,4.962,0,0,1-1.144-.137,5.515,5.515,0,0,1-1.131-.4,5.9,5.9,0,0,1-1.062-.664,6.124,6.124,0,0,1-.939-.915,5.871,5.871,0,0,1-.637-.938,5.287,5.287,0,0,1-.412-.979,4.761,4.761,0,0,1-.191-.985,4.266,4.266,0,0,1,.025-.956,3.714,3.714,0,0,1,.491-1.4,3.477,3.477,0,0,1,1.032-1.088,3.753,3.753,0,0,1,1.076-.5,4.3,4.3,0,0,1,1.191-.164,5.03,5.03,0,0,1,1.272.168,5.612,5.612,0,0,1,1.239.49l.23,1.377-1.315.367,1.461.506.241,1.444.658-1.133,1.436.5a4.885,4.885,0,0,1,.294,1.255,4.229,4.229,0,0,1-.058,1.227,3.665,3.665,0,0,1-.417,1.119,3.483,3.483,0,0,1-.784.932,3.7,3.7,0,0,1-1.192.667A4.237,4.237,0,0,1,70.17,1264.556Zm-44.888-2.592H22.971l.809-2.311h2.311l-.809,2.311Zm49.137-.686h0a7.408,7.408,0,0,0-.724-2.139l-1.041-1.182.628-1.08-1.272.355-1.03-1.16a8.465,8.465,0,0,0-1.012-.59,8.1,8.1,0,0,0-1.067-.436h9.085l-3.567,6.231Zm-51.669-1.609H20.438l.809-2.311h2.311l-.809,2.311Zm5.37-2.311H25.808l.809-2.311h2.311l-.809,2.311h0Z" transform="translate(-20.438 -1255.047)" fill="#fff" stroke="rgba(0,0,0,0)" stroke-width="1"/></g></g></svg>