<svg width="100" height="100" viewBox="0 0 100 100" fill="none" xmlns="http://www.w3.org/2000/svg">
<g clip-path="url(#clip0_1124_17164)">
<path d="M50 100C77.6142 100 100 77.6142 100 50C100 22.3858 77.6142 0 50 0C22.3858 0 0 22.3858 0 50C0 77.6142 22.3858 100 50 100Z" fill="black"/>
<path d="M50 2.53333C76.1714 2.53333 97.4667 23.8286 97.4667 50C97.4667 76.1714 76.1714 97.4667 50 97.4667C23.8286 97.4667 2.53333 76.1714 2.53333 50C2.53333 23.8286 23.8286 2.53333 50 2.53333ZM50 0C22.3857 0 0 22.3857 0 50C0 77.6143 22.3857 100 50 100C77.6143 100 100 77.6143 100 50C100 22.3857 77.6143 0 50 0Z" fill="#E20D19"/>
<path d="M50.1332 20.0429L50.8856 22.5191L53.3428 22.5095L51.3523 24.0381L52.1142 26.5095L50.1332 24.9762L48.1475 26.5095L48.9094 24.0381L46.9189 22.5095L49.3761 22.5191L50.1332 20.0429Z" fill="white"/>
<path d="M40.3716 26.4952L41.124 28.9714L43.5859 28.9667L41.5907 30.4905L42.3573 32.9619L40.3716 31.4286L38.3859 32.9619L39.1526 30.4905L37.1621 28.9667L39.6193 28.9714L40.3716 26.4952Z" fill="white"/>
<path d="M59.6002 26.4952L60.3525 28.9714L62.8144 28.9667L60.8192 30.4905L61.5859 32.9619L59.6002 31.4286L57.6144 32.9619L58.3811 30.4905L56.3906 28.9667L58.8478 28.9714L59.6002 26.4952Z" fill="white"/>
<path d="M71.0333 43.8524C70.8905 43.7095 70.6857 43.6286 70.4714 43.6333C70.2095 43.6429 69.9476 43.6524 69.6857 43.6524C60.5571 43.6905 53.6095 38.3 50.6381 32.3571C50.5429 32.1429 50.3572 31.981 50.1191 31.9286C50.0952 31.9286 50.0762 31.9143 50.0524 31.9143H50.0429C50.0429 31.9143 50.0333 31.9143 50.0286 31.9143H50.0191C50.0191 31.9143 50.0095 31.9143 50 31.9143H49.9905C49.9905 31.9143 49.981 31.9143 49.9714 31.9143C49.9714 31.9143 49.9524 31.9143 49.9476 31.9143C49.9381 31.9143 49.9286 31.9143 49.9238 31.9143H49.9143H49.8952H49.8857C49.8857 31.9143 49.8762 31.9143 49.8667 31.9143H49.8571H49.8381H49.8286C49.8286 31.9143 49.7857 31.9238 49.7619 31.9286C49.5238 31.9857 49.3381 32.1476 49.2572 32.3619C46.3238 38.3286 39.4191 43.7714 30.2905 43.8048C30.0381 43.8048 29.7667 43.8 29.5048 43.7905C29.2952 43.7905 29.1 43.8667 28.9476 44.0143C28.8048 44.1667 28.7286 44.3619 28.7381 44.5762C29.4143 61.5619 37.9667 72.6952 49.7048 79.8381C49.7476 79.8619 49.8 79.8857 49.8381 79.9C49.9333 79.9429 50.0238 79.9572 50.1238 79.9572C50.2667 79.9572 50.4095 79.9143 50.5381 79.8333C62.2238 72.6 70.6905 61.4 71.2429 44.4095C71.2429 44.2 71.1714 44 71.0191 43.8524H71.0333Z" fill="white"/>
<path fill-rule="evenodd" clip-rule="evenodd" d="M49.9573 32.6095C46.8239 39.0286 39.3335 44.8143 29.4478 44.5191C30.1382 61.2952 38.5144 72.1762 50.1335 79.2524L49.9573 32.6095Z" fill="#E20D19"/>
<path fill-rule="evenodd" clip-rule="evenodd" d="M49.9478 32.6095C53.1287 39.0048 60.6716 44.7333 70.5478 44.3619C69.9954 61.1429 61.6954 72.0857 50.1287 79.2524L49.9525 32.6095H49.9478Z" fill="#12100B"/>
<path fill-rule="evenodd" clip-rule="evenodd" d="M57.719 56.2619C56.2428 51.3619 55.9618 48.8095 55.8095 43.6191C53.7618 42.3667 51.7904 40.7048 49.9714 38.5524V38.5333V38.5429C49.9618 38.5429 49.9618 38.5429 49.9618 38.5333V38.5524C48.1571 40.7191 46.1999 42.4 44.1618 43.6619C44.0476 48.8572 43.7857 51.4095 42.3476 56.3191C41.3333 58.9952 40.1428 61.7905 38.7285 64.2524C40.8428 67.6333 43.019 69.9952 46.8476 73.1905L46.7857 57.2429L50.038 57.2286H50.0523L53.2857 57.2143L53.3476 73.1619C57.1476 69.9381 59.3047 67.5572 61.3904 64.1619C59.9476 61.7095 58.7476 58.9238 57.7095 56.2572L57.719 56.2619ZM53.2857 54.8667L50.0523 54.881H50.038L46.7857 54.8952L46.7476 45.1714C47.8618 44.4429 48.9523 43.5524 49.9952 42.5429C51.0571 43.5476 52.119 44.4286 53.2476 45.1476L53.2857 54.8714V54.8667Z" fill="white"/>
<path d="M30.7095 11.3381L31.1143 12.0714L28.9 13.2952L29.2476 13.9286L31.2143 12.8429L31.6143 13.5714L29.6476 14.6572L30.1333 15.5333L29.2714 16.0095L27.6333 13.0429L30.7095 11.3429V11.3381Z" fill="white"/>
<path d="M36.3001 12.6238L35.762 12.1524L33.8286 12.9381L33.7715 13.6524L32.7905 14.0524L33.1334 10.2571L34.3905 9.74762L37.281 12.2286L36.3048 12.6238H36.3001ZM33.8953 12.1143L35.1334 11.6095L34.0143 10.6333L33.8953 12.1143Z" fill="white"/>
<path d="M41.3476 10.1762L40.7619 7.81906L41.7095 7.58572L42.5238 10.8762L41.1286 11.2238L38.6048 9.34763L39.1905 11.7048L38.2381 11.9429L37.4238 8.65239L38.8238 8.30477L41.3476 10.181V10.1762Z" fill="white"/>
<path d="M46.1191 6.96191L50.2001 6.79524L50.2334 7.62858L48.6858 7.69048L48.7906 10.2429L47.8096 10.281L47.7049 7.72858L46.1525 7.79048L46.1191 6.95715V6.96191Z" fill="white"/>
<path d="M51.3903 8.49525C51.4855 7.3762 52.3141 6.78096 53.7379 6.90477C55.1569 7.02858 55.876 7.75715 55.7807 8.87144C55.6855 9.99049 54.8522 10.5952 53.4331 10.4714C52.0093 10.3476 51.295 9.61906 51.3903 8.49525ZM54.7569 8.78572C54.8093 8.20001 54.5045 7.80953 53.6664 7.73811C52.8331 7.66668 52.4665 7.99049 52.4188 8.58572C52.3665 9.18096 52.676 9.57144 53.5045 9.64287C54.3379 9.7143 54.7093 9.38096 54.7617 8.79049L54.7569 8.78572Z" fill="white"/>
<path d="M61.6239 8.36667L59.6334 9.38095L60.881 11.6762L59.6763 11.4048L58.8096 9.80476L57.862 10.2857L57.7096 10.9571L56.7524 10.7381L57.5001 7.42857L58.462 7.64286L58.1286 9.12857L60.1953 8.0381L61.6334 8.36191L61.6239 8.36667Z" fill="white"/>
<path d="M66.3286 9.99524L66.0667 10.7191L63.6858 9.85715L63.5 10.3667L65.7905 11.1952L65.5286 11.9191L63.2381 11.0905L63.0524 11.6L65.4334 12.4571L65.1715 13.181L61.8667 11.9857L63.0191 8.79524L66.3238 9.99048L66.3286 9.99524Z" fill="white"/>
<path d="M69.7621 14.3524L70.8764 12.1905L71.7478 12.6381L70.1907 15.6524L68.9097 14.9905L68.2478 11.9095L67.1335 14.0714L66.2573 13.6191L67.8145 10.6048L69.1002 11.2667L69.7621 14.3476V14.3524Z" fill="white"/>
<path d="M27.395 85.4762C27.2474 85.719 27.395 86.0238 28.1569 86.4857C28.8569 86.9048 29.095 86.9 29.2045 86.719C29.3331 86.5095 29.2236 86.3905 28.395 85.8143C27.2665 85.0238 26.8903 84.4762 27.276 83.8333C27.6426 83.2286 28.4617 83.3476 29.4665 83.9524C30.5855 84.6238 31.0236 85.3524 30.6617 86.0143L29.7807 85.4857C29.9331 85.2286 29.7141 84.9619 29.0617 84.5714C28.4426 84.2 28.2426 84.219 28.1474 84.3762C28.0379 84.5571 28.1474 84.6952 28.895 85.2333C29.9141 85.9571 30.5617 86.4476 30.1045 87.2095C29.6569 87.9524 28.8379 87.7571 27.8045 87.1333C26.6284 86.4238 26.0903 85.7381 26.5093 84.9476L27.3903 85.4809L27.395 85.4762Z" fill="white"/>
<path d="M31.5236 87.1905C31.9712 86.1571 32.9426 85.8619 34.2569 86.4286C35.5664 86.9952 36.014 87.9143 35.5712 88.9429C35.1236 89.9762 34.1426 90.281 32.8331 89.7143C31.5188 89.1476 31.0759 88.2286 31.5236 87.1905ZM34.6283 88.5381C34.8616 87.9952 34.695 87.5333 33.9236 87.1952C33.1569 86.8619 32.7045 87.0571 32.4712 87.6C32.2331 88.1476 32.4045 88.6143 33.1664 88.9476C33.9331 89.281 34.395 89.081 34.6283 88.5333V88.5381Z" fill="white"/>
<path d="M39.3047 88.219C40.5047 88.5571 41.0428 89.2619 40.9047 90.1286L39.9 89.8476C39.919 89.5286 39.6857 89.1905 39.0809 89.0238C38.3809 88.8286 37.9476 89.0762 37.7857 89.6476C37.6238 90.2238 37.8714 90.6667 38.5666 90.8619C39.1714 91.0286 39.5476 90.8619 39.6952 90.5714L40.7 90.8524C40.3666 91.6714 39.5428 92 38.3381 91.6667C37.0285 91.3 36.4809 90.4905 36.7905 89.3714C37.1047 88.2571 37.9905 87.8524 39.3 88.219H39.3047Z" fill="white"/>
<path d="M43.3948 89.2286L42.7948 92.5619L41.8281 92.3857L42.4281 89.0524L43.3948 89.2286Z" fill="white"/>
<path d="M44.4189 91.1476C44.5094 90.0286 45.3332 89.4333 46.757 89.5476C48.176 89.6619 48.8999 90.3905 48.8046 91.5048C48.7141 92.6238 47.8856 93.2286 46.4618 93.1143C45.0379 93 44.3189 92.2714 44.4141 91.1476H44.4189ZM47.7856 91.4238C47.8332 90.8381 47.5284 90.4524 46.6903 90.381C45.857 90.3143 45.4951 90.6429 45.4427 91.2333C45.3951 91.8286 45.7046 92.2143 46.5332 92.2857C47.3665 92.3524 47.7379 92.019 47.7856 91.4238Z" fill="white"/>
<path d="M51.1188 92.0476C51.1331 92.3333 51.4235 92.5048 52.314 92.4571C53.1283 92.4143 53.3235 92.2762 53.3093 92.0619C53.295 91.8143 53.1426 91.781 52.1331 91.7667C50.7569 91.7429 50.1331 91.5 50.095 90.7476C50.0569 90.0429 50.8045 89.681 51.9759 89.6238C53.2807 89.5571 54.0521 89.9095 54.1188 90.6619L53.095 90.7143C53.0807 90.4143 52.7474 90.3191 51.9854 90.3571C51.2664 90.3952 51.1093 90.5238 51.1188 90.7048C51.1283 90.9143 51.295 90.9714 52.2188 91C53.4664 91.0286 54.2807 91.0714 54.3283 91.9619C54.3712 92.8286 53.5854 93.1238 52.3807 93.1857C51.0093 93.2571 50.1759 92.9857 50.0854 92.0952L51.114 92.0429L51.1188 92.0476Z" fill="white"/>
<path d="M55.7523 92.0381L56.6904 91.9L56.7952 92.6286L55.8571 92.7667L55.7476 92.0381H55.7523Z" fill="white"/>
<path d="M59.4808 88.5381C60.6951 88.2429 61.5094 88.5952 61.8141 89.419L60.7999 89.6667C60.6618 89.3762 60.2903 89.2 59.6808 89.3476C58.9761 89.5191 58.7189 89.9476 58.857 90.5286C58.9999 91.1095 59.4332 91.3762 60.1332 91.2048C60.7427 91.0571 60.9903 90.7238 60.9761 90.3952L61.9903 90.1476C62.0999 91.0238 61.5427 91.719 60.3284 92.0143C59.0046 92.3381 58.1284 91.9 57.8522 90.7714C57.576 89.6476 58.1522 88.8619 59.4761 88.5381H59.4808Z" fill="white"/>
<path d="M63.1522 89.3952C62.7379 88.3476 63.2189 87.4524 64.5474 86.9238C65.8712 86.4 66.8427 86.7333 67.2522 87.7762C67.6665 88.8238 67.1855 89.7333 65.8617 90.2571C64.5331 90.7809 63.5665 90.4476 63.1522 89.3952ZM66.2998 88.1524C66.0855 87.6048 65.6379 87.3905 64.857 87.7C64.0808 88.0048 63.8951 88.4619 64.1141 89.0143C64.3331 89.5714 64.7855 89.7809 65.557 89.4762C66.3331 89.1714 66.5189 88.7048 66.2998 88.1524Z" fill="white"/>
<path d="M69.3381 88.6905L67.6333 85.7571L68.9571 84.9857L71.1095 86.3381L70.9952 83.8L72.319 83.0286L74.0238 85.9619L73.1762 86.4524L71.9428 84.3286L72.0762 87.0952L71.2904 87.5524L68.9524 86.0714L70.1904 88.1952L69.3381 88.6905Z" fill="white"/>
<path d="M23.019 81.8381C13.9952 74.181 8.2666 62.7571 8.2666 50C8.2666 37.2429 14.2999 25.2143 23.738 17.5619" stroke="#E20D19" stroke-miterlimit="10"/>
<path d="M76.2666 17.5667C85.7047 25.219 91.7333 36.9048 91.7333 50C91.7333 63.0952 86.0047 74.1857 76.9809 81.8429" stroke="#E20D19" stroke-miterlimit="10"/>
</g>
<defs>
<clipPath id="clip0_1124_17164">
<rect width="100" height="100" fill="white"/>
</clipPath>
</defs>
</svg>
