<svg xmlns="http://www.w3.org/2000/svg" width="64" height="64" viewBox="0 0 64 64"><g transform="translate(-24.147 -163.396)"><path d="M56.136,163.4a32.08,32.08,0,1,1-22.594,9.4A31.9,31.9,0,0,1,56.136,163.4Z" transform="translate(0 0)" fill="#161615"/><path d="M81.495,176.106a31.474,31.474,0,1,1-22.33-9.282A31.462,31.462,0,0,1,81.495,176.106Z" transform="translate(-3.029 -3.027)" fill="#fff"/><path d="M111.788,251.036a22.457,22.457,0,1,0,15.9-6.612A22.466,22.466,0,0,0,111.788,251.036Z" transform="translate(-71.555 -71.551)" fill="#cc9554"/><path d="M122.731,260.688a22.063,22.063,0,1,0,15.983,0A18,18,0,0,1,143.3,264a17.753,17.753,0,1,1-20.566-3.312Z" transform="translate(-74.581 -85.913)" fill="#d5000c"/><path d="M166.538,247.853a17.409,17.409,0,1,0,12.294,5.1A17.359,17.359,0,0,0,166.538,247.853Z" transform="translate(-110.402 -74.579)" fill="#161615"/><path d="M268.8,278.165H265.96l2.291,1.685-.871,2.693,2.28-1.661,2.326,1.7-.882-2.727,2.3-1.685h-2.853l-.871-2.681Z" transform="translate(-213.536 -98.978)" fill="#cc9554"/><path d="M247.941,569.188H247.3v-4.064h-.76v-.541h1.4Z" transform="translate(-196.392 -354.265)" fill="#161615"/><path d="M266.78,565.448a1.015,1.015,0,0,0-.279-.723.894.894,0,0,0-.675-.3.932.932,0,0,0-.7.269.979.979,0,0,0-.263.715.966.966,0,0,0,.265.7.9.9,0,0,0,.677.274.952.952,0,0,0,.691-.275A.9.9,0,0,0,266.78,565.448Zm-1.065,3.023h-.748l1.046-1.563a1.042,1.042,0,0,1-.187.06.8.8,0,0,1-.168.019,1.353,1.353,0,0,1-1.028-.454,1.547,1.547,0,0,1-.424-1.094,1.627,1.627,0,0,1,.06-.434,1.878,1.878,0,0,1,.18-.431,1.521,1.521,0,0,1,.568-.6,1.547,1.547,0,0,1,.8-.209,1.57,1.57,0,0,1,.611.119,1.526,1.526,0,0,1,.509.35,1.726,1.726,0,0,1,.35.519,1.453,1.453,0,0,1,.125.582,3.188,3.188,0,0,1-.664,1.586l-.016.025-1.014,1.519" transform="translate(-211.988 -353.548)" fill="#161615"/><path d="M298.167,568.526h-2.915v-.643l1.612-1.547.025-.025a1.665,1.665,0,0,0,.636-1.019.811.811,0,0,0-.835-.829.75.75,0,0,0-.6.244,1,1,0,0,0-.213.678v.051h-.629v-.013a1.609,1.609,0,0,1,.411-1.153,1.424,1.424,0,0,1,1.086-.435,1.426,1.426,0,0,1,1.434,1.433,1.353,1.353,0,0,1-.157.636,2.473,2.473,0,0,1-.513.633l-1.432,1.348h2.087Z" transform="translate(-239.403 -353.603)" fill="#161615"/><path d="M323.335,567.06h.621a.947.947,0,0,0,.25.638.774.774,0,0,0,.585.246.855.855,0,0,0,.635-.258.875.875,0,0,0,.255-.639.849.849,0,0,0-.262-.664,1.067,1.067,0,0,0-.741-.236l-.1,0h-.06v-.62l.052,0,.084,0a.837.837,0,0,0,.534-.145.526.526,0,0,0,.18-.435.57.57,0,0,0-.152-.406.5.5,0,0,0-.379-.161.546.546,0,0,0-.4.149.6.6,0,0,0-.161.414h-.607a1.21,1.21,0,0,1,.345-.857,1.159,1.159,0,0,1,.848-.32A1.144,1.144,0,0,1,326,564.916a1.07,1.07,0,0,1-.108.495,1.014,1.014,0,0,1-.339.368,1.139,1.139,0,0,1,.57.465,1.424,1.424,0,0,1,.2.766,1.544,1.544,0,0,1-.429,1.108,1.408,1.408,0,0,1-1.061.449,1.461,1.461,0,0,1-1.085-.4A1.55,1.55,0,0,1,323.335,567.06Z" transform="translate(-264.202 -353.548)" fill="#161615"/><path d="M275.424,637.652l.4.04a1,1,0,0,1-.351.6,1.106,1.106,0,0,1-1.316-.131.884.884,0,0,1-.232-.656l.4.039a.526.526,0,0,0,.133.346.534.534,0,0,0,.354.142.543.543,0,0,0,.4-.064A.51.51,0,0,0,275.424,637.652Z" transform="translate(-220.57 -418.66)" fill="#161615"/><path d="M40.372,470.214l.313,1.657-.5.1-.313-1.668Z" transform="translate(-13.884 -270.933)" fill="#161615"/><path d="M445.612,263.718l1.306,1.387-1.867-.355-.917,1.65-.229-1.868-1.879-.367,1.73-.8-.229-1.891,1.295,1.387,1.707-.791Z" transform="translate(-369.014 -86.605)" fill="#161615"/><path d="M113.036,263.718l-1.295,1.387,1.867-.355.917,1.65.229-1.868,1.879-.367-1.73-.8.229-1.891-1.295,1.387-1.707-.791Z" transform="translate(-77.351 -86.605)" fill="#161615"/><path d="M58.232,329.381a2.047,2.047,0,0,1,1.262-1.219,3,3,0,0,1,3.37,1.42,2.108,2.108,0,0,1,.011,1.786,2.134,2.134,0,0,1-.924,1.076,1.681,1.681,0,0,1-1.293.178l.242-.58a1.113,1.113,0,0,0,.856-.143,1.647,1.647,0,0,0,.61-.789,1.379,1.379,0,0,0-.065-1.254,2.633,2.633,0,0,0-2.643-1.119,1.438,1.438,0,0,0-.926.892,1.526,1.526,0,0,0,.153,1.5,1.223,1.223,0,0,0,.276.258,1.893,1.893,0,0,0,.379.216l.054.023.577-1.383.506.211-.807,1.934-2.341-.977.155-.373.616.088-.025-.049A1.936,1.936,0,0,1,58.232,329.381Z" transform="translate(-29.478 -145.388)" fill="#161615"/><path d="M47.984,370.846l4.683.995-.728,3.425-.279-.059-.279-.059.592-2.789-1.437-.305L50,374.6l-.279-.059-.279-.059.541-2.545-1.573-.334-.6,2.824-.279-.059-.279-.059Z" transform="translate(-20.401 -183.187)" fill="#161615"/><path d="M44.844,413.47l.01-.314.01-.314,4.785.147-.012.389-.012.392-3.962,2.27,3.888.12-.01.314-.01.314-4.785-.147.011-.356.011-.356,3.978-2.338Z" transform="translate(-18.19 -220.271)" fill="#161615"/><path d="M48.973,458.42a2.217,2.217,0,0,1-1.477-.459,2.009,2.009,0,0,1-.711-1.311,1.974,1.974,0,0,1,.434-1.662,2.724,2.724,0,0,1,1.728-.861,2.672,2.672,0,0,1,1.914.322,2.314,2.314,0,0,1,.718,2.893,1.716,1.716,0,0,1-1.039.792l-.1-.621a1.143,1.143,0,0,0,.659-.547,1.471,1.471,0,0,0,.119-.928,1.392,1.392,0,0,0-.7-1.05,2.216,2.216,0,0,0-1.476-.2,2.3,2.3,0,0,0-1.375.612,1.375,1.375,0,0,0-.319,1.209,1.3,1.3,0,0,0,.481.86,1.743,1.743,0,0,0,1.041.333Z" transform="translate(-19.964 -256.687)" fill="#161615"/><path d="M54.061,493.262l4.548-1.495.1.307.1.311L54.805,493.7l.755,2.3-.271.089-.271.089Z" transform="translate(-26.416 -289.965)" fill="#161615"/><path d="M66.436,522.826l4.258-2.188,1.6,3.114-.254.13-.254.13-1.3-2.536-1.307.672,1.189,2.315-.254.13-.254.13-1.189-2.315-1.43.735,1.319,2.568-.254.13-.254.13Z" transform="translate(-37.343 -315.46)" fill="#161615"/><path d="M89.773,554.344l.968,1.272a.928.928,0,0,0,.555.4.828.828,0,0,0,.623-.213.768.768,0,0,0,.35-.542A1.035,1.035,0,0,0,92,554.6l-.938-1.234Zm1.328-1.828.195.256,1.152,1.514a1.766,1.766,0,0,1,.438,1.122,1.191,1.191,0,0,1-.532.9,1.229,1.229,0,0,1-1.034.267,1.47,1.47,0,0,1-.26-.084l.024.117a.928.928,0,0,1-.4.871l-.68.55a.767.767,0,0,0-.213.232.4.4,0,0,0-.015.249l-.081.062-.482-.634a1.385,1.385,0,0,1,.212-.227q.181-.17.414-.364l.292-.24a.875.875,0,0,0,.375-.559.968.968,0,0,0-.254-.649l-.926-1.218-1.64,1.248-.2-.258-.2-.26,3.81-2.9" transform="translate(-55.76 -343.61)" fill="#161615"/><path d="M118.282,584.614l.85.783a1.256,1.256,0,0,0,.7.383.713.713,0,0,0,.586-.276.613.613,0,0,0,.191-.539,1.189,1.189,0,0,0-.406-.6l-.912-.84Zm-1.486,1.613.968.893a1.266,1.266,0,0,0,.744.394.829.829,0,0,0,.648-.322.667.667,0,0,0,.2-.617,1.517,1.517,0,0,0-.5-.713l-.935-.862-1.129,1.226m2.389-3.553.237.218,1.31,1.207a1.483,1.483,0,0,1,.512.9,1.03,1.03,0,0,1-.286.864,1.1,1.1,0,0,1-.957.385,1.165,1.165,0,0,1-.251-.049,1.646,1.646,0,0,1,.16.436,1.109,1.109,0,0,1-.3,1.013,1.276,1.276,0,0,1-1.043.457,1.945,1.945,0,0,1-1.189-.585l-1.2-1.107-.237-.219,3.244-3.521" transform="translate(-81.061 -370.24)" fill="#161615"/><path d="M165.943,618.09l1.4.763a.928.928,0,0,0,.671.14.827.827,0,0,0,.481-.45.768.768,0,0,0,.1-.638,1.035,1.035,0,0,0-.518-.5l-1.362-.74Zm.46-2.212.283.154,1.672.908a1.767,1.767,0,0,1,.86.843,1.191,1.191,0,0,1-.114,1.042,1.229,1.229,0,0,1-.833.668,1.469,1.469,0,0,1-.272.03l.07.1a.928.928,0,0,1-.005.958l-.394.781a.772.772,0,0,0-.1.3.4.4,0,0,0,.088.233l-.049.09-.7-.38a1.392,1.392,0,0,1,.1-.294q.1-.23.228-.5l.167-.339a.876.876,0,0,0,.112-.664.968.968,0,0,0-.5-.487l-1.345-.73-.983,1.812-.284-.155-.287-.156,2.284-4.208" transform="translate(-123.604 -399.561)" fill="#161615"/><path d="M204.574,637.979l1.568-4.524.306.106.309.107-1.381,3.985,2.286.792-.093.269-.093.269Z" transform="translate(-159.329 -415.082)" fill="#161615"/><path d="M259.6,651.777a2.047,2.047,0,0,1-1.543-.836,3,3,0,0,1,.337-3.642,2.107,2.107,0,0,1,1.7-.549,2.132,2.132,0,0,1,1.3.557,1.681,1.681,0,0,1,.56,1.18l-.626-.056a1.113,1.113,0,0,0-.395-.773,1.647,1.647,0,0,0-.936-.344,1.38,1.38,0,0,0-1.176.44,2.634,2.634,0,0,0-.269,2.858,1.437,1.437,0,0,0,1.13.615,1.523,1.523,0,0,0,1.383-.6,1.223,1.223,0,0,0,.163-.341,1.9,1.9,0,0,0,.092-.426l.005-.058-1.492-.133.049-.546,2.087.186-.225,2.526-.4-.036-.1-.614-.04.039A1.936,1.936,0,0,1,259.6,651.777Z" transform="translate(-206.148 -426.812)" fill="#161615"/><path d="M350.573,638.863a.964.964,0,0,0-.545-.569,1.326,1.326,0,0,0-.88.009,1.37,1.37,0,0,0-.732.445.728.728,0,0,0-.09.676.479.479,0,0,0,.3.342,2.369,2.369,0,0,0,.805.038l.855-.052a1.864,1.864,0,0,1,1.054.173,1.39,1.39,0,0,1,.358,1.887,2.136,2.136,0,0,1-1.169.754,2.227,2.227,0,0,1-1.531.006,1.464,1.464,0,0,1-.837-.983l-.01-.034.573-.174a1.006,1.006,0,0,0,.6.661,1.594,1.594,0,0,0,1.046-.022,1.641,1.641,0,0,0,.807-.46.679.679,0,0,0,.121-.668.624.624,0,0,0-.344-.431,2.273,2.273,0,0,0-.87-.059l-.857.052a1.911,1.911,0,0,1-.986-.136,1,1,0,0,1-.472-.63,1.364,1.364,0,0,1,.13-1.179,1.867,1.867,0,0,1,1.09-.752,1.926,1.926,0,0,1,1.348.013,1.478,1.478,0,0,1,.814.919Z" transform="translate(-285.709 -418.78)" fill="#161615"/><path d="M380.641,626.031l1.15-.574a1.075,1.075,0,0,0,.566-.52.863.863,0,0,0-.089-.7.711.711,0,0,0-.473-.424,1.181,1.181,0,0,0-.745.162l-1.15.573Zm-1.57-1.692.288-.144,1.585-.79a1.576,1.576,0,0,1,1.131-.172,1.233,1.233,0,0,1,.784.693,1.426,1.426,0,0,1,.125,1.129,1.486,1.486,0,0,1-.8.83q-.819.4-1.289.65l.9,1.8-.29.144-.293.146-2.135-4.285" transform="translate(-313.421 -406.018)" fill="#161615"/><path d="M419.7,604.527a2.411,2.411,0,0,0-1.7-2.268,1.618,1.618,0,0,0-1.934,1.445,2.411,2.411,0,0,0,1.7,2.268,1.622,1.622,0,0,0,1.933-1.446Zm-2.071,2.064a2.917,2.917,0,0,1-2.19-2.93,2.391,2.391,0,0,1,2.7-2.021,2.923,2.923,0,0,1,2.19,2.93,2.4,2.4,0,0,1-2.7,2.021" transform="translate(-345.524 -386.954)" fill="#161615"/><path d="M445.057,575.417l1.081-1.178a.928.928,0,0,0,.3-.617.828.828,0,0,0-.32-.576.768.768,0,0,0-.6-.249,1.035,1.035,0,0,0-.611.381l-1.048,1.142Zm-2.034-.983.218-.237,1.286-1.4a1.767,1.767,0,0,1,1.026-.629,1.191,1.191,0,0,1,.983.364,1.23,1.23,0,0,1,.446.97,1.469,1.469,0,0,1-.037.271l.111-.044a.927.927,0,0,1,.928.238l.661.572a.771.771,0,0,0,.266.169.4.4,0,0,0,.248-.029l.075.069-.538.587a1.4,1.4,0,0,1-.261-.169q-.2-.148-.432-.343l-.288-.245a.874.874,0,0,0-.616-.27.968.968,0,0,0-.593.365l-1.034,1.128,1.518,1.394-.219.239-.221.241-3.527-3.237" transform="translate(-369.894 -360.953)" fill="#161615"/><path d="M481.468,516.858l.143-.29.144-.293,2.087,1.027-1.059-3.117.2-.4.2-.4.861,2.684,3.451-.605-.185.377-.187.38-2.873.481.307.954,1.5.737-.143.29-.144.293Z" transform="translate(-403.844 -309.053)" fill="#161615"/><path d="M501.261,479.424a1.729,1.729,0,0,1,1.306,2.321,1.687,1.687,0,0,1-2.326,1.3l-2.919-.822.088-.312.089-.315,2.874.81a1.463,1.463,0,0,0,1.063-.028,1.387,1.387,0,0,0,.5-1.767,1.469,1.469,0,0,0-.893-.577l-2.874-.81.088-.312.089-.315Z" transform="translate(-417.844 -278.34)" fill="#161615"/><path d="M511.807,452.35l-4.759-.518.035-.322.035-.325,4.192.457.262-2.405.283.031.283.031Z" transform="translate(-426.432 -252.409)" fill="#161615"/><path d="M502.773,410.793a1.729,1.729,0,0,1,1.963,1.8,1.688,1.688,0,0,1-1.805,1.962l-3.03.127-.014-.324-.014-.327,2.983-.125a1.464,1.464,0,0,0,1-.357,1.387,1.387,0,0,0-.077-1.834,1.469,1.469,0,0,0-1.028-.27l-2.983.125-.014-.323-.014-.327Zm-4.142,2.9-.026-.606.686-.029.025.606-.686.029m-.045-1.081-.025-.606.686-.029.025.606-.686.029" transform="translate(-418.937 -218.459)" fill="#161615"/><path d="M507.893,371.012l-.286-1.286a1.266,1.266,0,0,0-.386-.748.828.828,0,0,0-.716-.105.666.666,0,0,0-.517.392,1.517,1.517,0,0,0,0,.869l.277,1.241Zm-2.14.477-.251-1.128a1.257,1.257,0,0,0-.353-.711.714.714,0,0,0-.639-.108.613.613,0,0,0-.464.334,1.189,1.189,0,0,0-.01.726l.27,1.211,1.448-.323m-1.849,1.079-.07-.315-.387-1.739a1.485,1.485,0,0,1,.092-1.031,1.03,1.03,0,0,1,.728-.546,1.1,1.1,0,0,1,1.006.229,1.173,1.173,0,0,1,.178.184,1.648,1.648,0,0,1,.117-.449,1.109,1.109,0,0,1,.823-.662,1.277,1.277,0,0,1,1.118.219,1.946,1.946,0,0,1,.643,1.159l.355,1.595.07.314-4.673,1.041" transform="translate(-423.208 -180.849)" fill="#161615"/><path d="M484.056,328.795a1.729,1.729,0,0,1,2.469,1,1.687,1.687,0,0,1-1,2.469l-2.794,1.18-.126-.3-.127-.3,2.751-1.162a1.465,1.465,0,0,0,.813-.685,1.386,1.386,0,0,0-.714-1.691,1.469,1.469,0,0,0-1.057.107l-2.751,1.162-.126-.3-.127-.3Zm-2.864,4.17-.236-.559.633-.267.236.559-.633.267m-.421-1-.236-.559.633-.267.236.559-.633.267" transform="translate(-403.02 -145.882)" fill="#161615"/><path d="M186.457,211.048l1.355-.657-1.592-1.59h0Zm-.846-2.733.331-.16.333-.162,3.635,3.558-.313.152-.313.152-1.045-1.037-1.718.833.153,1.469-.3.145-.3.147-.463-5.1" transform="translate(-142.583 -39.38)" fill="#161615"/><path d="M216.7,194.664l-.3.084-.3.084-1.278-4.614.375-.1.378-.1,3.342,3.111-1.039-3.749.3-.084.3-.084,1.278,4.614-.344.1-.344.1-3.412-3.107Z" transform="translate(-168.374 -22.788)" fill="#161615"/><path d="M260.436,184.146l.322-.029.326-.029.207,2.317,2.112-2.524.443-.04.447-.04-1.845,2.131,2.311,2.635-.418.037-.421.038-1.9-2.205-.655.758.149,1.663-.322.029-.325.029Z" transform="translate(-208.658 -18.018)" fill="#161615"/><path d="M301.325,188.088l1.5.142-.535-2.186h0Zm.7-2.776.366.035.369.035,1.259,4.929-.346-.033-.346-.033-.355-1.429-1.9-.18-.632,1.335-.331-.031-.334-.032,2.25-4.6" transform="translate(-243.394 -19.353)" fill="#161615"/><path d="M341.5,191.913l1.539.434a.928.928,0,0,0,.685-.012.828.828,0,0,0,.37-.545.767.767,0,0,0-.046-.644,1.036,1.036,0,0,0-.615-.374l-1.492-.421Zm-.039-2.259.31.087,1.831.517a1.767,1.767,0,0,1,1.024.633,1.191,1.191,0,0,1,.118,1.041,1.229,1.229,0,0,1-.665.835,1.466,1.466,0,0,1-.259.09l.089.079a.927.927,0,0,1,.206.936l-.212.848a.772.772,0,0,0-.031.313.4.4,0,0,0,.138.208l-.028.1-.767-.216a1.382,1.382,0,0,1,.033-.309q.042-.245.112-.54l.089-.367a.876.876,0,0,0-.037-.672.968.968,0,0,0-.593-.365l-1.473-.416-.56,1.984-.312-.088-.315-.089,1.3-4.608" transform="translate(-279.065 -23.187)" fill="#161615"/><path d="M376.313,211.213l1.352.663.272-2.234h0Zm1.632-2.35.33.162.333.163-.565,5.056-.312-.153-.312-.153.173-1.462-1.714-.841-1.063,1.025-.3-.146-.3-.148,3.73-3.5" transform="translate(-309.133 -40.149)" fill="#161615"/><path d="M304.685,648.465l.323-.015.327-.015.222,4.783-.323.015-.327.015Z" transform="translate(-247.733 -428.31)" fill="#161615"/><path d="M304.264,639.412l.323-.015.326-.015.038.818-.323.015-.326.015Z" transform="translate(-247.361 -420.316)" fill="#161615"/><path d="M239.859,642.869l.316.073.318.073-1.07,4.667-.315-.072-.318-.073Z" transform="translate(-189.543 -423.395)" fill="#161615"/><path d="M248.581,634.036l.316.072.319.073-.183.8-.316-.072-.319-.073Z" transform="translate(-198.028 -415.595)" fill="#161615"/><path d="M150.974,607.254l.262.189.265.191-2.8,3.883-.262-.189-.265-.191Z" transform="translate(-109.523 -391.946)" fill="#161615"/><path d="M173.811,599.905l.262.189.265.191-.479.664-.262-.189-.265-.191Z" transform="translate(-131.74 -385.457)" fill="#161615"/><path d="M287.515,252.089a2.632,2.632,0,0,0,.3-.023l.344,2.177c-.08.08-.172.16-.264.241Z" transform="translate(-232.571 -78.299)" fill="#cc9554"/><path d="M278.5,252.9a2.137,2.137,0,0,1,.286-.046l.836,2.567c-.08.057-.172.115-.264.172Z" transform="translate(-224.611 -78.992)" fill="#cc9554"/><path d="M269,254.376c.1-.023.206-.034.309-.057l1.375,2.739c-.08.046-.172.092-.263.138Z" transform="translate(-216.217 -80.289)" fill="#cc9554"/><path d="M258.9,256.653a3.077,3.077,0,0,1,.31-.08l2,2.762a2.822,2.822,0,0,1-.275.115Z" transform="translate(-207.305 -82.279)" fill="#cc9554"/><path d="M248.127,259.909l.309-.1,2.646,2.636a2.624,2.624,0,0,1-.321.1Z" transform="translate(-197.789 -85.134)" fill="#cc9554"/><path d="M236.469,264.549l.309-.138,3.231,2.338c-.137.034-.263.069-.389.092Z" transform="translate(-187.494 -89.201)" fill="#cc9554"/><path d="M223.828,270.964c.1-.057.206-.115.309-.183l3.54,1.81c-.195.023-.378.034-.561.046Z" transform="translate(-176.331 -94.826)" fill="#cc9554"/><path d="M210.308,279.914c.1-.08.195-.149.3-.218l4.583,1.49c.012.1.023.206.034.321Z" transform="translate(-164.392 -102.698)" fill="#cc9554"/><path d="M196.2,291.815l.263-.264,6.4,1.02a2.934,2.934,0,0,0,.057.309Z" transform="translate(-151.932 -113.166)" fill="#cc9554"/><path d="M182.187,307.624c.069-.1.149-.195.229-.3h8.272c.035.1.069.195.1.3Z" transform="translate(-139.559 -127.096)" fill="#cc9554"/><path d="M169.353,315.717c.057-.115.114-.218.172-.332l10.094-1.593c.046.092.08.183.126.275Z" transform="translate(-128.226 -132.806)" fill="#cc9554"/><path d="M159.359,323.71l.1-.344,11.652-3.793.138.275Z" transform="translate(-119.401 -137.911)" fill="#cc9554"/><path d="M153.774,331.8c.011-.115.023-.241.034-.355l12.729-6.486c.057.08.114.172.172.252Z" transform="translate(-114.469 -142.67)" fill="#cc9554"/><path d="M154,339.75q-.017-.172-.034-.344l13.153-9.546c.057.08.126.149.183.229Z" transform="translate(-114.642 -146.996)" fill="#cc9554"/><path d="M161.139,347.356c-.034-.1-.069-.206-.115-.309L173.81,334.27c.069.08.137.149.206.218Z" transform="translate(-120.871 -150.889)" fill="#cc9554"/><path d="M176.089,354.531c-.057-.092-.115-.172-.172-.264l11.549-15.883c.069.057.149.126.229.183Z" transform="translate(-134.023 -154.523)" fill="#cc9554"/><path d="M330.742,354.268c-.057.092-.115.172-.183.264l-11.595-15.963c.08-.057.149-.126.229-.183Z" transform="translate(-260.342 -154.523)" fill="#cc9554"/><path d="M336.453,347.047l-.1.309-12.878-12.869c.069-.069.138-.138.206-.218Z" transform="translate(-264.323 -150.889)" fill="#cc9554"/><path d="M340.837,339.407a3.45,3.45,0,0,1-.046.344l-13.3-9.66c.069-.08.137-.149.195-.229Z" transform="translate(-267.871 -146.996)" fill="#cc9554"/><path d="M344.1,331.448c.023.115.034.241.046.355l-12.935-6.589c.057-.08.114-.172.161-.252Z" transform="translate(-271.158 -142.67)" fill="#cc9554"/><path d="M347.606,315.385c.057.115.115.218.172.332l-10.392-1.65a2.828,2.828,0,0,0,.115-.275Z" transform="translate(-276.61 -132.806)" fill="#cc9554"/><path d="M348.211,307.326c.08.1.149.195.229.3h-8.6a3.017,3.017,0,0,0,.091-.3Z" transform="translate(-278.774 -127.096)" fill="#cc9554"/><path d="M348.257,291.551c.092.092.183.172.275.264L341.8,292.88l.069-.309Z" transform="translate(-280.504 -113.166)" fill="#cc9554"/><path d="M347.882,279.7a2.681,2.681,0,0,1,.287.218l-4.9,1.593c.011-.115.023-.218.023-.321Z" transform="translate(-281.802 -102.698)" fill="#cc9554"/><path d="M342.308,270.781c.1.069.206.126.3.183l-3.277,1.673c-.183-.011-.378-.023-.573-.046Z" transform="translate(-277.82 -94.826)" fill="#cc9554"/><path d="M332.081,264.411l.309.138-3.139,2.292a3.937,3.937,0,0,1-.389-.092Z" transform="translate(-269.082 -89.201)" fill="#cc9554"/><path d="M324.833,259.806l.309.1-2.635,2.636a3.261,3.261,0,0,1-.31-.1Z" transform="translate(-263.198 -85.134)" fill="#cc9554"/><path d="M318.826,256.573a2.877,2.877,0,0,1,.3.08l-2.028,2.8a2.153,2.153,0,0,1-.286-.115Z" transform="translate(-258.439 -82.279)" fill="#cc9554"/><path d="M313.406,254.319c.1.023.206.034.309.057l-1.444,2.819c-.092-.046-.172-.092-.264-.138Z" transform="translate(-254.2 -80.289)" fill="#cc9554"/><path d="M308.241,252.85c.092.011.195.023.3.046l-.882,2.693c-.08-.057-.172-.115-.252-.172Z" transform="translate(-250.135 -78.992)" fill="#cc9554"/><path d="M302.849,252.066a2.441,2.441,0,0,0,.3.023l-.378,2.395c-.091-.08-.183-.16-.263-.241Z" transform="translate(-245.808 -78.299)" fill="#cc9554"/><path d="M296.579,251.87c.057,0,.1.011.149.011v1.73c-.046-.069-.1-.138-.149-.206a2.362,2.362,0,0,1-.149.206v-1.73C296.487,251.881,296.533,251.87,296.579,251.87Z" transform="translate(-240.443 -78.126)" fill="#cc9554"/><path d="M346.349,323.71l-11.9-3.862c.057-.092.1-.183.149-.275l11.652,3.793Z" transform="translate(-274.013 -137.911)" fill="#cc9554"/><path d="M209.713,351.384a4.114,4.114,0,0,0-2.039-.413,2.546,2.546,0,0,0-1.592.722,6.775,6.775,0,0,1-.149,2.269,11.413,11.413,0,0,1-.825,2.269,11.079,11.079,0,0,1,.825,2.257,6.866,6.866,0,0,1,.149,2.281,2.6,2.6,0,0,0,1.592.711,3.99,3.99,0,0,0,2.039-.413Zm-5.453-.928c.241.126.481.264.733.413.3.183.6.355.882.538a2.824,2.824,0,0,1,1.764-.779,4.342,4.342,0,0,1,2.246.458,4.363,4.363,0,0,1,2.246-.458,2.858,2.858,0,0,1,1.787.779c.287-.183.584-.355.882-.538.241-.149.493-.287.733-.413a8.078,8.078,0,0,0-11.274,0m11.274,11.551c-.241-.138-.493-.275-.733-.424-.3-.172-.6-.343-.882-.527a2.985,2.985,0,0,1-1.787.779,4.485,4.485,0,0,1-2.246-.458,4.462,4.462,0,0,1-2.246.458,2.951,2.951,0,0,1-1.764-.779c-.286.184-.584.355-.882.527-.252.149-.493.286-.733.424a8.049,8.049,0,0,0,11.274,0m-11.526-.263c.275-.149.538-.3.814-.458s.6-.355.917-.561a6.733,6.733,0,0,0-.149-2.155,10.426,10.426,0,0,0-.791-2.166h-2.979a8.059,8.059,0,0,0,2.188,5.34m-2.188-5.7H204.8a10.19,10.19,0,0,0,.791-2.166,6.638,6.638,0,0,0,.149-2.143c-.321-.206-.63-.39-.917-.561s-.538-.309-.814-.458a8.029,8.029,0,0,0-2.188,5.328m16.143.355h-2.979a11.134,11.134,0,0,0-.79,2.166,6.735,6.735,0,0,0-.138,2.155c.321.206.63.389.917.561s.538.309.813.458a8.046,8.046,0,0,0,2.177-5.34m-2.177-5.684c-.275.149-.538.3-.813.458s-.6.355-.917.561a6.641,6.641,0,0,0,.138,2.143,10.865,10.865,0,0,0,.79,2.166h2.979a8.017,8.017,0,0,0-2.177-5.328m-5.717,10.348a3.99,3.99,0,0,0,2.039.413,2.6,2.6,0,0,0,1.6-.711,7.189,7.189,0,0,1,.137-2.281,11.166,11.166,0,0,1,.836-2.257,11.506,11.506,0,0,1-.836-2.269,7.094,7.094,0,0,1-.137-2.269,2.55,2.55,0,0,0-1.6-.722,4.115,4.115,0,0,0-2.039.413v9.683m-8.454-6.38-3.13,6.151c-.08-.069-.16-.138-.229-.206l3.771-7.41.007-.018a8.392,8.392,0,0,1,.794-1.559l.01-.019,4.893-9.615c.08.057.172.1.252.16l-4.2,8.25-.008.018q.08-.084.162-.167a8.648,8.648,0,0,1,2.377-1.661l0-.012,2.018-6.223.275.138-1.923,5.925,0,.007a8.382,8.382,0,0,1,1.488-.46l0-.014.834-5.274a2.813,2.813,0,0,0,.275.115l-.806,5.1,0,.011a8.3,8.3,0,0,1,1.253-.118v-4.837a.568.568,0,0,1,.149.046,1.054,1.054,0,0,1,.149-.046v4.837a8.421,8.421,0,0,1,1.256.116v-.009l-.809-5.1a2.138,2.138,0,0,0,.287-.115l.838,5.28v.008a8.4,8.4,0,0,1,1.486.457l0-.014-1.92-5.914c.092-.046.183-.092.264-.138l2.023,6.22,0,.009a8.527,8.527,0,0,1,2.383,1.667q.086.085.168.172l-.005-.015L211.8,342.17c.08-.057.16-.1.241-.16l4.852,9.513.034.068a8.343,8.343,0,0,1,.852,1.663l0,.009,3.758,7.369c-.08.069-.149.137-.229.206l-3.128-6.14,0,.029a8.485,8.485,0,0,1,.134,1.5,8.372,8.372,0,0,1-1.053,4.074l0,.014.911,2.8c-.092.046-.183.1-.275.149l-.843-2.6,0-.016a8.52,8.52,0,0,1-2.983,2.89l0,.019.184,1.159a2.926,2.926,0,0,0-.3.08l-.172-1.086V363.7a8.367,8.367,0,0,1-3.755.962l0,.011v.621h-.3v-.632a8.337,8.337,0,0,1-3.744-.965l0,.009-.173,1.094a2.131,2.131,0,0,0-.286-.08l.184-1.164,0-.011a8.355,8.355,0,0,1-2.99-2.9l0,.01-.846,2.607c-.092-.046-.172-.1-.264-.149l.908-2.8,0-.012a8.4,8.4,0,0,1-1.049-4.073,8.491,8.491,0,0,1,.138-1.527l0-.017" transform="translate(-153.749 -157.724)" fill="#cc9554"/></g></svg>