<svg width="100" height="100" viewBox="0 0 100 100" fill="none" xmlns="http://www.w3.org/2000/svg">
<g clip-path="url(#clip0_1124_13735)">
<path d="M50 100C77.6142 100 100 77.6142 100 50C100 22.3858 77.6142 0 50 0C22.3858 0 0 22.3858 0 50C0 77.6142 22.3858 100 50 100Z" fill="#304494"/>
<path d="M50 2.53333C76.1714 2.53333 97.4667 23.8286 97.4667 50C97.4667 76.1714 76.1714 97.4667 50 97.4667C23.8286 97.4667 2.53333 76.1714 2.53333 50C2.53333 23.8286 23.8286 2.53333 50 2.53333ZM50 0C22.3857 0 0 22.3857 0 50C0 77.6143 22.3857 100 50 100C77.6143 100 100 77.6143 100 50C100 22.3857 77.6143 0 50 0Z" fill="white"/>
<path fill-rule="evenodd" clip-rule="evenodd" d="M31.381 24.9667C38.2762 29.4667 43.281 29.4381 49.9333 25.1857C56.9905 29.4 61.8095 29.5619 68.6191 24.9667L76.5143 34.1048L75.6238 35.3619L75.2952 35.8524L74.9667 36.3429L74.6667 36.8238L74.3667 37.3048L74.0952 37.7857L73.8333 38.2667L73.5857 38.7476L73.3524 39.2143L73.1476 39.681L72.9572 40.1476L72.781 40.6143L72.6191 41.081L72.481 41.5476L72.3571 42.0286L72.2619 42.4952L72.1667 42.9619L72.1 43.4429L72.0572 43.9238L72.0286 44.4048L72.0143 44.8952L72.0286 45.3857L72.0714 45.8905L72.1238 46.4095L72.2048 46.9286L72.3 47.4619L72.4238 47.9952L72.5762 48.5572L72.7524 49.1191L72.9572 49.7095L73.1762 50.3L73.4381 50.9143L73.7524 51.6238L74.0667 52.3619L74.3952 53.1429L74.7095 53.9381L74.8714 54.4286L75.0333 54.9191L75.1714 55.4L75.3095 55.881L75.4333 56.3619L75.5429 56.8429L75.6524 57.3238L75.7333 57.8143L75.8 58.2952L75.8667 58.7762L75.9095 59.2572L75.9381 59.7381L75.9524 60.2191L75.9667 60.7L75.9524 61.1667L75.9238 61.6333L75.8714 62.1143L75.8191 62.5952L75.7381 63.0619L75.6429 63.5429L75.5333 64.0095L75.4095 64.4762L75.2571 64.9429L75.0952 65.4095L74.9191 65.8762L74.7143 66.3429L74.5095 66.7952L74.2619 67.2619L74.0143 67.7143L73.7429 68.1524L73.4429 68.6048L73.1 69.0857L72.3333 69.9619C66.0286 75.7762 56.6714 73.5333 50.0048 79.1572C43.6048 73.8095 35.2286 75.5333 28.7429 70.7571L28.0429 70.1667L27.3857 69.5095L26.7571 68.7857L26.1667 67.9905L25.6048 67.1L25.0571 65.9238L24.881 65.4333L24.7429 64.981L24.6191 64.5286L24.4952 64.0905L24.4 63.6524L24.3048 63.2143L24.2381 62.7762L24.1714 62.3381L24.1286 61.9143L24.0857 61.4905L24.0571 61.081L24.0429 60.6572V60.2333L24.0571 59.8238L24.0857 59.4L24.1143 58.9905L24.1714 58.581L24.2238 58.1714L24.281 57.7619L24.3619 57.3524L24.4429 56.9429L24.5381 56.5333L24.6476 56.1238L24.7571 55.7286L24.881 55.3191L25.0048 54.9095L25.1429 54.5L25.281 54.0905L25.4333 53.681L25.5952 53.2714L25.7571 52.8476L25.9333 52.4238L26.2476 51.6857L26.4952 51.0952L26.7286 50.5191L26.9333 49.9572L27.1095 49.4095L27.2714 48.8619L27.4238 48.3143L27.5476 47.7952L27.6429 47.2762L27.7238 46.7572L27.7762 46.2524L27.8191 45.7476L27.8476 45.2429V44.7524L27.8333 44.2619L27.7905 43.7714L27.7333 43.281L27.6524 42.7905L27.5571 42.3L27.4476 41.8095L27.3095 41.3048L27.1476 40.8143L26.9714 40.3095L26.781 39.8048L26.5619 39.2857L26.3143 38.781L26.0524 38.2476L25.7667 37.7286L25.4667 37.181L25.1381 36.6476L24.781 36.1L24.4095 35.5381L23.481 34.1952L31.3762 25.0714L31.381 24.9667Z" fill="#23223D"/>
<path d="M49.9999 77.5905L49.9761 77.5714C46.9285 74.8476 43.0047 74.081 39.2047 73.3333C36.8142 72.8667 34.3427 72.381 32.1666 71.4048C29.7332 70.3143 27.9142 68.7048 26.6142 66.481L26.1189 65.4381C24.4332 60.7143 25.2475 56.9714 26.9951 52.7952L27.3094 52.0571C28.7666 48.7381 29.2666 45.8714 28.8808 43.0333C28.4999 40.2381 27.257 37.4286 24.9618 34.2L24.9475 34.1762L24.9666 34.1572L31.6237 26.4476L31.6475 26.4619C37.7189 30.1143 43.1808 30.1238 49.9189 26.5L49.938 26.4905L49.957 26.5C53.4285 28.3714 56.3618 29.2619 59.1808 29.2952C62.1666 29.3333 65.0856 28.4333 68.3618 26.4572L68.3856 26.4429L75.057 34.1762L75.0427 34.2C72.8332 37.3095 71.6237 39.7952 71.1285 42.2524C70.5523 45.1143 70.9618 48.0905 72.3761 51.3476L72.6904 52.0571L73.0047 52.7952L73.3189 53.5476L73.6189 54.3143C74.5666 56.9429 74.9475 59.2952 74.7761 61.5143C74.5904 63.9619 73.7427 66.181 72.1904 68.3048L71.5047 69.0857L70.7618 69.7714C67.7618 72.0667 64.1475 72.7476 60.657 73.4143C56.9237 74.1238 53.0618 74.8571 50.0237 77.5714L49.9999 77.5905ZM25.038 34.1762C27.3285 37.4095 28.5761 40.2191 28.9523 43.0191C29.338 45.8714 28.838 48.7524 27.3761 52.081L27.0618 52.8191C25.3237 56.9762 24.5094 60.7095 26.1856 65.4048L26.6761 66.4429C27.9666 68.6524 29.7713 70.2524 32.1951 71.3381C34.3618 72.3095 36.8285 72.7905 39.2189 73.2619C43.0142 74.0048 46.9427 74.7762 49.9999 77.4952C53.0475 74.781 56.9094 74.0476 60.6427 73.3429C64.1285 72.681 67.7332 72 70.7189 69.7191L71.457 69.0381L72.138 68.2619C73.6808 66.1524 74.5237 63.9429 74.7094 61.5095C74.8761 59.3048 74.4999 56.9619 73.557 54.3429L73.257 53.5762L72.9427 52.8238L72.6285 52.0857L72.3142 51.3762C70.8904 48.1048 70.4808 45.1191 71.0618 42.2381C71.557 39.7762 72.7666 37.2857 74.9713 34.181L68.3761 26.5381C65.0951 28.5095 62.1761 29.4048 59.1808 29.3714C56.3523 29.3333 53.4142 28.4476 49.938 26.5762C46.5761 28.381 43.5285 29.2857 40.5666 29.2857C37.5856 29.2857 34.6904 28.3714 31.638 26.5429L25.0427 34.1857L25.038 34.1762Z" fill="#23223D"/>
<path fill-rule="evenodd" clip-rule="evenodd" d="M31.8713 28.0191C38.4809 32.1238 44.4571 31.8762 50.0094 27.8952C55.6713 32.0286 61.5142 32.1238 68.1237 28.0191L73.4999 34.2429C63.6618 47.5143 74.2094 51.1524 73.6523 61.5095C71.6142 75.6 56.1952 69.7857 49.9999 75.9571C43.8047 69.7857 28.3856 75.6 26.3475 61.5095C25.7856 51.1524 36.3333 47.5143 26.4999 34.2429L31.8761 28.0191H31.8713Z" fill="white"/>
<path d="M48.4666 30.2191C48.9571 29.9333 49.4238 29.5905 49.8904 29.2048L50 29.1095L50.1095 29.2191C50.8904 29.8476 51.7095 30.3667 52.5571 30.781C53.419 31.1905 54.2952 31.481 55.1952 31.6857C59.8047 32.7524 64.7285 31.3572 67.4666 29.8238L67.6047 29.7429L67.7 29.8667L69.0285 31.3572L69.1524 31.481L69.0285 31.6191L48.4666 52.181V51.6476L68.6333 31.4667L67.5238 30.2238C64.7047 31.7714 59.7523 33.1238 55.1143 32.0572C54.1857 31.8524 53.2809 31.5524 52.4047 31.1286C51.5571 30.7333 50.7476 30.2238 49.9952 29.6095C49.5047 30.0048 48.9952 30.3619 48.4619 30.6619V30.2238L48.4666 30.2191ZM48.4666 72.9429C48.9571 73.2429 49.4238 73.5714 49.8762 73.9667L50 74.0762L50.1095 73.9667C52.8714 71.6 56.2666 71.1476 59.5762 70.6953C64.7762 69.9953 69.7524 69.3286 71.8333 61.5286C71.9 61.2429 71.9714 60.9953 72.0095 60.7191C72.0523 60.4572 72.0619 60.1714 72.0762 59.8714C72.119 57.2048 71.0619 54.9857 69.9809 52.6762C67.8619 48.1619 65.5762 43.3048 71.2523 34.0572L71.3333 33.9333L71.2381 33.8238L69.8571 32.2762L69.719 32.1238L69.5809 32.2762L48.4571 53.4V53.9333L69.7047 32.6857L70.8523 33.9714C65.1619 43.3143 67.4714 48.2524 69.6333 52.8381C70.7 55.1095 71.7285 57.2857 71.6857 59.8714C71.6857 60.1429 71.6571 60.4048 71.619 60.6667C71.5762 60.9286 71.5238 61.1714 71.4571 61.4333C69.4476 68.9857 64.5904 69.6429 59.5143 70.3238C56.2047 70.7619 52.7952 71.2286 49.9904 73.5667C49.5 73.1572 48.9904 72.8 48.4571 72.5V72.9381L48.4666 72.9429ZM32.5285 29.8238C33.0619 30.1238 33.6762 30.4143 34.3476 30.6857C35.0333 30.9476 35.7714 31.2048 36.5619 31.4095C40.1619 32.3524 44.7 32.5048 48.4619 30.2191V30.6572C44.6333 32.8857 40.0762 32.7381 36.4619 31.781C35.6523 31.5619 34.9 31.3143 34.2047 31.0286C33.5619 30.781 32.9714 30.5095 32.4666 30.2191L29.1285 33.981C34.819 43.3238 32.4952 48.2619 30.3476 52.8476C29.1714 55.3524 28.0476 57.7429 28.3381 60.7C28.7619 62.5333 29.3381 63.9952 30.0333 65.1619C30.6904 66.2857 31.4571 67.1333 32.3047 67.7762L48.4619 51.6476V52.181L32.4714 68.1714L32.3476 68.281L32.2238 68.1857C31.2809 67.4857 30.4333 66.5714 29.7047 65.3667C28.9952 64.1476 28.4047 62.6429 27.9666 60.7714V60.7429C27.6523 57.6905 28.8 55.2429 30.0047 52.6857C32.1238 48.1714 34.4095 43.3143 28.7333 34.0667L28.6523 33.9429L28.7476 33.8333L32.2904 29.8667L32.3857 29.7429L32.5238 29.8238H32.5285ZM48.4666 53.4095L33.2809 68.581L33.1047 68.7572L33.3238 68.881C35.4428 70.0286 37.9047 70.3714 40.4238 70.7C43.1857 71.0714 46.0047 71.4524 48.4666 72.9429V72.5048C45.9904 71.0667 43.2 70.7 40.4762 70.3286C38.0809 70 35.7428 69.6857 33.7333 68.6714L48.4666 53.9381V53.4048V53.4095Z" fill="#937D43"/>
<path fill-rule="evenodd" clip-rule="evenodd" d="M51.1476 30.2048C56.6762 33.7762 63.9809 31.9857 67.5619 29.9857L68.8904 31.4762L51.1476 49.2191V30.2048ZM51.1476 72.9571C58.2476 68.3619 68.4523 73.4762 71.6428 61.4952C71.7952 60.9476 71.8762 60.4571 71.8904 59.881C72.0143 52.0143 62.4904 47.981 71.0952 33.9714L69.7285 32.4143L51.1523 50.9905V72.9619L51.1476 72.9571ZM32.4333 29.9857C36.2762 32.1333 44.3762 34.0191 50 29.3571C50.3714 29.6714 50.7523 29.9476 51.1476 30.2048V49.2191L32.3381 68.0286C30.4904 66.6619 29.0142 64.4429 28.1666 60.7238L28.1523 60.6952V58.7667C28.8619 51.6 37.0857 47.2905 28.9047 33.9619L32.4333 29.981V29.9857ZM51.1476 50.9857L33.419 68.7143C38.2904 71.3524 45.1142 69.6286 50 73.8191C50.3714 73.5048 50.7523 73.2191 51.1476 72.9571V50.9857Z" fill="#304494"/>
<path fill-rule="evenodd" clip-rule="evenodd" d="M69.2475 54.8333C71.219 59.4429 70.5475 64.6429 66.0333 67.5429L65.4428 67.8714L64.8142 68.1429C60.0809 69.8524 55.0999 69.2524 50.5571 71.7953L49.7904 72.3143L49.519 72.1238C45.1285 69.2905 40.0095 69.9476 35.2761 68.3191L69.3285 34.2667L67.7809 37.2905C64.9761 44.1857 66.3714 48.4524 69.2428 54.8286L69.2475 54.8333Z" fill="white"/>
<path d="M51.3286 35.9095C53.6524 38.2333 53.6524 42.0095 51.3286 44.3381C50.4381 45.2286 49.3333 45.7905 48.1524 45.9952V45.6143C49.2333 45.4095 50.2476 44.8905 51.0524 44.081C53.2286 41.8905 53.2286 38.3619 51.0524 36.1857C50.2333 35.3667 49.2333 34.8429 48.1524 34.6381V34.2572C49.3286 34.4619 50.4381 35.0238 51.3286 35.9143V35.9095ZM48.1524 44.8143C49.0286 44.6238 49.8476 44.1857 50.5048 43.5286C52.381 41.6524 52.381 38.6048 50.5048 36.7286C49.8619 36.0571 49.0286 35.6191 48.1524 35.4286V35.8238C48.9333 36 49.6571 36.4 50.2333 36.9857C51.9714 38.7238 51.9714 41.5286 50.2333 43.2524C49.6571 43.8429 48.9333 44.2381 48.1524 44.4286V44.8095V44.8143ZM48.1524 45.9905C47.1952 46.1524 46.2095 46.1 45.281 45.8C45.2143 45.7714 45.1571 45.7572 45.1048 45.7333V45.3381H45.1333C45.2286 45.381 45.3095 45.4048 45.3952 45.4333C46.3 45.7333 47.2429 45.7762 48.1571 45.6095V45.9905H48.1524ZM45.1 34.5143C46.0857 34.1572 47.1381 34.0762 48.1524 34.2524V34.6333C47.1381 34.4572 46.0857 34.5381 45.1 34.9191V34.5095V34.5143ZM48.1524 35.4286V35.8238C47.4143 35.6476 46.6191 35.6571 45.881 35.8667C45.8143 35.8952 45.7571 35.9095 45.6905 35.9333C45.4857 36 45.2952 36.0857 45.1 36.181V35.7571C45.2524 35.6905 45.4 35.6333 45.5667 35.581C45.6191 35.5524 45.6905 35.5286 45.7714 35.5143C46.5524 35.281 47.3714 35.2667 48.1524 35.4333V35.4286ZM48.1524 44.4286V44.8095C47.181 45.0286 46.1571 44.9333 45.2238 44.5381C45.181 44.5238 45.1429 44.4952 45.1 44.4857V44.0619C45.181 44.1048 45.2762 44.1572 45.3714 44.1857C46.2619 44.5667 47.2333 44.6524 48.1476 44.4333L48.1524 44.4286ZM45.1 43.8286V43.1857C45.2381 42.9667 45.3714 42.7333 45.481 42.5C45.5238 42.3905 45.5762 42.2952 45.6191 42.1857C46.2905 40.5048 46.0857 38.5714 45.1 37.0667V36.4095C45.1286 36.4524 45.1667 36.5048 45.1952 36.5476C45.3191 36.7095 45.4429 36.8762 45.5381 37.0524C46.4952 38.6381 46.6476 40.6095 45.9619 42.3333C45.9191 42.4429 45.881 42.5524 45.8238 42.6619C45.6333 43.0714 45.3857 43.4714 45.1 43.8238V43.8286ZM45.1 41.2714C45.2762 40.5191 45.2762 39.7381 45.1 39V41.2714ZM45.1 45.7333C45.0571 45.7191 45.0333 45.7048 44.9905 45.6905C44.9238 45.6619 44.8667 45.6476 44.8 45.6238V45.2C44.8952 45.2524 45.0048 45.2952 45.1 45.3381V45.7333ZM44.8 34.6381C44.8952 34.5952 45.0048 34.5572 45.1 34.5143V34.9238C45.0048 34.9667 44.8952 35.0048 44.8 35.0476V34.6381ZM45.1 35.7619V36.1857C45.0571 36.2143 45.0048 36.2429 44.9619 36.2524C45.0048 36.3048 45.0571 36.3619 45.1 36.4143V37.0714C45.0333 36.9619 44.9619 36.8667 44.8952 36.7714C44.8667 36.7286 44.8381 36.7048 44.8 36.6619V35.9095C44.8952 35.8524 44.9905 35.8143 45.1 35.7571V35.7619ZM45.1 39.0048V41.2762C45.0429 41.4952 44.9762 41.7286 44.881 41.9476C44.8524 42 44.8286 42.0714 44.8 42.1238V40.8095C44.8667 40.3714 44.8667 39.9048 44.8 39.4714V38.1429C44.9238 38.4143 45.0333 38.7048 45.1 39.0048ZM45.1 43.1905V43.8333C45.0571 43.8905 45.0048 43.9429 44.9619 44C44.9905 44.0143 45.0286 44.0429 45.0571 44.0524L45.1 44.0667V44.4905C45.0333 44.4619 44.9619 44.4238 44.881 44.381C44.8524 44.3667 44.8286 44.3524 44.8 44.3381V43.6C44.9095 43.4619 45.0048 43.3286 45.1 43.1905ZM44.8 45.6238C44.4429 45.4714 44.1 45.281 43.7762 45.0619V44.5952L43.8857 44.6762C44.1714 44.881 44.4762 45.0572 44.8 45.1952V45.6191V45.6238ZM43.7762 35.1857V35.2C43.8857 35.1191 43.981 35.0619 44.0905 34.9952C44.2286 34.9143 44.3762 34.8286 44.5286 34.7619C44.6238 34.7095 44.7191 34.6667 44.8 34.6381V35.0476C44.7714 35.0619 44.7333 35.0762 44.7048 35.1048C44.5524 35.1572 44.4191 35.2429 44.281 35.3238C44.1429 35.4048 44.0095 35.4857 43.8857 35.5857L43.7762 35.6524V35.1857ZM44.8 35.9095V36.6619C44.7191 36.5524 44.6238 36.4429 44.5286 36.3333L44.3762 36.1667L44.5667 36.0429C44.6476 36 44.7191 35.9619 44.8 35.9048V35.9095ZM44.8 38.1381V39.4667C44.6762 38.6476 44.3333 37.8667 43.7762 37.2238V36.6762L43.9143 36.8143C44.0381 36.9381 44.1333 37.0619 44.2429 37.1952C44.4619 37.481 44.6524 37.7952 44.8048 38.1381H44.8ZM44.8 40.8048V42.1191C44.7857 42.1476 44.7714 42.1762 44.7571 42.2C44.5381 42.6667 44.2524 43.0762 43.9095 43.4333L43.7714 43.5857V43.0238C44.0333 42.7381 44.2524 42.3952 44.4143 42.0381C44.4571 41.9714 44.4952 41.8857 44.5238 41.7905C44.6619 41.4762 44.7429 41.1476 44.7952 40.8048H44.8ZM44.8 43.5952V44.3333C44.7191 44.2905 44.6476 44.2381 44.5667 44.1952L44.3762 44.0714L44.5286 43.9048C44.6238 43.7952 44.7191 43.7 44.8 43.5905V43.5952ZM43.7762 45.0572C43.681 45.1238 43.5714 45.1952 43.4619 45.2476C43.3238 45.3429 43.1762 45.4095 43.0238 45.4952C42.9286 45.5381 42.8476 45.5762 42.7524 45.6048V45.1952C42.7952 45.181 42.8191 45.1667 42.8619 45.1524C43 45.0857 43.1333 45 43.2714 44.9191C43.4095 44.8524 43.5429 44.7571 43.6667 44.6714L43.7762 44.5905V45.0572ZM42.7524 34.6333C43.1095 34.7857 43.4524 34.9619 43.7762 35.181V35.6476L43.6667 35.581C43.381 35.3762 43.0667 35.2 42.7524 35.0476V34.6381V34.6333ZM43.7762 36.6714V37.2191C43.2286 37.8619 42.8714 38.6286 42.7524 39.4476V38.1191C42.9714 37.6381 43.2714 37.2048 43.6429 36.8048L43.781 36.6667L43.7762 36.6714ZM43.7762 43.0191V43.5667L43.6381 43.4429V43.4286C43.5286 43.3048 43.4191 43.181 43.3095 43.0571C43.2143 42.9191 43.1191 42.7857 43.0238 42.6333C42.9286 42.4714 42.8333 42.3048 42.7524 42.1286V40.8143C42.8476 41.3905 43.0381 41.9381 43.3524 42.4429C43.4333 42.5667 43.5143 42.7048 43.6143 42.8238C43.6667 42.8905 43.7238 42.9476 43.7762 43.0143V43.0191ZM42.7524 44.3333V43.5952C42.8333 43.7048 42.9286 43.8 43.0238 43.9095L43.1762 44.0762L42.9857 44.2C42.9191 44.2429 42.8333 44.2952 42.7524 44.3381V44.3333ZM42.7524 36.6429V35.9191C42.8333 35.9619 42.9048 36 42.9857 36.0429L43.1762 36.1667L43.0238 36.3333C42.9286 36.4429 42.8333 36.5381 42.7524 36.6476V36.6429ZM42.7524 45.6048C42.6571 45.6571 42.5619 45.6857 42.4667 45.7286V45.3191C42.5619 45.2905 42.6571 45.2524 42.7524 45.1952V45.6048ZM42.4667 34.5095C42.5619 34.5524 42.6571 34.5905 42.7524 34.6333V35.0429C42.6571 35 42.5619 34.9619 42.4667 34.9191V34.5095ZM42.7524 35.9191V36.6429C42.6571 36.781 42.5476 36.9143 42.4667 37.0524V36.4095C42.5095 36.3524 42.5476 36.3 42.5905 36.2476C42.5619 36.2333 42.5238 36.2191 42.4952 36.1905L42.4667 36.1762V35.7667C42.5333 35.7952 42.6048 35.8238 42.6714 35.8619C42.7 35.8762 42.7238 35.8905 42.7524 35.9191ZM42.7524 38.1238V39.4524C42.6857 39.9048 42.6857 40.3667 42.7524 40.8191V42.1333C42.6286 41.8619 42.5333 41.5714 42.4667 41.2714V38.9857C42.5333 38.7 42.6286 38.4095 42.7524 38.1238ZM42.7524 43.5952V44.3333C42.6571 44.3905 42.5619 44.4286 42.4667 44.4857V44.0619C42.5095 44.0333 42.5476 44.0191 42.5905 43.9952C42.5476 43.9381 42.5095 43.8857 42.4667 43.8286V43.1857C42.5191 43.281 42.5905 43.3762 42.6571 43.4714C42.6857 43.5143 42.7238 43.5524 42.7524 43.5952ZM42.4667 45.7286C41.4667 46.0857 40.4143 46.1667 39.4 45.9905V45.6095C40.4143 45.8 41.481 45.7048 42.4667 45.3238V45.7333V45.7286ZM39.4 34.2524C40.4238 34.0762 41.481 34.1714 42.4667 34.5143V34.9238C41.481 34.5429 40.4286 34.4571 39.4 34.6381V34.2572V34.2524ZM42.4667 35.7714V36.181C42.3714 36.1381 42.2762 36.1 42.181 36.0572C41.2905 35.6762 40.3191 35.6048 39.4048 35.8238V35.4286C40.4191 35.2095 41.5 35.3191 42.4714 35.7714H42.4667ZM42.4667 36.4143V37.0571C41.3191 38.8095 41.2238 41.1333 42.3429 42.9952C42.3857 43.0619 42.4238 43.1333 42.4667 43.1857V43.8286C42.4238 43.7857 42.3857 43.7476 42.3571 43.6905C42.2333 43.5238 42.1238 43.3619 42.0143 43.2C40.7286 41.0524 40.9476 38.3143 42.4667 36.4143ZM42.4667 38.9857C42.2905 39.7381 42.2762 40.5191 42.4667 41.2714V38.9857ZM42.4667 44.0619V44.4857C42.3048 44.5524 42.1524 44.6238 41.9857 44.6762C41.9286 44.6905 41.8619 44.7191 41.781 44.7286C41 44.9619 40.181 44.9905 39.4 44.8095V44.4286C40.2095 44.6191 41.0714 44.581 41.8619 44.3048C42.0667 44.2381 42.2714 44.1524 42.4619 44.0571L42.4667 44.0619ZM39.4 45.9905C38.2238 45.7857 37.1 45.2238 36.2238 44.3333C33.9 42.0095 33.9 38.2333 36.2238 35.9048C37.1143 35.0143 38.2333 34.4524 39.4 34.2476V34.6286C38.3333 34.8333 37.3048 35.3524 36.4857 36.1762C34.3095 38.3524 34.3095 41.881 36.4857 44.0714C37.3048 44.881 38.3333 45.4 39.4 45.6048V45.9857V45.9905ZM39.4 35.4286C38.5238 35.6191 37.7048 36.0571 37.0333 36.7286C35.1571 38.6048 35.1571 41.6524 37.0333 43.5286C37.7048 44.1857 38.5238 44.6238 39.4 44.8143V44.4333C38.6333 44.2429 37.8952 43.8429 37.3048 43.2571C35.581 41.5333 35.581 38.7286 37.3048 36.9905C37.8952 36.4 38.6333 36.0048 39.4 35.8286V35.4333V35.4286Z" fill="#937D43"/>
<path fill-rule="evenodd" clip-rule="evenodd" d="M48.2095 34.4619C50.8619 34.9667 52.8762 37.3095 52.8762 40.1238C52.8762 42.9381 50.8666 45.281 48.2095 45.8V44.6095C50.219 44.1286 51.7238 42.2952 51.7238 40.1238C51.7238 37.9524 50.219 36.1286 48.2095 35.6381V34.4619ZM47.1285 34.3524C47.5 34.3524 47.8523 34.3952 48.2095 34.4619V35.6381C47.8523 35.5571 47.5 35.5143 47.1285 35.5143C46.2952 35.5143 45.5285 35.7191 44.8571 36.1048V34.8191C45.5571 34.5191 46.319 34.3524 47.1285 34.3524ZM48.2095 45.8048C47.8523 45.8572 47.5 45.9 47.1285 45.9C46.319 45.9 45.5571 45.7333 44.8571 45.4333V44.1476C45.5285 44.5286 46.2952 44.7476 47.1285 44.7476C47.5 44.7476 47.8523 44.6952 48.2095 44.6095V45.8V45.8048ZM44.8571 43.8333V41.4381C44.9809 41.0286 45.0476 40.5762 45.0476 40.1238C45.0476 39.6714 44.9809 39.2333 44.8571 38.8095V36.4286C45.7047 37.4286 46.2 38.7143 46.2 40.1238C46.2 41.5333 45.7095 42.8191 44.8571 43.8333ZM44.8571 45.4333C44.4761 45.2714 44.119 45.0619 43.7761 44.8333V43.3143C44.2666 42.7952 44.6523 42.1524 44.8571 41.4381V43.8333C44.8047 43.9 44.7333 43.9714 44.6809 44.0381C44.7333 44.081 44.8047 44.1191 44.8571 44.1476V45.4333ZM43.7761 35.4191C44.119 35.1857 44.4761 34.981 44.8571 34.8191V36.1048C44.8047 36.1476 44.7333 36.1714 44.6809 36.2143C44.7333 36.281 44.8047 36.3524 44.8571 36.4333V38.8143C44.6523 38.1143 44.2666 37.4714 43.7761 36.9524V35.4191ZM43.7761 44.8333C43.4333 45.0667 43.0762 45.2714 42.6952 45.4333V44.1476C42.7619 44.1191 42.819 44.081 42.8857 44.0381C42.819 43.9714 42.7476 43.9 42.6952 43.8333V41.4381C42.9 42.1476 43.2857 42.7905 43.7761 43.3143V44.8333ZM42.6952 34.8191C43.0762 34.981 43.4333 35.1905 43.7761 35.4191V36.9524C43.2857 37.4714 42.9 38.1143 42.6952 38.8143V36.4333C42.7476 36.3524 42.819 36.281 42.8857 36.2143C42.819 36.1714 42.7619 36.1476 42.6952 36.1048V34.8191ZM42.6952 45.4333C41.9952 45.7333 41.2333 45.9 40.4381 45.9C40.0666 45.9 39.7 45.8572 39.3428 45.8048V44.6143C39.7 44.6952 40.0523 44.7524 40.4381 44.7524C41.2571 44.7524 42.0238 44.5333 42.6952 44.1524V45.4381V45.4333ZM39.3428 34.4619C39.7 34.3952 40.0666 34.3524 40.4381 34.3524C41.2333 34.3524 42 34.5191 42.6952 34.8191V36.1048C42.0238 35.7238 41.2571 35.5143 40.4381 35.5143C40.0571 35.5143 39.7 35.5571 39.3428 35.6381V34.4619ZM42.6952 36.4333V38.8143C42.5714 39.2381 42.5047 39.6762 42.5047 40.1286C42.5047 40.581 42.5714 41.0191 42.6952 41.4429V43.8381C41.8619 42.8238 41.3523 41.5381 41.3523 40.1286C41.3523 38.7191 41.8571 37.4333 42.6952 36.4333ZM39.3428 45.8048C36.6762 45.2857 34.6619 42.9476 34.6619 40.1286C34.6619 37.3095 36.6714 34.9714 39.3428 34.4667V35.6429C37.319 36.1333 35.8142 37.9571 35.8142 40.1286C35.8142 42.3 37.319 44.1381 39.3428 44.6143V45.8048Z" fill="white"/>
<path d="M57.8238 59.8667L57.8381 59.881L61.3381 53.3667L61.5857 52.9286L61.6952 53.4095L64.419 64.8048L64.4714 65.0381H62.9952L62.9666 64.9L61.0381 57.8429L58 63.481L57.8238 63.781V62.9857L60.9285 57.2524L61.1619 56.8286L61.2857 57.2952L63.2952 64.6714H63.9952L61.4523 53.9857L58.0047 60.3762L57.8428 60.6905L57.8285 60.6762V59.8667H57.8238ZM51.2285 64.7762L53.9666 53.3952L54.0761 52.9048L54.3095 53.3429L57.8238 59.8667V60.6762L57.6714 60.3762L54.2095 53.9619L51.6523 64.6476H52.3619L54.3714 57.2762L54.4952 56.8095L54.7285 57.2333L57.819 62.9952V63.7905L57.6571 63.4905L54.619 57.8286L52.6904 64.8857L52.6476 65.0238H51.1714L51.2285 64.7905V64.7762Z" fill="#937D43"/>
<path fill-rule="evenodd" clip-rule="evenodd" d="M51.4238 64.8191L54.1429 53.4333L57.8381 60.2905L61.5191 53.4619L64.2429 64.8429H63.1476L61.1095 57.3333L57.8238 63.381L54.5572 57.3048L52.5191 64.8191H51.4238Z" fill="#344B9D"/>
<path d="M30.7095 11.3381L31.1143 12.0714L28.9 13.2952L29.2476 13.9286L31.2143 12.8429L31.6143 13.5714L29.6476 14.6572L30.1333 15.5333L29.2714 16.0095L27.6333 13.0429L30.7095 11.3429V11.3381Z" fill="white"/>
<path d="M36.3001 12.6238L35.762 12.1524L33.8286 12.9381L33.7715 13.6524L32.7905 14.0524L33.1334 10.2571L34.3905 9.74762L37.281 12.2286L36.3048 12.6238H36.3001ZM33.8953 12.1143L35.1334 11.6095L34.0143 10.6333L33.8953 12.1143Z" fill="white"/>
<path d="M41.3476 10.1762L40.7619 7.81906L41.7095 7.58572L42.5238 10.8762L41.1286 11.2238L38.6048 9.34763L39.1905 11.7048L38.2381 11.9429L37.4238 8.65239L38.8238 8.30477L41.3476 10.181V10.1762Z" fill="white"/>
<path d="M46.1189 6.96191L50.1998 6.79524L50.2332 7.62858L48.6856 7.69048L48.7903 10.2429L47.8094 10.281L47.7046 7.72858L46.1522 7.79048L46.1189 6.95715V6.96191Z" fill="white"/>
<path d="M51.3905 8.49525C51.4857 7.3762 52.3143 6.78096 53.7381 6.90477C55.1572 7.02858 55.8762 7.75715 55.781 8.87144C55.6857 9.99049 54.8524 10.5952 53.4334 10.4714C52.0096 10.3476 51.2953 9.61906 51.3905 8.49525ZM54.7572 8.78572C54.8096 8.20001 54.5048 7.80953 53.6667 7.73811C52.8334 7.66668 52.4667 7.99049 52.4191 8.58572C52.3667 9.18096 52.6762 9.57144 53.5048 9.64287C54.3381 9.7143 54.7096 9.38096 54.7619 8.79049L54.7572 8.78572Z" fill="white"/>
<path d="M61.6239 8.36667L59.6334 9.38095L60.881 11.6762L59.6763 11.4048L58.8096 9.80476L57.862 10.2857L57.7096 10.9571L56.7524 10.7381L57.5001 7.42857L58.462 7.64286L58.1286 9.12857L60.1953 8.0381L61.6334 8.36191L61.6239 8.36667Z" fill="white"/>
<path d="M66.3286 9.99524L66.0667 10.7191L63.6858 9.85715L63.5 10.3667L65.7905 11.1952L65.5286 11.9191L63.2381 11.0905L63.0524 11.6L65.4334 12.4571L65.1715 13.181L61.8667 11.9857L63.0191 8.79524L66.3238 9.99048L66.3286 9.99524Z" fill="white"/>
<path d="M69.7618 14.3524L70.8761 12.1905L71.7476 12.6381L70.1904 15.6524L68.9095 14.9905L68.2476 11.9095L67.1333 14.0714L66.2571 13.6191L67.8142 10.6048L69.0999 11.2667L69.7618 14.3476V14.3524Z" fill="white"/>
<path d="M27.3953 85.4762C27.2476 85.719 27.3953 86.0238 28.1572 86.4857C28.8572 86.9048 29.0953 86.9 29.2048 86.719C29.3334 86.5095 29.2238 86.3905 28.3953 85.8143C27.2667 85.0238 26.8905 84.4762 27.2762 83.8333C27.6429 83.2286 28.4619 83.3476 29.4667 83.9524C30.5857 84.6238 31.0238 85.3524 30.6619 86.0143L29.781 85.4857C29.9334 85.2286 29.7143 84.9619 29.0619 84.5714C28.4429 84.2 28.2429 84.219 28.1476 84.3762C28.0381 84.5571 28.1476 84.6952 28.8953 85.2333C29.9143 85.9571 30.5619 86.4476 30.1048 87.2095C29.6572 87.9524 28.8381 87.7571 27.8048 87.1333C26.6286 86.4238 26.0905 85.7381 26.5096 84.9476L27.3905 85.4809L27.3953 85.4762Z" fill="white"/>
<path d="M31.5238 87.1905C31.9714 86.1571 32.9428 85.8619 34.2571 86.4286C35.5667 86.9952 36.0143 87.9143 35.5714 88.9429C35.1238 89.9762 34.1428 90.281 32.8333 89.7143C31.519 89.1476 31.0762 88.2286 31.5238 87.1905ZM34.6286 88.5381C34.8619 87.9952 34.6952 87.5333 33.9238 87.1952C33.1571 86.8619 32.7047 87.0571 32.4714 87.6C32.2333 88.1476 32.4047 88.6143 33.1667 88.9476C33.9333 89.281 34.3952 89.081 34.6286 88.5333V88.5381Z" fill="white"/>
<path d="M39.2952 88.2143C40.4952 88.5524 41.0333 89.2571 40.8952 90.1238L39.8905 89.8429C39.9095 89.5238 39.6762 89.1857 39.0714 89.0191C38.3714 88.8238 37.9381 89.0714 37.7762 89.6429C37.6143 90.2191 37.8619 90.6619 38.5571 90.8571C39.1619 91.0238 39.5381 90.8571 39.6857 90.5667L40.6905 90.8476C40.3571 91.6667 39.5333 91.9952 38.3286 91.6619C37.019 91.2952 36.4714 90.4857 36.7809 89.3667C37.0952 88.2524 37.9809 87.8476 39.2905 88.2143H39.2952Z" fill="white"/>
<path d="M43.3953 89.2286L42.7953 92.5619L41.8286 92.3857L42.4286 89.0524L43.3953 89.2286Z" fill="white"/>
<path d="M44.4191 91.1476C44.5096 90.0286 45.3334 89.4333 46.7572 89.5476C48.1763 89.6619 48.9001 90.3905 48.8049 91.5048C48.7144 92.6238 47.8858 93.2286 46.462 93.1143C45.0382 93 44.3191 92.2714 44.4144 91.1476H44.4191ZM47.7858 91.4238C47.8334 90.8381 47.5287 90.4524 46.6906 90.381C45.8572 90.3143 45.4953 90.6429 45.443 91.2333C45.3953 91.8286 45.7049 92.2143 46.5334 92.2857C47.3668 92.3524 47.7382 92.019 47.7858 91.4238Z" fill="white"/>
<path d="M51.119 92.0476C51.1333 92.3333 51.4238 92.5048 52.3143 92.4571C53.1286 92.4143 53.3238 92.2762 53.3095 92.0619C53.2952 91.8143 53.1428 91.781 52.1333 91.7667C50.7571 91.7429 50.1333 91.5 50.0952 90.7476C50.0571 90.0429 50.8047 89.681 51.9762 89.6238C53.2809 89.5571 54.0524 89.9095 54.119 90.6619L53.0952 90.7143C53.0809 90.4143 52.7476 90.3191 51.9857 90.3571C51.2666 90.3952 51.1095 90.5238 51.119 90.7048C51.1285 90.9143 51.2952 90.9714 52.219 91C53.4666 91.0286 54.2809 91.0714 54.3285 91.9619C54.3714 92.8286 53.5857 93.1238 52.3809 93.1857C51.0095 93.2571 50.1762 92.9857 50.0857 92.0952L51.1143 92.0429L51.119 92.0476Z" fill="white"/>
<path d="M55.7428 92.0429L56.6809 91.9048L56.7857 92.6333L55.8476 92.7714L55.738 92.0429H55.7428Z" fill="white"/>
<path d="M59.4811 88.5381C60.6953 88.2429 61.5096 88.5952 61.8144 89.419L60.8001 89.6667C60.662 89.3762 60.2906 89.2 59.6811 89.3476C58.9763 89.5191 58.7192 89.9476 58.8572 90.5286C59.0001 91.1095 59.4334 91.3762 60.1334 91.2048C60.743 91.0571 60.9906 90.7238 60.9763 90.3952L61.9906 90.1476C62.1001 91.0238 61.543 91.719 60.3287 92.0143C59.0049 92.3381 58.1287 91.9 57.8525 90.7714C57.5763 89.6476 58.1525 88.8619 59.4763 88.5381H59.4811Z" fill="white"/>
<path d="M63.1524 89.3952C62.7382 88.3476 63.2191 87.4524 64.5477 86.9238C65.8715 86.4 66.8429 86.7333 67.2524 87.7762C67.6667 88.8238 67.1858 89.7333 65.862 90.2571C64.5334 90.7809 63.5667 90.4476 63.1524 89.3952ZM66.3001 88.1524C66.0858 87.6048 65.6382 87.3905 64.8572 87.7C64.081 88.0048 63.8953 88.4619 64.1143 89.0143C64.3334 89.5714 64.7858 89.7809 65.5572 89.4762C66.3334 89.1714 66.5191 88.7048 66.3001 88.1524Z" fill="white"/>
<path d="M69.3334 88.6952L67.6287 85.7619L68.9525 84.9905L71.1049 86.3429L70.9906 83.8048L72.3144 83.0333L74.0191 85.9667L73.1715 86.4571L71.9382 84.3333L72.0715 87.1L71.2858 87.5571L68.9477 86.0762L70.1858 88.2L69.3334 88.6952Z" fill="white"/>
<path d="M23.019 81.8381C13.9952 74.181 8.2666 62.7571 8.2666 50C8.2666 37.2429 14.2999 25.2143 23.738 17.5619" stroke="white" stroke-miterlimit="10"/>
<path d="M76.2666 17.5667C85.7047 25.219 91.7333 36.9048 91.7333 50C91.7333 63.0952 86.0047 74.1857 76.9809 81.8429" stroke="white" stroke-miterlimit="10"/>
</g>
<defs>
<clipPath id="clip0_1124_13735">
<rect width="100" height="100" fill="white"/>
</clipPath>
</defs>
</svg>
