<svg xmlns="http://www.w3.org/2000/svg" id="Layer_2" viewBox="0 0 210 210"><g id="Layer_1-2"><g><g><circle cx="105" cy="105" r="105"></circle><path d="M105,5.32c54.96,0,99.68,44.72,99.68,99.68s-44.72,99.68-99.68,99.68S5.32,159.96,5.32,105,50.04,5.32,105,5.32m0-5.32C47.01,0,0,47.01,0,105s47.01,105,105,105,105-47.01,105-105S162.99,0,105,0h0Z" fill="#fff"></path></g><g><g><g><path d="M156.23,94.63v-25.68l-1.57,.45c-.14,.04-14.2,4-20.13-2.19-6.79-7.09-1.28-20.58-1.23-20.72l.48-1.15-1.16-.47c-.21-.08-5.16-2.07-12.59-3.33-7.4-1.26-14.51-1.28-15.01-1.28h-.02c-.31,0-7.52,0-15.03,1.28-7.43,1.26-12.38,3.24-12.59,3.33l-1.16,.47,.48,1.15c.06,.14,5.58,13.61-1.23,20.72-5.92,6.18-19.99,2.23-20.13,2.19l-1.57-.45v25.66c-.02,1.07-.24,26.35,13.03,44.94,17.38,24.34,37.05,29.87,37.88,30.1l.32,.09,.32-.09c.83-.22,20.5-5.76,37.88-30.1,13.27-18.58,13.04-43.87,13.03-44.92"></path><path d="M153.76,72.17c-4.14,.93-15.31,2.72-21.02-3.25-3.31-3.45-4.64-8.62-3.86-14.94,.39-3.11,1.18-5.77,1.69-7.23-1.84-.64-5.81-1.9-10.95-2.77-7.31-1.24-14.58-1.25-14.61-1.24h0c-.15,0-7.35,.01-14.61,1.24-5.15,.87-9.11,2.13-10.95,2.77,.51,1.46,1.31,4.11,1.69,7.23,.78,6.32-.55,11.49-3.86,14.94-5.72,5.97-16.88,4.18-21.02,3.25v22.46c0,.27-.22,25.57,12.57,43.49,8.83,12.36,18.32,19.64,24.73,23.57,5.89,3.61,10.27,5.11,11.46,5.48,1.2-.38,5.64-1.9,11.56-5.54,6.38-3.93,15.84-11.2,24.64-23.52,12.8-17.93,12.57-43.21,12.57-43.47v-22.48Zm-94.32,22.53v-18.69c5.84,.79,14.71,.8,20.13-4.87,6.43-6.72,5.27-16.57,3.82-22.28,1.94-.56,4.52-1.2,7.53-1.71,7-1.19,13.98-1.2,14.08-1.2h0c.07,0,7.06,0,14.07,1.2,3,.51,5.58,1.15,7.53,1.71-.89,3.5-1.66,8.54-.66,13.47l-61.19,61.19c-5.41-14.33-5.31-28.64-5.31-28.82m79.14,41.56c-13.76,19.27-29.29,25.97-33.6,27.53-3.42-1.22-13.87-5.65-24.97-17.16l70.54-70.54v18.61c0,.24,.18,24.54-11.97,41.56" fill="#fff"></path><path d="M125.27,102.96v-.16s-.02,.01-.02,.02l.02,.14Z" fill="#fff"></path><path d="M83.76,119.21s.03-.01,.06-.03c-.01,0-.03,0-.04,.01-.01,.01-.02,.02-.02,.02" fill="#fff"></path><polyline points="124.14 87.58 124.14 87.57 124.14 87.57 124.14 87.58" fill="#0a0404"></polyline></g><g><path d="M100.03,152.58c-1.29-1-2.01-2.3-2.01-3.66,0-.72,.2-1.43,.58-2.08l-1.02-2.42c-1.19,1.29-1.84,2.85-1.84,4.5,0,2.08,1.03,4.02,2.89,5.46,1.12,.86,2.47,1.48,3.93,1.82l-1.19-2.81c-.49-.23-.94-.5-1.35-.82Z" fill="#fff"></path><path d="M110.94,139.75l-.57,1.34c.75,.2,1.48,.45,2.16,.75l.94-2.22c.36-.74,.86-1.28,1.28-1.42h-4.11c.42,.35,.56,.96,.33,1.5,0,.01-.01,.03-.02,.05Z" fill="#fff"></path><path d="M108.41,151.56h-2.47l-.94,2.21-5.94-14.04s0-.02-.01-.03h0c-.23-.55-.08-1.16,.33-1.51h-4.11c.42,.14,.92,.68,1.28,1.42l8.46,20,3.41-8.06Z" fill="#fff"></path><path d="M112.17,142.67c-.68-.29-1.4-.54-2.16-.74-.3-.08-.6-.15-.9-.21-1.23-.25-2.53-.39-3.86-.39h-.11c-1.44,.01-2.83,.28-4.09,.77l.89,2.1c1.01-.39,2.14-.59,3.31-.59h.06c.99,0,1.96,.09,2.89,.25,.31,.05,.61,.12,.91,.19,.77,.18,1.5,.42,2.17,.71,.12,.05,.38,.17,.38,.17,.15,.08,.29,.18,.42,.31,.27,.27,.43,.61,.47,.96,0,0,0,0,0,0,0,.03,0,.05,0,.05l.39-.57s0,0,0,0l1.3-1.87c-.39-.27-.81-.52-1.25-.75-.27-.14-.54-.27-.83-.39Z" fill="#fff"></path><path d="M109.9,145.22c-.37-.12-.75-.22-1.15-.31l-1.08,2.55h2.47l.78-1.85c-.33-.14-.67-.27-1.03-.39Z" fill="#fff"></path><path d="M104.81,150.65h7.08v2.15c-1.02,.52-2.21,.91-3.5,1.15l-1.04,2.45c2.6-.28,5-1.08,6.79-2.29,0,0,.02-.02,.02-.02v-5.72h-10.33l.97,2.28Z" fill="#fff"></path></g><g><path d="M81.87,96c-.75,.52-1.61,.96-2.55,1.33-.36-.61-.79-1.32-1.19-1.99,.37-.13,1.12-.46,1.18-.49,0,0,.01,0,.02-.01,.14-.08,.26-.17,.37-.28,.27-.27,.42-.61,.47-.95,0-.03,0-.05,0-.05l1.69,2.44Z" fill="#fff"></path><path d="M72.9,96.19h-.03c-.62,0-1.23-.06-1.82-.17-.31-.06-.62-.13-.91-.22-.84-.25-1.61-.62-2.28-1.1-.07-.05-.14-.1-.21-.16-.26-.2-.49-.41-.7-.63-.85-.89-1.31-1.94-1.31-3.03s.46-2.14,1.31-3.03v-2.92c-.24,.15-.47,.31-.69,.48-1.87,1.44-2.89,3.38-2.89,5.46s1.03,4.02,2.89,5.46c.22,.17,.45,.33,.69,.48,.29,.19,.6,.36,.91,.51,.71,.35,1.48,.63,2.28,.81,.3,.07,.6,.13,.91,.18,.58,.09,1.18,.14,1.78,.14h.03c.77,0,1.53-.04,2.27-.13l-1.3-2.17c-.31,.02-.63,.03-.94,.03Z" fill="#fff"></path><path d="M67.86,98.35s0,.94,0,.96c0,.99-.51,1.85-1.25,2.25h4.73c-.71-.41-1.2-1.25-1.2-2.22,0-.02,0-.04,0-.06h0v-.18c-.79-.17-1.56-.42-2.28-.74Z" fill="#fff"></path><path d="M79.48,99.38s-3.26-5.46-3.41-5.71c-.18-.33-.69-1.16-1.42-1.66,1.8-.75,3.17-2.48,3.53-4.59-.68-.27-1.43-.48-2.21-.63-.22,1.88-1.63,3.34-3.33,3.34h-2.49v-7.7h1.72c.29-.02,.58-.04,.87-.04,.01,0,.02,0,.03,0h.11c1.54,0,3.05,.17,4.47,.5-1.01-1.65-2.74-2.74-4.7-2.74h-6.03c.74,.39,1.26,1.25,1.26,2.25,0,0,0,.02,0,.02h0v11.11c.11,.1,.22,.19,.34,.29,.56,.43,1.22,.78,1.94,1.02v-2.43h1.11s.65,0,1.11,.22c.56,.27,.94,.85,1.01,.96l4.75,7.96h3.86c-.93-.32-1.85-1.08-2.5-2.17Z" fill="#fff"></path><path d="M81.87,85.77l-1.69,2.44c-.03-.36-.19-.71-.47-.99-.12-.12-.26-.22-.41-.3-.01,0-.1-.05-.14-.07-.29-.14-.58-.26-.89-.37-.72-.26-1.49-.47-2.3-.62-.31-.06-.62-.11-.94-.15-.69-.09-1.39-.13-2.11-.14h-.06c-.62,0-1.23,.06-1.82,.17v-2.31c.28-.04,.55-.08,.84-.1,.29-.02,.58-.04,.87-.04h0s.11,0,.11,0c.67,0,1.34,.04,2,.1,1.04,.11,2.04,.3,2.99,.56,.36,.1,.72,.21,1.07,.34,1.09,.39,2.09,.89,2.94,1.48Z" fill="#fff"></path></g><g><path d="M120.23,121.64c.68-1.1,1.29-2.31,1.82-3.6,4.18-2.7,7.94-7.48,9.85-13.57,2.08-6.63,1.41-13.75-.28-18.61h-5.6c.67-1.15,1.2-2.33,1.56-3.52,.11-.35,.2-.7,.29-1.05,.82-3.51,.47-6.91-1.64-9.54-1.98-2.46-5.11-3.71-8.33-4.08,.2-1.34-.11-2.47-.63-3.65-.64-1.47-1.81-2.63-3.38-3.45-.06-.03-.13-.07-.19-.1-1.66-.83-3.74-1.3-6.08-1.4v-7.67s0-.01,0-.03c-.04-.83-.73-1.5-1.57-1.5s-1.53,.66-1.57,1.5c0,.03,0,.16,0,.21,0,0,0,0,0,0-.92,.15-1.85,.39-2.78,.75-1.26,.47-2.4,1.1-3.38,1.82v1.22c-.4,.22-.78,.46-1.15,.72-.79,.53-3.93,2.76-5.17,5.95,.56-.28,1.42-.78,3.48-1.5,2.78-.97,5.68-1.38,6.91-1.13-2.6,.42-5.36,1.22-8.11,2.42,0,0-2.39,1.14-2.52,1.21,.13,.08,.25,.16,.36,.26,.16,.12,.31,.25,.46,.39,1.3,1.26,1.83,3.05,1.65,4.95-.12,1.3-.58,2.64-1.35,3.89-.27,.44-.58,.86-.92,1.27h-4.2c.69,.59,1.28,1.3,1.77,2.11,.03,.04,.05,.09,.08,.13,.49,.85,.87,1.81,1.1,2.84,.22,.99,.3,2.03,.24,3.11h-9.28c.29,.32,.57,.67,.83,1.08,.79,1.19,1.45,2.75,1.95,4.59,.26,.94,.47,1.94,.64,3.01,.45,2.81,.59,6.02,.33,9.42-.53,7.11-2.64,13.21-5.32,16.33,2.51-1.45,5.35-2.86,8.45-4.14-1.38,2.9-3.02,5.3-4.71,6.95,2.34-1.22,4.91-2.4,7.64-3.47,.27,4.6,2.34,8.53,5.28,10.54-.29-.07-.58-.14-.85-.22-.3-.09-.58-.19-.85-.31-.22-.09-.44-.19-.64-.3-.85,1.55-2.49,2.6-4.38,2.6-.74,0-1.44-.16-2.07-.45-.36-.17-.71-.38-1.02-.62-.25,.32-.53,.62-.85,.89-.04,.03-.07,.06-.11,.09-.23,.19-.48,.36-.73,.52-.32,.19-.65,.35-.98,.48-1.12,.43-2.33,.51-3.47,.26,.82,.54,1.77,.85,2.79,.85,.44,0,.88-.06,1.29-.17,.19-.05,.38-.11,.56-.19,.51-.2,.99-.49,1.41-.85,.98,.83,2.23,1.33,3.6,1.33,1.69,0,3.21-.76,4.26-1.98-.81,2.28-2.91,3.9-5.38,3.9-1.26,0-2.43-.43-3.38-1.15,1.19,2.19,3.81,3.71,6.83,3.71,1.64,0,3.15-.44,4.38-1.2,1.08,.86,2.55,1.39,4.17,1.39,1.87,0,3.55-.71,4.65-1.81,1.02,.89,2.32,1.42,3.73,1.42,1.93,0,3.65-.99,4.74-2.53,1.5,1.07,3.41,1.71,5.5,1.71,3.41,0,6.35-1.71,7.77-4.19-.76,.27-1.59,.41-2.46,.41-2.45,0-4.58-1.16-5.67-2.86-1.24,.68-2.6,.99-3.9,.94-.51-.02-1.01-.11-1.49-.24,2.17-1.13,4.3-3.26,6.03-6.07Z"></path><g><path d="M96.57,77.42c.55-.85,1.02-1.72,1.41-2.6h-8.21c1.46,1.94,2.36,4.54,2.36,7.42v.1c1.62-1.24,3.16-2.91,4.45-4.92Z" fill="#fff"></path><path d="M95.31,59.75c.35-.13,.69-.25,1.04-.36,2.3-.74,4.57-1.1,6.68-1.1-.93-.44-1.99-.71-3.12-.8,1.66-.57,3.34-.75,4.87-.58-.53-.31-.84-.9-.92-1.6-.07-.61,.04-1.3,.36-1.96,.1-.22,.23-.43,.36-.62-1.25,.17-2.53,.56-3.78,1.18-.5,.25-.98,.53-1.42,.83v1.4s-.1,.04-.15,.06c-.6,.24-1.19,.53-1.77,.87-.4,.23-.78,.48-1.13,.75-.03,.02-.05,.03-.07,.05-1.02,.76-1.89,1.63-2.58,2.56,.24-.11,.49-.22,.74-.32,.3-.13,.6-.25,.9-.36Z" fill="#fff"></path><path d="M106.58,51.47c0-.29-.24-.53-.53-.53s-.53,.23-.53,.53v7.55c.36,.05,.71,.11,1.05,.18v-7.74Z" fill="#fff"></path><path d="M131.98,94.24c-.11-2.42-.49-4.74-1.11-6.94-.03-.1-.06-.2-.09-.29h-6.71c1.72-2.66,2.79-5.32,3.07-7.76,.24-2.08-.08-4.01-1.04-5.68-1.67-2.89-5-4.51-9.26-4.9,.27-1.36,.18-2.68-.33-3.89-2.21-5.28-11.53-6.41-20.81-2.52-.82,.34-1.61,.71-2.36,1.11,.38,.33,.72,.7,1.01,1.12,.87,1.26,1.19,2.77,1.03,4.33-.03,.3-.08,.6-.15,.9-.24,1.12-.72,2.24-1.42,3.3,.88-.73,1.84-1.44,2.87-2.11,.24-.16,.48-.31,.72-.46,.51-.31,1.03-.62,1.56-.91,7.28-3.97,14.31-4.38,15.91-.97-2.17,0-4.52,.26-6.98,.82-2.64,.59-5.39,1.51-8.18,2.74-.22,.13-.44,.27-.66,.42,1.16,1.85,1.84,4.03,1.84,6.37,0,1.28-.2,2.51-.57,3.67-.25,.77-.57,1.5-.96,2.19-.47,.83-1.68,2.3-1.68,2.3,0,0,.38-2.13,.44-4h-14.24c.32,.59,.67,1.29,.94,1.94,.73,1.73,1.3,3.68,1.66,5.78,.55,3.2,.64,6.74,.17,10.43-.2,1.57-.49,3.09-.86,4.55-.78,3.04-1.9,5.81-3.28,8.16,2.03-1.21,4.31-2.38,6.8-3.47,.03-.06,.05-.13,.08-.19,0-.02,.01-.03,.02-.05,0,0,0-.01,0-.02,.33-.92,1.37-4.43,1.37-11.5,0-8.14-1.54-11.65-1.64-11.86t0,0h0s0-.01,0-.02c1.16,.94,2.12,2.21,2.86,3.71,.18,.37,.35,.76,.5,1.15,1.44,3.74,1.65,8.65,.33,13.72-.04,.18-.09,.35-.14,.53-.06,.23-.13,.46-.2,.69-.26,.84-.55,1.66-.88,2.45-.07,.18-.14,.35-.22,.52h0c-1.22,2.82-2.84,5.25-4.66,7.14,2.4-1.2,5.05-2.33,7.87-3.34,.24-.09,.49-.17,.73-.26,7.65-2.63,14.91-3.76,20.1-3.4v-.82l10.17-7.67h1.42v1.72l-7.03,7.21-.07,.4c2.28,.51,3.93,1.79,4.16,3.47,.06,.46,.02,.91-.13,1.35,5.19-4.95,8.37-12.66,7.99-21.19Zm-32.49-7.23c.71-.37,1.45-.73,2.2-1.06,9.64-4.3,18.96-4.08,20.83,.51,.07,.18,.13,.37,.18,.56h-23.21Z" fill="#fff"></path></g><g><path d="M110.13,132.12c-1.17,0-2.28-.26-3.25-.74,.79,1.16,1.9,1.89,3.15,1.93,1.16,.03,2.24-.53,3.08-1.51,.13-.15,.25-.3,.36-.47-.25,.12-.5,.23-.76,.33-.8,.29-1.67,.46-2.58,.46Z" fill="#fff"></path><path d="M120.11,132.19c-.91-.09-1.74-.42-2.46-.92-.44,.22-.89,.39-1.34,.51,.78,.6,1.71,.98,2.72,1.08,1.46,.14,2.86-.33,3.97-1.23-.88,.45-1.87,.66-2.89,.56Z" fill="#fff"></path><path d="M117.62,129.43c.37,.43,.82,.79,1.33,1.05,1.28,.68,2.91,.79,4.47,.27-1.32,.02-2.56-.34-3.52-1.04-.44-.32-.82-.71-1.13-1.16,.27-.25,.54-.51,.79-.8-.32,.19-.64,.36-.97,.52-.47,.21-.96,.38-1.45,.5-.33,.08-.66,.14-.99,.18-.14,.02-.28,.03-.43,.04-.4,.03-.79,.02-1.18-.02-.1,0-.2-.02-.29-.03-1.29-.19-2.48-.74-3.41-1.68-.39-.39-.71-.82-.96-1.28-.12-.21-.22-.43-.31-.65-.04-.1-.08-.21-.12-.32-.19,.27-.41,.53-.65,.78-.66,.69-1.47,1.29-2.4,1.77-.24,.13-.49,.24-.75,.35-.28,.11-.56,.22-.86,.31-.32,.1-.65,.19-.99,.26-.3,.07-.6,.12-.92,.16-1.43,.18-2.81,.08-4.05-.25-.19-.05-.38-.1-.56-.17,.18,.19,.37,.37,.57,.53,1.41,1.18,3.21,1.78,5.09,1.54,.36-.05,.71-.12,1.05-.23,.05-.01,.09-.03,.13-.04,.31-.1,.61-.22,.9-.37,.06-.03,.11-.05,.16-.09,1.13-.61,2.07-1.55,2.72-2.7,.21,1.1,.72,2.08,1.54,2.78,.03,.03,.07,.06,.1,.08,.92,.74,2.07,1.07,3.29,1.01,.23,0,.46-.03,.7-.07,.19-.03,.38-.07,.57-.12,.44-.11,.87-.26,1.31-.46,.4-.18,.81-.4,1.2-.66Z" fill="#fff"></path><path d="M98.04,131.34c-.35-.19-.66-.41-.93-.66-.12,.2-.25,.39-.4,.58-.8,.98-2,1.61-3.35,1.61-.16,0-.32,0-.47-.03,.51,.22,1.07,.33,1.65,.33,1.06,0,2.02-.39,2.77-1.03,.81,.88,2.04,1.45,3.43,1.45,1.9,0,3.52-1.06,4.14-2.55-.95,.67-2.24,1.08-3.66,1.08-1.19,0-2.29-.29-3.18-.78Z" fill="#fff"></path></g><g><path d="M97.63,118.33c.5,.11,1.03-.06,1.53-.43-.03,0-.07,0-.1-.02-.94-.2-1.52-1.36-1.55-2.85l-1.51,.55c.09,1.45,.69,2.55,1.63,2.75Z" fill="#f49d19"></path><path d="M113.34,127.4c2.13-3.82,4.1-9.33,5.36-15.58,.1-.49,.19-.97,.28-1.45l-1.63-.28,8.28-7v-.75l-9.14,7.15h0s0,0,0,0c0,.4-.02,.8-.03,1.2-.24,6.77-1.58,12.78-3.45,16.55,.11,.06,.23,.11,.34,.16Z" fill="#f49d19"></path><path d="M114.04,127.05c1.07-.71,2.14-1.68,3.16-2.88-.17-.22-.36-.45-.54-.67-.16-.18-.32-.36-.47-.54-.68,1.55-1.41,2.92-2.14,4.09Z" fill="#f49d19"></path><path d="M117.88,123.32c.31-.41,.62-.84,.92-1.3-.25-.41-.55-.89-.86-1.34-.18-.25-.36-.5-.54-.73-.24,.67-.49,1.32-.75,1.95,.26,.27,.55,.59,.83,.92,.14,.17,.28,.34,.42,.51Z" fill="#f49d19"></path><path d="M119.42,121.03c.25-.43,.5-.87,.73-1.32-.24-.51-.57-1.19-.94-1.83-.24-.43-.51-.85-.74-1.2-.21,.72-.44,1.42-.67,2.1,.29,.36,.66,.82,1,1.31,.22,.31,.43,.64,.62,.95Z" fill="#f49d19"></path><path d="M121.16,117.52c.04-.09,.07-.18,.11-.27-.42-1.61-1.06-3.04-1.83-4.23-.19,.8-.39,1.58-.59,2.34,.23,.32,.79,1.13,1.28,1.99,.22,.39,.43,.78,.61,1.15,.15-.32,.29-.65,.42-.98Z" fill="#f49d19"></path><path d="M101.99,126.5c.69-.09,1.35-.21,1.99-.37,.3-.08,.59-.16,.87-.25,2.23-.7,4.02-1.84,5.05-3.16,.16,1.15,.61,2.24,1.38,3.14,.1,.12,.2,.23,.32,.34,.11,.11,.22,.2,.33,.3,.09,.07,.17,.14,.26,.21,.63-1.35,1.2-2.95,1.68-4.75-1.19,.1-3.63,.42-7.04,1.49-2.58,.81-5.33,1.98-7.82,3.16,.15,0,.3,.01,.45,.02,.2,0,.39,.01,.59,0,.63,0,1.28-.05,1.94-.13Z" fill="#f49d19"></path><path d="M96.36,124.78c.46,.43,.94,.82,1.44,1.17,2.72-1.32,5.8-2.66,8.69-3.56,3.91-1.23,6.57-1.5,7.65-1.56,.2-.86,.39-1.77,.55-2.71-1.06,.05-3.62,.3-7.24,1.51-4.8,1.62-9.28,4.09-11.09,5.15Z" fill="#f49d19"></path><path d="M95.58,123.96c1.68-.99,6.42-3.66,11.52-5.37,4.03-1.35,6.76-1.56,7.77-1.58,.13-.88,.24-1.78,.33-2.7-1.1,.03-3.63,.25-7.12,1.52-4.91,1.79-7.38,3.52-7.4,3.54,0,0,1.96-2.73,7.02-4.58,3.78-1.38,6.46-1.58,7.6-1.6,.06-.75,.11-1.51,.14-2.29-4.08,.47-8.65,1.92-13.12,4.37-.19,.1-.46,.26-.67,.38h0c-.02,.09-.05,.18-.07,.26-.72,2.35-2.58,3.89-4.16,3.45-1.25-.35-1.95-1.85-1.83-3.63l-3.06,1.11h0c.13,1.53,.58,3.1,1.35,4.6,.48,.93,1.06,1.77,1.71,2.52Z" fill="#f49d19"></path></g><path d="M113.16,96.15c.42-2.73,2.03-5.06,4.28-6.45h-11.36c2.26,1.39,3.86,3.73,4.28,6.45-2.73-.42-5.06-2.02-6.45-4.28v11.36c1.39-2.26,3.73-3.86,6.45-4.28-.42,2.73-2.02,5.06-4.28,6.45h11.36c-2.26-1.39-3.86-3.73-4.28-6.45,2.73,.42,5.06,2.02,6.45,4.28v-11.36c-1.39,2.26-3.73,3.86-6.45,4.28" fill="#e5302a"></path></g></g><g><g><g><path d="M64.49,23.81l.85,1.54-4.65,2.57,.73,1.33,4.13-2.28,.84,1.53-4.13,2.28,1.02,1.84-1.81,1-3.44-6.23,6.46-3.57Z" fill="#fff"></path><path d="M76.23,26.51l-1.13-.99-4.06,1.65-.12,1.5-2.06,.84,.72-7.97,2.64-1.07,6.07,5.21-2.05,.83Zm-5.05-1.07l2.6-1.06-2.35-2.05-.25,3.11Z" fill="#fff"></path><path d="M86.83,21.37l-1.23-4.95,1.99-.49,1.71,6.91-2.93,.73-5.3-3.94,1.23,4.95-2,.5-1.71-6.91,2.94-.73,5.3,3.94Z" fill="#fff"></path><path d="M96.85,14.62l8.57-.35,.07,1.75-3.25,.13,.22,5.36-2.06,.08-.22-5.36-3.26,.13-.07-1.75Z" fill="#fff"></path><path d="M107.92,17.84c.2-2.35,1.94-3.6,4.93-3.34,2.98,.26,4.49,1.79,4.29,4.13-.2,2.35-1.95,3.62-4.93,3.36-2.99-.26-4.49-1.79-4.29-4.15Zm7.07,.61c.11-1.23-.53-2.05-2.29-2.2-1.75-.15-2.52,.53-2.62,1.78-.11,1.25,.54,2.07,2.28,2.22,1.75,.15,2.53-.55,2.64-1.79Z" fill="#fff"></path><path d="M129.41,17.57l-4.18,2.13,2.62,4.82-2.53-.57-1.82-3.36-1.99,1.01-.32,1.41-2.01-.46,1.57-6.95,2.02,.45-.7,3.12,4.34-2.29,3.02,.68Z" fill="#fff"></path><path d="M139.29,20.99l-.55,1.52-5-1.81-.39,1.07,4.81,1.74-.55,1.52-4.81-1.74-.39,1.07,5,1.81-.55,1.52-6.94-2.51,2.42-6.7,6.94,2.51Z" fill="#fff"></path><path d="M146.5,30.14l2.34-4.54,1.83,.94-3.27,6.33-2.69-1.39-1.39-6.47-2.34,4.54-1.84-.95,3.27-6.33,2.7,1.39,1.39,6.47Z" fill="#fff"></path></g><g><path d="M57.53,179.5c-.31,.51,0,1.15,1.6,2.12,1.47,.88,1.97,.87,2.2,.49,.27-.44,.04-.69-1.7-1.9-2.37-1.66-3.16-2.81-2.35-4.16,.77-1.27,2.49-1.02,4.6,.25,2.35,1.41,3.27,2.94,2.51,4.33l-1.85-1.11c.32-.54-.14-1.1-1.51-1.92-1.3-.78-1.72-.74-1.92-.41-.23,.38,0,.67,1.57,1.8,2.14,1.52,3.5,2.55,2.54,4.15-.94,1.56-2.66,1.15-4.83-.16-2.47-1.49-3.6-2.93-2.72-4.59l1.85,1.12Z" fill="#fff"></path><path d="M66.2,183.1c.94-2.17,2.98-2.79,5.74-1.6,2.75,1.19,3.69,3.12,2.76,5.28-.94,2.17-3,2.81-5.75,1.62-2.76-1.19-3.69-3.12-2.75-5.3Zm6.52,2.83c.49-1.14,.14-2.11-1.48-2.82-1.61-.7-2.56-.29-3.05,.85-.5,1.15-.14,2.13,1.46,2.83,1.61,.7,2.58,.28,3.07-.87Z" fill="#fff"></path><path d="M82.54,185.26c2.52,.71,3.65,2.19,3.36,4.01l-2.11-.59c.04-.67-.45-1.38-1.72-1.73-1.47-.41-2.38,.11-2.72,1.31-.34,1.21,.18,2.14,1.64,2.55,1.27,.35,2.06,0,2.37-.61l2.11,.59c-.7,1.72-2.43,2.41-4.96,1.71-2.75-.77-3.9-2.47-3.25-4.82,.66-2.34,2.52-3.19,5.27-2.42Z" fill="#fff"></path><path d="M91.13,187.38l-1.26,7-2.03-.37,1.26-7,2.03,.37Z" fill="#fff"></path><path d="M93.28,191.41c.19-2.35,1.92-3.6,4.91-3.36,2.98,.24,4.5,1.77,4.3,4.11-.19,2.35-1.93,3.62-4.92,3.38-2.99-.24-4.5-1.77-4.3-4.13Zm7.07,.58c.1-1.23-.54-2.04-2.3-2.19-1.75-.14-2.51,.55-2.62,1.79-.1,1.25,.55,2.06,2.29,2.21,1.75,.14,2.53-.56,2.63-1.81Z" fill="#fff"></path><path d="M107.35,193.3c.03,.6,.64,.96,2.51,.86,1.71-.09,2.12-.38,2.09-.83-.03-.52-.35-.59-2.47-.62-2.89-.05-4.2-.56-4.28-2.14-.08-1.48,1.49-2.24,3.95-2.36,2.74-.14,4.36,.6,4.5,2.18l-2.15,.11c-.03-.63-.73-.83-2.33-.75-1.51,.08-1.84,.35-1.82,.73,.02,.44,.37,.56,2.31,.62,2.62,.06,4.33,.15,4.43,2.02,.09,1.82-1.56,2.44-4.09,2.57-2.88,.15-4.63-.42-4.82-2.29l2.16-.11Z" fill="#fff"></path><path d="M117.06,193.29l1.97-.29,.22,1.53-1.97,.29-.23-1.53Z" fill="#fff"></path><path d="M124.91,185.93c2.55-.62,4.26,.12,4.9,1.85l-2.13,.52c-.29-.61-1.07-.98-2.35-.67-1.48,.36-2.02,1.26-1.73,2.48,.3,1.22,1.21,1.78,2.68,1.42,1.28-.31,1.8-1.01,1.77-1.7l2.13-.52c.23,1.84-.94,3.3-3.49,3.92-2.78,.68-4.62-.24-5.2-2.61-.58-2.36,.63-4.01,3.41-4.69Z" fill="#fff"></path><path d="M132.62,187.73c-.87-2.2,.14-4.09,2.93-5.19,2.78-1.1,4.82-.4,5.68,1.79,.87,2.2-.14,4.11-2.92,5.21-2.79,1.1-4.82,.4-5.69-1.81Zm6.61-2.61c-.45-1.15-1.39-1.6-3.03-.95-1.63,.64-2.02,1.6-1.56,2.76,.46,1.17,1.41,1.61,3.03,.97,1.63-.64,2.02-1.62,1.56-2.78Z" fill="#fff"></path><path d="M145.61,186.25l-3.58-6.16,2.78-1.62,4.52,2.84-.24-5.33,2.78-1.62,3.58,6.16-1.78,1.03-2.59-4.46,.28,5.81-1.65,.96-4.91-3.11,2.6,4.46-1.79,1.04Z" fill="#fff"></path></g></g><path d="M48.34,171.86c-18.95-16.08-30.98-40.07-30.98-66.86S30.03,52.95,49.85,36.88" fill="none" stroke="#fff" stroke-miterlimit="10" stroke-width="2.22"></path><path d="M160.16,36.89c19.82,16.07,32.48,40.61,32.48,68.11s-12.03,50.79-30.98,66.87" fill="none" stroke="#fff" stroke-miterlimit="10" stroke-width="2.22"></path></g></g></g></g></svg>