<svg xmlns="http://www.w3.org/2000/svg" id="Layer_2" viewBox="0 0 210 210"><g id="Layer_1-2"><g><g><circle cx="105" cy="105" r="105" fill="#fff100"></circle><path d="M105,5.32c54.96,0,99.68,44.72,99.68,99.68s-44.72,99.68-99.68,99.68S5.32,159.96,5.32,105,50.04,5.32,105,5.32m0-5.32C47.01,0,0,47.01,0,105s47.01,105,105,105,105-47.01,105-105S162.99,0,105,0h0Z" fill="#000f9f"></path></g><g><polygon points="67.65 53.92 67.65 137.15 85.34 137.15 105 142.95 124.1 137.15 143.09 137.15 143.09 53.92 67.65 53.92 67.65 53.92" fill="#fff100"></polygon><path d="M65.12,51.37l.1,80.94c0,.19,.03,1.99,.1,2.16,3.37,9.37,12.93,6.46,21.36,6.74,7.01,.23,13.63,.45,17.17,4.98,.31,.39,1.29,2.52,1.29,2.52,0,0,.98-2.13,1.29-2.52,3.52-4.52,10.11-4.74,17.09-4.98,8.4-.28,17.92,2.63,21.28-6.74,.06-.18,.1-1.97,.1-2.16l-.06-80.94H65.12Zm76.53,3.23c0,3.08,0,76.67,0,77.36-2.68,7.1-9.89,4.13-18.25,4.41-6.77,.23-13.72,.51-18.27,4.91-4.57-4.4-11.55-4.68-18.35-4.91-8.39-.28-15.64,2.69-18.33-4.41,0-.69,0-74.28,0-77.36,3.03,0,70.17,0,73.2,0h0Z" fill="#000f9f"></path><path d="M120.02,107.04c4.77-2.65,9.99-6.57,11.55-11.24,1.64-4.91,3.09-8.82,3.72-15.11,.14-1.38,3.95-12.5,1.12-10.21-1.19-6.25-.79,.13-2.52,.13,.13-1.94,.26-3.88,.39-5.81-2.26,0-.53,7.75-3.1,7.75,.18-1.79,1.87-10.85-.39-10.85-.01,4.73-3.57,19.04-10.08,18.86-2.6-.07-3.33-.33-5.04-1.61-3.76-2.82,.44-9.11,3.88-9.11,0-.48,3.09-1.14,3.68-2.33,.71-1.43,3.24-1.94,4.84-1.94-1.37-1.2-3.07,.43-4.26-1.16,7.87-3.93-1.91-2.1-1.12-4.94,1.71-6.15-2.07-.21-4.09-1.41-.58-.34-3.77,3.31-4.67,1.9,.1,.16,1.08,3.01,1.01,3.29-.13,.51-.71,.53-.85,.95-.5,1.53,2.33-.08-.04,1.97-.82,.72-4.43,2.5-2.25,2.5-.45,1.83-2.46,1.26-2.13,2.91,.1,.51,.12,2.13-.58,2.13-.4,1.19-1.79,5.04-2.71,5.04-2.45,3.67-3.41-1.94-4.65-1.94,0-2.31-3.02-3.43-1.59-5.13,.53-.63-1.73-1.92-1.9-2.62,.74-.75,.24-.69-.66-1.12-1.81-.86-2.46-1.92-2.05-3.53-.4-.91-2.22-1.02-.39-1.94,.33-1.66,.88-2.62-1.16-1.94,0-.51-1.04-.77-1.55-.77-1.13-2.26-.92-1.26-3.04-1.37-.88-.04-1.59-1.14-2.38-1.73-.97,1.52,.86,4.26-1.18,4.15-1.2-.06-2.88,1.43-3.08,2.82,1.27,.22,2.37,.54,2.71,1.94-1.32,0-6.02,.77-1.94,.77,1.9,.5,2.05-.09,2.71,.78,0,2.67,3.49,1.5,3.49,3.1,2.99,0,6.75,3.14,5.78,6.82-.69,2.61-2.79,4.42-5.3,4.16-2.97-.31-3.9-1.37-5.99-3.12-4.61-3.87-5.88-10.26-5.73-16-1.49,.45-1.34,2.07-1.02,3.39,.37,1.51-.14,2.35-.14,3.2-1.12,0-1.17-3.45-1.16-4.26-1.49,0-.09,5.16-.09,6.44-2.12-.91,.02-4.5-2.23-4.5,0,5.31-2.14,.86-1.94,1.57,0,2.43-.19,6.49,.39,8.88,.38,1.55,1.55,2.29,1.55,3.89,1.31,.65,1.03,4.64,1.29,6.2,.25,1.52,.89,2.27,1.42,3.87,.84,0,.79,5.81,2.33,5.81,0,2,3.3,4.41,4.65,6.2,1.03,0,3.45,2.27,4.07,3.1,.66,.88,1.85,1.61,2.91,2.2,2.42,1.34,2.73,1.87,.4,3.71-1.28,1.01-2.22,3.4-3.89,3.4-1.94,2.58-5.35,6.65-6.2,1.55-.72,0-1.16,.38-1.16,1.16-1.08,0-2.15,.39-2.71,.39,1.14,1.8,.46,2.69-1.55,3.49,0,1.33,1.12,2.12,1.94,3.1,1.61,.53,1.24,.72,1.31,2.26,.1,2.11,2.95,.62,2.95-.33,.91-.39,1.61-.04,2.51,.02,.89,.05,.94-.79,1.75-.79-1.09-1.65-2.25-2.22-.2-3.91,1.27-1.04,2.24-2.18,3.3-3.45,1.32-.44,3.07-1.9,3.88-2.91,.99-1.23,2.63-1.62,3.49-2.91,2.14,.21,1.4,1.3,1.14,3.05-.22,1.48-.45,2.96-.78,4.42-.31,1.36-1.36,2.8-.99,4.15,.37,1.35,1.09,1.12,1.49,1.71l-.52,4.72,.1-.08c-.42,1.92,1.79,2.38,2.05,2.38,.07,2.46,1.96,1.48,4.1,2.13,.87-1.17,2.28-2.41,3.58-.47,1.03,1.54,3.91,.4,5.33-.3,0-2.03,2.05-1.76,1.84-3.14-.28-1.82-1.39-3.47-.96-5.31,.15-.63,.55-.96,1.1-1.26,1.28-.69,.53-1.9,.21-3.16-.71-2.81-1.71-5.53-1.8-8.46,2.47,.29,5.01,2.08,6.2,3.88,1.12,0,3.28,2.21,3.88,3.1,1,.8,5.75,3.42,3,4.75-1.09,.53-.5,1.38,.73,1.37,2.57-.02,2.97,1.25,5.19,1.25,0-.98,.3-2.66,1.55-3.36,1.24-.69,2.33-.74,2.33-2.26,0-1.73-.52-.58-1.64-1.32-1.32-.87-.5-2.02,.09-3.13,.18-.76-.15-.43-.39-.39-2.04,1.11-1.95,.37-3.49-.77-.26,.67-1.16,2.16-1.16,2.71-2.67-.73-5.13-4.18-6.98-6.2-1.13,0-2.29-1.76-3.23-2.58-2.16-1.89-.09-2.2,1.76-3.23h0Zm1.76-40.89c.19,.08,.2,.46,.03,.84-.17,.38-.46,.62-.65,.54-.19-.08-.2-.46-.03-.84,.17-.38,.46-.62,.65-.54h0Zm-2.23-4.46c1.05-.35,1.94-.51,1.94,.77-1.03,0-1.28-.11-1.94-.77h0Zm-.24-1.18c.96-.31,1.79-.44,1.84-.29,.05,.15-.7,.52-1.66,.83-.97,.31-1.79,.44-1.84,.29-.05-.15,.7-.52,1.66-.83h0Zm-33.64,3.49c.01-.15-1.21-.83-1.4-1.54,1.61,0,.87,.12,1.94,.78-.22,.3-.51,.42-.54,.77h0Zm1.7-1.54c1.83,0,0,1.83,0,0h0Zm1.55-.77c1.83,0,0,1.83,0,0h0Zm-3.87,40.69c-.27-.88-.39-.76-.39-1.94,.79,0,1.04,1.3,1.16,1.94h-.77Zm-6.05,18.35c-.25,0-.46-.34-.46-.76s.2-.76,.46-.76,.45,.34,.45,.76-.2,.76-.45,.76h0Zm1.88,4.25c-.17,.38-.46,.62-.65,.54-.19-.08-.2-.46-.03-.84,.17-.38,.46-.62,.65-.54,.19,.08,.2,.46,.03,.84h0Zm1.06-1.29c-.3-.98-.32-.57,0-1.55,.44,.13,.74,.39,1.16,.39-.13,.65-.52,1.03-1.16,1.16h0Zm1.93,1.69c-.11,.17-.49,.12-.84-.11-.35-.23-.54-.55-.43-.73,.11-.17,.49-.12,.84,.11,.35,.23,.54,.55,.43,.72h0Zm48.69-3.39c.35,.23,.54,.55,.43,.72-.11,.17-.49,.12-.84-.11-.35-.23-.54-.56-.43-.73,.11-.17,.49-.12,.84,.11h0Zm-.62-2.18c0,.84-.39-.07-.39,.77-.49,.12-.75-.14-.77-.77h1.16Zm-2.64,4.69c.11-.17,.49-.12,.84,.11,.35,.23,.54,.55,.43,.72-.11,.17-.49,.12-.84-.11-.35-.23-.54-.56-.43-.73h0Zm-.46-1.2c-1.06,.37-1.58-.02-1.55-1.16,1.06-.37,1.58,.02,1.55,1.16h0Zm-1.6,1.63c.17-.38,.46-.63,.65-.54,.19,.08,.2,.46,.03,.84-.17,.38-.46,.62-.65,.54-.19-.08-.2-.46-.03-.84h0Zm-2.28-26.04c1.77,.88-.85,4.65-2.32,4.65,.21-1.9,1.46-3.06,2.32-4.65h0Zm-4.26,3.87c.03-.1,.06-.18,.09-.26l.69-.9c1.32,1.74-2.14,5.55-3.62,4.75l2.71-3.56s.08,0,.13-.03h0Zm-4.26-6.59c-3.28-.87-1.48-4.29,.77-5.04,0,1.37-.38,3.12-.77,5.04h0Zm.77,2.32c-.05,1.76-.16,3.49-1.94,3.49,.28-1.21,.77-2.21,.78-3.49h1.16Zm-1.94-13.56c2.18,1.43,1.22,6.47-1.55,5.42-.72-2.39,.38-3.41,1.55-5.42h0Zm-5.81-5.04c1.29-.36,1.8-1.6,3.1-1.94,0,1.87-3.1,6.23-3.1,1.94h0Zm2.71,6.98c-1.57-.4-1.55-.72-1.55-2.33,1.56,.52,1.25,.83,1.55,2.33h0Zm-1.94,3.49c-4.02,0,.93-5.6,0,0h0Zm1.16,.39c3.18,1.06,.53,5.93-1.55,6.98-1.37-3.07,.3-4.34,1.55-6.98h0Zm1.16,5.43c4.99,0-.77,5.32-.77,6.59-4.25-1.12,.29-4.36,.77-6.59h0Zm.39-10.85c-1.22-2.31-1.04-1.83,.39-4.26,2.58,.66,1.28,4.26-.39,4.26h0Zm.77-13.56c0,1.61-1.5,2.39-3.1,2.71,.12-2.27,1.05-2.37,3.1-2.71h0Zm-1.94,4.26c-.58,2.38-2.19,3.1-2.71,.39,.94-.02,1.8-.22,2.71-.39h0Zm-3.49,9.3c0-1.02-1.19-2.03-1.16-3.49,1.82,.48,2.67,3.73,1.16,3.49h0Zm-1.55,5.81c1.31,0-.56,4.01-.92,4.76-1.66,3.44-1.7,.86-3.14-1.33-1.3-1.98,.68-4.47,1.35-1.88,.52-.15,2.71-2.87,2.71-1.55h0Zm-3.53,11.05c-.88-1.61-.73-2.02-.73-3.29,.88-.28,1.74,1.55,2.33,1.94,.48-.8,1-1.57,1.55-2.32,2.82,.94-.89,7.81-3.15,3.68h0Zm1.21-17.25c2.6,1.56,1.76,3.15,.77,5.04-2.82,0-1.62-3.58-.77-5.04h0Zm-2.71-1.94c0-1.2,.27-.63,.77-1.55,2.11,1.06-.16,3.18-1.55,3.88,0-1.13-1.1-1.08,.78-2.32h0Zm-1.16,12.01c1.39,0-.77,2.01-.77,2.32-2.45-.62-3.16-4.12-2.71-6.2,1.67,0,3.49,2.31,3.49,3.87h0Zm-1.16-7.75c2.52,2.02,1.16,1.62,1.16,3.88-2.44-.65-2.07-2.17-1.16-3.88h0Zm-.39-5.43c-.75-1.62-2.32-2.52-2.32-4.26,1.72,.24,3.49,2.85,3.49,3.87-.43,0-.72,.26-1.16,.39h0Zm.78-3.49c-1.17-.31-2.71-1.53-2.71-2.71,1.9,.22,3.2,1.26,2.71,2.71h0Zm-4.26-6.59c2.28,.46,2.71,1.12,2.71,2.71-1.17-.32-2.71-1.53-2.71-2.71h0Zm-.39,9.3c2.55,.31,2.29,2.3,1.94,4.26-2.2,0-2.26-2.67-1.94-4.26h0Zm-7.36,21.32c.49,0,.42-.12,.78-.39,.67,2.02,1.38,2.57,1.94,4.26-1.47,0-2.1-2.64-2.71-3.88h0Zm3.1,1.55c.54,.35,1.55,1.29,1.55,1.94-1.34-.34-1.55-.6-1.55-1.94h0Zm2.33,8.53c.76-1,1.94-2.3,1.94,0h-1.94Zm-.39-13.56c1.36,.41,2.66,2.37,1.16,3.49-.39-1.16-.77-2.33-1.16-3.49h0Zm.39-2.71c-.67-2.01-1.16-2.03-1.16-4.65,2.32,.63,5.19,4.65,1.16,4.65h0Zm.39-11.24c1.51,.91,3.41,3.5,2.32,5.17-1.6,2.47-2.85-3.8-2.32-5.17h0Zm2.71,11.63c1.1,.33,1.39,1.94,1.94,1.94,0,1.68,2.35,1.03,1.31,3.08-.3,.6-.93,.47-.93,1.18-3.09-.79-3.7-3.6-2.32-6.2h0Zm.33,9.53c-.85-1-.71-1.2-.71-2.56,1.59,.44,3.87,4.58,1.94,4.26,0-.66-.8-1.2-1.22-1.7h0Zm4.72,9.68c-.63,3.89-.93,6.91-1.36,10.83-.19,1.68-.97,4.51-.97,5.62-2.4-.24-1.38-1.94-1.16-3.88-.01,0-.02,.01-.03,.01l.23-1.2c1.27-1.91,1.48-9.84,1.54-11.4,.03-.84,.29-7.9,1.19-4.21,.36,1.46,.81,2.71,.56,4.23h0Zm-.78-12.23c2.62,.26,3.09,2.35,2.71,4.26-2.45-.3-3.12-2.26-2.71-4.26h0Zm5.43,16.85c-.09,1.99,1.25,12.7-1.51,12.09-1.61-.36-.31-6.42-.17-8.02,.21-2.46,.17-5.3-.06-7.77-.07-.78-.34-5.13-.85-5.58-.4-.36,.83-1.93,1.04-2.54,3.5,0,1.69,8.96,1.56,11.81h0Zm.62-12.58c-1-1.86,.2-4.27,2.47-4.27,.24,1.26,.73,2.24-.16,3.26-.41,.47-1.53,2.47-2.31,1.01h0Zm5.57,23.63c-1.56,1.54-1.94-4.8-1.94-5.81-1.28-4.36-1.24-9.07-1.16-13.56,1.37,0,.98,5.09,1.16,6.57,.28,2.33,1.17,4.66,1.17,6.99,0,1.12,1.8,4.79,.77,5.81h0Zm-.77-24.03c0-2.2,.22-3.8,2.32-5.04,.62,1.84,.27,5.04-2.32,5.04h0Zm3.1,3.88c1.17,.02,2.32-.16,2.32,1.16-1.17-.02-2.32,.16-2.32-1.16h0Zm2.77-5.99c-.03-.18-.05-.37-.05-.6-1.33,0-.86-1.97,.39-1.16,1.49-.5,.99-1.55,2.32-1.55-.07,.21-.09,.37-.09,.5l-2.57,2.81h0Z" fill="#000f9f"></path><path d="M74.86,164.83l-.42-1.13c.16,.06,.33,.11,.5,.14,.17,.03,.34,.04,.51,.04,.93,0,1.62-.3,2.07-.9,.45-.6,.68-1.52,.68-2.77,0-.51,0-1.1-.02-1.76-.01-.66-.02-1.07-.02-1.22,0-2.1,.44-3.71,1.33-4.85,.89-1.13,2.15-1.7,3.79-1.7,.46,0,.9,.05,1.32,.15,.42,.1,.85,.26,1.28,.47l.42,1.06c-.22-.04-.43-.07-.63-.1-.2-.02-.39-.04-.57-.04-.93,0-1.6,.34-2,1.03-.4,.68-.61,1.83-.61,3.43,0,.08,0,.33,0,.77,0,.44,.01,.84,.01,1.2,0,1.19-.08,2.12-.24,2.8-.16,.68-.41,1.26-.77,1.74-.51,.68-1.13,1.19-1.85,1.53-.72,.35-1.54,.52-2.45,.52-.47,0-.9-.04-1.28-.1-.38-.07-.74-.17-1.07-.32h0Z" fill="#000f9f"></path><path d="M100.86,150.86l-.76,1.69h-2.95c-.09,1.05-.15,2.12-.19,3.22-.04,1.09-.06,2.2-.06,3.34,0,.98,.02,1.97,.05,2.97,.03,1,.08,2.03,.14,3.08-.31-.02-.62-.04-.93-.05-.31-.01-.62-.02-.94-.02s-.63,0-.94,.02c-.32,.01-.63,.03-.94,.05l-.66-.61c.06-1.03,.11-2.01,.13-2.93,.03-.92,.04-1.81,.04-2.65,0-1.1-.02-2.18-.06-3.25-.04-1.06-.11-2.12-.19-3.16h-2.95s-.74-1.7-.74-1.7c1.17,.04,2.26,.07,3.24,.08,.99,.02,1.93,.03,2.82,.03s1.83,0,2.81-.03c.98-.02,2.01-.04,3.08-.07h0Z" fill="#000f9f"></path><path d="M104.28,152.91l.3-.56c.57-.25,1.13-.54,1.69-.87,.55-.33,1.08-.69,1.59-1.09,.57,1.35,1.24,2.81,2.01,4.36,.76,1.55,1.61,3.18,2.54,4.88l3.76-9.19,1.72,1.34c-1.02,2.24-1.97,4.48-2.84,6.7-.87,2.23-1.66,4.45-2.37,6.66-.17-.01-.34-.03-.52-.03-.18-.01-.35-.02-.54-.02s-.36,0-.54,.01c-.18,0-.36,.02-.55,.04-1-2.18-2.02-4.28-3.06-6.32-1.04-2.03-2.11-4-3.2-5.91h0Z" fill="#000f9f"></path><path d="M121.45,152.91l.3-.56c.57-.25,1.14-.54,1.69-.87,.55-.33,1.08-.69,1.59-1.09,.57,1.35,1.24,2.81,2.01,4.36,.77,1.55,1.61,3.18,2.54,4.88l3.76-9.19,1.72,1.34c-1.03,2.24-1.97,4.48-2.84,6.7-.87,2.23-1.66,4.45-2.37,6.66-.17-.01-.34-.03-.52-.03-.17-.01-.35-.02-.54-.02s-.36,0-.54,.01c-.18,0-.37,.02-.55,.04-1-2.18-2.02-4.28-3.06-6.32-1.04-2.03-2.11-4-3.2-5.91h0Z" fill="#000f9f"></path></g><g><g><g><path d="M64.49,23.81l.85,1.54-4.65,2.57,.73,1.33,4.13-2.28,.84,1.53-4.13,2.28,1.02,1.84-1.81,1-3.44-6.23,6.46-3.57Z" fill="#000f9f"></path><path d="M76.23,26.51l-1.13-.99-4.06,1.65-.12,1.5-2.06,.84,.72-7.97,2.64-1.07,6.07,5.21-2.05,.83Zm-5.05-1.07l2.6-1.06-2.35-2.05-.25,3.11Z" fill="#000f9f"></path><path d="M86.83,21.37l-1.23-4.95,1.99-.49,1.71,6.91-2.93,.73-5.3-3.94,1.23,4.95-2,.5-1.71-6.91,2.94-.73,5.3,3.94Z" fill="#000f9f"></path><path d="M96.85,14.62l8.57-.35,.07,1.75-3.25,.13,.22,5.36-2.06,.08-.22-5.36-3.26,.13-.07-1.75Z" fill="#000f9f"></path><path d="M107.92,17.84c.2-2.35,1.94-3.6,4.93-3.34,2.98,.26,4.49,1.79,4.29,4.13-.2,2.35-1.95,3.62-4.93,3.36-2.99-.26-4.49-1.79-4.29-4.15Zm7.07,.61c.11-1.23-.53-2.05-2.29-2.2-1.75-.15-2.52,.53-2.62,1.78-.11,1.25,.54,2.07,2.28,2.22,1.75,.15,2.53-.55,2.64-1.79Z" fill="#000f9f"></path><path d="M129.41,17.57l-4.18,2.13,2.62,4.82-2.53-.57-1.82-3.36-1.99,1.01-.32,1.41-2.01-.46,1.57-6.95,2.02,.45-.7,3.12,4.34-2.29,3.02,.68Z" fill="#000f9f"></path><path d="M139.29,20.99l-.55,1.52-5-1.81-.39,1.07,4.81,1.74-.55,1.52-4.81-1.74-.39,1.07,5,1.81-.55,1.52-6.94-2.51,2.42-6.7,6.94,2.51Z" fill="#000f9f"></path><path d="M146.5,30.14l2.34-4.54,1.83,.94-3.27,6.33-2.69-1.39-1.39-6.47-2.34,4.54-1.84-.95,3.27-6.33,2.7,1.39,1.39,6.47Z" fill="#000f9f"></path></g><g><path d="M57.53,179.5c-.31,.51,0,1.15,1.6,2.12,1.47,.88,1.97,.87,2.2,.49,.27-.44,.04-.69-1.7-1.9-2.37-1.66-3.16-2.81-2.35-4.16,.77-1.27,2.49-1.02,4.6,.25,2.35,1.41,3.27,2.94,2.51,4.33l-1.85-1.11c.32-.54-.14-1.1-1.51-1.92-1.3-.78-1.72-.74-1.92-.41-.23,.38,0,.67,1.57,1.8,2.14,1.52,3.5,2.55,2.54,4.15-.94,1.56-2.66,1.15-4.83-.16-2.47-1.49-3.6-2.93-2.72-4.59l1.85,1.12Z" fill="#000f9f"></path><path d="M66.2,183.1c.94-2.17,2.98-2.79,5.74-1.6,2.75,1.19,3.69,3.12,2.76,5.28-.94,2.17-3,2.81-5.75,1.62-2.76-1.19-3.69-3.12-2.75-5.3Zm6.52,2.83c.49-1.14,.14-2.11-1.48-2.82-1.61-.7-2.56-.29-3.05,.85-.5,1.15-.14,2.13,1.46,2.83,1.61,.7,2.58,.28,3.07-.87Z" fill="#000f9f"></path><path d="M82.54,185.26c2.52,.71,3.65,2.19,3.36,4.01l-2.11-.59c.04-.67-.45-1.38-1.72-1.73-1.47-.41-2.38,.11-2.72,1.31-.34,1.21,.18,2.14,1.64,2.55,1.27,.35,2.06,0,2.37-.61l2.11,.59c-.7,1.72-2.43,2.41-4.96,1.71-2.75-.77-3.9-2.47-3.25-4.82,.66-2.34,2.52-3.19,5.27-2.42Z" fill="#000f9f"></path><path d="M91.13,187.38l-1.26,7-2.03-.37,1.26-7,2.03,.37Z" fill="#000f9f"></path><path d="M93.28,191.41c.19-2.35,1.92-3.6,4.91-3.36,2.98,.24,4.5,1.77,4.3,4.11-.19,2.35-1.93,3.62-4.92,3.38-2.99-.24-4.5-1.77-4.3-4.13Zm7.07,.58c.1-1.23-.54-2.04-2.3-2.19-1.75-.14-2.51,.55-2.62,1.79-.1,1.25,.55,2.06,2.29,2.21,1.75,.14,2.53-.56,2.63-1.81Z" fill="#000f9f"></path><path d="M107.35,193.3c.03,.6,.64,.96,2.51,.86,1.71-.09,2.12-.38,2.09-.83-.03-.52-.35-.59-2.47-.62-2.89-.05-4.2-.56-4.28-2.14-.08-1.48,1.49-2.24,3.95-2.36,2.74-.14,4.36,.6,4.5,2.18l-2.15,.11c-.03-.63-.73-.83-2.33-.75-1.51,.08-1.84,.35-1.82,.73,.02,.44,.37,.56,2.31,.62,2.62,.06,4.33,.15,4.43,2.02,.09,1.82-1.56,2.44-4.09,2.57-2.88,.15-4.63-.42-4.82-2.29l2.16-.11Z" fill="#000f9f"></path><path d="M117.06,193.29l1.97-.29,.22,1.53-1.97,.29-.23-1.53Z" fill="#000f9f"></path><path d="M124.91,185.92c2.55-.62,4.26,.12,4.9,1.85l-2.13,.52c-.29-.61-1.07-.98-2.35-.67-1.48,.36-2.02,1.26-1.73,2.48,.3,1.22,1.21,1.78,2.68,1.42,1.28-.31,1.8-1.01,1.77-1.7l2.13-.52c.23,1.84-.94,3.3-3.49,3.92-2.78,.68-4.62-.24-5.2-2.61-.58-2.36,.63-4.01,3.41-4.69Z" fill="#000f9f"></path><path d="M132.62,187.72c-.87-2.2,.14-4.09,2.93-5.19,2.78-1.1,4.82-.4,5.68,1.79,.87,2.2-.14,4.11-2.92,5.21-2.79,1.1-4.82,.4-5.69-1.81Zm6.61-2.61c-.45-1.15-1.39-1.6-3.03-.95-1.63,.64-2.02,1.6-1.56,2.76,.46,1.17,1.41,1.61,3.03,.97,1.63-.64,2.02-1.62,1.56-2.78Z" fill="#000f9f"></path><path d="M145.61,186.25l-3.58-6.16,2.78-1.62,4.52,2.84-.24-5.33,2.78-1.62,3.58,6.16-1.78,1.03-2.59-4.46,.28,5.81-1.65,.96-4.91-3.11,2.6,4.46-1.79,1.04Z" fill="#000f9f"></path></g></g><path d="M48.34,171.86c-18.95-16.08-30.98-40.07-30.98-66.86S30.03,52.95,49.85,36.88" fill="none" stroke="#000f9f" stroke-miterlimit="10" stroke-width="2.22"></path><path d="M160.16,36.89c19.82,16.07,32.48,40.61,32.48,68.11s-12.03,50.79-30.98,66.87" fill="none" stroke="#000f9f" stroke-miterlimit="10" stroke-width="2.22"></path></g></g></g></svg>