<svg xmlns="http://www.w3.org/2000/svg" width="64" height="64" viewBox="0 0 64 64"><g transform="translate(-30148.432 -12806.436)"><circle cx="32" cy="32" r="32" transform="translate(30148.432 12806.436)"/><path d="M112.324,257.094a21.464,21.464,0,1,1,21.464,21.464A21.464,21.464,0,0,1,112.324,257.094Z" transform="translate(30046.645 12581.342)" fill="#fff"/><circle cx="20.651" cy="20.651" r="20.651" transform="translate(30151.225 12838.436) rotate(-45)" fill="#ee2e24"/><path d="M237.146,627.93l.849-3.886-1.1-.24.16-.73.1.022c.73.16,1.242-.022,1.484-.6l.824.18-1.2,5.5Z" transform="translate(29936.498 12239.289)" fill="#fff"/><path d="M266.8,631.237c-.03.421.087.684.468.712.6.043.742-.553.8-1.378l.019-.27h-.016a1.228,1.228,0,0,1-1.089.4c-1-.071-1.32-.844-1.248-1.852.092-1.286.707-1.967,1.96-1.878,1.571.112,1.68,1.38,1.582,2.753-.114,1.6-.253,3.1-2.11,2.968-.809-.058-1.523-.451-1.462-1.532Zm.631-1.35c.452.032.648-.257.7-1.019.038-.643-.016-1.117-.548-1.156-.556-.039-.653.432-.7,1.067C266.828,629.54,266.982,629.854,267.426,629.886Z" transform="translate(29911.035 12235.336)" fill="#fff"/><path d="M302.057,632.457l-3.46.247a3.143,3.143,0,0,1,1.062-2.548l.43-.461a1.409,1.409,0,0,0,.5-1.328c-.033-.468-.248-.684-.605-.659-.571.041-.591.544-.557,1.14l-1.1.078-.015-.215c-.074-1.039.431-1.665,1.63-1.751,1.127-.081,1.722.443,1.791,1.411a2.166,2.166,0,0,1-.746,1.848l-.593.632a1.9,1.9,0,0,0-.521.867l2.119-.151Z" transform="translate(29882.203 12235.344)" fill="#fff"/><path d="M332.549,623.464c-.092-.42-.278-.64-.651-.558-.591.129-.555.74-.378,1.549l.059.271.016,0a1.211,1.211,0,0,1,.93-.7c.979-.214,1.5.437,1.72,1.424.276,1.259-.122,2.087-1.35,2.355-1.539.336-2-.849-2.3-2.194-.34-1.555-.633-3.046,1.186-3.444a1.37,1.37,0,0,1,1.837,1.065Zm.24,3.6c.544-.119.5-.6.368-1.221-.163-.746-.4-1-.834-.909s-.549.429-.387,1.175C332.083,626.734,332.268,627.174,332.789,627.06Z" transform="translate(29853.875 12239.628)" fill="#fff"/><path d="M88.41,554.267l-2.047-2.6.77-.605,1.308,1.665,1.1-.861-1.231-1.567.77-.605,1.231,1.567,2.024-1.59.739.94Z" transform="translate(30069.598 12303.68)" fill="#fff"/><path d="M71.26,508.821l-.72-1.29,4.413-4.257.607,1.088-.962.85.768,1.378,1.229-.372L77.2,507.3Zm3.15-1.936-.566-1.015-2.049,1.8.008.014Z" transform="translate(30083.588 12344.698)" fill="#fff"/><path d="M51.451,487.918l.919-.339.448,1.215,4.642-1.712.414,1.122-4.642,1.712.448,1.215-.919.338Z" transform="translate(30100.467 12359.014)" fill="#fff"/><path d="M52.814,463.531l-5.775,1.336L46.77,463.7l5.775-1.336Z" transform="translate(30104.605 12380.867)" fill="#fff"/><path d="M41.261,427.709l-.108-1.19,2.257-.2-.126-1.389-2.257.2-.107-1.19,5.9-.534.108,1.191-2.621.237.126,1.389,2.621-.237.108,1.191Z" transform="translate(30109.777 12415.315)" fill="#fff"/><path d="M42.679,360.626l2.339.408,0-.016-2.079-1.9.223-1.276,2.226,2.023,3.645-1.184L48.8,360.01l-2.606.784.587.549,1.734.3-.206,1.178-5.839-1.02Z" transform="translate(30108.404 12473.282)" fill="#fff"/><path d="M54.989,327.395l.513-1.386,6.1.586-.432,1.168-1.271-.178-.548,1.479,1.081.692L60,330.924Zm3.519,1.134.4-1.09-2.7-.388-.006.016Z" transform="translate(30097.338 12501.431)" fill="#fff"/><path d="M69.125,282.739l1.133-1.9a1.4,1.4,0,0,1,2.121-.57,1.3,1.3,0,0,1,.747,1.6l.014.008c.51-.643.959-.52,2.043.109.539.312.834.45,1.048.317l.043.025-.664,1.112a1.156,1.156,0,0,1-.611-.191l-.993-.555a.659.659,0,0,0-1,.222l-.328.549,2.152,1.287-.613,1.026Zm2.837.3.256-.428a.78.78,0,0,0-.3-1.225.736.736,0,0,0-1.131.291l-.29.484Z" transform="translate(30084.84 12542.107)" fill="#fff"/><path d="M100.9,248.081l.976-1.11,5.488,2.736-.822.935-1.122-.622-1.042,1.185.761,1.034-.822.935Zm2.878,2.321.768-.873-2.38-1.33-.011.012Z" transform="translate(30056.746 12571.314)" fill="#fff"/><path d="M134.618,215.661c-.272-.346-.773-.66-1.151-.361-.457.36-.269.973.645,2.134.884,1.122,1.543,1.744,2.084,1.318a.871.871,0,0,0-.005-1.2l-.375-.476-.62.488-.544-.691,1.52-1.2,1.978,2.511-.691.544-.339-.431-.013.01a1.332,1.332,0,0,1-.567,1.292c-1.154.909-2.061.228-3.329-1.383-1.233-1.565-1.5-2.655-.3-3.6a1.629,1.629,0,0,1,2.609.334Z" transform="translate(30029.127 12600.367)" fill="#fff"/><path d="M163.182,179.947l.822-.435.458.866-.822.435Zm1.082,1.015,1.935,3.654c.276.521.606.844,1.1.583s.41-.715.135-1.236l-1.935-3.653,1.057-.56,1.935,3.654a1.693,1.693,0,0,1-.779,2.573,1.661,1.661,0,0,1-2.567-.8l-1.935-3.653Zm.18-1.683.822-.435.459.866-.822.435Z" transform="translate(30001.676 12631.551)" fill="#fff"/><path d="M205.723,169.582l1.709-.485,1.956,3.794.016,0-.319-4.259,1.7-.483,1.617,5.7-1.054.3-1.291-4.552-.016,0,.277,4.84-.895.254-2.305-4.265-.016,0,1.291,4.553-1.054.3Z" transform="translate(29964.063 12641.009)" fill="#fff"/><path d="M264.69,165.1l2.2-.141a1.4,1.4,0,0,1,1.672,1.423,1.3,1.3,0,0,1-.892,1.521v.017c.819.056.972.5,1.069,1.745.048.621.1.942.333,1.043l0,.05-1.292.083a1.156,1.156,0,0,1-.189-.612l-.106-1.133c-.047-.463-.272-.731-.752-.7l-.638.041.161,2.5-1.193.077Zm1.359,2.508.5-.032a.78.78,0,0,0,.838-.944.736.736,0,0,0-.881-.767l-.563.036Z" transform="translate(29911.926 12643.829)" fill="#fff"/><path d="M309.009,154.649l-.484,4.106c-.069.585.019,1.039.572,1.1s.744-.355.813-.941l.484-4.106,1.187.14-.484,4.106a1.693,1.693,0,0,1-2.1,1.675,1.661,1.661,0,0,1-1.656-2.118l.484-4.106Zm-.314-1.45.923.109-.115.973-.923-.109Zm1.418.167.923.109-.115.973-.923-.109Z" transform="translate(29874.24 12654.225)" fill="#fff"/><path d="M345.4,171.522l-.692,2.271.016,0,2.138-1.831,1.239.377-2.281,1.961.728,3.763-1.286-.392-.459-2.683-.617.515-.513,1.684-1.144-.348,1.728-5.67Z" transform="translate(29843.1 12638.332)" fill="#fff"/><path d="M397.264,202.516l-.092.148c-.293.472-.348.859.187,1.192a.683.683,0,0,0,.992-.243c.285-.458.158-.772-.367-1.421-.709-.872-.893-1.5-.371-2.343a1.625,1.625,0,0,1,2.479-.511c.9.562,1.316,1.357.716,2.323l-.088.141-.973-.605c.294-.472.3-.848-.085-1.089a.612.612,0,0,0-.942.226c-.193.31-.22.557.1,1.008l.572.825a1.514,1.514,0,0,1,.13,1.929c-.662,1.064-1.609,1.14-2.709.456-1.149-.715-1.267-1.531-.688-2.462l.127-.2Z" transform="translate(29796.018 12613.749)" fill="#fff"/><path d="M426.8,219.57l1.562,1.392a1.573,1.573,0,0,1,.032,2.409,1.659,1.659,0,0,1-2.594.079l-.477-.425-1.575,1.766-.893-.8Zm-.892,2.8.4.354a.766.766,0,0,0,1.186-.133c.387-.434.434-.836-.012-1.234l-.372-.332Z" transform="translate(29772.082 12595.541)" fill="#fff"/><path d="M459.177,255.753c1.109,1.409.242,2.376-1.174,3.49s-2.56,1.728-3.668.318-.242-2.376,1.174-3.49S458.068,254.344,459.177,255.753Zm-4.15,3.264c.436.555.984.272,2.237-.714s1.657-1.451,1.221-2.006-.991-.266-2.237.714S454.59,258.462,455.027,259.017Z" transform="translate(29744.691 12564.272)" fill="#fff"/><path d="M477.062,287.537l1.026,1.956a1.4,1.4,0,0,1-.62,2.107,1.3,1.3,0,0,1-1.753-.2l-.015.008c.283.77-.056,1.089-1.159,1.686-.547.3-.819.477-.818.729l-.044.023-.6-1.147a1.154,1.154,0,0,1,.482-.421l.992-.558a.659.659,0,0,0,.334-.972l-.3-.566-2.22,1.165-.555-1.059Zm-1.738,2.262.231.441a.78.78,0,0,0,1.2.381.736.736,0,0,0,.342-1.117l-.262-.5Z" transform="translate(29728.793 12535.446)" fill="#fff"/><path d="M500.664,351.58l-2.319.51,0,.016,2.643.966.278,1.265-2.827-1.028-2.923,2.479-.288-1.314,2.114-1.714-.751-.285-1.719.378-.256-1.168,5.789-1.272Z" transform="translate(29708.629 12479.854)" fill="#fff"/><path d="M507.587,395.714l-4.131.16c-.589.023-1.023.181-1,.737s.466.68,1.056.657l4.131-.16.047,1.195-4.131.16a1.693,1.693,0,0,1-1.982-1.818c-.038-.971.25-1.9,1.835-1.965l4.131-.16Z" transform="translate(29702.48 12440.855)" fill="#fff"/><path d="M499.612,433.936l5.881.74-.149,1.186-4.909-.617-.264,2.1-.972-.122Z" transform="translate(29704.58 12406.005)" fill="#fff"/><path d="M498.215,470.216l-3.96-1.19c-.564-.17-1.027-.161-1.187.372s.221.794.785.964l3.959,1.19-.344,1.145-3.959-1.19a1.693,1.693,0,0,1-1.284-2.362,1.66,1.66,0,0,1,2.373-1.263l3.959,1.19Zm1.071,1.31-.268.89-.938-.282.268-.89Zm.411-1.368-.268.89-.938-.282.267-.89Z" transform="translate(29710.852 12376.108)" fill="#fff"/><path d="M483.827,502.519l-.913,1.78c-.447.872-1.093,1.334-2.106.815a1.238,1.238,0,0,1-.744-1.389l-.015-.007a1.253,1.253,0,0,1-1.718.332,1.611,1.611,0,0,1-.7-2.439l.92-1.8Zm-5.037-1.238-.212.414a.812.812,0,0,0,.358,1.266.79.79,0,0,0,1.207-.407l.235-.458Zm2.327,1.192-.155.3c-.3.584-.236.952.259,1.205s.812.109,1.081-.416l.2-.384Z" transform="translate(29723.902 12347.756)" fill="#fff"/><path d="M461.22,541.56l-3.281-2.515c-.468-.359-.9-.514-1.242-.073s-.075.822.393,1.18l3.281,2.515-.727.949-3.281-2.515a1.693,1.693,0,0,1-.364-2.664,1.661,1.661,0,0,1,2.667-.341l3.281,2.515Zm.538,1.605-.566.738-.777-.6.566-.738Zm.868-1.134-.565.738-.778-.6.566-.738Z" transform="translate(29743.209 12314.368)" fill="#fff"/><rect width="0.93" height="0.98" transform="translate(30150.135 12844.94) rotate(-13.005)" fill="#fff"/><path d="M160.005,446.818a2.581,2.581,0,0,0-2.19,1.221c.006-.074.011-.148.011-.224a2.565,2.565,0,0,0-.307-1.22,2.586,2.586,0,1,0-1.057-1.057,2.584,2.584,0,1,0,.971,3.639c-.006.074-.011.149-.011.224a2.584,2.584,0,1,0,2.583-2.583Zm-1.267-4.046a1.546,1.546,0,1,1-1.546,1.546A1.547,1.547,0,0,1,158.739,442.772Zm-3.5,6.588a1.546,1.546,0,1,1,1.546-1.546A1.548,1.548,0,0,1,155.243,449.36Zm4.763,1.587a1.546,1.546,0,1,1,1.546-1.546A1.547,1.547,0,0,1,160.005,450.947Z" transform="translate(30010.98 12399.109)" fill="#fff"/><path d="M355.261,457.962a2.584,2.584,0,1,0,2.584-2.583A2.586,2.586,0,0,0,355.261,457.962Zm1.038,0a1.546,1.546,0,1,1,1.546,1.546A1.548,1.548,0,0,1,356.3,457.962Zm-1.867,5.877a2.584,2.584,0,1,0,2.583-2.584A2.586,2.586,0,0,0,354.432,463.839Zm1.038,0a1.546,1.546,0,1,1,1.546,1.546A1.548,1.548,0,0,1,355.47,463.839Zm4.656-4.279a2.583,2.583,0,1,0,1.827-.757A2.566,2.566,0,0,0,360.125,459.56Zm.281,1.827a1.546,1.546,0,1,1,1.546,1.546A1.536,1.536,0,0,1,360.406,461.387Z" transform="translate(29832.578 12387.045)" fill="#fff"/><path d="M198.464,267.687a23.339,23.339,0,0,1,4.447,2.728A8.019,8.019,0,0,1,205.479,275a6.76,6.76,0,0,1-4.31-2.453A21.7,21.7,0,0,1,198.464,267.687Zm7.84,5.571a6.783,6.783,0,0,0,.275-1.88,10.164,10.164,0,0,0-2.567-6.763C204.012,269.361,204.241,271.195,206.3,273.258Zm.8,1.077s2.774-3.691,2.774-6.969a8.528,8.528,0,0,0-.321-2.522C208.265,265.5,207.107,266.678,207.107,274.335Zm3.484-4.379a12.04,12.04,0,0,0-1.765,4.654,9.269,9.269,0,0,0,5.25-7.336A7.857,7.857,0,0,0,210.591,269.956Zm9.721.643a8.718,8.718,0,0,0-3.874,6.9,7.318,7.318,0,0,0,.367,1.948C219.189,278.577,220.312,275.62,220.312,270.6Zm3.737,2.292a6.453,6.453,0,0,0-2.5,1.674,6.2,6.2,0,0,0-1.6,3.187A5.651,5.651,0,0,0,224.049,272.892Zm3.186,4.493a10.9,10.9,0,0,0-2.132-.321,7.551,7.551,0,0,0-5.341,2.774C222.842,280.1,225.439,279.463,227.235,277.385Zm-.779,7.588c-1.223-2.6-3.683-4.114-7.657-4.264a4.36,4.36,0,0,0,2.751,3.232A11.065,11.065,0,0,0,226.456,284.973Zm-17.578,9.286a.433.433,0,0,1-.432.03,42.086,42.086,0,0,1-2.206-9.769c.628-.418,1.577-1.129,1.577-1.129,3.871-1,5.413-3.748,5.181-7.817a14.948,14.948,0,0,0-5.96,7.336s-.385.643-.871.477c-.014-.335-.023-.67-.023-1a34.4,34.4,0,0,1,.963-7.038s-1.742,1.536-1.742,8.207c0,.126,0,.251,0,.376v0c-.094,1.009-.645.332-.645.332-1.922-5.107-3.608-7.282-7.7-9.033a15.292,15.292,0,0,0,7.038,9.445,3,3,0,0,1,1.419,1.4,41.61,41.61,0,0,0,1.346,7.336c-2.163-2.109-4.077-3.7-5.676-3.944,4.125,3.2,6.7,7.1,7.175,11.921l1.169-.5a7.87,7.87,0,0,1-.137-1.651c-.344-4.791,5.318-6.258,6.648-7.359a8.494,8.494,0,0,0-6.094,2.087c1.928-9.839,6.737-12.153,8.524-14.673C213.248,282.186,209.677,286.6,208.878,294.26Z" transform="translate(29971.758 12555.714)" fill="#fff"/></g></svg>