<svg xmlns="http://www.w3.org/2000/svg" id="Layer_2" viewBox="0 0 210 210"><g id="Layer_1-2"><g><g><circle cx="105" cy="105" r="105" fill="#e20613"></circle><path d="M105,5.32c54.96,0,99.68,44.72,99.68,99.68s-44.72,99.68-99.68,99.68S5.32,159.96,5.32,105,50.04,5.32,105,5.32m0-5.32C47.01,0,0,47.01,0,105s47.01,105,105,105,105-47.01,105-105S162.99,0,105,0h0Z" fill="#fff"></path></g><g><g><path d="M105,34.6c38.88,0,70.4,31.52,70.4,70.4s-31.53,70.4-70.4,70.4-70.4-31.52-70.4-70.4S66.13,34.6,105,34.6" fill="#fff" fill-rule="evenodd"></path><path d="M105,36.29c37.98,0,68.78,30.77,68.78,68.71s-30.8,68.71-68.78,68.71-68.77-30.77-68.77-68.71S67.03,36.29,105,36.29" fill="#e20613" fill-rule="evenodd"></path><path d="M105,37.69c37.2,0,67.37,30.14,67.37,67.31s-30.17,67.31-67.37,67.31-67.37-30.15-67.37-67.31S67.8,37.69,105,37.69" fill="#fff" fill-rule="evenodd"></path><path d="M105,50.78c29.97,0,54.27,24.28,54.27,54.22s-24.3,54.22-54.27,54.22-54.27-24.28-54.27-54.22,24.3-54.22,54.27-54.22" fill="#e20613" fill-rule="evenodd"></path><path d="M105,52.18c29.19,0,52.87,23.65,52.87,52.81s-23.68,52.82-52.87,52.82-52.87-23.65-52.87-52.82,23.68-52.81,52.87-52.81" fill="#fff" fill-rule="evenodd"></path><path d="M105,53.58c28.42,0,51.47,23.02,51.47,51.41s-23.05,51.43-51.47,51.43-51.46-23.03-51.46-51.43,23.04-51.41,51.46-51.41" fill="#e20613" fill-rule="evenodd"></path><path d="M102.58,122.35c-3.56-.25-6.28-.86-6.87-1-.77,2.12-1.99,4.54-3.93,6.76,3.48,.91,10.58,1.96,16.45,1.8,5.69-.16,7.72-.59,12.88-1.99,0,0,.54-1.91,.54-3.42s-.26-2.59-.68-3.48c-2.22,.56-4.48,1.06-7.41,1.35-1.68,.16-6.68,.29-11-.01Z" fill="#efec98"></path><path d="M127.03,87.76c-.73,1.97-.88,3.38-.88,3.38,7.78,3.35,11.38,7.69,11.38,7.69h1.81l.88-.97c-2.82-4.85-1.9-15.03-1.9-15.03l-3.13-1.02-3.05,4.15c-1.16-.55-2.31-1.05-3.45-1.5,0,0-.95,1.35-1.67,3.3Z" fill="#fff"></path><path d="M138.19,113.06c-1.07,.77-3.63,2.36-3.63,2.36,1.01,2.19,1.09,4.28,1.07,6,4.18-2.85,6.27-5.44,6.27-5.44l-3.7-2.91Z" fill="#fff"></path><path d="M83.33,114.81s-.27-.24-.39-.36c-9.03-8.86-1.9-17.58-1.97-17.73-1.68-3.82-1.61-7.45-1.59-8.8,0-.01,0-.03,0-.03-.1,.07-.32,.23-.34,.25-5.73,4.14-9.1,8.72-10.89,10.96-3.7,4.58-6.48,5.91-6.48,5.91,0,0,2.69,2.38,5.38,6.03,1.37,1.9,4.89,6.75,11.29,11.05,.97-1.03,2.02-2.36,3.1-4.08,.38-.62,1.75-2.73,1.9-3.19Z" fill="#fff"></path><line x1="119.67" y1="82.35" x2="119.69" y2="82.48" fill="#fff"></line><path d="M99.02,134.15c-6.6-.95-9.44-5.93-9.44-5.93,2.39-2.23,3.71-4.62,4.83-7.16,.6-1.37,1.28-3.93,1.06-6.08-.16-1.54-.93-3.13-2.86-3.94-2.43-1.01-5.28-.28-7.83,4.3-2.39,4.29-4.84,7.21-4.84,7.21,0,0-1.4,1.76-3.57,3.13-1.83,1.15-3.02,1.34-3.02,1.34l.93,3.62,4.8,.35c12.51,9.93,19.11,10.07,19.94,10.05v-6.89Z" fill="#fff"></path><path d="M130.68,111.1c-2.62-2.92-7.62-7.91-16.76-10.17v12.05c.93,.41,6.55,3.04,8.55,7.63,0,0,.02,.03,.02,.05,2.7,5.95-1.08,13.14-8.57,13.5v6.97c1.04-.03,11.23-.56,17.08-9.23,5.73-8.49,2.92-17.17-.32-20.8Z" fill="#fff"></path><path d="M125.88,75.33s-9.08-6.51-11.95-6.63v6.99c.64,.23,4.68,1.86,5.62,5.92h0s.36,1.61,.12,3.56c-.29,2.28-1.66,4.73-2.04,5.34-1.77,2.87-.2,6.16,2.67,6.01,2.19-.11,3.06-1.62,3.68-3.57,.25-.8,.63-3.28,2.46-7.38,1.91-4.27,4.86-6.83,4.86-6.83v-3.52s-2.69,1.92-5.42,.12Z" fill="#fff"></path><path d="M97.5,64.07c1.87,.02,3.42,1.45,3.37,4.14v10.53c1.72-.16,3.78-.31,5.35-.32,3.21-.03,5.85,.32,5.85,.32v-10.53c0-2.08,.99-3.69,2.79-4.1,1.91-.43,3.25,1.1,3.24,1.02-.25-5.4-4.75-5.73-4.75-5.73-2.69,0-3.45,1.19-3.45,1.19-1.46-2.33-3.39-2.95-3.39-2.95,0,0-2.03,.62-3.44,2.95,0,0-.75-1.19-3.44-1.19,0,0-4.61,.34-4.8,5.87,0,.05,.93-1.21,2.67-1.2Z" fill="#fff"></path><path d="M118.32,84.76c.18-1.92-.33-3.53-.33-3.53,0,0-3.47-.72-5.31-.97-2.01-.27-4.38-.46-6.99-.39-4.34,.13-10.11,.99-12.47,1.61,0,0-2.17,3.45-.21,7.98,0,0,7.63-1.98,13.24-2.15,5.69-.18,9.25,.83,10.79,1.13,0,0,1.08-1.66,1.27-3.68Z" fill="#fff"></path><g><path d="M114.83,145.69c-1.99-.4-2.76-2.1-2.76-3.98v-10.61c-2.09,.24-6.21,.3-11.2-.1v10.7c0,3.07-2,4.16-3.71,4-1.55-.15-2.33-1.25-2.33-1.18,.12,5.66,4.81,5.99,4.81,5.99,2.69,0,3.44-1.19,3.44-1.19,1.41,2.33,3.44,2.95,3.44,2.95,0,0,1.94-.61,3.39-2.95,0,0,.75,1.19,3.45,1.19,0,0,4.61-.34,4.76-5.93,0-.09-1.07,1.55-3.28,1.1Z" fill="#fff"></path><path d="M112.07,121.02v-31.78s-2.53-.37-5.41-.36c-3.19,0-5.79,.52-5.79,.52v31.36c1.65,.27,7.65,.44,11.2,.27Z" fill="#fff"></path></g><path d="M99.02,96.29s-8.33-2.16-8.33-10.73,8.33-9.95,8.33-9.95v-6.92s-17.09,3.33-18.29,18.29c-.94,11.65,7.75,18.28,18.29,21.45v-12.14Z" fill="#fff"></path><path d="M102.58,122.35c-3.56-.25-6.28-.86-6.87-1-.77,2.12-1.99,4.54-3.93,6.76,3.48,.91,10.58,1.96,16.45,1.8,5.69-.16,7.88-.6,13.05-2,0,0,.81-1.5,.67-3.93-.11-1.75-.97-2.97-.97-2.97-2.22,.56-4.48,1.06-7.41,1.35-1.68,.16-6.68,.29-11-.01Z" fill="#fff"></path><g><path d="M47.34,97.87l-1.17-1.41c.72-.63,1.18-1.4,1.34-2.26,.1-.56-.04-.89-.36-.95h-.02c-.31-.06-.53,.15-.95,1.13-.66,1.53-1.33,2.67-2.87,2.39h-.02c-1.39-.26-2.19-1.54-1.86-3.34,.23-1.27,.76-2.2,1.56-2.9l1.27,1.31c-.61,.6-1,1.3-1.12,1.96-.09,.5,.08,.79,.34,.84h.02c.34,.07,.54-.16,.96-1.16,.69-1.65,1.44-2.62,2.84-2.36h.02c1.53,.28,2.22,1.66,1.88,3.47-.24,1.33-.89,2.51-1.88,3.28Z" fill="#e20613"></path><path d="M48.15,89.23l.64-2.05,2.02,.63-.64,2.05-2.02-.63Z" fill="#e20613"></path><path d="M49.36,80.59h-.02c-1.97-1.02-2.74-3.33-1.7-5.38,.71-1.38,1.74-1.98,2.88-2.15l.37,1.97c-.68,.14-1.22,.43-1.55,1.07-.48,.95-.02,2.03,.96,2.53h.02c1.02,.53,2.15,.27,2.64-.68,.36-.71,.24-1.29-.04-1.95l1.73-.9c.55,1.09,.76,2.28,0,3.78-.99,1.93-3.27,2.74-5.29,1.7Z" fill="#e20613"></path><path d="M55.51,72.79l1.26-1.75,1.72,1.24-1.26,1.75-1.72-1.24Z" fill="#e20613"></path><path d="M56.55,62.45l1.42-1.57,5.63,5.11-1.42,1.57-5.63-5.11Z" fill="#e20613"></path><path d="M61.98,56.85l1.54-1.23,4.95,1.19-2.51-3.14,1.63-1.3,4.75,5.94-1.44,1.15-5.14-1.23,2.6,3.26-1.63,1.3-4.75-5.94Z" fill="#e20613"></path><path d="M75.01,50.01l-2.02,1.06-.86-1.64,5.91-3.1,.86,1.64-2.02,1.06,2.68,5.1-1.87,.98-2.68-5.1Z" fill="#e20613"></path><path d="M82.99,44.32l5.84-1.82,.53,1.71-3.85,1.2,.34,1.1,3.49-1.09,.49,1.59-3.49,1.09,.36,1.15,3.9-1.22,.53,1.71-5.89,1.84-2.26-7.26Z" fill="#e20613"></path><path d="M94.29,41.34l3.57-.41c1.15-.13,1.99,.08,2.56,.53,.49,.38,.79,.94,.87,1.68v.02c.14,1.15-.39,1.99-1.28,2.5l2.11,2.42-2.42,.28-1.79-2.11-.92,.11,.27,2.29-2.09,.24-.88-7.55Zm3.9,3.22c.71-.08,1.08-.48,1.02-1.03v-.02c-.07-.59-.54-.85-1.24-.76l-1.37,.16,.21,1.81,1.38-.16Z" fill="#e20613"></path><path d="M106.55,40.45l1.96,.15,2.8,4.25,.32-4.01,2.08,.16-.6,7.58-1.84-.15-2.91-4.41-.33,4.16-2.08-.16,.6-7.58Z" fill="#e20613"></path><path d="M122.06,42.75l1.95,.57,.97,8.26-2.17-.63-.15-1.46-2.82-.82-.9,1.15-2.13-.62,5.25-6.45Zm.47,4.99l-.21-2.31-1.43,1.84,1.64,.48Z" fill="#e20613"></path><path d="M129.5,49.4v-.02c1.02-1.97,3.33-2.74,5.38-1.69,1.38,.71,1.97,1.75,2.15,2.88l-1.97,.37c-.14-.68-.42-1.22-1.07-1.55-.95-.49-2.03-.03-2.53,.96v.02c-.53,1.01-.27,2.15,.68,2.64,.71,.36,1.29,.25,1.95-.04l.9,1.73c-1.09,.55-2.28,.76-3.78-.01-1.93-.99-2.73-3.27-1.69-5.29Z" fill="#e20613"></path><path d="M142.06,52.23l1.71,1.25-4.48,6.15-1.71-1.25,4.48-6.15Z" fill="#e20613"></path><path d="M145.33,59.53l.02-.02c1.56-1.53,4.05-1.52,5.7,.15,1.65,1.67,1.62,4.14,.06,5.67l-.02,.02c-1.56,1.53-4.05,1.52-5.7-.15-1.65-1.67-1.62-4.14-.06-5.67Zm4.24,4.3l.02-.02c.78-.77,.91-2.01,.09-2.83-.81-.82-2.02-.71-2.8,.06l-.02,.02c-.78,.77-.91,2.01-.1,2.83,.82,.83,2.02,.72,2.8-.05Z" fill="#e20613"></path><path d="M157.31,67.14l1.06,1.65-1.69,4.81,3.38-2.18,1.13,1.75-6.4,4.12-1-1.55,1.75-4.99-3.51,2.26-1.13-1.75,6.4-4.12Z" fill="#e20613"></path><path d="M164.87,80.88l.73,1.9-5.99,5.77-.81-2.11,1.07-1.01-1.05-2.74-1.46-.02-.8-2.07,8.31,.27Zm-3.69,3.4l1.71-1.57-2.33-.02,.61,1.59Z" fill="#e20613"></path><path d="M167.97,90.87l.37,2.07-5.67,1.02,.65,3.62-1.82,.33-1.03-5.7,7.48-1.35Z" fill="#e20613"></path></g><g><path d="M89.37,161.72l-1.31-.05,.03-1.68,2.31-.04,1.48,.39-1.96,7.4-2.01-.53,1.46-5.5Z" fill="#e20613"></path><path d="M95.09,168.07l1.14-1.34c.47,.47,.95,.71,1.56,.78,.86,.09,1.39-.46,1.6-1.42-.43,.33-1,.52-1.67,.44-1.47-.16-2.44-1.18-2.28-2.66v-.02c.18-1.67,1.58-2.62,3.31-2.43,1.1,.12,1.72,.5,2.23,1.14,.49,.6,.76,1.5,.61,2.9v.02c-.27,2.47-1.68,4.03-3.95,3.78-1.12-.12-1.91-.57-2.54-1.18Zm4.52-3.85v-.02c.07-.58-.31-1.07-.97-1.14-.66-.07-1.11,.32-1.17,.9v.02c-.06,.57,.31,1.04,.97,1.11,.66,.07,1.11-.32,1.16-.87Z" fill="#e20613"></path><path d="M105.72,165.83v-.02c-.15-2.15,1.09-4.04,3.25-4.19,2.16-.15,3.62,1.54,3.77,3.68v.02c.15,2.15-1.08,4.04-3.25,4.19-2.17,.15-3.62-1.54-3.77-3.68Zm4.91-.34v-.02c-.08-1.2-.72-2.04-1.55-1.98-.83,.06-1.33,.94-1.25,2.15v.02c.08,1.21,.71,2.04,1.55,1.98,.85-.06,1.33-.95,1.25-2.15Z" fill="#e20613"></path><path d="M117.79,167.55l.6-1.65c.61,.27,1.14,.34,1.73,.19,.84-.21,1.15-.92,1-1.89-.29,.45-.75,.83-1.41,1-1.43,.36-2.7-.26-3.07-1.7v-.02c-.42-1.63,.57-3,2.25-3.43,1.07-.27,1.78-.13,2.48,.29,.67,.39,1.23,1.14,1.58,2.5v.02c.62,2.41-.17,4.36-2.38,4.92-1.1,.28-1.98,.13-2.79-.22Zm2.9-5.19v-.02c-.15-.57-.67-.9-1.31-.73-.64,.16-.93,.68-.78,1.25v.02c.15,.56,.66,.86,1.3,.7s.93-.68,.79-1.22Z" fill="#e20613"></path></g></g><g><g><g><path d="M64.49,23.81l.85,1.54-4.65,2.57,.73,1.33,4.13-2.28,.84,1.53-4.13,2.28,1.02,1.84-1.81,1-3.44-6.23,6.46-3.57Z" fill="#fff"></path><path d="M76.23,26.51l-1.13-.99-4.06,1.65-.12,1.5-2.06,.84,.72-7.97,2.64-1.07,6.07,5.21-2.05,.83Zm-5.05-1.07l2.6-1.06-2.35-2.05-.25,3.11Z" fill="#fff"></path><path d="M86.83,21.37l-1.23-4.95,1.99-.49,1.71,6.91-2.93,.73-5.3-3.94,1.23,4.95-2,.5-1.71-6.91,2.94-.73,5.3,3.94Z" fill="#fff"></path><path d="M96.85,14.62l8.57-.35,.07,1.75-3.25,.13,.22,5.36-2.06,.08-.22-5.36-3.26,.13-.07-1.75Z" fill="#fff"></path><path d="M107.92,17.84c.2-2.35,1.94-3.6,4.93-3.34,2.98,.26,4.49,1.79,4.29,4.13-.2,2.35-1.95,3.62-4.93,3.36-2.99-.26-4.49-1.79-4.29-4.15Zm7.07,.61c.11-1.23-.53-2.05-2.29-2.2-1.75-.15-2.52,.53-2.62,1.78-.11,1.25,.54,2.07,2.28,2.22,1.75,.15,2.53-.55,2.64-1.79Z" fill="#fff"></path><path d="M129.41,17.57l-4.18,2.13,2.62,4.82-2.53-.57-1.82-3.36-1.99,1.01-.32,1.41-2.01-.46,1.57-6.95,2.02,.45-.7,3.12,4.34-2.29,3.02,.68Z" fill="#fff"></path><path d="M139.29,20.99l-.55,1.52-5-1.81-.39,1.07,4.81,1.74-.55,1.52-4.81-1.74-.39,1.07,5,1.81-.55,1.52-6.94-2.51,2.42-6.7,6.94,2.51Z" fill="#fff"></path><path d="M146.5,30.14l2.34-4.54,1.83,.94-3.27,6.33-2.69-1.39-1.39-6.47-2.34,4.54-1.84-.95,3.27-6.33,2.7,1.39,1.39,6.47Z" fill="#fff"></path></g><g><path d="M57.53,179.5c-.31,.51,0,1.15,1.6,2.12,1.47,.88,1.97,.87,2.2,.49,.27-.44,.04-.69-1.7-1.9-2.37-1.66-3.16-2.81-2.35-4.16,.77-1.27,2.49-1.02,4.6,.25,2.35,1.41,3.27,2.94,2.51,4.33l-1.85-1.11c.32-.54-.14-1.1-1.51-1.92-1.3-.78-1.72-.74-1.92-.41-.23,.38,0,.67,1.57,1.8,2.14,1.52,3.5,2.55,2.54,4.15-.94,1.56-2.66,1.15-4.83-.16-2.47-1.49-3.6-2.93-2.72-4.59l1.85,1.12Z" fill="#fff"></path><path d="M66.2,183.1c.94-2.17,2.98-2.79,5.74-1.6,2.75,1.19,3.69,3.12,2.76,5.28-.94,2.17-3,2.81-5.75,1.62-2.76-1.19-3.69-3.12-2.75-5.3Zm6.52,2.83c.49-1.14,.14-2.11-1.48-2.82-1.61-.7-2.56-.29-3.05,.85-.5,1.15-.14,2.13,1.46,2.83,1.61,.7,2.58,.28,3.07-.87Z" fill="#fff"></path><path d="M82.52,185.25c2.52,.71,3.65,2.19,3.36,4.01l-2.11-.59c.04-.67-.45-1.38-1.72-1.73-1.47-.41-2.38,.11-2.72,1.31-.34,1.21,.18,2.14,1.64,2.55,1.27,.35,2.06,0,2.37-.61l2.11,.59c-.7,1.72-2.43,2.41-4.96,1.71-2.75-.77-3.9-2.47-3.25-4.82,.66-2.34,2.52-3.19,5.27-2.42Z" fill="#fff"></path><path d="M91.13,187.38l-1.26,7-2.03-.37,1.26-7,2.03,.37Z" fill="#fff"></path><path d="M93.28,191.41c.19-2.35,1.92-3.6,4.91-3.36,2.98,.24,4.5,1.77,4.3,4.11-.19,2.35-1.93,3.62-4.92,3.38-2.99-.24-4.5-1.77-4.3-4.13Zm7.07,.58c.1-1.23-.54-2.04-2.3-2.19-1.75-.14-2.51,.55-2.62,1.79-.1,1.25,.55,2.06,2.29,2.21,1.75,.14,2.53-.56,2.63-1.81Z" fill="#fff"></path><path d="M107.35,193.3c.03,.6,.64,.96,2.51,.86,1.71-.09,2.12-.38,2.09-.83-.03-.52-.35-.59-2.47-.62-2.89-.05-4.2-.56-4.28-2.14-.08-1.48,1.49-2.24,3.95-2.36,2.74-.14,4.36,.6,4.5,2.18l-2.15,.11c-.03-.63-.73-.83-2.33-.75-1.51,.08-1.84,.35-1.82,.73,.02,.44,.37,.56,2.31,.62,2.62,.06,4.33,.15,4.43,2.02,.09,1.82-1.56,2.44-4.09,2.57-2.88,.15-4.63-.42-4.82-2.29l2.16-.11Z" fill="#fff"></path><path d="M117.06,193.29l1.97-.29,.22,1.53-1.97,.29-.23-1.53Z" fill="#fff"></path><path d="M124.91,185.93c2.55-.62,4.26,.12,4.9,1.85l-2.13,.52c-.29-.61-1.07-.98-2.35-.67-1.48,.36-2.02,1.26-1.73,2.48,.3,1.22,1.21,1.78,2.68,1.42,1.28-.31,1.8-1.01,1.77-1.7l2.13-.52c.23,1.84-.94,3.3-3.49,3.92-2.78,.68-4.62-.24-5.2-2.61-.58-2.36,.63-4.01,3.41-4.69Z" fill="#fff"></path><path d="M132.62,187.73c-.87-2.2,.14-4.09,2.93-5.19,2.78-1.1,4.82-.4,5.68,1.79,.87,2.2-.14,4.11-2.92,5.21-2.79,1.1-4.82,.4-5.69-1.81Zm6.61-2.61c-.45-1.15-1.39-1.6-3.03-.95-1.63,.64-2.02,1.6-1.56,2.76,.46,1.17,1.41,1.61,3.03,.97,1.63-.64,2.02-1.62,1.56-2.78Z" fill="#fff"></path><path d="M145.61,186.25l-3.58-6.16,2.78-1.62,4.52,2.84-.24-5.33,2.78-1.62,3.58,6.16-1.78,1.03-2.59-4.46,.28,5.81-1.65,.96-4.91-3.11,2.6,4.46-1.79,1.04Z" fill="#fff"></path></g></g><path d="M48.34,171.86c-18.95-16.08-30.98-40.07-30.98-66.86S30.03,52.95,49.85,36.88" fill="none" stroke="#fff" stroke-miterlimit="10" stroke-width="2.22"></path><path d="M160.16,36.89c19.82,16.07,32.48,40.61,32.48,68.11s-12.03,50.79-30.98,66.87" fill="none" stroke="#fff" stroke-miterlimit="10" stroke-width="2.22"></path></g></g></g></g></svg>