<?xml version="1.0" encoding="UTF-8"?>
<!DOCTYPE svg PUBLIC "-//W3C//DTD SVG 1.0//EN" "http://www.w3.org/TR/2001/REC-SVG-20010904/DTD/svg10.dtd">
<!-- Creator: CorelDRAW -->
<svg xmlns="http://www.w3.org/2000/svg" xml:space="preserve" width="100%" height="100%" version="1.0" style="shape-rendering:geometricPrecision; text-rendering:geometricPrecision; image-rendering:optimizeQuality; fill-rule:evenodd; clip-rule:evenodd"
viewBox="0 0 13778.02 13778.02"
 xmlns:xlink="http://www.w3.org/1999/xlink"
 xmlns:xodm="http://www.corel.com/coreldraw/odm/2003">
 <defs>
  <style type="text/css">
   <![CDATA[
    .fil1 {fill:#041423}
    .fil3 {fill:#041423}
    .fil2 {fill:url(#id0)}
    .fil0 {fill:url(#id1)}
   ]]>
  </style>
  <linearGradient id="id0" gradientUnits="userSpaceOnUse" x1="6873.15" y1="3296.51" x2="6832.63" y2="11158.11">
   <stop offset="0" style="stop-opacity:1; stop-color:#F2C96D"/>
   <stop offset="1" style="stop-opacity:1; stop-color:#8D662B"/>
  </linearGradient>
  <linearGradient id="id1" gradientUnits="userSpaceOnUse" x1="3136.17" y1="1409.52" x2="11155.66" y2="12298.09">
   <stop offset="0" style="stop-opacity:1; stop-color:#EABE65"/>
   <stop offset="1" style="stop-opacity:1; stop-color:#8B652A"/>
  </linearGradient>
 </defs>
 <g id="Layer_x0020_1">
  <metadata id="CorelCorpID_0Corel-Layer"/>
  <circle class="fil0" cx="6889.01" cy="6889.01" r="6889.01"/>
  <circle class="fil1" cx="6889.01" cy="6889.01" r="6360.44"/>
  <path class="fil2" d="M5501.5 5581.56c-42.87,-44.47 -14.58,11.17 -39.2,-75.16l-13.75 -1050.39c-21.5,93.73 -30.29,49.05 -41.41,133.17 -17.51,132.4 -28.78,412.46 -65.48,474.76l-31.39 -63.76c-10.12,-37.74 -5.53,-55.92 -12.6,-84.56 -35.49,-143.55 -36.24,27.32 -55.66,-112.86 -105.65,102.9 -410.22,83.32 -143.77,142.6 -291.8,164.82 -1116.1,456.13 -1228.28,463.8 -40.61,2.77 13.92,-17.14 -25.1,20.43l-20.01 27.97c-13.2,-115.27 -28.15,-59.95 -93.01,-74.84 -77.2,-17.71 6.94,-37.93 -71.63,-21.35 -50.31,10.63 -30.41,-31.57 -28.81,48.16 74.87,41.86 169.3,-79.29 181.72,132 6.26,106.38 -4.12,238.82 -10.04,346.11 -9.43,170.63 -29.05,510.85 -12.43,668.17 36.08,61.53 29.22,500.8 30.49,574.89 21.65,12.37 -27.1,46.06 23.25,-46.2 1.67,-3.05 4.86,-10.19 8.33,-14.6 1.68,61.41 -6.57,54.39 16.38,92.28 44.71,-22 155.39,-36.45 226.15,-34.51 -30.53,-14.81 -56.9,-21.76 -96.57,-30.61l0 -47.45c83.54,-1.03 47.6,-25.41 127.32,-23.61 90.77,2.04 77.05,5.17 122.24,43.99 32.78,-48.92 50.01,-33.17 61.62,-77.26 15.18,-57.7 -29.7,41.28 3.26,-51.36 1.85,-3.61 1595.32,-672.59 1602.28,-672.69 0.92,-73.8 21.29,-101.59 54.38,-167.75 69.64,105.44 25.79,124.81 79.47,166.25 72.55,-115.7 2.77,-197.93 109.02,-342.74l-59.85 290.42c-10.89,100.18 3.72,96.16 33.35,120.68 41.53,-636.95 446.29,-1146.73 794.97,-1405.83 211.76,-157.33 443.4,-285.96 755.01,-355.23 294.96,-65.57 672.65,-90.08 960.71,-1.65 26.6,-54.21 79.48,-53.16 -117.94,-83.16 -122.62,-18.62 -441.82,-71.73 -533.47,-24.53 101.97,2.29 120.3,-6 203.25,-20.49 103.94,-18.15 33.36,19.35 168.96,16.13 3.92,-3.39 9.52,-14.1 11.33,-10.59l144.85 -125.12c44.82,-25.33 152.69,-60.04 215.64,-73.66 -32.09,-91.2 4.08,-30.86 -76.5,-74.26l76.49 -2.51c1.71,-128.45 -7.95,-80.42 31.5,-142.57 2.29,-3.62 6.49,-7.31 8.7,-11.18l14.27 -27.55c11.72,-35.15 7.42,-57.62 7.42,-94.61 34.26,-13.97 44.39,0.76 92.65,-47.59 -71.09,-1.35 -236.18,-30.12 -279.16,7.18 301.2,-13.24 572.78,-41.94 883.88,-51.89 -23.86,-25.06 -3.28,-41.76 -136.61,-43.59l-108.53 -70.36c-32.53,-45.41 -56.73,-28.75 28.74,-30.21 8.21,-0.15 73.11,-3.08 78.5,-4.43 98.55,-24.69 24.35,6.84 69.89,-34.71l-232.82 -5.66c225.59,-6.52 454.04,-5.75 680.58,-5.69l517.43 -3.38c150.18,4.68 107.37,25.11 140.03,-15.29 -92.73,-71.23 -1510.03,-33.49 -1747.54,-31.85 -314.41,2.16 -1032.03,-44.42 -1263.02,67.29 -166.28,80.39 -519.18,487.25 -691.76,648.12 -376.57,351.04 -742.86,765.84 -1119.58,1099.45 -93.91,83.15 -119.3,147.8 -206.06,230.12l-2.08 -24.68zm1751.83 3572.98c48.33,70.46 205.19,212.32 276.5,282.25 96.05,94.19 184.47,179.74 277.54,276.78l413.89 427.76c41.01,39.75 87.36,97.68 132.78,135.15 244.99,202.11 610.46,150.97 965.44,148.15 362.98,-2.87 727.35,-9.32 1090.07,-8.49 184.24,0.41 372.18,9.43 555.36,6.65 172.73,-2.64 314.75,-76.13 252.32,-274.75 -35.45,-112.81 -175.52,-220.61 -254.04,-300.84l-1079.57 -1119.6c-81.27,-81.13 -185.05,-203.1 -270.93,-261.89 -14.09,12.18 26.57,94.3 -83.81,-11.54l-171.16 -203.51c-2.3,3.63 -3.71,10.16 -4.55,12.08l-8.73 20.6c-5.61,9.4 47.01,37.77 -86.33,-12.52 1.54,52.43 30.84,85.25 -85.75,153.14 -1.77,1.04 -6.56,3.27 -8.41,4.18 -1.96,0.95 -7.29,2.38 -9.39,3.28l-44.15 18.17c-89.94,47.55 -35.65,32.83 -211.67,32.83l-29.73 55.36c-11.55,16.38 19.42,14.06 -36.02,32.79 -38.13,12.88 -48.99,-5.85 -113.4,-13.17 -13.61,62.38 -23.96,57.3 -38.69,119.1l-168.63 -19.87c-23.51,104.01 -81.51,114.27 -206.37,114.27l-50.76 -19.01c-20.02,110.04 55.76,21.69 -276.62,21.68l-2.59 187.63c-35.55,0.69 -72.59,-2.22 -107.25,5.09 -42.54,8.98 -107.41,46.24 -175.54,38.32l-58.02 -21.05c-2.59,105.62 -0.61,88.2 -42.72,149.28 -123.11,-3.11 -156.2,-121.14 -280.95,-19.08 -60.1,-54.14 -20.26,-51.35 -120.75,-82.06 2.35,5.67 7.27,11.56 9.88,15.52l28.5 41.96c2.47,4.12 5.88,8.48 8,12.42l16.25 52.94zm-3500.56 -2504.01c51.03,129.15 26.18,1587.13 25.9,1857.11l13.41 1415.19c0.57,76.55 0.22,153.03 0.47,229.57 0.12,38.15 1.88,79.47 1.36,116.95 -0.97,68.21 11.94,67.59 -20.33,96.91l13.9 -2277.25 3.17 -1533.2c-16.62,-157.32 3,-497.54 12.43,-668.17 5.92,-107.29 16.3,-239.73 10.04,-346.11 -12.42,-211.29 -106.85,-90.14 -181.72,-132 -1.6,-79.73 -21.5,-37.53 28.81,-48.16 78.57,-16.58 -5.57,3.64 71.63,21.35 64.86,14.89 79.81,-40.43 93.01,74.84l20.01 -27.97c39.02,-37.57 -15.51,-17.66 25.1,-20.43 112.18,-7.67 936.48,-298.98 1228.28,-463.8 -266.45,-59.28 38.12,-39.7 143.77,-142.6 19.42,140.18 20.17,-30.69 55.66,112.86 7.07,28.64 2.48,46.82 12.6,84.56l31.39 63.76c36.7,-62.3 47.97,-342.36 65.48,-474.76 11.12,-84.12 19.91,-39.44 41.41,-133.17l13.75 1050.39c24.62,86.33 -3.67,30.69 39.2,75.16l10.73 -2008.47c-413.23,-32.14 -929.96,0.22 -1356.5,-3.35 -183.16,-1.52 -158.69,-14.95 -258.61,89.1l-1527.05 1475.73c-148.6,174.18 -80.83,75.32 -177.27,166.88 -73.55,69.81 -135.33,115.92 -163.24,173.88 583.8,25.45 1154.41,-6.65 1727.63,1.86l-4.42 1173.34zm1760.53 786.26c-74.53,296.45 -37.68,2498.46 -37.68,2983.17 67.94,-186.01 2.33,-1209.1 -1.95,-1491.59l-23.12 -1452.75c-69.58,-22.46 -69.92,81.72 -83.85,211.59 -9.97,92.96 -4.98,244.16 -5.18,342.58l-24.38 -134.3c-1.87,-68.8 2.51,-82.34 -21.6,-126.93 -123.14,48.05 70.02,77.3 -165.12,77.36l-40.15 73.46 -36.35 -73.46c-15.11,30.05 -23.21,76.57 -31.41,114.16 -104.32,-0.1 -60.34,-17.14 -133.88,-0.2 24.15,61.26 92.53,63.42 -7.47,83.62 -47.58,9.6 -84.9,-35.02 -107.26,-45.38 -4.9,4.07 -16.76,14.68 -19.86,18.21l-37.52 58.68 -285.7 0.33 169 121.44c-32.93,27.79 52.64,37.86 -75.17,20.54 -64.76,-8.77 -35.4,-49.02 -154.53,-1.41 68.89,37.91 56.61,11.25 95.01,85.42l-107.51 46.45c-97.74,57.75 -93.99,13.32 -176.49,35.51 -101.78,27.38 -9.32,84.26 -255.53,90.92 -29.88,52.5 14.26,100.81 -88.42,72.02 -127.07,-35.64 14.38,-315.07 -69.7,-457.22l-13.9 2277.25c32.27,-29.32 19.36,-28.7 20.33,-96.91 0.52,-37.48 -1.24,-78.8 -1.36,-116.95 -0.25,-76.54 0.1,-153.02 -0.47,-229.57l-13.41 -1415.19c0.28,-269.98 25.13,-1727.96 -25.9,-1857.11l-4.57 3780.6c274.63,12.18 606.71,-2.22 885.87,-8.78 282.27,-6.63 610.01,12.73 870.52,-1.59l8.71 -2983.97zm2433.65 -1053.98c235.88,-119.39 335.42,258.25 151.58,329.72 -218.88,85.09 -361.59,-223.41 -151.58,-329.72zm695.51 -1809.98c277.51,66.76 375.43,138.3 591.37,247.54 -72.67,70.3 -68.81,98.8 -174.22,177.2 -57.21,42.55 -130.36,130.3 -176.85,185.65 -297.81,354.57 -426.67,450.6 -701.86,751.23 -117.96,128.87 -28.9,78.3 -239.36,125.3 -94.75,21.15 -179.87,43.17 -243.27,99.35 -118.76,105.21 -221.21,312.05 -172.26,545.82 57.48,274.56 567.03,541.11 878.9,141.88 189.81,-242.98 47.23,-373.48 73.2,-597.92 61.79,-54.84 110.57,-97.64 162.06,-161.12l1618.97 -1784.95c99.05,-119.44 657.61,-576.16 272.4,-709.7 -32.66,40.4 10.15,19.97 -140.03,15.29l-517.43 3.38c-226.54,-0.06 -454.99,-0.83 -680.58,5.69l232.82 5.66c-45.54,41.55 28.66,10.02 -69.89,34.71 -5.39,1.35 -70.29,4.28 -78.5,4.43 -85.47,1.46 -61.27,-15.2 -28.74,30.21l108.53 70.36c133.33,1.83 112.75,18.53 136.61,43.59 -311.1,9.95 -582.68,38.65 -883.88,51.89 42.98,-37.3 208.07,-8.53 279.16,-7.18 -48.26,48.35 -58.39,33.62 -92.65,47.59 0,36.99 4.3,59.46 -7.42,94.61l-14.27 27.55c-2.21,3.87 -6.41,7.56 -8.7,11.18 -39.45,62.15 -29.79,14.12 -31.5,142.57l-76.49 2.51c80.58,43.4 44.41,-16.94 76.5,74.26 -62.95,13.62 -170.82,48.33 -215.64,73.66l-144.85 125.12c-1.81,-3.51 -7.41,7.2 -11.33,10.59 -135.6,3.22 -65.02,-34.28 -168.96,-16.13 -82.95,14.49 -101.28,22.78 -203.25,20.49 91.65,-47.2 410.85,5.91 533.47,24.53 197.42,30 144.54,28.95 117.94,83.16zm-4851.81 1982.98l-3.17 1533.2c84.08,142.15 -57.37,421.58 69.7,457.22 102.68,28.79 58.54,-19.52 88.42,-72.02 246.21,-6.66 153.75,-63.54 255.53,-90.92 82.5,-22.19 78.75,22.24 176.49,-35.51l107.51 -46.45c-38.4,-74.17 -26.12,-47.51 -95.01,-85.42 119.13,-47.61 89.77,-7.36 154.53,1.41 127.81,17.32 42.24,7.25 75.17,-20.54l-169 -121.44 285.7 -0.33 37.52 -58.68c3.1,-3.53 14.96,-14.14 19.86,-18.21 22.36,10.36 59.68,54.98 107.26,45.38 100,-20.2 31.62,-22.36 7.47,-83.62 73.54,-16.94 29.56,0.1 133.88,0.2 8.2,-37.59 16.3,-84.11 31.41,-114.16l36.35 73.46 40.15 -73.46c235.14,-0.06 41.98,-29.31 165.12,-77.36 24.11,44.59 19.73,58.13 21.6,126.93l24.38 134.3c0.2,-98.42 -4.79,-249.62 5.18,-342.58 13.93,-129.87 14.27,-234.05 83.85,-211.59l23.12 1452.75c4.28,282.49 69.89,1305.58 1.95,1491.59 0,-484.71 -36.85,-2686.72 37.68,-2983.17l14.83 -39.67c50.77,111.29 515.02,554.55 565.72,580.73 33.1,-23.91 54.53,27.1 -11.34,-54.66l-196.85 -204.88c-29.21,-47.07 7.54,-17.5 -25.19,-110.25 -36.74,-104.15 -25.41,-49.21 -15.81,-146.09 44.85,22.12 22.25,92.95 47.16,44.55 2.08,-4.05 7.82,9.64 10.92,13.91l12.65 -74.73 75.99 13.41c2.16,0.34 7.56,1.04 9.58,1.42l35.94 10.35c10.26,1.94 28.41,21.61 86.91,-14.56l61.28 -55.63c26.85,-30.57 8.8,-5.95 23.38,-33.44 29.82,105.46 79.68,102.46 80.08,102.74l167.42 227.13c98.37,128.2 63.18,106.44 128.29,85.3 -38.15,-73.24 -114.7,-132.04 -199.61,-279.05 -202.23,-350.16 -299.23,-740.21 -252.88,-1167.83 -29.63,-24.52 -44.24,-20.5 -33.35,-120.68l59.85 -290.42c-106.25,144.81 -36.47,227.04 -109.02,342.74 -53.68,-41.44 -9.83,-60.81 -79.47,-166.25 -33.09,66.16 -53.46,93.95 -54.38,167.75 -6.96,0.1 -1600.43,669.08 -1602.28,672.69 -32.96,92.64 11.92,-6.34 -3.26,51.36 -11.61,44.09 -28.84,28.34 -61.62,77.26 -45.19,-38.82 -31.47,-41.95 -122.24,-43.99 -79.72,-1.8 -43.78,22.58 -127.32,23.61l0 47.45c39.67,8.85 66.04,15.8 96.57,30.61 -70.76,-1.94 -181.44,12.51 -226.15,34.51 -22.95,-37.89 -14.7,-30.87 -16.38,-92.28 -3.47,4.41 -6.66,11.55 -8.33,14.6 -50.35,92.26 -1.6,58.57 -23.25,46.2 -1.27,-74.09 5.59,-513.36 -30.49,-574.89zm2793.61 1226.61c-65.11,21.14 -29.92,42.9 -128.29,-85.3l-167.42 -227.13c-0.4,-0.28 -50.26,2.72 -80.08,-102.74 -14.58,27.49 3.47,2.87 -23.38,33.44l-61.28 55.63c-58.5,36.17 -76.65,16.5 -86.91,14.56l-35.94 -10.35c-2.02,-0.38 -7.42,-1.08 -9.58,-1.42l-75.99 -13.41 -12.65 74.73c-3.1,-4.27 -8.84,-17.96 -10.92,-13.91 -24.91,48.4 -2.31,-22.43 -47.16,-44.55 -9.6,96.88 -20.93,41.94 15.81,146.09 32.73,92.75 -4.02,63.18 25.19,110.25l196.85 204.88c65.87,81.76 44.44,30.75 11.34,54.66 42.82,84.85 212.14,231.59 288.62,311.28 97.8,101.92 183.76,191.72 282.47,291.23l588.39 574.18 -16.25 -52.94c-2.12,-3.94 -5.53,-8.3 -8,-12.42l-28.5 -41.96c-2.61,-3.96 -7.53,-9.85 -9.88,-15.52 100.49,30.71 60.65,27.92 120.75,82.06 124.75,-102.06 157.84,15.97 280.95,19.08 42.11,-61.08 40.13,-43.66 42.72,-149.28l58.02 21.05c68.13,7.92 133,-29.34 175.54,-38.32 34.66,-7.31 71.7,-4.4 107.25,-5.09l2.59 -187.63c332.38,0.01 256.6,88.36 276.62,-21.68l50.76 19.01c124.86,0 182.86,-10.26 206.37,-114.27l168.63 19.87c14.73,-61.8 25.08,-56.72 38.69,-119.1 64.41,7.32 75.27,26.05 113.4,13.17 55.44,-18.73 24.47,-16.41 36.02,-32.79l29.73 -55.36c176.02,0 121.73,14.72 211.67,-32.83l44.15 -18.17c2.1,-0.9 7.43,-2.33 9.39,-3.28 1.85,-0.91 6.64,-3.14 8.41,-4.18 116.59,-67.89 87.29,-100.71 85.75,-153.14 133.34,50.29 80.72,21.92 86.33,12.52l8.73 -20.6c0.84,-1.92 2.25,-8.45 4.55,-12.08l171.16 203.51c110.38,105.84 69.72,23.72 83.81,11.54 -182.77,-203.9 -403.32,-430.88 -612.84,-633.06 -43.79,-42.26 -112.84,-101.42 -159.14,-146.5 -78.49,-76.43 -320.94,-385.49 -439.19,-475.04 -54.7,22.53 -105.38,87.66 -158.16,143.9l-300.94 291.57c-127.15,152.45 -161.2,133.23 -228.68,211.24 -88.58,102.4 -459.46,486.87 -523.28,514.92 -24,-26.42 -36.87,-53.03 -63.42,-81.95l-542.78 -508.37zm3016.46 -1966.21c253.72,424.45 239.47,1170.09 -98.96,1612.13 -56.1,73.27 -122.24,107.01 -148.65,180.47 39.14,63.6 155.76,207.23 223.88,238.12 65.42,-158.14 417.54,-430.37 496.73,-1155.33 22.68,-207.63 -30.92,-551.83 -89.15,-739.29 -49.15,-158.27 -191.99,-447.21 -282.61,-527.44l-40.28 19.61c-56.19,33.08 -180.31,124.11 -203.69,175.42 53.81,81.28 89.14,106.65 142.73,196.31zm-2887.92 453.02c1.78,-4.91 4.02,-10.37 5.85,-15.81l62.98 -208.19c32.78,-85.87 50.42,-131.38 97.83,-207.97 97.11,-156.9 173.59,-240.81 273.28,-351.23 -27.01,-59.53 -131.82,-208.66 -185.53,-273.18 -116.21,52.72 -289.66,318.57 -367.47,460.67 -95.81,174.98 -191.14,361.46 -218.31,570.08l318.04 57.6 13.33 -31.97zm656.01 -947.89c94.61,-40.03 175.78,-103.16 284.56,-142.88 112.83,-41.21 225.76,-40.29 327.98,-69.98 28.06,-57.23 24.71,-285.88 22.59,-349.68 -181.25,23.3 -330.18,47.73 -479.79,116.37 -91.17,41.82 -278.19,118.22 -359.64,178.61 -20.42,15.13 -21.75,16.99 -36.71,30.65l241.01 236.91zm578.14 1061.47c-210.01,106.31 -67.3,414.81 151.58,329.72 183.84,-71.47 84.3,-449.11 -151.58,-329.72zm279.68 -1272.9l136.27 19.38c42.34,-57.9 123.21,-268.98 133.71,-347.75l-294.34 -29.56 24.36 357.93zm-1518.2 1512.26c2.79,-6.44 9.74,-4.81 14.25,-7.81 -4.39,-103.96 -55.99,-84.46 -164.25,-111.34 -64.33,-15.97 -130.04,-35.68 -200.09,-41.4l-3.17 196.01 353.26 -35.46z"/>
  <circle class="fil3" cx="8009.65" cy="6582.8" r="218.98"/>
 </g>
</svg>
