<svg width="100" height="100" viewBox="0 0 100 100" fill="none" xmlns="http://www.w3.org/2000/svg">
<g clip-path="url(#clip0_1124_12819)">
<path d="M83.5619 83.5619C87.9238 79.2 91.3429 74.1238 93.7333 68.4714C96.2095 62.619 97.4619 56.4048 97.4619 49.9952C97.4619 43.5857 96.2095 37.3714 93.7333 31.519C91.3429 25.8667 87.919 20.7905 83.5619 16.4286C79.2 12.0667 74.1238 8.64761 68.4714 6.25714C62.6238 3.78571 56.4095 2.52856 50 2.52856C50.0143 16.4476 50.0143 83.5429 50 97.4619C56.4048 97.4619 62.619 96.2048 68.4714 93.7333C74.1238 91.3428 79.2 87.919 83.5619 83.5619Z" fill="#A80533"/>
<path d="M50.0046 2.53334C50.0046 2.53334 50.0046 2.53334 49.9999 2.53334C43.5903 2.53334 37.3761 3.78572 31.5237 6.26191C25.8713 8.65239 20.7951 12.0762 16.4332 16.4333C12.0713 20.7952 8.65225 25.8714 6.26177 31.5238C3.78558 37.3762 2.5332 43.5905 2.5332 50C2.5332 56.4095 3.78558 62.6238 6.26177 68.4762C8.65225 74.1286 12.0761 79.2048 16.4332 83.5667C20.7951 87.9286 25.8713 91.3476 31.5237 93.7381C37.3761 96.2143 43.5903 97.4667 49.9999 97.4667C49.9999 97.4667 49.9999 97.4667 50.0046 97.4667C50.0189 83.5476 50.0189 16.4571 50.0046 2.53334Z" fill="#FCB813"/>
<path d="M98.4238 37.5048C98.219 36.7048 97.9952 35.9143 97.7524 35.1333C97.5095 34.3524 97.2476 33.5762 96.9667 32.8095C96.8286 32.4286 96.681 32.0476 96.5333 31.6667C96.2333 30.9095 95.919 30.1619 95.5857 29.4238C95.419 29.0524 95.2476 28.6857 95.0714 28.3238C94.719 27.5952 94.3524 26.8762 93.9667 26.1667C93.7762 25.8143 93.5762 25.4619 93.3762 25.1095C92.9762 24.4095 92.5571 23.7238 92.1238 23.0476C91.6905 22.3714 91.2429 21.7048 90.7762 21.0524C90.5429 20.7238 90.3095 20.4 90.0667 20.081C89.5857 19.4381 89.0905 18.8095 88.581 18.1905C87.8191 17.2667 87.0191 16.3667 86.1905 15.5C84.5333 13.7619 82.7571 12.1476 80.8667 10.6619C79.9238 9.91905 78.9524 9.20952 77.9524 8.5381C76.9571 7.86191 75.9333 7.22381 74.8857 6.62381C73.1429 5.61905 71.3286 4.71905 69.4619 3.92857C63.4809 1.4 56.9048 0 50 0C43.0952 0 36.519 1.4 30.5381 3.92857C28.6667 4.71905 26.8571 5.61905 25.1143 6.62381C24.0667 7.22381 23.0429 7.86667 22.0476 8.5381C21.0524 9.21429 20.0762 9.91905 19.1333 10.6619C17.2429 12.1476 15.4667 13.7619 13.8095 15.5C12.981 16.3667 12.1857 17.2667 11.419 18.1905C10.9095 18.8095 10.4143 19.4381 9.93333 20.081C9.69524 20.4 9.45714 20.7238 9.22381 21.0524C8.75714 21.7048 8.30952 22.3714 7.87619 23.0476C7.44286 23.7238 7.02381 24.4095 6.62381 25.1095C6.42381 25.4571 6.22857 25.8095 6.03333 26.1667C5.64762 26.8762 5.28095 27.5952 4.92857 28.3238C4.75238 28.6905 4.58095 29.0571 4.41429 29.4238C4.08095 30.1619 3.7619 30.9095 3.46667 31.6667C3.31905 32.0429 3.17143 32.4238 3.03333 32.8095C2.75238 33.5762 2.49048 34.3476 2.24762 35.1333C2.00476 35.9143 1.78095 36.7095 1.57619 37.5048C0.547619 41.5 0 45.6857 0 50C0 54.3143 0.547619 58.5 1.57619 62.4952C1.78095 63.2952 2.00476 64.0857 2.24762 64.8667C2.49048 65.6476 2.75238 66.4238 3.03333 67.1905C3.45238 68.3381 3.91429 69.4667 4.41429 70.5762C4.91429 71.6857 5.45714 72.7714 6.03333 73.8333C6.60952 74.8952 7.22381 75.9333 7.87619 76.9476C8.30952 77.6238 8.75714 78.2905 9.22381 78.9429C9.45714 79.2714 9.69048 79.5952 9.93333 79.9143C10.6524 80.8762 11.4048 81.8143 12.1905 82.719C12.7143 83.3238 13.2524 83.9143 13.8048 84.4952C15.4619 86.2333 17.2381 87.8476 19.1286 89.3333C20.0714 90.0762 21.0429 90.7857 22.0429 91.4571C24.7048 93.2524 27.5429 94.8 30.5381 96.0667C36.519 98.5952 43.0952 99.9952 50 99.9952C56.9048 99.9952 63.4809 98.5952 69.4619 96.0667C72.4524 94.8 75.2952 93.2524 77.9571 91.4571C78.9524 90.781 79.9286 90.0762 80.8714 89.3333C82.7619 87.8476 84.5381 86.2333 86.1952 84.4952C86.7476 83.9143 87.2857 83.3238 87.8095 82.719C88.5952 81.8095 89.3476 80.8762 90.0667 79.9143C90.3048 79.5952 90.5429 79.2714 90.7762 78.9429C91.2429 78.2905 91.6905 77.6238 92.1238 76.9476C92.7762 75.9333 93.3905 74.8952 93.9667 73.8333C94.5429 72.7714 95.0857 71.6857 95.5857 70.5762C96.0857 69.4667 96.5476 68.3381 96.9667 67.1905C97.2476 66.4238 97.5095 65.6524 97.7524 64.8667C97.9952 64.0857 98.219 63.2905 98.4238 62.4952C99.4524 58.5 100 54.3143 100 50C100 45.6857 99.4524 41.5 98.4238 37.5048ZM68.4714 93.7381C62.6238 96.2095 56.4095 97.4667 50 97.4667C50 97.4667 50 97.4667 49.9952 97.4667C43.5857 97.4667 37.3714 96.2143 31.519 93.7381C25.8667 91.3476 20.7905 87.9238 16.4286 83.5667C12.0667 79.2048 8.64762 74.1286 6.25714 68.4762C3.78095 62.6238 2.52857 56.4095 2.52857 50C2.52857 43.5905 3.78095 37.3762 6.25714 31.5238C8.64762 25.8714 12.0714 20.7952 16.4286 16.4333C20.7905 12.0714 25.8667 8.65238 31.519 6.2619C37.3714 3.78571 43.5857 2.53333 49.9952 2.53333C49.9952 2.53333 49.9952 2.53333 50 2.53333C56.4048 2.53333 62.619 3.79048 68.4714 6.2619C74.1238 8.65238 79.2 12.0762 83.5619 16.4333C87.9238 20.7952 91.3429 25.8714 93.7333 31.5238C96.2095 37.3762 97.4619 43.5905 97.4619 50C97.4619 56.4095 96.2095 62.6238 93.7333 68.4762C91.3429 74.1286 87.919 79.2048 83.5619 83.5667C79.2 87.9286 74.1238 91.3476 68.4714 93.7381Z" fill="#7A052A"/>
<path d="M31.5049 55.6143C31.5049 42.0667 39.7858 31.0857 50.0049 31.0857C60.2239 31.0857 68.5049 42.0667 68.5049 55.6143C68.5049 69.1619 60.2239 80.1429 50.0049 80.1429C39.7858 80.1429 31.5049 69.1619 31.5049 55.6143Z" fill="white"/>
<path fill-rule="evenodd" clip-rule="evenodd" d="M62.6427 57.5762C62.8617 58.5238 62.976 59.5095 62.976 60.5238C62.976 67.6524 57.1998 73.4286 50.0713 73.4286C42.9427 73.4286 37.1665 67.6524 37.1665 60.5238C37.1665 53.3952 42.9427 47.619 50.0713 47.619C53.6284 47.619 56.8522 49.0619 59.1998 51.3905L57.0998 53.5238C55.2998 51.6952 52.8427 50.5952 50.0713 50.5952C44.5856 50.5952 40.1427 55.0429 40.1427 60.5238C40.1427 66.0048 44.5903 70.4524 50.0713 70.4524C55.5522 70.4524 60.0094 66.0048 60.0094 60.5238H56.2951V57.581H62.6427V57.5762Z" fill="#A80533"/>
<path fill-rule="evenodd" clip-rule="evenodd" d="M47.9714 47.2048C47.0238 46.5381 46.3952 45.4381 46.3952 44.1905C46.3952 42.1571 48.0428 40.5095 50.0762 40.5095C52.1095 40.5095 53.7571 42.1571 53.7714 44.1905H56.6952C56.6809 40.5429 53.7238 37.5857 50.0809 37.5857C46.4333 37.5857 43.4762 40.5429 43.4762 44.1905C43.4762 46.4143 44.5762 48.381 46.2619 49.5762L54.2428 54.9333C56.2571 56.481 56.9857 59.019 56.9857 60.519C56.9857 64.3333 53.8952 67.4238 50.0809 67.4238C46.2667 67.4238 43.1762 64.3333 43.1762 60.519C43.1762 59.5286 43.4333 58.4286 43.8095 57.5762H40.9714C40.6714 58.5 40.5571 59.4952 40.5571 60.519C40.5571 65.781 44.8238 70.0476 50.0857 70.0476C55.3476 70.0476 59.6143 65.781 59.6143 60.519C59.6143 57.381 58.1 54.5952 55.7619 52.8619L47.9809 47.2048H47.9714Z" fill="#FCB813"/>
<path fill-rule="evenodd" clip-rule="evenodd" d="M60.0189 60.5238H56.2998V57.581H62.6474C62.8665 58.5238 62.9808 59.5095 62.9808 60.5238H60.0189Z" fill="#A80533"/>
<path fill-rule="evenodd" clip-rule="evenodd" d="M46.6284 60.5476H46.0379V58.4714H45.3188V58.0762C45.4427 58.0762 45.5665 58.0619 45.6855 58.0381C45.8046 58.0095 45.9046 57.9714 45.976 57.919C46.0474 57.8667 46.1093 57.8095 46.1522 57.7476C46.1998 57.6857 46.2284 57.619 46.2379 57.5429H46.6331V60.5429L46.6284 60.5476Z" fill="#231F20"/>
<path fill-rule="evenodd" clip-rule="evenodd" d="M47.8188 59.8429C47.8092 59.9095 47.833 59.9857 47.8997 60.0619C47.9664 60.1381 48.0473 60.1762 48.1426 60.1762H48.1949C48.2949 60.1762 48.3807 60.1476 48.4473 60.0952C48.5188 60.0381 48.5664 59.9762 48.5902 59.9048C48.6188 59.8333 48.6426 59.7571 48.6568 59.681C48.6759 59.6 48.6854 59.5238 48.6854 59.4619C48.6854 59.4095 48.6759 59.3571 48.6616 59.3095C48.5807 59.419 48.4997 59.4857 48.4235 59.5095C48.3521 59.5333 48.2949 59.5524 48.2521 59.5619C48.214 59.5714 48.1807 59.5762 48.1521 59.5762H48.0188C47.9711 59.5667 47.914 59.5571 47.8378 59.5476C47.7664 59.5333 47.6711 59.4857 47.5616 59.4048C47.4521 59.3238 47.3616 59.2095 47.2949 59.0667C47.2283 58.919 47.1997 58.7476 47.1997 58.5476C47.1997 58.3238 47.2426 58.1333 47.3283 57.981C47.414 57.8238 47.533 57.7048 47.6807 57.6143C47.8283 57.519 47.9949 57.4762 48.1759 57.4762C48.2283 57.4762 48.2759 57.4762 48.3283 57.4905C48.4473 57.4905 48.5949 57.5429 48.7711 57.6571C48.9521 57.7667 49.0616 57.9048 49.1045 58.0714C49.1568 58.1952 49.1997 58.3333 49.2235 58.4857C49.2521 58.6429 49.2664 58.8 49.2664 58.9667C49.2664 59.1905 49.2426 59.4143 49.1997 59.6381C49.1568 59.8571 49.0902 60.0476 48.9997 60.2143C48.914 60.3762 48.7854 60.4952 48.6235 60.5619C48.4616 60.6286 48.2997 60.6571 48.1426 60.6571C47.8283 60.6571 47.5949 60.5619 47.4378 60.3667C47.2807 60.1714 47.2188 60.0048 47.2378 59.8571H47.8188V59.8429ZM48.1902 57.9619C48.0616 57.9619 47.9616 58 47.8949 58.081C47.8283 58.1619 47.7807 58.2333 47.7568 58.3048C47.7378 58.3762 47.7283 58.4524 47.7283 58.5286C47.7283 58.6048 47.7378 58.6762 47.7568 58.7429C47.7807 58.8095 47.8283 58.8762 47.8949 58.9571C47.9664 59.0286 48.0711 59.0667 48.2045 59.0667C48.3378 59.0667 48.433 59.0286 48.4997 58.9571C48.5711 58.881 48.6188 58.8095 48.6378 58.7429C48.6568 58.6762 48.6664 58.6095 48.6664 58.5333C48.6664 58.4381 48.6521 58.3524 48.6235 58.2714C48.5997 58.1857 48.5664 58.1238 48.5235 58.0857C48.4854 58.0476 48.433 58.0143 48.3759 57.9952C48.3188 57.9714 48.2521 57.9619 48.1854 57.9619H48.1902Z" fill="#231F20"/>
<path fill-rule="evenodd" clip-rule="evenodd" d="M49.8663 60.3524C49.752 60.2143 49.6758 60.0333 49.6282 59.8143C49.5853 59.5905 49.5615 59.3381 49.5615 59.0619C49.5615 58.7857 49.5853 58.5381 49.6282 58.319C49.6758 58.0952 49.7425 57.9238 49.8377 57.8048C49.933 57.6857 50.0472 57.6048 50.171 57.5571C50.2996 57.5048 50.4377 57.4809 50.5901 57.4809C50.7425 57.4809 50.8806 57.5048 51.0044 57.5571C51.133 57.6048 51.2472 57.6905 51.3425 57.8048C51.4377 57.919 51.5091 58.0905 51.5568 58.3143C51.5996 58.5333 51.6234 58.7809 51.6234 59.0619C51.6234 59.3381 51.5996 59.5857 51.5568 59.8095C51.5091 60.0333 51.4425 60.2048 51.3425 60.3238C51.2472 60.4381 51.1377 60.5238 51.0091 60.5714C50.8806 60.6238 50.7425 60.6476 50.5901 60.6476C50.4377 60.6476 50.2996 60.6238 50.171 60.5714C50.0425 60.5238 49.9425 60.4524 49.8615 60.3571L49.8663 60.3524ZM50.952 59.9048C51.0091 59.7524 51.0377 59.4714 51.0377 59.0619C51.0377 58.6524 51.0187 58.3952 50.9806 58.2857C50.9425 58.1762 50.8853 58.1095 50.8187 58.0714C50.752 58.0333 50.6758 58.0143 50.5996 58.0143C50.5234 58.0143 50.4425 58.0333 50.3806 58.0667C50.3139 58.1 50.2615 58.1667 50.2187 58.2809C50.1806 58.3905 50.1568 58.6524 50.1568 59.0571C50.1568 59.4667 50.1758 59.7238 50.2187 59.8333C50.2568 59.9429 50.3139 60.0143 50.3806 60.0476C50.4472 60.0809 50.5234 60.1 50.5996 60.1C50.6758 60.1 50.7568 60.0857 50.8187 60.0524C50.8853 60.019 50.9282 59.9667 50.9568 59.9L50.952 59.9048Z" fill="#231F20"/>
<path fill-rule="evenodd" clip-rule="evenodd" d="M52.4904 59.7667C52.4904 59.8762 52.519 59.9667 52.5809 60.0381C52.6428 60.1095 52.7618 60.1429 52.938 60.1429C53.0951 60.1429 53.2047 60.0905 53.2761 59.981C53.3475 59.8714 53.3809 59.7381 53.3809 59.5762C53.3809 59.4 53.3523 59.2762 53.2951 59.2C53.2428 59.1238 53.1809 59.0714 53.119 59.0429C53.057 59.0095 52.9904 58.9952 52.9189 58.9952H52.8713C52.7951 59 52.7237 59.0238 52.6618 59.0619C52.6047 59.1 52.557 59.1476 52.5285 59.2143H51.9904L52.2618 57.5429H53.8618V58.0762H52.6237L52.5237 58.6952C52.5713 58.6667 52.6237 58.6381 52.6713 58.6143C52.7237 58.5905 52.7713 58.5714 52.8142 58.5571C52.8618 58.5429 52.8999 58.5333 52.9237 58.5333C52.9523 58.5286 52.9904 58.5238 53.0428 58.5238C53.0951 58.5238 53.138 58.5238 53.1809 58.5333C53.2285 58.5381 53.3237 58.5667 53.4618 58.6143C53.5999 58.6619 53.719 58.7762 53.8237 58.9524C53.9237 59.1286 53.9761 59.3238 53.9761 59.5429C53.9761 59.781 53.9237 59.981 53.8237 60.1476C53.7237 60.3143 53.6047 60.4381 53.4666 60.519C53.3332 60.6 53.157 60.6429 52.938 60.6429C52.7523 60.6429 52.6047 60.6238 52.4999 60.5857C52.3999 60.5476 52.2999 60.4857 52.1999 60.4095C52.1047 60.3286 52.0285 60.2381 51.9761 60.1381C51.9237 60.0381 51.8999 59.9143 51.8999 59.7714H52.4856L52.4904 59.7667Z" fill="#231F20"/>
<path fill-rule="evenodd" clip-rule="evenodd" d="M36.6334 32.8571L35.9762 36.7667L34.0143 33.4286L30.3857 34.2429L32.9238 31.4238L30.8238 27.6333L34.7953 29.3429L37.3429 26.5143L36.9048 30.2143L40.4381 31.8095L36.6286 32.8619L36.6334 32.8571ZM63.3619 32.8571L64.0191 36.7667L65.981 33.4286L69.6096 34.2429L67.0715 31.4238L69.1715 27.6333L65.2 29.3429L62.6524 26.5143L63.0905 30.2143L59.5572 31.8095L63.3667 32.8619L63.3619 32.8571ZM48.9381 28.3381L46.7095 25.1714L48.9715 22.2095L45.3381 23.3476L42.7905 19.8571L42.6667 24.1857L39.0476 25.3191L42.581 26.4667L42.5715 30.3381L45.1238 27.3095L48.9381 28.3429V28.3381ZM54.8762 27.3048L57.4286 30.3333L57.4191 26.4619L60.9572 25.3191L57.3381 24.1857L57.2143 19.8571L54.6667 23.3476L51.0334 22.2095L53.2953 25.1714L51.0667 28.3381L54.881 27.3048H54.8762Z" fill="white"/>
<path d="M30.7095 11.3381L31.1143 12.0714L28.9 13.2952L29.2476 13.9286L31.2143 12.8429L31.6143 13.5714L29.6476 14.6572L30.1333 15.5333L29.2714 16.0095L27.6333 13.0429L30.7095 11.3429V11.3381Z" fill="white"/>
<path d="M36.3001 12.6238L35.762 12.1524L33.8286 12.9381L33.7715 13.6524L32.7905 14.0524L33.1334 10.2571L34.3905 9.74762L37.281 12.2286L36.3048 12.6238H36.3001ZM33.8953 12.1143L35.1334 11.6095L34.0143 10.6333L33.8953 12.1143Z" fill="white"/>
<path d="M41.3476 10.1762L40.7619 7.81906L41.7095 7.58572L42.5238 10.8762L41.1286 11.2238L38.6048 9.34763L39.1905 11.7048L38.2381 11.9429L37.4238 8.65239L38.8238 8.30477L41.3476 10.181V10.1762Z" fill="white"/>
<path d="M46.1191 6.96191L50.2001 6.79524L50.2334 7.62858L48.6858 7.69048L48.7906 10.2429L47.8096 10.281L47.7049 7.72858L46.1525 7.79048L46.1191 6.95715V6.96191Z" fill="white"/>
<path d="M51.3903 8.49525C51.4855 7.3762 52.3141 6.78096 53.7379 6.90477C55.1569 7.02858 55.876 7.75715 55.7807 8.87144C55.6855 9.99049 54.8522 10.5952 53.4331 10.4714C52.0093 10.3476 51.295 9.61906 51.3903 8.49525ZM54.7569 8.78572C54.8093 8.20001 54.5045 7.80953 53.6664 7.73811C52.8331 7.66668 52.4665 7.99049 52.4188 8.58572C52.3665 9.18096 52.676 9.57144 53.5045 9.64287C54.3379 9.7143 54.7093 9.38096 54.7617 8.79049L54.7569 8.78572Z" fill="white"/>
<path d="M61.6239 8.36667L59.6334 9.38095L60.881 11.6762L59.6763 11.4048L58.8096 9.80476L57.862 10.2857L57.7096 10.9571L56.7524 10.7381L57.5001 7.42857L58.462 7.64286L58.1286 9.12857L60.1953 8.0381L61.6334 8.36191L61.6239 8.36667Z" fill="white"/>
<path d="M66.3286 9.99524L66.0667 10.7191L63.6858 9.85715L63.5 10.3667L65.7905 11.1952L65.5286 11.9191L63.2381 11.0905L63.0524 11.6L65.4334 12.4619L65.1715 13.1857L61.8667 11.9905L63.0191 8.8L66.3238 9.99524H66.3286Z" fill="white"/>
<path d="M69.7621 14.3524L70.8764 12.1905L71.7478 12.6381L70.1907 15.6524L68.9097 14.9905L68.2478 11.9095L67.1335 14.0714L66.2573 13.6191L67.8145 10.6048L69.1002 11.2667L69.7621 14.3476V14.3524Z" fill="white"/>
<path d="M27.395 85.4762C27.2474 85.719 27.395 86.0238 28.1569 86.4857C28.8569 86.9048 29.095 86.9 29.2045 86.719C29.3331 86.5095 29.2236 86.3905 28.395 85.8143C27.2665 85.0238 26.8903 84.4762 27.276 83.8333C27.6426 83.2286 28.4617 83.3476 29.4665 83.9524C30.5855 84.6238 31.0236 85.3524 30.6617 86.0143L29.7807 85.4857C29.9331 85.2286 29.7141 84.9619 29.0617 84.5714C28.4426 84.2 28.2426 84.219 28.1474 84.3762C28.0379 84.5571 28.1474 84.6952 28.895 85.2333C29.9141 85.9571 30.5617 86.4476 30.1045 87.2095C29.6569 87.9524 28.8379 87.7571 27.8045 87.1333C26.6284 86.4238 26.0903 85.7381 26.5093 84.9476L27.3903 85.4809L27.395 85.4762Z" fill="white"/>
<path d="M31.5236 87.1905C31.9712 86.1571 32.9426 85.8619 34.2569 86.4286C35.5664 86.9952 36.014 87.9143 35.5712 88.9429C35.1236 89.9762 34.1426 90.281 32.8331 89.7143C31.5188 89.1476 31.0759 88.2286 31.5236 87.1905ZM34.6283 88.5381C34.8616 87.9952 34.695 87.5333 33.9236 87.1952C33.1569 86.8619 32.7045 87.0571 32.4712 87.6C32.2331 88.1476 32.4045 88.6143 33.1664 88.9476C33.9331 89.281 34.395 89.081 34.6283 88.5333V88.5381Z" fill="white"/>
<path d="M39.3044 88.219C40.5091 88.5571 41.0425 89.2619 40.9044 90.1286L39.8996 89.8476C39.9187 89.5286 39.6853 89.1905 39.0806 89.0238C38.3806 88.8286 37.9472 89.0762 37.7901 89.6476C37.6282 90.2238 37.8758 90.6667 38.571 90.8619C39.1758 91.0286 39.552 90.8619 39.6996 90.5714L40.7044 90.8524C40.371 91.6714 39.5472 92 38.3425 91.6667C37.0329 91.3 36.4853 90.4905 36.7948 89.3714C37.1091 88.2571 37.9948 87.8524 39.3044 88.219Z" fill="white"/>
<path d="M43.3948 89.2286L42.7948 92.5619L41.8281 92.3857L42.4281 89.0524L43.3948 89.2286Z" fill="white"/>
<path d="M44.419 91.1476C44.5095 90.0286 45.3333 89.4333 46.7571 89.5476C48.1762 89.6619 48.9 90.3905 48.8047 91.5048C48.7143 92.6238 47.8857 93.2286 46.4666 93.1143C45.0428 93 44.3238 92.2714 44.419 91.1476ZM47.7857 91.4238C47.8333 90.8381 47.5285 90.4524 46.6905 90.381C45.8571 90.3143 45.4952 90.6429 45.4428 91.2333C45.3952 91.8286 45.7047 92.2143 46.5333 92.2857C47.3666 92.3524 47.7381 92.019 47.7857 91.4238Z" fill="white"/>
<path d="M51.1188 92.0476C51.1331 92.3333 51.4235 92.5048 52.314 92.4571C53.1283 92.4143 53.3235 92.2762 53.3093 92.0619C53.295 91.8143 53.1426 91.781 52.1331 91.7667C50.7569 91.7429 50.1331 91.5 50.095 90.7476C50.0569 90.0429 50.8045 89.681 51.9759 89.6238C53.2807 89.5571 54.0521 89.9095 54.1188 90.6619L53.095 90.7143C53.0807 90.4143 52.7474 90.3191 51.9854 90.3571C51.2664 90.3952 51.1093 90.5238 51.1188 90.7048C51.1283 90.9143 51.295 90.9714 52.2188 91C53.4664 91.0286 54.2807 91.0714 54.3283 91.9619C54.3712 92.8286 53.5854 93.1238 52.3807 93.1857C51.0093 93.2571 50.1759 92.9857 50.0854 92.0952L51.114 92.0429L51.1188 92.0476Z" fill="white"/>
<path d="M55.7426 92.0429L56.6806 91.9048L56.7854 92.6333L55.8473 92.7714L55.7378 92.0429H55.7426Z" fill="white"/>
<path d="M59.4808 88.5381C60.6951 88.2429 61.5094 88.5952 61.8141 89.419L60.7999 89.6667C60.6618 89.3762 60.2903 89.2 59.6808 89.3476C58.9761 89.5191 58.7189 89.9476 58.857 90.5286C58.9999 91.1095 59.4332 91.3762 60.1332 91.2048C60.7427 91.0571 60.9903 90.7238 60.9761 90.3952L61.9903 90.1476C62.0999 91.0238 61.5427 91.719 60.3284 92.0143C59.0046 92.3381 58.1284 91.9 57.8522 90.7714C57.576 89.6476 58.1522 88.8619 59.4761 88.5381H59.4808Z" fill="white"/>
<path d="M63.1522 89.3905C62.7379 88.3429 63.2189 87.4429 64.5474 86.919C65.8712 86.3952 66.8427 86.7286 67.2522 87.7714C67.6665 88.8191 67.1855 89.7286 65.8617 90.2524C64.5331 90.7762 63.5665 90.4429 63.1522 89.3905ZM66.2998 88.1476C66.0855 87.6 65.6379 87.3857 64.857 87.6952C64.0808 88 63.8951 88.4571 64.1141 89.0095C64.3331 89.5667 64.7855 89.7762 65.557 89.4714C66.3331 89.1667 66.5189 88.7 66.2998 88.1476Z" fill="white"/>
<path d="M69.3381 88.6905L67.6333 85.7571L68.9571 84.9857L71.1095 86.3381L70.9952 83.8L72.319 83.0286L74.0238 85.9619L73.1762 86.4524L71.9428 84.3286L72.0762 87.0952L71.2904 87.5524L68.9524 86.0714L70.1904 88.1952L69.3381 88.6905Z" fill="white"/>
<path d="M23.019 81.8381C13.9952 74.181 8.2666 62.7571 8.2666 50C8.2666 37.2429 14.2999 25.2143 23.738 17.5619" stroke="white" stroke-miterlimit="10"/>
<path d="M76.2666 17.5667C85.7047 25.219 91.7333 36.9048 91.7333 50C91.7333 63.0952 86.0047 74.1857 76.9809 81.8429" stroke="white" stroke-miterlimit="10"/>
</g>
<defs>
<clipPath id="clip0_1124_12819">
<rect width="100" height="100" fill="white"/>
</clipPath>
</defs>
</svg>
