<svg width="100" height="100" viewBox="0 0 100 100" fill="none" xmlns="http://www.w3.org/2000/svg">
<g clip-path="url(#clip0_1124_14971)">
<path d="M50 100C77.6142 100 100 77.6142 100 50C100 22.3858 77.6142 0 50 0C22.3858 0 0 22.3858 0 50C0 77.6142 22.3858 100 50 100Z" fill="#BE1622"/>
<path d="M50 2.53333C76.1714 2.53333 97.4667 23.8286 97.4667 50C97.4667 76.1714 76.1714 97.4667 50 97.4667C23.8286 97.4667 2.53333 76.1714 2.53333 50C2.53333 23.8286 23.8286 2.53333 50 2.53333ZM50 0C22.3857 0 0 22.3857 0 50C0 77.6143 22.3857 100 50 100C77.6143 100 100 77.6143 100 50C100 22.3857 77.6143 0 50 0Z" fill="#B99663"/>
<path d="M29.5572 68.4905C29.5667 69.1667 29.3905 69.7476 29.0286 70.2286C28.7905 70.5524 28.4572 70.7857 28.0191 70.919C27.7857 70.9905 27.5143 71.0286 27.2048 71.0286C26.6333 71.0286 26.1572 70.8857 25.7762 70.6C25.4619 70.3667 25.2095 70.0524 25.0286 69.6524C24.8476 69.2524 24.7381 68.7952 24.7048 68.2762L26.1 68.1762C26.1619 68.7429 26.3095 69.1524 26.5476 69.4048C26.7238 69.5952 26.9238 69.6857 27.1524 69.6762C27.4714 69.6667 27.7286 69.5095 27.9191 69.2048C28.0191 69.0524 28.0667 68.8381 28.0667 68.5619C28.0667 68.1571 27.881 67.7571 27.5143 67.3571C27.2238 67.081 26.7905 66.6714 26.2095 66.1238C25.7238 65.6524 25.381 65.2333 25.181 64.8571C24.9619 64.4381 24.8572 63.981 24.8572 63.4905C24.8572 62.6048 25.1524 61.9381 25.7476 61.481C26.1143 61.2095 26.5714 61.0714 27.1095 61.0714C27.6476 61.0714 28.0762 61.1857 28.4524 61.4191C28.7429 61.6 28.9762 61.8524 29.1524 62.1762C29.3286 62.5 29.4381 62.8762 29.4762 63.3L28.0714 63.5571C28.0286 63.1571 27.9143 62.8476 27.7286 62.6286C27.5952 62.4667 27.4 62.3857 27.1476 62.3857C26.881 62.3857 26.6762 62.5048 26.5333 62.7429C26.4191 62.9333 26.3619 63.1714 26.3619 63.4571C26.3619 63.9 26.5524 64.3524 26.9333 64.8143C27.0762 64.9905 27.2952 65.1952 27.5857 65.4333C27.9286 65.7191 28.1524 65.9143 28.2619 66.0286C28.6238 66.3905 28.9 66.7476 29.1 67.1C29.1905 67.2667 29.2667 67.4191 29.3238 67.5571C29.4619 67.9048 29.5333 68.2143 29.5429 68.4857L29.5572 68.4905Z" fill="white"/>
<path d="M32.8286 68.6762L32.4714 70.9095H30.9476L32.6 61.2H34.6143L36.2429 70.9095H34.7048L34.3619 68.6762H32.8333H32.8286ZM33.6 63.419L33.0572 67.2476H34.1429L33.6 63.419Z" fill="white"/>
<path d="M40.3286 61.1952C41.1429 61.1952 41.7429 61.419 42.1286 61.8714C42.4667 62.2619 42.6333 62.8143 42.6333 63.5143V64.9238C42.6333 65.6095 42.3714 66.1905 41.8524 66.6667L42.9381 70.9048H41.3524L40.4619 67.2476H39.4857V70.9048H38.019V61.1952H40.3286ZM41.2048 63.5381C41.2048 62.9762 40.9238 62.6905 40.3667 62.6905H39.481V65.8H40.3667C40.6 65.8 40.7952 65.719 40.9619 65.5524C41.1238 65.3857 41.2048 65.1905 41.2048 64.9571V63.5381Z" fill="white"/>
<path d="M46.5381 68.6762L46.181 70.9095H44.6572L46.3095 61.2H48.3238L49.9524 70.9095H48.4143L48.0715 68.6762H46.5429H46.5381ZM47.3095 63.419L46.7667 67.2476H47.8524L47.3095 63.419Z" fill="white"/>
<path d="M53.8286 71.0333C53.1809 71.0333 52.6333 70.8048 52.181 70.3571C51.7286 69.9048 51.5048 69.3571 51.5048 68.7191V63.419C51.5048 62.7714 51.7333 62.2238 52.1857 61.7714C52.6381 61.3191 53.1857 61.0952 53.8286 61.0952C54.4714 61.0952 55.0238 61.3238 55.4714 61.7762C55.919 62.2286 56.1476 62.781 56.1476 63.419V64.5286H54.6286V63.3905C54.6286 63.1571 54.5476 62.9571 54.3809 62.7952C54.2143 62.6333 54.019 62.5476 53.7857 62.5476C53.5524 62.5476 53.3571 62.6286 53.1952 62.7952C53.0333 62.9619 52.9524 63.1571 52.9524 63.3905V68.7095C52.9524 68.9429 53.0333 69.1381 53.1952 69.3048C53.3571 69.4667 53.5571 69.5476 53.7857 69.5476C54.0143 69.5476 54.219 69.4667 54.3809 69.3048C54.5476 69.1429 54.6286 68.9429 54.6286 68.7095V67.3667H56.1476V68.7238C56.1476 69.3714 55.919 69.9191 55.4667 70.3667C55.0143 70.8143 54.4667 71.0429 53.8333 71.0429L53.8286 71.0333Z" fill="white"/>
<path d="M57.8953 70.9048V61.1857H62.0667V62.6571H59.3619V65.3095H61.3381V66.781H59.3619V69.4333H62.0667V70.9048H57.8953Z" fill="white"/>
<path d="M65.2619 61.1857L67.2048 67.7191V61.1857H68.6715V70.9048H67.1L65.0857 64.681V70.9048H63.6191V61.1857H65.2619Z" fill="white"/>
<path d="M75.2857 68.4905C75.2953 69.1667 75.1191 69.7476 74.7572 70.2286C74.5191 70.5524 74.1857 70.7857 73.7476 70.919C73.5143 70.9905 73.2429 71.0286 72.9333 71.0286C72.3619 71.0286 71.8857 70.8857 71.5048 70.6C71.1905 70.3667 70.9381 70.0524 70.7572 69.6524C70.5762 69.2524 70.4667 68.7952 70.4333 68.2762L71.8286 68.1762C71.8905 68.7429 72.0381 69.1524 72.2762 69.4048C72.4524 69.5952 72.6524 69.6857 72.881 69.6762C73.2 69.6667 73.4572 69.5095 73.6476 69.2048C73.7476 69.0524 73.7953 68.8381 73.7953 68.5619C73.7953 68.1571 73.6095 67.7571 73.2429 67.3571C72.9524 67.081 72.5191 66.6714 71.9381 66.1238C71.4524 65.6524 71.1095 65.2333 70.9095 64.8571C70.6905 64.4381 70.5857 63.981 70.5857 63.4905C70.5857 62.6048 70.881 61.9381 71.4762 61.481C71.8429 61.2095 72.3 61.0714 72.8381 61.0714C73.3762 61.0714 73.8048 61.1857 74.181 61.4191C74.4714 61.6 74.7048 61.8524 74.881 62.1762C75.0572 62.5 75.1667 62.8762 75.2048 63.3L73.8 63.5571C73.7572 63.1571 73.6429 62.8476 73.4572 62.6286C73.3238 62.4667 73.1286 62.3857 72.8762 62.3857C72.6095 62.3857 72.4048 62.5048 72.2619 62.7429C72.1476 62.9333 72.0905 63.1714 72.0905 63.4571C72.0905 63.9 72.281 64.3524 72.6619 64.8143C72.8048 64.9905 73.0238 65.1952 73.3143 65.4333C73.6572 65.7191 73.881 65.9143 73.9905 66.0286C74.3524 66.3905 74.6286 66.7476 74.8286 67.1C74.9191 67.2667 74.9953 67.4191 75.0524 67.5571C75.1905 67.9048 75.2619 68.2143 75.2714 68.4857L75.2857 68.4905Z" fill="white"/>
<path d="M72.4667 36.6381C70.9619 31.0143 58.9857 26.8143 46.5 30.1571C34.0143 33.5048 25.7476 43.1286 27.2524 48.7524C28.7619 54.3762 40.7334 58.5762 53.2191 55.2333C65.7048 51.8857 73.9762 42.2667 72.4667 36.6381Z" fill="white"/>
<path d="M31.7334 49.5333C30.4619 47.1143 31.3095 43.5381 34.4857 40.2238C38.0191 36.3143 44.5191 33.0476 50.0095 32.1571C51.0857 31.9952 52.1524 31.8572 53.0762 31.8762C50.5476 32.7476 48.381 33.6238 45.8191 35.2381C40.4953 38.3857 36.6381 42.5952 36.4714 46.3524C35.9238 49.9905 39.7524 53.2381 44.6238 53.3095C38.481 54.7476 33.681 52.581 31.7334 49.5333Z" fill="#BD1824"/>
<path d="M43.1048 40.4048L50.781 39.481L55.7524 33.5762L56.3429 38.5524L63.9334 37.7905L56.5143 41.8381L57.1048 47.0667L51.4524 44.5381L43.1048 48.5857L47.8286 42.8524L43.1048 40.4048Z" fill="#BD1824"/>
<path d="M30.7095 11.3381L31.1143 12.0714L28.9 13.2952L29.2476 13.9286L31.2143 12.8429L31.6143 13.5714L29.6476 14.6572L30.1333 15.5333L29.2714 16.0095L27.6333 13.0429L30.7095 11.3429V11.3381Z" fill="white"/>
<path d="M36.3 12.6238L35.7619 12.1524L33.8286 12.9381L33.7714 13.6524L32.7905 14.0524L33.1333 10.2571L34.3905 9.74762L37.2809 12.2286L36.3048 12.6238H36.3ZM33.8952 12.1143L35.1333 11.6095L34.0143 10.6333L33.8952 12.1143Z" fill="white"/>
<path d="M41.3476 10.1762L40.7619 7.81906L41.7095 7.58572L42.5238 10.8762L41.1285 11.2238L38.6047 9.34763L39.1904 11.7048L38.2381 11.9429L37.4238 8.65239L38.8238 8.30477L41.3476 10.181V10.1762Z" fill="white"/>
<path d="M46.119 6.96191L50.2 6.79524L50.2333 7.62858L48.6857 7.69048L48.7904 10.2429L47.8095 10.281L47.7047 7.72858L46.1524 7.79048L46.119 6.95715V6.96191Z" fill="white"/>
<path d="M51.3904 8.49525C51.4857 7.3762 52.3143 6.78096 53.7381 6.90477C55.1571 7.02858 55.8762 7.75715 55.7809 8.87144C55.6857 9.99049 54.8523 10.5952 53.4333 10.4714C52.0095 10.3476 51.2952 9.61906 51.3904 8.49525ZM54.7571 8.78572C54.8095 8.20001 54.5047 7.80953 53.6666 7.73811C52.8333 7.66668 52.4666 7.99049 52.419 8.58572C52.3666 9.18096 52.6762 9.57144 53.5047 9.64287C54.3381 9.7143 54.7095 9.38096 54.7619 8.79049L54.7571 8.78572Z" fill="white"/>
<path d="M61.6237 8.36667L59.6333 9.38095L60.8809 11.6762L59.6761 11.4048L58.8095 9.80476L57.8618 10.2857L57.7095 10.9571L56.7523 10.7381L57.4999 7.42857L58.4618 7.64286L58.1285 9.12857L60.1952 8.0381L61.6333 8.36191L61.6237 8.36667Z" fill="white"/>
<path d="M66.3285 9.99524L66.0666 10.7191L63.6857 9.85715L63.5 10.3667L65.7905 11.1952L65.5285 11.9191L63.2381 11.0905L63.0524 11.6L65.4333 12.4619L65.1714 13.1857L61.8666 11.9905L63.019 8.8L66.3238 9.99524H66.3285Z" fill="white"/>
<path d="M69.7618 14.3524L70.8761 12.1905L71.7476 12.6381L70.1904 15.6524L68.9095 14.9905L68.2476 11.9095L67.1333 14.0714L66.2571 13.6191L67.8142 10.6048L69.0999 11.2667L69.7618 14.3476V14.3524Z" fill="white"/>
<path d="M27.3952 85.4762C27.2476 85.719 27.3952 86.0238 28.1571 86.4857C28.8571 86.9048 29.0952 86.9 29.2047 86.719C29.3333 86.5095 29.2238 86.3905 28.3952 85.8143C27.2666 85.0238 26.8904 84.4762 27.2762 83.8333C27.6428 83.2286 28.4619 83.3476 29.4666 83.9524C30.5857 84.6238 31.0238 85.3524 30.6619 86.0143L29.7809 85.4857C29.9333 85.2286 29.7143 84.9619 29.0619 84.5714C28.4428 84.2 28.2428 84.219 28.1476 84.3762C28.0381 84.5571 28.1476 84.6952 28.8952 85.2333C29.9143 85.9571 30.5619 86.4476 30.1047 87.2095C29.6571 87.9524 28.8381 87.7571 27.8047 87.1333C26.6285 86.4238 26.0904 85.7381 26.5095 84.9476L27.3904 85.4809L27.3952 85.4762Z" fill="white"/>
<path d="M31.5238 87.1905C31.9714 86.1571 32.9428 85.8619 34.2571 86.4286C35.5667 86.9952 36.0143 87.9143 35.5714 88.9429C35.1238 89.9762 34.1428 90.281 32.8333 89.7143C31.519 89.1476 31.0762 88.2286 31.5238 87.1905ZM34.6286 88.5381C34.8619 87.9952 34.6952 87.5333 33.9238 87.1952C33.1571 86.8619 32.7047 87.0571 32.4714 87.6C32.2333 88.1476 32.4047 88.6143 33.1667 88.9476C33.9333 89.281 34.3952 89.081 34.6286 88.5333V88.5381Z" fill="white"/>
<path d="M39.3047 88.219C40.5047 88.5571 41.0428 89.2619 40.9047 90.1286L39.9 89.8476C39.919 89.5286 39.6857 89.1905 39.0809 89.0238C38.3809 88.8286 37.9476 89.0762 37.7857 89.6476C37.6238 90.2238 37.8714 90.6667 38.5666 90.8619C39.1714 91.0286 39.5476 90.8619 39.6952 90.5714L40.7 90.8524C40.3666 91.6714 39.5428 92 38.3381 91.6667C37.0285 91.3 36.4809 90.4905 36.7905 89.3714C37.1047 88.2571 37.9905 87.8524 39.3 88.219H39.3047Z" fill="white"/>
<path d="M43.3952 89.2286L42.7952 92.5619L41.8286 92.3857L42.4286 89.0524L43.3952 89.2286Z" fill="white"/>
<path d="M44.419 91.1476C44.5095 90.0286 45.3333 89.4333 46.7571 89.5476C48.1762 89.6619 48.9 90.3905 48.8047 91.5048C48.7143 92.6238 47.8857 93.2286 46.4619 93.1143C45.0381 93 44.319 92.2714 44.4143 91.1476H44.419ZM47.7857 91.4238C47.8333 90.8381 47.5285 90.4524 46.6905 90.381C45.8571 90.3143 45.4952 90.6429 45.4428 91.2333C45.3952 91.8286 45.7047 92.2143 46.5333 92.2857C47.3666 92.3524 47.7381 92.019 47.7857 91.4238Z" fill="white"/>
<path d="M51.119 92.0476C51.1333 92.3333 51.4238 92.5048 52.3143 92.4571C53.1286 92.4143 53.3238 92.2762 53.3095 92.0619C53.2952 91.8143 53.1428 91.781 52.1333 91.7667C50.7571 91.7429 50.1333 91.5 50.0952 90.7476C50.0571 90.0429 50.8047 89.681 51.9762 89.6238C53.2809 89.5571 54.0524 89.9095 54.119 90.6619L53.0952 90.7143C53.0809 90.4143 52.7476 90.3191 51.9857 90.3571C51.2666 90.3952 51.1095 90.5238 51.119 90.7048C51.1285 90.9143 51.2952 90.9714 52.219 91C53.4666 91.0286 54.2809 91.0714 54.3285 91.9619C54.3714 92.8286 53.5857 93.1238 52.3809 93.1857C51.0095 93.2571 50.1762 92.9857 50.0857 92.0952L51.1143 92.0429L51.119 92.0476Z" fill="white"/>
<path d="M55.7428 92.0429L56.6809 91.9048L56.7857 92.6333L55.8476 92.7714L55.738 92.0429H55.7428Z" fill="white"/>
<path d="M59.4809 88.5381C60.6952 88.2429 61.5095 88.5952 61.8143 89.419L60.8 89.6667C60.6619 89.3762 60.2905 89.2 59.6809 89.3476C58.9762 89.5191 58.719 89.9476 58.8571 90.5286C59 91.1095 59.4333 91.3762 60.1333 91.2048C60.7428 91.0571 60.9905 90.7238 60.9762 90.3952L61.9905 90.1476C62.1 91.0238 61.5428 91.719 60.3286 92.0143C59.0047 92.3381 58.1286 91.9 57.8524 90.7714C57.5762 89.6476 58.1524 88.8619 59.4762 88.5381H59.4809Z" fill="white"/>
<path d="M63.1523 89.3952C62.738 88.3476 63.219 87.4476 64.5476 86.9238C65.8714 86.4 66.8428 86.7333 67.2523 87.7762C67.6666 88.8238 67.1857 89.7333 65.8618 90.2571C64.5333 90.7809 63.5666 90.4476 63.1523 89.3952ZM66.2999 88.1524C66.0857 87.6048 65.638 87.3905 64.8571 87.7C64.0809 88.0048 63.8952 88.4619 64.1142 89.0143C64.3333 89.5714 64.7857 89.7809 65.5571 89.4762C66.3333 89.1714 66.519 88.7048 66.2999 88.1524Z" fill="white"/>
<path d="M69.3381 88.6905L67.6333 85.7571L68.9571 84.9857L71.1095 86.3381L70.9952 83.8L72.319 83.0286L74.0238 85.9619L73.1762 86.4524L71.9428 84.3286L72.0762 87.0952L71.2904 87.5524L68.9524 86.0714L70.1904 88.1952L69.3381 88.6905Z" fill="white"/>
<path d="M23.019 81.8381C13.9952 74.181 8.26666 62.7571 8.26666 50C8.26666 37.2429 14.3 25.2143 23.7381 17.5619" stroke="#B99663" stroke-miterlimit="10"/>
<path d="M76.2667 17.5667C85.7048 25.219 91.7333 36.9048 91.7333 50C91.7333 63.0952 86.0048 74.1857 76.9809 81.8429" stroke="#B99663" stroke-miterlimit="10"/>
</g>
<defs>
<clipPath id="clip0_1124_14971">
<rect width="100" height="100" fill="white"/>
</clipPath>
</defs>
</svg>
