<svg xmlns="http://www.w3.org/2000/svg" width="64" height="64" viewBox="0 0 64 64"><g transform="translate(0 1)"><g transform="translate(0 -1)"><g transform="translate(0 0)"><path d="M32,63A32,32,0,1,0,0,31,32,32,0,0,0,32,63Z" transform="translate(0 1)" fill-rule="evenodd"/><path d="M929.641,899A30.641,30.641,0,1,1,899,929.641,30.641,30.641,0,0,1,929.641,899Z" transform="translate(-897.641 -897.639)" fill="#ffed00" fill-rule="evenodd"/><path d="M1917.584,4556.22a121.208,121.208,0,0,1,18.8,1.816l.273-.31c.141.116.276.233.415.352l-.287.339a22.136,22.136,0,0,1,.7,7.629,31.32,31.32,0,0,1-1.517,7.169c1.659-.219,3.3-.5,4.933-.821,1.743-.335,3.467-.743,5.153-1.229.061.17.12.343.177.514-1.731.509-3.461.919-5.228,1.254-1.659.341-3.356.6-5.052.839,1.578,4.715,1.258,9.367.759,14.04a54.15,54.15,0,0,1,6.712,1.857c.977.321,1.936.639,2.9.917l-.159.523c-.96-.28-1.942-.6-2.912-.919a54.016,54.016,0,0,0-6.493-1.816,60.969,60.969,0,0,1,.48,6.832,35.6,35.6,0,0,1-.558,7.01l1,1c.149.142.3.283.443.426-.133.125-.266.25-.4.374-.142-.14-.281-.28-.422-.419-.339-.321-.679-.662-1.019-1a120.126,120.126,0,0,1-18.677,1.839v-.54a120.866,120.866,0,0,0,18.536-1.837,35.347,35.347,0,0,0,.558-6.853,62.03,62.03,0,0,0-.5-6.931c-.2-.039-.42-.061-.62-.1a158.558,158.558,0,0,1-17.977.84v-.539h.021a162.883,162.883,0,0,0,17.937-.841h.081c.18.021.36.062.54.083.5-4.655.821-9.29-.8-13.905a123.671,123.671,0,0,0-17.774-1.195v-.558a126.74,126.74,0,0,1,17.8,1.2,31.864,31.864,0,0,0,1.539-7.252,21.358,21.358,0,0,0-.659-7.431,121.924,121.924,0,0,0-18.677-1.8v-.558h0Zm-20.514,48.227h0c-.14-.121-.275-.244-.412-.364.3-.289.589-.574.892-.862.32-.322.658-.658,1-1a34.143,34.143,0,0,1-.557-7.009,64.648,64.648,0,0,1,.459-6.771c-1.5.379-3.037.856-4.534,1.316a46.022,46.022,0,0,1-5.725,1.583q-.091-.261-.177-.523a51.23,51.23,0,0,0,5.742-1.575c1.578-.481,3.157-1,4.754-1.358-.5-4.694-.822-9.367.759-14.082-.379-.061-.759-.1-1.158-.16a79.3,79.3,0,0,1-10.111-1.754q.087-.267.177-.53a77.348,77.348,0,0,0,10.012,1.744c.36.041.7.1,1.06.14a31.354,31.354,0,0,1-1.518-7.189,22.136,22.136,0,0,1,.7-7.63l-.667-.793.412-.332.672.764a80.853,80.853,0,0,1,18.415-1.837h.32v.558h-.32a79.635,79.635,0,0,0-18.317,1.818,21.4,21.4,0,0,0-.659,7.409,31.952,31.952,0,0,0,1.539,7.251,143.586,143.586,0,0,1,17.757-1.194v.558a136.3,136.3,0,0,0-17.738,1.195c-1.618,4.636-1.3,9.269-.8,13.922.18-.039.36-.061.54-.1l.039-.02.04.02c5.992.5,11.966.8,17.918.84v.54c-5.974-.021-11.964-.341-17.937-.84-.2.04-.42.081-.618.14a61.346,61.346,0,0,0-.5,6.893,35.961,35.961,0,0,0,.558,6.89,78.81,78.81,0,0,0,18.178,1.8h.32v.539h-.32a78.226,78.226,0,0,1-18.337-1.817c-.34.339-.659.659-1,.978-.28.279-.558.558-.857.847h0Z" transform="translate(-1885.146 -4549.326)" fill-rule="evenodd"/><path d="M4562.779,4149c-7.518,4.948-12.927,11.471-14.453,23.811H4545v5.215h3.576c2.24,9.289,8.029,18.178,17.34,22.39.838-1.358,1.676-2.717,2.5-4.094-9.626-6.1-13.9-12.206-14.562-18.3h11.266v-5.214h-11.7c.857-8.029,5.431-14.521,12.322-19.677l-2.956-4.134h0Z" transform="translate(-4538.128 -4142.727)" fill="#e31e24" fill-rule="evenodd"/><path d="M20521.141,3699q-5.209,6.442-10.426,12.884c-4.293,6.412-2.512,14.122,5.895,15.023,6.809.658,12.686.8,8.609,5.952-4.875,5.033-8.609,8.569-13.488,13.6,1.18,1.319,2.34,2.656,3.52,3.974q6.955-7.191,13.922-14.4c4.633-5.433,4.832-10.666-2.879-12.884-4.395-1.4-11.664-.939-12.4-3.855-.617-1.419.637-4.032,3.273-6.99,2.66-3.276,5.318-6.531,7.953-9.807-1.318-1.18-2.635-2.337-3.977-3.5h0Z" transform="translate(-20477.459 -3693.406)" fill-rule="evenodd"/><path d="M17831.555,27763.057v-.518h.016a.294.294,0,0,0,.26-.121.486.486,0,0,0,.123-.359.552.552,0,0,0-.123-.381.366.366,0,0,0-.275-.139v-.48a.807.807,0,0,1,.236-.02.92.92,0,0,1,.658.277.967.967,0,0,1,.262.723,1.1,1.1,0,0,1-.123.52,1.164,1.164,0,0,1-.375.381,1.488,1.488,0,0,1-.619.117l-.037,0Zm0-2.539h0V27760a1.4,1.4,0,0,1,.555.1.7.7,0,0,1,.34.219.972.972,0,0,1,.2.4l-.8.1a.334.334,0,0,0-.119-.242.239.239,0,0,0-.174-.055Zm1.814-.455h1.938v.66h-1.322l-.059.434c.086-.035.172-.066.262-.094a1.168,1.168,0,0,1,.256-.043.969.969,0,0,1,.723.281.874.874,0,0,1,.279.658,1.12,1.12,0,0,1-.141.559,1.19,1.19,0,0,1-.4.4,1.512,1.512,0,0,1-.68.141,1.942,1.942,0,0,1-.5-.055,1.912,1.912,0,0,1-.338-.16.981.981,0,0,1-.242-.266,1.094,1.094,0,0,1-.162-.332l.846-.086a.521.521,0,0,0,.141.3.4.4,0,0,0,.26.094.322.322,0,0,0,.277-.141.5.5,0,0,0,.121-.375.52.52,0,0,0-.121-.383.424.424,0,0,0-.3-.113.4.4,0,0,0-.221.059.378.378,0,0,0-.178.141l-.7-.1.258-1.578h0Zm-1.814-.062h0v.518a.3.3,0,0,0-.3.205,1.316,1.316,0,0,0-.125.617.738.738,0,0,1,.3-.219c.039-.02.078-.039.121-.059v.477a.332.332,0,0,0-.281.139.5.5,0,0,0-.125.361.469.469,0,0,0,.125.359.314.314,0,0,0,.281.141v.516a1.584,1.584,0,0,1-.682-.156,1.119,1.119,0,0,1-.424-.484,2.123,2.123,0,0,1-.152-.875,1.691,1.691,0,0,1,.334-1.158A1.27,1.27,0,0,1,17831.555,27760Zm-2.84,3.055h0v-.5a.307.307,0,0,0,.3-.2,1.585,1.585,0,0,0,.121-.615,1.434,1.434,0,0,1-.3.219c-.041.021-.076.021-.119.041v-.48a.369.369,0,0,0,.279-.117.59.59,0,0,0,.121-.383.5.5,0,0,0-.121-.359.351.351,0,0,0-.279-.143V27760a1.459,1.459,0,0,1,.66.162,1.126,1.126,0,0,1,.436.48,2.112,2.112,0,0,1,.16.877,1.7,1.7,0,0,1-.338,1.158,1.189,1.189,0,0,1-.918.379Zm-2.039-3.055h0v3h-.816v-1.961a2.011,2.011,0,0,1-.4.238,2.039,2.039,0,0,1-.457.2v-.674a2.372,2.372,0,0,0,.637-.318,1.2,1.2,0,0,0,.357-.484Zm2.039,0h0v.518h-.02a.307.307,0,0,0-.258.121.476.476,0,0,0-.125.361.5.5,0,0,0,.123.377.317.317,0,0,0,.279.141v.482a.887.887,0,0,1-.238.02.852.852,0,0,1-.66-.279.964.964,0,0,1-.281-.7,1.228,1.228,0,0,1,.137-.543.958.958,0,0,1,.379-.359,1.438,1.438,0,0,1,.623-.141Zm0,2.555h0v.5h-.02a1.935,1.935,0,0,1-.539-.078,1,1,0,0,1-.342-.238.889.889,0,0,1-.2-.4l.8-.1a.376.376,0,0,0,.121.242A.261.261,0,0,0,17828.715,27762.555Z" transform="translate(-17798.055 -27718.033)" fill-rule="evenodd"/><g transform="translate(29.1 47.361)"><g transform="translate(0 2.478)"><path d="M19252.219,32966l.3.895h.918l-.758.547.3.895-.756-.551-.762.551.3-.895-.762-.547h.941Z" transform="translate(-19250.996 -32966)" fill="#e31e24" fill-rule="evenodd"/><path d="M21617.219,32966l.3.895h.941l-.762.547.281.895-.758-.551-.742.551.279-.895-.756-.547h.938Z" transform="translate(-21612.426 -32966)" fill-rule="evenodd"/></g><path d="M20441.217,31327.008l.3.895h.922l-.762.543.3.9-.758-.557-.762.557.3-.9-.76-.543h.941Z" transform="translate(-20438.197 -31327.008)" fill="#009846" fill-rule="evenodd"/></g></g></g></g></svg>