<svg width="100" height="100" viewBox="0 0 100 100" fill="none" xmlns="http://www.w3.org/2000/svg">
<g clip-path="url(#clip0_1124_14661)">
<path d="M50 100C77.6142 100 100 77.6142 100 50C100 22.3858 77.6142 0 50 0C22.3858 0 0 22.3858 0 50C0 77.6142 22.3858 100 50 100Z" fill="#00ADEE"/>
<path d="M50 2.53333C76.1714 2.53333 97.4667 23.8286 97.4667 50C97.4667 76.1714 76.1714 97.4667 50 97.4667C23.8286 97.4667 2.53333 76.1714 2.53333 50C2.53333 23.8286 23.8286 2.53333 50 2.53333ZM50 0C22.3857 0 0 22.3857 0 50C0 77.6143 22.3857 100 50 100C77.6143 100 100 77.6143 100 50C100 22.3857 77.6143 0 50 0Z" fill="white"/>
<path d="M50.0001 78.0524L49.0096 77.0667C46.6858 74.7524 43.381 73.5286 39.4477 73.5286H39.3524C39.081 73.5286 36.6096 73.5095 34.1286 72.7714C29.9048 71.5143 29.2715 69.119 29.2715 67.8048V27.7H70.7239V67.8429C70.7239 73.4809 60.7239 73.5429 60.6239 73.5429H60.5715C56.7143 73.5429 53.3143 74.8 50.9905 77.0762L49.9953 78.0524H50.0001Z" fill="white"/>
<path d="M30.6858 29.1143V67.8048C30.6858 69.8476 32.7763 70.8952 34.5334 71.419C36.8667 72.1095 39.2572 72.1143 39.3572 72.1143H39.4525C43.7763 72.1143 47.4096 73.4762 50.0096 76.0667C52.6048 73.5238 56.3286 72.1286 60.5763 72.1286H60.6286C60.7144 72.1286 69.3191 71.9952 69.3191 67.8381V29.1143H30.6858Z" fill="#00ADEE"/>
<path d="M36.162 40.2V70.4571C37.8525 70.7857 39.2953 70.7905 39.3667 70.7905H39.462C40.2239 70.7905 40.9715 70.8333 41.7001 70.9143V40.2H36.162Z" fill="white"/>
<path d="M47.2334 40.2V72.5143C47.2334 72.5143 47.2334 72.3238 47.2334 72.519C48.2477 73.0333 49.181 73.6524 50.0239 74.3857C50.8524 73.6857 51.7715 73.0809 52.7667 72.5809V40.2H47.2334Z" fill="white"/>
<path d="M58.3048 40.2V70.9429C59.0524 70.8524 59.8143 70.8048 60.5858 70.8048H60.6429C61.5 70.7952 62.6715 70.6952 63.8381 70.4667V40.2H58.3048Z" fill="white"/>
<path d="M37.1381 35.0524V35.0667L38.9381 37.1333H37.4429L36.0667 35.3143H34.6429V37.1333H33.4095V32.0238H36.1C37.6524 32.0238 38.4429 32.619 38.4429 33.6238C38.4429 34.3143 37.9715 34.9143 37.1334 35.0476L37.1381 35.0524ZM36.0619 32.9476H34.6476V34.4809H36.0191C36.8238 34.4809 37.1619 34.2286 37.1619 33.6809C37.1619 33.1905 36.8524 32.9476 36.0619 32.9476Z" fill="white"/>
<path d="M44.1143 36.1048H40.9619L40.4571 37.1381H39.1381L41.8809 32.0286H43.2476L46.0095 37.1381H44.619L44.119 36.1048H44.1143ZM42.319 33.3428L41.4095 35.1905H43.6762L42.7904 33.3428L42.5666 32.8381H42.5476L42.3143 33.3428H42.319Z" fill="white"/>
<path d="M50.8191 33.1809C50.4048 33.0524 49.8667 32.9429 49.2429 32.9429C47.7667 32.9429 47.2476 33.4476 47.2476 34.5714C47.2476 35.7571 47.7857 36.2429 49.2714 36.2429C49.8572 36.2429 50.381 36.1286 50.8191 35.9524L50.9762 36.8524C50.4667 37.0762 49.7762 37.2476 49.1238 37.2476C47 37.2476 45.9572 36.2571 45.9572 34.5762C45.9572 33.0143 46.9524 31.9333 49.2286 31.9333C49.8572 31.9333 50.5238 32.0571 50.9572 32.2048L50.8238 33.1857L50.8191 33.1809Z" fill="white"/>
<path d="M51.9191 32.0286H53.1667V37.1381H51.9191V32.0286Z" fill="white"/>
<path d="M59.3095 37.1381L55.9857 33.9714L55.6 33.5857H55.581L55.5952 34.1428V37.1381H54.4714V32.0286H55.5095L58.6191 35.0714L59.0095 35.4667L59.0238 35.4524L59.0095 34.9048V32.0286H60.1238V37.1381H59.3143H59.3095Z" fill="white"/>
<path d="M66.5095 36.919C65.9667 37.119 65.1619 37.2476 64.4143 37.2476C62.0619 37.2476 61.0619 36.2333 61.0619 34.5952C61.0619 32.9571 62.0714 31.9238 64.4143 31.9238C65.1095 31.9238 65.8476 32.0238 66.3952 32.2048L66.2714 33.2C65.7476 33.0286 65.1143 32.9286 64.4714 32.9286C62.9286 32.9286 62.3571 33.4 62.3571 34.5762C62.3571 35.7524 62.8714 36.2381 64.3714 36.2381C64.7809 36.2381 65.1333 36.1905 65.4428 36.1V34.4762H66.5143V36.9143L66.5095 36.919Z" fill="white"/>
<path d="M30.7095 11.3381L31.1143 12.0714L28.9 13.2952L29.2476 13.9286L31.2143 12.8429L31.6143 13.5714L29.6476 14.6572L30.1333 15.5333L29.2714 16.0095L27.6333 13.0429L30.7095 11.3429V11.3381Z" fill="white"/>
<path d="M36.2999 12.6238L35.7618 12.1524L33.8285 12.9381L33.7714 13.6524L32.7904 14.0524L33.1333 10.2571L34.3904 9.74762L37.2809 12.2286L36.3047 12.6238H36.2999ZM33.8952 12.1143L35.1333 11.6095L34.0142 10.6333L33.8952 12.1143Z" fill="white"/>
<path d="M41.3476 10.1762L40.7619 7.81906L41.7095 7.58572L42.5238 10.8762L41.1286 11.2238L38.6048 9.34763L39.1905 11.7048L38.2381 11.9429L37.4238 8.65239L38.8238 8.30477L41.3476 10.181V10.1762Z" fill="white"/>
<path d="M46.119 6.96191L50.2 6.79524L50.2333 7.62858L48.6857 7.69048L48.7904 10.2429L47.8095 10.281L47.7047 7.72858L46.1524 7.79048L46.119 6.95715V6.96191Z" fill="white"/>
<path d="M51.3905 8.49525C51.4857 7.3762 52.3143 6.78096 53.7381 6.90477C55.1572 7.02858 55.8762 7.75715 55.781 8.87144C55.6857 9.99049 54.8524 10.5952 53.4334 10.4714C52.0096 10.3476 51.2953 9.61906 51.3905 8.49525ZM54.7572 8.78572C54.8096 8.20001 54.5048 7.80953 53.6667 7.73811C52.8334 7.66668 52.4667 7.99049 52.4191 8.58572C52.3667 9.18096 52.6762 9.57144 53.5048 9.64287C54.3381 9.7143 54.7096 9.38096 54.7619 8.79049L54.7572 8.78572Z" fill="white"/>
<path d="M61.6237 8.36667L59.6333 9.38095L60.8809 11.6762L59.6761 11.4048L58.8095 9.80476L57.8618 10.2857L57.7095 10.9571L56.7523 10.7381L57.4999 7.42857L58.4618 7.64286L58.1285 9.12857L60.1952 8.0381L61.6333 8.36191L61.6237 8.36667Z" fill="white"/>
<path d="M66.3285 9.99524L66.0666 10.7191L63.6856 9.85715L63.4999 10.3667L65.7904 11.1952L65.5285 11.9191L63.238 11.0905L63.0523 11.6L65.4332 12.4571L65.1713 13.181L61.8666 11.9857L63.019 8.79524L66.3237 9.99048L66.3285 9.99524Z" fill="white"/>
<path d="M69.7618 14.3524L70.8761 12.1905L71.7476 12.6381L70.1904 15.6524L68.9095 14.9905L68.2476 11.9095L67.1333 14.0714L66.2571 13.6191L67.8142 10.6048L69.0999 11.2667L69.7618 14.3476V14.3524Z" fill="white"/>
<path d="M27.3953 85.4762C27.2476 85.719 27.3953 86.0238 28.1572 86.4857C28.8572 86.9048 29.0953 86.9 29.2048 86.719C29.3334 86.5095 29.2238 86.3905 28.3953 85.8143C27.2667 85.0238 26.8905 84.4762 27.2762 83.8333C27.6429 83.2286 28.4619 83.3476 29.4667 83.9524C30.5857 84.6238 31.0238 85.3524 30.6619 86.0143L29.781 85.4857C29.9334 85.2286 29.7143 84.9619 29.0619 84.5714C28.4429 84.2 28.2429 84.219 28.1476 84.3762C28.0381 84.5571 28.1476 84.6952 28.8953 85.2333C29.9143 85.9571 30.5619 86.4476 30.1048 87.2095C29.6572 87.9524 28.8381 87.7571 27.8048 87.1333C26.6286 86.4238 26.0905 85.7381 26.5096 84.9476L27.3905 85.4809L27.3953 85.4762Z" fill="white"/>
<path d="M31.5238 87.1905C31.9714 86.1571 32.9428 85.8619 34.2571 86.4286C35.5667 86.9952 36.0143 87.9143 35.5714 88.9429C35.1238 89.9762 34.1428 90.281 32.8333 89.7143C31.519 89.1476 31.0762 88.2286 31.5238 87.1905ZM34.6286 88.5381C34.8619 87.9952 34.6952 87.5333 33.9238 87.1952C33.1571 86.8619 32.7047 87.0571 32.4714 87.6C32.2333 88.1476 32.4047 88.6143 33.1667 88.9476C33.9333 89.281 34.3952 89.081 34.6286 88.5333V88.5381Z" fill="white"/>
<path d="M39.2952 88.2143C40.4952 88.5524 41.0333 89.2571 40.8952 90.1238L39.8905 89.8429C39.9095 89.5238 39.6762 89.1857 39.0714 89.0191C38.3714 88.8238 37.9381 89.0714 37.7762 89.6429C37.6143 90.2191 37.8619 90.6619 38.5571 90.8571C39.1619 91.0238 39.5381 90.8571 39.6857 90.5667L40.6905 90.8476C40.3571 91.6667 39.5333 91.9952 38.3286 91.6619C37.019 91.2952 36.4714 90.4857 36.7809 89.3667C37.0952 88.2524 37.9809 87.8476 39.2905 88.2143H39.2952Z" fill="white"/>
<path d="M43.3953 89.2286L42.7953 92.5619L41.8286 92.3857L42.4286 89.0524L43.3953 89.2286Z" fill="white"/>
<path d="M44.419 91.1476C44.5095 90.0286 45.3333 89.4333 46.7571 89.5476C48.1762 89.6619 48.9 90.3905 48.8047 91.5048C48.7143 92.6238 47.8857 93.2286 46.4619 93.1143C45.0381 93 44.319 92.2714 44.4143 91.1476H44.419ZM47.7857 91.4238C47.8333 90.8381 47.5285 90.4524 46.6905 90.381C45.8571 90.3143 45.4952 90.6429 45.4428 91.2333C45.3952 91.8286 45.7047 92.2143 46.5333 92.2857C47.3666 92.3524 47.7381 92.019 47.7857 91.4238Z" fill="white"/>
<path d="M51.119 92.0476C51.1333 92.3333 51.4238 92.5048 52.3143 92.4571C53.1286 92.4143 53.3238 92.2762 53.3095 92.0619C53.2952 91.8143 53.1428 91.781 52.1333 91.7667C50.7571 91.7429 50.1333 91.5 50.0952 90.7476C50.0571 90.0429 50.8047 89.681 51.9762 89.6238C53.2809 89.5571 54.0524 89.9095 54.119 90.6619L53.0952 90.7143C53.0809 90.4143 52.7476 90.3191 51.9857 90.3571C51.2666 90.3952 51.1095 90.5238 51.119 90.7048C51.1285 90.9143 51.2952 90.9714 52.219 91C53.4666 91.0286 54.2809 91.0714 54.3285 91.9619C54.3714 92.8286 53.5857 93.1238 52.3809 93.1857C51.0095 93.2571 50.1762 92.9857 50.0857 92.0952L51.1143 92.0429L51.119 92.0476Z" fill="white"/>
<path d="M55.7429 92.0429L56.681 91.9048L56.7858 92.6333L55.8477 92.7714L55.7382 92.0429H55.7429Z" fill="white"/>
<path d="M59.4809 88.5381C60.6952 88.2429 61.5095 88.5952 61.8143 89.419L60.8 89.6667C60.6619 89.3762 60.2905 89.2 59.6809 89.3476C58.9762 89.5191 58.719 89.9476 58.8571 90.5286C59 91.1095 59.4333 91.3762 60.1333 91.2048C60.7428 91.0571 60.9905 90.7238 60.9762 90.3952L61.9905 90.1476C62.1 91.0238 61.5428 91.719 60.3286 92.0143C59.0047 92.3381 58.1286 91.9 57.8524 90.7714C57.5762 89.6476 58.1524 88.8619 59.4762 88.5381H59.4809Z" fill="white"/>
<path d="M63.1524 89.3952C62.7382 88.3476 63.2191 87.4524 64.5477 86.9238C65.8715 86.4 66.8429 86.7333 67.2524 87.7762C67.6667 88.8238 67.1858 89.7333 65.862 90.2571C64.5334 90.7809 63.5667 90.4476 63.1524 89.3952ZM66.3001 88.1524C66.0858 87.6048 65.6382 87.3905 64.8572 87.7C64.081 88.0048 63.8953 88.4619 64.1143 89.0143C64.3334 89.5714 64.7858 89.7809 65.5572 89.4762C66.3334 89.1714 66.5191 88.7048 66.3001 88.1524Z" fill="white"/>
<path d="M69.3381 88.6905L67.6333 85.7571L68.9571 84.9857L71.1095 86.3381L70.9952 83.8L72.319 83.0286L74.0238 85.9619L73.1762 86.4524L71.9428 84.3286L72.0762 87.0952L71.2904 87.5524L68.9524 86.0714L70.1904 88.1952L69.3381 88.6905Z" fill="white"/>
<path d="M23.0191 81.8381C13.9953 74.181 8.26672 62.7571 8.26672 50C8.26672 37.2429 14.3001 25.2143 23.7382 17.5619" stroke="white" stroke-miterlimit="10"/>
<path d="M76.2667 17.5667C85.7048 25.219 91.7334 36.9048 91.7334 50C91.7334 63.0952 86.0048 74.1857 76.981 81.8429" stroke="white" stroke-miterlimit="10"/>
</g>
<defs>
<clipPath id="clip0_1124_14661">
<rect width="100" height="100" fill="white"/>
</clipPath>
</defs>
</svg>
