<svg xmlns="http://www.w3.org/2000/svg" width="64" height="64" viewBox="0 0 64 64"><g transform="translate(-8528.947 -692.496)"><circle cx="32" cy="32" r="32" transform="translate(8528.947 692.496)" fill="#086554"/><g transform="translate(8529.535 681.667)"><path d="M31.413,592.889A31.37,31.37,0,1,0,0,561.511,31.4,31.4,0,0,0,31.413,592.889Z" transform="translate(0 -518.691)" fill="#006554" fill-rule="evenodd"/><path d="M71.774,630.91a30.1,30.1,0,1,0-30.1-30.1A30.112,30.112,0,0,0,71.774,630.91Z" transform="translate(-40.361 -557.986)" fill="#fff" fill-rule="evenodd"/><path d="M108.9,666.886A28.9,28.9,0,1,0,80,637.971a28.908,28.908,0,0,0,28.9,28.915Z" transform="translate(-77.487 -595.151)" fill="#006554" fill-rule="evenodd"/><path d="M343.656,893.985A21.278,21.278,0,1,0,322.37,872.7,21.289,21.289,0,0,0,343.656,893.985Z" transform="translate(-312.243 -829.878)" fill="#fff" fill-rule="evenodd"/><path d="M376.578,925.839a20.21,20.21,0,1,0-20.218-20.218A20.216,20.216,0,0,0,376.578,925.839Z" transform="translate(-345.166 -862.8)" fill="#006554" fill-rule="evenodd"/><path d="M1214.535,1328.968c-.017-1.948-.758-3.016-2.084-3.016-1.464,0-2.222,1.55-2.222,4.6,0,1.378.121,2.91.93,3.738a1.947,1.947,0,0,0,1.43.551c1.137,0,1.946-1,2.136-2.635h0l2.049.137h0c-.258,2.824-1.877,4.495-4.323,4.495a3.9,3.9,0,0,1-2.859-1.154,8.691,8.691,0,0,1,0-10.523,4.052,4.052,0,0,1,2.945-1.171c2.513,0,3.944,1.6,4.237,4.788h0l-2.239.188Z" transform="translate(-1169.879 -1287.594)" fill="#fff" fill-rule="evenodd"/><path d="M930.95,1386.506v1.912h2.721V1390H930.95v3.289H929.28v-8.421h5.081v1.636Z" transform="translate(-900.089 -1346.562)" fill="#fff" fill-rule="evenodd"/><path d="M513.875,1328.968c-.034-1.948-.758-3.016-2.084-3.016-1.464,0-2.222,1.55-2.222,4.6,0,1.378.121,2.91.93,3.738a1.946,1.946,0,0,0,1.429.551c1.137,0,1.947-1,2.136-2.635h0l2.049.137h0c-.275,2.824-1.877,4.495-4.322,4.495a3.9,3.9,0,0,1-2.859-1.154,8.69,8.69,0,0,1,0-10.523,4.053,4.053,0,0,1,2.945-1.171c2.513,0,3.927,1.6,4.236,4.788h0l-2.239.188Z" transform="translate(-491.229 -1287.594)" fill="#fff" fill-rule="evenodd"/><path d="M166.9,676.392v-.654a.791.791,0,0,0,.379-.224,1.3,1.3,0,0,0,.31-.654h0l.31-1.12-1-.276v-.671l1.671.448-.5,1.895h0a1.773,1.773,0,0,1-.516.964,1.331,1.331,0,0,1-.655.293Zm0-5.442V670.4l2.067.138-.034.534h0l-2.032-.12Zm0-2.928v-.654l2.256.138-.052.654Zm0-4.219v-.654l1.826-.241.086.655Zm0-2.222v-.758a1.2,1.2,0,0,0,.482-1.378,1.239,1.239,0,0,0-.482-.637V658.1a2.043,2.043,0,0,1,1.016,1.223A1.859,1.859,0,0,1,166.9,661.581Zm0-3.479v.706a2.427,2.427,0,0,0-1.963-.052,1.686,1.686,0,0,0-.275.086V658.1l.1-.051a3.023,3.023,0,0,1,2.136.051Zm0,2.721v.758l-.293-.551h0A1.533,1.533,0,0,0,166.9,660.824Zm0,2.325v.654l-2.239.276v-.655Zm0,4.219v.654l-1.05-.069h0a1.856,1.856,0,0,0-1.016.138.674.674,0,0,0-.172.138v-.775a2.428,2.428,0,0,1,1.223-.138h0Zm0,3.031v.551l-1.24-.069h0a3.117,3.117,0,0,1-1-.207V670l.017.017a1.458,1.458,0,0,0,1.016.31h0Zm0,2.394v.672l-.637-.172-.259.964h0a1.438,1.438,0,0,0-.052.964.8.8,0,0,0,.568.482.731.731,0,0,0,.379.035v.654a1.414,1.414,0,0,1-.465-.034,1.151,1.151,0,0,1-.9-1.188h0a1.368,1.368,0,0,1-.88.706v-.62a1.151,1.151,0,0,0,.4-.172,1.266,1.266,0,0,0,.413-.792h0l.31-1.137-1.12-.293v-.689l2.239.62Zm-2.239-10.609V661.6a1.779,1.779,0,0,0,.293-.017h0l.052.6h0a1.14,1.14,0,0,1-.345,0Zm0-4.082v.741a3.482,3.482,0,0,0-.9.517,1.277,1.277,0,0,0-.43,1.343,1.29,1.29,0,0,0,1.326.9v.586a1.806,1.806,0,0,1-1.843-1.309C162.371,659.48,163.473,658.5,164.661,658.1Zm0,5.322v.655l-.431.051.31,2.394-.586.069h0l-.362-3.031,1.068-.138Zm0,4.03v.775a1.4,1.4,0,0,0-.293.844,1.215,1.215,0,0,0,.293.93v.672a1.844,1.844,0,0,1-.379-.258,1.743,1.743,0,0,1-.482-1.429,1.837,1.837,0,0,1,.586-1.361A1.5,1.5,0,0,1,164.661,667.454Zm0,4.719v.689l-.722-.207-.327,1.223h0a1.343,1.343,0,0,0-.017.861.853.853,0,0,0,.586.5,1.142,1.142,0,0,0,.482.017v.62a1.479,1.479,0,0,1-.672-.017,1.325,1.325,0,0,1-.93-.775,1.723,1.723,0,0,1,.017-1.309h0l.5-1.895h0l1.085.293ZM160.253,684.4v-1.894a.527.527,0,0,1,.172-.017.964.964,0,1,1,0,1.929h0A.54.54,0,0,1,160.253,684.4Zm0-29.122v-1.033l1.309,1.946-.482.327h0Zm0-1.1V653.4l3.41-2.308.379.534-3.789,2.549Zm0-5.218v-.9l.413-.4.448.465Zm0-.9v.9l-2.5,2.342,1.654,1.739-.413.4h0l-1.414-1.5v-1.36l2.67-2.513Zm0,5.34-.88.586.88,1.292v-1.033l-.035-.052.035-.017V653.4Zm0,29.105V684.4a.977.977,0,0,1-.792-.947.962.962,0,0,1,.792-.947Zm-2.67-34.909v-2.378l.069-.069.6.448Zm0-2.376V647.6l-.379,1.118v-1.963l.293-.861h0l-.293.224v-.637l.379-.258Zm0,5.356v1.36l-.379-.415v-.586Zm-.379-5.1v.637l-.775.534v-.62Zm0,1.274v1.963l-.706,2.049-.069-.069V648.94l.035-.1-.035-.017v-.62l.207.155.568-1.6Zm0,4.185v.586l-.31-.31Zm-.775-4.908v.62l-1.068.758,1.068.792v.62l-1.5-1.12-1.016.722V647.8l2.513-1.774Zm0,2.911V650.7l-.465-.327h0Zm-2.513,42.607V690.6l1.274,1.344-.6.276h0Zm0-4.977v-.465l.258.188-.258.275Zm0-41.453v-.88a.716.716,0,0,0,0-.534v-.842a1.531,1.531,0,0,1,.534.516,1.244,1.244,0,0,1,.052,1.154,1.214,1.214,0,0,1-.586.586Zm0-2.256v.844a.7.7,0,0,0-.086-.155,1.214,1.214,0,0,0-.586-.431h0l-1.05-.517-.448.913v-1.481l.086-.188,1.757.861h0c.121.052.224.1.327.155Zm0,1.378v.879a1.243,1.243,0,0,1-.758.069h0v.017h0a1.292,1.292,0,0,1,.4,1.636,1.357,1.357,0,0,1-.93.775,1.509,1.509,0,0,1-.88-.086v-.587a1.162,1.162,0,0,0,.637.069.817.817,0,0,0,.6-.482,1.046,1.046,0,0,0,0-.88,1.393,1.393,0,0,0-.689-.568h0l-.55-.257v-.552l.6.293h0a1.549,1.549,0,0,0,.947.224.808.808,0,0,0,.586-.465c.017-.017.017-.052.035-.086Zm0,3.565v.62l-.259.207-.448-.327Zm0,38.3v.465L153,687.621h0l-.258-.207.982-1.464.188.155Zm0,4.495v.947l-.448-.465-1.722.827v-.551l1.378-.655-1.378-1.464v-.911l2.17,2.273Zm-2.17,2.979v-1.6l.224,1.5Zm0-51.545v1.481l-.293.6.293.155v.552l-.517-.258-.827,1.722,1.137.551h0l.207.1v.586a2.119,2.119,0,0,1-.413-.172h0l-1.757-.844h0l2.17-4.478Zm0,46.292v.911l-.413-.43h0l.362,2.583.052-.034v.551h-.017l.017.069v1.6l-.259.121-.722-5.39.672-.327.31.346ZM142.6,694.01v-.5l.792-.035-.792-2.118v-1.033h.275l1.946,5.08-.654.035h0l-.6-1.481-.964.052Zm0-50.3v-2.566a3.4,3.4,0,0,1,.241,1.188A3.875,3.875,0,0,1,142.6,643.705Zm2.118,1.567.775-4.547-1.464-.258.1-.551,3.53.586-.086.568-1.445-.241-.775,4.547-.637-.1Zm4.719,49.1-3.668-3.738,1.1,4.374-.516.138-1.274-5.012.792-.207,3.41,3.5-1.033-4.1.534-.138,1.257,5.029-.6.155ZM142.6,641.139v2.566a1.95,1.95,0,0,1-1.808,1.378h-.069v-.517h.052c1.1-.034,1.414-1.309,1.378-2.187h0a2.9,2.9,0,0,0-.327-1.414,1.285,1.285,0,0,0-1.1-.672v-.534a1.992,1.992,0,0,1,1.877,1.378Zm0,49.186v1.033l-.121-.327h0l-.672,2.532.792-.052v.5l-.947.052-.362,1.516-.551.034,1.4-5.253Zm-1.877-50.563v.534h-.017c-1.154.034-1.445,1.274-1.429,2.2.017.879.4,2.049,1.447,2.067v.517c-1.429,0-2.1-1.292-2.118-2.566h0c-.035-1.292.568-2.721,2.066-2.756ZM138.036,693.1v-.534a1.051,1.051,0,0,0,.9-.172.978.978,0,0,0,.346-.637.8.8,0,0,0-.259-.758,1.1,1.1,0,0,0-.689-.258h0l-.293-.034v-.568l.362.052h0a1.919,1.919,0,0,1,1.136.465,1.413,1.413,0,0,1,.379,1.206,1.335,1.335,0,0,1-1.136,1.188h0l.689,2.513-.671-.085h0l-.637-2.359Zm0-2.962v.568l-.982-.138-.258,1.825,1.206.172h.034v.534l-1.309-.172-.31,2.223-.638-.087.706-5.132,1.55.207Zm-2.652-44.363v-.551a1.259,1.259,0,0,0,.5-.034c1.085-.258,1.12-1.567.913-2.428h0a3.034,3.034,0,0,0-.637-1.292,1.328,1.328,0,0,0-.775-.448v-.551a2.5,2.5,0,0,1,2.067,2.1c.293,1.223,0,2.79-1.429,3.134A2.781,2.781,0,0,1,135.384,645.772Zm0-5.3v.551a1.423,1.423,0,0,0-.465.017c-1.137.276-1.154,1.567-.93,2.463.172.723.637,1.585,1.395,1.722v.551a2.5,2.5,0,0,1-2.067-2.118h0c-.293-1.257,0-2.773,1.447-3.134A1.96,1.96,0,0,1,135.384,640.467ZM132.956,692.7v-.534l.741.259.034-2.6h0l-.775,1.033v-.844l.706-.947.706.241-.052,5.442-.637-.224h0l-.017-1.584Zm0-2.687v.844l-.775,1.05.775.258v.534l-1.1-.379-.723,1.016v-.86l1.825-2.463Zm-1.825.551a1.6,1.6,0,0,0,.5-.568,1.652,1.652,0,0,0,.1-1.309,1.674,1.674,0,0,0-.6-.689v.827a1.1,1.1,0,0,1,0,.706Zm0-43.175V646.27l.413.93-.413.188Zm0-2.687v-.568l1.1-.5.207.482Zm0-2.377v-.6l.586-.275.241.517Zm0-.6v.6l-1.223.55v-.619l1.223-.534Zm0,2.411v.568l-.585.258.585,1.308v1.12l-.172.086h0l-1.051-2.3v-1.586l.413.913Zm0,43.864v.827a.017.017,0,0,1-.017-.017,1.006,1.006,0,0,0-.534-.5h0l-.672-.362v-.6l.88.448h0c.121.069.224.138.346.207Zm0,1.533v1.034a1.482,1.482,0,0,1-.413.188,1.438,1.438,0,0,1-.81,0v-.568a1,1,0,0,0,.551.017,1.054,1.054,0,0,0,.586-.5c.034-.052.051-.12.086-.172Zm0,2.945v.861l-.188.258-.517-.172Zm-1.223-50.219v.619l-.258.12.258.586v1.587l-1.085-2.413Zm0,45.087v.6l-.327-.172-.931,1.757.964.517h0c.1.052.207.1.293.138v.568a2.926,2.926,0,0,1-.482-.207h0l-1.033-.534-.982,1.86-.569-.31h0l2.411-4.581.654.362Zm-5.683-34.6v-1.619a1.187,1.187,0,0,1,.258.792A1.473,1.473,0,0,1,124.224,652.747Zm0-3.927,1.068,2.687.413-.346-.6-1.445,1.481-1.223,1.36.827h0l.516-.431-4.237-2.67v.742l1.929,1.24-1.223,1.016-.706-1.757Zm0-2.6v.742l-.258-.172h0l.258.672v1.36l-.346-.844V646Zm0,4.908v1.619c-.086.121-.188.241-.293.379h0l-.051.069v-2.411c.034.017.051.052.086.069A1.877,1.877,0,0,1,124.224,651.128ZM123.879,646v1.981l-.31-.792v-.965l.275-.241Zm0,4.788v2.411l-.31.379v-.88a1.107,1.107,0,0,0,.275-.672.792.792,0,0,0-.275-.654v-.756a2.786,2.786,0,0,1,.311.172Zm-.31-4.564v.965l-.293-.723.293-.241Zm0,4.392v.758c-.017-.017-.035-.035-.052-.035a.994.994,0,0,0-.861-.224,1.311,1.311,0,0,0-.706.551h0l-.31.379v-.792a1.093,1.093,0,0,0,.259-.62.8.8,0,0,0-.259-.637v-.775a1.011,1.011,0,0,1,.293.172,1.149,1.149,0,0,1,.31,1.447h0l.017.017h0A1.319,1.319,0,0,1,123.569,650.611Zm0,2.084v.88l-.861,1.05h0l-1.068-.861v-.844l1.051.861.792-.982h0c.034-.034.052-.069.086-.1Zm-1.928,31.722v-1.929h.052a.964.964,0,1,1,0,1.929Zm0-28.226v-.758l.431.258-.346.568h0Zm-2.636,16.447a1.965,1.965,0,0,1,0,2.79v-1.171a1,1,0,0,0,0-.551v-1.068Zm2.636-23.422v.775l-.052-.051a.752.752,0,0,0-.775-.138,1.314,1.314,0,0,0-.551.465h0l-.74.913,1.309,1.068.637-.775h0a2.469,2.469,0,0,0,.172-.224v.792l-.43.534.43.346v.844l-2.636-2.154v-.655l.93-1.119h0a1.742,1.742,0,0,1,.861-.672,1.182,1.182,0,0,1,.844.052Zm0,6.217v.758l-2.636-1.584v-.758l2.635,1.584Zm0,27.055v1.929a.964.964,0,0,1-.911-.964A.952.952,0,0,1,121.641,682.489Zm-2.636-19.444v-.637l.188-.052-.1.672h0Zm0-1.739v-.672l.689.207-.172.62h0l-.517-.154Zm0-3.152v-.706l1.723.76-.276.585h0Zm-1.618,13.985a2.209,2.209,0,0,1,1.619.5v1.051c-.207-.775-.88-.965-1.584-.947h0Zm1.618,3.29a3.385,3.385,0,0,1-1.533.861,3.6,3.6,0,0,1-1.344.121v-.689a3.515,3.515,0,0,0,1.206-.138,2.97,2.97,0,0,0,1.171-.568,1.469,1.469,0,0,0,.5-.758Zm0-24.472v.655l-.31-.258Zm0,2.893v.758l-1.7-1.033.328-.55Zm0,3.6v.706l-2.755-1.223-.121.241v-1.395l.448-1.016.517.224-.586,1.343Zm0,3.186v.672l-2.876-.861v-.672Zm0,1.774v.636l-2.273.6-.207,1.429,2.222.31-.086.655-2.532-.379v-1.5l.052-.379h0a1.137,1.137,0,0,0-.052-.758v-.911a1.3,1.3,0,0,1,.551.9h0l2.325-.6Zm-2.876,8.921v-.689h.138c.88-.052,2.067-.482,2-1.584-.069-1.05-1.257-1.343-2.136-1.309v-.672c1.223-.017,2.566.551,2.652,1.948.1,1.481-1.188,2.222-2.48,2.291h0a.641.641,0,0,1-.172.015Zm0,5.08a1.981,1.981,0,0,1-1.757-1.516,1.86,1.86,0,0,1,1.1-2.221h0l.276.549h0c-.586.346-1.05.809-.844,1.55a1.3,1.3,0,0,0,1.223.947v.689Zm0-20.632v1.4l-.482,1.1-.516-.226,1-2.273Zm0,4v.672l-1.584-.466.188-.62,1.395.413Zm0,2.342v.911a.4.4,0,0,0-.1-.155.928.928,0,0,0-.637-.362.794.794,0,0,0-.758.258,1.065,1.065,0,0,0-.259.689h0l-.188,1.274,1.826.258.12-.826v1.5l-2.6-.379.293-1.912h0a1.832,1.832,0,0,1,.482-1.12,1.379,1.379,0,0,1,1.188-.379,1.491,1.491,0,0,1,.637.241Zm0,4.96v.672h-.1a3.037,3.037,0,0,0-1.4.4,1.27,1.27,0,0,0-.62,1.152c.052,1.1,1.206,1.378,2.118,1.343v.689c-1.24.017-2.566-.551-2.652-1.979-.017,0-.017-.017-.017-.034v-.189a2.358,2.358,0,0,1,2.48-2.049Z" transform="translate(-109.896 -624.858)" fill="#fff" fill-rule="evenodd"/><path d="M551.28,944.421c-3.41,1.981-6.8,7.732-7.147,8.318-.362.586-3.41-2.273-3.014-2.858a15.73,15.73,0,0,1,7.044-5.373C550.471,943.68,552.107,943.835,551.28,944.421Z" transform="translate(-524.087 -919.476)" fill="#fff" fill-rule="evenodd"/><path d="M679.467,967.881c-2.015,2.772-3.53,8.628-3.7,9.282-.172.672-4.236-.844-3.978-1.567a21.708,21.708,0,0,1,2.687-4.478,14.809,14.809,0,0,1,4.081-3.927C679.278,966.831,680.173,966.934,679.467,967.881Z" transform="translate(-650.672 -941.818)" fill="#fff" fill-rule="evenodd"/><path d="M837.047,987.125c0,.758-4.995.293-4.874-.568.12-.844,1.445-6.855,3.6-9.507a1.732,1.732,0,0,1,.4-.4.482.482,0,0,1,.775.4C837.047,980.564,837.047,986.35,837.047,987.125Z" transform="translate(-806.03 -951.073)" fill="#fff" fill-rule="evenodd"/><path d="M551.28,1834.281c-3.41-2-6.8-7.734-7.147-8.318-.362-.585-3.41,2.256-3.014,2.841a15.7,15.7,0,0,0,7.044,5.372C550.471,1835.022,552.107,1834.85,551.28,1834.281Z" transform="translate(-524.087 -1773.723)" fill="#fff" fill-rule="evenodd"/><path d="M679.467,1765.422c-2.015-2.773-3.53-8.645-3.7-9.316-.172-.654-4.236.88-3.978,1.6a22.209,22.209,0,0,0,2.687,4.478,14.81,14.81,0,0,0,4.081,3.927C679.278,1766.472,680.173,1766.369,679.467,1765.422Z" transform="translate(-650.672 -1705.982)" fill="#fff" fill-rule="evenodd"/><path d="M837.047,1726.964c0-.775-4.995-.293-4.874.551.12.861,1.445,6.889,3.6,9.541a2.161,2.161,0,0,0,.4.4c.31.224.81.069.775-.207C837.047,1733.734,837.047,1727.723,837.047,1726.964Z" transform="translate(-806.03 -1677.532)" fill="#fff" fill-rule="evenodd"/><path d="M1129.283,1834.281c3.41-2,6.8-7.732,7.147-8.318.362-.585,3.41,2.256,3.031,2.841a15.8,15.8,0,0,1-7.044,5.372C1130.091,1835.022,1128.455,1834.85,1129.283,1834.281Z" transform="translate(-1093.598 -1773.723)" fill="#fff" fill-rule="evenodd"/><path d="M1077.057,1765.383c2.032-2.773,3.531-8.645,3.7-9.317.172-.654,4.237.879,3.978,1.6a21.359,21.359,0,0,1-2.687,4.478,14.811,14.811,0,0,1-4.081,3.926C1077.246,1766.433,1076.351,1766.33,1077.057,1765.383Z" transform="translate(-1042.975 -1705.944)" fill="#fff" fill-rule="evenodd"/><path d="M1014.25,1726.964c0-.775,4.995-.293,4.874.551-.121.861-1.447,6.889-3.6,9.541a2.031,2.031,0,0,1-.379.4c-.327.224-.809.069-.792-.207C1014.25,1733.734,1014.25,1727.723,1014.25,1726.964Z" transform="translate(-982.39 -1677.532)" fill="#fff" fill-rule="evenodd"/><path d="M1126.517,944.422c3.393,1.981,6.8,7.733,7.148,8.318.361.586,3.41-2.273,3.014-2.858a15.721,15.721,0,0,0-7.043-5.373C1127.328,943.681,1125.691,943.836,1126.517,944.422Z" transform="translate(-1090.92 -919.478)" fill="#fff" fill-rule="evenodd"/><path d="M1074.31,967.881c2.015,2.772,3.53,8.628,3.7,9.282.172.672,4.237-.844,3.978-1.567a21.694,21.694,0,0,0-2.686-4.478,14.8,14.8,0,0,0-4.082-3.927C1074.5,966.831,1073.6,966.934,1074.31,967.881Z" transform="translate(-1040.314 -941.818)" fill="#fff" fill-rule="evenodd"/><path d="M1011.51,987.125c0,.758,4.995.293,4.874-.568-.121-.844-1.447-6.855-3.6-9.507a1.73,1.73,0,0,0-.4-.4.482.482,0,0,0-.775.4C1011.51,980.564,1011.51,986.35,1011.51,987.125Z" transform="translate(-979.736 -951.073)" fill="#fff" fill-rule="evenodd"/></g></g></svg>