<svg width="100" height="100" viewBox="0 0 100 100" fill="none" xmlns="http://www.w3.org/2000/svg">
<g clip-path="url(#clip0_1124_12365)">
<path d="M50 100C77.6142 100 100 77.6142 100 50C100 22.3858 77.6142 0 50 0C22.3858 0 0 22.3858 0 50C0 77.6142 22.3858 100 50 100Z" fill="#005596"/>
<path d="M49.9999 98.7333C76.9146 98.7333 98.7333 76.9147 98.7333 50C98.7333 23.0853 76.9146 1.26666 49.9999 1.26666C23.0853 1.26666 1.2666 23.0853 1.2666 50C1.2666 76.9147 23.0853 98.7333 49.9999 98.7333Z" fill="#005596"/>
<path d="M50 2.53333C76.1714 2.53333 97.4667 23.8286 97.4667 50C97.4667 76.1714 76.1714 97.4667 50 97.4667C23.8286 97.4667 2.53333 76.1714 2.53333 50C2.53333 23.8286 23.8286 2.53333 50 2.53333ZM50 0C22.3857 0 0 22.3857 0 50C0 77.6143 22.3857 100 50 100C77.6143 100 100 77.6143 100 50C100 22.3857 77.6143 0 50 0Z" fill="#005596"/>
<path d="M50 100C77.6142 100 100 77.6142 100 50C100 22.3858 77.6142 0 50 0C22.3858 0 0 22.3858 0 50C0 77.6142 22.3858 100 50 100Z" fill="#244D86"/>
<path d="M50 2.53333C76.1714 2.53333 97.4667 23.8286 97.4667 50C97.4667 76.1714 76.1714 97.4667 50 97.4667C23.8286 97.4667 2.53333 76.1714 2.53333 50C2.53333 23.8286 23.8286 2.53333 50 2.53333ZM50 0C22.3857 0 0 22.3857 0 50C0 77.6143 22.3857 100 50 100C77.6143 100 100 77.6143 100 50C100 22.3857 77.6143 0 50 0Z" fill="#F5C148"/>
<path d="M33.6284 36.9286L28.8427 31.9714L26.1094 35.1524L30.4665 39.9048L33.6284 36.9286Z" fill="#244D86"/>
<path d="M54.0903 53.9571L57.7665 54.1381L57.5665 52.0952L54.0903 53.9571Z" fill="#244D86"/>
<path d="M51.8 44.1381L48.1143 43.8048L48.2095 45.7L51.8 44.1381Z" fill="#244D86"/>
<path d="M37.6764 25.3619L34.8478 28.6571L34.6621 31.9714L37.6764 32.3571V25.3619Z" fill="#244D86"/>
<path d="M43.5094 38.419L43.5808 36.6905L42.6284 37.5143L43.5094 38.419Z" fill="#244D86"/>
<path d="M56.038 34.8L55.5809 29.7524L52.1904 32.6667L52.2904 34.319L56.038 34.8Z" fill="#244D86"/>
<path d="M67.6953 65.019L67.8477 66.4762H70.9905L73.4715 65.0476L67.6953 65.019Z" fill="#244D86"/>
<path d="M58.6287 65.0238L49.3716 64.9857L49.4716 66.5286L54.6335 66.5429L54.9906 72.0191L64.1716 74.9381L67.5621 73.4048L59.0573 70.5714L58.6287 65.0238Z" fill="#244D86"/>
<path d="M64.624 58.1381L64.7669 61.4429L65.7621 60.6095L65.6859 59.0857L64.624 58.1381Z" fill="#244D86"/>
<path d="M38.9382 69.6429L38.7382 64.9762L31.1001 64.9286L31.0953 54.1L28.2382 56.5905L28.1953 66.7286H35.4715L35.6144 71.2857L46.1334 74.319L48.9477 72.6048L38.9382 69.6429Z" fill="#244D86"/>
<path d="M35.2335 51.2381L38.3002 49.8714L38.0192 42.7905L29.3192 41.881L26.8525 44.8095L35.0144 45.5524L35.2335 51.2381Z" fill="#244D86"/>
<path d="M60.0474 39.7476L61.0331 40.6952L61.014 38.8667L60.0474 39.7476Z" fill="#244D86"/>
<path d="M73.162 64.2476L69.3334 59.9571L72.1382 55.7429L65.762 55.3952L64.9287 47.6476L69.7906 45.1381L68.8477 37.4286L63.6715 36.7238L63.2525 33.2905L56.3858 30.0048L56.8906 35.6809L46.662 34.3571V29.1905L38.5477 25.419V33.2381L30.2953 32.1667L34.7144 36.9571L30.1382 41.2571L38.862 42.1095L39.1239 50.3476L31.8906 53.5286L31.9334 64.1333L39.5096 64.1571L39.7001 69.0619L49.081 71.8143L48.5668 64.1905L59.3763 64.2238L59.8287 70.0047L67.7382 72.6619L66.8382 64.2429H73.1763L73.162 64.2476ZM64.8048 46.5952L64.6239 44.5857L68.1477 44.9L64.8048 46.5952ZM55.6001 37.0333L58.4049 37.3857L58.3763 38.3238L57.4239 38.2L57.2096 42.9429L56.3668 42.1333L56.5144 38.1L55.562 37.9809L55.6001 37.0381V37.0333ZM55.0191 43.6238L47.481 46.8857L47.2906 42.919L54.9572 43.619H55.0191V43.6238ZM51.1763 36.4619L52.2191 36.6L52.1334 38.6286L52.9525 38.4048L53.3429 38.7524L53.4334 36.7476L54.4049 36.8714L54.2191 42.2143L53.2287 42.1048L53.3049 39.7714L52.9763 39.4429L52.0906 39.6905L52.0096 41.9857L50.981 41.8762L51.1763 36.4667V36.4619ZM46.1287 40.3333L47.0429 39.6762L47.0049 40.5286L48.4429 40.6905L48.4715 39.9381L46.2001 38.3095L46.2429 37.1667L47.3668 35.9714L49.4525 36.2333L49.4096 37.1714L48.5096 37.8143L48.5382 37.0095L48.0048 36.9429L47.3287 37.619V37.8429L49.3572 39.3238L49.2572 41.6857L46.081 41.3524L46.1239 40.3381L46.1287 40.3333ZM38.8525 40.5809L38.9429 38.1381L38.6144 37.8095L37.7287 38.0571L37.6382 40.4571L36.6096 40.3476L36.8049 34.6095L37.8525 34.7476L37.7668 36.9857L38.5858 36.7619L38.981 37.1095L39.062 34.8905L40.0334 35.0143L39.8429 40.6809L38.8477 40.5809H38.8525ZM39.1334 51.7714L39.1763 53.9476L34.6144 53.7095L39.1287 51.7714H39.1334ZM41.3858 60.2857L41.3429 62.5L38.1477 62.4667L38.3191 55.6905L39.3572 55.7381L39.2525 61.3809H40.2763L40.3906 55.7857L41.5144 55.8381L41.3763 60.2905L41.3858 60.2857ZM43.3858 41.0476L43.4477 39.4381L42.6239 38.5952L42.5477 40.9619L41.6858 40.8809L41.8191 37.0667L43.6334 35.4905L44.4715 35.6L44.2668 41.1667L43.3858 41.0476ZM47.8001 62.5619H46.762V60.0095L45.581 58.6048L45.5048 62.5524H44.4382L44.6048 55.9952L45.7906 56.0476L45.7715 57.0095L46.8668 58.319L46.9096 56.1L47.8668 56.1429L47.8001 62.5667V62.5619ZM47.9906 54.4286L47.6001 48.0095L56.762 43.8619H57.4906L58.0477 49.8476L48.8477 54.4857L47.9906 54.4286ZM51.5858 62.6L50.6144 62.5905L50.6715 56.2667L51.6334 56.3095L51.5906 62.6H51.5858ZM56.8096 57.6286L55.881 57.5857L55.8239 62.9905L54.7906 62.1524L54.8477 57.5428L53.8001 57.4952V56.4048L56.8287 56.5429L56.8096 57.6286ZM51.2429 54.6048L58.2525 50.8524L58.6572 55.0143L51.2429 54.6048ZM61.2668 59.2429L60.4858 60.2809H59.8525L59.8287 61.6L60.9287 61.619L61.7715 62.6952L58.7668 62.6619L58.8287 56.6428L61.8239 56.7857L60.9572 57.819L59.8477 57.7714L59.8239 59.1905L61.2715 59.2381L61.2668 59.2429ZM61.0429 42.9381V41.7L60.0763 40.7714L60.0953 42.8286L59.2429 42.7429L59.2239 39.2952L61.0239 37.7095L61.8715 37.819L61.9191 43.019L61.0477 42.9381H61.0429ZM63.1572 38L66.2191 38.3762V39.5381L65.2334 39.9667V39.1619L64.0572 39.019L64.1001 41.3476L65.0001 42.1905V40.4524L66.2763 41.6952V42.5476L65.9048 42.2048V43.4048L64.9334 43.319L63.2525 41.7905L63.1572 37.9952V38ZM64.8858 62.7048H63.8668L63.7239 56.8524L64.6525 56.8952L66.5334 58.5952L66.6858 61.1952L64.8858 62.7048Z" fill="#244D86"/>
<path d="M74.9333 65.0667L70.3143 59.8905L73.5714 55.0286L66.4714 54.6L65.7666 48.1L70.6286 45.5905L69.5714 36.7667L64.3952 36.0619L64.0047 32.8095L55.4952 28.7286L51.3857 32.3333L51.5 34.219H51.4809L47.4952 33.7048L47.419 28.7238L37.7047 24.219L34.1428 28.3524L33.9524 31.8714L28.4524 31.1571L25.0762 35.181L29.8762 40.4143L28.9952 41.2524L25.2714 45.4667L34.2762 46.2619L34.4809 51.5857L31.2524 52.9381L27.4619 56.2286L27.4143 67.4857H34.7238L34.8714 71.8857L46.2571 75.1857L49.9428 72.9095L49.5381 67.3333H53.9L54.2428 72.619L64.2285 75.7952L68.6238 73.8L67.9285 67.2381H71.2L74.9333 65.081V65.0667ZM55.5714 29.7524L56.0238 34.8048L52.2762 34.3238L52.1762 32.6714L55.5714 29.7571V29.7524ZM34.8381 28.6571L37.6619 25.3619V32.3571L34.6476 31.9714L34.8333 28.6571H34.8381ZM26.1095 35.1429L28.8381 31.9714L33.6238 36.9238L30.4714 39.9L26.1095 35.1429ZM26.8524 44.8L29.319 41.8714L38.019 42.7714L38.2952 49.8667L35.2238 51.2333L35 45.5476L26.8524 44.8ZM48.9524 72.5952L46.1333 74.319L35.6143 71.2857L35.4714 66.7286H28.1905L28.2333 56.5952L31.0857 54.0952V64.9238L38.7238 64.9714L38.9238 69.6333L48.9381 72.5952H48.9476H48.9524ZM64.1714 74.919L54.9857 71.9905L54.6286 66.5143L49.4666 66.5048L49.3666 64.9619L58.6238 65L59.0524 70.5476L67.5571 73.3952L64.1619 74.919H64.1714ZM59.8047 69.9667L59.3524 64.1857L48.5428 64.1524L49.0571 71.7857L39.6762 69.0333L39.4857 64.1286L31.9095 64.1048L31.8666 53.5L39.1 50.319L38.8381 42.081L30.1143 41.2286L34.6905 36.9286L30.2714 32.1381L38.5238 33.2095V25.4048L46.6571 29.1762V34.3429L56.8857 35.6667L56.3809 29.9905L63.2476 33.2762L63.6762 36.7095L68.8524 37.4143L69.7952 45.1238L64.9333 47.6333L65.7524 55.3857L72.119 55.7333L69.3238 59.9476L73.1524 64.2381L66.8095 64.2238L67.7095 72.6429L59.7952 69.9714L59.8047 69.9667ZM67.8476 66.4524L67.6952 64.9952L73.4714 65.0238L70.9952 66.4571H67.8476V66.4524Z" fill="#F5C148"/>
<path d="M51.2285 54.6L58.6428 55.0095L58.238 50.8476L51.2285 54.6ZM54.0904 53.9619L57.5666 52.1L57.7618 54.1381L54.0904 53.9619Z" fill="#F5C148"/>
<path d="M39.1285 51.7667L34.6143 53.7048L39.1762 53.9429L39.1285 51.7667Z" fill="#F5C148"/>
<path d="M64.805 46.5857L68.1478 44.8905L64.624 44.5762L64.805 46.5857Z" fill="#F5C148"/>
<path d="M57.4952 43.8524H56.7666L47.5952 48.0048L47.9857 54.4286L48.8524 54.4762L58.0524 49.8381L57.4952 43.8524Z" fill="#F5C148"/>
<path d="M47.2856 42.9143L47.4761 46.881L55.0142 43.6191H54.9571L47.2904 42.9191L47.2856 42.9143ZM51.8047 44.1286L48.1999 45.6905L48.1095 43.7952L51.8047 44.1286Z" fill="#F5C148"/>
<path d="M40.2764 61.3762H39.2526L39.3574 55.7333L38.3145 55.6857L38.1431 62.4619L41.3383 62.4952L41.3812 60.2857L41.5097 55.8333L40.3907 55.781L40.2764 61.3762Z" fill="#F5C148"/>
<path d="M46.862 58.3L45.7668 56.9905L45.7859 56.0286L44.6001 55.9762L44.4287 62.5333L45.5001 62.5381L45.5716 58.5952L46.7525 60V62.5524L47.7906 62.5619L47.8573 56.1191L46.9001 56.081L46.862 58.3Z" fill="#F5C148"/>
<path d="M50.6001 62.5762L51.5715 62.5905L51.6144 56.3L50.6525 56.2571L50.6001 62.5762Z" fill="#F5C148"/>
<path d="M53.7905 57.4857L54.8334 57.5333L54.7762 62.1429L55.8143 62.9809L55.8667 57.5809L56.7953 57.619L56.8143 56.5333L53.7905 56.3952V57.4857Z" fill="#F5C148"/>
<path d="M60.9522 57.8048L61.8189 56.7714L58.8236 56.6238L58.7617 62.6429L61.7712 62.6762L60.9236 61.6048L59.8284 61.5857L59.8522 60.2667L60.4855 60.2809L61.2665 59.2381L59.8189 59.1762L59.8427 57.7571L60.9522 57.8048Z" fill="#F5C148"/>
<path d="M64.6571 56.8857L63.7285 56.8429L63.8714 62.6952H64.8904L66.6904 61.1809L66.538 58.5809L64.6571 56.8809V56.8857ZM64.7714 61.4429L64.6238 58.1381L65.6904 59.0905L65.7666 60.6143L64.7714 61.4429Z" fill="#F5C148"/>
<path d="M56.3668 42.119L57.2144 42.9333L57.4239 38.1905L58.3763 38.3143L58.4049 37.381L55.6001 37.0238L55.562 37.9667L56.5144 38.0857L56.3668 42.119Z" fill="#F5C148"/>
<path d="M49.343 39.3191L47.3239 37.8381L47.3382 37.6143L48.0096 36.9333L48.5382 37L48.5144 37.8048L49.4239 37.1619L49.4668 36.2286L47.3811 35.9619L46.243 37.1571L46.2049 38.3L48.4763 39.9333L48.4477 40.6905L47.0049 40.5286L47.043 39.6762L46.1287 40.3286L46.0811 41.3429L49.2572 41.6762L49.343 39.3191Z" fill="#F5C148"/>
<path d="M40.0336 35.0238L39.0574 34.8952L38.9764 37.1095L38.5859 36.7619L37.7621 36.981L37.8478 34.7429L36.8002 34.6L36.605 40.3429L37.6336 40.4524L37.724 38.0524L38.6097 37.8048L38.9383 38.1333L38.8478 40.5809L39.8431 40.6857L40.0336 35.0238Z" fill="#F5C148"/>
<path d="M43.6332 35.4857L41.8189 37.0619L41.6855 40.8762L42.5475 40.9571L42.6236 38.5905L43.4475 39.4333L43.3855 41.0429L44.2665 41.1571L44.4713 35.5905L43.6332 35.4857ZM43.5094 38.4143L42.6332 37.5143L43.5855 36.6905L43.5094 38.4143Z" fill="#F5C148"/>
<path d="M61.0002 37.7048L59.2002 39.2905L59.2192 42.7381L60.0716 42.8238L60.0526 40.7667L61.0192 41.6952V42.9333L61.8716 43.0143L61.824 37.8143L61.0002 37.7048ZM60.0478 39.7429L61.0145 38.8667L61.0335 40.6952L60.0478 39.7429Z" fill="#F5C148"/>
<path d="M52.0905 39.681L52.9762 39.4333L53.3048 39.7619L53.2286 42.0952L54.2191 42.2L54.4048 36.8619L53.4333 36.7381L53.3429 38.7429L52.9524 38.3905L52.1333 38.6095L52.2191 36.5905L51.1762 36.4524L50.981 41.8619L52.0095 41.9762L52.0905 39.681Z" fill="#F5C148"/>
<path d="M65.8954 43.4V42.2L66.2669 42.5429V41.6905L64.9907 40.4476V42.1857L64.0907 41.3429L64.0478 39.0143L65.224 39.1571V39.9619L66.2145 39.5333V38.3667L63.1621 37.9952L63.2431 41.7857L64.9288 43.3143L65.8954 43.4Z" fill="#F5C148"/>
</g>
<defs>
<clipPath id="clip0_1124_12365">
<rect width="100" height="100" fill="white"/>
</clipPath>
</defs>
</svg>
