<svg width="100" height="100" viewBox="0 0 100 100" fill="none" xmlns="http://www.w3.org/2000/svg">
<g clip-path="url(#clip0_1124_13920)">
<path d="M50 100C77.6142 100 100 77.6142 100 50C100 22.3858 77.6142 0 50 0C22.3858 0 0 22.3858 0 50C0 77.6142 22.3858 100 50 100Z" fill="#1E4693"/>
<path d="M50 2.53333C76.1714 2.53333 97.4667 23.8286 97.4667 50C97.4667 76.1714 76.1714 97.4667 50 97.4667C23.8286 97.4667 2.53333 76.1714 2.53333 50C2.53333 23.8286 23.8286 2.53333 50 2.53333ZM50 0C22.3857 0 0 22.3857 0 50C0 77.6143 22.3857 100 50 100C77.6143 100 100 77.6143 100 50C100 22.3857 77.6143 0 50 0Z" fill="#FBED21"/>
<path fill-rule="evenodd" clip-rule="evenodd" d="M28.9618 50.5095L31.1285 47.4333C31.3237 47.181 31.6523 46.6667 31.8571 46.3952L33.038 44.7286C33.0713 44.681 33.0999 44.6476 33.1285 44.6C33.1856 44.5095 33.2523 44.4286 33.3094 44.3381C33.9332 43.3524 34.5904 43.4952 35.9666 43.4952H64.0094C65.0285 43.4952 65.5904 43.3476 66.2713 43.8524C66.4999 44.0238 66.6761 44.319 66.8523 44.5762C66.9142 44.6619 66.9761 44.7429 67.038 44.8286L70.6713 49.981C70.7571 50.1143 70.9951 50.419 71.0332 50.5095C71.0713 50.3524 71.0428 45.0762 71.0428 44.7667V28.9143C71.0428 28.3857 71.0951 28.019 70.7523 27.7476C70.5809 27.6095 70.519 27.5857 70.2618 27.5333L68.4618 27.1667C62.6761 25.9905 55.8523 25.4238 49.9999 25.4143C44.119 25.4 37.3666 26.0048 31.5523 27.1619C31.1523 27.2429 30.7475 27.319 30.3571 27.4C29.9761 27.481 29.4761 27.5286 29.238 27.7381C28.8809 28.0524 28.9428 28.2905 28.9428 28.8714V49.0714C28.9428 49.3238 28.9094 50.3476 28.9523 50.5095H28.9618Z" fill="#FBED21"/>
<path fill-rule="evenodd" clip-rule="evenodd" d="M38.6333 71.5429C39.1143 71.4286 40.8667 70.8524 41.4381 70.6667C41.9048 70.5143 42.3762 70.3667 42.8476 70.2238C44.5333 69.7048 43.9952 69.7143 45.7143 70.2524C46.181 70.4 46.6571 70.5429 47.1286 70.6952C47.5333 70.8238 49.7524 71.5524 49.981 71.5524C50.2143 71.5524 52.4333 70.8333 52.8238 70.7048L54.9429 70.0429C55.1238 69.9857 55.481 69.8524 55.6619 69.8381C55.981 69.8095 56.7952 70.1095 57.1238 70.2143L61.3476 71.5476C61.1191 71.7905 59.2191 72.7667 58.9048 72.9191C58.7333 73 58.7238 72.9571 58.5429 72.9048C58.1095 72.7714 56.2238 72.1762 55.9714 72.119C55.5857 72.0333 54.8095 72.3429 54.4381 72.4571L51.5095 73.3476C51.2238 73.4381 50.2476 73.7667 50 73.7714C49.7333 73.7714 48.8095 73.4476 48.5048 73.3571L45.5714 72.4667C43.8857 71.9619 44.4524 71.9857 42.5714 72.5619L41.4714 72.9C41.3143 72.9476 41.2381 73.0095 41.0857 72.9381C40.6571 72.7381 40.2048 72.5095 39.8191 72.2857C39.6143 72.1667 39.4238 72.0619 39.2143 71.9381L38.6571 71.5857C38.6095 71.5429 38.6524 71.5857 38.6191 71.5476L38.6333 71.5429ZM34.4714 68.0524L33.7571 67.2191C33.6 67.0381 32.5381 65.6714 32.4429 65.4333C32.8952 65.3619 33.2143 65.5286 33.6095 65.6429L37.9286 66.9524C38.5048 67.1286 38.5333 67.1095 39.0952 66.9333L43.4048 65.6143C43.7857 65.4952 44.1333 65.3333 44.5619 65.4667C44.9191 65.5762 45.2762 65.681 45.6286 65.7905L48.881 66.781C50.2095 67.1762 49.7571 67.1857 51.1048 66.781C52.5095 66.3619 54.0429 65.9095 55.4238 65.4714C55.8619 65.3333 56.1952 65.5048 56.581 65.6191C57.2952 65.8333 58.0143 66.0524 58.7286 66.2762C59.4476 66.5 60.1714 66.7238 60.8905 66.9381C61.4714 67.1095 61.4572 67.1381 62.0572 66.9571L65.2905 65.9762C65.6476 65.8667 66.0143 65.7524 66.3762 65.6476C66.781 65.5286 67.0714 65.381 67.5286 65.4333C67.4762 65.5667 67.2857 65.8 67.2048 65.9238C67.1524 66 67.0905 66.0905 67.0429 66.1619L66.3762 67.0381C66.0429 67.4476 65.7667 67.7238 65.4714 68.0762C65.3762 68.1905 65.4048 68.1762 65.2286 68.2286L64.3524 68.5048C63.5619 68.7619 62.7714 68.9905 61.981 69.2476C61.381 69.4429 61.2714 69.3143 60.7191 69.1476L57.1762 68.0333C55.7667 67.5905 56.0381 67.4905 54.7429 67.9048L51.1952 69.0143C49.7762 69.4714 50.1667 69.4381 48.7667 69.0048L45.2143 67.8952C43.9905 67.5 44.2238 67.5905 42.781 68.0429L39.2191 69.1619C38.6333 69.3429 38.6 69.4238 37.9714 69.2381L34.9952 68.3048C34.6619 68.2 34.6095 68.2286 34.4667 68.0571L34.4714 68.0524ZM30.4333 61.6048C30.581 61.5333 30.8619 61.4667 31.0333 61.4095C33.0238 60.7667 32.4333 60.8333 34.1238 61.3381C34.5333 61.4619 34.9333 61.5857 35.3333 61.7143C36.1429 61.9762 36.9524 62.2143 37.7571 62.4714C38.381 62.6714 38.3857 62.7238 39.0381 62.5238L43.8571 61.0048C44.3619 60.8429 44.6762 61.0333 45.1333 61.1714L48.7667 62.3048C50.1952 62.7476 49.7667 62.7714 51.2286 62.3048L54.8619 61.1714C55.3048 61.0381 55.6476 60.8476 56.1381 61.0048L59.7476 62.1429C60.1524 62.2714 60.5524 62.3952 60.9571 62.5238C61.6095 62.7286 61.6191 62.6667 62.2381 62.4714L65.8714 61.3333C67.3048 60.8762 67.0524 60.7952 68.3572 61.2143C68.7524 61.3429 69.1572 61.4667 69.5476 61.5857C69.4381 62.0048 68.8619 63.0952 68.6524 63.5524C68.281 63.4857 67.8667 63.281 67.4905 63.2095C67.1429 63.1429 66.581 63.3667 66.2619 63.4667L62.8048 64.5143C61.4476 64.9143 61.7857 65 60.4238 64.5762L56.9905 63.5286C55.5667 63.0857 55.9952 63.0952 54.6095 63.5048L51.1524 64.5524C49.8143 64.9476 50.2095 64.9857 48.8 64.5429L45.3429 63.4952C45.0381 63.4048 44.4476 63.1762 44.1286 63.2048C43.9571 63.2191 43.1857 63.4762 42.9619 63.5429L39.5286 64.5952C39.2048 64.6905 38.6476 64.9191 38.3048 64.8619L33.6905 63.4667C33.3571 63.3667 32.8191 63.1381 32.4619 63.2286C32.1571 63.3048 31.5524 63.5286 31.3143 63.5714C31.2714 63.4381 31.1429 63.2238 31.0762 63.081C30.8619 62.6429 30.5905 62.0571 30.4286 61.6095L30.4333 61.6048ZM29.2714 57.4857C29.6429 57.4 31.3524 56.8429 31.8286 56.6905C32.4048 56.5048 32.5619 56.3762 33.1952 56.5762C33.6286 56.7143 34.0429 56.8429 34.4714 56.9762C35.3191 57.2381 36.1762 57.5191 37.0286 57.7762C37.2714 57.8476 38.1524 58.1429 38.3143 58.1714C38.6571 58.2333 39.3429 57.9619 39.6667 57.8571C40.5191 57.5857 41.3572 57.3143 42.2191 57.0524C42.6476 56.9191 43.0667 56.7857 43.4952 56.6524C44.181 56.4381 44.1476 56.3952 44.8571 56.6143L48.6952 57.8143C50.2952 58.3048 49.7286 58.3 51.3238 57.8095C51.7476 57.681 52.1714 57.5429 52.6048 57.4095C53.4571 57.1429 54.3095 56.8667 55.1619 56.6095C55.8905 56.3905 55.8286 56.4381 56.5238 56.6524C57.8 57.0429 59.0714 57.4714 60.3524 57.8619C61.6191 58.2476 61.319 58.2905 62.3476 57.9667L66.8238 56.5667C67.4571 56.3619 67.6191 56.5191 68.1905 56.6905C68.6143 56.8191 69.0429 56.9571 69.4667 57.0905C69.8667 57.2191 70.3286 57.381 70.7238 57.4857C70.6429 58.2286 70.3619 58.9571 70.2524 59.5714L67.7286 58.8095C67.1905 58.6429 66.9 58.8 66.4095 58.9571L62.6476 60.1C61.4238 60.4762 61.6524 60.4762 60.7095 60.1952L57.581 59.2381C57.1619 59.1143 56.7476 58.9905 56.3286 58.8571C55.6619 58.6429 55.6429 58.7286 55.0095 58.9143L51.2476 60.0571C49.7857 60.4952 50.2429 60.5286 48.7143 60.0476L44.9524 58.9048C44.2905 58.7 44.3191 58.6619 43.6333 58.8667L39.881 60.0143C38.4191 60.4619 38.7476 60.5286 37.3191 60.0857L33.5571 58.9429C33 58.7762 32.8476 58.6381 32.2381 58.819C31.8143 58.9476 31.4095 59.0714 30.9857 59.2L29.7333 59.5714C29.6571 59.0667 29.3476 58.2333 29.2667 57.481L29.2714 57.4857ZM33.2333 49.3381H37.7571V51.4571L42.8857 51.4476L42.8952 49.3381H47.4048C47.4048 49.9524 47.3857 50.8762 47.4048 51.4524H52.5762L52.581 49.3381C53.1191 49.3381 56.8429 49.3095 57.0524 49.3524V51.4571H62.2286V49.3429H66.7524V51.4571H71.0381V55.4095H28.9476V51.4524H33.2333V49.3333V49.3381ZM28.9571 50.5143H32.3381V49.2095C32.3381 48.7333 32.3619 48.4476 32.8714 48.4476H38.1048C38.6143 48.4476 38.6476 48.7095 38.6476 49.1905V50.5238H41.9905C41.9905 50.0857 41.9905 49.6524 41.9905 49.2143C41.9905 48.7191 42.0095 48.4524 42.5429 48.4524H47.8C48.3 48.4524 48.3476 48.7238 48.3476 49.1952C48.3476 49.6381 48.3476 50.081 48.3476 50.5286H51.6476C51.6476 50.0905 51.6476 49.6571 51.6476 49.2191C51.6476 48.7476 51.6905 48.4571 52.1952 48.4571H57.4524C57.9762 48.4571 58.0048 48.7095 58.0048 49.2C58.0048 49.6429 58.0048 50.0857 58.0048 50.5286H61.3476V49.2191C61.3476 48.7571 61.3667 48.4571 61.8667 48.4571H67.1C67.6191 48.4571 67.6572 48.7048 67.6572 49.2V50.5286H71.0381C71.0762 50.3714 71.0476 45.0952 71.0476 44.7857V28.9143C71.0476 28.3857 71.1 28.0191 70.7571 27.7476C70.5857 27.6095 70.5238 27.5857 70.2667 27.5333L68.4667 27.1667C62.681 25.9905 55.8571 25.4238 50.0048 25.4143C44.1238 25.4 37.3714 26.0048 31.5571 27.1619C31.1571 27.2429 30.7524 27.3191 30.3619 27.4C29.981 27.481 29.481 27.5286 29.2429 27.7381C28.8857 28.0524 28.9476 28.2905 28.9476 28.8714V49.0714C28.9476 49.3238 28.9143 50.3476 28.9571 50.5095V50.5143ZM28.0667 54.8381C28.2 58.3333 29.1524 61.6 30.5714 64.2476C30.9286 64.9095 31.2905 65.5381 31.6762 66.1238C32.0619 66.7095 32.681 67.5571 33.1095 68.0476L33.981 69.0524C34.4238 69.5429 35.3667 70.4 35.8905 70.8524C35.981 70.9286 36.0191 70.9524 36.1 71.0191C36.1667 71.0762 36.2286 71.1286 36.3048 71.1905L37.5857 72.1429C38.1333 72.5191 38.7952 72.9429 39.4286 73.281C40.0905 73.6286 40.7143 73.9571 41.4333 74.2571C47.7762 76.9095 54.7476 76.5191 60.7381 73.1857C61.1048 72.981 62.2191 72.3048 62.5667 72.0333L62.7857 71.8762C63.3048 71.5238 63.6048 71.2429 64.0524 70.8905C64.5 70.5333 64.6857 70.3238 65.0333 70.019C65.3048 69.781 65.881 69.2143 66.1476 68.9L66.8524 68.1C67.2857 67.6095 68.0714 66.5238 68.4286 65.9667C69.1857 64.7714 69.8762 63.5048 70.4524 62.0286C71.0191 60.5667 71.4571 59 71.7095 57.3238C71.9952 55.4 71.9524 53.5619 71.9524 51.5952V30.7333C71.9524 30.1143 72.0238 28.2952 71.8667 27.8286C71.5667 26.9286 70.8572 26.7714 70.1 26.6143C61.9762 24.9048 54.0143 24.1762 45.4952 24.5857C40.3 24.8333 34.7429 25.5333 29.6905 26.6619C29.2381 26.7619 28.8952 26.8524 28.6286 27.1048C27.8905 27.8048 28.0571 28.4476 28.0571 29.5191V51.8619C28.0571 52.8476 28.0333 53.8619 28.0714 54.8429L28.0667 54.8381Z" fill="white"/>
<path fill-rule="evenodd" clip-rule="evenodd" d="M28.9619 50.5095H32.3429V49.2048C32.3429 48.7286 32.3667 48.4429 32.8762 48.4429H38.1095C38.6191 48.4429 38.6524 48.7048 38.6524 49.1857V50.5191H41.9952C41.9952 50.081 41.9952 49.6476 41.9952 49.2095C41.9952 48.7143 42.0143 48.4476 42.5476 48.4476H47.8048C48.3048 48.4476 48.3524 48.7191 48.3524 49.1905C48.3524 49.6333 48.3524 50.0762 48.3524 50.5238H51.6524C51.6524 50.0857 51.6524 49.6524 51.6524 49.2143C51.6524 48.7429 51.6952 48.4524 52.2 48.4524H57.4572C57.981 48.4524 58.0095 48.7048 58.0095 49.1952C58.0095 49.6381 58.0095 50.081 58.0095 50.5238H61.3524V49.2143C61.3524 48.7524 61.3714 48.4524 61.8714 48.4524H67.1048C67.6238 48.4524 67.6619 48.7 67.6619 49.1952V50.5238H71.0429C71.0048 50.4333 70.7619 50.1238 70.681 49.9952L67.0476 44.8429C66.9857 44.7571 66.9191 44.6762 66.8619 44.5905C66.6857 44.3381 66.5095 44.0381 66.281 43.8667C65.6 43.3619 65.0381 43.5095 64.0191 43.5095H35.9762C34.5952 43.5095 33.9429 43.3667 33.3191 44.3524C32.881 45.0429 32.3381 45.7429 31.8667 46.4095C31.6619 46.681 31.3333 47.1952 31.1381 47.4476L28.9714 50.5238L28.9619 50.5095Z" fill="#14A74C"/>
<path fill-rule="evenodd" clip-rule="evenodd" d="M33.2332 51.4524H28.9475V55.4048H71.0475V51.4571H66.7666V49.3381H62.2428V51.4524H57.0713L57.0666 49.3476C56.857 49.3095 53.1332 49.3333 52.5951 49.3333V51.4476H47.4142C47.3951 50.8714 47.4142 49.9476 47.4142 49.3333H42.9047L42.8951 51.4429L37.7666 51.4524V49.3333H33.238V51.4524H33.2332Z" fill="#020203"/>
<path fill-rule="evenodd" clip-rule="evenodd" d="M29.2712 57.4809C29.3522 58.2333 29.6617 59.0667 29.7379 59.5714L30.9903 59.2C31.4141 59.0714 31.8189 58.9429 32.2427 58.819C32.8522 58.6381 33.0046 58.7762 33.5617 58.9429L37.3236 60.0857C38.7522 60.5286 38.4236 60.4619 39.8855 60.0143L43.6379 58.8667C44.3189 58.6619 44.2951 58.7 44.957 58.9048L48.7189 60.0476C50.2522 60.5286 49.7903 60.4952 51.2522 60.0571L55.0141 58.9143C55.6474 58.7286 55.6665 58.6429 56.3331 58.8571C56.7522 58.9905 57.1665 59.1143 57.5855 59.2381L60.7141 60.1952C61.657 60.4762 61.4284 60.4762 62.6522 60.1L66.4141 58.9571C66.9046 58.8 67.1951 58.6429 67.7331 58.8095L70.257 59.5714C70.3712 58.9571 70.6474 58.2238 70.7284 57.4857C70.3284 57.3857 69.8712 57.219 69.4712 57.0905C69.0474 56.9571 68.6189 56.819 68.1951 56.6905C67.6236 56.519 67.4617 56.3619 66.8284 56.5667L62.3522 57.9667C61.3236 58.2857 61.6189 58.2476 60.357 57.8619C59.076 57.4714 57.8046 57.0476 56.5284 56.6524C55.8284 56.4381 55.895 56.3905 55.1665 56.6095C54.3141 56.8667 53.4617 57.1429 52.6093 57.4095C52.176 57.5429 51.757 57.6762 51.3284 57.8095C49.7379 58.3 50.2998 58.3095 48.6998 57.8143L44.8617 56.6143C44.1474 56.3905 44.1808 56.4333 43.4998 56.6524C43.0712 56.7857 42.6522 56.9238 42.2236 57.0524C41.3665 57.3143 40.5284 57.5857 39.6712 57.8571C39.3474 57.9619 38.6617 58.2286 38.3189 58.1714C38.157 58.1429 37.276 57.8476 37.0331 57.7762C36.1808 57.519 35.3236 57.2381 34.476 56.9762C34.0427 56.8429 33.6284 56.7095 33.1998 56.5762C32.5712 56.3762 32.4141 56.5048 31.8331 56.6905C31.357 56.8429 29.6427 57.4 29.276 57.4857L29.2712 57.4809Z" fill="#1E4693"/>
<path fill-rule="evenodd" clip-rule="evenodd" d="M30.4331 61.6C30.5998 62.0429 30.8712 62.6333 31.0807 63.0714C31.1474 63.2095 31.276 63.4286 31.3188 63.5619C31.5569 63.5238 32.1617 63.2952 32.4664 63.219C32.8236 63.1286 33.3617 63.3571 33.695 63.4571L38.3093 64.8524C38.6522 64.9143 39.2093 64.6857 39.5331 64.5857L42.9664 63.5333C43.1903 63.4667 43.9617 63.2095 44.1331 63.1952C44.4522 63.1667 45.0426 63.3952 45.3474 63.4857L48.8045 64.5333C50.2141 64.981 49.8188 64.9429 51.1569 64.5429L54.6141 63.4952C55.995 63.0857 55.5664 63.0809 56.995 63.519L60.4283 64.5667C61.7902 64.9905 61.4521 64.9048 62.8093 64.5048L66.2664 63.4571C66.5855 63.3619 67.1474 63.1333 67.495 63.2C67.8712 63.2762 68.2855 63.4762 68.6569 63.5429C68.8617 63.0857 69.4426 61.9952 69.5522 61.5762C69.1617 61.4571 68.7569 61.3286 68.3617 61.2048C67.0569 60.7809 67.3093 60.8667 65.876 61.3238L62.2426 62.4619C61.6236 62.6571 61.6188 62.719 60.9617 62.5143C60.5569 62.3857 60.1569 62.2619 59.7522 62.1333L56.1426 60.9952C55.6522 60.8381 55.3093 61.0286 54.8664 61.1619L51.2331 62.2952C49.7712 62.7619 50.195 62.7381 48.7712 62.2952L45.1379 61.1619C44.6807 61.0238 44.3664 60.8381 43.8617 60.9952L39.0426 62.5143C38.3902 62.7143 38.3902 62.6619 37.7617 62.4619C36.9569 62.2048 36.1474 61.9667 35.3379 61.7048C34.9331 61.5762 34.5379 61.4476 34.1283 61.3286C32.4379 60.8238 33.0283 60.7571 31.0379 61.4C30.8664 61.4571 30.5855 61.5238 30.4379 61.5952L30.4331 61.6Z" fill="#1E4693"/>
<path fill-rule="evenodd" clip-rule="evenodd" d="M32.4475 65.4286C32.538 65.6667 33.5999 67.0333 33.7618 67.2143L34.4761 68.0476C34.6189 68.219 34.6713 68.1857 35.0047 68.2952L37.9808 69.2286C38.6047 69.4191 38.6427 69.3381 39.2285 69.1524L42.7904 68.0333C44.2332 67.581 43.9999 67.4905 45.2237 67.8857L48.7761 68.9952C50.1761 69.4333 49.7856 69.4667 51.2047 69.0048L54.7523 67.8952C56.0475 67.481 55.7761 67.5762 57.1856 68.0238L60.7285 69.1381C61.2808 69.3048 61.3904 69.4333 61.9904 69.2381C62.7808 68.9857 63.5713 68.7524 64.3618 68.4952L65.238 68.219C65.4142 68.1667 65.3856 68.181 65.4808 68.0667C65.7761 67.7143 66.0523 67.4381 66.3856 67.0286L67.0523 66.1524C67.0999 66.081 67.1618 65.9905 67.2142 65.9143C67.2999 65.7905 67.4904 65.5571 67.538 65.4238C67.0808 65.3714 66.7904 65.5238 66.3856 65.6381C66.0237 65.7429 65.657 65.8571 65.2999 65.9667L62.0666 66.9476C61.4666 67.1286 61.4808 67.1 60.8999 66.9286C60.1808 66.7143 59.4523 66.4952 58.738 66.2667C58.0285 66.0429 57.3047 65.8191 56.5904 65.6095C56.1999 65.4952 55.8666 65.3238 55.4332 65.4619C54.0523 65.9 52.5189 66.3524 51.1142 66.7714C49.7713 67.1714 50.2189 67.1667 48.8904 66.7714L45.638 65.781C45.2856 65.6714 44.9285 65.5667 44.5713 65.4571C44.1427 65.3238 43.7951 65.4857 43.4142 65.6048L39.1047 66.9238C38.5427 67.1 38.5142 67.1191 37.938 66.9429L33.6189 65.6333C33.2237 65.5143 32.8999 65.3524 32.4523 65.4238L32.4475 65.4286Z" fill="#1E4693"/>
<path fill-rule="evenodd" clip-rule="evenodd" d="M38.6331 71.5429C38.6616 71.5762 38.6188 71.5381 38.6712 71.581L39.2283 71.9333C39.4378 72.0571 39.6283 72.1619 39.8331 72.2809C40.2235 72.5048 40.6759 72.7333 41.0997 72.9333C41.2521 73.0048 41.3283 72.9476 41.4854 72.8952L42.5854 72.5571C44.4664 71.9809 43.9045 71.9571 45.5854 72.4619L48.5188 73.3524C48.8235 73.4429 49.7473 73.7714 50.014 73.7667C50.2616 73.7667 51.2378 73.4333 51.5235 73.3429L54.4521 72.4524C54.8235 72.3429 55.595 72.0333 55.9854 72.1143C56.2378 72.1714 58.1235 72.7667 58.5569 72.9C58.7378 72.9571 58.7473 73 58.9188 72.9143C59.2331 72.7619 61.1331 71.7857 61.3616 71.5429L57.1378 70.2095C56.8092 70.1048 55.995 69.8 55.6759 69.8333C55.495 69.8524 55.1378 69.981 54.9569 70.0381L52.8378 70.7C52.4473 70.8286 50.2235 71.5476 49.995 71.5476C49.7664 71.5476 47.5473 70.819 47.1426 70.6905C46.6712 70.5381 46.1997 70.3952 45.7283 70.2476C44.0092 69.7095 44.5426 69.7 42.8616 70.219C42.3902 70.3619 41.9188 70.5095 41.4521 70.6619C40.8807 70.8476 39.1283 71.4238 38.6473 71.5381L38.6331 71.5429Z" fill="#1E4693"/>
<path fill-rule="evenodd" clip-rule="evenodd" d="M48.5713 38.9524C48.8428 38.8571 48.9999 39.0429 49.038 39.2714C49.0571 39.3905 49.0618 39.5476 49.0618 39.6714C49.0618 39.7714 49.1047 39.8095 48.819 39.8238C48.2523 39.8476 48.2475 39.3905 48.3571 39.1429C48.4047 39.0286 48.4475 38.9952 48.5713 38.9524ZM47.9761 40.9333C47.9428 41.019 47.9332 41.1429 47.919 41.2429C47.8713 41.5238 47.8618 41.4857 47.9761 41.5048C48.1285 41.5333 48.5094 41.5238 48.6618 41.5C49.0951 41.4238 49.3523 41.181 49.5237 40.9048C49.8713 40.3476 49.9618 39.0238 49.4951 38.5905C49.2523 38.3714 48.7618 38.2381 48.3332 38.3619C47.9713 38.4667 47.7094 38.7286 47.5999 39.0857C47.4666 39.5381 47.6094 39.981 47.8666 40.1952C48.2951 40.5524 48.619 40.4143 49.0047 40.3476C48.9523 40.6286 48.7142 40.9619 48.3332 40.9476C48.2332 40.9476 48.1047 40.8952 48.0094 40.9143L47.9761 40.9286V40.9333Z" fill="#020203"/>
<path fill-rule="evenodd" clip-rule="evenodd" d="M50.5666 39.0667C51.9285 38.6238 51.5142 39.4333 51.4475 39.4905C51.3332 39.5905 51.1332 39.581 50.9428 39.5857V40.1476C51.1618 40.1571 51.3999 40.1333 51.5666 40.2476C51.7094 40.3429 51.7428 40.6286 51.6047 40.7667C51.3094 41.0667 50.5475 40.7571 50.4237 40.7762L50.3809 41.3619C50.6332 41.5476 51.6809 41.6476 52.1666 41.2C52.5285 40.8667 52.6094 40.119 52.0666 39.881C51.9999 39.8524 51.9332 39.8476 51.8856 39.7952C51.9285 39.7476 51.9999 39.7238 52.0475 39.6905C52.4285 39.4238 52.3666 38.7429 52.0332 38.519C51.4999 38.1619 51.0475 38.319 50.4666 38.4952L50.5618 39.0619L50.5666 39.0667Z" fill="#020203"/>
<path fill-rule="evenodd" clip-rule="evenodd" d="M53.1524 39.0667C53.3048 39.0381 53.4381 38.9619 53.6333 38.9429C54.3714 38.8619 54.219 39.3667 54.0762 39.4952C53.9571 39.6 53.7667 39.5905 53.5809 39.5905V40.1572C53.8 40.1572 54.0333 40.1476 54.1762 40.2762C54.319 40.4048 54.3286 40.6381 54.1905 40.7762C53.9286 41.0429 53.3952 40.8429 53.0619 40.7714L53.019 41.3857C53.6095 41.5905 54.3809 41.5667 54.7714 41.2048C54.9381 41.0476 55.0809 40.7286 55.0333 40.3905C54.9619 39.9191 54.6333 39.9095 54.5238 39.8048C54.619 39.7143 54.7143 39.7143 54.8095 39.5905C55.0286 39.3048 55.0048 38.7905 54.6571 38.5191C54.2381 38.1905 53.5524 38.3429 53.0619 38.5095L53.1524 39.0714V39.0667Z" fill="#020203"/>
<path fill-rule="evenodd" clip-rule="evenodd" d="M45.1476 39.4905C45.3286 39.4286 45.5429 39.2333 45.7143 39.181V40.9095H45.0524V41.4762H46.9857V40.9095H46.4191V38.4238C46.3238 38.4048 46.0286 38.4048 45.9191 38.4143C45.7286 38.4238 45.2381 38.8238 44.9524 38.9191L45.1429 39.4905H45.1476Z" fill="#020203"/>
<path fill-rule="evenodd" clip-rule="evenodd" d="M63.657 34.5905V33.0905C63.976 33.0762 64.6856 33.0572 64.9713 33.1C65.7856 33.2191 65.7999 34.4619 64.9999 34.581C64.7237 34.6238 63.957 34.6048 63.657 34.5905ZM63.657 30.4571C63.9808 30.4381 64.3427 30.4571 64.6713 30.4571C65.0046 30.4571 65.2475 30.5333 65.3856 30.7429C65.5856 31.0524 65.5856 31.8667 64.7189 31.8667H63.6618V30.4619L63.657 30.4571ZM65.1475 35.9952C65.6332 36.0333 66.157 35.7619 66.457 35.5143C66.7284 35.2905 66.9094 35.0238 67.0284 34.6714C67.2189 34.1 67.1903 33.2476 66.7522 32.7952C66.6808 32.7191 66.638 32.681 66.5475 32.6048C66.4665 32.5333 66.3761 32.4952 66.3094 32.4191C66.5665 32.281 66.8522 31.9429 66.9665 31.581C67.2046 30.8333 66.9475 29.8524 66.2427 29.3952C65.9903 29.2286 65.4427 29.0191 65.0522 29.0571H62.0618V35.9952H65.1475Z" fill="#1E4693"/>
<path fill-rule="evenodd" clip-rule="evenodd" d="M47.2713 30.5048C48.057 30.4905 48.6856 30.3952 48.7665 31.2191C48.7998 31.5381 48.7332 31.9381 48.5522 32.1C48.2903 32.3286 47.676 32.2952 47.2713 32.2905V30.5048ZM45.6189 36.0095H47.2713V33.7095H48.0284L49.0094 36.0095H50.6998L49.4379 33.381C49.9951 32.981 50.3094 32.6714 50.4379 31.8381C50.557 31.0524 50.3856 30.2952 49.9903 29.7952C49.3284 28.9524 48.0332 29.0381 46.8951 29.0381C46.5046 29.0381 45.9903 29.0095 45.6189 29.0429V36.0048V36.0095Z" fill="#1E4693"/>
<path fill-rule="evenodd" clip-rule="evenodd" d="M40.7857 34.5476C40.7666 34.5191 40.7761 34.5476 40.7666 34.5V33.6191C40.7666 33.3667 40.7285 33.2381 40.8238 33.2238H43.1619V31.781H41.3142C40.7142 31.781 40.7666 31.8286 40.7666 31.6333V30.7048C40.7666 30.6714 40.7666 30.6238 40.7666 30.5952C40.7666 30.5667 40.7666 30.5619 40.7761 30.5381L40.7904 30.5095H43.319L43.8381 29.0476H39.1714V36.0143H43.6V34.5524H40.7904L40.7857 34.5476Z" fill="#1E4693"/>
<path fill-rule="evenodd" clip-rule="evenodd" d="M34.1809 30.5048C34.5048 30.4905 34.9048 30.4952 35.1952 30.5952C35.4476 30.681 35.5714 31.0238 35.5905 31.281C35.6619 32.2952 34.9857 32.3048 34.1857 32.2857V30.5048H34.1809ZM32.5286 36.0095H34.1667C34.219 35.8381 34.1809 34.0524 34.1809 33.7095C34.719 33.6905 35.1095 33.719 35.6286 33.5952C36.2476 33.4429 36.7095 33.1381 37 32.6238C37.4809 31.7714 37.3619 30.3333 36.6476 29.6286C36.0429 29.0333 34.9857 29.0429 34.1143 29.0429C33.619 29.0429 33.0238 29.0143 32.5381 29.0429L32.5286 36.0095Z" fill="#1E4693"/>
<path fill-rule="evenodd" clip-rule="evenodd" d="M52.3142 34.2238L52.3046 35.8238C52.8903 35.9714 53.3237 36.1143 53.9856 36.1429C54.5951 36.1714 55.2189 36.081 55.6999 35.8381C56.1522 35.6095 56.4713 35.2905 56.657 34.7619C56.8332 34.2571 56.8332 33.5191 56.6189 33.0381C56.157 32 54.9761 31.9762 54.157 31.4571C53.7427 31.1952 53.5618 30.5333 54.4189 30.381C54.838 30.3048 55.357 30.4095 55.7522 30.5429C55.8761 30.5857 56.0142 30.6524 56.1284 30.681L56.6427 29.3143C56.3665 29.2238 56.1427 29.1381 55.8475 29.0619C55.5522 28.9857 55.2522 28.9333 54.938 28.9048C54.2856 28.8524 53.6427 28.9667 53.1427 29.2333C52.0237 29.8429 51.8618 31.2381 52.4475 32.1286C52.6999 32.5095 53.1094 32.8095 53.6475 33.0286C54.0332 33.1857 54.8522 33.4619 55.0237 33.7762C55.1761 34.0524 55.0713 34.4095 54.8808 34.5238C54.2475 34.9143 52.838 34.5048 52.3237 34.2191L52.3142 34.2238Z" fill="#1E4693"/>
<path fill-rule="evenodd" clip-rule="evenodd" d="M58.4285 29.6048V36.0048L60.0761 36.0095V29.0429L58.4285 29.6048Z" fill="#1E4693"/>
<path fill-rule="evenodd" clip-rule="evenodd" d="M65.1476 35.9952H62.0618V29.0524H65.0523C65.0523 29.0524 62.3095 29.0048 62.0571 29.0381C62.019 29.1572 62.0238 35.9095 62.0571 36.0143C62.3095 36.0476 65.1095 36.0286 65.1476 35.9952Z" fill="#1E4693"/>
<path fill-rule="evenodd" clip-rule="evenodd" d="M40.7855 34.5476V33.2476C41.0902 33.2571 43.0188 33.281 43.176 33.2333L43.1855 31.7762C43.0617 31.7381 41.0474 31.7476 40.7855 31.7619V30.5095L40.7712 30.5381C40.7664 30.5619 40.7664 30.5667 40.7617 30.5952C40.7617 30.6238 40.7617 30.6762 40.7617 30.7048V31.6333C40.7617 31.8286 40.7093 31.781 41.3093 31.781H43.1569V33.2286H40.8188C40.7236 33.2429 40.7617 33.3714 40.7617 33.6238V34.5048C40.7712 34.5524 40.7617 34.5238 40.7855 34.5524V34.5476Z" fill="#1E4693"/>
<path fill-rule="evenodd" clip-rule="evenodd" d="M28.0713 54.8857C28.2094 58.5619 29.1523 61.8 30.7713 64.6524C32.3951 67.5048 34.7046 69.9714 37.5808 72.1048C41.0332 74.4571 44.9904 75.7333 48.9951 75.9095C53.0094 76.0905 57.0713 75.1714 60.738 73.1381C63.6713 71.5143 66.157 69.2238 68.038 66.5143C69.9237 63.7952 71.1999 60.6619 71.6951 57.3571C71.9523 55.6571 71.9475 54.0191 71.9427 52.3048C71.9427 51.7571 71.9427 52.0095 71.9427 51.6095V30.4381C71.9427 30.4048 71.9427 30.1286 71.9475 29.8619C71.9618 28.2191 71.9761 27.0048 70.3951 26.6762C63.6427 25.2619 56.5237 24.5048 49.4094 24.5143C42.6189 24.5238 35.8332 25.2286 29.3904 26.7238C28.8332 26.8524 28.5047 27.1048 28.3237 27.4714C28.1189 27.8857 28.0618 28.4714 28.0618 29.2095V51.881C28.0618 51.9143 28.0618 52.3238 28.057 52.7286C28.0523 53.4476 28.0475 54.1762 28.0761 54.8905L28.0713 54.8857ZM30.0332 65.0714C28.3427 62.1048 27.3666 58.7333 27.2189 54.9143C27.1904 54.1952 27.1951 53.4524 27.1999 52.7191C27.1999 52.5571 27.1999 52.4 27.1999 51.8762V29.2048C27.1999 28.3476 27.2761 27.6476 27.5523 27.0905C27.8523 26.4857 28.357 26.0857 29.1904 25.8905C35.6904 24.381 42.5427 23.6714 49.3999 23.6619C56.5761 23.6524 63.757 24.4143 70.5618 25.8381C72.8237 26.3143 72.8094 27.8238 72.7904 29.8667C72.7904 29.9714 72.7904 30.081 72.7904 30.4381V51.6095C72.7904 52.4762 72.7904 52.219 72.7904 52.3048C72.7904 54.0619 72.7999 55.7381 72.538 57.481C72.0237 60.9143 70.6999 64.1762 68.738 67C66.7856 69.8143 64.1951 72.1952 61.1475 73.8857C57.3427 75.9952 53.1237 76.9476 48.957 76.7619C44.7951 76.5762 40.6904 75.2524 37.0999 72.8095L37.0856 72.8C34.1046 70.5952 31.7142 68.0381 30.0285 65.0762L30.0332 65.0714Z" fill="#020203"/>
<path d="M30.7095 11.3381L31.1143 12.0714L28.9 13.2952L29.2476 13.9286L31.2143 12.8429L31.6143 13.5714L29.6476 14.6572L30.1333 15.5333L29.2714 16.0095L27.6333 13.0429L30.7095 11.3429V11.3381Z" fill="white"/>
<path d="M36.3001 12.6238L35.762 12.1524L33.8286 12.9381L33.7715 13.6524L32.7905 14.0524L33.1334 10.2571L34.3905 9.74762L37.281 12.2286L36.3048 12.6238H36.3001ZM33.8953 12.1143L35.1334 11.6095L34.0143 10.6333L33.8953 12.1143Z" fill="white"/>
<path d="M41.3476 10.1762L40.7619 7.81906L41.7095 7.58572L42.5238 10.8762L41.1286 11.2238L38.6048 9.34763L39.1905 11.7048L38.2381 11.9429L37.4238 8.65239L38.8238 8.30477L41.3476 10.181V10.1762Z" fill="white"/>
<path d="M46.1189 6.96191L50.1998 6.79524L50.2332 7.62858L48.6856 7.69048L48.7903 10.2429L47.8094 10.281L47.7046 7.72858L46.1522 7.79048L46.1189 6.95715V6.96191Z" fill="white"/>
<path d="M51.3905 8.49525C51.4857 7.3762 52.3143 6.78096 53.7381 6.90477C55.1572 7.02858 55.8762 7.75715 55.781 8.87144C55.6857 9.99049 54.8524 10.5952 53.4334 10.4714C52.0096 10.3476 51.2953 9.61906 51.3905 8.49525ZM54.7572 8.78572C54.8096 8.20001 54.5048 7.80953 53.6667 7.73811C52.8334 7.66668 52.4667 7.99049 52.4191 8.58572C52.3667 9.18096 52.6762 9.57144 53.5048 9.64287C54.3381 9.7143 54.7096 9.38096 54.7619 8.79049L54.7572 8.78572Z" fill="white"/>
<path d="M61.6239 8.36667L59.6334 9.38095L60.881 11.6762L59.6763 11.4048L58.8096 9.80476L57.862 10.2857L57.7096 10.9571L56.7524 10.7381L57.5001 7.42857L58.462 7.64286L58.1286 9.12857L60.1953 8.0381L61.6334 8.36191L61.6239 8.36667Z" fill="white"/>
<path d="M66.3286 9.99524L66.0667 10.7191L63.6858 9.85715L63.5 10.3667L65.7905 11.1952L65.5286 11.9191L63.2381 11.0905L63.0524 11.6L65.4334 12.4619L65.1715 13.1857L61.8667 11.9905L63.0191 8.8L66.3238 9.99524H66.3286Z" fill="white"/>
<path d="M69.7618 14.3524L70.8761 12.1905L71.7476 12.6381L70.1904 15.6524L68.9095 14.9905L68.2476 11.9095L67.1333 14.0714L66.2571 13.6191L67.8142 10.6048L69.0999 11.2667L69.7618 14.3476V14.3524Z" fill="white"/>
<path d="M27.3953 85.4762C27.2476 85.719 27.3953 86.0238 28.1572 86.4857C28.8572 86.9048 29.0953 86.9 29.2048 86.719C29.3334 86.5095 29.2238 86.3905 28.3953 85.8143C27.2667 85.0238 26.8905 84.4762 27.2762 83.8333C27.6429 83.2286 28.4619 83.3476 29.4667 83.9524C30.5857 84.6238 31.0238 85.3524 30.6619 86.0143L29.781 85.4857C29.9334 85.2286 29.7143 84.9619 29.0619 84.5714C28.4429 84.2 28.2429 84.219 28.1476 84.3762C28.0381 84.5571 28.1476 84.6952 28.8953 85.2333C29.9143 85.9571 30.5619 86.4476 30.1048 87.2095C29.6572 87.9524 28.8381 87.7571 27.8048 87.1333C26.6286 86.4238 26.0905 85.7381 26.5096 84.9476L27.3905 85.4809L27.3953 85.4762Z" fill="white"/>
<path d="M31.5238 87.1905C31.9714 86.1571 32.9428 85.8619 34.2571 86.4286C35.5667 86.9952 36.0143 87.9143 35.5714 88.9429C35.1238 89.9762 34.1428 90.281 32.8333 89.7143C31.519 89.1476 31.0762 88.2286 31.5238 87.1905ZM34.6286 88.5381C34.8619 87.9952 34.6952 87.5333 33.9238 87.1952C33.1571 86.8619 32.7047 87.0571 32.4714 87.6C32.2333 88.1476 32.4047 88.6143 33.1667 88.9476C33.9333 89.281 34.3952 89.081 34.6286 88.5333V88.5381Z" fill="white"/>
<path d="M39.2952 88.2143C40.4952 88.5524 41.0333 89.2571 40.8952 90.1238L39.8905 89.8429C39.9095 89.5238 39.6762 89.1857 39.0714 89.0191C38.3714 88.8238 37.9381 89.0714 37.7762 89.6429C37.6143 90.2191 37.8619 90.6619 38.5571 90.8571C39.1619 91.0238 39.5381 90.8571 39.6857 90.5667L40.6905 90.8476C40.3571 91.6667 39.5333 91.9952 38.3286 91.6619C37.019 91.2952 36.4714 90.4857 36.7809 89.3667C37.0952 88.2524 37.9809 87.8476 39.2905 88.2143H39.2952Z" fill="white"/>
<path d="M43.3953 89.2286L42.7953 92.5619L41.8286 92.3857L42.4286 89.0524L43.3953 89.2286Z" fill="white"/>
<path d="M44.4191 91.1476C44.5096 90.0286 45.3334 89.4333 46.7572 89.5476C48.1763 89.6619 48.9001 90.3905 48.8049 91.5048C48.7144 92.6238 47.8858 93.2286 46.462 93.1143C45.0382 93 44.3191 92.2714 44.4144 91.1476H44.4191ZM47.7858 91.4238C47.8334 90.8381 47.5287 90.4524 46.6906 90.381C45.8572 90.3143 45.4953 90.6429 45.443 91.2333C45.3953 91.8286 45.7049 92.2143 46.5334 92.2857C47.3668 92.3524 47.7382 92.019 47.7858 91.4238Z" fill="white"/>
<path d="M51.119 92.0476C51.1333 92.3333 51.4238 92.5048 52.3143 92.4571C53.1286 92.4143 53.3238 92.2762 53.3095 92.0619C53.2952 91.8143 53.1428 91.781 52.1333 91.7667C50.7571 91.7429 50.1333 91.5 50.0952 90.7476C50.0571 90.0429 50.8047 89.681 51.9762 89.6238C53.2809 89.5571 54.0524 89.9095 54.119 90.6619L53.0952 90.7143C53.0809 90.4143 52.7476 90.3191 51.9857 90.3571C51.2666 90.3952 51.1095 90.5238 51.119 90.7048C51.1285 90.9143 51.2952 90.9714 52.219 91C53.4666 91.0286 54.2809 91.0714 54.3285 91.9619C54.3714 92.8286 53.5857 93.1238 52.3809 93.1857C51.0095 93.2571 50.1762 92.9857 50.0857 92.0952L51.1143 92.0429L51.119 92.0476Z" fill="white"/>
<path d="M55.7428 92.0429L56.6809 91.9048L56.7857 92.6333L55.8476 92.7714L55.738 92.0429H55.7428Z" fill="white"/>
<path d="M59.4811 88.5333C60.6953 88.2381 61.5096 88.5905 61.8144 89.4143L60.8001 89.6619C60.662 89.3714 60.2906 89.1952 59.6811 89.3429C58.9763 89.5143 58.7192 89.9429 58.8572 90.5238C59.0001 91.1048 59.4334 91.3714 60.1334 91.2C60.743 91.0524 60.9906 90.7191 60.9763 90.3905L61.9906 90.1429C62.1001 91.0191 61.543 91.7143 60.3287 92.0095C59.0049 92.3333 58.1287 91.8952 57.8525 90.7667C57.5763 89.6429 58.1525 88.8571 59.4763 88.5333H59.4811Z" fill="white"/>
<path d="M63.1524 89.3905C62.7382 88.3429 63.2191 87.4429 64.5477 86.919C65.8715 86.3952 66.8429 86.7286 67.2524 87.7714C67.6667 88.8191 67.1858 89.7286 65.862 90.2524C64.5334 90.7762 63.5667 90.4429 63.1524 89.3905ZM66.3001 88.1476C66.0858 87.6 65.6382 87.3857 64.8572 87.6952C64.081 88 63.8953 88.4571 64.1143 89.0095C64.3334 89.5667 64.7858 89.7762 65.5572 89.4714C66.3334 89.1667 66.5191 88.7 66.3001 88.1476Z" fill="white"/>
<path d="M69.3381 88.6905L67.6333 85.7571L68.9571 84.9857L71.1095 86.3381L70.9952 83.8L72.319 83.0286L74.0238 85.9619L73.1762 86.4524L71.9428 84.3286L72.0762 87.0952L71.2904 87.5524L68.9524 86.0714L70.1904 88.1952L69.3381 88.6905Z" fill="white"/>
<path d="M23.019 81.8381C13.9952 74.181 8.2666 62.7571 8.2666 50C8.2666 37.2429 14.2999 25.2143 23.738 17.5619" stroke="#FBED21" stroke-miterlimit="10"/>
<path d="M76.2666 17.5667C85.7047 25.219 91.7333 36.9048 91.7333 50C91.7333 63.0952 86.0047 74.1857 76.9809 81.8429" stroke="#FBED21" stroke-miterlimit="10"/>
</g>
<defs>
<clipPath id="clip0_1124_13920">
<rect width="100" height="100" fill="white"/>
</clipPath>
</defs>
</svg>
