<svg xmlns="http://www.w3.org/2000/svg" width="64" height="64" viewBox="0 0 64 64"><g transform="translate(-93 -78)"><circle cx="32" cy="32" r="32" transform="translate(93 78)" fill="#a2110a"/><g transform="translate(105.412 90.8)"><path d="M24.54,3.1c-.5-.031-1-.031-1.5-.031C13.661,2.881,6.315,4.569,5,5.507c-1.344.969-2.563,3.876-.813,12.1a44.97,44.97,0,0,0,9.1,18.412c4.064,4.939,7.627,7.221,8.878,7.252C31.7,29.921,3.033,12.6,24.54,3.1" transform="translate(-2.552 -2.287)" fill="#fffffe"/><path d="M69.332,5.382C68.175,4.476,62.173,2.913,54.17,2.6c-20.444,10.785,9.284,25.29-1.938,40.357,1.657-.656,4.72-2.876,8.19-6.971a45.822,45.822,0,0,0,9.472-18.412c1.907-8.221.75-11.191-.563-12.191" transform="translate(-32.432 -1.975)" fill="#da322a"/><path d="M33.009,79.658l.375-.313,2.626-2.063-4.376.25h-.25l-.156-.219L28.6,74l-.156,3.282-.031.438-.438.031L24.1,77.97l3.876,1.657.313.125-.219,3.814,2.97-2.345.219-.188.281.125,4,1.719-2.219-2.845-.313-.375" transform="translate(-16.835 -51.055)" fill="#da322a"/><path d="M30.255,61.841,26.41,64.873l3.407,4.376-5.783-2.5-3.814,3.063.281-4.6-5.721-2.47L20.69,62.4l.25-4.251-2.563-1.125-2,1.594.125-2.376-3-1.282,3.095-.188L16.72,52.4,18.5,54.682l3.095-.188-2,1.563,1.782,2.282,3,3.845,5.877-.344Zm-9.972-4.314-1-1.25-.188-.25.25-.188,1.188-.938-2.063.125h-.156L18.22,54.9l-1.25-1.594-.094,1.532v.281l-.313-.031-1.719.094,1.751.75.219.094v.219L16.72,57.9l1.407-1.125.156-.125.188.063Zm7.971,10.5-2.219-2.845-.313-.375,3-2.376-4.376.25H24.1l-.156-.219-2.626-3.314-.156,3.282-.031.438-.438.031-3.845.219,3.845,1.657L21,64.9l-.031.344-.188,3.47,2.97-2.345.219-.188.281.125Z" transform="translate(-9.549 -36.207)" fill="#9e9f9e"/><path d="M19.027,36.5l.25-.188,1.188-.938L18.4,35.5h-.156l-.094-.125L16.9,33.784l-.094,1.782h-.313l-1.719.094,1.751.75.219.094v.219l-.094,1.657,1.407-1.125.156-.125.188.063,1.844.782-1.032-1.219-.188-.25M16.088,24H13.4v.969h2.126L16.088,24" transform="translate(-9.48 -16.685)" fill="#da322a"/><path d="M11.733,24.744H9.326v.406H12.2l-.75,1.344H9.326V27.9H7.7V23.4h4.845Zm-2.251-.188h2.126l.563-.969H9.482Zm-.344-.969H7.888v4.126h1.25Zm.344,2.72h1.844l.531-.969H9.482v.969Z" transform="translate(-5.562 -16.273)" fill="#9e9f9e"/><path d="M8.2,28.126H9.45V24H8.2v4.126m4-2.376H9.826v.969H11.67l.531-.969m4.1,1.469v.969A3.411,3.411,0,0,0,18.7,27.22l-.938-.656a2.629,2.629,0,0,1-1.469.656" transform="translate(-5.906 -16.685)" fill="#da322a"/><path d="M29.346,26.514l.188.125-.188.156a3.8,3.8,0,0,1-2.532,1h-.375c-1.626-.063-2.845-.938-2.938-2.126v-.375c.125-1.157,1.313-2.032,2.938-2.094h.375a4.21,4.21,0,0,1,2.5.875l.188.156-.188.156-1.063.844-.125-.094a2.28,2.28,0,0,0-1.313-.563H26.47c-.563.063-1.157.406-1.157.938,0,.594.594.938,1.157.969h.344a2.419,2.419,0,0,0,1.375-.594l.094-.094.125.094.938.625Zm-2.532-2.157a2.469,2.469,0,0,1,1.438.625l.969-.75a3.874,3.874,0,0,0-2.376-.844Zm-.375,2.313a1.278,1.278,0,0,1-1.313-1.157,1.3,1.3,0,0,1,1.313-1.125v-.969c-1.563.063-2.751.969-2.782,2.094v.031c0,1.125,1.094,2.094,2.782,2.126Zm2.782,0-.938-.656a2.394,2.394,0,0,1-1.469.625v.969A3.534,3.534,0,0,0,29.221,26.67Z" transform="translate(-16.423 -16.135)" fill="#9e9f9e"/><path d="M29.533,24.644a3.874,3.874,0,0,0-2.376-.844v.969a2.469,2.469,0,0,1,1.438.625l.938-.75m-4.064,1.25a1.3,1.3,0,0,1,1.313-1.125V23.8c-1.563.063-2.751.969-2.782,2.094v.031c0,1.125,1.094,2.094,2.782,2.126v-.969a1.351,1.351,0,0,1-1.313-1.188" transform="translate(-16.767 -16.548)" fill="#da322a"/><path d="M56.782,25.707c-.875-.313-2.345-.281-2.157-.719a.271.271,0,0,1,.219-.156,2.459,2.459,0,0,1,2,.406l.813-.75a3.84,3.84,0,0,0-2.313-.688c-.625,0-2.157.219-2.157,1.313a1.184,1.184,0,0,0,.782.969c.782.375,2.313.313,2.251.719-.063.281-1.188.625-2.376-.219L53,27.3a4.245,4.245,0,0,0,2.5.75c1.188,0,2.157-.469,2.157-1.313a1.257,1.257,0,0,0-.875-1.032" transform="translate(-36.701 -16.548)" fill="#fffffe"/><path d="M56.733,24.044l-.813.75a2.684,2.684,0,0,0-1.469-.469,2.245,2.245,0,0,0-.531.063.479.479,0,0,0-.219.156c-.188.438,1.282.406,2.157.719a1.126,1.126,0,0,1,.844,1c0,.875-.969,1.313-2.157,1.313a4.245,4.245,0,0,1-2.5-.75l.844-.719a2.738,2.738,0,0,0,1.563.531c.469,0,.782-.156.813-.313.063-.406-1.469-.375-2.251-.719a1.184,1.184,0,0,1-.782-.969c0-1.094,1.532-1.313,2.157-1.313A4.623,4.623,0,0,1,56.733,24.044ZM54.42,23.2c-.875,0-2.345.313-2.345,1.5a1.312,1.312,0,0,0,.875,1.125,5.132,5.132,0,0,0,1.282.313,4.436,4.436,0,0,1,.688.156c.063.031.125.031.125.063s-.031.063-.125.094a1.523,1.523,0,0,1-.469.063,2.574,2.574,0,0,1-1.469-.5l-.125-.094-.125.094-.844.719-.188.156.188.156a4.407,4.407,0,0,0,2.626.813c1.438,0,2.345-.594,2.345-1.5a1.375,1.375,0,0,0-.969-1.188,6.944,6.944,0,0,0-1.157-.281,3.918,3.918,0,0,1-.75-.156c-.063-.031-.094-.031-.094-.094,0-.031.063-.063.188-.063a.871.871,0,0,1,.313-.031,2.44,2.44,0,0,1,1.375.438l.125.094.125-.094.813-.75.188-.156-.188-.125A3.808,3.808,0,0,0,54.42,23.2Z" transform="translate(-35.807 -16.135)" fill="#9e9f9e"/><path d="M71.8,24v4.126h1.282V24H71.8" transform="translate(-49.624 -16.685)" fill="#fffffe"/><path d="M72.669,27.683H71.388V23.556h1.282Zm.188-4.283H71.2v4.5h1.657Z" transform="translate(-49.212 -16.273)" fill="#9e9f9e"/><path d="M80.938,25.926a1.344,1.344,0,0,1,1.375-1.157V23.8c-1.594.063-2.813.938-2.813,2.094v.031c0,1.125,1.125,2.094,2.813,2.126v-.969c-.75-.094-1.375-.563-1.375-1.157m4.533-.031c0-1.157-1.219-2.032-2.813-2.094v.969a1.344,1.344,0,0,1,1.375,1.157,1.344,1.344,0,0,1-1.375,1.157v.969c1.688-.063,2.813-1,2.813-2.157" transform="translate(-54.917 -16.548)" fill="#fffffe"/><path d="M85.315,25.294v.375c-.125,1.219-1.344,2.094-3,2.126H82c-1.657-.031-2.876-.938-3-2.126v-.375c.125-1.157,1.375-2.032,3-2.094h.313C83.939,23.263,85.19,24.138,85.315,25.294ZM81.97,26.639a1.344,1.344,0,0,1-1.375-1.157,1.344,1.344,0,0,1,1.375-1.157v-.969c-1.594.063-2.813.938-2.813,2.094v.031c0,1.125,1.125,2.094,2.813,2.126Zm.313-.188c.688-.063,1.188-.469,1.188-.969s-.5-.907-1.188-.969H81.97c-.688.063-1.188.469-1.188.969s.531.907,1.219.969h.156A.151.151,0,0,0,82.282,26.451Zm2.845-.969c0-1.157-1.219-2.032-2.813-2.094v.969a1.344,1.344,0,0,1,1.375,1.157,1.344,1.344,0,0,1-1.375,1.157v.969C84,27.576,85.127,26.607,85.127,25.482Z" transform="translate(-54.573 -16.135)" fill="#9e9f9e"/><path d="M102.3,27.958h1.25V26.082l-1.25-1.125v3m3.532-1.876L103.3,23.831h-1v.688l3.876,3.407h.938V23.8h-1.25l-.031,2.282" transform="translate(-70.59 -16.548)" fill="#fffffe"/><path d="M105.232,23.3h1.626v4.5H105.67l-2.345-2.094V27.8H101.7V23.3h1.282l2.282,2.032Zm-2.094,2.438-1.25-1.125v3h1.25Zm3.564-2.251h-1.25v2.251l-2.532-2.251h-1v.688l3.876,3.407h.938Z" transform="translate(-70.177 -16.204)" fill="#9e9f9e"/><path d="M37.947,3.57c2.157,1.688,2.438,6.033.907,12.91A45.165,45.165,0,0,1,29.695,34.8c-3.564,4.314-7.377,7.346-9.347,7.346-1.938,0-5.783-3-9.347-7.346A45.971,45.971,0,0,1,1.842,16.48C.279,9.6.591,5.289,2.717,3.57,4.249,2.351,11.407.6,20.317.6S36.447,2.351,37.947,3.57Zm-17.6,37.575C29.069,27.8,1.654,11.354,21.755,1.632c-.469,0-.938-.031-1.407,0-8.878,0-15.755,1.782-16.974,2.751-1.25,1-2.345,3.845-.531,11.91A44.826,44.826,0,0,0,11.814,34.2c3.939,4.752,7.346,6.909,8.534,6.94ZM37.322,4.351c-1.094-.844-6.752-2.376-14.348-2.688-19.319,10.5,8.784,24.6-1.813,39.263,1.563-.625,4.47-2.782,7.753-6.783a44.23,44.23,0,0,0,8.94-17.912C39.7,8.2,38.573,5.352,37.322,4.351Z" transform="translate(-0.86 -0.6)" fill="#9e9f9e"/></g></g></svg>