<svg xmlns="http://www.w3.org/2000/svg" width="64" height="64" viewBox="0 0 64 64"><g transform="translate(-736 -1648)"><circle cx="32" cy="32" r="32" transform="translate(736 1648)" fill="#0a113a"/><g transform="translate(479.236 1262.769)"><path d="M303.669,431.159c4.794-6.753,4.826-14.363,4.859-21.578V401.9h-6.368v-2.011c.024-1.436-.168-2.107-1.968-2.628a41.146,41.146,0,0,0-11.43-1.617h0a41.165,41.165,0,0,0-11.438,1.619c-1.792.519-1.983,1.19-1.959,2.626V401.9H269v7.684c.034,7.215.066,14.824,4.86,21.578,5.247,7.392,14.9,9.661,14.9,9.661S298.422,438.551,303.669,431.159Z" transform="translate(0 0)" fill="#0a113a"/><path d="M397.286,437.171a41.3,41.3,0,0,0,7.148-.673,26.588,26.588,0,0,0,3.387-.734c.764-.224.8-.3.8-1.086v-8.013c0-.712-.1-.8-.739-.99-.867-.256-1.831-.483-2.934-.7a39.214,39.214,0,0,0-7.665-.756h0a39.226,39.226,0,0,0-7.669.756c-1.1.22-2.064.447-2.931.7-.637.189-.739.278-.739.99v8.013c0,.784.04.862.8,1.086a26.566,26.566,0,0,0,3.387.734,41.306,41.306,0,0,0,7.148.673Zm4.334-7.337a4.334,4.334,0,1,1-4.334-4.334,4.334,4.334,0,0,1,4.334,4.334" transform="translate(-108.522 -26.513)" fill="#ffdf00"/><path d="M281.453,407.974h-6.372v6.544c.033,7.1.067,14.451,4.647,20.9,4.455,6.276,12.423,8.715,13.968,9.139h0c1.545-.424,9.513-2.862,13.968-9.139,4.58-6.452,4.614-13.8,4.647-20.9v-6.544h-6.364l0-.058v-2.982a1.9,1.9,0,0,0-.2-1.133,1.729,1.729,0,0,0-.939-.511c-1.074-.324-2.167-.578-3.266-.8a40.034,40.034,0,0,0-7.843-.773h0a40.035,40.035,0,0,0-7.844.773c-1.1.22-2.192.474-3.266.8a1.728,1.728,0,0,0-.939.511,1.9,1.9,0,0,0-.2,1.133v2.982Zm25.257-.766h6.367v7.314c-.034,7.224-.068,14.693-4.789,21.343-4.847,6.828-13.651,9.246-14.593,9.488-.942-.242-9.746-2.659-14.593-9.488-4.72-6.65-4.755-14.12-4.789-21.344v-7.314h6.367s0-2.6,0-2.621c0-1.161.2-1.6,1.693-2.033a40.661,40.661,0,0,1,11.323-1.6h0a40.661,40.661,0,0,1,11.323,1.6c1.493.433,1.693.872,1.693,2.033,0,.025,0,2.621,0,2.621" transform="translate(-4.932 -4.927)" fill="#ffdf00"/><path d="M300.22,533.859V511.032h-2.652v5.63c.027,5.829.055,11.824,2.652,17.27Z" transform="translate(-26.511 -107.076)" fill="#ffdf00"/><path d="M752.287,533.873c2.567-5.429,2.595-11.4,2.622-17.206v-5.63h-2.651v22.9Z" transform="translate(-448.439 -107.081)" fill="#ffdf00"/><path d="M374.686,541.27a.555.555,0,1,1-.555-.547A.555.555,0,0,1,374.686,541.27Zm-1.516,2.055.519.415s.506-.4,1-.846a1.9,1.9,0,0,0,.87-1.739,1.4,1.4,0,0,0-1.376-1.2,1.23,1.23,0,0,0-1.328,1.249,1.2,1.2,0,0,0,1.245,1.246s-.48.473-.926.88m-3.774-4.359v.521h.375v2.641h.91v-3.455h-.5a1.178,1.178,0,0,1-.782.293m6.774,1.572v.521h.375V543.7h.91v-3.455h-.5a1.178,1.178,0,0,1-.782.293m5.491-.114c0,.566-.337,1.026-.752,1.026s-.752-.459-.752-1.026.336-1.026.752-1.026.752.459.752,1.026m-.751-1.8a1.808,1.808,0,1,0,1.628,1.8,1.72,1.72,0,0,0-1.628-1.8m-10.536,4.964v-6.425l0-.044a15.956,15.956,0,0,1-2.923-2.69l-.044-.049v7.379l0,.048a21.22,21.22,0,0,1-3.773-3.309l-.042-.043V526.847a15.272,15.272,0,0,1-.52-3.44l0-1.153h.483l.042,0v-4.471l0-.055c-.8-.426-.925-1.03-.925-1.951v-4.691l0-.079h.73l.034,0v4.421a1.9,1.9,0,0,0,.2,1.133,2.025,2.025,0,0,0,1.021.54,24.99,24.99,0,0,0,2.759.661v4.493h2.967v-4.024c1.266.174,2.467.3,3.77.352l.046,0V522.2l0,.059h2.927l.04,0v-3.591l0-.074c1.3-.053,2.506-.174,3.77-.347l.051,0v3.962l0,.059h2.971v-4.5l.069-.012a24.841,24.841,0,0,0,2.689-.648,2.025,2.025,0,0,0,1.021-.54,1.9,1.9,0,0,0,.2-1.133V511l.052,0h.655l.061,0v4.768c0,.913-.124,1.514-.9,1.939l-.026.015V522.2l0,.05h.523l0,1.153a15.29,15.29,0,0,1-.521,3.448v11.595l-.031.037a21.156,21.156,0,0,1-3.7,3.263l-.085.057v-7.379l0-.048-.041.05a15.957,15.957,0,0,1-2.926,2.692v6.471l-.02.01a30.833,30.833,0,0,1-3.793,1.649l0-.04v-5.877l-.034.016c-.606.276-1,.423-1.057.443l-.394.144-.394-.144c-.056-.02-.462-.171-1.083-.455l-.006.044v5.873l-.022-.011a30.808,30.808,0,0,1-3.765-1.637l-.031-.02" transform="translate(-86.911 -107.046)" fill="#ffdf00"/><path d="M495.639,450.531a4.014,4.014,0,1,1-4.014-4.014A4.014,4.014,0,0,1,495.639,450.531Z" transform="translate(-202.861 -47.21)" fill="#ffdf00"/><path d="M428.07,557.016l-.165-.854-.427.755Zm.184.91-.106-.521-.864-.144-.26.46-.465-.078,1.2-2.023.462.077.506,2.309-.478-.08" transform="translate(-146.206 -148.451)" fill="#0a113a"/><path d="M469.969,560.439l.426.053.7,1.564h.006l.181-1.453.407.051-.272,2.177-.441-.055-.692-1.529h-.006l-.177,1.42-.407-.051Z" transform="translate(-186.237 -152.923)" fill="#0a113a"/><path d="M510.7,564.729l.441.018-.041.973.937-.936.594.025-.859.82.814,1.374-.573-.024-.56-1.054-.376.352-.028.661-.441-.018Z" transform="translate(-224.203 -156.904)" fill="#0a113a"/><path d="M550.155,566.419l-.338-.8-.263.827Zm.367.852-.211-.488-.875.037-.16.5-.471.02.761-2.228.468-.02.971,2.155-.484.02" transform="translate(-259.645 -157.245)" fill="#0a113a"/><path d="M589.952,562.469l.325-.041a1.678,1.678,0,0,0,.392-.077.253.253,0,0,0,.135-.276.245.245,0,0,0-.14-.208c-.088-.038-.143-.032-.438.005l-.344.043Zm-.553-.866.924-.116a1.475,1.475,0,0,1,.505-.008.582.582,0,0,1,.425.512.562.562,0,0,1-.264.577.828.828,0,0,1-.235.1v.006a1.225,1.225,0,0,1,.553.471l.318.392-.526.066-.376-.435c-.314-.359-.346-.4-.641-.361l-.088.011.114.909-.438.055L589.4,561.6" transform="translate(-297.313 -153.873)" fill="#0a113a"/><path d="M631.488,556.911l-.434-.754-.158.853Zm.47.8-.269-.458-.864.145-.1.519-.465.078.48-2.305.463-.077,1.23,2.019-.478.08" transform="translate(-335.234 -148.445)" fill="#0a113a"/><path d="M542.946,460.742a3.456,3.456,0,0,1-.41.149l-.031.009v-3.037a.326.326,0,0,0-.317-.288h-.278l0,.048v3.39h-.027q-.156.014-.316.014l-.112,0-.024,0V454.1l.024,0,.112,0q.161,0,.319.015l.024,0V457.1h.287c.251,0,.311-.2.311-.527v-2.346l.021,0a3.445,3.445,0,0,1,.462.17l0,.029v2.113c0,.634-.323.79-.323.79a.782.782,0,0,1,.323.628v2.768Z" transform="translate(-252.798 -54.24)" fill="#0a113a"/><path d="M572.588,464.847h-.452l-.026,0a2.986,2.986,0,0,0-.281-.556l-.016-.025v1.358l.033,0h.589v.479h-.622v1.421l0,.023a2.986,2.986,0,0,0,.251-.468l.007-.019h.515l-.009.023a3.477,3.477,0,0,1-1.218,1.625l-.028.018v-5.637l.028.02a3.474,3.474,0,0,1,1.256,1.74Z" transform="translate(-280.551 -62.589)" fill="#0a113a"/><path d="M497.815,462.173a3.441,3.441,0,0,1-.436-.14l-.021-.009v-4.606l-.782,1.8-.729-1.436-.015.04a2.986,2.986,0,0,0,.364,2.689l-.4.269a3.468,3.468,0,0,1,.046-4l.017-.022.68,1.341,1.137-2.615.023,0,.132-.035v6.739Z" transform="translate(-209.89 -55.487)" fill="#0a113a"/><path d="M634.554,684.93h-1.34v9.435a12.624,12.624,0,0,0,.862-.937,18.329,18.329,0,0,0,3.918-8.467l.006-.031H636.63l-.005.025a17.192,17.192,0,0,1-2.071,5.466l0-.079V684.93Zm3.5-.455v-1.341h-1.342l0,.018v1.323h1.341m-3.532,0h-1.31v-1.323l0-.018h1.342v1.341h-.031" transform="translate(-337.968 -266.779)" fill="#0a113a"/><path d="M554.493,698.114V683.136h4.189v1.342h-2.849v11.446l.042-.023a17.566,17.566,0,0,0,2.8-1.983l0,.055v1.676l-.02.015a21.582,21.582,0,0,1-4.14,2.436Z" transform="translate(-264.923 -266.779)" fill="#0a113a"/><path d="M474.056,695.668a21.625,21.625,0,0,0,4.1,2.4l.022.012V684.9h-1.341v10.993l-.022-.011c-.46-.265-.951-.57-1.445-.916l-.041-.026V684.9h-1.341v10.714Zm1.271-12.568h-1.341v1.34h1.341V683.1m2.849,1.34h-1.341V683.1h1.341v1.34" transform="translate(-190.217 -266.746)" fill="#0a113a"/><path d="M389.261,684.429v-1.294h-4.979a17.77,17.77,0,0,0,4.117,10.293c.261.315.538.615.825.9l.037.041v-8.756l.006-.061h-2.232v1.269h.892l-.006.055v3.549l-.027-.047a17.122,17.122,0,0,1-2.129-5.9h3.5Z" transform="translate(-106.976 -266.779)" fill="#0a113a"/></g></g></svg>