<svg xmlns="http://www.w3.org/2000/svg" width="64" height="64" viewBox="0 0 64 64"><g transform="translate(-8528.947 -692.496)"><circle cx="32" cy="32" r="32" transform="translate(8528.947 692.496)" fill="#4d2561"/><g transform="translate(8540.072 698.682)"><path d="M57.556,122.987a19.062,19.062,0,0,1-4.2,6.45,19.811,19.811,0,0,1-6.812,4.469,23.862,23.862,0,0,1-8.857,1.622h0A20.271,20.271,0,0,1,17.235,115a19.742,19.742,0,0,1,2.992-10.284,21.99,21.99,0,0,1,3.289-4.145,21.151,21.151,0,0,1,4.1-3.172l1.277-.733c-.476-.525-1.355-1.52-2.093-2.5-1.295-1.725-1.649-2.7-1.224-3.366a2.189,2.189,0,0,1,1.936-.946,3.688,3.688,0,0,1,.9.113,5.331,5.331,0,0,1,1.623.729,11,11,0,0,1,1.254.918q-.1-.14-.213-.284a2.108,2.108,0,0,1-.563-1.443,1.641,1.641,0,0,1,.655-1.2,2.03,2.03,0,0,1,1.31-.445,3.642,3.642,0,0,1,1.765.538l.014.009a7.379,7.379,0,0,1,1.824,2c.021-.291.051-.612.1-.935A4.546,4.546,0,0,1,37.14,87.3a1.508,1.508,0,0,1,1.092-.479h.024a2.009,2.009,0,0,1,1.9,1.5,4.144,4.144,0,0,1,.219,1.215l.156,1.7c.1-.153.209-.309.321-.465,1.235-1.713,2.462-2.582,3.648-2.582a2.435,2.435,0,0,1,1.261.356,1.463,1.463,0,0,1,.8.963,2.414,2.414,0,0,1-.785,2.1l-.006.009a6.37,6.37,0,0,1,3.659-1.783,2.166,2.166,0,0,1,.945.206,1.859,1.859,0,0,1,1.078.982,1.549,1.549,0,0,1-.158,1.377A39.156,39.156,0,0,1,47.8,97.022l1.138.644a20.386,20.386,0,0,1,10.046,17.4A20.894,20.894,0,0,1,57.556,122.987Z" transform="translate(-17.235 -86.821)" fill="#fff"/><path d="M46.256,273.77A19.581,19.581,0,0,1,26.5,253.933c0-7.143,4.362-13.651,10.041-17.007a20.67,20.67,0,0,0-6.12,13.9c0,9.715,7.982,17.111,16.306,17.111,8.963,0,16.292-7.737,16.292-17.307,0-4.722-2.563-9.863-5.852-13.433A19.712,19.712,0,0,1,66.867,254C66.976,265.109,58.7,273.771,46.256,273.77Z" transform="translate(-25.807 -225.751)" fill="#4d2561"/><path d="M120.348,120.351c.17-7.2-5.765-13.662-12.876-13.662A13.331,13.331,0,0,0,94.19,120.259c0,.031,0,.061,0,.092H91.937a16.192,16.192,0,0,1,7.919-14.011l-.707-.869q-.209-.256-.433-.5c-.842-.916-3.952-4.39-3.42-5.223.614-.961,2.1-.533,2.1-.533s2.1.348,5.051,4.1a6.75,6.75,0,0,0-1.7-3.858s-.9-.927,0-1.657,2.271.139,2.271.139a8.227,8.227,0,0,1,2.618,3.731,4.01,4.01,0,0,0,.243-1.258c-.012-.584.07-4.349,1.512-4.326s1.442,2.062,1.442,2.062l.359,3.893s2.792-5.931,5.4-4.31c0,0,1.182.452-.22,2.028a12.554,12.554,0,0,0-1.587,3.476s4.333-5.074,6.465-3.985c0,0,1.17.371.591,1.379a37.041,37.041,0,0,1-3.53,4.637,6.668,6.668,0,0,0-.724.859l-.381.537a16.226,16.226,0,0,1,7.39,13.689Z" transform="translate(-86.376 -95.397)" fill="#4d2561"/><path d="M124.779,463.506a15.668,15.668,0,0,1-1.193,2.277,14.936,14.936,0,0,1-2.379,3.314l-.058.057a9.716,9.716,0,0,1-4.642.006c-.278-.852-2.468-5.358-2.468-5.358h-6.864l-2.363,5.352a11.916,11.916,0,0,1-4.606-.025l-.11-.022a16.133,16.133,0,0,1-2.091-2.763,28.4,28.4,0,0,1-1.474-2.838H95.6a15.229,15.229,0,0,0,30.107,0ZM100,471.465s.139-.889.19-1.842h0s.207.06.565.127a9.839,9.839,0,0,0,4.162-.109,39.308,39.308,0,0,0,5.491,3.91l0,.474.014,2.027A14.311,14.311,0,0,1,100,471.465Zm10.9,4.553.028-2,.007-.466c.886-.278,5.5-3.854,5.5-3.854a11,11,0,0,0,3.961.167c.473-.066.763-.136.763-.136l.076-.031.06,1.925C115.655,476.731,110.894,476.018,110.894,476.018Z" transform="translate(-89.768 -435.463)" fill="#4d2561"/><g transform="translate(15.327 12.818)"><path d="M225.026,274.52c.035-.072.035-.107.1-.143a.035.035,0,0,1,.035-.036h.035c.035,0,.035,0,.035-.071-.035,0-.035.036-.07.036v.036h-.07a.756.756,0,0,1-.174.107c0-.071,0-.107-.035-.143a1.652,1.652,0,0,0-.417.036v-.107c-.383-.322-.243-.429-.278-.68a10.105,10.105,0,0,1,1.043,0,8.085,8.085,0,0,0,1.565-1.538c.313-.215.383-.215.383-.286h-.069v-.179a2.969,2.969,0,0,1,.557-.072,5.154,5.154,0,0,0-.7-1.467c-.244-1.073-.035-1.037.835-1.073a3.378,3.378,0,0,1,.035-.608,6.865,6.865,0,0,1-.348-2.611c-.139-.5.035-.715,0-.93a.12.12,0,0,0-.07-.036,1.56,1.56,0,0,1-.07-.393h.07v-.143l-.035-.036a10.669,10.669,0,0,0-.139-1.109,4.614,4.614,0,0,1-.313-1.109c-.522-.143-1.948-.644-1.67-1.216a1.3,1.3,0,0,0,.383-.358,5.375,5.375,0,0,1,1.287-.393,2.971,2.971,0,0,1,.383-.751c.035,0,.139.036.209.036a.134.134,0,0,1-.035-.107h.1c.035-.072.035-.143.1-.179a.936.936,0,0,1,.313.036c-.07.143-.348.179-.243.393.139-.107.313-.25.556.036-.035.107-.278.179-.348.179a.908.908,0,0,0-.139.25c0,.322.07.179.452.215v.215c-.452.143-.7.25-1.009.143v.107a5.179,5.179,0,0,0-.7.215c.278.072.556.107.835.179a2.105,2.105,0,0,0,1.252.322l.209-.429c0-.644.626-.823,1.148-.5a5.358,5.358,0,0,0,.209.5,6.837,6.837,0,0,0-.139.894h.869c.313.143.313.143.383.107.035-.107.07-.179.1-.286h.139a.445.445,0,0,1,.07.107.257.257,0,0,0-.139-.036,1.322,1.322,0,0,0-.07.393h.1v-.25h.069v.286c.139-.072.139-.286.139-.358h.139a1.376,1.376,0,0,0-.035.393.43.43,0,0,1,.1-.072c0-.107.035-.215.035-.322h.1c0,.143-.1.179-.069.429.1-.036.1-.036.209-.215.1-.036.1-.036.139-.107a2.369,2.369,0,0,1-.278-.107v-.036c-.139,0-.278-.036-.382-.036v-.072a1.584,1.584,0,0,1,.591.107v.072c.174,0,.209.036.383.215.383.107.383.5.243.966-.383.322-1.809.072-2.157-.036a3.108,3.108,0,0,0-.243.358,2.64,2.64,0,0,1-.348.894,2.064,2.064,0,0,1-.1,1c0,.5,0,1,.035,1.5h-.07c0,.894.035,1.037.035,1.431-.139.25-.626,1.073-.348,1.466-.035.036-.035.036-.035.072-.174-.072-.348-.179-.522-.25-.139.072-.243.179-.209.465a1.663,1.663,0,0,0,.591.215v-.072a.759.759,0,0,0-.174-.107V269.8c.209.036.417.25.765.25a.517.517,0,0,1,.07.214h.139v.143a2.323,2.323,0,0,0-.87-.179c0,.179,1.287.286,1.53.322a.179.179,0,0,1,.139-.071.7.7,0,0,1-.626.286c-.035-.072-.035-.108-.07-.179-.348.143-.348.071-.417.358h-.1c-.174,0-.278.107-.383.072,0-.072-.035-.107-.035-.179,0,.107-.035.179-.035.286a.76.76,0,0,0-.313.25h.069v.179a.261.261,0,0,0-.174.072v.107a.28.28,0,0,1,.174.215h.209c0,.072.035.107.035.143h-.07v-.071c-.1,0-.174.036-.278.036-.626-.93-.383-1.645-.557-2.575-.035,0-.07-.036-.1-.036a1.646,1.646,0,0,1-.035-.394.368.368,0,0,0-.174-.036c0-.179.139-.143.209-.214,0-.072.035-.179.035-.25h.139V268.4l.035-.036V268.3a1.678,1.678,0,0,0,.035-.537,1.77,1.77,0,0,1-.1.25.26.26,0,0,0-.139.072c0,.036-.035.036-.035.071v.072a.349.349,0,0,0-.174.143h-.035c-.035,0-.035.036-.07.036-.07,0-.174-.036-.243-.036a1.511,1.511,0,0,0-.035.393.354.354,0,0,1,.139-.179.463.463,0,0,0-.035.214h-.07v.25a1.936,1.936,0,0,0-.035,1.18c.035-.107.035-.215.069-.286.1.465.244.894.348,1.359l.035.036c0,.072,0,.072.035.072V271.3h-.035a4.091,4.091,0,0,1-.069-.608h.035a5.684,5.684,0,0,1,.174.823c-.035-.036-.035-.036-.07-.036v.322h.07a.867.867,0,0,1-.174.5c.035,0,.07.036.1.036v-.071a3.122,3.122,0,0,1,1.009,0c-.035,0-.035.036-.035.071-.348.036-.7.107-1.044.179v.071a4.8,4.8,0,0,0,.974-.071c.07-.107.174-.25.244-.358a.262.262,0,0,1,.139.072c.174-.68,1.009-.858,1.565-1.216-.278,0-.243,0-.383.107-.035-.036-.035-.072-.069-.107a1.156,1.156,0,0,1-.487.358v.107c-.07-.036-.1-.036-.139-.072a.294.294,0,0,1,.174-.107v-.071a.12.12,0,0,1,.07-.036,1.544,1.544,0,0,1,.383-.286c0,.036.035.036.069.036.1-.179.383-.25.591-.394a.035.035,0,0,0,.035.036v.143c-.07.036-.07.072-.1.107-.035-.036-.035,0-.035,0-.035,0-.035,0-.069.036a.17.17,0,0,1,.209,0,.486.486,0,0,1-.209.072h.174a1.11,1.11,0,0,1,.835-.322c-.035.072-.035.072-.209.179a1.274,1.274,0,0,0,.383.036c-.035-.036-.07-.036-.139-.036.139-.25.174-.143.452-.179.174.072.174.179.139.465a1.626,1.626,0,0,0,.626-.215c-.174.036-.313.036-.452.072.07-.179.035-.143.174-.25,0-.036,0-.036-.07-.072a.179.179,0,0,1,.139-.072l.035.036v.107c.313.179.383.179.487.823,0,.429,0,.429-.035.5l-.1.751a1.25,1.25,0,0,1,.73,1.288c-.035,0-.035,0-.069.036v.25c.139.036.313.072.452.107-.035.107-.07.215-.1.358-.209.143-.487.358-.731.322,0-.286-.73-.394-.8-.394v-.072h1.5v-.107a5.521,5.521,0,0,0-1.356.036c-.07-.036-.1-.107-.139-.143-.174-.036-.348-.071-.487-.107a1.757,1.757,0,0,0,.383-.071,3.8,3.8,0,0,0-.313-.393,1.011,1.011,0,0,0-.383.143c0,.071.035.179.035.25.07.036.1.036.174.071v.072a8.584,8.584,0,0,0-.974-.036,6.483,6.483,0,0,1-3.861-.322,7.118,7.118,0,0,0-.9.036c-.035.072-.035.072-.1.107a2.36,2.36,0,0,0,.139.465c-.07,0-.07,0-.07.072a1.027,1.027,0,0,1,.348-.143v-.071a27.667,27.667,0,0,1,5.426.214c0,.072.035.143.035.215-1.6-.072-3.2-.179-4.765-.25a5.763,5.763,0,0,0-.8.036v.072c-.139,0-.278.036-.383.036a3.8,3.8,0,0,1-2.087.859c.174-.179.9-1.037.383-1.18Z" transform="translate(-224.111 -258.996)" fill="#4d2561" fill-rule="evenodd"/><path d="M232,458.1v-.072a6.52,6.52,0,0,1,1.357-2l.313.107a.256.256,0,0,0-.174.036v.107a2.121,2.121,0,0,0,.244.072c-.139.286.07.5.035.93-.417.179-.974.715-1.356.644-.139.072-.278.107-.417.179Z" transform="translate(-231.34 -441.362)" fill="#e1d2e1" fill-rule="evenodd"/><path d="M232.468,458.515c.313-.537.591-1.073.9-1.574l.417-.429a1.78,1.78,0,0,0,.1.25.255.255,0,0,0,.174.036c.035.286.07.572.1.894a2.466,2.466,0,0,0-.626.394c-.348.143-.73.25-1.078.429Z" transform="translate(-231.772 -441.808)" fill="#fff" fill-rule="evenodd"/><path d="M263.11,460.948c0-.072-.035-.143-.035-.215a27.671,27.671,0,0,0-5.426-.214v.071a1.027,1.027,0,0,0-.348.143c0-.072,0-.072.07-.072a2.362,2.362,0,0,1-.139-.465c.07-.036.07-.036.1-.107a7.1,7.1,0,0,1,.9-.036,6.776,6.776,0,0,0,3.861.322,8.577,8.577,0,0,1,.974.036v-.072c-.07-.036-.1-.036-.174-.071,0-.072-.035-.179-.035-.25a1.01,1.01,0,0,1,.383-.143,3.791,3.791,0,0,1,.313.394,1.758,1.758,0,0,1-.383.071c.139.036.313.072.487.107.035.036.07.107.139.143a5.519,5.519,0,0,1,1.356-.036v.107h-1.5v.072a.133.133,0,0,1-.035-.107c.035,0,.035-.036.069-.036-.035-.036-.035-.071-.069-.071a3.187,3.187,0,0,0-1.843.071,4.617,4.617,0,0,1,1.322.143v.215Z" transform="translate(-254.693 -444.921)" fill="#e1d2e1" fill-rule="evenodd"/><path d="M350.4,469.555c-.243-.036-.452-.036-.661-.072h1.009c-.139.036-.243.036-.348.072Z" transform="translate(-340.317 -453.813)" fill="#fff" fill-rule="evenodd"/><path d="M257.838,462.813c-.07-.286-.07-.286-.139-.358.278-.5,1.217,0,1.739.143.209.036.209.036-1.391.072v.072c-.069.036-.139.036-.209.072Z" transform="translate(-255.125 -447.107)" fill="#fff" fill-rule="evenodd"/><path d="M309.093,468.56v-.036h.07v.036Z" transform="translate(-302.693 -452.926)" fill="#fff" fill-rule="evenodd"/><path d="M232,466.227a.755.755,0,0,0,.174-.107.035.035,0,0,0,.035.036c-.07.036-.07.107-.1.143-.035-.036-.07-.072-.1-.072Z" transform="translate(-231.34 -450.701)" fill="#e1d2e1" fill-rule="evenodd"/><path d="M287.6,468.078v-.036h.7v.036Z" transform="translate(-282.801 -452.479)" fill="#fff" fill-rule="evenodd"/><path d="M234.373,466.156a.035.035,0,0,1-.035-.036h.07a.035.035,0,0,0-.035.036Z" transform="translate(-233.503 -450.701)" fill="#e1d2e1" fill-rule="evenodd"/><path d="M234.84,466.12h0Z" transform="translate(-233.935 -450.701)" fill="#e1d2e1" fill-rule="evenodd"/><path d="M235.273,465.676v-.036l.035.036Z" transform="translate(-234.368 -450.256)" fill="#e1d2e1" fill-rule="evenodd"/><path d="M235.308,465.232l-.035-.036c.035,0,.035-.036.07-.036,0,.071,0,.071-.035.071Z" transform="translate(-234.368 -449.813)" fill="#e1d2e1" fill-rule="evenodd"/><path d="M334.465,460.783c-.07-.036-.1-.036-.139-.071v-.25a2.35,2.35,0,0,1,.278-.107,1.96,1.96,0,0,0,.243.322c-.139.036-.243.072-.383.107Z" transform="translate(-326.047 -445.364)" fill="#fff" fill-rule="evenodd"/><path d="M226.862,464.269V464.2h.1c-.035.036-.07.036-.1.072Z" transform="translate(-226.584 -448.921)" fill="#e1d2e1" fill-rule="evenodd"/><path d="M237.609,463.753v-.036h.035a.034.034,0,0,0-.035.036Z" transform="translate(-236.531 -448.476)" fill="#e1d2e1" fill-rule="evenodd"/><path d="M223.332,457.048c.035-.072.035-.072.1-.072v-.071a.306.306,0,0,0-.174-.036c.035,0,.07-.036.1-.036v-.072h-.209c.07-.036.1-.107.209-.107h-.244v-.143h.557c.035.072.035.107.07.179a.99.99,0,0,0-.313.072.677.677,0,0,1,.07.25,1.473,1.473,0,0,1-.174.036Z" transform="translate(-223.123 -441.808)" fill="#e1d2e1" fill-rule="evenodd"/><path d="M237.644,463.274h-.035a.034.034,0,0,1,.035-.036l.035.036Z" transform="translate(-236.531 -448.033)" fill="#e1d2e1" fill-rule="evenodd"/><path d="M238.111,462.828l-.035-.036c0-.036,0-.036.035-.036v.072Z" transform="translate(-236.963 -447.587)" fill="#e1d2e1" fill-rule="evenodd"/><path d="M238.544,461.9v-.036c.035-.036.069-.036.139-.071-.035.036-.1.071-.139.107Z" transform="translate(-237.396 -446.699)" fill="#e1d2e1" fill-rule="evenodd"/><path d="M294.484,432.722c-.035.215-.035.215-.07.572h-.07c-.035-.071-.07-.179-.1-.25a.483.483,0,0,1-.209.072v.179l.313.107v.179c-.313-.143-.487-.25-.73-.143a.134.134,0,0,0-.035.107.47.47,0,0,1,.383.143h-.348l-.07.072c.1.036.1.036.174.143-.278-.036-.556-.036-.835-.072h-.035a.392.392,0,0,1,.07-.215l-.417.107c0,.107.174.143.278.107v.072h.035v.107a.921.921,0,0,1-.487.107v-.179a1.952,1.952,0,0,0-.487.143l-.035-.036c0-.071.035-.107.035-.143s0-.036.035-.072h.452c.209-.429.348-.394.9-.322,0-.215.174-.215.243-.25v-.072h-.209a.464.464,0,0,1,.591-.429c0,.072-.035.143-.035.215l.1-.107h.035v.107c.244-.179.174-.393.452-.537h.243a.034.034,0,0,1,.035.036c-.1.036-.1,0-.1.143a1.274,1.274,0,0,1,.348-.036c-.035-.036-.035-.072-.07-.107.035-.036.035-.036.07-.036a1.732,1.732,0,0,0,.487-.143c.348.107.383-.179.7-.286,0,.25-.278.394-.209.644.139.179.1.358.487.465a1.51,1.51,0,0,0-.035.394.746.746,0,0,1,.278-.036c.1.286.278.465,0,.823a.258.258,0,0,0-.139-.036.764.764,0,0,0,.139-.608c-.035,0-.035-.036-.07-.036a.317.317,0,0,1-.278.179c0,.036-.035.072-.035.107h-.1c-.035-.036-.035-.036-.035-.072-.07.036-.1.036-.174.072,0-.25.278-.25.209-.465-.278,0-.487-.036-.661.143,0-.072.035-.143.035-.215a1.485,1.485,0,0,1-.243.143c0-.322.1-.286.383-.394v-.072c-.313,0-.383.179-.557.179,0-.286.1-.179.139-.322a.935.935,0,0,0-.313-.036c-.07.179-.07.143-.035.429a.035.035,0,0,0-.035.036c-.035-.143-.035-.25-.07-.393a.126.126,0,0,0-.1.036.391.391,0,0,0-.07.214h-.07a1.934,1.934,0,0,1,.035-.465Z" transform="translate(-286.693 -419.126)" fill="#e1d2e1" fill-rule="evenodd"/><path d="M286.2,458.059a.035.035,0,0,1,.035-.036c.035-.036.035-.036.348-.072v.107h-.07v.036a.613.613,0,0,1-.069.179c-.07-.072-.174-.143-.243-.215Z" transform="translate(-281.504 -443.141)" fill="#e1d2e1" fill-rule="evenodd"/><path d="M240.411,461.352v-.036l.035.036Z" transform="translate(-239.124 -446.254)" fill="#e1d2e1" fill-rule="evenodd"/><path d="M287.958,458.505a.368.368,0,0,0-.139.107c-.07-.072-.07-.072-.035-.179h.174v.071Z" transform="translate(-282.949 -443.587)" fill="#fff" fill-rule="evenodd"/><path d="M343.445,456.834c-.07-.036-.174-.107-.244-.143v-.179h.139c0,.107.174.179.348.143a.133.133,0,0,0-.035.107.106.106,0,0,0-.07-.036v.072c-.07,0-.1.036-.139.036Z" transform="translate(-334.263 -441.808)" fill="#e1d2e1" fill-rule="evenodd"/><path d="M290.4,459.875h.1c0,.036,0,.036-.1.036v-.036Z" transform="translate(-285.395 -444.921)" fill="#e1d2e1" fill-rule="evenodd"/><path d="M277.323,457.333a.034.034,0,0,1,.035-.036.838.838,0,0,1,.626.107c-.035,0-.035.036-.07.036a1.96,1.96,0,0,1-.591-.107Z" transform="translate(-273.288 -442.521)" fill="#e1d2e1" fill-rule="evenodd"/><path d="M290.4,459.429v-.036h.1l.035.036H290.4Z" transform="translate(-285.395 -444.474)" fill="#d6bbd3" fill-rule="evenodd"/><path d="M300.133,455.249v.107a1.216,1.216,0,0,0-.383.072,1.257,1.257,0,0,1,.035-.358c.035.107.1.215.348.179Z" transform="translate(-294.045 -440.473)" fill="#fff" fill-rule="evenodd"/><path d="M343.843,457.206a.762.762,0,0,1-.174-.107c0-.072,0-.072.07-.107.035.072.208.179.208.215Z" transform="translate(-334.695 -442.251)" fill="#fff" fill-rule="evenodd"/><path d="M226.394,457.17v-.179c.278,0,.278,0,.313.072a.551.551,0,0,1-.313.107Z" transform="translate(-226.15 -442.251)" fill="#fff" fill-rule="evenodd"/><path d="M279.505,458.059l-.313-.107h.313c0,.036.035.036.069.072a.12.12,0,0,0-.069.036Z" transform="translate(-275.018 -443.141)" fill="#fff" fill-rule="evenodd"/><path d="M285.265,458.949c.035,0,.035-.036.07-.036h.035a.035.035,0,0,0-.035.036Z" transform="translate(-280.639 -444.03)" fill="#d6bbd3" fill-rule="evenodd"/><path d="M275.34,454.887v-.107c-.313.036-.313.036-.348.072h-.035a.838.838,0,0,0-.626-.107h-.278c.035-.322.7-.215,1.078-.143v.072c.1.036.174.036.278.072,0,.036-.035.072-.035.143Z" transform="translate(-270.262 -439.969)" fill="#613378" fill-rule="evenodd"/><path d="M292.741,457.616v-.107a.748.748,0,0,1,.278-.036v.072a.8.8,0,0,0-.278.071Z" transform="translate(-287.558 -442.697)" fill="#fff" fill-rule="evenodd"/><path d="M325.949,452.723c0-.036-.035-.036-.035-.071.1-.143.209-.322.313-.465a.306.306,0,0,1,.278.322c-.348,0-.348.072-.557.215Z" transform="translate(-318.262 -437.805)" fill="#e1d2e1" fill-rule="evenodd"/><path d="M269.38,444.878l.035-.036c.035,0,.035-.036.07-.036,0-.072-.035-.107-.035-.143a.034.034,0,0,1,.035-.036c.522-.036,1.078-.036,1.6-.036a.773.773,0,0,0,.244-.572c.035,0,.035,0,.1.036a.77.77,0,0,1-.383.68c-.035.036-.035.072-.035.143h.1v.072h-.035v.072c-.1-.036-.174-.036-.278-.072v-.072c-.383-.072-1.044-.179-1.078.143h.139v.072h-.383l-.1-.215Z" transform="translate(-265.936 -430.245)" fill="#e1d2e1" fill-rule="evenodd"/><path d="M326.85,457.988v-.036h.035v.036Z" transform="translate(-319.128 -443.141)" fill="#fff" fill-rule="evenodd"/><path d="M270.418,452.387a.494.494,0,0,0-.1-.143.27.27,0,0,0,.1-.25,4.047,4.047,0,0,1,1.461.036,2.343,2.343,0,0,0-.07.25h-.1v-.107c-.348-.036-.974-.143-1.113.036a.274.274,0,0,0-.035.179Z" transform="translate(-266.801 -437.576)" fill="#fff" fill-rule="evenodd"/><path d="M275.921,457.473h.139a.034.034,0,0,0-.035.036h-.1v-.036Z" transform="translate(-271.99 -442.697)" fill="#d6bbd3" fill-rule="evenodd"/><path d="M292.274,456.584v-.072h.035c-.035.036-.035.036-.035.072Z" transform="translate(-287.126 -441.808)" fill="#d6bbd3" fill-rule="evenodd"/><path d="M301.5,453.842h-.069c-.1.036-.278,0-.278-.107l.417-.107a.392.392,0,0,0-.07.215Z" transform="translate(-295.342 -439.138)" fill="#4d2561" fill-rule="evenodd"/><path d="M304.89,456.584v-.072h.1c-.035.036-.07.036-.07.072Z" transform="translate(-298.803 -441.808)" fill="#d6bbd3" fill-rule="evenodd"/><path d="M291.949,456.512Z" transform="translate(-286.801 -441.808)" fill="#fff" fill-rule="evenodd"/><path d="M302.389,442.576v.215a.762.762,0,0,1-.174.107v.215a.126.126,0,0,1,.1.036,1.68,1.68,0,0,0-.557.036v.179a.307.307,0,0,1,.174.036c-.243.036-.139.036-.243.215h-.557c0-.107.035-.179.035-.25-.417.107-.417.107-.487.071.209-.143.417-.107.8-.107.069-.215.174-.215.278-.25V442.9h-.243c.07-.214.209-.286.487-.322a.466.466,0,0,0-.035.215c.1,0,.209-.036.313-.036a.789.789,0,0,1,.1-.179Z" transform="translate(-294.911 -428.909)" fill="#fff" fill-rule="evenodd"/><path d="M330.487,434.663h-.035c0-.071.035-.071.035-.107.07-.036.174-.072.244-.107v-.107c-.313,0-.313,0-.522.179-.035-.036-.035-.072-.035-.143.035,0,.07-.036.1-.036.035-.036.035-.107.07-.143a2.089,2.089,0,0,0-.452-.036v.072c-.07,0-.139.036-.243.036a1.017,1.017,0,0,1,.035-.322H330V433.8a6.532,6.532,0,0,1,.835-.143,1.522,1.522,0,0,1,.243-.215c0,.179-.174.215-.174.572a3.971,3.971,0,0,1,.209.394v.036a2.092,2.092,0,0,1-.243-.072v.179h.1v.071h.139a.22.22,0,0,1,.035-.143.035.035,0,0,1,.035-.036,1.4,1.4,0,0,0,.209.072,1.131,1.131,0,0,0-.035.358.429.429,0,0,1,.209.036.36.36,0,0,1-.278.179.112.112,0,0,0-.035.072.486.486,0,0,1-.209-.072c.174-.036.209-.25.209-.358h-.661v-.072Z" transform="translate(-321.721 -420.46)" fill="#fff" fill-rule="evenodd"/><path d="M328.751,456.066h-.035c0-.036,0-.036.035-.036v.036Z" transform="translate(-320.855 -441.362)" fill="#fff" fill-rule="evenodd"/><path d="M255.28,444.556l-.035-.036c0-.036.07-.036.07-.107a.106.106,0,0,0-.07-.036v-.036h-.035c0-.072-.035-.143-.035-.215a1.919,1.919,0,0,0-.278.179v-.286c.139,0,.278.036.417.036,0,.107.209.179.313.25v.072a2.841,2.841,0,0,1,.452.25.034.034,0,0,0-.035.036.844.844,0,0,0-.278-.036c.035.143.035.143.139.215h-.035c-.035,0-.07.036-.1.036h.139v.072h-.139c-.1-.215-.244-.107-.244-.215h.07v-.072a.428.428,0,0,0-.209.036v-.143Z" transform="translate(-252.532 -430.245)" fill="#e1d2e1" fill-rule="evenodd"/><path d="M329.185,453.4v-.036c.1-.214.1-.214.139-.214.035.071.1.107.139.179a1.046,1.046,0,0,0-.278.072Z" transform="translate(-321.289 -438.695)" fill="#fff" fill-rule="evenodd"/><path d="M342.268,455.177v-.107h.07v.107Z" transform="translate(-333.398 -440.473)" fill="#e1d2e1" fill-rule="evenodd"/><path d="M252.509,448.824l.035.036V449c0,.036,0,.036.035.072-.209.072-.1-.036-.174.215a.319.319,0,0,1-.313-.036v-.072a.664.664,0,0,1,.243-.036v-.179h-.243c.139-.036.278-.107.417-.143Z" transform="translate(-249.935 -434.692)" fill="#e1d2e1" fill-rule="evenodd"/><path d="M266.681,455.07v.036h-.1c.035,0,.07-.036.1-.036Z" transform="translate(-263.342 -440.473)" fill="#fff" fill-rule="evenodd"/><path d="M267.977,455.106v-.036h.139l-.035.036h-.1Z" transform="translate(-264.638 -440.473)" fill="#d6bbd3" fill-rule="evenodd"/><path d="M296.945,446.655a4.33,4.33,0,0,1,.139-.716,2.624,2.624,0,0,1-.07.716Z" transform="translate(-291.449 -432.022)" fill="#e1d2e1" fill-rule="evenodd"/><path d="M253.027,453.734v-.072c.07,0,.139-.036.209-.036v.072c-.069,0-.139.036-.209.036Z" transform="translate(-250.801 -439.138)" fill="#fff" fill-rule="evenodd"/><path d="M258.167,453.734a.134.134,0,0,1,.035-.107.256.256,0,0,1,.139.036c-.07.036-.139.036-.174.072Z" transform="translate(-255.558 -439.138)" fill="#e1d2e1" fill-rule="evenodd"/><path d="M266.716,452.4c-.1-.072-.1-.072-.139-.215a.843.843,0,0,1,.278.036c0,.036.035.072.035.143-.035,0-.035.036-.07.036Z" transform="translate(-263.342 -437.805)" fill="#4d2561" fill-rule="evenodd"/><path d="M320.343,454.624l-.035-.036h.07c-.035,0-.035,0-.035.036Z" transform="translate(-313.073 -440.027)" fill="#a22c83" fill-rule="evenodd"/><path d="M259.568,445.231v-.25c.035,0,.07.071.348.25v.071c.1.036.209.107.313.143h-.209v.215c-.035-.071-.07-.107-.07-.143a.663.663,0,0,0-.243.036v-.286c-.07,0-.1-.036-.139-.036Z" transform="translate(-256.855 -431.135)" fill="#fff" fill-rule="evenodd"/><path d="M317.972,453.663v-.036h.1v.036Z" transform="translate(-310.911 -439.138)" fill="#fff" fill-rule="evenodd"/><path d="M355.35,452.7v-.036l.035.036Z" transform="translate(-345.506 -438.248)" fill="#fff" fill-rule="evenodd"/><path d="M355.385,452.7l-.035-.036h.1c0,.036,0,.036-.07.036Z" transform="translate(-345.506 -438.248)" fill="#fff" fill-rule="evenodd"/><path d="M255.83,450v-.215h.139v.179c-.07,0-.1,0-.139.036Z" transform="translate(-253.395 -435.581)" fill="#fff" fill-rule="evenodd"/><path d="M258.167,450.782c.035,0,.07-.036.1-.036l.035.036c-.035.036-.07.036-.1.072-.035-.036-.035-.036-.035-.072Z" transform="translate(-255.558 -436.471)" fill="#d6bbd3" fill-rule="evenodd"/><path d="M324.514,451.261v-.036c.069,0,.069,0,.069.072a.106.106,0,0,0-.069-.036Z" transform="translate(-316.966 -436.914)" fill="#fff" fill-rule="evenodd"/><path d="M268.445,451.261v0Z" transform="translate(-265.071 -436.915)" fill="#e1d2e1" fill-rule="evenodd"/><path d="M324.08,451.261a.035.035,0,0,1-.035-.036h.035v.036Z" transform="translate(-316.532 -436.914)" fill="#e1d2e1" fill-rule="evenodd"/><path d="M258.167,449v-.143a.126.126,0,0,1,.1-.036.106.106,0,0,1,.07.036c0,.072-.07.072-.07.107-.035,0-.07.036-.1.036Z" transform="translate(-255.558 -434.692)" fill="#4d2561" fill-rule="evenodd"/><path d="M324.08,450.892h-.035c0-.036,0-.036.035,0Z" transform="translate(-316.532 -436.582)" fill="#fff" fill-rule="evenodd"/><path d="M271.283,448.967a.035.035,0,0,1-.035-.036c0-.036.035-.072.07-.107,0,.071,0,.107.035.143Z" transform="translate(-267.665 -434.692)" fill="#e1d2e1" fill-rule="evenodd"/><path d="M294.142,450.3v-.036h.035v.036Z" transform="translate(-288.855 -436.025)" fill="#fff" fill-rule="evenodd"/><path d="M301.619,447.186a.52.52,0,0,1,.069-.215c.07-.036.1-.036.174-.072.035.072.035.143.069.215a.992.992,0,0,1-.313.072Z" transform="translate(-295.775 -432.911)" fill="#e1d2e1" fill-rule="evenodd"/><path d="M322.644,450.3v-.036h.035l-.035.036Z" transform="translate(-315.235 -436.025)" fill="#e1d2e1" fill-rule="evenodd"/><path d="M302.551,448.487c0-.072.035-.107.035-.143a.262.262,0,0,1,.139.071c-.07,0-.1.036-.174.072Z" transform="translate(-296.638 -434.248)" fill="#fff" fill-rule="evenodd"/><path d="M339.967,449.82l-.035-.036H340c-.035,0-.035,0-.035.036Z" transform="translate(-331.236 -435.581)" fill="#fff" fill-rule="evenodd"/><path d="M260.3,441.336c-.243-.179-.487-.358-.73-.5a1.269,1.269,0,0,1,.383-.179,1.985,1.985,0,0,0,.452.072v.071h-.139v.072a2.568,2.568,0,0,1,.522-.036c-.139.036-.313.107-.452.143v-.072h-.07a.463.463,0,0,0-.035.214h.383a2.358,2.358,0,0,0-.278.107.133.133,0,0,0-.035.107Z" transform="translate(-256.855 -427.132)" fill="#e1d2e1" fill-rule="evenodd"/><path d="M294.611,449.339V449.3h.07v.036Z" transform="translate(-289.289 -435.136)" fill="#fff" fill-rule="evenodd"/><path d="M346.247,446.011a.035.035,0,0,0,.035.036.219.219,0,0,0-.035.143h-.139v-.071H346v-.179a2.1,2.1,0,0,0,.243.072Z" transform="translate(-336.856 -432.022)" fill="#e1d2e1" fill-rule="evenodd"/><path d="M257.7,448.38a.344.344,0,0,1,.1-.036h.035v.036a.126.126,0,0,0-.1.036l-.035-.036Z" transform="translate(-255.125 -434.248)" fill="#d6bbd3" fill-rule="evenodd"/><path d="M289,443.077c.139-.179.243-.322.382-.5a.134.134,0,0,0,.035.107c-.174.179-.209.286-.417.393Z" transform="translate(-284.099 -428.909)" fill="#e1d2e1" fill-rule="evenodd"/><path d="M346.612,447.079c-.035-.036-.035-.071-.07-.107h-.069V446.9a.306.306,0,0,1,.174.036.219.219,0,0,0-.035.143Z" transform="translate(-337.29 -432.911)" fill="#613378" fill-rule="evenodd"/><path d="M261.96,441.483l-.522-.429c.1-.072.278-.25.522-.107,0,.143-.035.286-.035.465h.07c-.035,0-.035.036-.035.072Z" transform="translate(-258.586 -427.351)" fill="#fff" fill-rule="evenodd"/><path d="M295.545,448.38v-.036h.035v.036Z" transform="translate(-290.154 -434.248)" fill="#fff" fill-rule="evenodd"/><path d="M306.757,447.862h.035c-.035,0-.035.036-.035.072v-.072Z" transform="translate(-300.531 -433.802)" fill="#e1d2e1" fill-rule="evenodd"/><path d="M306.757,447.418v-.036l.035.036Z" transform="translate(-300.531 -433.357)" fill="#a22c83" fill-rule="evenodd"/><path d="M306.434,447.382v.036c-.035-.036-.035-.036,0-.036Z" transform="translate(-300.207 -433.357)" fill="#e1d2e1" fill-rule="evenodd"/><path d="M325.084,444.019v.036c0,.036-.035.143-.035.215-.035-.036-.035-.107-.07-.143l.1-.107Z" transform="translate(-317.397 -430.245)" fill="#fff" fill-rule="evenodd"/><path d="M349.31,446.936a.035.035,0,0,1-.035-.036h.07a.035.035,0,0,0-.035.036Z" transform="translate(-339.884 -432.911)" fill="#e1d2e1" fill-rule="evenodd"/><path d="M255.363,444.678V444.5a.429.429,0,0,0,.209.036.726.726,0,0,1-.209.143Z" transform="translate(-252.963 -430.689)" fill="#fff" fill-rule="evenodd"/><path d="M349.275,446.9h0Z" transform="translate(-339.884 -432.911)" fill="#fff" fill-rule="evenodd"/><path d="M349.275,446.458v0Z" transform="translate(-339.884 -432.469)" fill="#e1d2e1" fill-rule="evenodd"/><path d="M329.185,444.5l.035.036c0,.071,0,.071-.035.071V444.5Z" transform="translate(-321.289 -430.689)" fill="#fff" fill-rule="evenodd"/><path d="M325.154,440.281c-.139,0-.139.143-.174.25,0-.25,0-.25.174-.358v.107Z" transform="translate(-317.397 -426.686)" fill="#613378" fill-rule="evenodd"/><path d="M329.22,444.535l-.035-.036h.035v.036Z" transform="translate(-321.289 -430.689)" fill="#fff" fill-rule="evenodd"/><path d="M270.314,444.055v-.036h.035v.036Z" transform="translate(-266.801 -430.245)" fill="#fff" fill-rule="evenodd"/><path d="M326.381,443.609v-.072l.035.036c-.035,0-.035,0-.035.036Z" transform="translate(-318.694 -429.799)" fill="#fff" fill-rule="evenodd"/><path d="M326.416,442.683l-.035-.036c0-.036,0-.036.035-.072v.107Z" transform="translate(-318.694 -428.909)" fill="#fff" fill-rule="evenodd"/><path d="M320.343,443.094h-.035c0-.036,0-.036.035-.036l.035.036Z" transform="translate(-313.073 -429.355)" fill="#e1d2e1" fill-rule="evenodd"/><path d="M274.331,386.426h.035a2.2,2.2,0,0,0-.174-1.181v-.5h-.07c0-.036.035-.107.035-.143-.035-.036-.07-.036-.1-.072h.139v.143a.106.106,0,0,1,.07.036c0-.179.1-.143.209-.215v-.036a.586.586,0,0,1-.278-.036v-.25h.07a.466.466,0,0,0-.035.215c.1.072.1.072.174.036.035-.072.035-.072-.07-.286l-.035-.036a.349.349,0,0,1,.174-.143v.036l-.1.107c0,.071.035.107.07.179l.209-.107h.035v.107h-.139c0,.072-.035.179-.035.25-.07.072-.209.036-.209.215a.369.369,0,0,1,.174.036,1.652,1.652,0,0,0,.035.394c.035,0,.07.036.1.036.174.93-.07,1.646.557,2.575.1,0,.174-.036.278-.036v.071h.07c0-.036-.035-.071-.035-.143h-.209a.28.28,0,0,0-.174-.215v-.107a.261.261,0,0,1,.174-.071v.036h.07v.107a1.047,1.047,0,0,0,.452.107.944.944,0,0,1,.174-.322h.1v-.179a2.36,2.36,0,0,1,.278-.107v.036h.035v.071a.294.294,0,0,0-.174.107c.035.036.07.036.139.072v-.107a1.156,1.156,0,0,0,.487-.358c.035.036.035.071.069.107.139-.107.1-.107.383-.107-.557.358-1.391.537-1.565,1.216a.262.262,0,0,0-.139-.072c-.07.107-.174.25-.244.358a4.8,4.8,0,0,1-.974.071v-.071c.348-.072.7-.143,1.044-.179,0-.036,0-.071.035-.071a3.125,3.125,0,0,0-1.009,0v.071c-.035,0-.07-.036-.1-.036a.866.866,0,0,0,.174-.5h-.07v-.322c.035,0,.035,0,.07.036a5.66,5.66,0,0,0-.174-.823Z" transform="translate(-270.262 -374.655)" fill="#e1d2e1" fill-rule="evenodd"/><path d="M323.579,442.133V442.1a.034.034,0,0,1,.035.036Z" transform="translate(-316.1 -428.466)" fill="#fff" fill-rule="evenodd"/><path d="M326.85,442.133V442.1a.034.034,0,0,1,.035.036Z" transform="translate(-319.128 -428.466)" fill="#fff" fill-rule="evenodd"/><path d="M279.763,440.8c-.035-.036-.07-.071-.1-.071a5.661,5.661,0,0,1,.87-.072,2.18,2.18,0,0,1-.765.143Z" transform="translate(-275.45 -427.132)" fill="#fff" fill-rule="evenodd"/><path d="M323.614,441.688a.034.034,0,0,0-.035-.036.034.034,0,0,1,.035-.036h.035c-.035,0-.035.036-.035.071Z" transform="translate(-316.1 -428.022)" fill="#fff" fill-rule="evenodd"/><path d="M326.885,441.688a.034.034,0,0,0-.035-.036.035.035,0,0,0,.035-.036v.071Z" transform="translate(-319.128 -428.022)" fill="#fff" fill-rule="evenodd"/><path d="M274.053,441.617h0Z" transform="translate(-270.261 -428.022)" fill="#e1d2e1" fill-rule="evenodd"/><path d="M294.681,439.392c-.035-.036-.035-.107-.07-.179h.139v.072c-.035.036-.035.072-.07.107Z" transform="translate(-289.289 -425.797)" fill="#e1d2e1" fill-rule="evenodd"/><path d="M327.316,441.617h0Z" transform="translate(-319.559 -428.022)" fill="#d6bbd3" fill-rule="evenodd"/><path d="M324.08,441.172h-.035c0-.036,0-.036.035-.036v.036Z" transform="translate(-316.532 -427.576)" fill="#fff" fill-rule="evenodd"/><path d="M324.514,438.5v-.036c.069-.179.069-.215.313-.215a2.317,2.317,0,0,0-.069.25v-.143c-.174,0-.174.072-.243.143Z" transform="translate(-316.966 -424.909)" fill="#fff" fill-rule="evenodd"/><path d="M329.289,438.254h.174c.035.036.035.071.07.107a1.274,1.274,0,0,0-.348.036c0-.143,0-.107.1-.143Z" transform="translate(-321.289 -424.909)" fill="#4d2561" fill-rule="evenodd"/><path d="M309.093,437.844v0Z" transform="translate(-302.693 -424.463)" fill="#e1d2e1" fill-rule="evenodd"/><path d="M303.02,437.808v-.036a.034.034,0,0,1,.035.036Z" transform="translate(-297.072 -424.463)" fill="#e1d2e1" fill-rule="evenodd"/><path d="M276.528,397.1h.07a11.236,11.236,0,0,0-.209-1.61.431.431,0,0,1,.209.036c0,.107.035.25.035.358.035,0,.07.036.1.036a6.8,6.8,0,0,0,.348,2.289c.209.215.209.215.209.286a.748.748,0,0,0,.278-.036v.072h.1c0,.036-.035.072-.035.107-.348-.214-.73.036-1.009-.036.035-.179.07-.322.1-.465h-.1a.33.33,0,0,0-.035-.179h.139a7.724,7.724,0,0,1-.209-.858Z" transform="translate(-272.424 -385.329)" fill="#fff" fill-rule="evenodd"/><path d="M303.055,437.365a.036.036,0,0,1,0-.072v.072Z" transform="translate(-297.072 -424.02)" fill="#e1d2e1" fill-rule="evenodd"/><path d="M330.12,437.772h.278c-.035,0-.035,0-.07.036h-.174a.034.034,0,0,0-.035-.036Z" transform="translate(-322.155 -424.463)" fill="#d6bbd3" fill-rule="evenodd"/><path d="M289.108,429.122c0,.036.035.072.035.143.174.072.348.107.522.179a.523.523,0,0,0-.174.215c-.1,0-.1-.107-.139-.179a.5.5,0,0,0-.244-.036v-.179c-.035,0-.069-.036-.1-.036v-.072a.125.125,0,0,1,.1-.036Z" transform="translate(-284.099 -416.457)" fill="#fff" fill-rule="evenodd"/><path d="M307.9,429.659l-.209-.107c0-.072,0-.072.1-.108v.072c.244-.036.313-.394.765-.394-.591.429-.591.429-.661.537Z" transform="translate(-301.396 -416.457)" fill="#e1d2e1" fill-rule="evenodd"/><path d="M261.438,428.29c0-.143.069-.143.139-.214v-.107a2.155,2.155,0,0,0,.8-.143c0-.036-.035-.107-.035-.143h.1a2.312,2.312,0,0,0,.139.322,2.888,2.888,0,0,0-.8.107,3.394,3.394,0,0,0,.626.143c-.87,0-.87,0-.974.036Z" transform="translate(-258.586 -415.124)" fill="#e1d2e1" fill-rule="evenodd"/><path d="M310.5,434.927v-.036h.035v.036Z" transform="translate(-303.991 -421.796)" fill="#fff" fill-rule="evenodd"/><path d="M263.773,430.406a1.582,1.582,0,0,1,.035-.179,6.271,6.271,0,0,1,.8-.143c0,.036.035.036.07.072-.278.036-.522.072-.765.107a.22.22,0,0,0-.035.143Z" transform="translate(-260.747 -417.347)" fill="#fff" fill-rule="evenodd"/><path d="M311.9,433.929h0Z" transform="translate(-305.288 -420.906)" fill="#fff" fill-rule="evenodd"/><path d="M338.563,433.929h0Z" transform="translate(-329.937 -420.906)" fill="#e1d2e1" fill-rule="evenodd"/><path d="M339,433.483v-.036l.035.036Z" transform="translate(-330.371 -420.46)" fill="#e1d2e1" fill-rule="evenodd"/><path d="M339.032,433.04,339,433c0-.036,0-.036.035-.036l.035.036c-.035,0-.035,0-.035.036Z" transform="translate(-330.371 -420.017)" fill="#e1d2e1" fill-rule="evenodd"/><path d="M313.3,432.042v-.036h.035l-.035.036Z" transform="translate(-306.585 -419.126)" fill="#fff" fill-rule="evenodd"/><path d="M291.339,421.563v-.036c.139-.107.174.107.383.107,0-.036.035-.072.07-.107-.1-.036-.209-.036-.313-.072,0-.036-.035-.036-.035-.072a1.251,1.251,0,0,1,.452-.072l.07.072a.731.731,0,0,1,.07-.429h.07c.1,0,.1.072.1.107h.209v.072c-.035,0-.069,0-.069.036a2.349,2.349,0,0,0-.278.107v.179h-.1a.944.944,0,0,0-.174.322,1.047,1.047,0,0,1-.452-.107v-.107Z" transform="translate(-286.261 -408.898)" fill="#613378" fill-rule="evenodd"/><path d="M313.333,432.006h0Z" transform="translate(-306.585 -419.126)" fill="#fff" fill-rule="evenodd"/><path d="M313.8,431.563h-.035c0-.036,0-.036.035-.036v.036Z" transform="translate(-307.019 -418.683)" fill="#fff" fill-rule="evenodd"/><path d="M298.7,425.279v.036a1.593,1.593,0,0,0-.035.179h.174c0,.071-.452.25-.487.214.1-.179.1-.143.243-.214v-.179c.035,0,.069-.036.1-.036Z" transform="translate(-292.749 -412.9)" fill="#fff" fill-rule="evenodd"/><path d="M263.306,429.676V429.6h.035v.072Z" transform="translate(-260.315 -416.903)" fill="#e1d2e1" fill-rule="evenodd"/><path d="M289.61,419.748c-.035-.036-.035-.036-.07-.036v-.143h-.069a.76.76,0,0,1,.313-.25c0-.107.035-.179.035-.286,0,.072.035.108.035.179.1.036.209-.072.383-.072.035,0,.035.036.07.036a.731.731,0,0,0-.07.429l-.07-.072a1.25,1.25,0,0,0-.452.072c0,.036.035.036.035.072.1.036.209.036.313.072-.035.036-.07.071-.07.107-.209,0-.243-.214-.383-.107Z" transform="translate(-284.532 -407.118)" fill="#e1d2e1" fill-rule="evenodd"/><path d="M316.569,429.64V429.6h.07v.036Z" transform="translate(-309.612 -416.903)" fill="#fff" fill-rule="evenodd"/><path d="M296.012,429.158v-.036h.035v.036Z" transform="translate(-290.586 -416.457)" fill="#fff" fill-rule="evenodd"/><path d="M290.4,428.235v-.071c.035,0,.035,0,.07.036v.036Z" transform="translate(-285.395 -415.57)" fill="#d6bbd3" fill-rule="evenodd"/><path d="M290.907,421.456a.4.4,0,0,1-.035-.179,2.889,2.889,0,0,1,.661-.322c-.035.107-.035.179-.07.286a.923.923,0,0,0-.487.107v.107Z" transform="translate(-285.828 -408.898)" fill="#fff" fill-rule="evenodd"/><path d="M305.391,426.721a.035.035,0,0,0,.035.036c-.035,0-.07,0-.07.036,0-.072,0-.072.035-.072Z" transform="translate(-299.234 -414.235)" fill="#fff" fill-rule="evenodd"/><path d="M305.857,426.757a.035.035,0,0,1-.035-.036h.07a.035.035,0,0,0-.035.036Z" transform="translate(-299.665 -414.235)" fill="#fff" fill-rule="evenodd"/><path d="M278.257,425.315c0-.036,0-.036.035-.036v.107c-.035,0-.035,0-.035-.072Z" transform="translate(-274.153 -412.9)" fill="#e1d2e1" fill-rule="evenodd"/><path d="M306.326,424.054h-.035c.174-.107.209-.215.452-.215-.313.215-.313.215-.417.215Z" transform="translate(-300.1 -411.567)" fill="#fff" fill-rule="evenodd"/><path d="M277.824,425.315l-.035-.036h.07c-.035,0-.035,0-.035.036Z" transform="translate(-273.719 -412.9)" fill="#a22c83" fill-rule="evenodd"/><path d="M303.02,425.315v-.036h.035a.034.034,0,0,0-.035.036Z" transform="translate(-297.072 -412.9)" fill="#fff" fill-rule="evenodd"/><path d="M271.249,394.563c0-.036,0-.036.035-.036.209.394.07,1.037.348,1.61H271.6v.072a4.082,4.082,0,0,0,.07.608h-.035c-.1-.465-.244-.894-.348-1.359-.035.071-.035.179-.069.286a1.935,1.935,0,0,1,.035-1.18Z" transform="translate(-267.562 -384.437)" fill="#e1d2e1" fill-rule="evenodd"/><path d="M304.024,424.319v.036h-.07v-.036Z" transform="translate(-297.937 -412.011)" fill="#fff" fill-rule="evenodd"/><path d="M304.89,423.875v-.036a.035.035,0,0,0,.035.036Z" transform="translate(-298.803 -411.567)" fill="#d6bbd3" fill-rule="evenodd"/><path d="M304.925,423.429a.035.035,0,0,1-.035-.036c0-.036.035-.036.069-.036l.035.036a.12.12,0,0,0-.07.036Z" transform="translate(-298.803 -411.121)" fill="#e1d2e1" fill-rule="evenodd"/><path d="M288.045,401.158l-.035-.036v-.072H287.8c0-.036,0-.107-.1-.107v-.036h-.035c.07-.286.07-.215.417-.358.035.071.035.107.07.179a.7.7,0,0,0,.626-.286.179.179,0,0,0-.139.071c-.243-.036-1.53-.143-1.53-.322a2.321,2.321,0,0,1,.87.179v-.143h-.139a.517.517,0,0,0-.07-.214c-.348,0-.556-.215-.765-.25v.072a.764.764,0,0,1,.174.107v.072a1.663,1.663,0,0,1-.591-.215c-.035-.286.069-.393.209-.465.174.072.348.179.522.25,0-.036,0-.036.035-.072,0,.036.035.072.035.143-.278-.107-.522-.25-.661-.215l-.1.322a.612.612,0,0,0,.383.107.277.277,0,0,1-.035-.143c.278,0,.383.215.835.25.035.072.035.143.07.215h.139v.215a1.685,1.685,0,0,0,.73-.036c-.174-.071-.383-.143-.556-.214,0-.107,0-.25.069-.143v.107c.07,0,.87.215.87.358a.035.035,0,0,0-.035.036c-.209.143-.487.215-.591.394-.035,0-.069,0-.069-.036a1.544,1.544,0,0,0-.383.286Z" transform="translate(-281.853 -388.886)" fill="#e1d2e1" fill-rule="evenodd"/><path d="M313.837,422.4h0Z" transform="translate(-307.019 -410.232)" fill="#fff" fill-rule="evenodd"/><path d="M301.619,414.25c.1-.143.139-.215.348-.25a.447.447,0,0,1,.07.107,1.031,1.031,0,0,0,.661-.215.22.22,0,0,1,.035-.143.487.487,0,0,1,.209.071,4.391,4.391,0,0,1-.939.572c-.035-.036-.035-.036-.035-.071a1.489,1.489,0,0,0-.348-.072Z" transform="translate(-295.775 -402.228)" fill="#fff" fill-rule="evenodd"/><path d="M338.062,414.814c.035,0,.035-.036.07-.036,0-.036,0-.036.035-.072h.07a2.442,2.442,0,0,1,.035.572c.07-.036.1-.071.174-.107h-.1c0-.072.035-.143.035-.214.035-.036.07-.036.1-.072-.035,0-.035,0-.035-.143h.174a.179.179,0,0,0-.139.072c.07.036.07.036.07.072-.139.107-.1.072-.174.25.139-.036.278-.036.452-.072a1.626,1.626,0,0,1-.626.215c.035-.286.035-.393-.139-.465Z" transform="translate(-329.505 -403.115)" fill="#e1d2e1" fill-rule="evenodd"/><path d="M314.736,421.953H314.7c0-.036,0-.036.035-.036v.036Z" transform="translate(-307.883 -409.788)" fill="#fff" fill-rule="evenodd"/><path d="M321.242,421.953v-.036l.035.036Z" transform="translate(-313.937 -409.788)" fill="#e1d2e1" fill-rule="evenodd"/><path d="M299.75,420.476h.139v.036h-.07c-.035,0-.035-.036-.07-.036Z" transform="translate(-294.045 -408.454)" fill="#d6bbd3" fill-rule="evenodd"/><path d="M318.076,414.587h0c.035-.036.035-.071.1-.107v-.143l.035-.036a8.269,8.269,0,0,1,.939-.071.112.112,0,0,0,.035.071H318.7v.036h.522v-.107h.139v.036c-.035,0-.07.036-.1.036h.209v.072c-.278.036-.313-.072-.452.179.07,0,.1,0,.139.036a1.276,1.276,0,0,1-.383-.036c.174-.107.174-.107.209-.179a1.11,1.11,0,0,0-.835.322h-.174a.486.486,0,0,0,.209-.072.125.125,0,0,0-.1-.036Z" transform="translate(-310.911 -402.673)" fill="#e1d2e1" fill-rule="evenodd"/><path d="M318.041,419.032h.035a.125.125,0,0,0-.1.036c.035-.036.035-.036.069-.036Z" transform="translate(-310.911 -407.118)" fill="#e1d2e1" fill-rule="evenodd"/><path d="M318.94,418.835h-.035c0-.036,0,0,.035,0Z" transform="translate(-311.774 -406.921)" fill="#e1d2e1" fill-rule="evenodd"/><path d="M321.242,415.439c0-.072.035-.143.035-.215.1,0,.244-.036.348-.036.035.036.07.036.07.072a3.818,3.818,0,0,0-.452.179Z" transform="translate(-313.937 -403.561)" fill="#fff" fill-rule="evenodd"/><path d="M277.358,416.223h-.035v-.072h.035c0,.036,0,.036.035.072Z" transform="translate(-273.288 -404.452)" fill="#d6bbd3" fill-rule="evenodd"/><path d="M273.5,393.542c-.035-.036-.035-.036-.035-.072-.278-.572-.139-1.216-.348-1.61v-.143a.126.126,0,0,0,.035-.072h.035c.035.036.069.036.1.072,0,.036-.035.107-.035.143h.07v.5a2.2,2.2,0,0,1,.174,1.181Z" transform="translate(-269.396 -381.771)" fill="#613378" fill-rule="evenodd"/><path d="M288.1,416.223a.126.126,0,0,0-.035-.072h.174v.072Z" transform="translate(-283.234 -404.452)" fill="#e1d2e1" fill-rule="evenodd"/><path d="M276.025,414.372h-.1v-.143a.5.5,0,0,0,.1.143Z" transform="translate(-271.99 -402.673)" fill="#fff" fill-rule="evenodd"/><path d="M338.062,414.814v-.107h.07v.072c-.035,0-.035.036-.07.036Z" transform="translate(-329.505 -403.115)" fill="#d6bbd3" fill-rule="evenodd"/><path d="M320.343,414.779a.036.036,0,0,1,0-.072l.035.036-.035.036Z" transform="translate(-313.073 -403.115)" fill="#d6bbd3" fill-rule="evenodd"/><path d="M339,414.779v-.072h.035c-.035.036-.035.036-.035.072Z" transform="translate(-330.371 -403.115)" fill="#613378" fill-rule="evenodd"/><path d="M310,408.964l-.035-.036c0-.143-.8-.358-.87-.358v-.107h.07l.035.036c.278.036.278.036.8.322v.072a7.743,7.743,0,0,1,.87-.072c.035,0,.035.036.07.072a8.268,8.268,0,0,0-.939.071Z" transform="translate(-302.693 -397.336)" fill="#613378" fill-rule="evenodd"/><path d="M335.361,414.707h.1v.036h-.209c.035,0,.07-.036.1-.036Z" transform="translate(-326.909 -403.115)" fill="#613378" fill-rule="evenodd"/><path d="M271.959,397.294a3.211,3.211,0,0,1-.069-.572,1.478,1.478,0,0,0-.174.036,1.639,1.639,0,0,1,.1-.787,3.654,3.654,0,0,1,.139,1.323Z" transform="translate(-268.098 -385.774)" fill="#fff" fill-rule="evenodd"/><path d="M294.994,411.969c-.139-.036-.243-.107-.383-.143a1.382,1.382,0,0,1,.383.036c.035,0,.035.036.07.071-.035,0-.035,0-.07.036Z" transform="translate(-289.289 -400.448)" fill="#fff" fill-rule="evenodd"/><path d="M298.453,403.695a.034.034,0,0,0-.035.036.35.35,0,0,0,.243.143.494.494,0,0,0-.1-.143c.035,0,.07.036.139.072v.143c-.348-.107-.278-.143-.348-.286a.126.126,0,0,1,.1.036Z" transform="translate(-292.749 -392.889)" fill="#e1d2e1" fill-rule="evenodd"/><path d="M299.316,404.139a.126.126,0,0,1,.1.036.493.493,0,0,1,.1.143.35.35,0,0,1-.243-.143.034.034,0,0,1,.035-.036Z" transform="translate(-293.611 -393.334)" fill="#613378" fill-rule="evenodd"/><path d="M261,401.772l-.035-.036H261v.036Z" transform="translate(-258.152 -391.11)" fill="#a22c83" fill-rule="evenodd"/><path d="M259.51,395.956h-.035c-.244-.214-.07-.322.1-.465h.557c.035.107.035.107-.07.465a.262.262,0,0,1-.139-.072c-.035.036-.035.036-.035.072-.139-.036-.278-.107-.383-.143v.143Z" transform="translate(-256.658 -385.329)" fill="#e1d2e1" fill-rule="evenodd"/><path d="M260.472,396.2c-.035-.465.313-.358.7-.358l-.1.322c-.035.036-.313-.036-.348-.072h-.174v.107Z" transform="translate(-257.689 -385.64)" fill="#fff" fill-rule="evenodd"/><path d="M272.651,391.9v-.25h.07a.126.126,0,0,1-.035.072v.143c-.035,0-.035,0-.035.036Z" transform="translate(-268.964 -381.771)" fill="#d6bbd3" fill-rule="evenodd"/><path d="M272.755,387.2c0-.072.035-.179.035-.25h-.139v-.072a.662.662,0,0,1,.243-.036v.251a.586.586,0,0,0,.278.036v.036c-.1.072-.209.036-.209.215a.107.107,0,0,0-.07-.036V387.2Z" transform="translate(-268.964 -377.324)" fill="#fff" fill-rule="evenodd"/><path d="M272.289,386.31a.463.463,0,0,1,.035-.214.354.354,0,0,0-.139.179,1.512,1.512,0,0,1,.035-.393c.07,0,.174.036.243.036v.036a.663.663,0,0,0-.243.036v.072h.139c0,.072-.035.179-.035.25Z" transform="translate(-268.533 -376.435)" fill="#e1d2e1" fill-rule="evenodd"/><path d="M276.424,386.4l.035-.036h.035c.1.215.1.215.07.286-.07.036-.07.036-.174-.036a.466.466,0,0,1,.035-.215Z" transform="translate(-272.424 -376.878)" fill="#4d2561" fill-rule="evenodd"/><path d="M278.361,384.438h.035v.179h.139l-.209.107c-.035-.072-.07-.107-.07-.179l.1-.107Z" transform="translate(-274.153 -375.099)" fill="#fff" fill-rule="evenodd"/><path d="M275.921,386.4v-.036h.035a.035.035,0,0,0,.035.036Z" transform="translate(-271.99 -376.878)" fill="#d6bbd3" fill-rule="evenodd"/><path d="M276.856,386.4v-.036h.035l-.035.036Z" transform="translate(-272.856 -376.878)" fill="#e1d2e1" fill-rule="evenodd"/><path d="M280.126,383.994v-.036h.07v.179h.07v.036h-.139v-.179Z" transform="translate(-275.882 -374.655)" fill="#e1d2e1" fill-rule="evenodd"/><path d="M281.994,385.953v-.071l.035.036v.036Z" transform="translate(-277.611 -376.435)" fill="#d6bbd3" fill-rule="evenodd"/><path d="M276.424,386.4a.035.035,0,0,1-.035-.036h.035v.036Z" transform="translate(-272.424 -376.878)" fill="#d6bbd3" fill-rule="evenodd"/><path d="M275.921,385.917c.035,0,.035-.036.07-.036v.036h-.07Z" transform="translate(-271.99 -376.435)" fill="#e1d2e1" fill-rule="evenodd"/><path d="M276.856,385.917v-.036h.035l.035.036h-.069Z" transform="translate(-272.856 -376.435)" fill="#d6bbd3" fill-rule="evenodd"/><path d="M280.126,381.735v-.072h.07c0-.036.035-.071.07-.107a.464.464,0,0,0,.035.215v.072a.035.035,0,0,0-.035.036v.036h-.07v-.179Z" transform="translate(-275.882 -372.432)" fill="#4d2561" fill-rule="evenodd"/><path d="M282.462,385.917c0-.036,0-.036.035-.036l-.035.036Z" transform="translate(-278.044 -376.435)" fill="#e1d2e1" fill-rule="evenodd"/><path d="M282.029,385.917l-.035-.036h.07c-.035,0-.035,0-.035.036Z" transform="translate(-277.611 -376.435)" fill="#d6bbd3" fill-rule="evenodd"/><path d="M281.994,385.437a.035.035,0,0,1,.035-.036v.036Z" transform="translate(-277.611 -375.991)" fill="#e1d2e1" fill-rule="evenodd"/><path d="M282.5,384.545h-.035v-.107l.035.036v.072Z" transform="translate(-278.044 -375.099)" fill="#d6bbd3" fill-rule="evenodd"/><path d="M282.064,378.25l-.035-.036a.464.464,0,0,1-.035-.215h.035c0,.036.035.072.07.107-.035-.143-.035-.143-.07-.143h-.035a1.775,1.775,0,0,0,.1-.25,1.678,1.678,0,0,1-.035.536Z" transform="translate(-277.611 -368.875)" fill="#e1d2e1" fill-rule="evenodd"/><path d="M279.659,383.1V383h.035v.107Z" transform="translate(-275.45 -373.765)" fill="#d6bbd3" fill-rule="evenodd"/><path d="M268.36,357.649a5.683,5.683,0,0,1-.383-2.039c.313.072.417,1.61.452,2.039Z" transform="translate(-264.638 -348.418)" fill="#e1d2e1" fill-rule="evenodd"/><path d="M280.126,383h0Z" transform="translate(-275.882 -373.765)" fill="#e1d2e1" fill-rule="evenodd"/><path d="M280.126,382.553v-.036a.034.034,0,0,1,.035.036Z" transform="translate(-275.882 -373.321)" fill="#d6bbd3" fill-rule="evenodd"/><path d="M279.659,382.109c0-.036.035-.036.035-.071v.071Z" transform="translate(-275.45 -372.878)" fill="#e1d2e1" fill-rule="evenodd"/><path d="M280.161,381.219a.034.034,0,0,0-.035-.036v-.036a.261.261,0,0,1,.139-.072h.035v.036h-.035c-.035.036-.07.072-.07.107Z" transform="translate(-275.882 -371.988)" fill="#d6bbd3" fill-rule="evenodd"/><path d="M282.462,381.112v-.036c.035,0,.035,0,.07.143-.035-.036-.07-.071-.07-.107Z" transform="translate(-278.044 -371.988)" fill="#fff" fill-rule="evenodd"/><path d="M268.793,358.911a15.149,15.149,0,0,1-.348-1.824c0-.036.035-.036.07-.036a8.279,8.279,0,0,1,.278,1.86Z" transform="translate(-265.071 -349.751)" fill="#fff" fill-rule="evenodd"/><path d="M267.773,342.633h-.07v.143h.07a3.365,3.365,0,0,0,.035.572h-.1a18.779,18.779,0,0,0-.487-2.432c-.174,0-.07-.214-.174-.286a.928.928,0,0,1,.035-.393l.522.107c0,.036.035.072.035.143.139,0,.243.358.626.537a.134.134,0,0,1,.035-.107l.417-.107a.5.5,0,0,1-.348.5c0-.036-.035-.072-.035-.107-.069.036-.069.036-.139.143,0-.036-.035-.107-.035-.143a.125.125,0,0,0-.1-.036c-.035,0-.035,0-.07.036a2.529,2.529,0,0,1,.139,1.574c-.07,0-.1,0-.139.036a.277.277,0,0,1-.035.143c-.1-.358-.174-.716-.278-1.037a2.9,2.9,0,0,0,.1.716Z" transform="translate(-263.773 -334.188)" fill="#e1d2e1" fill-rule="evenodd"/><path d="M275.056,374.35a1.193,1.193,0,0,1,.035.536l-.1-.536Z" transform="translate(-271.125 -365.762)" fill="#fff" fill-rule="evenodd"/><path d="M275.921,372.571v-.143h.07v.143Z" transform="translate(-271.99 -363.984)" fill="#d6bbd3" fill-rule="evenodd"/><path d="M268.569,343.057v-.036a.133.133,0,0,0,.035.107h.07v.215h.139a3.566,3.566,0,0,0-.209-1.18h-.1a7.167,7.167,0,0,0,.069.858c-.1-.215-.139-.25-.243-.286.035.25.07.537.1.787h-.1a5.964,5.964,0,0,0-.348-1.753c-.209,0-.139-.536-.139-.572.139.036.313.036.452.071,0,.036.035.072.035.107.174,0,.243.465.7.572a.134.134,0,0,1,.035-.107c.1-.036.243-.036.348-.072-.139.465-.417.25-.7.25,0,.286.174.68.174,1.18a.467.467,0,0,0-.035.215h-.139v.107h.139c-.035.071-.035.071-.174.143-.035-.215-.07-.429-.1-.608Z" transform="translate(-264.5 -335.078)" fill="#fff" fill-rule="evenodd"/><path d="M280.126,371.5v-.036h.07v.036Z" transform="translate(-275.882 -363.093)" fill="#a22c83" fill-rule="evenodd"/><path d="M276.925,355.028a7.165,7.165,0,0,1-.069-.858h.1a3.566,3.566,0,0,1,.209,1.18h-.139v-.215h-.07a.133.133,0,0,1-.035-.107Z" transform="translate(-272.856 -347.085)" fill="#e1d2e1" fill-rule="evenodd"/><path d="M277.5,355.758v-.214h-.069a3.774,3.774,0,0,1-.1-.894s.348,1.109.174,1.109Z" transform="translate(-273.288 -347.528)" fill="#613378" fill-rule="evenodd"/><path d="M277.789,365.737v0Z" transform="translate(-273.719 -357.757)" fill="#e1d2e1" fill-rule="evenodd"/><path d="M301.151,357.891c0-.107.035-.25.035-.358a.823.823,0,0,1-.035.358Z" transform="translate(-295.342 -350.197)" fill="#e1d2e1" fill-rule="evenodd"/><path d="M296.945,358.492h0Z" transform="translate(-291.449 -351.085)" fill="#e1d2e1" fill-rule="evenodd"/><path d="M271.94,347.233a1.227,1.227,0,0,1-.1-.751h.139a5.661,5.661,0,0,0,.139.751Z" transform="translate(-268.183 -339.969)" fill="#e1d2e1" fill-rule="evenodd"/><path d="M272.378,347.641c0-.25-.278-.68-.035-.68a1.8,1.8,0,0,1,.1.68Z" transform="translate(-268.587 -340.412)" fill="#4d2561" fill-rule="evenodd"/><path d="M294.611,350.361v-.036h.07v.036Z" transform="translate(-289.289 -343.526)" fill="#e1d2e1" fill-rule="evenodd"/><path d="M292.309,349.4h-.035c0-.036,0-.036.035-.036l.035.036Z" transform="translate(-287.126 -342.636)" fill="#e1d2e1" fill-rule="evenodd"/><path d="M296.012,348.883h.035c0,.072,0,.072-.035.072v-.072Z" transform="translate(-290.586 -342.191)" fill="#e1d2e1" fill-rule="evenodd"/><path d="M296.047,348.437h-.035c0-.036,0-.036.035-.036v.036Z" transform="translate(-290.586 -341.745)" fill="#e1d2e1" fill-rule="evenodd"/><path d="M293.209,347.994v-.071h.035v.071Z" transform="translate(-287.991 -341.303)" fill="#e1d2e1" fill-rule="evenodd"/><path d="M293.675,347v-.036h.035V347Z" transform="translate(-288.423 -340.412)" fill="#e1d2e1" fill-rule="evenodd"/><path d="M281.528,343.814V343.6h.035v.215Z" transform="translate(-277.18 -337.301)" fill="#e1d2e1" fill-rule="evenodd"/><path d="M294.611,345.592v-.072a.034.034,0,0,1,.035.036.034.034,0,0,0-.035.036Z" transform="translate(-289.289 -339.079)" fill="#e1d2e1" fill-rule="evenodd"/><path d="M294.646,343.778a.034.034,0,0,0-.035-.036c0-.036.035-.072.035-.143a.035.035,0,0,0,.035.036c-.035.036-.035.072-.035.143Z" transform="translate(-289.289 -337.301)" fill="#e1d2e1" fill-rule="evenodd"/><path d="M278.276,335.256c-.174-.215-.209-.25-.348-.25-.035-.358-.035-.358-.139-.537a.2.2,0,0,1,.139.036c.035.072.035.179.07.25.1.107.174.107.417.072a.391.391,0,0,1,.07-.215c.139,0,.1.393.1.5l-.035.036a.464.464,0,0,1-.035-.215c-.069,0-.1,0-.139.036a2.486,2.486,0,0,0-.1.286Z" transform="translate(-273.719 -328.85)" fill="#e1d2e1" fill-rule="evenodd"/><path d="M295.112,343.635a.035.035,0,0,1-.035-.036h.035v.036Z" transform="translate(-289.72 -337.301)" fill="#e1d2e1" fill-rule="evenodd"/><path d="M280.439,340.042c-.209-.215-.209-.143-.313-.179,0-.036,0-.107.035-.107.035.036.035.036.348.036a2.345,2.345,0,0,1-.07.25Z" transform="translate(-275.882 -333.744)" fill="#fff" fill-rule="evenodd"/><path d="M293.383,336.929v-.179h-.174a1.793,1.793,0,0,0,.1-.25h.1v-.107h.1c-.035.179-.1.358-.139.537Z" transform="translate(-287.991 -330.63)" fill="#e1d2e1" fill-rule="evenodd"/><path d="M286.772,338.155v-.143a.168.168,0,0,0-.1-.036.188.188,0,0,1,.069-.143c0,.036.1.322.035.322Z" transform="translate(-281.937 -331.964)" fill="#fff" fill-rule="evenodd"/><path d="M294.142,338.493c.035-.071.07-.107.1-.179.035.072.035.107.07.179Z" transform="translate(-288.855 -332.409)" fill="#fff" fill-rule="evenodd"/><path d="M267.53,327.268l-.209-.107c-.035-.143-.035-.286-.07-.429a.459.459,0,0,1-.209-.429l.209.322h.07c0,.107.8.322.209.644Z" transform="translate(-263.773 -321.291)" fill="#e1d2e1" fill-rule="evenodd"/><path d="M270.852,332.5a1.839,1.839,0,0,1-.07-.429c.035,0,.452.072.383.393a1.164,1.164,0,0,1-.313.036Z" transform="translate(-267.234 -326.627)" fill="#fff" fill-rule="evenodd"/><path d="M289.471,334.061v-.072h.069v.072Z" transform="translate(-284.532 -328.406)" fill="#e1d2e1" fill-rule="evenodd"/><path d="M269.38,331.142v-.036h.07v.036Z" transform="translate(-265.936 -325.738)" fill="#fff" fill-rule="evenodd"/><path d="M265.174,329.7v-.036l.035.036Z" transform="translate(-262.043 -324.405)" fill="#a22c83" fill-rule="evenodd"/><path d="M274.192,326a.182.182,0,0,1-.139-.179,2.038,2.038,0,0,1,.278.143.2.2,0,0,1-.139.036Z" transform="translate(-270.262 -320.846)" fill="#e1d2e1" fill-rule="evenodd"/><path d="M274.986,322.494v-.036h.035a.034.034,0,0,0-.035.036Z" transform="translate(-271.125 -317.734)" fill="#a22c83" fill-rule="evenodd"/><path d="M274.518,322.014c0-.036,0-.036.035-.036v.036Z" transform="translate(-270.692 -317.289)" fill="#e1d2e1" fill-rule="evenodd"/><path d="M274.518,322.014v-.036h.035c-.035,0-.035,0-.035.036Z" transform="translate(-270.692 -317.289)" fill="#a22c83" fill-rule="evenodd"/><path d="M274.053,321.533c0-.036,0-.036.035-.036v.036Z" transform="translate(-270.262 -316.844)" fill="#e1d2e1" fill-rule="evenodd"/><path d="M274.053,321.088v-.072l.035.036c-.035,0-.035,0-.035.036Z" transform="translate(-270.262 -316.399)" fill="#a22c83" fill-rule="evenodd"/><path d="M298.85,318.614a.035.035,0,0,0,.035.036c-.035.036-.035.072-.07.107,0-.036.035-.107.035-.143Z" transform="translate(-293.18 -314.176)" fill="#e1d2e1" fill-rule="evenodd"/><path d="M277.859,302.64a.792.792,0,0,1-.07-.429c.139.215.348.215.661.179.139-.036.417-.465.452-.608-.348-.071-.7-.143-1.043-.179a.274.274,0,0,1-.07-.143,5.918,5.918,0,0,1,.765.179.134.134,0,0,1,.035-.107c-.139-.036-.244-.071-.348-.107a.134.134,0,0,1,.035-.107c.313,0,.452.322,1.009.465v-.143c.1,0,.1.215.417.143a2.084,2.084,0,0,1,.139-.25c.139.036.139.036.174.072-.1.215-.348.322-.452.465a.112.112,0,0,1-.035-.072c-.243,0-.243.286-.417.358v-.107c-.139,0-.278-.036-.383-.036a.52.52,0,0,0-.069.215c.139.143.139.143.243.143v.072h-.243v-.072h-.1v.072h-.1v-.072c-.243,0-.417.072-.591.072Z" transform="translate(-273.719 -298.165)" fill="#e1d2e1" fill-rule="evenodd"/><path d="M299.316,318.65c-.035-.036-.035,0-.035,0,0-.036,0-.036.035-.036v.036Z" transform="translate(-293.611 -314.176)" fill="#e1d2e1" fill-rule="evenodd"/><path d="M278.726,316.248c0-.036,0-.036.035-.036a.641.641,0,0,0,.278.072c-.1.036-.209.036-.278.071a.134.134,0,0,1-.035-.107Z" transform="translate(-274.587 -311.952)" fill="#fff" fill-rule="evenodd"/><path d="M285.4,315.946v-.072a.257.257,0,0,0-.139-.036l.209-.107c.035.036.035.072.07.107-.035,0-.07.036-.1.036a.112.112,0,0,0-.035.072Z" transform="translate(-280.639 -311.507)" fill="#fff" fill-rule="evenodd"/><path d="M290.4,318.169v0Z" transform="translate(-285.395 -313.731)" fill="#fff" fill-rule="evenodd"/><path d="M274.122,315.874a.273.273,0,0,1-.069-.143h.139v.143Z" transform="translate(-270.262 -311.507)" fill="#e1d2e1" fill-rule="evenodd"/><path d="M274.986,316.248v-.036h.07v.036Z" transform="translate(-271.125 -311.952)" fill="#fff" fill-rule="evenodd"/><path d="M278.726,315.8v-.072l.035.036c-.035,0-.035,0-.035.036Z" transform="translate(-274.587 -311.507)" fill="#e1d2e1" fill-rule="evenodd"/><path d="M272.22,315.323c-.035-.036-.035-.036-.035-.072h.069c-.035,0-.035.036-.035.072Z" transform="translate(-268.533 -311.063)" fill="#e1d2e1" fill-rule="evenodd"/><path d="M278.4,315.731v.036c-.035-.036-.035-.036,0-.036Z" transform="translate(-274.261 -311.507)" fill="#fff" fill-rule="evenodd"/><path d="M290.821,307.584c-.139-.036-.278-.036-.417-.072a.825.825,0,0,0,.209-.429,3.988,3.988,0,0,1,.7.143c-.069.036-.174.036-.243.072-.1.107-.174.215-.243.286Z" transform="translate(-285.395 -303.503)" fill="#fff" fill-rule="evenodd"/><path d="M299.75,311.994c0-.036.035-.072.07-.107,0,.072,0,.072-.07.107Z" transform="translate(-294.045 -307.95)" fill="#e1d2e1" fill-rule="evenodd"/><path d="M330.12,312.885v-.036h.035v.036Z" transform="translate(-322.155 -308.84)" fill="#e1d2e1" fill-rule="evenodd"/><path d="M304.456,308.079l-.035-.036h.035v.036Z" transform="translate(-298.369 -304.392)" fill="#fff" fill-rule="evenodd"/><path d="M304.89,305.376a.391.391,0,0,1,.069-.215h.07c-.035.071-.1.143-.139.215Z" transform="translate(-298.803 -301.724)" fill="#fff" fill-rule="evenodd"/><path d="M288.675,303.97c-.035,0-.1-.036-.139-.036,0-.072.035-.143.035-.215a1.525,1.525,0,0,1,.243.215c-.035,0-.07.036-.139.036Z" transform="translate(-283.666 -300.39)" fill="#fff" fill-rule="evenodd"/><path d="M314.616,302.119c-.139-.071-.243-.107-.383-.179V301.8h.243a.4.4,0,0,1,.035.179c.139,0,.243.036.348.036a.133.133,0,0,0-.035.107Z" transform="translate(-307.45 -298.611)" fill="#e1d2e1" fill-rule="evenodd"/><path d="M321.242,305.2v-.036h.035v.036Z" transform="translate(-313.937 -301.724)" fill="#fff" fill-rule="evenodd"/><path d="M325.446,305.2v-.036h.035v.036Z" transform="translate(-317.829 -301.724)" fill="#e1d2e1" fill-rule="evenodd"/><path d="M278.726,303.756v-.036h.035v.036Z" transform="translate(-274.587 -300.39)" fill="#fff" fill-rule="evenodd"/><path d="M315.237,302.421a.121.121,0,0,1-.07-.036v-.107h.139a.134.134,0,0,0,.035.107c-.035,0-.07.036-.1.036Z" transform="translate(-308.315 -299.056)" fill="#fff" fill-rule="evenodd"/><path d="M285.369,302.35c-.035-.036-.07-.036-.1-.072h.139c.035,0,.035.036.07.072Z" transform="translate(-280.639 -299.056)" fill="#fff" fill-rule="evenodd"/><path d="M319.373,301.9V301.8h.139c0,.036.035.072.035.107Z" transform="translate(-312.208 -298.611)" fill="#e1d2e1" fill-rule="evenodd"/><path d="M319.839,302.314v-.036h.07v.036Z" transform="translate(-312.639 -299.056)" fill="#fff" fill-rule="evenodd"/><path d="M327.765,296.512a2.381,2.381,0,0,0,.278.107c-.035.072-.035.072-.139.107-.1.179-.1.179-.209.215-.035-.25.069-.286.069-.429Z" transform="translate(-319.904 -293.719)" fill="#e1d2e1" fill-rule="evenodd"/><path d="M319.978,293.7v-.072h.139v.143c.1,0,.244.036.382.036-.035,0-.035,0-.035.036h-.07c0,.107-.035.215-.035.322a.429.429,0,0,0-.1.072,1.376,1.376,0,0,1,.035-.393h-.139c0,.071,0,.286-.139.358v-.286h-.069v.25h-.1a1.321,1.321,0,0,1,.07-.393.257.257,0,0,1,.139.036.446.446,0,0,0-.07-.107Z" transform="translate(-312.639 -291.051)" fill="#e1d2e1" fill-rule="evenodd"/><path d="M281.994,300.872v-.036h.035v.036Z" transform="translate(-277.611 -297.721)" fill="#e1d2e1" fill-rule="evenodd"/><path d="M328.751,299.912a.035.035,0,0,1-.035-.036h.035v.036Z" transform="translate(-320.855 -296.833)" fill="#fff" fill-rule="evenodd"/><path d="M307.643,298.06a1.7,1.7,0,0,1-.417-.072v-.072a.969.969,0,0,1,.661.143Z" transform="translate(-300.965 -295.016)" fill="#e1d2e1" fill-rule="evenodd"/><path d="M320.308,299.876h0Z" transform="translate(-313.073 -296.833)" fill="#fff" fill-rule="evenodd"/><path d="M321.381,296.512h.035a.714.714,0,0,0-.035.25c0-.072-.035-.143-.035-.215a.126.126,0,0,0-.1-.036Z" transform="translate(-313.937 -293.719)" fill="#fff" fill-rule="evenodd"/><path d="M325.914,298.987v-.072h.035v.072Z" transform="translate(-318.262 -295.943)" fill="#fff" fill-rule="evenodd"/><path d="M313.3,298.987v-.072h.07v.072Z" transform="translate(-306.585 -295.943)" fill="#fff" fill-rule="evenodd"/><path d="M310.962,298.47v-.036h.1v.036Z" transform="translate(-304.423 -295.498)" fill="#fff" fill-rule="evenodd"/><path d="M329.652,297.579v-.107a.257.257,0,0,0,.139.036c-.035.036-.1.036-.139.072Z" transform="translate(-321.721 -294.608)" fill="#fff" fill-rule="evenodd"/><path d="M326.381,296.548v-.036h.035v.036Z" transform="translate(-318.694 -293.719)" fill="#fff" fill-rule="evenodd"/><path d="M323.145,296.068h-.035c0-.036,0-.036.035-.036v.036Z" transform="translate(-315.666 -293.275)" fill="#fff" fill-rule="evenodd"/><path d="M328.285,296.068h-.035c0-.036,0-.036.035-.036v.036Z" transform="translate(-320.424 -293.275)" fill="#a22c83" fill-rule="evenodd"/><path d="M279.694,294.733c0-.036-.035-.107-.035-.143.035,0,.07.036.139.036a.134.134,0,0,0,.035.107Z" transform="translate(-275.45 -291.94)" fill="#e1d2e1" fill-rule="evenodd"/><path d="M273.62,291.369c0-.036-.035-.107-.035-.143a.125.125,0,0,1,.1.036v.107Z" transform="translate(-269.828 -288.827)" fill="#e1d2e1" fill-rule="evenodd"/><path d="M281.563,292.7l-.035-.036h.035v.036Z" transform="translate(-277.18 -290.161)" fill="#a22c83" fill-rule="evenodd"/><path d="M281.563,292.334h-.035c0-.036,0-.036.035,0Z" transform="translate(-277.18 -289.827)" fill="#e1d2e1" fill-rule="evenodd"/><path d="M257.34,286.852a.9.9,0,0,1-.452-.215,1.8,1.8,0,0,1-.591-.143v-.071c.348.036.8-.036,1.113.393-.035,0-.035.036-.07.036Z" transform="translate(-253.827 -284.381)" fill="#e1d2e1" fill-rule="evenodd"/><path d="M260.194,287.651a1.923,1.923,0,0,0-.626-.286.867.867,0,0,1,.765.25c-.07,0-.1,0-.139.036Z" transform="translate(-256.855 -285.252)" fill="#fff" fill-rule="evenodd"/><path d="M294.142,285.017v-.036h.035a.035.035,0,0,0-.035.036Z" transform="translate(-288.855 -283.047)" fill="#a22c83" fill-rule="evenodd"/><path d="M237.609,283.2a.274.274,0,0,1,.07-.143c0,.071,0,.071-.07.143Z" transform="translate(-236.531 -281.268)" fill="#e1d2e1" fill-rule="evenodd"/><path d="M288.606,278.734v.036a2.06,2.06,0,0,0,.139.429c-.1,0-.139-.107-.209-.179.035-.107.035-.179.07-.286Z" transform="translate(-283.666 -277.265)" fill="#e1d2e1" fill-rule="evenodd"/><path d="M289.506,277.4h-.035a2.385,2.385,0,0,0,.278-.107c0,.036.035.071.035.107h-.1c.035.143.1.322.139.465a5.238,5.238,0,0,1-.313-.465Z" transform="translate(-284.532 -275.932)" fill="#e1d2e1" fill-rule="evenodd"/><path d="M296.653,277.866c-.07-.179-.1-.358-.174-.572a1.687,1.687,0,0,0,.243.107.767.767,0,0,1-.07.465Z" transform="translate(-291.018 -275.932)" fill="#e1d2e1" fill-rule="evenodd"/><path d="M297.95,278.683a1.847,1.847,0,0,1-.07-.429c.1.072.209.322.07.429Z" transform="translate(-292.315 -276.82)" fill="#fff" fill-rule="evenodd"/><path d="M289.974,283.576l-.035-.036h.035v.036Z" transform="translate(-284.965 -281.713)" fill="#e1d2e1" fill-rule="evenodd"/><path d="M289.54,282.65h-.035c0-.036-.035-.036-.035-.072.069,0,.069,0,.069.072Z" transform="translate(-284.532 -280.822)" fill="#fff" fill-rule="evenodd"/><path d="M289,281.652v-.036h.035v.036Z" transform="translate(-284.099 -279.932)" fill="#fff" fill-rule="evenodd"/><path d="M242.315,281.172h-.035c0-.036,0-.036.035-.036v.036Z" transform="translate(-240.854 -279.488)" fill="#e1d2e1" fill-rule="evenodd"/><path d="M242.748,277.171v-.036c.243-.322.626-.322,1.113-.322a10.654,10.654,0,0,0-1.113.358Z" transform="translate(-241.287 -275.487)" fill="#e1d2e1" fill-rule="evenodd"/><path d="M246.018,278.77v-.036h.035v.036Z" transform="translate(-244.314 -277.265)" fill="#fff" fill-rule="evenodd"/><path d="M289.471,278.77v-.036h.035l-.035.036Z" transform="translate(-284.532 -277.265)" fill="#e1d2e1" fill-rule="evenodd"/><path d="M246.953,278.29v-.036h.139v.036Z" transform="translate(-245.179 -276.82)" fill="#fff" fill-rule="evenodd"/><path d="M291.339,278.29v-.036h.035v.036Z" transform="translate(-286.261 -276.82)" fill="#fff" fill-rule="evenodd"/><path d="M249.756,277.809v-.036h.07v.036Z" transform="translate(-247.773 -276.375)" fill="#fff" fill-rule="evenodd"/><path d="M253.027,277.33v-.036h.07v.036Z" transform="translate(-250.801 -275.932)" fill="#fff" fill-rule="evenodd"/><path d="M267.511,275.478v-.107h.07v.107Z" transform="translate(-264.206 -274.152)" fill="#e1d2e1" fill-rule="evenodd"/></g><g transform="translate(4.957 36.527)"><path d="M86.11,577.489l-2.155,1.252a.264.264,0,0,0-.069.4l.114.134a.213.213,0,0,0,.279.04l.323-.212.352.392-.311.381a.125.125,0,0,0,0,.159l.232.274a.191.191,0,0,0,.3-.017l1.459-2.169a.208.208,0,0,0-.02-.258l-.323-.349A.152.152,0,0,0,86.11,577.489ZM85.23,579l-.11-.119a.086.086,0,0,1,.016-.13l.577-.379a.062.062,0,0,1,.082.091L85.36,579A.086.086,0,0,1,85.23,579Z" transform="translate(-83.823 -577.469)" fill="#fff"/><path d="M239.08,663.7l-.965,2.338a.267.267,0,0,0,.191.364l.174.038a.217.217,0,0,0,.25-.14l.056-.16a.259.259,0,0,1,.292-.169h0a.364.364,0,0,1,.3.369l-.006.186a.126.126,0,0,0,.1.127l.356.077a.194.194,0,0,0,.235-.2l-.16-2.645a.211.211,0,0,0-.175-.2l-.475-.082A.154.154,0,0,0,239.08,663.7Zm.223,1.76-.162-.028a.087.087,0,0,1-.068-.115l.232-.661a.063.063,0,0,1,.122.023l-.022.7A.087.087,0,0,1,239.3,665.462Z" transform="translate(-226.609 -657.195)" fill="#fff"/><path d="M109.386,597.182l-.049.061a.2.2,0,0,0,.031.274l.364.291a.154.154,0,0,1,.024.216l-.194.243a.143.143,0,0,1-.2.022l-.525-.419-.636.8a.172.172,0,0,1-.242.027l-.277-.221a.172.172,0,0,1-.027-.242l1.743-2.181.889.711a.452.452,0,0,1,.071.635h0a.244.244,0,0,1-.343.038l-.352-.281A.2.2,0,0,0,109.386,597.182Z" transform="translate(-105.844 -594.665)" fill="#fff"/><path d="M273.992,668.467l0,.08a.2.2,0,0,0,.188.213l.476.03a.158.158,0,0,1,.148.168l-.019.319a.147.147,0,0,1-.155.138l-.687-.043h0l-.063,1.043a.177.177,0,0,1-.188.166l-.362-.023a.178.178,0,0,1-.166-.188l.156-2.587a.273.273,0,0,1,.29-.256l1.082.068a.274.274,0,0,1,.256.289l-.011.19a.25.25,0,0,1-.265.234l-.461-.029A.2.2,0,0,0,273.992,668.467Z" transform="translate(-259.062 -660.82)" fill="#fff"/><path d="M134.492,622.716a.289.289,0,0,1,.077.4l-1.176,1.707a.659.659,0,0,1-.913.191l-.189-.123a.809.809,0,0,1-.234-1.119l0,0a.363.363,0,0,1,.5-.105l.075.049a.285.285,0,0,1,.082.395l-.087.133a.118.118,0,0,0,.034.163h0a.117.117,0,0,0,.163-.034l1.124-1.719a.245.245,0,0,1,.339-.071Z" transform="translate(-128.345 -619.187)" fill="#fff"/><path d="M160.087,633.993l-.136.235a.058.058,0,0,0,.009.07l.368.364a.362.362,0,0,1,.087.379h0a.312.312,0,0,1-.479.11l-.229-.148a.168.168,0,0,0-.236.057l-.131.227a.168.168,0,0,0,.061.229l.433.25a.167.167,0,0,1,.061.229l-.189.307a.1.1,0,0,1-.133.031l-1-.624a.335.335,0,0,1-.123-.458l1.221-2.1a.24.24,0,0,1,.339-.079l1.038.686a.119.119,0,0,1,.044.163l-.149.257a.205.205,0,0,1-.28.075l-.5-.286A.058.058,0,0,0,160.087,633.993Z" transform="translate(-152.851 -628.9)" fill="#fff"/><path d="M192.609,646.3h0a.192.192,0,0,1-.252.092l-.29-.131-.8,1.963a.273.273,0,0,1-.349.152l-.2-.074a.3.3,0,0,1-.164-.391l.8-1.81a.156.156,0,0,0-.08-.2l-.335-.151a.186.186,0,0,1-.083-.258l.174-.244a.184.184,0,0,1,.229-.058l1.155.559A.413.413,0,0,1,192.609,646.3Z" transform="translate(-182.586 -640.131)" fill="#fff"/><path d="M303.463,670.531l-.241.014a.249.249,0,0,1-.263-.235l-.047-.823A1.448,1.448,0,0,0,302.8,669l-.523-1.215a.167.167,0,0,1,.144-.233l.4-.038a.141.141,0,0,1,.148.1l.2.616a.046.046,0,0,0,.087,0l.223-.645a.143.143,0,0,1,.127-.1l.35-.02a.2.2,0,0,1,.2.259l-.479,1.4a.464.464,0,0,0-.024.178l.055.967A.249.249,0,0,1,303.463,670.531Z" transform="translate(-285.998 -660.763)" fill="#fff"/><path d="M333.19,666.661l-.34-1.169a.968.968,0,0,0-1.2-.659l-.028.008a.968.968,0,0,0-.659,1.2l.34,1.169a.969.969,0,0,0,1.2.659l.028-.008A.968.968,0,0,0,333.19,666.661Zm-.843.6a.255.255,0,0,1-.316-.174l-.385-1.323a.255.255,0,0,1,.173-.316.254.254,0,0,1,.316.173l.385,1.324A.255.255,0,0,1,332.347,667.259Z" transform="translate(-312.528 -658.293)" fill="#fff"/><path d="M452.769,604.861l-.8-.922a.968.968,0,0,0-1.365-.1l-.022.019a.968.968,0,0,0-.1,1.366l.795.922a.969.969,0,0,0,1.366.1l.022-.019A.968.968,0,0,0,452.769,604.861Zm-.518.894a.255.255,0,0,1-.36-.027l-.9-1.044a.255.255,0,0,1,.026-.36.258.258,0,0,1,.061-.039.255.255,0,0,1,.3.066l.9,1.044A.256.256,0,0,1,452.25,605.755Z" transform="translate(-422.971 -601.657)" fill="#fff"/><path d="M367.19,655.433l-.445.174a.17.17,0,0,1-.2-.065l-.66-1.008a.02.02,0,0,0-.035.018l.379.966a.188.188,0,0,1-.118.247l-.364.116a.189.189,0,0,1-.239-.127l-.675-2.319a.353.353,0,0,1,.244-.439l.12-.034a.343.343,0,0,1,.372.131l.627.879a.035.035,0,0,0,.062-.031l-.379-1.019a.135.135,0,0,1,.09-.176l.3-.141a.189.189,0,0,1,.262.12l.761,2.506A.164.164,0,0,1,367.19,655.433Z" transform="translate(-343.896 -646.995)" fill="#fff"/><path d="M396.926,642.657l.307-.185a.241.241,0,0,1,.259.035c.077.126.217.3.366.214.068-.038.069-.131.056-.214a.259.259,0,0,0-.24-.217c-.092-.005-.2-.022-.294-.027-.265-.013-1.108-.078-1.234-.817a1.282,1.282,0,0,1,.074-.6.84.84,0,0,1,1.5-.148.134.134,0,0,1-.006.154c-.064.083-.177.229-.265.335a.132.132,0,0,1-.211-.011c-.1-.141-.254-.317-.378-.182-.1.106.065.45.279.45s.833-.074,1.094.256.665.827.052,1.46c-.5.52-1.052.193-1.373-.257A.185.185,0,0,1,396.926,642.657Z" transform="translate(-372.891 -635.628)" fill="#fff"/><path d="M422.935,626.485a.14.14,0,0,1,.037-.194l.171-.117a.78.78,0,0,0,.206-1.083l-.124-.183a.814.814,0,0,0-1.131-.215l-.7.42a.243.243,0,0,0-.075.345l1.452,2.128a.15.15,0,0,0,.208.04l.38-.259a.143.143,0,0,0,.038-.2Zm-.458-.673-.256-.376a.1.1,0,0,1,.027-.141h0a.276.276,0,0,1,.384.073l0,0a.392.392,0,0,1,0,.441A.1.1,0,0,1,422.478,625.811Z" transform="translate(-396.158 -621.047)" fill="#fff"/><path d="M472.649,580.68l.658.507a.124.124,0,0,0,.174-.023l.306-.4a.124.124,0,0,0-.022-.171l-.579-.461a.8.8,0,0,0-.573-.179,1.251,1.251,0,0,0-.485-.77.571.571,0,0,0-.775.054l-.845.97,1.057.92,1.067.929a.147.147,0,0,0,.207-.014l.224-.257a.165.165,0,0,0-.016-.233l-.582-.507h0c-.016-.019-.208-.184-.069-.335A.2.2,0,0,1,472.649,580.68Zm-.707-.315h0a.166.166,0,0,1-.235.016l-.226-.2a.186.186,0,0,1-.018-.263l.021-.024a.214.214,0,0,1,.3-.021l.13.113A.266.266,0,0,1,471.943,580.365Z" transform="translate(-441.721 -578.935)" fill="#fff"/></g><g transform="translate(17.478 31.223)"><path d="M253.465,509.714l-1.176-.022a.313.313,0,0,1-.255-.164.2.2,0,0,1,.035-.232s.284-.263.544-.51c.341-.322.655-.741.53-.965-.246-.3-.49-.075-.676.13a.231.231,0,0,1-.31.047.233.233,0,0,1-.047-.31,1.006,1.006,0,0,1,.743-.49.84.84,0,0,1,.878.824,2.51,2.51,0,0,1-.643,1.03l-.132.118.508.1c.123.037.222.1.222.222A.222.222,0,0,1,253.465,509.714Z" transform="translate(-252.013 -507.125)" fill="#fff"/><path d="M280.025,506.468a.834.834,0,0,0-1.424.59v.921a.834.834,0,1,0,1.668,0v-.921A.833.833,0,0,0,280.025,506.468Zm-.329,1.52a.34.34,0,0,1-.3.343.344.344,0,0,1-.3-.348v-.908c0-.163.132-.382.3-.382a.273.273,0,0,1,.209.119.414.414,0,0,1,.087.242Z" transform="translate(-276.622 -506.224)" fill="#fff"/><path d="M307.973,509.279a.222.222,0,0,1-.222-.222V507.21l-.092-.023c-.119-.029-.138-.146-.109-.264s.1-.2.216-.166l.261.065a.222.222,0,0,1,.168.215v2.021A.222.222,0,0,1,307.973,509.279Z" transform="translate(-303.405 -506.711)" fill="#fff"/><path d="M325.918,510.519c-.075,0-.155,0-.241-.008a.227.227,0,0,1-.216-.229c0-.125.106-.26.23-.249.708.065.821-.139.846-.269a.355.355,0,0,0-.441-.33s-.352.052-.361-.213c-.008-.248.249-.23.249-.23l.362-.348h-.54a.3.3,0,0,1-.273-.161.224.224,0,0,1,.194-.335h1.06a.2.2,0,0,1,.161.13c.048.1.1.187,0,.3l-.391.41a.093.093,0,0,0,.02.145c.169.1.482.275.544.519a.664.664,0,0,1-.085.534C326.917,510.356,326.764,510.519,325.918,510.519Zm.618-.535h0Zm0,0v0Zm0,0h0Z" transform="translate(-319.992 -508.005)" fill="#fff"/></g></g></g></svg>