<svg width="100" height="100" viewBox="0 0 100 100" fill="none" xmlns="http://www.w3.org/2000/svg">
<g clip-path="url(#clip0_1124_17823)">
<path d="M50 100C77.6142 100 100 77.6142 100 50C100 22.3858 77.6142 0 50 0C22.3858 0 0 22.3858 0 50C0 77.6142 22.3858 100 50 100Z" fill="#00263A"/>
<path d="M50 2.53333C76.1714 2.53333 97.4667 23.8286 97.4667 50C97.4667 76.1714 76.1714 97.4667 50 97.4667C23.8286 97.4667 2.53333 76.1714 2.53333 50C2.53333 23.8286 23.8286 2.53333 50 2.53333ZM50 0C22.3857 0 0 22.3857 0 50C0 77.6143 22.3857 100 50 100C77.6143 100 100 77.6143 100 50C100 22.3857 77.6143 0 50 0Z" fill="#A32035"/>
<path d="M31.2856 50C31.2856 33.7238 39.6809 20.481 49.9999 20.481C60.319 20.481 68.7142 33.7238 68.7142 50C68.7142 66.2762 60.319 79.5191 49.9999 79.5191C39.6809 79.5191 31.2856 66.2762 31.2856 50Z" fill="white"/>
<path d="M69.0999 52.2143H62.4047V35.3191H56.9428V52.2143H49.9999V20.481C39.6809 20.481 31.2856 33.7238 31.2856 50C31.2856 66.2762 39.6809 79.5191 49.9999 79.5191V57.6714H56.9428V78.481L62.4047 73.3286V57.6667H69.0999V52.2048V52.2143Z" fill="#A32035"/>
<path d="M35.6474 28.2286C31.9046 34.0571 29.8379 41.7857 29.8379 50.0048C29.8379 58.2238 31.8998 65.9524 35.6474 71.7762C39.4569 77.7 44.5522 80.9667 49.9998 80.9667C55.4474 80.9667 60.5427 77.7048 64.3522 71.7762C68.0998 65.9476 70.1617 58.2191 70.1617 50.0048C70.1617 41.7905 68.0998 34.0571 64.3522 28.2286C60.5427 22.3048 55.4474 19.0381 49.9998 19.0381C44.5522 19.0381 39.4569 22.3 35.6474 28.2286ZM31.2807 50.0048C31.2807 33.7286 39.676 20.4857 49.995 20.4857C60.3141 20.4857 68.7093 33.7286 68.7093 50.0048C68.7093 66.281 60.3141 79.5238 49.995 79.5238C39.676 79.5238 31.2807 66.281 31.2807 50.0048Z" fill="#D2D3D4"/>
<path d="M61.8857 72.781C62.3143 72.2238 62.7286 71.6381 63.1238 71.0238V58.5476H67.9143C67.9905 58.1381 68.0667 57.7286 68.1334 57.3095H61.8857V72.781Z" fill="#00263A"/>
<path d="M63.1235 51.4381V35.5381C63.9092 34.7048 64.614 33.8 65.2188 32.8333C61.8188 25.3571 56.2664 20.481 49.9997 20.481C43.733 20.481 38.0473 25.481 34.6616 33.1095C34.8664 33.4238 35.0807 33.7333 35.3092 34.0333V68.2667C36.7092 71.0572 38.4188 73.4429 40.3569 75.2905V38.5619C41.9569 39.5191 43.7235 40.2381 45.6092 40.6762V78.6952C47.0188 79.2333 48.4902 79.5191 49.9997 79.5191C50.2188 79.5191 50.4378 79.5095 50.6569 79.5V58.5476H56.014V77.9524C56.433 77.7286 56.8426 77.481 57.2521 77.2095V57.3095H50.6569V52.6762H57.2521V39.6381C58.9616 38.9 60.5188 37.9095 61.8854 36.7238V52.6762H68.6378C68.6616 52.2667 68.6807 51.8524 68.695 51.4381H63.1235ZM56.014 51.4381H50.6569V41.1381C52.533 41.0571 54.333 40.7048 56.014 40.1191V51.4381Z" fill="#00263A"/>
<path d="M48.7998 33.5667H51.5855C51.5855 33.5667 51.1903 33.0619 51.1903 32.3571V28.6714H52.3427C52.876 28.6714 53.1046 29.0952 53.1046 29.0952V26.7048C53.1046 26.7048 52.5712 26.9857 52.2903 26.9857H51.1665V23.9762C51.1665 23.7238 51.2236 23.4714 51.6998 23.6381C52.1808 23.8048 53.7236 24.1429 54.3427 24.8191V22.8238C54.3427 22.8238 51.9808 21.8381 50.9093 21.8381C49.8379 21.8381 48.8569 21.981 48.8569 21.981C48.8569 21.981 49.2522 22.5143 49.2522 23.0762V32.5286C49.2522 32.8952 48.7998 33.5714 48.7998 33.5714" fill="white"/>
<path d="M59.1522 26.0286L58.395 27.4333C58.395 27.4333 57.9998 26.9 57.3522 26.9C56.7046 26.9 55.7188 27.3762 55.7188 29.4619C55.7188 31.5476 56.9569 31.6571 57.3236 31.6571C57.6903 31.6571 58.2236 31.4619 58.5903 31.1524L59.1522 32.6714C59.1522 32.6714 58.5617 33.4571 57.1284 33.4571C55.695 33.4571 53.8379 32.5286 53.8379 29.4333C53.8379 26.3381 55.8617 25.0762 57.2141 25.0762C58.5665 25.0762 59.1569 26.0333 59.1569 26.0333" fill="white"/>
<path d="M43.7377 35.1429C43.7377 35.1429 44.3281 35.1714 44.5234 34.6667L45.3662 34.7238V38.2381L44.3805 37.8429V35.5667C44.3805 35.5667 44.2662 35.7095 43.7329 35.681V35.1476L43.7377 35.1429Z" fill="white"/>
<path d="M47.4524 34.6095C46.6381 34.6095 46.019 35.2571 46.019 36.0143C46.019 36.9143 46.5524 37.3381 47.0048 37.3381C47.4571 37.3381 47.8762 37.1952 47.8762 37.1952C47.9048 37.6476 47.6524 37.9 47.2286 37.9C46.8048 37.9 46.2143 37.5905 46.2143 37.5905V38.2381C46.2143 38.2381 46.6905 38.6333 47.3667 38.6333C48.0429 38.6333 48.9429 38.1 48.9429 36.6905C48.9429 35.281 48.2667 34.6095 47.4524 34.6095ZM47.3952 36.6048C47.0857 36.6048 46.8905 36.3524 46.8905 35.9571C46.8905 35.5619 47.1429 35.3381 47.4238 35.3381C47.8762 35.3381 47.9571 35.7905 47.9571 36.0429C47.9571 36.2952 47.7048 36.6048 47.3952 36.6048Z" fill="white"/>
<path d="M51.1377 34.5524C50.2996 34.5524 49.6187 35.5048 49.6187 36.6762C49.6187 37.8476 50.2996 38.8 51.1377 38.8C51.9758 38.8 52.6567 37.8476 52.6567 36.6762C52.6567 35.5048 51.9758 34.5524 51.1377 34.5524ZM51.1234 37.8714C50.7425 37.8714 50.4329 37.3238 50.4329 36.6476C50.4329 35.9714 50.7425 35.4238 51.1234 35.4238C51.5044 35.4238 51.8139 35.9714 51.8139 36.6476C51.8139 37.3238 51.5044 37.8714 51.1234 37.8714Z" fill="white"/>
<path d="M54.6521 34.581C54.5378 34.581 53.2188 34.5524 53.2188 35.8762C53.2188 37.2 54.7378 37.1143 54.7378 37.1143C54.514 37.8762 53.4426 37.5952 53.4426 37.5952V38.1571C54.6235 38.6048 56.0045 37.7333 56.0045 36.2429C56.0045 34.7524 54.7664 34.5857 54.6521 34.5857M54.6092 36.4429C54.3378 36.4429 54.1187 36.1952 54.1187 35.8952C54.1187 35.5952 54.3378 35.3476 54.6092 35.3476C54.8807 35.3476 55.0997 35.5952 55.0997 35.8952C55.0997 36.1952 54.8807 36.4429 54.6092 36.4429Z" fill="white"/>
<path d="M46.5806 27.7429C46.5806 27.7429 47.6473 26.4762 47.4235 24.8762C47.1997 23.2714 45.3711 22.7667 44.2473 23.2714C43.1235 23.7762 40.8425 25.9714 40.8425 25.9714C41.1521 25.9429 41.3473 26.281 41.3473 26.7286V32.2429C41.3473 33.2572 40.814 33.5952 40.814 33.5952C40.814 33.5952 44.9187 33.6238 45.4854 33.6238C46.0521 33.6238 48.4949 32.8095 48.4949 30.4476C48.4949 28.0857 46.5806 27.7476 46.5806 27.7476M43.1235 26.1429C43.1235 26.1429 44.9235 24.1476 45.4854 25.6095C46.0473 27.0714 43.2092 28.2238 43.1235 28.2238V26.1429ZM43.1806 31.881V30.2238C43.9949 29.4381 46.1902 28.5095 46.5854 30.3667C46.9806 32.2238 43.1806 31.8857 43.1806 31.8857" fill="white"/>
<path d="M30.7095 11.3381L31.1143 12.0714L28.9 13.2952L29.2476 13.9286L31.2143 12.8429L31.6143 13.5714L29.6476 14.6572L30.1333 15.5333L29.2714 16.0095L27.6333 13.0429L30.7095 11.3429V11.3381Z" fill="#D2D3D4"/>
<path d="M36.3001 12.6238L35.762 12.1524L33.8286 12.9381L33.7715 13.6524L32.7905 14.0524L33.1334 10.2571L34.3905 9.74762L37.281 12.2286L36.3048 12.6238H36.3001ZM33.8953 12.1143L35.1334 11.6095L34.0143 10.6333L33.8953 12.1143Z" fill="#D2D3D4"/>
<path d="M41.3476 10.1762L40.7619 7.81906L41.7095 7.58572L42.5238 10.8762L41.1286 11.2238L38.6048 9.34763L39.1905 11.7048L38.2381 11.9429L37.4238 8.65239L38.8238 8.30477L41.3476 10.181V10.1762Z" fill="#D2D3D4"/>
<path d="M46.1191 6.96191L50.2001 6.79524L50.2334 7.62858L48.6858 7.69048L48.7906 10.2429L47.8096 10.281L47.7049 7.72858L46.1525 7.79048L46.1191 6.95715V6.96191Z" fill="#D2D3D4"/>
<path d="M51.3903 8.49525C51.4855 7.3762 52.3141 6.78096 53.7379 6.90477C55.1569 7.02858 55.876 7.75715 55.7807 8.87144C55.6855 9.99049 54.8522 10.5952 53.4331 10.4714C52.0093 10.3476 51.295 9.61906 51.3903 8.49525ZM54.7569 8.78572C54.8093 8.20001 54.5045 7.80953 53.6664 7.73811C52.8331 7.66668 52.4665 7.99049 52.4188 8.58572C52.3665 9.18096 52.676 9.57144 53.5045 9.64287C54.3379 9.7143 54.7093 9.38096 54.7617 8.79049L54.7569 8.78572Z" fill="#D2D3D4"/>
<path d="M61.6239 8.36667L59.6334 9.38095L60.881 11.6762L59.6763 11.4048L58.8096 9.80476L57.862 10.2857L57.7096 10.9571L56.7524 10.7381L57.5001 7.42857L58.462 7.64286L58.1286 9.12857L60.1953 8.0381L61.6334 8.36191L61.6239 8.36667Z" fill="#D2D3D4"/>
<path d="M66.3286 9.99524L66.0667 10.7191L63.6858 9.85715L63.5 10.3667L65.7905 11.1952L65.5286 11.9191L63.2381 11.0905L63.0524 11.6L65.4334 12.4571L65.1715 13.181L61.8667 11.9857L63.0191 8.79524L66.3238 9.99048L66.3286 9.99524Z" fill="#D2D3D4"/>
<path d="M69.7621 14.3524L70.8764 12.1905L71.7478 12.6381L70.1907 15.6524L68.9097 14.9905L68.2478 11.9095L67.1335 14.0714L66.2573 13.6191L67.8145 10.6048L69.1002 11.2667L69.7621 14.3476V14.3524Z" fill="#D2D3D4"/>
<path d="M27.395 85.4762C27.2474 85.719 27.395 86.0238 28.1569 86.4857C28.8569 86.9048 29.095 86.9 29.2045 86.719C29.3331 86.5095 29.2236 86.3905 28.395 85.8143C27.2665 85.0238 26.8903 84.4762 27.276 83.8333C27.6426 83.2286 28.4617 83.3476 29.4665 83.9524C30.5855 84.6238 31.0236 85.3524 30.6617 86.0143L29.7807 85.4857C29.9331 85.2286 29.7141 84.9619 29.0617 84.5714C28.4426 84.2 28.2426 84.219 28.1474 84.3762C28.0379 84.5571 28.1474 84.6952 28.895 85.2333C29.9141 85.9571 30.5617 86.4476 30.1045 87.2095C29.6569 87.9524 28.8379 87.7571 27.8045 87.1333C26.6284 86.4238 26.0903 85.7381 26.5093 84.9476L27.3903 85.4809L27.395 85.4762Z" fill="#D2D3D4"/>
<path d="M31.5236 87.1905C31.9712 86.1571 32.9426 85.8619 34.2569 86.4286C35.5664 86.9952 36.014 87.9143 35.5712 88.9429C35.1236 89.9762 34.1426 90.281 32.8331 89.7143C31.5188 89.1476 31.0759 88.2286 31.5236 87.1905ZM34.6283 88.5381C34.8616 87.9952 34.695 87.5333 33.9236 87.1952C33.1569 86.8619 32.7045 87.0571 32.4712 87.6C32.2331 88.1476 32.4045 88.6143 33.1664 88.9476C33.9331 89.281 34.395 89.081 34.6283 88.5333V88.5381Z" fill="#D2D3D4"/>
<path d="M39.295 88.2143C40.495 88.5524 41.0331 89.2571 40.895 90.1238L39.8902 89.8429C39.9093 89.5238 39.6759 89.1857 39.0712 89.0191C38.3712 88.8238 37.9378 89.0714 37.7759 89.6429C37.614 90.2191 37.8616 90.6619 38.5569 90.8571C39.1616 91.0238 39.5378 90.8571 39.6854 90.5667L40.6902 90.8476C40.3569 91.6667 39.5331 91.9952 38.3283 91.6619C37.0188 91.2952 36.4712 90.4857 36.7807 89.3667C37.095 88.2524 37.9807 87.8476 39.2902 88.2143H39.295Z" fill="#D2D3D4"/>
<path d="M43.3948 89.2286L42.7948 92.5619L41.8281 92.3857L42.4281 89.0524L43.3948 89.2286Z" fill="#D2D3D4"/>
<path d="M44.4189 91.1476C44.5094 90.0286 45.3332 89.4333 46.757 89.5476C48.176 89.6619 48.8999 90.3905 48.8046 91.5048C48.7141 92.6238 47.8856 93.2286 46.4618 93.1143C45.0379 93 44.3189 92.2714 44.4141 91.1476H44.4189ZM47.7856 91.4238C47.8332 90.8381 47.5284 90.4524 46.6903 90.381C45.857 90.3143 45.4951 90.6429 45.4427 91.2333C45.3951 91.8286 45.7046 92.2143 46.5332 92.2857C47.3665 92.3524 47.7379 92.019 47.7856 91.4238Z" fill="#D2D3D4"/>
<path d="M51.1188 92.0476C51.1331 92.3333 51.4235 92.5048 52.314 92.4571C53.1283 92.4143 53.3235 92.2762 53.3093 92.0619C53.295 91.8143 53.1426 91.781 52.1331 91.7667C50.7569 91.7429 50.1331 91.5 50.095 90.7476C50.0569 90.0429 50.8045 89.681 51.9759 89.6238C53.2807 89.5571 54.0521 89.9095 54.1188 90.6619L53.095 90.7143C53.0807 90.4143 52.7474 90.3191 51.9854 90.3571C51.2664 90.3952 51.1093 90.5238 51.1188 90.7048C51.1283 90.9143 51.295 90.9714 52.2188 91C53.4664 91.0286 54.2807 91.0714 54.3283 91.9619C54.3712 92.8286 53.5854 93.1238 52.3807 93.1857C51.0093 93.2571 50.1759 92.9857 50.0854 92.0952L51.114 92.0429L51.1188 92.0476Z" fill="#D2D3D4"/>
<path d="M55.7426 92.0429L56.6806 91.9048L56.7854 92.6333L55.8473 92.7714L55.7378 92.0429H55.7426Z" fill="#D2D3D4"/>
<path d="M59.4808 88.5381C60.6951 88.2429 61.5094 88.5952 61.8141 89.419L60.7999 89.6667C60.6618 89.3762 60.2903 89.2 59.6808 89.3476C58.9761 89.5191 58.7189 89.9476 58.857 90.5286C58.9999 91.1095 59.4332 91.3762 60.1332 91.2048C60.7427 91.0571 60.9903 90.7238 60.9761 90.3952L61.9903 90.1476C62.0999 91.0238 61.5427 91.719 60.3284 92.0143C59.0046 92.3381 58.1284 91.9 57.8522 90.7714C57.576 89.6476 58.1522 88.8619 59.4761 88.5381H59.4808Z" fill="#D2D3D4"/>
<path d="M63.1522 89.3952C62.7379 88.3476 63.2189 87.4524 64.5474 86.9238C65.8712 86.4 66.8427 86.7333 67.2522 87.7762C67.6665 88.8238 67.1855 89.7333 65.8617 90.2571C64.5331 90.7809 63.5665 90.4476 63.1522 89.3952ZM66.2998 88.1524C66.0855 87.6048 65.6379 87.3905 64.857 87.7C64.0808 88.0048 63.8951 88.4619 64.1141 89.0143C64.3331 89.5714 64.7855 89.7809 65.557 89.4762C66.3331 89.1714 66.5189 88.7048 66.2998 88.1524Z" fill="#D2D3D4"/>
<path d="M69.3332 88.6952L67.6284 85.7619L68.9522 84.9905L71.1046 86.3429L70.9903 83.8048L72.3141 83.0333L74.0189 85.9667L73.1713 86.4571L71.9379 84.3333L72.0713 87.1L71.2856 87.5571L68.9475 86.0762L70.1856 88.2L69.3332 88.6952Z" fill="#D2D3D4"/>
<path d="M23.019 81.8381C13.9952 74.181 8.2666 62.7571 8.2666 50C8.2666 37.2429 14.2999 25.2143 23.738 17.5619" stroke="#A32035" stroke-miterlimit="10"/>
<path d="M76.2666 17.5667C85.7047 25.219 91.7333 36.9048 91.7333 50C91.7333 63.0952 86.0047 74.1857 76.9809 81.8429" stroke="#A32035" stroke-miterlimit="10"/>
</g>
<defs>
<clipPath id="clip0_1124_17823">
<rect width="100" height="100" fill="white"/>
</clipPath>
</defs>
</svg>
