<svg width="100" height="100" viewBox="0 0 100 100" fill="none" xmlns="http://www.w3.org/2000/svg">
<g clip-path="url(#clip0_1124_12903)">
<path d="M93.738 31.5238C91.3475 25.8714 87.9237 20.7952 83.5665 16.4333C79.2046 12.0714 74.1284 8.65237 68.4761 6.2619C62.6237 3.78571 56.4094 2.53333 49.9999 2.53333C43.5903 2.53333 37.3761 3.78571 31.5237 6.2619C25.8713 8.65237 20.7951 12.0762 16.4332 16.4333C12.0713 20.7952 8.65225 25.8714 6.26177 31.5238C3.78558 37.3762 2.5332 43.5905 2.5332 50C2.5332 56.4095 3.78558 62.6238 6.26177 68.4762C8.65225 74.1286 12.0761 79.2048 16.4332 83.5667C20.7951 87.9286 25.8713 91.3476 31.5237 93.7381C37.3761 96.2143 43.5903 97.4667 49.9999 97.4667C56.4094 97.4667 62.6237 96.2143 68.4761 93.7381C74.1284 91.3476 79.2046 87.9238 83.5665 83.5667C87.9284 79.2048 91.3475 74.1286 93.738 68.4762C96.2142 62.6238 97.4665 56.4095 97.4665 50C97.4665 43.5905 96.2142 37.3762 93.738 31.5238Z" fill="#231F20"/>
<path d="M96.5333 31.6667C96.2333 30.9095 95.919 30.1619 95.5857 29.4238C94.919 27.9476 94.181 26.5095 93.3762 25.1143C92.9762 24.4143 92.5571 23.7286 92.1238 23.0524C91.6905 22.3762 91.2429 21.7095 90.7762 21.0571C90.5429 20.7286 90.3095 20.4048 90.0667 20.0857C89.5857 19.4429 89.0905 18.8143 88.581 18.1952C87.5619 16.9619 86.4857 15.7762 85.3524 14.6429C84.7857 14.0762 84.2095 13.5238 83.6143 12.9857C83.0238 12.4476 82.419 11.9238 81.8 11.4143C81.4905 11.1619 81.181 10.9095 80.8667 10.6619C79.9238 9.91905 78.9524 9.20952 77.9524 8.53809C76.9571 7.8619 75.9333 7.22381 74.8857 6.62381C74.1857 6.22381 73.481 5.83809 72.7619 5.47143C72.4048 5.28571 72.0429 5.10952 71.6762 4.93333C70.9476 4.58095 70.2095 4.24762 69.4619 3.93333C69.0857 3.77619 68.7095 3.62381 68.3333 3.47143C67.5762 3.17143 66.8095 2.89047 66.0381 2.62857C65.2667 2.36667 64.4809 2.12381 63.6905 1.9C62.9 1.67619 62.1 1.47143 61.2952 1.28571C57.6667 0.447618 53.8857 0.00476074 50.0048 0.00476074C46.1238 0.00476074 42.3429 0.447618 38.7143 1.28571C37.9095 1.47143 37.1095 1.67619 36.319 1.9C35.5286 2.12381 34.7429 2.36667 33.9714 2.62857C33.2 2.89047 32.4333 3.17143 31.6762 3.47143C31.3 3.61905 30.9238 3.77619 30.5476 3.93333C29.8 4.24762 29.0619 4.58571 28.3333 4.93333C27.9667 5.10952 27.6095 5.29047 27.2476 5.47143C26.5286 5.83809 25.819 6.22381 25.1238 6.62381C24.0762 7.22381 23.0524 7.86666 22.0571 8.53809C21.0619 9.21428 20.0857 9.91905 19.1429 10.6619C18.8286 10.9095 18.5143 11.1619 18.2095 11.4143C17.5905 11.9238 16.9857 12.4476 16.3952 12.9857C15.8048 13.5238 15.2238 14.0762 14.6571 14.6429C13.5238 15.7762 12.4476 16.9571 11.4286 18.1952C10.919 18.8143 10.4238 19.4429 9.94286 20.0857C9.70476 20.4048 9.46667 20.7286 9.23333 21.0571C8.76667 21.7095 8.31905 22.3762 7.88571 23.0524C7.45238 23.7286 7.03333 24.4143 6.63333 25.1143C5.82857 26.5095 5.09524 27.9476 4.42381 29.4238C4.09048 30.1619 3.77143 30.9095 3.47619 31.6667C1.22857 37.3429 0 43.5286 0 50C0 56.0429 1.07143 61.8333 3.03333 67.1905C3.45238 68.3381 3.91429 69.4667 4.41429 70.5762C5.08095 72.0524 5.81905 73.4905 6.62381 74.8857C7.02381 75.5857 7.44286 76.2714 7.87619 76.9476C8.30952 77.6238 8.75714 78.2905 9.22381 78.9429C9.45714 79.2714 9.69048 79.5952 9.93333 79.9143C10.4143 80.5571 10.9095 81.1857 11.419 81.8048C12.181 82.7286 12.981 83.6286 13.8095 84.4952C15.4667 86.2333 17.2429 87.8476 19.1333 89.3333C20.0762 90.0762 21.0476 90.7857 22.0476 91.4571C23.0429 92.1333 24.0667 92.7714 25.1143 93.3714C26.8571 94.3762 28.6714 95.2762 30.5381 96.0667C36.519 98.5952 43.0952 99.9952 50 99.9952C56.9048 99.9952 63.4809 98.5952 69.4619 96.0667C71.3333 95.2762 73.1429 94.3762 74.8857 93.3714C75.9333 92.7714 76.9571 92.1286 77.9524 91.4571C78.9476 90.7809 79.9238 90.0762 80.8667 89.3333C82.7571 87.8476 84.5333 86.2333 86.1905 84.4952C87.0191 83.6286 87.8143 82.7286 88.581 81.8048C89.0905 81.1857 89.5857 80.5571 90.0667 79.9143C90.3048 79.5952 90.5429 79.2714 90.7762 78.9429C91.2429 78.2905 91.6905 77.6238 92.1238 76.9476C92.5571 76.2714 92.9762 75.5857 93.3762 74.8857C94.181 73.4905 94.9143 72.0524 95.5857 70.5762C96.0857 69.4667 96.5476 68.3381 96.9667 67.1905C98.9286 61.8286 100 56.0381 100 50C100 43.5286 98.7714 37.3429 96.5333 31.6667ZM93.7381 68.4762C91.3476 74.1286 87.9238 79.2048 83.5667 83.5667C79.2048 87.9286 74.1286 91.3476 68.4762 93.7381C62.6238 96.2143 56.4095 97.4667 50 97.4667C43.5905 97.4667 37.3762 96.2143 31.5238 93.7381C25.8714 91.3476 20.7952 87.9238 16.4333 83.5667C12.0714 79.2048 8.65238 74.1286 6.2619 68.4762C3.78571 62.6238 2.53333 56.4095 2.53333 50C2.53333 43.5905 3.78571 37.3762 6.2619 31.5238C8.65238 25.8714 12.0762 20.7952 16.4333 16.4333C20.7952 12.0714 25.8714 8.65238 31.5238 6.2619C37.3762 3.78571 43.5905 2.53333 50 2.53333C56.4095 2.53333 62.6238 3.78571 68.4762 6.2619C74.1286 8.65238 79.2048 12.0762 83.5667 16.4333C87.9286 20.7952 91.3476 25.8714 93.7381 31.5238C96.2143 37.3762 97.4667 43.5905 97.4667 50C97.4667 56.4095 96.2143 62.6238 93.7381 68.4762Z" fill="#EA0029"/>
<path d="M49.9998 23.6572C36.8189 23.6572 27.2046 30.2524 27.2046 30.2524V52.6952C27.2046 67.9238 47.9951 76.8524 48.8808 77.2238L49.9998 77.6952L51.1189 77.2238C52.0046 76.8524 72.7951 67.9238 72.7951 52.6952V30.2524C72.7951 30.2524 63.1855 23.6572 50.0046 23.6572" fill="#EA0029"/>
<path d="M49.9999 25.7286C37.8285 25.7286 28.957 31.8143 28.957 31.8143V52.5333C28.957 66.5952 48.1523 74.8381 48.9666 75.181L49.9999 75.6143L51.0332 75.181C51.8523 74.8381 71.0427 66.5952 71.0427 52.5333V31.8143C71.0427 31.8143 62.1713 25.7286 49.9999 25.7286Z" fill="#231F20"/>
<path d="M49.9997 74.8714L49.2331 74.5476C49.0235 74.4571 43.9902 72.3333 39.0807 68.4619C32.8188 63.5286 29.6426 58.1714 29.6426 52.5381V32.1952L29.7807 32.1095C31.9473 30.7762 39.8045 26.4191 49.9997 26.4191C60.195 26.4191 68.0521 30.7762 70.2188 32.1095L70.3521 32.1952V52.5381C70.3521 58.1714 67.1807 63.5286 60.9188 68.4619C56.0092 72.3286 50.9759 74.4619 50.7664 74.5476L50.0045 74.8714H49.9997ZM30.214 32.5095V52.5381C30.214 57.9905 33.314 63.2 39.4331 68.0191C44.2854 71.8429 49.2426 73.9381 49.4521 74.0238L49.9997 74.2524L50.5426 74.0238C50.7521 73.9381 55.7188 71.8381 60.5616 68.0191C66.6807 63.2 69.7807 57.9905 69.7807 52.5381V32.5095C67.4711 31.1048 59.8426 26.9857 49.995 26.9857C40.1473 26.9857 32.5188 31.1048 30.2092 32.5095" fill="white"/>
<path d="M68.6044 52.5381V43.181C65.8901 41.6333 58.8092 38.1619 49.9997 38.1619C41.1901 38.1619 34.1092 41.6333 31.3901 43.181V52.5381C31.3901 57.6095 34.3425 62.5048 40.1616 67.0952C44.8854 70.8143 49.7044 72.8571 49.9092 72.9429L49.9997 72.981L50.0854 72.9429C50.2901 72.8571 55.1187 70.8095 59.833 67.0952C65.652 62.5095 68.6044 57.6095 68.6044 52.5381Z" fill="white"/>
<path d="M40.4235 33.6191C40.1854 32.5857 40.1425 32.1857 40.214 31.6667C40.3997 30.3286 41.7044 29.5857 42.9235 29.3952C44.0521 29.2238 45.4187 29.5381 46.0711 30.5429C46.1092 30.6 46.1044 30.6667 46.0378 30.7048C45.5378 30.9381 45.2949 31.0572 44.8092 31.3095C44.7283 31.3381 44.6663 31.3191 44.6378 31.2762C44.3235 30.8476 43.8092 30.6381 43.1378 30.7429C42.4378 30.8524 42.0616 31.2333 41.9711 31.7476C41.9235 32.0095 41.9473 32.3476 42.1235 33.2667C42.2949 34.181 42.3949 34.5191 42.5283 34.7476C42.7854 35.1952 43.233 35.4143 43.8711 35.3191C44.4235 35.2333 44.8711 34.9095 44.9616 34.4286C44.9949 34.2476 44.9997 34.0238 44.9616 33.7191C44.9568 33.6762 44.933 33.6572 44.8854 33.6667C44.4711 33.7191 44.2663 33.7476 43.8521 33.8095C43.7854 33.8191 43.733 33.7857 43.7235 33.7238C43.6616 33.3238 43.633 33.1286 43.5711 32.7286C43.5616 32.6667 43.5997 32.6191 43.6711 32.6095C44.7521 32.4476 45.2949 32.3857 46.3806 32.2905C46.4521 32.2857 46.4997 32.3238 46.5044 32.3857C46.5235 32.6191 46.533 32.7381 46.5521 32.9714C46.6044 33.6 46.5949 34.1905 46.4997 34.5857C46.2187 35.7476 45.3092 36.481 44.0521 36.6762C42.7854 36.8714 41.6997 36.5191 41.0711 35.481C40.7997 35.0381 40.6663 34.6619 40.4283 33.6286" fill="white"/>
<path d="M47.6333 29.1333C47.6333 29.0714 47.6762 29.0238 47.7523 29.0238C49.5762 28.9619 51.3714 28.9762 53.1904 29.0667C53.2666 29.0714 53.3143 29.1191 53.3095 29.181C53.2762 29.6286 53.2619 29.8524 53.2333 30.3C53.2333 30.3619 53.1762 30.4 53.1047 30.3952C51.9238 30.3191 50.7381 30.2857 49.5523 30.3C49.5047 30.3 49.4809 30.3238 49.4809 30.3619C49.4904 30.9619 49.4952 31.2619 49.5 31.8619C49.5 31.9048 49.5238 31.9238 49.5714 31.9238C50.7143 31.9095 51.2809 31.9238 52.4238 31.981C52.4952 31.981 52.5381 32.0286 52.5333 32.0905C52.5095 32.5333 52.4952 32.7571 52.4714 33.2C52.4714 33.2619 52.419 33.3 52.3524 33.3C51.2476 33.2429 50.6952 33.2286 49.5857 33.2429C49.5381 33.2429 49.519 33.2667 49.519 33.3048C49.5333 34.3762 49.5428 34.9143 49.5571 35.9857C49.5571 36.0476 49.5143 36.0905 49.4523 36.0905C48.9143 36.1 48.6476 36.1095 48.1095 36.1333C48.0476 36.1333 48 36.0952 48 36.0333C47.8762 33.7333 47.7571 31.4286 47.6333 29.1286" fill="white"/>
<path d="M54.5617 29.281C54.5665 29.2191 54.6236 29.181 54.6951 29.1905C55.3284 29.2524 55.6427 29.2905 56.2712 29.3714C56.3474 29.381 56.3903 29.4286 56.3808 29.4905C56.2141 30.7095 56.1331 31.3238 55.9665 32.5429C57.0093 31.6381 58.0665 30.781 59.1665 29.9429C59.2427 29.881 59.2951 29.8714 59.3951 29.8905C60.1093 30.0333 60.4617 30.1143 61.1712 30.2857C61.2427 30.3048 61.2617 30.3857 61.1855 30.4286C60.1522 31.0905 59.1427 31.7952 58.1712 32.5429C58.776 34.0476 59.3046 35.5857 59.7522 37.1429C59.776 37.2238 59.7331 37.2667 59.6617 37.2476C59.0522 37.0952 58.7474 37.0286 58.1379 36.9C58.0522 36.881 58.0284 36.8572 57.9998 36.7762C57.5951 35.4714 57.3665 34.8191 56.8617 33.5238C56.3855 33.9238 56.1522 34.1238 55.6951 34.5381C55.5951 35.2572 55.5474 35.6143 55.4522 36.3333C55.4427 36.3953 55.395 36.4333 55.3331 36.4238C54.7998 36.3524 54.5331 36.3238 53.9951 36.2667C53.9331 36.2619 53.8951 36.2143 53.8998 36.1524C54.1189 33.8572 54.3427 31.5667 54.5617 29.2714" fill="white"/>
<path d="M47.5046 70.2619H46.9285V69.1191H46.4761V68.7238C46.7856 68.7143 46.9999 68.6143 47.0665 68.2762H47.5046V70.2619Z" fill="#231F20"/>
<path d="M48.7093 69.7524C48.7378 69.8619 48.8283 69.9095 48.9426 69.9095C49.1569 69.9095 49.2426 69.7143 49.2426 69.4619C49.0854 69.5714 48.9712 69.6048 48.7854 69.6048C48.3283 69.6048 48.1235 69.2524 48.1235 68.9714C48.1235 68.4952 48.4616 68.281 48.9045 68.281C49.4759 68.281 49.8235 68.5905 49.8235 69.3C49.8235 69.9 49.514 70.3095 48.9664 70.3095C48.6045 70.3095 48.2473 70.1905 48.1664 69.7952L48.7045 69.7619L48.7093 69.7524ZM49.2188 68.9381C49.2188 68.7952 49.0997 68.6857 48.9569 68.6857C48.7854 68.6857 48.6997 68.7905 48.6997 68.9571C48.6997 69.1143 48.7997 69.2191 48.9426 69.2191C49.1426 69.2095 49.214 69.0952 49.214 68.9381" fill="#231F20"/>
<path d="M50.0521 68.8286C50.0521 68.4524 50.4331 68.2762 50.8569 68.2762C51.2998 68.2762 51.6093 68.5048 51.6093 68.8191C51.6093 69.0095 51.5379 69.1476 51.3521 69.2238C51.5617 69.3048 51.6807 69.4476 51.6807 69.681C51.6807 70.0762 51.3283 70.3048 50.8379 70.3048C50.3807 70.3048 49.9902 70.1143 49.9902 69.681C49.9902 69.4476 50.1093 69.3286 50.3045 69.2381C50.1521 69.1571 50.0521 69.0667 50.0521 68.8286ZM51.0998 69.6524C51.0998 69.4952 50.995 69.4 50.8379 69.4C50.6759 69.4 50.5664 69.481 50.5664 69.6571C50.5664 69.8476 50.7426 69.9191 50.9093 69.8857C51.0379 69.8667 51.0998 69.781 51.0998 69.6524ZM51.0759 68.8762C51.0759 68.7429 50.9712 68.6667 50.8379 68.6667C50.695 68.6667 50.5855 68.7381 50.5902 68.881C50.5902 69.0238 50.7045 69.0857 50.8331 69.0857C50.9617 69.0857 51.0759 69.0191 51.0759 68.8762Z" fill="#231F20"/>
<path d="M51.9047 68.8286C51.9047 68.4524 52.2856 68.2762 52.7094 68.2762C53.1523 68.2762 53.4618 68.5048 53.4618 68.8191C53.4618 69.0095 53.3904 69.1476 53.2047 69.2238C53.4142 69.3048 53.5332 69.4476 53.5332 69.681C53.5332 70.0762 53.1809 70.3048 52.6904 70.3048C52.2332 70.3048 51.8428 70.1143 51.8428 69.681C51.8428 69.4476 51.9618 69.3286 52.1571 69.2381C52.0047 69.1571 51.9047 69.0667 51.9047 68.8286ZM52.9523 69.6524C52.9523 69.4952 52.8475 69.4 52.6904 69.4C52.5285 69.4 52.419 69.481 52.419 69.6571C52.419 69.8476 52.5952 69.9191 52.7618 69.8857C52.8904 69.8667 52.9523 69.781 52.9523 69.6524ZM52.9285 68.8762C52.9285 68.7429 52.8237 68.6667 52.6904 68.6667C52.5475 68.6667 52.438 68.7381 52.4428 68.881C52.4428 69.0238 52.5571 69.0857 52.6856 69.0857C52.8142 69.0857 52.9285 69.0191 52.9285 68.8762Z" fill="#231F20"/>
<path d="M48.9094 41.4238C47.8332 38.7381 44.9189 39.9667 44.9189 39.9667C44.9189 39.9667 47.4523 40.5048 47.838 43.2667C46.9142 42.5 46.0713 43.1143 46.0713 43.1143C46.0713 43.1143 47.2237 43.9572 47.4523 45.9572C47.6809 47.9524 48.7618 50.4381 50.2237 50.9762C50.2237 50.9762 52.1285 50.1572 54.0999 49.9857C52.7951 49.2952 52.5189 46.4191 52.9047 43.8095C53.2904 41.2 52.5189 40.3572 52.5189 40.3572C52.1332 41.8143 51.4428 41.8143 51.4428 41.8143C51.057 37.1333 46.9904 37.2857 46.9904 37.2857C46.9904 37.2857 48.757 38.3619 48.9094 41.4333" fill="#231F20"/>
<path d="M57.3618 41.2762L42.4761 41.2857L43.8808 43.7143L45.7999 47.0333L54.0475 47.0286L57.3618 41.2762Z" fill="#FF595A"/>
<path d="M51.6187 44.6L52.7853 47.0286H54.0472L57.3615 41.2762L51.6187 44.6Z" fill="#EA0029"/>
<path d="M42.4712 47.9095L45.1617 48.1191L45.7902 47.0286L43.8807 43.7143L42.476 41.2857L42.4712 41.2762V47.9095Z" fill="#EA0029"/>
<path d="M35.0283 54.1714L42.4712 47.9095V41.2762L35.0283 54.1714Z" fill="#FF595A"/>
<path d="M35.0283 54.1762L40.7759 57.4857L42.2998 55.2572L41.6712 54.1714L35.0283 54.1762Z" fill="#EA0029"/>
<path d="M42.4807 67.0619L40.7759 57.4857L35.0283 54.1762L42.4807 67.0619Z" fill="#FF595A"/>
<path d="M45.7904 61.3095L42.4761 67.0619L48.2189 63.7429L47.0523 61.3095H45.7904Z" fill="#EA0029"/>
<path d="M47.0522 61.3095L48.2189 63.7429L57.357 67.0524L55.3332 63.5476L54.038 61.3048L47.0522 61.3095Z" fill="#FF595A"/>
<path d="M54.3521 54.1667L57.433 55.4333L54.6711 60.2191L57.3616 60.4238L64.8044 54.1667H58.1663H54.3521Z" fill="#FF595A"/>
<path d="M54.0425 61.3095L57.3615 67.0572V60.4238L54.6711 60.2191L54.0425 61.3095Z" fill="#EA0029"/>
<path d="M45.7999 47.0333L52.7856 47.0286L51.6189 44.6L42.4761 41.2857L45.7999 47.0333Z" fill="#7F2629"/>
<path d="M45.7999 47.0333L52.7856 47.0286L51.6189 44.6L42.4761 41.2857L45.7999 47.0333Z" fill="#7F2629"/>
<path d="M35.0283 54.1714H41.6712L45.1617 48.1191L42.4712 47.9095L35.0283 54.1714Z" fill="#7F2629"/>
<path d="M40.7759 57.4857L42.4806 67.0619L45.7997 61.3095L42.2997 55.2571L40.7759 57.4857Z" fill="#7F2629"/>
<path d="M42.4808 67.0572L42.4856 67.0333L42.4761 67.0619L57.357 67.0524L48.2189 63.7429L42.4808 67.0572Z" fill="#7F2629"/>
<path d="M57.3618 60.4238V67.0572L64.8047 54.1667L57.3618 60.4238Z" fill="#7F2629"/>
<path d="M55.3854 50.2572C55.0806 50.1143 54.7473 50.0572 54.3806 50.0714C54.1235 50.081 53.952 50.1048 53.7425 50.1429C52.7711 50.3238 51.5996 50.7857 50.1854 51.1667C46.8092 52.0857 45.5806 48.7095 43.4282 44.2572C41.2806 39.8048 38.5139 40.7238 38.5139 40.7238C38.5139 40.7238 40.2806 40.9524 40.5854 44.4095C37.4377 40.3429 33.4473 42.9524 33.4473 42.9524C33.4473 42.9524 35.8282 42.3381 37.4377 45.3333C35.2092 45.1048 34.4425 46.2572 34.4425 46.2572C34.4425 46.2572 37.5901 45.8714 39.8187 48.6381C38.1282 48.7143 37.5901 50.1714 37.5901 50.1714C37.5901 50.1714 40.0473 49.6333 41.8139 51.7857C43.3949 53.7095 45.4092 55.0191 46.7473 55.2714C46.3711 55.3 45.8282 55.5 45.4235 56.3143C45.4235 56.3143 46.4282 55.7762 47.9854 56.4952C48.0616 56.5286 48.1235 56.5572 48.1473 56.5714C48.6568 56.7952 49.0949 56.9667 49.5473 57.1238C50.6758 57.5286 50.2139 57.9667 50.1235 58.0381C49.4616 58.6048 50.1901 59.3191 50.1901 59.3191C49.8758 58.5048 50.8377 58.4238 50.8377 58.4238C51.4425 58.3714 51.8187 58.1476 52.0377 57.9476C52.0949 57.9857 52.1901 58.0619 52.2616 58.1238C52.1473 58.2333 52.1139 58.2619 52.0758 58.3095C51.5235 58.9857 52.1806 59.5667 52.1806 59.5667C51.8663 58.7524 52.8282 58.6714 52.8282 58.6714C53.1187 58.6476 53.3568 58.581 53.552 58.4952C53.7711 58.4 53.9282 58.2857 54.0425 58.1762C54.2616 58.3286 54.6949 58.7238 54.6949 58.7238C54.5854 58.3143 54.4568 58.0524 54.3282 57.881C54.5187 57.9429 55.1377 58.3476 55.1377 58.3476C54.5235 56.9762 53.952 57.4524 53.952 57.4524C53.8616 57.5238 53.752 57.6048 53.6806 57.6476C53.5616 57.7143 53.4758 57.7619 53.3949 57.7857C53.3092 57.8143 53.2806 57.7762 53.2806 57.7762C52.7282 56.5905 51.9044 55.7476 51.4282 55.3238C51.952 54.7762 52.4425 53.8238 53.2282 53.1952C53.9806 52.5905 55.4235 52.2048 55.8187 52.5476C56.1139 52.8 56.2711 53.1333 56.2092 53.5762C57.3473 53.0952 57.0092 50.9191 55.3758 50.2619M52.333 56.9857C52.9092 57.1095 53.1377 57.8286 53.3187 58.3048C53.0854 58.1667 52.852 57.9952 52.6139 57.8905C52.7044 58.0667 52.6854 58.3238 52.6711 58.4857C52.6711 58.4762 52.6711 58.4667 52.6615 58.4524C52.552 58.0524 52.4235 57.7952 52.2949 57.6333C52.3949 57.6095 53.152 58.1048 53.152 58.1048C52.5377 56.7333 51.9663 57.2095 51.9663 57.2095C51.8282 57.3238 51.5616 57.5286 51.3758 57.5524C51.3139 57.5572 51.2949 57.5381 51.2949 57.5381C51.2473 57.4333 51.1949 57.3333 51.1425 57.2333C51.2044 57.2572 51.2616 57.2762 51.3235 57.3C51.6473 57.1286 52.0092 56.9191 52.3377 56.9905M53.8282 51.9286C53.4139 52.0048 52.9901 52.1619 52.5806 52.3952C51.2425 53.1619 49.5235 52.5238 49.5235 52.5238C50.8139 52.581 51.3473 52.2095 52.9663 51.3048C53.4092 51.4762 53.8758 51.3952 53.833 51.9286M56.4235 52.181C56.3806 52.2191 56.2377 52.1191 56.1044 51.9619C55.9711 51.8048 55.7425 51.4857 55.7854 51.4476C55.8282 51.4095 56.1758 51.5619 56.3092 51.7191C56.4425 51.8762 56.4615 52.1476 56.4235 52.181Z" fill="#231F20"/>
<path d="M30.7095 11.3381L31.1143 12.0714L28.9 13.2952L29.2476 13.9286L31.2143 12.8429L31.6143 13.5714L29.6476 14.6572L30.1333 15.5333L29.2714 16.0095L27.6333 13.0429L30.7095 11.3429V11.3381Z" fill="white"/>
<path d="M36.3001 12.6238L35.762 12.1524L33.8286 12.9381L33.7715 13.6524L32.7905 14.0524L33.1334 10.2571L34.3905 9.74762L37.281 12.2286L36.3048 12.6238H36.3001ZM33.8953 12.1143L35.1334 11.6095L34.0143 10.6333L33.8953 12.1143Z" fill="white"/>
<path d="M41.3476 10.1762L40.7619 7.81906L41.7095 7.58572L42.5238 10.8762L41.1286 11.2238L38.6048 9.34763L39.1905 11.7048L38.2381 11.9429L37.4238 8.65239L38.8238 8.30477L41.3476 10.181V10.1762Z" fill="white"/>
<path d="M46.1191 6.96191L50.2001 6.79524L50.2334 7.62858L48.6858 7.69048L48.7906 10.2429L47.8096 10.281L47.7049 7.72858L46.1525 7.79048L46.1191 6.95715V6.96191Z" fill="white"/>
<path d="M51.3903 8.49525C51.4855 7.3762 52.3141 6.78096 53.7379 6.90477C55.1569 7.02858 55.876 7.75715 55.7807 8.87144C55.6855 9.99049 54.8522 10.5952 53.4331 10.4714C52.0093 10.3476 51.295 9.61906 51.3903 8.49525ZM54.7569 8.78572C54.8093 8.20001 54.5045 7.80953 53.6664 7.73811C52.8331 7.66668 52.4665 7.99049 52.4188 8.58572C52.3665 9.18096 52.676 9.57144 53.5045 9.64287C54.3379 9.7143 54.7093 9.38096 54.7617 8.79049L54.7569 8.78572Z" fill="white"/>
<path d="M61.6239 8.36667L59.6334 9.38095L60.881 11.6762L59.6763 11.4048L58.8096 9.80476L57.862 10.2857L57.7096 10.9571L56.7524 10.7381L57.5001 7.42857L58.462 7.64286L58.1286 9.12857L60.1953 8.0381L61.6334 8.36191L61.6239 8.36667Z" fill="white"/>
<path d="M66.3286 9.99524L66.0667 10.7191L63.6858 9.85715L63.5 10.3667L65.7905 11.1952L65.5286 11.9191L63.2381 11.0905L63.0524 11.6L65.4334 12.4619L65.1715 13.1857L61.8667 11.9905L63.0191 8.8L66.3238 9.99524H66.3286Z" fill="white"/>
<path d="M69.7621 14.3524L70.8764 12.1905L71.7478 12.6381L70.1907 15.6524L68.9097 14.9905L68.2478 11.9095L67.1335 14.0714L66.2573 13.6191L67.8145 10.6048L69.1002 11.2667L69.7621 14.3476V14.3524Z" fill="white"/>
<path d="M27.395 85.4762C27.2474 85.719 27.395 86.0238 28.1569 86.4857C28.8569 86.9048 29.095 86.9 29.2045 86.719C29.3331 86.5095 29.2236 86.3905 28.395 85.8143C27.2665 85.0238 26.8903 84.4762 27.276 83.8333C27.6426 83.2286 28.4617 83.3476 29.4665 83.9524C30.5855 84.6238 31.0236 85.3524 30.6617 86.0143L29.7807 85.4857C29.9331 85.2286 29.7141 84.9619 29.0617 84.5714C28.4426 84.2 28.2426 84.219 28.1474 84.3762C28.0379 84.5571 28.1474 84.6952 28.895 85.2333C29.9141 85.9571 30.5617 86.4476 30.1045 87.2095C29.6569 87.9524 28.8379 87.7571 27.8045 87.1333C26.6284 86.4238 26.0903 85.7381 26.5093 84.9476L27.3903 85.4809L27.395 85.4762Z" fill="white"/>
<path d="M31.5236 87.1905C31.9712 86.1571 32.9426 85.8619 34.2569 86.4286C35.5664 86.9952 36.014 87.9143 35.5712 88.9429C35.1236 89.9762 34.1426 90.281 32.8331 89.7143C31.5188 89.1476 31.0759 88.2286 31.5236 87.1905ZM34.6283 88.5381C34.8616 87.9952 34.695 87.5333 33.9236 87.1952C33.1569 86.8619 32.7045 87.0571 32.4712 87.6C32.2331 88.1476 32.4045 88.6143 33.1664 88.9476C33.9331 89.281 34.395 89.081 34.6283 88.5333V88.5381Z" fill="white"/>
<path d="M39.3044 88.219C40.5091 88.5571 41.0425 89.2619 40.9044 90.1286L39.8996 89.8476C39.9187 89.5286 39.6853 89.1905 39.0806 89.0238C38.3806 88.8286 37.9472 89.0762 37.7901 89.6476C37.6282 90.2238 37.8758 90.6667 38.571 90.8619C39.1758 91.0286 39.552 90.8619 39.6996 90.5714L40.7044 90.8524C40.371 91.6714 39.5472 92 38.3425 91.6667C37.0329 91.3 36.4853 90.4905 36.7948 89.3714C37.1091 88.2571 37.9948 87.8524 39.3044 88.219Z" fill="white"/>
<path d="M43.3948 89.2286L42.7948 92.5619L41.8281 92.3857L42.4281 89.0524L43.3948 89.2286Z" fill="white"/>
<path d="M44.419 91.1476C44.5095 90.0286 45.3333 89.4333 46.7571 89.5476C48.1762 89.6619 48.9 90.3905 48.8047 91.5048C48.7143 92.6238 47.8857 93.2286 46.4666 93.1143C45.0428 93 44.3238 92.2714 44.419 91.1476ZM47.7857 91.4238C47.8333 90.8381 47.5285 90.4524 46.6905 90.381C45.8571 90.3143 45.4952 90.6429 45.4428 91.2333C45.3952 91.8286 45.7047 92.2143 46.5333 92.2857C47.3666 92.3524 47.7381 92.019 47.7857 91.4238Z" fill="white"/>
<path d="M51.1188 92.0476C51.1331 92.3333 51.4235 92.5048 52.314 92.4571C53.1283 92.4143 53.3235 92.2762 53.3093 92.0619C53.295 91.8143 53.1426 91.781 52.1331 91.7667C50.7569 91.7429 50.1331 91.5 50.095 90.7476C50.0569 90.0429 50.8045 89.681 51.9759 89.6238C53.2807 89.5571 54.0521 89.9095 54.1188 90.6619L53.095 90.7143C53.0807 90.4143 52.7474 90.3191 51.9854 90.3571C51.2664 90.3952 51.1093 90.5238 51.1188 90.7048C51.1283 90.9143 51.295 90.9714 52.2188 91C53.4664 91.0286 54.2807 91.0714 54.3283 91.9619C54.3712 92.8286 53.5854 93.1238 52.3807 93.1857C51.0093 93.2571 50.1759 92.9857 50.0854 92.0952L51.114 92.0429L51.1188 92.0476Z" fill="white"/>
<path d="M55.7426 92.0429L56.6806 91.9048L56.7854 92.6333L55.8473 92.7714L55.7378 92.0429H55.7426Z" fill="white"/>
<path d="M59.4808 88.5381C60.6951 88.2429 61.5094 88.5952 61.8141 89.419L60.7999 89.6667C60.6618 89.3762 60.2903 89.2 59.6808 89.3476C58.9761 89.5191 58.7189 89.9476 58.857 90.5286C58.9999 91.1095 59.4332 91.3762 60.1332 91.2048C60.7427 91.0571 60.9903 90.7238 60.9761 90.3952L61.9903 90.1476C62.0999 91.0238 61.5427 91.719 60.3284 92.0143C59.0046 92.3381 58.1284 91.9 57.8522 90.7714C57.576 89.6476 58.1522 88.8619 59.4761 88.5381H59.4808Z" fill="white"/>
<path d="M63.1522 89.3905C62.7379 88.3429 63.2189 87.4429 64.5474 86.919C65.8712 86.3952 66.8427 86.7286 67.2522 87.7714C67.6665 88.8191 67.1855 89.7286 65.8617 90.2524C64.5331 90.7762 63.5665 90.4429 63.1522 89.3905ZM66.2998 88.1476C66.0855 87.6 65.6379 87.3857 64.857 87.6952C64.0808 88 63.8951 88.4571 64.1141 89.0095C64.3331 89.5667 64.7855 89.7762 65.557 89.4714C66.3331 89.1667 66.5189 88.7 66.2998 88.1476Z" fill="white"/>
<path d="M69.3381 88.6905L67.6333 85.7571L68.9571 84.9857L71.1095 86.3381L70.9952 83.8L72.319 83.0286L74.0238 85.9619L73.1762 86.4524L71.9428 84.3286L72.0762 87.0952L71.2904 87.5524L68.9524 86.0714L70.1904 88.1952L69.3381 88.6905Z" fill="white"/>
<path d="M23.019 81.8381C13.9952 74.181 8.2666 62.7571 8.2666 50C8.2666 37.2429 14.2999 25.2143 23.738 17.5619" stroke="white" stroke-miterlimit="10"/>
<path d="M76.2666 17.5667C85.7047 25.219 91.7333 36.9048 91.7333 50C91.7333 63.0952 86.0047 74.1857 76.9809 81.8429" stroke="white" stroke-miterlimit="10"/>
</g>
<defs>
<clipPath id="clip0_1124_12903">
<rect width="100" height="100" fill="white"/>
</clipPath>
</defs>
</svg>
