<svg xmlns="http://www.w3.org/2000/svg" width="64" height="64" viewBox="0 0 64 64"><g transform="translate(-653 -1331)"><circle cx="32" cy="32" r="32" transform="translate(653 1331)" fill="#00442e"/><g transform="translate(-218.626 897.613)"><path d="M892.229,480.054a8.6,8.6,0,0,1-.861-.97l28.01-26.051v1.682l-27.149,25.337Zm-4.211-9.666c-.018-.2-.018-.513-.018-.7v-.9l23.506-21.95h1.85l-25.337,23.546Z" transform="translate(-0.056 -0.008)" fill="#fff" fill-rule="evenodd"/><path d="M918.728,515.843a6.835,6.835,0,0,0-2.361-2.087c-2.874-1.465-6.391-2.966-9.117-5.8L934.4,482.6v15.268a14.041,14.041,0,0,1-1.629,6.463c-2.654,5.27-7.542,7.341-11.661,9.41a6.879,6.879,0,0,0-2.38,2.105Z" transform="translate(-15.077 -27.904)" fill="#db000c" fill-rule="evenodd"/><path d="M891.467,479.1a15.667,15.667,0,0,1-2.6-4.724,12.276,12.276,0,0,1-.757-3.986l25.34-23.53h6.016v6.167Z" transform="translate(-0.141 -0.019)" fill="#00892d" fill-rule="evenodd"/><path d="M887.928,468.8l.018-21.961h23.492Z" transform="translate(0 0)" fill="#db000c" fill-rule="evenodd"/><path d="M948.55,597.256h-.308v-1.682h-.358v-.231h.665v1.915ZM950.322,596a.414.414,0,0,0-.434-.424.469.469,0,0,0-.319.112.378.378,0,0,0-.112.292.393.393,0,0,0,.112.3.443.443,0,0,0,.314.115.449.449,0,0,0,.313-.115.361.361,0,0,0,.127-.275Zm-.484,1.255H949.5l.479-.644a.231.231,0,0,0-.088.022c-.022,0-.05.006-.072.006a.683.683,0,0,1-.479-.193.622.622,0,0,1-.182-.456.647.647,0,0,1,.028-.168.76.76,0,0,1,.077-.182.658.658,0,0,1,.258-.248.736.736,0,0,1,.363-.082.97.97,0,0,1,.28.044,1.035,1.035,0,0,1,.231.148.869.869,0,0,1,.159.214.523.523,0,0,1,.049.237,1.208,1.208,0,0,1-.292.66l-.016.011-.457.633Zm1.744,0h-.313v-1.682h-.358v-.231h.673v1.915Zm1.992,0h-1.326v-.264l.729-.649.011-.011q.3-.247.3-.413a.367.367,0,0,0-.112-.258.412.412,0,0,0-.275-.088.366.366,0,0,0-.27.094.428.428,0,0,0-.1.286v.022h-.28v-.011a.635.635,0,0,1,.182-.479.693.693,0,0,1,.5-.176.669.669,0,0,1,.462.168.568.568,0,0,1,.192.43.641.641,0,0,1-.066.258,3.028,3.028,0,0,1-.242.27l-.644.556h.946v.264Z" transform="translate(-46.785 -115.855)" fill="#fff" fill-rule="evenodd"/><path d="M918.726,469.686a.8.8,0,1,1-.265.775.8.8,0,0,1,.265-.775Zm2.975-.588-.508-.551.29-.719-2.489-2.669-.742.209-.514-.552,2.295-2.145.526.564-.2.737.9.964.28-2.074-.734-.364-.273-.293,2.3-2.145.3.312-.314,1.4-.275,2.3,2.018.08,2.151-.3.294.309-2.449,2.277-.341-.366-.219-.709-1.641-.072-.063.754.493.535.709-.207.526.564-2.322,2.154Zm-7.419,5.969.08.762-.838.776-1.193-1.274.711-.969a5.017,5.017,0,0,0,1.449-.448,2,2,0,0,0,.753-.437,1.442,1.442,0,0,0,.375-.52.468.468,0,0,0-.1-.433.406.406,0,0,0-.392-.1,1.533,1.533,0,0,0-.64.331l-.641.463a4.821,4.821,0,0,1-1.879.892,1.418,1.418,0,0,1-1.289-.463,1.593,1.593,0,0,1-.37-1.452,3.245,3.245,0,0,1,.969-1.64,3.571,3.571,0,0,1,.88-.579,2.013,2.013,0,0,1,.881-.161l-.021-.711.832-.77,1.079,1.15-.688,1.009a3.862,3.862,0,0,0-1.239.295,1.484,1.484,0,0,0-.679.333.928.928,0,0,0-.313.492.464.464,0,0,0,.056.441.4.4,0,0,0,.421.079,3.174,3.174,0,0,0,.738-.358l.583-.443a4.969,4.969,0,0,1,1.846-.832,1.414,1.414,0,0,1,1.274.449,1.645,1.645,0,0,1,.453,1.5,3.119,3.119,0,0,1-1.035,1.7,3.764,3.764,0,0,1-1.005.673,2.275,2.275,0,0,1-1.055.247Zm-3.627,2.151a.794.794,0,1,1-.266.774.794.794,0,0,1,.266-.774Zm-5.643,7.324-.511-.554.29-.719L902.3,480.6l-.742.209-.517-.554,2.3-2.142.526.564-.2.737.9.964.28-2.074-.734-.364-.273-.293,2.3-2.145.3.312-.314,1.4-.275,2.3,2.018.08,2.151-.3.294.309-2.441,2.285-.344-.369-.219-.709-1.641-.072-.063.754.493.535.709-.207.526.564-2.319,2.157Z" transform="translate(-10.233 -10.32)" fill="#fff" fill-rule="evenodd"/><path d="M906.99,463.6v-1.15l-1.095-.346,1.095-.336v-1.15l.693.936,1.062-.325-.655.88.665.891-1.078-.336-.688.935Zm-4.534-5.606a4.214,4.214,0,0,1,1.981.5,4.132,4.132,0,0,1,1.172.946,4.35,4.35,0,0,0-1.21-.572,3.4,3.4,0,0,0-2.514.341,3.3,3.3,0,0,0-1.682,2.915,3.38,3.38,0,0,0,2.966,3.367,3.925,3.925,0,0,0,1.854-.3c.215-.116.413-.253.627-.4a4.323,4.323,0,0,1-1,.88,4.153,4.153,0,1,1-2.2-7.681Z" transform="translate(-8.096 -8.706)" fill="#fff" fill-rule="evenodd"/></g></g></svg>