<svg width="100" height="100" viewBox="0 0 100 100" fill="none" xmlns="http://www.w3.org/2000/svg">
<g clip-path="url(#clip0_1124_15576)">
<path d="M50 100C77.6142 100 100 77.6142 100 50C100 22.3858 77.6142 0 50 0C22.3858 0 0 22.3858 0 50C0 77.6142 22.3858 100 50 100Z" fill="#004438"/>
<path d="M50 2.53333C76.1714 2.53333 97.4667 23.8286 97.4667 50C97.4667 76.1714 76.1714 97.4667 50 97.4667C23.8286 97.4667 2.53333 76.1714 2.53333 50C2.53333 23.8286 23.8286 2.53333 50 2.53333ZM50 0C22.3857 0 0 22.3857 0 50C0 77.6143 22.3857 100 50 100C77.6143 100 100 77.6143 100 50C100 22.3857 77.6143 0 50 0Z" fill="#AA182C"/>
<path d="M49.9095 23.7714C42.8095 23.9381 37 25.8238 33.2 27.4381C31.5191 28.1524 30.2286 28.8095 29.3952 29.2429C29.3952 29.2429 29.2143 29.8667 28.9762 30.9762C28.8095 31.7762 28.6143 32.8238 28.4429 34.0809C28.2095 35.7762 28.0191 37.8476 27.9857 40.1667V41.4143C28.0857 49.0333 30.0286 58.9476 37.6952 67.2429C38.6381 68.2667 39.6714 69.2667 40.8 70.2333C43.3524 72.4238 46.3905 74.4571 50 76.2333C50.0571 76.2048 50.1095 76.1809 50.1619 76.1524C53.8762 74.3048 56.981 72.1905 59.5714 69.9048C60.5524 69.0381 61.4571 68.1524 62.3 67.2429C70.1667 58.7238 72.0095 48.5095 72.0095 40.8143V40.7619C72.0095 38.2 71.8048 35.919 71.5524 34.0762C71.381 32.8238 71.1857 31.7714 71.0143 30.9714C70.781 29.8619 70.5952 29.2381 70.5952 29.2381C69.819 28.8381 68.6524 28.2381 67.1429 27.5857C63.3524 25.9429 57.4048 23.9429 50.081 23.7714H49.9048H49.9095Z" fill="#12100B"/>
<path d="M70.1524 29.6952C68.6095 28.8952 65.4714 27.3048 61.1572 26.0619C60.9762 26.0095 60.7953 25.9571 60.6095 25.9095L60.9572 26.2619C61.0048 26.3095 64.281 31.1 55.9762 43.6C56.0476 43.6619 56.1191 43.719 56.1857 43.781C58.8857 46.1762 59.5095 48.8095 60.1143 49.3762C62.2286 51.3333 64.3619 52.3762 64.8953 54.0476C65.0572 54.5286 64.7095 54.8 64.3667 54.8429C64.3191 54.8476 64.2714 54.8524 64.2238 54.8429C64.1762 54.8429 64.1334 54.8286 64.0905 54.819V54.8571C64.0953 54.9143 64.1 54.9857 64.1 55.0571C64.1 55.5714 63.9905 56.4333 63.3143 56.819C63.3143 56.8381 63.3143 56.8524 63.3143 56.8714C63.3143 56.9 63.3143 56.9333 63.3191 56.9667C63.3191 56.9952 63.3191 57.0238 63.3191 57.0524C63.3191 57.1524 63.3191 57.2571 63.3095 57.3667C63.181 58.119 62.2905 58.8048 61.1191 58.581C60.7191 59.181 59.6048 60.1238 57.9905 60.2857C57.9857 60.2667 58.4191 59.3667 58.4191 59.3667C58.4191 59.3667 58.5667 59.0333 58.9619 58.0238C58.9476 58.0238 58.4334 58.6619 56.6048 59.1524C56.6048 59.1524 57.2286 57.9381 57.2429 56.9286C57.2238 56.9286 57.0048 57.0524 55.8238 57.4095C56.1238 56.9667 56.3572 56.4333 56.4905 55.7667C57.6286 56.9333 58.2857 57.4476 60.3714 58.3C55.7524 56.4381 56.1429 51.9429 52.8762 52.3381C49.3429 52.7667 48.4762 61.1714 54.9286 64.8571C53.581 63.9857 52.6476 62.7952 52.0191 61.6095C52.7524 61.5095 53.3286 61.0381 53.3572 61.0429C53.4905 61.181 53.3238 62.3095 53.2905 62.8C54.3143 62.3857 54.7095 61.719 54.7286 61.7238C54.7572 62.9 54.7476 62.9524 54.8238 63.8809C55.5334 63.1667 56.1572 62.4619 56.1572 62.4619H56.1857C56.3714 64.2381 56.3429 64.1905 56.3 64.9C56.2953 64.9905 56.2857 65.0524 56.2762 65.0905C56.3524 65.1 56.4429 65.1238 56.5476 65.1619C57.3286 65.4667 57.3667 67.3524 53.3953 67.0476C50.1667 66.8048 47.2524 64.9809 44.5476 62.9143C44.4619 62.8476 44.3762 62.7857 44.2905 62.719C43.9905 64.3667 43.9715 65.9571 44.2381 67.4905C44.881 71.2095 47.0476 73.6428 48.4905 74.9C48.981 75.1619 49.481 75.419 49.9905 75.6762C79.4 61.1667 70.1429 29.7143 70.1429 29.7143" fill="#12100B"/>
<path d="M64.3619 54.8286C64.3143 54.8333 64.2667 54.8381 64.2191 54.8286C64.1714 54.8286 64.1238 54.8143 64.0857 54.8C63.1095 54.4667 63.0191 53.6048 62.6714 53.5905C62.6476 53.5905 62.6238 53.5905 62.6 53.6C62.4952 53.6286 62.4143 53.6667 62.3571 53.7095C62.3571 53.7095 62.3571 53.7095 62.3524 53.7095C62.3333 53.7238 62.3191 53.7381 62.3095 53.7524C62.3095 53.7524 62.3095 53.7524 62.3048 53.7571C62.2905 53.7714 62.281 53.7857 62.2714 53.8048C62.2714 53.8048 62.2714 53.8095 62.2667 53.8143C62.2571 53.8286 62.2524 53.8476 62.2476 53.8619C62.2476 53.8619 62.2476 53.8667 62.2476 53.8714C62.2476 53.8905 62.2381 53.9095 62.2381 53.9238C62.2381 53.9238 62.2381 53.9286 62.2381 53.9333C62.2381 53.9524 62.2381 53.9714 62.2381 53.9905V54C62.2381 54.019 62.2429 54.0428 62.2476 54.0619C62.2476 54.0619 62.2476 54.0667 62.2476 54.0714C62.2524 54.0952 62.2571 54.119 62.2667 54.1428C62.2667 54.1428 62.2667 54.1476 62.2667 54.1524C62.2762 54.1762 62.2857 54.2048 62.2952 54.2286C62.2952 54.2286 62.2952 54.2333 62.2952 54.2381C62.3048 54.2667 62.3191 54.2952 62.3286 54.3238C62.4333 54.5571 62.6048 54.8429 62.7762 55.1714C62.7762 55.1762 62.781 55.1857 62.7857 55.1905C62.8048 55.2238 62.8191 55.2571 62.8381 55.2905C62.8429 55.3048 62.8524 55.3143 62.8571 55.3286C62.8714 55.3571 62.8857 55.3905 62.9048 55.419C62.9143 55.4333 62.919 55.4524 62.9286 55.4667C62.9429 55.4952 62.9571 55.5238 62.9714 55.5571C62.981 55.5762 62.9905 55.5952 62.9952 55.6143C63.0095 55.6429 63.019 55.6714 63.0333 55.7C63.0429 55.7238 63.0524 55.7428 63.0619 55.7619C63.0714 55.7905 63.081 55.819 63.0952 55.8476C63.1048 55.8714 63.1143 55.8952 63.1238 55.919C63.1333 55.9524 63.1476 55.9809 63.1571 56.0143C63.1714 56.0571 63.1857 56.1048 63.2 56.1476C63.2095 56.1762 63.2191 56.2048 63.2238 56.2333C63.2333 56.2619 63.2381 56.2905 63.2429 56.319C63.2476 56.3476 63.2572 56.3714 63.2619 56.4C63.2667 56.4286 63.2714 56.4571 63.2762 56.4857C63.281 56.5143 63.2857 56.5429 63.2905 56.5714C63.2905 56.6 63.3 56.6286 63.3 56.6571C63.3 56.6857 63.3095 56.7143 63.3095 56.7476C63.3095 56.7762 63.3095 56.8048 63.3143 56.8333C63.3143 56.8619 63.3143 56.8952 63.3191 56.9286C63.3191 56.9571 63.3191 56.9857 63.3191 57.0143C63.3191 57.0381 63.3191 57.0667 63.3191 57.0905C63.3333 57.0857 63.3476 57.0809 63.3667 57.0714C64.3524 56.5809 64.3952 55.3381 64.3667 54.8L64.3619 54.8286Z" fill="#12100B"/>
<path d="M52.7286 43.4333L52.7429 43.3476C43.3524 39.681 38.8857 50.3286 44.7619 58.5714L44.8 58.5381C43.119 54.981 42.9952 42.7476 52.7286 43.4381" fill="#12100B"/>
<path d="M56.1905 48.4476L56.219 48.4762L56.7381 49.1095C56.8143 49.4048 56.419 49.4905 56.419 49.4905L56.1952 48.4762C55.0857 48.4667 54.6714 49.119 54.1048 49.0857C54.1048 49.1714 54.1048 49.1429 54.0905 49.2524C55.2381 49.4714 55.6667 51.0667 56.7333 51.0667C56.7429 51.0381 56.7429 51.0238 56.7429 51.0238C56.7429 51.0238 56.5286 50.4333 56.6952 50.1571C56.9762 50 57.1286 49.6524 57.2 49.4333C57.6952 49.8048 58.5429 49.8952 58.9381 49.7C58.9667 49.6667 58.9476 49.6905 58.9667 49.6667C57.9952 48.9 56.0667 43.2476 50 45.3619C50.0143 45.419 50.0048 45.3905 50.019 45.4381C53.5048 45.5476 55.0571 47.2095 56.1905 48.4381" fill="#12100B"/>
<path d="M50.0952 61.8381C50.0952 61.8381 50.1095 61.819 50.1333 61.8C49.3048 60.4381 47.7619 53.8238 52.119 50.1238C52.0857 50.0762 52.1048 50.1 52.0714 50.0524C45.8048 51.8524 48.1667 60.6238 50.0952 61.8381Z" fill="#12100B"/>
<path d="M62.3 57.5667C59.4953 57.3143 57.9524 53.2143 55.881 52.5762C56.2857 52.8762 59.381 58.4667 62.3 57.5667Z" fill="#12100B"/>
<path d="M61.1524 26.0571C58.0095 25.1524 54.2381 24.4333 49.9952 24.3428C39.9286 24.5619 32.5048 28.3143 29.8429 29.6952C29.8429 29.6952 20.5857 61.1524 49.9952 75.6571C49.9952 75.6571 43.0524 71.5762 44.5476 62.8952C43.1 61.7857 41.7143 60.6143 40.3714 59.5714C40.3571 59.5619 40.3476 59.5524 40.3333 59.5429C40.2714 59.4952 40.2048 59.4429 40.1429 59.3952C40.1095 59.3667 40.0714 59.3428 40.0381 59.3143C39.981 59.2714 39.9238 59.2286 39.8667 59.1857C39.8238 59.1524 39.7857 59.1238 39.7429 59.0905C39.6905 59.0524 39.6381 59.0095 39.581 58.9714C39.5333 58.9381 39.4905 58.9048 39.4429 58.8714C39.3905 58.8333 39.3429 58.7952 39.2905 58.7619C39.2429 58.7286 39.1952 58.6952 39.1476 58.6571C39.1 58.6238 39.0524 58.5905 39.0048 58.5524C38.9476 58.5143 38.8952 58.4762 38.8381 58.4381C38.7952 58.4095 38.7571 58.3809 38.7143 58.3524C38.6191 58.2905 38.5286 58.2286 38.4381 58.1667C38.4048 58.1428 38.3667 58.119 38.3333 58.1C38.2714 58.0619 38.2143 58.019 38.1524 57.9857C38.1095 57.9619 38.0714 57.9333 38.0286 57.9095C37.9762 57.8762 37.9191 57.8428 37.8619 57.8095C37.8191 57.7857 37.7762 57.7571 37.7381 57.7333C37.6857 57.7 37.6286 57.6714 37.5762 57.6381C37.5333 57.6143 37.4952 57.5905 37.4524 57.5667C37.3952 57.5333 37.3429 57.5048 37.2857 57.4762C37.2476 57.4524 37.2048 57.4333 37.1667 57.4095C37.1095 57.3809 37.0524 57.3476 36.9905 57.319C36.9524 57.3 36.9191 57.2809 36.881 57.2619C36.8048 57.2238 36.7333 57.1905 36.6571 57.1524C36.6381 57.1428 36.6191 57.1333 36.6 57.1238C36.5048 57.0809 36.4143 57.0381 36.3191 57C36.2905 56.9857 36.2619 56.9762 36.2333 56.9619C36.1667 56.9333 36.1048 56.9095 36.0429 56.8857C36.0048 56.8714 35.9714 56.8619 35.9381 56.8476C35.881 56.8286 35.8238 56.8048 35.7667 56.7857C35.7286 56.7714 35.6905 56.7619 35.6524 56.7476C35.5952 56.7286 35.5429 56.7143 35.4857 56.6952C35.4476 56.6857 35.4095 56.6714 35.3714 56.6619C35.3143 56.6476 35.2571 56.6333 35.2 56.619C35.1619 56.6095 35.1286 56.6 35.0905 56.5905C35.0286 56.5762 34.9667 56.5667 34.9048 56.5524C34.8762 56.5476 34.8429 56.5381 34.8143 56.5333C34.7238 56.519 34.6286 56.5048 34.5381 56.4905C40.6048 55.3905 46.9048 67.0429 55.2286 65.9143C43.6429 63.8524 45.7333 48.7143 52.5381 47.7C52.5381 47.6333 52.5381 47.6619 52.5381 47.619C46.5381 46.2 42.3619 53.9667 48.081 62.6667C48.0619 62.6857 48.0333 62.7095 48.0333 62.7095C48.0333 62.7095 42.9476 59.519 41.7143 54.9048L41.6762 54.8952C41.6762 54.8952 41.4905 55.7048 41.6095 56.9952C41.5857 57.0048 41.5667 57 41.5667 57C41.5667 57 37.6381 47.7048 43.3381 42.1809C43.3381 42.1809 36.1191 44.7333 38.1143 53.8667C37.8905 53.6095 37.5524 52.8857 37.3619 52.0762C37.3619 52.0762 36.9095 53.3619 37.2048 55.4381C37.1667 55.4429 37.1714 55.4381 37.1381 55.4428C33.5 46.8143 40 42.019 42.8476 40.7143C44.3572 41.8476 45.8286 41.6762 45.8286 41.6762C43.8619 41.5762 42.7048 39.5619 42.7048 39.5619C41.7286 38.0571 40.6714 37.8286 40.6714 37.8286C40.6714 37.8286 40.6524 37.819 40.6333 37.8048C40.6286 37.8048 40.6238 37.8 40.6191 37.7952L41.7952 37.7C45 37.6952 46.5571 39.0524 47.2762 40.0524C50.0476 40.2619 52.2619 41.1809 54.0143 42.2C54.1429 42.2762 54.2667 42.3476 54.3905 42.4238C54.4286 42.4476 54.4667 42.4714 54.5 42.4952C54.5857 42.5524 54.6714 42.6048 54.7571 42.6619C54.7952 42.6857 54.8333 42.7095 54.8667 42.7381C54.9762 42.8143 55.081 42.8857 55.1857 42.9619C55.2191 42.9857 55.2571 43.0143 55.2905 43.0381C55.3619 43.0905 55.4286 43.1428 55.4952 43.1952C55.5429 43.2333 55.5905 43.2667 55.6381 43.3048C55.6905 43.3476 55.7429 43.3905 55.7952 43.4333C55.8429 43.4714 55.8905 43.5095 55.9381 43.5524C56.0191 43.619 56.1 43.6905 56.1762 43.7571C64.1095 31.7952 61.6762 26.5714 61.1476 26.0428" fill="#12100B"/>
<path d="M62.8238 57.2381C59.9476 56.1857 59.7048 53.0619 57.2905 52.1952C57.2857 52.2143 57.2857 52.2143 57.2762 52.2286C57.8238 52.5714 60.019 57.5143 62.8238 57.2381Z" fill="#12100B"/>
<path d="M64.8905 54.0381C64.3571 52.3667 62.2238 51.3238 60.1095 49.3667C59.3667 48.6762 58.6 44.8762 54.019 42.219C52.2667 41.2048 50.0524 40.281 47.2809 40.0714C46.5571 39.0667 45 37.7095 41.8 37.719L40.6238 37.8143C40.6238 37.8143 40.6333 37.819 40.6381 37.8238C40.6619 37.8333 40.6762 37.8476 40.6762 37.8476C40.6762 37.8476 41.7333 38.081 42.7095 39.581C42.7095 39.581 43.8667 41.5952 45.8333 41.6952C45.8333 41.6952 44.3619 41.8714 42.8524 40.7333C40 42.0381 33.5048 46.8381 37.1428 55.4619C37.1762 55.4619 37.1714 55.4619 37.2095 55.4571C36.9143 53.3809 37.3667 52.0952 37.3667 52.0952C37.5524 52.9048 37.8952 53.6286 38.119 53.8857C36.1238 44.7524 43.3428 42.2 43.3428 42.2C37.6476 47.7238 41.5714 57.019 41.5714 57.019C41.5714 57.019 41.5905 57.019 41.6143 57.0143C41.4952 55.7238 41.6809 54.9143 41.6809 54.9143L41.719 54.9238C42.9571 59.5381 48.0381 62.7286 48.0381 62.7286C48.0381 62.7286 48.0619 62.7048 48.0857 62.6857C42.3714 53.9857 46.5476 46.219 52.5428 47.6381C52.5428 47.681 52.5428 47.6476 52.5428 47.719C45.7381 48.7333 43.6476 63.8714 55.2333 65.9333C46.9095 67.0619 40.6095 55.4095 34.5428 56.5095C39.9762 57.1857 45.8143 66.4619 53.4 67.0333C57.3762 67.3381 57.3333 65.4524 56.5524 65.1476C56.4476 65.1048 56.3571 65.0857 56.2809 65.0762C56.2905 65.0381 56.3 64.9762 56.3048 64.8857C56.3476 64.1762 56.3762 64.2238 56.1905 62.4476H56.1619C56.1619 62.4476 55.5333 63.1571 54.8286 63.8714C54.7524 62.9476 54.7619 62.8905 54.7333 61.7143C54.7143 61.7143 54.319 62.3762 53.2952 62.7905C53.3286 62.3 53.4952 61.1714 53.3619 61.0333C53.3333 61.0286 52.7571 61.5 52.0238 61.6C52.6524 62.7857 53.5857 63.9762 54.9333 64.8476C48.4809 61.1619 49.3476 52.7571 52.8809 52.3286C56.1476 51.9333 55.7571 56.4286 60.3762 58.2905C58.2952 57.4381 57.6381 56.9286 56.4952 55.7571C56.3619 56.4238 56.1286 56.9571 55.8286 57.4C57.0047 57.0429 57.2286 56.9143 57.2476 56.919C57.2333 57.9286 56.6095 59.1429 56.6095 59.1429C58.4381 58.6524 58.9571 58.0143 58.9667 58.0143C58.5714 59.0238 58.4238 59.3571 58.4238 59.3571C58.4238 59.3571 57.9905 60.2571 57.9952 60.2762C59.6095 60.1143 60.7286 59.1714 61.1238 58.5714C62.2952 58.7952 63.1857 58.1095 63.3143 57.3571C63.5095 55.2857 61.4048 53.9381 62.6 53.6095C63.0095 53.4952 63.0428 54.4524 64.0857 54.8095C64.4619 54.9381 65.1095 54.6571 64.9 54.0381M50.1381 61.8C50.1381 61.8 50.119 61.819 50.1 61.8381C48.1714 60.6238 45.8048 51.8524 52.0762 50.0524C52.1143 50.1048 52.0905 50.0762 52.1238 50.1238C47.7667 53.8238 49.3095 60.4381 50.1381 61.8ZM44.8095 58.5381L44.7714 58.5714C38.8905 50.3286 43.3619 39.6809 52.7524 43.3476L52.7381 43.4333C43.0048 42.7429 43.1286 54.9762 44.8095 58.5333M54.1 49.2571C54.1095 49.1476 54.1095 49.1762 54.1143 49.0905C54.6809 49.119 55.0952 48.4667 56.2048 48.4809L56.4286 49.4952C56.4286 49.4952 56.8238 49.4095 56.7476 49.1143L56.2286 48.4809L56.2 48.4476C55.0714 47.219 53.5143 45.5619 50.0286 45.4524C50.0143 45.4 50.0238 45.4286 50.0095 45.3762C56.0762 43.2619 58.0048 48.919 58.9762 49.681C58.9571 49.7095 58.9762 49.681 58.9476 49.7143C58.5524 49.9095 57.7048 49.819 57.2095 49.4476C57.1381 49.6667 56.9857 50.0143 56.7048 50.1714C56.5428 50.4476 56.7524 51.0381 56.7524 51.0381C56.7524 51.0381 56.7524 51.0524 56.7428 51.0809C55.6762 51.0809 55.2428 49.4857 54.1 49.2667M55.8857 52.5809C57.9619 53.2238 59.5047 57.3238 62.3047 57.5714C59.3857 58.4714 56.2905 52.8809 55.8857 52.5809ZM62.8286 57.2429C60.0286 57.519 57.8286 52.5762 57.2809 52.2333C57.2905 52.219 57.2857 52.219 57.2952 52.2C59.7048 53.0667 59.9524 56.1905 62.8286 57.2429Z" fill="#12100B"/>
<path d="M31.8238 34.4524L31.1238 32.4952L31.6524 32.3095L32.2286 33.9286L33.1238 33.6095L33.2429 33.9429L31.8238 34.4524Z" fill="#12100B"/>
<path d="M33.9 33.7286L33.2905 31.7429L34.7857 31.281L34.7476 31.6619L33.9286 31.9143L34.0714 32.381L34.8952 32.1238L35 32.4667L34.1762 32.719L34.3333 33.2238L35.2905 32.9333L35.3952 33.2667L33.9 33.7286Z" fill="#12100B"/>
<path d="M36.17 30.9033L35.6274 31.0494L36.1676 33.0541L36.7102 32.908L36.17 30.9033Z" fill="#12100B"/>
<path d="M38.8381 32.4286C37.9762 32.619 37.3905 32.2762 37.2619 31.7048C37.1333 31.1238 37.5953 30.5238 38.4953 30.319C38.7619 30.2571 39.0191 30.2429 39.2048 30.2714L39.281 30.6476C39.0238 30.5952 38.8 30.6048 38.5905 30.6524C37.9714 30.7905 37.7714 31.1857 37.8524 31.5333C37.9381 31.919 38.3286 32.1524 38.8524 32.0381C39.0953 31.9809 39.2953 31.8857 39.4762 31.7524L39.6905 32.0143C39.4143 32.2286 39.1381 32.3524 38.8429 32.419" fill="#12100B"/>
<path d="M40.4666 32.0619L40.1143 30.0143L41.6619 29.7524L41.5762 30.1238L40.7285 30.2667L40.8095 30.7476L41.6619 30.6L41.719 30.9524L40.8714 31.1L40.9619 31.619L41.9476 31.4524L42.0047 31.8L40.4666 32.0619Z" fill="#12100B"/>
<path d="M43.5381 31.6238C43.1524 31.6714 42.8619 31.6095 42.6619 31.5333L42.8381 31.1952C43.0143 31.2571 43.2286 31.3095 43.4714 31.2809C43.6667 31.2571 43.8809 31.1762 43.8619 31.019C43.8286 30.7476 43.1714 30.7809 42.8143 30.5333C42.7 30.4524 42.619 30.3476 42.6 30.1857C42.5619 29.8714 42.8476 29.5571 43.4381 29.4857C43.7238 29.4524 43.9667 29.4762 44.1286 29.5286L44.1667 29.9C43.9286 29.8333 43.7286 29.8 43.5095 29.8286C43.3095 29.8524 43.1667 29.9428 43.1809 30.0619C43.2238 30.419 44.3714 30.2476 44.4524 30.8952C44.5 31.2714 44.0952 31.5571 43.5476 31.6238" fill="#12100B"/>
<path d="M47.0333 29.5429L46.3095 29.5952L46.4381 31.3143L45.8714 31.3571L45.7476 29.6333L44.9572 29.6952L44.9333 29.3429L47.1334 29.1809L47.0333 29.5429Z" fill="#12100B"/>
<path d="M47.9476 31.2333L47.9 29.1524L49.4619 29.119L49.3238 29.4714L48.4667 29.4952L48.481 29.9809L49.3381 29.9571L49.3476 30.3143L48.4857 30.3333L48.5 30.8667L49.5 30.8428L49.5096 31.1952L47.9476 31.2333Z" fill="#12100B"/>
<path d="M51.7524 31.2333C51.3571 30.6809 51.2 30.4476 51.1 30.4143H50.8905L50.8714 31.2095L50.3095 31.1952L50.3666 29.119L51.1524 29.1381C51.8762 29.1571 52.1286 29.4381 52.119 29.7619C52.1095 30.0333 51.8667 30.2095 51.6143 30.2857C51.7476 30.3524 52 30.7095 52.3952 31.2476L51.7571 31.2333H51.7524ZM51.1524 29.5H50.9143L50.9 30.0952H51.1381C51.3762 30.1095 51.5571 29.9714 51.5619 29.7952C51.5667 29.6333 51.4238 29.5095 51.1571 29.5" fill="#12100B"/>
<path d="M56.4953 29.8762L55.7762 29.8L55.5953 31.5143L55.0286 31.4571L55.2143 29.7381L54.4238 29.6571L54.4619 29.3048L56.6572 29.5381L56.4953 29.8762Z" fill="#12100B"/>
<path d="M57.3902 29.6512L57.0894 31.7055L57.6454 31.7869L57.9462 29.7326L57.3902 29.6512Z" fill="#12100B"/>
<path d="M59.7667 32.1857C58.9238 32.0238 58.5095 31.4667 58.6238 30.8952C58.7381 30.3 59.4286 29.9524 60.3333 30.1238C60.681 30.1905 60.9048 30.2809 61.1095 30.3809L61.0286 30.7619C60.8286 30.6333 60.6 30.5333 60.3381 30.481C59.6333 30.3429 59.3 30.619 59.2333 30.9809C59.1572 31.3714 59.4286 31.7667 59.981 31.8714C60.1333 31.9 60.2762 31.9095 60.381 31.8952L60.5143 31.2095L61.0667 31.3143L60.9 32.1857C60.6 32.2476 60.2191 32.2619 59.781 32.1762" fill="#12100B"/>
<path d="M61.7048 32.5667L62.2048 30.5476L63.7238 30.9286L63.4952 31.2333L62.6667 31.0286L62.5476 31.5L63.381 31.7095L63.2952 32.0524L62.4619 31.8429L62.3333 32.3571L63.3048 32.6L63.2191 32.9429L61.7048 32.5667Z" fill="#12100B"/>
<path d="M65.3714 33.5714C65.1333 32.9381 65.0476 32.6667 64.9571 32.6095L64.7571 32.5476L64.5286 33.3143L63.9905 33.1524L64.5905 31.1619L65.3429 31.3905C66.0333 31.6 66.2048 31.9381 66.1143 32.2476C66.0333 32.5095 65.7524 32.6095 65.4857 32.619C65.6 32.719 65.7476 33.1286 65.981 33.7524L65.3667 33.5667L65.3714 33.5714ZM65.2524 31.7381L65.0238 31.6714L64.8476 32.2476L65.0762 32.3143C65.3048 32.381 65.5143 32.3 65.5667 32.1286C65.6143 31.9762 65.5095 31.8143 65.2524 31.7381Z" fill="#12100B"/>
<path d="M67.3095 34.2571C66.9428 34.1286 66.7095 33.9476 66.5619 33.7905L66.8667 33.5667C67 33.7 67.1666 33.8381 67.4 33.9238C67.5857 33.9857 67.8143 34.0048 67.8667 33.8571C67.9571 33.6 67.3524 33.3381 67.1333 32.9619C67.0667 32.8429 67.0381 32.7095 67.0905 32.5571C67.1952 32.2571 67.5905 32.1048 68.1524 32.2952C68.4238 32.3905 68.6286 32.519 68.7524 32.6381L68.6238 32.9857C68.4381 32.819 68.2762 32.7048 68.0667 32.6333C67.8762 32.5667 67.7095 32.5809 67.6667 32.6952C67.5476 33.0333 68.6571 33.3857 68.4428 34C68.319 34.3571 67.8286 34.4381 67.3095 34.2571Z" fill="#12100B"/>
<path d="M47.8714 72.4905V71.6048L47.5619 71.7L47.5333 71.5619L47.9143 71.3857H48.0762V72.4905H47.8714Z" fill="#12100B"/>
<path d="M49.1715 72.5143C48.8381 72.5143 48.6476 72.3571 48.6476 72.0905C48.6476 71.8762 48.8 71.7619 48.9238 71.7095C48.7953 71.6286 48.7143 71.5286 48.7143 71.3619C48.7143 71.1381 48.8953 70.9571 49.2095 70.9571C49.5238 70.9571 49.6667 71.1714 49.6667 71.3476C49.6667 71.5476 49.5095 71.6619 49.4381 71.7048C49.6095 71.7714 49.7191 71.8905 49.7191 72.0809C49.7191 72.3238 49.5143 72.5143 49.1762 72.5143M49.1143 71.7905C49.0238 71.819 48.8667 71.919 48.8667 72.0809C48.8667 72.2619 49.0143 72.3524 49.1905 72.3524C49.3572 72.3524 49.5048 72.2571 49.5048 72.0952C49.5048 71.9095 49.3143 71.819 49.1191 71.7905M49.2572 71.6476C49.3381 71.6 49.4572 71.5095 49.4572 71.3667C49.4572 71.2429 49.3619 71.1238 49.1953 71.1238C49.0381 71.1238 48.9286 71.219 48.9286 71.3524C48.9286 71.5429 49.0953 71.6095 49.2572 71.6476Z" fill="#12100B"/>
<path d="M50.5809 72.5143C50.2476 72.5143 50.0571 72.3571 50.0571 72.0905C50.0571 71.8762 50.2095 71.7619 50.3333 71.7095C50.2047 71.6286 50.1238 71.5286 50.1238 71.3619C50.1238 71.1381 50.3047 70.9571 50.619 70.9571C50.9333 70.9571 51.0762 71.1714 51.0762 71.3476C51.0762 71.5476 50.9143 71.6619 50.8428 71.7048C51.0143 71.7714 51.1238 71.8905 51.1238 72.0809C51.1238 72.3238 50.919 72.5143 50.5809 72.5143ZM50.519 71.7905C50.4286 71.819 50.2714 71.919 50.2714 72.0809C50.2714 72.2619 50.4143 72.3524 50.5952 72.3524C50.7619 72.3524 50.9095 72.2571 50.9095 72.0952C50.9095 71.9095 50.719 71.819 50.5238 71.7905M50.6619 71.6476C50.7476 71.6 50.8619 71.5095 50.8619 71.3667C50.8619 71.2429 50.7667 71.1238 50.6 71.1238C50.4428 71.1238 50.3333 71.219 50.3333 71.3524C50.3333 71.5429 50.5047 71.6095 50.6619 71.6476Z" fill="#12100B"/>
<path d="M51.5 71.9381C51.5 71.6 51.7 71.3667 52 71.3667C52.3 71.3667 52.5 71.6 52.5 71.9381C52.5 72.2762 52.3 72.5095 51.9952 72.5095C51.6905 72.5095 51.5 72.281 51.5 71.9381ZM52 71.5333C51.8095 71.5333 51.719 71.6905 51.719 71.9286C51.719 72.1667 51.819 72.3381 52.0095 72.3381C52.2 72.3381 52.2857 72.1762 52.2857 71.9381C52.2857 71.7 52.181 71.5333 52 71.5333Z" fill="#12100B"/>
<path d="M49.9095 23.7714C42.8095 23.9381 37 25.8238 33.2 27.4381C31.5191 28.1524 30.2286 28.8095 29.3952 29.2429C29.3952 29.2429 29.2143 29.8667 28.9762 30.9762C28.8095 31.7762 28.6143 32.8238 28.4429 34.0809C28.2095 35.7762 28.0191 37.8476 27.9857 40.1667V41.4143C28.0857 49.0333 30.0286 58.9476 37.6952 67.2429C38.6381 68.2667 39.6714 69.2667 40.8 70.2333C43.3524 72.4238 46.3905 74.4571 50 76.2333C50.0571 76.2048 50.1095 76.1809 50.1619 76.1524C53.8762 74.3048 56.981 72.1905 59.5714 69.9048C60.5524 69.0381 61.4571 68.1524 62.3 67.2429C70.1667 58.7238 72.0095 48.5095 72.0095 40.8143V40.7619C72.0095 38.2 71.8048 35.919 71.5524 34.0762C71.381 32.8238 71.1857 31.7714 71.0143 30.9714C70.781 29.8619 70.5952 29.2381 70.5952 29.2381C69.819 28.8381 68.6524 28.2381 67.1429 27.5857C63.3524 25.9429 57.4048 23.9429 50.081 23.7714H49.9048H49.9095Z" fill="white"/>
<path d="M70.1524 29.6952C68.6095 28.8952 65.4714 27.3048 61.1572 26.0619C60.9762 26.0095 60.7953 25.9571 60.6095 25.9095L60.9572 26.2619C61.0048 26.3095 64.281 31.1 55.9762 43.6C56.0476 43.6619 56.1191 43.719 56.1857 43.781C58.8857 46.1762 59.5095 48.8095 60.1143 49.3762C62.2286 51.3333 64.3619 52.3762 64.8953 54.0476C65.0572 54.5286 64.7095 54.8 64.3667 54.8429C64.3191 54.8476 64.2714 54.8524 64.2238 54.8429C64.1762 54.8429 64.1334 54.8286 64.0905 54.819V54.8571C64.0953 54.9143 64.1 54.9857 64.1 55.0571C64.1 55.5714 63.9905 56.4333 63.3143 56.819C63.3143 56.8381 63.3143 56.8524 63.3143 56.8714C63.3143 56.9 63.3143 56.9333 63.3191 56.9667C63.3191 56.9952 63.3191 57.0238 63.3191 57.0524C63.3191 57.1524 63.3191 57.2571 63.3095 57.3667C63.181 58.119 62.2905 58.8048 61.1191 58.581C60.7191 59.181 59.6048 60.1238 57.9905 60.2857C57.9857 60.2667 58.4191 59.3667 58.4191 59.3667C58.4191 59.3667 58.5667 59.0333 58.9619 58.0238C58.9476 58.0238 58.4334 58.6619 56.6048 59.1524C56.6048 59.1524 57.2286 57.9381 57.2429 56.9286C57.2238 56.9286 57.0048 57.0524 55.8238 57.4095C56.1238 56.9667 56.3572 56.4333 56.4905 55.7667C57.6286 56.9333 58.2857 57.4476 60.3714 58.3C55.7524 56.4381 56.1429 51.9429 52.8762 52.3381C49.3429 52.7667 48.4762 61.1714 54.9286 64.8571C53.581 63.9857 52.6476 62.7952 52.0191 61.6095C52.7524 61.5095 53.3286 61.0381 53.3572 61.0429C53.4905 61.181 53.3238 62.3095 53.2905 62.8C54.3143 62.3857 54.7095 61.719 54.7286 61.7238C54.7572 62.9 54.7476 62.9524 54.8238 63.8809C55.5334 63.1667 56.1572 62.4619 56.1572 62.4619H56.1857C56.3714 64.2381 56.3429 64.1905 56.3 64.9C56.2953 64.9905 56.2857 65.0524 56.2762 65.0905C56.3524 65.1 56.4429 65.1238 56.5476 65.1619C57.3286 65.4667 57.3667 67.3524 53.3953 67.0476C50.1667 66.8048 47.2524 64.9809 44.5476 62.9143C44.4619 62.8476 44.3762 62.7857 44.2905 62.719C43.9905 64.3667 43.9715 65.9571 44.2381 67.4905C44.881 71.2095 47.0476 73.6428 48.4905 74.9C48.981 75.1619 49.481 75.419 49.9905 75.6762C79.4 61.1667 70.1429 29.7143 70.1429 29.7143" fill="#AA182C"/>
<path d="M64.3619 54.8286C64.3143 54.8333 64.2667 54.8381 64.2191 54.8286C64.1714 54.8286 64.1238 54.8143 64.0857 54.8C63.1095 54.4667 63.0191 53.6048 62.6714 53.5905C62.6476 53.5905 62.6238 53.5905 62.6 53.6C62.4952 53.6286 62.4143 53.6667 62.3571 53.7095C62.3571 53.7095 62.3571 53.7095 62.3524 53.7095C62.3333 53.7238 62.3191 53.7381 62.3095 53.7524C62.3095 53.7524 62.3095 53.7524 62.3048 53.7571C62.2905 53.7714 62.281 53.7857 62.2714 53.8048C62.2714 53.8048 62.2714 53.8095 62.2667 53.8143C62.2571 53.8286 62.2524 53.8476 62.2476 53.8619C62.2476 53.8619 62.2476 53.8667 62.2476 53.8714C62.2476 53.8905 62.2381 53.9095 62.2381 53.9238C62.2381 53.9238 62.2381 53.9286 62.2381 53.9333C62.2381 53.9524 62.2381 53.9714 62.2381 53.9905V54C62.2381 54.019 62.2429 54.0428 62.2476 54.0619C62.2476 54.0619 62.2476 54.0667 62.2476 54.0714C62.2524 54.0952 62.2571 54.119 62.2667 54.1428C62.2667 54.1428 62.2667 54.1476 62.2667 54.1524C62.2762 54.1762 62.2857 54.2048 62.2952 54.2286C62.2952 54.2286 62.2952 54.2333 62.2952 54.2381C62.3048 54.2667 62.3191 54.2952 62.3286 54.3238C62.4333 54.5571 62.6048 54.8429 62.7762 55.1714C62.7762 55.1762 62.781 55.1857 62.7857 55.1905C62.8048 55.2238 62.8191 55.2571 62.8381 55.2905C62.8429 55.3048 62.8524 55.3143 62.8571 55.3286C62.8714 55.3571 62.8857 55.3905 62.9048 55.419C62.9143 55.4333 62.919 55.4524 62.9286 55.4667C62.9429 55.4952 62.9571 55.5238 62.9714 55.5571C62.981 55.5762 62.9905 55.5952 62.9952 55.6143C63.0095 55.6429 63.019 55.6714 63.0333 55.7C63.0429 55.7238 63.0524 55.7428 63.0619 55.7619C63.0714 55.7905 63.081 55.819 63.0952 55.8476C63.1048 55.8714 63.1143 55.8952 63.1238 55.919C63.1333 55.9524 63.1476 55.9809 63.1571 56.0143C63.1714 56.0571 63.1857 56.1048 63.2 56.1476C63.2095 56.1762 63.2191 56.2048 63.2238 56.2333C63.2333 56.2619 63.2381 56.2905 63.2429 56.319C63.2476 56.3476 63.2572 56.3714 63.2619 56.4C63.2667 56.4286 63.2714 56.4571 63.2762 56.4857C63.281 56.5143 63.2857 56.5429 63.2905 56.5714C63.2905 56.6 63.3 56.6286 63.3 56.6571C63.3 56.6857 63.3095 56.7143 63.3095 56.7476C63.3095 56.7762 63.3095 56.8048 63.3143 56.8333C63.3143 56.8619 63.3143 56.8952 63.3191 56.9286C63.3191 56.9571 63.3191 56.9857 63.3191 57.0143C63.3191 57.0381 63.3191 57.0667 63.3191 57.0905C63.3333 57.0857 63.3476 57.0809 63.3667 57.0714C64.3524 56.5809 64.3952 55.3381 64.3667 54.8L64.3619 54.8286Z" fill="#004438"/>
<path d="M52.7286 43.4333L52.7429 43.3476C43.3524 39.681 38.8857 50.3286 44.7619 58.5714L44.8 58.5381C43.119 54.981 42.9952 42.7476 52.7286 43.4381" fill="#004438"/>
<path d="M56.1905 48.4476L56.219 48.4762L56.7381 49.1095C56.8143 49.4048 56.419 49.4905 56.419 49.4905L56.1952 48.4762C55.0857 48.4667 54.6714 49.119 54.1048 49.0857C54.1048 49.1714 54.1048 49.1429 54.0905 49.2524C55.2381 49.4714 55.6667 51.0667 56.7333 51.0667C56.7429 51.0381 56.7429 51.0238 56.7429 51.0238C56.7429 51.0238 56.5286 50.4333 56.6952 50.1571C56.9762 50 57.1286 49.6524 57.2 49.4333C57.6952 49.8048 58.5429 49.8952 58.9381 49.7C58.9667 49.6667 58.9476 49.6905 58.9667 49.6667C57.9952 48.9 56.0667 43.2476 50 45.3619C50.0143 45.419 50.0048 45.3905 50.019 45.4381C53.5048 45.5476 55.0571 47.2095 56.1905 48.4381" fill="#004438"/>
<path d="M50.0952 61.8381C50.0952 61.8381 50.1095 61.819 50.1333 61.8C49.3048 60.4381 47.7619 53.8238 52.119 50.1238C52.0857 50.0762 52.1048 50.1 52.0714 50.0524C45.8048 51.8524 48.1667 60.6238 50.0952 61.8381Z" fill="#004438"/>
<path d="M62.3 57.5667C59.4953 57.3143 57.9524 53.2143 55.881 52.5762C56.2857 52.8762 59.381 58.4667 62.3 57.5667Z" fill="#004438"/>
<path d="M61.1524 26.0571C58.0095 25.1524 54.2381 24.4333 49.9952 24.3428C39.9286 24.5619 32.5048 28.3143 29.8429 29.6952C29.8429 29.6952 20.5857 61.1524 49.9952 75.6571C49.9952 75.6571 43.0524 71.5762 44.5476 62.8952C43.1 61.7857 41.7143 60.6143 40.3714 59.5714C40.3571 59.5619 40.3476 59.5524 40.3333 59.5429C40.2714 59.4952 40.2048 59.4429 40.1429 59.3952C40.1095 59.3667 40.0714 59.3428 40.0381 59.3143C39.981 59.2714 39.9238 59.2286 39.8667 59.1857C39.8238 59.1524 39.7857 59.1238 39.7429 59.0905C39.6905 59.0524 39.6381 59.0095 39.581 58.9714C39.5333 58.9381 39.4905 58.9048 39.4429 58.8714C39.3905 58.8333 39.3429 58.7952 39.2905 58.7619C39.2429 58.7286 39.1952 58.6952 39.1476 58.6571C39.1 58.6238 39.0524 58.5905 39.0048 58.5524C38.9476 58.5143 38.8952 58.4762 38.8381 58.4381C38.7952 58.4095 38.7571 58.3809 38.7143 58.3524C38.6191 58.2905 38.5286 58.2286 38.4381 58.1667C38.4048 58.1428 38.3667 58.119 38.3333 58.1C38.2714 58.0619 38.2143 58.019 38.1524 57.9857C38.1095 57.9619 38.0714 57.9333 38.0286 57.9095C37.9762 57.8762 37.9191 57.8428 37.8619 57.8095C37.8191 57.7857 37.7762 57.7571 37.7381 57.7333C37.6857 57.7 37.6286 57.6714 37.5762 57.6381C37.5333 57.6143 37.4952 57.5905 37.4524 57.5667C37.3952 57.5333 37.3429 57.5048 37.2857 57.4762C37.2476 57.4524 37.2048 57.4333 37.1667 57.4095C37.1095 57.3809 37.0524 57.3476 36.9905 57.319C36.9524 57.3 36.9191 57.2809 36.881 57.2619C36.8048 57.2238 36.7333 57.1905 36.6571 57.1524C36.6381 57.1428 36.6191 57.1333 36.6 57.1238C36.5048 57.0809 36.4143 57.0381 36.3191 57C36.2905 56.9857 36.2619 56.9762 36.2333 56.9619C36.1667 56.9333 36.1048 56.9095 36.0429 56.8857C36.0048 56.8714 35.9714 56.8619 35.9381 56.8476C35.881 56.8286 35.8238 56.8048 35.7667 56.7857C35.7286 56.7714 35.6905 56.7619 35.6524 56.7476C35.5952 56.7286 35.5429 56.7143 35.4857 56.6952C35.4476 56.6857 35.4095 56.6714 35.3714 56.6619C35.3143 56.6476 35.2571 56.6333 35.2 56.619C35.1619 56.6095 35.1286 56.6 35.0905 56.5905C35.0286 56.5762 34.9667 56.5667 34.9048 56.5524C34.8762 56.5476 34.8429 56.5381 34.8143 56.5333C34.7238 56.519 34.6286 56.5048 34.5381 56.4905C40.6048 55.3905 46.9048 67.0429 55.2286 65.9143C43.6429 63.8524 45.7333 48.7143 52.5381 47.7C52.5381 47.6333 52.5381 47.6619 52.5381 47.619C46.5381 46.2 42.3619 53.9667 48.081 62.6667C48.0619 62.6857 48.0333 62.7095 48.0333 62.7095C48.0333 62.7095 42.9476 59.519 41.7143 54.9048L41.6762 54.8952C41.6762 54.8952 41.4905 55.7048 41.6095 56.9952C41.5857 57.0048 41.5667 57 41.5667 57C41.5667 57 37.6381 47.7048 43.3381 42.1809C43.3381 42.1809 36.1191 44.7333 38.1143 53.8667C37.8905 53.6095 37.5524 52.8857 37.3619 52.0762C37.3619 52.0762 36.9095 53.3619 37.2048 55.4381C37.1667 55.4429 37.1714 55.4381 37.1381 55.4428C33.5 46.8143 40 42.019 42.8476 40.7143C44.3572 41.8476 45.8286 41.6762 45.8286 41.6762C43.8619 41.5762 42.7048 39.5619 42.7048 39.5619C41.7286 38.0571 40.6714 37.8286 40.6714 37.8286C40.6714 37.8286 40.6524 37.819 40.6333 37.8048C40.6286 37.8048 40.6238 37.8 40.6191 37.7952L41.7952 37.7C45 37.6952 46.5571 39.0524 47.2762 40.0524C50.0476 40.2619 52.2619 41.1809 54.0143 42.2C54.1429 42.2762 54.2667 42.3476 54.3905 42.4238C54.4286 42.4476 54.4667 42.4714 54.5 42.4952C54.5857 42.5524 54.6714 42.6048 54.7571 42.6619C54.7952 42.6857 54.8333 42.7095 54.8667 42.7381C54.9762 42.8143 55.081 42.8857 55.1857 42.9619C55.2191 42.9857 55.2571 43.0143 55.2905 43.0381C55.3619 43.0905 55.4286 43.1428 55.4952 43.1952C55.5429 43.2333 55.5905 43.2667 55.6381 43.3048C55.6905 43.3476 55.7429 43.3905 55.7952 43.4333C55.8429 43.4714 55.8905 43.5095 55.9381 43.5524C56.0191 43.619 56.1 43.6905 56.1762 43.7571C64.1095 31.7952 61.6762 26.5714 61.1476 26.0428" fill="#004438"/>
<path d="M62.8238 57.2381C59.9476 56.1857 59.7048 53.0619 57.2905 52.1952C57.2857 52.2143 57.2857 52.2143 57.2762 52.2286C57.8238 52.5714 60.019 57.5143 62.8238 57.2381Z" fill="#004438"/>
<path d="M64.8905 54.0381C64.3571 52.3667 62.2238 51.3238 60.1095 49.3667C59.3667 48.6762 58.6 44.8762 54.019 42.219C52.2667 41.2048 50.0524 40.281 47.2809 40.0714C46.5571 39.0667 45 37.7095 41.8 37.719L40.6238 37.8143C40.6238 37.8143 40.6333 37.819 40.6381 37.8238C40.6619 37.8333 40.6762 37.8476 40.6762 37.8476C40.6762 37.8476 41.7333 38.081 42.7095 39.581C42.7095 39.581 43.8667 41.5952 45.8333 41.6952C45.8333 41.6952 44.3619 41.8714 42.8524 40.7333C40 42.0381 33.5048 46.8381 37.1428 55.4619C37.1762 55.4619 37.1714 55.4619 37.2095 55.4571C36.9143 53.3809 37.3667 52.0952 37.3667 52.0952C37.5524 52.9048 37.8952 53.6286 38.119 53.8857C36.1238 44.7524 43.3428 42.2 43.3428 42.2C37.6476 47.7238 41.5714 57.019 41.5714 57.019C41.5714 57.019 41.5905 57.019 41.6143 57.0143C41.4952 55.7238 41.6809 54.9143 41.6809 54.9143L41.719 54.9238C42.9571 59.5381 48.0381 62.7286 48.0381 62.7286C48.0381 62.7286 48.0619 62.7048 48.0857 62.6857C42.3714 53.9857 46.5476 46.219 52.5428 47.6381C52.5428 47.681 52.5428 47.6476 52.5428 47.719C45.7381 48.7333 43.6476 63.8714 55.2333 65.9333C46.9095 67.0619 40.6095 55.4095 34.5428 56.5095C39.9762 57.1857 45.8143 66.4619 53.4 67.0333C57.3762 67.3381 57.3333 65.4524 56.5524 65.1476C56.4476 65.1048 56.3571 65.0857 56.2809 65.0762C56.2905 65.0381 56.3 64.9762 56.3048 64.8857C56.3476 64.1762 56.3762 64.2238 56.1905 62.4476H56.1619C56.1619 62.4476 55.5333 63.1571 54.8286 63.8714C54.7524 62.9476 54.7619 62.8905 54.7333 61.7143C54.7143 61.7143 54.319 62.3762 53.2952 62.7905C53.3286 62.3 53.4952 61.1714 53.3619 61.0333C53.3333 61.0286 52.7571 61.5 52.0238 61.6C52.6524 62.7857 53.5857 63.9762 54.9333 64.8476C48.4809 61.1619 49.3476 52.7571 52.8809 52.3286C56.1476 51.9333 55.7571 56.4286 60.3762 58.2905C58.2952 57.4381 57.6381 56.9286 56.4952 55.7571C56.3619 56.4238 56.1286 56.9571 55.8286 57.4C57.0047 57.0429 57.2286 56.9143 57.2476 56.919C57.2333 57.9286 56.6095 59.1429 56.6095 59.1429C58.4381 58.6524 58.9571 58.0143 58.9667 58.0143C58.5714 59.0238 58.4238 59.3571 58.4238 59.3571C58.4238 59.3571 57.9905 60.2571 57.9952 60.2762C59.6095 60.1143 60.7286 59.1714 61.1238 58.5714C62.2952 58.7952 63.1857 58.1095 63.3143 57.3571C63.5095 55.2857 61.4048 53.9381 62.6 53.6095C63.0095 53.4952 63.0428 54.4524 64.0857 54.8095C64.4619 54.9381 65.1095 54.6571 64.9 54.0381M50.1381 61.8C50.1381 61.8 50.119 61.819 50.1 61.8381C48.1714 60.6238 45.8048 51.8524 52.0762 50.0524C52.1143 50.1048 52.0905 50.0762 52.1238 50.1238C47.7667 53.8238 49.3095 60.4381 50.1381 61.8ZM44.8095 58.5381L44.7714 58.5714C38.8905 50.3286 43.3619 39.6809 52.7524 43.3476L52.7381 43.4333C43.0048 42.7429 43.1286 54.9762 44.8095 58.5333M54.1 49.2571C54.1095 49.1476 54.1095 49.1762 54.1143 49.0905C54.6809 49.119 55.0952 48.4667 56.2048 48.4809L56.4286 49.4952C56.4286 49.4952 56.8238 49.4095 56.7476 49.1143L56.2286 48.4809L56.2 48.4476C55.0714 47.219 53.5143 45.5619 50.0286 45.4524C50.0143 45.4 50.0238 45.4286 50.0095 45.3762C56.0762 43.2619 58.0048 48.919 58.9762 49.681C58.9571 49.7095 58.9762 49.681 58.9476 49.7143C58.5524 49.9095 57.7048 49.819 57.2095 49.4476C57.1381 49.6667 56.9857 50.0143 56.7048 50.1714C56.5428 50.4476 56.7524 51.0381 56.7524 51.0381C56.7524 51.0381 56.7524 51.0524 56.7428 51.0809C55.6762 51.0809 55.2428 49.4857 54.1 49.2667M55.8857 52.5809C57.9619 53.2238 59.5047 57.3238 62.3047 57.5714C59.3857 58.4714 56.2905 52.8809 55.8857 52.5809ZM62.8286 57.2429C60.0286 57.519 57.8286 52.5762 57.2809 52.2333C57.2905 52.219 57.2857 52.219 57.2952 52.2C59.7048 53.0667 59.9524 56.1905 62.8286 57.2429Z" fill="white"/>
<path d="M31.8238 34.4524L31.1238 32.4952L31.6524 32.3095L32.2286 33.9286L33.1238 33.6095L33.2429 33.9429L31.8238 34.4524Z" fill="white"/>
<path d="M33.9 33.7286L33.2905 31.7429L34.7857 31.281L34.7476 31.6619L33.9286 31.9143L34.0714 32.381L34.8952 32.1238L35 32.4667L34.1762 32.719L34.3333 33.2238L35.2905 32.9333L35.3952 33.2667L33.9 33.7286Z" fill="white"/>
<path d="M36.17 30.9033L35.6274 31.0494L36.1676 33.0541L36.7102 32.908L36.17 30.9033Z" fill="white"/>
<path d="M38.8381 32.4286C37.9762 32.619 37.3905 32.2762 37.2619 31.7048C37.1333 31.1238 37.5953 30.5238 38.4953 30.319C38.7619 30.2571 39.0191 30.2429 39.2048 30.2714L39.281 30.6476C39.0238 30.5952 38.8 30.6048 38.5905 30.6524C37.9714 30.7905 37.7714 31.1857 37.8524 31.5333C37.9381 31.919 38.3286 32.1524 38.8524 32.0381C39.0953 31.9809 39.2953 31.8857 39.4762 31.7524L39.6905 32.0143C39.4143 32.2286 39.1381 32.3524 38.8429 32.419" fill="white"/>
<path d="M40.4666 32.0619L40.1143 30.0143L41.6619 29.7524L41.5762 30.1238L40.7285 30.2667L40.8095 30.7476L41.6619 30.6L41.719 30.9524L40.8714 31.1L40.9619 31.619L41.9476 31.4524L42.0047 31.8L40.4666 32.0619Z" fill="white"/>
<path d="M43.5381 31.6238C43.1524 31.6714 42.8619 31.6095 42.6619 31.5333L42.8381 31.1952C43.0143 31.2571 43.2286 31.3095 43.4714 31.2809C43.6667 31.2571 43.8809 31.1762 43.8619 31.019C43.8286 30.7476 43.1714 30.7809 42.8143 30.5333C42.7 30.4524 42.619 30.3476 42.6 30.1857C42.5619 29.8714 42.8476 29.5571 43.4381 29.4857C43.7238 29.4524 43.9667 29.4762 44.1286 29.5286L44.1667 29.9C43.9286 29.8333 43.7286 29.8 43.5095 29.8286C43.3095 29.8524 43.1667 29.9428 43.1809 30.0619C43.2238 30.419 44.3714 30.2476 44.4524 30.8952C44.5 31.2714 44.0952 31.5571 43.5476 31.6238" fill="white"/>
<path d="M47.0333 29.5429L46.3095 29.5952L46.4381 31.3143L45.8714 31.3571L45.7476 29.6333L44.9572 29.6952L44.9333 29.3429L47.1334 29.1809L47.0333 29.5429Z" fill="white"/>
<path d="M47.9476 31.2333L47.9 29.1524L49.4619 29.119L49.3238 29.4714L48.4667 29.4952L48.481 29.9809L49.3381 29.9571L49.3476 30.3143L48.4857 30.3333L48.5 30.8667L49.5 30.8428L49.5096 31.1952L47.9476 31.2333Z" fill="white"/>
<path d="M51.7524 31.2333C51.3571 30.6809 51.2 30.4476 51.1 30.4143H50.8905L50.8714 31.2095L50.3095 31.1952L50.3666 29.119L51.1524 29.1381C51.8762 29.1571 52.1286 29.4381 52.119 29.7619C52.1095 30.0333 51.8667 30.2095 51.6143 30.2857C51.7476 30.3524 52 30.7095 52.3952 31.2476L51.7571 31.2333H51.7524ZM51.1524 29.5H50.9143L50.9 30.0952H51.1381C51.3762 30.1095 51.5571 29.9714 51.5619 29.7952C51.5667 29.6333 51.4238 29.5095 51.1571 29.5" fill="white"/>
<path d="M56.4953 29.8762L55.7762 29.8L55.5953 31.5143L55.0286 31.4571L55.2143 29.7381L54.4238 29.6571L54.4619 29.3048L56.6572 29.5381L56.4953 29.8762Z" fill="white"/>
<path d="M57.3902 29.6512L57.0894 31.7055L57.6454 31.7869L57.9462 29.7326L57.3902 29.6512Z" fill="white"/>
<path d="M59.7667 32.1857C58.9238 32.0238 58.5095 31.4667 58.6238 30.8952C58.7381 30.3 59.4286 29.9524 60.3333 30.1238C60.681 30.1905 60.9048 30.2809 61.1095 30.3809L61.0286 30.7619C60.8286 30.6333 60.6 30.5333 60.3381 30.481C59.6333 30.3429 59.3 30.619 59.2333 30.9809C59.1572 31.3714 59.4286 31.7667 59.981 31.8714C60.1333 31.9 60.2762 31.9095 60.381 31.8952L60.5143 31.2095L61.0667 31.3143L60.9 32.1857C60.6 32.2476 60.2191 32.2619 59.781 32.1762" fill="white"/>
<path d="M61.7048 32.5667L62.2048 30.5476L63.7238 30.9286L63.4952 31.2333L62.6667 31.0286L62.5476 31.5L63.381 31.7095L63.2952 32.0524L62.4619 31.8429L62.3333 32.3571L63.3048 32.6L63.2191 32.9429L61.7048 32.5667Z" fill="white"/>
<path d="M65.3714 33.5714C65.1333 32.9381 65.0476 32.6667 64.9571 32.6095L64.7571 32.5476L64.5286 33.3143L63.9905 33.1524L64.5905 31.1619L65.3429 31.3905C66.0333 31.6 66.2048 31.9381 66.1143 32.2476C66.0333 32.5095 65.7524 32.6095 65.4857 32.619C65.6 32.719 65.7476 33.1286 65.981 33.7524L65.3667 33.5667L65.3714 33.5714ZM65.2524 31.7381L65.0238 31.6714L64.8476 32.2476L65.0762 32.3143C65.3048 32.381 65.5143 32.3 65.5667 32.1286C65.6143 31.9762 65.5095 31.8143 65.2524 31.7381Z" fill="white"/>
<path d="M67.3095 34.2571C66.9428 34.1286 66.7095 33.9476 66.5619 33.7905L66.8667 33.5667C67 33.7 67.1666 33.8381 67.4 33.9238C67.5857 33.9857 67.8143 34.0048 67.8667 33.8571C67.9571 33.6 67.3524 33.3381 67.1333 32.9619C67.0667 32.8429 67.0381 32.7095 67.0905 32.5571C67.1952 32.2571 67.5905 32.1048 68.1524 32.2952C68.4238 32.3905 68.6286 32.519 68.7524 32.6381L68.6238 32.9857C68.4381 32.819 68.2762 32.7048 68.0667 32.6333C67.8762 32.5667 67.7095 32.5809 67.6667 32.6952C67.5476 33.0333 68.6571 33.3857 68.4428 34C68.319 34.3571 67.8286 34.4381 67.3095 34.2571Z" fill="white"/>
<path d="M47.8714 72.4905V71.6048L47.5619 71.7L47.5333 71.5619L47.9143 71.3857H48.0762V72.4905H47.8714Z" fill="white"/>
<path d="M49.1715 72.5143C48.8381 72.5143 48.6476 72.3571 48.6476 72.0905C48.6476 71.8762 48.8 71.7619 48.9238 71.7095C48.7953 71.6286 48.7143 71.5286 48.7143 71.3619C48.7143 71.1381 48.8953 70.9571 49.2095 70.9571C49.5238 70.9571 49.6667 71.1714 49.6667 71.3476C49.6667 71.5476 49.5095 71.6619 49.4381 71.7048C49.6095 71.7714 49.7191 71.8905 49.7191 72.0809C49.7191 72.3238 49.5143 72.5143 49.1762 72.5143M49.1143 71.7905C49.0238 71.819 48.8667 71.919 48.8667 72.0809C48.8667 72.2619 49.0143 72.3524 49.1905 72.3524C49.3572 72.3524 49.5048 72.2571 49.5048 72.0952C49.5048 71.9095 49.3143 71.819 49.1191 71.7905M49.2572 71.6476C49.3381 71.6 49.4572 71.5095 49.4572 71.3667C49.4572 71.2429 49.3619 71.1238 49.1953 71.1238C49.0381 71.1238 48.9286 71.219 48.9286 71.3524C48.9286 71.5429 49.0953 71.6095 49.2572 71.6476Z" fill="white"/>
<path d="M50.5809 72.5143C50.2476 72.5143 50.0571 72.3571 50.0571 72.0905C50.0571 71.8762 50.2095 71.7619 50.3333 71.7095C50.2047 71.6286 50.1238 71.5286 50.1238 71.3619C50.1238 71.1381 50.3047 70.9571 50.619 70.9571C50.9333 70.9571 51.0762 71.1714 51.0762 71.3476C51.0762 71.5476 50.9143 71.6619 50.8428 71.7048C51.0143 71.7714 51.1238 71.8905 51.1238 72.0809C51.1238 72.3238 50.919 72.5143 50.5809 72.5143ZM50.519 71.7905C50.4286 71.819 50.2714 71.919 50.2714 72.0809C50.2714 72.2619 50.4143 72.3524 50.5952 72.3524C50.7619 72.3524 50.9095 72.2571 50.9095 72.0952C50.9095 71.9095 50.719 71.819 50.5238 71.7905M50.6619 71.6476C50.7476 71.6 50.8619 71.5095 50.8619 71.3667C50.8619 71.2429 50.7667 71.1238 50.6 71.1238C50.4428 71.1238 50.3333 71.219 50.3333 71.3524C50.3333 71.5429 50.5047 71.6095 50.6619 71.6476Z" fill="white"/>
<path d="M51.5 71.9381C51.5 71.6 51.7 71.3667 52 71.3667C52.3 71.3667 52.5 71.6 52.5 71.9381C52.5 72.2762 52.3 72.5095 51.9952 72.5095C51.6905 72.5095 51.5 72.281 51.5 71.9381ZM52 71.5333C51.8095 71.5333 51.719 71.6905 51.719 71.9286C51.719 72.1667 51.819 72.3381 52.0095 72.3381C52.2 72.3381 52.2857 72.1762 52.2857 71.9381C52.2857 71.7 52.181 71.5333 52 71.5333Z" fill="white"/>
<path d="M30.7095 11.3381L31.1143 12.0714L28.9 13.2952L29.2476 13.9286L31.2143 12.8429L31.6143 13.5714L29.6476 14.6572L30.1333 15.5333L29.2714 16.0095L27.6333 13.0429L30.7095 11.3429V11.3381Z" fill="white"/>
<path d="M36.3 12.6238L35.7619 12.1524L33.8286 12.9381L33.7714 13.6524L32.7905 14.0524L33.1333 10.2571L34.3905 9.74762L37.2809 12.2286L36.3048 12.6238H36.3ZM33.8952 12.1143L35.1333 11.6095L34.0143 10.6333L33.8952 12.1143Z" fill="white"/>
<path d="M41.3476 10.1762L40.7619 7.81906L41.7095 7.58572L42.5238 10.8762L41.1285 11.2238L38.6047 9.34763L39.1904 11.7048L38.2381 11.9429L37.4238 8.65239L38.8238 8.30477L41.3476 10.181V10.1762Z" fill="white"/>
<path d="M46.119 6.96191L50.2 6.79524L50.2333 7.62858L48.6857 7.69048L48.7904 10.2429L47.8095 10.281L47.7047 7.72858L46.1524 7.79048L46.119 6.95715V6.96191Z" fill="white"/>
<path d="M51.3904 8.49525C51.4857 7.3762 52.3143 6.78096 53.7381 6.90477C55.1571 7.02858 55.8762 7.75715 55.7809 8.87144C55.6857 9.99049 54.8523 10.5952 53.4333 10.4714C52.0095 10.3476 51.2952 9.61906 51.3904 8.49525ZM54.7571 8.78572C54.8095 8.20001 54.5047 7.80953 53.6666 7.73811C52.8333 7.66668 52.4666 7.99049 52.419 8.58572C52.3666 9.18096 52.6762 9.57144 53.5047 9.64287C54.3381 9.7143 54.7095 9.38096 54.7619 8.79049L54.7571 8.78572Z" fill="white"/>
<path d="M61.6237 8.36667L59.6333 9.38095L60.8809 11.6762L59.6761 11.4048L58.8095 9.80476L57.8618 10.2857L57.7095 10.9571L56.7523 10.7381L57.4999 7.42857L58.4618 7.64286L58.1285 9.12857L60.1952 8.0381L61.6333 8.36191L61.6237 8.36667Z" fill="white"/>
<path d="M66.3285 9.99524L66.0666 10.7191L63.6857 9.85715L63.5 10.3667L65.7905 11.1952L65.5285 11.9191L63.2381 11.0905L63.0524 11.6L65.4333 12.4619L65.1714 13.1857L61.8666 11.9905L63.019 8.8L66.3238 9.99524H66.3285Z" fill="white"/>
<path d="M69.7618 14.3524L70.8761 12.1905L71.7476 12.6381L70.1904 15.6524L68.9095 14.9905L68.2476 11.9095L67.1333 14.0714L66.2571 13.6191L67.8142 10.6048L69.0999 11.2667L69.7618 14.3476V14.3524Z" fill="white"/>
<path d="M27.3952 85.4762C27.2476 85.719 27.3952 86.0238 28.1571 86.4857C28.8571 86.9048 29.0952 86.9 29.2047 86.719C29.3333 86.5095 29.2238 86.3905 28.3952 85.8143C27.2666 85.0238 26.8904 84.4762 27.2762 83.8333C27.6428 83.2286 28.4619 83.3476 29.4666 83.9524C30.5857 84.6238 31.0238 85.3524 30.6619 86.0143L29.7809 85.4857C29.9333 85.2286 29.7143 84.9619 29.0619 84.5714C28.4428 84.2 28.2428 84.219 28.1476 84.3762C28.0381 84.5571 28.1476 84.6952 28.8952 85.2333C29.9143 85.9571 30.5619 86.4476 30.1047 87.2095C29.6571 87.9524 28.8381 87.7571 27.8047 87.1333C26.6285 86.4238 26.0904 85.7381 26.5095 84.9476L27.3904 85.4809L27.3952 85.4762Z" fill="white"/>
<path d="M31.5238 87.1905C31.9714 86.1571 32.9428 85.8619 34.2571 86.4286C35.5667 86.9952 36.0143 87.9143 35.5714 88.9429C35.1238 89.9762 34.1428 90.281 32.8333 89.7143C31.519 89.1476 31.0762 88.2286 31.5238 87.1905ZM34.6286 88.5381C34.8619 87.9952 34.6952 87.5333 33.9238 87.1952C33.1571 86.8619 32.7047 87.0571 32.4714 87.6C32.2333 88.1476 32.4047 88.6143 33.1667 88.9476C33.9333 89.281 34.3952 89.081 34.6286 88.5333V88.5381Z" fill="white"/>
<path d="M39.3047 88.219C40.5047 88.5571 41.0428 89.2619 40.9047 90.1286L39.9 89.8476C39.919 89.5286 39.6857 89.1905 39.0809 89.0238C38.3809 88.8286 37.9476 89.0762 37.7857 89.6476C37.6238 90.2238 37.8714 90.6667 38.5666 90.8619C39.1714 91.0286 39.5476 90.8619 39.6952 90.5714L40.7 90.8524C40.3666 91.6714 39.5428 92 38.3381 91.6667C37.0285 91.3 36.4809 90.4905 36.7905 89.3714C37.1047 88.2571 37.9905 87.8524 39.3 88.219H39.3047Z" fill="white"/>
<path d="M43.3952 89.2286L42.7952 92.5619L41.8286 92.3857L42.4286 89.0524L43.3952 89.2286Z" fill="white"/>
<path d="M44.419 91.1476C44.5095 90.0286 45.3333 89.4333 46.7571 89.5476C48.1762 89.6619 48.9 90.3905 48.8047 91.5048C48.7143 92.6238 47.8857 93.2286 46.4619 93.1143C45.0381 93 44.319 92.2714 44.4143 91.1476H44.419ZM47.7857 91.4238C47.8333 90.8381 47.5285 90.4524 46.6905 90.381C45.8571 90.3143 45.4952 90.6429 45.4428 91.2333C45.3952 91.8286 45.7047 92.2143 46.5333 92.2857C47.3666 92.3524 47.7381 92.019 47.7857 91.4238Z" fill="white"/>
<path d="M51.119 92.0476C51.1333 92.3333 51.4238 92.5048 52.3143 92.4571C53.1286 92.4143 53.3238 92.2762 53.3095 92.0619C53.2952 91.8143 53.1428 91.781 52.1333 91.7667C50.7571 91.7429 50.1333 91.5 50.0952 90.7476C50.0571 90.0429 50.8047 89.681 51.9762 89.6238C53.2809 89.5571 54.0524 89.9095 54.119 90.6619L53.0952 90.7143C53.0809 90.4143 52.7476 90.3191 51.9857 90.3571C51.2666 90.3952 51.1095 90.5238 51.119 90.7048C51.1285 90.9143 51.2952 90.9714 52.219 91C53.4666 91.0286 54.2809 91.0714 54.3285 91.9619C54.3714 92.8286 53.5857 93.1238 52.3809 93.1857C51.0095 93.2571 50.1762 92.9857 50.0857 92.0952L51.1143 92.0429L51.119 92.0476Z" fill="white"/>
<path d="M55.7428 92.0429L56.6809 91.9048L56.7857 92.6333L55.8476 92.7714L55.738 92.0429H55.7428Z" fill="white"/>
<path d="M59.4809 88.5381C60.6952 88.2429 61.5095 88.5952 61.8143 89.419L60.8 89.6667C60.6619 89.3762 60.2905 89.2 59.6809 89.3476C58.9762 89.5191 58.719 89.9476 58.8571 90.5286C59 91.1095 59.4333 91.3762 60.1333 91.2048C60.7428 91.0571 60.9905 90.7238 60.9762 90.3952L61.9905 90.1476C62.1 91.0238 61.5428 91.719 60.3286 92.0143C59.0047 92.3381 58.1286 91.9 57.8524 90.7714C57.5762 89.6476 58.1524 88.8619 59.4762 88.5381H59.4809Z" fill="white"/>
<path d="M63.1523 89.3952C62.738 88.3476 63.219 87.4476 64.5476 86.9238C65.8714 86.4 66.8428 86.7333 67.2523 87.7762C67.6666 88.8238 67.1857 89.7333 65.8618 90.2571C64.5333 90.7809 63.5666 90.4476 63.1523 89.3952ZM66.2999 88.1524C66.0857 87.6048 65.638 87.3905 64.8571 87.7C64.0809 88.0048 63.8952 88.4619 64.1142 89.0143C64.3333 89.5714 64.7857 89.7809 65.5571 89.4762C66.3333 89.1714 66.519 88.7048 66.2999 88.1524Z" fill="white"/>
<path d="M69.3381 88.6905L67.6333 85.7571L68.9571 84.9857L71.1095 86.3381L70.9952 83.8L72.319 83.0286L74.0238 85.9619L73.1762 86.4524L71.9428 84.3286L72.0762 87.0952L71.2904 87.5524L68.9524 86.0714L70.1904 88.1952L69.3381 88.6905Z" fill="white"/>
<path d="M23.019 81.8381C13.9952 74.181 8.26666 62.7571 8.26666 50C8.26666 37.2429 14.3 25.2143 23.7381 17.5619" stroke="#AA182C" stroke-miterlimit="10"/>
<path d="M76.2667 17.5667C85.7048 25.219 91.7333 36.9048 91.7333 50C91.7333 63.0952 86.0048 74.1857 76.9809 81.8429" stroke="#AA182C" stroke-miterlimit="10"/>
</g>
<defs>
<clipPath id="clip0_1124_15576">
<rect width="100" height="100" fill="white"/>
</clipPath>
</defs>
</svg>
