<svg xmlns="http://www.w3.org/2000/svg" width="411.113" height="413.447" viewBox="0 0 411.113 413.447">
  <g id="letter-logo-design-template-creative-modern-trendy-typography_196200-108" transform="translate(-207.5 619.789)">
    <path id="Path_32775" data-name="Path 32775" d="M430.5-619c54.2,5,103.4,30.1,138.3,70.5,25.2,29.3,39.7,59.8,47.9,101,2.5,12.7,2.6,55.8,0,69.1-4.5,23.8-12.6,46.7-23.3,65.9-9.5,16.9-27.6,40.8-29.4,38.8-.5-.4-11-19.7-23.5-42.8S506.2-379.9,492-406c-40.2-74.1-70.3-129.8-74.5-137.8-2.2-3.9-4.2-7.2-4.5-7.2s-8.9,15.6-19.3,34.8C318.6-377.1,262.3-273.8,261.5-273.6c-1.4.2-12.8-13.8-19.9-24.4-15.8-23.6-25.7-47.8-31.8-78.3-2-9.9-2.3-14.1-2.3-36.7,0-27.5.6-32.1,6.5-54.6,11.2-42.2,37.2-81.2,73-109.1C327-607.9,380.4-623.6,430.5-619Zm3,255.7c10.9,20.3,31.4,58.2,45.6,84.3s26,48.2,26.4,49.1c1.3,3.4-29.3,15-51,19.4-35.7,7.3-73.7,4.9-107-6.5-11.7-4.1-27.5-10.8-27.5-11.8,0-.9,92.5-171.2,93-171.2C413.3-400,422.5-383.5,433.5-363.3Z" fill="#ae22b0"/>
  </g>
</svg>
