<svg xmlns="http://www.w3.org/2000/svg" id="Layer_2" viewBox="0 0 210 210"><g id="Layer_1-2"><g><g><circle cx="105" cy="105" r="105" fill="#00205c"></circle><path d="M105,5.32c54.96,0,99.68,44.72,99.68,99.68s-44.72,99.68-99.68,99.68S5.32,159.96,5.32,105,50.04,5.32,105,5.32m0-5.32C47.01,0,0,47.01,0,105s47.01,105,105,105,105-47.01,105-105S162.99,0,105,0h0Z" fill="#ea0029"></path></g><g><g><g><path d="M147.71,65.24l-.99,.35c-.05,.02-5.44,1.91-14.69,1.91-8.57,0-17.58-1.57-26.78-4.66l-.24-.08-.24,.08c-9.2,3.09-18.22,4.66-26.79,4.66-9.25,0-14.64-1.89-14.7-1.91l-.99-.35v38.38c0,24.2,11.53,40.62,21.21,50.13,10.47,10.3,21.11,14.95,21.21,15l.29,.13,.29-.13c.11-.05,10.74-4.7,21.2-15,9.67-9.52,21.2-25.94,21.2-50.13v-38.38Z" fill="#8c9091"></path><polygon points="98.33 61.5 105.01 57.11 111.67 61.5 109.18 53.87 115.27 49.07 107.6 49.07 105.01 41.13 102.4 49.07 94.74 49.07 100.83 53.87 98.33 61.5" fill="#8c9091"></polygon><polygon points="76.3 61.5 82.98 57.11 89.66 61.5 87.15 53.87 93.25 49.07 85.58 49.07 82.98 41.13 80.38 49.07 72.71 49.07 78.81 53.87 76.3 61.5" fill="#8c9091"></polygon><polygon points="120.35 61.5 127.03 57.11 133.7 61.5 131.2 53.87 137.29 49.07 129.63 49.07 127.04 41.13 124.43 49.07 116.76 49.07 122.86 53.87 120.35 61.5" fill="#8c9091"></polygon></g><g><path d="M105.01,63.54c-25.65,8.61-41.98,2.74-41.98,2.74v37.33c0,46.34,41.98,64.45,41.98,64.45,0,0,41.96-18.11,41.96-64.45v-37.33s-16.31,5.87-41.96-2.74" fill="#00205c"></path><polygon points="113.13 49.81 107.06 49.81 105.01 43.51 102.94 49.81 96.87 49.81 101.7 53.61 99.7 59.71 105.01 56.22 110.31 59.71 108.31 53.61 113.13 49.81" fill="#00205c"></polygon><polygon points="91.11 49.81 85.04 49.81 82.98 43.51 80.91 49.81 74.84 49.81 79.67 53.61 77.67 59.71 82.98 56.22 88.29 59.71 86.28 53.61 91.11 49.81" fill="#00205c"></polygon><polygon points="135.16 49.81 129.09 49.81 127.03 43.51 124.97 49.81 118.9 49.81 123.73 53.61 121.72 59.71 127.03 56.22 132.34 59.71 130.34 53.61 135.16 49.81" fill="#00205c"></polygon><path d="M105.01,66.78c-23.81,7.99-38.95,3.16-38.95,3.16v34.03c0,43.01,38.95,59.82,38.95,59.82,0,0,38.95-16.81,38.95-59.82v-34.03s-15.15,4.83-38.95-3.16m36.65,37.27c0,41.02-36.65,57.05-36.65,57.05,0,0-36.66-16.04-36.66-57.05v-31.36c20.62,3.56,36.66-3.43,36.66-3.43,0,0,16.03,6.99,36.65,3.43v31.36Z" fill="#ea0029"></path><g><g><path d="M79.61,92.3c-.15,.19-.3,.29-.47,.29-.09,0-.16-.03-.22-.1l-1.92-2.5c-.07-.07-.1-.17-.1-.3,0-.19,.06-.36,.17-.51l4.4-5.77c.11-.15,.27-.27,.49-.38,.22-.1,.43-.15,.62-.15h3.5c.26,0,.39,.09,.39,.27,0,.08-.04,.17-.1,.27l-6.76,8.89Z" fill="#d9d8d6"></path><path d="M97.83,82.89c.27,0,.41,.09,.41,.27,0,.08-.03,.17-.1,.27l-3.64,4.78c-.11,.15-.27,.27-.49,.38-.22,.1-.42,.16-.6,.16h-9.79c-.27,0-.41-.09-.41-.27,0-.08,.04-.17,.1-.26l3.64-4.78c.11-.15,.27-.27,.49-.38,.22-.1,.42-.16,.6-.16h9.79Zm-5,1.06c.07-.1,.1-.18,.1-.27,0-.18-.13-.26-.39-.26-.19,0-.4,.05-.62,.16-.22,.1-.38,.23-.49,.38l-2.83,3.72c-.07,.1-.11,.18-.11,.27,0,.18,.13,.27,.39,.27,.19,0,.4-.05,.62-.16,.22-.1,.38-.23,.49-.38l2.83-3.72Z" fill="#d9d8d6"></path><path d="M109.52,82.89c.27,0,.41,.09,.41,.27,0,.08-.04,.17-.12,.27l-3.63,4.78c-.12,.15-.28,.27-.49,.38-.21,.1-.42,.16-.61,.16h-3.5c-.27,0-.41-.09-.41-.27,0-.08,.04-.17,.12-.26l3.22-4.25c.08-.1,.12-.18,.12-.27,0-.18-.13-.26-.41-.26-.19,0-.4,.05-.61,.16-.21,.1-.38,.23-.49,.38l-3.22,4.25c-.12,.15-.28,.27-.49,.38-.22,.1-.42,.15-.61,.15h-3.5c-.27,0-.41-.09-.41-.27,0-.08,.04-.17,.12-.26l6.76-8.9c.15-.19,.3-.29,.47-.29,.09,0,.15,.03,.2,.1l1.94,2.5c.06,.07,.09,.17,.09,.3,0,.18-.06,.35-.17,.51-.06,.07-.09,.14-.09,.21,0,.17,.14,.25,.44,.25h4.9Z" fill="#d9d8d6"></path><path d="M121.26,82.89c.27,0,.41,.09,.41,.27,0,.08-.04,.17-.1,.27l-3.64,4.78c-.11,.15-.27,.27-.49,.38-.22,.1-.42,.16-.6,.16h-9.8c-.27,0-.41-.09-.41-.27,0-.08,.03-.17,.1-.26l3.65-4.78c.11-.15,.27-.27,.49-.38,.22-.1,.42-.16,.6-.16h9.79Zm-5,1.06c.07-.1,.1-.18,.1-.27,0-.18-.13-.26-.39-.26-.19,0-.4,.05-.62,.16-.22,.1-.38,.23-.49,.38l-2.83,3.72c-.07,.1-.1,.18-.1,.27,0,.18,.13,.27,.39,.27,.2,0,.4-.05,.62-.16,.22-.1,.38-.23,.49-.38l2.83-3.72Z" fill="#d9d8d6"></path><path d="M132.94,82.89c.27,0,.41,.09,.41,.27,0,.08-.04,.17-.12,.27l-.8,1.06c-.11,.15-.27,.27-.49,.38-.22,.1-.42,.15-.62,.15h-3.5c-.26,0-.39-.09-.39-.27,0-.08,.03-.17,.1-.27l.41-.53c.07-.1,.1-.18,.1-.27,0-.18-.14-.26-.41-.26-.19,0-.39,.05-.61,.16-.22,.1-.38,.23-.49,.37l-3.24,4.24c-.11,.15-.27,.28-.49,.38-.22,.1-.42,.16-.62,.16h-3.49c-.26,0-.39-.09-.39-.27,0-.08,.03-.17,.1-.26l3.63-4.78c.11-.15,.28-.27,.49-.38,.21-.1,.42-.16,.61-.16h9.79Z" fill="#d9d8d6"></path></g><path d="M86.54,77.56c.07,.67,.06,1.35,.12,2.03,.72,.19,1.43,.38,2.14,.6-.68,.26-1.4,.43-2.09,.65,.03,.67,.06,1.35,.1,2.02-.51-.52-.94-1.1-1.45-1.62-.71,.22-1.41,.44-2.13,.63,.42-.55,.85-1.1,1.26-1.66-.47-.54-.95-1.06-1.39-1.62,.73,.19,1.45,.4,2.18,.6,.42-.54,.83-1.1,1.26-1.64Z" fill="#d9d8d6"></path></g><g><path d="M132.11,78.52c-.3,0-.58,.12-.77,.32-.2,.2-.32,.47-.32,.77,0,.3,.12,.58,.32,.77,.2,.2,.47,.32,.77,.32,.3,0,.58-.12,.77-.32,.2-.2,.32-.47,.32-.77,0-.3-.12-.58-.32-.77-.2-.2-.47-.32-.77-.32Zm.38,1.86v-.02c-.04-.06-.07-.19-.12-.39-.02-.1-.05-.17-.1-.21-.04-.04-.1-.06-.18-.06h-.15v.68h-.28v-1.62h.03c.11-.03,.26-.04,.4-.04,.22,0,.37,.04,.48,.14,.09,.08,.14,.2,.14,.33,0,.19-.11,.33-.25,.4,.09,.06,.15,.17,.18,.31,.05,.22,.09,.37,.12,.42l.03,.06h-.3Z" fill="none"></path><path d="M132.34,79.4c.05-.04,.08-.11,.08-.19,0-.09-.03-.15-.08-.19-.05-.04-.14-.06-.24-.06-.07,0-.13,0-.16,0v.5h.17c.1,0,.18-.03,.23-.07Z" fill="none"></path><path d="M132.64,79.91c-.03-.14-.09-.25-.18-.31,.14-.07,.25-.21,.25-.4,0-.13-.05-.25-.14-.33-.11-.1-.26-.14-.48-.14-.14,0-.29,.01-.4,.03h-.03v1.63h.28v-.68h.15c.09,0,.14,.02,.18,.06,.04,.04,.07,.11,.1,.21,.04,.2,.08,.33,.11,.39v.02h.31l-.03-.06s-.07-.2-.12-.42Zm-.7-.93s.09,0,.16,0c.1,0,.18,.02,.24,.06,.05,.04,.08,.1,.08,.19,0,.08-.03,.14-.08,.19-.05,.04-.13,.07-.23,.07h-.17v-.5Z" fill="#d9d8d6"></path><path d="M132.99,78.73c-.23-.23-.54-.37-.89-.37-.35,0-.66,.14-.89,.37-.23,.23-.37,.54-.37,.89,0,.35,.14,.66,.37,.89,.23,.23,.54,.37,.89,.37,.35,0,.66-.14,.89-.37,.23-.23,.37-.54,.37-.89,0-.35-.14-.66-.37-.89Zm-.11,1.66c-.2,.2-.47,.32-.77,.32-.3,0-.58-.12-.77-.32-.2-.2-.32-.47-.32-.77,0-.3,.12-.58,.32-.77,.2-.2,.47-.32,.77-.32,.3,0,.58,.12,.77,.32,.2,.2,.32,.47,.32,.77,0,.3-.12,.58-.32,.77Z" fill="#d9d8d6"></path></g><g><path d="M109.76,94.12c1.76,.46,3.31,1.34,4.77,2.55-.15-.37-.25-.63-.36-.89,.05-.06,.1-.12,.14-.18,.56,.26,1.14,.49,1.69,.78,.57,.3,1.11,.66,1.66,1-3.86-3.85-9.25-4.76-13.25-3.27,1.79-.43,3.57-.45,5.35,.01Z" fill="none"></path><path d="M124.24,108.99c-.61-.6-1.23-1.18-1.95-1.61-1.97,1.38-3.9,2.74-5.82,4.1-.08,.05-.18,.12-.2,.19-.18,.83-.84,1.24-1.48,1.62-1.01,.61-1.85,1.35-2.52,2.34-.43,.63-1.03,1.16-1.66,1.84,.31-.1,.5-.13,.65-.21,.99-.5,2-.96,2.94-1.54,1.83-1.14,3.71-2.19,5.64-3.15-.66-.6-1.33-1.21-2.08-1.9,1.18,.19,2.23,.72,3.02,1.44,1.13-.55,2.28-1.06,3.44-1.55,.46-.19,.93-.39,1.4-.58-.03-.57-.09-1.15-.23-1.73,.33,.45,.65,.9,1.01,1.4,.07-.03,.14-.06,.21-.09-.27-.67-.7-1.16-1.23-1.6-.27-.23-.51-.54-.66-.86-.17-.36-.33-.73-.48-1.1-.33,.24-.67,.47-1,.71,.43,.7,.79,1.44,1,2.28Z" fill="none"></path><path d="M93.2,106.92c-.15,0-.27,.12-.27,.27,0,.06,.02,.12,.06,.17-.05,.01-.08,.06-.08,.11,0,.06,.05,.11,.11,.11s.11-.05,.11-.11c0,0,0,0,0-.01,.02,0,.05,.01,.07,.01,.15,0,.27-.12,.27-.27s-.12-.27-.27-.27Z" fill="none"></path><path d="M127.49,115.61s0,.05-.01,.08c.97-.11,1.94-.22,2.92-.3-.33-1.04-.63-1.97-.93-2.91-.22,.05-.37,.06-.5,.11-.42,.14-.83,.27-1.25,.4,.12,.86,.08,1.73-.22,2.62Z" fill="none"></path><path d="M113.27,104.8c.15,0,.28-.12,.28-.27s-.12-.27-.28-.27-.27,.12-.27,.27c0,.06,.02,.12,.05,.16-.05,.01-.08,.06-.08,.11,0,.06,.05,.11,.11,.11s.11-.05,.11-.11h0s.05,0,.07,0Z" fill="none"></path><path d="M127.14,111c.18,.44,.33,.89,.44,1.34,.53-.17,1.06-.35,1.59-.52-.24-.49-.53-1.03-.78-1.59-.19-.45-.42-.5-.87-.3-.17,.08-.35,.16-.52,.23,0,.03,0,.06,0,.08-.01,.25,.04,.52,.14,.76Z" fill="none"></path><path d="M85.29,116.4c0,.26,0,.52,0,.78,1.95,.19,3.9,.45,5.84,.79,.37,.06,.79,.34,1.09-.19,.02-.04,.24,.03,.37,.07,.72,.21,1.44,.44,2.16,.63,.64,.16,1.3,.28,1.95,.42,.02-.04,.03-.08,.05-.12-.05-.04-.11-.09-.16-.13-.93-.73-1.85-1.47-2.78-2.2-.14-.11-.31-.22-.48-.27-2.01-.6-4.02-1.2-6.04-1.8-.52,.4-1.05,.8-1.58,1.2-.3,.22-.42,.44-.42,.82Z" fill="none"></path><path d="M85.87,119.67c2.45-.04,4.89,0,7.34,.17-.44-.52-1.43-.22-1.43-1.13-.07-.03-.1-.05-.14-.05-2.09-.21-4.18-.41-6.27-.61,.07,.52,.2,1.03,.44,1.52,.02,.04,.04,.07,.06,.11Z" fill="none"></path><path d="M92.22,120.85c.25-.09,.56-.06,.84-.06,.93,0,1.86,0,2.79,0,.01-.03,.02-.06,.03-.09-.63-.12-1.26-.34-1.89-.35-2.57-.03-5.13-.02-7.7,0,.52,.7,1.18,1.2,2.01,1.48,1.08-.15,2.17-.28,3.25-.38,.19-.26,.41-.49,.68-.59Z" fill="none"></path><path d="M80.82,118.48c.03-.29,.06-.58,.1-.87-.64-.06-1.28-.13-1.91-.19-.12-.01-.34,.13-.36,.22-.12,.76-.2,1.52-.31,2.38,.84-.06,1.68-.11,2.51-.16-.07-.46-.07-.92-.03-1.38Z" fill="none"></path><path d="M83.9,118.48c-.17-.2-.3-.41-.41-.62-.17-.02-.33-.03-.5-.05,.32,.46,.35,1.02,.24,1.58-.02,.12-.05,.24-.08,.36,.36-.01,.71-.03,1.07-.04,.04-.42-.08-.95-.32-1.23Z" fill="none"></path><path d="M84.05,120.35c-.36,0-.71,.02-1.07,.02-.14,.47-.3,.93-.47,1.38-.22,.58-.49,.56-.87,.05-.32-.43-.54-.9-.67-1.38-.71,.03-1.41,.05-2.12,.08-.18,0-.5,.18-.5,.27,0,.97,.06,1.93,.1,2.96,1.59-.39,3.16-.75,4.73-1.06,.02-.18,.09-.37,.15-.54,.22-.61,.52-1.19,.72-1.8Z" fill="none"></path><path d="M125.44,113.73c-.27,.09-.55,.18-.82,.26,0,.31-.02,.63-.08,.98,.42,.28,.71,.61,.9,.98,.33-.05,.66-.09,.99-.13-.18-.48-.42-.95-.74-1.39-.17-.23-.24-.45-.25-.69Z" fill="none"></path><path d="M83.17,115.3c.02-.35,.1-.7,.08-1.05-.01-.36,.02-.7,.07-1.04-.27-.08-.53-.16-.8-.24-.09,1.32-.12,2.65-.17,3.97,.28,.02,.57,.04,.85,.06-.09-.55-.06-1.12-.04-1.7Z" fill="none"></path><path d="M123.57,104.54c-.49-.86-1.27-.95-2.07-.34,.47,.68,.97,1.34,1.44,2.03,.37-.23,.74-.47,1.11-.69-.15-.34-.3-.67-.48-.99Z" fill="none"></path><path d="M127.8,109.07c-.4-.5-.79-.98-1.18-1.46,.2,.58,.33,1.18,.37,1.8,.26-.11,.53-.22,.81-.34Z" fill="none"></path><path d="M125.68,118.43c-.3,2.09-1.21,3.97-2.2,5.81-.11,.21-.23,.42-.39,.71,.11-.04,.16-.04,.19-.07,1.53-1.67,2.78-3.5,3.3-5.75,.22-.94,.23-1.85,.02-2.71-.31,.05-.63,.09-.94,.14,.14,.58,.11,1.22,.01,1.87Z" fill="none"></path><path d="M107.76,101.54c-.48-1.24-1.16-2.34-2.38-3.03-.05,.04-.11,.07-.16,.11,.62,.93,1.2,1.88,1.87,2.77,.22,.29,.4,.59,.55,.91,0-.25,.04-.5,.11-.75Z" fill="none"></path><path d="M80.68,112.42c-.28-.08-.46-.03-.56,.26-.41,1.25-.84,2.49-1.25,3.73-.03,.09,0,.21,.01,.34,.23,.02,.44,.04,.64,.05,.49,.02,.98,.04,1.47,.06,.17-1.4,.36-2.79,.55-4.18-.29-.09-.58-.17-.87-.26Z" fill="none"></path><path d="M121.61,118.44c.08-.43,.11-.86,.2-1.25-.16,.03-.33,.05-.49,.08,.11,.38,.21,.77,.3,1.17Z" fill="none"></path><path d="M122.31,112.27c-.15,.07-.29,.13-.44,.2,.16-.05,.31-.12,.44-.2Z" fill="none"></path><path d="M123.06,113.82c-.21-.41-.6-.48-.99-.4-.61,.13-1.12-.03-1.58-.34-.32,.14-.64,.29-.96,.43,.31,.38,.57,.78,.8,1.2,.91-.3,1.83-.6,2.74-.9Z" fill="none"></path><path d="M122.78,115.42c.16-.19,.31-.59,.36-.95-.84,.27-1.68,.55-2.52,.83,.21,.45,.38,.92,.53,1.4,.29-.06,.59-.11,.89-.17,.19-.4,.46-.77,.74-1.11Z" fill="none"></path><path d="M115.56,117.01c-1.27,.45-2.39,1.35-3.57,2.04,.03,.09,.07,.18,.1,.27,2.52-.95,5.07-1.7,7.67-2.3-.02-.47-.06-.93-.12-1.4-1.36,.45-2.73,.91-4.08,1.39Z" fill="none"></path><path d="M117.95,114.23c-.93,.42-1.84,.92-2.77,1.39,.14,.3,.25,.54,.32,.69,1.35-.45,2.69-.89,4.04-1.33-.07-.45-.17-.89-.29-1.34-.44,.2-.87,.39-1.31,.59Z" fill="none"></path><path d="M124.58,113.32c.3-.1,.6-.2,.9-.3,.08-.75,.15-1.5,.16-2.26-.62,.28-1.23,.56-1.85,.83,.43,.42,.69,1,.78,1.72Z" fill="none"></path><path d="M77.1,130.17c-.5-1.44-.71-3.03-.55-4.84-.21,.06-.42,.12-.62,.19-.21,.06-.43,.13-.66,.2-.01-.27-.03-.51-.04-.81-.51,.1-1.01,.2-1.5,.3,.87,2.38,1.88,4.61,2.99,6.72,.12-.57,.24-1.13,.36-1.7,0-.02,.01-.04,.03-.06Z" fill="none"></path><path d="M75.3,124.28c.18-1.19,.3-2.38,.45-3.66-1.15,.05-2.3,.1-3.45,.16,.41,1.47,.86,2.9,1.37,4.28,.39-.11,.77-.22,1.15-.35,.19-.07,.46-.26,.48-.43Z" fill="none"></path><path d="M76.15,119.2c.16-.63,.35-1.26,.54-1.94-1.79-.1-3.55-.2-5.3-.3,.25,1.25,.55,2.46,.87,3.64,.87-.1,1.74-.19,2.62-.29,1.02-.11,1.01-.1,1.28-1.12Z" fill="none"></path><path d="M129.69,135.28c-.14-1.21-.44-2.38-1.11-3.49-.88,1.11-2.08,1.59-3.31,2.01-.37,.13-.76,.2-1.13,.34-.13,.05-.31,.23-.31,.36-.13,2.65-.99,5.07-2.11,7.44-.1,.2-.12,.47-.08,.69,.25,1.63,.23,3.18-.13,4.65,2.83-2.73,5.68-5.97,8.26-9.77,.03-.73,.01-1.48-.08-2.23Z" fill="#d9d8d6" fill-rule="evenodd"></path><path d="M102.3,154.41c-1.21-.66-2.32-1.54-3.35-2.46-1.46-1.3-2.47-2.97-3.4-4.68-.21-.39-.42-.85-.75-1.11-1.87-1.49-3.28-3.34-4.55-5.34-.43-.67-.94-1.31-1.51-1.87-.23-.23-.71-.26-1.07-.27-.59-.01-1.2,.17-1.77,.08-1.65-.27-3.05-1.13-4.42-2.04-.29-.19-.57-.39-.85-.58,.72,1.29,1.61,2.39,2.84,3.22,1.15,.78,2.32,1.54,3.37,2.44,3.92,3.4,6.97,7.52,9.65,11.93,.08,.13,.15,.26,.23,.39,2.1,1.46,3.94,2.57,5.35,3.36h3.25c-.62-1.4-1.64-2.34-3-3.08Z" fill="#d9d8d6" fill-rule="evenodd"></path><path d="M115.62,143.62c-.59,2.05-2.12,3.08-4.07,3.56-.87,.22-1.78,.26-2.67,.41-1.28,.22-2.54,.57-3.82,.67-1.85,.15-3.64-.15-4.93-1.66-.52-.61-.83-1.38-1.21-2.04-.96,1.89-.4,4.58,1.42,5.95,2.26,1.7,4.92,2.19,7.64,1.98,2.38-.18,4.49-1.31,6.45-2.65,.52-.36,.99-.81,1.41-1.29,1.51-1.71,1.64-4.17,.03-6.41-.08,.48-.11,.99-.25,1.46Z" fill="#d9d8d6" fill-rule="evenodd"></path><path d="M102.35,145.54c.71,.73,1.2,.75,2.02,.12,.11-.08,.29-.2,.36-.17,.66,.37,.96,.01,1.12-.45,.28-.02,.51,.02,.68-.06,.17-.09,.2-.38,.53-.24,.11,.05,.35-.19,.47-.26,.24,.01,.44,.02,.63,.03,.1,0,.24-.03,.29,.02,.36,.35,.68,.19,.87,.03,.43,.09,.74,.26,.94,.17,.25-.12,.41-.45,.61-.68,.97,1,1.6,.89,2.19-.39,.1-.22,.22-.45,.24-.69,.1-1.08,.19-2.16,.23-3.24,.01-.27-.16-.55-.24-.82-.24,.18-.57,.3-.72,.54-.76,1.2-1.48,2.42-2.23,3.66-1.15,.23-2.41,.49-3.66,.74,0,.05,.01,.09,.02,.14-.24-.13-.48-.26-.73-.4-.15,.17-.28,.3-.41,.44-.49-.25-1.01-.42-1.42-.74-1.1-.85-2.15-1.76-3.22-2.65-.25-.21-.47-.2-.51,.16-.05,.37-.08,.75-.04,1.12,.18,1.45,.97,2.58,1.96,3.6Z" fill="#d9d8d6" fill-rule="evenodd"></path><path d="M99.25,135.16c.44-.61,.5-1.16,.5-1.72-.02-2.27-.07-4.55-.1-6.82-.01-.85-.37-1.09-1.18-.78-.16,.06-.32,.13-.45,.22-.25,.17-.45,.2-.76,.07-.31-.13-.69-.09-1.16-.13,.13,.48,.19,.75,.28,1.02,.78,2.41,1.56,4.82,2.36,7.22,.1,.3,.32,.55,.54,.92Z" fill="#d9d8d6" fill-rule="evenodd"></path><path d="M111.65,129.3c.26,.8,.4,1.64,.64,2.45,.1,.33,.29,.63,.45,.94,.11-.02,.22-.04,.33-.06,.61-2.82,.39-5.69,.49-8.65-1.16,.68-2.27,.25-3.5,.14,.11,.54,.15,.99,.29,1.4,.42,1.26,.91,2.51,1.31,3.77Z" fill="#d9d8d6" fill-rule="evenodd"></path><path d="M101.47,128.33c.14,.03,.35-.14,.49-.27,.19-.18,.33-.4,.53-.65,.64,.85,1.48-.27,2.16,.3,.01,.01,.15-.17,.24-.21,.2-.08,.41-.14,.62-.17,.12-.02,.31,.11,.37,.06,.42-.37,.82-.19,1.2,.03,.21-.19,.39-.35,.59-.53,.28,.19,.54,.36,.8,.54,.26,.18,.47,.09,.5-.19,.08-.79,.11-1.58,.16-2.42-.95,.14-1.37,.8-1.85,1.37-.32,.06-.6,.18-.89,.29-.11,.04-.23,.04-.35,.06-.35,.05-.69,.09-1.04,.14-.37,0-.76-.22-1.13,.18-.04,.04-.16,.03-.25,.02-.4-.04-.8-.09-1.33-.15-.35-.48-.92-.89-1.76-.85,.2,.71,.36,1.36,.57,2.01,.05,.18,.2,.42,.35,.45Z" fill="#d9d8d6" fill-rule="evenodd"></path><path d="M96,153.64c-.28-.36-.55-.72-.84-1.08-2.82-3.54-5.75-6.98-9.32-9.8-1.53-1.21-3.21-2.26-4.43-3.82-.81-1.03-1.58-2.1-2.25-3.22-.39-.64-.51-1.39-.14-2.12-.83-1.04-1.48-2.18-1.91-3.44-.01,.02-.02,.04-.03,.06-.12,.57-.24,1.13-.36,1.7,5.44,10.34,13.25,17.41,19.28,21.72Z" fill="#d9d8d6" fill-rule="evenodd"></path><path d="M95.24,107.61c.09-1.03-.98-1.97-2.39-2.08-1.4-.12-2.61,.63-2.7,1.66-.09,1.03,.98,1.97,2.39,2.08,.06,0,.11,0,.17,0,.77-.45,1.56-.84,2.38-1.17,.08-.16,.13-.32,.15-.5Zm-2.05-.15s-.05,0-.07-.01c0,0,0,0,0,.01,0,.06-.05,.11-.11,.11s-.11-.05-.11-.11c0-.05,.03-.1,.08-.11-.03-.05-.06-.1-.06-.17,0-.15,.12-.27,.27-.27s.27,.12,.27,.27-.12,.27-.27,.27Z" fill="#d9d8d6" fill-rule="evenodd"></path><path d="M113.67,106.92c1.38-.3,2.31-1.37,2.09-2.39-.22-1.01-1.52-1.59-2.9-1.28-1.38,.3-2.31,1.37-2.09,2.38,.07,.3,.24,.56,.47,.77,.74,.18,1.48,.37,2.21,.55,.07-.01,.15-.02,.22-.03Zm-.58-2c-.06,0-.11-.05-.11-.11,0-.05,.03-.1,.08-.11-.04-.05-.05-.1-.05-.16,0-.15,.12-.27,.27-.27s.28,.12,.28,.27-.12,.27-.28,.27c-.02,0-.05,0-.07-.01h0c0,.07-.05,.12-.11,.12Z" fill="#d9d8d6" fill-rule="evenodd"></path><path d="M121.28,112.61c.21-.03,.4-.08,.58-.14,.15-.07,.29-.13,.44-.2,.41-.23,.74-.58,.96-1.08,.2,.11,.38,.25,.53,.41,.62-.28,1.23-.55,1.85-.83,0-.27,0-.54-.02-.81-.47,.2-.94,.39-1.4,.58-1.16,.49-2.31,1-3.44,1.55,.18,.16,.35,.33,.49,.51Z" fill="#d9d8d6" fill-rule="evenodd"></path><path d="M123.1,113.9s-.03-.05-.04-.08c-.91,.3-1.82,.6-2.74,.9,.1,.19,.2,.38,.29,.58,.84-.28,1.68-.55,2.52-.83,.03-.22,.02-.42-.03-.57Z" fill="#d9d8d6" fill-rule="evenodd"></path><path d="M130.62,101.92c-.82,.3-1.57,.72-2.33,1.13-.35,.19-.69,.39-1.03,.58,.08,.1,.17,.19,.25,.29,1.05-.67,2.08-1.34,3.11-2.01Z" fill="#d9d8d6" fill-rule="evenodd"></path><path d="M126.62,109.56c-.07,.03-.14,.06-.21,.09,.13,.17,.26,.36,.39,.55-.05-.23-.11-.44-.19-.63Z" fill="#d9d8d6" fill-rule="evenodd"></path><path d="M124.62,114c.27-.09,.55-.18,.82-.26,0-.11,0-.23,0-.35,.01-.12,.03-.24,.04-.35-.3,.1-.6,.2-.9,.3,.03,.21,.04,.44,.04,.67Z" fill="#d9d8d6" fill-rule="evenodd"></path><path d="M125.67,116.56c.31-.05,.63-.09,.94-.14-.05-.2-.11-.41-.18-.61-.33,.04-.66,.08-.99,.13,.1,.2,.18,.4,.23,.61Z" fill="#d9d8d6" fill-rule="evenodd"></path><path d="M122.03,116.53c-.3,.06-.59,.11-.89,.17,.06,.19,.12,.38,.17,.57,.17-.03,.33-.06,.49-.08,.03-.14,.07-.28,.12-.42,.03-.08,.07-.16,.11-.23Z" fill="#d9d8d6" fill-rule="evenodd"></path><path d="M126.62,107.6c.39,.48,.78,.97,1.18,1.46-.28,.11-.55,.23-.81,.34,.02,.25,.02,.5,0,.76,.18-.08,.35-.16,.52-.23,.44-.2,.67-.15,.87,.3,.24,.56,.54,1.1,.78,1.59-.53,.17-1.06,.35-1.59,.52,.05,.22,.1,.44,.13,.66,.42-.14,.83-.27,1.25-.4,.14-.05,.29-.06,.5-.11,.3,.94,.6,1.87,.93,2.91-.98,.08-1.95,.18-2.92,.3-.03,.14-.03,.28-.03,.43,0,.07,0,.13,0,.19,1-.14,2.01-.28,3.01-.41,.52,2.52,.6,4.96,.25,7.45-1.18,0-1.59-.83-1.9-1.6-.38,.87-.72,1.81-1.19,2.67-1.88,3.4-4.67,5.88-8.09,7.63-1.07,.55-1.8,1.3-2.23,2.35-.39,.95-.68,1.95-.92,2.95-.16,.63-.15,1.3-.22,1.95,.48-.76,.85-1.55,1.31-2.27,.93-1.46,2.2-2.4,3.97-2.7,2.1-.35,4.08-1.06,5.79-2.37,.52-.4,.98-.89,1.47-1.34,.2,.5,.41,1.03,.65,1.63,1.69-1.76,2.95-3.68,3.73-5.89,.87-2.48,.9-4.97-.07-7.5,.49,.03,.91,.05,1.43,.09-.4-1.18-.76-2.27-1.15-3.41,.64-.07,1.22-.13,1.79-.2,.58-.07,1.15-.15,1.73-.23-.16-.07-.31-.08-.46-.07-.7,.03-1.39,.07-2.09,.1q-1.17,.05-1.64-.99c-.12-.26-.25-.51-.38-.76-.25-.49-.5-.98-.78-1.52,1.89-.54,3.7-1.06,5.51-1.58-.15-.07-.28-.06-.41-.03-1.63,.37-3.26,.76-4.9,1.11-.19,.04-.5,.02-.59-.1-.52-.68-.99-1.4-1.52-2.16,2.32-.94,4.6-1.85,6.88-2.77-.02-.05-.05-.1-.07-.14-2.26,.76-4.52,1.51-6.78,2.29-.35,.12-.55,.08-.84-.17-.86-.75-1.76-1.46-2.67-2.16-.05-.04-.12-.08-.18-.12,.17,.33,.32,.64,.47,.95,.1,.21,.18,.43,.26,.65Z" fill="#d9d8d6" fill-rule="evenodd"></path><path d="M112.08,119.32c-.03-.09-.07-.18-.1-.27,1.19-.69,2.3-1.6,3.57-2.04,1.36-.48,2.72-.94,4.08-1.39-.03-.21-.06-.43-.1-.64-1.34,.44-2.68,.88-4.04,1.33-.07-.15-.18-.39-.32-.69,.93-.47,1.83-.97,2.77-1.39,.43-.2,.87-.39,1.31-.59-.06-.21-.11-.42-.18-.63,.16,.16,.31,.33,.45,.51,.32-.14,.64-.29,.96-.43-.11-.08-.22-.16-.33-.25-.1-.09-.21-.19-.31-.28-1.92,.96-3.8,2-5.64,3.15-.94,.58-1.95,1.04-2.94,1.54-.16,.08-.34,.11-.65,.21,.63-.68,1.23-1.21,1.66-1.84,.67-.99,1.51-1.73,2.52-2.34,.63-.38,1.3-.79,1.48-1.62,.02-.08,.12-.14,.2-.19,1.93-1.36,3.86-2.71,5.82-4.1-.2-.12-.42-.23-.64-.33-.97,.64-1.93,1.29-2.88,1.97-1.55,1.11-2.98,2.38-4.79,3.14-1.2,.5-2.26,1.31-3.37,1.97-.27-.91-.83-1.52-1.66-1.76,.03,.39,.06,.78,.08,1.18,.09,2.19-.36,4.12-2.3,5.51-.61,.44-1.02,1.18-1.45,1.83-.24,.37-.18,.85,.19,1.13,1.01,.77,2.11,1.31,3.45,1.05,1.41-.26,2.84-.47,4.25-.04,.8,.24,1.37-.09,1.87-.59,.5-.51,.36-1.1,.06-1.67-.04-.08-.08-.17-.12-.25,.35-.39,.7-.76,1.01-1.16,.27-.34,.42-.71-.32-.96,1.37-.31,2.73-.59,4.09-.84,0-.18,0-.36,0-.54-2.6,.6-5.15,1.35-7.67,2.3Z" fill="#d9d8d6" fill-rule="evenodd"></path><path d="M125.49,105.23c.09-.06,.18-.12,.27-.17-.11,.01-.22,.03-.34,.05,.02,.04,.04,.08,.06,.13Z" fill="#d9d8d6" fill-rule="evenodd"></path><path d="M124.25,106c-.07-.16-.13-.32-.2-.47-.37,.23-.74,.46-1.11,.69,.11,.16,.21,.32,.31,.49,.33-.23,.67-.47,1-.71Z" fill="#d9d8d6" fill-rule="evenodd"></path><path d="M127.47,115.69c-.35,.04-.7,.09-1.05,.13,.07,.2,.13,.4,.18,.61,.27-.04,.55-.08,.83-.12,0-.06,0-.13,0-.19,0-.14,0-.29,.03-.43Z" fill="#d9d8d6" fill-rule="evenodd"></path><path d="M121.15,116.7c-.46,.1-.93,.21-1.39,.31,0,.18,0,.36,0,.54,.52-.1,1.04-.19,1.55-.28-.05-.19-.11-.38-.17-.57Z" fill="#d9d8d6" fill-rule="evenodd"></path><path d="M121.28,112.61c-.15-.18-.32-.35-.49-.51-.32,.15-.63,.3-.94,.46,.1,.09,.21,.19,.31,.28,.11,.09,.22,.18,.33,.25,.46-.21,.92-.41,1.38-.62-.18,.06-.38,.11-.58,.14Z" fill="#d9d8d6" fill-rule="evenodd"></path><path d="M126.81,110.19c-.14-.19-.27-.37-.39-.55-.26,.11-.53,.22-.78,.32,.01,.27,.02,.54,.02,.81,.45-.2,.9-.4,1.35-.61,.01-.26,0-.51,0-.76-.12,.05-.25,.1-.37,.15,.08,.19,.14,.4,.19,.63Z" fill="#d9d8d6" fill-rule="evenodd"></path><path d="M120.33,114.72c-.26,.09-.52,.17-.78,.26,.04,.21,.07,.43,.1,.64,.32-.11,.65-.21,.97-.32-.09-.2-.18-.39-.29-.58Z" fill="#d9d8d6" fill-rule="evenodd"></path><path d="M119.08,113.02c.06,.21,.12,.42,.18,.63,.09-.04,.18-.08,.27-.12-.14-.17-.29-.34-.45-.51Z" fill="#d9d8d6" fill-rule="evenodd"></path><path d="M122.03,116.53c-.04,.08-.08,.15-.11,.23-.05,.14-.09,.28-.12,.42,1.29-.22,2.58-.43,3.86-.62-.05-.21-.12-.42-.23-.61-1.14,.17-2.28,.36-3.41,.58Z" fill="#d9d8d6" fill-rule="evenodd"></path><path d="M124.25,106c.23-.16,.45-.32,.68-.48,.57,.71,1.13,1.39,1.68,2.08-.08-.22-.16-.43-.26-.65-.14-.31-.3-.63-.47-.95-.25-.16-.54-.29-.87-.47,.16-.1,.32-.2,.47-.31-.02-.04-.04-.08-.06-.13,.12-.02,.22-.03,.34-.05,.59-.38,1.17-.75,1.74-1.13-.08-.1-.17-.19-.25-.29-1.08,.61-2.15,1.24-3.21,1.89,.07,.16,.14,.32,.2,.47Z" fill="#d9d8d6" fill-rule="evenodd"></path><path d="M125.44,113.38c-.01,.12-.02,.24,0,.35,.75-.24,1.51-.49,2.27-.73-.03-.22-.07-.44-.13-.66-.7,.23-1.4,.46-2.09,.69-.01,.12-.03,.24-.04,.35Z" fill="#d9d8d6" fill-rule="evenodd"></path><path d="M123.26,111.2c-.22,.5-.55,.84-.96,1.08,.5-.22,.99-.45,1.49-.67-.16-.15-.33-.3-.53-.41Z" fill="#d9d8d6" fill-rule="evenodd"></path><path d="M123.25,106.71c-.1-.16-.2-.33-.31-.49-.43,.27-.85,.55-1.28,.83,.22,.1,.43,.2,.64,.33,.32-.22,.63-.45,.95-.67Z" fill="#d9d8d6" fill-rule="evenodd"></path><path d="M124.58,113.32c-.51,.17-1.01,.33-1.52,.5,.01,.03,.03,.05,.04,.08,.06,.15,.07,.36,.03,.57,.49-.16,.99-.32,1.48-.48,0-.24-.01-.46-.04-.67Z" fill="#d9d8d6" fill-rule="evenodd"></path><path d="M83.21,117c-.28-.02-.57-.04-.85-.06,0,0,0,0,0,.01,0,.13,.05,.33,.14,.39,.21,.14,.37,.3,.49,.47,.17,.02,.33,.03,.5,.05-.14-.28-.23-.57-.28-.86Z" fill="#d9d8d6" fill-rule="evenodd"></path><path d="M83.33,113.2c.03-.22,.08-.43,.14-.64-.3-.08-.59-.16-.89-.24-.02,.21-.04,.42-.05,.64,.27,.08,.53,.16,.8,.24Z" fill="#d9d8d6" fill-rule="evenodd"></path><path d="M75.27,125.72c.23-.07,.45-.14,.66-.2,.2-.06,.41-.12,.62-.19-.15,1.81,.06,3.4,.55,4.84,.02-.04,.06-.08,.12-.18,.65,1.09,1.27,2.13,1.88,3.17,.04,.08,.04,.23,0,.3-.03,.05-.05,.09-.07,.14,1.15,1.46,2.64,2.74,4.34,3.92,.09-.7,.17-1.27,.26-1.93,1.16,1.01,2.45,1.55,3.83,1.74,1.37,.2,2.77,.21,4.15,.3,.49,.03,.99-.04,1.46,.04,1.72,.29,2.92,1.39,4,2.65,.25,.29,.48,.6,.71,.91-.54-2.35-1.58-4.38-3.54-5.84-.21-.16-.52-.22-.78-.28-5.01-1.22-9.27-3.56-12.07-8.06-.23,1.43-.6,1.93-1.61,2.03-.42-1.59-.85-3.19-1.28-4.82,.33-.09,.51-.15,.69-.19,1.38-.24,2.76-.47,4.14-.7-.04-.13-.08-.26-.12-.38-.03-.09-.02-.2,0-.31-1.57,.31-3.14,.67-4.73,1.06-.04-1.03-.1-2-.1-2.96,0-.09,.32-.26,.5-.27,.71-.03,1.41-.06,2.12-.08-.05-.19-.1-.38-.13-.57-.84,.05-1.67,.1-2.51,.16,.11-.86,.19-1.62,.31-2.38,.01-.09,.24-.23,.36-.22,.64,.06,1.28,.13,1.91,.19,.03-.25,.05-.5,.08-.75-.49-.02-.98-.04-1.47-.06-.2,0-.41-.03-.64-.05,0-.13-.04-.25-.01-.34,.41-1.25,.83-2.49,1.25-3.73,.1-.3,.28-.35,.56-.26,.29,.09,.58,.17,.87,.26,.03-.2,.06-.4,.08-.61-.36-.1-.71-.19-1.07-.29,.22-.4,.44-.82,.66-1.23-.19,.05-.34,.12-.43,.23-.66,.93-1.49,.93-2.52,.66-1.3-.34-2.64-.5-3.96-.73,0,.04-.01,.07-.02,.11,1.69,.42,3.38,.85,5.12,1.28-.1,.16-.18,.27-.24,.38-.61,1.04-1.33,2.02-1.78,3.13-.37,.93-.84,1.19-1.81,1.14-1.42-.08-2.84-.05-4.27-.03,.02,.08,.03,.17,.05,.25,1.75,.1,3.51,.2,5.3,.3-.19,.68-.38,1.31-.54,1.94-.26,1.02-.25,1.01-1.28,1.12-.87,.09-1.74,.19-2.62,.29,.02,.06,.03,.12,.05,.18,1.15-.05,2.3-.1,3.45-.16-.15,1.27-.27,2.47-.45,3.66-.02,.17-.29,.36-.48,.43-.38,.13-.76,.24-1.15,.35,.02,.05,.04,.1,.05,.15,.49-.1,.99-.2,1.5-.3,.02,.29,.03,.53,.04,.81Z" fill="#d9d8d6" fill-rule="evenodd"></path><path d="M93.33,116.18c.17,.05,.34,.16,.48,.27,.93,.73,1.85,1.46,2.78,2.2,.05,.04,.11,.09,.16,.13-.02,.04-.03,.08-.05,.12-.65-.14-1.3-.26-1.95-.42-.73-.19-1.44-.42-2.16-.63-.12-.04-.35-.1-.37-.07-.29,.52-.72,.25-1.09,.19-1.94-.34-3.89-.6-5.84-.79,.01,.29,.03,.58,.07,.87,2.09,.2,4.18,.4,6.27,.61,.04,0,.07,.03,.14,.05,0,.92,1,.62,1.43,1.13-2.45-.16-4.89-.21-7.34-.17,.13,.24,.26,.46,.41,.66,2.57-.02,5.13-.02,7.7,0,.63,0,1.26,.22,1.89,.35-.01,.03-.02,.06-.03,.09-.93,0-1.86,0-2.79,0-.28,0-.58-.03-.84,.06-.27,.1-.49,.33-.68,.59-1.08,.1-2.17,.23-3.25,.38,.28,.1,.57,.18,.89,.23,.05,0,.1,.05,.19,.1-.04,.07-.08,.14-.12,.22,.61-.11,1.22-.21,1.84-.32,.88-.16,1.47,.17,2.09,.69-.05,.21-.12,.42-.16,.64-.09,.52,.04,.99,.5,1.29,.5,.31,1.07,.6,1.64,.3,1.27-.67,2.64-.91,4.04-.89,1.31,.02,2.33-.49,3.24-1.34,.67-.62,.75-1.21,.1-1.84-.57-.55-1.23-1.07-1.94-1.43-1.17-.59-1.98-1.45-2.38-2.65-.35-1.03-.55-2.1-.82-3.17,0,0,0,0,0,0-.41,.41-.74,.92-1.1,1.42-.06,.21-.09,.43-.09,.67-.45-.22-.82-.46-1.22-.59-1.34-.44-2.68-.85-4.03-1.25-.45-.13-.74,.05-.71,.51-.73-.2-1.46-.4-2.19-.6-.25,.19-.5,.38-.74,.57,2.01,.6,4.03,1.19,6.04,1.8Z" fill="#d9d8d6" fill-rule="evenodd"></path><path d="M84.22,119.71c-.36,.01-.71,.03-1.07,.04-.05,.21-.1,.42-.16,.63,.36,0,.71-.02,1.07-.02,.05-.16,.1-.32,.14-.48,.01-.05,.02-.11,.03-.16Z" fill="#d9d8d6" fill-rule="evenodd"></path><path d="M86.88,113.5c-.43-.12-.87-.24-1.31-.36,.04,.22,.07,.43,.11,.65,.42-.06,.81-.17,1.19-.3Z" fill="#d9d8d6" fill-rule="evenodd"></path><path d="M72.89,125.28s.01,.06,.02,.09c.27-.05,.55-.11,.82-.16-.02-.05-.04-.1-.05-.15-.26,.07-.53,.15-.79,.22Z" fill="#d9d8d6" fill-rule="evenodd"></path><path d="M82.5,117.34c-.1-.06-.15-.26-.14-.39,0,0,0,0,0-.01-.45-.03-.91-.05-1.36-.08-.03,.25-.05,.5-.08,.75,.69,.07,1.38,.13,2.07,.2-.12-.17-.28-.33-.49-.47Z" fill="#d9d8d6" fill-rule="evenodd"></path><path d="M82.59,112.33c-.32-.09-.63-.17-.95-.26-.03,.2-.06,.4-.08,.61,.33,.1,.65,.19,.98,.29,.01-.21,.03-.43,.05-.64Z" fill="#d9d8d6" fill-rule="evenodd"></path><path d="M83.15,119.75c-.76,.03-1.53,.07-2.3,.11,.03,.19,.07,.38,.13,.57,.67-.02,1.34-.04,2.01-.05,.06-.21,.12-.42,.16-.63Z" fill="#d9d8d6" fill-rule="evenodd"></path><path d="M87.29,114.38c.25-.19,.5-.38,.74-.57-.38-.1-.77-.21-1.16-.32-.38,.13-.77,.24-1.19,.3-.04-.22-.08-.43-.11-.65-.7-.19-1.4-.38-2.1-.57-.06,.21-.1,.42-.14,.64,1.32,.39,2.64,.78,3.95,1.18Z" fill="#d9d8d6" fill-rule="evenodd"></path><path d="M83.49,117.86c.63,.06,1.25,.12,1.88,.18-.04-.29-.06-.57-.07-.87-.69-.07-1.39-.13-2.08-.18,.05,.29,.14,.58,.28,.86Z" fill="#d9d8d6" fill-rule="evenodd"></path><path d="M84.22,119.71c0,.06-.01,.11-.03,.16-.04,.16-.09,.32-.14,.48,.05,0,.11,0,.16,0,.69,0,1.38,0,2.07,0-.15-.21-.29-.43-.41-.66-.55,0-1.1,.02-1.65,.04Z" fill="#d9d8d6" fill-rule="evenodd"></path><path d="M89.37,122.14c-.09-.05-.14-.09-.19-.1-.31-.05-.61-.13-.89-.23-1.7,.24-3.4,.53-5.11,.87-.01,.11-.02,.22,0,.31,.04,.13,.08,.25,.12,.38,1.98-.33,3.95-.68,5.93-1.03,.04-.07,.08-.14,.12-.22Z" fill="#d9d8d6" fill-rule="evenodd"></path><path d="M79.1,133.16c-.61-1.04-1.23-2.08-1.88-3.17-.06,.09-.1,.14-.12,.18,.43,1.26,1.09,2.39,1.91,3.44,.02-.05,.04-.09,.07-.14,.05-.08,.05-.23,0-.3Z" fill="#d9d8d6" fill-rule="evenodd"></path><g><path d="M93.4,105.29c.58,.36,1.1,.83,1.67,1.26,.61-.53,1.18-1.23,2.18-1.13-.24-1.69-.34-3.33,.26-4.95-.33,.3-.65,.6-1.04,.95,.08-1.24,.18-2.38,1.21-3.26-1.05-.09-1.98-.04-2.77,.58-1.06,.83-1.06,2.01-1.02,3.21-.58-.73-1.09-1.46-.58-2.46-1.51,.75-1.78,1.72-.93,3.28-.06,.04-.11,.12-.18,.12-.44,.04-.89,.06-1.39,.09,.08,.31,.17,.62,.25,.93-1.88,.18-3.21,1.12-4.08,2.85,1.27-.03,2.24-.52,3.12-1.29,.27-.24,.62-.43,.96-.53,.82-.24,1.62-.1,2.33,.34Z" fill="#d9d8d6"></path><path d="M81.81,110.82c-.06,.42-.11,.83-.17,1.25,.32,.09,.63,.17,.95,.26,.01-.17,.02-.34,.04-.5,.13-1.26,.52-2.49,1.2-3.51,.42,.23,.8,.43,1.15,.62,.6-.82,1.14-1.56,1.72-2.36-.64,.1-1.23,.19-1.93,.3,.56-.72,1.05-1.35,1.61-2.07-.31,.06-.5,.09-.7,.13,.2-1.39,.95-2.43,1.87-2.7-.27,.5-.56,1.02-.84,1.55,.04,.03,.08,.05,.12,.08,.21-.07,.41-.14,.57-.19,.79,.49,.32,1.16,.28,1.7,.87-.6,1.74-1.2,2.75-1.9h-1.39c.46-.64,.9-1.25,1.35-1.87,.21,.19,.36,.32,.58,.51,.62-2.21,1.95-3.8,3.94-4.8,1.95-.98,4.03-1.33,6.2-1.26v.7c-2.18-.66-4.69,.06-5.88,1.79,1.05-.79,2.11-.69,3.1-.54-.12,.23-.29,.54-.52,.98,.27-.16,.4-.23,.51-.3-.14,.47-.27,.93-.4,1.39,.07,.05,.14,.09,.21,.14,.88-.6,1.76-1.2,2.65-1.81-.09,.34-.23,.65-.45,.89-.77,.83-1.52,1.68-2.36,2.42-.56,.49-.69,1.04-.62,1.7,.05,.5,.12,1.01,.22,1.5,.07,.38-.01,.61-.36,.84-.28,.18-.44,.53-.66,.8,.03,.04,.07,.09,.1,.13,2.41-.6,4.53,.12,6.52,1.44,1.74-1.66,3.7-2.74,6.21-2.6-.3-.34-.56-.59-.76-.88-.05-.08-.11-.16-.17-.24,.54,.18,1.09,.34,1.69,.52,.68-1.77,2.22-2.39,4.11-2.35,.38,0,.77,.15,1.13,.28,.76,.27,1.52,.46,2.33,.17-.51-1.17-1.18-1.51-2.39-1.41-.78,.07-1.57,.01-2.36,.01-.01-.07-.02-.15-.03-.22,.38-.16,.75-.31,1.19-.49-.75-.52-1.41-.03-2.08,.08,.9-1.97,.5-3.17-1.06-3.25,.2,1.03,0,2.22-.54,3.17-.22-1.78-.45-3.53-2.62-3.97h-.45c-.22,.07-.44,.15-.65,.22,.15,.25,.33,.46,.41,.69,.24,.76,.45,1.54,.66,2.31-.41-.91-1.13-1.7-1.78-2.54,.29,.05,.47,.08,.76,.13-.2-.32-.34-.55-.4-.63,.91-.26,1.86-.52,2.8-.79-2.41-1.52-4.72-.95-6.99,.25-.2-.71,.08-1.27,.69-1.38,2.08-.38,4.16-.44,6.21,.1,1.32,.34,2.55,.88,3.66,1.85-.78-.17-1.46-.32-2.14-.47-.02,.06-.05,.13-.07,.19,.43,.19,.85,.45,1.29,.54,.96,.18,1.63,.67,1.97,1.57,.19,.48,.28,1,.42,1.53,.76-.44,.52-1.17,.49-1.85,1.43,.62,1.86,1.34,1.53,2.54,.89,.06,1.25,.8,1.87,1.39,.09-.84,.19-1.68,.29-2.56,1.5,.47,2.51,1.42,2.97,2.98h-1.85c1.4,.94,1.7,2.22,1.32,3.76,.3,.07,.59,.17,.86,.29,.42-.28,.85-.56,1.28-.83-.46-.69-.97-1.35-1.44-2.03,.8-.61,1.58-.52,2.07,.34,.18,.32,.33,.65,.48,.99,1.06-.65,2.13-1.28,3.21-1.89-.64-.75-1.28-1.5-1.98-2.19-1.61-1.59-3.45-2.85-5.67-3.46-.21-.06-.4-.2-.57-.34-1.8-1.44-3.71-2.7-5.87-3.54-3.79-1.48-7.57-1.69-11.32,.14-.14,.07-.33,.08-.48,.06-2.42-.38-4.76-.06-7.04,.81-1.36,.52-2.63,1.2-3.77,2.13,1.66-1.03,3.42-1.83,5.36-2.25-.36,.32-.72,.65-1.08,.97,1.48-.62,2.95-1.03,4.55-.63-3.67,.34-6.78,1.81-9.27,4.57-.05-.03-.1-.06-.15-.09,.11-.56,.23-1.13,.35-1.74-.77,.57-1.53,1.12-2.28,1.67-.05-.05-.09-.1-.14-.15,.58-.49,1.17-.99,1.75-1.48-.05-.07-.11-.14-.16-.21-.77,.47-1.58,.91-2.32,1.43-2.77,1.95-5,4.45-6.92,7.22-.64,.93-1.46,1.49-2.48,1.83-.4,.13-.8,.24-1.3,.39,1.64,1.8,3.62,1.39,5.62,1.13-.1,.34-.23,.63-.27,.94Zm23.58-12.32c1.22,.69,1.9,1.79,2.38,3.03-.07,.25-.11,.5-.11,.75-.15-.31-.33-.61-.55-.91-.67-.89-1.25-1.84-1.87-2.77,.05-.04,.1-.07,.16-.11Zm12.27-1.12c-.55-.34-1.09-.69-1.66-1-.55-.29-1.13-.52-1.69-.78-.05,.06-.1,.12-.14,.18,.1,.26,.21,.52,.36,.89-1.45-1.22-3-2.09-4.77-2.55-1.78-.46-3.57-.44-5.35-.01,4-1.49,9.39-.57,13.25,3.27Z" fill="#d9d8d6"></path><path d="M125.76,105.05c.77-.1,1.5-.2,2.22-.3,.03-.05,.06-.11,.09-.16-.19-.22-.38-.44-.57-.66-.58,.37-1.16,.75-1.74,1.13Z" fill="#d9d8d6"></path><path d="M124.93,105.52c-.23,.16-.46,.32-.68,.48,.15,.37,.31,.74,.48,1.1,.15,.32,.39,.63,.66,.86,.53,.44,.96,.92,1.23,1.6,.12-.05,.25-.1,.37-.15-.04-.62-.17-1.22-.37-1.8-.56-.69-1.11-1.37-1.68-2.08Z" fill="#d9d8d6"></path><path d="M126.59,119.14c-.53,2.24-1.78,4.08-3.3,5.75-.02,.03-.07,.03-.19,.07,.16-.29,.27-.5,.39-.71,.99-1.84,1.9-3.72,2.2-5.81,.09-.65,.12-1.28-.01-1.87-1.29,.19-2.57,.4-3.86,.62-.09,.4-.12,.82-.2,1.25-.09-.4-.19-.78-.3-1.17-.52,.09-1.03,.19-1.55,.28,0,.62-.03,1.24-.1,1.87-.03,.27,.04,.55,.08,.83,.11,.85,.32,1.71,.34,2.56,.09,3.13-.77,6.04-2.06,8.85-.07,.16-.14,.32-.21,.48,.43-.17,.78-.39,1.09-.65,3.1-2.58,5.69-5.64,8.27-8.71,.11-.14,.14-.38,.15-.57,.04-1.97,.07-3.94,.11-5.9-.28,.04-.55,.08-.83,.12,.2,.86,.2,1.77-.02,2.71Z" fill="#d9d8d6"></path><path d="M120.79,112.1c-.78-.72-1.84-1.25-3.02-1.44,.75,.69,1.41,1.31,2.08,1.9,.31-.16,.63-.31,.94-.46Z" fill="#d9d8d6"></path><path d="M125.4,108.24c.14,.58,.2,1.15,.23,1.73,.26-.11,.52-.21,.78-.32-.36-.5-.69-.95-1.01-1.4Z" fill="#d9d8d6"></path><path d="M123.25,106.71c-.32,.22-.64,.45-.95,.67,.72,.43,1.34,1.01,1.95,1.61-.2-.84-.57-1.58-1-2.28Z" fill="#d9d8d6"></path><path d="M124.54,114.97c.05-.35,.07-.67,.08-.98-.49,.16-.99,.32-1.48,.48-.05,.36-.2,.76-.36,.95-.28,.34-.55,.71-.74,1.11,1.13-.22,2.26-.42,3.41-.58-.19-.36-.48-.7-.9-.98Z" fill="#d9d8d6"></path><path d="M125.65,110.77c-.01,.76-.08,1.51-.16,2.26,.7-.23,1.39-.46,2.09-.69-.11-.45-.25-.89-.44-1.34-.1-.23-.15-.51-.14-.76,0-.03,0-.05,0-.08-.45,.2-.9,.41-1.35,.61Z" fill="#d9d8d6"></path><path d="M122.07,113.43c.39-.08,.79-.01,.99,.4,.51-.17,1.01-.33,1.52-.5-.09-.72-.35-1.3-.78-1.72-.5,.22-.99,.45-1.49,.67-.14,.08-.29,.15-.44,.2-.46,.21-.92,.41-1.38,.62,.46,.31,.97,.46,1.58,.34Z" fill="#d9d8d6"></path><path d="M125.44,113.73c.02,.24,.08,.46,.25,.69,.32,.45,.56,.91,.74,1.39,.35-.05,.7-.09,1.05-.13,0-.02,0-.05,.01-.08,.3-.89,.34-1.76,.22-2.62-.75,.24-1.51,.49-2.27,.73Z" fill="#d9d8d6"></path><path d="M121.15,116.7c-.15-.48-.33-.95-.53-1.4-.33,.11-.65,.21-.97,.32,.06,.46,.1,.93,.12,1.4,.46-.11,.93-.22,1.39-.31Z" fill="#d9d8d6"></path><path d="M119.26,113.65c.12,.44,.21,.89,.29,1.34,.26-.09,.52-.17,.78-.26-.23-.42-.49-.82-.8-1.2-.09,.04-.18,.08-.27,.12Z" fill="#d9d8d6"></path><path d="M125.02,105.53c.33,.18,.62,.31,.87,.47-.13-.25-.26-.5-.4-.78-.16,.1-.31,.2-.47,.31Z" fill="#d9d8d6"></path><path d="M83.23,119.39c.11-.56,.08-1.12-.24-1.58-.69-.07-1.38-.14-2.07-.2-.03,.29-.07,.58-.1,.87-.05,.46-.04,.92,.03,1.38,.77-.04,1.53-.08,2.3-.11,.03-.12,.06-.24,.08-.36Z" fill="#d9d8d6"></path><path d="M80.98,120.43c.14,.48,.35,.95,.67,1.38,.38,.51,.64,.53,.87-.05,.17-.45,.33-.91,.47-1.38-.67,.01-1.34,.03-2.01,.05Z" fill="#d9d8d6"></path><path d="M81,116.86c.45,.02,.91,.05,1.36,.08,.06-1.32,.08-2.65,.17-3.97-.33-.1-.65-.19-.98-.29-.2,1.39-.39,2.79-.55,4.18Z" fill="#d9d8d6"></path><path d="M90.82,111.41c-1.31,.72-2.52,1.61-3.94,2.09,.39,.11,.77,.21,1.16,.32,.62-.48,1.25-.96,1.86-1.45,.34-.27,.61-.63,.92-.95Z" fill="#d9d8d6"></path><path d="M88.29,121.82c-.82-.29-1.49-.78-2.01-1.48-.69,0-1.38,0-2.07,0-.05,0-.11,0-.16,0-.2,.61-.5,1.19-.72,1.8-.06,.17-.12,.36-.15,.54,1.71-.34,3.41-.63,5.11-.87Z" fill="#d9d8d6"></path><path d="M83.33,113.2c-.05,.33-.09,.68-.07,1.04,.01,.35-.07,.7-.08,1.05-.03,.58-.05,1.15,.04,1.7,.7,.05,1.39,.11,2.08,.18,0-.26-.01-.52,0-.78,0-.38,.13-.6,.42-.82,.53-.4,1.05-.8,1.58-1.2-1.32-.39-2.64-.78-3.95-1.18Z" fill="#d9d8d6"></path><path d="M91.85,130.65c-.71-1.18-1.21-2.46-1.27-3.88-.04-.96,.17-1.83,.64-2.66-1.07,.72-1.72,1.68-1.7,3.03-.59-1.59-1.18-3.16-.28-4.78-1.98,.35-3.95,.69-5.93,1.03,.14,.44,.32,.88,.59,1.23,.7,.89,1.52,1.69,2.28,2.51-1.6-.48-2.63-1.67-3.47-3.26-.01,.24-.04,.32-.02,.39,.59,2.51,1.94,4.43,4.24,5.69,1.96,1.07,3.87,2.24,5.8,3.38,.52,.31,1,.67,1.5,1.01-.03-.19-.11-.31-.19-.43-.74-1.08-1.53-2.12-2.2-3.24Z" fill="#d9d8d6"></path><path d="M85.87,119.67s-.04-.07-.06-.11c-.24-.49-.37-1-.44-1.52-.63-.06-1.25-.12-1.88-.18,.1,.21,.23,.42,.41,.62,.25,.28,.36,.81,.32,1.23,.55-.02,1.1-.03,1.65-.04Z" fill="#d9d8d6"></path><path d="M87.66,107.28c-.25,0-.58,.04-.74,.2-.67,.68-1.34,1.37-1.91,2.14-.67,.91-1.25,1.87-1.54,2.94,.7,.19,1.4,.38,2.1,.57-.2-1.24-.27-2.46,.49-3.66,.64,1.26,1.38,2.3,2.95,2.14,.85-.09,1.4-.6,1.68-1.27-.54-.68-1.13-1.24-1.47-1.92-.35-.7-.77-1.14-1.55-1.15Z" fill="#d9d8d6"></path><path d="M131.55,130.15c-.46,.7-.91,1.33-1.32,2-.08,.13-.05,.38,.02,.53,.43,.91,.71,1.84,.84,2.82,.74-1.19,1.44-2.42,2.12-3.71-.46-.62-1.01-1.18-1.66-1.64Z" fill="#d9d8d6"></path><path d="M117.33,107.58c-.66-.11-1.36-.05-2.01-.19-.63-.14-1.25-.28-1.88-.44-.73-.18-1.47-.36-2.21-.55-.21-.05-.41-.1-.62-.15-.1,.02-.27,.11-.43,.09-2.69-.38-5.04,.23-6.86,2.37-.02,.03-.07,.03-.06,.03-.7-.35-1.35-.72-2.04-1.01-1.17-.48-2.38-.71-3.64-.37-.83,.23-1.68,.43-2.48,.75,0,0-.01,0-.02,0-.82,.33-1.61,.72-2.38,1.17-.68,.4-1.34,.83-1.99,1.33,2.16,1.27,3.79,3.04,5.42,4.64,.04-.06,.08-.12,.13-.18,.36-.5,.69-1.01,1.1-1.42,0,0,0,0,0,0,.2-.19,.71-.28,.94-.16,2,1.06,4.12,1.11,6.25,.76,1.52-.25,2.82-1.11,4.09-1.94,.39-.25,.65-.24,.98,.05,.45,.41,.93,.79,1.4,1.18,1.68-2.87,4.54-4.08,7.46-5.46-.46-.19-.8-.41-1.17-.47Z" fill="#d9d8d6"></path></g></g><path d="M105.01,69.25c-22.54,7.57-36.88,3-36.88,3v32.22c0,40.72,36.88,56.64,36.88,56.64,0,0,36.87-15.92,36.87-56.64v-32.22s-14.35,4.57-36.87-3m34.7,35.29c0,38.83-34.7,54.02-34.7,54.02,0,0-34.71-15.18-34.71-54.02v-29.69c19.53,3.37,34.71-3.25,34.71-3.25,0,0,15.18,6.62,34.7,3.25v29.69Z" fill="#fff"></path><g><path d="M112.87,90.97h1.82s.8,.02,.95-.2h-1s-.3,0-.3,0c0,0-.04,0-.03-.02l2.37-1.3c.29-.16,0-.14,0-.14h-1.85s-.78-.02-.93,.2h.82s.58,0,.58,0l-2.44,1.33s-.25,.13,0,.13Z" fill="#d9d8d6"></path><path d="M108.45,89.52h.31c.37,0,.54-.19,.54-.19h-1.09s-.69,0-.69,0c0,0-1.21-.03-1.21,.2h.81s.14,0,.14,0l-1.23,1.46h1.17l.98-1.16,.26-.31Z" fill="#d9d8d6"></path><path d="M111.75,89.74c.33-.41-.49-.41-.49-.41h-1.28c-.49-.02-.71,.2-.71,.2l-1.22,1.43h1.18l.52-.61s.02-.01,.08-.01h.2s.04,0,.03,.01l-.52,.61h1.17l.95-1.12,.08-.12Zm-1.21,.03l-.14,.15-.06,.07s-.02,.02-.08,.02h-.19s-.04,0-.03-.02l.03-.03,.17-.19s.02-.01,.08-.01h.2s.04,0,.03,.01Z" fill="#d9d8d6"></path><path d="M122.47,89.49l-1.02,1.2s-.21,.28-.61,.28h-.81l1.21-1.44s-.03-.02-.03-.02h-.2c-.06,0-.08,.02-.08,.02l-1.04,1.23,.76-.91-.71,.83s-.21,.28-.61,.28h-.8l1.21-1.44s-.03-.02-.03-.02h-.2c-.06,0-.08,.02-.08,.02l-1.04,1.23s-.16,.21-.57,.21h-.78l1.22-1.43s.22-.23,.71-.2h3.4s.23,0,.09,.15Z" fill="#d9d8d6"></path><path d="M118.25,89.32h-.75c-.46,0-.7,.33-.7,.33l-1.13,1.33h.79s.4,0,.7-.36l1.09-1.3Z" fill="#d9d8d6"></path><path d="M113.73,89.32h-.75c-.46,0-.7,.33-.7,.33l-.23,.28h.79s.4,0,.7-.36l.19-.25Z" fill="#d9d8d6"></path><path d="M103.57,90.79s-.04,0-.03-.02l1.21-1.45h-.75c-.46,0-.7,.33-.7,.33l-1.13,1.33h1.9s.78,.01,.93-.2h-1.24s-.2,0-.2,0Z" fill="#d9d8d6"></path><path d="M94.04,89.32h-1.46c-.5,0-.7,.3-.7,.3l-1.15,1.36h1.9s.78,.01,.93-.2l.95-1.11c.27-.32-.47-.35-.47-.35Zm-.85,.45l-.52,.61-.06,.07s-.02,.01-.08,.01h-.2s-.04,0-.03-.02l.03-.03,.56-.65s.02-.02,.08-.02h.2s.04,0,.02,.02Z" fill="#d9d8d6"></path><path d="M97.3,89.74c.33-.41-.49-.41-.49-.41h-1.28c-.49-.02-.71,.2-.71,.2l-1.22,1.43h1.18l.52-.61s.02-.01,.08-.01h.2s.04,0,.03,.01l-.52,.61h1.17l.95-1.12,.09-.12Zm-1.21,.03l-.14,.15-.06,.07s-.02,.02-.08,.02h-.19s-.04,0-.03-.02l.03-.03,.17-.19s.02-.01,.08-.01h.19s.04,0,.03,.01Z" fill="#d9d8d6"></path><path d="M102.19,90.77l1.22-1.43h-.78c-.41,0-.57,.21-.57,.21l-1.04,1.23s-.02,.02-.08,.02h-.2s-.04,0-.03-.02l1.2-1.44h-.8c-.4,0-.61,.29-.61,.29l-.71,.83-.09,.12c-.33,.41,.49,.4,.49,.4h1.28c.49,.02,.71-.2,.71-.2Z" fill="#d9d8d6"></path><path d="M99.31,90.25s.36,.03,.51-.1l.27-.29,.1-.12c.36-.46-.5-.41-.5-.41h-1.28c-.49-.02-.71,.2-.71,.2l-1.22,1.43h1.18l.52-.61s.02-.01,.08-.01h.2s.04,0,.03,.01l-.52,.61h1.17l.3-.35c.1-.13,.11-.21,.06-.27,0,0-.01-.06-.19-.1Zm-.38-.47l-.14,.15-.06,.07s-.02,.02-.08,.02h-.2s-.04,0-.03-.02l.03-.03,.17-.19s.02-.01,.08-.01h.2s.04,0,.03,.01Z" fill="#d9d8d6"></path></g></g></g><g><g><g><path d="M64.49,23.81l.85,1.54-4.65,2.57,.73,1.33,4.13-2.28,.84,1.53-4.13,2.28,1.02,1.84-1.81,1-3.44-6.23,6.46-3.57Z" fill="#fff"></path><path d="M76.23,26.51l-1.13-.99-4.06,1.65-.12,1.5-2.06,.84,.72-7.97,2.64-1.07,6.07,5.21-2.05,.83Zm-5.05-1.07l2.6-1.06-2.35-2.05-.25,3.11Z" fill="#fff"></path><path d="M86.83,21.37l-1.23-4.95,1.99-.49,1.71,6.91-2.93,.73-5.3-3.94,1.23,4.95-2,.5-1.71-6.91,2.94-.73,5.3,3.94Z" fill="#fff"></path><path d="M96.85,14.62l8.57-.35,.07,1.75-3.25,.13,.22,5.36-2.06,.08-.22-5.36-3.26,.13-.07-1.75Z" fill="#fff"></path><path d="M107.92,17.84c.2-2.35,1.94-3.6,4.93-3.34,2.98,.26,4.49,1.79,4.29,4.13-.2,2.35-1.95,3.62-4.93,3.36-2.99-.26-4.49-1.79-4.29-4.15Zm7.07,.61c.11-1.23-.53-2.05-2.29-2.2-1.75-.15-2.52,.53-2.62,1.78-.11,1.25,.54,2.07,2.28,2.22,1.75,.15,2.53-.55,2.64-1.79Z" fill="#fff"></path><path d="M129.41,17.57l-4.18,2.13,2.62,4.82-2.53-.57-1.82-3.36-1.99,1.01-.32,1.41-2.01-.46,1.57-6.95,2.02,.45-.7,3.12,4.34-2.29,3.02,.68Z" fill="#fff"></path><path d="M139.29,20.99l-.55,1.52-5-1.81-.39,1.07,4.81,1.74-.55,1.52-4.81-1.74-.39,1.07,5,1.8-.55,1.52-6.94-2.51,2.42-6.7,6.94,2.51Z" fill="#fff"></path><path d="M146.5,30.14l2.34-4.54,1.83,.94-3.27,6.33-2.69-1.39-1.39-6.47-2.34,4.54-1.84-.95,3.27-6.33,2.7,1.39,1.39,6.47Z" fill="#fff"></path></g><g><path d="M57.53,179.5c-.31,.51,0,1.15,1.6,2.12,1.47,.88,1.97,.87,2.2,.49,.27-.44,.04-.69-1.7-1.9-2.37-1.66-3.16-2.81-2.35-4.16,.77-1.27,2.49-1.02,4.6,.25,2.35,1.41,3.27,2.94,2.51,4.33l-1.85-1.11c.32-.54-.14-1.1-1.51-1.92-1.3-.78-1.72-.74-1.92-.41-.23,.38,0,.67,1.57,1.8,2.14,1.52,3.5,2.55,2.54,4.15-.94,1.56-2.66,1.15-4.83-.16-2.47-1.49-3.6-2.93-2.72-4.59l1.85,1.12Z" fill="#fff"></path><path d="M66.2,183.1c.94-2.17,2.98-2.79,5.74-1.6,2.75,1.19,3.69,3.12,2.76,5.28-.94,2.17-3,2.81-5.75,1.62-2.76-1.19-3.69-3.12-2.75-5.3Zm6.52,2.83c.49-1.14,.14-2.11-1.48-2.82-1.61-.7-2.56-.29-3.05,.85-.5,1.15-.14,2.13,1.46,2.83,1.61,.7,2.58,.28,3.07-.87Z" fill="#fff"></path><path d="M82.52,185.25c2.52,.71,3.65,2.19,3.36,4.01l-2.11-.59c.04-.67-.45-1.38-1.72-1.73-1.47-.41-2.38,.11-2.72,1.31-.34,1.21,.18,2.14,1.64,2.55,1.27,.35,2.06,0,2.37-.61l2.11,.59c-.7,1.72-2.43,2.41-4.96,1.71-2.75-.77-3.9-2.47-3.25-4.82,.66-2.34,2.52-3.19,5.27-2.42Z" fill="#fff"></path><path d="M91.13,187.38l-1.26,7-2.03-.37,1.26-7,2.03,.37Z" fill="#fff"></path><path d="M93.28,191.41c.19-2.35,1.92-3.6,4.91-3.36,2.98,.24,4.5,1.77,4.3,4.11-.19,2.35-1.93,3.62-4.92,3.38-2.99-.24-4.5-1.77-4.3-4.13Zm7.07,.58c.1-1.23-.54-2.04-2.3-2.19-1.75-.14-2.51,.55-2.62,1.79-.1,1.25,.55,2.06,2.29,2.21,1.75,.14,2.53-.56,2.63-1.81Z" fill="#fff"></path><path d="M107.35,193.3c.03,.6,.64,.96,2.51,.86,1.71-.09,2.12-.38,2.09-.83-.03-.52-.35-.59-2.47-.62-2.89-.05-4.2-.56-4.28-2.14-.08-1.48,1.49-2.24,3.95-2.36,2.74-.14,4.36,.6,4.5,2.18l-2.15,.11c-.03-.63-.73-.83-2.33-.75-1.51,.08-1.84,.35-1.82,.73,.02,.44,.37,.56,2.31,.62,2.62,.06,4.33,.15,4.43,2.02,.09,1.82-1.56,2.44-4.09,2.57-2.88,.15-4.63-.42-4.82-2.29l2.16-.11Z" fill="#fff"></path><path d="M117.06,193.29l1.97-.29,.22,1.53-1.97,.29-.23-1.53Z" fill="#fff"></path><path d="M124.91,185.93c2.55-.62,4.26,.12,4.9,1.85l-2.13,.52c-.29-.61-1.07-.98-2.35-.67-1.48,.36-2.02,1.26-1.73,2.48,.3,1.22,1.21,1.78,2.68,1.42,1.28-.31,1.8-1.01,1.77-1.7l2.13-.52c.23,1.84-.94,3.3-3.49,3.92-2.78,.68-4.62-.24-5.2-2.61-.58-2.36,.63-4.01,3.41-4.69Z" fill="#fff"></path><path d="M132.62,187.73c-.87-2.2,.14-4.08,2.93-5.19,2.78-1.1,4.82-.4,5.68,1.79,.87,2.2-.14,4.11-2.92,5.21-2.79,1.1-4.82,.4-5.69-1.81Zm6.61-2.61c-.45-1.15-1.39-1.6-3.03-.95-1.63,.64-2.02,1.6-1.56,2.76,.46,1.17,1.41,1.61,3.03,.97,1.63-.64,2.02-1.62,1.56-2.78Z" fill="#fff"></path><path d="M145.6,186.26l-3.58-6.16,2.78-1.62,4.52,2.84-.24-5.33,2.78-1.62,3.58,6.16-1.78,1.03-2.59-4.46,.28,5.81-1.65,.96-4.91-3.11,2.6,4.46-1.79,1.04Z" fill="#fff"></path></g></g><path d="M48.34,171.86c-18.95-16.08-30.98-40.07-30.98-66.86S30.03,52.95,49.85,36.88" fill="none" stroke="#ea0029" stroke-miterlimit="10" stroke-width="2.22"></path><path d="M160.16,36.89c19.82,16.07,32.48,40.61,32.48,68.11s-12.03,50.79-30.98,66.87" fill="none" stroke="#ea0029" stroke-miterlimit="10" stroke-width="2.22"></path></g></g></g></g></svg>