<svg xmlns="http://www.w3.org/2000/svg" xmlns:xlink="http://www.w3.org/1999/xlink" id="Layer_2" viewBox="0 0 210 210"><defs><linearGradient id="linear-gradient" x1="65.28" y1="118.8" x2="144.72" y2="118.8" gradientUnits="userSpaceOnUse"><stop offset=".28" stop-color="#d3d3d3"></stop><stop offset="1" stop-color="#9e99a7"></stop></linearGradient><linearGradient id="linear-gradient-2" x1="73.92" y1="80.28" x2="130.87" y2="80.28" gradientUnits="userSpaceOnUse"><stop offset=".28" stop-color="#dddcdf"></stop><stop offset="1" stop-color="#c5c2c8"></stop></linearGradient><linearGradient id="linear-gradient-3" x1="59.18" y1="133.91" x2="69.5" y2="133.91" gradientUnits="userSpaceOnUse"><stop offset="0" stop-color="#e3e1e7"></stop><stop offset=".19" stop-color="#dcd9e1"></stop><stop offset=".46" stop-color="#cac5d0"></stop><stop offset=".79" stop-color="#ada4b5"></stop><stop offset="1" stop-color="#988ca2"></stop></linearGradient><linearGradient id="linear-gradient-4" x1="59.17" y1="91.3" x2="91.89" y2="91.3" gradientUnits="userSpaceOnUse"><stop offset="0" stop-color="#fff"></stop><stop offset=".13" stop-color="#f7f7f8"></stop><stop offset=".32" stop-color="#e3e1e5"></stop><stop offset=".56" stop-color="#c2bec6"></stop><stop offset=".83" stop-color="#958d9c"></stop><stop offset="1" stop-color="#776c80"></stop></linearGradient><linearGradient id="linear-gradient-5" x1="78.06" y1="145.58" x2="78.06" y2="127.31" xlink:href="#linear-gradient-3"></linearGradient><linearGradient id="linear-gradient-6" x1="5555.23" y1="145.6" x2="5555.23" y2="127.31" gradientTransform="translate(5687.19) rotate(-180) scale(1 -1)" gradientUnits="userSpaceOnUse"><stop offset="0" stop-color="#fff"></stop><stop offset="1" stop-color="#776c80"></stop></linearGradient><linearGradient id="linear-gradient-7" x1="85.05" y1="130.13" x2="124.95" y2="130.13" gradientUnits="userSpaceOnUse"><stop offset="0" stop-color="#dddddc"></stop><stop offset="1" stop-color="#776c80"></stop></linearGradient><linearGradient id="linear-gradient-8" x1="140.5" y1="133.91" x2="150.82" y2="133.91" gradientUnits="userSpaceOnUse"><stop offset="0" stop-color="#e5e2e7"></stop><stop offset=".04" stop-color="#d8d4db"></stop><stop offset=".15" stop-color="#bab4bf"></stop><stop offset=".27" stop-color="#a29aa8"></stop><stop offset=".4" stop-color="#8e8596"></stop><stop offset=".54" stop-color="#817789"></stop><stop offset=".72" stop-color="#796e82"></stop><stop offset="1" stop-color="#776c80"></stop></linearGradient><linearGradient id="linear-gradient-9" x1="89.14" y1="58" x2="117.67" y2="58" xlink:href="#linear-gradient-3"></linearGradient><linearGradient id="linear-gradient-10" x1="70.14" y1="81.68" x2="91.89" y2="81.68" gradientUnits="userSpaceOnUse"><stop offset="0" stop-color="#f1eff3"></stop><stop offset=".17" stop-color="#eae7ec"></stop><stop offset=".42" stop-color="#d8d3dc"></stop><stop offset=".72" stop-color="#bab2c1"></stop><stop offset="1" stop-color="#988ca2"></stop></linearGradient><linearGradient id="linear-gradient-11" x1="115.3" y1="87.98" x2="150.84" y2="87.98" gradientUnits="userSpaceOnUse"><stop offset="0" stop-color="#fff"></stop><stop offset="1" stop-color="#9890a0"></stop></linearGradient><linearGradient id="linear-gradient-12" x1="115.3" y1="72.45" x2="134.17" y2="72.45" xlink:href="#linear-gradient-3"></linearGradient><linearGradient id="linear-gradient-13" x1="105" y1="157.47" x2="105" y2="64" gradientUnits="userSpaceOnUse"><stop offset=".27" stop-color="#279145"></stop><stop offset="1" stop-color="#288943"></stop></linearGradient></defs><g id="Layer_1-2"><g><g><circle cx="105" cy="105" r="105" fill="#0b7840"></circle><path d="M105,5.32c54.96,0,99.68,44.72,99.68,99.68s-44.72,99.68-99.68,99.68S5.32,159.96,5.32,105,50.04,5.32,105,5.32M105,0C47.01,0,0,47.01,0,105s47.01,105,105,105,105-47.01,105-105S162.99,0,105,0h0Z" fill="#342c3a"></path></g><g><g id="Alliance_Logo_Full_Color"><path d="M140.5,145.6l-15.56-18.28h-39.89l-15.53,18.26-.02,.02c-5.35-15.54-4.08-22.53-4.08-22.53l8.51-19.27,25.02-5.19,11.03-2.29,20.9-4.32,13.73,31.06s1.25,6.99-4.09,22.53Z" fill="url(#linear-gradient)"></path><path d="M130.87,92l-20.9,4.32-11.03,2.29-25.02,5.19,17.97-40.66c5.99-4.24,15.91-6.39,23.41-6.36l15.57,35.23Z" fill="url(#linear-gradient-2)"></path><g><path id="emboss" d="M65.41,123.06l-6.24-.84c1.65,8.44,5.19,16.46,10.32,23.38-5.34-15.55-4.08-22.54-4.08-22.54Z" fill="url(#linear-gradient-3)"></path><path id="emboss-2" d="M91.89,63.13l-2.74-3.58s.04-.02,0,0l-29.97,62.66c.02,.09-.02-.09,0,0l6.24,.84,26.48-59.93Z" fill="url(#linear-gradient-4)"></path><polygon id="emboss-3" points="69.52 145.58 86.6 132.94 85.05 127.31 69.52 145.58" fill="url(#linear-gradient-5)"></polygon><polygon id="emboss-4" points="140.5 145.6 123.4 132.94 123.4 132.94 124.95 127.31 140.5 145.6" fill="url(#linear-gradient-6)"></polygon><polygon id="emboss-5" points="124.95 127.31 123.4 132.94 86.6 132.94 85.05 127.31 124.95 127.31" fill="url(#linear-gradient-7)"></polygon><path id="emboss-6" d="M144.59,123.06s1.26,6.99-4.08,22.54c5.13-6.92,8.67-14.94,10.32-23.38h0s-6.24,.84-6.24,.84Z" fill="url(#linear-gradient-8)"></path><path id="emboss-7" d="M117.67,52.9h0c-.49-.01-.98-.02-1.46-.02-9.44,0-18.78,2.31-27.07,6.67l2.74,3.58c5.99-4.24,15.91-6.39,23.41-6.36h0s2.37-3.87,2.37-3.87Z" fill="url(#linear-gradient-9)"></path><polygon id="emboss-8" points="73.92 103.8 91.89 63.13 89.14 59.55 70.14 99.3 73.92 103.8" fill="url(#linear-gradient-10)"></polygon><path id="emboss-9" d="M115.3,56.77l2.37-3.87,33.15,69.32c-.06,.11,.06-.11,0,0l-6.24,.84-29.29-66.29Z" fill="url(#linear-gradient-11)"></path><polygon id="emboss-10" points="134.17 87.38 117.67 52.9 115.3 56.77 130.87 92 134.17 87.38" fill="url(#linear-gradient-12)"></polygon></g><path d="M144.59,123.06l-29.29-66.29h-.15c-7.47,0-17.3,2.15-23.26,6.36l-26.48,59.93s-1.26,6.99,4.08,22.53l.02-.02,15.53-18.26h39.89l15.56,18.28c5.35-15.54,4.09-22.53,4.09-22.53Zm-4.35,21.21l-14.78-17.39-.21-.23h-40.51l-.2,.23-14.8,17.39c-4.51-13.58-3.79-20.28-3.69-21.03l26.36-59.68c6.02-4.17,15.53-6.08,22.45-6.13l29.06,65.81c.1,.75,.83,7.44-3.69,21.03Z" fill="#fff"></path><g id="shield"><path d="M105,97.39l-6.27,13.11h12.53l-6.27-13.11Zm44.01-26.71c-.06,0-.13,.01-.18,.01l-2.7,.14,.66-2.63c.41-1.63,.77-3.05,1.07-4.2-5.02,1.38-11.47,3.1-17.74,3.58l6.84,14.19,7.71,15.99,.69-2.68,2.58,2.54c-.06-11.65,.84-22.34,1.3-26.95-.08,0-.15,0-.22,.01Zm-86.85-6.68c.29,1.15,.64,2.56,1.06,4.2l.67,2.63-2.71-.14c-.06,0-.11-.01-.17-.01-.07-.01-.15-.01-.22-.01,.45,4.61,1.35,15.3,1.29,26.95l2.58-2.54,.69,2.68,7.71-15.99,6.84-14.18h0c-6.25-.48-12.72-2.21-17.73-3.59Zm58.75,73.98h-31.82l-3.92,2.91c5.97,7.01,12.62,12.59,19.83,16.58,7.21-3.99,13.88-9.57,19.84-16.58l-3.93-2.91Z" fill="#09783f"></path><path d="M148.82,70.7l-2.7,.14,.66-2.63c.41-1.63,.77-3.05,1.07-4.2-5.02,1.38-11.47,3.1-17.74,3.58l6.84,14.19c5.07-3.4,9.77-7.6,12.06-11.08-.06,0-.13,.01-.18,.01Zm-86.66-6.69c.29,1.15,.64,2.56,1.06,4.2l.67,2.63-2.71-.14c-.06,0-.11-.01-.17-.01,2.29,3.48,6.98,7.68,12.05,11.08l6.84-14.18h0c-6.25-.48-12.72-2.21-17.73-3.59Zm26.93,73.98l-3.92,2.91c5.97,7.01,12.62,12.59,19.83,16.58v-19.49h-15.91Z" fill="url(#linear-gradient-13)"></path></g><path d="M92.14,112.84h25.73l-12.86-26.9-12.86,26.9Zm6.6-2.34l6.27-13.11,6.27,13.11h-12.54Zm56.84,10.33l-7.08-14.81c-.07-.95-.12-1.75-.17-2.41,0,0,0,0,0,0l3.84,3.77-.15-4.97c-.51-16.98,1.41-33.5,1.43-33.66l.29-2.42-2.4,.19c.77-3.03,1.22-4.85,1.22-4.85l.82-3.28-3.27,.87c-.84,.22-1.75,.47-2.71,.74-5.36,1.47-12.58,3.46-19.15,3.69l-4.54-9.5h0s-2.88-6.03-2.88-6.03l-1.45-.07c-1.06-.05-2.12-.08-3.15-.08-10.51,0-20.92,2.64-30.1,7.64l-.69,.38-3.67,7.67c-6.57-.23-13.79-2.22-19.14-3.69-.96-.26-1.87-.51-2.71-.74l-3.27-.87,.82,3.28s.46,1.82,1.22,4.85l-2.4-.19,.29,2.42c.02,.16,1.94,16.68,1.43,33.66l-.15,4.97,3.84-3.77s0,0,0,0c-.05,.66-.11,1.46-.17,2.41l-7.08,14.81-.34,.71,.14,.78c1.87,10.29,6.33,20.04,12.9,28.2l1.47,1.83,12.93-9.57c6.7,8.05,14.27,14.35,22.54,18.74l.94,.5,.94-.5c8.26-4.39,15.84-10.69,22.54-18.74l12.93,9.57,1.47-1.83c6.58-8.16,11.04-17.91,12.9-28.2l.14-.78-.34-.71Zm-7.73-56.83c-.29,1.15-.65,2.57-1.06,4.2l-.67,2.63,2.71-.15c.13,0,.26-.01,.39-.02-.45,4.61-1.35,15.31-1.29,26.95l-2.58-2.53-.69,2.67-14.55-30.18c6.26-.47,12.71-2.19,17.73-3.57Zm-87.07,6.67c.13,0,.26,.02,.39,.02l2.71,.15-.67-2.63c-.41-1.63-.77-3.05-1.06-4.2,5.02,1.38,11.47,3.11,17.74,3.57v.02s-14.55,30.16-14.55,30.16l-.69-2.67-2.58,2.53c.06-11.64-.84-22.33-1.29-26.95Zm44.22,86.8c-7.21-3.99-13.87-9.56-19.84-16.58l3.93-2.91h31.82l3.93,2.91c-5.97,7.02-12.63,12.59-19.84,16.58Zm35.5-11.87l-17.1-12.66h-36.81l-17.1,12.66c-5.13-6.92-8.67-14.94-10.32-23.38l29.97-62.66c8.29-4.37,17.63-6.67,27.07-6.67,.48,0,.97,0,1.46,.02l3.17,6.63s0,.02,0,.02l29.97,62.66c-1.65,8.44-5.19,16.46-10.32,23.38Z" fill="#342c3a"></path></g><g><g><g><path d="M64.49,23.81l.85,1.54-4.65,2.57,.73,1.33,4.13-2.28,.84,1.53-4.13,2.28,1.02,1.84-1.81,1-3.44-6.23,6.46-3.57Z" fill="#c5c2c8"></path><path d="M76.23,26.51l-1.13-.99-4.06,1.65-.12,1.5-2.06,.84,.72-7.97,2.64-1.07,6.07,5.21-2.05,.83Zm-5.05-1.07l2.6-1.06-2.35-2.05-.25,3.11Z" fill="#c5c2c8"></path><path d="M86.83,21.37l-1.23-4.95,1.99-.49,1.71,6.91-2.93,.73-5.3-3.94,1.23,4.95-2,.5-1.71-6.91,2.94-.73,5.3,3.94Z" fill="#c5c2c8"></path><path d="M96.85,14.62l8.57-.35,.07,1.75-3.25,.13,.22,5.36-2.06,.08-.22-5.36-3.26,.13-.07-1.75Z" fill="#c5c2c8"></path><path d="M107.92,17.84c.2-2.35,1.94-3.6,4.93-3.34,2.98,.26,4.49,1.79,4.29,4.13-.2,2.35-1.95,3.62-4.93,3.36-2.99-.26-4.49-1.79-4.29-4.15Zm7.07,.61c.11-1.23-.53-2.05-2.29-2.2-1.75-.15-2.52,.53-2.62,1.78-.11,1.25,.54,2.07,2.28,2.22,1.75,.15,2.53-.55,2.64-1.79Z" fill="#c5c2c8"></path><path d="M129.4,17.57l-4.18,2.13,2.62,4.82-2.53-.57-1.82-3.36-1.99,1.01-.32,1.41-2.01-.46,1.57-6.95,2.02,.45-.7,3.12,4.34-2.29,3.02,.68Z" fill="#c5c2c8"></path><path d="M139.29,20.99l-.55,1.52-5-1.81-.39,1.07,4.81,1.74-.55,1.52-4.81-1.74-.39,1.07,5,1.81-.55,1.52-6.94-2.51,2.42-6.7,6.94,2.51Z" fill="#c5c2c8"></path><path d="M146.5,30.14l2.34-4.54,1.83,.94-3.27,6.33-2.69-1.39-1.39-6.47-2.34,4.54-1.84-.95,3.27-6.33,2.7,1.39,1.39,6.47Z" fill="#c5c2c8"></path></g><g><path d="M57.53,179.5c-.31,.51,0,1.15,1.6,2.12,1.47,.88,1.97,.87,2.2,.49,.27-.44,.04-.69-1.7-1.9-2.37-1.66-3.16-2.81-2.35-4.16,.77-1.27,2.49-1.02,4.6,.25,2.35,1.41,3.27,2.94,2.51,4.33l-1.85-1.11c.32-.54-.14-1.1-1.51-1.92-1.3-.78-1.72-.74-1.92-.41-.23,.38,0,.67,1.57,1.8,2.14,1.52,3.5,2.55,2.54,4.15-.94,1.56-2.66,1.15-4.83-.16-2.47-1.49-3.6-2.93-2.72-4.59l1.85,1.12Z" fill="#c5c2c8"></path><path d="M66.2,183.1c.94-2.17,2.98-2.79,5.74-1.6,2.75,1.19,3.69,3.12,2.76,5.28-.94,2.17-3,2.81-5.75,1.62-2.76-1.19-3.69-3.12-2.75-5.3Zm6.52,2.83c.49-1.14,.14-2.11-1.48-2.82-1.61-.7-2.56-.29-3.05,.85-.5,1.15-.14,2.13,1.46,2.83,1.61,.7,2.58,.28,3.07-.87Z" fill="#c5c2c8"></path><path d="M82.54,185.26c2.52,.71,3.65,2.19,3.36,4.01l-2.11-.59c.04-.67-.45-1.38-1.72-1.73-1.47-.41-2.38,.11-2.72,1.31-.34,1.21,.18,2.14,1.64,2.55,1.27,.35,2.06,0,2.37-.61l2.11,.59c-.7,1.72-2.43,2.41-4.96,1.71-2.75-.77-3.9-2.47-3.25-4.82,.66-2.34,2.52-3.19,5.27-2.42Z" fill="#c5c2c8"></path><path d="M91.13,187.38l-1.26,7-2.03-.37,1.26-7,2.03,.37Z" fill="#c5c2c8"></path><path d="M93.28,191.41c.19-2.35,1.92-3.6,4.91-3.36,2.98,.24,4.5,1.77,4.31,4.11-.19,2.35-1.93,3.62-4.91,3.38-2.99-.24-4.5-1.77-4.3-4.13Zm7.07,.58c.1-1.23-.54-2.04-2.3-2.19-1.75-.14-2.51,.55-2.62,1.79-.1,1.25,.55,2.06,2.29,2.21,1.75,.14,2.53-.56,2.63-1.81Z" fill="#c5c2c8"></path><path d="M107.35,193.3c.03,.6,.64,.96,2.51,.86,1.71-.09,2.12-.38,2.09-.83-.03-.52-.35-.59-2.47-.62-2.89-.05-4.2-.56-4.28-2.14-.08-1.48,1.49-2.24,3.95-2.36,2.74-.14,4.36,.6,4.5,2.18l-2.15,.11c-.03-.63-.73-.83-2.33-.75-1.51,.08-1.84,.35-1.82,.73,.02,.44,.37,.56,2.31,.62,2.62,.06,4.33,.15,4.43,2.02,.09,1.82-1.56,2.44-4.09,2.57-2.88,.15-4.63-.42-4.82-2.29l2.16-.11Z" fill="#c5c2c8"></path><path d="M117.06,193.29l1.97-.29,.22,1.53-1.97,.29-.23-1.53Z" fill="#c5c2c8"></path><path d="M124.91,185.93c2.55-.62,4.26,.12,4.9,1.85l-2.13,.52c-.29-.61-1.07-.98-2.35-.67-1.48,.36-2.02,1.26-1.73,2.48,.3,1.22,1.21,1.78,2.68,1.42,1.28-.31,1.8-1.01,1.77-1.7l2.13-.52c.23,1.84-.94,3.3-3.49,3.92-2.78,.68-4.62-.24-5.2-2.61-.58-2.36,.63-4.01,3.41-4.69Z" fill="#c5c2c8"></path><path d="M132.62,187.73c-.87-2.2,.14-4.09,2.93-5.19,2.78-1.1,4.82-.4,5.68,1.79,.87,2.2-.14,4.11-2.92,5.21-2.79,1.1-4.82,.4-5.69-1.81Zm6.61-2.61c-.45-1.15-1.39-1.6-3.03-.95-1.63,.64-2.02,1.6-1.56,2.76,.46,1.17,1.41,1.61,3.03,.97,1.63-.64,2.02-1.62,1.56-2.78Z" fill="#c5c2c8"></path><path d="M145.61,186.25l-3.58-6.16,2.78-1.62,4.52,2.84-.24-5.33,2.78-1.62,3.58,6.16-1.78,1.03-2.59-4.46,.28,5.81-1.65,.96-4.91-3.11,2.6,4.46-1.79,1.04Z" fill="#c5c2c8"></path></g></g><path d="M48.34,171.86c-18.95-16.08-30.98-40.07-30.98-66.86S30.03,52.95,49.85,36.88" fill="none" stroke="#342c3a" stroke-miterlimit="10" stroke-width="2.22"></path><path d="M160.16,36.89c19.82,16.07,32.48,40.61,32.48,68.11s-12.03,50.79-30.98,66.87" fill="none" stroke="#342c3a" stroke-miterlimit="10" stroke-width="2.22"></path></g></g></g></g></svg>