<svg xmlns="http://www.w3.org/2000/svg" width="64" height="64" viewBox="0 0 64 64"><g transform="translate(0 -22)"><circle cx="32" cy="32" r="32" transform="translate(0 22)" fill="#5292cb"/><g transform="translate(17.452 28.727)"><path d="M405.623,161.039h-1.157a11.9,11.9,0,0,0-.485-4.741c-.488-.2-.995.077-.635.776.395.768.179,1.312-.6,1.389-.635.061-1.5-.067-1.936-1.544-.533-1.768.677-2.2,2.629-4a15.544,15.544,0,0,0,2.187-2.3,15.525,15.525,0,0,0,2.187,2.3c1.952,1.808,3.149,2.24,2.629,4-.437,1.477-1.3,1.6-1.936,1.544-.779-.077-1-.619-.6-1.389.36-.7-.147-.979-.635-.776a11.892,11.892,0,0,0-.485,4.741Z" transform="translate(-391.017 -150.618)" fill="#d50632"/><path d="M409.417,283.942l-3.733-21.6a3.291,3.291,0,0,0,2.456-3.051h2.579a3.291,3.291,0,0,0,2.456,3.051Z" transform="translate(-394.813 -233.395)" fill="#d50632"/><path d="M361.694,201.033a6.9,6.9,0,0,1-.651-.763.579.579,0,1,1,0-.933,6.909,6.909,0,0,1,.651-.76.971.971,0,0,1,1.544.365c.2,0,.829,0,1.181-.027.424-.027.741-.027.237-.395l-.243-.181a1.9,1.9,0,0,1-.755-.864q-.032-.072-.061-.155a1.337,1.337,0,0,1-.059-.227,1.891,1.891,0,0,1,1.752-2.261,1.477,1.477,0,0,1,.384.016l.133.027a2.24,2.24,0,0,1,.587.243l.053.035a4,4,0,0,1,1.392,1.768,5.794,5.794,0,0,0-1.227-.317c-.739-.147-1.2.195-1.085.893.173,1.048,1.6,1.312,1.6,1.312h2.483V200.8h-2.483s-1.416.267-1.6,1.312c-.115.7.347,1.037,1.085.893a5.8,5.8,0,0,0,1.227-.317,4,4,0,0,1-1.392,1.768l-.053.035a2.24,2.24,0,0,1-.587.243l-.133.027a1.476,1.476,0,0,1-.384.016,1.891,1.891,0,0,1-1.789-1.888,1.912,1.912,0,0,1,.038-.373,1.339,1.339,0,0,1,.059-.227c.019-.053.04-.1.061-.155a1.9,1.9,0,0,1,.755-.864l.243-.181c.5-.368.184-.368-.237-.395-.352-.021-.981-.027-1.181-.027a.971.971,0,0,1-1.544.365" transform="translate(-360.124 -184.3)" fill="#d50632"/><path d="M450.308,201.033a6.98,6.98,0,0,0,.651-.763.579.579,0,1,0,0-.933,6.959,6.959,0,0,0-.651-.76.97.97,0,0,0-1.544.365c-.2,0-.829,0-1.181-.027-.424-.027-.741-.027-.237-.395l.243-.181a1.9,1.9,0,0,0,.757-.864c.021-.048.043-.1.061-.155a1.332,1.332,0,0,0,.059-.227,1.891,1.891,0,0,0-1.755-2.261,1.479,1.479,0,0,0-.384.016l-.133.027a2.249,2.249,0,0,0-.587.243l-.053.035a4,4,0,0,0-1.392,1.768,5.8,5.8,0,0,1,1.227-.317c.741-.147,1.2.195,1.085.893-.173,1.048-1.6,1.312-1.6,1.312h-2.483V200.8h2.483s1.416.267,1.6,1.312c.115.7-.347,1.037-1.085.893a5.8,5.8,0,0,1-1.227-.317,4,4,0,0,0,1.392,1.768l.053.035a2.243,2.243,0,0,0,.587.243l.133.027a1.482,1.482,0,0,0,.384.016,1.891,1.891,0,0,0,1.755-2.261,1.309,1.309,0,0,0-.059-.227c-.019-.053-.04-.1-.061-.155a1.9,1.9,0,0,0-.757-.864l-.243-.181c-.5-.368-.187-.368.237-.395.355-.021.981-.027,1.181-.027a.971.971,0,0,0,1.544.365" transform="translate(-422.783 -184.3)" fill="#d50632"/><path d="M402.019,220.25a10.986,10.986,0,0,1-3.5,2.605l-.152.08-.152-.08a11.127,11.127,0,0,1-3.5-2.605,16.952,16.952,0,0,1-3.491-10.6h14.3a17.081,17.081,0,0,1-3.5,10.6" transform="translate(-383.807 -195.583)" fill="#fff"/><path d="M406.2,206.17a16.768,16.768,0,0,1-3.387,11.221,10.666,10.666,0,0,1-3.4,2.525,10.824,10.824,0,0,1-3.4-2.525,16.72,16.72,0,0,1-3.381-11.221Z" transform="translate(-384.862 -192.935)" fill="#6cace4"/><path d="M411.342,193.114a7.8,7.8,0,0,0-3.733-.947,6.734,6.734,0,0,0-3.733.947,2.132,2.132,0,0,1-.533-.477.888.888,0,0,1,.123-.48A2.134,2.134,0,0,1,405,191.112a3.365,3.365,0,0,1,2.435-.64.387.387,0,0,0,.352,0,3.365,3.365,0,0,1,2.434.64,2.133,2.133,0,0,1,1.533,1.045.884.884,0,0,1,.123.48,2.133,2.133,0,0,1-.533.477" transform="translate(-393.05 -180.955)" fill="#b2852f"/><path d="M405.91,184h0m3.571,3.379c.059,0,.936,0,.84-1.133-.053-.64-.741-1.571-1.333-1.067a3.3,3.3,0,0,1-.267,1.067c-.109.533-.168,1.176.765,1.131m-3.28-3.163a3.65,3.65,0,0,1,.179,1.771c-.024.131-.029.267.1.333,2.221,1.088,2.861-3.507-.267-2.1m-.576,0c-3.141-1.4-2.5,3.2-.267,2.1.131-.064.125-.2.1-.333a3.644,3.644,0,0,1,.179-1.771m-3.28,3.163c.933.045.875-.608.765-1.131a3.3,3.3,0,0,1-.267-1.067c-.6-.5-1.288.437-1.333,1.067-.1,1.141.781,1.131.84,1.133M405.95,184c1.9-.851,2.832-.152,3.027.8,2.336-.565,2.133,2.933.7,3.467l-.2.416a16.664,16.664,0,0,0-3.52-.349,34.31,34.31,0,0,0-3.613.187l-.1-.253c-1.44-.533-1.656-4.029.685-3.467.195-.963,1.123-1.661,3.027-.8" transform="translate(-391.338 -175.761)" fill="#b2852f"/><path d="M413.01,200.371l-.533.872a.066.066,0,0,1,.016.045v.019a.088.088,0,0,1-.032.056.067.067,0,0,1-.051.032h-.019a.149.149,0,0,1-.083-.032c-.184-.088-.363-.171-.533-.243a6.875,6.875,0,0,0-.725-.235,6.32,6.32,0,0,0-.733-.152,5.229,5.229,0,0,0-.72-.059,3.682,3.682,0,0,0-.371,0,3.521,3.521,0,0,0-.363,0,5.232,5.232,0,0,0-.725.059,6.059,6.059,0,0,0-.733.152,5.726,5.726,0,0,0-.725.243c-.179.069-.357.147-.533.235a.171.171,0,0,1-.083.032h0a.067.067,0,0,1-.056-.032.08.08,0,0,1-.016-.123l-.533-.872a7.381,7.381,0,0,1,7.563,0" transform="translate(-394.643 -187.726)" fill="#b2852f"/><path d="M419.422,179.772h.568l-.1.331.28-.1v.565l-.28-.1.1.445h-.568l.1-.445-.28.1v-.565l.28.1Z" transform="translate(-405.145 -172.825)" fill="#b2852f"/><path d="M406.516,192.493a.245.245,0,0,1-.069-.171.266.266,0,0,1,.069-.179.583.583,0,0,1,.064-.059.332.332,0,0,0,.069-.027.2.2,0,0,1,.064,0,.177.177,0,0,1,.133.027.7.7,0,0,1,.069.059.266.266,0,0,1,.064.16v.037a.265.265,0,0,1-.064.16.277.277,0,0,1-.069.051.132.132,0,0,1-.064.027h-.035a.632.632,0,0,0,.888.453.722.722,0,0,0,.227-.184.213.213,0,0,1-.062-.1h-.064l-.037.019a.316.316,0,0,0-.083.037H407.6a.41.41,0,0,0-.056.037.53.53,0,0,0-.077.045l-.032.019a.5.5,0,0,1-.051.037l-.045.019H407.3a.1.1,0,0,1-.069-.133c.024-.045.019-.064.051-.1a.035.035,0,0,0,.019-.032v-.032a.184.184,0,0,0-.019-.064.3.3,0,0,1,.019-.2l.032-.059a.266.266,0,0,1,.128-.1.04.04,0,0,0,.032-.037c0-.115.019-.147.045-.165h.019a.065.065,0,0,1,.059,0c.032,0,.069.051.077.139a.113.113,0,0,0,0,.045.4.4,0,0,0,.032.16l.045.064a.561.561,0,0,1,.059.1.211.211,0,0,1,.171-.088l-.027-.024a.337.337,0,0,1-.128-.165.917.917,0,0,1-.056-.16.748.748,0,0,1-.059-.091.085.085,0,0,1,.019-.088.136.136,0,0,1,.133.019c.037.027.024.027.064.069s.064,0,.088,0a.308.308,0,0,1,.115-.019h.064a.241.241,0,0,1,.109.051.266.266,0,0,1,.045.1.077.077,0,0,0,.077.083.24.24,0,0,1,.1,0c.069.019.12.045.133.077s-.019.069-.051.088-.027,0-.1,0-.088.027-.152.051a.323.323,0,0,1-.216.051h-.029a.211.211,0,0,1,.088.171.412.412,0,0,0,.16-.077c.056-.037.088-.1.16-.12a.484.484,0,0,1,.109-.019c.077,0,.1.069.069.133s-.027.027-.069.056,0,.088,0,.12a.267.267,0,0,1-.056.235c-.064.088-.152.115-.147.165a.192.192,0,0,1-.077.211c-.019,0-.12,0-.12-.16a.684.684,0,0,0-.027-.229c-.024-.064-.064-.064-.069-.152a.228.228,0,0,1-.133.045.579.579,0,0,0,.72.587.745.745,0,0,0,.267-.093.194.194,0,0,1-.04-.117.2.2,0,1,1,.2.2h-.053a.411.411,0,0,0,.643.435.155.155,0,0,1-.035-.091,1.757,1.757,0,0,1-.267.083.059.059,0,0,1-.064-.064c0-.024.024-.051.051-.077s0-.115.037-.171a.154.154,0,0,1,.088-.077c.051-.027.051,0,.077-.037a.109.109,0,0,0,.037-.077.048.048,0,0,1,.027-.037.067.067,0,0,1,.064,0,.12.12,0,0,1,.027.088c0,.043,0,.152,0,.211a.156.156,0,0,1,.077-.021h.019a1.753,1.753,0,0,0,.021-.205v-.091a.064.064,0,0,1,.088,0c.027.027.088.141.141.141h.115c.051,0,.152.133.152.184s0,.027-.027.051-.152,0-.267,0l-.109.024c0,.013-.051.045-.107.091a.52.52,0,0,0-.083.077H409.8a.555.555,0,0,1-.392.2h-.056a.754.754,0,0,1-.221-.051c-.224-.088-.184-.445-.184-.5a.454.454,0,0,1-.224.1.978.978,0,0,1-.514-.045c-.28-.109-.331-.491-.331-.592a.549.549,0,0,1-.243.184.755.755,0,0,1-.515.069c-.28-.077-.368-.267-.5-.445a.5.5,0,0,1-.083.088.8.8,0,0,1-.533.192.853.853,0,0,1-.555-.395.837.837,0,0,1-.547.395.781.781,0,0,1-.533-.2.326.326,0,0,1-.083-.083c-.128.179-.216.368-.5.445a.739.739,0,0,1-.509-.069.55.55,0,0,1-.243-.184c0,.1-.051.483-.331.592a.978.978,0,0,1-.515.045.5.5,0,0,1-.229-.1c0,.059.037.413-.179.5a.756.756,0,0,1-.224.051H401.5a.555.555,0,0,1-.392-.2h-.021A.5.5,0,0,0,401,193.8a1.076,1.076,0,0,0-.109-.077.335.335,0,0,0-.107-.037.958.958,0,0,0-.267,0c-.037,0-.024,0-.024-.051s.1-.16.152-.184.037,0,.115,0,.115-.115.141-.141a.064.064,0,0,1,.088,0c.027.027,0,0,0,.091a1.782,1.782,0,0,0,.021.205h.019a.157.157,0,0,1,.08.021c0-.059,0-.171,0-.211a.122.122,0,0,1,.024-.088.067.067,0,0,1,.064,0,.048.048,0,0,1,.024.037.11.11,0,0,0,.037.077c.024.027.024,0,.077.037s.064.024.088.077,0,.147.037.171a.092.092,0,0,1,.051.077.059.059,0,0,1-.064.064,1.765,1.765,0,0,1-.267-.083.154.154,0,0,1-.035.091c.371.224.688-.048.64-.437h-.051a.2.2,0,1,1,.157-.08.786.786,0,0,0,.267.093.584.584,0,0,0,.725-.587.211.211,0,0,1-.144-.053c0,.1-.04.1-.064.163a.684.684,0,0,0-.027.229c0,.152-.1.165-.12.16a.192.192,0,0,1-.077-.211c0-.051-.083-.077-.147-.165a.267.267,0,0,1-.056-.235c0-.032.032-.083,0-.12s-.045-.019-.069-.056a.083.083,0,0,1,.069-.133.37.37,0,0,1,.1.019c.077.027.109.083.165.12a.7.7,0,0,0,.147.083.267.267,0,0,1,.1-.176h-.029a.352.352,0,0,1-.224-.051c-.056-.024-.069-.056-.147-.051a.674.674,0,0,1-.109,0c-.032,0-.059-.069-.045-.088a.237.237,0,0,1,.128-.077.267.267,0,0,1,.1,0c.059,0,.064-.051.077-.083a.268.268,0,0,1,.045-.1.238.238,0,0,1,.109-.051h.064a.266.266,0,0,1,.109.019c.032,0,.056.045.1,0s.019-.045.064-.069a.136.136,0,0,1,.133-.019.085.085,0,0,1,.019.088.776.776,0,0,1-.056.091.927.927,0,0,1-.056.16.336.336,0,0,1-.128.165l-.04.027a.216.216,0,0,1,.184.088c.027-.064.077-.12.1-.165a.535.535,0,0,0,.045-.2c0-.152.109-.16.133-.147s.064.037.064.179c0,.051.1.045.152.139a.267.267,0,0,1,.051.267c0,.032-.037.088,0,.128s.032.059.051.1a.1.1,0,0,1-.1.141.267.267,0,0,1-.1-.059c-.088-.056-.109-.064-.165-.1a.473.473,0,0,0-.141-.069l-.064-.024a.212.212,0,0,1-.061.1.715.715,0,0,0,.227.184.632.632,0,0,0,.888-.453.272.272,0,1,1,.144-.021.629.629,0,0,0,.062.093.6.6,0,0,0,.605.211.533.533,0,0,0,.424-.4.286.286,0,0,1-.2-.168.306.306,0,0,1-.059.147,1.064,1.064,0,0,0-.115.179.553.553,0,0,1-.077.128.094.094,0,0,1-.077.027.115.115,0,0,1-.077-.1.624.624,0,0,0-.027-.179c-.027-.051-.141-.088-.141-.243s.088-.179.115-.229a1.608,1.608,0,0,0-.027-.211c0-.051.037-.1.064-.1a.192.192,0,0,1,.141.077.3.3,0,0,0,.1.115.587.587,0,0,1,.128.12.207.207,0,0,1,.037.08.285.285,0,0,1,.2-.192h-.035a.4.4,0,0,1-.2-.128c-.051-.051-.051-.088-.128-.115s-.077-.027-.1-.051a.085.085,0,0,1,0-.1.171.171,0,0,1,.152-.037.336.336,0,0,1,.1.037c.051.027.064,0,.088,0s.056-.088.1-.115a.168.168,0,0,1,.179,0,.332.332,0,0,1,.1.115c.032.027.045.037.1,0a.338.338,0,0,1,.1-.037.171.171,0,0,1,.152.037.085.085,0,0,1,0,.1c-.024.027-.024.027-.1.051s-.077.064-.128.115a.4.4,0,0,1-.211.128H405.5a.286.286,0,0,1,.205.187.2.2,0,0,1,.04-.075.1.1,0,0,1,.019-.027.787.787,0,0,1,.069-.064.208.208,0,0,1,.037-.032.064.064,0,0,0,.032-.024.2.2,0,0,0,.069-.088.173.173,0,0,1,.077-.056.122.122,0,0,1,.064-.019.117.117,0,0,1,.064.1,1.53,1.53,0,0,0-.026.211.246.246,0,0,0,.037.045.235.235,0,0,1,.07.165v.037a.227.227,0,0,1-.069.152.3.3,0,0,0-.064.069.91.91,0,0,0-.027.179.107.107,0,0,1-.051.088.048.048,0,0,1-.027,0h-.045a.035.035,0,0,1-.032-.019.222.222,0,0,1-.045-.056.2.2,0,0,0-.032-.069l-.037-.064-.069-.109a.3.3,0,0,1-.067-.155.288.288,0,0,1-.205.168.533.533,0,0,0,.432.4.6.6,0,0,0,.6-.211.656.656,0,0,0,.064-.1h-.027a.177.177,0,0,1-.064-.056" transform="translate(-390.877 -181.656)" fill="#fff"/><path d="M408.213,192.28a.331.331,0,1,1,.331.331.331.331,0,0,1-.331-.331" transform="translate(-396.752 -182.099)" fill="#fff"/><path d="M408.828,184.653a.31.31,0,1,1,.325.325.325.325,0,0,1-.325-.325" transform="translate(-397.219 -176.307)" fill="#fff"/><path d="M411.017,183.437a.267.267,0,0,1,.248-.248.249.249,0,0,1,.176.424.245.245,0,0,1-.176.072.248.248,0,0,1-.248-.248" transform="translate(-398.886 -175.435)" fill="#fff"/><path d="M412.993,182.891a.24.24,0,1,1,.239.215.239.239,0,0,1-.239-.215" transform="translate(-400.392 -175.027)" fill="#fff"/><path d="M415.049,182.958a.2.2,0,1,1,.2.2.2.2,0,0,1-.2-.2" transform="translate(-401.957 -175.108)" fill="#fff"/><path d="M416.705,183.123a.2.2,0,1,1,.2.2.2.2,0,0,1-.2-.2" transform="translate(-403.218 -175.22)" fill="#fff"/><path d="M418.307,183.709a.147.147,0,1,1,.147.147.147.147,0,0,1-.147-.147" transform="translate(-404.439 -175.717)" fill="#fff"/><path d="M419.483,184.261a.125.125,0,1,1,.056.124.126.126,0,0,1-.056-.124" transform="translate(-405.333 -176.157)" fill="#fff"/><path d="M420.444,184.561a.2.2,0,0,1,.2-.2.195.195,0,0,1,.2.2.189.189,0,0,1-.2.2.194.194,0,0,1-.2-.2" transform="translate(-406.065 -176.327)" fill="#fff"/><path d="M420.31,186.249a.227.227,0,0,1,.229-.229.229.229,0,1,1-.229.229" transform="translate(-405.965 -177.589)" fill="#fff"/><path d="M420.1,188.2a.283.283,0,1,1,.28.28.267.267,0,0,1-.28-.28" transform="translate(-405.794 -179.037)" fill="#fff"/><path d="M419.776,190.6a.355.355,0,1,1,.1.251.355.355,0,0,1-.1-.251" transform="translate(-405.556 -180.802)" fill="#fff"/><path d="M401.271,199a.3.3,0,1,1,.3.3.3.3,0,0,1-.3-.3" transform="translate(-391.462 -187.25)" fill="#fff"/><path d="M399.988,196.58a.333.333,0,1,1,.1.236.333.333,0,0,1-.1-.236" transform="translate(-390.486 -185.38)" fill="#fff"/><path d="M399.561,194.153a.309.309,0,1,1,.312.307.309.309,0,0,1-.312-.307" transform="translate(-390.159 -183.554)" fill="#fff"/><path d="M400.07,191.8a.267.267,0,0,1,.28-.28.283.283,0,1,1,0,.565.267.267,0,0,1-.28-.285" transform="translate(-390.547 -181.779)" fill="#fff"/><path d="M401.084,189.967a.267.267,0,1,1,.267.267.267.267,0,0,1-.267-.267" transform="translate(-391.321 -180.405)" fill="#fff"/><path d="M402.606,188.619a.224.224,0,1,1,.224.224.227.227,0,0,1-.224-.224" transform="translate(-392.48 -179.4)" fill="#fff"/><path d="M404.314,187.9a.2.2,0,1,1,.2.2.2.2,0,0,1-.2-.2" transform="translate(-393.781 -178.869)" fill="#fff"/><path d="M405.97,187.659a.171.171,0,0,1,.171-.171.173.173,0,1,1,0,.344.171.171,0,0,1-.171-.171" transform="translate(-395.042 -178.708)" fill="#fff"/><path d="M431.553,192.28a.331.331,0,1,1,.331.331.331.331,0,0,1-.331-.331" transform="translate(-414.526 -182.099)" fill="#fff"/><path d="M430.991,184.653a.31.31,0,1,1,.325.325.325.325,0,0,1-.325-.325" transform="translate(-414.098 -176.307)" fill="#fff"/><path d="M429.443,183.437a.248.248,0,0,1,.248-.248.267.267,0,0,1,.248.248.248.248,0,0,1-.248.248.245.245,0,0,1-.248-.248" transform="translate(-412.921 -175.435)" fill="#fff"/><path d="M427.546,182.876a.24.24,0,1,1,.239.215.24.24,0,0,1-.239-.215" transform="translate(-411.475 -175.012)" fill="#fff"/><path d="M425.837,182.958a.2.2,0,1,1,.2.2.2.2,0,0,1-.2-.2" transform="translate(-410.173 -175.108)" fill="#fff"/><path d="M424.209,183.123a.192.192,0,0,1,.192-.2.2.2,0,1,1,0,.395.192.192,0,0,1-.192-.2" transform="translate(-408.933 -175.22)" fill="#fff"/><path d="M423.007,183.709a.149.149,0,0,1,.152-.147.144.144,0,0,1,.147.147.149.149,0,0,1-.147.152.155.155,0,0,1-.152-.152" transform="translate(-408.017 -175.717)" fill="#fff"/><path d="M422.046,184.271a.125.125,0,1,1,.128.128.128.128,0,0,1-.128-.128" transform="translate(-407.285 -176.167)" fill="#fff"/><path d="M439.75,196.577a.328.328,0,1,1,.1.235.331.331,0,0,1-.1-.235" transform="translate(-420.768 -185.376)" fill="#fff"/><path d="M440.444,194.17a.3.3,0,1,1,.293.293.3.3,0,0,1-.293-.293" transform="translate(-421.297 -183.571)" fill="#fff"/><path d="M440.15,191.841a.267.267,0,1,1,.267.267.267.267,0,0,1-.267-.267" transform="translate(-421.073 -181.819)" fill="#fff"/><path d="M439.35,189.979a.248.248,0,1,1,.248.248.248.248,0,0,1-.248-.248" transform="translate(-420.464 -180.417)" fill="#fff"/><path d="M438.068,188.616a.221.221,0,1,1,.221.224.227.227,0,0,1-.221-.224" transform="translate(-419.488 -179.397)" fill="#fff"/><path d="M436.573,187.9a.195.195,0,0,1,.2-.2.2.2,0,0,1,0,.395.195.195,0,0,1-.2-.2" transform="translate(-418.347 -178.869)" fill="#fff"/><path d="M435.1,187.659a.171.171,0,0,1,.171-.171.173.173,0,1,1,0,.344.171.171,0,0,1-.171-.171" transform="translate(-417.234 -178.708)" fill="#fff"/><path d="M407.386,186.83a.333.333,0,1,1,.1.236.333.333,0,0,1-.1-.236" transform="translate(-396.12 -177.952)" fill="#fff"/><path d="M407.386,186.83a.333.333,0,1,1,.1.236.333.333,0,0,1-.1-.236" transform="translate(-396.12 -177.952)" fill="#fff"/><path d="M406.852,189.5a.384.384,0,1,1,.115.272.384.384,0,0,1-.115-.272" transform="translate(-395.713 -179.952)" fill="#fff"/><path d="M432.407,186.852a.32.32,0,0,1,.317-.325.325.325,0,0,1,.325.325.32.32,0,0,1-.325.317.315.315,0,0,1-.318-.317" transform="translate(-415.176 -177.976)" fill="#fff"/><path d="M432.46,189.552a.381.381,0,1,1,.381.381.381.381,0,0,1-.381-.381" transform="translate(-415.215 -179.99)" fill="#fff"/><path d="M418.759,200.775l-.765-.472.765-.477.765.477c-.267.157-.515.307-.765.472" transform="translate(-404.2 -188.104)" fill="#fff"/><path d="M419.432,200.361c.187.112.365.245.56.344l-.56.349-.555-.349Z" transform="translate(-404.872 -188.51)" fill="#fff"/><path d="M427.558,201.524l-1.2-.411-.189.605,1.2.411Z" transform="translate(-410.421 -189.081)" fill="#fff"/><path d="M427.823,202.022l-1.032-.355-.125.395,1.032.355Z" transform="translate(-410.799 -189.519)" fill="#fff"/><path d="M434.737,204.348l-.019.4-.341.155-.283-.515Z" transform="translate(-416.461 -191.546)" fill="#fff"/><path d="M434.535,204.153l-.677.013.323.52c.029.051-.043.107-.064.085l-.349-.667s.077-.013.8-.059c.029,0,.032.1-.027.1" transform="translate(-416.214 -191.318)" fill="#fff"/><path d="M410.392,201.524l1.2-.411.189.605-1.2.411Z" transform="translate(-398.409 -189.081)" fill="#fff"/><path d="M410.891,202.022l1.032-.355.123.395-1.032.355Z" transform="translate(-398.786 -189.519)" fill="#fff"/><path d="M405.846,204.348l.019.4.341.155.283-.515Z" transform="translate(-394.947 -191.546)" fill="#fff"/><path d="M405.511,204.153l.677.013-.323.52c-.029.051.04.107.064.085l.349-.667s-.077-.013-.8-.059c-.029,0-.032.1.027.1" transform="translate(-394.655 -191.318)" fill="#fff"/><path d="M438.806,199a.3.3,0,1,1,.3.3.3.3,0,0,1-.3-.3" transform="translate(-420.05 -187.254)" fill="#fff"/><path d="M399.734,213.345a12.39,12.39,0,0,0,4.84,9.3c-.267.267-.509.5-.627.624a13.949,13.949,0,0,1-5.107-10.792h10.291v.872Z" transform="translate(-389.614 -197.73)" fill="#fff"/><path d="M416.2,220.55h-8.077a9.866,9.866,0,0,0,4.352,7.413c.179-.187.408-.416.563-.565a8.6,8.6,0,0,1-3.829-5.957H416.2Z" transform="translate(-396.681 -203.887)" fill="#fff"/></g></g></svg>