<svg xmlns="http://www.w3.org/2000/svg" xmlns:xlink="http://www.w3.org/1999/xlink" width="64" height="64" viewBox="0 0 64 64"><defs><clipPath id="a"><rect width="30.603" height="9.208" rx="4.604" fill="#fff"/></clipPath></defs><g transform="translate(-195.082 -161.823)"><g transform="translate(195.082 161.823)"><g transform="translate(0 0)"><path d="M259.082,190.828a32,32,0,1,1-32-32,32,32,0,0,1,32,32" transform="translate(-195.082 -158.828)" fill="#ffc336"/></g><g transform="translate(15.978 3.445)" clip-path="url(#a)"><path d="M1.491,22.36.3,23.113,0,22.64l1.722-1.089,1.7,2.679-.53.336Zm2.388-.742a1.574,1.574,0,0,1-.348-.642,1.085,1.085,0,0,1,.032-.643,1.382,1.382,0,0,1,.421-.576,1.451,1.451,0,0,1,.455-.27,1.119,1.119,0,0,1,.476-.065,1.145,1.145,0,0,1,.473.153,1.676,1.676,0,0,1,.444.377l1.206,1.413-.479.408L5.378,20.392a1.077,1.077,0,0,0-.323-.264.641.641,0,0,0-.355-.072.638.638,0,0,0-.56.621.877.877,0,0,0,.242.565l1.179,1.382-.477.407ZM7.912,19.4a.851.851,0,0,1-.182-.218.693.693,0,0,1-.086-.28.717.717,0,0,1,.044-.325l-.007-.006a.84.84,0,0,1-.524.169.811.811,0,0,1-.5-.216.933.933,0,0,1-.223-.279.778.778,0,0,1-.085-.325.858.858,0,0,1,.073-.364,1.437,1.437,0,0,1,.247-.385l.861-.991,2.4,2.08-.751.864a1.274,1.274,0,0,1-.655.452.675.675,0,0,1-.14.015A.705.705,0,0,1,7.912,19.4Zm.334-1.186a.682.682,0,0,0-.126.2.387.387,0,0,0-.02.212.33.33,0,0,0,.116.191.317.317,0,0,0,.389.043.8.8,0,0,0,.23-.193l.267-.308-.561-.487Zm-1.035-.823a.874.874,0,0,0-.16.252.432.432,0,0,0-.027.238.35.35,0,0,0,.121.2.362.362,0,0,0,.322.09.67.67,0,0,0,.355-.241l.336-.387L7.543,17Zm1.307-2.5.343-.544,2.522-.06,0-.008L9.61,13.151l.333-.529,2.683,1.691-.333.53-2.565.05,0,.007,1.813,1.143-.335.531Zm2.068-3.455.258-.6.668.051.479-1.118-.5-.448.258-.6L14.2,11.034l-.238.557Zm1.492-.509,1.312.1v0l-.978-.879Zm2.467-2.371.234-.847-2.514-.694.167-.6,2.514.695.233-.842.542.149L15.087,8.7ZM15.28,4.24a1.143,1.143,0,0,0,.4-.642.423.423,0,0,0-.047-.283.289.289,0,0,0-.217-.138.257.257,0,0,0-.109.007.3.3,0,0,0-.094.047.479.479,0,0,0-.093.1c-.033.044-.063.089-.091.135s-.062.107-.105.184a5.634,5.634,0,0,1-.294.49.827.827,0,0,1-.448.337.9.9,0,0,1-.349.014.976.976,0,0,1-.355-.116.812.812,0,0,1-.25-.214,1.073,1.073,0,0,1-.151-.281,1.183,1.183,0,0,1-.07-.314,1.489,1.489,0,0,1,.009-.318,1.574,1.574,0,0,1,.206-.591,1.621,1.621,0,0,1,.444-.486l.409.436a1.2,1.2,0,0,0-.2.163,1.156,1.156,0,0,0-.151.184,1.026,1.026,0,0,0-.1.19.834.834,0,0,0-.051.191.649.649,0,0,0,.009.255.338.338,0,0,0,.1.168.3.3,0,0,0,.166.073.328.328,0,0,0,.126,0,.3.3,0,0,0,.1-.046.445.445,0,0,0,.1-.1,1.46,1.46,0,0,0,.092-.14c.028-.049.062-.114.1-.2s.072-.137.1-.193.069-.116.114-.18a1.531,1.531,0,0,1,.13-.165,1.106,1.106,0,0,1,.148-.133.728.728,0,0,1,.174-.1.833.833,0,0,1,.2-.049.9.9,0,0,1,.236,0,.821.821,0,0,1,.435.2.941.941,0,0,1,.273.409,1.162,1.162,0,0,1,.052.526,1.616,1.616,0,0,1-.539,1ZM17.139.767a.338.338,0,0,1-.25-.113.349.349,0,0,1-.1-.257A.347.347,0,0,1,16.9.144a.352.352,0,0,1,.5.012.351.351,0,0,1,.1.258.353.353,0,0,1-.111.252.338.338,0,0,1-.243.1ZM13.285.632,13.3,0l3.169.078L16.453.71Z" transform="translate(10.008 18.162) rotate(-120)" fill="#00152e"/></g><g transform="translate(11.194 9.98)"><path d="M330.059,300.16a20.8,20.8,0,1,0-22.878-18.5,20.8,20.8,0,0,0,22.878,18.5" transform="translate(-307.064 -258.666)" fill="#00162f"/></g><g transform="translate(2.09 9.119)"><path d="M219.656,434.217l1.143,2.214,2.519.373-1.813,1.741.414,2.444-2.263-1.138-2.263,1.138.414-2.444-1.813-1.741,2.519-.373Z" transform="translate(-215.994 -415.807)" fill="#0f223d"/><path d="M749.757,434.217l1.143,2.214,2.518.373-1.812,1.741.414,2.444-2.263-1.138-2.262,1.138.414-2.444L746.1,436.8l2.518-.373Z" transform="translate(-693.104 -415.807)" fill="#0f223d"/><path d="M520.465,426.9a96.823,96.823,0,0,1,13.268,5.644c.448.23.1.6-.377.4-4.666-1.892-10.761-4.111-14.016-5.156-.351-.113-.41-.406-.1-.479a7.7,7.7,0,0,0,1.223-.411" transform="translate(-488.745 -409.217)" fill="#ffc336"/><path d="M535.21,431.124a10.87,10.87,0,0,1,2.741,3.184c.084.136-.178.321-.273.222a17.649,17.649,0,0,0-2.845-2.381c-.073-.044-.053-.308.031-.43a5.483,5.483,0,0,0,.347-.6" transform="translate(-502.919 -413.023)" fill="#ffc336"/><path d="M450.8,424.111c.618.286,1.4,1.478,2.478,2.951.094.129-.152.334-.255.244A17.6,17.6,0,0,0,450,425.163c-.076-.038-.079-.3,0-.431a5.5,5.5,0,0,0,.3-.621Z" transform="translate(-426.55 -406.711)" fill="#ffc336"/><path d="M531.455,424.083a11.466,11.466,0,0,1,4.405.5c.163.046.092.376-.052.368a18.6,18.6,0,0,0-3.91.2c-.088.018-.263-.2-.284-.354a5.741,5.741,0,0,0-.158-.71" transform="translate(-499.92 -406.627)" fill="#ffc336"/><path d="M619.286,443.565a12.459,12.459,0,0,1,4.418,1.159c.155.068-.016.364-.164.334a21.723,21.723,0,0,0-4.112-.435c-.1,0-.213-.227-.189-.374a4.868,4.868,0,0,0,.047-.685" transform="translate(-578.926 -424.218)" fill="#e59c38"/><path d="M389.744,406.182a4.031,4.031,0,0,1,.14-.581,1.148,1.148,0,0,1,.636-.652.777.777,0,0,1,.175-.086c.624-.2.2.2.053.317-.038.031-.215.181-.338.305a.708.708,0,0,0-.029.583,3.118,3.118,0,0,1,.149.307.752.752,0,0,1,.032.072.066.066,0,0,1,0,.024,6.575,6.575,0,0,1-.311,2.307.065.065,0,0,1-.112.012,3.67,3.67,0,0,1-.428-2.423h0a.626.626,0,0,1,.028-.185" transform="translate(-372.315 -389.337)" fill="#ffc336"/><path d="M413.779,393.343a10.9,10.9,0,0,0-1.017-.861,44.464,44.464,0,0,0-8.735-4.779.256.256,0,0,1-.131-.137c-.014-.049-3.8-5.732-5.05-6.178-.93-.332-1.691.563-2.426,1.428-.674.793-1.369,1.617-2.193,1.534-.014,0-.1-.038-.324-.124l-.267-.1-.263-.1a25.707,25.707,0,0,0-3.567-1.157,4.9,4.9,0,0,0-2.909.047.054.054,0,0,1-.026,0,17.651,17.651,0,0,0-5.006-.267l-.017,0a2.47,2.47,0,0,0-1.979,1.823,5.849,5.849,0,0,0,.562,3.982.039.039,0,0,1,0,.024,3.136,3.136,0,0,0,1.444,3.368l.374.2a.172.172,0,0,0,.169,0,.174.174,0,0,0,.091-.143l.028-.427a5.058,5.058,0,0,1,.3-1.53.048.048,0,0,1,.045-.029.051.051,0,0,1,.048.034,7.455,7.455,0,0,0,1.4,2.436l.43.478a.177.177,0,0,0,.307-.106l.044-.644a7.865,7.865,0,0,1,.106-.858.092.092,0,0,1,.1-.08.093.093,0,0,1,.092.092,6.155,6.155,0,0,1-.236,2.257,3.693,3.693,0,0,1-1.589,2.257.235.235,0,0,1-.054-.016c-.248-.1-.52-.647-.665-.94l-.333-.658a.177.177,0,0,0-.324.02l-.273.754a6.085,6.085,0,0,0-.043,3.256.1.1,0,0,1,0,.046,3.067,3.067,0,0,0,.643,3.2,4.119,4.119,0,0,0,4.056.916,10.516,10.516,0,0,0,2.63-1.175.05.05,0,0,1,.04-.005,11.617,11.617,0,0,1,6.282,4.747c.023.034,2.786,3.689,2.818,3.71a.069.069,0,0,0,.038.011.086.086,0,0,0,.06-.027c.075-.068.287-.445.172-.665-.166-.316-1.261-1.652-1.986-2.536-.322-.393-.628-.765-.651-.806a8.312,8.312,0,0,0-6.826-4.968.162.162,0,0,0-.1.025,10.135,10.135,0,0,1-2.618,1.193,3.637,3.637,0,0,1-3.576-.8,2.613,2.613,0,0,1-.461-2.772.164.164,0,0,0,.005-.092,6.314,6.314,0,0,1-.028-2.978.051.051,0,0,1,.045-.038.048.048,0,0,1,.049.027c.3.585.61,1.1,1.172,1.091a.205.205,0,0,0,.079-.019,4.466,4.466,0,0,0,2.122-3.459,3.889,3.889,0,0,0-.464-3.054.174.174,0,0,0-.156-.046.171.171,0,0,0-.124.1,6.469,6.469,0,0,0-.49,1.987.049.049,0,0,1-.036.042.047.047,0,0,1-.051-.015,8.442,8.442,0,0,1-1.32-2.6.17.17,0,0,0-.2-.112c-.544.127-.872.847-.977,2.139a.042.042,0,0,1-.024.037.052.052,0,0,1-.052,0,2.692,2.692,0,0,1-1.006-2.847.184.184,0,0,0-.015-.113c-1.086-2.262-.71-3.593-.39-4.185a1.841,1.841,0,0,1,1.359-.994,16.994,16.994,0,0,1,4.979.282.176.176,0,0,0,.108-.014c1.518-.719,6.244,1.084,7.176,1.452a.153.153,0,0,0,.06.017,4.052,4.052,0,0,0,3.028-1.983c.4-.517.746-.963,1.144-1a.99.99,0,0,1,.72.314c.415.364,3.944,5.011,3.717,5.616-.006.017-.017.035-.065.035l-.1,0c-.214.016-.255.133-.26.2a.325.325,0,0,0,.168.3c3.063.692,7.582,3.091,10.523,4.935l.049.033c.28.189.392.24.462.214.131-.05.183-.123.155-.215" transform="translate(-363.345 -368.195)" fill="#e59c38"/><path d="M434.651,498.723c-.415-.265-.908-.522-1.345-.126-.569.516-.664,1.857-1.4,2.446a.064.064,0,0,1-.092-.089c.691-.871.347-1.774.976-2.6a.065.065,0,0,0,.008-.068.43.43,0,0,0-.781.057c-.308,1.127-.109,1.87-1.1,2.568a.063.063,0,0,0-.024.075,3.7,3.7,0,0,0,.812,1.544.069.069,0,0,0,.049.014c1.9-.168,2.594-2.315,2.894-3.815" transform="translate(-409.409 -473.267)" fill="#f36e35"/><path d="M416.581,533.75c.253-.014.353-.869.116-1.1a2.977,2.977,0,0,0-.528.112c-.145.024-.288-.024-.411.026-.069.028.051.177.07.23.123.351.168.564.535.725a.24.24,0,0,0,.131.016Z" transform="translate(-395.77 -504.4)" fill="#f36e35"/><path d="M395.916,450.923a.141.141,0,0,1,.059-.084c2.086-1.4,5.335.784,6.718,2.572.07.088.029.113-.048.027a8.032,8.032,0,0,0-2.99-1.943.2.2,0,0,0-.229.072,3.358,3.358,0,0,0-.428,1,.2.2,0,0,1-.381.027,4.39,4.39,0,0,1-.408-1.505.2.2,0,0,0-.163-.2,1.505,1.505,0,0,0-1.651,1.221.2.2,0,0,1-.388.007,2.49,2.49,0,0,1-.091-1.2" transform="translate(-377.894 -430.364)" fill="#fff"/><path d="M467.614,422.658a5.57,5.57,0,0,1,1.51.027.129.129,0,0,1,.066.228,1.1,1.1,0,0,1-1.575-.112c-.032-.027-.123-.089-.094-.126Z" transform="translate(-442.372 -405.367)" fill="#fff"/><path d="M413.85,521.452a2.129,2.129,0,0,1-.7-1.126.118.118,0,0,0-.228.02,2.384,2.384,0,0,0-.055.953c.012.044-.467-.09-.522-.12a3.26,3.26,0,0,1-1.067-1.246.065.065,0,0,0-.119.037,2.688,2.688,0,0,0,.131.815,1.51,1.51,0,0,0,.81.887c2.893,1.305,4.929-.8,5.218-3.513a.064.064,0,0,0-.125-.027c-.431,1.394-1.631,3.384-3.339,3.32" transform="translate(-391.646 -491.293)" fill="#fff"/><path d="M489.478,502.612c4.107-1.583,4.086-4.83,4.538-6.659.005-.048.152-.1.205-.035.474,1.831.117,6.475-4.769,6.9-.109.025-.117-.173.025-.208" transform="translate(-462.043 -471.311)" fill="#ffc336"/><path d="M524.165,441.563c-2.171-3.829-5.379-3.331-7.254-3.508-.049,0-.126-.135-.064-.2,1.741-.739,6.386-1.069,7.528,3.7.041.1-.154.141-.209.006" transform="translate(-486.752 -418.696)" fill="#ffc336"/><path d="M419.722,392.845c-1.019-.963-1.008,1.825-3.883,2.666a2.569,2.569,0,0,1-1.091.131,24.63,24.63,0,0,0-4.351-1.376c-.342-.069-1.887-.555-2.332-.071a.188.188,0,0,1-.19.049,18.329,18.329,0,0,0-3.383-.605c-.033,0-.143.1-.163.161a.334.334,0,0,0-.014.114.15.15,0,0,0,.1.125,1.265,1.265,0,0,0,.216.05,1.782,1.782,0,0,0,.2.009c.091.005.192-.018.221.01s-.038.254-.1.258a1.932,1.932,0,0,0-1.3,3.418l.135.044c1.667-.085,5.389,2.034,7.243,4.087a.065.065,0,0,0,.1-.083,14.654,14.654,0,0,0-3.69-3.291.214.214,0,0,1,.211-.371l.074.037a.213.213,0,0,0,.211-.37c-.435-.27-.886-.531-1.329-.768a.2.2,0,0,1,.161-.363,14.073,14.073,0,0,1,3.373,1.728.064.064,0,0,0,.084-.1,3.241,3.241,0,0,1-.474-.7c-.1-.248-.412-.917-.494-1.163a.106.106,0,0,0-.011-.024c-.258-.43-.723-.619-1.086-.923a.2.2,0,0,1,.183-.341,2.649,2.649,0,0,0,.933-.013,5.344,5.344,0,0,1,1.207-.066,10.679,10.679,0,0,1,3.876,1.126.065.065,0,0,1-.045.122,12.994,12.994,0,0,0-1.868-.461l-.131.065a1.978,1.978,0,0,1-1.424.752.2.2,0,0,0-.045.39,1.452,1.452,0,0,0,1.129-.127.2.2,0,0,1,.2-.018,7.752,7.752,0,0,1,2.922,3.737.2.2,0,0,0,.386-.058,4.728,4.728,0,0,0-.072-1.239.2.2,0,0,1,.348-.169,7.436,7.436,0,0,1,1.624,3.769.2.2,0,0,0,.384.041,6.663,6.663,0,0,0-.465-5.2,10.407,10.407,0,0,0-1.458-1c-.2-.079,2.221-2.026,2.343-2.149,1.631-1.631,1.134-1.112,1.944-.5.253.192,2.586,2.845,2.648,3.465.012.119.391.147.466-.1.11-.372-3.418-4.61-3.527-4.713" transform="translate(-384.276 -378.391)" fill="#ffc336"/><path d="M558.213,478.129H558.2a.285.285,0,0,1-.113.036.232.232,0,0,0-.2.291.417.417,0,0,1-.022.207.305.305,0,0,0-.016.135.335.335,0,0,1-.119.294c-.055.044-.108.09-.163.134a.209.209,0,0,0-.08.212,2.234,2.234,0,0,0,.06.4.113.113,0,0,1,0,.055.254.254,0,0,0,.152.276.685.685,0,0,0,.065.034.36.36,0,0,1,.145.108.39.39,0,0,0,.212.138.791.791,0,0,1,.121.043.116.116,0,0,1,.062.174.21.21,0,0,1-.064.076l-.1.071c-.135.1-.115.213,0,.314a.219.219,0,0,0,.082.039,1.512,1.512,0,0,0,.313.07.841.841,0,0,0,.622-.124.329.329,0,0,1,.252-.061.465.465,0,0,0,.155,0,.223.223,0,0,1,.1,0,1.233,1.233,0,0,0,.428.028c.033,0,.067,0,.1,0a.793.793,0,0,0,.375-.06.152.152,0,0,1,.107-.014,1.06,1.06,0,0,0,.228.013.215.215,0,0,0,.2-.134.4.4,0,0,0,.034-.123.649.649,0,0,1,.1-.273,1,1,0,0,0,.089-.181.176.176,0,0,0-.052-.215,1.4,1.4,0,0,1-.167-.195.317.317,0,0,0-.053-.062.569.569,0,0,1-.139-.191c-.052-.1-.109-.191-.167-.284a.2.2,0,0,0-.124-.1.334.334,0,0,0-.344.135.819.819,0,0,1-.319.269.078.078,0,0,1-.094-.008.082.082,0,0,1-.029-.1.72.72,0,0,1,.035-.084.193.193,0,0,0-.043-.257l-.039-.039a.207.207,0,0,1-.043-.3.274.274,0,0,0-.172-.4.493.493,0,0,0-.254-.006.735.735,0,0,1-.362-.032.361.361,0,0,1-.193-.147l-.056-.047a1.485,1.485,0,0,0-.424-.082.089.089,0,0,1-.08-.034m2.339,2.066a.224.224,0,0,1-.057.282c-.047.039-.085.087-.131.127a.155.155,0,0,1-.168.041.156.156,0,0,0-.1,0,.147.147,0,0,1-.2-.134,1.213,1.213,0,0,1-.007-.127.187.187,0,0,1,.063-.156c.032-.029.061-.06.093-.088a.426.426,0,0,1,.062-.039.576.576,0,0,1,.2-.057.227.227,0,0,1,.244.151m-2.157-.1a.477.477,0,0,0-.183-.187c-.028-.013-.04-.045-.053-.073a.578.578,0,0,1,.017-.47.153.153,0,0,1,.1-.083.651.651,0,0,1,.317-.008.142.142,0,0,1,.1.067c.008.013.016.026.024.039a.185.185,0,0,0,.221.1.1.1,0,0,1,.119.046.178.178,0,0,0,.162.082.171.171,0,0,1,.145.213c-.021.065-.067.078-.117.032-.023-.022-.033-.067-.074-.058s-.046.054-.054.088a.169.169,0,0,1-.137.129,2.083,2.083,0,0,0-.408.133.133.133,0,0,1-.177-.051" transform="translate(-523.348 -455.329)" fill="#ffc336"/><path d="M541.479,540.868a.417.417,0,0,0-.255.126c-.094.071-.175.152-.261.231a.167.167,0,0,0-.061.109.256.256,0,0,1-.036.094.246.246,0,0,0-.032.1.367.367,0,0,1-.06.181.177.177,0,0,0-.018.166.286.286,0,0,1-.037.278.741.741,0,0,0-.081.143.176.176,0,0,0,.051.222.348.348,0,0,1,.133.211.626.626,0,0,0,.086.171.1.1,0,0,0,.066.046,1.087,1.087,0,0,0,.253.04,1.029,1.029,0,0,1,.247.015.377.377,0,0,0,.19-.018.2.2,0,0,1,.195.043.6.6,0,0,1,.207.286.292.292,0,0,0,.2.2c.018.005.034.013.051.02.069.026.1.032.125.008a.279.279,0,0,0,.047-.081c.032-.069.076-.131.108-.2a1.406,1.406,0,0,0,.065-.141.114.114,0,0,1,.053-.072,2,2,0,0,1,.207-.1c.053-.02.12.038.129.1a.133.133,0,0,1-.014.08.181.181,0,0,0,0,.182c.044.08.014.14-.073.173a.64.64,0,0,1-.284.062.084.084,0,0,0-.088.048.135.135,0,0,0-.007.02c-.014.052-.041.1.009.154a.167.167,0,0,0,.1.055,1.32,1.32,0,0,0,.419.009.215.215,0,0,0,.182-.148c.032-.115.087-.222.108-.34a.565.565,0,0,0-.159-.53.784.784,0,0,1-.117-.141.24.24,0,0,0-.178-.117.235.235,0,0,1-.189-.178.2.2,0,0,1,.06-.217.983.983,0,0,0,.189-.223.227.227,0,0,0,.023-.193.562.562,0,0,0-.051-.127.13.13,0,0,1-.024-.068.412.412,0,0,0-.068-.216.2.2,0,0,1-.037-.148l-.055-.057a.434.434,0,0,1-.218-.08c-.044-.032-.091-.06-.137-.088a.373.373,0,0,1-.137-.131h-.73a.637.637,0,0,0-.073.038.05.05,0,0,1-.026.008m.463.434a.592.592,0,0,0,.169.036.083.083,0,0,1,.054.033.354.354,0,0,0,.152.1.258.258,0,0,1,.144.359.635.635,0,0,1-.156.233.282.282,0,0,1-.178.086.342.342,0,0,0-.176.068.559.559,0,0,1-.329.12c-.091.01-.164-.057-.249-.088a.054.054,0,0,1-.029-.07c.034-.09.016-.189.056-.278.012-.028.2-.375.225-.4a.357.357,0,0,1,.13-.1.489.489,0,0,0,.115-.075c.022-.017.046-.039.074-.027" transform="translate(-508.167 -511.755)" fill="#ffc336"/><path d="M659,538.94a.589.589,0,0,0,.249-.076.23.23,0,0,0,.081-.327.619.619,0,0,0-.177-.192.983.983,0,0,1-.422-.585,1.894,1.894,0,0,0-.259-.529.8.8,0,0,0-.429-.318,1.063,1.063,0,0,1-.43-.291.412.412,0,0,0-.444-.174.632.632,0,0,0-.491.436c-.016.058-.025.117-.039.176s-.049.124-.125.134a.139.139,0,0,1-.15-.1l-.012-.03c-.03-.072-.063-.146-.156-.148a.208.208,0,0,0-.187.137c-.047.092-.1.184-.143.277a1.26,1.26,0,0,0-.084.645,4.8,4.8,0,0,0,.105.961.625.625,0,0,0,.034.127.655.655,0,0,1,.078.362c-.012.122.074.187.183.22a.979.979,0,0,1,.494.363l.11.065a1.044,1.044,0,0,1,.447.226l.044.03,1.585-1.08a1.04,1.04,0,0,1-.015-.125c-.009-.128.024-.166.153-.182" transform="translate(-611.818 -507.804)" fill="#ffc336"/><path d="M486.43,519.123l.155-.08a.247.247,0,0,0,.094-.37.64.64,0,0,0-.31-.248c-.049-.019-.109-.028-.126-.093a.13.13,0,0,1-.032-.122.1.1,0,0,1,.008-.07A.145.145,0,0,0,486.2,518c-.045-.071-.077-.079-.156-.041a.129.129,0,0,1-.026.007l-.026.021s0,.007,0,.009a.315.315,0,0,0-.109.248.587.587,0,0,1-.072.216c-.063.127-.051.137.038.25.105.132.236.238.345.365a.172.172,0,0,0,.237.044" transform="translate(-458.801 -491.16)" fill="#ffc336"/><path d="M574.977,525.63a.4.4,0,0,0,.056.443,2.618,2.618,0,0,0,.286.229.771.771,0,0,0,.665.15.213.213,0,0,0,.147-.081.288.288,0,0,0,.047-.151.119.119,0,0,0-.063-.124.47.47,0,0,1-.156-.151.126.126,0,0,1-.021-.137.8.8,0,0,1,.138-.287.117.117,0,0,0,.022-.05q.062-.207.122-.413a.172.172,0,0,0,.008-.108.336.336,0,0,1,0-.2.343.343,0,0,0,0-.11.186.186,0,0,1,.038-.125.2.2,0,0,1,.159-.091l.037,0a.669.669,0,0,1,.266.063.444.444,0,0,0,.338.03.712.712,0,0,1,.405.032.209.209,0,0,1,.057.03c.036.024.071.052.067.1s-.045.067-.088.08a.45.45,0,0,0-.225.166.312.312,0,0,0-.006.376c.05.07.1.14.146.211a.474.474,0,0,1,.051.1.086.086,0,0,1-.072.128.391.391,0,0,0-.139.055,1.156,1.156,0,0,0-.177.124.147.147,0,0,0-.049.149c.008.054.051.069.1.084h0a.283.283,0,0,0,.18-.006,1.821,1.821,0,0,1,.373-.095.547.547,0,0,0,.176-.045.679.679,0,0,1,.337-.071.449.449,0,0,0,.172-.025.841.841,0,0,1,.479-.023.276.276,0,0,0,.082.011c.08,0,.121-.062.082-.131a1.5,1.5,0,0,0-.244-.406.915.915,0,0,1-.081-.088.127.127,0,0,1,.005-.2.654.654,0,0,1,.276-.175,1.334,1.334,0,0,0,.126-.054.242.242,0,0,0,.141-.2.117.117,0,0,0-.067-.137.358.358,0,0,0-.3-.05c-.035.011-.072.013-.108.022a.2.2,0,0,1-.142-.017c-.071-.035-.142-.072-.212-.109a.406.406,0,0,0-.146-.053.15.15,0,0,1-.136-.118.352.352,0,0,0-.247-.225.212.212,0,0,0-.134-.013,1.089,1.089,0,0,1-.489-.01.207.207,0,0,1-.083-.038.644.644,0,0,0-.227-.1.754.754,0,0,1-.14-.044.4.4,0,0,0-.354.01,1.08,1.08,0,0,0-.376.222.876.876,0,0,0-.1.106.273.273,0,0,1-.075.079,2.365,2.365,0,0,0-.408.381.205.205,0,0,0-.058.1.4.4,0,0,1-.178.247.866.866,0,0,0-.28.365.156.156,0,0,0,0,.158.168.168,0,0,1-.007.2" transform="translate(-539.053 -496.363)" fill="#ffc336"/><path d="M625.171,574.6a.1.1,0,0,1,.106-.039.126.126,0,0,0,.112-.022.282.282,0,0,0,.1-.119.424.424,0,0,1,.153-.19.192.192,0,0,0,.079-.12.2.2,0,0,1,.189-.16,1.712,1.712,0,0,0,.284-.068.414.414,0,0,0,.213-.135c.063-.074.112-.16.182-.229a.047.047,0,0,0,.013-.024.7.7,0,0,0,.035-.377.3.3,0,0,1-.011-.036.281.281,0,0,1,.037-.228.288.288,0,0,1,.022-.03,1.316,1.316,0,0,0,.087-.129.17.17,0,0,0,.034-.1.413.413,0,0,1,.026-.162.087.087,0,0,0-.039-.111c-.035-.024-.07-.049-.1-.075a.308.308,0,0,0-.169-.062c-.106-.011-.209-.042-.317-.045a.223.223,0,0,1-.094-.034.546.546,0,0,0-.221-.054c-.134-.013-.268,0-.4,0a.312.312,0,0,0-.19.057c-.05.034-.1.065-.157.1a.267.267,0,0,1-.247.019c-.048-.02-.1-.034-.145-.058a.163.163,0,0,0-.221.045c-.083.1-.185.183-.179.327a.089.089,0,0,1-.009.026c-.047.148-.061.158-.218.168a.257.257,0,0,0-.242.179.185.185,0,0,1-.033.065c-.114.114-.136.277-.217.41a.159.159,0,0,0,.024.2.379.379,0,0,1,.077.145.707.707,0,0,0,.116.207.164.164,0,0,0,.111.075.889.889,0,0,1,.22.088c.064.028.077.055.067.124s-.021.127-.03.191a.109.109,0,0,0,.054.126c.054.024.085-.018.113-.055a.169.169,0,0,1,.131-.073.191.191,0,0,0,.061-.018.093.093,0,0,1,.116.024.486.486,0,0,1,.132.2.168.168,0,0,0,.3.057l.053-.063" transform="translate(-582.858 -539.859)" fill="#ffc336"/><path d="M544.928,516.055c.006.118.056.153.167.117a.281.281,0,0,1,.134-.026.326.326,0,0,0,.244-.055.241.241,0,0,1,.185-.034.379.379,0,0,0,.146,0,.312.312,0,0,1,.153.011.138.138,0,0,0,.183-.113.644.644,0,0,1,.078-.268.324.324,0,0,0,.022-.089c.013-.075.02-.152.036-.226a.176.176,0,0,1,.181-.149.3.3,0,0,1,.233.087c.072.067.17.095.245.158a.117.117,0,0,0,.061.014.472.472,0,0,0,.189-.025,1.566,1.566,0,0,0,.332-.176,1.54,1.54,0,0,0,.509-.465.5.5,0,0,0,.017-.38c-.005-.033-.041-.052-.069-.071a.413.413,0,0,0-.332-.064.283.283,0,0,1-.249-.062.17.17,0,0,0-.218-.02.158.158,0,0,1-.123.02.1.1,0,0,0-.1.02c-.073.07-.178.1-.242.178a.153.153,0,0,1-.053.035.25.25,0,0,0-.126.128.1.1,0,0,1-.069.069.843.843,0,0,0-.168.071.1.1,0,0,1-.15-.07.276.276,0,0,0-.043-.089.227.227,0,0,0-.234-.079.346.346,0,0,0-.354.172c-.041.068-.092.129-.138.194a1.085,1.085,0,0,0-.109.169.865.865,0,0,1-.2.263.628.628,0,0,0-.159.657.4.4,0,0,1,.013.1" transform="translate(-512.004 -487.784)" fill="#ffc336"/><path d="M694.91,505.334c-.118-.082-.188-.06-.236.074a.339.339,0,0,1-.074.147.4.4,0,0,0-.129.275.292.292,0,0,1-.1.2.461.461,0,0,0-.11.139.374.374,0,0,1-.124.139.167.167,0,0,0-.027.26.781.781,0,0,1,.2.274.4.4,0,0,0,.069.087c.063.068.131.132.19.2a.214.214,0,0,1,.008.284.36.36,0,0,1-.256.159c-.118.019-.217.093-.333.118-.022,0-.042.03-.059.048a.581.581,0,0,0-.116.2,1.907,1.907,0,0,0-.077.448,1.862,1.862,0,0,0,.068.833c.063.175.216.222.351.3.035.02.08,0,.119-.013a.5.5,0,0,0,.308-.271.339.339,0,0,1,.244-.192.208.208,0,0,0,.181-.195.2.2,0,0,1,.071-.133.126.126,0,0,0,.053-.106c-.013-.122.041-.242.01-.364a.188.188,0,0,1,0-.077.3.3,0,0,0-.029-.216.124.124,0,0,1-.015-.117,1.049,1.049,0,0,0,.057-.214.122.122,0,0,1,.178-.092.335.335,0,0,0,.118.025.277.277,0,0,0,.25-.166.42.42,0,0,0,.1-.468c-.035-.09-.055-.184-.084-.276a1.338,1.338,0,0,0-.081-.23,1.055,1.055,0,0,1-.106-.382.762.762,0,0,0-.511-.64.449.449,0,0,1-.105-.061" transform="translate(-645.958 -479.772)" fill="#ffc336"/><path d="M575.987,639.348c.006.118.056.153.167.117a.278.278,0,0,1,.133-.026.332.332,0,0,0,.245-.055.242.242,0,0,1,.184-.035.387.387,0,0,0,.146,0,.307.307,0,0,1,.153.011.138.138,0,0,0,.183-.114.651.651,0,0,1,.078-.268.314.314,0,0,0,.021-.089c.013-.076.02-.152.036-.226a.176.176,0,0,1,.181-.149.3.3,0,0,1,.233.087c.072.068.17.095.245.158a.114.114,0,0,0,.061.014.462.462,0,0,0,.189-.026,2.115,2.115,0,0,0,.841-.64.5.5,0,0,0,.017-.38c-.005-.034-.04-.052-.069-.071a.415.415,0,0,0-.333-.064.281.281,0,0,1-.248-.062.17.17,0,0,0-.218-.02.159.159,0,0,1-.123.021.105.105,0,0,0-.1.019c-.073.071-.178.1-.243.178a.156.156,0,0,1-.053.036.25.25,0,0,0-.126.128.1.1,0,0,1-.069.069.861.861,0,0,0-.168.07.1.1,0,0,1-.151-.07.279.279,0,0,0-.043-.09.228.228,0,0,0-.234-.079.348.348,0,0,0-.355.172c-.041.069-.092.129-.138.195a1.056,1.056,0,0,0-.109.169.875.875,0,0,1-.2.263.628.628,0,0,0-.159.657.362.362,0,0,1,.013.1" transform="translate(-539.958 -598.753)" fill="#ffc336"/><path d="M621.676,540.953c-.019-.1-.086-.12-.167-.126a1.021,1.021,0,0,0-.449.073.156.156,0,0,0-.112.157.439.439,0,0,1-.215.391c-.026.015-.054.029-.082.041a.119.119,0,0,0-.078.113.193.193,0,0,1-.038.12.109.109,0,0,0-.019.06.406.406,0,0,1-.273.368.6.6,0,0,0-.2.137c-.036.04-.067.089-.035.141a.165.165,0,0,1-.015.2.165.165,0,0,0,.036.23.313.313,0,0,0,.144.076.248.248,0,0,1,.114.056c.039.035.079.067.117.1a.212.212,0,0,0,.121.061c.054.006.109.01.163.016.072-.006.142-.008.212-.018a.1.1,0,0,0,.1-.123c0-.033-.012-.067-.012-.1a.128.128,0,0,1,.105-.132.687.687,0,0,1,.457.1,1.922,1.922,0,0,0,.8.345.9.9,0,0,0,.237.02.189.189,0,0,0,.161-.268,1.159,1.159,0,0,0-.156-.29.241.241,0,0,1-.074-.173,2.923,2.923,0,0,1,.052-.325.5.5,0,0,0-.014-.323.14.14,0,0,1,0-.131.394.394,0,0,0,.045-.167.277.277,0,0,1,.068-.167.588.588,0,0,0,.083-.132.159.159,0,0,0-.04-.2.143.143,0,0,0-.131-.022.289.289,0,0,1-.289-.068.123.123,0,0,0-.111-.031.265.265,0,0,0-.121.042.12.12,0,0,1-.16-.005.117.117,0,0,0-.135-.018c-.052.023-.072.015-.081-.035m.27.623c0,.03,0,.062,0,.082a1.42,1.42,0,0,1-.029.292.158.158,0,0,1-.028.077.153.153,0,0,0-.025.13.152.152,0,0,1-.125.173.36.36,0,0,1-.431-.23.219.219,0,0,1,0-.225.161.161,0,0,0,.018-.061.341.341,0,0,1,.208-.25c.058-.028.116-.056.172-.086a.215.215,0,0,1,.105-.026c.089,0,.129.038.135.126" transform="translate(-579.574 -511.757)" fill="#ffc336"/><path d="M509.689,565.028a.123.123,0,0,1,.007-.045.1.1,0,0,0-.033-.108c-.024-.023-.048-.047-.071-.071a.15.15,0,0,0-.15-.045c-.131.026-.267.027-.4.065a.311.311,0,0,1-.127,0,.383.383,0,0,0-.409.124.326.326,0,0,0-.029.023.416.416,0,0,0-.116.162.7.7,0,0,0-.045.283.95.95,0,0,0,.026.259.222.222,0,0,0,.361.153.881.881,0,0,0,.135-.094.212.212,0,0,1,.2-.054.317.317,0,0,0,.307-.1c.077-.078.15-.161.221-.245a.387.387,0,0,0,.118-.306" transform="translate(-479.094 -533.295)" fill="#ffc336"/><path d="M497.537,475.474a.233.233,0,0,0-.023.275.759.759,0,0,0,.242.294.182.182,0,0,0,.1.038.326.326,0,0,0,.343-.333.17.17,0,0,0-.11-.17.263.263,0,0,1-.126-.128.144.144,0,0,0-.1-.089.316.316,0,0,0-.329.112" transform="translate(-469.342 -452.83)" fill="#ffc336"/><path d="M582.808,433.189a.234.234,0,0,0-.023.275.757.757,0,0,0,.242.294.181.181,0,0,0,.1.038.326.326,0,0,0,.343-.333.17.17,0,0,0-.11-.169.26.26,0,0,1-.125-.128.145.145,0,0,0-.1-.089.316.316,0,0,0-.329.112" transform="translate(-546.088 -414.772)" fill="#ffc336"/><path d="M635.068,517.406a1.734,1.734,0,0,0-.5.172,1.474,1.474,0,0,0-.417.368.057.057,0,0,0-.011.02.911.911,0,0,1-.077.149.462.462,0,0,0-.024.452.76.76,0,0,1,.042.117.522.522,0,0,0,.247.31,3.143,3.143,0,0,0,.526.2.842.842,0,0,0,.089.016.316.316,0,0,0,.241-.107.264.264,0,0,1,.134-.078.225.225,0,0,0,.181-.152.361.361,0,0,1,.213-.2,1.949,1.949,0,0,1,.265-.093c.187-.049.221-.093.242-.289a.461.461,0,0,1,.01-.067.224.224,0,0,0-.055-.209,2.4,2.4,0,0,1-.165-.214.384.384,0,0,0-.33-.2.244.244,0,0,1-.2-.1.292.292,0,0,0-.28-.11c-.045,0-.09.007-.135.014" transform="translate(-592.205 -490.665)" fill="#ffc336"/><path d="M659.524,583.239a1.746,1.746,0,0,0-.2.488,1.476,1.476,0,0,0,0,.556.048.048,0,0,0,.008.021.95.95,0,0,1,.061.157.463.463,0,0,0,.324.316.756.756,0,0,1,.116.045.523.523,0,0,0,.4.019,3.171,3.171,0,0,0,.5-.263.864.864,0,0,0,.07-.056.315.315,0,0,0,.078-.252.267.267,0,0,1,.03-.152.224.224,0,0,0,0-.237.36.36,0,0,1-.013-.295,1.87,1.87,0,0,1,.1-.26c.086-.173.075-.228-.058-.372a.454.454,0,0,1-.044-.051.225.225,0,0,0-.193-.1,2.334,2.334,0,0,1-.27-.017.383.383,0,0,0-.369.116.244.244,0,0,1-.2.084.292.292,0,0,0-.267.138c-.027.037-.054.072-.078.111" transform="translate(-614.983 -549.522)" fill="#ffc336"/><path d="M590.787,597.434a.184.184,0,0,1-.123.1.392.392,0,0,0-.219.126.375.375,0,0,1-.156.109.179.179,0,0,0-.14.17.547.547,0,0,1-.191.375.2.2,0,0,0-.062.089.237.237,0,0,1-.1.128.261.261,0,0,0-.131.19.309.309,0,0,1-.021.061.177.177,0,0,0,.058.237,2.2,2.2,0,0,0,.359.27c.069.038.116.037.157-.023l.007-.01a.626.626,0,0,0,.114-.306,1.8,1.8,0,0,1,.041-.272.366.366,0,0,1,.139-.22.673.673,0,0,1,.255-.141.4.4,0,0,0,.231-.156.17.17,0,0,1,.236-.044c.019.01.036.023.055.034a2.423,2.423,0,0,0,.354.21.693.693,0,0,1,.161.106.172.172,0,0,1,.028.245.171.171,0,0,0-.048.088.621.621,0,0,1-.195.315.3.3,0,0,1-.267.115.22.22,0,0,0-.143.027.256.256,0,0,1-.193.029.28.28,0,0,0-.249.065.267.267,0,0,1-.133.057.149.149,0,0,0-.115.09.156.156,0,0,0-.009.03.25.25,0,0,0,.029.177,1.1,1.1,0,0,0,.1.124.188.188,0,0,0,.14.078.172.172,0,0,1,.109.044.191.191,0,0,0,.177.052.126.126,0,0,1,.055,0,2.466,2.466,0,0,0,.5.064h.119a.161.161,0,0,0,.167-.139.323.323,0,0,0,0-.146.349.349,0,0,1,.069-.3,1.836,1.836,0,0,1,.218-.294.492.492,0,0,0,.1-.143.51.51,0,0,1,.156-.19,1.485,1.485,0,0,0,.3-.329.242.242,0,0,0,.044-.174.075.075,0,0,0-.056-.076,1.794,1.794,0,0,1-.206-.041c-.024-.007-.047.009-.069.02-.085.04-.111.029-.135-.064a1.03,1.03,0,0,0-.031-.134c-.038-.092-.065-.113-.165-.112a.221.221,0,0,1-.117-.019,1.609,1.609,0,0,1-.272-.169.885.885,0,0,0-.476-.221.247.247,0,0,1-.178-.115c-.1-.147-.178-.145-.273.006" transform="translate(-552.273 -562.605)" fill="#ffc336"/><path d="M525.645,571.075a.11.11,0,0,0,.181-.017.357.357,0,0,0,.042-.06.253.253,0,0,1,.218-.144.611.611,0,0,0,.338-.151.364.364,0,0,1,.106-.071.227.227,0,0,0,.129-.125c.018-.039.03-.08.047-.119a.213.213,0,0,1,.233-.133.166.166,0,0,0,.209-.063,1.219,1.219,0,0,0,.127-.2.2.2,0,0,1,.294-.084.414.414,0,0,0,.127.052.137.137,0,0,0,.147-.053.116.116,0,0,0-.005-.145.255.255,0,0,1-.042-.081.269.269,0,0,0-.2-.2c-.114-.036-.224-.083-.34-.109a.388.388,0,0,1-.142-.062.763.763,0,0,0-.291-.108.156.156,0,0,0-.146.034.338.338,0,0,1-.1.049.9.9,0,0,1-.378.057h-.024a.309.309,0,0,0-.269.17.793.793,0,0,0-.108.366.2.2,0,0,1-.02.079.29.29,0,0,1-.385.129.783.783,0,0,0-.2-.039,1.254,1.254,0,0,1-.3,0,1.936,1.936,0,0,1-.3-.1c-.114-.054-.134-.107-.062-.206s.175-.219.264-.328a.224.224,0,0,1,.048-.042.214.214,0,0,1,.19-.044,2.316,2.316,0,0,0,.284.06.748.748,0,0,0,.272,0,.2.2,0,0,0,.169-.1.253.253,0,0,0,.05-.285l0-.016c-.006-.021-.011-.043-.015-.064a2.016,2.016,0,0,0-.15-.413.128.128,0,0,0-.047-.055.893.893,0,0,0-.313-.148.3.3,0,0,0-.309.135c-.036.063-.07.129-.1.194a.294.294,0,0,1-.083.109c-.059.044-.119.086-.18.127a.349.349,0,0,1-.145.054,3.33,3.33,0,0,1-.525.081.132.132,0,0,0-.114.065c-.044.063-.087.126-.134.187a.233.233,0,0,0-.054.2.1.1,0,0,1-.062.125.093.093,0,0,0-.063.117c.026.129.035.261.071.388a.742.742,0,0,1,.037.308.289.289,0,0,0,.036.168c.028.055.061.107.085.163a.61.61,0,0,0,.358.308.281.281,0,0,0,.152.025.268.268,0,0,1,.152.025.274.274,0,0,0,.161.024.469.469,0,0,1,.164.005.3.3,0,0,0,.253-.055.863.863,0,0,1,.388-.152.14.14,0,0,1,.16.056.794.794,0,0,0,.111.122" transform="translate(-492.772 -536.474)" fill="#ffc336"/><path d="M624.46,604.872a.111.111,0,0,0-.1.154.39.39,0,0,0,.022.07.253.253,0,0,1-.02.26.617.617,0,0,0-.089.36.348.348,0,0,1-.009.127.227.227,0,0,0,.02.178c.019.038.045.073.065.11a.213.213,0,0,1-.038.266.165.165,0,0,0-.078.2,1.2,1.2,0,0,0,.08.224.2.2,0,0,1-.114.284.412.412,0,0,0-.119.068.137.137,0,0,0-.048.148.116.116,0,0,0,.117.085.242.242,0,0,1,.09.017.269.269,0,0,0,.285-.035c.1-.068.2-.126.3-.2a.388.388,0,0,1,.136-.075.765.765,0,0,0,.264-.163.155.155,0,0,0,.063-.136.353.353,0,0,1,.021-.107.889.889,0,0,1,.187-.333l.014-.02a.307.307,0,0,0,.031-.317.788.788,0,0,0-.222-.31.2.2,0,0,1-.05-.065.291.291,0,0,1,.135-.383.778.778,0,0,0,.151-.13,1.25,1.25,0,0,1,.188-.235,1.92,1.92,0,0,1,.26-.172c.112-.057.167-.04.2.078.038.135.066.273.1.41a.209.209,0,0,1,0,.064.215.215,0,0,1-.082.177,2.307,2.307,0,0,0-.222.188.758.758,0,0,0-.166.215.2.2,0,0,0-.023.2c.044.139.067.163.194.215l.015.006.06.028a2.027,2.027,0,0,0,.418.135.125.125,0,0,0,.073,0,.9.9,0,0,0,.309-.156.3.3,0,0,0,.083-.327c-.028-.068-.059-.135-.089-.2a.3.3,0,0,1-.035-.132c0-.073,0-.147.01-.22a.35.35,0,0,1,.047-.147,3.409,3.409,0,0,1,.259-.464.13.13,0,0,0,.019-.13c-.023-.073-.046-.146-.065-.22a.232.232,0,0,0-.129-.168.1.1,0,0,1-.06-.126.093.093,0,0,0-.054-.121c-.118-.059-.227-.132-.35-.182a.738.738,0,0,1-.265-.16.289.289,0,0,0-.155-.075c-.06-.012-.122-.017-.18-.033a.611.611,0,0,0-.463.094.283.283,0,0,0-.113.1.27.27,0,0,1-.113.1.269.269,0,0,0-.118.112.484.484,0,0,1-.105.126.3.3,0,0,0-.112.233.867.867,0,0,1-.117.4.141.141,0,0,1-.143.092.806.806,0,0,0-.164.013" transform="translate(-583.238 -568.237)" fill="#ffc336"/><path d="M605.005,484.4a.521.521,0,0,1-.113.323.184.184,0,0,0-.052.1.031.031,0,0,0,.043.038.378.378,0,0,0,.048-.026.387.387,0,0,1,.275-.044.254.254,0,0,0,.047.006.384.384,0,0,0,.2-.032,1.893,1.893,0,0,0,.367-.224.14.14,0,0,0,.059-.1.337.337,0,0,1,.085-.2c.013-.017.025-.034.039-.051a1.129,1.129,0,0,0,.24-.365.123.123,0,0,1,.032-.055.227.227,0,0,0,.058-.177.432.432,0,0,0-.05-.212.313.313,0,0,1-.052-.164.981.981,0,0,1,.081-.383,1.237,1.237,0,0,0,.112-.251.442.442,0,0,0-.055-.4c-.037-.048-.067-.1-.1-.152a.181.181,0,0,1-.015-.214.2.2,0,0,0,.025-.124.1.1,0,0,0-.118-.1.227.227,0,0,0-.166.065.158.158,0,0,1-.122.056.163.163,0,0,0-.12.059.184.184,0,0,1-.087.066.317.317,0,0,1-.312-.048.336.336,0,0,0-.063-.037c-.053-.03-.067-.049-.043-.1a.129.129,0,0,0-.039-.156.667.667,0,0,0-.11-.1,1.426,1.426,0,0,1-.227-.185.238.238,0,0,0-.174-.07.492.492,0,0,0-.3.148.054.054,0,0,0-.016.041.2.2,0,0,1-.114.176.184.184,0,0,0-.091.178.184.184,0,0,1-.063.156,1.966,1.966,0,0,1-.312.268.5.5,0,0,0-.173.2.135.135,0,0,0-.011.115,1.925,1.925,0,0,0,.084.261.119.119,0,0,1,.005.1.417.417,0,0,1-.084.172.846.846,0,0,0-.118.2.236.236,0,0,0,.094.316.636.636,0,0,1,.224.156.263.263,0,0,0,.112.078.143.143,0,0,1,.053.034,1.536,1.536,0,0,1,.313.343.5.5,0,0,1,.088.255c0,.091.057.12.135.075a1.286,1.286,0,0,0,.152-.1.3.3,0,0,1,.171-.058.14.14,0,0,1,.159.157m.894-1.355a.261.261,0,0,1-.146.347.327.327,0,0,0-.117.086.639.639,0,0,1-.3.153.233.233,0,0,1-.136-.009.771.771,0,0,0-.326-.03,1,1,0,0,1-.234-.037.187.187,0,0,1-.15-.057.567.567,0,0,1-.116-.207.175.175,0,0,1,.123-.192.539.539,0,0,1,.214-.046A.282.282,0,0,0,604.9,483a.3.3,0,0,1,.057-.029c.076-.033.09-.052.085-.132a.877.877,0,0,0-.021-.126.249.249,0,0,1,.151-.281.51.51,0,0,1,.2-.034.243.243,0,0,1,.243.147.593.593,0,0,1,.074.176" transform="translate(-564.744 -458.041)" fill="#ffc336"/><path d="M557.036,609.629a.2.2,0,0,0,.129-.134,1.691,1.691,0,0,1,.092-.238,1.394,1.394,0,0,1,.2-.324,1.356,1.356,0,0,0,.154-.2,2.247,2.247,0,0,1,.177-.267.362.362,0,0,0,.088-.232.289.289,0,0,0-.034-.154,1.793,1.793,0,0,1-.127-.294.209.209,0,0,0-.153-.145.265.265,0,0,1-.211-.216.228.228,0,0,0-.134-.154.627.627,0,0,0-.209-.065c-.107-.008-.172-.1-.266-.135a.014.014,0,0,1-.006-.007,2.241,2.241,0,0,0-.158-.235.439.439,0,0,0-.1-.138.282.282,0,0,1-.113-.2.17.17,0,0,0-.014-.053.128.128,0,0,0-.225-.047.417.417,0,0,0-.091.137,1.244,1.244,0,0,1-.118.217.343.343,0,0,0-.031.066,1.06,1.06,0,0,1-.157.257,1.137,1.137,0,0,0-.293.457.054.054,0,0,1-.014.024.236.236,0,0,0-.046.164,1.275,1.275,0,0,0,.012.2.6.6,0,0,1-.142.5c-.069.086-.064.11.019.18a.523.523,0,0,1,.2.369c0,.052,0,.1.005.156a.275.275,0,0,0,.019.108c.016.037.032.077.081.076s.07-.033.086-.072.022-.07.039-.1a.137.137,0,0,1,.233-.049.255.255,0,0,1,.087.127.154.154,0,0,0,.1.11q.183.063.359.138a1.12,1.12,0,0,1,.318.177.117.117,0,0,0,.1.04.788.788,0,0,0,.143-.031m-.749-1.8a.252.252,0,0,1,.186.133.441.441,0,0,0,.163.153.792.792,0,0,0,.3.125.555.555,0,0,1,.171.085c.059.036.065.071.029.13a.73.73,0,0,0-.062.112.126.126,0,0,1-.145.085c-.03,0-.06-.009-.091-.015a.177.177,0,0,0-.108,0,.332.332,0,0,1-.328-.054,1.065,1.065,0,0,1-.256-.258.437.437,0,0,1-.061-.227c0-.027-.005-.055-.007-.082-.013-.143.071-.218.212-.191" transform="translate(-521.291 -570.72)" fill="#ffc336"/><path d="M641.312,493.456c.021-.022.041-.046.064-.066a.209.209,0,0,1,.244.022.08.08,0,0,1,.019.059.137.137,0,0,1-.107.132c-.058.017-.119.028-.178.046a.182.182,0,0,0-.14.173c0,.044,0,.088-.007.132a.05.05,0,0,0,0,.005h0c0,.028,0,.055-.006.082a.249.249,0,0,0,.16.241.526.526,0,0,1,.172.06.057.057,0,0,0,.053.01.354.354,0,0,0,.2-.159,1.164,1.164,0,0,1,.287-.461.076.076,0,0,0,.012-.014.2.2,0,0,0,.007-.246c-.021-.03-.04-.062-.062-.091a.42.42,0,0,1-.073-.356.693.693,0,0,0,.008-.155.156.156,0,0,0-.166-.167,1.1,1.1,0,0,1-.407-.047.14.14,0,0,0-.125.01c-.09.057-.184.109-.272.169a.375.375,0,0,0-.176.287c0,.067-.01.134-.016.2a.16.16,0,0,0,.054.139l.026.022a.345.345,0,0,0,.423-.029" transform="translate(-598.341 -468.395)" fill="#ffc336"/><path d="M665.315,493.008c-.022.029-.044.058-.068.086a.134.134,0,0,1-.114.05,2.484,2.484,0,0,1-.438-.013.213.213,0,0,0-.254.179.072.072,0,0,1-.029.054.156.156,0,0,0-.065.185.442.442,0,0,1-.052.335.4.4,0,0,0-.076.195.437.437,0,0,1-.056.226.509.509,0,0,1-.06.1.206.206,0,0,0-.055.178.519.519,0,0,1,0,.209.8.8,0,0,0,.079.33,1.916,1.916,0,0,0,.284.457c.041.041.065.1.115.13a2.107,2.107,0,0,0,.378.24.241.241,0,0,1,.081.059c.1.1.1.1.194-.014.043-.055.073-.059.133-.02.011.007.02.015.03.021a.935.935,0,0,1,.217.222c.056.07.1.061.132-.021.047-.122.078-.143.211-.143h.037a.234.234,0,0,0,.219-.165.608.608,0,0,1,.1-.2.477.477,0,0,0,.133-.321.1.1,0,0,1,.005-.027,2.255,2.255,0,0,0,.078-.636.571.571,0,0,1,.065-.283.5.5,0,0,0,.061-.283.653.653,0,0,1,.01-.2.445.445,0,0,0-.007-.2,1.2,1.2,0,0,1-.057-.258.215.215,0,0,0-.083-.186c-.124-.094-.244-.193-.375-.276-.013-.008-.027-.014-.041-.021a1.228,1.228,0,0,0-.539-.087.229.229,0,0,0-.2.1m.373.744a.441.441,0,0,1,.129.238c.008.029.005.062.014.091a.256.256,0,0,1-.068.261.3.3,0,0,0-.055.235c0,.037.008.073.009.11a.231.231,0,0,1-.066.167c-.023.025-.048.047-.07.073a.19.19,0,0,1-.168.074.943.943,0,0,0-.161.02.859.859,0,0,1-.3-.13.254.254,0,0,1-.081-.222.248.248,0,0,1,.162-.237.751.751,0,0,0,.327-.384,2.127,2.127,0,0,1,.173-.281.1.1,0,0,1,.158-.013" transform="translate(-619.256 -468.63)" fill="#ffc336"/><path d="M502.152,515.735a.32.32,0,0,0-.112.038c-.1.057-.105.132-.014.2.03.022.065.042.078.076a.179.179,0,0,0,.188.13.08.08,0,0,1,.035.01.336.336,0,0,0,.2.022.2.2,0,0,1,.132.023.166.166,0,0,0,.235-.047c.038-.047.073-.1.112-.145a.311.311,0,0,1,.349-.09.148.148,0,0,0,.181-.051.171.171,0,0,0,.018-.018.767.767,0,0,0,.092-.366.258.258,0,0,1,.009-.187.207.207,0,0,0-.013-.194.47.47,0,0,1-.07-.159.456.456,0,0,0-.161-.269.743.743,0,0,1-.213-.306.281.281,0,0,0-.048-.078.073.073,0,0,0-.118-.014.785.785,0,0,0-.085.083.226.226,0,0,1-.2.08,1.3,1.3,0,0,0-.322.064.134.134,0,0,0-.083.068.643.643,0,0,1-.089.138.561.561,0,0,0-.138.294.188.188,0,0,0,0,.075.141.141,0,0,0,.145.114.2.2,0,0,0,.116-.021.338.338,0,0,1,.205-.031.2.2,0,0,1,.187.181,1.653,1.653,0,0,1,.013.174c0,.134,0,.134-.13.161a1.64,1.64,0,0,1-.367.036h-.016" transform="translate(-473.375 -487.873)" fill="#ffc336"/><path d="M603.907,562.428a.981.981,0,0,0,.217-.136.761.761,0,0,0,.193-.347.672.672,0,0,0-.11-.583.278.278,0,0,0-.132-.11.821.821,0,0,1-.257-.171,2.114,2.114,0,0,0-.275-.229.15.15,0,0,0-.228.018c-.07.068-.142.136-.206.21-.107.123-.271.147-.4.236,0,0-.006,0-.009,0a.183.183,0,0,0-.135.248.229.229,0,0,0,.025.059.319.319,0,0,1,.024.266.279.279,0,0,0-.009.145.874.874,0,0,1,.01.1.44.44,0,0,0,.174.355.271.271,0,0,1,.122.175c0,.021.013.041.018.062.031.115.108.136.214.107a.191.191,0,0,0,.134-.187.084.084,0,0,0,0-.009.443.443,0,0,0-.036-.17,1.483,1.483,0,0,1-.07-.46.278.278,0,0,1,.023-.134.738.738,0,0,0,.053-.155c.011-.057.054-.073.1-.04a.2.2,0,0,1,.1.143.311.311,0,0,0,.029.106c.063.115.061.255.145.362a.044.044,0,0,1,.006.017.169.169,0,0,0,.066.1.2.2,0,0,0,.2.025" transform="translate(-563.917 -529.741)" fill="#ffc336"/><path d="M575.311,573.295a.1.1,0,0,0,.064.032.334.334,0,0,0,.285-.065.382.382,0,0,1,.159-.089.59.59,0,0,0,.189-.092.331.331,0,0,1,.178-.066c.036,0,.072-.012.109-.016a.519.519,0,0,0,.311-.163.233.233,0,0,0,.078-.171.683.683,0,0,1,.115-.353,1.776,1.776,0,0,0,.15-.364c.037-.119.062-.243.094-.364a.6.6,0,0,0-.025-.43c-.02-.041-.033-.086-.049-.129a.251.251,0,0,1-.019-.135,1.367,1.367,0,0,0,.013-.239.678.678,0,0,0-.02-.254.259.259,0,0,0-.188-.195.389.389,0,0,1-.2-.1.1.1,0,0,0-.158.016.441.441,0,0,0-.113.236c-.007.1-.083.135-.172.092a.4.4,0,0,1-.157-.138.7.7,0,0,0-.072-.094.094.094,0,0,0-.146-.01.447.447,0,0,0-.035.03.222.222,0,0,1-.292.028c-.023-.014-.045-.032-.069-.045a.1.1,0,0,0-.144.031.164.164,0,0,0-.029.076.313.313,0,0,1-.122.2.736.736,0,0,0-.131.141.156.156,0,0,0-.035.1,2.086,2.086,0,0,1-.082.588.329.329,0,0,0-.008.1,1.643,1.643,0,0,0,.1.5.94.94,0,0,1,.062.286c.006.058.006.116.013.174a1.474,1.474,0,0,1,.011.475.144.144,0,0,0,.046.132c.088.1.2.17.288.269m.167-1.982a2.375,2.375,0,0,1,.252-.211,1.651,1.651,0,0,0,.2-.15.477.477,0,0,1,.051-.039.172.172,0,0,1,.275.134,1.255,1.255,0,0,1,0,.137c0,.141-.019.28-.025.42a.352.352,0,0,1-.185.3c-.067.039-.107.041-.15-.023-.066-.1-.183-.143-.24-.248a.088.088,0,0,0-.079-.039.124.124,0,0,1-.13-.094.159.159,0,0,1,.035-.186" transform="translate(-538.922 -538.081)" fill="#ffc336"/><path d="M514.218,499.694c0-.036,0-.073-.007-.109a.076.076,0,0,0,0-.01.148.148,0,0,0-.194-.125.289.289,0,0,0-.2.123.562.562,0,0,1-.134.138.074.074,0,0,1-.124-.04.289.289,0,0,1,.055-.284.266.266,0,0,0,.069-.1.149.149,0,0,0-.01-.152l-.009-.012a.13.13,0,0,0-.159-.031.222.222,0,0,0-.15.148.172.172,0,0,1-.076.11c-.14.09-.141.255-.208.385a.113.113,0,0,0,0,.045.286.286,0,0,0,.281.261.633.633,0,0,1,.32.061.307.307,0,0,0,.044.014.35.35,0,0,0,.432-.166.4.4,0,0,0,.067-.262" transform="translate(-483.375 -474.189)" fill="#ffc336"/><path d="M564.817,412.515c.03,0,.061,0,.09-.007h.008a.123.123,0,0,0,.1-.162.242.242,0,0,0-.1-.161.453.453,0,0,1-.115-.11.061.061,0,0,1,.032-.1.24.24,0,0,1,.236.044.223.223,0,0,0,.081.056.124.124,0,0,0,.125-.009l.01-.008a.109.109,0,0,0,.024-.132.184.184,0,0,0-.125-.123.141.141,0,0,1-.091-.062c-.076-.115-.213-.115-.321-.168-.01-.005-.025,0-.038,0a.237.237,0,0,0-.214.235.53.53,0,0,1-.048.266.347.347,0,0,0-.011.036.29.29,0,0,0,.141.357.331.331,0,0,0,.218.053" transform="translate(-529.607 -395.42)" fill="#ffc336"/><path d="M491.423,500c.087,0,.12-.031.134-.119.01-.063.017-.127.024-.191a.3.3,0,0,0-.065-.223.372.372,0,0,1-.068-.1.332.332,0,0,0-.12-.148.38.38,0,0,0-.376-.086,1.121,1.121,0,0,1-.116.029.368.368,0,0,0-.23.156.267.267,0,0,0-.028.271.213.213,0,0,1,.009.091.149.149,0,0,0,.109.152,1.173,1.173,0,0,0,.384.117.1.1,0,0,1,.035.011.484.484,0,0,0,.224.039h.083" transform="translate(-463.107 -474.214)" fill="#ffc336"/><path d="M506.264,484.774a.147.147,0,0,0-.171-.024.277.277,0,0,0-.152.174.41.41,0,0,1-.072.137c-.058.086-.128.163-.186.248a1.415,1.415,0,0,1-.178.242c-.047.046-.033.078.033.093a.771.771,0,0,0,.166.016.3.3,0,0,0,.287-.079.547.547,0,0,1,.179-.09c.05-.014.1-.021.153-.031a.147.147,0,0,0,.125-.138.37.37,0,0,0,0-.128c-.019-.08-.038-.161-.062-.24a.354.354,0,0,0-.121-.18" transform="translate(-476.539 -461.272)" fill="#ffc336"/><path d="M320.117,293.386a21.667,21.667,0,1,1,21.667-21.667,21.691,21.691,0,0,1-21.667,21.667m0-41.608a19.941,19.941,0,1,0,19.941,19.941,19.963,19.963,0,0,0-19.941-19.941" transform="translate(-290.207 -250.052)" fill="#fff"/><path d="M442.01,330.173a.508.508,0,1,1-.508-.508.508.508,0,0,1,.508.508" transform="translate(-418.503 -321.707)" fill="#ffc336"/><path d="M580.253,330.173a.508.508,0,1,1-.508-.508.507.507,0,0,1,.508.508" transform="translate(-542.926 -321.707)" fill="#ffc336"/></g><g transform="translate(25.855 15.902)"><path d="M455.319,320.193h.976l-.159.786h-2.411l.125-.623,1.259-.967c.271-.211.348-.327.348-.469s-.107-.219-.275-.219a.592.592,0,0,0-.477.288l-.675-.417a1.474,1.474,0,0,1,1.307-.671c.671,0,1.165.365,1.165.86,0,.374-.176.671-.718,1.079Z" transform="translate(-453.724 -317.902)" fill="#fff"/><path d="M482.574,319.871A1.767,1.767,0,0,1,484.2,317.9a1.083,1.083,0,0,1,1.165,1.178,1.767,1.767,0,0,1-1.629,1.969A1.083,1.083,0,0,1,482.574,319.871Zm1.78-.765c0-.3-.107-.391-.254-.391-.352,0-.512.731-.512,1.131,0,.3.107.391.254.391C484.195,320.236,484.354,319.505,484.354,319.106Z" transform="translate(-479.69 -317.902)" fill="#fff"/><path d="M512.327,319.871a1.767,1.767,0,0,1,1.629-1.969,1.083,1.083,0,0,1,1.165,1.178,1.767,1.767,0,0,1-1.629,1.969A1.083,1.083,0,0,1,512.327,319.871Zm1.78-.765c0-.3-.107-.391-.254-.391-.352,0-.511.731-.511,1.131,0,.3.107.391.254.391C513.948,320.236,514.107,319.505,514.107,319.106Z" transform="translate(-506.469 -317.902)" fill="#fff"/><path d="M544.564,319.9a1.182,1.182,0,0,1-1.324,1.148,1.159,1.159,0,0,1-1.29-1.221,1.863,1.863,0,0,1,1.939-1.926,1.717,1.717,0,0,1,.946.236l-.46.7a.925.925,0,0,0-.542-.146.736.736,0,0,0-.744.5.9.9,0,0,1,.533-.155A.877.877,0,0,1,544.564,319.9Zm-.993.1a.256.256,0,0,0-.284-.271.323.323,0,0,0-.335.335.261.261,0,0,0,.284.279A.327.327,0,0,0,543.572,320Z" transform="translate(-533.131 -317.902)" fill="#fff"/></g></g><g transform="translate(208.017 210.688)"><g transform="translate(0)"><path d="M329.579,649.635a.283.283,0,0,1,.1.392l-.917,1.548.063.05,1.33-1.221a.278.278,0,0,1,.405.011l.889.705a.166.166,0,0,1,.07.133.217.217,0,0,1-.094.158l-4.112,3.359a.306.306,0,0,1-.189.083.35.35,0,0,1-.216-.093l-.508-.4a.278.278,0,0,1-.1-.392l1.313-2.373-.063-.05-2.011,1.819a.283.283,0,0,1-.405-.011l-.508-.4a.351.351,0,0,1-.14-.189.306.306,0,0,1,.037-.2l2.334-4.77a.217.217,0,0,1,.132-.128.166.166,0,0,1,.146.038l.889.705a.283.283,0,0,1,.1.392l-.886,1.573.063.05,1.3-1.246a.277.277,0,0,1,.405.011Z" transform="translate(-324.48 -647.653)" fill="#00152e"/><path d="M380.454,692.575a.215.215,0,0,1-.327.106l-.938-.479a.215.215,0,0,1-.106-.327l2.36-4.619a.215.215,0,0,1,.327-.106l.938.479a.215.215,0,0,1,.106.327Z" transform="translate(-373.591 -683.167)" fill="#00152e"/><path d="M417.608,705.012a.215.215,0,0,1,.157.306l-.272.849a.215.215,0,0,1-.306.157l-2.856-.916a.215.215,0,0,1-.157-.306l1.584-4.94a.215.215,0,0,1,.306-.157l1,.322a.215.215,0,0,1,.157.306l-1.238,3.859Z" transform="translate(-405.192 -694.756)" fill="#00152e"/><path d="M471.172,717.013a.907.907,0,0,1-1.154.943l-2.742-.277a.215.215,0,0,1-.218-.266l.52-5.161a.215.215,0,0,1,.266-.218l2.742.276a.907.907,0,0,1,.943,1.154ZM469,713.535l-.293,2.9.726.073a.215.215,0,0,0,.266-.218l.244-2.419a.215.215,0,0,0-.218-.266Z" transform="translate(-452.803 -705.596)" fill="#00152e"/><path d="M528.089,715.723a.215.215,0,0,0,.213-.27l-.029-.241a.215.215,0,0,1,.213-.27l1.046-.125a.215.215,0,0,1,.27.213l.1.8a.907.907,0,0,1-.922,1.171l-1.851.221a.907.907,0,0,1-1.171-.921l-.441-3.7a.907.907,0,0,1,.922-1.171l1.851-.221a.907.907,0,0,1,1.171.922l.1.8a.215.215,0,0,1-.213.27l-1.046.125a.215.215,0,0,1-.27-.213l-.029-.242a.215.215,0,0,0-.27-.213l-.4.048a.215.215,0,0,0-.213.27l.307,2.576a.215.215,0,0,0,.27.213Z" transform="translate(-505.403 -704.843)" fill="#00152e"/><path d="M584.874,704.467l-1,.343.122.729a.26.26,0,0,1-.189.322l-1.112.382a.178.178,0,0,1-.154-.011.194.194,0,0,1-.079-.166l-.5-5.314a.273.273,0,0,1,.189-.322l1.38-.475a.263.263,0,0,1,.2,0,.378.378,0,0,1,.151.141l2.876,4.5a.192.192,0,0,1,.04.179.178.178,0,0,1-.114.1l-1.111.382a.254.254,0,0,1-.347-.138Zm-1.38-2.268.2,1.216.46-.158-.587-1.084Z" transform="translate(-556.225 -694.709)" fill="#00152e"/><path d="M610.643,681.553a.215.215,0,0,1-.33-.1l-.426-.783a.215.215,0,0,1,.1-.33l2.919-1.589a.215.215,0,0,1,.33.1l.426.783a.215.215,0,0,1-.1.33l-.783.426,1.938,3.559a.215.215,0,0,1-.1.33l-.925.5a.215.215,0,0,1-.33-.1l-1.938-3.559Z" transform="translate(-581.319 -675.608)" fill="#00152e"/><path d="M654.763,656.08q-.257.046-.446.061a1.119,1.119,0,0,1-.346-.022.8.8,0,0,1-.3-.145,1.954,1.954,0,0,1-.309-.307l-.572-.684a.907.907,0,0,1,.132-1.484l1.243-1.04a.907.907,0,0,1,1.484.132l.468.56a.215.215,0,0,1-.031.343l-.808.676a.215.215,0,0,1-.342-.031l-.1-.124a.215.215,0,0,0-.343-.03l-.124.1q-.187.156-.057.311l.078.093a.232.232,0,0,0,.133.084.337.337,0,0,0,.147,0l1.463-.273q.257-.046.446-.061a1.124,1.124,0,0,1,.346.022.806.806,0,0,1,.3.145,1.954,1.954,0,0,1,.309.307l.572.684a.907.907,0,0,1-.132,1.484l-1.4,1.17a.907.907,0,0,1-1.484-.132l-.52-.622a.215.215,0,0,1,.03-.343l.808-.676a.215.215,0,0,1,.343.031l.156.187a.215.215,0,0,0,.342.031l.28-.234q.186-.156.057-.311l-.078-.093a.233.233,0,0,0-.134-.084.34.34,0,0,0-.147,0Z" transform="translate(-619.677 -651.687)" fill="#00152e"/></g></g></g></svg>