<svg width="100" height="100" viewBox="0 0 100 100" fill="none" xmlns="http://www.w3.org/2000/svg">
<g clip-path="url(#clip0_1124_15457)">
<path d="M50 100C77.6142 100 100 77.6142 100 50C100 22.3858 77.6142 0 50 0C22.3858 0 0 22.3858 0 50C0 77.6142 22.3858 100 50 100Z" fill="white"/>
<path d="M50 2.53333C76.1714 2.53333 97.4667 23.8286 97.4667 50C97.4667 76.1714 76.1714 97.4667 50 97.4667C23.8286 97.4667 2.53333 76.1714 2.53333 50C2.53333 23.8286 23.8286 2.53333 50 2.53333ZM50 0C22.3857 0 0 22.3857 0 50C0 77.6143 22.3857 100 50 100C77.6143 100 100 77.6143 100 50C100 22.3857 77.6143 0 50 0Z" fill="#E20613"/>
<path fill-rule="evenodd" clip-rule="evenodd" d="M25.4857 48.9476V29.9095H74.5048V48.8952L49.9952 78.8667L25.4857 48.9476Z" fill="white"/>
<path fill-rule="evenodd" clip-rule="evenodd" d="M28.2857 48.0952L46.1571 69.881V48.0952H28.2857Z" fill="#D71921"/>
<path fill-rule="evenodd" clip-rule="evenodd" d="M71.7048 48.0952L53.8333 69.8857V48.0952H71.7048Z" fill="#001522"/>
<path fill-rule="evenodd" clip-rule="evenodd" d="M46.1095 36.5286H42.9619V38.3905H46.1095C46.3476 38.3905 46.5 38.3238 46.5667 38.2619C46.8524 38.0238 46.8286 36.8952 46.5667 36.681C46.4571 36.5952 46.3476 36.5286 46.1095 36.5286ZM28.2095 45.3762H71.7809V32.6572H28.2095V45.3762ZM38.4476 42.1095C38.4476 42.5 37.8809 43.3429 37.4286 43.3429H30.8476V41.3762H36.1714C36.5381 41.3762 36.5381 39.8238 36.1714 39.8238H32.1286C31.6524 39.8238 30.8476 39.3905 30.8476 38.8714L30.8238 35.9714C30.8238 34.5619 32 34.7143 32.9762 34.7143H38.4476V36.4238H33.1286C32.6286 36.4238 32.6524 38.0524 33.1286 38.0524H36.7333C37.4952 38.0524 38.4714 38.2476 38.4714 39.3524L38.4476 42.1143V42.1095ZM48.6524 38.4714C48.6524 39.1 48.5333 39.4524 48.2143 39.7714C47.8952 40.0857 47.519 40.1619 47.1714 40.1619H43V43.3429H41.0238V34.7095H47.1714C47.7333 34.7095 47.9809 34.8429 48.2143 35.081C48.4476 35.3143 48.6524 35.7762 48.6524 36.1381V38.4762V38.4714ZM58.8952 36.3714H53.0714V38.3619H57.419V40.181H53.0714V43.3572H51.2714V34.681H58.8952V36.3714ZM69.1952 41.3191C69.1952 42.3762 68.8 43.3952 67.4571 43.3952H63.219C61.7238 43.3952 61.4857 42.5714 61.4857 41.3191L61.4619 35.9714C61.4619 35.281 62.0714 34.6524 63.2 34.6524H67.519C68.6286 34.6524 69.1524 35.4762 69.1524 35.9714V37.7667H67.2857C67.2857 36.8619 67.1762 36.4714 66.7 36.4714H64.0286C63.6571 36.4714 63.2667 36.9667 63.2667 37.3571V40.7095C63.2667 40.8857 63.5952 41.4238 63.9 41.4238H66.6809C67.0952 41.381 67.2905 40.9667 67.2667 40.2143H69.2048V41.3191H69.1952Z" fill="#001522"/>
<path fill-rule="evenodd" clip-rule="evenodd" d="M24.8143 29.2333V49.1952L50.0048 79.9381L75.1905 49.1429V29.2333H24.8143ZM74.5048 48.8952L50 78.8619L25.4905 48.9476V29.9095H74.5095V48.8952H74.5048Z" fill="#001522"/>
<path d="M30.7095 11.3381L31.1143 12.0714L28.9 13.2952L29.2476 13.9286L31.2143 12.8429L31.6143 13.5714L29.6476 14.6572L30.1333 15.5333L29.2714 16.0095L27.6333 13.0429L30.7095 11.3429V11.3381Z" fill="#001522"/>
<path d="M36.3 12.6238L35.7619 12.1524L33.8286 12.9381L33.7714 13.6524L32.7905 14.0524L33.1333 10.2571L34.3905 9.74762L37.281 12.2286L36.3048 12.6238H36.3ZM33.8952 12.1143L35.1333 11.6095L34.0143 10.6333L33.8952 12.1143Z" fill="#001522"/>
<path d="M41.3476 10.1762L40.7619 7.81906L41.7095 7.58572L42.5238 10.8762L41.1286 11.2238L38.6048 9.34763L39.1905 11.7048L38.2381 11.9429L37.4238 8.65239L38.8238 8.30477L41.3476 10.181V10.1762Z" fill="#001522"/>
<path d="M46.119 6.96191L50.2 6.79524L50.2333 7.62858L48.6857 7.69048L48.7905 10.2429L47.8095 10.281L47.7048 7.72858L46.1524 7.79048L46.119 6.95715V6.96191Z" fill="#001522"/>
<path d="M51.3905 8.49525C51.4857 7.3762 52.3143 6.78096 53.7381 6.90477C55.1571 7.02858 55.8762 7.75715 55.7809 8.87144C55.6857 9.99049 54.8524 10.5952 53.4333 10.4714C52.0095 10.3476 51.2952 9.61906 51.3905 8.49525ZM54.7571 8.78572C54.8095 8.20001 54.5048 7.80953 53.6667 7.73811C52.8333 7.66668 52.4667 7.99049 52.419 8.58572C52.3667 9.18096 52.6762 9.57144 53.5048 9.64287C54.3381 9.7143 54.7095 9.38096 54.7619 8.79049L54.7571 8.78572Z" fill="#001522"/>
<path d="M61.6238 8.36667L59.6333 9.38095L60.881 11.6762L59.6762 11.4048L58.8095 9.80476L57.8619 10.2857L57.7095 10.9571L56.7524 10.7381L57.5 7.42857L58.4619 7.64286L58.1286 9.12857L60.1952 8.0381L61.6333 8.36191L61.6238 8.36667Z" fill="#001522"/>
<path d="M66.3286 9.99524L66.0667 10.7191L63.6857 9.85715L63.5 10.3667L65.7905 11.1952L65.5286 11.9191L63.2381 11.0905L63.0524 11.6L65.4333 12.4619L65.1714 13.1857L61.8667 11.9905L63.019 8.8L66.3238 9.99524H66.3286Z" fill="#001522"/>
<path d="M69.7619 14.3524L70.8762 12.1905L71.7476 12.6381L70.1905 15.6524L68.9095 14.9905L68.2476 11.9095L67.1333 14.0714L66.2571 13.6191L67.8143 10.6048L69.1 11.2667L69.7619 14.3476V14.3524Z" fill="#001522"/>
<path d="M27.3952 85.4762C27.2476 85.719 27.3952 86.0238 28.1571 86.4857C28.8571 86.9048 29.0952 86.9 29.2048 86.719C29.3333 86.5095 29.2238 86.3905 28.3952 85.8143C27.2667 85.0238 26.8905 84.4762 27.2762 83.8333C27.6429 83.2286 28.4619 83.3476 29.4667 83.9524C30.5857 84.6238 31.0238 85.3524 30.6619 86.0143L29.7809 85.4857C29.9333 85.2286 29.7143 84.9619 29.0619 84.5714C28.4429 84.2 28.2429 84.219 28.1476 84.3762C28.0381 84.5571 28.1476 84.6952 28.8952 85.2333C29.9143 85.9571 30.5619 86.4476 30.1048 87.2095C29.6571 87.9524 28.8381 87.7571 27.8048 87.1333C26.6286 86.4238 26.0905 85.7381 26.5095 84.9476L27.3905 85.4809L27.3952 85.4762Z" fill="#001522"/>
<path d="M31.5238 87.1905C31.9714 86.1571 32.9429 85.8619 34.2571 86.4286C35.5667 86.9952 36.0143 87.9143 35.5714 88.9429C35.1238 89.9762 34.1429 90.281 32.8333 89.7143C31.519 89.1476 31.0762 88.2286 31.5238 87.1905ZM34.6286 88.5381C34.8619 87.9952 34.6952 87.5333 33.9238 87.1952C33.1571 86.8619 32.7048 87.0571 32.4714 87.6C32.2333 88.1476 32.4048 88.6143 33.1667 88.9476C33.9333 89.281 34.3952 89.081 34.6286 88.5333V88.5381Z" fill="#001522"/>
<path d="M39.3048 88.219C40.5048 88.5571 41.0428 89.2619 40.9048 90.1286L39.9 89.8476C39.919 89.5286 39.6857 89.1905 39.0809 89.0238C38.3809 88.8286 37.9476 89.0762 37.7857 89.6476C37.6238 90.2238 37.8714 90.6667 38.5667 90.8619C39.1714 91.0286 39.5476 90.8619 39.6952 90.5714L40.7 90.8524C40.3667 91.6714 39.5428 92 38.3381 91.6667C37.0286 91.3 36.4809 90.4905 36.7905 89.3714C37.1048 88.2571 37.9905 87.8524 39.3 88.219H39.3048Z" fill="#001522"/>
<path d="M43.3952 89.2286L42.7952 92.5619L41.8286 92.3857L42.4286 89.0524L43.3952 89.2286Z" fill="#001522"/>
<path d="M44.419 91.1476C44.5095 90.0286 45.3333 89.4333 46.7571 89.5476C48.1762 89.6619 48.9 90.3905 48.8048 91.5048C48.7143 92.6238 47.8857 93.2286 46.4619 93.1143C45.0381 93 44.319 92.2714 44.4143 91.1476H44.419ZM47.7857 91.4238C47.8333 90.8381 47.5286 90.4524 46.6905 90.381C45.8571 90.3143 45.4952 90.6429 45.4428 91.2333C45.3952 91.8286 45.7048 92.2143 46.5333 92.2857C47.3667 92.3524 47.7381 92.019 47.7857 91.4238Z" fill="#001522"/>
<path d="M51.119 92.0476C51.1333 92.3333 51.4238 92.5048 52.3143 92.4571C53.1286 92.4143 53.3238 92.2762 53.3095 92.0619C53.2952 91.8143 53.1429 91.781 52.1333 91.7667C50.7571 91.7429 50.1333 91.5 50.0952 90.7476C50.0571 90.0429 50.8048 89.681 51.9762 89.6238C53.2809 89.5571 54.0524 89.9095 54.119 90.6619L53.0952 90.7143C53.0809 90.4143 52.7476 90.3191 51.9857 90.3571C51.2667 90.3952 51.1095 90.5238 51.119 90.7048C51.1286 90.9143 51.2952 90.9714 52.219 91C53.4667 91.0286 54.2809 91.0714 54.3286 91.9619C54.3714 92.8286 53.5857 93.1238 52.3809 93.1857C51.0095 93.2571 50.1762 92.9857 50.0857 92.0952L51.1143 92.0429L51.119 92.0476Z" fill="#001522"/>
<path d="M55.7429 92.0429L56.681 91.9048L56.7857 92.6333L55.8476 92.7714L55.7381 92.0429H55.7429Z" fill="#001522"/>
<path d="M59.481 88.5381C60.6952 88.2429 61.5095 88.5952 61.8143 89.419L60.8 89.6667C60.6619 89.3762 60.2905 89.2 59.6809 89.3476C58.9762 89.5191 58.719 89.9476 58.8571 90.5286C59 91.1095 59.4333 91.3762 60.1333 91.2048C60.7429 91.0571 60.9905 90.7238 60.9762 90.3952L61.9905 90.1476C62.1 91.0238 61.5429 91.719 60.3286 92.0143C59.0048 92.3381 58.1286 91.9 57.8524 90.7714C57.5762 89.6476 58.1524 88.8619 59.4762 88.5381H59.481Z" fill="#001522"/>
<path d="M63.1524 89.3952C62.7381 88.3476 63.219 87.4476 64.5476 86.9238C65.8714 86.4 66.8429 86.7333 67.2524 87.7762C67.6667 88.8238 67.1857 89.7333 65.8619 90.2571C64.5333 90.7809 63.5667 90.4476 63.1524 89.3952ZM66.3 88.1524C66.0857 87.6048 65.6381 87.3905 64.8571 87.7C64.081 88.0048 63.8952 88.4619 64.1143 89.0143C64.3333 89.5714 64.7857 89.7809 65.5571 89.4762C66.3333 89.1714 66.519 88.7048 66.3 88.1524Z" fill="#001522"/>
<path d="M69.3381 88.6905L67.6333 85.7571L68.9571 84.9857L71.1095 86.3381L70.9952 83.8L72.319 83.0286L74.0238 85.9619L73.1762 86.4524L71.9429 84.3286L72.0762 87.0952L71.2905 87.5524L68.9524 86.0714L70.1905 88.1952L69.3381 88.6905Z" fill="#001522"/>
<path d="M23.0191 81.8381C13.9952 74.181 8.26667 62.7571 8.26667 50C8.26667 37.2429 14.3 25.2143 23.7381 17.5619" stroke="#D71921" stroke-miterlimit="10"/>
<path d="M76.2667 17.5667C85.7048 25.219 91.7333 36.9048 91.7333 50C91.7333 63.0952 86.0048 74.1857 76.9809 81.8429" stroke="#D71921" stroke-miterlimit="10"/>
</g>
<defs>
<clipPath id="clip0_1124_15457">
<rect width="100" height="100" fill="white"/>
</clipPath>
</defs>
</svg>
