<?xml version="1.0" encoding="UTF-8"?>
<!DOCTYPE svg PUBLIC "-//W3C//DTD SVG 1.1//EN" "http://www.w3.org/Graphics/SVG/1.1/DTD/svg11.dtd">
<svg xmlns="http://www.w3.org/2000/svg" version="1.1" width="512px" height="512px" style="shape-rendering:geometricPrecision; text-rendering:geometricPrecision; image-rendering:optimizeQuality; fill-rule:evenodd; clip-rule:evenodd" xmlns:xlink="http://www.w3.org/1999/xlink">
<g><path style="opacity:0.917" fill="#0016ff" d="M 188.5,83.5 C 185.658,85.5492 182.658,87.2159 179.5,88.5C 177.983,88.4894 176.816,87.8228 176,86.5C 174.259,87.7577 172.426,88.7577 170.5,89.5C 170.083,88.8761 169.416,88.5427 168.5,88.5C 163.666,90.5806 158.999,90.5806 154.5,88.5C 160.986,83.7523 167.986,79.7523 175.5,76.5C 180.337,78.0821 184.67,80.4154 188.5,83.5 Z"/></g>
<g><path style="opacity:0.907" fill="#1ef49b" d="M 336.5,76.5 C 336.332,80.6575 336.998,84.6575 338.5,88.5C 336.831,87.1103 335.164,86.7769 333.5,87.5C 331.873,85.0464 330.54,82.3797 329.5,79.5C 331.426,77.7073 333.759,76.7073 336.5,76.5 Z"/></g>
<g><path style="opacity:0.975" fill="#20f798" d="M 336.5,76.5 C 341.037,78.9301 345.37,81.5968 349.5,84.5C 348.167,87.8333 348.167,91.1667 349.5,94.5C 345.665,92.7505 341.999,90.7505 338.5,88.5C 336.998,84.6575 336.332,80.6575 336.5,76.5 Z"/></g>
<g><path style="opacity:0.934" fill="#1df19f" d="M 329.5,79.5 C 330.54,82.3797 331.873,85.0464 333.5,87.5C 330.669,89.4168 327.669,91.0834 324.5,92.5C 323.366,89.7845 322.033,87.1178 320.5,84.5C 323.24,82.4405 326.24,80.7738 329.5,79.5 Z"/></g>
<g><path style="opacity:0.921" fill="#001bff" d="M 188.5,83.5 C 192.173,85.0002 195.506,87.0002 198.5,89.5C 196.212,91.4989 193.879,93.4989 191.5,95.5C 187.164,93.668 183.164,91.3346 179.5,88.5C 182.658,87.2159 185.658,85.5492 188.5,83.5 Z"/></g>
<g><path style="opacity:0.972" fill="#21f994" d="M 349.5,84.5 C 351.674,84.7497 353.341,85.7497 354.5,87.5C 353.787,90.5939 352.787,93.5939 351.5,96.5C 350.5,96.1667 349.833,95.5 349.5,94.5C 348.167,91.1667 348.167,87.8333 349.5,84.5 Z"/></g>
<g><path style="opacity:0.977" fill="#1befa3" d="M 320.5,84.5 C 322.033,87.1178 323.366,89.7845 324.5,92.5C 323.205,93.4884 321.872,94.4884 320.5,95.5C 319.64,92.3676 318.64,89.3676 317.5,86.5C 317.973,85.0937 318.973,84.427 320.5,84.5 Z"/></g>
<g><path style="opacity:0.922" fill="#1beba6" d="M 317.5,86.5 C 318.64,89.3676 319.64,92.3676 320.5,95.5C 318.95,96.4408 317.284,97.1075 315.5,97.5C 315.206,94.2459 313.873,91.5792 311.5,89.5C 313.216,87.9752 315.216,86.9752 317.5,86.5 Z"/></g>
<g><path style="opacity:0.924" fill="#22fa91" d="M 354.5,87.5 C 357.817,89.1373 361.15,90.8039 364.5,92.5C 363.547,96.0722 363.214,99.4055 363.5,102.5C 359.272,100.934 355.272,98.9339 351.5,96.5C 352.787,93.5939 353.787,90.5939 354.5,87.5 Z"/></g>
<g><path style="opacity:0.934" fill="#001bff" d="M 154.5,88.5 C 158.999,90.5806 163.666,90.5806 168.5,88.5C 169.416,88.5427 170.083,88.8761 170.5,89.5C 162.782,94.5302 154.782,99.1969 146.5,103.5C 142.2,103.484 138.866,101.817 136.5,98.5C 142.262,94.7375 148.262,91.4042 154.5,88.5 Z"/></g>
<g><path style="opacity:0.919" fill="#0022ff" d="M 198.5,89.5 C 201.331,90.0787 203.664,91.412 205.5,93.5C 202.661,95.4203 199.661,97.0869 196.5,98.5C 194.632,97.7368 192.965,96.7368 191.5,95.5C 193.879,93.4989 196.212,91.4989 198.5,89.5 Z"/></g>
<g><path style="opacity:0.938" fill="#1ae8ab" d="M 311.5,89.5 C 313.873,91.5792 315.206,94.2459 315.5,97.5C 313.206,99.653 310.54,101.32 307.5,102.5C 307.561,99.0493 306.561,96.0493 304.5,93.5C 306.67,91.9138 309.004,90.5804 311.5,89.5 Z"/></g>
<g><path style="opacity:0.903" fill="#002aff" d="M 205.5,93.5 C 208.331,94.0787 210.664,95.412 212.5,97.5C 211.221,100.112 209.555,102.445 207.5,104.5C 203.665,102.75 199.999,100.75 196.5,98.5C 199.661,97.0869 202.661,95.4203 205.5,93.5 Z"/></g>
<g><path style="opacity:0.913" fill="#24fc8d" d="M 364.5,92.5 C 368.372,94.5974 372.039,96.9308 375.5,99.5C 374.343,102.273 373.676,105.273 373.5,108.5C 369.827,107 366.494,105 363.5,102.5C 363.214,99.4055 363.547,96.0722 364.5,92.5 Z"/></g>
<g><path style="opacity:0.987" fill="#18e4b1" d="M 304.5,93.5 C 306.561,96.0493 307.561,99.0493 307.5,102.5C 305.365,104.071 303.032,105.404 300.5,106.5C 300.813,102.958 300.479,99.6248 299.5,96.5C 300.965,95.2632 302.632,94.2632 304.5,93.5 Z"/></g>
<g><path style="opacity:0.899" fill="#0034fe" d="M 212.5,97.5 C 215.331,98.0787 217.664,99.412 219.5,101.5C 215.945,102.054 213.612,104.054 212.5,107.5C 210.326,107.25 208.659,106.25 207.5,104.5C 209.555,102.445 211.221,100.112 212.5,97.5 Z"/></g>
<g><path style="opacity:0.915" fill="#0022ff" d="M 136.5,98.5 C 138.866,101.817 142.2,103.484 146.5,103.5C 141.498,107.003 136.165,110.003 130.5,112.5C 127.609,110.942 124.609,109.276 121.5,107.5C 126.299,104.263 131.299,101.263 136.5,98.5 Z"/></g>
<g><path style="opacity:0.939" fill="#17ddb7" d="M 299.5,96.5 C 300.479,99.6248 300.813,102.958 300.5,106.5C 299.035,107.737 297.368,108.737 295.5,109.5C 294.654,106.452 293.654,103.452 292.5,100.5C 294.635,98.9291 296.968,97.5957 299.5,96.5 Z"/></g>
<g><path style="opacity:0.979" fill="#25fe8a" d="M 375.5,99.5 C 378.14,100.82 380.807,102.153 383.5,103.5C 382.763,105.305 381.763,106.971 380.5,108.5C 381.648,110.149 382.981,111.649 384.5,113C 383.944,113.383 383.611,113.883 383.5,114.5C 379.799,112.988 376.466,110.988 373.5,108.5C 373.676,105.273 374.343,102.273 375.5,99.5 Z"/></g>
<g><path style="opacity:0.946" fill="#003bfe" d="M 219.5,101.5 C 220.492,101.328 221.158,101.662 221.5,102.5C 219.273,104.607 217.273,106.94 215.5,109.5C 214.29,109.068 213.29,108.401 212.5,107.5C 213.612,104.054 215.945,102.054 219.5,101.5 Z"/></g>
<g><path style="opacity:0.945" fill="#15d8bd" d="M 292.5,100.5 C 293.654,103.452 294.654,106.452 295.5,109.5C 293.819,111.008 291.819,112.008 289.5,112.5C 288.912,109.39 288.245,106.39 287.5,103.5C 288.965,102.263 290.632,101.263 292.5,100.5 Z"/></g>
<g><path style="opacity:0.96" fill="#0041fd" d="M 221.5,102.5 C 222.492,102.328 223.158,102.662 223.5,103.5C 222.19,106.473 220.19,108.807 217.5,110.5C 216.508,110.672 215.842,110.338 215.5,109.5C 217.273,106.94 219.273,104.607 221.5,102.5 Z"/></g>
<g><path style="opacity:0.913" fill="#0047fc" d="M 223.5,103.5 C 224.71,103.932 225.71,104.599 226.5,105.5C 224.529,107.808 222.529,110.142 220.5,112.5C 219.29,112.068 218.29,111.401 217.5,110.5C 220.19,108.807 222.19,106.473 223.5,103.5 Z"/></g>
<g><path style="opacity:0.909" fill="#14d1c2" d="M 287.5,103.5 C 288.245,106.39 288.912,109.39 289.5,112.5C 289.027,113.906 288.027,114.573 286.5,114.5C 284.8,112.112 283.466,109.445 282.5,106.5C 283.965,105.263 285.632,104.263 287.5,103.5 Z"/></g>
<g><path style="opacity:0.931" fill="#27fe88" d="M 383.5,103.5 C 391.889,108.112 400.056,113.112 408,118.5C 408.5,125.492 408.666,132.492 408.5,139.5C 407.549,138.081 407.216,136.415 407.5,134.5C 403.997,134.871 400.997,133.871 398.5,131.5C 398.672,130.508 398.338,129.842 397.5,129.5C 395.092,127.084 392.426,125.084 389.5,123.5C 390.6,122.442 391.934,121.608 393.5,121C 390.272,118.56 386.939,116.394 383.5,114.5C 383.611,113.883 383.944,113.383 384.5,113C 382.981,111.649 381.648,110.149 380.5,108.5C 381.763,106.971 382.763,105.305 383.5,103.5 Z"/></g>
<g><path style="opacity:0.94" fill="#004dfa" d="M 226.5,105.5 C 227.492,105.328 228.158,105.662 228.5,106.5C 227.908,110.089 225.908,112.422 222.5,113.5C 221.833,113.167 221.167,112.833 220.5,112.5C 222.529,110.142 224.529,107.808 226.5,105.5 Z"/></g>
<g><path style="opacity:0.984" fill="#12ccc5" d="M 281.5,106.5 C 281.833,106.5 282.167,106.5 282.5,106.5C 283.466,109.445 284.8,112.112 286.5,114.5C 285.486,115.674 284.153,116.34 282.5,116.5C 282.244,114.063 281.577,111.729 280.5,109.5C 281.127,108.583 281.461,107.583 281.5,106.5 Z"/></g>
<g><path style="opacity:0.929" fill="#0028ff" d="M 121.5,107.5 C 124.609,109.276 127.609,110.942 130.5,112.5C 125.992,115.253 121.659,118.253 117.5,121.5C 113.248,120.063 108.915,118.729 104.5,117.5C 109.665,113.414 115.332,110.08 121.5,107.5 Z"/></g>
<g><path style="opacity:0.862" fill="#0053fa" d="M 228.5,106.5 C 230.027,106.427 231.027,107.094 231.5,108.5C 230.221,111.112 228.555,113.445 226.5,115.5C 224.847,115.34 223.514,114.674 222.5,113.5C 225.908,112.422 227.908,110.089 228.5,106.5 Z"/></g>
<g><path style="opacity:0.906" fill="#015af8" d="M 231.5,108.5 C 233.153,108.66 234.486,109.326 235.5,110.5C 234.325,110.281 233.325,110.614 232.5,111.5C 231.867,113.786 230.534,115.452 228.5,116.5C 227.508,116.672 226.842,116.338 226.5,115.5C 228.555,113.445 230.221,111.112 231.5,108.5 Z"/></g>
<g><path style="opacity:0.904" fill="#11c5cc" d="M 278.5,108.5 C 278.956,111.906 279.622,115.239 280.5,118.5C 279.167,119.167 277.833,119.833 276.5,120.5C 276.11,117.203 275.11,114.203 273.5,111.5C 274.965,110.263 276.632,109.263 278.5,108.5 Z"/></g>
<g><path style="opacity:0.911" fill="#11c9c8" d="M 281.5,106.5 C 281.461,107.583 281.127,108.583 280.5,109.5C 281.577,111.729 282.244,114.063 282.5,116.5C 282.167,117.5 281.5,118.167 280.5,118.5C 279.622,115.239 278.956,111.906 278.5,108.5C 279.5,107.833 280.5,107.167 281.5,106.5 Z"/></g>
<g><path style="opacity:0.971" fill="#0160f7" d="M 235.5,110.5 C 234.651,113.681 232.985,116.348 230.5,118.5C 229.5,118.167 228.833,117.5 228.5,116.5C 230.534,115.452 231.867,113.786 232.5,111.5C 233.325,110.614 234.325,110.281 235.5,110.5 Z"/></g>
<g><path style="opacity:0.933" fill="#0267f5" d="M 235.5,110.5 C 237.027,110.427 238.027,111.094 238.5,112.5C 236.741,115.185 235.741,118.185 235.5,121.5C 233.999,120.248 232.332,119.248 230.5,118.5C 232.985,116.348 234.651,113.681 235.5,110.5 Z"/></g>
<g><path style="opacity:0.93" fill="#0fbed0" d="M 273.5,111.5 C 275.11,114.203 276.11,117.203 276.5,120.5C 274.819,122.008 272.819,123.008 270.5,123.5C 271.747,120.133 271.747,116.799 270.5,113.5C 271.29,112.599 272.29,111.932 273.5,111.5 Z"/></g>
<g><path style="opacity:0.962" fill="#036df3" d="M 238.5,112.5 C 239.492,112.328 240.158,112.662 240.5,113.5C 238.733,115.938 237.399,118.605 236.5,121.5C 236.167,121.5 235.833,121.5 235.5,121.5C 235.741,118.185 236.741,115.185 238.5,112.5 Z"/></g>
<g><path style="opacity:0.922" fill="#0373f1" d="M 240.5,113.5 C 241.492,113.328 242.158,113.662 242.5,114.5C 241.153,117.193 239.82,119.86 238.5,122.5C 237.508,122.672 236.842,122.338 236.5,121.5C 237.399,118.605 238.733,115.938 240.5,113.5 Z"/></g>
<g><path style="opacity:0.929" fill="#0479f0" d="M 242.5,114.5 C 243.167,114.5 243.5,114.833 243.5,115.5C 243.06,118.38 242.06,121.046 240.5,123.5C 239.508,123.672 238.842,123.338 238.5,122.5C 239.82,119.86 241.153,117.193 242.5,114.5 Z"/></g>
<g><path style="opacity:0.987" fill="#0db2d8" d="M 268.5,114.5 C 268.276,118.179 267.942,121.846 267.5,125.5C 266.71,126.401 265.71,127.068 264.5,127.5C 264.323,123.766 264.656,120.099 265.5,116.5C 266.29,115.599 267.29,114.932 268.5,114.5 Z"/></g>
<g><path style="opacity:0.943" fill="#0580ee" d="M 243.5,115.5 C 245.153,115.66 246.486,116.326 247.5,117.5C 245.613,119.789 244.279,122.455 243.5,125.5C 241.973,125.573 240.973,124.906 240.5,123.5C 242.06,121.046 243.06,118.38 243.5,115.5 Z"/></g>
<g><path style="opacity:0.935" fill="#0eb8d5" d="M 270.5,113.5 C 271.747,116.799 271.747,120.133 270.5,123.5C 270.027,124.906 269.027,125.573 267.5,125.5C 267.942,121.846 268.276,118.179 268.5,114.5C 268.842,113.662 269.508,113.328 270.5,113.5 Z"/></g>
<g><path style="opacity:0.921" fill="#002eff" d="M 104.5,117.5 C 108.915,118.729 113.248,120.063 117.5,121.5C 123.668,124.08 129.335,127.414 134.5,131.5C 129.52,130.545 124.52,130.711 119.5,132C 120.167,132.333 120.833,132.667 121.5,133C 121.272,133.399 120.938,133.565 120.5,133.5C 117.975,132.319 115.475,130.986 113,129.5C 112.536,130.094 112.369,130.761 112.5,131.5C 109.57,130.701 106.57,130.368 103.5,130.5C 103.768,132.099 103.434,133.432 102.5,134.5C 102.334,129.156 102.501,123.823 103,118.5C 103.383,117.944 103.883,117.611 104.5,117.5 Z"/></g>
<g><path style="opacity:1" fill="#0cacdc" d="M 265.5,116.5 C 264.656,120.099 264.323,123.766 264.5,127.5C 263.395,128.6 262.062,129.267 260.5,129.5C 259.833,129.5 259.5,129.167 259.5,128.5C 260.632,124.981 261.632,121.314 262.5,117.5C 263.391,116.89 264.391,116.557 265.5,116.5 Z"/></g>
<g><path style="opacity:0.973" fill="#0586ec" d="M 247.5,117.5 C 248.492,117.328 249.158,117.662 249.5,118.5C 247.983,121.035 246.65,123.702 245.5,126.5C 244.508,126.672 243.842,126.338 243.5,125.5C 244.279,122.455 245.613,119.789 247.5,117.5 Z"/></g>
<g><path style="opacity:0.966" fill="#078cea" d="M 249.5,118.5 C 250.167,118.5 250.5,118.833 250.5,119.5C 250.06,122.38 249.06,125.046 247.5,127.5C 246.508,127.672 245.842,127.338 245.5,126.5C 246.65,123.702 247.983,121.035 249.5,118.5 Z"/></g>
<g><path style="opacity:0.938" fill="#0ba6df" d="M 262.5,117.5 C 261.632,121.314 260.632,124.981 259.5,128.5C 258.549,127.081 258.216,125.415 258.5,123.5C 258.5,122.5 258.5,121.5 258.5,120.5C 259.795,119.512 261.128,118.512 262.5,117.5 Z"/></g>
<g><path style="opacity:0.958" fill="#0792e8" d="M 250.5,119.5 C 251.609,119.557 252.609,119.89 253.5,120.5C 252.441,123.618 251.108,126.618 249.5,129.5C 248.5,129.167 247.833,128.5 247.5,127.5C 249.06,125.046 250.06,122.38 250.5,119.5 Z"/></g>
<g><path style="opacity:0.912" fill="#0999e6" d="M 253.5,120.5 C 254.167,120.833 254.833,121.167 255.5,121.5C 253.821,126.207 252.154,130.874 250.5,135.5C 250.795,133.265 250.461,131.265 249.5,129.5C 251.108,126.618 252.441,123.618 253.5,120.5 Z"/></g>
<g><path style="opacity:0.967" fill="#0a9fe4" d="M 258.5,120.5 C 258.5,121.5 258.5,122.5 258.5,123.5C 255.864,129.445 253.197,135.445 250.5,141.5C 250.5,139.5 250.5,137.5 250.5,135.5C 252.154,130.874 253.821,126.207 255.5,121.5C 256.391,120.89 257.391,120.557 258.5,120.5 Z"/></g>
<g><path style="opacity:0.988" fill="#0ba5e4" d="M 258.5,123.5 C 258.216,125.415 258.549,127.081 259.5,128.5C 259.5,129.167 259.833,129.5 260.5,129.5C 260.5,129.833 260.5,130.167 260.5,130.5C 257.138,135.907 253.805,141.24 250.5,146.5C 250.5,144.833 250.5,143.167 250.5,141.5C 253.197,135.445 255.864,129.445 258.5,123.5 Z"/></g>
<g><path style="opacity:0.928" fill="#27fe8c" d="M 389.5,123.5 C 392.426,125.084 395.092,127.084 397.5,129.5C 392.498,133.003 387.165,136.003 381.5,138.5C 379.998,136.825 378.665,134.992 377.5,133C 376.552,132.517 375.552,132.351 374.5,132.5C 379.216,129.137 384.216,126.137 389.5,123.5 Z"/></g>
<g><path style="opacity:0.879" fill="#0034ff" d="M 112.5,131.5 C 112.5,134.833 112.5,138.167 112.5,141.5C 109.5,141.5 106.5,141.5 103.5,141.5C 103.737,142.791 103.404,143.791 102.5,144.5C 102.5,141.167 102.5,137.833 102.5,134.5C 103.434,133.432 103.768,132.099 103.5,130.5C 106.57,130.368 109.57,130.701 112.5,131.5 Z"/></g>
<g><path style="opacity:0.928" fill="#0034ff" d="M 134.5,131.5 C 137.992,132.41 140.992,134.076 143.5,136.5C 140.546,137.428 137.546,138.261 134.5,139C 133.748,139.671 133.414,140.504 133.5,141.5C 128.963,139.07 124.63,136.403 120.5,133.5C 120.938,133.565 121.272,133.399 121.5,133C 120.833,132.667 120.167,132.333 119.5,132C 124.52,130.711 129.52,130.545 134.5,131.5 Z"/></g>
<g><path style="opacity:1" fill="#0babe4" d="M 260.5,130.5 C 260.5,132.5 260.5,134.5 260.5,136.5C 259.833,136.5 259.5,136.833 259.5,137.5C 257.828,140.198 256.661,143.198 256,146.5C 254.226,147.965 252.392,149.298 250.5,150.5C 250.5,149.167 250.5,147.833 250.5,146.5C 253.805,141.24 257.138,135.907 260.5,130.5 Z"/></g>
<g><path style="opacity:0.871" fill="#28fe8c" d="M 398.5,131.5 C 400.997,133.871 403.997,134.871 407.5,134.5C 407.216,136.415 407.549,138.081 408.5,139.5C 408.5,145.167 408.5,150.833 408.5,156.5C 405.325,156.497 402.492,155.497 400,153.5C 399.768,154.737 399.268,155.737 398.5,156.5C 398.5,148.167 398.5,139.833 398.5,131.5 Z"/></g>
<g><path style="opacity:0.966" fill="#26fd92" d="M 374.5,132.5 C 375.552,132.351 376.552,132.517 377.5,133C 378.665,134.992 379.998,136.825 381.5,138.5C 378.534,140.988 375.201,142.988 371.5,144.5C 369.118,142.454 367.118,140.121 365.5,137.5C 368.24,135.44 371.24,133.774 374.5,132.5 Z"/></g>
<g><path style="opacity:0.925" fill="#003bff" d="M 143.5,136.5 C 146.004,137.584 148.337,138.917 150.5,140.5C 146.916,141.682 143.582,143.348 140.5,145.5C 138.33,143.914 135.996,142.58 133.5,141.5C 133.414,140.504 133.748,139.671 134.5,139C 137.546,138.261 140.546,137.428 143.5,136.5 Z"/></g>
<g><path style="opacity:0.912" fill="#24fc98" d="M 365.5,137.5 C 367.118,140.121 369.118,142.454 371.5,144.5C 367.864,147.323 363.864,149.656 359.5,151.5C 358.984,148.347 357.65,145.68 355.5,143.5C 358.494,141 361.827,139 365.5,137.5 Z"/></g>
<g><path style="opacity:1" fill="#0cb2e5" d="M 259.5,137.5 C 259.665,140.518 259.498,143.518 259,146.5C 256.304,150.68 253.47,154.68 250.5,158.5C 250.5,155.833 250.5,153.167 250.5,150.5C 252.392,149.298 254.226,147.965 256,146.5C 256.661,143.198 257.828,140.198 259.5,137.5 Z"/></g>
<g><path style="opacity:0.909" fill="#0040ff" d="M 150.5,140.5 C 153.004,141.584 155.337,142.917 157.5,144.5C 155.123,145.887 152.457,146.721 149.5,147C 148.244,147.417 147.577,148.25 147.5,149.5C 145.167,148.167 142.833,146.833 140.5,145.5C 143.582,143.348 146.916,141.682 150.5,140.5 Z"/></g>
<g><path style="opacity:0.869" fill="#003bff" d="M 112.5,141.5 C 112.5,144.833 112.5,148.167 112.5,151.5C 108.902,149.908 105.569,150.242 102.5,152.5C 102.5,149.833 102.5,147.167 102.5,144.5C 103.404,143.791 103.737,142.791 103.5,141.5C 106.5,141.5 109.5,141.5 112.5,141.5 Z"/></g>
<g><path style="opacity:0.929" fill="#24fb9f" d="M 355.5,143.5 C 357.65,145.68 358.984,148.347 359.5,151.5C 357.365,153.071 355.032,154.404 352.5,155.5C 349.863,153.518 348.53,150.852 348.5,147.5C 350.336,145.412 352.669,144.079 355.5,143.5 Z"/></g>
<g><path style="opacity:0.915" fill="#0047fe" d="M 157.5,144.5 C 159.434,145.11 161.101,146.11 162.5,147.5C 159.591,149.356 156.591,151.023 153.5,152.5C 151.517,151.529 149.517,150.529 147.5,149.5C 147.577,148.25 148.244,147.417 149.5,147C 152.457,146.721 155.123,145.887 157.5,144.5 Z"/></g>
<g><path style="opacity:0.985" fill="#0db7e4" d="M 260.5,136.5 C 260.5,141.833 260.5,147.167 260.5,152.5C 259.504,152.414 258.671,152.748 258,153.5C 256.021,157.3 253.521,160.634 250.5,163.5C 250.5,161.833 250.5,160.167 250.5,158.5C 253.47,154.68 256.304,150.68 259,146.5C 259.498,143.518 259.665,140.518 259.5,137.5C 259.5,136.833 259.833,136.5 260.5,136.5 Z"/></g>
<g><path style="opacity:0.909" fill="#014dfe" d="M 162.5,147.5 C 164.483,148.471 166.483,149.471 168.5,150.5C 165.476,152.013 162.809,154.013 160.5,156.5C 157.996,155.416 155.663,154.083 153.5,152.5C 156.591,151.023 159.591,149.356 162.5,147.5 Z"/></g>
<g><path style="opacity:0.942" fill="#22faa5" d="M 348.5,147.5 C 348.53,150.852 349.863,153.518 352.5,155.5C 350.365,157.071 348.032,158.404 345.5,159.5C 343.362,157.293 341.362,154.959 339.5,152.5C 342.24,150.44 345.24,148.774 348.5,147.5 Z"/></g>
<g><path style="opacity:0.89" fill="#0041ff" d="M 112.5,151.5 C 112.5,153.833 112.5,156.167 112.5,158.5C 109.167,158.5 105.833,158.5 102.5,158.5C 102.5,156.5 102.5,154.5 102.5,152.5C 105.569,150.242 108.902,149.908 112.5,151.5 Z"/></g>
<g><path style="opacity:0.909" fill="#0154fe" d="M 168.5,150.5 C 170.23,151.026 171.564,152.026 172.5,153.5C 169.76,155.56 166.76,157.226 163.5,158.5C 162.29,158.068 161.29,157.401 160.5,156.5C 162.809,154.013 165.476,152.013 168.5,150.5 Z"/></g>
<g><path style="opacity:0.912" fill="#0ebee5" d="M 260.5,152.5 C 260.5,154.5 260.5,156.5 260.5,158.5C 259.761,158.369 259.094,158.536 258.5,159C 255.969,162.358 253.302,165.524 250.5,168.5C 250.5,166.833 250.5,165.167 250.5,163.5C 253.521,160.634 256.021,157.3 258,153.5C 258.671,152.748 259.504,152.414 260.5,152.5 Z"/></g>
<g><path style="opacity:0.958" fill="#22f9ab" d="M 339.5,152.5 C 341.362,154.959 343.362,157.293 345.5,159.5C 342.76,161.56 339.76,163.226 336.5,164.5C 335.692,161.55 334.358,158.883 332.5,156.5C 334.663,154.917 336.996,153.584 339.5,152.5 Z"/></g>
<g><path style="opacity:0.869" fill="#015afd" d="M 172.5,153.5 C 174.819,153.992 176.819,154.992 178.5,156.5C 175.874,157.422 173.207,158.422 170.5,159.5C 169.702,159.957 169.369,160.624 169.5,161.5C 167.181,161.008 165.181,160.008 163.5,158.5C 166.76,157.226 169.76,155.56 172.5,153.5 Z"/></g>
<g><path style="opacity:0.877" fill="#29fe92" d="M 408.5,156.5 C 408.5,161.833 408.5,167.167 408.5,172.5C 407.732,173.263 407.232,174.263 407,175.5C 404.691,174.025 402.524,172.358 400.5,170.5C 399.824,171.602 399.158,172.602 398.5,173.5C 398.5,167.833 398.5,162.167 398.5,156.5C 399.268,155.737 399.768,154.737 400,153.5C 402.492,155.497 405.325,156.497 408.5,156.5 Z"/></g>
<g><path style="opacity:0.947" fill="#0260fc" d="M 178.5,156.5 C 179.167,156.833 179.833,157.167 180.5,157.5C 178.191,159.987 175.524,161.987 172.5,163.5C 170.973,163.573 169.973,162.906 169.5,161.5C 169.369,160.624 169.702,159.957 170.5,159.5C 173.207,158.422 175.874,157.422 178.5,156.5 Z"/></g>
<g><path style="opacity:0.91" fill="#0266fd" d="M 180.5,157.5 C 182.23,158.026 183.564,159.026 184.5,160.5C 182.167,162.5 179.833,164.5 177.5,166.5C 175.632,165.737 173.965,164.737 172.5,163.5C 175.524,161.987 178.191,159.987 180.5,157.5 Z"/></g>
<g><path style="opacity:0.951" fill="#21f7b2" d="M 332.5,156.5 C 334.358,158.883 335.692,161.55 336.5,164.5C 334.664,166.588 332.331,167.921 329.5,168.5C 328.221,165.888 326.555,163.555 324.5,161.5C 326.794,159.347 329.46,157.68 332.5,156.5 Z"/></g>
<g><path style="opacity:0.843" fill="#0047ff" d="M 102.5,158.5 C 105.833,158.5 109.167,158.5 112.5,158.5C 112.5,161.833 112.5,165.167 112.5,168.5C 111.596,167.791 111.263,166.791 111.5,165.5C 108.272,166.386 105.272,167.719 102.5,169.5C 102.5,165.833 102.5,162.167 102.5,158.5 Z"/></g>
<g><path style="opacity:0.934" fill="#10c4e5" d="M 260.5,158.5 C 260.5,159.833 260.5,161.167 260.5,162.5C 257.209,165.825 253.876,169.158 250.5,172.5C 250.5,171.167 250.5,169.833 250.5,168.5C 253.302,165.524 255.969,162.358 258.5,159C 259.094,158.536 259.761,158.369 260.5,158.5 Z"/></g>
<g><path style="opacity:0.907" fill="#036dfd" d="M 184.5,160.5 C 186.674,160.75 188.341,161.75 189.5,163.5C 186.324,164.34 183.658,166.007 181.5,168.5C 179.847,168.34 178.514,167.674 177.5,166.5C 179.833,164.5 182.167,162.5 184.5,160.5 Z"/></g>
<g><path style="opacity:0.907" fill="#11cae5" d="M 260.5,162.5 C 260.5,164.833 260.5,167.167 260.5,169.5C 257.147,172.522 253.813,175.522 250.5,178.5C 250.5,176.5 250.5,174.5 250.5,172.5C 253.876,169.158 257.209,165.825 260.5,162.5 Z"/></g>
<g><path style="opacity:0.959" fill="#22f5b8" d="M 324.5,161.5 C 326.555,163.555 328.221,165.888 329.5,168.5C 328.548,174.075 328.214,179.741 328.5,185.5C 326.072,179.564 323.072,173.898 319.5,168.5C 318.487,164.187 320.154,161.854 324.5,161.5 Z"/></g>
<g><path style="opacity:0.948" fill="#0473fc" d="M 189.5,163.5 C 190.5,163.833 191.167,164.5 191.5,165.5C 189.016,168.244 186.016,170.244 182.5,171.5C 182.443,170.391 182.11,169.391 181.5,168.5C 183.658,166.007 186.324,164.34 189.5,163.5 Z"/></g>
<g><path style="opacity:0.877" fill="#004eff" d="M 112.5,168.5 C 112.5,171.5 112.5,174.5 112.5,177.5C 111.849,176.909 111.182,176.243 110.5,175.5C 107.524,175.933 104.857,176.933 102.5,178.5C 102.5,175.5 102.5,172.5 102.5,169.5C 105.272,167.719 108.272,166.386 111.5,165.5C 111.263,166.791 111.596,167.791 112.5,168.5 Z"/></g>
<g><path style="opacity:0.963" fill="#0479fc" d="M 191.5,165.5 C 191.5,167.167 191.5,168.833 191.5,170.5C 188.786,173.215 185.786,175.549 182.5,177.5C 182.5,175.5 182.5,173.5 182.5,171.5C 186.016,170.244 189.016,168.244 191.5,165.5 Z"/></g>
<g><path style="opacity:0.974" fill="#0680fb" d="M 191.5,170.5 C 191.5,172.833 191.5,175.167 191.5,177.5C 187.909,179.122 184.909,181.456 182.5,184.5C 182.5,182.167 182.5,179.833 182.5,177.5C 185.786,175.549 188.786,173.215 191.5,170.5 Z"/></g>
<g><path style="opacity:0.869" fill="#2afe98" d="M 408.5,172.5 C 408.5,181.167 408.5,189.833 408.5,198.5C 404.845,198.213 402.012,196.547 400,193.5C 399.722,194.416 399.222,195.082 398.5,195.5C 398.5,188.167 398.5,180.833 398.5,173.5C 399.158,172.602 399.824,171.602 400.5,170.5C 402.524,172.358 404.691,174.025 407,175.5C 407.232,174.263 407.732,173.263 408.5,172.5 Z"/></g>
<g><path style="opacity:1" fill="#12d1e6" d="M 260.5,169.5 C 260.5,171.167 260.5,172.833 260.5,174.5C 258.198,178.802 254.865,182.135 250.5,184.5C 250.5,182.5 250.5,180.5 250.5,178.5C 253.813,175.522 257.147,172.522 260.5,169.5 Z"/></g>
<g><path style="opacity:0.874" fill="#0054ff" d="M 112.5,177.5 C 112.5,180.5 112.5,183.5 112.5,186.5C 111.844,185.722 111.011,185.056 110,184.5C 107.447,185.108 104.947,185.775 102.5,186.5C 102.5,183.833 102.5,181.167 102.5,178.5C 104.857,176.933 107.524,175.933 110.5,175.5C 111.182,176.243 111.849,176.909 112.5,177.5 Z"/></g>
<g><path style="opacity:0.97" fill="#0786fb" d="M 191.5,177.5 C 191.5,179.167 191.5,180.833 191.5,182.5C 188.233,184.427 185.233,186.761 182.5,189.5C 182.5,187.833 182.5,186.167 182.5,184.5C 184.909,181.456 187.909,179.122 191.5,177.5 Z"/></g>
<g><path style="opacity:0.842" fill="#14d7e8" d="M 260.5,174.5 C 260.5,177.833 260.5,181.167 260.5,184.5C 256.163,186.837 252.83,190.17 250.5,194.5C 250.5,191.167 250.5,187.833 250.5,184.5C 254.865,182.135 258.198,178.802 260.5,174.5 Z"/></g>
<g><path style="opacity:0.964" fill="#088cfa" d="M 191.5,182.5 C 191.5,184.167 191.5,185.833 191.5,187.5C 188.14,190.194 185.14,193.194 182.5,196.5C 182.5,194.167 182.5,191.833 182.5,189.5C 185.233,186.761 188.233,184.427 191.5,182.5 Z"/></g>
<g><path style="opacity:0.94" fill="#25f5bf" d="M 319.5,168.5 C 323.072,173.898 326.072,179.564 328.5,185.5C 328.5,189.5 328.5,193.5 328.5,197.5C 325.426,196.698 322.426,195.698 319.5,194.5C 319.5,185.833 319.5,177.167 319.5,168.5 Z"/></g>
<g><path style="opacity:0.869" fill="#005aff" d="M 112.5,186.5 C 112.5,188.5 112.5,190.5 112.5,192.5C 109.715,194.095 106.715,195.095 103.5,195.5C 103.784,197.415 103.451,199.081 102.5,200.5C 102.5,195.833 102.5,191.167 102.5,186.5C 104.947,185.775 107.447,185.108 110,184.5C 111.011,185.056 111.844,185.722 112.5,186.5 Z"/></g>
<g><path style="opacity:0.966" fill="#0992fa" d="M 191.5,187.5 C 191.5,189.5 191.5,191.5 191.5,193.5C 188.032,196.456 185.032,199.789 182.5,203.5C 182.5,201.167 182.5,198.833 182.5,196.5C 185.14,193.194 188.14,190.194 191.5,187.5 Z"/></g>
<g><path style="opacity:0.906" fill="#16dde8" d="M 260.5,184.5 C 260.5,187.167 260.5,189.833 260.5,192.5C 259.883,192.389 259.383,192.056 259,191.5C 255.892,195.089 253.059,198.755 250.5,202.5C 250.5,199.833 250.5,197.167 250.5,194.5C 252.83,190.17 256.163,186.837 260.5,184.5 Z"/></g>
<g><path style="opacity:0.912" fill="#0160ff" d="M 112.5,192.5 C 112.215,194.288 112.548,195.955 113.5,197.5C 114.901,198.521 116.235,199.521 117.5,200.5C 114.545,202.122 111.878,204.122 109.5,206.5C 106.527,205.19 104.193,203.19 102.5,200.5C 103.451,199.081 103.784,197.415 103.5,195.5C 106.715,195.095 109.715,194.095 112.5,192.5 Z"/></g>
<g><path style="opacity:0.965" fill="#0b98fa" d="M 191.5,193.5 C 191.5,196.167 191.5,198.833 191.5,201.5C 189.768,204.392 187.268,206.392 184,207.5C 183.802,209.382 183.302,211.048 182.5,212.5C 182.5,209.5 182.5,206.5 182.5,203.5C 185.032,199.789 188.032,196.456 191.5,193.5 Z"/></g>
<g><path style="opacity:0.967" fill="#29f0c5" d="M 319.5,194.5 C 322.426,195.698 325.426,196.698 328.5,197.5C 328.5,200.5 328.5,203.5 328.5,206.5C 325.5,206.5 322.5,206.5 319.5,206.5C 319.5,202.5 319.5,198.5 319.5,194.5 Z"/></g>
<g><path style="opacity:0.915" fill="#1ce5eb" d="M 260.5,192.5 C 260.5,194.833 260.5,197.167 260.5,199.5C 258.925,202.582 256.758,205.249 254,207.5C 249.899,214.414 250.899,220.414 257,225.5C 257.862,227.087 258.529,228.754 259,230.5C 259.21,228.942 259.71,227.609 260.5,226.5C 260.5,229.167 260.5,231.833 260.5,234.5C 259.732,233.737 259.232,232.737 259,231.5C 258.035,233.26 256.868,233.594 255.5,232.5C 253.297,230.705 252.131,228.371 252,225.5C 251.722,226.416 251.222,227.082 250.5,227.5C 250.5,219.167 250.5,210.833 250.5,202.5C 253.059,198.755 255.892,195.089 259,191.5C 259.383,192.056 259.883,192.389 260.5,192.5 Z"/></g>
<g><path style="opacity:0.981" fill="#2bfd9f" d="M 408.5,198.5 C 408.617,200.484 407.95,202.15 406.5,203.5C 403.634,205.432 400.634,207.099 397.5,208.5C 394.07,207.458 391.403,205.458 389.5,202.5C 393.112,200.871 396.112,198.538 398.5,195.5C 399.222,195.082 399.722,194.416 400,193.5C 402.012,196.547 404.845,198.213 408.5,198.5 Z"/></g>
<g><path style="opacity:0.894" fill="#1ee9eb" d="M 260.5,199.5 C 260.5,208.5 260.5,217.5 260.5,226.5C 259.71,227.609 259.21,228.942 259,230.5C 258.529,228.754 257.862,227.087 257,225.5C 250.899,220.414 249.899,214.414 254,207.5C 256.758,205.249 258.925,202.582 260.5,199.5 Z"/></g>
<g><path style="opacity:0.904" fill="#0266fe" d="M 117.5,200.5 C 120.76,201.774 123.76,203.44 126.5,205.5C 123.81,207.193 121.81,209.527 120.5,212.5C 116.7,210.766 113.034,208.766 109.5,206.5C 111.878,204.122 114.545,202.122 117.5,200.5 Z"/></g>
<g><path style="opacity:0.965" fill="#2cfba5" d="M 389.5,202.5 C 391.403,205.458 394.07,207.458 397.5,208.5C 393.189,211.132 388.856,213.799 384.5,216.5C 384.853,212.541 383.187,209.874 379.5,208.5C 382.466,206.012 385.799,204.012 389.5,202.5 Z"/></g>
<g><path style="opacity:0.917" fill="#036dfd" d="M 126.5,205.5 C 128.5,206.5 130.5,207.5 132.5,208.5C 131.091,211.357 129.425,214.023 127.5,216.5C 124.996,215.416 122.663,214.083 120.5,212.5C 121.81,209.527 123.81,207.193 126.5,205.5 Z"/></g>
<g><path style="opacity:0.965" fill="#0d9bf9" d="M 191.5,201.5 C 191.5,202.833 191.5,204.167 191.5,205.5C 188.683,209.933 185.683,214.266 182.5,218.5C 182.5,216.5 182.5,214.5 182.5,212.5C 183.302,211.048 183.802,209.382 184,207.5C 187.268,206.392 189.768,204.392 191.5,201.5 Z"/></g>
<g><path style="opacity:0.985" fill="#2ceaca" d="M 319.5,206.5 C 322.5,206.5 325.5,206.5 328.5,206.5C 328.5,209.167 328.5,211.833 328.5,214.5C 325.646,214.118 322.646,214.118 319.5,214.5C 319.5,211.833 319.5,209.167 319.5,206.5 Z"/></g>
<g><path style="opacity:0.966" fill="#2cf7ab" d="M 379.5,208.5 C 383.187,209.874 384.853,212.541 384.5,216.5C 381.807,217.847 379.14,219.18 376.5,220.5C 373.593,218.685 372.259,216.019 372.5,212.5C 374.663,210.917 376.996,209.584 379.5,208.5 Z"/></g>
<g><path style="opacity:0.885" fill="#0473fd" d="M 132.5,208.5 C 135.203,210.181 137.869,211.847 140.5,213.5C 137.775,214.713 135.441,216.546 133.5,219C 134.056,219.383 134.389,219.883 134.5,220.5C 131.996,219.416 129.663,218.083 127.5,216.5C 129.425,214.023 131.091,211.357 132.5,208.5 Z"/></g>
<g><path style="opacity:0.904" fill="#2df4b0" d="M 372.5,212.5 C 372.259,216.019 373.593,218.685 376.5,220.5C 375.71,221.401 374.71,222.068 373.5,222.5C 373.013,221.527 372.513,220.527 372,219.5C 369.833,218.512 368,217.179 366.5,215.5C 368.517,214.471 370.517,213.471 372.5,212.5 Z"/></g>
<g><path style="opacity:0.908" fill="#0679fc" d="M 140.5,213.5 C 142.368,214.263 144.035,215.263 145.5,216.5C 142.334,218.154 140.667,220.821 140.5,224.5C 138.463,223.154 136.463,221.82 134.5,220.5C 134.389,219.883 134.056,219.383 133.5,219C 135.441,216.546 137.775,214.713 140.5,213.5 Z"/></g>
<g><path style="opacity:0.949" fill="#2fe4cc" d="M 328.5,214.5 C 328.5,217.5 328.5,220.5 328.5,223.5C 327.778,223.082 327.278,222.416 327,221.5C 326.617,222.056 326.117,222.389 325.5,222.5C 324.517,219.331 322.517,216.998 319.5,215.5C 319.5,215.167 319.5,214.833 319.5,214.5C 322.646,214.118 325.646,214.118 328.5,214.5 Z"/></g>
<g><path style="opacity:1" fill="#30e2cf" d="M 319.5,215.5 C 322.517,216.998 324.517,219.331 325.5,222.5C 323.612,221.725 321.612,221.725 319.5,222.5C 319.5,220.167 319.5,217.833 319.5,215.5 Z"/></g>
<g><path style="opacity:0.95" fill="#2ef1b3" d="M 366.5,215.5 C 368,217.179 369.833,218.512 372,219.5C 372.513,220.527 373.013,221.527 373.5,222.5C 371.33,224.086 368.996,225.42 366.5,226.5C 366.206,223.246 364.873,220.579 362.5,218.5C 363.436,217.026 364.77,216.026 366.5,215.5 Z"/></g>
<g><path style="opacity:0.977" fill="#077ffc" d="M 145.5,216.5 C 148.004,217.584 150.337,218.917 152.5,220.5C 150.529,222.808 148.529,225.142 146.5,227.5C 144.517,226.529 142.517,225.529 140.5,224.5C 140.667,220.821 142.334,218.154 145.5,216.5 Z"/></g>
<g><path style="opacity:0.921" fill="#2fecb8" d="M 362.5,218.5 C 364.873,220.579 366.206,223.246 366.5,226.5C 364.819,228.008 362.819,229.008 360.5,229.5C 359.618,226.615 358.284,223.948 356.5,221.5C 358.216,219.975 360.216,218.975 362.5,218.5 Z"/></g>
<g><path style="opacity:0.929" fill="#0986fb" d="M 152.5,220.5 C 155.032,221.596 157.365,222.929 159.5,224.5C 158.5,224.5 157.5,224.5 156.5,224.5C 156.416,227.327 155.75,229.994 154.5,232.5C 151.797,230.819 149.131,229.153 146.5,227.5C 148.529,225.142 150.529,222.808 152.5,220.5 Z"/></g>
<g><path style="opacity:0.868" fill="#30e9bc" d="M 356.5,221.5 C 358.284,223.948 359.618,226.615 360.5,229.5C 360.5,230.167 360.167,230.5 359.5,230.5C 357.681,227.345 355.015,225.345 351.5,224.5C 352.965,223.263 354.632,222.263 356.5,221.5 Z"/></g>
<g><path style="opacity:1" fill="#32ddd0" d="M 325.5,222.5 C 326.117,222.389 326.617,222.056 327,221.5C 327.278,222.416 327.778,223.082 328.5,223.5C 328.5,224.5 328.5,225.5 328.5,226.5C 325.646,226.882 322.646,226.882 319.5,226.5C 319.5,225.167 319.5,223.833 319.5,222.5C 321.612,221.725 323.612,221.725 325.5,222.5 Z"/></g>
<g><path style="opacity:0.985" fill="#149ff7" d="M 191.5,205.5 C 191.5,208.167 191.5,210.833 191.5,213.5C 190.883,213.611 190.383,213.944 190,214.5C 188.465,221.206 188.465,227.873 190,234.5C 190.383,233.944 190.883,233.611 191.5,233.5C 191.5,237.833 191.5,242.167 191.5,246.5C 189.871,245.375 188.371,244.041 187,242.5C 185.725,238.958 184.225,235.625 182.5,232.5C 182.5,227.833 182.5,223.167 182.5,218.5C 185.683,214.266 188.683,209.933 191.5,205.5 Z"/></g>
<g><path style="opacity:0.989" fill="#13a3f7" d="M 191.5,213.5 C 191.5,220.167 191.5,226.833 191.5,233.5C 190.883,233.611 190.383,233.944 190,234.5C 188.465,227.873 188.465,221.206 190,214.5C 190.383,213.944 190.883,213.611 191.5,213.5 Z"/></g>
<g><path style="opacity:0.99" fill="#31e5bf" d="M 351.5,224.5 C 355.015,225.345 357.681,227.345 359.5,230.5C 358.486,231.674 357.153,232.34 355.5,232.5C 353.582,229.974 351.249,227.974 348.5,226.5C 349.29,225.599 350.29,224.932 351.5,224.5 Z"/></g>
<g><path style="opacity:0.961" fill="#34d7d2" d="M 319.5,226.5 C 322.646,226.882 325.646,226.882 328.5,226.5C 328.5,227.833 328.5,229.167 328.5,230.5C 325.5,230.5 322.5,230.5 319.5,230.5C 319.5,229.167 319.5,227.833 319.5,226.5 Z"/></g>
<g><path style="opacity:0.957" fill="#32e2c3" d="M 348.5,226.5 C 351.249,227.974 353.582,229.974 355.5,232.5C 354.71,233.401 353.71,234.068 352.5,234.5C 350.557,231.529 347.891,229.529 344.5,228.5C 345.514,227.326 346.847,226.66 348.5,226.5 Z"/></g>
<g><path style="opacity:0.976" fill="#0c8df9" d="M 159.5,224.5 C 161.5,225.5 163.5,226.5 165.5,227.5C 163.765,230.163 162.765,233.163 162.5,236.5C 159.605,235.601 156.938,234.267 154.5,232.5C 155.75,229.994 156.416,227.327 156.5,224.5C 157.5,224.5 158.5,224.5 159.5,224.5 Z"/></g>
<g><path style="opacity:0.954" fill="#0f92f8" d="M 165.5,227.5 C 168.709,229.265 171.709,231.265 174.5,233.5C 173.596,234.209 173.263,235.209 173.5,236.5C 170.821,236.525 169.488,237.858 169.5,240.5C 166.669,239.921 164.336,238.588 162.5,236.5C 162.765,233.163 163.765,230.163 165.5,227.5 Z"/></g>
<g><path style="opacity:0.973" fill="#34ddc6" d="M 344.5,228.5 C 347.891,229.529 350.557,231.529 352.5,234.5C 351.486,235.674 350.153,236.34 348.5,236.5C 348.586,235.504 348.252,234.671 347.5,234C 345.273,233.059 343.273,231.892 341.5,230.5C 342.29,229.599 343.29,228.932 344.5,228.5 Z"/></g>
<g><path style="opacity:1" fill="#36d1d5" d="M 319.5,230.5 C 322.5,230.5 325.5,230.5 328.5,230.5C 328.5,231.5 328.5,232.5 328.5,233.5C 325.609,234.403 322.609,234.736 319.5,234.5C 319.5,233.167 319.5,231.833 319.5,230.5 Z"/></g>
<g><path style="opacity:0.942" fill="#35d7ca" d="M 341.5,230.5 C 343.273,231.892 345.273,233.059 347.5,234C 348.252,234.671 348.586,235.504 348.5,236.5C 347.71,237.401 346.71,238.068 345.5,238.5C 343.062,236.757 340.729,234.757 338.5,232.5C 338.973,231.094 339.973,230.427 341.5,230.5 Z"/></g>
<g><path style="opacity:0.934" fill="#26e4ef" d="M 260.5,234.5 C 260.5,235.833 260.5,237.167 260.5,238.5C 257.219,239.628 253.885,239.628 250.5,238.5C 250.5,234.833 250.5,231.167 250.5,227.5C 251.222,227.082 251.722,226.416 252,225.5C 252.131,228.371 253.297,230.705 255.5,232.5C 256.868,233.594 258.035,233.26 259,231.5C 259.232,232.737 259.732,233.737 260.5,234.5 Z"/></g>
<g><path style="opacity:0.948" fill="#1798f6" d="M 182.5,232.5 C 184.225,235.625 185.725,238.958 187,242.5C 188.371,244.041 189.871,245.375 191.5,246.5C 191.5,248.833 191.5,251.167 191.5,253.5C 186.631,249.046 181.298,245.046 175.5,241.5C 174.678,239.861 174.011,238.195 173.5,236.5C 173.263,235.209 173.596,234.209 174.5,233.5C 177.342,234.172 179.842,235.506 182,237.5C 182.494,235.866 182.66,234.199 182.5,232.5 Z"/></g>
<g><path style="opacity:0.917" fill="#38d1ce" d="M 338.5,232.5 C 340.729,234.757 343.062,236.757 345.5,238.5C 344.486,239.674 343.153,240.34 341.5,240.5C 338.987,238.074 335.987,236.408 332.5,235.5C 334.181,233.992 336.181,232.992 338.5,232.5 Z"/></g>
<g><path style="opacity:0.933" fill="#39cad7" d="M 328.5,233.5 C 328.343,234.873 328.51,236.207 329,237.5C 329.383,236.944 329.883,236.611 330.5,236.5C 330.557,237.609 330.89,238.609 331.5,239.5C 327.566,238.64 323.566,238.307 319.5,238.5C 319.5,237.167 319.5,235.833 319.5,234.5C 322.609,234.736 325.609,234.403 328.5,233.5 Z"/></g>
<g><path style="opacity:0.98" fill="#39cbd1" d="M 332.5,235.5 C 335.987,236.408 338.987,238.074 341.5,240.5C 341.027,241.906 340.027,242.573 338.5,242.5C 336.249,241.305 333.915,240.305 331.5,239.5C 330.89,238.609 330.557,237.609 330.5,236.5C 331.167,236.167 331.833,235.833 332.5,235.5 Z"/></g>
<g><path style="opacity:0.919" fill="#28ddef" d="M 250.5,238.5 C 253.885,239.628 257.219,239.628 260.5,238.5C 260.5,239.833 260.5,241.167 260.5,242.5C 256.641,244.227 253.308,243.56 250.5,240.5C 250.5,239.833 250.5,239.167 250.5,238.5 Z"/></g>
<g><path style="opacity:1" fill="#3bc4d7" d="M 319.5,238.5 C 323.566,238.307 327.566,238.64 331.5,239.5C 333.915,240.305 336.249,241.305 338.5,242.5C 337.71,243.401 336.71,244.068 335.5,244.5C 333.09,242.517 330.257,241.184 327,240.5C 324.538,241.159 322.038,241.493 319.5,241.5C 319.5,240.5 319.5,239.5 319.5,238.5 Z"/></g>
<g><path style="opacity:0.993" fill="#3dbed9" d="M 335.5,244.5 C 335.167,244.5 334.833,244.5 334.5,244.5C 332.323,244.414 330.323,243.747 328.5,242.5C 325.579,243.407 322.579,243.74 319.5,243.5C 319.5,242.833 319.5,242.167 319.5,241.5C 322.038,241.493 324.538,241.159 327,240.5C 330.257,241.184 333.09,242.517 335.5,244.5 Z"/></g>
<g><path style="opacity:0.827" fill="#2ad7f0" d="M 250.5,240.5 C 253.308,243.56 256.641,244.227 260.5,242.5C 260.5,243.833 260.5,245.167 260.5,246.5C 257.119,246.54 253.786,246.207 250.5,245.5C 250.5,243.833 250.5,242.167 250.5,240.5 Z"/></g>
<g><path style="opacity:1" fill="#3eb8db" d="M 334.5,244.5 C 334.027,245.906 333.027,246.573 331.5,246.5C 327.702,245.517 323.702,245.183 319.5,245.5C 319.5,244.833 319.5,244.167 319.5,243.5C 322.579,243.74 325.579,243.407 328.5,242.5C 330.323,243.747 332.323,244.414 334.5,244.5 Z"/></g>
<g><path style="opacity:0.962" fill="#40b2dd" d="M 319.5,245.5 C 323.702,245.183 327.702,245.517 331.5,246.5C 331.158,247.338 330.492,247.672 329.5,247.5C 326.214,248.207 322.881,248.54 319.5,248.5C 319.5,247.5 319.5,246.5 319.5,245.5 Z"/></g>
<g><path style="opacity:0.919" fill="#2cd1f0" d="M 250.5,245.5 C 253.786,246.207 257.119,246.54 260.5,246.5C 260.5,247.5 260.5,248.5 260.5,249.5C 257.256,249.761 253.923,249.427 250.5,248.5C 250.5,247.5 250.5,246.5 250.5,245.5 Z"/></g>
<g><path style="opacity:0.939" fill="#2dcbf1" d="M 250.5,248.5 C 253.923,249.427 257.256,249.761 260.5,249.5C 260.5,250.5 260.5,251.5 260.5,252.5C 257.065,253.368 253.731,253.368 250.5,252.5C 250.5,251.167 250.5,249.833 250.5,248.5 Z"/></g>
<g><path style="opacity:1" fill="#42abe0" d="M 329.5,247.5 C 329.167,248.167 328.833,248.833 328.5,249.5C 325.609,250.403 322.609,250.736 319.5,250.5C 319.5,249.833 319.5,249.167 319.5,248.5C 322.881,248.54 326.214,248.207 329.5,247.5 Z"/></g>
<g><path style="opacity:0.983" fill="#1b92f4" d="M 173.5,236.5 C 174.011,238.195 174.678,239.861 175.5,241.5C 181.298,245.046 186.631,249.046 191.5,253.5C 191.5,255.5 191.5,257.5 191.5,259.5C 188.672,257.252 185.672,255.252 182.5,253.5C 182.66,251.801 182.494,250.134 182,248.5C 177.684,245.934 173.517,243.267 169.5,240.5C 169.488,237.858 170.821,236.525 173.5,236.5 Z"/></g>
<g><path style="opacity:1" fill="#44a5e2" d="M 328.5,249.5 C 328.5,250.5 328.5,251.5 328.5,252.5C 325.391,252.264 322.391,252.597 319.5,253.5C 319.5,252.5 319.5,251.5 319.5,250.5C 322.609,250.736 325.609,250.403 328.5,249.5 Z"/></g>
<g><path style="opacity:0.944" fill="#2fc4f1" d="M 250.5,252.5 C 253.731,253.368 257.065,253.368 260.5,252.5C 260.5,253.167 260.5,253.833 260.5,254.5C 257.115,255.628 253.781,255.628 250.5,254.5C 250.5,253.833 250.5,253.167 250.5,252.5 Z"/></g>
<g><path style="opacity:0.975" fill="#459fe3" d="M 328.5,252.5 C 328.5,253.167 328.5,253.833 328.5,254.5C 325.482,254.704 322.482,255.037 319.5,255.5C 319.5,254.833 319.5,254.167 319.5,253.5C 322.391,252.597 325.391,252.264 328.5,252.5 Z"/></g>
<g><path style="opacity:1" fill="#30bef2" d="M 250.5,254.5 C 253.781,255.628 257.115,255.628 260.5,254.5C 260.5,255.5 260.5,256.5 260.5,257.5C 257.167,257.5 253.833,257.5 250.5,257.5C 250.5,256.5 250.5,255.5 250.5,254.5 Z"/></g>
<g><path style="opacity:0.975" fill="#4799e5" d="M 328.5,254.5 C 328.5,255.167 328.5,255.833 328.5,256.5C 325.417,256.916 322.417,257.583 319.5,258.5C 319.5,257.5 319.5,256.5 319.5,255.5C 322.482,255.037 325.482,254.704 328.5,254.5 Z"/></g>
<g><path style="opacity:0.997" fill="#208cf1" d="M 182.5,253.5 C 185.672,255.252 188.672,257.252 191.5,259.5C 191.5,260.833 191.5,262.167 191.5,263.5C 188.328,261.748 185.328,259.748 182.5,257.5C 182.5,256.167 182.5,254.833 182.5,253.5 Z"/></g>
<g><path style="opacity:0.978" fill="#4a91e6" d="M 328.5,256.5 C 328.5,257.833 328.5,259.167 328.5,260.5C 325.5,260.5 322.5,260.5 319.5,260.5C 319.5,259.833 319.5,259.167 319.5,258.5C 322.417,257.583 325.417,256.916 328.5,256.5 Z"/></g>
<g><path style="opacity:1" fill="#32b8f2" d="M 250.5,257.5 C 253.833,257.5 257.167,257.5 260.5,257.5C 260.5,258.167 260.5,258.833 260.5,259.5C 257.167,260.833 253.833,260.833 250.5,259.5C 250.5,258.833 250.5,258.167 250.5,257.5 Z"/></g>
<g><path style="opacity:0.969" fill="#2286f0" d="M 182.5,257.5 C 185.328,259.748 188.328,261.748 191.5,263.5C 191.5,264.833 191.5,266.167 191.5,267.5C 188.32,265.745 185.32,263.745 182.5,261.5C 182.5,260.167 182.5,258.833 182.5,257.5 Z"/></g>
<g><path style="opacity:1" fill="#33b1f3" d="M 250.5,259.5 C 253.833,260.833 257.167,260.833 260.5,259.5C 260.5,260.833 260.5,262.167 260.5,263.5C 257.284,263.016 253.951,263.016 250.5,263.5C 250.5,262.167 250.5,260.833 250.5,259.5 Z"/></g>
<g><path style="opacity:0.972" fill="#4d87e9" d="M 319.5,260.5 C 322.5,260.5 325.5,260.5 328.5,260.5C 328.5,261.167 328.5,261.833 328.5,262.5C 325.402,262.756 322.402,263.422 319.5,264.5C 319.5,263.167 319.5,261.833 319.5,260.5 Z"/></g>
<g><path style="opacity:0.914" fill="#237fef" d="M 182.5,261.5 C 185.32,263.745 188.32,265.745 191.5,267.5C 190.564,268.974 189.23,269.974 187.5,270.5C 184.753,267.793 181.42,266.127 177.5,265.5C 179.349,264.407 181.016,263.074 182.5,261.5 Z"/></g>
<g><path style="opacity:1" fill="#35abf3" d="M 260.5,263.5 C 260.5,264.167 260.5,264.833 260.5,265.5C 257.378,265.28 254.044,265.28 250.5,265.5C 250.5,264.833 250.5,264.167 250.5,263.5C 253.951,263.016 257.284,263.016 260.5,263.5 Z"/></g>
<g><path style="opacity:0.96" fill="#4f7fea" d="M 328.5,262.5 C 329.167,262.5 329.5,262.833 329.5,263.5C 326.495,265.277 323.162,266.277 319.5,266.5C 319.5,265.833 319.5,265.167 319.5,264.5C 322.402,263.422 325.402,262.756 328.5,262.5 Z"/></g>
<g><path style="opacity:1" fill="#36a5f3" d="M 260.5,265.5 C 260.5,265.833 260.5,266.167 260.5,266.5C 257.37,268.023 254.037,268.689 250.5,268.5C 250.5,267.5 250.5,266.5 250.5,265.5C 254.044,265.28 257.378,265.28 260.5,265.5 Z"/></g>
<g><path style="opacity:0.97" fill="#5373ed" d="M 331.5,264.5 C 332.492,264.328 333.158,264.662 333.5,265.5C 330.203,267.601 326.537,268.935 322.5,269.5C 321.508,269.672 320.842,269.338 320.5,268.5C 324.383,267.541 328.05,266.208 331.5,264.5 Z"/></g>
<g><path style="opacity:0.984" fill="#2478ed" d="M 177.5,265.5 C 181.42,266.127 184.753,267.793 187.5,270.5C 186.833,270.833 186.167,271.167 185.5,271.5C 181.58,270.873 178.247,269.207 175.5,266.5C 176.167,266.167 176.833,265.833 177.5,265.5 Z"/></g>
<g><path style="opacity:1" fill="#5178ec" d="M 329.5,263.5 C 330.492,263.328 331.158,263.662 331.5,264.5C 328.05,266.208 324.383,267.541 320.5,268.5C 319.662,268.158 319.328,267.492 319.5,266.5C 323.162,266.277 326.495,265.277 329.5,263.5 Z"/></g>
<g><path style="opacity:0.925" fill="#5866ef" d="M 335.5,266.5 C 336.167,266.5 336.5,266.833 336.5,267.5C 334.513,270.485 331.846,272.485 328.5,273.5C 327.29,273.068 326.29,272.401 325.5,271.5C 329.14,270.425 332.474,268.759 335.5,266.5 Z"/></g>
<g><path style="opacity:0.988" fill="#2473ec" d="M 175.5,266.5 C 178.247,269.207 181.58,270.873 185.5,271.5C 184.486,272.674 183.153,273.34 181.5,273.5C 178.008,272.59 175.008,270.924 172.5,268.5C 173.29,267.599 174.29,266.932 175.5,266.5 Z"/></g>
<g><path style="opacity:0.954" fill="#566ded" d="M 333.5,265.5 C 334.167,265.833 334.833,266.167 335.5,266.5C 332.474,268.759 329.14,270.425 325.5,271.5C 324.29,271.068 323.29,270.401 322.5,269.5C 326.537,268.935 330.203,267.601 333.5,265.5 Z"/></g>
<g><path style="opacity:0.888" fill="#5a60f0" d="M 336.5,267.5 C 337.609,267.557 338.609,267.89 339.5,268.5C 337.094,270.913 334.428,272.913 331.5,274.5C 330.391,274.443 329.391,274.11 328.5,273.5C 331.846,272.485 334.513,270.485 336.5,267.5 Z"/></g>
<g><path style="opacity:0.907" fill="#379ff3" d="M 260.5,266.5 C 260.5,267.5 260.5,268.5 260.5,269.5C 257.214,270.207 253.881,270.54 250.5,270.5C 250.5,269.833 250.5,269.167 250.5,268.5C 254.037,268.689 257.37,268.023 260.5,266.5 Z"/></g>
<g><path style="opacity:0.879" fill="#3899f4" d="M 260.5,269.5 C 260.5,270.5 260.5,271.5 260.5,272.5C 257.167,272.5 253.833,272.5 250.5,272.5C 250.5,271.833 250.5,271.167 250.5,270.5C 253.881,270.54 257.214,270.207 260.5,269.5 Z"/></g>
<g><path style="opacity:0.96" fill="#5d5af1" d="M 339.5,268.5 C 340.5,268.833 341.167,269.5 341.5,270.5C 338.913,272.959 335.913,274.626 332.5,275.5C 331.833,275.5 331.5,275.167 331.5,274.5C 334.428,272.913 337.094,270.913 339.5,268.5 Z"/></g>
<g><path style="opacity:0.948" fill="#5f54f1" d="M 341.5,270.5 C 342.492,270.328 343.158,270.662 343.5,271.5C 340.795,273.512 338.128,275.512 335.5,277.5C 334.29,277.068 333.29,276.401 332.5,275.5C 335.913,274.626 338.913,272.959 341.5,270.5 Z"/></g>
<g><path style="opacity:0.981" fill="#2567e9" d="M 170.5,269.5 C 172.023,272.937 174.689,274.937 178.5,275.5C 177.486,276.674 176.153,277.34 174.5,277.5C 170.779,277.109 167.779,275.442 165.5,272.5C 166.965,271.263 168.632,270.263 170.5,269.5 Z"/></g>
<g><path style="opacity:0.974" fill="#624df2" d="M 343.5,271.5 C 344.492,271.328 345.158,271.662 345.5,272.5C 343.757,275.558 341.09,277.558 337.5,278.5C 336.833,278.167 336.167,277.833 335.5,277.5C 338.128,275.512 340.795,273.512 343.5,271.5 Z"/></g>
<g><path style="opacity:0.945" fill="#2660e8" d="M 164.5,272.5 C 164.833,272.5 165.167,272.5 165.5,272.5C 167.779,275.442 170.779,277.109 174.5,277.5C 173.341,279.25 171.674,280.25 169.5,280.5C 167.544,278.886 165.544,277.219 163.5,275.5C 164.127,274.583 164.461,273.583 164.5,272.5 Z"/></g>
<g><path style="opacity:0.956" fill="#256eeb" d="M 172.5,268.5 C 175.008,270.924 178.008,272.59 181.5,273.5C 180.71,274.401 179.71,275.068 178.5,275.5C 174.689,274.937 172.023,272.937 170.5,269.5C 170.842,268.662 171.508,268.328 172.5,268.5 Z"/></g>
<g><path style="opacity:0.904" fill="#3a92f4" d="M 250.5,272.5 C 253.833,272.5 257.167,272.5 260.5,272.5C 260.5,273.167 260.5,273.833 260.5,274.5C 257.236,275.324 253.902,275.658 250.5,275.5C 250.5,274.5 250.5,273.5 250.5,272.5 Z"/></g>
<g><path style="opacity:0.964" fill="#265be6" d="M 164.5,272.5 C 164.461,273.583 164.127,274.583 163.5,275.5C 165.544,277.219 167.544,278.886 169.5,280.5C 168.205,281.488 166.872,282.488 165.5,283.5C 163.347,281.206 161.68,278.54 160.5,275.5C 161.795,274.512 163.128,273.512 164.5,272.5 Z"/></g>
<g><path style="opacity:0.963" fill="#6642f4" d="M 345.5,272.5 C 347.434,273.11 349.101,274.11 350.5,275.5C 348.781,278.219 346.447,280.219 343.5,281.5C 341.181,281.008 339.181,280.008 337.5,278.5C 341.09,277.558 343.757,275.558 345.5,272.5 Z"/></g>
<g><path style="opacity:0.955" fill="#2754e5" d="M 160.5,275.5 C 161.68,278.54 163.347,281.206 165.5,283.5C 164.609,284.11 163.609,284.443 162.5,284.5C 159.054,283.388 157.054,281.055 156.5,277.5C 157.605,276.4 158.938,275.733 160.5,275.5 Z"/></g>
<g><path style="opacity:0.934" fill="#693bf6" d="M 350.5,275.5 C 352.027,275.427 353.027,276.094 353.5,277.5C 351.766,280.2 349.432,282.2 346.5,283.5C 344.973,283.573 343.973,282.906 343.5,281.5C 346.447,280.219 348.781,278.219 350.5,275.5 Z"/></g>
<g><path style="opacity:0.928" fill="#274de3" d="M 156.5,277.5 C 157.054,281.055 159.054,283.388 162.5,284.5C 161.101,285.89 159.434,286.89 157.5,287.5C 154.757,285.761 152.757,283.427 151.5,280.5C 152.965,279.263 154.632,278.263 156.5,277.5 Z"/></g>
<g><path style="opacity:0.892" fill="#3c88f5" d="M 260.5,274.5 C 260.5,275.833 260.5,277.167 260.5,278.5C 257.069,279.617 253.736,279.95 250.5,279.5C 250.5,278.167 250.5,276.833 250.5,275.5C 253.902,275.658 257.236,275.324 260.5,274.5 Z"/></g>
<g><path style="opacity:0.967" fill="#6c34f6" d="M 353.5,277.5 C 354.609,277.557 355.609,277.89 356.5,278.5C 356.649,279.552 356.483,280.552 356,281.5C 354.008,282.665 352.175,283.998 350.5,285.5C 348.847,285.34 347.514,284.674 346.5,283.5C 349.432,282.2 351.766,280.2 353.5,277.5 Z"/></g>
<g><path style="opacity:0.924" fill="#3e80f6" d="M 260.5,278.5 C 260.5,279.833 260.5,281.167 260.5,282.5C 257.061,282.253 253.728,282.586 250.5,283.5C 250.5,282.167 250.5,280.833 250.5,279.5C 253.736,279.95 257.069,279.617 260.5,278.5 Z"/></g>
<g><path style="opacity:0.913" fill="#2847e1" d="M 151.5,280.5 C 152.757,283.427 154.757,285.761 157.5,287.5C 156.486,288.674 155.153,289.34 153.5,289.5C 152.504,289.586 151.671,289.252 151,288.5C 149.579,286.595 148.412,284.595 147.5,282.5C 148.833,281.833 150.167,281.167 151.5,280.5 Z"/></g>
<g><path style="opacity:0.957" fill="#712af8" d="M 356.5,278.5 C 358.795,279.475 360.795,280.808 362.5,282.5C 361.298,285.056 359.631,287.389 357.5,289.5C 354.669,288.921 352.336,287.588 350.5,285.5C 352.175,283.998 354.008,282.665 356,281.5C 356.483,280.552 356.649,279.552 356.5,278.5 Z"/></g>
<g><path style="opacity:0.968" fill="#4079f6" d="M 260.5,282.5 C 260.5,282.833 260.5,283.167 260.5,283.5C 257.321,284.793 253.988,285.46 250.5,285.5C 250.5,284.833 250.5,284.167 250.5,283.5C 253.728,282.586 257.061,282.253 260.5,282.5 Z"/></g>
<g><path style="opacity:0.983" fill="#2741e0" d="M 147.5,282.5 C 148.412,284.595 149.579,286.595 151,288.5C 151.671,289.252 152.504,289.586 153.5,289.5C 152.564,290.974 151.23,291.974 149.5,292.5C 146.099,291.428 144.099,289.095 143.5,285.5C 144.436,284.026 145.77,283.026 147.5,282.5 Z"/></g>
<g><path style="opacity:0.908" fill="#4173f6" d="M 260.5,283.5 C 260.5,284.5 260.5,285.5 260.5,286.5C 257.097,286.851 253.763,287.518 250.5,288.5C 250.5,287.5 250.5,286.5 250.5,285.5C 253.988,285.46 257.321,284.793 260.5,283.5 Z"/></g>
<g><path style="opacity:0.973" fill="#7522fa" d="M 362.5,282.5 C 364.674,282.75 366.341,283.75 367.5,285.5C 366.367,288.971 364.033,290.971 360.5,291.5C 358.973,291.573 357.973,290.906 357.5,289.5C 359.631,287.389 361.298,285.056 362.5,282.5 Z"/></g>
<g><path style="opacity:0.937" fill="#273bde" d="M 143.5,285.5 C 144.099,289.095 146.099,291.428 149.5,292.5C 147.784,294.025 145.784,295.025 143.5,295.5C 141.42,293.427 139.754,291.093 138.5,288.5C 139.659,286.75 141.326,285.75 143.5,285.5 Z"/></g>
<g><path style="opacity:0.882" fill="#426df6" d="M 260.5,286.5 C 260.5,287.167 260.5,287.833 260.5,288.5C 257.237,289.482 253.903,290.149 250.5,290.5C 250.5,289.833 250.5,289.167 250.5,288.5C 253.763,287.518 257.097,286.851 260.5,286.5 Z"/></g>
<g><path style="opacity:0.927" fill="#2834dc" d="M 138.5,288.5 C 139.754,291.093 141.42,293.427 143.5,295.5C 142.101,296.89 140.434,297.89 138.5,298.5C 135.757,296.761 133.757,294.427 132.5,291.5C 134.181,289.992 136.181,288.992 138.5,288.5 Z"/></g>
<g><path style="opacity:0.914" fill="#4366f6" d="M 260.5,288.5 C 260.5,289.167 260.5,289.833 260.5,290.5C 257.23,292.276 253.897,292.943 250.5,292.5C 250.5,291.833 250.5,291.167 250.5,290.5C 253.903,290.149 257.237,289.482 260.5,288.5 Z"/></g>
<g><path style="opacity:0.903" fill="#4560f6" d="M 260.5,290.5 C 260.5,291.5 260.5,292.5 260.5,293.5C 257.162,294.501 253.829,295.501 250.5,296.5C 250.5,295.167 250.5,293.833 250.5,292.5C 253.897,292.943 257.23,292.276 260.5,290.5 Z"/></g>
<g><path style="opacity:0.957" fill="#7b17fb" d="M 367.5,285.5 C 371.836,287.332 375.836,289.665 379.5,292.5C 378.164,295.667 375.831,297.667 372.5,298.5C 368.164,296.668 364.164,294.335 360.5,291.5C 364.033,290.971 366.367,288.971 367.5,285.5 Z"/></g>
<g><path style="opacity:0.976" fill="#282eda" d="M 132.5,291.5 C 133.757,294.427 135.757,296.761 138.5,298.5C 137.035,299.737 135.368,300.737 133.5,301.5C 129.5,300.833 127.167,298.5 126.5,294.5C 128.5,293.5 130.5,292.5 132.5,291.5 Z"/></g>
<g><path style="opacity:0.944" fill="#465af7" d="M 260.5,293.5 C 260.5,294.167 260.5,294.833 260.5,295.5C 257.301,296.899 253.968,297.899 250.5,298.5C 250.5,297.833 250.5,297.167 250.5,296.5C 253.829,295.501 257.162,294.501 260.5,293.5 Z"/></g>
<g><path style="opacity:0.936" fill="#2728d8" d="M 126.5,294.5 C 127.167,298.5 129.5,300.833 133.5,301.5C 131.365,303.071 129.032,304.404 126.5,305.5C 122.955,304.415 120.955,302.082 120.5,298.5C 122.463,297.18 124.463,295.846 126.5,294.5 Z"/></g>
<g><path style="opacity:0.871" fill="#4854f7" d="M 260.5,295.5 C 260.5,296.5 260.5,297.5 260.5,298.5C 257.15,299.503 253.817,300.503 250.5,301.5C 250.5,300.5 250.5,299.5 250.5,298.5C 253.968,297.899 257.301,296.899 260.5,295.5 Z"/></g>
<g><path style="opacity:0.946" fill="#830afd" d="M 379.5,292.5 C 386.996,295.745 393.996,299.745 400.5,304.5C 398.465,306.709 396.132,308.709 393.5,310.5C 386.329,306.749 379.329,302.749 372.5,298.5C 375.831,297.667 378.164,295.667 379.5,292.5 Z"/></g>
<g><path style="opacity:0.955" fill="#2722d6" d="M 120.5,298.5 C 120.955,302.082 122.955,304.415 126.5,305.5C 123.869,307.153 121.203,308.819 118.5,310.5C 117.653,309.034 116.32,308.2 114.5,308C 112.859,306.871 111.859,305.371 111.5,303.5C 114.339,301.58 117.339,299.913 120.5,298.5 Z"/></g>
<g><path style="opacity:0.916" fill="#484df7" d="M 260.5,298.5 C 260.5,299.833 260.5,301.167 260.5,302.5C 255.382,303.031 250.382,304.031 245.5,305.5C 247.167,304.167 248.833,302.833 250.5,301.5C 253.817,300.503 257.15,299.503 260.5,298.5 Z"/></g>
<g><path style="opacity:0.98" fill="#4747f6" d="M 260.5,302.5 C 261.492,302.328 262.158,302.662 262.5,303.5C 253.874,305.928 245.208,308.595 236.5,311.5C 235.893,311.376 235.56,311.043 235.5,310.5C 238.85,308.804 242.183,307.137 245.5,305.5C 250.382,304.031 255.382,303.031 260.5,302.5 Z"/></g>
<g><path style="opacity:0.957" fill="#271bd3" d="M 111.5,303.5 C 111.859,305.371 112.859,306.871 114.5,308C 116.32,308.2 117.653,309.034 118.5,310.5C 115.845,311.497 113.845,313.164 112.5,315.5C 111.71,316.609 111.21,317.942 111,319.5C 108.508,317.503 105.675,316.503 102.5,316.5C 101.538,309.457 104.538,305.124 111.5,303.5 Z"/></g>
<g><path style="opacity:0.983" fill="#4b3bf6" d="M 265.5,305.5 C 265.833,305.5 266.167,305.5 266.5,305.5C 266.426,307.411 265.426,308.578 263.5,309C 258.627,310.237 253.96,311.737 249.5,313.5C 247.819,315.008 245.819,316.008 243.5,316.5C 240.37,316.7 237.37,317.366 234.5,318.5C 234.5,317.167 234.5,315.833 234.5,314.5C 242.485,312.672 250.318,310.338 258,307.5C 258.333,307.833 258.667,308.167 259,308.5C 261.251,307.588 263.417,306.588 265.5,305.5 Z"/></g>
<g><path style="opacity:1" fill="#4841f5" d="M 262.5,303.5 C 263.71,303.932 264.71,304.599 265.5,305.5C 263.417,306.588 261.251,307.588 259,308.5C 258.667,308.167 258.333,307.833 258,307.5C 250.318,310.338 242.485,312.672 234.5,314.5C 232.648,315.089 230.815,315.756 229,316.5C 228.536,315.906 228.369,315.239 228.5,314.5C 230.996,313.42 233.33,312.086 235.5,310.5C 235.56,311.043 235.893,311.376 236.5,311.5C 245.208,308.595 253.874,305.928 262.5,303.5 Z"/></g>
<g><path style="opacity:0.933" fill="#4f35f8" d="M 266.5,305.5 C 267.167,305.833 267.833,306.167 268.5,306.5C 268.372,308.09 267.705,309.423 266.5,310.5C 264.396,311.519 262.396,312.519 260.5,313.5C 257.426,315.302 254.092,316.302 250.5,316.5C 250.737,315.209 250.404,314.209 249.5,313.5C 253.96,311.737 258.627,310.237 263.5,309C 265.426,308.578 266.426,307.411 266.5,305.5 Z"/></g>
<g><path style="opacity:0.942" fill="#552bfa" d="M 268.5,306.5 C 270.67,308.086 273.004,309.42 275.5,310.5C 273.681,313.655 271.015,315.655 267.5,316.5C 265.046,315.773 262.713,314.773 260.5,313.5C 262.396,312.519 264.396,311.519 266.5,310.5C 267.705,309.423 268.372,308.09 268.5,306.5 Z"/></g>
<g><path style="opacity:0.873" fill="#8b01fe" d="M 400.5,304.5 C 403.667,305.168 406.167,306.834 408,309.5C 408.5,323.163 408.667,336.829 408.5,350.5C 401.562,351.097 398.229,354.763 398.5,361.5C 398.833,345.486 398.499,329.486 397.5,313.5C 396.099,312.479 394.765,311.479 393.5,310.5C 396.132,308.709 398.465,306.709 400.5,304.5 Z"/></g>
<g><path style="opacity:0.93" fill="#5a1efb" d="M 275.5,310.5 C 278.167,312.167 280.833,313.833 283.5,315.5C 280.165,317.17 276.831,318.837 273.5,320.5C 271.118,319.649 269.118,318.316 267.5,316.5C 271.015,315.655 273.681,313.655 275.5,310.5 Z"/></g>
<g><path style="opacity:0.941" fill="#423bf1" d="M 228.5,314.5 C 228.369,315.239 228.536,315.906 229,316.5C 230.815,315.756 232.648,315.089 234.5,314.5C 234.5,315.833 234.5,317.167 234.5,318.5C 232.167,319.167 229.833,319.833 227.5,320.5C 224.586,320.805 221.919,320.805 219.5,320.5C 222.291,318.265 225.291,316.265 228.5,314.5 Z"/></g>
<g><path style="opacity:0.892" fill="#512af7" d="M 260.5,313.5 C 260.5,315.5 260.5,317.5 260.5,319.5C 257.857,322.977 254.524,324.31 250.5,323.5C 250.5,321.167 250.5,318.833 250.5,316.5C 254.092,316.302 257.426,315.302 260.5,313.5 Z"/></g>
<g><path style="opacity:0.922" fill="#6011fc" d="M 283.5,315.5 C 285.996,316.58 288.33,317.914 290.5,319.5C 287.692,321.323 285.025,323.323 282.5,325.5C 279.331,324.083 276.331,322.417 273.5,320.5C 276.831,318.837 280.165,317.17 283.5,315.5 Z"/></g>
<g><path style="opacity:0.986" fill="#4634f3" d="M 243.5,316.5 C 239.005,320.251 234.005,323.251 228.5,325.5C 227.5,325.5 226.5,325.5 225.5,325.5C 226.441,323.95 227.107,322.284 227.5,320.5C 229.833,319.833 232.167,319.167 234.5,318.5C 237.37,317.366 240.37,316.7 243.5,316.5 Z"/></g>
<g><path style="opacity:0.988" fill="#4135ee" d="M 219.5,320.5 C 221.919,320.805 224.586,320.805 227.5,320.5C 227.107,322.284 226.441,323.95 225.5,325.5C 220.036,326.757 214.703,326.757 209.5,325.5C 212.85,323.804 216.183,322.137 219.5,320.5 Z"/></g>
<g><path style="opacity:0.866" fill="#541ef8" d="M 260.5,319.5 C 260.5,322.5 260.5,325.5 260.5,328.5C 257.875,331.487 254.542,333.487 250.5,334.5C 250.5,330.833 250.5,327.167 250.5,323.5C 254.524,324.31 257.857,322.977 260.5,319.5 Z"/></g>
<g><path style="opacity:0.924" fill="#6b02fe" d="M 290.5,319.5 C 296.87,322.679 302.87,326.346 308.5,330.5C 305.527,331.81 303.193,333.81 301.5,336.5C 294.903,333.225 288.57,329.558 282.5,325.5C 285.025,323.323 287.692,321.323 290.5,319.5 Z"/></g>
<g><path style="opacity:1" fill="#3f2eec" d="M 209.5,325.5 C 214.703,326.757 220.036,326.757 225.5,325.5C 226.5,325.5 227.5,325.5 228.5,325.5C 225.76,327.56 222.76,329.226 219.5,330.5C 212.767,332.484 206.1,332.817 199.5,331.5C 202.833,329.5 206.167,327.5 209.5,325.5 Z"/></g>
<g><path style="opacity:0.981" fill="#2611d0" d="M 112.5,315.5 C 112.5,324.167 112.5,332.833 112.5,341.5C 111.842,342.398 111.176,343.398 110.5,344.5C 108.382,343.054 106.049,342.387 103.5,342.5C 103.784,340.585 103.451,338.919 102.5,337.5C 102.5,330.5 102.5,323.5 102.5,316.5C 105.675,316.503 108.508,317.503 111,319.5C 111.21,317.942 111.71,316.609 112.5,315.5 Z"/></g>
<g><path style="opacity:1" fill="#3d27e8" d="M 219.5,330.5 C 215.167,333.669 210.5,336.336 205.5,338.5C 200.547,338.877 195.881,338.211 191.5,336.5C 194.131,334.847 196.797,333.181 199.5,331.5C 206.1,332.817 212.767,332.484 219.5,330.5 Z"/></g>
<g><path style="opacity:0.916" fill="#7700fe" d="M 308.5,330.5 C 315.996,333.745 322.996,337.745 329.5,342.5C 326.226,343.443 323.893,345.443 322.5,348.5C 315.329,344.749 308.329,340.749 301.5,336.5C 303.193,333.81 305.527,331.81 308.5,330.5 Z"/></g>
<g><path style="opacity:0.988" fill="#3a21e4" d="M 191.5,336.5 C 195.881,338.211 200.547,338.877 205.5,338.5C 202.506,341 199.173,343 195.5,344.5C 191.017,344.468 187.017,343.468 183.5,341.5C 185.822,339.336 188.489,337.669 191.5,336.5 Z"/></g>
<g><path style="opacity:0.894" fill="#5a0bf6" d="M 260.5,328.5 C 260.5,336.167 260.5,343.833 260.5,351.5C 258.279,355.286 256.112,359.286 254,363.5C 252.92,369.139 252.087,374.805 251.5,380.5C 251.167,380.5 250.833,380.5 250.5,380.5C 250.5,365.167 250.5,349.833 250.5,334.5C 254.542,333.487 257.875,331.487 260.5,328.5 Z"/></g>
<g><path style="opacity:0.955" fill="#361bdf" d="M 183.5,341.5 C 187.017,343.468 191.017,344.468 195.5,344.5C 192.534,346.988 189.201,348.988 185.5,350.5C 180.381,351.103 175.715,350.436 171.5,348.5C 174.976,345.377 178.976,343.043 183.5,341.5 Z"/></g>
<g><path style="opacity:0.919" fill="#8000ff" d="M 329.5,342.5 C 334.5,344.664 339.167,347.331 343.5,350.5C 340.751,351.974 338.418,353.974 336.5,356.5C 331.5,354.336 326.833,351.669 322.5,348.5C 323.893,345.443 326.226,343.443 329.5,342.5 Z"/></g>
<g><path style="opacity:0.905" fill="#8600ff" d="M 343.5,350.5 C 348.5,352.664 353.167,355.331 357.5,358.5C 356.504,358.414 355.671,358.748 355,359.5C 353.314,361.674 352.148,363.674 351.5,365.5C 346.299,362.737 341.299,359.737 336.5,356.5C 338.418,353.974 340.751,351.974 343.5,350.5 Z"/></g>
<g><path style="opacity:0.916" fill="#9100ff" d="M 408.5,350.5 C 408.966,364.931 408.466,379.264 407,393.5C 389.279,404.061 371.446,414.394 353.5,424.5C 352.624,424.631 351.957,424.298 351.5,423.5C 353.184,420.388 353.85,417.054 353.5,413.5C 366.97,405.93 380.304,398.097 393.5,390C 386.437,385.807 379.437,381.641 372.5,377.5C 374.879,375.499 377.212,373.499 379.5,371.5C 385.852,374.427 392.019,377.76 398,381.5C 398.5,374.842 398.666,368.175 398.5,361.5C 398.229,354.763 401.562,351.097 408.5,350.5 Z"/></g>
<g><path style="opacity:0.907" fill="#6102f5" d="M 260.5,351.5 C 260.168,361.522 260.501,371.522 261.5,381.5C 264.738,383.275 267.738,385.275 270.5,387.5C 269.504,387.414 268.671,387.748 268,388.5C 266.952,390.921 266.786,393.254 267.5,395.5C 263.289,393.963 259.289,391.963 255.5,389.5C 253.925,390.456 252.258,391.123 250.5,391.5C 250.942,387.846 251.276,384.179 251.5,380.5C 252.087,374.805 252.92,369.139 254,363.5C 256.112,359.286 258.279,355.286 260.5,351.5 Z"/></g>
<g><path style="opacity:0.903" fill="#2902cb" d="M 102.5,337.5 C 103.451,338.919 103.784,340.585 103.5,342.5C 106.049,342.387 108.382,343.054 110.5,344.5C 111.176,343.398 111.842,342.398 112.5,341.5C 112.333,354.837 112.5,368.171 113,381.5C 118.314,378.094 123.814,375.094 129.5,372.5C 129.938,372.435 130.272,372.601 130.5,373C 128.081,376.422 126.748,380.256 126.5,384.5C 123.672,386.47 120.672,388.303 117.5,390C 119.196,391.176 120.862,392.343 122.5,393.5C 121.583,396.892 120.583,399.892 119.5,402.5C 113.778,399.555 108.278,396.221 103,392.5C 102.5,374.17 102.333,355.836 102.5,337.5 Z"/></g>
<g><path style="opacity:0.961" fill="#3312d9" d="M 171.5,348.5 C 175.715,350.436 180.381,351.103 185.5,350.5C 177.368,355.737 169.035,360.737 160.5,365.5C 159.909,364.849 159.243,364.182 158.5,363.5C 160.099,360.451 160.766,357.451 160.5,354.5C 163.678,351.742 167.345,349.742 171.5,348.5 Z"/></g>
<g><path style="opacity:0.911" fill="#8c00ff" d="M 357.5,358.5 C 365.171,362.333 372.504,366.666 379.5,371.5C 377.212,373.499 374.879,375.499 372.5,377.5C 365.329,373.749 358.329,369.749 351.5,365.5C 352.148,363.674 353.314,361.674 355,359.5C 355.671,358.748 356.504,358.414 357.5,358.5 Z"/></g>
<g><path style="opacity:0.948" fill="#2e07d2" d="M 160.5,354.5 C 160.766,357.451 160.099,360.451 158.5,363.5C 159.243,364.182 159.909,364.849 160.5,365.5C 149.15,371.861 137.816,378.195 126.5,384.5C 126.748,380.256 128.081,376.422 130.5,373C 130.272,372.601 129.938,372.435 129.5,372.5C 139.334,365.746 149.667,359.746 160.5,354.5 Z"/></g>
<g><path style="opacity:0.951" fill="#5601ee" d="M 250.5,380.5 C 250.833,380.5 251.167,380.5 251.5,380.5C 251.276,384.179 250.942,387.846 250.5,391.5C 245.455,395.195 240.122,398.528 234.5,401.5C 234.167,398.167 233.833,394.833 233.5,391.5C 238.996,387.584 244.663,383.918 250.5,380.5 Z"/></g>
<g><path style="opacity:0.93" fill="#7100fa" d="M 270.5,387.5 C 275.632,389.9 280.632,392.566 285.5,395.5C 283.825,398.245 282.158,400.912 280.5,403.5C 275.628,401.571 271.295,398.905 267.5,395.5C 266.786,393.254 266.952,390.921 268,388.5C 268.671,387.748 269.504,387.414 270.5,387.5 Z"/></g>
<g><path style="opacity:0.937" fill="#2e00cd" d="M 122.5,393.5 C 132.367,398.929 142.033,404.596 151.5,410.5C 148.092,411.578 146.092,413.911 145.5,417.5C 136.798,412.485 128.131,407.485 119.5,402.5C 120.583,399.892 121.583,396.892 122.5,393.5 Z"/></g>
<g><path style="opacity:0.962" fill="#4c01e7" d="M 233.5,391.5 C 233.833,394.833 234.167,398.167 234.5,401.5C 231.45,403.692 228.117,405.358 224.5,406.5C 222.732,403.838 222.065,400.838 222.5,397.5C 225.999,395.25 229.665,393.25 233.5,391.5 Z"/></g>
<g><path style="opacity:0.903" fill="#7900fc" d="M 285.5,395.5 C 288.869,397.515 292.202,399.515 295.5,401.5C 295.19,402.738 294.69,402.738 294,401.5C 292.974,404.239 291.474,406.572 289.5,408.5C 286.331,407.083 283.331,405.417 280.5,403.5C 282.158,400.912 283.825,398.245 285.5,395.5 Z"/></g>
<g><path style="opacity:0.926" fill="#4601e3" d="M 222.5,397.5 C 222.065,400.838 222.732,403.838 224.5,406.5C 221.124,409.194 217.457,411.527 213.5,413.5C 211.273,411.393 209.273,409.06 207.5,406.5C 212.216,403.137 217.216,400.137 222.5,397.5 Z"/></g>
<g><path style="opacity:0.94" fill="#4100de" d="M 207.5,406.5 C 209.273,409.06 211.273,411.393 213.5,413.5C 208.167,416.5 202.833,419.5 197.5,422.5C 197.3,419.37 196.634,416.37 195.5,413.5C 199.164,410.665 203.164,408.332 207.5,406.5 Z"/></g>
<g><path style="opacity:0.922" fill="#8400fd" d="M 295.5,401.5 C 304.701,406.596 313.701,411.93 322.5,417.5C 320.977,420.345 319.977,423.345 319.5,426.5C 309.464,420.485 299.464,414.485 289.5,408.5C 291.474,406.572 292.974,404.239 294,401.5C 294.69,402.738 295.19,402.738 295.5,401.5 Z"/></g>
<g><path style="opacity:0.95" fill="#3400d3" d="M 151.5,410.5 C 159.968,414.901 168.301,419.568 176.5,424.5C 176.018,427.831 177.018,430.497 179.5,432.5C 177.989,434.441 175.989,434.941 173.5,434C 163.939,428.726 154.606,423.226 145.5,417.5C 146.092,413.911 148.092,411.578 151.5,410.5 Z"/></g>
<g><path style="opacity:0.911" fill="#8d00ff" d="M 353.5,413.5 C 353.85,417.054 353.184,420.388 351.5,423.5C 351.957,424.298 352.624,424.631 353.5,424.5C 347.734,428.468 341.567,431.802 335,434.5C 329.631,432.232 324.464,429.565 319.5,426.5C 319.977,423.345 320.977,420.345 322.5,417.5C 326.855,419.429 331.021,421.762 335,424.5C 341.277,420.948 347.444,417.281 353.5,413.5 Z"/></g>
<g><path style="opacity:0.938" fill="#3b00d8" d="M 195.5,413.5 C 196.634,416.37 197.3,419.37 197.5,422.5C 191.83,426.337 185.83,429.67 179.5,432.5C 177.018,430.497 176.018,427.831 176.5,424.5C 182.334,420.079 188.668,416.412 195.5,413.5 Z"/></g>
</svg>
