<svg xmlns="http://www.w3.org/2000/svg" xmlns:xlink="http://www.w3.org/1999/xlink" width="64" height="64" viewBox="0 0 64 64"><defs><clipPath id="a"><path d="M0,135H41.885v41.3H0Zm0,0" transform="translate(0 -135)"/></clipPath></defs><g transform="translate(-825 -1851)"><circle cx="32" cy="32" r="32" transform="translate(825 1851)" fill="#17773a"/><g transform="translate(836.058 1864.352)"><g clip-path="url(#a)"><path d="M32.5,169.8a29.85,29.85,0,0,0,9.381-22.266,45.606,45.606,0,0,0-1.75-11.7,15,15,0,0,1-9.689,3.92c-5.4.037-9.5-3.92-9.5-3.92s-4.1,3.957-9.5,3.92a15,15,0,0,1-9.689-3.92,45.605,45.605,0,0,0-1.75,11.7A29.849,29.849,0,0,0,9.373,169.8a38.1,38.1,0,0,0,11.562,7.268A38.1,38.1,0,0,0,32.5,169.8" transform="translate(0.008 -135.775)" fill="#231f20"/></g><path d="M51.944,186.117v9.934a4.121,4.121,0,0,1-.351-.295,4.808,4.808,0,0,1-1.368-2.663,9.61,9.61,0,0,1-.019-2.311c.074-.314.407-.259.758-.037s.518.055.758-.185.148-.277-.019-.425a.324.324,0,0,1,.074-.5c.148-.074.074-.185-.092-.259s-.185-.166-.185-.333-.037-.3-.222-.314-.425-.111-.407-.314.037-.425-.333-.444-.7-.019-.7-.019.025-.715-.444-.74-1.306.074-1.578.468a2.248,2.248,0,0,0-.1,1.288,1.468,1.468,0,0,0-1.152-.08.659.659,0,0,1,.2.469,1.076,1.076,0,0,1-.635.332s.352.185.684.389.314.333-.185.555a1.788,1.788,0,0,0-1.129,1.146c-.148.592-.022.8.37.777a2.634,2.634,0,0,0,1.109-.333,8.772,8.772,0,0,0-1.461,1.756,3.381,3.381,0,0,0-.61,2.884c.277.814,1.239,1.516,2.274,2.256a3.61,3.61,0,0,1,1.849,3.31,6.152,6.152,0,0,1-.7,3.069,3.193,3.193,0,0,1-1.553.85c-.518.166-.869.3-.869.647s.166.37.592.37a1.807,1.807,0,0,0,1.091-.259c.259-.2.425-.314.666-.148a.688.688,0,0,0,.684.13c.222-.092.388-.277.351-.462a1.838,1.838,0,0,0-.37-.536s.314.129.425-.056a.55.55,0,0,0,0-.536.929.929,0,0,1-.037-.425,1.553,1.553,0,0,0,.943-.814c.388-.7.592-1.331.721-1.553.108-.185.449-.423.98-.138v11.2a35.485,35.485,0,0,1-9.776-6.34,27.006,27.006,0,0,1-6.788-10.128,29.917,29.917,0,0,1-1.79-10.283c0-.058,0-.116,0-.174a38.148,38.148,0,0,1,.787-7.184,16.847,16.847,0,0,0,8.046,2.186,16.842,16.842,0,0,0,9.522-3.211v6.916H51.3v-2.479h-.632V186.1h1.271v.012" transform="translate(-31.001 -175.279)" fill="#2c9d55"/><path d="M31.124,150.475a15.553,15.553,0,0,0,9.509,3.643,15.635,15.635,0,0,0,9.21-3.256,43.777,43.777,0,0,1,1.374,9.994q0,.092,0,.184a31.644,31.644,0,0,1-1.9,10.879A28.731,28.731,0,0,1,42.1,182.7h0a37.557,37.557,0,0,1-10.975,6.969A37.553,37.553,0,0,1,20.149,182.7a28.726,28.726,0,0,1-7.217-10.778,31.644,31.644,0,0,1-1.9-10.879q0-.092,0-.184a43.778,43.778,0,0,1,1.374-9.994,15.636,15.636,0,0,0,9.209,3.256,15.554,15.554,0,0,0,9.51-3.643M21.608,155a16.268,16.268,0,0,1-8.639-2.671,40.957,40.957,0,0,0-1.05,8.521c0,.06,0,.119,0,.179a30.767,30.767,0,0,0,1.844,10.574,27.85,27.85,0,0,0,7,10.447A36.537,36.537,0,0,0,31.124,188.7a36.549,36.549,0,0,0,10.363-6.651,27.843,27.843,0,0,0,7-10.447,30.757,30.757,0,0,0,1.844-10.574q0-.089,0-.179a40.94,40.94,0,0,0-1.05-8.521,16.272,16.272,0,0,1-8.64,2.672,16.208,16.208,0,0,1-9.515-3.406,16.21,16.21,0,0,1-9.516,3.406" transform="translate(-10.181 -149.283)" fill="#fff"/><path d="M188.727,305.744c.234.281.148.444.037.7a.717.717,0,0,0,.37.832c.314.148.573.074.684.2s-.277.389-.555.666-.018.573.111.777.333.37.166.518a.444.444,0,0,1-.555.018c-.185-.111-.333-.314-.518-.3s-.259.388-.592.536a2.769,2.769,0,0,1-1.22.185c-.222-.056-.481-.24-.333-.462a1.172,1.172,0,0,1,.924-.536c.444,0,.727-.007.832-.3a1.48,1.48,0,0,0-.074-1.257,13.3,13.3,0,0,0-1.757-1.868c-.721-.61-1.183-.314-1.313-.092s-.333.85-.721,1.553a1.555,1.555,0,0,1-.943.814.931.931,0,0,0,.037.425.55.55,0,0,1,0,.536c-.111.185-.425.056-.425.056a1.836,1.836,0,0,1,.37.536c.037.185-.129.37-.351.462a.688.688,0,0,1-.684-.13c-.24-.166-.407-.055-.666.148a1.807,1.807,0,0,1-1.091.259c-.425,0-.592-.018-.592-.37s.352-.481.869-.647a3.2,3.2,0,0,0,1.553-.85,6.149,6.149,0,0,0,.7-3.069,3.61,3.61,0,0,0-1.849-3.31c-1.036-.739-2-1.442-2.274-2.255a3.382,3.382,0,0,1,.61-2.884,8.782,8.782,0,0,1,1.461-1.757,2.633,2.633,0,0,1-1.109.333c-.392.023-.518-.185-.37-.777a1.786,1.786,0,0,1,1.128-1.146c.5-.222.518-.351.185-.555s-.684-.389-.684-.389a1.076,1.076,0,0,0,.635-.332.659.659,0,0,0-.2-.469,1.469,1.469,0,0,1,1.152.08,2.251,2.251,0,0,1,.1-1.288c.271-.394,1.109-.493,1.578-.468s.444.74.444.74.333,0,.7.019.351.24.333.444.222.3.407.314.222.148.222.314.019.259.185.333.24.185.092.259a.324.324,0,0,0-.074.5c.166.148.259.185.019.425s-.407.407-.758.185-.684-.277-.758.037a9.6,9.6,0,0,0,.019,2.311,4.808,4.808,0,0,0,1.368,2.663,4.467,4.467,0,0,0,2.847,1.165,12.786,12.786,0,0,1,1.794-3.07c1.054-1.221,3.365-2.422,5.1-1.165s2.052,3.938,1.646,5.676a5.584,5.584,0,0,1-1.257,2.755,8.039,8.039,0,0,0,.092-1.941,2.506,2.506,0,0,0-.629-1.738,5.751,5.751,0,0,1-.185,3.162,3.474,3.474,0,0,1-1.534,1.757,6.417,6.417,0,0,0,.055-2.626,2.323,2.323,0,0,0-.813-1.423,5.308,5.308,0,0,1-.037,3.014,2.83,2.83,0,0,1-1.646,1.7,3.621,3.621,0,0,0-.055-1.461,1.4,1.4,0,0,0-1.516-.832,1.12,1.12,0,0,0-1.109,1.294,1.444,1.444,0,0,0,.407,1.054" transform="translate(-164.974 -277.945)" fill="#fff"/><path d="M52.32,236.23h1.336c1.02,0,1.231.868,1.231,1.442,0,.649-.257,1.585-1.256,1.585H52.32V236.23m.62,2.5h.615c.514,0,.687-.518.687-1.016,0-.894-.426-.965-.7-.965H52.94v1.981" transform="translate(-48.289 -228.431)" fill="#fff"/><path d="M101.82,236.765h-1.606v.637h1.475v.536h-1.475v.784h1.678v.535h-2.3V236.23h2.226v.535" transform="translate(-91.921 -228.431)" fill="#fff"/><path d="M145.357,236.23h.59v3.027h-.632L144.08,237.1h-.008v2.159h-.59V236.23h.666l1.2,2.108h.008V236.23" transform="translate(-132.427 -228.431)" fill="#fff"/><path d="M191.116,228.181h-.632v-3.027h.632v3.027m-.063-3.427h-.506v-.525h.506v.525" transform="translate(-175.809 -217.356)" fill="#fff"/><path d="M296.456,228.181h-.632v-3.027h.632v3.027m-.063-3.427h-.506v-.525h.506v.525" transform="translate(-273.034 -217.356)" fill="#fff"/><path d="M213.7,239.257h-2.365v-.535l1.564-1.956h-1.522v-.535h2.315v.5l-1.585,1.994H213.7v.535" transform="translate(-195.05 -228.431)" fill="#fff"/><path d="M318.094,237.367c0,.169.089.489.641.489.3,0,.632-.072.632-.392,0-.236-.228-.3-.548-.375l-.325-.076c-.489-.114-.961-.223-.961-.889,0-.337.181-.932,1.164-.932.927,0,1.176.607,1.18.978h-.607c-.017-.135-.067-.455-.62-.455-.24,0-.527.088-.527.363,0,.236.194.287.32.316l.738.181c.413.1.793.27.793.813,0,.911-.927.991-1.193.991-1.1,0-1.294-.636-1.294-1.012h.607" transform="translate(-293.028 -227.473)" fill="#fff"/><path d="M364.413,239.257h-.632V236.23h1.383a.885.885,0,0,1,.94.97.928.928,0,0,1-.965.965h-.725v1.092m.586-1.615c.472,0,.472-.337.472-.472,0-.3-.164-.417-.556-.417h-.5v.89H365" transform="translate(-335.755 -228.431)" fill="#fff"/><path d="M407.754,235.191a1.6,1.6,0,1,1-1.454,1.594,1.412,1.412,0,0,1,1.454-1.594m0,2.652c.342,0,.822-.211.822-1.058s-.481-1.058-.822-1.058-.822.211-.822,1.058.481,1.058.822,1.058" transform="translate(-374.999 -227.472)" fill="#fff"/><path d="M458.391,236.23h1.53a.853.853,0,0,1,.953.856.723.723,0,0,1-.468.721c.249.11.384.2.384.767,0,.443,0,.552.135.6v.08h-.7a2.017,2.017,0,0,1-.067-.611c0-.413-.025-.573-.493-.573h-.653v1.185h-.62V236.23m1.362,1.332c.329,0,.489-.114.489-.413,0-.16-.072-.4-.443-.4h-.788v.81h.742" transform="translate(-423.077 -228.431)" fill="#fff"/><path d="M299.808,566.521a.778.778,0,0,0-.308.561.8.8,0,0,1,.616-.191.812.812,0,0,1,.7,1.054.863.863,0,0,1-.826.758.93.93,0,0,1-1.042-.881,1.571,1.571,0,0,1,.542-1.59,1.656,1.656,0,0,1,.937-.308l.142.394a1.181,1.181,0,0,0-.758.2m-.339.941a.915.915,0,0,0,.111.615.378.378,0,0,0,.666.006.593.593,0,0,0-.1-.7.57.57,0,0,0-.678.079" transform="translate(-275.889 -532.725)" fill="#fff"/><path d="M273.36,566.521a.778.778,0,0,0-.308.561.8.8,0,0,1,.616-.191.812.812,0,0,1,.7,1.054.863.863,0,0,1-.826.758.929.929,0,0,1-1.042-.881,1.572,1.572,0,0,1,.542-1.59,1.656,1.656,0,0,1,.937-.308l.142.394a1.181,1.181,0,0,0-.758.2m-.339.941a.914.914,0,0,0,.111.615.378.378,0,0,0,.666.006.593.593,0,0,0-.1-.7.57.57,0,0,0-.678.079" transform="translate(-251.479 -532.725)" fill="#fff"/><path d="M246.168,568.031a.7.7,0,0,0,.3-.53.8.8,0,0,1-.616.191.824.824,0,0,1-.7-1.072.852.852,0,0,1,.827-.74.943.943,0,0,1,1.042.881,1.572,1.572,0,0,1-.542,1.59,1.826,1.826,0,0,1-1.025.3l-.054-.388a1.337,1.337,0,0,0,.769-.234m.328-.91a.913.913,0,0,0-.111-.615.378.378,0,0,0-.666-.006.594.594,0,0,0,.1.7.57.57,0,0,0,.678-.079" transform="translate(-226.243 -532.682)" fill="#fff"/><path d="M223.719,566.747v1.744a1.643,1.643,0,0,1-.042.284h.614a1.07,1.07,0,0,1-.042-.277v-2.416h-.271a1.441,1.441,0,0,1-.7.326v.284a1.652,1.652,0,0,1,.438.055" transform="translate(-206.079 -532.872)" fill="#fff"/><path d="M255.96,238.709h1.5v.548h-2.137V236.23h.632v2.479" transform="translate(-235.658 -228.431)" fill="#fff"/></g></g></svg>