<svg width="100" height="100" viewBox="0 0 100 100" fill="none" xmlns="http://www.w3.org/2000/svg">
<g clip-path="url(#clip0_1124_15787)">
<path d="M50 100C77.6142 100 100 77.6142 100 50C100 22.3858 77.6142 0 50 0C22.3858 0 0 22.3858 0 50C0 77.6142 22.3858 100 50 100Z" fill="#003087"/>
<path d="M50 2.53333C76.1714 2.53333 97.4667 23.8286 97.4667 50C97.4667 76.1714 76.1714 97.4667 50 97.4667C23.8286 97.4667 2.53333 76.1714 2.53333 50C2.53333 23.8286 23.8286 2.53333 50 2.53333ZM50 0C22.3857 0 0 22.3857 0 50C0 77.6143 22.3857 100 50 100C77.6143 100 100 77.6143 100 50C100 22.3857 77.6143 0 50 0Z" fill="white"/>
<path d="M50.0001 77.9524C45.6906 75.8429 41.2382 72.5619 37.7096 68.7857C34.5144 65.3714 32.0239 61.4095 30.6287 56.6905C30.0382 54.7 29.6525 52.581 29.5096 50.3333C31.1763 49.3905 34.9477 47.481 36.3001 44.1048H38.7096C37.862 43.6381 35.4906 40.9143 35.543 37.5619C35.6144 33.2857 38.1287 31.9667 38.0858 28.4381C38.0715 27.2619 37.9001 25.8762 37.0954 24.1952C38.8096 25.0048 39.943 25.7048 42.4382 25.7095C45.3906 25.7191 46.2763 24.5476 50.0096 24.4857C53.743 24.5476 54.6239 25.7191 57.5811 25.7095C60.0763 25.7048 61.2096 25.0048 62.9192 24.1952C62.1144 25.8762 61.9477 27.2619 61.9287 28.4381C61.8858 31.9667 64.4001 33.2857 64.4715 37.5619C64.5287 40.9143 62.1573 43.6381 61.3049 44.1095H63.7144C65.0668 47.4857 68.8382 49.3952 70.5049 50.3381C70.3573 52.5857 69.9763 54.7048 69.3858 56.6952C67.9906 61.4143 65.4954 65.3762 62.3001 68.7905C58.7668 72.5667 54.3239 75.8476 50.0096 77.9572" fill="#003087"/>
<path d="M50.0001 78.8333L49.6525 78.6619C45.2096 76.4857 40.6477 73.081 37.1287 69.3238C33.5953 65.5429 31.2191 61.4857 29.862 56.9095C29.2429 54.819 28.8572 52.6191 28.7144 50.3762L28.681 49.881L29.1144 49.6381C29.2334 49.5714 29.3572 49.5 29.4953 49.4238C31.2096 48.4667 34.4048 46.6857 35.5572 43.8048L35.7572 43.3095H36.781C35.7525 41.9667 34.7001 39.8905 34.7429 37.5476C34.781 35.1619 35.5334 33.6143 36.2001 32.2429C36.7953 31.019 37.3048 29.9619 37.2858 28.4429C37.2715 27.481 37.1572 26.1714 36.3763 24.5333L35.4096 22.5191L37.4286 23.4762C37.6239 23.5667 37.8096 23.6571 37.9906 23.7429C39.3906 24.4191 40.4001 24.9095 42.4334 24.9143H42.4667C43.7572 24.9143 44.6001 24.6762 45.581 24.3952C46.6906 24.081 47.9429 23.7238 49.9906 23.6905H50.0144C52.062 23.7238 53.3191 24.081 54.4239 24.3952C55.4048 24.6714 56.2525 24.9143 57.5382 24.9143H57.5715C59.6096 24.9095 60.6191 24.4191 62.0144 23.7429C62.1953 23.6571 62.381 23.5667 62.5715 23.4762L64.5906 22.5191L63.6239 24.5333C62.8382 26.1714 62.7239 27.481 62.7144 28.4429C62.6953 29.9619 63.2048 31.019 63.8001 32.2429C64.462 33.6095 65.2144 35.1619 65.2572 37.5476C65.2953 39.8952 64.2525 41.9714 63.2191 43.3143H64.2429L64.4429 43.8095C65.5953 46.6905 68.7953 48.4762 70.5144 49.4333C70.6477 49.5095 70.7763 49.5762 70.8906 49.6429L71.3239 49.8857L71.2906 50.381C71.1429 52.6191 70.7572 54.819 70.1382 56.9143C68.7858 61.4905 66.4096 65.5476 62.8715 69.3286C59.3525 73.0905 54.7906 76.4952 50.3525 78.6667L50.0048 78.8381L50.0001 78.8333Z" fill="white"/>
<path d="M50.0001 77.9524C45.6906 75.8429 41.2382 72.5619 37.7096 68.7857C34.5144 65.3714 32.0239 61.4095 30.6287 56.6905C30.0382 54.7 29.6525 52.581 29.5096 50.3333C31.1763 49.3905 34.9477 47.481 36.3001 44.1048H38.7096C37.862 43.6381 35.4906 40.9143 35.543 37.5619C35.6144 33.2857 38.1287 31.9667 38.0858 28.4381C38.0715 27.2619 37.9001 25.8762 37.0954 24.1952C38.8096 25.0048 39.943 25.7048 42.4382 25.7095C45.3906 25.7191 46.2763 24.5476 50.0096 24.4857C53.743 24.5476 54.6239 25.7191 57.5811 25.7095C60.0763 25.7048 61.2096 25.0048 62.9192 24.1952C62.1144 25.8762 61.9477 27.2619 61.9287 28.4381C61.8858 31.9667 64.4001 33.2857 64.4715 37.5619C64.5287 40.9143 62.1573 43.6381 61.3049 44.1095H63.7144C65.0668 47.4857 68.8382 49.3952 70.5049 50.3381C70.3573 52.5857 69.9763 54.7048 69.3858 56.6952C67.9906 61.4143 65.4954 65.3762 62.3001 68.7905C58.7668 72.5667 54.3239 75.8476 50.0096 77.9572" fill="#003087"/>
<path d="M50.0001 76.8C44.3239 73.7524 38.7572 69.3667 35.0477 63.7333C32.5906 60.0048 30.9525 55.7238 30.6429 50.9238C32.1906 50.0286 35.5001 48.3191 36.9429 45.0905H38.9048L39.6763 44.4143V43.5667C38.8096 43.0952 36.5287 40.5905 36.581 37.4048C36.6382 33.9476 39.1334 32.2143 39.1191 28.5C39.1191 28.0714 39.1049 27.0143 38.881 26.1381C40.0715 26.6095 41.481 26.7571 42.5763 26.7571C45.2144 26.7571 47.3906 25.5429 50.0001 25.5238C52.6096 25.5381 54.7906 26.7571 57.4239 26.7571C58.5191 26.7571 59.9287 26.6095 61.1191 26.1381C60.8953 27.019 60.881 28.0762 60.8763 28.5048C60.8668 32.2191 63.362 33.9524 63.4191 37.4095C63.4715 40.5952 61.1906 43.1 60.3287 43.5714L60.3191 44.4191L61.0906 45.0905H63.0525C64.4953 48.3238 67.8096 50.0381 69.3572 50.9286C69.0477 55.7286 67.4096 60.0095 64.9525 63.7381C61.2429 69.3714 55.6763 73.7571 50.0001 76.8Z" fill="white"/>
<path d="M50.0001 75.1095C44.862 72.4381 39.6001 68.119 36.1144 62.6952C33.9858 59.3857 32.5144 55.6619 32.1334 51.6476C33.062 51.1381 35.6953 49.8048 37.5334 46.9095L50.0001 49.7429L62.4668 46.9048C64.3048 49.8 66.9382 51.1333 67.8715 51.6429C66.862 62.2381 58.2715 70.8048 50.0001 75.1048" fill="#003087"/>
<path d="M46.5382 70L41.9239 65.4857V54.7571H40.0715V51.1524H48.7572V54.7571H47.0668V63.8524C47.062 65.1524 47.8382 65.9143 49.1906 65.9H50.8001C52.1477 65.9095 52.9287 65.1524 52.9287 63.8524V54.7524H51.2334V51.1429H59.9192V54.7524H58.062V65.481L53.4525 69.9952H46.5334L46.5382 70Z" fill="white"/>
<path d="M50.0001 32.0333C46.8667 29.8143 44.4286 29.0714 42.2572 28.7857C43.9905 27.5762 47.2286 26.3143 50.0001 26.4476C52.7762 26.3143 56.0143 27.5762 57.7429 28.7857C55.5715 29.0667 53.1334 29.8143 50.0001 32.0333Z" fill="#EF3340"/>
<path d="M50 46.7333L44.8762 45.5714C45.7286 45.0381 47.3905 42.7429 47.2715 40.3714C46.0715 41.2333 44.5619 41.7476 43.0905 41.7524C40.6334 41.7667 38.3762 40.4333 38.3762 37.2429C38.3762 34.4333 40.6715 33.7143 40.6191 31.2952C40.6096 30.9 40.5429 30.4571 40.381 29.9524C44.8524 29.8381 47.8572 32.0619 49.9953 34.3714C52.1381 32.0619 55.1381 29.8381 59.6096 29.9524C59.4524 30.4571 59.381 30.9 59.3715 31.2952C59.3191 33.7143 61.6191 34.4333 61.6143 37.2429C61.6143 40.4333 59.3572 41.7667 56.9 41.7524C55.4286 41.7476 53.9191 41.2333 52.7191 40.3714C52.6 42.7429 54.2572 45.0333 55.1143 45.5714L49.9905 46.7333H50Z" fill="#EF3340"/>
<path d="M44.1667 33.6429C45.8144 33.6429 47.1667 34.9524 47.1667 36.5619C47.1667 38.1714 45.8191 39.4762 44.1667 39.4762C42.5144 39.4762 41.1715 38.1667 41.1715 36.5619C41.1715 34.9571 42.5191 33.6429 44.1667 33.6429Z" fill="white"/>
<path d="M55.8286 33.6429C54.181 33.6429 52.8334 34.9524 52.8334 36.5619C52.8334 38.1714 54.181 39.4762 55.8286 39.4762C57.4762 39.4762 58.8239 38.1667 58.8239 36.5619C58.8239 34.9571 57.4762 33.6429 55.8286 33.6429Z" fill="white"/>
<path d="M50.0001 47.3952L39.9858 45.1143L39.3334 45.7238H38.4287L38.062 46.281L50.0001 48.9952L61.9382 46.2762L61.5668 45.7238H60.662L60.0144 45.1143L50.0001 47.3952Z" fill="#EF3340"/>
<path d="M30.7095 11.3381L31.1143 12.0714L28.9 13.2952L29.2476 13.9286L31.2143 12.8429L31.6143 13.5714L29.6476 14.6572L30.1333 15.5333L29.2714 16.0095L27.6333 13.0429L30.7095 11.3429V11.3381Z" fill="white"/>
<path d="M36.2999 12.6238L35.7618 12.1524L33.8285 12.9381L33.7714 13.6524L32.7904 14.0524L33.1333 10.2571L34.3904 9.74762L37.2809 12.2286L36.3047 12.6238H36.2999ZM33.8952 12.1143L35.1333 11.6095L34.0142 10.6333L33.8952 12.1143Z" fill="white"/>
<path d="M41.3476 10.1762L40.7619 7.81906L41.7095 7.58572L42.5238 10.8762L41.1286 11.2238L38.6048 9.34763L39.1905 11.7048L38.2381 11.9429L37.4238 8.65239L38.8238 8.30477L41.3476 10.181V10.1762Z" fill="white"/>
<path d="M46.119 6.96191L50.2 6.79524L50.2333 7.62858L48.6857 7.69048L48.7904 10.2429L47.8095 10.281L47.7047 7.72858L46.1524 7.79048L46.119 6.95715V6.96191Z" fill="white"/>
<path d="M51.3905 8.49525C51.4857 7.3762 52.3143 6.78096 53.7381 6.90477C55.1572 7.02858 55.8762 7.75715 55.781 8.87144C55.6857 9.99049 54.8524 10.5952 53.4334 10.4714C52.0096 10.3476 51.2953 9.61906 51.3905 8.49525ZM54.7572 8.78572C54.8096 8.20001 54.5048 7.80953 53.6667 7.73811C52.8334 7.66668 52.4667 7.99049 52.4191 8.58572C52.3667 9.18096 52.6762 9.57144 53.5048 9.64287C54.3381 9.7143 54.7096 9.38096 54.7619 8.79049L54.7572 8.78572Z" fill="white"/>
<path d="M61.6095 8.36191L59.6142 9.37619L60.8618 11.6714L59.6571 11.4L58.7904 9.8L57.8428 10.281L57.6904 10.9524L56.7333 10.7333L57.4809 7.42381L58.4428 7.6381L58.1095 9.12381L60.1761 8.03334L61.6142 8.35715L61.6095 8.36191Z" fill="white"/>
<path d="M66.3285 9.99524L66.0666 10.7191L63.6856 9.85715L63.4999 10.3667L65.7904 11.1952L65.5285 11.9191L63.238 11.0905L63.0523 11.6L65.4332 12.4619L65.1713 13.1857L61.8666 11.9905L63.019 8.8L66.3237 9.99524H66.3285Z" fill="white"/>
<path d="M69.7618 14.3524L70.8761 12.1905L71.7476 12.6381L70.1904 15.6524L68.9095 14.9905L68.2476 11.9095L67.1333 14.0714L66.2571 13.6191L67.8142 10.6048L69.0999 11.2667L69.7618 14.3476V14.3524Z" fill="white"/>
<path d="M27.3953 85.4762C27.2476 85.719 27.3953 86.0238 28.1572 86.4857C28.8572 86.9048 29.0953 86.9 29.2048 86.719C29.3334 86.5095 29.2238 86.3905 28.3953 85.8143C27.2667 85.0238 26.8905 84.4762 27.2762 83.8333C27.6429 83.2286 28.4619 83.3476 29.4667 83.9524C30.5857 84.6238 31.0238 85.3524 30.6619 86.0143L29.781 85.4857C29.9334 85.2286 29.7143 84.9619 29.0619 84.5714C28.4429 84.2 28.2429 84.219 28.1476 84.3762C28.0381 84.5571 28.1476 84.6952 28.8953 85.2333C29.9143 85.9571 30.5619 86.4476 30.1048 87.2095C29.6572 87.9524 28.8381 87.7571 27.8048 87.1333C26.6286 86.4238 26.0905 85.7381 26.5096 84.9476L27.3905 85.4809L27.3953 85.4762Z" fill="white"/>
<path d="M31.5238 87.1905C31.9714 86.1571 32.9428 85.8619 34.2571 86.4286C35.5667 86.9952 36.0143 87.9143 35.5714 88.9429C35.1238 89.9762 34.1428 90.281 32.8333 89.7143C31.519 89.1476 31.0762 88.2286 31.5238 87.1905ZM34.6286 88.5381C34.8619 87.9952 34.6952 87.5333 33.9238 87.1952C33.1571 86.8619 32.7047 87.0571 32.4714 87.6C32.2333 88.1476 32.4047 88.6143 33.1667 88.9476C33.9333 89.281 34.3952 89.081 34.6286 88.5333V88.5381Z" fill="white"/>
<path d="M39.3047 88.219C40.5047 88.5571 41.0428 89.2619 40.9047 90.1286L39.9 89.8476C39.919 89.5286 39.6857 89.1905 39.0809 89.0238C38.3809 88.8286 37.9476 89.0762 37.7857 89.6476C37.6238 90.2238 37.8714 90.6667 38.5666 90.8619C39.1714 91.0286 39.5476 90.8619 39.6952 90.5714L40.7 90.8524C40.3666 91.6714 39.5428 92 38.3381 91.6667C37.0285 91.3 36.4809 90.4905 36.7905 89.3714C37.1047 88.2571 37.9905 87.8524 39.3 88.219H39.3047Z" fill="white"/>
<path d="M43.3953 89.2286L42.7953 92.5619L41.8286 92.3857L42.4286 89.0524L43.3953 89.2286Z" fill="white"/>
<path d="M44.419 91.1476C44.5095 90.0286 45.3333 89.4333 46.7571 89.5476C48.1762 89.6619 48.9 90.3905 48.8047 91.5048C48.7143 92.6238 47.8857 93.2286 46.4619 93.1143C45.0381 93 44.319 92.2714 44.4143 91.1476H44.419ZM47.7857 91.4238C47.8333 90.8381 47.5285 90.4524 46.6905 90.381C45.8571 90.3143 45.4952 90.6429 45.4428 91.2333C45.3952 91.8286 45.7047 92.2143 46.5333 92.2857C47.3666 92.3524 47.7381 92.019 47.7857 91.4238Z" fill="white"/>
<path d="M51.119 92.0476C51.1333 92.3333 51.4238 92.5048 52.3143 92.4571C53.1286 92.4143 53.3238 92.2762 53.3095 92.0619C53.2952 91.8143 53.1428 91.781 52.1333 91.7667C50.7571 91.7429 50.1333 91.5 50.0952 90.7476C50.0571 90.0429 50.8047 89.681 51.9762 89.6238C53.2809 89.5571 54.0524 89.9095 54.119 90.6619L53.0952 90.7143C53.0809 90.4143 52.7476 90.3191 51.9857 90.3571C51.2666 90.3952 51.1095 90.5238 51.119 90.7048C51.1285 90.9143 51.2952 90.9714 52.219 91C53.4666 91.0286 54.2809 91.0714 54.3285 91.9619C54.3714 92.8286 53.5857 93.1238 52.3809 93.1857C51.0095 93.2571 50.1762 92.9857 50.0857 92.0952L51.1143 92.0429L51.119 92.0476Z" fill="white"/>
<path d="M55.7429 92.0429L56.681 91.9048L56.7858 92.6333L55.8477 92.7714L55.7382 92.0429H55.7429Z" fill="white"/>
<path d="M59.4809 88.5381C60.6952 88.2429 61.5095 88.5952 61.8143 89.419L60.8 89.6667C60.6619 89.3762 60.2905 89.2 59.6809 89.3476C58.9762 89.5191 58.719 89.9476 58.8571 90.5286C59 91.1095 59.4333 91.3762 60.1333 91.2048C60.7428 91.0571 60.9905 90.7238 60.9762 90.3952L61.9905 90.1476C62.1 91.0238 61.5428 91.719 60.3286 92.0143C59.0047 92.3381 58.1286 91.9 57.8524 90.7714C57.5762 89.6476 58.1524 88.8619 59.4762 88.5381H59.4809Z" fill="white"/>
<path d="M63.1524 89.3952C62.7382 88.3476 63.2191 87.4476 64.5477 86.9238C65.8715 86.4 66.8429 86.7333 67.2524 87.7762C67.6667 88.8238 67.1858 89.7333 65.862 90.2571C64.5334 90.7809 63.5667 90.4476 63.1524 89.3952ZM66.3001 88.1524C66.0858 87.6048 65.6382 87.3905 64.8572 87.7C64.081 88.0048 63.8953 88.4619 64.1143 89.0143C64.3334 89.5714 64.7858 89.7809 65.5572 89.4762C66.3334 89.1714 66.5191 88.7048 66.3001 88.1524Z" fill="white"/>
<path d="M69.3381 88.6905L67.6333 85.7571L68.9571 84.9857L71.1095 86.3381L70.9952 83.8L72.319 83.0286L74.0238 85.9619L73.1762 86.4524L71.9428 84.3286L72.0762 87.0952L71.2904 87.5524L68.9524 86.0714L70.1904 88.1952L69.3381 88.6905Z" fill="white"/>
<path d="M23.0191 81.8381C13.9953 74.181 8.26672 62.7571 8.26672 50C8.26672 37.2429 14.3001 25.2143 23.7382 17.5619" stroke="#EF3340" stroke-miterlimit="10"/>
<path d="M76.2667 17.5667C85.7048 25.219 91.7334 36.9048 91.7334 50C91.7334 63.0952 86.0048 74.1857 76.981 81.8429" stroke="#EF3340" stroke-miterlimit="10"/>
</g>
<defs>
<clipPath id="clip0_1124_15787">
<rect width="100" height="100" fill="white"/>
</clipPath>
</defs>
</svg>
