<?xml version="1.0" encoding="UTF-8"?>
<svg id="Layer_2" data-name="Layer 2" xmlns="http://www.w3.org/2000/svg" viewBox="0 0 500 500">
  <defs>
    <style>
      .cls-1 {
        fill: #00685f;
      }

      .cls-2 {
        fill: #fff;
      }

      .cls-3 {
        fill: #004e47;
      }
    </style>
  </defs>
  <g id="Layer_1-2" data-name="Layer 1">
    <g>
      <circle class="cls-1" cx="250" cy="250" r="250"/>
      <g>
        <path class="cls-3" d="M413.87,73.93c-2.33-2.17-7.1-1.05-10.59,2.43l-146.97,146.97c-3.48,3.49-9.15,3.49-12.63,0L96.71,76.36c-3.49-3.48-8.26-4.61-10.59-2.43-2.34,2.17-1.34,6.8,2.14,10.3l155.42,155.41c3.48,3.49,9.15,3.49,12.63,0l155.42-155.41c3.48-3.49,4.48-8.13,2.14-10.3h0Z"/>
        <path class="cls-3" d="M400.88,62.67c-2.25-1.81-6.92-.41-10.42,3.09l-134.15,134.15c-3.48,3.49-9.15,3.49-12.63,0L109.53,65.76c-3.49-3.49-8.17-4.9-10.42-3.09-2.24,1.8-1.19,6.14,2.3,9.64l142.27,142.27c3.48,3.49,9.15,3.49,12.63,0l142.28-142.27c3.48-3.49,4.54-7.83,2.29-9.64h0Z"/>
        <path class="cls-3" d="M387.02,52.29c-2.13-1.47-6.7.2-10.19,3.69l-120.52,120.51c-3.48,3.49-9.15,3.49-12.63,0L123.16,55.97c-3.49-3.49-8.07-5.16-10.19-3.69-2.13,1.48-.99,5.54,2.49,9.03l128.21,128.21c3.48,3.49,9.15,3.49,12.63,0L384.53,61.32c3.49-3.49,4.62-7.56,2.49-9.03h0Z"/>
        <path class="cls-3" d="M372.25,42.81c-1.98-1.17-6.43.74-9.92,4.24l-106.02,106.01c-3.48,3.49-9.15,3.49-12.63,0l-106.02-106.01c-3.49-3.49-7.94-5.41-9.92-4.24-1.98,1.17-.74,4.99,2.75,8.47l113.19,113.19c3.48,3.48,9.15,3.48,12.63,0l113.19-113.19c3.49-3.48,4.73-7.3,2.75-8.47h0Z"/>
        <path class="cls-3" d="M356.54,34.28c-1.81-.89-6.12,1.24-9.61,4.73l-90.63,90.62c-3.48,3.49-9.15,3.49-12.63,0l-90.63-90.62c-3.48-3.49-7.8-5.62-9.61-4.73-1.81.89-.43,4.48,3.06,7.96l97.17,97.17c3.48,3.48,9.15,3.48,12.63,0l97.17-97.17c3.48-3.48,4.87-7.07,3.06-7.96h0Z"/>
        <path class="cls-3" d="M339.8,26.79c-1.6-.65-5.74,1.68-9.23,5.17l-74.25,74.25c-3.48,3.49-9.15,3.49-12.63,0L169.43,31.96c-3.48-3.49-7.62-5.82-9.23-5.17-1.61.65-.08,4.02,3.42,7.51l80.07,80.06c3.48,3.49,9.15,3.49,12.63,0l80.07-80.06c3.49-3.49,5.02-6.86,3.42-7.51h0Z"/>
        <path class="cls-3" d="M321.94,20.41c-1.37-.43-5.32,2.07-8.81,5.56l-56.81,56.81c-3.49,3.49-9.16,3.49-12.64,0l-56.81-56.81c-3.49-3.49-7.44-5.99-8.81-5.56-1.37.44.35,3.63,3.85,7.11l61.78,61.78c3.48,3.49,9.15,3.49,12.64,0l61.77-61.78c3.49-3.48,5.21-6.68,3.85-7.11h0Z"/>
        <path class="cls-3" d="M302.82,15.29c-1.1-.25-4.83,2.4-8.32,5.88l-38.18,38.19c-3.49,3.48-9.16,3.48-12.64,0l-38.19-38.19c-3.48-3.48-7.22-6.13-8.32-5.88-1.1.24.83,3.27,4.32,6.77l42.19,42.19c3.48,3.49,9.15,3.49,12.64,0l42.18-42.19c3.49-3.49,5.43-6.53,4.32-6.77h0Z"/>
        <path class="cls-3" d="M282.26,11.61c-.79-.11-4.26,2.64-7.74,6.13l-18.2,18.2c-3.49,3.48-9.16,3.48-12.64,0l-18.2-18.2c-3.49-3.49-6.96-6.24-7.75-6.13-.79.11,1.4,3.03,4.89,6.53l21.06,21.06c3.48,3.49,9.15,3.49,12.64,0l21.05-21.06c3.49-3.49,5.69-6.41,4.89-6.53h0Z"/>
        <path class="cls-3" d="M259.96,9.67c-.44-.01-2.84,2.03-5.38,4.57-2.53,2.53-6.64,2.53-9.18,0-2.54-2.54-4.94-4.58-5.38-4.57-.44.02,1.62,2.44,4.59,5.41,2.97,2.97,7.79,2.97,10.75,0,2.97-2.97,5.02-5.38,4.59-5.41h0Z"/>
        <path class="cls-3" d="M414.39,425.63c2.33-2.18,1.34-6.82-2.16-10.31l-155.92-155.93c-3.49-3.48-9.16-3.48-12.64,0l-155.93,155.93c-3.49,3.49-4.48,8.13-2.16,10.31,2.33,2.18,7.08,1.07,10.57-2.43l147.51-147.51c3.48-3.48,9.15-3.48,12.64,0l147.5,147.51c3.49,3.49,8.25,4.6,10.57,2.43h0Z"/>
        <path class="cls-3" d="M401.45,436.92c2.24-1.82,1.19-6.16-2.31-9.65l-142.82-142.82c-3.49-3.49-9.16-3.49-12.64,0l-142.83,142.82c-3.48,3.49-4.54,7.83-2.31,9.65,2.24,1.82,6.92.41,10.41-3.07l134.73-134.73c3.48-3.48,9.15-3.48,12.64,0l134.73,134.73c3.48,3.49,8.16,4.9,10.4,3.08h0Z"/>
        <path class="cls-3" d="M387.62,447.34c2.12-1.48.98-5.55-2.51-9.04l-128.79-128.79c-3.49-3.49-9.16-3.49-12.64,0l-128.8,128.79c-3.49,3.49-4.63,7.56-2.51,9.04,2.12,1.49,6.69-.18,10.18-3.66l121.12-121.12c3.48-3.49,9.15-3.49,12.64,0l121.12,121.12c3.49,3.48,8.07,5.15,10.18,3.66h0Z"/>
        <path class="cls-3" d="M372.89,456.85c1.98-1.18.73-4.99-2.76-8.48l-113.81-113.82c-3.49-3.49-9.16-3.49-12.64,0l-113.82,113.82c-3.49,3.48-4.74,7.3-2.76,8.48,1.97,1.18,6.42-.72,9.91-4.21l106.67-106.67c3.48-3.49,9.15-3.49,12.64,0l106.67,106.67c3.48,3.49,7.94,5.39,9.91,4.21h0Z"/>
        <path class="cls-3" d="M357.22,465.42c1.8-.9.42-4.48-3.07-7.98l-97.83-97.84c-3.49-3.49-9.16-3.49-12.64,0l-97.84,97.84c-3.49,3.49-4.87,7.07-3.07,7.98,1.8.9,6.11-1.22,9.59-4.72l91.32-91.31c3.48-3.49,9.15-3.49,12.64,0l91.31,91.31c3.49,3.49,7.79,5.62,9.59,4.72h0Z"/>
        <path class="cls-3" d="M340.52,472.96c1.61-.65.07-4.02-3.42-7.51l-80.79-80.79c-3.48-3.48-9.15-3.48-12.63,0l-80.79,80.79c-3.49,3.49-5.03,6.86-3.42,7.51,1.6.65,5.74-1.67,9.22-5.16l74.99-74.98c3.48-3.49,9.15-3.49,12.63,0l74.99,74.98c3.49,3.49,7.62,5.81,9.22,5.16h0Z"/>
        <path class="cls-3" d="M322.71,479.38c1.37-.43-.36-3.63-3.85-7.11l-62.55-62.55c-3.48-3.48-9.15-3.48-12.63,0l-62.54,62.55c-3.49,3.48-5.22,6.68-3.85,7.11,1.37.44,5.31-2.05,8.8-5.54l57.6-57.6c3.48-3.49,9.15-3.49,12.63,0l57.6,57.6c3.49,3.48,7.44,5.98,8.8,5.54h0Z"/>
        <path class="cls-3" d="M303.65,484.57c1.1-.25-.83-3.29-4.33-6.78l-43.01-43c-3.48-3.49-9.15-3.49-12.63,0l-43.01,43c-3.49,3.49-5.43,6.53-4.33,6.78,1.1.25,4.82-2.39,8.31-5.88l39.02-39.02c3.48-3.49,9.15-3.49,12.63,0l39.02,39.02c3.49,3.49,7.22,6.13,8.31,5.88h0Z"/>
        <path class="cls-3" d="M283.15,488.31c.79-.11-1.4-3.03-4.89-6.53l-21.95-21.94c-3.48-3.49-9.15-3.49-12.63,0l-21.95,21.94c-3.49,3.49-5.68,6.41-4.89,6.53.79.11,4.26-2.64,7.75-6.12l19.09-19.09c3.48-3.49,9.15-3.49,12.63,0l19.09,19.09c3.49,3.48,6.96,6.23,7.75,6.12h0Z"/>
        <path class="cls-3" d="M260.94,490.33c.44-.01-1.84-2.65-5.08-5.9-3.24-3.24-8.49-3.24-11.73,0-3.24,3.24-5.51,5.88-5.08,5.9.44.02,3.06-2.25,5.87-5.05,2.8-2.81,7.35-2.81,10.15,0,2.81,2.8,5.43,5.06,5.87,5.05h0Z"/>
        <path class="cls-3" d="M425.6,414.42c2.18-2.33,1.07-7.08-2.43-10.57l-147.5-147.51c-3.49-3.48-3.49-9.15,0-12.64l147.5-147.5c3.49-3.49,4.6-8.25,2.43-10.57-2.18-2.33-6.82-1.34-10.31,2.16l-155.92,155.92c-3.49,3.49-3.49,9.15,0,12.64l155.92,155.93c3.49,3.49,8.13,4.48,10.31,2.16h0Z"/>
        <path class="cls-3" d="M436.9,401.47c1.82-2.24.41-6.92-3.07-10.41l-134.73-134.73c-3.49-3.48-3.49-9.15,0-12.64l134.73-134.72c3.48-3.49,4.89-8.17,3.07-10.41-1.82-2.24-6.16-1.19-9.65,2.31l-142.82,142.82c-3.49,3.49-3.49,9.15,0,12.64l142.82,142.83c3.49,3.48,7.83,4.54,9.65,2.31h0Z"/>
        <path class="cls-3" d="M447.31,387.65c1.49-2.12-.18-6.69-3.67-10.18l-121.12-121.12c-3.49-3.48-3.49-9.15,0-12.64l121.12-121.12c3.48-3.49,5.15-8.07,3.67-10.18-1.48-2.12-5.55-.98-9.04,2.51l-128.79,128.79c-3.49,3.49-3.49,9.15,0,12.64l128.79,128.8c3.49,3.49,7.56,4.63,9.04,2.51h0Z"/>
        <path class="cls-3" d="M456.83,372.92c1.18-1.97-.72-6.42-4.21-9.91l-106.67-106.67c-3.49-3.48-3.49-9.15,0-12.64l106.67-106.67c3.49-3.48,5.39-7.94,4.21-9.91-1.18-1.98-4.99-.73-8.48,2.76l-113.82,113.81c-3.49,3.49-3.49,9.15,0,12.64l113.82,113.82c3.48,3.49,7.3,4.74,8.48,2.76h0Z"/>
        <path class="cls-3" d="M465.4,357.25c.9-1.8-1.22-6.11-4.72-9.59l-91.31-91.32c-3.49-3.48-3.49-9.15,0-12.64l91.31-91.31c3.49-3.49,5.62-7.79,4.72-9.59-.9-1.8-4.48-.42-7.98,3.07l-97.84,97.83c-3.48,3.49-3.48,9.15,0,12.64l97.84,97.84c3.49,3.49,7.07,4.87,7.98,3.07h0Z"/>
        <path class="cls-3" d="M472.94,340.55c.65-1.6-1.67-5.74-5.17-9.22l-74.98-74.99c-3.49-3.48-3.49-9.15,0-12.64l74.98-74.98c3.49-3.49,5.81-7.62,5.17-9.22-.65-1.61-4.03-.07-7.52,3.42l-80.79,80.78c-3.48,3.49-3.48,9.15,0,12.64l80.79,80.79c3.49,3.49,6.86,5.02,7.52,3.42h0Z"/>
        <path class="cls-3" d="M479.37,322.74c.43-1.37-2.06-5.31-5.55-8.8l-57.6-57.6c-3.49-3.48-3.49-9.15,0-12.64l57.6-57.59c3.49-3.49,5.98-7.44,5.55-8.8-.44-1.37-3.64.36-7.12,3.85l-62.54,62.54c-3.49,3.49-3.49,9.15,0,12.64l62.54,62.54c3.48,3.49,6.68,5.22,7.12,3.85h0Z"/>
        <path class="cls-3" d="M484.54,303.68c.25-1.1-2.39-4.82-5.87-8.31l-39.02-39.02c-3.49-3.48-3.49-9.15,0-12.64l39.02-39.02c3.48-3.49,6.12-7.22,5.87-8.31-.25-1.1-3.29.83-6.78,4.33l-43,43c-3.49,3.49-3.49,9.15,0,12.64l43,43.01c3.49,3.49,6.53,5.43,6.78,4.33h0Z"/>
        <path class="cls-3" d="M488.28,283.18c.11-.79-2.64-4.26-6.12-7.75l-19.09-19.09c-3.49-3.48-3.49-9.15,0-12.64l19.09-19.08c3.48-3.49,6.23-6.96,6.12-7.75-.11-.79-3.03,1.4-6.53,4.89l-21.94,21.94c-3.49,3.49-3.49,9.15,0,12.64l21.94,21.95c3.49,3.49,6.41,5.68,6.53,4.89h0Z"/>
        <path class="cls-3" d="M490.31,260.96c.02-.44-2.25-3.06-5.05-5.87-2.8-2.8-2.8-7.35,0-10.15,2.81-2.81,5.07-5.43,5.05-5.87-.02-.44-2.66,1.84-5.9,5.08-3.24,3.24-3.24,8.49,0,11.73,3.24,3.24,5.88,5.51,5.9,5.08h0Z"/>
        <path class="cls-3" d="M74.39,85.62c-2.18,2.32-1.07,7.08,2.43,10.57l147.51,147.5c3.49,3.49,3.49,9.15,0,12.64l-147.51,147.51c-3.49,3.49-4.6,8.25-2.43,10.57,2.18,2.33,6.82,1.34,10.31-2.16l155.93-155.93c3.48-3.48,3.48-9.15,0-12.64L84.7,87.78c-3.49-3.49-8.13-4.48-10.31-2.16h0Z"/>
        <path class="cls-3" d="M63.1,98.57c-1.82,2.24-.41,6.92,3.08,10.4l134.73,134.73c3.48,3.49,3.48,9.15,0,12.64l-134.73,134.73c-3.48,3.49-4.89,8.17-3.07,10.41,1.82,2.23,6.16,1.18,9.65-2.31l142.82-142.83c3.49-3.48,3.49-9.15,0-12.64L72.75,100.88c-3.49-3.49-7.83-4.54-9.65-2.31h0Z"/>
        <path class="cls-3" d="M52.68,112.4c-1.49,2.12.18,6.69,3.67,10.18l121.13,121.12c3.49,3.48,3.49,9.15,0,12.64l-121.12,121.12c-3.48,3.49-5.15,8.07-3.66,10.18,1.48,2.12,5.55.98,9.04-2.51l128.79-128.79c3.49-3.49,3.49-9.15,0-12.64L61.72,114.91c-3.49-3.49-7.56-4.63-9.04-2.51h0Z"/>
        <path class="cls-3" d="M43.17,127.13c-1.18,1.97.72,6.42,4.21,9.91l106.67,106.67c3.49,3.49,3.49,9.15,0,12.64l-106.67,106.67c-3.49,3.48-5.39,7.94-4.21,9.91,1.18,1.98,4.99.73,8.48-2.76l113.82-113.82c3.49-3.48,3.49-9.15,0-12.64l-113.82-113.81c-3.48-3.49-7.3-4.74-8.48-2.76h0Z"/>
        <path class="cls-3" d="M34.6,142.8c-.9,1.8,1.22,6.1,4.72,9.59l91.31,91.31c3.49,3.49,3.49,9.15,0,12.64l-91.31,91.32c-3.49,3.48-5.62,7.79-4.72,9.59.9,1.8,4.48.42,7.98-3.07l97.84-97.84c3.49-3.48,3.49-9.15,0-12.64l-97.84-97.83c-3.49-3.49-7.07-4.87-7.98-3.07h0Z"/>
        <path class="cls-3" d="M27.06,159.49c-.65,1.6,1.67,5.73,5.16,9.22l74.98,74.98c3.49,3.49,3.49,9.15,0,12.64l-74.98,74.99c-3.49,3.48-5.81,7.62-5.16,9.22.65,1.61,4.02.07,7.51-3.42l80.79-80.79c3.48-3.48,3.48-9.15,0-12.64l-80.79-80.78c-3.49-3.49-6.86-5.03-7.51-3.42h0Z"/>
        <path class="cls-3" d="M20.63,177.31c-.44,1.37,2.05,5.31,5.54,8.8l57.6,57.59c3.49,3.49,3.49,9.15,0,12.64l-57.6,57.6c-3.49,3.49-5.98,7.44-5.54,8.8.43,1.37,3.63-.36,7.12-3.85l62.54-62.54c3.48-3.48,3.48-9.15,0-12.64l-62.54-62.54c-3.49-3.48-6.69-5.21-7.12-3.85h0Z"/>
        <path class="cls-3" d="M15.45,196.37c-.25,1.1,2.39,4.82,5.88,8.31l39.02,39.02c3.49,3.49,3.49,9.15,0,12.64l-39.02,39.02c-3.49,3.49-6.13,7.21-5.88,8.31.25,1.1,3.29-.83,6.78-4.33l43-43.01c3.49-3.48,3.49-9.15,0-12.64l-43-43c-3.49-3.49-6.53-5.43-6.78-4.33h0Z"/>
        <path class="cls-3" d="M11.71,216.87c-.11.79,2.64,4.26,6.12,7.75l19.09,19.08c3.49,3.49,3.49,9.15,0,12.64l-19.09,19.09c-3.48,3.49-6.23,6.96-6.12,7.75.11.79,3.03-1.4,6.53-4.89l21.94-21.95c3.49-3.48,3.49-9.15,0-12.64l-21.94-21.94c-3.49-3.49-6.41-5.68-6.53-4.89h0Z"/>
        <path class="cls-3" d="M9.69,239.08c-.01.43,2.25,3.06,5.05,5.87,2.81,2.8,2.81,7.35,0,10.15-2.8,2.81-5.06,5.43-5.05,5.87.02.44,2.65-1.84,5.9-5.08,3.24-3.24,3.24-8.49,0-11.73-3.24-3.24-5.88-5.51-5.9-5.08h0Z"/>
      </g>
      <g>
        <g>
          <path class="cls-2" d="M105.38,405.68l17.72-21.27c.52-.63,1.19-.69,1.81-.17l17.16,14.29c.63.52.69,1.19.17,1.81l-3.02,3.62c-.52.62-1.19.69-1.81.16l-12.32-10.26-2.85,3.42,7.41,6.17c.63.52.69,1.19.17,1.81l-2.58,3.1c-.52.63-1.18.69-1.81.17l-7.41-6.17-6.8,8.17c-.52.63-1.19.69-1.81.17l-3.85-3.21c-.63-.52-.69-1.19-.17-1.81Z"/>
          <path class="cls-2" d="M149.32,437.36l.58-3.99-12.64-7.51-3.23,2.42c-.55.42-1.17.45-1.79.08l-4.94-2.93c-.85-.5-.87-1.22-.08-1.79l25.05-17.42c.61-.44,1.17-.45,1.79-.08l5.12,3.04c.63.37.88.87.79,1.61l-3.31,30.33c-.13.97-.77,1.29-1.61.79l-4.94-2.93c-.63-.37-.89-.93-.79-1.61ZM150.87,426.77l1.78-12.4-10.04,7.5,8.25,4.9Z"/>
          <path class="cls-2" d="M166.6,445.71l9.07-26.16c.27-.77.87-1.06,1.64-.79l4.66,1.61c.65.22,1.01.62,1.25,1.25l7.33,21.37,5.66-16.32c.27-.77.87-1.06,1.64-.79l4.78,1.66c.77.27,1.06.87.79,1.64l-9.07,26.16c-.27.77-.87,1.06-1.64.79l-4.66-1.61c-.65-.22-1.01-.62-1.25-1.25l-7.36-21.29-5.63,16.24c-.27.77-.87,1.06-1.64.79l-4.78-1.66c-.77-.27-1.06-.87-.79-1.64Z"/>
          <path class="cls-2" d="M230.54,461.33l1.57-21.58-8.16-.59c-.81-.06-1.25-.56-1.19-1.38l.35-4.74c.06-.81.56-1.25,1.38-1.19l23.98,1.75c.81.06,1.25.56,1.19,1.38l-.35,4.74c-.06.81-.56,1.25-1.38,1.19l-8.16-.59-1.57,21.58c-.06.81-.56,1.25-1.38,1.19l-5.09-.37c-.81-.06-1.25-.56-1.19-1.38Z"/>
          <path class="cls-2" d="M256.82,453.54l-1.03-9.33c-.68-6.13,2.13-10.76,8.95-11.51l11.2-1.24c6.82-.75,10.57,3.15,11.24,9.28l1.03,9.33c.67,6.09-2.14,10.71-8.95,11.47l-11.21,1.24c-6.82.75-10.57-3.15-11.24-9.24ZM278.46,454.3c1.49-.17,2.48-.58,2.2-3.13l-1.09-9.84c-.29-2.6-1.21-2.8-2.83-2.62l-11.2,1.24c-1.62.18-2.48.58-2.19,3.17l1.09,9.84c.28,2.56,1.34,2.74,2.83,2.58l11.21-1.24Z"/>
          <path class="cls-2" d="M301.28,456.4l-8.41-26.38c-.25-.78.06-1.37.83-1.62l4.82-1.54c.78-.25,1.37.06,1.62.83l3.24,10.17,4.25-1.35,4.36-13.13c.2-.65.62-1.01,1.28-1.22l5.84-1.86c1.02-.33,1.57.26,1.22,1.28l-5.7,15.99,13.93,9.82c.87.62.77,1.42-.25,1.75l-5.84,1.86c-.65.21-1.21.16-1.75-.25l-11.08-7.94-4.25,1.35,3.16,9.92c.25.78-.06,1.37-.83,1.62l-4.82,1.54c-.78.25-1.37-.06-1.62-.83Z"/>
          <path class="cls-2" d="M339.34,442.9l-13.08-24.4c-.38-.72-.19-1.36.53-1.74l20.28-10.87c.72-.38,1.36-.19,1.74.53l2.23,4.15c.38.72.19,1.36-.53,1.74l-14.73,7.9,2.11,3.93,8.95-4.8c.72-.38,1.36-.19,1.74.53l1.9,3.55c.38.72.19,1.36-.53,1.74l-8.95,4.8,2.19,4.08,14.73-7.9c.72-.38,1.36-.19,1.74.53l2.23,4.15c.38.72.19,1.36-.53,1.74l-20.28,10.87c-.72.38-1.36.19-1.74-.53Z"/>
          <path class="cls-2" d="M371.66,424.47l-17.38-21.55c-.51-.63-.44-1.3.19-1.81l3.84-3.09c.53-.43,1.06-.53,1.72-.39l22,5.1-10.84-13.44c-.51-.63-.44-1.3.19-1.81l3.94-3.17c.63-.51,1.3-.44,1.81.19l17.38,21.55c.51.63.44,1.3-.19,1.81l-3.84,3.09c-.53.43-1.06.53-1.72.4l-21.95-5.03,10.79,13.38c.51.63.44,1.3-.19,1.81l-3.94,3.17c-.63.51-1.3.44-1.81-.19Z"/>
        </g>
        <g>
          <path class="cls-2" d="M227.39,58.21c1.13,5.72-1.06,9.69-8.17,11.09l-1.3.26.34,1.72c.16.8-.21,1.35-1.01,1.51l-4.67.92c-.8.16-1.35-.21-1.51-1.01l-.34-1.72h-.04c-6.35,1.26-10.12-1.23-11.64-6.74-.21-.83.21-1.39,1-1.55l5-.99c.76-.15,1.18.21,1.54.96.52,1.08,1.38,1.43,2.68,1.18l8.45-1.67c1.85-.37,2.55-1.03,2.25-2.54-.31-1.56-1.08-1.93-2.83-1.71l-9.65,1.16c-6.53.77-9.53-1.13-10.63-6.73-1.12-5.68,1.02-9.64,8-11.06l-.36-1.81c-.16-.8.21-1.35,1.01-1.51l4.67-.92c.8-.16,1.35.21,1.51,1.01l.36,1.81.88-.17c6.35-1.25,10.12,1.24,11.64,6.75.21.83-.21,1.39-1,1.55l-5,.99c-.76.15-1.18-.21-1.54-.96-.52-1.08-1.38-1.43-2.68-1.18l-7.82,1.54c-1.85.37-2.55,1.03-2.25,2.54s1.07,1.89,2.82,1.67l9.65-1.16c6.48-.8,9.55,1.22,10.64,6.77Z"/>
          <path class="cls-2" d="M231.32,56.67l-.15-9.38c-.1-6.17,3.13-10.51,9.98-10.62l11.27-.18c6.86-.11,10.23,4.12,10.33,10.29l.15,9.38c.1,6.13-3.13,10.47-9.98,10.58l-11.27.18c-6.86.11-10.22-4.12-10.33-10.25ZM252.8,59.45c1.5-.02,2.52-.34,2.48-2.91l-.16-9.9c-.04-2.61-.95-2.9-2.58-2.87l-11.27.18c-1.63.03-2.52.34-2.48,2.96l.16,9.9c.04,2.57,1.08,2.85,2.58,2.83l11.27-.18Z"/>
          <path class="cls-2" d="M268.18,56.63l1.6-9.25c1.05-6.08,5.03-9.74,11.79-8.57l9.84,1.7c6.25,1.08,8.91,5.06,8.45,10.46-.1.85-.69,1.23-1.49,1.09l-4.98-.86c-.8-.14-1.11-.63-1.09-1.49-.05-1.44-.82-1.79-2.13-2.02l-9.84-1.7c-1.6-.28-2.54-.14-2.99,2.44l-1.69,9.75c-.44,2.53.52,3,2,3.26l9.84,1.7c1.48.26,2.54.14,2.98-2.4l.17-.97-5.4-.94c-.8-.14-1.19-.68-1.05-1.49l.68-3.93c.14-.8.68-1.19,1.49-1.05l11.65,2.02c.8.14,1.19.68,1.05,1.49l-1.02,5.91c-1.04,6.04-5.03,9.7-11.78,8.53l-9.84-1.7c-6.75-1.17-9.28-5.95-8.23-11.99Z"/>
        </g>
      </g>
      <path class="cls-2" d="M250,12.6c32.05,0,63.14,6.28,92.4,18.65,28.27,11.96,53.66,29.08,75.46,50.88,21.81,21.81,38.92,47.2,50.88,75.46,12.38,29.26,18.65,60.35,18.65,92.4s-6.28,63.14-18.65,92.4c-11.96,28.27-29.08,53.66-50.88,75.46-21.81,21.81-47.2,38.92-75.46,50.88-29.26,12.38-60.35,18.65-92.4,18.65s-63.14-6.28-92.4-18.65c-28.27-11.96-53.66-29.08-75.46-50.88-21.81-21.81-38.93-47.2-50.88-75.46-12.38-29.26-18.65-60.35-18.65-92.4s6.27-63.14,18.65-92.4c11.96-28.27,29.07-53.66,50.88-75.46,21.81-21.81,47.2-38.92,75.46-50.88,29.26-12.38,60.35-18.65,92.4-18.65M250,0C111.93,0,0,111.93,0,250s111.93,250,250,250,250-111.93,250-250S388.07,0,250,0h0Z"/>
      <path class="cls-2" d="M414.66,362.94h0c-2.65-1.82-3.37-5.42-1.63-8.13,23.62-36.71,34.19-80.58,29.81-124.18-6.11-60.87-40.75-115.32-93.05-146.8-2.76-1.66-3.72-5.21-2.14-8.02h0c1.64-2.92,5.37-3.93,8.24-2.2,55.53,33.4,92.31,91.21,98.8,155.83,4.65,46.29-6.57,92.85-31.65,131.83-1.81,2.82-5.61,3.56-8.37,1.67Z"/>
      <path class="cls-2" d="M85.34,362.94h0c2.65-1.82,3.37-5.42,1.63-8.13-23.62-36.71-34.19-80.58-29.81-124.18,6.11-60.87,40.75-115.32,93.05-146.8,2.76-1.66,3.72-5.21,2.14-8.02h0c-1.64-2.92-5.37-3.93-8.24-2.2-55.53,33.4-92.31,91.21-98.8,155.83-4.65,46.29,6.57,92.85,31.65,131.83,1.81,2.82,5.61,3.56,8.37,1.67Z"/>
      <g>
        <path class="cls-1" d="M250.04,111.8l-100.29,60.62v155.47l100.29,60.52,99.9-60.52v-155.47l-99.9-60.62Z"/>
        <path class="cls-2" d="M165.85,185.1v130.64l75.08,45v-221.27l-75.08,45.63ZM221.01,325.47l-35.23-21.11v-108.22l35.23-21.41v150.74Z"/>
        <path class="cls-2" d="M333.84,236.09v-50.99l-75.08-45.63v221.27l75.08-45v-60.4h-37.38v19.24h17.45v29.79l-35.23,21.11v-150.74l35.23,21.41v39.95h19.93Z"/>
        <path class="cls-2" d="M250.2,104.78l-106.22,64.2v162.16l106.22,64.09,105.81-64.1v-162.15l-105.81-64.21ZM350.1,327.79l-99.9,60.52-100.29-60.52v-155.47l100.29-60.62,99.9,60.62v155.47Z"/>
      </g>
    </g>
  </g>
</svg>