<svg width="100" height="100" viewBox="0 0 100 100" fill="none" xmlns="http://www.w3.org/2000/svg">
<g clip-path="url(#clip0_1124_13865)">
<path d="M50 100C77.6142 100 100 77.6142 100 50C100 22.3858 77.6142 0 50 0C22.3858 0 0 22.3858 0 50C0 77.6142 22.3858 100 50 100Z" fill="#005596"/>
<path d="M49.9999 98.7333C76.9146 98.7333 98.7333 76.9147 98.7333 50C98.7333 23.0853 76.9146 1.26666 49.9999 1.26666C23.0853 1.26666 1.2666 23.0853 1.2666 50C1.2666 76.9147 23.0853 98.7333 49.9999 98.7333Z" fill="#005596"/>
<path d="M50 2.53333C76.1714 2.53333 97.4667 23.8286 97.4667 50C97.4667 76.1714 76.1714 97.4667 50 97.4667C23.8286 97.4667 2.53333 76.1714 2.53333 50C2.53333 23.8286 23.8286 2.53333 50 2.53333ZM50 0C22.3857 0 0 22.3857 0 50C0 77.6143 22.3857 100 50 100C77.6143 100 100 77.6143 100 50C100 22.3857 77.6143 0 50 0Z" fill="#005596"/>
<path d="M50 100C77.6142 100 100 77.6142 100 50C100 22.3858 77.6142 0 50 0C22.3858 0 0 22.3858 0 50C0 77.6142 22.3858 100 50 100Z" fill="#002554"/>
<path d="M50 2.53333C76.1714 2.53333 97.4667 23.8286 97.4667 50C97.4667 76.1714 76.1714 97.4667 50 97.4667C23.8286 97.4667 2.53333 76.1714 2.53333 50C2.53333 23.8286 23.8286 2.53333 50 2.53333ZM50 0C22.3857 0 0 22.3857 0 50C0 77.6143 22.3857 100 50 100C77.6143 100 100 77.6143 100 50C100 22.3857 77.6143 0 50 0Z" fill="white"/>
<path d="M50.0429 20.9714L30.3 32.8857V37.2714V37.281V49.4333V50.5095V62.6619V62.6714V67.1333L50.0429 79.0286L69.7048 67.1333V62.6714V62.6619V50.5095V49.4333V37.281V37.2714V32.8857L50.0429 20.9714Z" fill="white"/>
<path d="M50.0381 21.6524L30.8857 33.2143V37.6476V37.6571V49.4524V50.4905V62.2857V62.3V66.8048L50.0381 78.3476L69.1191 66.8048V62.3V62.2857V50.4905V49.4524V37.6571V37.6476V33.2143L69.0476 33.1762L50.0381 21.6524Z" fill="#002554"/>
<path d="M50.0381 21.6524L30.8857 33.2143V37.6476V37.6571V49.4524V50.4905V62.2857V62.3V66.8048L50.0381 78.3476L69.1191 66.8048V62.3V62.2857V50.4905V49.4524V37.6571V37.6476V33.2143L69.0476 33.1762L50.0381 21.6524Z" stroke="#002554" stroke-width="0.21" stroke-miterlimit="10"/>
<path d="M47.7239 37.0571C47.9953 37.0667 48.9525 37.2429 49.0001 37.8095C49.0477 38.3714 48.7572 38.9619 48.362 39C47.9667 39.0381 47.4906 39.0286 47.2096 38.8857C46.9287 38.7429 46.7858 38.7905 46.6763 38.4048C46.562 38.019 46.3906 38.2095 46.5858 37.6238C46.781 37.0429 46.5429 36.7905 47.0429 36.781" fill="white"/>
<path d="M41.6191 35.3952C41.5429 35.3524 40.3905 35.3952 40.3905 35.3952L39.7144 36.3333L40.662 39.7714H44.8572L46.0382 38.8857L46.1715 38.819L46.2572 38.8048L46.1667 38.2476C46.1667 38.2476 46.1667 37.5714 45.8382 37.1571C45.5048 36.7381 44.8286 36.3048 44.3144 36.3952C43.7953 36.4857 43.2048 36.6286 43.0048 36.8952C42.8048 37.1619 42.7953 37.1095 42.7477 37.0857C42.7001 37.0619 42.7096 36.9714 42.7477 36.8762C42.781 36.781 42.1001 35.6857 41.6191 35.4" fill="white"/>
<path d="M59.5952 36.4238H53.4L51.7 34.9667L51.9619 39.7714L54.4857 38.481L55.4904 39.7714H59.5952V36.4238Z" fill="white"/>
<path fill-rule="evenodd" clip-rule="evenodd" d="M56.0716 39.8095C55.5192 39.8095 55.0954 39.6667 54.8144 39.3857C54.4335 39.0048 54.4383 38.4952 54.4383 38.3286V36.5333H55.6002V38.3048C55.6002 38.3429 55.643 38.7476 56.043 38.7476C56.1621 38.7476 56.2525 38.7143 56.3192 38.6476C56.4478 38.5191 56.4478 38.3048 56.4478 38.3048V36.5429H57.6192V38.3571C57.624 38.4238 57.6525 38.9571 57.2811 39.3619C57.0097 39.6571 56.6049 39.8095 56.0668 39.8095M44.5002 39.7524C42.7716 39.7524 42.724 38.281 42.724 38.1143C42.724 37.3143 43.1716 36.3857 44.4287 36.3857C44.9287 36.3857 45.3287 36.5333 45.6097 36.8286C46.0716 37.3095 46.0478 38 46.0478 38.0333V38.3857H43.9335C43.9859 38.6286 44.2144 38.8095 44.4954 38.8095C44.8192 38.8095 44.9906 38.4905 44.9954 38.4905L45.0478 38.3952L45.143 38.4429L46.0097 38.8714L45.9383 38.9762C45.5906 39.5 45.1097 39.7619 44.5002 39.7619M44.8478 37.6048C44.8049 37.4714 44.6954 37.281 44.4144 37.281C44.1335 37.281 44.0144 37.4714 43.9668 37.6048H44.8478ZM47.6525 39.7143C46.9097 39.7143 46.1573 39.1905 46.1573 38.019C46.1573 36.8476 47.0573 36.3952 47.6621 36.3952C48.0144 36.3952 48.3287 36.5381 48.5192 36.6476V34.5H49.6811V39.6667H48.5335V39.4286C48.3525 39.5571 48.0573 39.7143 47.6525 39.7143ZM47.9287 37.4C47.8573 37.4 47.3763 37.4571 47.3763 38.0571C47.3763 38.619 47.7525 38.681 47.9144 38.681C47.943 38.681 48.5573 38.6714 48.5573 38.0429C48.5573 37.4524 47.9859 37.4048 47.9287 37.4048M59.5097 34.5H60.6478V39.6667H59.5097V34.5ZM57.9383 34.5H59.0906V39.6667H57.9383V34.5ZM50.7002 39.6667V34.6952H52.4478C53.5192 34.6952 53.9954 35.3571 53.9954 36.0095C53.9954 36.4667 53.7906 36.7762 53.6525 36.9381C54.0954 37.1524 54.3859 37.481 54.3859 38.2333C54.3859 39.6333 52.8478 39.6667 52.8287 39.6667H50.7002ZM52.6621 38.6143C52.724 38.6048 53.1811 38.5191 53.1811 38.1C53.1811 37.6191 52.7525 37.5905 52.6668 37.5905H51.9859V36.5333H52.4002C52.4002 36.5333 52.4097 36.5333 52.4192 36.5333C52.5573 36.5333 52.7811 36.481 52.7811 36.1381C52.7811 35.7952 52.4763 35.7429 52.2954 35.7429C52.2763 35.7429 52.2668 35.7429 52.2668 35.7429H52.2573H51.9002V38.6095H52.6573L52.6621 38.6143ZM41.6621 39.6667L40.6335 38.0429V36.781H40.9811C41.0716 36.781 41.5049 36.7571 41.5049 36.2524C41.5049 35.781 41.0525 35.7429 40.9144 35.7429H40.5478V39.6667H39.343V34.5952H40.643C42.0525 34.5952 42.7383 35.1381 42.7383 36.2571C42.7383 37.2571 42.0335 37.5619 41.6906 37.6524L43.0811 39.6714H41.6573L41.6621 39.6667Z" fill="#D20F3E"/>
<path d="M60.5429 39.5476H59.6286V34.6048H60.5429V39.5476ZM58.981 39.5476H58.0572V34.6048H58.981V39.5476ZM49.5715 34.6048V39.5476H48.6477V39.1762C48.6477 39.1762 48.2905 39.5952 47.6524 39.5952C47.0144 39.5952 46.2715 39.1571 46.2715 38.0095C46.2715 36.8619 47.1429 36.5 47.662 36.5C48.181 36.5 48.6334 36.8476 48.6334 36.8476V34.6048H49.5715ZM47.9191 38.7857C47.9667 38.7857 48.6715 38.7619 48.6715 38.0333C48.6715 37.3048 47.9286 37.2809 47.9286 37.2809C47.9286 37.2809 47.2667 37.3048 47.2667 38.0476C47.2667 38.7905 47.8477 38.7809 47.9191 38.7809M40.6477 34.6952C41.781 34.6952 42.6286 35.0238 42.6286 36.2429C42.6286 37.4619 41.5048 37.5619 41.5048 37.5619L42.8715 39.5429H41.7239L40.7477 38V36.8857H40.981C41.0334 36.8857 41.6144 36.8714 41.6144 36.2476C41.6144 35.6238 41.0191 35.6238 40.9096 35.6238C40.9001 35.6238 40.8953 35.6238 40.8953 35.6238H40.4334V39.5476H39.4572V34.7H40.6477M52.4524 34.8C53.4286 34.8 53.8905 35.3714 53.8905 36C53.8905 36.6286 53.462 36.9667 53.462 36.9667C53.9858 37.1762 54.2763 37.4667 54.2763 38.2238C54.2763 39.5286 52.8334 39.5429 52.8334 39.5429H50.8191V34.7952H52.4572M51.8001 38.7143H52.6763C52.6763 38.7143 53.3001 38.6381 53.3001 38.0905C53.3001 37.5429 52.8239 37.4714 52.6763 37.4714H52.1048V36.6381H52.3953C52.3953 36.6381 52.4048 36.6381 52.4239 36.6381C52.5334 36.6381 52.9001 36.6048 52.9001 36.1286C52.9001 35.6524 52.4382 35.619 52.3001 35.619C52.2763 35.619 52.262 35.619 52.262 35.619H51.7953V38.7095M44.4334 36.4857C46.0001 36.4857 45.9382 38.0143 45.9382 38.0143V38.2571H43.8096C43.8096 38.6048 44.1001 38.9048 44.4953 38.9048C44.8905 38.9048 45.0953 38.5238 45.0953 38.5238L45.8477 38.8952C45.5001 39.419 45.0286 39.6286 44.5048 39.6286C42.8715 39.6286 42.8382 38.2714 42.8382 38.1C42.8382 37.9286 42.862 36.4857 44.4286 36.4857M43.8239 37.7H44.9905C44.9905 37.7 44.9429 37.1524 44.4143 37.1524C43.8858 37.1524 43.8239 37.7 43.8239 37.7ZM55.4905 36.6429V38.3C55.4905 38.3 55.5239 38.8571 56.0477 38.8571C56.5715 38.8571 56.5667 38.3 56.5667 38.3V36.6429H57.5144V38.3571C57.5144 38.3571 57.6334 39.6905 56.0763 39.6905C54.5191 39.6905 54.5572 38.519 54.5572 38.3095V36.6429H55.4953M60.7715 34.3714H59.4048V39.7667H60.7715V34.3714ZM59.2096 34.3714H57.8334V39.7667H59.2096V34.3714ZM49.8001 34.3714H48.4096V36.4476C48.2096 36.3524 47.9477 36.2667 47.662 36.2667C47.1001 36.2667 46.3096 36.6095 46.1001 37.519C46.0429 37.2762 45.9239 36.9857 45.6905 36.7429C45.3858 36.4286 44.962 36.2667 44.4286 36.2667C43.0858 36.2667 42.6096 37.2571 42.6096 38.1095C42.6096 38.9619 43.1048 39.8619 44.5001 39.8619C45.1477 39.8619 45.662 39.5809 46.0286 39.0238L46.1715 38.8095L45.9429 38.6952L45.5144 38.4857H46.0905C46.2715 39.3952 46.9667 39.8095 47.6524 39.8095C47.9715 39.8095 48.2286 39.719 48.4239 39.6143V39.7619H49.7953V34.3667L49.8001 34.3714ZM44.1667 37.4762C44.2191 37.419 44.3001 37.3762 44.4191 37.3762C44.5382 37.3762 44.6096 37.419 44.662 37.4762H44.1667ZM47.9191 38.5524C47.7239 38.5524 47.4953 38.4619 47.4953 38.0429C47.4953 37.5667 47.8429 37.5095 47.9334 37.5C48.0382 37.5048 48.4477 37.5619 48.4477 38.0238C48.4477 38.519 48.0096 38.5476 47.9191 38.5524ZM44.1048 38.4857H44.8524C44.7905 38.5619 44.6715 38.6809 44.4953 38.6809C44.3191 38.6809 44.1858 38.6048 44.1048 38.4857ZM40.6477 34.4667H39.2334V39.7667H40.662V38.2857L41.5334 39.6619L41.6001 39.7667H43.3001L43.0572 39.4143L41.8763 37.7048C42.3286 37.5429 42.8524 37.119 42.8524 36.2429C42.8524 35.5952 42.6286 35.119 42.1858 34.8238C41.8286 34.5857 41.3239 34.4714 40.6477 34.4714M40.662 35.8476H40.9096H40.9144C41.0905 35.8476 41.3905 35.9 41.3905 36.2429C41.3905 36.6143 41.1048 36.6571 40.981 36.6571H40.6667V35.8476H40.662ZM52.4524 34.5714H50.5905V39.7667H52.8286C52.8286 39.7667 53.2429 39.7619 53.6477 39.5762C53.9191 39.4524 54.2239 39.2286 54.3858 38.8381C54.4524 39.0857 54.5667 39.2952 54.7334 39.4619C55.0334 39.7667 55.4858 39.919 56.0667 39.919C56.6477 39.919 57.0715 39.7571 57.362 39.4381C57.7572 39.0095 57.7382 38.4476 57.7286 38.3524V36.419H56.3334V38.3C56.3334 38.4 56.3048 38.6333 56.0429 38.6333C55.7667 38.6333 55.7191 38.3809 55.7096 38.2905V36.4143H54.3191V37.3762C54.1953 37.1429 54.0191 36.9905 53.8239 36.8809C53.962 36.6905 54.1096 36.3905 54.1096 35.9905C54.1096 35.2809 53.5953 34.5619 52.4477 34.5619M52.0144 35.8381H52.2763C52.2763 35.8381 52.2858 35.8381 52.2953 35.8381C52.5429 35.8381 52.6715 35.9333 52.6715 36.1238C52.6715 36.2095 52.6715 36.4048 52.4191 36.4048C52.4144 36.4048 52.4096 36.4048 52.4096 36.4048H52.4001H52.3905H52.0191V35.8429L52.0144 35.8381ZM52.0144 37.6857H52.6667C52.762 37.6857 53.0667 37.7143 53.0667 38.0809C53.0667 38.3952 52.7191 38.4714 52.6524 38.4809H52.0191V37.6857H52.0144Z" fill="white"/>
<path d="M59.5238 34.381H59.0476V36.8429H59.5238V34.381Z" fill="white"/>
<path d="M41.1382 42.5381H33.7239V52.0857V65.1619L48.1239 73.8714V52.0857V42.5381H41.1382ZM44.3096 52.0857V67.0809L37.5334 62.9809V52.0857V46.3524H44.3096V52.0857Z" fill="white"/>
<path d="M58.8668 42.5381H55.6954H51.8811V46.3524V52.081V52.0857V73.8667L66.2811 65.1571V54.6619H62.4763H62.4668H59.0811V58.4762H62.4668V62.9762L55.6954 67.0762V52.0857V52.081V46.3524H62.4668V50.8524H66.2811V46.3524V42.5381H58.8668Z" fill="white"/>
<path fill-rule="evenodd" clip-rule="evenodd" d="M53.4238 30.1714C53.4238 32.0619 51.8905 33.5952 50 33.5952C48.1095 33.5952 46.5762 32.0619 46.5762 30.1714C46.5762 28.281 48.1095 26.7476 50 26.7476C51.8905 26.7476 53.4238 28.281 53.4238 30.1714Z" fill="#FFCC07"/>
<path d="M49.881 31.8048C49.8286 31.7857 49.681 31.7095 49.6096 31.6095C49.5857 31.5429 49.5 31.3524 49.3143 31.1952C49.3048 31.1 49.2762 30.9286 49.1905 30.8C49.1762 30.7333 49.1381 30.5667 49.1238 30.519C49.1 30.4333 49.0715 30.3143 49.0715 30.2857C49.0715 30.2333 49.0715 29.9381 48.8857 29.6952C48.8524 29.6381 48.7334 29.4333 48.5572 29.2714C48.5238 29.2333 48.4048 29.0857 48.3048 28.9857C48.2762 28.9571 48.1286 28.7905 47.8334 28.5809C47.8334 28.5809 47.7048 28.4857 47.6143 28.3905C47.6096 28.3857 47.6 28.3762 47.5905 28.3714C47.5762 28.3619 47.2715 28.1429 46.9238 28.1429C46.7524 28.1429 46.6048 28.1952 46.4762 28.2952C46.4048 28.3429 46.2 28.4667 46.0381 28.5095C45.9572 28.519 45.5 28.6 45.281 28.9476C45.2667 28.9524 45.2429 28.9619 45.1953 28.9714C45.0953 28.9667 44.6857 28.9714 44.3715 29.3762C44.3429 29.4 44.2381 29.4762 44.0572 29.5C43.9619 29.4952 43.5143 29.4857 43.2 29.8476C43.0857 29.9476 42.7524 30.1762 42.4762 30.1762C42.3715 30.1762 42.2857 30.1429 42.2143 30.0762C42.2 30.0619 42.0857 29.9286 42.2619 29.6571C42.2905 29.6238 42.4429 29.4524 42.681 29.2762C42.7953 29.1952 42.9762 28.9714 42.8619 28.6857C42.8381 28.6143 42.7286 28.3476 42.3334 28.3333C42.2191 28.3095 41.9334 28.2238 41.8191 28.0857C41.7857 28.0429 41.7286 28.019 41.6715 28.0333C41.6143 28.0429 41.5715 28.0857 41.5572 28.1381C41.5572 28.1524 41.4572 28.5048 41.6524 28.7667C41.7762 28.9286 41.9762 29.0143 42.2477 29.0143C42.2143 29.0476 42.1715 29.0857 42.1286 29.1C42.1286 29.1 42.1238 29.1 42.1191 29.1C42.1048 29.1048 41.8238 29.2333 41.7 29.6286C41.6 29.8857 41.5619 30.419 42.1334 30.6476C42.3048 30.7048 42.4953 30.719 42.7381 30.6952C42.7477 30.8333 42.7762 31.0286 42.8715 31.2143C42.8715 31.219 42.8762 31.2286 42.881 31.2333C42.8905 31.2524 42.9 31.2762 42.9 31.2905L42.7048 31.4048C42.7048 31.4048 42.681 31.4048 42.6619 31.4048C42.6429 31.4048 42.6 31.3952 42.5572 31.3952C42.4334 31.3952 42.3667 31.4476 42.3334 31.4905C42.3238 31.5048 42.3143 31.519 42.3096 31.5333C42.3096 31.5333 42.2715 31.6429 42.2238 31.7333C42.2238 31.7333 42.2238 31.7381 42.2238 31.7429C42.2048 31.7857 42.1619 31.8619 42.1048 31.9238C42.1048 31.9095 42.1 31.8952 42.0953 31.8762C42.081 31.8381 42.0429 31.7714 41.9381 31.7524C41.8524 31.7333 41.7572 31.7524 41.6905 31.8143C41.6429 31.8571 41.581 31.9 41.5619 31.9095C41.5 31.9333 41.4334 31.9857 41.4143 32.0714C41.4143 32.0714 41.4143 32.0762 41.4143 32.0809C41.3619 32.0857 41.3191 32.1095 41.281 32.1476C41.2048 32.2286 41.1953 32.3476 41.1905 32.4C41.1905 32.4429 41.1762 32.4619 41.1762 32.4619C41.1762 32.4619 41.1762 32.4619 41.1762 32.4667C41.1238 32.5571 41.1286 32.6333 41.1334 32.6524C41.1334 32.6571 41.1334 32.6667 41.1334 32.6714C41.1476 32.7238 41.2048 32.8476 41.4191 32.8476C41.4715 32.8476 41.5143 32.8381 41.5191 32.8381C41.5334 32.8381 41.5477 32.8286 41.5619 32.8238C41.5905 32.8429 41.6286 32.8524 41.6619 32.8476C41.6619 32.8476 41.6857 32.8476 41.7143 32.8476C41.7477 32.8476 41.7667 32.8476 41.781 32.8571C41.7905 32.8571 41.8429 32.8762 41.9143 32.8762C42.0476 32.8762 42.1619 32.8095 42.2238 32.7C42.2619 32.6381 42.3143 32.5714 42.3477 32.5476C42.3762 32.5571 42.4286 32.5667 42.4953 32.5667C42.6429 32.5667 42.7762 32.5143 42.8762 32.4095C42.8762 32.4095 43.0238 32.2571 43.2238 32.2571C43.2429 32.2571 43.2667 32.2571 43.281 32.2571C43.2857 32.2571 43.4429 32.2905 43.5905 32.2905C43.7096 32.2905 43.7953 32.2714 43.8572 32.2286C43.9429 32.1857 44.0905 32.1095 44.1334 32.0952C44.2048 32.0762 44.3286 32 44.3524 31.8429C44.381 31.7762 44.4143 31.7048 44.4286 31.6857C44.4619 31.6476 44.4715 31.5952 44.4619 31.5524C44.5238 31.5667 44.6143 31.5762 44.7048 31.5619H44.7143C44.7143 31.5619 44.8667 31.5238 45.0286 31.5238C45.0762 31.5238 45.1191 31.5238 45.1572 31.5333C45.1953 31.5429 45.4191 31.5905 45.6619 31.5905C45.7286 31.5905 45.7953 31.5905 45.8524 31.5809C45.881 31.5809 45.9048 31.5667 45.9286 31.5476C46.0048 31.6381 46.1096 31.719 46.2429 31.7667C46.2429 31.7667 46.381 31.819 46.4143 32C46.3619 32.0238 46.2715 32.0619 46.1096 32.119C46.1096 32.119 46.1048 32.119 46.1 32.119C46.0286 31.9714 45.8619 31.6762 45.6429 31.6762C45.6429 31.6762 45.6286 31.6762 45.6238 31.6762L45.3286 31.7C45.3286 31.7 45.3096 31.7 45.3048 31.7C45.2429 31.7143 45.1715 31.7619 45.1476 31.8429C45.1334 31.8809 45.1286 31.9619 45.2 32.0476C45.2238 32.0809 45.2857 32.1667 45.3191 32.2238C45.3477 32.3 45.4191 32.3714 45.5381 32.3714C45.5524 32.3714 45.5667 32.3714 45.5857 32.3714C45.5857 32.3714 45.5857 32.3714 45.5905 32.3714C45.6 32.3809 45.6096 32.4048 45.6238 32.4476C45.6238 32.4571 45.6334 32.4667 45.6381 32.4762C45.6476 32.4952 45.7381 32.6524 45.9048 32.7048C45.9143 32.7048 45.9667 32.7238 46.0334 32.7238C46.1 32.7238 46.1667 32.7095 46.2238 32.6809C46.3762 32.6238 46.7 32.5 46.8096 32.4333C46.8191 32.4286 46.8524 32.4143 46.8715 32.4143C46.8715 32.4143 46.881 32.4143 46.8857 32.4143C46.8953 32.4143 46.9286 32.4238 46.9715 32.4238C47.0953 32.4238 47.2 32.3667 47.2572 32.2667L47.3667 32.0952C47.381 32.1571 47.4 32.2238 47.4381 32.2667C47.4572 32.2905 47.5286 32.3714 47.6429 32.3714C47.6667 32.3714 47.6905 32.3714 47.7096 32.3619C47.7096 32.3619 47.7191 32.3619 47.7238 32.3619C47.7477 32.3619 47.7953 32.3571 47.8953 32.3238C47.9238 32.3143 48.0381 32.2857 48.0857 32.2667C48.1429 32.2476 48.2477 32.219 48.2905 32.219C48.2953 32.219 48.3048 32.219 48.3143 32.219C48.3191 32.219 48.3572 32.219 48.4 32.2238C48.4 32.2238 48.4096 32.2238 48.4143 32.2238C48.4143 32.2238 48.4334 32.2238 48.4619 32.2238C48.5381 32.2238 48.7191 32.2095 48.8667 32.0762C48.9572 32.1714 49.1762 32.3667 49.4953 32.3667C49.5524 32.3667 49.6143 32.3619 49.6715 32.3476C49.7334 32.3333 49.781 32.2809 49.7905 32.2143C49.7905 32.1809 49.7905 32.1524 49.7715 32.1238C49.8191 32.1238 49.8667 32.1095 49.9143 32.0952C49.9715 32.0762 50.0143 32.019 50.0143 31.9571C50.0143 31.8952 49.9762 31.8381 49.9191 31.8143M41.9238 28.5857C41.9 28.5524 41.8857 28.5143 41.8762 28.4762C42.0762 28.5809 42.2857 28.6238 42.3191 28.6333C42.3286 28.6333 42.3381 28.6333 42.3429 28.6333C42.5524 28.6333 42.6 28.7524 42.6048 28.7714C42.6048 28.7809 42.6048 28.7857 42.6143 28.7952C42.6429 28.8619 42.6286 28.919 42.6048 28.9571C42.6048 28.9238 42.5905 28.8952 42.5762 28.8667C42.5096 28.7429 42.3619 28.719 42.3334 28.7143C42.3238 28.7143 42.3191 28.7143 42.3096 28.7143H42.2905C42.1096 28.7143 41.9857 28.6714 41.9238 28.5857ZM42.2762 32.2C42.2762 32.2 42.2619 32.2381 42.2572 32.2571C42.1238 32.3143 42.0238 32.4667 41.9762 32.5476C41.9715 32.5571 41.9619 32.5714 41.9286 32.5714C41.9096 32.5714 41.8953 32.5714 41.8953 32.5714C41.8762 32.5667 41.8524 32.5571 41.8334 32.5571C41.8429 32.5333 41.8524 32.519 41.8572 32.5095C41.9572 32.4857 42.0286 32.4143 42.0619 32.3524C42.0619 32.3476 42.0667 32.3381 42.0715 32.3333C42.0857 32.2952 42.1429 32.2809 42.1429 32.2809C42.1524 32.2809 42.1619 32.2762 42.1715 32.2714C42.2191 32.2524 42.2619 32.2238 42.2953 32.1905C42.2857 32.2048 42.281 32.2143 42.2762 32.219M45.6143 32.0809C45.6143 32.0809 45.5953 32.0809 45.5857 32.0809C45.5715 32.0571 45.5524 32.0286 45.5334 32L45.6477 31.9905C45.6762 32.0048 45.7191 32.0571 45.7619 32.119C45.7096 32.0857 45.6572 32.0762 45.6191 32.0762M46.0143 32.4286C46.0143 32.4286 45.9715 32.4048 45.9572 32.3905C45.9953 32.4143 46.0381 32.4238 46.0857 32.4286C46.0619 32.4381 46.0191 32.4286 46.0143 32.4286ZM47.5619 31.3333C47.5191 31.3667 47.4096 31.4524 47.3524 31.5667C47.3524 31.5667 47.3477 31.5571 47.3429 31.5524C47.3429 31.5476 47.3429 31.5381 47.3381 31.5333L47.2572 31.3476C47.3381 31.3524 47.4191 31.3429 47.4762 31.3143C47.5 31.3143 47.5286 31.3048 47.5619 31.3C47.5619 31.3095 47.5619 31.3238 47.5572 31.3333M48.8953 31.5809C48.981 31.6857 49.0191 31.7714 49.0381 31.8286C49 31.7857 48.9477 31.7619 48.8857 31.7619C48.7953 31.7619 48.7191 31.819 48.6953 31.8333C48.6905 31.8381 48.681 31.8429 48.6762 31.8524C48.6238 31.9095 48.5477 31.9333 48.5 31.9381C48.5286 31.919 48.5572 31.8952 48.581 31.8619C48.6143 31.8143 48.6477 31.7381 48.6286 31.6095C48.6143 31.5333 48.5429 31.4476 48.4238 31.4476C48.3667 31.4476 48.3048 31.4667 48.2381 31.5048C48.2238 31.5143 48.0953 31.5857 48.0572 31.7524C48.0572 31.7571 48.0572 31.7619 48.0572 31.7667C48.0477 31.8286 48.0619 31.8809 48.1 31.9238C48.1096 31.9333 48.1191 31.9429 48.1334 31.9524C48.0667 31.9714 48.0048 31.9905 47.9857 31.9952C47.9572 32.0048 47.8619 32.0333 47.8096 32.0476C47.8096 32.0476 47.8048 32.0476 47.8 32.0476C47.7619 32.0619 47.7381 32.0667 47.7286 32.0667C47.7096 32.0667 47.6857 32.0667 47.6715 32.0667C47.6667 32.0476 47.6619 32.0238 47.6572 32.0048C47.6667 31.9714 47.6953 31.9333 47.7096 31.919C47.7096 31.919 47.7191 31.9095 47.7238 31.9048C47.7477 31.8762 47.8048 31.8143 47.7905 31.7286C47.7905 31.7048 47.7762 31.6857 47.7619 31.6667C47.7429 31.6429 47.7191 31.6238 47.6905 31.6095C47.7048 31.5952 47.7191 31.5857 47.7381 31.5714C47.8429 31.4952 47.8572 31.3809 47.8572 31.3619C47.8572 31.3381 47.8905 31.2762 47.9238 31.2333C47.9857 31.1524 47.9619 31.0762 47.9524 31.0476C47.9238 30.9905 47.8667 30.9571 47.7953 30.9571C47.7667 30.9571 47.7429 30.9619 47.7334 30.9667C47.7048 30.9762 47.5381 31 47.4048 31.019C47.3857 31.019 47.3667 31.0286 47.3524 31.0381C47.5 30.6905 47.3524 30.3952 47.3429 30.3809C47.3096 30.319 47.2429 30.2857 47.1715 30.3048C47.1048 30.3238 47.0572 30.3809 47.0572 30.4524C47.0572 30.5476 47.0048 30.7238 46.9715 30.8095C46.9715 30.8095 46.9715 30.8143 46.9715 30.819C46.9334 30.9333 46.8905 30.9714 46.8857 30.9762C46.881 30.9762 46.8715 30.9809 46.8667 30.9857C46.8381 30.9952 46.7429 31.0238 46.6524 31.0429C46.6477 31.0429 46.6381 31.0429 46.6334 31.0476C46.5381 31.0857 46.5048 31.1524 46.4953 31.1905C46.4715 31.2667 46.5 31.3381 46.5334 31.3857C46.5381 31.3952 46.5477 31.4 46.5524 31.4048C46.5619 31.4143 46.5762 31.4429 46.5905 31.4667C46.6238 31.5571 46.7334 31.7333 46.781 31.8048C46.7905 31.819 46.7953 31.8238 46.8096 31.8333C46.8096 31.8333 46.8096 31.8429 46.8096 31.8476C46.8096 31.8619 46.8096 31.8667 46.8096 31.8809C46.8096 31.9095 46.781 32 46.7477 32.0714C46.7477 32.0809 46.7381 32.0905 46.7381 32.1C46.7381 32.0952 46.7381 32.0857 46.7381 32.0809C46.7429 31.6238 46.381 31.4857 46.3619 31.4809C46.1238 31.3952 46.0286 31.0857 46.0238 31.0857C46.0191 31.0667 46.0096 31.0524 46 31.0381C45.9477 30.9667 45.881 30.9571 45.8477 30.9571C45.7667 30.9571 45.6905 31.0143 45.6524 31.1095C45.6477 31.1238 45.6429 31.1381 45.6429 31.1524C45.6381 31.2 45.6429 31.2476 45.6429 31.2905C45.4334 31.2857 45.2429 31.2429 45.2381 31.2429C45.2381 31.2429 45.2334 31.2429 45.2286 31.2429C45.1715 31.2333 45.1143 31.2286 45.0477 31.2286C44.8715 31.2286 44.7096 31.2619 44.6715 31.2714C44.6524 31.2714 44.6381 31.2714 44.6191 31.2714C44.5476 31.2714 44.5096 31.2476 44.5096 31.2476C44.5096 31.2476 44.5048 31.2476 44.5 31.2381C44.4572 31.1952 44.4524 30.9619 44.4857 30.7619C44.4857 30.7619 44.4857 30.7571 44.4857 30.7524C44.4953 30.6714 44.4762 30.6095 44.4381 30.5619C44.4048 30.5238 44.3572 30.5048 44.3048 30.5048C44.2905 30.5048 44.2667 30.5048 44.2524 30.5143C44.2334 30.519 44.2143 30.5333 44.1953 30.5476C44.0381 30.6857 44.0334 31.0571 44.0429 31.2476C43.8238 31.6714 43.4048 31.7 43.3334 31.7C43.3 31.7 43.2667 31.6952 43.2334 31.6952C43.1286 31.6952 43.0381 31.7143 43.0286 31.7143C42.7619 31.7619 42.5715 31.8952 42.4477 32.0095C42.4905 31.9476 42.5143 31.8952 42.5238 31.8762C42.5524 31.819 42.581 31.7524 42.6 31.7048C42.6143 31.7048 42.6286 31.7048 42.6334 31.7095C42.6429 31.7095 42.6477 31.7095 42.6572 31.7095C42.6762 31.7095 42.6905 31.7095 42.7096 31.7095C42.7953 31.7095 42.8524 31.6905 42.881 31.6714L43.1096 31.5381C43.1096 31.5381 43.1238 31.5286 43.1334 31.519C43.2762 31.3905 43.2524 31.2 43.1667 31.0714C43.0429 30.8238 43.0715 30.5429 43.0715 30.5381C43.0762 30.4905 43.0572 30.4429 43.0238 30.4143C43.0048 30.3952 42.9762 30.3809 42.9524 30.3762C43.2191 30.2571 43.4238 30.0809 43.4381 30.0714C43.4429 30.0667 43.4477 30.0619 43.4524 30.0571C43.6477 29.8286 43.9238 29.8048 44.0381 29.8048C44.0619 29.8048 44.0762 29.8048 44.0762 29.8048C44.0857 29.8048 44.1 29.8048 44.1096 29.8048C44.4286 29.7667 44.6 29.6095 44.6191 29.5905C44.6238 29.5857 44.6286 29.5809 44.6334 29.5714C44.8334 29.3 45.0857 29.2714 45.1857 29.2714C45.2 29.2714 45.2096 29.2714 45.2096 29.2714C45.2238 29.2714 45.2334 29.2714 45.2476 29.2714C45.4524 29.2476 45.5381 29.1762 45.5667 29.1095C45.7286 28.8619 46.1143 28.8095 46.1143 28.8095C46.1191 28.8095 46.1286 28.8095 46.1334 28.8095C46.381 28.7476 46.6667 28.5524 46.681 28.5476C46.681 28.5476 46.6857 28.5476 46.6905 28.5429C46.7667 28.4809 46.8524 28.4524 46.9572 28.4524C47.1762 28.4524 47.3905 28.5857 47.4381 28.619C47.5477 28.7333 47.6857 28.8333 47.6905 28.8381C47.9762 29.0381 48.1143 29.1952 48.1143 29.1952C48.1143 29.1952 48.1143 29.2 48.1238 29.2048C48.2238 29.3095 48.3667 29.4809 48.3667 29.4809C48.3715 29.4857 48.3762 29.4952 48.3857 29.5C48.5524 29.6429 48.6619 29.8524 48.6619 29.8571C48.6667 29.8667 48.6715 29.8762 48.681 29.8857C48.8191 30.0571 48.8096 30.2809 48.8096 30.2857C48.8096 30.2857 48.8096 30.2905 48.8096 30.2952C48.8096 30.3571 48.8381 30.4809 48.8619 30.5714C48.7905 30.4857 48.7143 30.3857 48.7 30.3571C48.7 30.3476 48.6905 30.3381 48.6857 30.3333C48.6524 30.2905 48.5857 30.2429 48.5048 30.2429C48.4572 30.2429 48.3667 30.2619 48.2905 30.3762C48.281 30.3905 48.2762 30.4 48.2715 30.4143C48.2715 30.4143 48.2619 30.4429 48.2572 30.4524C48.2572 30.4524 48.1667 30.6286 48.1429 30.6762C48.1286 30.7 48.1048 30.7524 48.1048 30.8143C48.1048 30.8809 48.1524 30.9381 48.2191 30.9571C48.2524 30.9667 48.3667 30.9809 48.4762 30.8524C48.5048 30.8809 48.5286 30.9048 48.5429 30.919C48.5524 30.9333 48.5619 30.9762 48.5572 31.1095C48.5572 31.1524 48.5762 31.2 48.6096 31.2286C48.6429 31.2571 48.6905 31.2714 48.7334 31.2619C48.7429 31.2619 48.9334 31.2286 48.9667 30.9762C49.0191 31.0476 49.0429 31.1714 49.0524 31.2476C49.0191 31.2476 48.981 31.2476 48.9524 31.2667C48.9048 31.2905 48.8667 31.3286 48.8524 31.3809C48.8238 31.4714 48.8762 31.5571 48.9 31.5905" fill="white"/>
<path d="M47.1142 29.0381C47.0761 29.0381 46.9999 29.0524 46.938 29.1429C46.938 29.1429 46.938 29.1476 46.938 29.1524C46.8666 29.281 46.8999 29.381 46.9285 29.4286C46.9285 29.4381 46.938 29.4429 46.9428 29.4524C46.9428 29.4571 47.0571 29.6 47.0714 29.8952C47.0714 29.9667 47.1285 30.0238 47.1999 30.0381C47.2095 30.0381 47.2142 30.0381 47.2237 30.0381C47.2857 30.0381 47.3428 30 47.3666 29.9381C47.3714 29.919 47.5285 29.4762 47.2999 29.1524C47.2666 29.0952 47.1999 29.0429 47.119 29.0429" fill="white"/>
<path d="M58.8525 32.4524C58.8525 32.4524 58.8382 32.4286 58.8334 32.3857C58.8334 32.3381 58.8239 32.2143 58.743 32.1333C58.7049 32.0952 58.662 32.0762 58.6096 32.0667C58.6096 32.0667 58.6096 32.0619 58.6096 32.0571C58.5906 31.9714 58.5192 31.919 58.4668 31.9C58.4477 31.8905 58.3811 31.8429 58.3334 31.8C58.2811 31.7571 58.2144 31.7286 58.143 31.7286C58.1239 31.7286 58.1001 31.7286 58.0858 31.7333C57.9811 31.7571 57.943 31.8238 57.9287 31.8571C57.9239 31.8714 57.9192 31.8857 57.9192 31.9048C57.862 31.8429 57.8144 31.7571 57.8001 31.7238C57.8001 31.7238 57.8001 31.719 57.8001 31.7143C57.7573 31.6286 57.7192 31.519 57.7144 31.5143C57.7096 31.5 57.7001 31.4857 57.6906 31.4714C57.6573 31.4286 57.5906 31.3762 57.4668 31.3762C57.4239 31.3762 57.3811 31.3809 57.362 31.3857C57.3382 31.3857 57.3239 31.3857 57.3144 31.3857L57.1144 31.2714C57.1144 31.2714 57.1239 31.2333 57.1334 31.219C57.1334 31.2143 57.143 31.2048 57.143 31.2C57.2382 31.0143 57.2668 30.819 57.2763 30.6809C57.5192 30.7095 57.7096 30.6952 57.8858 30.6333C58.4477 30.4095 58.4096 29.8762 58.3144 29.619C58.1906 29.2238 57.9049 29.0952 57.8954 29.0905C57.8954 29.0905 57.8954 29.0905 57.8858 29.0905C57.843 29.0714 57.7954 29.0381 57.7668 29.0048C58.0382 29.0048 58.2382 28.919 58.362 28.7571C58.5573 28.5 58.462 28.1476 58.4573 28.1286C58.443 28.0762 58.3954 28.0333 58.343 28.0238C58.2858 28.0143 58.2287 28.0333 58.1954 28.0762C58.0811 28.2143 57.7954 28.3 57.6811 28.3238C57.2858 28.3381 57.1763 28.6048 57.1525 28.6762C57.0382 28.9619 57.2192 29.1857 57.3287 29.2667C57.5715 29.4429 57.7239 29.619 57.7525 29.6524C57.9287 29.9238 57.8144 30.0571 57.8001 30.0714C57.7287 30.1381 57.643 30.1714 57.5382 30.1714C57.2239 30.1714 56.8715 29.8857 56.8144 29.8429C56.5001 29.4857 56.0573 29.4905 55.9573 29.4952C55.7715 29.4714 55.6668 29.3952 55.643 29.3714C55.3287 28.9619 54.9144 28.9619 54.8192 28.9667C54.7715 28.9619 54.743 28.9524 54.7334 28.9429C54.5144 28.5952 54.0573 28.519 53.9763 28.5048C53.7954 28.4571 53.5715 28.3095 53.5382 28.2905C53.4096 28.1905 53.262 28.1381 53.0906 28.1381C52.743 28.1381 52.4382 28.3571 52.4239 28.3667C52.4144 28.3714 52.4096 28.3809 52.4001 28.3857C52.3096 28.4809 52.1811 28.5762 52.1811 28.5762C51.8858 28.7857 51.7334 28.9524 51.7049 28.9809C51.6096 29.0809 51.4858 29.2286 51.4525 29.2667C51.2715 29.4238 51.1525 29.6333 51.1239 29.6905C50.9334 29.9286 50.9334 30.2238 50.9382 30.2809C50.9382 30.3095 50.9096 30.419 50.8858 30.519C50.8715 30.5667 50.8334 30.7333 50.8192 30.8C50.7382 30.9286 50.7049 31.1 50.6954 31.1952C50.5096 31.3571 50.4239 31.5429 50.4001 31.6095C50.3239 31.7095 50.1811 31.7857 50.1287 31.8048C50.0715 31.8286 50.0334 31.8857 50.0334 31.9476C50.0334 32.0095 50.0763 32.0667 50.1334 32.0857C50.1811 32.1 50.2287 32.1143 50.2763 32.1143C50.262 32.1429 50.2525 32.1714 50.2573 32.2048C50.262 32.2714 50.3096 32.3238 50.3763 32.3381C50.4334 32.3524 50.4954 32.3571 50.5525 32.3571C50.8715 32.3571 51.0954 32.1667 51.1811 32.0667C51.3287 32.2 51.5096 32.2143 51.5858 32.2143C51.6192 32.2143 51.6334 32.2143 51.6334 32.2143C51.6334 32.2143 51.643 32.2143 51.6477 32.2143C51.6906 32.2048 51.7287 32.2095 51.7287 32.2095C51.7382 32.2095 51.7477 32.2095 51.7525 32.2095C51.7906 32.2095 51.8858 32.2333 51.9573 32.2619C52.0049 32.2762 52.1192 32.3095 52.1477 32.319C52.243 32.3524 52.2954 32.3571 52.3192 32.3571C52.3192 32.3571 52.3287 32.3571 52.3334 32.3571C52.3573 32.3619 52.3763 32.3667 52.4001 32.3667C52.5192 32.3667 52.5858 32.2857 52.6049 32.2619C52.6382 32.2143 52.662 32.1476 52.6763 32.0857L52.7906 32.2571C52.8477 32.3571 52.9477 32.4143 53.0763 32.4143C53.1192 32.4143 53.1525 32.4095 53.162 32.4048C53.162 32.4048 53.1715 32.4048 53.1763 32.4048C53.1954 32.4048 53.2239 32.4143 53.2382 32.4238C53.343 32.4952 53.6715 32.619 53.8239 32.6714C53.8811 32.7 53.943 32.7143 54.0144 32.7143C54.0811 32.7143 54.1334 32.7 54.143 32.6952C54.3049 32.6381 54.3954 32.4809 54.4049 32.4667C54.4096 32.4571 54.4144 32.4476 54.4192 32.4381C54.4334 32.3952 54.443 32.3762 54.4525 32.3619C54.4525 32.3619 54.4525 32.3619 54.4573 32.3619C54.4763 32.3619 54.4906 32.3619 54.5049 32.3619C54.6192 32.3619 54.7001 32.2905 54.7239 32.2143C54.7525 32.1619 54.8144 32.0762 54.843 32.0381C54.9144 31.9524 54.9096 31.8762 54.8954 31.8333C54.8715 31.7524 54.7954 31.7048 54.7382 31.6905C54.7287 31.6905 54.7192 31.6905 54.7144 31.6905L54.4192 31.6667C54.4192 31.6667 54.4049 31.6667 54.4001 31.6667C54.1858 31.6667 54.0192 31.9571 53.943 32.1095H53.9334C53.7763 32.0524 53.6811 32.0143 53.6287 31.9905C53.6573 31.819 53.7858 31.7619 53.8001 31.7571C53.9334 31.7095 54.0334 31.6238 54.1144 31.5381C54.1382 31.5571 54.162 31.5667 54.1906 31.5714C54.2477 31.5809 54.3144 31.5809 54.3811 31.5809C54.6239 31.5809 54.8477 31.5333 54.8858 31.5238C54.9239 31.519 54.9668 31.5143 55.0144 31.5143C55.1715 31.5143 55.3239 31.5476 55.3239 31.5524H55.3334C55.4239 31.5667 55.5096 31.5619 55.5763 31.5429C55.562 31.5905 55.5763 31.6429 55.6049 31.6762C55.6192 31.6952 55.6525 31.7667 55.6811 31.8333C55.7049 31.9857 55.8287 32.0619 55.8954 32.0809C55.9477 32.1 56.0954 32.1714 56.1811 32.2143C56.243 32.2571 56.3287 32.2762 56.4477 32.2762C56.5954 32.2762 56.7525 32.2429 56.7525 32.2429C56.7715 32.2429 56.7954 32.2381 56.8144 32.2381C57.0144 32.2381 57.162 32.3905 57.1668 32.3952C57.2668 32.4952 57.3954 32.5524 57.543 32.5524C57.6049 32.5524 57.6573 32.5429 57.6906 32.5333C57.7239 32.5571 57.7763 32.6238 57.8144 32.6809C57.8763 32.7952 57.9906 32.8619 58.1239 32.8619C58.1906 32.8619 58.2477 32.8429 58.2573 32.8429C58.2573 32.8429 58.2811 32.8381 58.3192 32.8381C58.3477 32.8381 58.3668 32.8381 58.3715 32.8381C58.4049 32.8381 58.443 32.8381 58.4715 32.8143C58.4858 32.819 58.5001 32.8238 58.5144 32.8286C58.5192 32.8286 58.562 32.8381 58.6144 32.8381C58.8287 32.8381 58.8858 32.7143 58.9001 32.6619C58.9001 32.6571 58.9001 32.6476 58.9001 32.6429C58.9001 32.6238 58.9096 32.5476 58.8525 32.4524ZM57.7382 28.7048C57.7382 28.7048 57.7239 28.7048 57.7144 28.7048C57.6858 28.7048 57.5382 28.7381 57.4715 28.8571C57.4573 28.8857 57.4477 28.9143 57.443 28.9476C57.4192 28.9048 57.4049 28.8524 57.4334 28.7857C57.4334 28.7762 57.4382 28.7714 57.4382 28.7667C57.443 28.7429 57.4906 28.6333 57.7001 28.6286C57.7096 28.6286 57.7192 28.6286 57.7239 28.6286C57.7573 28.6238 57.9715 28.5762 58.1668 28.4714C58.1573 28.5095 58.143 28.5476 58.1192 28.5809C58.0525 28.6667 57.9287 28.7095 57.7525 28.7095H57.7334L57.7382 28.7048ZM54.3954 31.9667L54.5096 31.9762C54.4906 32.0048 54.4763 32.0286 54.4573 32.0571C54.4144 32.0524 54.3525 32.0571 54.2811 32.1C54.3239 32.0333 54.3668 31.9857 54.3954 31.9714M54.0906 32.3762C54.0906 32.3762 54.0573 32.4095 54.0382 32.4143C54.0382 32.4143 53.9906 32.4238 53.9668 32.4143C54.0144 32.4143 54.0573 32.4 54.0954 32.3762M52.7144 31.519C52.7144 31.519 52.7096 31.5333 52.7096 31.5381C52.7096 31.5381 52.7049 31.5476 52.7001 31.5524C52.6477 31.4381 52.5334 31.3524 52.4906 31.319C52.4906 31.3095 52.4906 31.2952 52.4858 31.2857C52.5192 31.2905 52.5525 31.2952 52.5763 31.3C52.6334 31.3286 52.7144 31.3381 52.7954 31.3333L52.7144 31.519ZM57.0287 31.7C57.0287 31.7 56.9287 31.6809 56.8192 31.6809C56.7811 31.6809 56.7477 31.6809 56.7192 31.6857C56.6477 31.6857 56.2287 31.6571 56.0096 31.2333C56.0192 31.0429 56.0096 30.6714 55.8573 30.5333C55.843 30.519 55.8239 30.5095 55.8001 30.5C55.7858 30.5 55.762 30.4905 55.7477 30.4905C55.6954 30.4905 55.6477 30.5143 55.6144 30.5476C55.5715 30.5952 55.5573 30.6571 55.5668 30.7381C55.5668 30.7381 55.5668 30.7429 55.5668 30.7476C55.6001 30.9476 55.5954 31.1809 55.5573 31.219C55.5525 31.219 55.5525 31.219 55.5477 31.2286C55.5477 31.2286 55.5096 31.2571 55.4334 31.2571C55.4192 31.2571 55.4001 31.2571 55.3811 31.2571C55.3477 31.2476 55.1811 31.2143 55.0049 31.2143C54.9382 31.2143 54.8763 31.2143 54.8239 31.2286C54.8239 31.2286 54.8192 31.2286 54.8144 31.2286C54.8144 31.2286 54.6239 31.2714 54.4096 31.2762C54.4144 31.2333 54.4192 31.1905 54.4096 31.1381C54.4096 31.1238 54.4049 31.1095 54.4001 31.0952C54.362 31 54.2858 30.9429 54.2049 30.9429C54.1715 30.9429 54.1049 30.9524 54.0525 31.0238C54.043 31.0381 54.0334 31.0524 54.0287 31.0714C54.0287 31.0714 53.9287 31.3809 53.6906 31.4667C53.6763 31.4714 53.3096 31.6095 53.3144 32.0667C53.3144 32.0762 53.3144 32.0809 53.3144 32.0905C53.3144 32.0762 53.3049 32.0667 53.3001 32.0524C53.2668 31.9857 53.2382 31.8952 53.2382 31.8667C53.2382 31.8571 53.2382 31.8429 53.2382 31.8333V31.8238C53.2525 31.8143 53.262 31.8 53.2715 31.7905C53.3192 31.7143 53.4287 31.5381 53.462 31.4476C53.4715 31.4238 53.4906 31.4 53.4954 31.3857C53.5049 31.3809 53.5096 31.3714 53.5144 31.3619C53.5477 31.319 53.5763 31.2429 53.5525 31.1667C53.543 31.1286 53.5096 31.0619 53.4144 31.0238C53.4096 31.0238 53.4001 31.0238 53.3954 31.019C53.3144 31 53.2096 30.9714 53.1811 30.9619C53.1763 30.9619 53.1668 30.9524 53.162 30.9524C53.1525 30.9476 53.1096 30.9095 53.0763 30.7952C53.0763 30.7952 53.0763 30.7905 53.0763 30.7857C53.0525 30.7286 52.9906 30.5333 52.9954 30.4238C52.9954 30.3524 52.9477 30.2952 52.8811 30.2762C52.8144 30.2571 52.743 30.2905 52.7096 30.3524C52.7001 30.3667 52.5525 30.6619 52.7001 31.0095C52.6858 31 52.6668 30.9952 52.6477 30.9905C52.5144 30.9714 52.3525 30.9429 52.3144 30.9333C52.3049 30.9333 52.2811 30.9238 52.2573 30.9238C52.1858 30.9238 52.1287 30.9571 52.1001 31.0143C52.0858 31.0429 52.062 31.1143 52.1287 31.2C52.162 31.2476 52.1906 31.3095 52.1954 31.3286C52.1954 31.3524 52.2144 31.4667 52.3192 31.5429C52.3334 31.5524 52.3477 31.5667 52.362 31.5809C52.3334 31.5952 52.3096 31.6143 52.2906 31.6381C52.2906 31.6381 52.2668 31.6762 52.262 31.7C52.243 31.7857 52.3001 31.8476 52.3239 31.8762C52.3239 31.8762 52.3334 31.8857 52.3382 31.8905C52.3525 31.9048 52.3858 31.9429 52.3906 31.9762C52.3906 32 52.3811 32.0238 52.3763 32.0381C52.3573 32.0381 52.3382 32.0381 52.3192 32.0381C52.3049 32.0381 52.2811 32.0286 52.2477 32.019C52.2477 32.019 52.243 32.019 52.2382 32.019C52.1858 32.0048 52.0954 31.9809 52.0668 31.9667C52.0477 31.9619 51.9906 31.9381 51.9192 31.9238C51.9334 31.9143 51.943 31.9048 51.9525 31.8952C51.9858 31.8571 52.0001 31.8048 51.9954 31.7381C51.9954 31.7333 51.9954 31.7286 51.9954 31.7238C51.9573 31.5571 51.8287 31.4857 51.8239 31.4809C51.7525 31.4381 51.6906 31.419 51.6334 31.419C51.5144 31.419 51.443 31.5048 51.4239 31.5857C51.4049 31.7048 51.4382 31.7857 51.4715 31.8333C51.4954 31.8667 51.5239 31.8905 51.5525 31.9095C51.5001 31.9048 51.4287 31.8809 51.3763 31.8238C51.3715 31.819 51.3668 31.8095 51.3573 31.8048C51.3334 31.7857 51.2573 31.7333 51.1668 31.7333C51.1049 31.7333 51.0525 31.7571 51.0144 31.8C51.0334 31.7429 51.0763 31.6571 51.162 31.5476C51.1858 31.5143 51.2334 31.4333 51.2096 31.3429C51.1954 31.2905 51.1573 31.2524 51.1096 31.2286C51.0811 31.2143 51.043 31.2095 51.0096 31.2095C51.0192 31.1286 51.043 31.0095 51.0954 30.9381C51.1287 31.1857 51.3192 31.219 51.3287 31.2238C51.3715 31.2333 51.4192 31.219 51.4525 31.1857C51.4858 31.1524 51.5049 31.1143 51.5049 31.0667C51.5001 30.9381 51.5144 30.8952 51.5192 30.8762C51.5334 30.8619 51.562 30.8381 51.5858 30.8095C51.7001 30.9429 51.8096 30.9238 51.843 30.919C51.9096 30.9048 51.9573 30.8429 51.9573 30.7762C51.9573 30.7143 51.9334 30.6619 51.9192 30.6381C51.8954 30.5952 51.8239 30.4476 51.8096 30.419C51.8001 30.4 51.7954 30.3762 51.7954 30.3762C51.7954 30.3619 51.7858 30.3524 51.7763 30.3381C51.7001 30.2238 51.6096 30.2048 51.562 30.2048C51.4811 30.2048 51.4144 30.2524 51.3811 30.2952C51.3763 30.3048 51.3715 30.3095 51.3668 30.319C51.3525 30.3476 51.2763 30.4476 51.2001 30.5333C51.2239 30.4429 51.2525 30.319 51.2525 30.2619C51.2525 30.2619 51.2525 30.2571 51.2525 30.2524C51.2525 30.2524 51.243 30.0238 51.3811 29.8524C51.3858 29.8429 51.3954 29.8333 51.4001 29.8238C51.4001 29.8238 51.5144 29.6095 51.6763 29.4667C51.6811 29.4619 51.6906 29.4524 51.6954 29.4476C51.6954 29.4476 51.8382 29.2714 51.9382 29.1714C51.9382 29.1714 51.9382 29.1667 51.943 29.1619C51.943 29.1619 52.0811 29.0048 52.3668 28.8048C52.3715 28.8048 52.5096 28.7 52.6192 28.5857C52.6668 28.5524 52.8811 28.419 53.1001 28.419C53.2049 28.419 53.2906 28.4476 53.3668 28.5095C53.3668 28.5095 53.3715 28.5095 53.3763 28.5143C53.3906 28.5238 53.6715 28.7143 53.9239 28.7762C53.9287 28.7762 53.9382 28.7762 53.943 28.7762C53.943 28.7762 54.3334 28.8286 54.4906 29.0762C54.5239 29.1429 54.6049 29.2143 54.8096 29.2381C54.8192 29.2381 54.8334 29.2381 54.843 29.2381C54.843 29.2381 54.8573 29.2381 54.8715 29.2381C54.9715 29.2381 55.2239 29.2667 55.4239 29.5381C55.4239 29.5429 55.4334 29.5524 55.4382 29.5571C55.4573 29.5762 55.6239 29.7333 55.9477 29.7714C55.9573 29.7714 55.9715 29.7714 55.9811 29.7714C55.9811 29.7714 56.0001 29.7714 56.0239 29.7714C56.1334 29.7714 56.4144 29.7952 56.6096 30.0238C56.6144 30.0286 56.6192 30.0333 56.6239 30.0381C56.6382 30.0476 56.843 30.2238 57.1096 30.3429C57.0811 30.3476 57.0573 30.3619 57.0382 30.3809C57.0049 30.4143 56.9858 30.4571 56.9906 30.5048C56.9906 30.5048 57.0192 30.7905 56.8954 31.0381C56.8096 31.1667 56.7858 31.3571 56.9287 31.4857C56.9382 31.4905 56.943 31.5 56.9525 31.5048L57.1811 31.6381C57.2096 31.6571 57.2668 31.6762 57.3525 31.6762C57.3668 31.6762 57.3858 31.6762 57.4049 31.6762C57.4144 31.6762 57.4192 31.6762 57.4287 31.6762C57.4334 31.6762 57.4477 31.6762 57.462 31.6714C57.4811 31.719 57.5049 31.7809 57.5382 31.8429C57.5477 31.8619 57.5715 31.9143 57.6096 31.9762C57.4858 31.8619 57.3001 31.7286 57.0334 31.6809M58.162 32.5381C58.162 32.5381 58.143 32.5429 58.1239 32.5429C58.0906 32.5429 58.0858 32.5333 58.0763 32.5143C58.0334 32.4381 57.9287 32.2857 57.8001 32.2286C57.8001 32.2095 57.7906 32.1905 57.7811 32.1714C57.7811 32.1714 57.7715 32.1571 57.762 32.1429C57.8001 32.1762 57.843 32.2048 57.8906 32.2238C57.9001 32.2238 57.9096 32.2286 57.9144 32.2333C57.9287 32.2333 57.9763 32.2571 57.9858 32.2857C57.9858 32.2952 57.9906 32.3 57.9954 32.3048C58.0287 32.3667 58.1001 32.4381 58.2001 32.4619C58.2049 32.4714 58.2144 32.4857 58.2239 32.5095C58.2001 32.5095 58.1811 32.519 58.162 32.5238" fill="white"/>
<path d="M53.0668 29.1429C53.0096 29.0524 52.9334 29.0381 52.8906 29.0381C52.8049 29.0381 52.743 29.0952 52.7096 29.1476C52.4858 29.4667 52.6382 29.9143 52.643 29.9333C52.6668 29.9952 52.7239 30.0333 52.7858 30.0333C52.7953 30.0333 52.8001 30.0333 52.8096 30.0333C52.881 30.0238 52.9334 29.9619 52.9382 29.8905C52.9525 29.5905 53.062 29.4524 53.0668 29.4476C53.0715 29.4381 53.081 29.4333 53.0858 29.4238C53.1144 29.3762 53.1477 29.2762 53.0763 29.1476C53.0763 29.1476 53.0763 29.1429 53.0763 29.1381" fill="white"/>
<path fill-rule="evenodd" clip-rule="evenodd" d="M47.0524 29.3524C47.0286 29.3095 47.0381 29.2667 47.0619 29.2238C47.1143 29.1429 47.1667 29.2333 47.1667 29.2333C47.3524 29.4952 47.2143 29.8857 47.2143 29.8857C47.1952 29.5238 47.0476 29.3524 47.0476 29.3524M48.6667 31.0857C48.6667 31.0095 48.6762 30.8381 48.6 30.7762C48.5714 30.7524 48.4571 30.6286 48.4571 30.6286C48.4381 30.6 48.4286 30.5952 48.4286 30.5952C48.4048 30.5952 48.3762 30.6476 48.3762 30.6476C48.2952 30.8048 48.2143 30.7857 48.2143 30.7857C48.2143 30.7571 48.2333 30.7238 48.2333 30.7238C48.2571 30.6809 48.3476 30.4952 48.3476 30.4952C48.3619 30.4667 48.3714 30.4333 48.3714 30.4333C48.4476 30.3095 48.5238 30.4048 48.5238 30.4048C48.5571 30.4714 48.7333 30.6809 48.7333 30.6809C48.7714 30.7286 48.7762 30.7762 48.7762 30.7762C48.819 31.0619 48.6714 31.0857 48.6714 31.0857M48.2095 31.819C48.1762 31.819 48.1667 31.8048 48.1714 31.7714C48.1952 31.6714 48.2762 31.6238 48.2762 31.6238C48.4286 31.5333 48.4476 31.6238 48.4476 31.6238C48.4762 31.7857 48.3476 31.8095 48.3476 31.8095C48.3238 31.819 48.2095 31.819 48.2095 31.819ZM41.5381 32.2952C41.5381 32.2952 41.5714 32.319 41.5524 32.3667C41.5524 32.3667 41.4667 32.6 41.4714 32.6809C41.4714 32.6809 41.2809 32.7143 41.2571 32.619C41.2571 32.619 41.2524 32.5809 41.2809 32.5286C41.2809 32.5286 41.3143 32.4809 41.319 32.3905C41.319 32.3905 41.319 32.1667 41.4619 32.2238C41.4905 32.2381 41.5143 32.2619 41.5333 32.2905M41.7667 31.919C41.8 31.8905 41.8428 31.8762 41.8857 31.8857C41.9762 31.9048 41.9238 31.9857 41.9238 31.9857C41.8857 32.0571 41.7667 32.1714 41.7667 32.1714C41.6571 32.2524 41.5714 32.1571 41.5714 32.1571C41.4905 32.0762 41.5952 32.0381 41.5952 32.0381C41.6571 32.0143 41.7667 31.9143 41.7667 31.9143M42.8762 30.5095C42.8762 30.5095 42.8428 30.8428 42.9905 31.1333C42.9905 31.1333 43.1 31.2905 42.9905 31.3905L42.7619 31.5238C42.7619 31.5238 42.7333 31.5476 42.6286 31.5381C42.6286 31.5381 42.4857 31.5048 42.4381 31.5667C42.4381 31.5667 42.3952 31.6857 42.3476 31.7857C42.3476 31.7857 42.2428 32.0238 42.0714 32.1C42.0714 32.1 41.9333 32.1333 41.8905 32.2524C41.8905 32.2524 41.8476 32.3381 41.7571 32.3381C41.7571 32.3381 41.6905 32.3571 41.6476 32.5048C41.6476 32.5048 41.6238 32.6 41.6238 32.6714C41.6238 32.6714 41.7381 32.6571 41.8095 32.6857C41.8095 32.6857 41.9905 32.7476 42.0714 32.5952C42.0714 32.5952 42.2286 32.3286 42.3428 32.3667C42.3428 32.3667 42.5762 32.4429 42.7428 32.2762C42.7428 32.2762 42.9667 32.0286 43.2905 32.0809C43.2905 32.0809 43.6524 32.1524 43.7619 32.0714C43.7619 32.0714 43.9905 31.9524 44.0762 31.9238C44.0762 31.9238 44.1809 31.8952 44.1905 31.7809C44.1905 31.7809 44.2524 31.619 44.3 31.5667H44.1286C44.1286 31.5667 43.9714 31.8238 43.7095 31.9048C43.7095 31.9048 43.5667 31.9619 43.2762 31.9143C43.2762 31.9143 42.8619 31.819 42.4952 32.2143C42.4952 32.2143 42.4428 32.2857 42.3762 32.2571C42.3762 32.2571 42.5762 31.9143 43.0238 31.8286C43.0238 31.8286 43.1667 31.8 43.2905 31.819C43.2905 31.819 43.8857 31.8381 44.1667 31.2476C44.1667 31.2476 44.1381 30.7476 44.2714 30.6286C44.2714 30.6286 44.3238 30.6143 44.3143 30.7095C44.3143 30.7095 44.2238 31.2333 44.3952 31.3381C44.3952 31.3381 44.4952 31.4143 44.6762 31.3857C44.6762 31.3857 44.9524 31.319 45.1809 31.3571C45.1809 31.3571 45.5286 31.4381 45.8286 31.4C45.8286 31.4 45.7524 31.2809 45.7667 31.1381C45.7667 31.1381 45.8095 31.0381 45.8571 31.1C45.8571 31.1 45.9714 31.4809 46.2857 31.5952C46.2857 31.5952 46.5667 31.6952 46.5619 32.0524C46.5619 32.0524 46.519 32.1 46.1476 32.2333C46.1476 32.2333 46.0095 32.2762 45.9619 32.1714C45.9619 32.1714 45.7809 31.7857 45.6286 31.8L45.3333 31.8238C45.3333 31.8238 45.2333 31.8476 45.3048 31.9286C45.3048 31.9286 45.4048 32.0619 45.4476 32.1429C45.4476 32.1429 45.4571 32.2095 45.5524 32.1952C45.5524 32.1952 45.6809 32.1286 45.7571 32.3714C45.7571 32.3714 45.8238 32.4952 45.9381 32.5333C45.9381 32.5333 46.0428 32.5667 46.1428 32.5143C46.1428 32.5143 46.6286 32.3381 46.7095 32.2714C46.7095 32.2714 46.8143 32.2143 46.8952 32.2429C46.8952 32.2429 47.0428 32.2762 47.1 32.1619L47.2524 31.9286C47.2524 31.9286 47.2857 31.8714 47.2809 31.8C47.2809 31.8 47.2952 31.7286 47.2333 31.6571C47.2333 31.6571 47.1762 31.5952 47.1667 31.5524L47.0619 31.3C47.0619 31.3 47.019 31.2333 46.9714 31.2048L46.8286 31.2143C46.8286 31.2143 46.9286 31.4667 47 31.5667C47 31.5667 47.0952 31.7143 47.0905 31.8095C47.0905 31.8095 47.0857 31.8762 47.0571 31.9048C47.0571 31.9048 47.0238 31.9571 47.0095 31.9809C47.0095 31.9809 46.9667 32.0762 46.9333 32.0952C46.9333 32.0952 46.8714 32.1333 46.8571 32.1333C46.8571 32.1333 46.8286 32.1429 46.8524 32.0952C46.8524 32.0952 46.9333 31.9286 46.9286 31.8381C46.9286 31.8381 46.9428 31.7429 46.8762 31.6905C46.8762 31.6905 46.719 31.4429 46.7 31.3714C46.7 31.3714 46.6524 31.2714 46.6238 31.2571C46.6238 31.2571 46.5714 31.1857 46.6571 31.1524C46.6571 31.1524 46.8762 31.1048 46.9143 31.0762C46.9143 31.0762 47.019 31.0429 47.0857 30.8238C47.0857 30.8238 47.1809 30.5667 47.1762 30.4095C47.1762 30.4095 47.3619 30.7667 47.0667 31.1238C47.0667 31.1238 47.3 31.1905 47.3952 31.1238C47.3952 31.1238 47.6857 31.0809 47.7428 31.0667C47.7428 31.0667 47.8143 31.0476 47.7762 31.1C47.7762 31.1 47.6905 31.2238 47.6809 31.3048C47.6809 31.3048 47.6762 31.3714 47.6238 31.4095C47.6238 31.4095 47.4571 31.5238 47.4428 31.6333C47.4428 31.6333 47.4095 31.7381 47.4809 31.7143C47.4809 31.7143 47.5809 31.6667 47.6143 31.7143C47.6143 31.7143 47.6238 31.7143 47.5857 31.7619C47.5857 31.7619 47.4857 31.8476 47.4809 31.9619C47.4809 31.9619 47.5 32.0952 47.5333 32.1381C47.5333 32.1381 47.5762 32.2 47.6476 32.1809C47.6476 32.1809 47.6667 32.1667 47.7 32.1762C47.7 32.1762 47.7333 32.1762 47.8238 32.1429C47.8238 32.1429 47.9619 32.1048 48.0095 32.0905C48.0095 32.0905 48.1857 32.0286 48.2714 32.0333C48.2714 32.0333 48.3286 32.0286 48.4 32.0429C48.4 32.0429 48.619 32.0667 48.7667 31.9048C48.7667 31.9048 48.8762 31.819 48.9143 31.9048C48.9143 31.9048 49.1809 32.2619 49.6143 32.1667C49.6143 32.1667 49.2714 32.0238 49.1809 31.8333C49.1809 31.8333 49.1714 31.6714 48.9905 31.4429C48.9905 31.4429 48.9333 31.3667 48.9905 31.3476C48.9905 31.3476 49.019 31.3238 49.0905 31.3905C49.0905 31.3905 49.2619 31.5524 49.3238 31.7048C49.3238 31.7048 49.5381 32.0238 49.8428 31.919C49.8428 31.919 49.6048 31.8286 49.4905 31.6524C49.4905 31.6524 49.419 31.419 49.1857 31.2429C49.1857 31.2429 49.1762 30.9809 49.0667 30.8333C49.0667 30.8333 49.0095 30.5857 48.9952 30.5286C48.9952 30.5286 48.9381 30.3095 48.9381 30.2524C48.9381 30.2524 48.9571 29.9667 48.7762 29.7476C48.7762 29.7476 48.6524 29.5095 48.4619 29.3476C48.4619 29.3476 48.319 29.1667 48.2095 29.0571C48.2095 29.0571 48.0667 28.8905 47.7571 28.6762C47.7571 28.6762 47.619 28.5762 47.5143 28.4667C47.5143 28.4667 46.9714 28.0762 46.5762 28.3905C46.5762 28.3905 46.3048 28.5762 46.0762 28.6333C46.0762 28.6333 45.6095 28.6857 45.4095 29.0095C45.4095 29.0095 45.3905 29.0714 45.2048 29.0905C45.2048 29.0905 44.7905 29.0429 44.4857 29.4476C44.4857 29.4476 44.3428 29.5857 44.0667 29.619C44.0667 29.619 43.6095 29.5714 43.3143 29.9238C43.3143 29.9238 42.5667 30.5762 42.119 30.1524C42.119 30.1524 41.8857 29.9333 42.1524 29.5381C42.1524 29.5381 42.319 29.3333 42.6048 29.1238C42.6048 29.1238 42.8381 28.9619 42.7286 28.7048C42.7286 28.7048 42.6714 28.4571 42.3238 28.4524C42.3238 28.4524 41.8857 28.3667 41.7095 28.1476C41.7095 28.1476 41.5143 28.8429 42.2857 28.8333C42.2857 28.8333 42.4857 28.8619 42.419 29.0238C42.419 29.0238 42.319 29.1619 42.1857 29.2095C42.1857 29.2095 41.9524 29.3095 41.8476 29.6524C41.8476 29.6524 41.6095 30.2476 42.1857 30.4762C42.4095 30.5524 42.6619 30.5286 42.8905 30.4905" fill="#D20F3E"/>
<path fill-rule="evenodd" clip-rule="evenodd" d="M52.9525 29.3524C52.9763 29.3095 52.9667 29.2667 52.9429 29.2238C52.8906 29.1429 52.8382 29.2333 52.8382 29.2333C52.6525 29.4952 52.7906 29.8857 52.7906 29.8857C52.8096 29.5238 52.9572 29.3524 52.9572 29.3524M51.3382 31.0857C51.3382 31.0095 51.3287 30.8381 51.4048 30.7762C51.4334 30.7524 51.5477 30.6286 51.5477 30.6286C51.5667 30.6 51.5763 30.5952 51.5763 30.5952C51.6001 30.5952 51.6287 30.6476 51.6287 30.6476C51.7096 30.8048 51.7906 30.7857 51.7906 30.7857C51.7906 30.7571 51.7715 30.7238 51.7715 30.7238C51.7477 30.6809 51.6572 30.4952 51.6572 30.4952C51.6477 30.4667 51.6334 30.4333 51.6334 30.4333C51.5572 30.3095 51.481 30.4048 51.481 30.4048C51.4477 30.4714 51.2715 30.6809 51.2715 30.6809C51.2334 30.7286 51.2287 30.7762 51.2287 30.7762C51.1858 31.0619 51.3334 31.0857 51.3334 31.0857M51.7953 31.819C51.8287 31.819 51.8382 31.8048 51.8334 31.7714C51.8096 31.6714 51.7287 31.6238 51.7287 31.6238C51.5763 31.5333 51.5572 31.6238 51.5572 31.6238C51.5287 31.7857 51.6572 31.8095 51.6572 31.8095C51.681 31.819 51.7953 31.819 51.7953 31.819ZM58.4667 32.2952C58.4667 32.2952 58.4334 32.319 58.4525 32.3667C58.4525 32.3667 58.5382 32.6 58.5334 32.6809C58.5334 32.6809 58.7239 32.7143 58.7477 32.619C58.7477 32.619 58.7525 32.5809 58.7239 32.5286C58.7239 32.5286 58.6906 32.4809 58.6858 32.3905C58.6858 32.3905 58.6858 32.1667 58.5429 32.2238C58.5144 32.2381 58.4906 32.2619 58.4715 32.2905M58.2382 31.919C58.2048 31.8905 58.162 31.8762 58.1191 31.8857C58.0287 31.9048 58.081 31.9857 58.081 31.9857C58.1191 32.0571 58.2382 32.1714 58.2382 32.1714C58.3477 32.2524 58.4334 32.1571 58.4334 32.1571C58.5144 32.0762 58.4096 32.0381 58.4096 32.0381C58.3477 32.0143 58.2382 31.9143 58.2382 31.9143M57.1287 30.5095C57.1287 30.5095 57.162 30.8428 57.0144 31.1333C57.0144 31.1333 56.9048 31.2905 57.0144 31.3905L57.2429 31.5238C57.2429 31.5238 57.2715 31.5476 57.3763 31.5381C57.3763 31.5381 57.5191 31.5048 57.5667 31.5667C57.5667 31.5667 57.6096 31.6857 57.6572 31.7857C57.6572 31.7857 57.762 32.0238 57.9334 32.1C57.9334 32.1 58.0715 32.1333 58.1144 32.2524C58.1144 32.2524 58.1572 32.3381 58.2477 32.3381C58.2477 32.3381 58.3144 32.3571 58.3572 32.5048C58.3572 32.5048 58.381 32.6 58.381 32.6714C58.381 32.6714 58.2667 32.6571 58.1953 32.6857C58.1953 32.6857 58.0144 32.7476 57.9334 32.5952C57.9334 32.5952 57.7763 32.3286 57.662 32.3667C57.662 32.3667 57.4287 32.4429 57.262 32.2762C57.262 32.2762 57.0334 32.0286 56.7144 32.0809C56.7144 32.0809 56.3525 32.1524 56.2429 32.0714C56.2429 32.0714 56.0144 31.9524 55.9287 31.9238C55.9287 31.9238 55.8239 31.8952 55.8144 31.7809C55.8144 31.7809 55.7525 31.619 55.7048 31.5667H55.8763C55.8763 31.5667 56.0334 31.8238 56.2953 31.9048C56.2953 31.9048 56.4382 31.9619 56.7287 31.9143C56.7287 31.9143 57.1429 31.819 57.5096 32.2143C57.5096 32.2143 57.5572 32.2857 57.6287 32.2571C57.6287 32.2571 57.4287 31.9143 56.981 31.8286C56.981 31.8286 56.8382 31.8 56.7144 31.819C56.7144 31.819 56.1191 31.8381 55.8382 31.2476C55.8382 31.2476 55.8668 30.7476 55.7382 30.6286C55.7382 30.6286 55.6858 30.6143 55.6953 30.7095C55.6953 30.7095 55.7858 31.2333 55.6144 31.3381C55.6144 31.3381 55.5144 31.4143 55.3334 31.3857C55.3334 31.3857 55.0572 31.319 54.8287 31.3571C54.8287 31.3571 54.481 31.4381 54.181 31.4C54.181 31.4 54.2572 31.2809 54.2429 31.1381C54.2429 31.1381 54.2001 31.0381 54.1525 31.1C54.1525 31.1 54.0382 31.4809 53.7239 31.5952C53.7239 31.5952 53.4429 31.6952 53.4477 32.0524C53.4477 32.0524 53.4906 32.1 53.862 32.2333C53.862 32.2333 54.0001 32.2762 54.0477 32.1714C54.0477 32.1714 54.2287 31.7857 54.381 31.8L54.6763 31.8238C54.6763 31.8238 54.7763 31.8476 54.7001 31.9286C54.7001 31.9286 54.6001 32.0619 54.5572 32.1429C54.5572 32.1429 54.5477 32.2095 54.4525 32.1952C54.4525 32.1952 54.3239 32.1286 54.2477 32.3714C54.2477 32.3714 54.181 32.4952 54.0668 32.5333C54.0668 32.5333 53.9572 32.5667 53.8572 32.5143C53.8572 32.5143 53.3715 32.3381 53.2906 32.2714C53.2906 32.2714 53.1858 32.2143 53.1048 32.2429C53.1048 32.2429 52.962 32.2762 52.9001 32.1619L52.7477 31.9286C52.7477 31.9286 52.7144 31.8714 52.7191 31.8C52.7191 31.8 52.7048 31.7286 52.7667 31.6571C52.7667 31.6571 52.8239 31.5952 52.8334 31.5524L52.9382 31.3C52.9382 31.3 52.981 31.2333 53.0287 31.2048L53.1715 31.2143C53.1715 31.2143 53.0715 31.4667 53.0001 31.5667C53.0001 31.5667 52.9048 31.7143 52.9096 31.8095C52.9096 31.8095 52.9144 31.8762 52.9429 31.9048C52.9429 31.9048 52.9763 31.9571 52.9906 31.9809C52.9906 31.9809 53.0334 32.0762 53.0668 32.0952C53.0668 32.0952 53.1287 32.1333 53.1429 32.1333C53.1429 32.1333 53.1715 32.1429 53.1477 32.0952C53.1477 32.0952 53.0667 31.9286 53.0715 31.8381C53.0715 31.8381 53.0572 31.7429 53.1239 31.6905C53.1239 31.6905 53.281 31.4429 53.3001 31.3714C53.3001 31.3714 53.3477 31.2714 53.3763 31.2571C53.3763 31.2571 53.4287 31.1857 53.3429 31.1524C53.3429 31.1524 53.1239 31.1048 53.0858 31.0762C53.0858 31.0762 52.981 31.0429 52.9144 30.8238C52.9144 30.8238 52.8191 30.5667 52.8239 30.4095C52.8239 30.4095 52.6382 30.7667 52.9334 31.1238C52.9334 31.1238 52.7001 31.1905 52.6048 31.1238C52.6048 31.1238 52.3144 31.0809 52.2572 31.0667C52.2572 31.0667 52.1858 31.0476 52.2239 31.1C52.2239 31.1 52.3096 31.2238 52.3191 31.3048C52.3191 31.3048 52.3239 31.3714 52.3763 31.4095C52.3763 31.4095 52.5429 31.5238 52.5572 31.6333C52.5572 31.6333 52.5906 31.7381 52.5191 31.7143C52.5191 31.7143 52.4191 31.6667 52.3858 31.7143C52.3858 31.7143 52.3763 31.7143 52.4144 31.7619C52.4144 31.7619 52.5144 31.8476 52.5191 31.9619C52.5191 31.9619 52.5001 32.0952 52.4667 32.1381C52.4667 32.1381 52.4239 32.2 52.3525 32.1809C52.3525 32.1809 52.3334 32.1667 52.3001 32.1762C52.3001 32.1762 52.2667 32.1762 52.1763 32.1429C52.1763 32.1429 52.0382 32.1048 51.9906 32.0905C51.9906 32.0905 51.8144 32.0286 51.7287 32.0333C51.7287 32.0333 51.6715 32.0286 51.6001 32.0429C51.6001 32.0429 51.381 32.0667 51.2334 31.9048C51.2334 31.9048 51.1239 31.819 51.0858 31.9048C51.0858 31.9048 50.8191 32.2619 50.3858 32.1667C50.3858 32.1667 50.7287 32.0238 50.8191 31.8333C50.8191 31.8333 50.8287 31.6714 51.0096 31.4429C51.0096 31.4429 51.0668 31.3667 51.0096 31.3476C51.0096 31.3476 50.981 31.3238 50.9096 31.3905C50.9096 31.3905 50.7382 31.5524 50.6763 31.7048C50.6763 31.7048 50.462 32.0238 50.1572 31.919C50.1572 31.919 50.3953 31.8286 50.5096 31.6524C50.5096 31.6524 50.581 31.419 50.8144 31.2429C50.8144 31.2429 50.8239 30.9809 50.9334 30.8333C50.9334 30.8333 50.9906 30.5857 51.0048 30.5286C51.0048 30.5286 51.062 30.3095 51.062 30.2524C51.062 30.2524 51.0429 29.9667 51.2239 29.7476C51.2239 29.7476 51.3477 29.5095 51.5382 29.3476C51.5382 29.3476 51.681 29.1667 51.7906 29.0571C51.7906 29.0571 51.9334 28.8905 52.2429 28.6762C52.2429 28.6762 52.381 28.5762 52.4858 28.4667C52.4858 28.4667 53.0287 28.0762 53.4239 28.3905C53.4239 28.3905 53.6953 28.5762 53.9239 28.6333C53.9239 28.6333 54.3906 28.6857 54.5906 29.0095C54.5906 29.0095 54.6096 29.0714 54.7953 29.0905C54.7953 29.0905 55.2096 29.0429 55.5144 29.4476C55.5144 29.4476 55.6572 29.5857 55.9334 29.619C55.9334 29.619 56.3906 29.5714 56.6858 29.9238C56.6858 29.9238 57.4334 30.5762 57.881 30.1524C57.881 30.1524 58.1144 29.9333 57.8477 29.5381C57.8477 29.5381 57.681 29.3333 57.3906 29.1238C57.3906 29.1238 57.1572 28.9619 57.2668 28.7048C57.2668 28.7048 57.3239 28.4571 57.6715 28.4524C57.6715 28.4524 58.1096 28.3667 58.2858 28.1476C58.2858 28.1476 58.481 28.8429 57.7096 28.8333C57.7096 28.8333 57.5096 28.8619 57.5763 29.0238C57.5763 29.0238 57.6763 29.1619 57.8096 29.2095C57.8096 29.2095 58.0429 29.3095 58.1477 29.6524C58.1477 29.6524 58.3858 30.2476 57.8096 30.4762C57.5858 30.5524 57.3334 30.5286 57.1048 30.4905" fill="#D20F3E"/>
<path d="M30.7095 11.3381L31.1143 12.0714L28.9 13.2952L29.2476 13.9286L31.2143 12.8429L31.6143 13.5714L29.6476 14.6572L30.1333 15.5333L29.2714 16.0095L27.6333 13.0429L30.7095 11.3429V11.3381Z" fill="white"/>
<path d="M36.3001 12.6238L35.762 12.1524L33.8286 12.9381L33.7715 13.6524L32.7905 14.0524L33.1334 10.2571L34.3905 9.74762L37.281 12.2286L36.3048 12.6238H36.3001ZM33.8953 12.1143L35.1334 11.6095L34.0143 10.6333L33.8953 12.1143Z" fill="white"/>
<path d="M41.3476 10.1762L40.7619 7.81906L41.7095 7.58572L42.5238 10.8762L41.1286 11.2238L38.6048 9.34763L39.1905 11.7048L38.2381 11.9429L37.4238 8.65239L38.8238 8.30477L41.3476 10.181V10.1762Z" fill="white"/>
<path d="M46.1189 6.96191L50.1998 6.79524L50.2332 7.62858L48.6856 7.69048L48.7903 10.2429L47.8094 10.281L47.7046 7.72858L46.1522 7.79048L46.1189 6.95715V6.96191Z" fill="white"/>
<path d="M51.3905 8.49525C51.4857 7.3762 52.3143 6.78096 53.7381 6.90477C55.1572 7.02858 55.8762 7.75715 55.781 8.87144C55.6857 9.99049 54.8524 10.5952 53.4334 10.4714C52.0096 10.3476 51.2953 9.61906 51.3905 8.49525ZM54.7572 8.78572C54.8096 8.20001 54.5048 7.80953 53.6667 7.73811C52.8334 7.66668 52.4667 7.99049 52.4191 8.58572C52.3667 9.18096 52.6762 9.57144 53.5048 9.64287C54.3381 9.7143 54.7096 9.38096 54.7619 8.79049L54.7572 8.78572Z" fill="white"/>
<path d="M61.6239 8.36667L59.6334 9.38095L60.881 11.6762L59.6763 11.4048L58.8096 9.80476L57.862 10.2857L57.7096 10.9571L56.7524 10.7381L57.5001 7.42857L58.462 7.64286L58.1286 9.12857L60.1953 8.0381L61.6334 8.36191L61.6239 8.36667Z" fill="white"/>
<path d="M66.3286 9.99524L66.0667 10.7191L63.6858 9.85715L63.5 10.3667L65.7905 11.1952L65.5286 11.9191L63.2381 11.0905L63.0524 11.6L65.4334 12.4619L65.1715 13.1857L61.8667 11.9905L63.0191 8.8L66.3238 9.99524H66.3286Z" fill="white"/>
<path d="M69.7618 14.3524L70.8761 12.1905L71.7476 12.6381L70.1904 15.6524L68.9095 14.9905L68.2476 11.9095L67.1333 14.0714L66.2571 13.6191L67.8142 10.6048L69.0999 11.2667L69.7618 14.3476V14.3524Z" fill="white"/>
<path d="M27.3953 85.4762C27.2476 85.719 27.3953 86.0238 28.1572 86.4857C28.8572 86.9048 29.0953 86.9 29.2048 86.719C29.3334 86.5095 29.2238 86.3905 28.3953 85.8143C27.2667 85.0238 26.8905 84.4762 27.2762 83.8333C27.6429 83.2286 28.4619 83.3476 29.4667 83.9524C30.5857 84.6238 31.0238 85.3524 30.6619 86.0143L29.781 85.4857C29.9334 85.2286 29.7143 84.9619 29.0619 84.5714C28.4429 84.2 28.2429 84.219 28.1476 84.3762C28.0381 84.5571 28.1476 84.6952 28.8953 85.2333C29.9143 85.9571 30.5619 86.4476 30.1048 87.2095C29.6572 87.9524 28.8381 87.7571 27.8048 87.1333C26.6286 86.4238 26.0905 85.7381 26.5096 84.9476L27.3905 85.4809L27.3953 85.4762Z" fill="white"/>
<path d="M31.5238 87.1905C31.9714 86.1571 32.9428 85.8619 34.2571 86.4286C35.5667 86.9952 36.0143 87.9143 35.5714 88.9429C35.1238 89.9762 34.1428 90.281 32.8333 89.7143C31.519 89.1476 31.0762 88.2286 31.5238 87.1905ZM34.6286 88.5381C34.8619 87.9952 34.6952 87.5333 33.9238 87.1952C33.1571 86.8619 32.7047 87.0571 32.4714 87.6C32.2333 88.1476 32.4047 88.6143 33.1667 88.9476C33.9333 89.281 34.3952 89.081 34.6286 88.5333V88.5381Z" fill="white"/>
<path d="M39.3047 88.219C40.5047 88.5571 41.0428 89.2619 40.9047 90.1286L39.9 89.8476C39.919 89.5286 39.6857 89.1905 39.0809 89.0238C38.3809 88.8286 37.9476 89.0762 37.7857 89.6476C37.6238 90.2238 37.8714 90.6667 38.5666 90.8619C39.1714 91.0286 39.5476 90.8619 39.6952 90.5714L40.7 90.8524C40.3666 91.6714 39.5428 92 38.3381 91.6667C37.0285 91.3 36.4809 90.4905 36.7905 89.3714C37.1047 88.2571 37.9905 87.8524 39.3 88.219H39.3047Z" fill="white"/>
<path d="M43.3953 89.2286L42.7953 92.5619L41.8286 92.3857L42.4286 89.0524L43.3953 89.2286Z" fill="white"/>
<path d="M44.4191 91.1476C44.5096 90.0286 45.3334 89.4333 46.7572 89.5476C48.1763 89.6619 48.9001 90.3905 48.8049 91.5048C48.7144 92.6238 47.8858 93.2286 46.462 93.1143C45.0382 93 44.3191 92.2714 44.4144 91.1476H44.4191ZM47.7858 91.4238C47.8334 90.8381 47.5287 90.4524 46.6906 90.381C45.8572 90.3143 45.4953 90.6429 45.443 91.2333C45.3953 91.8286 45.7049 92.2143 46.5334 92.2857C47.3668 92.3524 47.7382 92.019 47.7858 91.4238Z" fill="white"/>
<path d="M51.119 92.0476C51.1333 92.3333 51.4238 92.5048 52.3143 92.4571C53.1286 92.4143 53.3238 92.2762 53.3095 92.0619C53.2952 91.8143 53.1428 91.781 52.1333 91.7667C50.7571 91.7429 50.1333 91.5 50.0952 90.7476C50.0571 90.0429 50.8047 89.681 51.9762 89.6238C53.2809 89.5571 54.0524 89.9095 54.119 90.6619L53.0952 90.7143C53.0809 90.4143 52.7476 90.3191 51.9857 90.3571C51.2666 90.3952 51.1095 90.5238 51.119 90.7048C51.1285 90.9143 51.2952 90.9714 52.219 91C53.4666 91.0286 54.2809 91.0714 54.3285 91.9619C54.3714 92.8286 53.5857 93.1238 52.3809 93.1857C51.0095 93.2571 50.1762 92.9857 50.0857 92.0952L51.1143 92.0429L51.119 92.0476Z" fill="white"/>
<path d="M55.7428 92.0429L56.6809 91.9048L56.7857 92.6333L55.8476 92.7714L55.738 92.0429H55.7428Z" fill="white"/>
<path d="M59.4811 88.5381C60.6953 88.2429 61.5096 88.5952 61.8144 89.419L60.8001 89.6667C60.662 89.3762 60.2906 89.2 59.6811 89.3476C58.9763 89.5191 58.7192 89.9476 58.8572 90.5286C59.0001 91.1095 59.4334 91.3762 60.1334 91.2048C60.743 91.0571 60.9906 90.7238 60.9763 90.3952L61.9906 90.1476C62.1001 91.0238 61.543 91.719 60.3287 92.0143C59.0049 92.3381 58.1287 91.9 57.8525 90.7714C57.5763 89.6476 58.1525 88.8619 59.4763 88.5381H59.4811Z" fill="white"/>
<path d="M63.1524 89.3952C62.7382 88.3476 63.2191 87.4476 64.5477 86.9238C65.8715 86.4 66.8429 86.7333 67.2524 87.7762C67.6667 88.8238 67.1858 89.7333 65.862 90.2571C64.5334 90.7809 63.5667 90.4476 63.1524 89.3952ZM66.3001 88.1524C66.0858 87.6048 65.6382 87.3905 64.8572 87.7C64.081 88.0048 63.8953 88.4619 64.1143 89.0143C64.3334 89.5714 64.7858 89.7809 65.5572 89.4762C66.3334 89.1714 66.5191 88.7048 66.3001 88.1524Z" fill="white"/>
<path d="M69.3381 88.6905L67.6333 85.7571L68.9571 84.9857L71.1095 86.3381L70.9952 83.8L72.319 83.0286L74.0238 85.9619L73.1762 86.4524L71.9428 84.3286L72.0762 87.0952L71.2904 87.5524L68.9524 86.0714L70.1904 88.1952L69.3381 88.6905Z" fill="white"/>
<path d="M23.019 81.8381C13.9952 74.181 8.2666 62.7571 8.2666 50C8.2666 37.2429 14.2999 25.2143 23.738 17.5619" stroke="white" stroke-miterlimit="10"/>
<path d="M76.2666 17.5667C85.7047 25.219 91.7333 36.9048 91.7333 50C91.7333 63.0952 86.0047 74.1857 76.9809 81.8429" stroke="white" stroke-miterlimit="10"/>
</g>
<defs>
<clipPath id="clip0_1124_13865">
<rect width="100" height="100" fill="white"/>
</clipPath>
</defs>
</svg>
