<svg xmlns="http://www.w3.org/2000/svg" width="64" height="64" viewBox="0 0 64 64"><g transform="translate(-93 -78)"><circle cx="32" cy="32" r="32" transform="translate(93 78)" fill="#005f9b"/><g transform="translate(108.515 86.533)"><path d="M1282.51,747.846c0-8.763,7.429-15.868,16.6-15.868s16.591,7.1,16.591,15.868-7.429,15.867-16.591,15.867-16.6-7.105-16.6-15.867" transform="translate(-1282.51 -716.68)" fill="#dc1620"/><path d="M1288.517,778.691a.7.7,0,1,1,.69.549.631.631,0,0,1-.69-.549" transform="translate(-1286.522 -747.51)" fill="#fac600"/><path d="M1371.467,778.691a.7.7,0,1,1,.686.549.628.628,0,0,1-.686-.549" transform="translate(-1341.919 -747.51)" fill="#fac600"/><path d="M1294.8,756.663l-.653.134a.647.647,0,0,1-.037.681c-.234.355-.724.252-1.094.05s-.708-.566-.54-.953a.651.651,0,0,1,.514-.416l-.191-.6a1.274,1.274,0,0,0-.9.695,1.5,1.5,0,0,0,.763,1.907,1.476,1.476,0,0,0,2.023-.366,1.291,1.291,0,0,0,.115-1.132" transform="translate(-1288.693 -732.429)" fill="#fac600"/><path d="M1299.491,748.645a.794.794,0,0,1,.149,1.107l-.2.209-1.185-1.151.2-.206a.754.754,0,0,1,1.04.04m.505-.523a1.463,1.463,0,0,0-2.024.02l-.7.724,2.149,2.071.694-.721a1.476,1.476,0,0,0-.12-2.093" transform="translate(-1292.37 -727.197)" fill="#fac600"/><path d="M1350.664,743.945l1.582-2.533-.6-.381-.9,1.437.028-1.976-.606-.382-1.581,2.529.61.38.894-1.432-.028,1.976Z" transform="translate(-1326.637 -722.111)" fill="#fac600"/><path d="M1340.374,738.941l-.518-.131.472-.79Zm.8,1.342-.331-3.092-.59-.149-1.745,2.575.656.331.325-.541.916.231.035.627Z" transform="translate(-1319.911 -720.062)" fill="#fac600"/><path d="M1332.27,736.81c0,.255-.271.4-.522.4h-.116v-.806h.116c.251,0,.522.15.522.4m.724,0a1.172,1.172,0,0,0-1.246-1.07h-.831v2.985h.715v-.846h.116a1.168,1.168,0,0,0,1.246-1.069" transform="translate(-1314.838 -719.193)" fill="#fac600"/><path d="M1323.067,738.289c-.087-.444-.439-.641-.876-.763l-.209-.056c-.22-.061-.4-.093-.389-.271a.243.243,0,0,1,.183-.234.444.444,0,0,1,.446.065l.32-.561a1.034,1.034,0,0,0-.9-.155.951.951,0,0,0-.75,1.028c.092.485.52.643.992.785l.176.056c.147.048.282.1.309.25a.306.306,0,0,1-.207.341.422.422,0,0,1-.525-.173l-.344.584a1.134,1.134,0,0,0,1.012.243.987.987,0,0,0,.766-1.139" transform="translate(-1308.133 -719.55)" fill="#fac600"/><path d="M1313.64,741.422l-.269-.605-.976.432-.234-.518.8-.351-.269-.608-.8.352-.171-.382.931-.414-.273-.609-1.583.709,1.217,2.724Z" transform="translate(-1301.401 -721.181)" fill="#fac600"/><path d="M1361.71,748.837l-.309-.667-1.386.4.5-1.357-.646-.357-.586,1.9-.828.771.5.531.824-.772Z" transform="translate(-1333.228 -726.617)" fill="#fac600"/><path d="M1366.278,758.448c-.427.246-.893.321-1.108-.05s.083-.735.513-.985.894-.321,1.107.051-.082.733-.512.984m.361.627a1.343,1.343,0,1,0-2.036-.347,1.476,1.476,0,0,0,2.036.347" transform="translate(-1337.232 -733.08)" fill="#fac600"/><path d="M1368.393,769.331l.647-.161-.256-1.012,2.249-.56-.171-.7-2.9.721Z" transform="translate(-1339.581 -740.003)" fill="#fac600"/><path d="M1289.37,787.485a.8.8,0,0,1-1.018-.461l-.07-.281,1.6-.4.072.279a.756.756,0,0,1-.585.863m.176.7a1.463,1.463,0,0,0,1.056-1.723l-.244-.977-2.894.72.243.973a1.469,1.469,0,0,0,1.838,1.006" transform="translate(-1285.819 -752.416)" fill="#fac600"/><path d="M1292.419,797.768l.582-.323-.518-.935.5-.275.422.764.581-.323-.42-.76.367-.206.492.892.583-.326-.839-1.512-2.612,1.443Z" transform="translate(-1288.549 -758.611)" fill="#fac600"/><path d="M1303,807.181c-.128.161-.334.095-.576-.089l-.087-.072.346-.446.092.07c.255.2.351.375.225.536m.6-.97c-.093.122-.227.115-.448-.054l-.085-.064.289-.37.079.059c.221.176.257.317.166.429m-.074,1.467a.757.757,0,0,0,0-.9.689.689,0,0,0,.74-.239c.322-.41.024-.936-.424-1.289l-.638-.494-1.836,2.352.695.535c.483.382,1.118.488,1.468.036" transform="translate(-1295.097 -765.283)" fill="#fac600"/><path d="M1311.929,812.773l-.489-.219.6-.7Zm.56,1.461.212-3.1-.554-.245-2.165,2.233.592.434.412-.471.864.383-.077.624Z" transform="translate(-1300.857 -769.379)" fill="#fac600"/><path d="M1323.317,814.485c-.032.207-.283.286-.494.254l-.112-.017.1-.659.114.015c.331.054.424.189.39.406m.737,1.906-.644-1.07a.944.944,0,0,0,.625-.726,1.108,1.108,0,0,0-1.007-1.175l-.819-.125-.466,2.945.708.113.152-.973.111.016.662,1.2Z" transform="translate(-1308.713 -770.987)" fill="#fac600"/><path d="M1334.273,816.521l-.467-.476a.634.634,0,0,1-.587.339c-.423,0-.609-.475-.639-.895s.09-.9.508-.97a.632.632,0,0,1,.625.208l.4-.489a1.259,1.259,0,0,0-1.076-.372,1.5,1.5,0,0,0-1.182,1.673,1.475,1.475,0,0,0,1.4,1.5,1.283,1.283,0,0,0,1.012-.52" transform="translate(-1315.463 -771.365)" fill="#fac600"/><path d="M1343.619,814.76l-.192-.64-1.022.315-.168-.544.834-.252-.194-.637-.835.257-.119-.4.974-.3-.2-.633-1.657.5.87,2.857Z" transform="translate(-1321.6 -770.072)" fill="#fac600"/><path d="M1358.346,804.616c.345.354.53.789.222,1.083s-.733.1-1.075-.257-.534-.788-.228-1.085.734-.1,1.081.258m.523-.51a1.347,1.347,0,1,0,.155,2.067,1.476,1.476,0,0,0-.155-2.067" transform="translate(-1331.896 -764.484)" fill="#fac600"/><path d="M1352.27,811.51l-.323-.58-.909.507-1.123-2.026-.632.347,1.454,2.608Z" transform="translate(-1327.104 -768.393)" fill="#fac600"/><path d="M1369.749,786.623l-.113.527-.808-.449m2.237-.924-3.083.435-.126.592,2.635,1.653.3-.666-.55-.3.2-.925.628-.055Z" transform="translate(-1339.509 -752.61)" fill="#fac600"/><path d="M1366.483,794.933l-2.611-1.446-.345.628,1.479.818-1.973.075-.351.626,2.611,1.444.348-.624-1.482-.819,1.978-.076Z" transform="translate(-1336.053 -757.758)" fill="#fac600"/><path d="M1288.271,767.015c.209.046.271.3.226.511l-.027.108-.648-.147.024-.112c.074-.324.22-.408.425-.36m1.957-.6-1.109.565a.942.942,0,0,0-.683-.674,1.1,1.1,0,0,0-1.236.917l-.189.809,2.908.673.161-.7-.96-.222.023-.108,1.244-.581Z" transform="translate(-1285.515 -739.591)" fill="#fac600"/><path d="M1299.491,759.162c0-5.649,4.907-10.233,10.958-10.233s10.951,4.584,10.951,10.233-4.9,10.23-10.951,10.23-10.958-4.58-10.958-10.23" transform="translate(-1293.851 -728.001)" fill="#fff"/><path d="M1320.585,694.9a4.491,4.491,0,0,1-.214,1c-.007.029-.022.054-.032.083s-.025.072-.032.1c-.02.049-.028.082-.042.122s-.037.078-.054.116a.744.744,0,0,1-.054.137c-.021.049-.043.094-.063.147s-.057.105-.084.158-.063.115-.093.171-.072.131-.107.2a6.362,6.362,0,0,1-.366.55,1.452,1.452,0,0,0-.4,1.052,1.862,1.862,0,0,0-1.024.316c-.085.058-.154.157-.235.213,0,.005-.023.009-.033.008a.22.22,0,0,0-.007-.033s.01-.02.007-.028c-.007-.056-.018-.134-.029-.192a1.109,1.109,0,0,0-.294-.544,1.907,1.907,0,0,0-.227-.2c-.168-.126-.13-.076,0-.206a3.622,3.622,0,0,0,.509-.962,9.43,9.43,0,0,0,.857-2.86,4.781,4.781,0,0,0,.021-1.194,2.465,2.465,0,0,1,.5-.079,1.388,1.388,0,0,1,1.219.535,1.458,1.458,0,0,1,.14.188,2.01,2.01,0,0,1,.143,1.011,1.7,1.7,0,0,1-.005.192m-4.576,1.162c-.1.237-.207.474-.311.708a2.188,2.188,0,0,0-.284.79,1.6,1.6,0,0,0,.062.429,1.55,1.55,0,0,0-1.045.761,1.566,1.566,0,0,0-.9-.915,1.211,1.211,0,0,0,.191-.48,3.746,3.746,0,0,0,.012-.521V692.2a2.922,2.922,0,0,1,1.063-.309,1.686,1.686,0,0,1,1.269.375,1.323,1.323,0,0,1,.4.528c.373.945-.166,2.564-.462,3.272m-4.916,2.609c-.012.037-.02.069-.031.113a1.378,1.378,0,0,1-.144-.2,1.6,1.6,0,0,0-.935-.559,1.578,1.578,0,0,0-.218-1.236c-.121-.257-.252-.524-.35-.8-.574-1.546-1.191-3.891,1.046-4.069a2.672,2.672,0,0,1,1.266.3c.037.375.008.81.008,1.2v2.73a8.427,8.427,0,0,0,.015,1.28,1.189,1.189,0,0,0,.184.423,1.456,1.456,0,0,0-.842.811m-2.823-.34a1.294,1.294,0,0,0-.262.257,1.069,1.069,0,0,0-.268.737,2.22,2.22,0,0,0-.73-.443,3.9,3.9,0,0,0-.553-.106,1.313,1.313,0,0,0-.354-.99,6.508,6.508,0,0,1-.388-.583,6.262,6.262,0,0,1-.479-.974,3.448,3.448,0,0,1-.109-2.534,1.356,1.356,0,0,1,1.134-.668,2,2,0,0,1,.646.083,4.353,4.353,0,0,0,.015,1.127,10.017,10.017,0,0,0,.88,2.966,3.428,3.428,0,0,0,.444.876,2.113,2.113,0,0,0,.16.159c-.051.03-.089.06-.135.092m14.356-4.224a3.835,3.835,0,0,0-.28-1.054,3.306,3.306,0,0,0-.458-.77A3.2,3.2,0,0,0,1319.77,691a3.617,3.617,0,0,0-1.3.032c-.095.018-.555.2-.6.184a2.674,2.674,0,0,1-.185-.232,3.1,3.1,0,0,0-.5-.463,3.406,3.406,0,0,0-2.276-.657c-.289.026-.541.1-.8.137.005-.092.016-.188.02-.291v-.048c0-.034,0-.07-.006-.1a.118.118,0,0,1,0-.035.2.2,0,0,0-.005-.04c0-.012-.005-.022-.006-.033a1.7,1.7,0,0,0-.04-.175.2.2,0,0,0-.013-.036.884.884,0,0,0-.06-.148.655.655,0,0,0-.03-.067c-.026-.045-.054-.094-.084-.139a.267.267,0,0,0-.036-.048,1.234,1.234,0,0,0-.086-.108c-.012-.008-.017-.019-.03-.028a1.42,1.42,0,0,0-.623-.383v-.794h.8v-.8h-.8v-.8h-.8v.8h-.8v.8h.8v.794l-.023.009a1.311,1.311,0,0,0-.32.15.253.253,0,0,0-.045.025,1.131,1.131,0,0,0-.177.142,1.413,1.413,0,0,0-.4.653,1.39,1.39,0,0,0-.028.738,5.817,5.817,0,0,0-.984-.132,3.242,3.242,0,0,0-2.129.74c-.219.185-.392.425-.6.62l-.01.016c-.041.011-.128-.05-.164-.064a3.51,3.51,0,0,0-.507-.146c-.184-.027-.354-.032-.528-.056h-.013a2.156,2.156,0,0,0-.614.048c-.075.015-.141.021-.212.032a3.424,3.424,0,0,0-2.593,2.725,3.553,3.553,0,0,0-.055.92,7.834,7.834,0,0,0,1.108,3.414,3.233,3.233,0,0,0,.911,1.223,1.508,1.508,0,0,0-.182.287,1.231,1.231,0,0,0-.018.824c.316.929,1.771,1.165,2.656.637a1.23,1.23,0,0,0,.668-1.077,2.058,2.058,0,0,0,2.924-.159,1.971,1.971,0,0,0,.169-.383,1.731,1.731,0,0,0,.33.414,2.2,2.2,0,0,0,2.525,0,1.548,1.548,0,0,1,2.882.462,2.188,2.188,0,0,0,.563-.379c0,.91.97,1.446,1.926,1.354a1.979,1.979,0,0,0,1.139-.489,1.121,1.121,0,0,0,.3-1.213,3.279,3.279,0,0,0-.2-.341,1.836,1.836,0,0,0,.585-.673,9.66,9.66,0,0,0,1.027-2.05,5.987,5.987,0,0,0,.41-2.482" transform="translate(-1296.125 -685.921)" fill="#fac600"/><path d="M1310.324,707.329a1.356,1.356,0,0,0-1.134.668,3.45,3.45,0,0,0,.11,2.534,6.343,6.343,0,0,0,.478.974,6.767,6.767,0,0,0,.389.583,1.315,1.315,0,0,1,.354.989,3.785,3.785,0,0,1,.554.106,2.234,2.234,0,0,1,.73.443,1.067,1.067,0,0,1,.267-.737,1.314,1.314,0,0,1,.262-.257c.047-.032.084-.062.136-.092a2.247,2.247,0,0,1-.161-.159,3.446,3.446,0,0,1-.444-.876,10.005,10.005,0,0,1-.88-2.966,4.306,4.306,0,0,1-.015-1.127,2,2,0,0,0-.646-.083" transform="translate(-1300.189 -700.216)" fill="#dc1620"/><path d="M1336.191,703.881a2.915,2.915,0,0,0-1.063.309v4.638a3.666,3.666,0,0,1-.012.52,1.2,1.2,0,0,1-.191.48.985.985,0,0,0,1.943.154,1.616,1.616,0,0,1-.062-.429,2.187,2.187,0,0,1,.284-.79c.1-.235.209-.472.311-.708.3-.708.834-2.327.462-3.273a1.328,1.328,0,0,0-.4-.527,1.683,1.683,0,0,0-1.269-.375" transform="translate(-1317.514 -697.912)" fill="#dc1620"/><path d="M1322.49,704.007c-2.236.178-1.62,2.522-1.045,4.069.1.272.229.539.35.8a1.58,1.58,0,0,1,.218,1.236,1.6,1.6,0,0,1,.934.559,1.412,1.412,0,0,0,.144.2c.011-.044.019-.077.031-.113a1.457,1.457,0,0,1,.842-.811,1.2,1.2,0,0,1-.184-.422,8.459,8.459,0,0,1-.014-1.28v-2.73c0-.39.029-.825-.008-1.2a2.672,2.672,0,0,0-1.267-.3" transform="translate(-1308.153 -697.996)" fill="#dc1620"/><path d="M1347.622,707.155a2.468,2.468,0,0,0-.5.079,4.773,4.773,0,0,1-.021,1.195,9.458,9.458,0,0,1-.857,2.86,3.641,3.641,0,0,1-.509.962c-.13.13-.169.08,0,.205a1.921,1.921,0,0,1,.226.2,1.113,1.113,0,0,1,.295.543c.011.058.022.136.029.192,0,.008-.007.032-.007.032a.118.118,0,0,1,.007.028c.009,0,.03,0,.032-.008.081-.056.15-.155.235-.213a1.87,1.87,0,0,1,1.024-.315,1.453,1.453,0,0,1,.4-1.052,6.321,6.321,0,0,0,.366-.55c.036-.067.071-.133.107-.2s.062-.112.093-.171.057-.108.083-.158.043-.1.064-.147a.761.761,0,0,0,.054-.136c.017-.039.039-.074.053-.116s.023-.074.042-.122c.007-.031.022-.062.032-.1s.025-.053.032-.083a4.5,4.5,0,0,0,.214-1,1.585,1.585,0,0,0,0-.192,2.01,2.01,0,0,0-.143-1.011,1.522,1.522,0,0,0-.14-.188,1.39,1.39,0,0,0-1.219-.535" transform="translate(-1324.66 -700.098)" fill="#dc1620"/><path d="M1336.1,771.586a9.624,9.624,0,0,0-.9-4.055l-13.7,13.7a11.636,11.636,0,0,0,3.648.583,11.766,11.766,0,0,0,1.817-.143l9.08-9.081a9.607,9.607,0,0,0,.053-1.007" transform="translate(-1308.547 -740.424)" fill="#0e7bc0"/><path d="M1320.337,753.538,1305.674,768.2a10.759,10.759,0,0,0,3.154,2.749l14.657-14.656a10.74,10.74,0,0,0-3.148-2.755" transform="translate(-1297.979 -731.079)" fill="#0e7bc0"/><path d="M1310.448,748.929a11.79,11.79,0,0,0-1.8.14l-9.1,9.107a9.578,9.578,0,0,0,.85,5.052l13.712-13.712a11.6,11.6,0,0,0-3.656-.587" transform="translate(-1293.85 -728.001)" fill="#0e7bc0"/></g></g></svg>