<svg xmlns="http://www.w3.org/2000/svg" xmlns:xlink="http://www.w3.org/1999/xlink" width="64" height="64" viewBox="0 0 64 64"><defs><clipPath id="a"><path d="M0,0H35.429V42.244H0ZM0,0"/></clipPath></defs><g transform="translate(-8528.947 -692.496)"><circle cx="32" cy="32" r="32" transform="translate(8528.947 692.496)" fill="#006a11"/><g transform="translate(8543.232 706.33)"><g clip-path="url(#a)"><path d="M17.361,41.984c-1.347-.743-2.812-1.608-4.288-2.576-1.248-.818-2.513-1.717-3.734-2.687-.93-.738-1.838-1.522-2.685-2.342a23.272,23.272,0,0,1-2.3-2.558,19.165,19.165,0,0,1-1.239-1.843,23.233,23.233,0,0,1-1.1-2.085A21.717,21.717,0,0,1,.721,24.386a20.284,20.284,0,0,1-.6-3.355c-.089-.913-.09-3.2-.09-5.316v-.64L.024.735v-.79H35.459v.79L35.45,15.076v.64c0,2.113,0,4.4-.09,5.316a20.32,20.32,0,0,1-.6,3.355,21.717,21.717,0,0,1-1.294,3.506,23.234,23.234,0,0,1-1.1,2.085,19.166,19.166,0,0,1-1.239,1.843,23.238,23.238,0,0,1-2.3,2.558c-.847.82-1.755,1.6-2.685,2.342-1.221.97-2.486,1.869-3.734,2.687-1.477.969-2.941,1.833-4.288,2.576l-.379.209Zm0,0" transform="translate(-0.021 0.05)" fill="#006a0b" fill-rule="evenodd"/></g><path d="M26.278,49.854a57.8,57.8,0,0,1-7.912-5.19,28.275,28.275,0,0,1-4.853-4.76,20.579,20.579,0,0,1-2.246-3.781,19.5,19.5,0,0,1-1.825-6.6c-.1-.973-.086-3.631-.087-5.881L9.348,9.3h33.86L43.2,23.637c0,2.251.008,4.908-.087,5.881a19.5,19.5,0,0,1-1.825,6.6A20.56,20.56,0,0,1,39.042,39.9a28.275,28.275,0,0,1-4.853,4.76A57.82,57.82,0,0,1,26.278,49.854Zm0,0" transform="translate(-8.558 -8.512)" fill="#fefefe" fill-rule="evenodd"/><path d="M214.93,122.5c1.1-.623,2.26-1.324,3.437-2.1,1.22-.8,2.45-1.673,3.626-2.608.9-.716,1.774-1.468,2.577-2.245a21.854,21.854,0,0,0,2.161-2.4,17.735,17.735,0,0,0,1.142-1.7A21.767,21.767,0,0,0,228.9,109.5a20.293,20.293,0,0,0,1.208-3.272,18.843,18.843,0,0,0,.559-3.115c.083-.855.084-3.1.084-5.179V97.3l0-7.546H214.93Zm0,0" transform="translate(-196.778 -82.17)" fill="#006a0b" fill-rule="evenodd"/><path d="M223.859,129.371q.3-.181.613-.369.791-.483,1.657-1.049c.647-.424,1.273-.852,1.866-1.278q.843-.606,1.7-1.289c.452-.359.888-.719,1.3-1.079s.827-.736,1.219-1.116.771-.768,1.113-1.146.666-.766.975-1.169c.195-.255.379-.513.554-.773s.359-.553.538-.854.356-.618.518-.925.326-.64.475-.961c.259-.559.483-1.1.677-1.623s.353-1.028.488-1.528.244-.995.332-1.492c.091-.515.158-1.012.206-1.5.04-.408.06-1.162.07-2.067.011-.928.011-2.006.011-3.041v-.64l0-6.792h-14.32Zm0,0" transform="translate(-204.953 -90.346)" fill="#fff" fill-rule="evenodd"/><path d="M137.867,152.459a10.943,10.943,0,0,1-2.3-1.118,10.511,10.511,0,0,1-1.982-1.544,8.819,8.819,0,0,1-1.091-1.413,8.416,8.416,0,0,1-.771-1.581,6.666,6.666,0,0,1-.356-1.585,16.99,16.99,0,0,1-.07-1.8h0V133.77h1.489v1.138h.865V133.77h1.49v1.138h.864V133.77h1.49v1.138h.865V133.77h1.49v1.138h.865V133.77h1.49v1.138h.864V133.77h1.489v9.644h0a16.99,16.99,0,0,1-.07,1.8,6.645,6.645,0,0,1-.356,1.585,8.426,8.426,0,0,1-.771,1.581,8.837,8.837,0,0,1-1.091,1.414,10.507,10.507,0,0,1-1.982,1.543,10.935,10.935,0,0,1-2.3,1.118l-.065.02Zm0,0" transform="translate(-120.212 -122.472)" fill="#006a0b" fill-rule="evenodd"/><path d="M29.69,120.407c1.177.772,2.341,1.474,3.437,2.1V89.75H17.3l0,7.546v.64c0,2.075,0,4.324.084,5.179a18.844,18.844,0,0,0,.559,3.115,20.3,20.3,0,0,0,1.208,3.272,21.768,21.768,0,0,0,1.028,1.954,17.736,17.736,0,0,0,1.142,1.7,21.824,21.824,0,0,0,2.161,2.4c.8.777,1.676,1.529,2.576,2.245C27.24,118.734,28.47,119.607,29.69,120.407Zm0,0" transform="translate(-15.84 -82.17)" fill="#006a0b" fill-rule="evenodd"/><path d="M19.8,21.583H20.9a2.755,2.755,0,0,1,.793.086.793.793,0,0,1,.435.349,1.648,1.648,0,0,1,.165.848.952.952,0,0,1-.117.551.8.8,0,0,1-.462.239.816.816,0,0,1,.521.305,1.237,1.237,0,0,1,.137.653v.418a1.73,1.73,0,0,1-.1.676.543.543,0,0,1-.314.3,3.042,3.042,0,0,1-.884.081H19.8Zm1.109.771v1l.111,0c.109,0,.178-.029.208-.085a1.468,1.468,0,0,0,.045-.485.835.835,0,0,0-.037-.3.182.182,0,0,0-.1-.107A.785.785,0,0,0,20.906,22.354Zm0,1.7v1.261a.448.448,0,0,0,.3-.078.567.567,0,0,0,.065-.342v-.42a.62.62,0,0,0-.058-.35A.494.494,0,0,0,20.906,24.058Zm4.685.164q0,.68-.029.961a1.122,1.122,0,0,1-.19.517,1.035,1.035,0,0,1-.431.359,1.493,1.493,0,0,1-.631.125,1.528,1.528,0,0,1-.615-.119,1.014,1.014,0,0,1-.438-.354,1.112,1.112,0,0,1-.2-.515q-.031-.28-.031-.975v-.771c0-.453.01-.773.03-.962a1.1,1.1,0,0,1,.19-.516,1.029,1.029,0,0,1,.431-.359,1.489,1.489,0,0,1,.631-.125,1.528,1.528,0,0,1,.615.119,1.02,1.02,0,0,1,.438.354,1.1,1.1,0,0,1,.2.515c.021.186.031.51.031.975Zm-1.107-1.48a1.451,1.451,0,0,0-.033-.4.13.13,0,0,0-.135-.087.148.148,0,0,0-.133.071,1.037,1.037,0,0,0-.047.419v2.1a2.2,2.2,0,0,0,.03.485.132.132,0,0,0,.141.092.137.137,0,0,0,.144-.105,2.382,2.382,0,0,0,.032-.5Zm1.806-1.158h.829a4.87,4.87,0,0,1,1.085.078.824.824,0,0,1,.43.256.832.832,0,0,1,.185.4,6.343,6.343,0,0,1,.037.859v1.578a3.789,3.789,0,0,1-.055.812.616.616,0,0,1-.188.32.781.781,0,0,1-.332.162,2.867,2.867,0,0,1-.595.046h-1.4Zm1.109.771v2.964c.159,0,.258-.033.295-.1a1.577,1.577,0,0,0,.055-.553V22.913a2.611,2.611,0,0,0-.018-.392.186.186,0,0,0-.084-.126A.522.522,0,0,0,27.4,22.354Zm2.156-.771h.785a5.666,5.666,0,0,1,1.062.064.734.734,0,0,1,.453.327,1.555,1.555,0,0,1,.175.84,1.374,1.374,0,0,1-.124.707.631.631,0,0,1-.487.217.822.822,0,0,1,.443.232.7.7,0,0,1,.14.265,4.384,4.384,0,0,1,.028.667V26.09H31v-1.5a1.084,1.084,0,0,0-.055-.448c-.036-.057-.13-.086-.282-.086V26.09H29.553Zm1.109.771v1a.467.467,0,0,0,.261-.054c.05-.036.076-.154.076-.352V22.7a.39.39,0,0,0-.073-.281A.4.4,0,0,0,30.662,22.354Zm4.6-.771V24.6a5.563,5.563,0,0,1-.032.719,1.008,1.008,0,0,1-.187.426.973.973,0,0,1-.41.332,1.464,1.464,0,0,1-.6.113,1.594,1.594,0,0,1-.674-.134,1.031,1.031,0,0,1-.437-.348,1,1,0,0,1-.171-.452q-.027-.238-.026-1V21.583h1.108v3.379a1.372,1.372,0,0,0,.031.377.117.117,0,0,0,.122.082.129.129,0,0,0,.136-.09,1.823,1.823,0,0,0,.03-.428V21.583Zm4.133,0V26.09h-.969V23.047l-.387,3.042H37.35l-.408-2.973V26.09h-.969V21.583h1.435q.063.406.134.958l.153,1.147.252-2.1Zm3.077,1.363H41.442v-.334a.7.7,0,0,0-.04-.3.142.142,0,0,0-.132-.064.164.164,0,0,0-.151.086.521.521,0,0,0-.051.261.775.775,0,0,0,.058.34.865.865,0,0,0,.313.275,3.2,3.2,0,0,1,.932.762,1.828,1.828,0,0,1,.192.961,1.772,1.772,0,0,1-.107.71.854.854,0,0,1-.411.383,1.562,1.562,0,0,1-.711.155,1.517,1.517,0,0,1-.759-.179.852.852,0,0,1-.412-.453,2.466,2.466,0,0,1-.1-.783v-.295h1.029v.548a.764.764,0,0,0,.043.326.168.168,0,0,0,.154.072.177.177,0,0,0,.165-.092.548.548,0,0,0,.054-.273.888.888,0,0,0-.1-.521,3.315,3.315,0,0,0-.519-.408,5.267,5.267,0,0,1-.548-.421,1,1,0,0,1-.222-.362,1.67,1.67,0,0,1-.088-.59A1.72,1.72,0,0,1,40.156,22a.856.856,0,0,1,.4-.374,1.543,1.543,0,0,1,.674-.135,1.676,1.676,0,0,1,.736.147.79.79,0,0,1,.4.372,2.087,2.087,0,0,1,.1.761Zm.725-1.363h1.116a2.468,2.468,0,0,1,.7.075.7.7,0,0,1,.532.561,3.279,3.279,0,0,1,.043.625v.392a1.73,1.73,0,0,1-.083.629.6.6,0,0,1-.31.3,1.389,1.389,0,0,1-.588.106h-.3V26.09H43.2Zm1.109.771V23.5l.081,0a.25.25,0,0,0,.212-.079.613.613,0,0,0,.059-.33v-.37a.449.449,0,0,0-.068-.3A.41.41,0,0,0,44.3,22.354Zm4.414,1.868q0,.68-.03.961a1.118,1.118,0,0,1-.189.517,1.035,1.035,0,0,1-.431.359,1.493,1.493,0,0,1-.631.125,1.528,1.528,0,0,1-.615-.119,1.014,1.014,0,0,1-.438-.354,1.108,1.108,0,0,1-.2-.515q-.031-.28-.031-.975v-.771c0-.453.01-.773.03-.962a1.1,1.1,0,0,1,.19-.516,1.03,1.03,0,0,1,.43-.359,1.492,1.492,0,0,1,.632-.125,1.528,1.528,0,0,1,.615.119,1.02,1.02,0,0,1,.438.354,1.1,1.1,0,0,1,.2.515c.021.186.031.51.031.975Zm-1.107-1.48a1.451,1.451,0,0,0-.033-.4.13.13,0,0,0-.135-.087.148.148,0,0,0-.133.071,1.037,1.037,0,0,0-.047.419v2.1a2.205,2.205,0,0,0,.03.485.132.132,0,0,0,.141.092.137.137,0,0,0,.144-.105,2.382,2.382,0,0,0,.032-.5Zm1.806-1.158H50.2a5.666,5.666,0,0,1,1.062.064.734.734,0,0,1,.453.327,1.555,1.555,0,0,1,.175.84,1.374,1.374,0,0,1-.124.707.631.631,0,0,1-.487.217.822.822,0,0,1,.443.232.7.7,0,0,1,.14.265,4.384,4.384,0,0,1,.028.667V26.09H50.863v-1.5a1.084,1.084,0,0,0-.055-.448c-.036-.057-.13-.086-.282-.086V26.09H49.417Zm1.109.771v1a.467.467,0,0,0,.261-.054c.05-.036.076-.154.076-.352V22.7a.39.39,0,0,0-.073-.281A.4.4,0,0,0,50.526,22.354Zm0,0" transform="translate(-18.125 -19.673)" fill="#006a0b" fill-rule="evenodd"/><path d="M128.248,352.409l-.8,5.078-1.2-.19.431-2.722a5.03,5.03,0,0,0,.085-.713.267.267,0,0,0-.118-.2,1.46,1.46,0,0,0-.526-.146l-.118-.019.094-.592a2.188,2.188,0,0,0,1.449-.6Zm.2,3.853,1.2.19c-.037.237-.059.386-.063.449a.248.248,0,0,0,.048.167.238.238,0,0,0,.163.09.209.209,0,0,0,.161-.035.238.238,0,0,0,.091-.144c.015-.061.037-.188.067-.378l.128-.809a.628.628,0,0,1-.315.263.877.877,0,0,1-.458.033.955.955,0,0,1-.551-.28.827.827,0,0,1-.249-.5,2.994,2.994,0,0,1,.045-.722l.064-.4a5.835,5.835,0,0,1,.165-.787,1.073,1.073,0,0,1,.8-.72,1.8,1.8,0,0,1,.7-.014,1.925,1.925,0,0,1,.766.266,1.1,1.1,0,0,1,.414.481,1.247,1.247,0,0,1,.107.588c-.013.2-.063.575-.152,1.134l-.112.705q-.144.908-.216,1.208a1.2,1.2,0,0,1-.3.547,1.134,1.134,0,0,1-.559.331,1.8,1.8,0,0,1-.743.023,1.776,1.776,0,0,1-.8-.3,1.032,1.032,0,0,1-.386-.559A1.962,1.962,0,0,1,128.444,356.262Zm1.449-1.394a.627.627,0,0,0,.016.407.236.236,0,0,0,.15.1.2.2,0,0,0,.2-.066.827.827,0,0,0,.117-.366l.145-.92a1.129,1.129,0,0,0,.015-.448.193.193,0,0,0-.166-.133.238.238,0,0,0-.173.055c-.064.045-.114.184-.151.418Zm0,0" transform="translate(-115.359 -322.544)" fill="#fff" fill-rule="evenodd"/><path d="M227.512,353.275a.761.761,0,0,1,.447.271,2.483,2.483,0,0,1,.262,1.025,2.706,2.706,0,0,1-.016.961.968.968,0,0,1-.39.565,1.725,1.725,0,0,1-.8.277,1.706,1.706,0,0,1-.923-.093.971.971,0,0,1-.49-.445,3.507,3.507,0,0,1-.229-1.01l-.049-.4,1.2-.148.1.829a1.449,1.449,0,0,0,.089.416.161.161,0,0,0,.177.069.179.179,0,0,0,.17-.136,2.207,2.207,0,0,0-.028-.6l-.043-.353a1.094,1.094,0,0,0-.114-.421.321.321,0,0,0-.207-.156,1.8,1.8,0,0,0-.48.01l-.091-.741a2.37,2.37,0,0,0,.527-.1.239.239,0,0,0,.127-.17,1.081,1.081,0,0,0,0-.371l-.035-.283a.778.778,0,0,0-.1-.346.178.178,0,0,0-.173-.066.175.175,0,0,0-.16.111,1.01,1.01,0,0,0,0,.389l.051.42-1.2.148-.053-.436a1.24,1.24,0,0,1,.194-1.026,1.6,1.6,0,0,1,.973-.38,1.515,1.515,0,0,1,1.212.213,1.479,1.479,0,0,1,.429.952,1.3,1.3,0,0,1-.035.633A1.006,1.006,0,0,1,227.512,353.275Zm2.882-2.6.626,5.1-1.2.148-.336-2.736a5.02,5.02,0,0,0-.115-.709.267.267,0,0,0-.17-.164,1.469,1.469,0,0,0-.546,0l-.119.015-.073-.6a2.186,2.186,0,0,0,1.226-.979Zm0,0" transform="translate(-206.054 -321.059)" fill="#006a0b" fill-rule="evenodd"/><path d="M140.267,154.589a11.978,11.978,0,0,1-4.186-2.6,8.517,8.517,0,0,1-1.815-2.918,9.229,9.229,0,0,1-.413-3.317V136.32h1.059v1.138h1.3V136.32h1.059v1.138h1.3V136.32h1.059v1.138h1.3V136.32h1.059v1.138h1.3V136.32h1.059v1.138h1.3V136.32h1.059v9.429a9.222,9.222,0,0,1-.413,3.317,8.512,8.512,0,0,1-1.815,2.919A11.966,11.966,0,0,1,140.267,154.589Zm0,0" transform="translate(-122.547 -124.807)" fill="#fefefe" fill-rule="evenodd"/><path d="M149.272,160.712a14.735,14.735,0,0,1-5.557,1.669c-.015-.223-.023-.46-.028-.715a13.151,13.151,0,0,0,2.556-.482l-.923-6.141c-.083-.547.329-.824.848-.824h2.215v-.612a.6.6,0,0,1,.618-.6h.541a.6.6,0,0,1,.618.6v.612h2.215c.519,0,.931.278.848.825l-.923,6.141a13.174,13.174,0,0,0,2.556.482c0,.255-.013.492-.028.715A14.733,14.733,0,0,1,149.272,160.712Zm0,0" transform="translate(-131.552 -140.089)" fill="#006a0b" fill-rule="evenodd"/><path d="M165.516,291.938a14.5,14.5,0,0,1-3.555,1.325l-.035-.036a7.6,7.6,0,0,1-.5-.579,16.089,16.089,0,0,0,4.086-1.437,16.081,16.081,0,0,0,4.086,1.437,7.6,7.6,0,0,1-.5.579l-.035.036A14.513,14.513,0,0,1,165.516,291.938Zm0,0" transform="translate(-147.796 -266.617)" fill="#006a0b" fill-rule="evenodd"/><path d="M156.046,272.445a14.216,14.216,0,0,1-4.96,1.61c.11.228.233.455.368.678a13.721,13.721,0,0,0,4.591-1.53,13.716,13.716,0,0,0,4.591,1.53c.136-.223.259-.45.368-.678A14.219,14.219,0,0,1,156.046,272.445Zm0,0" transform="translate(-138.326 -249.436)" fill="#006a0b" fill-rule="evenodd"/><path d="M150.624,254.593a15.879,15.879,0,0,1-5.276,1.666,5.315,5.315,0,0,1-.184-.733,14,14,0,0,0,5.46-1.67,14,14,0,0,0,5.46,1.67,5.356,5.356,0,0,1-.184.732A15.875,15.875,0,0,1,150.624,254.593Zm0,0" transform="translate(-132.904 -232.416)" fill="#006a0b" fill-rule="evenodd"/><path d="M176.546,180.871a1.092,1.092,0,0,0,.522-.654l.9-2.144c.164-.392-.042-.578-.395-.577l-1.284,0c-.178,0-.216.2-.2.335Zm4.783,0a1.091,1.091,0,0,1-.522-.654l-.9-2.144c-.165-.392.042-.578.395-.577l1.284,0c.178,0,.216.2.2.335Zm0,0" transform="translate(-161.217 -162.506)" fill="#fff" fill-rule="evenodd"/></g></g></svg>