<svg xmlns="http://www.w3.org/2000/svg" id="Layer_10" viewBox="0 0 1500 1500"><defs><style>.cls-1{fill:#0033a1;}.cls-2{fill:#ffa400;}.cls-3{fill:#fff;}</style></defs><g><circle class="cls-1" cx="750" cy="750" r="750"></circle><path class="cls-2" d="M750,1474.64c-97.82,0-192.72-19.16-282.07-56.95-86.29-36.5-163.79-88.75-230.33-155.29-66.54-66.54-118.79-144.04-155.29-230.33-37.79-89.35-56.95-184.25-56.95-282.07s19.16-192.72,56.95-282.07c36.5-86.29,88.75-163.79,155.29-230.33,66.54-66.54,144.04-118.79,230.33-155.29,89.35-37.79,184.25-56.95,282.07-56.95s192.72,19.16,282.07,56.95c86.29,36.5,163.79,88.75,230.33,155.29s118.79,144.04,155.29,230.33c37.79,89.35,56.95,184.25,56.95,282.07s-19.16,192.72-56.95,282.07c-36.5,86.29-88.75,163.79-155.29,230.33-66.54,66.54-144.04,118.79-230.33,155.29-89.35,37.79-184.25,56.95-282.07,56.95Zm0-1415.29c-184.48,0-357.92,71.84-488.36,202.29C131.19,392.08,59.35,565.52,59.35,750s71.84,357.92,202.29,488.36c130.45,130.45,303.88,202.29,488.36,202.29s357.92-71.84,488.36-202.29c130.45-130.45,202.29-303.88,202.29-488.36s-71.84-357.92-202.29-488.36c-130.45-130.45-303.88-202.29-488.36-202.29Z"></path></g><g><polygon class="cls-3" points="1073.8 1237.96 1073.8 262.09 426.2 262.04 426.2 1237.89 1073.8 1237.96"></polygon><path class="cls-3" d="M665.81,817.22c-2.48-1.91-6.76-2.79-10.89-3.54-3.85-.77-7.88-1.54-10.79-3.24-6.16-3.72-11.36-11.7-15.91-18.81-.64-.91-1.18-1.9-1.9-2.84-3.34,.44-6.8,1.01-9.96,1.54l-.91,.15v1.53c.85,.25,1.52,.6,1.91,1.1,1.1,1.36,2.22,2.77,3.4,4.2,10.01,12.69,21.37,27.01,37.5,28.38l.54,.07v-.18l.57,.11c6.77,1.39,13.36,4.87,18.87,9.54-3.52-7.24-7.13-13.8-12.42-18.01"></path><path class="cls-3" d="M879.27,797.32c1.07-1.43,2.18-2.84,3.34-4.21,.38-.49,1.04-.88,1.91-1.09v-1.53l-.99-.15c-3.08-.54-6.59-1.11-9.9-1.55-.67,.94-1.27,1.93-1.87,2.84-4.62,7.11-9.8,15.1-16.03,18.81-2.81,1.7-6.87,2.47-10.7,3.24-4.21,.75-8.46,1.63-10.9,3.54-5.28,4.17-8.73,10.78-12.22,17.93,5.43-4.69,12.02-8.06,18.73-9.45l.56-.11,.04,.18,.45-.06c16.13-1.37,27.54-15.69,37.57-28.38"></path><path class="cls-3" d="M676.59,779.12c-1.2-1.19-2.38-2.35-3.53-3.45-.17,.72-.84,1.48-2.19,1.48-1.47,0-36.12-16.89-42.85-25.76-2.79-3.76-2.85-12.81-2.85-12.9,0-4.17,1.92-12,6.99-16.31l.55-.47,.39,.58c1.2,1.6,2.14,3.14,3.46,5.53,.41,.61,.82,1.33,1.28,2.1,3.45-8.16,11.65-15.37,21.23-21.04,4.91-2.95,10-5.41,15.28-7.45,0-.21,.03-.37,.09-.56l.13-.18c1.67-2.04,4.22-7.88,4.22-8.55,0-5.35-4.82-5.76-6.29-5.76-2.83,0-7.82,1.31-13.65,3.36-12.13,4.16-27.9,11.02-35.35,14.27-1.83,.82-3.14,1.42-3.68,1.64l-.7,.28c-.47,.37-1.17,1-1.93,1.79-5.41,8.56-9.87,16.68-9.87,20.45,0,2.14,1.09,3.21,2.38,4,.54,.21,.93,.45,1.33,.76,1.35,.82,2.75,1.74,2.75,3.64,0,1.13-1.04,2.66-2.58,4.89-2.78,4.1-7.05,10.4-7.05,17.82,0,9.51,7.78,21.66,16.6,21.66,.72,0,5.3-.49,9.32-.99,4.42-.49,8.69-.97,9.51-.97,24.07,0,39.66,5.46,45.64,31.84,.21-1.18,.79-3.5,1.65-7.01,.73-3.08,1.61-6.55,1.61-7.29,0-6.47-6.3-12.29-11.89-17.38"></path><path class="cls-3" d="M615.93,900.88s-.25,.03-.35,.03c-1.29,0-2.73-.37-4.38-1.02l-.57-.1,.17-.06c-12.2-5.37-31.06-26.58-31.06-36.8,0-1.12,.9-1.81,1.56-2.29,.66-.49,.96-.77,1.04-1.2-.08-.22-.28-.79-.56-1.64-2.76-8.74-6.5-20.83-6.5-25,0-3.49,.19-7.1,.54-10.61l-.15-.9c-.39-2.02-.46-4.45-.64-7.03-.42-9.16-.9-20.43-12.47-21.09l-.62-.05c-.7,4.49-1.1,9.18-1.37,13.7-.22,2.1-.33,4.24-.57,6.32l-.58,20.05c0,.59,.25,63.12,21.45,63.12h13.9c4.26,0,7.65,6.8,10.76,13.37,1.72,3.55,3.34,6.86,4.99,9.1l34.84-25.78c-7.88,5.22-15.88,9.18-23.07,9.18-.9,0-3.17-.55-6.36-1.3"></path><path class="cls-3" d="M860.42,778.97c.75,0,4.97,.48,9.45,.97,4.01,.5,8.62,.99,9.34,.99,8.82,0,16.61-12.14,16.61-21.66,0-7.43-4.23-13.72-7.1-17.82-1.52-2.23-2.52-3.76-2.52-4.89,0-1.77,1.13-2.68,2.4-3.41,.47-.53,1.23-.83,1.77-1.08,1.22-.79,2.25-1.83,2.25-3.91,0-3.82-4.49-12.03-9.99-20.66-.77-.71-1.35-1.28-1.75-1.65l-.62-.21c-.54-.22-1.8-.82-3.73-1.64-7.49-3.24-23.28-10.18-35.39-14.33-5.79-1.99-10.75-3.3-13.55-3.3-1.54,0-6.4,.41-6.4,5.81,.04,.62,2.61,6.45,4.28,8.5l.13,.18c.07,.25,.1,.38,.21,.56,5.06,2.04,10.19,4.58,15.04,7.45,9.61,5.67,17.88,12.89,21.26,21.04,.45-.77,.9-1.49,1.19-2.1,1.41-2.38,2.31-3.92,3.47-5.53l.43-.58,.55,.48c5.12,4.31,7,12.14,7,16.31,0,.09,0,9.14-2.87,12.97-6.7,8.8-41.37,25.69-42.89,25.69-1.27,0-1.86-.68-2.1-1.4-1.09,1.13-2.27,2.22-3.51,3.37-5.48,5.09-11.75,10.88-11.75,17.38,0,.74,.78,4.21,1.54,7.29,.82,3.21,1.34,5.48,1.54,6.77,6.01-26.14,21.66-31.6,45.71-31.6"></path><path class="cls-3" d="M939.93,813.08c-.26-2.02-.38-4.16-.56-6.26-.25-4.52-.7-9.21-1.32-13.65h-.55c-11.58,.66-12.07,11.98-12.48,21.09-.18,2.59-.27,5.02-.62,7.03l-.24,.97c.37,3.51,.48,7.11,.48,10.55,0,4.16-3.73,16.25-6.51,24.99-.26,.84-.42,1.41-.56,1.64,.05,.44,.41,.72,1.07,1.21,.62,.48,1.5,1.17,1.5,2.29,0,10.22-18.68,31.36-30.82,36.74l.13,.11-.73,.1c-1.65,.65-3.06,1.02-4.34,1.02l-.37-.03c-3.1,.75-5.35,1.31-6.32,1.31-7.3,0-15.3-4.07-23.35-9.4h-.06l35.05,25.99c1.69-2.24,3.34-5.55,5.03-9.1,3.18-6.57,6.5-13.38,10.8-13.38h13.88c21.2,0,21.45-62.53,21.45-63.14l-.56-20.09Z"></path><path class="cls-3" d="M656.49,829.01c.38-.27,.65-.57,.87-.93-.33,.31-.66,.62-.97,.84,.04,.07,.04,.09,.1,.09"></path><path class="cls-3" d="M843.47,828.93h.05c-.16-.16-.39-.34-.62-.49,.2,.14,.36,.37,.58,.49"></path><path class="cls-3" d="M674.38,798.17c-1.77-2.76-2.8-4.45-5.38-7.6-2.64,5.79-3.54,6.59-6.4,6.59-6.7,0-4.84-4.26-6.85-11.59-2.42-.05-3.77-.05-8.07-.05v11.39c-.11,6.26,9.3,9.36,13.91,9.36,5.44,0,5.8-.84,12.79-8.1"></path><path class="cls-3" d="M837.32,797.16c-2.88,0-3.76-.8-6.37-6.59-2.57,3.14-3.61,4.84-5.44,7.6,7.08,7.26,7.41,8.1,12.81,8.1,4.61,0,14.05-3.09,14.02-9.36v-11.39c-4.41,0-5.74,0-8.16,.05-2.05,7.33-.04,11.59-6.85,11.59"></path><path class="cls-2" d="M889.31,732.76c.3-.21,.73-.44,1.05-.68-.53,.25-1.3,.55-1.77,1.07,.23-.14,.41-.27,.72-.39"></path><path class="cls-2" d="M841.12,458.36v165.12c-6.29-2.11-11.88-5.3-17.89-8.78-14.84-8.52-33.32-19.16-73.03-19.16h-.26c-39.81,0-58.3,10.64-73.11,19.16-6.11,3.48-11.64,6.7-17.98,8.82v-165.16h-218.74v72.88h18.26c10.01,0,18.13,8.17,18.13,18.26l.78,293.68s-7.49,233.08,271.92,234.88h1.54c279.35-1.8,271.84-234.88,271.84-234.88l.83-293.68c0-10.09,8.13-18.26,18.17-18.26h18.28v-72.88h-218.73Zm24.94,135.92h0c1.02,0,3.91,.68,6.8,1.32,2.59,.59,5.33,1.24,6.11,1.24,3.88,0,10.09-3.66,17.98-8.31,15.37-9.04,36.58-21.5,63.14-21.5,5.83,0,28.7,1.76,31.98,6.93,1.24,1.94,9.34,27.26,9.21,33.54v7.28l-1.17-1.27c-1.51-1.53-3.12-4.48-5.02-7.96-4.2-7.47-9.79-17.68-17.17-17.68h-18.39c-1.79,0-4.19-2.36-8.08-6.18-2.44-2.46-5.5-5.53-6.72-5.53-13.68,0-26.73,11.32-38.14,21.33-9.59,8.36-18.62,16.28-26.68,16.28-9.49,0-18.05-1.41-19.14-18.74l-.07-.77h5.38Zm-367.43,13.23c-.04-6.28,8.02-31.6,9.22-33.54,3.29-5.17,26.14-6.93,31.98-6.93,26.63,0,47.74,12.46,63.14,21.5,7.94,4.65,14.11,8.31,18.08,8.31,.68,0,3.49-.65,6.04-1.19,2.98-.68,5.78-1.37,6.76-1.37h5.44l-.05,.77c-1.17,17.34-9.77,18.74-19.17,18.74-8.06,0-17.15-7.92-26.7-16.28-11.53-10.01-24.47-21.33-38.19-21.33-1.16,0-4.25,3.06-6.73,5.53-3.84,3.82-6.3,6.18-8.02,6.18h-18.38c-7.47,0-13.02,10.21-17.2,17.68-1.86,3.48-3.42,6.42-5,7.96l-1.24,1.27v-7.28Zm19.6,257.03c-.6,2.11-14.21,27.3-20.24,27.3-3.04,0-3.89-7.76-3.89-7.83l3.89-32.18-.02-58.93c0-17.06,2.22-36.38,28.68-50.36,13.5-7.11,52.55-46.57,52.55-64.94,0-4.1-2.34-6.15-6.7-6.15-6.49,0-18.23,6.48-25.18,13.8-4.14,4.36-6.18,8.47-5.99,12.03l.11,1.7-1.23-1.14c-1.66-1.47-3-3.34-4.43-5.25-1.79-2.45-3.71-4.97-6.12-6.88-1.69-1.37-3.95-2.35-6.35-3.34-3.82-1.7-7.82-3.42-10.45-7-6.19-8.42-10.55-20.74-14.33-31.6-.89-2.36-1.65-4.6-2.43-6.72l-.11-.16,.05-.18,.88-10.02,1.38-.19c2.32,6.93,6.4,16.95,12.29,25.25,6.61,9.34,13.92,14.4,21.85,15.2h.38l.18,.36c1.83,3.54,8.42,12.52,12.88,12.52,4.97,0,10.59-5.47,17.01-11.81,7.32-7.08,15.92-15.5,26.53-18.98,1.1-.35,2.25-.66,3.4-.89,.96-.22,1.94-.39,2.9-.5,1.17-.14,2.34-.22,3.61-.22,6.59,0,16.29,3.28,16.29,10.41,0,13.32-17.03,29.77-36.71,48.85-27.12,26.19-57.85,55.94-57.85,88.51l.14,2.08,.03,1.07,.12,1.61,2.29,34.11c0,8.97-3.25,23.45-5.42,30.49m175.71,5.55l-.19,.27h-3.06l-.15-.45c-1.5-4.06-2.17-7.87-2.95-11.52-.53-3.01-1.12-5.81-1.98-8.69-2.16-3.55-4.01-7.39-5.72-11.11-.11-.09-.11-.13-.16-.27-.22-.49-.55-.99-.78-1.53-.08-.19-.21-.42-.3-.66-.18-.32-.32-.6-.43-.9-5.51-4.67-12.1-8.14-18.86-9.54l-.58-.11v.18l.83,.1-.94,1c-.32,.43-.81,.81-1.3,1.22-.22,.36-.49,.66-.88,.93,0,0-.06-.02-.1-.08-1.62,1.2-3.35,2.16-5.12,2.9-3.38,1.53-7.02,2.35-9.97,2.71-1.24,.2-2.38,.28-3.34,.28h-.99c-2.85-.14-5.12-.47-6.83-1.16t-.08-.05c-2.05-.79-3.17-2-3.52-3.69-.05-.3-.05-.65-.05-.98,0-.93,.28-1.98,.59-2.97,.3-.8,.51-1.59,.6-2.23v-.32c0-.6-.3-1.37-.88-2.17-.65-1.06-1.74-2.2-3.07-3.45-1.93-1.73-4.33-3.63-6.87-5.49-1.75-1.28-3.51-2.56-5.19-3.69-1.26-.79-2.41-1.67-3.42-2.34-2.11-1.37-3.78-2.5-4.78-3.23h-2.48c-2.22,2.88-4.06,5.06-5.56,6.81-3.64,4.31-5.29,6.28-5.29,11.32,0,1.24,1.34,1.52,4.35,1.69,3.2,.15,7.76,.48,7.76,5.4,0,.93-.49,4.44-1.04,8.23-.43,3.37-.95,7.2-.95,7.99,0,13.7,28.75,23.71,38.25,23.91h.9l-.24,.91c-1.52,4.78-6.15,13.52-11.16,20.64-3.28,4.56-6.73,8.47-9.68,10.11-.38,.16-.65,.33-.99,.49-.49,.16-1,.28-1.42,.34,3.19,.75,5.46,1.31,6.36,1.31,7.19,0,15.19-3.97,23.07-9.19l.25-.21,11.27-8.36,.15,.1,.45,.27c.88,.65,.99,.99,.99,2.46,0,.82-.99,1.98-3.92,5.65-8.43,10.45-28.29,34.8-32.64,68.92l-.05,.6h-2.62c-3.92,0-7.78-4.32-9.75-6.9-2.77-3.65-4.81-7.87-4.81-9.96,0-1.39,.95-2.94,1.88-4.6,.99-1.6,1.98-3.3,1.98-4.78,0-2.74-2.4-7.44-6.04-11.75-3.88-4.52-7.93-7.35-10.81-7.35-.75,0-5.59,1.05-9.48,1.92-5.54,1.25-8.88,1.97-9.69,1.97-2.05,0-10.86-2.76-11.7-5.23-1.36-3.91-3.7-9.13-6.19-14.62-5.59-12.24-12.57-27.44-12.57-37.89l2.59-26.62c-.03-5.36-1.89-7.02-3.98-8.75-2.09-1.93-4.31-3.88-4.31-9.94s1.74-15.16,5.12-24.82c.1-.28,.18-.55,.27-.85,.24-.61,.49-1.18,.73-1.81,4.81-12.84,12.52-25.87,22.69-32.37l1.66-1.08-.63,1.89c-1.03,2.77-2.02,5.43-2.88,7.81-1.34,3.45-2.59,6.68-2.59,7.45,0,2.46,1.25,3,2.64,3.55,1,.51,2.52,1.11,2.52,2.91,0,.83-.55,2.12-1.52,4.35-.67,1.64-1.44,3.66-1.93,5.47-.06,.28-.12,.5-.12,.77-.05,.14-.05,.28-.19,.43,0,.08,0,.12-.04,.2-.03,.4-.09,.85-.12,1.29l.62,.04c11.56,.66,12.05,11.92,12.47,21.09,.18,2.59,.25,5.02,.64,7.03l.15,.9c.08-.79,.23-1.63,.28-2.4,.14-.85,.32-1.69,.49-2.61,.3-1.53,.71-3.05,1.12-4.59,3.23-10.17,10.15-18.52,25.21-20.31v-1.46c-8.97-1.73-13.53-7.1-13.53-16.01,0-3.97,1.13-7.99,2.24-11.87,1.09-3.74,2.21-7.66,2.21-11.47,0-.36,0-.81,.11-1.35,.06-1.64,.16-3.79-.84-5.01-.76-.71-1.87-1.05-3.4-1.05-2.21,0-3.64,1.77-5.45,3.81-2.01,2.42-4.25,5.12-8.29,5.25h-.15l-2.38-1.01-.1-.34c-.03-.31-.1-.56-.19-.79-.16-.56-.44-1.15-.44-2.1,0-5.04,7.87-19.62,8.01-19.75,7.11-12.5,16.95-25.74,26.53-38.49,10.43-13.97,21.22-28.4,28.59-42.02l.12-.32h.43c9.1-.34,16.52-1.32,22.45-2.69,15.73-3.87,21.7-10.83,26.14-15.94,2.99-3.47,5.32-6.23,9.59-6.23,1.49,0,4.36,1.45,8.93,3.96,3.29,1.78,7.01,3.77,8.25,3.77,1.03,0,5.55-3.09,10.02-6.12,4.48-3.12,9.56-6.62,14.53-9.46l.86,.95c-2.05,3.14-3.72,5.11-4.89,6.57-2,2.31-2.84,3.3-2.84,6.15,0,.71,.88,2.78,1.57,4.46,1.03,2.48,1.65,4.09,1.65,4.97,0,.07-.38,12.69-4.57,12.69-.83,0-3.08-.52-6.8-1.34-2.74-.58-5.83-1.26-6.53-1.26-5.46,0-31.44,7.39-32.51,7.82-.15,.1-.62,.41-1.16,.83-3.06,2.19-6.19,4.32-7.6,4.32-.93,0-2.38-.63-4.62-1.7-1.48-.68-3.41-1.58-4.07-1.58-1.15,0-3.33,1.26-5.95,3.06-7.85,5.36-19.89,16.14-21.3,17.77-1.47,1.69-10.27,13.18-18.03,24.86-.22,.39-.45,.71-.66,1.07-.07,.04-.09,.04-.09,.13-.55,.8-1.08,1.61-1.57,2.37,.76-.79,1.46-1.42,1.92-1.79l.7-.28c.54-.22,1.85-.82,3.68-1.64,7.45-3.25,23.22-10.11,35.35-14.27,5.84-2.05,10.83-3.36,13.65-3.36,1.48,0,6.3,.41,6.3,5.76,0,.67-2.55,6.51-4.22,8.55l-.13,.18c-.07,.19-.1,.35-.1,.56,.22-.13,.5-.29,.83-.41,.21-.08,.48-.15,.73-.26,.15-.05,.22-.08,.36-.14,8.82-3.34,16.97-5.25,22.13-5.25,1.37,0,3,.5,5.06,1.58l.39,.16v2.95l-.18,.16c-1.22,1.19-4.22,4.43-4.22,5.92s.66,2.21,2.48,2.21c1.2-.06,9.23-5.88,13.25-10.11-.7-.59-1.33-.81-2.1-.81s-1.71,.2-3.17,.53l-.29,.13-.26-.16c-.18-.11-.3-.18-.43-.28-.79-.39-1.31-.77-1.31-2.25,0-3.77,10.51-13.78,15.05-17.86,5.91-5.33,15.58-13.32,17.92-13.32,3.57,0,3.57,2.59,3.57,3.94,0,2.9-2.97,6.78-5.56,10.17-1.56,2.11-3.36,4.45-3.36,5.37,0,1.33,1.16,1.64,3.64,1.97,2.35,.21,5.29,.54,5.29,3.55,0,2.51-1.67,4.74-3.25,7.16-.76,1.1-1.58,2.23-2.26,3.46-10.71,19.21-25.39,20.87-38.37,20.87-6.53,0-7.04-.73-7.49-6.44-.11-1.05-.28-2.36-.45-3.94-3.76,.45-9.86,4.74-13.54,7.38-1.31,.92-2.27,1.6-2.89,1.96-1.69,.98-4.26,1.35-6.83,1.73-2.05,.3-4.28,.58-5.32,1.28-.45,.28-1.16,.99-1.95,1.99-3.02,3.74-7.82,11.43-7.82,13.17,0,5.37,9.37,20.93,15.01,30.27,.3,.55,.62,1.05,.85,1.59,1.16,1.81,2.12,3.37,2.65,4.49,.17,.22,.28,.46,.39,.67,.05,.09,.05,.18,.17,.26l.04,.19-.04,.22v.13c1.16,1.1,2.33,2.26,3.53,3.45,5.59,5.09,11.89,10.91,11.89,17.38,0,.74-.88,4.21-1.61,7.29-.86,3.51-1.43,5.83-1.64,7.01,.17,.43,.28,.89,.39,1.34,.27,1.27,.49,2.57,.75,3.92,.14,1.05,.33,2.15,.42,3.27l.53,.02,1.06,.12c.38-1.26,.79-2.68,1.54-4.86l.3-.89,.74,.53c7.34,5,11.03,20.25,11.03,27.3s-2.53,21.19-8.04,28.55m78.48,110.27c-.91,.54-1.81,1.09-2.52,1.52-7.67,4.98-14.14,15.86-18.3,23.59l-.24,.36h-3.12l-.17-.44c-2.1-5.19-9.62-15.63-15.22-20.98-2.53-2.46-5.82-4.61-9.35-6.82-7.79-5.09-15.87-10.32-15.87-19.67,0-5.44,2.21-7.78,7.13-7.78,4.06,0,9.78,3.13,15.94,6.49,1.06,.6,2.14,1.2,3.28,1.81,1.94,1.05,3.96,2.1,5.86,3.01,1.11,.51,2.27,.98,3.43,1.41,2.42,.91,4.77,1.47,6.93,1.47,2.03,0,4.37-.64,6.9-1.68,1.3-.49,2.57-1.08,3.87-1.7,2.5-1.25,5.09-2.67,7.55-4.09,6.34-3.46,12.31-6.72,16.52-6.72,7,0,7,3.93,7,7.78,0,10.31-11.81,17.59-19.62,22.45m186.82-152.49c-2.03,1.73-3.92,3.39-3.92,8.81l2.59,26.54c-.07,10.47-7,25.68-12.59,37.91-2.46,5.49-4.83,10.71-6.21,14.62-.79,2.47-9.65,5.23-11.69,5.23-.77,0-4.17-.72-9.69-1.97-3.92-.87-8.79-1.92-9.42-1.92-2.91,0-6.98,2.82-10.89,7.35-3.58,4.31-6.02,9.01-6.02,11.75,0,1.47,1.02,3.17,1.95,4.78,1.01,1.66,1.88,3.21,1.88,4.6,0,4.02-7.87,16.86-14.49,16.86h-2.67l-.1-.6c-4.3-34.12-24.12-58.47-32.53-68.92-3.04-3.66-4-4.83-4-5.65,0-1.48,.16-1.82,1.05-2.46l.45-.27,.08-.1,10.66,7.91,.61,.45h.06c8.04,5.33,16.05,9.4,23.34,9.4,.97,0,3.21-.56,6.32-1.31-.36-.03-.9-.18-1.39-.34-.28-.16-.6-.27-.96-.49-2.98-1.63-6.42-5.54-9.78-10.17-5-7.15-9.61-15.88-11.11-20.58l-.25-.91h.94c9.48-.21,38.19-10.21,38.19-23.91,0-.79-.51-4.62-.94-7.99-.56-3.79-.99-7.3-.99-8.23,0-4.91,4.45-5.24,7.8-5.4,2.94-.17,4.38-.45,4.38-1.69,0-5.03-1.67-7.01-5.42-11.32-1.44-1.75-3.29-3.93-5.49-6.81h-2.51c-1.01,.73-2.67,1.86-4.79,3.23-.82,.64-1.85,1.27-2.96,2.04-1.63,1.13-3.38,2.36-5.07,3.62-2.38,1.66-4.59,3.38-6.49,5.02-2.04,1.79-3.69,3.46-4.41,4.87-.38,.6-.49,1.1-.49,1.59,0,.17,.04,.38,.04,.63,.06,.57,.32,1.29,.55,1.92,.26,.87,.49,1.71,.6,2.54,.02,.11,.02,.32,.02,.43,0,2.02-1.01,3.45-3.02,4.46-.13,.08-.32,.18-.5,.25-1.77,.7-4.04,1.04-6.87,1.14-.37,.03-.7,.03-1.12,.03-1.01,0-2.25-.14-3.53-.28-3.12-.42-6.77-1.32-10.19-2.86-1.66-.72-3.29-1.65-4.72-2.74h-.05c-.21-.11-.38-.35-.58-.49-.53-.5-1.15-.99-1.69-1.57l-.88-1,.92-.1-.04-.18-.56,.11c-6.72,1.39-13.31,4.76-18.73,9.45-.1,.27-.23,.61-.43,.88-.1,.22-.23,.46-.32,.66-.07,.22-.17,.38-.21,.55-.31,.39-.45,.81-.63,1.23-1.86,3.8-3.68,7.68-6.01,11.24-.1,.83-.28,1.66-.42,2.61-1.1,5.58-2.19,11.38-4.41,17.6l-.25,.45h-3.02l-.18-.27c-5.48-7.36-8.07-21.38-8.07-28.55s3.7-22.3,10.97-27.3l.73-.53,.33,.89c.76,2.19,1.23,3.6,1.62,4.86l1.11-.12,.38-.02c.17-1.54,.43-2.97,.66-4.42,.24-.87,.37-1.7,.49-2.56,.15-.6,.25-1.19,.43-1.8-.21-1.28-.73-3.55-1.54-6.76-.76-3.08-1.54-6.55-1.54-7.29,0-6.51,6.27-12.29,11.75-17.38,1.24-1.14,2.42-2.23,3.51-3.37,0-.08-.05-.14-.05-.21l-.08-.22,.13-.19s.09-.08,.13-.17c.03-.16,.11-.32,.28-.54,.49-.96,1.3-2.31,2.33-3.95,.37-.77,.84-1.52,1.37-2.36,5.54-9.33,14.94-24.89,14.94-30.27,0-1.74-4.73-9.43-7.79-13.18-.86-.99-1.52-1.7-2-1.98-1.08-.7-3.23-.98-5.37-1.28-2.46-.37-4.98-.74-6.7-1.73-.68-.35-1.63-1.04-2.91-1.96-3.72-2.64-9.74-6.93-13.57-7.38-.19,1.58-.29,2.89-.41,3.94-.51,5.71-.98,6.44-7.53,6.44-13,0-27.68-1.65-38.33-20.87-.73-1.23-1.52-2.36-2.33-3.46-1.69-2.42-3.21-4.65-3.21-7.16,0-3.02,2.94-3.35,5.27-3.55,2.46-.33,3.7-.65,3.7-1.97,0-.91-1.81-3.26-3.4-5.37-2.63-3.39-5.56-7.27-5.56-10.17,0-1.35,0-3.94,3.58-3.94,4.34,0,32.92,25.43,32.92,31.17,0,1.47-.51,1.86-1.25,2.25-.12,.1-.3,.16-.44,.28l-.31,.16-.29-.13c-1.46-.33-2.36-.53-3.11-.53-.79,0-1.45,.22-2.12,.81,4.09,4.22,12.07,10.05,13.27,10.11,1.8,0,2.52-.69,2.52-2.21s-3.12-4.72-4.28-5.92l-.19-.16v-2.95l.36-.16c2.17-1.08,3.66-1.58,5.12-1.58,5.15,0,13.35,1.91,22.2,5.31l.12,.02c.36,.13,.66,.24,1.02,.41,.28,.1,.6,.21,.88,.31-.11-.18-.15-.31-.21-.56l-.13-.18c-1.67-2.04-4.23-7.88-4.28-8.5,0-5.4,4.86-5.81,6.4-5.81,2.8,0,7.76,1.31,13.55,3.3,12.1,4.15,27.91,11.08,35.39,14.33,1.93,.82,3.19,1.42,3.73,1.64l.62,.21c.41,.36,.98,.94,1.75,1.65-.49-.71-.96-1.48-1.47-2.19,0-.05,0-.1-.09-.1-.19-.39-.41-.73-.71-1.07-7.71-11.68-16.45-23.16-17.92-24.86-1.47-1.63-13.5-12.41-21.31-17.77-2.7-1.8-4.85-3.06-6.06-3.06-.66,0-2.46,.9-3.97,1.58-2.3,1.07-3.76,1.7-4.66,1.7-1.41,0-4.52-2.13-7.6-4.32-.53-.42-.94-.72-1.23-.88-.94-.38-26.97-7.77-32.38-7.77-.68,0-3.82,.68-6.52,1.26-3.77,.82-6.06,1.34-6.85,1.34-4.18,0-4.58-12.61-4.58-12.69,0-.88,.66-2.49,1.7-4.97,.66-1.68,1.54-3.76,1.54-4.46,0-2.85-.83-3.84-2.84-6.15-1.18-1.46-2.88-3.42-4.91-6.57l.94-.95c4.92,2.84,10.01,6.34,14.51,9.46,4.41,3.03,8.91,6.12,9.87,6.12,1.3,0,5.03-1.99,8.36-3.77,4.54-2.51,7.43-3.96,8.93-3.96,4.3,0,6.61,2.76,9.63,6.23,4.37,5.1,10.36,12.07,26.11,15.94,5.93,1.37,13.29,2.35,22.47,2.69h.38l.17,.32c7.34,13.61,18.08,28.05,28.59,42.02,9.51,12.76,19.39,25.99,26.48,38.47,.04,.16,8.01,14.7,8.01,19.78,0,.95-.28,1.54-.43,2.1-.04,.23-.12,.48-.19,.79l-.13,.34-2.31,1.01h-.24c-4.02-.13-6.35-2.83-8.32-5.25-1.71-2.04-3.19-3.81-5.37-3.81-1.55,0-2.66,.35-3.34,1.05-1.16,1.22-.98,3.36-.81,5.01,.04,.54,.04,.99,.04,1.35,0,3.82,1.1,7.73,2.2,11.47,1.1,3.88,2.22,7.9,2.22,11.87,0,8.91-4.54,14.28-13.57,16.01l.08,1.46c14.88,1.79,21.88,9.97,25.03,20.03,.56,1.7,.99,3.45,1.38,5.25,.09,.87,.28,1.71,.42,2.59,.09,.66,.19,1.39,.27,2.11l.24-.97c.34-2.02,.44-4.45,.62-7.03,.41-9.11,.9-20.42,12.48-21.09h.56c-.07-.48-.11-.89-.21-1.33q0-.08-.07-.13c0-.17,0-.22-.05-.42-.07-.24-.17-.52-.17-.79-.48-1.83-1.35-3.79-1.98-5.52-.89-2.23-1.46-3.53-1.46-4.35,0-1.8,1.39-2.39,2.51-2.91,1.44-.55,2.63-1.1,2.63-3.55,0-.77-1.19-4-2.52-7.45-.94-2.38-1.94-5.03-2.91-7.81l-.68-1.89,1.67,1.08c10.15,6.46,17.86,19.44,22.67,32.25,.21,.51,.38,1,.6,1.5,.09,.4,.23,.83,.38,1.26,3.45,9.69,5.23,18.98,5.23,24.85s-2.22,8.01-4.43,9.94m42.66,63.96c-5.95,0-19.54-25.2-20.2-27.3-2.19-7.03-5.33-21.52-5.33-30.44l2.22-34.16,.1-1.53,.05-1.05,.14-2.18c0-32.57-30.71-62.32-57.86-88.51-19.69-19.08-36.78-35.53-36.78-48.85,0-7.14,9.78-10.41,16.34-10.41,1.31,0,2.56,.08,3.79,.27,.94,.1,1.95,.27,2.9,.46,1.17,.3,2.37,.57,3.45,.93,10.49,3.55,19.07,11.89,26.28,18.92,6.56,6.34,12.12,11.81,16.95,11.81,4.58,0,11.15-8.98,12.99-12.52l.15-.36h.41c7.89-.79,15.28-5.86,21.83-15.2,5.9-8.3,9.99-18.32,12.32-25.25l1.37,.19,.88,10.2v.16c-.87,2.13-1.68,4.37-2.38,6.72-3.92,10.86-8.25,23.18-14.4,31.6-2.67,3.58-6.64,5.3-10.48,7-2.44,.99-4.67,1.97-6.34,3.34-2.51,1.91-4.33,4.43-6.12,6.88-1.45,1.92-2.85,3.78-4.43,5.25l-1.22,1.14,.07-1.7c.26-3.56-1.88-7.67-5.9-12.03-7.01-7.32-18.8-13.8-25.26-13.8-4.39,0-6.64,2.05-6.64,6.15,0,18.37,39,57.83,52.51,64.94,26.47,13.98,28.68,33.3,28.68,50.36v58.99l3.85,32.04c0,.16-.88,7.91-3.94,7.91"></path><path class="cls-2" d="M610.68,732.76c.12,.06,.22,.11,.35,.16-.4-.3-.79-.54-1.33-.76,.33,.21,.66,.4,.98,.59"></path><polygon class="cls-2" points="480.26 436.66 494.53 436.66 494.53 311.35 525.5 311.35 525.5 297.8 449.26 297.8 449.26 311.35 480.26 311.35 480.26 436.66"></polygon><rect class="cls-2" x="543.63" y="297.79" width="13.99" height="138.87"></rect><path class="cls-2" d="M602.05,413.89c15.03,17.47,35.5,26.25,61.31,26.25,21.28,0,38.25-6.32,50.94-18.94,12.71-12.58,19.13-29.64,19.25-51.07h-60.21v13.53h44.52c-1.87,12.82-7.74,23.21-17.69,31.24-9.92,8.04-22.13,12.11-36.46,12.11-11.84,0-22.69-2.71-32.73-8.08-9.88-5.38-17.67-12.82-23.29-22.23-5.64-9.44-8.49-19.3-8.49-29.8s2.79-19.9,8.22-29.02c5.47-9.19,13.2-16.46,23.06-21.77,9.88-5.39,20.32-8.04,31.33-8.04,8.82,0,17.87,1.97,27.16,5.88,9.27,3.95,17.83,9.7,25.64,17.31l10.81-10.23c-9.9-9.32-20.15-16.12-30.58-20.33-10.49-4.27-21.66-6.4-33.48-6.4-14.64,0-27.71,3.23-39.33,9.6-11.62,6.4-20.75,15.27-27.42,26.59-6.59,11.33-9.92,23.52-9.92,36.69,0,17.72,5.79,33.27,17.36,46.71"></path><path class="cls-2" d="M842.68,354.63c3.64-5.76,5.43-12.38,5.43-19.92,0-9.09-2.57-16.68-7.79-22.91-5.23-6.18-11.95-10.24-20.25-12.15-5.55-1.2-15.92-1.86-31.5-1.86h-27.81v138.87h13.91v-64.57h8.07l50.17,64.57h17.17l-50.24-64.57c11.75-.13,20.87-1.58,27.48-4.54,6.7-2.89,11.81-7.24,15.35-12.93m-23.22,1.45c-4.45,1.75-11.36,2.62-20.64,2.62l-24.14-.16v-47.19h24.75c9.51,0,16.32,.83,20.52,2.46,4.13,1.62,7.38,4.32,10,8.14,2.54,3.8,3.78,8.04,3.78,12.69s-1.24,9.14-3.77,12.95c-2.4,3.94-6.01,6.73-10.51,8.47"></path><polygon class="cls-2" points="959.07 311.35 959.07 297.79 879.27 297.79 879.27 436.66 958.45 436.66 958.45 423.16 893.21 423.16 893.21 368.43 958.45 368.43 958.45 354.84 893.21 354.84 893.21 311.35 959.07 311.35"></polygon><path class="cls-2" d="M1022.96,423.38c-4.13,2.14-8.52,3.2-13.19,3.2-10.95,0-20.61-7.65-28.96-22.98l-11.82,7.07c5.86,10.58,12.19,18.18,19.08,22.72,6.9,4.49,14.6,6.75,23.07,6.75,10.98,0,20.34-3.7,27.99-11.18,7.75-7.37,11.54-16.13,11.54-26.21,0-6.97-2.26-13.94-6.68-20.86-4.53-6.96-12.91-14.81-24.98-23.72-10.17-7.49-16.24-12.06-18.1-13.86-3.32-3.33-5.67-6.42-6.91-9.21-1.29-2.84-1.95-5.8-1.95-8.8,0-4.98,1.89-9.14,5.44-12.58,3.59-3.36,8.19-5.02,13.88-5.02,4.34,0,8.41,1.03,12.12,3.27,3.74,2.22,8.26,6.81,13.48,13.67l11.41-8.58c-6.42-8.66-12.44-14.63-18.22-17.85-5.73-3.25-11.88-4.89-18.51-4.89-6.23,0-11.95,1.45-17.27,4.31-5.25,2.85-9.44,6.79-12.26,11.76-2.93,4.95-4.37,10.45-4.37,16.49,0,7.63,2.48,14.68,7.37,21.24,2.88,3.88,10.12,10.19,21.77,18.98,11.6,8.63,19.56,16.1,23.95,22.3,3.15,4.43,4.69,8.96,4.69,13.64,0,4.07-1.07,7.95-3.17,11.62-2.18,3.66-5.26,6.57-9.39,8.75"></path><path class="cls-2" d="M888.71,899.89l.73-.1-.13-.11c-.26,.06-.45,.11-.6,.22"></path><path class="cls-2" d="M610.79,899.73l-.16,.06,.56,.1c-.16-.1-.28-.16-.4-.16"></path><path class="cls-2" d="M619.82,1162.23c0,7.08-.47,11.89-1.48,14.41-.93,2.51-2.76,4.56-5.27,6.17-2.6,1.64-5.64,2.46-9.19,2.46s-6.24-.71-8.65-2.2c-2.27-1.46-4-3.38-5.02-5.86-1.03-2.44-1.5-6.6-1.5-12.5v-68.38h-20.25v63.07c0,12.59,1.17,21.55,3.72,26.79,2.37,5.37,6.46,9.79,12.1,13.3,5.72,3.47,12.41,5.26,20.04,5.26,5.93,0,10.94-.92,15.41-2.8,4.35-1.8,8.23-4.66,11.69-8.51,3.34-3.8,5.62-7.74,6.84-11.9,1.16-4.15,1.81-11.53,1.81-22.15v-63.07h-20.24v65.9Z"></path><path class="cls-2" d="M695.63,1096.33l-40.76,105.78h20.9l8.63-21.79h43.14l8.34,21.79h20.88l-40.6-105.78h-20.53Zm-3.81,64.36l14.19-36.32,14.1,36.32h-28.3Z"></path><polygon class="cls-2" points="836.96 1165.91 791.72 1096.34 772.39 1096.34 772.39 1202.11 792.57 1202.11 792.57 1132.68 837.76 1202.11 857.1 1202.11 857.1 1096.34 836.96 1096.34 836.96 1165.91"></polygon><polygon class="cls-2" points="901.36 1096.33 881.22 1096.33 881.22 1202.11 930.72 1202.11 930.72 1182.87 901.36 1182.87 901.36 1096.33"></polygon><path class="cls-1" d="M829.96,347.61c2.52-3.82,3.77-8.2,3.77-12.95s-1.24-8.89-3.78-12.7c-2.61-3.82-5.87-6.52-10-8.14-4.2-1.64-11.01-2.46-20.52-2.46h-24.75v47.19l24.14,.16c9.28,0,16.19-.87,20.64-2.62,4.49-1.75,8.11-4.54,10.51-8.47"></path><polygon class="cls-1" points="691.83 1160.69 720.12 1160.69 706.02 1124.37 691.83 1160.69"></polygon><path class="cls-1" d="M440.11,276.1v182.26h218.74v165.15c6.34-2.11,11.87-5.34,17.99-8.82,14.81-8.53,33.3-19.16,73.1-19.16h.26c39.7,0,58.19,10.64,73.03,19.16,6.01,3.48,11.6,6.67,17.89,8.78v-165.12h218.73v-182.26H440.11Zm85.39,35.25h-30.97v125.31h-14.27v-125.31h-31v-13.56h76.24v13.56Zm32.11,125.31h-13.99v-138.87h13.99v138.87Zm156.69-15.47c-12.69,12.62-29.66,18.94-50.94,18.94-25.81,0-46.29-8.78-61.32-26.25-11.57-13.45-17.36-29-17.36-46.71,0-13.16,3.34-25.36,9.92-36.69,6.68-11.32,15.81-20.19,27.42-26.59,11.61-6.38,24.69-9.6,39.32-9.6,11.82,0,22.99,2.13,33.48,6.4,10.42,4.21,20.68,11.01,30.58,20.33l-10.81,10.23c-7.81-7.61-16.37-13.36-25.64-17.31-9.28-3.91-18.34-5.88-27.16-5.88-11,0-21.45,2.65-31.32,8.04-9.86,5.3-17.59,12.58-23.06,21.77-5.43,9.12-8.22,18.86-8.22,29.02s2.84,20.35,8.48,29.8c5.62,9.41,13.42,16.85,23.29,22.23,10.03,5.37,20.89,8.08,32.73,8.08,14.33,0,26.54-4.07,36.46-12.11,9.96-8.03,15.82-18.42,17.69-31.24h-44.52v-13.53h60.21c-.12,21.43-6.53,38.49-19.25,51.07m118.62,15.47l-50.18-64.57h-8.06v64.57h-13.91v-138.87h27.81c15.58,0,25.95,.66,31.5,1.86,8.3,1.91,15.02,5.96,20.24,12.14,5.21,6.23,7.79,13.82,7.79,22.91,0,7.54-1.8,14.16-5.43,19.93-3.54,5.69-8.65,10.04-15.35,12.93-6.62,2.96-15.74,4.42-27.49,4.54l50.24,64.57h-17.16Zm126.15-125.31h-65.86v43.49h65.24v13.58h-65.24v54.73h65.24v13.51h-79.18v-138.87h79.8v13.56Zm80.06,117.6c-7.65,7.49-17.01,11.18-27.99,11.18-8.47,0-16.17-2.27-23.07-6.75-6.89-4.54-13.22-12.14-19.08-22.72l11.82-7.07c8.35,15.34,18,22.98,28.96,22.98,4.67,0,9.06-1.06,13.19-3.2,4.13-2.18,7.21-5.08,9.39-8.74,2.1-3.66,3.17-7.55,3.17-11.62,0-4.68-1.53-9.21-4.69-13.64-4.38-6.2-12.36-13.67-23.95-22.3-11.64-8.78-18.89-15.1-21.77-18.98-4.89-6.56-7.37-13.6-7.37-21.24,0-6.04,1.44-11.54,4.37-16.48,2.82-4.97,7.02-8.91,12.26-11.77,5.33-2.85,11.05-4.31,17.27-4.31,6.64,0,12.78,1.64,18.52,4.9,5.78,3.21,11.8,9.18,18.21,17.84l-11.41,8.58c-5.21-6.85-9.74-11.45-13.47-13.67-3.71-2.25-7.78-3.28-12.12-3.28-5.69,0-10.29,1.67-13.89,5.02-3.54,3.45-5.43,7.61-5.43,12.59,0,3,.66,5.96,1.95,8.8,1.24,2.79,3.59,5.89,6.91,9.21,1.87,1.8,7.94,6.37,18.11,13.86,12.07,8.91,20.45,16.77,24.98,23.72,4.41,6.92,6.67,13.88,6.67,20.86,0,10.08-3.78,18.84-11.54,26.21"></path><path class="cls-1" d="M1023.4,549.5l-.83,293.68s7.5,233.08-271.84,234.88h-1.54c-279.41-1.8-271.92-234.88-271.92-234.88l-.78-293.68c0-10.09-8.13-18.26-18.13-18.26h-18.26v692.64h619.74V531.24h-18.28c-10.04,0-18.17,8.17-18.17,18.26m-383.34,609.91c0,10.62-.65,18-1.81,22.15-1.22,4.15-3.51,8.1-6.84,11.9-3.46,3.85-7.34,6.7-11.69,8.51-4.47,1.88-9.49,2.8-15.42,2.8-7.62,0-14.32-1.78-20.04-5.26-5.63-3.51-9.73-7.93-12.1-13.3-2.55-5.24-3.72-14.21-3.72-26.79v-63.07h20.25v68.38c0,5.9,.47,10.07,1.5,12.5,1.02,2.48,2.74,4.4,5.02,5.85,2.42,1.5,5.23,2.2,8.65,2.2s6.59-.82,9.19-2.46c2.52-1.62,4.34-3.66,5.28-6.17,1.01-2.51,1.48-7.33,1.48-14.4v-65.9h20.25v63.07Zm95.82,42.71l-8.34-21.79h-43.15l-8.62,21.79h-20.9l40.76-105.78h20.53l40.6,105.78h-20.88Zm121.22,0h-19.35l-45.19-69.44v69.44h-20.17v-105.78h19.32l45.25,69.58v-69.58h20.14v105.78Zm73.62,0h-49.5v-105.78h20.14v86.53h29.36v19.25Z"></path><path class="cls-1" d="M959.24,827.89c2.21-1.93,4.44-3.88,4.44-9.94s-1.79-15.16-5.23-24.86c-.15-.43-.3-.85-.38-1.25-.21-.49-.39-.99-.6-1.5-4.81-12.81-12.52-25.79-22.67-32.25l-1.67-1.08,.68,1.89c.97,2.78,1.97,5.43,2.91,7.81,1.33,3.45,2.53,6.68,2.53,7.44,0,2.46-1.2,3-2.63,3.56-1.12,.51-2.51,1.11-2.51,2.91,0,.83,.58,2.12,1.46,4.35,.64,1.73,1.5,3.69,1.98,5.52,0,.27,.11,.55,.17,.79,.05,.2,.05,.25,.05,.43q.07,.04,.07,.13c.1,.44,.14,.85,.21,1.33,.62,4.44,1.07,9.13,1.32,13.65,.18,2.1,.31,4.24,.56,6.26l.56,20.09c0,.61-.25,63.14-21.45,63.14h-13.87c-4.3,0-7.62,6.8-10.81,13.38-1.69,3.54-3.34,6.86-5.03,9.1l-35.05-25.99-.6-.45-10.66-7.92-.08,.11-.44,.27c-.89,.65-1.05,.98-1.05,2.46,0,.81,.96,1.98,4,5.65,8.41,10.44,28.22,34.8,32.53,68.92l.1,.59h2.67c6.62,0,14.49-12.83,14.49-16.86,0-1.39-.87-2.94-1.88-4.6-.93-1.6-1.95-3.3-1.95-4.78,0-2.74,2.44-7.43,6.02-11.74,3.91-4.52,7.97-7.35,10.89-7.35,.64,0,5.5,1.05,9.42,1.92,5.52,1.25,8.92,1.97,9.69,1.97,2.04,0,10.9-2.76,11.69-5.23,1.37-3.91,3.74-9.13,6.21-14.62,5.59-12.24,12.52-27.44,12.59-37.91l-2.59-26.54c0-5.41,1.88-7.08,3.92-8.8"></path><path class="cls-1" d="M497.99,891.85c6.04,0,19.65-25.2,20.24-27.3,2.16-7.03,5.42-21.52,5.42-30.49l-2.29-34.11-.12-1.61-.03-1.07-.14-2.08c0-32.57,30.73-62.32,57.85-88.51,19.68-19.08,36.71-35.53,36.71-48.85,0-7.14-9.7-10.41-16.29-10.41-1.27,0-2.44,.08-3.61,.22-.96,.11-1.94,.27-2.9,.5-1.14,.23-2.3,.54-3.4,.89-10.61,3.48-19.21,11.9-26.53,18.98-6.42,6.34-12.03,11.81-17.01,11.81-4.45,0-11.05-8.98-12.88-12.52l-.18-.36h-.38c-7.94-.79-15.25-5.86-21.85-15.2-5.89-8.3-9.97-18.32-12.29-25.25l-1.38,.19-.88,10.02-.05,.18,.11,.16c.77,2.13,1.54,4.37,2.43,6.72,3.78,10.86,8.14,23.18,14.33,31.6,2.63,3.58,6.63,5.3,10.45,7,2.39,.99,4.66,1.97,6.35,3.34,2.41,1.91,4.33,4.43,6.12,6.88,1.44,1.92,2.77,3.78,4.43,5.25l1.23,1.14-.11-1.7c-.2-3.56,1.85-7.67,5.99-12.03,6.95-7.32,18.69-13.8,25.18-13.8,4.36,0,6.7,2.05,6.7,6.15,0,18.37-39.05,57.83-52.55,64.94-26.45,13.98-28.68,33.3-28.68,50.36l.02,58.93-3.89,32.18c0,.08,.85,7.83,3.89,7.83"></path><path class="cls-1" d="M604.66,945.57c0,2.09,2.04,6.31,4.82,9.96,1.97,2.58,5.82,6.9,9.74,6.9h2.63l.05-.59c4.35-34.12,24.2-58.47,32.64-68.92,2.94-3.66,3.92-4.84,3.92-5.65,0-1.48-.1-1.82-.98-2.46l-.45-.27-.15-.1-11.26,8.36-.25,.21-34.85,25.78c-1.65-2.24-3.26-5.55-4.99-9.1-3.1-6.57-6.49-13.37-10.76-13.37h-13.9c-21.2,0-21.45-62.53-21.45-63.13l.58-20.05c.24-2.08,.35-4.21,.56-6.31,.28-4.52,.68-9.21,1.37-13.7,.03-.43,.1-.88,.13-1.28,.03-.09,.03-.13,.03-.2,.14-.15,.14-.29,.19-.43,0-.26,.05-.48,.11-.76,.49-1.81,1.27-3.83,1.94-5.47,.96-2.24,1.51-3.53,1.51-4.35,0-1.8-1.51-2.4-2.52-2.91-1.39-.56-2.63-1.1-2.63-3.56,0-.77,1.24-4,2.59-7.44,.87-2.38,1.85-5.03,2.89-7.81l.63-1.9-1.66,1.08c-10.17,6.5-17.87,19.53-22.69,32.38-.25,.64-.5,1.19-.73,1.81-.1,.29-.17,.56-.28,.84-3.37,9.67-5.12,18.96-5.12,24.82s2.23,8.01,4.32,9.95c2.08,1.72,3.94,3.39,3.97,8.74l-2.59,26.62c0,10.45,6.98,25.65,12.57,37.89,2.5,5.49,4.83,10.71,6.19,14.62,.85,2.47,9.66,5.23,11.7,5.23,.81,0,4.16-.72,9.69-1.98,3.89-.87,8.73-1.92,9.48-1.92,2.88,0,6.93,2.82,10.82,7.34,3.64,4.31,6.04,9,6.04,11.74,0,1.48-.99,3.17-1.97,4.78-.93,1.67-1.88,3.21-1.88,4.6"></path><path class="cls-1" d="M960.07,567.04c-26.56,0-47.77,12.46-63.14,21.5-7.88,4.64-14.1,8.3-17.98,8.3-.77,0-3.51-.65-6.1-1.24-2.89-.64-5.78-1.32-6.8-1.32h-5.38l.07,.77c1.08,17.34,9.65,18.75,19.14,18.75,8.07,0,17.09-7.92,26.68-16.29,11.4-10.01,24.46-21.32,38.14-21.32,1.22,0,4.29,3.06,6.73,5.53,3.89,3.82,6.29,6.18,8.08,6.18h18.4c7.38,0,12.96,10.22,17.17,17.68,1.9,3.48,3.51,6.42,5.02,7.95l1.17,1.27v-7.28c.14-6.28-7.97-31.6-9.21-33.54-3.29-5.18-26.15-6.93-31.98-6.93"></path><path class="cls-1" d="M959.75,697.83c1.58-1.47,2.98-3.34,4.43-5.25,1.8-2.45,3.61-4.97,6.12-6.88,1.66-1.37,3.89-2.36,6.33-3.34,3.85-1.7,7.82-3.42,10.48-7.01,6.16-8.42,10.49-20.74,14.41-31.59,.71-2.36,1.52-4.6,2.39-6.73v-.16l-.89-10.2-1.37-.19c-2.33,6.93-6.42,16.94-12.32,25.25-6.56,9.34-13.94,14.41-21.83,15.19h-.41l-.16,.37c-1.83,3.54-8.41,12.52-12.99,12.52-4.83,0-10.4-5.47-16.95-11.81-7.22-7.03-15.79-15.37-26.29-18.92-1.07-.36-2.27-.63-3.45-.93-.95-.19-1.96-.36-2.89-.46-1.24-.2-2.49-.27-3.8-.27-6.57,0-16.34,3.28-16.34,10.41,0,13.31,17.09,29.77,36.79,48.85,27.14,26.19,57.85,55.94,57.85,88.51l-.13,2.19-.06,1.05-.1,1.53-2.22,34.16c0,8.92,3.14,23.4,5.33,30.43,.66,2.11,14.25,27.31,20.2,27.31,3.06,0,3.94-7.76,3.94-7.91l-3.85-32.04v-58.99c0-17.06-2.21-36.38-28.67-50.36-13.52-7.11-52.51-46.57-52.51-64.94,0-4.1,2.25-6.15,6.64-6.15,6.46,0,18.26,6.48,25.26,13.8,4.02,4.36,6.16,8.47,5.9,12.03l-.07,1.7,1.22-1.14Z"></path><path class="cls-1" d="M627.09,595.65c-2.55,.54-5.36,1.19-6.04,1.19-3.97,0-10.14-3.66-18.07-8.31-15.4-9.04-36.51-21.5-63.15-21.5-5.83,0-28.68,1.76-31.98,6.93-1.2,1.94-9.26,27.27-9.22,33.54v7.28l1.24-1.27c1.58-1.53,3.14-4.48,5-7.95,4.17-7.47,9.73-17.69,17.19-17.69h18.38c1.71,0,4.17-2.36,8.02-6.18,2.49-2.46,5.58-5.53,6.73-5.53,13.72,0,26.65,11.32,38.19,21.33,9.55,8.36,18.63,16.28,26.7,16.28,9.4,0,18-1.41,19.17-18.74l.05-.77h-5.45c-.97,0-3.78,.68-6.76,1.37"></path><path class="cls-1" d="M815.01,629.68c-3.02-3.47-5.33-6.23-9.63-6.23-1.5,0-4.39,1.45-8.93,3.96-3.34,1.78-7.06,3.77-8.36,3.77-.96,0-5.47-3.09-9.87-6.12-4.5-3.12-9.59-6.62-14.51-9.46l-.94,.95c2.03,3.15,3.74,5.11,4.91,6.57,2,2.31,2.84,3.3,2.84,6.15,0,.71-.89,2.78-1.54,4.46-1.03,2.48-1.69,4.09-1.69,4.97,0,.07,.4,12.69,4.58,12.69,.78,0,3.07-.52,6.85-1.34,2.69-.58,5.84-1.26,6.52-1.26,5.4,0,31.43,7.39,32.37,7.77,.3,.15,.71,.45,1.24,.88,3.08,2.19,6.19,4.32,7.6,4.32,.9,0,2.37-.63,4.66-1.7,1.5-.68,3.3-1.58,3.97-1.58,1.2,0,3.36,1.26,6.05,3.06,7.82,5.36,19.84,16.14,21.32,17.77,1.47,1.69,10.22,13.18,17.92,24.86,.3,.34,.52,.68,.71,1.07,.09,0,.09,.04,.09,.1,.51,.71,.97,1.48,1.47,2.19,5.5,8.63,10,16.84,10,20.65,0,2.08-1.02,3.12-2.25,3.91-.32,.25-.74,.47-1.05,.68-.32,.11-.49,.25-.72,.39-1.27,.73-2.4,1.64-2.4,3.41,0,1.13,1,2.66,2.52,4.9,2.87,4.1,7.1,10.4,7.1,17.82,0,9.51-7.78,21.66-16.61,21.66-.72,0-5.32-.49-9.34-.99-4.47-.49-8.7-.97-9.44-.97-24.06,0-39.7,5.46-45.71,31.59-.18,.61-.28,1.19-.43,1.8-.13,.86-.25,1.69-.49,2.56-.23,1.45-.49,2.88-.66,4.42l-.38,.02-1.12,.12c-.38-1.26-.85-2.68-1.62-4.86l-.33-.89-.73,.53c-7.27,5-10.98,20.25-10.98,27.3s2.59,21.19,8.07,28.55l.18,.27h3.02l.25-.45c2.22-6.22,3.31-12.02,4.41-17.6,.15-.95,.32-1.78,.43-2.61,2.33-3.55,4.15-7.44,6.01-11.24,.18-.42,.33-.83,.63-1.23,.04-.18,.14-.33,.21-.55,.08-.2,.21-.44,.31-.66,.2-.26,.33-.6,.43-.88,3.5-7.15,6.94-13.76,12.22-17.93,2.44-1.91,6.69-2.79,10.9-3.53,3.83-.77,7.89-1.54,10.7-3.24,6.23-3.72,11.41-11.7,16.03-18.81,.6-.91,1.2-1.9,1.87-2.84,3.31,.44,6.82,1.01,9.9,1.54l.99,.15v1.53c-.87,.21-1.52,.6-1.91,1.1-1.16,1.36-2.27,2.77-3.34,4.2-10.03,12.69-21.44,27.01-37.57,28.38l-.45,.07-.92,.1,.88,1c.53,.59,1.16,1.07,1.68,1.57,.24,.14,.47,.32,.63,.49,1.42,1.08,3.06,2.02,4.72,2.74,3.42,1.54,7.07,2.44,10.19,2.86,1.29,.14,2.52,.28,3.54,.28,.42,0,.76,0,1.12-.03,2.83-.1,5.1-.44,6.87-1.14,.18-.07,.37-.18,.5-.25,2.01-1.01,3.01-2.44,3.01-4.46,0-.11,0-.32-.02-.43-.1-.82-.34-1.67-.6-2.54-.23-.64-.49-1.35-.55-1.92,0-.25-.04-.46-.04-.63,0-.49,.1-.99,.49-1.59,.72-1.41,2.37-3.08,4.41-4.87,1.9-1.63,4.11-3.36,6.49-5.02,1.68-1.26,3.44-2.49,5.07-3.62,1.11-.77,2.14-1.4,2.96-2.04,2.11-1.37,3.78-2.5,4.79-3.23h2.51c2.2,2.88,4.06,5.06,5.49,6.81,3.74,4.31,5.42,6.28,5.42,11.32,0,1.24-1.44,1.52-4.38,1.69-3.35,.15-7.81,.48-7.81,5.4,0,.93,.43,4.44,.99,8.23,.43,3.37,.94,7.2,.94,7.99,0,13.7-28.71,23.71-38.19,23.91h-.94l.25,.91c1.5,4.69,6.11,13.42,11.11,20.58,3.36,4.62,6.81,8.53,9.79,10.17,.36,.22,.68,.33,.96,.49,.49,.16,1.04,.31,1.39,.34l.37,.03c1.28,0,2.68-.37,4.34-1.02,.15-.1,.34-.16,.6-.22,12.14-5.38,30.82-26.52,30.82-36.74,0-1.12-.88-1.81-1.5-2.29-.66-.49-1.02-.77-1.07-1.21,.15-.22,.3-.79,.56-1.64,2.78-8.74,6.51-20.83,6.51-24.99,0-3.44-.1-7.04-.48-10.55-.08-.72-.18-1.45-.27-2.11-.14-.88-.33-1.72-.43-2.59-.38-1.81-.82-3.55-1.38-5.25-3.14-10.06-10.14-18.24-25.02-20.03l-.08-1.46c9.03-1.73,13.57-7.1,13.57-16.01,0-3.97-1.13-7.99-2.22-11.87-1.11-3.74-2.21-7.66-2.21-11.47,0-.36,0-.81-.04-1.35-.18-1.64-.35-3.79,.81-5.01,.68-.71,1.79-1.05,3.34-1.05,2.19,0,3.66,1.77,5.38,3.81,1.96,2.42,4.3,5.12,8.31,5.25h.24l2.32-1.01,.13-.34c.06-.31,.15-.56,.19-.79,.15-.56,.43-1.15,.43-2.1,0-5.08-7.96-19.62-8.01-19.78-7.08-12.47-16.97-25.71-26.48-38.47-10.51-13.97-21.25-28.4-28.6-42.02l-.16-.32h-.38c-9.19-.34-16.55-1.32-22.48-2.69-15.75-3.87-21.74-10.83-26.1-15.94m37.33,167.24c.04,6.26-9.4,9.35-14.02,9.35-5.4,0-5.72-.84-12.8-8.1,1.82-2.76,2.86-4.45,5.44-7.6,2.61,5.79,3.48,6.59,6.37,6.59,6.81,0,4.8-4.26,6.85-11.59,2.42-.05,3.75-.05,8.16-.05v11.39Z"></path><path class="cls-1" d="M737.15,616.55l-.86-.95c-4.97,2.84-10.05,6.34-14.53,9.45-4.46,3.03-8.99,6.12-10.02,6.12-1.24,0-4.96-1.99-8.25-3.77-4.57-2.51-7.43-3.96-8.92-3.96-4.26,0-6.6,2.76-9.59,6.23-4.44,5.11-10.41,12.07-26.14,15.94-5.93,1.37-13.35,2.35-22.46,2.69h-.43l-.12,.32c-7.37,13.61-18.16,28.05-28.59,42.02-9.59,12.76-19.42,25.99-26.54,38.49-.13,.14-8.01,14.71-8.01,19.76,0,.94,.28,1.53,.45,2.09,.08,.23,.15,.48,.19,.79l.1,.34,2.38,1.01h.15c4.04-.13,6.28-2.83,8.29-5.25,1.81-2.04,3.24-3.81,5.45-3.81,1.53,0,2.64,.34,3.4,1.05,1,1.22,.9,3.36,.83,5.01-.1,.54-.1,.99-.1,1.35,0,3.82-1.12,7.73-2.21,11.47-1.11,3.88-2.24,7.9-2.24,11.87,0,8.91,4.55,14.28,13.53,16.01v1.46c-15.05,1.79-21.99,10.14-25.21,20.31-.41,1.54-.83,3.06-1.13,4.59-.17,.92-.35,1.76-.49,2.61-.05,.78-.2,1.62-.28,2.4-.36,3.52-.54,7.13-.54,10.62,0,4.17,3.74,16.26,6.5,24.99,.28,.85,.48,1.41,.56,1.64-.08,.44-.38,.72-1.04,1.21-.66,.48-1.56,1.17-1.56,2.29,0,10.22,18.86,31.42,31.06,36.8,.11,0,.24,.05,.4,.16,1.65,.65,3.09,1.02,4.38,1.02,.1,0,.22-.03,.22-.03,.56-.07,1.06-.18,1.56-.35,.33-.16,.6-.33,.99-.49,2.95-1.63,6.4-5.54,9.68-10.11,5.02-7.12,9.65-15.86,11.16-20.64l.24-.91h-.9c-9.5-.21-38.25-10.21-38.25-23.91,0-.79,.52-4.62,.95-7.99,.54-3.79,1.04-7.3,1.04-8.23,0-4.91-4.56-5.24-7.76-5.4-3.01-.17-4.35-.45-4.35-1.69,0-5.03,1.65-7.01,5.29-11.32,1.5-1.75,3.34-3.93,5.56-6.81h2.48c1,.73,2.67,1.86,4.78,3.23,1.01,.67,2.16,1.54,3.42,2.34,1.69,1.13,3.44,2.42,5.19,3.69,2.54,1.86,4.93,3.76,6.87,5.49,1.34,1.25,2.42,2.39,3.07,3.45,.59,.79,.89,1.56,.89,2.16v.33c-.08,.64-.3,1.42-.6,2.22-.31,.99-.59,2.04-.59,2.97,0,.33,0,.68,.05,.99,.35,1.69,1.47,2.89,3.52,3.69q.07,.04,.08,.05c1.71,.68,3.98,1.02,6.83,1.16h.99c.96,0,2.1-.08,3.34-.28,2.95-.35,6.59-1.17,9.97-2.71,1.77-.74,3.51-1.69,5.12-2.9,.31-.21,.64-.53,.97-.84,.49-.42,.99-.79,1.3-1.22l.94-1-.83-.1-.53-.07c-16.14-1.37-27.5-15.69-37.5-28.38-1.18-1.42-2.29-2.84-3.4-4.2-.39-.49-1.06-.85-1.91-1.1v-1.53l.91-.15c3.16-.54,6.62-1.11,9.96-1.54,.71,.94,1.25,1.92,1.89,2.84,4.55,7.11,9.75,15.1,15.92,18.81,2.91,1.7,6.93,2.47,10.78,3.24,4.13,.74,8.41,1.63,10.9,3.53,5.29,4.21,8.9,10.78,12.41,18.01,.1,.3,.25,.58,.43,.9,.09,.24,.21,.47,.3,.66,.24,.55,.56,1.05,.78,1.53,.05,.14,.05,.18,.16,.27,1.71,3.72,3.56,7.56,5.72,11.11,.87,2.88,1.45,5.68,1.98,8.69,.78,3.65,1.45,7.47,2.95,11.52l.15,.45h3.06l.19-.27c5.51-7.36,8.04-21.38,8.04-28.55s-3.69-22.3-11.03-27.3l-.74-.53-.3,.89c-.75,2.18-1.16,3.6-1.54,4.86l-1.06-.11-.53-.02c-.09-1.12-.28-2.22-.43-3.27-.26-1.35-.47-2.66-.75-3.92-.1-.44-.22-.9-.39-1.34-5.97-26.38-21.57-31.84-45.64-31.84-.82,0-5.09,.48-9.51,.97-4.01,.5-8.59,.99-9.32,.99-8.81,0-16.6-12.14-16.6-21.66,0-7.43,4.26-13.72,7.04-17.82,1.54-2.23,2.59-3.76,2.59-4.89,0-1.9-1.4-2.82-2.75-3.64-.13-.05-.24-.1-.35-.16-.32-.19-.65-.38-.98-.59-1.29-.79-2.38-1.86-2.38-4,0-3.76,4.46-11.89,9.88-20.45,.48-.76,1.02-1.57,1.57-2.37,0-.08,.02-.08,.09-.13,.21-.37,.43-.68,.66-1.07,7.76-11.68,16.56-23.17,18.03-24.86,1.41-1.63,13.45-12.41,21.3-17.77,2.62-1.8,4.8-3.06,5.95-3.06,.66,0,2.59,.9,4.07,1.58,2.25,1.07,3.7,1.7,4.62,1.7,1.41,0,4.54-2.13,7.6-4.32,.54-.42,1.01-.72,1.16-.83,1.07-.43,27.05-7.82,32.51-7.82,.71,0,3.78,.68,6.53,1.26,3.72,.82,5.97,1.34,6.8,1.34,4.18,0,4.57-12.61,4.57-12.69,0-.88-.62-2.49-1.65-4.97-.69-1.68-1.57-3.75-1.57-4.46,0-2.85,.84-3.84,2.84-6.15,1.17-1.46,2.84-3.42,4.89-6.57m-89.48,168.97c4.3,0,5.65,0,8.07,.05,2.01,7.33,.15,11.59,6.85,11.59,2.86,0,3.76-.8,6.4-6.59,2.59,3.14,3.61,4.84,5.38,7.6-6.99,7.26-7.36,8.1-12.79,8.1-4.61,0-14.02-3.09-13.91-9.36v-11.39Z"></path><path class="cls-1" d="M744.16,668.19c0-1.35,0-3.94-3.57-3.94-2.34,0-12.01,7.99-17.92,13.32-4.55,4.08-15.05,14.08-15.05,17.86,0,1.47,.51,1.86,1.3,2.25,.14,.1,.25,.16,.43,.28l.26,.16,.3-.13c1.46-.33,2.4-.53,3.17-.53s1.4,.22,2.1,.81c-4.01,4.22-12.05,10.05-13.25,10.11-1.82,0-2.48-.69-2.48-2.21s3-4.72,4.21-5.92l.18-.16v-2.95l-.39-.16c-2.05-1.08-3.68-1.58-5.05-1.58-5.15,0-13.3,1.91-22.13,5.25-.13,.07-.21,.09-.36,.14-.25,.1-.52,.18-.73,.26-.32,.11-.6,.28-.82,.41-5.27,2.04-10.37,4.5-15.28,7.45-9.58,5.67-17.78,12.89-21.23,21.04-.47-.77-.87-1.49-1.28-2.1-1.33-2.38-2.26-3.92-3.46-5.53l-.39-.59-.55,.48c-5.08,4.32-6.99,12.14-6.99,16.31,0,.09,.06,9.14,2.85,12.9,6.73,8.87,41.39,25.76,42.85,25.76,1.35,0,2.02-.76,2.19-1.48v-.13l.04-.22-.04-.19c-.12-.08-.12-.17-.18-.26-.1-.21-.22-.45-.38-.68-.54-1.12-1.5-2.67-2.65-4.49-.24-.54-.56-1.04-.86-1.59-5.63-9.33-15-24.89-15-30.27,0-1.74,4.79-9.43,7.82-13.17,.78-1,1.49-1.71,1.94-1.99,1.05-.7,3.28-.99,5.33-1.28,2.57-.37,5.13-.74,6.83-1.73,.61-.35,1.58-1.04,2.89-1.96,3.68-2.64,9.78-6.93,13.55-7.38,.17,1.58,.34,2.89,.45,3.94,.45,5.71,.96,6.44,7.48,6.44,12.98,0,27.66-1.65,38.37-20.87,.67-1.23,1.5-2.36,2.25-3.46,1.58-2.42,3.26-4.65,3.26-7.16,0-3.02-2.94-3.35-5.29-3.55-2.49-.33-3.64-.65-3.64-1.97,0-.91,1.8-3.26,3.36-5.37,2.6-3.39,5.57-7.27,5.57-10.17"></path><path class="cls-1" d="M761.05,685.7c-2.34,.21-5.27,.54-5.27,3.55,0,2.51,1.52,4.75,3.21,7.16,.81,1.09,1.6,2.22,2.33,3.46,10.65,19.21,25.34,20.86,38.33,20.86,6.55,0,7.02-.73,7.53-6.44,.11-1.06,.21-2.36,.41-3.94,3.83,.45,9.85,4.74,13.57,7.38,1.28,.92,2.22,1.6,2.91,1.96,1.71,.98,4.23,1.35,6.69,1.72,2.15,.3,4.29,.58,5.37,1.28,.48,.28,1.14,.99,1.99,1.98,3.07,3.76,7.79,11.44,7.79,13.18,0,5.38-9.4,20.94-14.94,30.27-.54,.83-1.01,1.59-1.37,2.36-1.03,1.63-1.84,2.98-2.33,3.94-.17,.22-.25,.38-.28,.54-.04,.08-.11,.13-.13,.17l-.13,.19,.08,.22c0,.08,.05,.13,.05,.21,.24,.72,.83,1.4,2.09,1.4,1.53,0,36.2-16.89,42.89-25.69,2.88-3.82,2.88-12.88,2.88-12.96,0-4.17-1.89-12-7-16.31l-.55-.48-.43,.59c-1.16,1.6-2.06,3.14-3.47,5.52-.3,.61-.75,1.34-1.2,2.1-3.38-8.15-11.65-15.36-21.26-21.04-4.84-2.87-9.98-5.41-15.04-7.45-.27-.1-.59-.21-.88-.32-.37-.17-.67-.27-1.02-.41l-.13-.02c-8.84-3.41-17.04-5.31-22.2-5.31-1.46,0-2.95,.49-5.12,1.58l-.36,.16v2.95l.19,.16c1.17,1.2,4.28,4.44,4.28,5.92s-.72,2.22-2.52,2.22c-1.2-.06-9.19-5.88-13.27-10.11,.66-.59,1.33-.8,2.12-.8,.75,0,1.65,.2,3.1,.53l.3,.13,.31-.17c.15-.11,.32-.18,.44-.27,.73-.39,1.24-.77,1.24-2.25,0-5.73-28.57-31.17-32.92-31.17-3.57,0-3.57,2.59-3.57,3.94,0,2.9,2.93,6.78,5.56,10.17,1.59,2.11,3.4,4.45,3.4,5.37,0,1.33-1.24,1.64-3.7,1.97"></path><path class="cls-1" d="M743.26,962.86c-1.16-.43-2.32-.89-3.43-1.41-1.9-.91-3.91-1.97-5.86-3.01-1.14-.61-2.23-1.2-3.28-1.81-6.16-3.36-11.89-6.49-15.94-6.49-4.92,0-7.13,2.34-7.13,7.78,0,9.35,8.08,14.58,15.87,19.67,3.53,2.21,6.82,4.37,9.35,6.83,5.6,5.35,13.12,15.79,15.22,20.98l.16,.44h3.13l.24-.36c4.16-7.73,10.63-18.61,18.3-23.58,.72-.44,1.62-.99,2.52-1.53,7.81-4.86,19.62-12.14,19.62-22.45,0-3.85,0-7.78-6.99-7.78-4.22,0-10.18,3.26-16.52,6.72-2.46,1.42-5.05,2.84-7.55,4.09-1.3,.62-2.56,1.2-3.87,1.7-2.52,1.05-4.86,1.69-6.89,1.69-2.16,0-4.52-.57-6.93-1.48"></path></g></svg>