<svg class="currency-icon mb-3" xmlns="http://www.w3.org/2000/svg" width="80" height="80" viewBox="0 0 80 80"><g id="Group_40557" data-name="Group 40557" transform="translate(-1721 -222)"><g id="Group_40552" data-name="Group 40552"><circle id="Ellipse_9" data-name="Ellipse 9" cx="40" cy="40" r="40" transform="translate(1721 222)" fill="#A566FD"></circle><g id="Ellipse_10" data-name="Ellipse 10" transform="translate(1728 229)" fill="none" stroke="#fff" stroke-width="3"><circle cx="33" cy="33" r="33" stroke="none"></circle><circle cx="33" cy="33" r="31.5" fill="none"></circle></g></g><g id="Group_40553" data-name="Group 40553" transform="translate(1421.443 -106.371)"><g id="Group_40514" data-name="Group 40514" transform="translate(326.458 351.693)"><g id="Group_40513" data-name="Group 40513" transform="translate(13.964 0)"><rect id="Rectangle_3026" data-name="Rectangle 3026" width="1.207" height="1.207" transform="translate(8.564 0.968) rotate(-53.36)" fill="#fff"></rect><rect id="Rectangle_3027" data-name="Rectangle 3027" width="1.207" height="1.207" transform="matrix(0.597, -0.802, 0.802, 0.597, 11.467, 3.128)" fill="#fff"></rect><rect id="Rectangle_3028" data-name="Rectangle 3028" width="1.207" height="1.207" transform="matrix(0.597, -0.802, 0.802, 0.597, 6.875, 1.216)" fill="#fff"></rect><rect id="Rectangle_3029" data-name="Rectangle 3029" width="1.207" height="1.207" transform="matrix(0.597, -0.802, 0.802, 0.597, 9.779, 3.376)" fill="#fff"></rect><rect id="Rectangle_3030" data-name="Rectangle 3030" width="1.206" height="1.207" transform="translate(10.028 5.063) rotate(-53.36)" fill="#fff"></rect><rect id="Rectangle_3031" data-name="Rectangle 3031" width="1.207" height="1.207" transform="matrix(0.597, -0.802, 0.802, 0.597, 8.34, 5.312)" fill="#fff"></rect><path id="Path_47680" data-name="Path 47680" d="M478.043,375l-6.516,8.762-3.761-5.054,4.716-6.341.968.721.721-.967-.968-.721.72-.968.967.721.72-.967h0l1.935,1.44h0l-.72.967h0l-.967-.721-.72.967.967.721-.72.968.967.72.721-.967Z" transform="translate(-467.766 -368.253)" fill="#fff"></path></g><path id="Path_47681" data-name="Path 47681" d="M351.2,403.62a4.685,4.685,0,0,0-7.51-.012l-.009.011-9.34-12.557h7.518Z" transform="translate(-334.342 -386.942)" fill="#fff"></path></g><g id="Group_40515" data-name="Group 40515" transform="translate(331.247 359.281)" opacity="0.47"><path id="Path_47682" data-name="Path 47682" d="M392.172,433.282a4.685,4.685,0,0,0-7.51-.012.054.054,0,0,0-.009.011l-4.55-6.118,5.307-2.972Z" transform="translate(-380.103 -424.191)" fill="#fff"></path></g><g id="Group_40517" data-name="Group 40517" transform="translate(325.536 366.482)"><path id="Path_47683" data-name="Path 47683" d="M377.287,507.442h-7.518l-5.581-7.5-5.581,7.5-.968-.718-.721.967.969.72-.72.968-.967-.72-.72.967h0l-1.935-1.441h0l.72-.967h0l.967.721.718-.967-.966-.72h0l.721-.968-.968-.719-.72.968-.968-.721,7.381-9.924h0l.009-.011a4.685,4.685,0,0,1,7.51.012Z" transform="translate(-350.167 -492.995)" fill="#fff"></path><g id="Group_40516" data-name="Group 40516" transform="translate(0 12.534)"><rect id="Rectangle_3032" data-name="Rectangle 3032" width="1.207" height="1.207" transform="matrix(0.597, -0.802, 0.802, 0.597, 2.904, 5.312)" fill="#fff"></rect><rect id="Rectangle_3033" data-name="Rectangle 3033" width="1.207" height="1.207" transform="matrix(0.597, -0.802, 0.802, 0.597, 0, 3.152)" fill="#fff"></rect><path id="Path_47684" data-name="Path 47684" d="M371.1,652.606l-.72.968-.968-.72.72-.967h0Z" transform="translate(-364.82 -647.791)" fill="#fff"></path><path id="Path_47685" data-name="Path 47685" d="M343.353,631.972l-.721.968-.968-.72.721-.968.967.719Z" transform="translate(-339.976 -629.316)" fill="#fff"></path><rect id="Rectangle_3034" data-name="Rectangle 3034" width="1.206" height="1.207" transform="matrix(0.597, -0.802, 0.802, 0.597, 1.44, 1.215)" fill="#fff"></rect><path id="Path_47686" data-name="Path 47686" d="M357.1,613.477l-.72.966h0l-.967-.72h0l.721-.968.967.719Z" transform="translate(-352.286 -612.757)" fill="#fff"></path></g></g></g></g></svg>