<svg xmlns="http://www.w3.org/2000/svg" width="64" height="64" viewBox="0 0 64 64"><circle cx="32" cy="32" r="32" transform="translate(0 0)" fill="#003080"/><g transform="translate(0 0)"><path d="M67.46,7.086a32,32,0,1,1-32.08,32,32,32,0,0,1,32.08-32" transform="translate(-35.38 -7.086)" fill="#003080" fill-rule="evenodd"/><path d="M67.176,7.651A31.149,31.149,0,1,1,35.944,38.8,31.149,31.149,0,0,1,67.176,7.651" transform="translate(-35.096 -6.8)" fill="#fff" fill-rule="evenodd"/><path d="M66.88,8.216A30.275,30.275,0,1,1,36.555,38.491,30.275,30.275,0,0,1,66.88,8.216" transform="translate(-34.787 -6.515)" fill="#003080" fill-rule="evenodd"/><path d="M63.808,14.306A21.109,21.109,0,1,1,42.651,35.415,21.109,21.109,0,0,1,63.808,14.306" transform="translate(-31.707 -3.439)" fill="#fff" fill-rule="evenodd"/><path d="M63.481,14.9A20.213,20.213,0,1,1,43.214,35.108,20.213,20.213,0,0,1,63.481,14.9" transform="translate(-31.425 -3.14)" fill="#003080" fill-rule="evenodd"/><path d="M63.214,15.416A19.429,19.429,0,1,1,43.747,34.845,19.429,19.429,0,0,1,63.214,15.416" transform="translate(-31.155 -2.877)" fill="#fff" fill-rule="evenodd"/><path d="M68.994,41.559a31.08,31.08,0,0,0-7.243,3.315,21.667,21.667,0,0,0-6.893,6.451l-1.005,1.493L41.266,20.991l.989-.3a33.888,33.888,0,0,1,13.387-1.067,38.283,38.283,0,0,1,9.432,2.3l.379.144.5,1.181a60.478,60.478,0,0,0,6.243,1.632,31.976,31.976,0,0,0,5.848.691,8.029,8.029,0,0,0,6.624-2.043,7.358,7.358,0,0,0,1.629-3.184,13.224,13.224,0,0,1,1.349,5.579,14.085,14.085,0,0,1-1.723,7,17.133,17.133,0,0,1-5.184,5.6,33.883,33.883,0,0,1-10.195,4.6l-.824.24Z" transform="translate(-32.407 -0.873)" fill="#fff" fill-rule="evenodd"/><path d="M42.1,21.282,53.644,50.472a22.5,22.5,0,0,1,7.176-6.72,32.352,32.352,0,0,1,8.3-3.675l.728,1.821a32.779,32.779,0,0,0,9.909-4.461,16.152,16.152,0,0,0,4.909-5.3,12.68,12.68,0,0,0,1.112-9.581c-1.317,2.691-4.267,3.688-8.179,3.643a45.973,45.973,0,0,1-12.781-2.5l-.509-1.211a37.3,37.3,0,0,0-9.2-2.237,32.957,32.957,0,0,0-13.008,1.037" transform="translate(-31.991 -0.557)" fill="#003080" fill-rule="evenodd"/><path d="M49.762,38.349l3.709,9.291a23.219,23.219,0,0,1,6.077-5.2,33.208,33.208,0,0,1,9.648-4l.675,1.691a25.7,25.7,0,0,0,8.7-3.752,15.925,15.925,0,0,0,4.8-5.067,11.834,11.834,0,0,0,1.141-2.781,19.653,19.653,0,0,1-6.485,4.512A33.163,33.163,0,0,1,68.1,35.629L67.564,34.3a40.37,40.37,0,0,0-10.056.928,22.693,22.693,0,0,0-7.733,3.123M83.46,25.157A5.472,5.472,0,0,1,81.007,26.3a16.56,16.56,0,0,1-3.931.379,35.154,35.154,0,0,1-6.328-.7,68.142,68.142,0,0,1-7.171-1.771l-.571-1.451A34.97,34.97,0,0,0,54.5,20.893a31.368,31.368,0,0,0-11.347.864l2.3,5.749A26.315,26.315,0,0,1,52.514,26.1a58.433,58.433,0,0,1,11.987.432l.493,1.261a44.68,44.68,0,0,0,12.6-.021,10.488,10.488,0,0,0,5.856-2.613Z" transform="translate(-31.45 -0.202)" fill="#fff" fill-rule="evenodd"/><path d="M61.229,34.455l1.787,4.507c.723-.189,1.432-.387,2.133-.605l-1.776-4.2q-1.053.176-2.133.3M58.946,23.676c-.707-.189-1.44-.4-2.224-.64l1.419,3.589q1.093.12,2.133.205Z" transform="translate(-24.594 0.972)" fill="#d0d9e3" fill-rule="evenodd"/><path d="M57.66,25.42l3.1,7.832q1.085-.125,2.133-.3L59.8,25.633q-1.048-.088-2.133-.205" transform="translate(-24.124 2.175)" fill="#092b66" fill-rule="evenodd"/><path d="M75.53,27.342h-.483l-.752.248.115.48.533-.144V30.4h.6Z" transform="translate(-15.722 3.146)" fill="#fff"/><path d="M39.372,27.332h-.483l-.752.248.115.48.533-.144v2.475h.587Z" transform="translate(-33.993 3.143)" fill="#fff"/><path d="M40.682,28.852a.552.552,0,0,1-.581-.493.5.5,0,0,1,.533-.555c.411,0,.616.251.605.533a.533.533,0,0,1-.568.533m1.2-.048A1.749,1.749,0,0,0,41.6,27.74a1.155,1.155,0,0,0-.968-.44A1.1,1.1,0,0,0,39.5,28.4a1,1,0,0,0,1.1.955.907.907,0,0,0,.669-.267c-.019.459-.267.821-.669.84a.925.925,0,0,1-.7-.307l-.307.453a1.576,1.576,0,0,0,1.013.371,1.192,1.192,0,0,0,.867-.4,1.84,1.84,0,0,0,.413-1.235Z" transform="translate(-33.298 3.132)" fill="#fff"/><path d="M73.416,29.868A6.31,6.31,0,0,0,74.568,28.8a1.014,1.014,0,0,0,.168-.52.947.947,0,0,0-.485-.835,1.229,1.229,0,0,0-.592-.131,1.3,1.3,0,0,0-.595.184,1.533,1.533,0,0,0-.472.5l.416.317a.848.848,0,0,1,.664-.469.451.451,0,0,1,.459.464.8.8,0,0,1-.331.581l-1.256,1.067v.451H74.76v-.533Z" transform="translate(-16.605 3.137)" fill="#fff"/><path d="M58.179,10.655c.461.016.872.141.856.64s-.44.6-.9.579l-.781-.029.043-1.221Zm-1.9,3.408.992.035.048-1.363.731.021.875,1.4,1.165.043-1.021-1.587a1.36,1.36,0,0,0,.989-1.312,1.381,1.381,0,0,0-.413-1.107,2.237,2.237,0,0,0-1.475-.44L56.438,9.7Z" transform="translate(-24.822 -5.761)" fill="#fff"/><path d="M50.53,12.064c.424-.179.773-.133.941.267s-.019.7-.472.893l-.629.267-.483-1.157Zm-.221,3.859.917-.384-.507-1.211.491-.213c.784-.339,1.093-.669,1.232-1.035a1.515,1.515,0,0,0-.04-1.149,1.472,1.472,0,0,0-.9-.845,2.093,2.093,0,0,0-1.477.2l-1.411.589Z" transform="translate(-28.695 -5.088)" fill="#fff"/><path d="M44.349,16.347a1.256,1.256,0,0,1,1.816,0,1.237,1.237,0,0,1,.04,1.808l-.533.533-1.835-1.811Zm1.28,3.677,1.08-1.107a2.608,2.608,0,0,0,.763-1.248,2.133,2.133,0,0,0-.592-2.045,2.1,2.1,0,0,0-1.885-.608,2.477,2.477,0,0,0-1.384.813L42.5,16.968Z" transform="translate(-31.786 -3.096)" fill="#fff"/><path d="M54.152,10.917a1.333,1.333,0,1,1-.936,1.6,1.288,1.288,0,0,1,.936-1.6m-.216-.9a2.287,2.287,0,1,1-1.45,1.011,2.272,2.272,0,0,1,1.45-1.011Z" transform="translate(-26.917 -5.621)" fill="#fff" fill-rule="evenodd"/><path d="M70.815,16.026a1.333,1.333,0,1,1-1.851-.115,1.285,1.285,0,0,1,1.851.115m.717-.592a2.283,2.283,0,1,1-1.555-.843,2.272,2.272,0,0,1,1.555.843Z" transform="translate(-19.161 -3.298)" fill="#fff" fill-rule="evenodd"/><path d="M63.637,10.793l-3.528-.84-.211.891,1.272.3-.8,3.363.979.232.8-3.363,1.277.3Z" transform="translate(-22.997 -5.638)" fill="#fff"/><rect width="4.373" height="0.992" transform="translate(40.915 9.909) rotate(-67.794)" fill="#fff"/><path d="M48.252,12.275l-2.757,1.837,2.424,3.64,2.792-1.867-.5-.744L48.25,16.451l-.477-.717,1.7-1.133-.488-.733L47.282,15l-.467-.7,1.931-1.285Z" transform="translate(-30.271 -4.464)" fill="#fff"/><path d="M69.5,14.042l-.928-.568L66.056,15.46l.621-3.147-.941-.579-.8,4.661.757.464Z" transform="translate(-20.451 -4.735)" fill="#fff"/><path d="M64.847,42.046a1.525,1.525,0,0,0-.733,1,1.347,1.347,0,0,0,.213.955,1.12,1.12,0,0,0,.779.517,2.133,2.133,0,0,0,.8-.072c.357-.077,1.115-.429,1.333-.056.139.24-.075.48-.267.605a2.107,2.107,0,0,1-1.443.237l-.16.885a2.787,2.787,0,0,0,2.1-.387A1.712,1.712,0,0,0,68.2,44.8,1.312,1.312,0,0,0,68,43.729a1.139,1.139,0,0,0-1.016-.533,4.532,4.532,0,0,0-1.067.216c-.213.056-.741.243-.867-.125a.477.477,0,0,1,.267-.533,1.843,1.843,0,0,1,1.248-.216l.056-.893a2.605,2.605,0,0,0-1.776.379" transform="translate(-20.871 10.349)" fill="#fff"/><path d="M64.111,42.757,60.98,43.842l1.432,4.131,3.171-1.1-.293-.843-2.232.773-.283-.8,1.933-.669L64.42,44.5l-1.933.669-.267-.8,2.192-.76Z" transform="translate(-22.447 10.934)" fill="#fff"/><path d="M61.7,43.419l.72-.248.621-.9-.955-.056Z" transform="translate(-22.081 10.661)" fill="#fff" fill-rule="evenodd"/><path d="M61.729,43.687l-1.08.133-.731,3.12L58.444,44.09l-1.1.133,2.277,4.141.883-.109Z" transform="translate(-24.281 11.404)" fill="#fff"/><path d="M56.52,46.5l-.405-1.36L55.445,46.4Zm1.613,2-1.045-.1-.3-.995L55,47.233l-.488.917-1.016-.1,2.3-4.189.885.085Z" transform="translate(-26.227 11.49)" fill="#fff"/><path d="M49.823,44.535,50,43.125,48.879,44Zm.664,2.483-.915-.515.131-1.029-1.571-.883-.819.64-.888-.5,3.8-2.9.776.435Z" transform="translate(-29.797 10.467)" fill="#fff"/><path d="M52.649,43.287l-.947-.3-1.315,4.171,3.011.949.267-.851L51.6,46.607Z" transform="translate(-27.799 11.052)" fill="#fff"/><path d="M48.323,26.2l.744,1.867,1.088-.267-.416-1.067.659-.115a3.23,3.23,0,0,1,1.021-.053,2.272,2.272,0,0,1,.907.341,2.061,2.061,0,0,1,.917,2.133,1.221,1.221,0,0,1-.875.816l-1.235.395-.472-1.16L49.6,29.4l.824,2.077,2.376-.723A1.955,1.955,0,0,0,54.27,29l.043-2.376,1.48,1.656-.632.072v.827l1.245-.157.741.867.824-.109-3.693-4.131-.757.072-.04,1.2a2.453,2.453,0,0,0-1.557-.973,8.9,8.9,0,0,0-3.6.267" transform="translate(-28.84 2.292)" fill="#fff" fill-rule="evenodd"/></g></svg>