<svg width="100" height="100" viewBox="0 0 100 100" fill="none" xmlns="http://www.w3.org/2000/svg">
<g clip-path="url(#clip0_1124_16363)">
<path d="M50 100C77.6142 100 100 77.6142 100 50C100 22.3858 77.6142 0 50 0C22.3858 0 0 22.3858 0 50C0 77.6142 22.3858 100 50 100Z" fill="#005596"/>
<path d="M49.9999 98.7333C76.9146 98.7333 98.7333 76.9147 98.7333 50C98.7333 23.0853 76.9146 1.26666 49.9999 1.26666C23.0853 1.26666 1.2666 23.0853 1.2666 50C1.2666 76.9147 23.0853 98.7333 49.9999 98.7333Z" fill="#005596"/>
<path d="M50 2.53333C76.1714 2.53333 97.4667 23.8286 97.4667 50C97.4667 76.1714 76.1714 97.4667 50 97.4667C23.8286 97.4667 2.53333 76.1714 2.53333 50C2.53333 23.8286 23.8286 2.53333 50 2.53333ZM50 0C22.3857 0 0 22.3857 0 50C0 77.6143 22.3857 100 50 100C77.6143 100 100 77.6143 100 50C100 22.3857 77.6143 0 50 0Z" fill="#005596"/>
<path d="M50 100C77.6142 100 100 77.6142 100 50C100 22.3858 77.6142 0 50 0C22.3858 0 0 22.3858 0 50C0 77.6142 22.3858 100 50 100Z" fill="#F9CC11"/>
<path d="M50 2.53333C76.1714 2.53333 97.4667 23.8286 97.4667 50C97.4667 76.1714 76.1714 97.4667 50 97.4667C23.8286 97.4667 2.53333 76.1714 2.53333 50C2.53333 23.8286 23.8286 2.53333 50 2.53333ZM50 0C22.3857 0 0 22.3857 0 50C0 77.6143 22.3857 100 50 100C77.6143 100 100 77.6143 100 50C100 22.3857 77.6143 0 50 0Z" fill="black"/>
<path fill-rule="evenodd" clip-rule="evenodd" d="M49.9998 16.8048C68.3427 16.8048 83.2188 31.6714 83.2188 50C83.2188 68.3286 68.3427 83.1952 49.9998 83.1952C31.6569 83.1952 16.7808 68.3286 16.7808 50C16.7808 31.6714 31.6569 16.8048 49.9998 16.8048Z" fill="#F9CC11"/>
<path fill-rule="evenodd" clip-rule="evenodd" d="M49.9999 16.519C68.4999 16.519 83.5046 31.5095 83.5046 50C83.5046 68.4857 68.4999 83.4809 49.9999 83.4809C31.4999 83.4809 16.4951 68.4857 16.4951 50C16.4951 31.5143 31.4999 16.519 49.9999 16.519ZM49.9999 16.9C68.2904 16.9 83.1237 31.7238 83.1237 50C83.1237 68.2762 68.2904 83.1 49.9999 83.1C31.7094 83.1 16.8761 68.2762 16.8761 50C16.8761 31.7238 31.7094 16.9 49.9999 16.9Z" fill="black" stroke="black" stroke-width="0.95" stroke-miterlimit="10"/>
<path fill-rule="evenodd" clip-rule="evenodd" d="M49.9998 24.8667C63.8855 24.8667 75.1522 36.1238 75.1522 50C75.1522 63.8809 63.8903 75.1333 49.9998 75.1333C36.1093 75.1333 24.8474 63.8762 24.8474 50C24.8474 36.1238 36.1093 24.8667 49.9998 24.8667Z" fill="black"/>
<path fill-rule="evenodd" clip-rule="evenodd" d="M59.1284 51.4762V57.1762H59.5808C59.9141 57.1762 59.9522 57.0571 59.9522 56.8809V51.8095C59.9522 51.5762 59.8855 51.4809 59.5855 51.4809H59.1284V51.4762ZM46.5046 61.1571L35.9617 61.1381L32.1665 57.2429V54.5809H35.1332V48.6381L27.6713 41.8619H25.4379L22.176 38.4952V35.8333H38.9998L42.4189 39.5429L42.4284 41.9571H41.3475L43.1046 43.5381L48.757 39.4524L47.7713 38.5048V35.8333H58.0713L61.5903 38.2143L61.5998 42.0524H57.7713L53.1951 45.3619H61.3617C66.457 45.3619 72.4713 48.8238 72.4617 54.6571C72.457 57.6333 71.357 59.6524 69.0379 61.2238C71.2855 62.7381 72.6332 64.9333 72.6236 67.8952C72.6141 70.5809 71.4236 72.8428 69.4808 74.3143C68.1094 75.3571 66.3475 76.0429 64.4475 76.0429H47.6617L43.9094 72.1476V69.2429H46.5094V61.1667L46.5046 61.1571ZM59.0903 63.4524V69.2333H59.5808C59.7903 69.2333 59.9094 69.1381 59.9094 68.8619V63.9857C59.8998 63.5381 59.8236 63.4762 59.5332 63.4571H59.0856" fill="white"/>
<path fill-rule="evenodd" clip-rule="evenodd" d="M58.657 51V57.6476H59.5951C60.1427 57.6476 60.4284 57.4571 60.4284 56.8952V51.7905C60.4284 51.1857 60.1903 51 59.5998 51H58.657ZM46.9856 60.6809L36.1665 60.6619L32.6475 57.0476V55.0524H35.6141V48.4238L27.857 41.3809H25.6427L22.657 38.2952V36.3H38.7998L41.9522 39.719V41.4714L40.1141 41.4619L43.076 44.1381L49.4998 39.4952L48.2522 38.2952V36.3H57.9332L61.1236 38.4571V41.5667H57.6236L51.7332 45.819H61.3617C65.8189 45.819 72.0046 48.8429 71.9903 54.6429C71.9808 58.2619 70.2951 59.819 68.2475 61.1762C68.8665 61.8476 72.1332 63.1857 72.1522 67.8762C72.176 72.5762 68.2236 75.5476 64.4475 75.5476H47.8713L44.3903 71.9333V69.6905H46.9903V60.6667L46.9856 60.6809ZM58.6189 62.9714V69.7H59.5998C60.1951 69.7 60.3903 69.4571 60.3903 68.8619V63.9619C60.3903 63.3762 60.1903 62.9714 59.5617 62.9714H58.6189Z" fill="black"/>
<path fill-rule="evenodd" clip-rule="evenodd" d="M55.338 47.8048V57.8381H59.6046C60.4332 57.8381 60.6189 57.3619 60.6189 56.9V48.7809C60.6189 48.0286 60.2332 47.8048 59.6046 47.8048H55.338ZM55.338 59.7V69.8952H59.6046C60.2903 69.8952 60.6189 69.5571 60.6189 68.8714V60.8762C60.6189 60.1143 60.2856 59.7 59.6046 59.7H55.338ZM47.1713 69.8952V47.8048H45.2237V46.019H61.3475C65.6427 46.019 68.8903 48.4286 69.0237 52.9333C69.0951 55.2619 67.738 57.6857 65.6475 58.9905C67.638 60.319 69.1189 61.6286 69.1046 65.0857C69.0856 69.2905 65.2618 71.7571 62.3618 71.7571H44.5713V69.8952H47.1713Z" fill="#F9CC11"/>
<path fill-rule="evenodd" clip-rule="evenodd" d="M43.7618 46.119V55.2476H45.6285V56.8619H32.8332V55.2476H35.7999V48.0048L26.7094 39.7905L24.8571 38.1143H22.8428V36.5H38.6047V38.1143H36.1142L43.0571 44.3905L51.719 38.1143H48.438V36.5H57.738V38.1143H54.8142L43.7666 46.119" fill="#F9CC11"/>
<path fill-rule="evenodd" clip-rule="evenodd" d="M49.9998 26.8667L50.8331 29.4286H53.5283L51.3474 31.0143L52.1807 33.5762L49.9998 31.9905L47.8188 33.5762L48.6521 31.0143L46.4712 29.4286H49.1664L49.9998 26.8667Z" fill="#F9CC11"/>
<path fill-rule="evenodd" clip-rule="evenodd" d="M44.9332 80.8667L44.2712 80.7524L44.6998 78.2429C44.4189 78.4238 44.1189 78.5048 43.7522 78.5L43.8522 77.9143C44.3427 77.9 44.8427 77.619 44.976 77.3857L45.5141 77.4762L44.9332 80.8619" fill="black"/>
<path fill-rule="evenodd" clip-rule="evenodd" d="M50.0903 80.4428L50.776 80.3714C50.8236 80.6095 51.1379 80.7381 51.457 80.7C52.0998 80.6238 52.1427 80.1428 52.1617 79.7095C51.957 79.9095 51.5998 80.019 51.276 80.0286C50.9284 80.0428 50.6189 79.9524 50.357 79.7571C50.0951 79.5619 49.9522 79.2952 49.9379 78.9619C49.9236 78.6143 50.0427 78.3286 50.3046 78.1048C50.5617 77.8809 50.8379 77.7619 51.2474 77.7428C52.3522 77.7 52.7617 78.4333 52.8046 79.4238C52.8522 80.4809 52.5332 81.1905 51.3808 81.2381C50.7903 81.2619 50.2474 80.9476 50.0855 80.4381L50.0903 80.4428ZM52.0617 78.9095C52.0427 78.4809 51.7141 78.2714 51.2998 78.2905C50.8855 78.3048 50.6236 78.5428 50.6427 78.9286C50.6617 79.3143 50.9665 79.5619 51.4046 79.5428C51.7855 79.5286 52.0855 79.3095 52.0665 78.9095" fill="black"/>
<path fill-rule="evenodd" clip-rule="evenodd" d="M47.1902 79.2952C46.9712 79.219 46.8141 79.119 46.7188 78.9952C46.6188 78.8714 46.5712 78.7333 46.576 78.5809C46.576 78.3286 46.695 78.119 46.9236 77.9524C47.1521 77.7857 47.4807 77.7095 47.8998 77.7143C48.3188 77.7143 48.6379 77.8048 48.8664 77.9762C49.095 78.1428 49.2093 78.3571 49.2093 78.6095C49.2093 78.7667 49.1521 78.9095 49.0474 79.0333C48.9426 79.1571 48.7902 79.2476 48.5998 79.3143C48.8426 79.3905 49.0283 79.5048 49.1521 79.6524C49.276 79.8 49.3379 79.9667 49.3379 80.1619C49.3379 80.4762 49.2045 80.7333 48.9474 80.9286C48.6855 81.1238 48.3426 81.219 47.9141 81.2143C47.5141 81.2143 47.1855 81.1238 46.9188 80.9571C46.6045 80.7619 46.4521 80.4952 46.4521 80.1571C46.4521 79.9714 46.5141 79.8048 46.6331 79.6476C46.7521 79.4952 46.9379 79.3762 47.1902 79.2952ZM47.2236 78.5952C47.2236 78.9476 47.6093 79.0524 47.8902 79.0571C48.1712 79.0571 48.5426 78.9524 48.5474 78.6143C48.5474 78.2857 48.176 78.1857 47.9045 78.1809C47.6331 78.1809 47.2283 78.2619 47.2236 78.5952ZM47.095 80.119C47.095 80.5667 47.5141 80.6952 47.9045 80.7C48.2807 80.7 48.6664 80.5381 48.6664 80.1286C48.6664 79.7333 48.2426 79.5857 47.8998 79.5809C47.5569 79.5809 47.0998 79.719 47.095 80.119Z" fill="black"/>
<path fill-rule="evenodd" clip-rule="evenodd" d="M54.2714 78.9762C54.0428 78.9429 53.8714 78.8714 53.7571 78.7619C53.638 78.6571 53.5666 78.5286 53.5428 78.381C53.4999 78.1286 53.5761 77.9048 53.7761 77.7C53.9761 77.4952 54.2809 77.3619 54.6952 77.2952C55.1047 77.2286 55.438 77.2571 55.6952 77.381C55.9523 77.5048 56.0999 77.6952 56.1428 77.9476C56.1714 78.1048 56.1428 78.2524 56.0571 78.3905C55.9761 78.5286 55.8428 78.6476 55.6666 78.7429C55.919 78.7762 56.119 78.8571 56.2714 78.981C56.419 79.1048 56.5095 79.2619 56.5428 79.4476C56.5952 79.7571 56.5095 80.0333 56.2904 80.2714C56.0666 80.5095 55.7476 80.6619 55.3237 80.7333C54.9285 80.8 54.5904 80.7714 54.2999 80.6571C53.9571 80.519 53.7571 80.2809 53.7047 79.9524C53.6714 79.7714 53.7047 79.5952 53.7952 79.419C53.8857 79.2476 54.0476 79.1 54.2856 78.9762H54.2714ZM54.1809 78.281C54.238 78.6238 54.638 78.6667 54.919 78.619C55.1952 78.5714 55.5428 78.4 55.4856 78.0667C55.4333 77.7429 55.0428 77.7095 54.7761 77.7524C54.5095 77.7952 54.1237 77.9524 54.1809 78.2762V78.281ZM54.319 79.8048C54.3952 80.2476 54.8333 80.3 55.2142 80.2333C55.5856 80.1714 55.938 79.9429 55.8666 79.5381C55.7999 79.1476 55.3523 79.0762 55.0142 79.1333C54.6809 79.1905 54.2523 79.4095 54.319 79.8048Z" fill="black"/>
<path fill-rule="evenodd" clip-rule="evenodd" d="M25.8237 31.1524L25.1475 31.9714L25.7189 32.4429L26.3951 31.6238C26.5475 31.4381 26.6332 31.2952 26.6475 31.1905C26.6618 31.0857 26.6189 30.9905 26.5142 30.9095C26.4142 30.8238 26.3094 30.8 26.1999 30.8381C26.0951 30.8762 25.9713 30.9809 25.8237 31.1524ZM26.8237 33.3571L27.5856 32.4381C27.7427 32.2524 27.8237 32.1048 27.8332 32C27.8427 31.8952 27.7951 31.7952 27.6808 31.7048C27.5665 31.6095 27.457 31.5809 27.3427 31.6143C27.2332 31.6476 27.1046 31.7524 26.9618 31.9238L26.1999 32.8429L26.8189 33.3571H26.8237ZM26.7999 34.5048L24.0332 32.2143L25.5142 30.4286C25.7713 30.119 26.0189 29.9333 26.2665 29.8762C26.5094 29.8143 26.7475 29.881 26.9761 30.0714C27.1094 30.181 27.2046 30.3143 27.2522 30.4619C27.2999 30.6095 27.3094 30.7714 27.2665 30.9476C27.4475 30.8286 27.6332 30.7809 27.8142 30.7952C27.9951 30.8095 28.1761 30.8905 28.3475 31.0333C28.5903 31.2381 28.7189 31.4762 28.7284 31.7524C28.738 32.0286 28.6237 32.3048 28.3903 32.5857L26.7951 34.5095" fill="black"/>
<path fill-rule="evenodd" clip-rule="evenodd" d="M28.8331 30.3238L29.5046 29.6952L29.5284 29.719C29.6665 29.8667 29.8379 29.919 30.0379 29.8762C30.2427 29.8333 30.4665 29.6952 30.7141 29.4619C30.9046 29.281 31.0284 29.119 31.0808 28.9619C31.1331 28.8095 31.1093 28.6809 31.0141 28.5762C30.9331 28.4905 30.8379 28.4571 30.7331 28.481C30.6284 28.5048 30.4617 28.6 30.2331 28.7714L29.7236 29.1619C29.3474 29.4429 29.0284 29.6 28.7522 29.6286C28.4808 29.6571 28.2427 29.5667 28.0379 29.3476C27.7998 29.0905 27.7188 28.7714 27.795 28.3952C27.876 28.019 28.1046 27.6524 28.4855 27.2952C28.895 26.9143 29.2855 26.6905 29.6617 26.6286C30.0379 26.5667 30.3474 26.6667 30.595 26.9286L30.6141 26.9476L29.9617 27.5571C29.8236 27.4381 29.6712 27.4 29.5046 27.4333C29.3379 27.4667 29.1522 27.581 28.9522 27.7667C28.7665 27.9381 28.6474 28.1 28.595 28.2476C28.5427 28.3952 28.5617 28.519 28.6522 28.6143C28.7236 28.6905 28.8046 28.719 28.8998 28.7C28.995 28.681 29.1665 28.5714 29.4284 28.381L29.9665 27.9762C30.3379 27.7 30.6569 27.5524 30.9331 27.5286C31.2093 27.5048 31.4522 27.6095 31.6617 27.8381C31.9331 28.1286 32.0236 28.4619 31.9284 28.8333C31.8331 29.2048 31.5569 29.6048 31.0998 30.0333C30.6665 30.4381 30.2569 30.6714 29.8712 30.7286C29.4855 30.7857 29.1569 30.6667 28.8808 30.3714L28.8284 30.3143" fill="black"/>
<path fill-rule="evenodd" clip-rule="evenodd" d="M35.6998 24.9714C35.9189 25.3667 35.9522 25.7857 35.7998 26.219C35.6474 26.6524 35.3331 27.0381 34.8569 27.3714C34.3189 27.7476 33.795 27.9048 33.276 27.8476C32.7617 27.7905 32.3379 27.5286 32.0093 27.0571C31.6808 26.5857 31.576 26.1 31.6998 25.5952C31.8236 25.0905 32.1522 24.6524 32.6903 24.2762C33.157 23.9476 33.6236 23.7809 34.076 23.7762C34.5331 23.7762 34.895 23.9286 35.176 24.2476L34.3712 24.8095C34.195 24.6619 34.0046 24.5952 33.7903 24.6095C33.576 24.6238 33.3522 24.7143 33.1093 24.8809C32.8141 25.0857 32.6427 25.3333 32.5903 25.619C32.5379 25.9048 32.6141 26.1952 32.8189 26.4905C33.0236 26.7809 33.2665 26.9524 33.5569 27C33.8427 27.0476 34.1331 26.9714 34.4331 26.7619C34.6903 26.5809 34.857 26.3857 34.9379 26.1667C35.0189 25.9524 35.0046 25.7381 34.895 25.5286L35.6998 24.9619" fill="black"/>
<path fill-rule="evenodd" clip-rule="evenodd" d="M39.919 24.7714L39.4666 23.3095L37.3618 21.8048L38.4523 21.4667L39.6856 22.4286L40.1523 20.9429L41.238 20.6095L40.319 23.0429L40.7713 24.5048L39.9142 24.7714" fill="black"/>
<path fill-rule="evenodd" clip-rule="evenodd" d="M44.0379 22.9238C44.3903 22.8429 44.6427 22.681 44.7951 22.4333C44.9522 22.1857 44.9903 21.8905 44.9093 21.5476C44.8284 21.2 44.6665 20.9476 44.4189 20.7952C44.1713 20.6429 43.8713 20.6048 43.5236 20.6857C43.176 20.7667 42.9189 20.9286 42.7617 21.1762C42.6046 21.4238 42.5665 21.719 42.6474 22.0667C42.7284 22.4143 42.8903 22.6619 43.1379 22.8143C43.3855 22.9667 43.6855 23 44.0379 22.919V22.9238ZM41.6808 22.2905C41.5522 21.7333 41.6379 21.2429 41.9427 20.819C42.2474 20.3952 42.7141 20.1143 43.3522 19.9667C43.9903 19.819 44.5379 19.8667 44.9951 20.1143C45.4522 20.3619 45.7427 20.7619 45.8713 21.3238C45.9998 21.8809 45.9141 22.3714 45.6141 22.7905C45.3141 23.2095 44.8427 23.4952 44.2046 23.6429C43.5665 23.7905 43.0189 23.7429 42.5617 23.4952C42.1046 23.2476 41.8141 22.8476 41.6808 22.2905Z" fill="black"/>
<path fill-rule="evenodd" clip-rule="evenodd" d="M47.138 19.5095L47.2714 21.4333C47.2952 21.7857 47.3904 22.0381 47.5476 22.1857C47.7047 22.3333 47.9523 22.4 48.2761 22.3762C48.4523 22.3619 48.5999 22.3286 48.7285 22.2714C48.8523 22.2143 48.9523 22.1333 49.0238 22.0286C49.0809 21.9476 49.119 21.8571 49.138 21.7619C49.1571 21.6619 49.1618 21.5095 49.1476 21.3048L49.0142 19.381L49.9047 19.319L50.0476 21.3381C50.0857 21.881 49.9571 22.3048 49.6666 22.6048C49.3761 22.9095 48.9285 23.081 48.3285 23.1238C47.7285 23.1667 47.2618 23.0571 46.9333 22.8C46.6047 22.5429 46.419 22.1429 46.3809 21.6L46.238 19.581L47.1333 19.519" fill="black"/>
<path fill-rule="evenodd" clip-rule="evenodd" d="M50.4141 22.8667L50.6664 19.2905L51.7664 19.3667L53.3807 22.0143L53.5569 19.4905L54.4188 19.5524L54.1664 23.1333L53.076 23.0571L51.4474 20.3809L51.2712 22.9286L50.4141 22.8667Z" fill="black"/>
<path fill-rule="evenodd" clip-rule="evenodd" d="M56.2952 23.8C56.0238 23.7381 55.7809 23.6429 55.5571 23.5095C55.3333 23.3809 55.1476 23.2238 55.0047 23.0429C54.8238 22.819 54.7095 22.5809 54.6524 22.3238C54.5952 22.0667 54.6047 21.7905 54.6762 21.4905C54.8047 20.9333 55.1 20.5286 55.5571 20.2809C56.0143 20.0333 56.5619 19.9857 57.2 20.1333C57.7381 20.2571 58.1619 20.4809 58.4619 20.8048C58.7666 21.1286 58.9 21.4905 58.8619 21.8905L57.9095 21.6714C57.8762 21.4571 57.7857 21.2857 57.6381 21.1476C57.4904 21.0143 57.2904 20.9143 57.0333 20.8524C56.6857 20.7714 56.3857 20.8095 56.1333 20.9619C55.8857 21.1143 55.719 21.3667 55.6381 21.7143C55.5571 22.0619 55.5952 22.3571 55.7524 22.6048C55.9095 22.8524 56.1619 23.0143 56.5143 23.0952C56.7524 23.1524 57.219 23.2 57.7095 23.1619L57.8 22.7762L56.6285 22.5095L56.7905 21.8143L58.7666 22.2762L58.3857 23.7809C58.119 23.8571 57.8095 23.9 57.4619 23.9143C57.0714 23.9333 56.6428 23.8905 56.3 23.8143" fill="black"/>
<path fill-rule="evenodd" clip-rule="evenodd" d="M63.4093 23.2095L62.4522 22.7429L62.1284 23.4095L63.0855 23.8762C63.2998 23.981 63.4617 24.0286 63.5665 24.019C63.6712 24.0095 63.7522 23.9429 63.8093 23.8238C63.8665 23.7048 63.8665 23.6 63.8093 23.5048C63.7474 23.4095 63.6188 23.3143 63.4141 23.2143L63.4093 23.2095ZM61.4998 24.7L62.576 25.2238C62.795 25.3286 62.9569 25.3762 63.0617 25.3619C63.1665 25.3476 63.2474 25.2762 63.3141 25.1429C63.376 25.0143 63.3807 24.8952 63.3236 24.7952C63.2665 24.6952 63.1331 24.5952 62.9331 24.4952L61.8569 23.9714L61.5046 24.6952L61.4998 24.7ZM60.376 24.9476L61.9474 21.7238L64.0331 22.7429C64.395 22.919 64.6331 23.119 64.7474 23.3429C64.8617 23.5667 64.8569 23.8095 64.7236 24.0762C64.6474 24.2333 64.5426 24.3524 64.4093 24.4381C64.276 24.5238 64.1188 24.5667 63.9379 24.5714C64.095 24.719 64.1903 24.8857 64.2188 25.0667C64.2474 25.2476 64.2141 25.4381 64.1141 25.6381C63.976 25.9238 63.7712 26.1048 63.5046 26.1762C63.2379 26.2476 62.9426 26.2048 62.6141 26.0476L60.3665 24.9524" fill="black"/>
<path fill-rule="evenodd" clip-rule="evenodd" d="M66.1809 27.4476C66.4761 27.6524 66.7666 27.7333 67.0523 27.6809C67.338 27.6333 67.5856 27.4619 67.7904 27.1714C67.9952 26.8762 68.0713 26.5857 68.0237 26.3C67.9713 26.0143 67.7999 25.7667 67.5047 25.5619C67.2094 25.3571 66.919 25.2762 66.6332 25.3286C66.3475 25.3762 66.0999 25.5476 65.8952 25.8429C65.6904 26.1333 65.6142 26.4238 65.6666 26.7095C65.719 26.9952 65.8952 27.2428 66.1904 27.4476H66.1809ZM65.0761 25.2762C65.4047 24.8048 65.8285 24.5428 66.3428 24.4857C66.8571 24.4286 67.3856 24.5857 67.9237 24.9619C68.4618 25.3381 68.7904 25.7762 68.9094 26.2809C69.0333 26.7857 68.9285 27.2714 68.5952 27.7428C68.2666 28.2143 67.8428 28.4762 67.3285 28.5333C66.8142 28.5905 66.2856 28.4333 65.7523 28.0571C65.2142 27.6809 64.8856 27.2429 64.7618 26.7381C64.638 26.2333 64.7428 25.7476 65.0713 25.2762" fill="black"/>
<path fill-rule="evenodd" clip-rule="evenodd" d="M68.4617 30.0476L69.5045 28.9286L69.7617 26.3571L70.5998 27.1381L70.3807 28.6857L71.9045 28.3524L72.7379 29.1286L70.1664 29.5429L69.1236 30.6619L68.4664 30.0476" fill="black"/>
<path fill-rule="evenodd" clip-rule="evenodd" d="M71.5189 30.9714L72.0951 31.6857L72.0665 31.7048C71.9094 31.8333 71.8475 32 71.876 32.2048C71.9046 32.4095 72.0284 32.6429 72.2427 32.9095C72.4094 33.1143 72.5665 33.2476 72.7141 33.3095C72.8617 33.3714 72.9903 33.3571 73.0998 33.2714C73.1903 33.1952 73.2284 33.1048 73.2141 33C73.1998 32.8905 73.1141 32.719 72.957 32.4809L72.6046 31.9476C72.3475 31.5524 72.2141 31.2238 72.2046 30.9476C72.1951 30.6762 72.3046 30.4429 72.5332 30.2571C72.8046 30.0333 73.1284 29.9762 73.4998 30.0857C73.8713 30.1905 74.2189 30.4476 74.5475 30.8524C74.8998 31.2857 75.0951 31.6905 75.1332 32.0714C75.1713 32.4476 75.0475 32.7524 74.7665 32.9809L74.7427 33L74.1808 32.3048C74.3094 32.1762 74.357 32.0238 74.3379 31.8571C74.3141 31.6857 74.2189 31.4952 74.0475 31.2857C73.8903 31.0905 73.7379 30.9619 73.5951 30.8952C73.4522 30.8333 73.3284 30.8429 73.2284 30.9238C73.1475 30.9905 73.1141 31.0714 73.1284 31.1619C73.1427 31.2571 73.2379 31.4381 73.4094 31.7095L73.776 32.2714C74.0284 32.6619 74.1522 32.9905 74.157 33.2667C74.157 33.5429 74.0427 33.7762 73.7998 33.9714C73.4903 34.2238 73.1522 34.2857 72.7856 34.1667C72.4189 34.0476 72.0427 33.7429 71.6475 33.2571C71.2713 32.7952 71.0713 32.3714 71.0379 31.9857C71.0046 31.6 71.1475 31.2809 71.4618 31.0238L71.5189 30.9762" fill="black"/>
<path d="M30.7095 11.3381L31.1143 12.0714L28.9 13.2952L29.2476 13.9286L31.2143 12.8429L31.6143 13.5714L29.6476 14.6572L30.1333 15.5333L29.2714 16.0095L27.6333 13.0429L30.7095 11.3429V11.3381Z" fill="black"/>
<path d="M36.3001 12.6238L35.762 12.1524L33.8286 12.9381L33.7715 13.6524L32.7905 14.0524L33.1334 10.2571L34.3905 9.74762L37.281 12.2286L36.3048 12.6238H36.3001ZM33.8953 12.1143L35.1334 11.6095L34.0143 10.6333L33.8953 12.1143Z" fill="black"/>
<path d="M41.3476 10.1762L40.7619 7.81906L41.7095 7.58572L42.5238 10.8762L41.1286 11.2238L38.6048 9.34763L39.1905 11.7048L38.2381 11.9429L37.4238 8.65239L38.8238 8.30477L41.3476 10.181V10.1762Z" fill="black"/>
<path d="M46.1189 6.96191L50.1998 6.79524L50.2332 7.62858L48.6856 7.69048L48.7903 10.2429L47.8094 10.281L47.7046 7.72858L46.1522 7.79048L46.1189 6.95715V6.96191Z" fill="black"/>
<path d="M51.3905 8.49525C51.4857 7.3762 52.3143 6.78096 53.7381 6.90477C55.1572 7.02858 55.8762 7.75715 55.781 8.87144C55.6857 9.99049 54.8524 10.5952 53.4334 10.4714C52.0096 10.3476 51.2953 9.61906 51.3905 8.49525ZM54.7572 8.78572C54.8096 8.20001 54.5048 7.80953 53.6667 7.73811C52.8334 7.66668 52.4667 7.99049 52.4191 8.58572C52.3667 9.18096 52.6762 9.57144 53.5048 9.64287C54.3381 9.7143 54.7096 9.38096 54.7619 8.79049L54.7572 8.78572Z" fill="black"/>
<path d="M61.6239 8.36667L59.6334 9.38095L60.881 11.6762L59.6763 11.4048L58.8096 9.80476L57.862 10.2857L57.7096 10.9571L56.7524 10.7381L57.5001 7.42857L58.462 7.64286L58.1286 9.12857L60.1953 8.0381L61.6334 8.36191L61.6239 8.36667Z" fill="black"/>
<path d="M66.3286 9.99524L66.0667 10.7191L63.6858 9.85715L63.5 10.3667L65.7905 11.1952L65.5286 11.9191L63.2381 11.0905L63.0524 11.6L65.4334 12.4619L65.1715 13.1857L61.8667 11.9905L63.0191 8.8L66.3238 9.99524H66.3286Z" fill="black"/>
<path d="M69.7618 14.3524L70.8761 12.1905L71.7476 12.6381L70.1904 15.6524L68.9095 14.9905L68.2476 11.9095L67.1333 14.0714L66.2571 13.6191L67.8142 10.6048L69.0999 11.2667L69.7618 14.3476V14.3524Z" fill="black"/>
<path d="M27.3953 85.4762C27.2476 85.719 27.3953 86.0238 28.1572 86.4857C28.8572 86.9048 29.0953 86.9 29.2048 86.719C29.3334 86.5095 29.2238 86.3905 28.3953 85.8143C27.2667 85.0238 26.8905 84.4762 27.2762 83.8333C27.6429 83.2286 28.4619 83.3476 29.4667 83.9524C30.5857 84.6238 31.0238 85.3524 30.6619 86.0143L29.781 85.4857C29.9334 85.2286 29.7143 84.9619 29.0619 84.5714C28.4429 84.2 28.2429 84.219 28.1476 84.3762C28.0381 84.5571 28.1476 84.6952 28.8953 85.2333C29.9143 85.9571 30.5619 86.4476 30.1048 87.2095C29.6572 87.9524 28.8381 87.7571 27.8048 87.1333C26.6286 86.4238 26.0905 85.7381 26.5096 84.9476L27.3905 85.4809L27.3953 85.4762Z" fill="black"/>
<path d="M31.5238 87.1905C31.9714 86.1571 32.9428 85.8619 34.2571 86.4286C35.5667 86.9952 36.0143 87.9143 35.5714 88.9429C35.1238 89.9762 34.1428 90.281 32.8333 89.7143C31.519 89.1476 31.0762 88.2286 31.5238 87.1905ZM34.6286 88.5381C34.8619 87.9952 34.6952 87.5333 33.9238 87.1952C33.1571 86.8619 32.7047 87.0571 32.4714 87.6C32.2333 88.1476 32.4047 88.6143 33.1667 88.9476C33.9333 89.281 34.3952 89.081 34.6286 88.5333V88.5381Z" fill="black"/>
<path d="M39.3047 88.219C40.5047 88.5571 41.0428 89.2619 40.9047 90.1286L39.9 89.8476C39.919 89.5286 39.6857 89.1905 39.0809 89.0238C38.3809 88.8286 37.9476 89.0762 37.7857 89.6476C37.6238 90.2238 37.8714 90.6667 38.5666 90.8619C39.1714 91.0286 39.5476 90.8619 39.6952 90.5714L40.7 90.8524C40.3666 91.6714 39.5428 92 38.3381 91.6667C37.0285 91.3 36.4809 90.4905 36.7905 89.3714C37.1047 88.2571 37.9905 87.8524 39.3 88.219H39.3047Z" fill="black"/>
<path d="M43.3953 89.2286L42.7953 92.5619L41.8286 92.3857L42.4286 89.0524L43.3953 89.2286Z" fill="black"/>
<path d="M44.4191 91.1476C44.5096 90.0286 45.3334 89.4333 46.7572 89.5476C48.1763 89.6619 48.9001 90.3905 48.8049 91.5048C48.7144 92.6238 47.8858 93.2286 46.462 93.1143C45.0382 93 44.3191 92.2714 44.4144 91.1476H44.4191ZM47.7858 91.4238C47.8334 90.8381 47.5287 90.4524 46.6906 90.381C45.8572 90.3143 45.4953 90.6429 45.443 91.2333C45.3953 91.8286 45.7049 92.2143 46.5334 92.2857C47.3668 92.3524 47.7382 92.019 47.7858 91.4238Z" fill="black"/>
<path d="M51.119 92.0476C51.1333 92.3333 51.4238 92.5048 52.3143 92.4571C53.1286 92.4143 53.3238 92.2762 53.3095 92.0619C53.2952 91.8143 53.1428 91.781 52.1333 91.7667C50.7571 91.7429 50.1333 91.5 50.0952 90.7476C50.0571 90.0429 50.8047 89.681 51.9762 89.6238C53.2809 89.5571 54.0524 89.9095 54.119 90.6619L53.0952 90.7143C53.0809 90.4143 52.7476 90.3191 51.9857 90.3571C51.2666 90.3952 51.1095 90.5238 51.119 90.7048C51.1285 90.9143 51.2952 90.9714 52.219 91C53.4666 91.0286 54.2809 91.0714 54.3285 91.9619C54.3714 92.8286 53.5857 93.1238 52.3809 93.1857C51.0095 93.2571 50.1762 92.9857 50.0857 92.0952L51.1143 92.0429L51.119 92.0476Z" fill="black"/>
<path d="M55.7428 92.0429L56.6809 91.9048L56.7857 92.6333L55.8476 92.7714L55.738 92.0429H55.7428Z" fill="black"/>
<path d="M59.4811 88.5333C60.6953 88.2381 61.5096 88.5905 61.8144 89.4143L60.8001 89.6619C60.662 89.3714 60.2906 89.1952 59.6811 89.3429C58.9763 89.5143 58.7192 89.9429 58.8572 90.5238C59.0001 91.1048 59.4334 91.3714 60.1334 91.2C60.743 91.0524 60.9906 90.7191 60.9763 90.3905L61.9906 90.1429C62.1001 91.0191 61.543 91.7143 60.3287 92.0095C59.0049 92.3333 58.1287 91.8952 57.8525 90.7667C57.5763 89.6429 58.1525 88.8571 59.4763 88.5333H59.4811Z" fill="black"/>
<path d="M63.1524 89.3905C62.7382 88.3429 63.2191 87.4429 64.5477 86.919C65.8715 86.3952 66.8429 86.7286 67.2524 87.7714C67.6667 88.8191 67.1858 89.7286 65.862 90.2524C64.5334 90.7762 63.5667 90.4429 63.1524 89.3905ZM66.3001 88.1476C66.0858 87.6 65.6382 87.3857 64.8572 87.6952C64.081 88 63.8953 88.4571 64.1143 89.0095C64.3334 89.5667 64.7858 89.7762 65.5572 89.4714C66.3334 89.1667 66.5191 88.7 66.3001 88.1476Z" fill="black"/>
<path d="M69.3381 88.6905L67.6333 85.7571L68.9571 84.9857L71.1095 86.3381L70.9952 83.8L72.319 83.0286L74.0238 85.9619L73.1762 86.4524L71.9428 84.3286L72.0762 87.0952L71.2904 87.5524L68.9524 86.0714L70.1904 88.1952L69.3381 88.6905Z" fill="black"/>
<path d="M23.019 81.8381C13.9952 74.181 8.2666 62.7571 8.2666 50C8.2666 37.2429 14.2999 25.2143 23.738 17.5619" stroke="black" stroke-miterlimit="10"/>
<path d="M76.2666 17.5667C85.7047 25.219 91.7333 36.9048 91.7333 50C91.7333 63.0952 86.0047 74.1857 76.9809 81.8429" stroke="black" stroke-miterlimit="10"/>
</g>
<defs>
<clipPath id="clip0_1124_16363">
<rect width="100" height="100" fill="white"/>
</clipPath>
</defs>
</svg>
