<svg xmlns="http://www.w3.org/2000/svg" id="Layer_2" viewBox="0 0 210 210"><g id="Layer_1-2"><g><g><circle cx="105" cy="105" r="105" fill="#fff"></circle><path d="M105,5.32c54.96,0,99.68,44.72,99.68,99.68s-44.72,99.68-99.68,99.68S5.32,159.96,5.32,105,50.04,5.32,105,5.32M105,0C47.01,0,0,47.01,0,105s47.01,105,105,105,105-47.01,105-105S162.99,0,105,0h0Z" fill="#2d2a26"></path></g><g><path d="M104.95,152.18c-25.9,0-46.95-21.08-46.95-47s21.06-46.99,46.95-46.99,46.99,21.07,46.99,46.99-21.07,47-46.99,47" fill="#fff"></path><path d="M104.92,151.14c-25.32,0-45.94-20.62-45.94-45.96s20.62-45.96,45.94-45.96,45.93,20.61,45.93,45.96-20.61,45.96-45.93,45.96" fill="#a6a8ab"></path><path d="M68.5,133.53l36.44-49.51,36.46,49.51c-2.09,2.7-4.49,5.15-7.12,7.32l-29.35-39.86-29.34,39.87c-2.62-2.17-5.03-4.62-7.11-7.32" fill="#fff"></path><path d="M110.59,84.01h15.03v25.43s.46,9.72-7.08,19.36c-6.22,7.95-13.58,10.89-13.58,10.89,0,0-7.33-2.95-13.57-10.89-7.54-9.64-7.08-19.36-7.08-19.36v-25.43h26.28Z" fill="#fff"></path><path d="M62.82,99.37l.29,.05c-.17,1.06,.08,1.36,1.33,1.56l6.56,1.04c2.21,.35,3.15-.82,3.36-2.15,.27-1.71-.75-3.08-2.81-3.41l-6.23-.99c-1.27-.2-1.58,0-1.76,1.11l-.29-.05,.52-3.29,.29,.05c-.16,.99,.07,1.33,1.34,1.53l6.3,1c2.52,.4,3.56,2.13,3.19,4.44-.27,1.69-1.34,3.82-4.55,3.31l-6.18-.98c-1.29-.2-1.58,.03-1.75,1.09l-.29-.05,.68-4.26Z" fill="#fff"></path><path d="M75.99,92.87c.3-.23,.57-.59,.79-1.03,.91-1.84-.05-3.63-2.59-4.89-2.58-1.28-4.69-.92-5.62,.96-.18,.37-.27,.64-.34,1.12l7.76,3.84Zm-7.87-5.21c1.55-3.12,4.42-3.37,6.76-2.21,2.79,1.38,3.49,4.2,2.3,6.61l-1.74,3.52-.22-.11c.47-.95,.4-1.24-.63-1.75l-6.18-3.06c-1.03-.51-1.31-.38-1.76,.56l-.22-.11,1.71-3.45Z" fill="#fff"></path><path d="M73.88,78.69l.2,.15c-.62,.77-.61,1.1,.29,1.79l5.45,4.22c.97,.75,1.25,.58,1.82-.16l.2,.15-2.37,3.06-.2-.15c.63-.8,.56-1.13-.3-1.8l-5.45-4.22c-.9-.7-1.21-.61-1.81,.17l-.2-.15,2.37-3.06Z" fill="#fff"></path><path d="M76.83,75.55l8.59,2.26,.02-.02-3.67-4.35c-.72-.86-1.06-.86-1.86-.17l-.16-.19,2.22-1.88,.16,.19c-.59,.49-.61,.88-.11,1.47l5.76,6.83-.16,.13-9.65-2.55-.02,.02,4.13,4.9c.77,.91,1.11,.86,1.95,.11l.16,.19-2.38,2.01-.16-.19c.69-.6,.68-.96,.15-1.59l-4.8-5.69-.68-.16c-.44-.11-.67-.01-1.01,.27l-.16-.19,1.67-1.41Z" fill="#fff"></path><path d="M90.97,69.06l-.24,.12c-.78-1.25-1.26-1.2-2.3-.7l-1.84,.88,1.7,3.56,1.44-.69c1.01-.49,1.13-.95,.63-1.97l.23-.11,1.52,3.17-.23,.11c-.47-1-.89-1.18-1.66-.81l-1.68,.81,1.56,3.25c.31,.64,.46,.71,1,.45l1.3-.63c1.11-.53,1.43-1.29,1.23-2.83l.26-.04,.39,2.6-5.99,2.87-.11-.22c.95-.44,1.08-.72,.58-1.77l-2.98-6.22c-.46-.96-.74-1.15-1.73-.64l-.11-.23,5.95-2.86,1.08,1.91Z" fill="#fff"></path><path d="M94.34,72.85l.27-.06c.55,1.86,1.97,2.44,3.08,2.18,.88-.21,1.35-1.04,1.13-1.96-.14-.59-.43-.99-1.08-1.38-.66-.4-2.31-.9-3.15-1.42-.71-.43-1.19-.99-1.39-1.81-.35-1.45,.39-2.69,1.8-3.03,1.08-.26,1.75,.1,2.06,.02,.24-.06,.39-.28,.4-.61l.24-.06,.77,3.2-.24,.06c-.54-1.89-2.06-2.32-2.95-2.1-.82,.2-1.29,.9-1.11,1.63,.12,.52,.44,.94,.99,1.28,.82,.5,2.45,.9,3.46,1.52,.68,.42,1.19,1.1,1.37,1.84,.36,1.51-.54,2.95-2.06,3.32-.99,.24-1.69-.14-2.12-.04-.29,.07-.42,.27-.4,.63l-.27,.07-.79-3.29Z" fill="#fff"></path><path d="M106.94,66.49h-.27c-.2-1.45-.66-1.6-1.81-1.57l-2.04,.05,.1,3.94,1.59-.04c1.12-.03,1.42-.41,1.38-1.54h.25s.09,3.51,.09,3.51h-.25c-.01-1.1-.33-1.43-1.19-1.41l-1.86,.05,.09,3.6c.02,.71,.13,.84,.73,.83l1.45-.04c1.22-.03,1.83-.59,2.28-2.08l.25,.07-.7,2.53-6.64,.17v-.25c1.04-.01,1.27-.21,1.24-1.38l-.18-6.89c-.03-1.06-.2-1.35-1.32-1.3v-.25s6.59-.17,6.59-.17l.2,2.18Z" fill="#fff"></path><path d="M120.74,69.34l-.3-.1c.47-1.98-.25-3.57-1.82-4.07-2.05-.65-3.66,1-4.85,4.71-1.11,3.49-.32,5.35,1.66,5.99,1.3,.42,2.38,.01,3.62-1.27l.22,.22c-1.33,1.5-2.84,2.01-4.49,1.48-2.31-.74-4.02-3.37-2.85-7.04,1.14-3.57,3.99-5.55,6.71-4.68,1.34,.43,1.78,1.33,2.19,1.46,.21,.07,.37-.08,.6-.57l.28,.09-.98,3.78Z" fill="#fff"></path><path d="M125.16,72.85l-.03-.02-2.81,2.46,1.85,1.19,.99-3.63Zm-4.81,4.16c-.14,.14-.25,.25-.3,.33-.21,.32-.12,.63,.51,1.01l-.14,.21-2.3-1.48,.13-.21c.61,.39,.98,.3,1.86-.46l6.85-5.88,.2,.13-2.34,8.78c-.36,1.36-.23,1.5,.37,1.89l-.14,.21-2.89-1.86,.13-.21c.52,.33,.81,.33,1.03-.02,.09-.14,.13-.25,.23-.64l.46-1.76-2.14-1.37-1.54,1.33Z" fill="#fff"></path><path d="M135.4,77.98l-.19,.17c-.7-.8-1-.86-1.88-.07l-5.26,4.79c-.49,.45-.51,.62-.09,1.08l.71,.78c1.07,1.18,1.62,1.26,3.35,.46l.1,.22-2.45,1.25-4.44-4.88,.19-.17c.76,.86,1.07,.8,1.87,.08l5.1-4.64c.86-.79,.83-1.11,.11-1.88l.19-.17,2.7,2.97Z" fill="#fff"></path><path d="M139.6,89.81l-.13-.23c1.44-.96,1.93-2.37,1.24-3.59-.9-1.6-2.86-1.51-5.76,.12-2.72,1.53-3.32,3.15-2.45,4.69,.57,1.02,1.48,1.39,2.99,1.32v.26c-1.69,.16-2.92-.4-3.65-1.69-1.01-1.8-.54-4.44,2.32-6.04,2.78-1.56,5.71-1.14,6.91,.99,.59,1.04,.33,1.86,.51,2.18,.1,.17,.28,.17,.71,0l.12,.22-2.81,1.78Z" fill="#fff"></path><path d="M144.17,93.6l-.24,.08c-.31-.94-.59-1.11-1.66-.74l-6.52,2.26c-1.16,.4-1.17,.73-.86,1.61l-.24,.08-1.27-3.66,.24-.08c.32,.97,.64,1.09,1.68,.73l6.51-2.26c1.07-.37,1.17-.67,.85-1.61l.24-.08,1.27,3.66Z" fill="#fff"></path><path d="M135.68,100.64c.27,1.83,2.16,2.04,5.03,1.62,3.29-.48,4.59-1.37,4.35-2.99-.25-1.71-1.96-2.07-5.03-1.62-3.29,.48-4.59,1.37-4.35,2.99m9.89-1.45c.39,2.67-2.07,4.33-4.62,4.7-2.6,.38-5.39-.52-5.78-3.18-.37-2.54,1.88-4.3,4.62-4.7,2.56-.37,5.39,.51,5.78,3.18" fill="#fff"></path><path d="M84.42,111.91l20.53-27.9,20.55,27.9c-.26,2.63-1.13,7.05-3.72,11.92l-16.83-22.85-16.8,22.85c-2.61-4.87-3.46-9.29-3.73-11.92" fill="#2d2a26"></path><path d="M49.05,63.44c-2.73,9.2,2.23,14.49,2.23,14.49,2.15-8.29-2.23-14.49-2.23-14.49m10.48,7.94c4.12-5.94,1.61-11.77,1.61-11.77,0,0-.21,1.82-1.55,3.48-1.34,1.66-4.33,5.78-6.05,11.88-1.71,6.1-.53,8.08-.53,8.08,.64-3,2.41-5.72,6.53-11.66m-1.12-16.53c-5.46,5.35-5.3,15.2-5.3,15.2,6.37-7.49,5.3-15.2,5.3-15.2m-8.67,34.46c.75-3.94,.36-6.39,.36-6.39-.97-5.65-3.14-6.17-3.14-6.17,.11,.63-.07,3.12-.96,9.89-1.38,10.41,2.26,14.63,2.26,14.63-.14-1.3,.74-8.02,1.49-11.96m-5.16,23.79c-2.29-11.76-8.35-13.84-8.35-13.84,.76,7.38,8.35,13.84,8.35,13.84m1.02-33.05c.3-6.2-2.09-8.73-2.09-8.73-3.11,9.5,.14,16.8,.14,16.8,0,0,1.65-1.87,1.96-8.07m-10.82,29.4c4.05,7.54,12.52,9.11,12.52,9.11-5.54-8.75-12.52-9.11-12.52-9.11m18.04-22.84s9.61-6.39,9.92-13.06c0,0-7.47,3.09-9.92,13.06m31.31-44.32c.52-.16,.86,.21,1.19,1.3l3.12,10.27c.34,1.11,.12,1.8-1,2.17l.12,.39,5-1.52-.12-.39c-1.14,.35-1.73-.05-2.1-1.27l-4.13-13.61-.39,.12-2.64,2.84,.26,.29c.16-.22,.44-.51,.69-.58m17.06,115.34s-8.76-6.3-15.82-5.14c0,0,4.35,5.8,15.82,5.14m-30.5-.77s6.38,1.91,14.23,3.14c7.84,1.23,11.52-1.07,11.52-1.07-1.27-.02-5.34-.72-7.31-1.29-1.97-.57-5.09-2.38-10.82-2.83-5.73-.45-7.62,2.05-7.62,2.05m6.39-95.48s-8.56,.21-13.59,8.45c0,0,8.99-1.5,13.59-8.45m-9.68-14.34c-5.03,5.99-3.58,14.88-3.58,14.88,6.1-9.2,3.58-14.88,3.58-14.88m1.93,94.6c3.95,8.85,11.83,10.52,11.83,10.52-5.83-10.43-11.83-10.52-11.83-10.52m10.49-99.25c-8.72,4.34-10.7,12.79-10.7,12.79,9.52-5.88,10.7-12.79,10.7-12.79m-2.3,12.79c4.5-4.55,3.26-7.6,3.26-7.6-1.02,1.07-6.15,5.35-10.86,9.26-4.71,3.91-5.19,9.31-5.19,9.31,3-3.8,8.29-6.42,12.79-10.97m-5.06,98.19c-10-3.8-15.99,.21-15.99,.21,9.83,3.39,15.99-.21,15.99-.21m73.25-3.02s10.31-.81,15.89-7.28c0,0-8.27-.84-15.89,7.28m-27.32,11.69c7.21,6.08,15.21,3.9,15.21,3.9-6.77-5.34-15.21-3.9-15.21-3.9m9.39-.49s13.23,1.96,17.73-2.42c0,0-5.43-2.78-17.73,2.42m9.78-8.18s6.16,3.6,15.99,.21c0,0-5.99-4.01-15.99-.21m25.14-34.8s8.47-1.57,12.52-9.11c0,0-6.98,.36-12.52,9.11m-9.31,20.38s9.47,.64,14.65-5.26c0,0-8.55-1.08-14.65,5.26m6.22-5.9s9.79-5.26,11.4-11.36c0,0-6.94,.84-11.4,11.36m-35.31,35.56c-2.45-2.17-9.55-9.31-19.1-9.51,0,0,3.17,1.41,6.98,4.86,3.81,3.45,9.35,8.91,16.37,6.5,0,0-1.81,.32-4.25-1.84m-75.88-25.54c5.58,6.47,15.89,7.28,15.89,7.28-7.62-8.12-15.89-7.28-15.89-7.28m7.8-.4c1.64,1.08,6.35,5.08,12.39,7.59,6.04,2.51,9.63,1.7,9.63,1.7-3.97-1.3-8.7-4.74-11.71-7.31-3-2.57-5.79-3.28-5.79-3.28-4.62-1.33-6.47-.12-6.47-.12,0,0,.31,.34,1.95,1.43m-5.82-9.62c-4.45-10.51-11.4-11.36-11.4-11.36,1.61,6.1,11.4,11.36,11.4,11.36m6.22,5.9c-6.1-6.34-14.65-5.26-14.65-5.26,5.18,5.9,14.65,5.26,14.65,5.26m48.39,20.79s0-.01,0-.01c0,0,0,0,0,0,0,0,0,0,0,0,0,0,0,0,0,.01-8.09,4.53-8.83,13.06-8.83,13.06,6.38-2.2,8.68-12.3,8.83-13.03,.16,.73,2.45,10.82,8.83,13.03,0,0-.74-8.53-8.83-13.06m-.2-.64c-9.55,.2-16.65,7.34-19.1,9.51-2.45,2.17-4.25,1.84-4.25,1.84,7.02,2.41,12.56-3.05,16.37-6.5,3.81-3.45,6.98-4.86,6.98-4.86m-40.31,.03c4.5,4.38,17.73,2.42,17.73,2.42-12.3-5.2-17.73-2.42-17.73-2.42m11.9,6.81s8.01,2.18,15.21-3.9c0,0-8.44-1.44-15.21,3.9M39.24,83.66s-3.14,3.91,5.12,13.53c0,0,.47-7.91-5.12-13.53m127.11,4.46s3.25-7.3,.14-16.8c0,0-2.4,2.53-2.09,8.73,.3,6.2,1.96,8.07,1.96,8.07m7.42,11.13s-6.06,2.09-8.35,13.84c0,0,7.59-6.46,8.35-13.84m-8.13-2.07c8.26-9.62,5.12-13.53,5.12-13.53-5.59,5.62-5.12,13.53-5.12,13.53m-5.37-7.88c.75,3.94,1.63,10.66,1.49,11.96,0,0,3.64-4.21,2.26-14.63-.9-6.77-1.07-9.26-.96-9.89,0,0-2.18,.52-3.14,6.17,0,0-.39,2.45,.36,6.39m-3.27-6.26s1.18-1.98-.54-8.08c-1.71-6.1-4.71-10.22-6.04-11.88-1.34-1.66-1.55-3.48-1.55-3.48,0,0-2.51,5.83,1.61,11.77,4.12,5.94,5.88,8.67,6.53,11.66m3.96-19.6s-4.38,6.2-2.23,14.49c0,0,4.96-5.29,2.23-14.49m-9.36-8.59s-1.07,7.71,5.3,15.2c0,0,.16-9.84-5.3-15.2m5.59,31.76c-2.45-9.97-9.92-13.06-9.92-13.06,.3,6.67,9.92,13.06,9.92,13.06m-32.55,65.88c-7.06-1.16-15.82,5.14-15.82,5.14,11.47,.66,15.82-5.14,15.82-5.14m.45,7.51c7.84-1.23,14.23-3.14,14.23-3.14,0,0-1.89-2.51-7.62-2.05-5.73,.45-8.85,2.26-10.82,2.83-1.97,.58-6.04,1.27-7.31,1.29,0,0,3.67,2.3,11.52,1.07m28.71-17.34c1.64-1.09,1.95-1.43,1.95-1.43,0,0-1.86-1.21-6.47,.12,0,0-2.79,.71-5.79,3.28-3,2.57-7.74,6.01-11.71,7.31,0,0,3.59,.81,9.63-1.7,6.04-2.51,10.75-6.5,12.39-7.59m4.01-10.54s2.05-2.01,3.97-5.26c1.93-3.25,3.57-5.46,4.09-5.82,0,0-2.65-.96-7.46,3.41-4.82,4.37-3.65,8.23-10.15,14.33,0,0,3.93-.44,9.55-6.66m-2.11-43.03c-2.45,5.84,3.8,14.96,3.8,14.96,1.79-8.57-3.8-14.96-3.8-14.96m-11.01,51.54s6.62-4.57,7.22-14.93c0,0-5.74,3.09-7.22,14.93m10.51-17.34s4.9-7.3,1.89-15.13c0,0-4.7,4.94-1.89,15.13m12.44-23.8s-2.97,1.04-4.69,4.01c-1.73,2.97-2.49,7.82-3.09,10.79-.6,2.97-2.01,7.06-2.01,7.06,0,0,4.65-4.17,6.3-9.11,1.64-4.94,3.09-11.76,3.49-12.76m-57.79-52.93c-1.52-.13-2.28-2.12-2.02-5.29,.18-2.2,1-3.4,2.28-3.29,1.66,.14,2.41,2.25,2.12,5.8-.07,.85-.11,1.33-.26,2-.72,.58-1.4,.84-2.11,.78m.87,5.27c2.33-1.98,3.49-4.67,3.72-7.48,.33-4.02-1.29-6.9-3.98-7.12-2.82-.24-4.59,2.69-4.83,5.6-.21,2.53,1.19,4.56,3.28,4.73,1.04,.09,2-.24,2.82-.96l.04,.05c-1.12,3.98-3.69,6.56-6.55,6.51l-.04,.43c2.24,.33,4.02-.47,5.53-1.76m-12.95-13.81c1.32-.14,2.36,.9,2.53,2.53,.15,1.47-.31,2.71-1.47,3.76-2.16-1.45-2.88-2.61-2.99-3.68-.15-1.39,.65-2.48,1.92-2.62m3.98,12.48c.15,1.46-.7,2.65-2.02,2.79-1.63,.17-2.8-1.14-3.03-3.36-.17-1.66,.2-2.84,1.2-3.78,2.82,1.83,3.69,2.81,3.85,4.35m-4.42-4.82c-1.72,1.61-2.46,3.15-2.29,4.78,.24,2.27,2.19,3.81,4.53,3.56,2.32-.24,3.92-2.25,3.68-4.59-.19-1.82-1.23-3.12-3.77-4.69,1.93-1.64,2.62-2.86,2.47-4.27-.16-1.54-1.6-3.37-4.1-3.11-2.34,.24-3.79,1.95-3.55,4.17,.16,1.54,1.05,2.76,3.04,4.15m-46.81,58.35s6.25-9.12,3.8-14.96c0,0-5.59,6.39-3.8,14.96m4.3,19.25c2.81-10.19-1.89-15.13-1.89-15.13-3.01,7.83,1.89,15.13,1.89,15.13m10.51,17.34c-1.48-11.84-7.22-14.93-7.22-14.93,.6,10.35,7.22,14.93,7.22,14.93m-21.19-19.58c.52,.36,2.17,2.57,4.09,5.82,1.93,3.25,3.97,5.26,3.97,5.26,5.62,6.22,9.55,6.66,9.55,6.66-6.5-6.1-5.34-9.95-10.15-14.33-4.82-4.37-7.46-3.41-7.46-3.41m2.93-17.54c-1.73-2.97-4.69-4.01-4.69-4.01,.4,1,1.85,7.83,3.49,12.76,1.64,4.94,6.3,9.11,6.3,9.11,0,0-1.4-4.09-2.01-7.06-.6-2.97-1.36-7.82-3.09-10.79m93.61,38.12s-6,.1-11.83,10.52c0,0,7.87-1.67,11.83-10.52m4.6-75.49s-.48-5.4-5.19-9.31c-4.71-3.91-9.85-8.19-10.86-9.26,0,0-1.23,3.05,3.26,7.6,4.49,4.55,9.79,7.17,12.79,10.97m-12.36-4.76c4.6,6.96,13.59,8.45,13.59,8.45-5.03-8.24-13.59-8.45-13.59-8.45m-14.35-12.44c.22-.8,.38-1.27,.66-1.91,.81-.44,1.54-.56,2.22-.36,1.46,.41,1.84,2.51,.98,5.58-.59,2.13-1.62,3.15-2.85,2.8-1.6-.45-1.97-2.67-1.01-6.1m.52,6.78c2.77,.77,5.04-1.87,5.8-4.6,.68-2.45-.31-4.7-2.33-5.26-1.01-.28-2.01-.14-2.95,.41l-.03-.06c1.84-3.68,4.86-5.75,7.66-5.16l.12-.41c-3.84-1.34-9.15,1.41-10.81,7.34-1.09,3.89-.06,7.01,2.55,7.74m23.51-8.68s-2.51,5.67,3.58,14.88c0,0,1.45-8.88-3.58-14.88m-1.71,8.13s-1.98-8.45-10.7-12.79c0,0,1.18,6.9,10.7,12.79" fill="#997f54"></path></g><g><g><g><path d="M64.49,23.81l.85,1.54-4.65,2.57,.73,1.33,4.13-2.28,.84,1.53-4.13,2.28,1.02,1.84-1.81,1-3.44-6.23,6.46-3.57Z" fill="#2d2a26"></path><path d="M76.23,26.51l-1.13-.99-4.06,1.65-.12,1.5-2.06,.84,.72-7.97,2.64-1.07,6.07,5.21-2.05,.83Zm-5.05-1.07l2.6-1.06-2.35-2.05-.25,3.11Z" fill="#2d2a26"></path><path d="M86.83,21.37l-1.23-4.95,1.99-.49,1.71,6.91-2.93,.73-5.3-3.94,1.23,4.95-2,.5-1.71-6.91,2.94-.73,5.3,3.94Z" fill="#2d2a26"></path><path d="M96.85,14.62l8.57-.35,.07,1.75-3.25,.13,.22,5.36-2.06,.08-.22-5.36-3.26,.13-.07-1.75Z" fill="#2d2a26"></path><path d="M107.92,17.84c.2-2.35,1.94-3.6,4.93-3.34,2.98,.26,4.49,1.79,4.29,4.13-.2,2.35-1.95,3.62-4.93,3.36-2.99-.26-4.49-1.79-4.29-4.15Zm7.07,.61c.11-1.23-.53-2.05-2.29-2.2-1.75-.15-2.52,.53-2.62,1.78-.11,1.25,.54,2.07,2.28,2.22,1.75,.15,2.53-.55,2.64-1.79Z" fill="#2d2a26"></path><path d="M129.41,17.57l-4.18,2.13,2.62,4.82-2.53-.57-1.82-3.36-1.99,1.01-.32,1.41-2.01-.46,1.57-6.95,2.02,.45-.7,3.12,4.34-2.29,3.02,.68Z" fill="#2d2a26"></path><path d="M139.29,20.99l-.55,1.52-5-1.81-.39,1.07,4.81,1.74-.55,1.52-4.81-1.74-.39,1.07,5,1.8-.55,1.52-6.94-2.51,2.42-6.7,6.94,2.51Z" fill="#2d2a26"></path><path d="M146.5,30.14l2.34-4.54,1.83,.94-3.27,6.33-2.69-1.39-1.39-6.47-2.34,4.54-1.84-.95,3.27-6.33,2.7,1.39,1.39,6.47Z" fill="#2d2a26"></path></g><g><path d="M57.53,179.5c-.31,.51,0,1.15,1.6,2.12,1.47,.88,1.97,.87,2.2,.49,.27-.44,.04-.69-1.7-1.9-2.37-1.66-3.16-2.81-2.35-4.16,.77-1.27,2.49-1.02,4.6,.25,2.35,1.41,3.27,2.94,2.51,4.33l-1.85-1.11c.32-.54-.14-1.1-1.51-1.92-1.3-.78-1.72-.74-1.92-.41-.23,.38,0,.67,1.57,1.8,2.14,1.52,3.5,2.55,2.54,4.15-.94,1.56-2.66,1.15-4.83-.16-2.47-1.49-3.6-2.93-2.72-4.59l1.85,1.12Z" fill="#2d2a26"></path><path d="M66.2,183.1c.94-2.17,2.98-2.79,5.74-1.6,2.75,1.19,3.69,3.12,2.76,5.28-.94,2.17-3,2.81-5.75,1.62-2.76-1.19-3.69-3.12-2.75-5.3Zm6.52,2.83c.49-1.14,.14-2.11-1.48-2.82-1.61-.7-2.56-.29-3.05,.85-.5,1.15-.14,2.13,1.46,2.83,1.61,.7,2.58,.28,3.07-.87Z" fill="#2d2a26"></path><path d="M82.52,185.25c2.52,.71,3.65,2.19,3.36,4.01l-2.11-.59c.04-.67-.45-1.38-1.72-1.73-1.47-.41-2.38,.11-2.72,1.31-.34,1.21,.18,2.14,1.64,2.55,1.27,.35,2.06,0,2.37-.61l2.11,.59c-.7,1.72-2.43,2.41-4.96,1.71-2.75-.77-3.9-2.47-3.25-4.82,.66-2.34,2.52-3.19,5.27-2.42Z" fill="#2d2a26"></path><path d="M91.13,187.38l-1.26,7-2.03-.37,1.26-7,2.03,.37Z" fill="#2d2a26"></path><path d="M93.28,191.41c.19-2.35,1.92-3.6,4.91-3.36,2.98,.24,4.5,1.77,4.3,4.11-.19,2.35-1.93,3.62-4.92,3.38-2.99-.24-4.5-1.77-4.3-4.13Zm7.07,.58c.1-1.23-.54-2.04-2.3-2.19-1.75-.14-2.51,.55-2.62,1.79-.1,1.25,.55,2.06,2.29,2.21,1.75,.14,2.53-.56,2.63-1.81Z" fill="#2d2a26"></path><path d="M107.35,193.3c.03,.6,.64,.96,2.51,.86,1.71-.09,2.12-.38,2.09-.83-.03-.52-.35-.59-2.47-.62-2.89-.05-4.2-.56-4.28-2.14-.08-1.48,1.49-2.24,3.95-2.36,2.74-.14,4.36,.6,4.5,2.18l-2.15,.11c-.03-.63-.73-.83-2.33-.75-1.51,.08-1.84,.35-1.82,.73,.02,.44,.37,.56,2.31,.62,2.62,.06,4.33,.15,4.43,2.02,.09,1.82-1.56,2.44-4.09,2.57-2.88,.15-4.63-.42-4.82-2.29l2.16-.11Z" fill="#2d2a26"></path><path d="M117.06,193.29l1.97-.29,.22,1.53-1.97,.29-.23-1.53Z" fill="#2d2a26"></path><path d="M124.91,185.93c2.55-.62,4.26,.12,4.9,1.85l-2.13,.52c-.29-.61-1.07-.98-2.35-.67-1.48,.36-2.02,1.26-1.73,2.48,.3,1.22,1.21,1.78,2.68,1.42,1.28-.31,1.8-1.01,1.77-1.7l2.13-.52c.23,1.84-.94,3.3-3.49,3.92-2.78,.68-4.62-.24-5.2-2.61-.58-2.36,.63-4.01,3.41-4.69Z" fill="#2d2a26"></path><path d="M132.62,187.73c-.87-2.2,.14-4.08,2.93-5.19,2.78-1.1,4.82-.4,5.68,1.79,.87,2.2-.14,4.11-2.92,5.21-2.79,1.1-4.82,.4-5.69-1.81Zm6.61-2.61c-.45-1.15-1.39-1.6-3.03-.95-1.63,.64-2.02,1.6-1.56,2.76,.46,1.17,1.41,1.61,3.03,.97,1.63-.64,2.02-1.62,1.56-2.78Z" fill="#2d2a26"></path><path d="M145.6,186.26l-3.58-6.16,2.78-1.62,4.52,2.84-.24-5.33,2.78-1.62,3.58,6.16-1.78,1.03-2.59-4.46,.28,5.81-1.65,.96-4.91-3.11,2.6,4.46-1.79,1.04Z" fill="#2d2a26"></path></g></g><path d="M48.34,171.86c-18.95-16.08-30.98-40.07-30.98-66.86S30.03,52.95,49.85,36.88" fill="none" stroke="#997f54" stroke-miterlimit="10" stroke-width="2.22"></path><path d="M160.16,36.89c19.82,16.07,32.48,40.61,32.48,68.11s-12.03,50.79-30.98,66.87" fill="none" stroke="#997f54" stroke-miterlimit="10" stroke-width="2.22"></path></g></g></g></svg>