<svg xmlns="http://www.w3.org/2000/svg" id="Layer_2" viewBox="0 0 210 210"><g id="Layer_1-2"><g><g><circle cx="105" cy="105" r="105" fill="#016538"></circle><path d="M105,5.32c54.96,0,99.68,44.72,99.68,99.68s-44.72,99.68-99.68,99.68S5.32,159.96,5.32,105,50.04,5.32,105,5.32m0-5.32C47.01,0,0,47.01,0,105s47.01,105,105,105,105-47.01,105-105S162.99,0,105,0h0Z" fill="#fff"></path></g><g><g><path d="M105,34.6c38.88,0,70.4,31.52,70.4,70.4s-31.52,70.4-70.4,70.4-70.4-31.52-70.4-70.4S66.12,34.6,105,34.6" fill="#fff" fill-rule="evenodd"></path><path d="M105,36.61c37.77,0,68.39,30.62,68.39,68.39s-30.62,68.39-68.39,68.39-68.39-30.62-68.39-68.39S67.23,36.61,105,36.61m0,1.76c36.8,0,66.63,29.83,66.63,66.63s-29.83,66.63-66.63,66.63-66.63-29.83-66.63-66.63S68.2,38.37,105,38.37" fill="#016538" fill-rule="evenodd"></path><path d="M105,40.28c35.74,0,64.72,28.97,64.72,64.72s-28.97,64.72-64.72,64.72-64.72-28.97-64.72-64.72S69.26,40.28,105,40.28m0,6.03c19.55,0,35.4,15.85,35.4,35.4s-15.85,35.4-35.4,35.4-35.4-15.85-35.4-35.4,15.85-35.4,35.4-35.4m-36.14,50.49c.52,1.35,2.05,4.29,2.67,5.27,1.54,2.37,.52,5.06-2.36,6.53l-5.9,3.01c-2.81,1.4-8.15,.78-9.16-3-.45-1.29-.66-2.31-.96-3.68l-8.43,2.35c-.2-3.05-.23-3.58-.05-6.18l24.18-4.29Zm-2.57,4.55l-8.12,2.21c.1,.71,.22,1.25,.44,1.96,.59,1.95,1.5,1.91,3.78,1.08l2.97-1.11c1.19-.53,2.38-1.07,1.75-2.42-.41-.74-.83-1.75-.83-1.71m10.27,7.38c.93,.97,2.07,2.06,3.21,3.02l-22.62,30.17c-1.45-1.89-2.94-4.12-4.17-6.2l6.34-6.84c-1.4-2.1-2.63-3.89-3.78-6.57l-7.33,3.23c-.81-2.13-1.5-4.49-1.84-6.12l30.19-10.68Zm-4.99,6.79l-11.46,4.78c.86,1.69,1.69,3,2.84,4.53l8.62-9.31Zm-13.6,27.4l25.65-28.3c-.1-.02,2.32,1.47,3.48,2.06l-19.81,26.26c2.07,2.06,2.86,2.71,5.38,4.6l-3.59,6.1c-3.77-2.71-8.71-7.52-11.11-10.72m12.65,11.81l19.87-36.52c1.17,.49,2.49,.91,3.67,1.26l-2.18,18.81c.59-1.36,7.38-17.62,7.38-17.69,1.04,.17,3,.34,3.87,.38l-2.67,44.39c-2.27-.06-5.78-.59-8.26-1.18l3.79-22.4-9.53,15.3-.24-18.6c-.79,2.36-8.67,20.4-8.67,20.47-2.82-1.44-5.13-2.89-7.02-4.22m41.92-34.42c-2.7,.48-4.25,.68-7.78,.71l-.91,44.5c6.94,.19,14-.95,19.97-2.94l-1.99-7.52c-3.2,1.03-6.33,1.79-9.44,2.07l-1.76-15.2c3.22-.34,4.97-.73,7.27-1.48l-1.53-5.66c-2.14,.61-4.19,.94-6.43,1.2l-1.24-10.74c1.68-.05,3.43-.34,4.98-.73l-1.14-4.2Zm1.31-.27c1.34-.32,2.22-.56,3.49-.98l17.24,38.82c-2.33,1.28-5.2,2.69-8.09,3.77l-12.64-41.62Zm23.34,36.27l-18.47-37.75c2.37-.87,4.38-1.86,6.39-3.05,2.54-1.64,4.66,.02,6.79,1.99l5.4,5.02c5.12,4.76,4.19,8.31,3.06,9.45l13.42,8.82c-1.45,2.01-2.89,3.77-4.5,5.45l-13.1-10.58-1.53,1.04,9.78,14.3c-2.12,1.86-4.81,3.81-7.23,5.32m-5.37-24.12c2.54-1.65,4.08-2.95,.94-6.62l-3.5-4.42c-2.13-2.92-3.38-1.34-4.98-.6l7.54,11.64Zm2.29-24.02c-.9,.95-1.83,1.93-2.91,2.86l23.12,29.01c1.39-1.9,2.81-4.18,4-6.3l-6.32-6.31c1.36-2.21,1.95-3.47,3.07-6.05l7.19,3.14c.81-2.09,1.43-4,1.87-6.01l-30.01-10.35Zm5.71,6.82l10.64,4.36c-.82,1.66-1.23,2.5-2.37,4.21l-8.27-8.57Zm6.71-13.29c.53-1.14,.99-2.33,1.44-3.56-1.23-.22-2.23-.39-3.19-.56-2.33-.37-3.87,.39-4.63,1.42-.76,1.02-1.23,1.99-1.78,3.39-.55,1.4-.52,3.95,3.42,5.71,3.43,1.58,6,3.16,11.44-1.48,3.19-2.56,4.4-1.7,5.56-1.45,1.67,.56,1.84,1.23,1.52,2.98-.44,2.16-2.88,1.02-4.06,.55-.45,1.72-.92,3.04-1.68,4.9,.71,.3,1.59,.71,2.39,1.04,3.63,1.45,7.72,.66,8.66-3.72,.57-2.95,.4-4.38,.4-4.89-.05-2.73-2.06-5.15-5.53-5.77-3.39-.68-5.65-.87-10.38,2.7-2.43,1.8-2.84,2.48-5.04,1.61-1.17-.44-2.3-.84-1.64-2.21,.5-1.06,1.02-1.23,3.1-.62M71.44,56.57l-.79,1.84,1.35,1.47-1.98-.19-.97,1.75-.43-1.95-1.95-.39,1.71-1.02-.23-1.99,1.49,1.32,1.8-.84Zm-5.82,6.52l-.55,2.41,1.96,1.48-2.44,.22-.79,2.33-.96-2.27-2.45-.03,1.85-1.62-.73-2.36,2.1,1.27,2-1.42Zm-4.98,8.35l-.04,3.18,2.88,1.32-3.02,.95-.36,3.16-1.83-2.59-3.1,.63,1.89-2.55-1.56-2.77,3,1.02,2.13-2.35Zm-3.56,10.69l.96,3.95,3.98,.71-3.44,2.14,.56,4.03-3.09-2.63-3.63,1.78,1.53-3.76-2.8-2.93,4.03,.3,1.9-3.58Zm95.84,0l-.96,3.95-3.98,.71,3.44,2.14-.56,4.03,3.09-2.63,3.63,1.78-1.53-3.76,2.8-2.93-4.03,.3-1.9-3.58Zm-3.57-10.69l.03,3.18-2.88,1.32,3.02,.95,.36,3.16,1.83-2.59,3.1,.63-1.89-2.55,1.56-2.77-3,1.02-2.13-2.35Zm-4.98-8.35l.55,2.41-1.97,1.48,2.44,.22,.79,2.33,.96-2.27,2.45-.03-1.85-1.62,.73-2.36-2.1,1.27-2-1.42Zm-5.82-6.52l.79,1.84-1.35,1.47,1.98-.19,.97,1.75,.43-1.95,1.95-.39-1.71-1.02,.23-1.99-1.49,1.32-1.81-.84Z" fill="#016538" fill-rule="evenodd"></path><path d="M105,48.12c18.55,0,33.59,15.04,33.59,33.59s-15.04,33.59-33.59,33.59-33.59-15.04-33.59-33.59,15.04-33.59,33.59-33.59m26.86,14.82c.48,19.7-9.26,39.89-26.28,51.65,17.85-.31,32.23-14.87,32.23-32.8,0-7.01-2.2-13.51-5.95-18.85m-27.42,51.65c-16.64-11.58-26.73-32.09-26.27-51.68-3.77,5.34-5.98,11.85-5.98,18.88,0,17.93,14.39,32.5,32.25,32.8m-25.85-52.26c7.75-1.82,17.27-5.81,26.01-13.34-10.67,.13-20.11,5.35-26.01,13.34m26.81-13.34c8.41,7.55,18.01,11.44,26.02,13.33-5.9-7.99-15.35-13.21-26.02-13.33m25.82,13.93c-15.36-3.6-24.73-11.92-26.2-13.4-1.43,1.46-11.12,9.9-26.16,13.4-.3,32.88,24.01,49.78,26.16,51.22,2.13-1.43,26.41-17.73,26.2-51.22" fill="#016538" fill-rule="evenodd"></path><path d="M129.1,64.13c.59,18.13-8.72,37.02-24.1,47.66-15.01-10.47-24.66-29.65-24.09-47.66,6.97-1.62,16.19-5.2,24.09-12.33,7.59,7.15,16.9,10.63,24.1,12.32m-26.21-9.64h4.18c-1.06-.85-1.76-1.49-2.06-1.8-.29,.31-1.02,.96-2.12,1.8m4.52,.27h-4.87c-.75,.57-1.66,1.22-2.71,1.9h10.22c-1.03-.69-1.91-1.33-2.64-1.9m3.05,2.17h-11.04c-.96,.62-2.02,1.26-3.19,1.91h6.92c-.18,.08-.35,.17-.53,.27h-6.88c-1.18,.64-2.44,1.28-3.8,1.9h7.98c-.1,.09-.2,.18-.29,.27h-8.28c-1.53,.68-3.16,1.32-4.89,1.91h6.35c-.09,.09-.17,.18-.25,.27h-6.91c-1.31,.42-2.68,.81-4.09,1.15,0,.25,0,.5,0,.75h13.48c.07,.08,.14,.17,.2,.27h-13.68c.01,.64,.03,1.28,.06,1.91h13.86v.27h-13.85c.03,.64,.08,1.27,.13,1.9h13.72v.27h-13.7c.06,.64,.13,1.28,.2,1.91h13.49v.27h-13.46c.08,.64,.17,1.28,.28,1.9h13.18v.27h-13.14c.11,.65,.23,1.28,.36,1.91h12.97l-.27,.27h-12.64c.13,.63,.27,1.26,.43,1.87h11.53l.29,.27h-11.75c.17,.66,.34,1.31,.52,1.94h11.71v.27h-11.63c.19,.64,.39,1.28,.6,1.9h11.04v.27h-10.94c.22,.65,.45,1.28,.69,1.91h10.26v.27h-10.15c.25,.65,.51,1.28,.77,1.9h9.38v.27h-9.26c.28,.65,.57,1.29,.87,1.91h8.39v.27h-8.26c.32,.65,.64,1.28,.97,1.9h7.29v.27h-7.15c.34,.63,.69,1.25,1.05,1.86h6.09c0,.09,0,.18,0,.27h-5.93c.39,.65,.78,1.29,1.18,1.9h4.08c-.08,.1-.17,.19-.25,.27h-3.65c.43,.66,.87,1.3,1.31,1.91h1.63c.1,.1,.2,.19,.3,.27h-1.74c.48,.66,.95,1.29,1.43,1.9h4.12c.04,.09,.08,.18,.12,.27h-4.03c.53,.67,1.06,1.3,1.58,1.91h3.83c.1,.09,.2,.18,.3,.27h-3.91c.59,.67,1.17,1.31,1.73,1.9h14.88c.57-.59,1.15-1.23,1.75-1.9h-9.58c-.11-.09-.22-.18-.33-.27h10.15c.53-.61,1.06-1.24,1.59-1.91h-13.27c-.05-.09-.09-.18-.14-.27h13.63c.48-.61,.96-1.24,1.44-1.9h-15.73c-.02-.09-.04-.18-.06-.27h15.99c.44-.61,.88-1.25,1.31-1.91h-17.57c0-.09-.01-.18-.02-.27h17.77c.4-.61,.79-1.25,1.18-1.9h-19.01c0-.09,0-.18,0-.27h19.17c.36-.6,.71-1.22,1.05-1.86h-20.21v-.27h20.36c.33-.62,.65-1.25,.97-1.9h-21.33v-.27h21.45c.3-.62,.59-1.26,.87-1.91h-22.32v-.27h22.44c.27-.62,.52-1.25,.77-1.9h-12.9c.15-.05,.3-.1,.45-.15,.1-.04,.2-.08,.29-.12h12.26c.24-.63,.46-1.26,.68-1.91h-9.91c.1-.09,.19-.18,.28-.27h9.71c.21-.62,.4-1.26,.59-1.9h-8.75c.06-.09,.12-.18,.18-.27h8.65c.18-.63,.36-1.28,.52-1.94h-8.16c.04-.09,.07-.18,.11-.27h8.12c.15-.61,.29-1.24,.42-1.87h-7.92c.03-.09,.04-.18,.07-.27h7.91c.13-.63,.24-1.27,.35-1.91h-7.91c.01-.09,.02-.18,.03-.27h7.92c.1-.63,.19-1.26,.27-1.9h-8.09c0-.09,0-.18,0-.27h8.12c.07-.63,.14-1.27,.2-1.91h-8.45c0-.09-.03-.18-.04-.27h8.51c.05-.62,.09-1.26,.12-1.9h-9.01c-.02-.09-.05-.18-.07-.27h9.1c.03-.63,.05-1.27,.06-1.91h-9.82c-.04-.09-.08-.18-.12-.27h9.94c0-.25,0-.5,0-.75-1.45-.34-2.85-.73-4.18-1.15h-6.8c-.06-.09-.12-.18-.18-.27h6.16c-1.77-.59-3.42-1.24-4.96-1.91h-2.82c-.1-.09-.19-.18-.29-.27h2.52c-1.37-.62-2.64-1.26-3.81-1.9h-1.61c-.2-.1-.41-.18-.63-.27h1.75c-1.16-.65-2.21-1.3-3.15-1.91m-7.32,1.91h.73c-.19,.08-.38,.17-.57,.27h-.69c.17-.09,.35-.18,.53-.27m-3.23,2.17h.77c-.1,.09-.19,.18-.29,.27h-.78c.1-.09,.19-.18,.29-.27m-7.12,2.18h.44c-.08,.09-.16,.17-.24,.27h-.45c.08-.09,.16-.18,.25-.27m2.24,2.17h.57c.03,.08,.04,.17,.05,.27h-.43c-.06-.1-.12-.19-.2-.27m.44,2.18h.19v.27h-.19v-.27Zm0,2.17h.19v.27h-.19v-.27Zm0,2.18h.18v.27h-.18v-.27Zm0,2.17h.18v.27h-.18v-.27Zm-.77,4.32h.4l.24,.27h-.35l-.29-.27Zm.77,2.21h.18v.27h-.18v-.27Zm0,2.17h.18v.27h-.18v-.27Zm0,2.18h.18v.27h-.18v-.27Zm0,2.17h.18v.27h-.18v-.27Zm0,2.18h.17v.27h-.17v-.27Zm0,2.17h.17v.27h-.17v-.27Zm0,2.13h.17v.27h-.17c0-.09,0-.18,0-.27m-.67,2.17h.79c-.01,.07-.03,.14-.04,.2-.01,.02-.03,.04-.05,.06h-.95c.09-.08,.17-.17,.25-.27m-.96,2.18h.59c.14,.09,.28,.18,.42,.27h-.71c-.1-.08-.2-.17-.3-.27m4.11,2.17h.59c.04,.09,.08,.18,.12,.27h-.59c-.04-.09-.08-.18-.12-.27m1.51,2.18h.58c.1,.09,.2,.18,.3,.27h-.58c-.1-.09-.2-.17-.3-.27m5.17,.27h-.71c-.1-.09-.19-.18-.28-.27h.66c.11,.09,.22,.18,.33,.27m-1.86-2.18h-.46c-.04-.09-.09-.18-.13-.27h.45c.05,.09,.09,.18,.14,.27m-.81-2.17h-.47c-.03-.09-.05-.18-.07-.27h.48c.02,.09,.04,.18,.06,.27m-.33-2.18h-.54v-.04s0-.23,0-.23h.52c0,.09,.01,.18,.02,.27m-.08-2.17h-.46v-.27h.46c0,.09,0,.18,0,.27m0-2.13h-.46v-.27h.46v.27Zm0-2.17h-.46v-.27h.46v.27Zm0-2.18h-.45v-.27h.45v.27Zm10.31-2.17h-2.18c.52-.03,1.07-.12,1.65-.27h1.26c-.1,.04-.19,.08-.29,.12-.15,.05-.3,.1-.45,.15m3.77-2.18h-.4c.1-.09,.21-.18,.31-.27h.37c-.09,.09-.19,.18-.28,.27m1.84-2.17h-.26c.06-.09,.12-.18,.18-.27h.26c-.06,.09-.12,.18-.18,.27m1.18-2.21h-.22c.04-.09,.08-.18,.12-.27h.21c-.04,.09-.07,.18-.11,.27m.72-2.14h-.19c.02-.09,.05-.18,.07-.27h.19c-.02,.09-.04,.18-.07,.27m.42-2.18h-.17c.01-.09,.03-.18,.04-.27h.17c-.01,.09-.02,.18-.03,.27m.13-2.17h-.15c0-.09,0-.18,0-.27h.15c0,.09,0,.18,0,.27m-.13-2.18h-.13c0-.09-.02-.18-.03-.27h.12c.01,.09,.03,.18,.04,.27m-.42-2.17h-.1c-.02-.09-.05-.18-.07-.27h.1c.02,.09,.05,.18,.07,.27m-.74-2.18h-.09c-.04-.09-.08-.18-.12-.27h.09c.04,.09,.08,.18,.12,.27m-1.16-2.17h-.09c-.06-.09-.11-.18-.18-.27h.08c.06,.09,.13,.18,.18,.27m-1.8-2.18h-.13c-.1-.09-.2-.18-.3-.27h.13c.1,.09,.2,.18,.29,.27m-3.19-2.17h-.44c-.25-.1-.51-.19-.77-.27h.58c.21,.08,.42,.17,.63,.27m-11.37,21.47h.45v.27h-.45v-.27Zm.45,0h1.02c.01,.09,.03,.18,.05,.27h-1.06v-.27Zm1.02,0h.37c.02,.09,.05,.18,.07,.27h-.39c-.02-.09-.03-.18-.05-.27m-1.47,2.17h.45v.27h-.45v-.27Zm.45,0h1.75c.05,.09,.1,.18,.16,.27h-1.91v-.27Zm1.75,0h.66c.07,.09,.14,.18,.22,.27h-.71c-.06-.09-.11-.18-.16-.27m-2.2,2.18h.45v.27h-.45v-.27Zm.45,0h3.89c.17,.1,.34,.19,.52,.27h-4.41v-.27Zm3.89,0h1.68c.46,.14,.96,.23,1.5,.27h-2.65c-.18-.08-.35-.17-.52-.27m-2.34-21.74h.44c-.09,.09-.17,.18-.25,.27h-.44c.08-.09,.16-.18,.24-.27m.44,0h7.75c.09,.09,.18,.18,.26,.27h-8.26c.08-.09,.16-.18,.25-.27m7.75,0h.62c.08,.09,.15,.18,.22,.27h-.57c-.08-.09-.17-.18-.26-.27m-9.61,2.17h.46c-.04,.09-.07,.18-.11,.27h-.46c.03-.09,.07-.18,.11-.27m.46,0h10.69c.04,.09,.08,.18,.12,.27h-10.92c.03-.09,.07-.18,.11-.27m10.69,0h.41c.04,.09,.07,.18,.11,.27h-.4c-.04-.09-.08-.18-.12-.27m-11.68,2.18h.44c0,.09-.02,.18-.02,.27h-.43c0-.09,0-.18,.01-.27m.44,0h11.85c.01,.09,.02,.18,.03,.27h-11.89c0-.09,.01-.18,.02-.27m11.85,0h.38c.01,.09,.02,.18,.03,.27h-.38c0-.09-.01-.18-.03-.27m-12.3,2.17h.42v.27h-.43v-.27Zm.43,0h11.74c-.03,.09-.05,.18-.08,.27h-11.66v-.27Zm11.74,0h.43c-.02,.09-.04,.18-.07,.27h-.44c.03-.09,.05-.18,.08-.27m-12.16,2.18h.43v.27h-.43v-.27Zm.43,0h10.53s-.03,.04-.05,.05c.04,.07,.08,.14,.12,.21h-10.59v-.27Zm10.53,0h.55s-.05,.06-.07,.08c.03,.06,.06,.12,.09,.18h-.5c-.04-.07-.08-.14-.12-.21,.02-.02,.04-.04,.05-.05m-10.96,2.17h.43v.27h-.43v-.27Zm.43,0h11.43c.03,.09,.06,.18,.09,.27h-11.52v-.27Zm11.43,0h.4c.03,.09,.05,.18,.08,.27h-.39c-.03-.09-.06-.18-.09-.27m-11.87,2.18h.44v.27h-.44v-.27Zm.44,0h2.42c-.1,.08-.2,.17-.3,.27h-2.12v-.27Zm2.42,0h.97c-.2,.07-.39,.17-.57,.27h-.7c.09-.1,.19-.19,.3-.27m3.32,0h1.01c.09,.08,.18,.17,.26,.27h-.82c-.14-.1-.29-.19-.45-.27m1.01,0h5.13c0,.09,.01,.18,.01,.27h-4.88c-.08-.1-.17-.18-.26-.27m5.13,0h.38c0,.09,.01,.18,.02,.27h-.38c0-.09,0-.18-.01-.27m-12.33,2.14h.44v.27h-.44v-.27Zm.44,0h1.11c-.02,.09-.04,.18-.06,.27h-1.05v-.27Zm1.11,0h.29c-.03,.09-.05,.18-.07,.27h-.28c.02-.09,.04-.18,.06-.27m6.26,0h.36c0,.09,0,.18,0,.27h-.32c-.01-.09-.02-.18-.04-.27m.36,0h3.98c-.02,.09-.05,.18-.08,.27h-3.9c0-.09,0-.18,0-.27m3.98,0h.47c-.02,.09-.03,.18-.05,.27h-.49c.03-.09,.05-.18,.08-.27m-4.86,2.21h.28c-.07,.1-.15,.19-.23,.27h-.51c.18-.06,.33-.15,.46-.27m.28,0h3.52c-.07,.09-.15,.18-.22,.27h-3.52c.08-.08,.16-.17,.23-.27m3.52,0h.77c-.05,.09-.1,.18-.16,.27h-.83c.08-.09,.15-.18,.22-.27m.02,24.12h-14.36c.65,.67,1.28,1.3,1.88,1.86h10.58c.6-.56,1.24-1.19,1.9-1.86m-2.19,2.13h-10.01c.78,.73,1.5,1.37,2.15,1.9h5.7c.65-.53,1.38-1.17,2.17-1.9m-2.49,2.17h-5.05c1.27,1.04,2.18,1.68,2.53,1.9,.32-.22,1.23-.85,2.51-1.9m-14.47-45.14c1.26-.04,3.07,.86,3.07,2.71v9.22l-1.59,1.57,1.59,1.47v14.89c0,1.04-.24,2.68-2.09,3.39,1.35,1.63,2.61,1.33,4.07,.53,.31,4.49,3.89,5.97,6.25,5.46-3.1-2.27-3.43-5.87-3.45-9v-25.99c0-2.56,1.77-7.1,6.63-7.09,5.43,.01,8.45,7.14,5.26,10.94,5.55,10.28-7.71,15.44-8.11,7.68,4.32,3.69,5.33-3.21,1.76-3.5-5.82-.48-4.04,12.2,5.88,8.22,10.28-4.21,9.81-25.43-5.36-25.83-3.49-.09-6.69,2.68-8.77,5.38-1.62-1.6-3.3-2.01-5.15-.05m2.42,11.68v-8.97c0-1.75-2.02-2.22-3.66-2.12,1.62-2.57,4.01-3.43,6.31-1.49,1.54-2.16,5.31-5.14,8.86-5.04,15.88,.25,16.57,23.04,5.34,27.12-10.87,3.95-12.56-10.01-5.76-9.53,4.43,.38,3.04,7.78-.95,5.45,1.56,4.54,11.5-.11,6.43-9.03,3.36-3.43,.44-10.27-4.51-10.34-4.19-.06-5.95,3.88-5.97,6.54v25.24c-.05,4.47,.58,7.95,4.27,9.9-3.73,1.75-7.6-.79-8.29-4.61-1.6,.68-3.29,.21-4.64-1.96,1.38-.18,2.58-1.09,2.57-3.22v-14.41l-1.85-1.74,1.85-1.81Z" fill="#016538"></path></g><g><g><g><path d="M64.49,23.81l.85,1.54-4.65,2.57,.73,1.33,4.13-2.28,.84,1.53-4.13,2.28,1.02,1.84-1.81,1-3.44-6.23,6.46-3.57Z" fill="#fff"></path><path d="M76.23,26.51l-1.13-.99-4.06,1.65-.12,1.5-2.06,.84,.72-7.97,2.64-1.07,6.07,5.21-2.05,.83Zm-5.05-1.07l2.6-1.06-2.35-2.05-.25,3.11Z" fill="#fff"></path><path d="M86.83,21.37l-1.23-4.95,1.99-.49,1.71,6.91-2.93,.73-5.3-3.94,1.23,4.95-2,.5-1.71-6.91,2.94-.73,5.3,3.94Z" fill="#fff"></path><path d="M96.85,14.62l8.57-.35,.07,1.75-3.25,.13,.22,5.36-2.06,.08-.22-5.36-3.26,.13-.07-1.75Z" fill="#fff"></path><path d="M107.92,17.84c.2-2.35,1.94-3.6,4.93-3.34,2.98,.26,4.49,1.79,4.29,4.13-.2,2.35-1.95,3.62-4.93,3.36-2.99-.26-4.49-1.79-4.29-4.15Zm7.07,.61c.11-1.23-.53-2.05-2.29-2.2-1.75-.15-2.52,.53-2.62,1.78-.11,1.25,.54,2.07,2.28,2.22,1.75,.15,2.53-.55,2.64-1.79Z" fill="#fff"></path><path d="M129.41,17.57l-4.18,2.13,2.62,4.82-2.53-.57-1.82-3.36-1.99,1.01-.32,1.41-2.01-.46,1.57-6.95,2.02,.45-.7,3.12,4.34-2.29,3.02,.68Z" fill="#fff"></path><path d="M139.29,20.99l-.55,1.52-5-1.81-.39,1.07,4.81,1.74-.55,1.52-4.81-1.74-.39,1.07,5,1.81-.55,1.52-6.94-2.51,2.42-6.7,6.94,2.51Z" fill="#fff"></path><path d="M146.5,30.14l2.34-4.54,1.83,.94-3.27,6.33-2.69-1.39-1.39-6.47-2.34,4.54-1.84-.95,3.27-6.33,2.7,1.39,1.39,6.47Z" fill="#fff"></path></g><g><path d="M57.53,179.5c-.31,.51,0,1.15,1.6,2.12,1.47,.88,1.97,.87,2.2,.49,.27-.44,.04-.69-1.7-1.9-2.37-1.66-3.16-2.81-2.35-4.16,.77-1.27,2.49-1.02,4.6,.25,2.35,1.41,3.27,2.94,2.51,4.33l-1.85-1.11c.32-.54-.14-1.1-1.51-1.92-1.3-.78-1.72-.74-1.92-.41-.23,.38,0,.67,1.57,1.8,2.14,1.52,3.5,2.55,2.54,4.15-.94,1.56-2.66,1.15-4.83-.16-2.47-1.49-3.6-2.93-2.72-4.59l1.85,1.12Z" fill="#fff"></path><path d="M66.2,183.1c.94-2.17,2.98-2.79,5.74-1.6,2.75,1.19,3.69,3.12,2.76,5.28-.94,2.17-3,2.81-5.75,1.62-2.76-1.19-3.69-3.12-2.75-5.3Zm6.52,2.83c.49-1.14,.14-2.11-1.48-2.82-1.61-.7-2.56-.29-3.05,.85-.5,1.15-.14,2.13,1.46,2.83,1.61,.7,2.58,.28,3.07-.87Z" fill="#fff"></path><path d="M82.52,185.25c2.52,.71,3.65,2.19,3.36,4.01l-2.11-.59c.04-.67-.45-1.38-1.72-1.73-1.47-.41-2.38,.11-2.72,1.31-.34,1.21,.18,2.14,1.64,2.55,1.27,.35,2.06,0,2.37-.61l2.11,.59c-.7,1.72-2.43,2.41-4.96,1.71-2.75-.77-3.9-2.47-3.25-4.82,.66-2.34,2.52-3.19,5.27-2.42Z" fill="#fff"></path><path d="M91.13,187.38l-1.26,7-2.03-.37,1.26-7,2.03,.37Z" fill="#fff"></path><path d="M93.28,191.41c.19-2.35,1.92-3.6,4.91-3.36,2.98,.24,4.5,1.77,4.3,4.11-.19,2.35-1.93,3.62-4.92,3.38-2.99-.24-4.5-1.77-4.3-4.13Zm7.07,.58c.1-1.23-.54-2.04-2.3-2.19-1.75-.14-2.51,.55-2.62,1.79-.1,1.25,.55,2.06,2.29,2.21,1.75,.14,2.53-.56,2.63-1.81Z" fill="#fff"></path><path d="M107.35,193.3c.03,.6,.64,.96,2.51,.86,1.71-.09,2.12-.38,2.09-.83-.03-.52-.35-.59-2.47-.62-2.89-.05-4.2-.56-4.28-2.14-.08-1.48,1.49-2.24,3.95-2.36,2.74-.14,4.36,.6,4.5,2.18l-2.15,.11c-.03-.63-.73-.83-2.33-.75-1.51,.08-1.84,.35-1.82,.73,.02,.44,.37,.56,2.31,.62,2.62,.06,4.33,.15,4.43,2.02,.09,1.82-1.56,2.44-4.09,2.57-2.88,.15-4.63-.42-4.82-2.29l2.16-.11Z" fill="#fff"></path><path d="M117.06,193.29l1.97-.29,.22,1.53-1.97,.29-.23-1.53Z" fill="#fff"></path><path d="M124.91,185.93c2.55-.62,4.26,.12,4.9,1.85l-2.13,.52c-.29-.61-1.07-.98-2.35-.67-1.48,.36-2.02,1.26-1.73,2.48,.3,1.22,1.21,1.78,2.68,1.42,1.28-.31,1.8-1.01,1.77-1.7l2.13-.52c.23,1.84-.94,3.3-3.49,3.92-2.78,.68-4.62-.24-5.2-2.61-.58-2.36,.63-4.01,3.41-4.69Z" fill="#fff"></path><path d="M132.62,187.73c-.87-2.2,.14-4.09,2.93-5.19,2.78-1.1,4.82-.4,5.68,1.79,.87,2.2-.14,4.11-2.92,5.21-2.79,1.1-4.82,.4-5.69-1.81Zm6.61-2.61c-.45-1.15-1.39-1.6-3.03-.95-1.63,.64-2.02,1.6-1.56,2.76,.46,1.17,1.41,1.61,3.03,.97,1.63-.64,2.02-1.62,1.56-2.78Z" fill="#fff"></path><path d="M145.61,186.25l-3.58-6.16,2.78-1.62,4.52,2.84-.24-5.33,2.78-1.62,3.58,6.16-1.78,1.03-2.59-4.46,.28,5.81-1.65,.96-4.91-3.11,2.6,4.46-1.79,1.04Z" fill="#fff"></path></g></g><path d="M48.34,171.86c-18.95-16.08-30.98-40.07-30.98-66.86S30.03,52.95,49.85,36.88" fill="none" stroke="#fff" stroke-miterlimit="10" stroke-width="2.22"></path><path d="M160.16,36.89c19.82,16.07,32.48,40.61,32.48,68.11s-12.03,50.79-30.98,66.87" fill="none" stroke="#fff" stroke-miterlimit="10" stroke-width="2.22"></path></g></g></g></g></svg>